<svg xmlns="http://www.w3.org/2000/svg" viewBox="0 0 78 32"><path fill="#000" d="M3.077 3.077h25.846v25.846H3.077z"/><path fill="#FFE100" fill-rule="evenodd" d="M0 0h32v32H0V0Zm10.547 14.638h-2.93v10.646h2.93V14.638Zm3.716 0h-3.29s1.869 3.065 1.89 3.103c.143.243.152.392.012.627l-1.903 3.115h3.29s1.587-2.591 1.804-2.951c.215-.36.206-.584-.009-.953-.218-.373-.233-.396-1.52-2.494l-.274-.447Zm9.214 0s.98 1.575 1.09 1.764c.215.37.225.595.009.956l-1.445 2.392c.237.387.553.893.83 1.338.286.457.53.849.606.979.215.37.225.595.009.956l-.235.393c-.293.491-.77 1.294-1.122 1.868h-3.006l1.646-2.702-1.708-2.862 1.532-2.505h-3.71l-1.538-2.577h7.043Zm-5.684 5.467c-.463.756-1.239 2.022-1.384 2.27-.207.356-.216.572-.008.92.145.241.926 1.518 1.392 2.278.466-.76 1.247-2.037 1.392-2.278.208-.348.199-.564-.008-.92-.146-.248-.92-1.514-1.384-2.27Zm-10.21-13.1v5.99h1.966v-5.99H7.583Zm5.771 5.99-1.13-5.037a1.185 1.185 0 0 0-.41-.679 1.137 1.137 0 0 0-.755-.274H9.854l1.35 5.99h2.151Zm.296-5.99v5.99h1.966v-5.99H13.65Zm2.847 2.117c.183.107.392.163.604.16.21.003.418-.052.599-.16a1.198 1.198 0 0 0 .59-1.037 1.151 1.151 0 0 0-.16-.6 1.212 1.212 0 0 0-.43-.43 1.153 1.153 0 0 0-.6-.16 1.204 1.204 0 0 0-1.038.59 1.15 1.15 0 0 0-.16.6 1.189 1.189 0 0 0 .595 1.038Zm2.097-2.117v5.99h1.966v-5.99h-1.966Zm4.582 3.48a4.645 4.645 0 0 0-.127-.207.512.512 0 0 1-.1-.278.538.538 0 0 1 .083-.27l1.671-2.725h-2.16a303.862 303.862 0 0 0-.717 1.177 90.969 90.969 0 0 1-.87 1.413.82.82 0 0 0-.134.405c.01.15.06.296.143.422.034.05.094.149.182.295.087.146.19.316.312.51.12.195.243.394.367.6.124.205.24.396.35.573l.367.595h2.16l-.422-.696a173.957 173.957 0 0 0-.797-1.308c-.127-.205-.23-.374-.308-.506Z" clip-rule="evenodd"/><path fill="#fff" d="M46.045 16.249a5.699 5.699 0 0 1-.177 1.495c-.1.398-.287.767-.55 1.082a2.298 2.298 0 0 1-.97.65 4.216 4.216 0 0 1-1.445.22 4.326 4.326 0 0 1-1.674-.296 2.117 2.117 0 0 1-1.081-.997 4.086 4.086 0 0 1-.372-1.9V9h-1.774v7.79c-.02.702.11 1.399.38 2.046.23.533.59 1.001 1.048 1.36.46.351.986.607 1.546.752a7.13 7.13 0 0 0 1.859.236 5.56 5.56 0 0 0 2.72-.591 3.711 3.711 0 0 0 1.58-1.656c.36-.784.536-1.64.516-2.501V9h-1.606v7.248ZM53.7 12.32a3.308 3.308 0 0 0-.895.39c-.289.179-.555.392-.794.633-.04.04-.08.084-.119.126V12.21l-1.723.254v8.533h1.723v-6.383c.128-.09.26-.173.397-.25.17-.092.344-.174.524-.244.175-.068.352-.127.532-.178a3.607 3.607 0 0 1 1.183-.126l.203-1.589a3.21 3.21 0 0 0-1.03.093ZM63.552 11.99l-.947 1a3.932 3.932 0 0 0-.388-.256 4.622 4.622 0 0 0-2.298-.54 4.62 4.62 0 0 0-2.307.557 3.896 3.896 0 0 0-1.538 1.572 4.963 4.963 0 0 0-.549 2.4 5.109 5.109 0 0 0 .524 2.39c.097.184.209.36.333.526l-.941 1.004.777.71.901-.975c.13.097.267.186.408.265.69.362 1.46.542 2.24.523.809.017 1.609-.175 2.323-.557a4.007 4.007 0 0 0 1.58-1.589 4.923 4.923 0 0 0 .574-2.433 4.832 4.832 0 0 0-.532-2.324c-.1-.184-.215-.36-.343-.525l.977-1.038-.794-.71Zm-5.898 2.924c.19-.423.506-.777.904-1.014.421-.233.897-.35 1.378-.338.382-.008.762.064 1.115.212.19.085.365.2.52.34l-3.932 4.246a4.374 4.374 0 0 1-.306-1.739c-.02-.586.09-1.168.321-1.707Zm4.461 3.481a2.367 2.367 0 0 1-.92 1.056 2.58 2.58 0 0 1-1.344.347 2.444 2.444 0 0 1-1.326-.355 2.059 2.059 0 0 1-.314-.248l3.933-4.247c.059.135.108.273.149.414.111.41.165.834.16 1.259.02.61-.095 1.216-.338 1.775v-.001ZM69.939 12.32a3.312 3.312 0 0 0-.896.39c-.288.179-.554.392-.794.633-.04.04-.079.084-.118.126V12.21l-1.724.254v8.533h1.724v-6.383c.128-.09.26-.173.397-.25.17-.092.344-.174.524-.244.174-.068.352-.127.532-.178a3.634 3.634 0 0 1 1.183-.126l.203-1.589a3.21 3.21 0 0 0-1.031.093ZM77.273 19.587c-.08.016-.166.033-.262.05l-.287.05a2.543 2.543 0 0 1-.28.034c-.09.006-.174.009-.253.009a1.701 1.701 0 0 1-.752-.152 1.088 1.088 0 0 1-.481-.448 1.424 1.424 0 0 1-.17-.718v-4.68h2.383l.186-1.353H74.79V9.71l-1.724.609v2.061h-1.301l-.186 1.352h1.487v5.036c-.007.336.044.67.152.988.087.252.222.484.398.685.16.178.356.322.574.422.224.103.459.177.701.22.24.044.483.066.727.067.18 0 .357-.005.532-.016.175-.011.335-.028.482-.051a7.634 7.634 0 0 0 .743-.152l.102-1.403a1.325 1.325 0 0 1-.203.06Z"/></svg>