<svg xmlns="http://www.w3.org/2000/svg" viewBox="0 0 96 16"><path fill="#fff" d="M0 15V1.001h4.593v14H0ZM10.843 3.23 13.484 15H8.457L5.303 1.001h2.82a2.655 2.655 0 0 1 1.764.641c.491.404.829.964.956 1.587ZM14.174 15V1.001h4.594v14h-4.594Zm8.063-8.675a2.737 2.737 0 0 1-1.409-.375 2.778 2.778 0 0 1-1.015-1.015 2.735 2.735 0 0 1-.375-1.41 2.685 2.685 0 0 1 .375-1.4 2.812 2.812 0 0 1 3.824-1.005c.415.244.761.59 1.005 1.005.251.424.38.908.375 1.4.005.495-.125.982-.375 1.41a2.8 2.8 0 0 1-1.005 1.015c-.424.251-.908.38-1.4.375ZM25.727 15V1.001h4.594v14h-4.594Zm10.409-6.349c.013.014.111.175.296.483.184.309.424.703.72 1.183a384.573 384.573 0 0 1 1.862 3.056c.289.48.617 1.023.986 1.627h-5.047l-.858-1.39c-.256-.414-.529-.86-.817-1.34-.29-.48-.576-.947-.858-1.4a71.337 71.337 0 0 1-.73-1.193 21.112 21.112 0 0 0-.424-.69A2.04 2.04 0 0 1 30.932 8c.019-.338.128-.665.315-.947.078-.131.223-.365.433-.7a216.7 216.7 0 0 0 1.598-2.603l.817-1.35.858-1.4H40l-3.904 6.368c-.12.19-.189.407-.197.632.013.235.095.461.236.65h.001Z"/><path fill="#8BB5EB" d="M52.197 9.215c.262-.04.521-.1.774-.181.513-.16.986-.425 1.39-.778a3.61 3.61 0 0 0 .926-1.301 4.528 4.528 0 0 0 .335-1.804 4.862 4.862 0 0 0-.443-2.089 3.327 3.327 0 0 0-1.459-1.508 5.65 5.65 0 0 0-2.73-.562h-5.657v13.995h2.05V9.625H50.4l3.489 5.362h2.404l-3.272-4.849-.823-.923Zm.035-6.242c.408.156.75.449.965.828.226.442.335.934.316 1.429a2.868 2.868 0 0 1-.384 1.567c-.26.404-.65.71-1.104.867a4.918 4.918 0 0 1-1.705.266h-2.937V2.707h3.173c.57-.019 1.14.071 1.676.266ZM66.916 13.745a.896.896 0 0 1-.769-.315 1.694 1.694 0 0 1-.217-1.045l.04-4.06a4.742 4.742 0 0 0-.158-1.262 3.1 3.1 0 0 0-.473-1.005 2.674 2.674 0 0 0-.818-.73 4.177 4.177 0 0 0-1.193-.452 7.01 7.01 0 0 0-1.557-.158c-.415 0-.83.026-1.241.078-.39.05-.775.125-1.153.227a9.61 9.61 0 0 0-1.035.345l-.237 1.676A11.57 11.57 0 0 1 59.9 6.55c.27-.052.543-.088.818-.108.269-.02.535-.03.798-.03.402-.009.803.038 1.193.138.284.071.545.213.759.414.19.195.325.436.394.7.084.325.123.66.118.995l-.002.495-2.304.156a6.127 6.127 0 0 0-2.287.512 3.276 3.276 0 0 0-1.35 1.094 2.547 2.547 0 0 0-.443 1.448c-.004.485.115.963.345 1.39.24.438.604.798 1.044 1.035.538.28 1.139.415 1.745.394a4.535 4.535 0 0 0 1.665-.276c.461-.18.883-.448 1.242-.788.136-.131.266-.269.388-.413.038.204.11.4.213.58.176.302.446.537.769.67.357.144.739.214 1.123.207.119 0 .234-.003.345-.01.11-.006.219-.022.326-.049.105-.026.2-.05.285-.069.078-.017.153-.04.227-.069l.217-1.32a1.722 1.722 0 0 1-.335.078 2.177 2.177 0 0 1-.276.02Zm-3.282-.887a3.773 3.773 0 0 1-.69.434 3.092 3.092 0 0 1-.768.256c-.276.053-.557.08-.838.079-.321.01-.64-.052-.937-.178a1.285 1.285 0 0 1-.58-.502 1.474 1.474 0 0 1-.198-.779 1.493 1.493 0 0 1 .256-.926c.215-.25.506-.423.828-.493a6.015 6.015 0 0 1 1.538-.158h1.725l-.008 1.957c-.1.113-.21.216-.328.31ZM76.24 5.196l-.06-.025a6.791 6.791 0 0 0-2.503-.453 4.84 4.84 0 0 0-2.453.65A4.83 4.83 0 0 0 69.4 7.251a6.062 6.062 0 0 0-.69 3.005 6.077 6.077 0 0 0 .522 2.622 3.91 3.91 0 0 0 1.498 1.704 4.361 4.361 0 0 0 2.336.602 5.469 5.469 0 0 0 1.488-.197 5.367 5.367 0 0 0 1.37-.611c.147-.091.295-.194.443-.3l.247.91h1.636V.126L76.24.401v4.795Zm-1.055 8.105c-.45.177-.926.274-1.41.286a3.197 3.197 0 0 1-1.615-.384 2.466 2.466 0 0 1-1.025-1.183 4.935 4.935 0 0 1-.355-2c-.023-.702.112-1.399.394-2.04.24-.522.637-.955 1.133-1.243.541-.294 1.15-.44 1.765-.423a5.96 5.96 0 0 1 1.862.286c.096.03.203.071.306.109v6.074a6.457 6.457 0 0 1-1.056.518h.001ZM81.324 14.987h2.01V4.737l-2.01.296v9.954ZM83.049.608a1.276 1.276 0 0 0-.68-.187 1.326 1.326 0 0 0-.69.187c-.206.12-.378.29-.503.493-.125.204-.19.44-.187.68-.002.242.063.481.187.69.12.206.294.376.503.492.21.119.448.18.69.178a1.33 1.33 0 0 0 .68-.178c.202-.117.37-.287.482-.493.119-.21.18-.448.178-.69a1.33 1.33 0 0 0-.178-.68 1.392 1.392 0 0 0-.482-.492ZM95.318 7.132a4.31 4.31 0 0 0-1.744-1.784 5.41 5.41 0 0 0-2.67-.63 5.382 5.382 0 0 0-2.692.65 4.545 4.545 0 0 0-1.793 1.833 5.798 5.798 0 0 0-.64 2.799 6.04 6.04 0 0 0 .6 2.789c.378.758.98 1.381 1.725 1.784a5.36 5.36 0 0 0 2.602.61 5.551 5.551 0 0 0 2.72-.65 4.59 4.59 0 0 0 1.843-1.852 5.81 5.81 0 0 0 .66-2.839 5.713 5.713 0 0 0-.611-2.71Zm-1.863 4.82a2.686 2.686 0 0 1-1.073 1.231 3.065 3.065 0 0 1-1.577.405 2.803 2.803 0 0 1-1.538-.415 2.777 2.777 0 0 1-1.025-1.241 4.971 4.971 0 0 1-.374-2.05 4.642 4.642 0 0 1 .374-1.991c.221-.494.59-.907 1.055-1.183a3.19 3.19 0 0 1 1.626-.394c.443-.011.883.073 1.29.246.358.162.67.409.908.72.254.338.438.723.542 1.134.123.479.183.973.177 1.468a4.907 4.907 0 0 1-.385 2.07Z"/></svg>