<svg xmlns="http://www.w3.org/2000/svg" viewBox="0 0 55 24" fill="currentColor"><path d="M0 17.982V5.984h3.937v11.998H0ZM9.294 7.893l2.264 10.09H7.25l-2.704-12h2.417a2.276 2.276 0 0 1 1.513.55c.42.346.71.826.819 1.36Zm2.855 10.09v-12h3.938v12h-3.938Zm6.912-7.437a2.382 2.382 0 0 1-2.4-2.4 2.301 2.301 0 0 1 .321-1.2 2.41 2.41 0 0 1 3.278-.861c.356.21.653.506.862.862.215.363.326.778.321 1.2a2.35 2.35 0 0 1-.321 1.208 2.4 2.4 0 0 1-.862.87 2.302 2.302 0 0 1-1.2.322Zm2.99 7.436V5.984h3.938v11.998h-3.937Zm8.923-5.441c.01.011.095.15.253.414s.364.602.617 1.014a315.936 315.936 0 0 1 1.597 2.62c.247.41.529.875.845 1.393H29.96c-.27-.439-.516-.836-.736-1.191-.22-.355-.453-.738-.7-1.15-.248-.41-.493-.81-.736-1.2-.242-.388-.45-.729-.625-1.022-.175-.292-.296-.49-.363-.591a1.747 1.747 0 0 1-.287-.845c.016-.29.11-.57.27-.812.067-.112.191-.312.371-.6a182.106 182.106 0 0 0 1.37-2.23l.7-1.158.736-1.2h4.326l-3.346 5.459a1.08 1.08 0 0 0-.17.541c.012.202.082.396.203.558ZM49.49 10.127h-1.25a.719.719 0 0 0-.71.71v1.814c.224-.1.464-.16.71-.18h1.379a1.232 1.232 0 0 0 .903-.332 1.234 1.234 0 0 0 .332-.903.968.968 0 0 0-.348-.795 1.587 1.587 0 0 0-1.016-.314Z"/><path d="M45.857 3.125a8.857 8.857 0 1 0 0 17.714 8.857 8.857 0 0 0 0-17.714Zm-.667 10.462c-.006 1.892-1.363 2.494-1.88 2.795l-.892-1.078.021-.01-.02-.025c.286-.144 1.35-.69 1.35-1.527v-.632c-.146.298-.904.634-1.42.643h-.057a2.94 2.94 0 0 1-1.985-.767 2.853 2.853 0 0 1-.867-2.141V8.937h1.384v1.908c0 1.11.768 1.514 1.496 1.524.638-.009 1.438-.285 1.466-1.14V8.936h1.403l.001 4.651Zm6.01 1.175a.637.637 0 0 0 .604.18l-.002 1.147h-.839l-.028.002c-.008 0-.02 0-.03-.002h-.03v-.002a.712.712 0 0 1-.436-.197l-1.633-2h-.566a.72.72 0 0 0-.709.709v1.49h-1.418v-5.252a2.132 2.132 0 0 1 2.127-2.13h1.252a2.99 2.99 0 0 1 1.921.64 2.399 2.399 0 0 1 .861 1.887 2.656 2.656 0 0 1-.748 1.908c-.308.305-.69.526-1.108.64 0 0 .479.655.782.979Z"/></svg>