<svg xmlns="http://www.w3.org/2000/svg" viewBox="0 0 74 24"><path fill="#fff" d="M73.143 18.002 69 11.742l3.785-5.74h-1.893l-2.75 4.57-3.016-4.57h-2.081l3.887 5.824L62.857 18h1.928l3.033-4.931L71.08 18h2.064ZM46.48 6h-3.703s2.105 3.455 2.129 3.498a.582.582 0 0 1 .013.706l-2.142 3.512h3.704s1.787-2.921 2.031-3.327a.887.887 0 0 0-.01-1.073c-.263-.449-.264-.448-2.021-3.316ZM42.299 6H39v12.001h3.299V6ZM58.082 7.988A324.935 324.935 0 0 0 56.855 6h-7.928l1.732 2.905h4.176l-1.723 2.824 1.92 3.226L53.18 18h3.385c.544-.89 1.357-2.267 1.527-2.549a.89.89 0 0 0-.01-1.077c-.169-.29-1.075-1.727-1.617-2.612l1.627-2.697a.889.889 0 0 0-.009-1.077Z"/><path fill="#fff" d="M50.456 12.118c-.522.853-1.394 2.281-1.558 2.56a.856.856 0 0 0-.01 1.037l1.568 2.57c.524-.858 1.404-2.297 1.567-2.57a.856.856 0 0 0-.009-1.038 388.314 388.314 0 0 0-1.558-2.559ZM0 18.002v-12h3.937v12H0Zm9.294-10.09 2.264 10.09H7.25l-2.703-12h2.416a2.276 2.276 0 0 1 1.513.55c.42.346.71.827.819 1.36Zm2.856 10.09v-12h3.937v12H12.15Zm6.91-7.436a2.382 2.382 0 0 1-2.4-2.4 2.303 2.303 0 0 1 .322-1.2 2.411 2.411 0 0 1 3.278-.862c.356.21.653.506.862.862.215.363.326.778.321 1.2a2.4 2.4 0 0 1-1.183 2.079 2.303 2.303 0 0 1-1.2.32Zm2.992 7.436v-12h3.937v12h-3.937Zm8.922-5.442c.01.012.095.15.253.414s.364.602.617 1.014a327.152 327.152 0 0 1 1.597 2.62c.247.411.529.876.845 1.394H29.96c-.27-.44-.516-.837-.736-1.192-.22-.354-.453-.738-.7-1.149-.248-.41-.493-.81-.736-1.2-.242-.389-.45-.73-.625-1.022-.175-.293-.296-.49-.363-.592a1.75 1.75 0 0 1-.287-.845c.016-.29.11-.57.27-.811.067-.113.191-.313.372-.6a181.843 181.843 0 0 0 1.37-2.23c.247-.412.48-.798.7-1.158l.735-1.2h4.326L30.94 11.46a1.079 1.079 0 0 0-.17.541c.012.202.082.396.203.558Z"/></svg>