<svg xmlns="http://www.w3.org/2000/svg" viewBox="0 0 40 36"><path fill="#fff" d="M0 15.003V1.005h4.593v13.998H0Zm10.843-11.77 2.641 11.77H8.457L5.303 1.005h2.82a2.655 2.655 0 0 1 1.764.64c.491.404.829.965.956 1.588Zm3.331 11.77V1.005h4.594v13.998h-4.594Zm8.063-8.675a2.737 2.737 0 0 1-1.409-.375 2.778 2.778 0 0 1-1.015-1.015 2.735 2.735 0 0 1-.375-1.41 2.685 2.685 0 0 1 .375-1.4 2.812 2.812 0 0 1 3.824-1.005c.415.244.761.59 1.005 1.006.251.423.38.907.375 1.4.005.495-.125.982-.375 1.41a2.8 2.8 0 0 1-1.005 1.014c-.424.251-.908.381-1.4.375Zm3.49 8.675V1.005h4.594v13.998h-4.594Zm10.409-6.348c.013.013.111.174.296.483.184.308.424.703.72 1.183a384.573 384.573 0 0 1 1.862 3.056c.289.48.617 1.022.986 1.626h-5.047l-.858-1.39c-.256-.414-.529-.86-.817-1.34-.29-.48-.576-.946-.858-1.4a71.293 71.293 0 0 1-.73-1.193 21.096 21.096 0 0 0-.424-.69 2.04 2.04 0 0 1-.334-.986c.019-.338.128-.664.315-.947.078-.131.223-.364.433-.7a216.7 216.7 0 0 0 1.598-2.603l.817-1.35.858-1.4H40l-3.904 6.369c-.12.189-.189.407-.197.631.013.235.095.462.236.65h.001Z"/><path fill="#8BB5EB" d="M9.503 22.819a3.523 3.523 0 0 0-.917-.957 4.403 4.403 0 0 0-1.33-.63 6.304 6.304 0 0 0-1.775-.227H0v13.998h2.07v-5.027H5.64c.805.012 1.6-.185 2.306-.572a4.272 4.272 0 0 0 1.627-1.597c.415-.74.623-1.578.601-2.425a5.755 5.755 0 0 0-.158-1.36 3.92 3.92 0 0 0-.512-1.203Zm-1.834 4.249a2.33 2.33 0 0 1-1.114.916c-.557.211-1.15.312-1.744.296H2.07v-5.56h3.016c.576-.021 1.15.09 1.675.325.419.203.761.534.976.947.228.462.34.973.326 1.488a2.915 2.915 0 0 1-.395 1.588ZM15.28 21.005a36.63 36.63 0 0 0-.898.463c-.282.152-.558.293-.828.424-.27.132-.542.263-.818.395-.276.131-.559.25-.848.355-.29.105-.598.21-.926.315l.433 1.675c.395-.118.753-.236 1.075-.355.315-.115.624-.246.926-.394.296-.144.592-.302.887-.473l.01-.006v11.6h2.05V21.004H15.28Z"/></svg>