<svg width="219" height="24" viewBox="0 0 219 24" fill="none" xmlns="http://www.w3.org/2000/svg">
<path d="M6.10352e-05 17.9985V5.99963H3.93725V17.9985H6.10352e-05ZM9.29387 7.90931L11.5581 17.9985H7.24923L4.54555 5.99963H6.96224C7.51641 5.99243 8.05412 6.18778 8.47456 6.54892C8.89568 6.89492 9.18501 7.37523 9.29387 7.90931ZM12.1496 17.9985V5.99963H16.0868V17.9985H12.1496ZM19.0605 10.5626C18.6363 10.5668 18.2188 10.4558 17.8526 10.2415C17.4913 10.0327 17.1912 9.73249 16.9823 9.37113C16.7678 9.00487 16.6568 8.5873 16.661 8.16285C16.6562 7.741 16.7673 7.32591 16.9823 6.96296C17.1934 6.60553 17.4932 6.30863 17.8526 6.10105C18.2189 5.88704 18.6363 5.77605 19.0605 5.77992C19.4823 5.77538 19.8972 5.88646 20.2603 6.10105C20.6161 6.31045 20.9127 6.6071 21.1221 6.96296C21.3369 7.32602 21.448 7.74103 21.4434 8.16285C21.4473 8.58726 21.3363 9.00476 21.1221 9.37113C20.9149 9.73091 20.618 10.0308 20.2603 10.2415C19.8972 10.4565 19.4819 10.5676 19.06 10.5626H19.0605ZM22.0517 17.9985V5.99963H25.9892V17.9985H22.0517ZM30.9738 12.5568C30.9849 12.5684 31.0693 12.7064 31.2272 12.9708C31.3851 13.2352 31.5907 13.5732 31.844 13.9848C32.0975 14.3962 32.3649 14.8328 32.6464 15.2945C32.9278 15.7563 33.1927 16.1929 33.4409 16.6043C33.6882 17.0157 33.9698 17.4805 34.2858 17.9985H29.9599C29.6893 17.5591 29.4442 17.162 29.2245 16.8071C29.0049 16.4522 28.7714 16.0691 28.5239 15.6579C28.2759 15.247 28.0307 14.8471 27.7883 14.458C27.5459 14.0689 27.3376 13.7281 27.1633 13.4356C26.9883 13.1429 26.8671 12.9457 26.7997 12.8441C26.6326 12.592 26.5337 12.3008 26.5127 11.9991C26.5295 11.7095 26.6227 11.4295 26.7828 11.1876C26.8504 11.075 26.9743 10.875 27.1546 10.5877C27.3348 10.3004 27.5461 9.95959 27.7883 9.56526C28.0305 9.17093 28.2757 8.76814 28.5239 8.35691C28.7721 7.94568 29.0056 7.55977 29.2245 7.19924C29.4446 6.83909 29.6897 6.43912 29.9599 5.99935H34.2858L30.9397 11.458C30.8361 11.6201 30.7778 11.8069 30.7707 11.9991C30.7818 12.2009 30.8523 12.3949 30.9732 12.5568H30.9738Z" fill="white"/>
<path d="M48.1081 6.00091H45.9958L41.4052 11.29H40.7743V6.00091H39V17.9986H40.7743V12.5743H40.8337L45.8268 18.0154L48.2433 17.9986L42.5145 12.0504L48.1081 6.00091Z" fill="white"/>
<path d="M53.126 9.32137C52.81 9.40608 52.5083 9.53705 52.2307 9.71003C51.9424 9.89013 51.6758 10.1028 51.4362 10.3437C51.3964 10.3837 51.3576 10.4282 51.3179 10.4702V9.21156L49.5943 9.465V17.9986H51.3179V11.6147C51.4461 11.5252 51.5787 11.4422 51.7153 11.366C51.8844 11.273 52.0593 11.1911 52.2391 11.121C52.4135 11.0534 52.591 10.9943 52.7714 10.9436C52.9568 10.892 53.146 10.8553 53.3372 10.8337C53.5421 10.8113 53.7485 10.8056 53.9543 10.8169L54.1571 9.22844C53.8106 9.20371 53.4624 9.23509 53.126 9.32137Z" fill="white"/>
<path d="M55.7286 17.9986H57.4522V9.21156L55.7286 9.465V17.9986Z" fill="white"/>
<path d="M57.2072 5.67139C57.0318 5.56419 56.8297 5.50857 56.6242 5.51087C56.4161 5.50924 56.2115 5.56475 56.0327 5.67139C55.8565 5.77461 55.7085 5.91972 55.6018 6.09384C55.4947 6.26926 55.4391 6.4713 55.4413 6.67684C55.4397 6.88497 55.4951 7.08955 55.6018 7.26827C55.7051 7.44509 55.8539 7.59098 56.0327 7.69072C56.2132 7.7922 56.4171 7.84461 56.6242 7.84278C56.8286 7.84526 57.03 7.79275 57.2072 7.69072C57.3811 7.59021 57.5242 7.44414 57.6212 7.26827C57.7227 7.0878 57.7751 6.88389 57.7733 6.67684C57.7757 6.4724 57.7232 6.27105 57.6212 6.09384C57.5208 5.92054 57.3784 5.77527 57.2072 5.67139Z" fill="white"/>
<path d="M66.7124 9.5495C66.2103 9.296 65.6522 9.17391 65.0902 9.19464C64.5996 9.19556 64.1121 9.27253 63.6451 9.42278C63.164 9.57609 62.7063 9.79499 62.285 10.0733C62.1217 10.1806 61.9651 10.2986 61.8116 10.42V9.21155L60.088 9.465V17.9986H61.8116V11.5809C61.9785 11.4831 62.1505 11.3945 62.327 11.3154C62.5644 11.2103 62.8069 11.1173 63.0536 11.0365C63.291 10.9591 63.5339 10.8998 63.7802 10.8591C64.0121 10.8207 64.2467 10.8009 64.4818 10.7999C64.7575 10.7935 65.0323 10.8365 65.2929 10.9267C65.5079 11.0042 65.6997 11.135 65.8503 11.3069C66.0055 11.4933 66.1155 11.7131 66.1716 11.949C66.2435 12.2477 66.2775 12.5543 66.2727 12.8615V17.9986H67.9963V12.5067C68.0187 11.8661 67.9096 11.2277 67.6756 10.631C67.4846 10.1728 67.1454 9.79203 66.7124 9.5495Z" fill="white"/>
<path d="M75.9635 9.41432C75.7054 9.34363 75.4429 9.28998 75.1777 9.25377C74.8753 9.21312 74.5704 9.19337 74.2652 9.19463C73.7139 9.19237 73.1679 9.30158 72.6599 9.5157C72.1509 9.73129 71.6888 10.0441 71.2996 10.4367C70.8847 10.86 70.565 11.3669 70.3618 11.9237C70.1261 12.5762 70.0115 13.2663 70.0238 13.9599C70.0052 14.723 70.1522 15.4811 70.4547 16.182C70.7194 16.7815 71.158 17.2877 71.7136 17.6352C72.3216 17.9939 73.0189 18.1726 73.7245 18.1506C74.3443 18.1484 74.9579 18.028 75.5326 17.7958C75.876 17.656 76.1997 17.4721 76.4957 17.2488V17.7113C76.5025 18.092 76.4485 18.4713 76.3355 18.835C76.238 19.1401 76.07 19.4179 75.8452 19.6461C75.6033 19.8787 75.307 20.0472 74.9834 20.1361C74.5625 20.2518 74.1271 20.3059 73.6907 20.2967C73.3434 20.2962 72.9965 20.2764 72.6515 20.2375C72.2892 20.1967 71.9305 20.1289 71.5784 20.0348C71.2156 19.9382 70.8599 19.8168 70.5138 19.6714L70.6997 21.1585C71.0104 21.2846 71.3294 21.389 71.6545 21.4711C71.9965 21.5574 72.3436 21.6224 72.6937 21.6654C73.0637 21.7109 73.4362 21.7335 73.809 21.733C74.6407 21.7591 75.4672 21.5943 76.2254 21.2514C76.8409 20.9647 77.356 20.4996 77.704 19.9165C78.0442 19.3171 78.2165 18.6369 78.2025 17.9478V9.19463L76.5499 9.62018C76.3589 9.53939 76.163 9.47064 75.9635 9.41432ZM76.2761 16.182C76.0668 16.3038 75.8495 16.411 75.6255 16.5031C75.4283 16.5841 75.2248 16.6491 75.0172 16.6974C74.8148 16.7432 74.6079 16.7658 74.4004 16.765C73.8929 16.7834 73.3893 16.6698 72.9387 16.4355C72.546 16.2113 72.2419 15.8595 72.0769 15.4385C71.8732 14.8904 71.7785 14.3077 71.7981 13.7233C71.7906 13.2569 71.8562 12.7922 71.9924 12.3461C72.1032 11.9795 72.2936 11.642 72.55 11.3576C72.8002 11.0934 73.1062 10.8885 73.4457 10.7577C73.8314 10.6115 74.2414 10.5398 74.6539 10.5465C74.9201 10.5463 75.1857 10.5689 75.4481 10.6141C75.7167 10.6616 75.982 10.7265 76.2423 10.8084C76.3251 10.8343 76.4113 10.8687 76.4957 10.9002V16.0527C76.4217 16.0964 76.3457 16.142 76.2761 16.182Z" fill="white"/>
<path d="M88.1724 9.38053H86.0601L83.1686 12.5574H82.5453V5.24048L80.8217 5.49396V17.9986H82.5453V13.8585H82.5735L86.026 17.9986H88.2566L84.1577 13.3797L88.1724 9.38053Z" fill="white"/>
<path d="M97.0101 16.934C96.8866 16.9454 96.7621 16.9268 96.6474 16.8797C96.5326 16.8326 96.4309 16.7585 96.351 16.6636C96.1942 16.3929 96.129 16.0788 96.1652 15.768L96.199 12.287C96.2028 11.922 96.1572 11.5583 96.0635 11.2055C95.9816 10.8961 95.8443 10.6041 95.6582 10.3437C95.4701 10.0892 95.2313 9.87629 94.957 9.71847C94.638 9.53755 94.2933 9.40649 93.9347 9.32981C93.4961 9.23525 93.0483 9.18992 92.5997 9.19464C92.2437 9.19449 91.888 9.21706 91.5348 9.26223C91.2013 9.30417 90.8711 9.36912 90.5466 9.45657C90.2454 9.53825 89.9491 9.63696 89.6591 9.75227L89.4563 11.1886C89.738 11.0872 90.0056 11.0027 90.2593 10.9352C90.513 10.8676 90.7579 10.8112 90.9941 10.7661C91.226 10.7219 91.4602 10.6908 91.6957 10.6732C91.9262 10.6563 92.1543 10.6479 92.3797 10.6479C92.7243 10.6406 93.0682 10.6804 93.4021 10.7661C93.6457 10.8271 93.8697 10.9493 94.0529 11.121C94.2158 11.2882 94.3323 11.4949 94.3909 11.7209C94.4627 11.9995 94.4967 12.2866 94.492 12.5743L94.4903 12.9984L92.5152 13.1319C91.8396 13.1509 91.1741 13.3001 90.555 13.5713C90.0918 13.774 89.6917 14.098 89.3972 14.5091C89.1476 14.875 89.0151 15.3082 89.0173 15.7511C89.014 16.1668 89.1157 16.5765 89.313 16.9424C89.5195 17.3184 89.8305 17.6265 90.2084 17.8296C90.6695 18.0693 91.1847 18.1857 91.7041 18.1675C92.1905 18.1787 92.6748 18.0985 93.1317 17.931C93.5269 17.7763 93.8884 17.5468 94.1966 17.255C94.3134 17.1429 94.4244 17.0248 94.5289 16.901C94.5617 17.076 94.6236 17.2442 94.712 17.3987C94.8624 17.6574 95.0939 17.8594 95.3707 17.9732C95.6767 18.0961 96.0042 18.1564 96.3339 18.1506C96.4356 18.1506 96.5338 18.1478 96.6296 18.1422C96.7236 18.1368 96.817 18.1227 96.9084 18.0999C96.9988 18.0774 97.0802 18.0577 97.1537 18.0408C97.2199 18.026 97.2848 18.0062 97.348 17.9816L97.5337 16.8495C97.4405 16.8815 97.3444 16.9042 97.2467 16.9171C97.1682 16.9275 97.0892 16.9331 97.0101 16.934ZM94.1966 16.1736C94.0133 16.3183 93.815 16.4429 93.6051 16.5453C93.396 16.647 93.1744 16.7208 92.9461 16.765C92.7094 16.8107 92.4688 16.8334 92.2277 16.8326C91.9524 16.8404 91.6786 16.7885 91.4252 16.6805C91.219 16.591 91.045 16.4407 90.9265 16.2496C90.8096 16.047 90.7512 15.816 90.7575 15.5821C90.7411 15.3004 90.8183 15.0211 90.9772 14.7879C91.1612 14.5733 91.4103 14.4249 91.6866 14.3654C92.1184 14.2638 92.5615 14.2184 93.005 14.2303H94.4844L94.4771 15.9077C94.3912 16.004 94.2973 16.0929 94.1966 16.1736Z" fill="white"/>
<path d="M104.479 14.112C104.305 13.9288 104.106 13.7722 103.887 13.6473C103.66 13.5174 103.423 13.4072 103.177 13.3178C102.997 13.2615 102.82 13.2023 102.645 13.1404C102.47 13.0784 102.296 13.0221 102.121 12.9714C101.946 12.9207 101.777 12.8672 101.614 12.8108C101.461 12.7589 101.311 12.6968 101.166 12.625C101.027 12.5513 100.895 12.4665 100.769 12.3715C100.653 12.2843 100.556 12.1752 100.482 12.0504C100.407 11.9223 100.369 11.7762 100.372 11.628C100.367 11.4651 100.409 11.3041 100.491 11.1633C100.579 11.0249 100.701 10.9115 100.845 10.8338C101.022 10.7367 101.213 10.6683 101.411 10.631C101.659 10.5835 101.911 10.5608 102.163 10.5634C102.287 10.5634 102.422 10.5693 102.569 10.5803C102.716 10.5913 102.876 10.6116 103.051 10.6395C103.225 10.6673 103.4 10.7045 103.574 10.7493C103.749 10.7941 103.926 10.8451 104.107 10.9014C104.274 10.9528 104.437 11.0149 104.596 11.0872L104.715 9.7185C104.501 9.62875 104.289 9.5499 104.081 9.48194C103.873 9.41465 103.662 9.35825 103.448 9.31296C103.239 9.26882 103.027 9.23775 102.814 9.22C102.605 9.2031 102.4 9.19466 102.197 9.19466C101.73 9.18989 101.265 9.24381 100.812 9.35518C100.424 9.44961 100.055 9.60965 99.7216 9.82834C99.4192 10.0284 99.1723 10.3016 99.0035 10.6225C98.8269 10.9762 98.7398 11.3679 98.75 11.7632C98.7449 12.0478 98.7907 12.3311 98.8855 12.5996C98.9655 12.825 99.0857 13.034 99.2403 13.2164C99.3905 13.3889 99.564 13.5396 99.7557 13.6642C99.9552 13.7954 100.168 13.9058 100.389 13.9937C100.513 14.0392 100.642 14.0842 100.778 14.1289C100.913 14.1743 101.045 14.2165 101.175 14.2556C101.305 14.2948 101.431 14.3345 101.555 14.3739C101.679 14.4134 101.8 14.4528 101.918 14.4922C102.036 14.5317 102.152 14.5682 102.265 14.602C102.416 14.6556 102.563 14.7206 102.704 14.7964C102.828 14.8621 102.944 14.9414 103.051 15.033C103.144 15.1146 103.219 15.2155 103.27 15.3287C103.322 15.4457 103.348 15.5725 103.347 15.7004C103.353 15.8254 103.331 15.9502 103.282 16.0656C103.234 16.1811 103.161 16.2843 103.068 16.3679C102.858 16.5427 102.608 16.6618 102.341 16.7143C102.027 16.7835 101.707 16.8175 101.386 16.8157C101.186 16.8145 100.985 16.8004 100.787 16.7735C100.567 16.7457 100.336 16.7062 100.094 16.6552C99.8515 16.6041 99.6036 16.5421 99.3499 16.4693C99.0966 16.3964 98.8405 16.3148 98.5814 16.2243L98.6489 17.6606C98.9415 17.762 99.209 17.8437 99.4516 17.9056C99.6941 17.9676 99.9251 18.0211 100.144 18.0662C100.356 18.1102 100.571 18.1384 100.787 18.1507C100.995 18.1619 101.206 18.1676 101.42 18.1676C101.891 18.1699 102.362 18.1218 102.822 18.0239C103.228 17.9415 103.617 17.7901 103.972 17.5761C104.291 17.381 104.556 17.1076 104.741 16.7819C104.934 16.4244 105.03 16.0223 105.019 15.616C105.026 15.3194 104.978 15.0242 104.876 14.7457C104.785 14.5111 104.65 14.296 104.479 14.112Z" fill="white"/>
<path d="M111.532 16.6383L111.245 16.6889C111.153 16.7054 111.06 16.7167 110.966 16.7227C110.876 16.7287 110.791 16.7312 110.713 16.7312C110.454 16.7383 110.197 16.6863 109.961 16.5791C109.758 16.4831 109.59 16.3267 109.479 16.1313C109.361 15.9109 109.302 15.6632 109.31 15.4131V10.7324H111.693L111.879 9.38053H109.31V6.71064L107.587 7.31895V9.38053H106.285L106.1 10.7324H107.587V15.768C107.579 16.1039 107.631 16.4385 107.739 16.7565C107.826 17.0082 107.961 17.2406 108.136 17.4409C108.297 17.6194 108.492 17.7632 108.711 17.8634C108.934 17.966 109.17 18.0398 109.412 18.0831C109.651 18.1274 109.894 18.15 110.138 18.1507C110.318 18.1507 110.496 18.145 110.671 18.1337C110.846 18.1225 111.006 18.1056 111.152 18.0831C111.299 18.0605 111.437 18.0352 111.566 18.007C111.696 17.9789 111.805 17.9538 111.896 17.931L111.997 16.5284C111.931 16.5538 111.864 16.5736 111.795 16.5876C111.716 16.6045 111.629 16.6214 111.532 16.6383Z" fill="white"/>
<path d="M113.789 17.9986H115.513V9.21156L113.789 9.465V17.9986Z" fill="white"/>
<path d="M115.268 5.67139C115.093 5.56422 114.891 5.50861 114.685 5.51087C114.477 5.50928 114.273 5.56479 114.094 5.67139C113.918 5.77458 113.77 5.9197 113.663 6.09384C113.556 6.26917 113.5 6.47126 113.502 6.67684C113.501 6.88501 113.556 7.08963 113.663 7.26827C113.766 7.44507 113.915 7.59096 114.094 7.69072C114.274 7.79215 114.478 7.84456 114.685 7.84278C114.89 7.84522 115.091 7.79272 115.268 7.69072C115.442 7.59013 115.585 7.44409 115.682 7.26827C115.784 7.08775 115.836 6.88387 115.834 6.67684C115.837 6.47242 115.784 6.27109 115.682 6.09384C115.582 5.92058 115.439 5.77533 115.268 5.67139Z" fill="white"/>
<path d="M124.773 9.5495C124.271 9.296 123.713 9.17391 123.151 9.19464C122.66 9.19556 122.173 9.27253 121.706 9.42278C121.225 9.57613 120.767 9.79503 120.346 10.0733C120.182 10.1806 120.026 10.2986 119.872 10.42V9.21155L118.149 9.465V17.9986H119.872V11.5809C120.039 11.4831 120.211 11.3944 120.388 11.3154C120.625 11.2102 120.868 11.1172 121.115 11.0365C121.352 10.9591 121.595 10.8998 121.841 10.8591C122.073 10.8207 122.308 10.8009 122.543 10.7999C122.818 10.7935 123.093 10.8365 123.354 10.9267C123.569 11.0041 123.761 11.1349 123.911 11.3069C124.066 11.4932 124.176 11.713 124.232 11.949C124.304 12.2477 124.338 12.5543 124.333 12.8615V17.9986H126.057V12.5067C126.08 11.8661 125.97 11.2277 125.736 10.631C125.545 10.1728 125.206 9.79203 124.773 9.5495Z" fill="white"/>
<path d="M134.025 9.41432C133.766 9.34363 133.504 9.28999 133.239 9.25377C132.936 9.21311 132.631 9.19336 132.326 9.19463C131.775 9.19237 131.229 9.30158 130.721 9.5157C130.212 9.73129 129.75 10.0441 129.361 10.4367C128.946 10.86 128.626 11.3669 128.423 11.9237C128.187 12.5762 128.073 13.2663 128.085 13.9599C128.066 14.723 128.213 15.4811 128.515 16.182C128.78 16.7815 129.219 17.2877 129.775 17.6352C130.383 17.9939 131.08 18.1727 131.785 18.1506C132.405 18.1484 133.019 18.028 133.593 17.7958C133.937 17.656 134.261 17.4721 134.557 17.2488V17.7113C134.563 18.092 134.509 18.4714 134.396 18.835C134.299 19.14 134.131 19.4178 133.906 19.6461C133.664 19.8787 133.368 20.0471 133.044 20.1361C132.623 20.2518 132.188 20.3059 131.751 20.2967C131.404 20.2962 131.057 20.2764 130.713 20.2375C130.35 20.1967 129.991 20.129 129.639 20.0348C129.276 19.9382 128.921 19.8168 128.575 19.6714L128.761 21.1585C129.071 21.2846 129.39 21.3891 129.715 21.4711C130.057 21.5575 130.404 21.6224 130.754 21.6654C131.124 21.7109 131.497 21.7335 131.87 21.733C132.701 21.7591 133.528 21.5944 134.286 21.2514C134.902 20.9648 135.417 20.4996 135.765 19.9165C136.105 19.3171 136.277 18.637 136.264 17.9478V9.19463L134.611 9.62018C134.42 9.53939 134.224 9.47064 134.025 9.41432ZM134.337 16.182C134.128 16.3038 133.911 16.4111 133.687 16.5031C133.489 16.5841 133.286 16.6491 133.078 16.6974C132.876 16.7432 132.669 16.7658 132.462 16.765C131.954 16.7833 131.45 16.6698 131 16.4355C130.607 16.2114 130.303 15.8595 130.138 15.4385C129.934 14.8904 129.84 14.3077 129.859 13.7233C129.852 13.2569 129.917 12.7922 130.053 12.3461C130.164 11.9795 130.355 11.642 130.611 11.3576C130.861 11.0934 131.167 10.8885 131.507 10.7577C131.892 10.6115 132.302 10.5398 132.715 10.5465C132.981 10.5463 133.247 10.5689 133.509 10.6141C133.778 10.6616 134.043 10.7265 134.304 10.8084C134.386 10.8343 134.473 10.8687 134.557 10.9002V16.0527C134.483 16.0964 134.407 16.142 134.337 16.182Z" fill="white"/>
<path d="M144.222 14.112C144.049 13.9287 143.85 13.7721 143.631 13.6473C143.404 13.5175 143.166 13.4072 142.921 13.3178C142.741 13.2615 142.563 13.2023 142.389 13.1404C142.214 13.0784 142.039 13.0221 141.865 12.9714C141.69 12.9207 141.521 12.8672 141.358 12.8108C141.205 12.7589 141.055 12.6969 140.91 12.625C140.771 12.5514 140.638 12.4666 140.513 12.3715C140.397 12.2843 140.299 12.1752 140.226 12.0504C140.151 11.9223 140.113 11.7762 140.115 11.628C140.111 11.4651 140.152 11.3041 140.234 11.1633C140.322 11.0251 140.445 10.9116 140.589 10.8338C140.766 10.7368 140.957 10.6684 141.155 10.631C141.403 10.5835 141.655 10.5608 141.907 10.5634C142.031 10.5634 142.166 10.5693 142.312 10.5803C142.459 10.5913 142.619 10.6116 142.794 10.6395C142.969 10.6673 143.143 10.7045 143.318 10.7493C143.493 10.7941 143.67 10.8451 143.85 10.9014C144.017 10.9528 144.181 11.0149 144.34 11.0872L144.459 9.7185C144.245 9.62875 144.033 9.5499 143.825 9.48193C143.617 9.41463 143.405 9.35823 143.191 9.31296C142.982 9.26877 142.771 9.2377 142.558 9.22C142.349 9.2031 142.143 9.19466 141.941 9.19466C141.474 9.18989 141.008 9.24381 140.555 9.35518C140.167 9.44959 139.799 9.60963 139.465 9.82834C139.163 10.0285 138.916 10.3016 138.747 10.6225C138.57 10.9762 138.483 11.3679 138.493 11.7632C138.488 12.0478 138.534 12.3311 138.629 12.5996C138.709 12.825 138.829 13.034 138.984 13.2164C139.134 13.3889 139.307 13.5396 139.499 13.6642C139.698 13.7954 139.911 13.9058 140.133 13.9937C140.256 14.0392 140.386 14.0842 140.521 14.1289C140.657 14.1736 140.789 14.2158 140.918 14.2556C141.048 14.2953 141.174 14.3347 141.299 14.3739C141.422 14.4136 141.544 14.4528 141.662 14.4922C141.78 14.5317 141.896 14.5682 142.008 14.602C142.159 14.6556 142.306 14.7206 142.448 14.7964C142.572 14.8621 142.688 14.9414 142.794 15.0329C142.888 15.1146 142.962 15.2155 143.013 15.3287C143.065 15.4457 143.091 15.5725 143.09 15.7004C143.096 15.8254 143.074 15.9502 143.026 16.0656C142.977 16.1811 142.904 16.2843 142.811 16.3679C142.602 16.5427 142.352 16.6618 142.084 16.7143C141.771 16.7835 141.451 16.8175 141.13 16.8157C140.929 16.8145 140.729 16.8004 140.53 16.7735C140.31 16.7457 140.079 16.7062 139.837 16.6552C139.595 16.6041 139.347 16.5421 139.093 16.4693C138.84 16.3964 138.584 16.3148 138.325 16.2243L138.392 17.6606C138.685 17.762 138.952 17.8437 139.195 17.9056C139.437 17.9676 139.668 18.0211 139.888 18.0662C140.099 18.1102 140.314 18.1384 140.53 18.1507C140.738 18.1619 140.949 18.1675 141.163 18.1675C141.635 18.1699 142.105 18.1218 142.566 18.0239C142.972 17.9415 143.36 17.79 143.715 17.5761C144.035 17.3809 144.299 17.1076 144.484 16.7819C144.677 16.4244 144.773 16.0223 144.762 15.616C144.769 15.3195 144.721 15.0243 144.619 14.7457C144.528 14.5112 144.394 14.2961 144.222 14.112Z" fill="white"/>
<path d="M152.95 9.73679C152.246 9.36275 151.458 9.1765 150.661 9.19604C149.856 9.17773 149.061 9.36996 148.354 9.75367C147.701 10.1192 147.167 10.6647 146.816 11.3252C146.435 12.0663 146.246 12.8915 146.267 13.7247C146.245 14.5515 146.422 15.3713 146.782 16.1158C147.106 16.7657 147.622 17.2998 148.261 17.6451C148.948 18.0053 149.716 18.1855 150.491 18.1689C151.304 18.185 152.107 17.9931 152.824 17.6113C153.493 17.2461 154.042 16.6942 154.404 16.0229C154.796 15.273 154.991 14.4356 154.97 13.5895C154.989 12.7837 154.809 11.9856 154.446 11.266C154.109 10.62 153.589 10.0879 152.95 9.73679ZM152.849 15.3976C152.659 15.8368 152.337 16.2059 151.928 16.4538C151.517 16.689 151.05 16.8087 150.576 16.8002C150.112 16.8118 149.654 16.6885 149.258 16.4453C148.867 16.1851 148.561 15.8146 148.379 15.3807C148.15 14.8242 148.04 14.2252 148.059 13.6233C148.039 13.0378 148.148 12.455 148.379 11.9166C148.569 11.4935 148.885 11.1394 149.284 10.9027C149.71 10.6681 150.191 10.5514 150.678 10.5648C151.057 10.5553 151.435 10.6273 151.784 10.776C152.091 10.9142 152.358 11.1261 152.562 11.3928C152.78 11.6827 152.938 12.013 153.026 12.3644C153.132 12.7756 153.183 13.1988 153.179 13.6233C153.198 14.2317 153.085 14.8371 152.848 15.3976H152.849Z" fill="white"/>
<path d="M160.596 9.32137C160.28 9.40608 159.978 9.53705 159.701 9.71003C159.412 9.89014 159.146 10.1028 158.906 10.3437C158.867 10.3837 158.828 10.4282 158.788 10.4702V9.21156L157.065 9.465V17.9986H158.788V11.6147C158.916 11.5253 159.049 11.4422 159.185 11.366C159.354 11.273 159.529 11.1911 159.709 11.121C159.884 11.0534 160.061 10.9943 160.241 10.9436C160.427 10.892 160.616 10.8553 160.807 10.8337C161.012 10.8113 161.219 10.8056 161.425 10.8169L161.627 9.22844C161.281 9.20372 160.933 9.23509 160.596 9.32137Z" fill="white"/>
<path d="M170.549 9.38053H168.437L165.545 12.5574H164.922V5.24048L163.199 5.49396V17.9986H164.922V13.8585H164.95L168.403 17.9986H170.633L166.535 13.3797L170.549 9.38053Z" fill="white"/>
<path d="M178.61 10.4705C178.285 10.05 177.857 9.72106 177.368 9.51572C176.824 9.29361 176.24 9.18438 175.652 9.19466C175.061 9.18465 174.473 9.29981 173.929 9.5326C173.434 9.74938 172.992 10.0725 172.636 10.4789C172.269 10.9059 171.993 11.4033 171.825 11.9406C171.632 12.5556 171.538 13.1972 171.546 13.8416C171.522 14.6559 171.693 15.4641 172.045 16.1989C172.366 16.8359 172.884 17.3518 173.523 17.669C174.273 18.0222 175.095 18.193 175.923 18.1675C176.321 18.171 176.719 18.1456 177.114 18.0915C177.444 18.044 177.769 17.9677 178.086 17.8634C178.4 17.758 178.705 17.6281 178.998 17.4747L179.117 16.1736C178.902 16.2528 178.685 16.3317 178.466 16.4101C178.246 16.4886 178.018 16.559 177.782 16.6214C177.543 16.6838 177.3 16.729 177.055 16.7566C176.808 16.7848 176.56 16.7989 176.311 16.7988C175.868 16.8061 175.425 16.7579 174.993 16.6552C174.645 16.5719 174.323 16.4036 174.056 16.1651C173.785 15.908 173.587 15.5847 173.481 15.2273C173.371 14.8653 173.309 14.4903 173.297 14.112H179.404C179.487 13.4131 179.455 12.7054 179.311 12.0166C179.192 11.4565 178.953 10.9289 178.61 10.4705ZM174.351 10.876C174.748 10.6353 175.206 10.5149 175.669 10.5296C176.133 10.5064 176.592 10.6404 176.971 10.9098C177.307 11.1784 177.547 11.549 177.655 11.9659C177.739 12.2742 177.781 12.5926 177.778 12.9122H173.334C173.365 12.5753 173.437 12.2433 173.548 11.9237C173.693 11.4954 173.975 11.127 174.351 10.876Z" fill="white"/>
<path d="M186.855 14.112C186.682 13.9287 186.483 13.7721 186.264 13.6473C186.037 13.5175 185.8 13.4072 185.554 13.3178C185.374 13.2615 185.196 13.2023 185.022 13.1404C184.847 13.0784 184.673 13.0221 184.498 12.9714C184.323 12.9207 184.154 12.8672 183.991 12.8108C183.838 12.7589 183.688 12.6968 183.543 12.625C183.404 12.5513 183.271 12.4665 183.146 12.3715C183.03 12.2842 182.933 12.1751 182.859 12.0504C182.784 11.9223 182.746 11.7762 182.749 11.628C182.744 11.4651 182.785 11.3041 182.867 11.1633C182.956 11.025 183.078 10.9116 183.222 10.8338C183.399 10.7368 183.59 10.6684 183.788 10.631C184.036 10.5835 184.288 10.5608 184.54 10.5634C184.664 10.5634 184.799 10.5693 184.946 10.5803C185.092 10.5913 185.253 10.6116 185.427 10.6395C185.602 10.6673 185.776 10.7045 185.951 10.7493C186.126 10.7941 186.303 10.8451 186.484 10.9014C186.651 10.9529 186.814 11.0149 186.973 11.0872L187.092 9.7185C186.878 9.62875 186.666 9.5499 186.458 9.48193C186.25 9.41463 186.039 9.35823 185.825 9.31296C185.615 9.26881 185.404 9.23774 185.191 9.22C184.982 9.2031 184.777 9.19466 184.574 9.19466C184.107 9.18989 183.642 9.24381 183.188 9.35518C182.801 9.44959 182.432 9.60963 182.099 9.82834C181.796 10.0285 181.549 10.3016 181.38 10.6225C181.204 10.9762 181.117 11.3679 181.127 11.7632C181.122 12.0478 181.167 12.3311 181.262 12.5996C181.342 12.825 181.462 13.034 181.617 13.2164C181.767 13.3889 181.941 13.5396 182.132 13.6642C182.332 13.7954 182.544 13.9058 182.766 13.9937C182.89 14.0392 183.019 14.0842 183.155 14.1289C183.29 14.1736 183.422 14.2158 183.552 14.2556C183.681 14.2953 183.808 14.3347 183.932 14.3739C184.056 14.4136 184.177 14.4528 184.295 14.4922C184.414 14.5317 184.529 14.5682 184.642 14.602C184.793 14.6556 184.94 14.7206 185.081 14.7964C185.205 14.8621 185.321 14.9415 185.427 15.0329C185.521 15.1147 185.596 15.2155 185.647 15.3287C185.699 15.4457 185.725 15.5725 185.723 15.7004C185.729 15.8254 185.707 15.9502 185.659 16.0656C185.611 16.1811 185.537 16.2843 185.444 16.3679C185.235 16.5426 184.985 16.6618 184.718 16.7143C184.404 16.7835 184.084 16.8175 183.763 16.8157C183.562 16.8145 183.362 16.8004 183.163 16.7735C182.943 16.7457 182.713 16.7062 182.47 16.6552C182.228 16.6041 181.98 16.5421 181.726 16.4693C181.473 16.3964 181.217 16.3148 180.958 16.2243L181.025 17.6606C181.318 17.762 181.586 17.8437 181.828 17.9056C182.071 17.9676 182.301 18.0211 182.521 18.0662C182.733 18.1102 182.947 18.1384 183.163 18.1507C183.371 18.1619 183.583 18.1675 183.797 18.1675C184.268 18.1699 184.738 18.1218 185.199 18.0239C185.605 17.9414 185.994 17.79 186.348 17.5761C186.668 17.3809 186.932 17.1076 187.117 16.7819C187.311 16.4244 187.407 16.0223 187.396 15.616C187.403 15.3195 187.354 15.0243 187.252 14.7457C187.161 14.5112 187.027 14.2961 186.855 14.112Z" fill="white"/>
<path d="M193.911 16.6383L193.624 16.6889C193.531 16.7054 193.438 16.7167 193.344 16.7227C193.254 16.7287 193.17 16.7312 193.091 16.7312C192.832 16.7383 192.575 16.6863 192.339 16.5791C192.136 16.483 191.968 16.3267 191.857 16.1313C191.739 15.9109 191.681 15.6632 191.688 15.4131V10.7324H194.071L194.257 9.38053H191.688V6.71064L189.965 7.31895V9.38053H188.663L188.478 10.7324H189.965V15.768C189.957 16.1039 190.008 16.4385 190.117 16.7565C190.204 17.0081 190.339 17.2405 190.514 17.4409C190.675 17.6195 190.87 17.7632 191.089 17.8634C191.312 17.966 191.548 18.0398 191.79 18.0831C192.029 18.1274 192.272 18.15 192.516 18.1507C192.696 18.1507 192.874 18.145 193.049 18.1337C193.224 18.1225 193.384 18.1056 193.53 18.0831C193.677 18.0603 193.815 18.0352 193.944 18.007C194.074 17.9789 194.183 17.9538 194.274 17.931L194.375 16.5284C194.309 16.5538 194.242 16.5735 194.172 16.5876C194.094 16.6045 194.006 16.6214 193.911 16.6383Z" fill="white"/>
<path d="M199.698 9.32137C199.382 9.40607 199.08 9.53704 198.802 9.71003C198.514 9.89012 198.248 10.1027 198.008 10.3437C197.968 10.3837 197.93 10.4282 197.89 10.4702V9.21156L196.166 9.465V17.9986H197.89V11.6147C198.018 11.5252 198.15 11.4422 198.287 11.366C198.456 11.2729 198.631 11.1911 198.811 11.121C198.985 11.0534 199.163 10.9943 199.343 10.9436C199.529 10.892 199.718 10.8553 199.909 10.8337C200.114 10.8113 200.32 10.8056 200.526 10.8169L200.729 9.22844C200.382 9.20371 200.034 9.23508 199.698 9.32137Z" fill="white"/>
<path d="M208.84 10.4705C208.515 10.05 208.087 9.72106 207.598 9.51572C207.054 9.29361 206.47 9.18438 205.883 9.19466C205.291 9.18463 204.703 9.29979 204.159 9.5326C203.664 9.74938 203.223 10.0725 202.866 10.4789C202.499 10.9059 202.223 11.4033 202.055 11.9406C201.862 12.5556 201.768 13.1972 201.776 13.8416C201.752 14.6559 201.923 15.464 202.275 16.1989C202.596 16.8358 203.114 17.3516 203.753 17.669C204.503 18.0222 205.325 18.193 206.153 18.1675C206.551 18.171 206.949 18.1456 207.344 18.0915C207.674 18.044 207.999 17.9677 208.316 17.8634C208.63 17.758 208.935 17.628 209.228 17.4747L209.347 16.1736C209.132 16.2528 208.916 16.3317 208.696 16.4101C208.476 16.4886 208.248 16.559 208.012 16.6214C207.773 16.6839 207.53 16.729 207.285 16.7566C207.038 16.7848 206.79 16.7989 206.542 16.7988C206.098 16.8061 205.655 16.7579 205.223 16.6552C204.875 16.572 204.553 16.4036 204.286 16.1651C204.016 15.908 203.818 15.5847 203.711 15.2273C203.601 14.8653 203.539 14.4903 203.527 14.112H209.634C209.717 13.4131 209.686 12.7054 209.541 12.0166C209.422 11.4565 209.183 10.9289 208.84 10.4705ZM204.581 10.876C204.978 10.6353 205.436 10.5149 205.9 10.5296C206.364 10.5064 206.822 10.6404 207.201 10.9098C207.537 11.1785 207.777 11.5491 207.885 11.9659C207.969 12.2742 208.011 12.5926 208.008 12.9122H203.564C203.595 12.5753 203.667 12.2433 203.779 11.9237C203.923 11.4953 204.205 11.1269 204.581 10.876Z" fill="white"/>
<path d="M216.478 16.5876C216.398 16.6045 216.311 16.6214 216.215 16.6383L215.928 16.6889C215.836 16.7054 215.743 16.7167 215.65 16.7227C215.559 16.7287 215.475 16.7312 215.396 16.7312C215.137 16.7383 214.88 16.6862 214.644 16.5791C214.441 16.483 214.273 16.3267 214.163 16.1313C214.044 15.9109 213.986 15.6632 213.994 15.4131V10.7324H216.376L216.562 9.38053H213.994V6.71064L212.27 7.31895V9.38053H210.969L210.783 10.7324H212.27V15.768C212.262 16.1039 212.314 16.4385 212.422 16.7565C212.509 17.0082 212.644 17.2406 212.819 17.4409C212.98 17.6194 213.176 17.7631 213.394 17.8634C213.617 17.966 213.853 18.0398 214.095 18.0831C214.334 18.1274 214.578 18.15 214.821 18.1507C215.002 18.1507 215.179 18.145 215.354 18.1337C215.529 18.1225 215.689 18.1056 215.836 18.0831C215.982 18.0603 216.12 18.0352 216.25 18.007C216.379 17.9789 216.489 17.9538 216.579 17.931L216.68 16.5284C216.615 16.5538 216.547 16.5736 216.478 16.5876Z" fill="white"/>
</svg>
