<svg width="255" height="24" viewBox="0 0 255 24" fill="none" xmlns="http://www.w3.org/2000/svg">
<path d="M0 19.0033V5.00453H4.59339V19.0033H0ZM10.8428 7.2325L13.4844 19.0033H8.45737L5.30307 5.00453H8.12254C8.76907 4.99614 9.39641 5.22405 9.88691 5.64538C10.3782 6.04903 10.7158 6.6094 10.8428 7.2325ZM14.1744 19.0033V5.00453H18.7678V19.0033H14.1744ZM22.2372 10.328C21.7422 10.3329 21.2552 10.2034 20.828 9.95338C20.4064 9.70973 20.0563 9.35954 19.8127 8.93795C19.5624 8.51064 19.4329 8.02348 19.4378 7.52829C19.4321 7.03613 19.5618 6.55186 19.8127 6.12842C20.0589 5.71141 20.4086 5.36503 20.828 5.12286C21.2553 4.87317 21.7423 4.74369 22.2372 4.7482C22.7292 4.7429 23.2133 4.87251 23.6369 5.12286C24.0521 5.36715 24.3981 5.71324 24.6424 6.12842C24.893 6.55198 25.0226 7.03616 25.0172 7.52829C25.0218 8.02344 24.8923 8.51052 24.6424 8.93795C24.4007 9.35769 24.0542 9.70758 23.6369 9.95338C23.2133 10.2042 22.7289 10.3339 22.2366 10.328H22.2372ZM25.7269 19.0033V5.00453H30.3207V19.0033H25.7269ZM36.136 12.6545C36.1489 12.6681 36.2475 12.8291 36.4317 13.1376C36.6159 13.446 36.8558 13.8404 37.1513 14.3206C37.447 14.8006 37.759 15.3099 38.0874 15.8486C38.4157 16.3873 38.7247 16.8967 39.0143 17.3767C39.3028 17.8566 39.6313 18.3988 40 19.0033H34.9531C34.6375 18.4906 34.3515 18.0273 34.0952 17.6132C33.8389 17.1992 33.5665 16.7523 33.2778 16.2725C32.9885 15.7932 32.7024 15.3265 32.4196 14.8726C32.1368 14.4187 31.8938 14.0211 31.6905 13.6798C31.4863 13.3383 31.3449 13.1082 31.2663 12.9897C31.0713 12.6956 30.9559 12.3559 30.9315 12.0039C30.951 11.666 31.0597 11.3394 31.2466 11.0572C31.3254 10.9258 31.47 10.6924 31.6803 10.3572C31.8906 10.0221 32.137 9.62448 32.4196 9.16443C32.7021 8.70438 32.9882 8.23446 33.2778 7.75469C33.5674 7.27492 33.8398 6.8247 34.0952 6.40408C34.3519 5.9839 34.6379 5.51727 34.9531 5.00421H40L36.0962 11.3727C35.9754 11.5617 35.9073 11.7797 35.8991 12.0039C35.9121 12.2393 35.9942 12.4656 36.1353 12.6545H36.136Z" fill="#0A2343"/>
<path d="M55.9521 4.99594H53.4895L48.1374 11.1623H47.4019V4.99594H45.3333V18.9836H47.4019V12.6596H47.4712L53.2925 19.0033L56.1097 18.9836L49.4308 12.0489L55.9521 4.99594Z" fill="#015F88"/>
<path d="M61.8023 8.86714C61.4339 8.96591 61.0822 9.1186 60.7585 9.32027C60.4225 9.53024 60.1116 9.77813 59.8322 10.059C59.7859 10.1057 59.7406 10.1576 59.6943 10.2065V8.73912L57.6849 9.0346V18.9836H59.6943V11.5409C59.8437 11.4365 59.9984 11.3397 60.1577 11.251C60.3547 11.1424 60.5587 11.047 60.7683 10.9653C60.9717 10.8865 61.1786 10.8175 61.389 10.7584C61.6051 10.6983 61.8256 10.6555 62.0485 10.6304C62.2874 10.6042 62.5281 10.5976 62.768 10.6107L63.0044 8.7588C62.6005 8.72998 62.1945 8.76655 61.8023 8.86714Z" fill="#015F88"/>
<path d="M64.8366 18.9836H66.8461V8.73912L64.8366 9.0346V18.9836Z" fill="#015F88"/>
<path d="M66.5605 4.61176C66.356 4.48678 66.1204 4.42193 65.8807 4.42462C65.6381 4.42272 65.3996 4.48744 65.1912 4.61176C64.9858 4.7321 64.8132 4.90128 64.6888 5.10428C64.5639 5.30879 64.4991 5.54435 64.5017 5.78398C64.4997 6.02663 64.5644 6.26515 64.6888 6.47351C64.8092 6.67966 64.9827 6.84974 65.1912 6.96603C65.4016 7.08434 65.6394 7.14544 65.8807 7.14331C66.1191 7.1462 66.3539 7.08498 66.5605 6.96603C66.7632 6.84884 66.93 6.67855 67.0431 6.47351C67.1615 6.26311 67.2226 6.02537 67.2204 5.78398C67.2233 5.54564 67.162 5.31088 67.0431 5.10428C66.9261 4.90223 66.7601 4.73287 66.5605 4.61176Z" fill="#015F88"/>
<path d="M77.6422 9.13312C77.0569 8.83756 76.4062 8.69522 75.7509 8.71939C75.179 8.72047 74.6106 8.81021 74.0661 8.98537C73.5053 9.16411 72.9717 9.41932 72.4805 9.74384C72.2901 9.86894 72.1075 10.0065 71.9286 10.148V8.73911L69.9191 9.0346V18.9836H71.9286V11.5015C72.1231 11.3875 72.3237 11.2841 72.5295 11.1919C72.8063 11.0694 73.0889 10.9609 73.3766 10.8668C73.6533 10.7766 73.9365 10.7074 74.2237 10.6599C74.4941 10.6151 74.7676 10.592 75.0416 10.591C75.3631 10.5835 75.6834 10.6336 75.9873 10.7387C76.238 10.8291 76.4616 10.9816 76.6371 11.182C76.8181 11.3993 76.9463 11.6555 77.0117 11.9307C77.0956 12.2789 77.1352 12.6363 77.1297 12.9945V18.9836H79.1391V12.5808C79.1652 11.8339 79.038 11.0897 78.7651 10.394C78.5425 9.85984 78.1471 9.41587 77.6422 9.13312Z" fill="#015F88"/>
<path d="M88.4278 8.97551C88.1268 8.8931 87.8208 8.83055 87.5117 8.78833C87.159 8.74094 86.8036 8.71791 86.4478 8.71939C85.8051 8.71675 85.1685 8.84408 84.5762 9.09371C83.9828 9.34506 83.4441 9.70978 82.9903 10.1674C82.5066 10.6609 82.1339 11.252 81.8969 11.9011C81.6221 12.6618 81.4885 13.4663 81.5029 14.2751C81.4812 15.1648 81.6526 16.0486 82.0052 16.8657C82.3139 17.5646 82.8252 18.1548 83.473 18.56C84.1818 18.9781 84.9948 19.1865 85.8174 19.1609C86.54 19.1583 87.2554 19.0179 87.9254 18.7472C88.3258 18.5842 88.7032 18.3698 89.0483 18.1095V18.6486C89.0562 19.0925 88.9932 19.5348 88.8615 19.9588C88.7478 20.3144 88.552 20.6384 88.2899 20.9044C88.0078 21.1756 87.6624 21.372 87.2851 21.4757C86.7944 21.6105 86.2867 21.6736 85.778 21.6629C85.3731 21.6623 84.9687 21.6392 84.5664 21.5939C84.1441 21.5463 83.7259 21.4673 83.3154 21.3575C82.8924 21.245 82.4777 21.1034 82.0742 20.9339L82.2909 22.6676C82.6531 22.8146 83.025 22.9364 83.404 23.0321C83.8028 23.1327 84.2074 23.2084 84.6156 23.2587C85.047 23.3117 85.4813 23.338 85.9159 23.3375C86.8856 23.3678 87.8492 23.1758 88.7331 22.776C89.4507 22.4417 90.0513 21.8994 90.4569 21.2196C90.8536 20.5208 91.0544 19.7279 91.0381 18.9244V8.71939L89.1114 9.21552C88.8888 9.12133 88.6604 9.04118 88.4278 8.97551ZM88.7923 16.8657C88.5483 17.0077 88.2948 17.1327 88.0338 17.24C87.8038 17.3345 87.5666 17.4103 87.3245 17.4666C87.0885 17.52 86.8473 17.5464 86.6054 17.5454C86.0137 17.5668 85.4266 17.4344 84.9013 17.1612C84.4434 16.8999 84.0888 16.4897 83.8965 15.9989C83.6591 15.3599 83.5487 14.6806 83.5715 13.9992C83.5627 13.4555 83.6392 12.9137 83.798 12.3936C83.9271 11.9662 84.1491 11.5727 84.4481 11.2411C84.7398 10.9331 85.0966 10.6942 85.4923 10.5417C85.9421 10.3713 86.4201 10.2877 86.901 10.2955C87.2113 10.2952 87.521 10.3216 87.8269 10.3743C88.1401 10.4297 88.4494 10.5053 88.7528 10.6008C88.8494 10.631 88.9498 10.6711 89.0483 10.7079V16.715C88.9619 16.7659 88.8734 16.8191 88.7923 16.8657Z" fill="#015F88"/>
<path d="M102.662 8.93612H100.199L96.8279 12.6399H96.1012V4.10938L94.0918 4.4049V18.9836H96.1012V14.1569H96.1341L100.159 18.9836H102.76L97.9811 13.5987L102.662 8.93612Z" fill="#015F88"/>
<path d="M112.965 17.7424C112.821 17.7557 112.676 17.734 112.542 17.6791C112.409 17.6242 112.29 17.5378 112.197 17.4272C112.014 17.1116 111.938 16.7453 111.98 16.383L112.02 12.3247C112.024 11.8992 111.971 11.4751 111.862 11.0638C111.766 10.7031 111.606 10.3627 111.389 10.059C111.17 9.76228 110.891 9.51411 110.572 9.33011C110.2 9.11919 109.798 8.96638 109.38 8.87699C108.868 8.76674 108.346 8.71389 107.823 8.71939C107.408 8.71922 106.994 8.74553 106.582 8.79819C106.193 8.84709 105.808 8.92281 105.43 9.02477C105.079 9.11999 104.733 9.23508 104.395 9.36951L104.159 11.0441C104.487 10.9259 104.799 10.8274 105.095 10.7486C105.391 10.6698 105.676 10.6041 105.951 10.5516C106.222 10.4999 106.495 10.4638 106.769 10.4432C107.038 10.4235 107.304 10.4137 107.567 10.4137C107.969 10.4052 108.37 10.4516 108.759 10.5516C109.043 10.6227 109.304 10.7651 109.518 10.9653C109.708 11.1602 109.843 11.4012 109.912 11.6647C109.995 11.9895 110.035 12.3242 110.03 12.6596L110.028 13.1541L107.725 13.3097C106.937 13.3319 106.161 13.5058 105.44 13.8219C104.899 14.0583 104.433 14.4361 104.09 14.9153C103.799 15.3419 103.644 15.8469 103.647 16.3634C103.643 16.848 103.761 17.3257 103.991 17.7523C104.232 18.1906 104.595 18.5498 105.035 18.7866C105.573 19.0661 106.174 19.2018 106.779 19.1806C107.346 19.1936 107.911 19.1001 108.444 18.9048C108.904 18.7245 109.326 18.4569 109.685 18.1167C109.821 17.986 109.951 17.8483 110.073 17.704C110.111 17.908 110.183 18.1041 110.286 18.2842C110.461 18.5859 110.731 18.8213 111.054 18.954C111.411 19.0973 111.793 19.1676 112.177 19.1609C112.295 19.1609 112.41 19.1576 112.522 19.151C112.631 19.1448 112.74 19.1283 112.847 19.1018C112.952 19.0755 113.047 19.0525 113.133 19.0328C113.21 19.0156 113.286 18.9925 113.359 18.9638L113.576 17.6439C113.467 17.6813 113.355 17.7076 113.241 17.7227C113.15 17.7349 113.058 17.7414 112.965 17.7424ZM109.685 16.8559C109.471 17.0247 109.24 17.1699 108.996 17.2893C108.752 17.4078 108.493 17.4939 108.227 17.5454C107.951 17.5987 107.671 17.6251 107.39 17.6242C107.069 17.6334 106.749 17.5729 106.454 17.4469C106.214 17.3425 106.011 17.1673 105.873 16.9445C105.736 16.7083 105.668 16.439 105.676 16.1664C105.656 15.8379 105.747 15.5123 105.932 15.2404C106.146 14.9902 106.437 14.8172 106.759 14.7479C107.262 14.6294 107.779 14.5764 108.296 14.5903H110.021L110.012 16.5459C109.912 16.6582 109.803 16.7619 109.685 16.8559Z" fill="#015F88"/>
<path d="M121.672 14.4524C121.471 14.2387 121.238 14.0562 120.983 13.9106C120.718 13.7592 120.441 13.6307 120.155 13.5264C119.945 13.4608 119.739 13.3918 119.535 13.3196C119.331 13.2474 119.127 13.1817 118.924 13.1226C118.72 13.0635 118.523 13.0011 118.333 12.9354C118.154 12.8748 117.98 12.8024 117.811 12.7187C117.649 12.6328 117.494 12.5339 117.348 12.4232C117.213 12.3215 117.099 12.1943 117.013 12.0489C116.926 11.8995 116.882 11.7292 116.885 11.5564C116.88 11.3664 116.927 11.1788 117.023 11.0146C117.126 10.8533 117.268 10.721 117.437 10.6304C117.643 10.5173 117.866 10.4375 118.097 10.394C118.386 10.3386 118.679 10.3122 118.973 10.3152C119.118 10.3152 119.275 10.3221 119.446 10.3349C119.617 10.3477 119.804 10.3713 120.008 10.4039C120.212 10.4364 120.415 10.4797 120.618 10.5319C120.822 10.5841 121.029 10.6436 121.239 10.7092C121.434 10.7692 121.624 10.8416 121.81 10.9259L121.948 9.33014C121.698 9.22551 121.452 9.13358 121.209 9.05434C120.967 8.97589 120.72 8.91014 120.471 8.85734C120.227 8.80588 119.98 8.76966 119.732 8.74896C119.488 8.72926 119.249 8.71942 119.013 8.71942C118.469 8.71385 117.926 8.77672 117.397 8.90656C116.945 9.01666 116.516 9.20324 116.127 9.4582C115.774 9.69147 115.486 10.0099 115.289 10.3841C115.083 10.7965 114.982 11.2532 114.994 11.714C114.988 12.0458 115.041 12.3761 115.152 12.6891C115.245 12.9519 115.385 13.1955 115.565 13.4082C115.741 13.6093 115.943 13.785 116.166 13.9303C116.399 14.0832 116.646 14.212 116.905 14.3145C117.049 14.3675 117.2 14.42 117.358 14.4721C117.516 14.525 117.67 14.5742 117.821 14.6198C117.973 14.6655 118.12 14.7118 118.264 14.7578C118.409 14.8037 118.55 14.8497 118.688 14.8957C118.825 14.9416 118.961 14.9843 119.092 15.0237C119.268 15.0861 119.439 15.1619 119.604 15.2503C119.748 15.3268 119.884 15.4193 120.008 15.5261C120.117 15.6213 120.204 15.7389 120.264 15.8709C120.324 16.0073 120.355 16.1551 120.353 16.3043C120.36 16.45 120.334 16.5954 120.278 16.7301C120.222 16.8647 120.136 16.985 120.028 17.0824C119.784 17.2862 119.492 17.4251 119.18 17.4863C118.815 17.567 118.442 17.6067 118.067 17.6046C117.834 17.6031 117.6 17.5866 117.368 17.5553C117.112 17.5229 116.843 17.4769 116.56 17.4174C116.278 17.3578 115.989 17.2856 115.693 17.2006C115.398 17.1157 115.099 17.0205 114.797 16.915L114.876 18.5896C115.217 18.7078 115.529 18.803 115.812 18.8753C116.095 18.9475 116.364 19.0099 116.619 19.0624C116.866 19.1137 117.116 19.1467 117.368 19.1609C117.611 19.1741 117.857 19.1806 118.107 19.1806C118.656 19.1834 119.204 19.1272 119.742 19.0131C120.215 18.9171 120.668 18.7405 121.081 18.4911C121.454 18.2636 121.763 17.9449 121.978 17.5651C122.204 17.1483 122.316 16.6795 122.303 16.2058C122.311 15.8601 122.254 15.5159 122.135 15.1912C122.029 14.9177 121.872 14.6669 121.672 14.4524Z" fill="#015F88"/>
<path d="M129.896 17.3977L129.562 17.4568C129.454 17.4759 129.345 17.4891 129.236 17.4962C129.131 17.503 129.032 17.506 128.941 17.506C128.639 17.5143 128.339 17.4536 128.064 17.3287C127.828 17.2168 127.631 17.0344 127.503 16.8066C127.364 16.5497 127.297 16.2609 127.306 15.9693V10.5122H130.083L130.3 8.93612H127.306V5.82339L125.296 6.53259V8.93612H123.779L123.562 10.5122H125.296V16.383C125.287 16.7746 125.347 17.1647 125.473 17.5356C125.575 17.8289 125.732 18.0999 125.937 18.3335C126.124 18.5416 126.352 18.7092 126.606 18.826C126.867 18.9456 127.142 19.0317 127.424 19.0821C127.703 19.1337 127.987 19.1601 128.271 19.1609C128.481 19.1609 128.688 19.1543 128.892 19.1412C129.096 19.128 129.282 19.1084 129.453 19.0821C129.624 19.0558 129.785 19.0263 129.936 18.9934C130.087 18.9606 130.215 18.9314 130.32 18.9048L130.438 17.2696C130.361 17.2992 130.282 17.3222 130.202 17.3386C130.111 17.3583 130.009 17.378 129.896 17.3977Z" fill="#015F88"/>
<path d="M132.528 18.9836H134.537V8.73912L132.528 9.0346V18.9836Z" fill="#015F88"/>
<path d="M134.251 4.61176C134.047 4.48682 133.812 4.42198 133.572 4.42461C133.329 4.42276 133.091 4.48748 132.883 4.61176C132.677 4.73207 132.505 4.90126 132.381 5.10428C132.255 5.3087 132.19 5.5443 132.193 5.78398C132.191 6.02668 132.256 6.26523 132.381 6.47351C132.501 6.67963 132.674 6.84972 132.883 6.96603C133.093 7.08428 133.331 7.14538 133.572 7.14331C133.81 7.14615 134.045 7.08494 134.251 6.96603C134.454 6.84875 134.621 6.67849 134.734 6.47351C134.853 6.26305 134.914 6.02535 134.912 5.78398C134.914 5.54565 134.853 5.31093 134.734 5.10428C134.617 4.90229 134.451 4.73294 134.251 4.61176Z" fill="#015F88"/>
<path d="M145.333 9.13312C144.748 8.83756 144.097 8.69522 143.442 8.71939C142.87 8.72047 142.302 8.81021 141.757 8.98537C141.196 9.16417 140.663 9.41937 140.172 9.74384C139.981 9.86894 139.799 10.0065 139.62 10.148V8.73911L137.61 9.0346V18.9836H139.62V11.5015C139.814 11.3874 140.015 11.284 140.221 11.1919C140.498 11.0693 140.78 10.9608 141.068 10.8668C141.345 10.7765 141.628 10.7073 141.915 10.6599C142.185 10.6151 142.459 10.592 142.733 10.591C143.054 10.5835 143.374 10.6336 143.678 10.7387C143.929 10.829 144.153 10.9815 144.328 11.182C144.509 11.3992 144.637 11.6555 144.703 11.9307C144.787 12.2789 144.826 12.6363 144.821 12.9945V18.9836H146.83V12.5808C146.856 11.8339 146.729 11.0896 146.456 10.394C146.234 9.85984 145.838 9.41587 145.333 9.13312Z" fill="#015F88"/>
<path d="M156.119 8.97551C155.818 8.8931 155.512 8.83055 155.203 8.78833C154.85 8.74093 154.495 8.71791 154.139 8.71939C153.496 8.71675 152.86 8.84408 152.268 9.09371C151.674 9.34506 151.135 9.70978 150.682 10.1674C150.198 10.661 149.825 11.252 149.588 11.9011C149.313 12.6618 149.18 13.4663 149.194 14.2751C149.172 15.1647 149.344 16.0486 149.696 16.8657C150.005 17.5647 150.516 18.1549 151.164 18.56C151.873 18.9782 152.686 19.1866 153.508 19.1609C154.231 19.1583 154.946 19.0179 155.616 18.7472C156.017 18.5842 156.394 18.3698 156.739 18.1095V18.6486C156.747 19.0925 156.684 19.5348 156.553 19.9588C156.439 20.3144 156.243 20.6383 155.981 20.9044C155.699 21.1755 155.354 21.3719 154.976 21.4757C154.485 21.6105 153.978 21.6736 153.469 21.6629C153.064 21.6623 152.66 21.6393 152.258 21.5939C151.835 21.5464 151.417 21.4673 151.006 21.3575C150.583 21.245 150.169 21.1034 149.765 20.9339L149.982 22.6676C150.344 22.8147 150.716 22.9364 151.095 23.0321C151.494 23.1328 151.899 23.2085 152.307 23.2587C152.738 23.3117 153.172 23.338 153.607 23.3375C154.577 23.3678 155.54 23.1758 156.424 22.776C157.142 22.4418 157.742 21.8995 158.148 21.2196C158.545 20.5208 158.746 19.7279 158.729 18.9244V8.71939L156.802 9.21552C156.58 9.12133 156.352 9.04118 156.119 8.97551ZM156.484 16.8657C156.24 17.0077 155.986 17.1328 155.725 17.24C155.495 17.3345 155.258 17.4103 155.016 17.4666C154.78 17.5199 154.539 17.5464 154.297 17.5454C153.705 17.5668 153.118 17.4344 152.593 17.1612C152.135 16.9 151.78 16.4898 151.588 15.9989C151.351 15.3599 151.24 14.6806 151.263 13.9992C151.254 13.4555 151.331 12.9137 151.489 12.3936C151.618 11.9662 151.841 11.5727 152.14 11.2411C152.431 10.9331 152.788 10.6942 153.184 10.5417C153.633 10.3713 154.111 10.2877 154.592 10.2955C154.903 10.2952 155.212 10.3216 155.518 10.3743C155.832 10.4297 156.141 10.5054 156.445 10.6008C156.541 10.631 156.642 10.6711 156.74 10.7079V16.715C156.653 16.7659 156.565 16.8191 156.484 16.8657Z" fill="#015F88"/>
<path d="M168.008 14.4524C167.807 14.2387 167.574 14.0561 167.319 13.9106C167.054 13.7592 166.777 13.6307 166.491 13.5264C166.281 13.4608 166.074 13.3918 165.871 13.3196C165.667 13.2474 165.463 13.1817 165.26 13.1226C165.056 13.0635 164.859 13.0011 164.669 12.9354C164.49 12.8749 164.316 12.8025 164.147 12.7187C163.985 12.6329 163.83 12.534 163.684 12.4232C163.549 12.3215 163.435 12.1943 163.349 12.0489C163.262 11.8995 163.217 11.7292 163.22 11.5564C163.215 11.3664 163.263 11.1788 163.359 11.0146C163.462 10.8534 163.604 10.7212 163.772 10.6304C163.979 10.5174 164.201 10.4376 164.432 10.394C164.721 10.3386 165.015 10.3122 165.309 10.3152C165.453 10.3152 165.611 10.3221 165.782 10.3349C165.953 10.3477 166.139 10.3713 166.343 10.4038C166.547 10.4364 166.75 10.4797 166.954 10.5319C167.158 10.5841 167.364 10.6436 167.575 10.7092C167.769 10.7692 167.96 10.8416 168.146 10.9259L168.284 9.33014C168.034 9.22551 167.788 9.13358 167.545 9.05434C167.302 8.97587 167.056 8.91012 166.806 8.85734C166.562 8.80582 166.316 8.7696 166.067 8.74896C165.824 8.72926 165.585 8.71942 165.348 8.71942C164.804 8.71386 164.261 8.77672 163.733 8.90656C163.281 9.01664 162.851 9.20322 162.462 9.4582C162.11 9.69156 161.822 10.01 161.625 10.3841C161.419 10.7965 161.317 11.2532 161.329 11.714C161.323 12.0458 161.377 12.3761 161.487 12.6891C161.58 12.9519 161.72 13.1956 161.901 13.4082C162.076 13.6093 162.278 13.7851 162.502 13.9303C162.734 14.0832 162.982 14.212 163.24 14.3145C163.384 14.3675 163.535 14.42 163.694 14.4721C163.852 14.5242 164.006 14.5734 164.156 14.6198C164.307 14.666 164.455 14.712 164.6 14.7578C164.744 14.8041 164.885 14.8497 165.023 14.8957C165.161 14.9416 165.296 14.9843 165.427 15.0237C165.603 15.0862 165.775 15.1619 165.939 15.2503C166.084 15.3269 166.219 15.4194 166.343 15.5261C166.452 15.6213 166.539 15.7389 166.599 15.8709C166.659 16.0073 166.69 16.1551 166.688 16.3043C166.695 16.45 166.67 16.5954 166.613 16.7301C166.557 16.8647 166.472 16.985 166.363 17.0824C166.119 17.2862 165.828 17.4251 165.516 17.4863C165.15 17.567 164.777 17.6066 164.403 17.6046C164.169 17.6031 163.935 17.5866 163.703 17.5553C163.447 17.5229 163.178 17.4769 162.896 17.4174C162.613 17.3578 162.324 17.2856 162.029 17.2006C161.733 17.1157 161.434 17.0205 161.132 16.915L161.211 18.5896C161.552 18.7078 161.864 18.803 162.147 18.8753C162.43 18.9475 162.699 19.0099 162.955 19.0624C163.201 19.1137 163.452 19.1467 163.703 19.1609C163.946 19.1741 164.192 19.1806 164.442 19.1806C164.992 19.1834 165.54 19.1272 166.077 19.0131C166.55 18.917 167.004 18.7405 167.417 18.4911C167.789 18.2635 168.098 17.9448 168.313 17.5651C168.539 17.1483 168.651 16.6795 168.638 16.2058C168.646 15.8601 168.59 15.516 168.471 15.1912C168.365 14.9178 168.208 14.6671 168.008 14.4524Z" fill="#015F88"/>
<path d="M178.184 9.35147C177.363 8.91539 176.444 8.69825 175.515 8.72103C174.577 8.69969 173.65 8.92379 172.825 9.37115C172.064 9.79726 171.442 10.4333 171.032 11.2033C170.588 12.0674 170.368 13.0294 170.392 14.0009C170.367 14.9647 170.573 15.9206 170.993 16.7885C171.37 17.5462 171.972 18.1689 172.717 18.5715C173.518 18.9915 174.413 19.2016 175.317 19.1822C176.264 19.201 177.2 18.9772 178.036 18.5321C178.817 18.1063 179.457 17.4629 179.879 16.6802C180.336 15.806 180.563 14.8296 180.538 13.8433C180.561 12.9038 180.351 11.9732 179.927 11.1344C179.535 10.3811 178.928 9.7608 178.184 9.35147ZM178.066 15.9513C177.845 16.4632 177.469 16.8936 176.992 17.1826C176.513 17.4569 175.968 17.5964 175.416 17.5864C174.875 17.6 174.341 17.4563 173.88 17.1727C173.423 16.8693 173.066 16.4374 172.855 15.9315C172.587 15.2827 172.46 14.5844 172.481 13.8827C172.458 13.1999 172.585 12.5205 172.855 11.8929C173.076 11.3996 173.444 10.9867 173.909 10.7108C174.406 10.4372 174.967 10.3012 175.534 10.3168C175.977 10.3058 176.417 10.3897 176.825 10.5631C177.182 10.7241 177.493 10.9712 177.731 11.2822C177.985 11.6201 178.169 12.0052 178.273 12.4149C178.396 12.8943 178.456 13.3878 178.45 13.8827C178.473 14.5919 178.342 15.2977 178.065 15.9513H178.066Z" fill="#015F88"/>
<path d="M187.098 8.86714C186.73 8.96591 186.378 9.1186 186.054 9.32027C185.718 9.53025 185.407 9.77814 185.128 10.059C185.082 10.1057 185.036 10.1576 184.99 10.2065V8.73912L182.981 9.0346V18.9836H184.99V11.5409C185.14 11.4366 185.294 11.3398 185.453 11.251C185.65 11.1425 185.854 11.047 186.064 10.9653C186.268 10.8865 186.474 10.8175 186.684 10.7584C186.901 10.6983 187.121 10.6555 187.344 10.6304C187.583 10.6042 187.824 10.5976 188.064 10.6107L188.3 8.7588C187.896 8.72998 187.49 8.76655 187.098 8.86714Z" fill="#015F88"/>
<path d="M198.702 8.93612H196.239L192.868 12.6399H192.142V4.10938L190.132 4.4049V18.9836H192.142V14.1569H192.174L196.2 18.9836H198.8L194.021 13.5987L198.702 8.93612Z" fill="#015F88"/>
<path d="M208.099 10.2068C207.721 9.71668 207.222 9.33313 206.651 9.09374C206.017 8.83478 205.337 8.70743 204.652 8.71941C203.962 8.70775 203.277 8.84201 202.642 9.11342C202.065 9.36614 201.55 9.74284 201.135 10.2167C200.707 10.7145 200.385 11.2944 200.189 11.9208C199.965 12.6379 199.855 13.3859 199.864 14.1372C199.836 15.0865 200.036 16.0287 200.446 16.8854C200.82 17.6281 201.425 18.2295 202.169 18.5994C203.043 19.0112 204.002 19.2103 204.967 19.1806C205.431 19.1846 205.896 19.155 206.356 19.0919C206.74 19.0366 207.12 18.9476 207.489 18.826C207.855 18.7031 208.21 18.5516 208.552 18.3729L208.69 16.8559C208.441 16.9483 208.188 17.0402 207.932 17.1317C207.676 17.2232 207.41 17.3053 207.134 17.378C206.856 17.4508 206.573 17.5035 206.287 17.5356C205.999 17.5685 205.71 17.585 205.42 17.5848C204.903 17.5933 204.386 17.5371 203.883 17.4174C203.477 17.3203 203.101 17.124 202.79 16.846C202.475 16.5463 202.244 16.1693 202.12 15.7527C201.991 15.3306 201.919 14.8934 201.905 14.4524H209.025C209.122 13.6376 209.085 12.8125 208.917 12.0095C208.778 11.3564 208.499 10.7414 208.099 10.2068ZM203.135 10.6796C203.597 10.399 204.131 10.2587 204.671 10.2758C205.212 10.2488 205.747 10.4049 206.188 10.719C206.581 11.0322 206.861 11.4643 206.986 11.9504C207.085 12.3097 207.133 12.681 207.13 13.0536H201.949C201.985 12.6608 202.069 12.2738 202.199 11.9011C202.367 11.4017 202.696 10.9722 203.135 10.6796Z" fill="#015F88"/>
<path d="M217.713 14.4524C217.511 14.2386 217.279 14.0561 217.023 13.9106C216.759 13.7592 216.482 13.6307 216.195 13.5264C215.986 13.4608 215.779 13.3918 215.575 13.3196C215.372 13.2474 215.168 13.1817 214.964 13.1226C214.761 13.0635 214.564 13.0011 214.373 12.9354C214.195 12.8748 214.02 12.8024 213.851 12.7187C213.689 12.6328 213.534 12.534 213.388 12.4232C213.253 12.3214 213.14 12.1942 213.053 12.0489C212.966 11.8995 212.922 11.7292 212.925 11.5564C212.92 11.3664 212.968 11.1788 213.063 11.0146C213.166 10.8534 213.309 10.7211 213.477 10.6304C213.683 10.5173 213.906 10.4375 214.137 10.394C214.426 10.3386 214.72 10.3122 215.014 10.3152C215.158 10.3152 215.316 10.3221 215.486 10.3349C215.657 10.3477 215.844 10.3713 216.048 10.4038C216.252 10.4364 216.455 10.4797 216.658 10.5319C216.862 10.5841 217.069 10.6436 217.279 10.7092C217.474 10.7692 217.665 10.8416 217.85 10.9259L217.989 9.33014C217.739 9.22551 217.493 9.13358 217.25 9.05434C217.007 8.97587 216.761 8.91012 216.511 8.85734C216.267 8.80586 216.02 8.76965 215.772 8.74896C215.529 8.72926 215.289 8.71942 215.053 8.71942C214.509 8.71386 213.966 8.77672 213.438 8.90656C212.986 9.01664 212.556 9.20322 212.167 9.4582C211.814 9.69156 211.526 10.01 211.33 10.3841C211.124 10.7965 211.022 11.2532 211.034 11.714C211.028 12.0458 211.081 12.3761 211.192 12.6891C211.285 12.9519 211.425 13.1956 211.605 13.4082C211.781 13.6093 211.983 13.785 212.206 13.9303C212.439 14.0832 212.686 14.2119 212.945 14.3145C213.089 14.3675 213.24 14.42 213.398 14.4721C213.556 14.5242 213.71 14.5734 213.861 14.6198C214.012 14.666 214.16 14.712 214.304 14.7578C214.449 14.8041 214.59 14.8497 214.728 14.8957C214.866 14.9416 215.001 14.9843 215.132 15.0237C215.308 15.0861 215.479 15.1619 215.644 15.2503C215.789 15.3269 215.924 15.4194 216.048 15.5261C216.157 15.6213 216.244 15.7389 216.304 15.8709C216.364 16.0073 216.395 16.1551 216.393 16.3043C216.4 16.45 216.374 16.5954 216.318 16.7301C216.262 16.8647 216.176 16.985 216.068 17.0824C215.824 17.2862 215.532 17.4251 215.221 17.4863C214.855 17.567 214.482 17.6067 214.107 17.6046C213.874 17.6031 213.64 17.5866 213.408 17.5553C213.152 17.5229 212.883 17.4769 212.6 17.4174C212.318 17.3578 212.029 17.2856 211.733 17.2006C211.438 17.1157 211.139 17.0205 210.837 16.915L210.916 18.5896C211.257 18.7078 211.569 18.803 211.852 18.8753C212.134 18.9475 212.404 19.0099 212.659 19.0624C212.906 19.1137 213.156 19.1467 213.408 19.1609C213.651 19.1741 213.897 19.1806 214.147 19.1806C214.696 19.1834 215.245 19.1272 215.782 19.0131C216.255 18.917 216.708 18.7404 217.122 18.4911C217.494 18.2635 217.803 17.9448 218.018 17.5651C218.244 17.1483 218.356 16.6795 218.343 16.2058C218.351 15.8601 218.294 15.5159 218.176 15.1912C218.07 14.9178 217.912 14.667 217.713 14.4524Z" fill="#015F88"/>
<path d="M225.938 17.3977L225.604 17.4568C225.496 17.476 225.387 17.4891 225.278 17.4962C225.173 17.503 225.074 17.506 224.983 17.506C224.681 17.5143 224.381 17.4536 224.106 17.3287C223.87 17.2167 223.673 17.0344 223.545 16.8066C223.406 16.5497 223.339 16.2609 223.348 15.9693V10.5122H226.125L226.342 8.93612H223.348V5.82339L221.338 6.53259V8.93612H219.821L219.604 10.5122H221.338V16.383C221.329 16.7746 221.389 17.1647 221.515 17.5356C221.617 17.8289 221.774 18.0998 221.978 18.3335C222.166 18.5416 222.394 18.7092 222.648 18.826C222.909 18.9456 223.183 19.0317 223.465 19.0821C223.745 19.1337 224.028 19.1601 224.313 19.1609C224.523 19.1609 224.73 19.1543 224.933 19.1412C225.137 19.128 225.324 19.1084 225.495 19.0821C225.665 19.0555 225.826 19.0263 225.977 18.9934C226.128 18.9606 226.256 18.9314 226.361 18.9048L226.48 17.2696C226.403 17.2991 226.324 17.3222 226.244 17.3386C226.152 17.3583 226.05 17.378 225.938 17.3977Z" fill="#015F88"/>
<path d="M232.685 8.86714C232.317 8.96589 231.965 9.11859 231.641 9.32027C231.305 9.53023 230.995 9.77812 230.715 10.059C230.669 10.1057 230.624 10.1576 230.577 10.2065V8.73912L228.568 9.0346V18.9836H230.577V11.5409C230.727 11.4365 230.881 11.3398 231.04 11.251C231.238 11.1424 231.442 11.047 231.651 10.9653C231.855 10.8865 232.061 10.8175 232.272 10.7584C232.488 10.6983 232.709 10.6555 232.932 10.6304C233.17 10.6042 233.411 10.5976 233.651 10.6107L233.887 8.7588C233.483 8.72997 233.078 8.76655 232.685 8.86714Z" fill="#015F88"/>
<path d="M243.344 10.2068C242.965 9.71668 242.467 9.33313 241.896 9.09374C241.261 8.83478 240.581 8.70743 239.896 8.71941C239.206 8.70773 238.521 8.84199 237.887 9.11342C237.309 9.36614 236.795 9.74284 236.379 10.2167C235.951 10.7145 235.63 11.2944 235.433 11.9208C235.209 12.6379 235.099 13.3859 235.109 14.1372C235.081 15.0864 235.28 16.0286 235.689 16.8854C236.064 17.628 236.669 18.2293 237.413 18.5994C238.287 19.0111 239.246 19.2103 240.211 19.1806C240.676 19.1846 241.14 19.155 241.6 19.0919C241.985 19.0366 242.364 18.9476 242.733 18.826C243.099 18.7031 243.455 18.5516 243.797 18.3729L243.935 16.8559C243.685 16.9483 243.432 17.0402 243.176 17.1317C242.92 17.2232 242.654 17.3053 242.378 17.378C242.1 17.4508 241.817 17.5035 241.531 17.5356C241.243 17.5685 240.954 17.585 240.664 17.5848C240.147 17.5934 239.631 17.5371 239.127 17.4174C238.721 17.3204 238.346 17.1241 238.034 16.846C237.719 16.5463 237.488 16.1694 237.364 15.7527C237.236 15.3306 237.163 14.8934 237.15 14.4524H244.269C244.366 13.6376 244.33 12.8125 244.161 12.0095C244.022 11.3564 243.744 10.7414 243.344 10.2068ZM238.379 10.6796C238.841 10.399 239.375 10.2587 239.916 10.2758C240.457 10.2488 240.991 10.4049 241.433 10.719C241.825 11.0323 242.105 11.4644 242.23 11.9504C242.329 12.3098 242.377 12.681 242.374 13.0536H237.193C237.229 12.6608 237.313 12.2738 237.443 11.9011C237.611 11.4017 237.941 10.9721 238.379 10.6796Z" fill="#015F88"/>
<path d="M252.248 17.3386C252.156 17.3583 252.054 17.378 251.943 17.3977L251.608 17.4568C251.501 17.4759 251.392 17.4891 251.283 17.4962C251.178 17.503 251.079 17.506 250.988 17.506C250.686 17.5142 250.386 17.4536 250.111 17.3287C249.874 17.2167 249.678 17.0344 249.549 16.8066C249.411 16.5497 249.343 16.2609 249.352 15.9693V10.5122H252.13L252.347 8.93612H249.352V5.82339L247.343 6.53259V8.93612H245.826L245.609 10.5122H247.343V16.383C247.334 16.7746 247.394 17.1648 247.52 17.5356C247.622 17.8289 247.779 18.0999 247.983 18.3335C248.171 18.5415 248.399 18.7091 248.653 18.826C248.913 18.9456 249.188 19.0317 249.47 19.0821C249.75 19.1337 250.033 19.1601 250.317 19.1609C250.528 19.1609 250.735 19.1543 250.938 19.1412C251.142 19.128 251.329 19.1084 251.5 19.0821C251.67 19.0555 251.831 19.0263 251.982 18.9934C252.134 18.9606 252.261 18.9314 252.366 18.9048L252.485 17.2696C252.408 17.2992 252.329 17.3222 252.248 17.3386Z" fill="#015F88"/>
</svg>
