<svg xmlns="http://www.w3.org/2000/svg" viewBox="0 0 48 41" fill="currentColor"><path d="M0 17.993v-12h3.937v12H0Zm9.294-10.09 2.264 10.09H7.25l-2.703-12h2.416a2.276 2.276 0 0 1 1.513.55c.42.346.71.826.819 1.36Zm2.856 10.09v-12h3.937v12H12.15Zm6.91-7.436a2.382 2.382 0 0 1-2.4-2.4 2.303 2.303 0 0 1 .322-1.2 2.412 2.412 0 0 1 3.278-.862c.356.21.653.506.862.862.215.363.326.778.321 1.2a2.4 2.4 0 0 1-1.183 2.079 2.302 2.302 0 0 1-1.2.32Zm2.992 7.436v-12h3.937v12h-3.937Zm8.922-5.442c.01.012.095.15.253.414s.364.602.617 1.014a320.187 320.187 0 0 1 1.597 2.62c.247.41.529.876.845 1.394H29.96c-.27-.44-.516-.837-.736-1.192-.22-.355-.453-.738-.7-1.149-.248-.41-.493-.81-.736-1.2-.242-.389-.45-.73-.625-1.022a18.04 18.04 0 0 0-.363-.592 1.75 1.75 0 0 1-.287-.845c.016-.29.11-.57.27-.811.067-.113.191-.313.372-.6a182.106 182.106 0 0 0 1.37-2.23c.247-.412.48-.798.7-1.159l.735-1.2h4.326l-3.346 5.46a1.078 1.078 0 0 0-.17.54c.012.202.082.396.203.558ZM7.29 29.51a3.184 3.184 0 0 0-.836-.62 6.478 6.478 0 0 0-1.013-.416c-.358-.113-.726-.21-1.105-.289a23.87 23.87 0 0 1-.812-.203 3.693 3.693 0 0 1-.67-.247 2.206 2.206 0 0 1-.51-.34 1.222 1.222 0 0 1-.327-.474 1.854 1.854 0 0 1-.11-.671 2.069 2.069 0 0 1 .11-.696c.068-.198.183-.376.335-.518.156-.146.334-.266.527-.357.22-.101.455-.17.695-.203a5.79 5.79 0 0 1 .862-.06 7.627 7.627 0 0 1 1.574.17c.252.056.501.127.745.212.229.08.45.18.662.297l.234-1.494a4.141 4.141 0 0 0-.745-.305 9.902 9.902 0 0 0-.795-.204 7.867 7.867 0 0 0-.82-.127 8.458 8.458 0 0 0-.855-.043 7.033 7.033 0 0 0-1.758.204c-.49.12-.953.333-1.364.628-.38.276-.684.643-.887 1.07a3.498 3.498 0 0 0-.31 1.528c-.01.407.056.813.193 1.196.12.322.305.614.543.858.237.239.508.44.804.594.314.165.642.301.98.408.351.113.711.21 1.08.289.301.067.58.138.837.212.239.067.471.155.694.263.193.092.37.212.528.357.15.142.267.316.343.509.089.233.132.48.126.73.004.265-.035.53-.117.781-.074.218-.188.42-.335.594a1.613 1.613 0 0 1-.536.407 2.675 2.675 0 0 1-.728.222c-.308.047-.618.07-.93.067-.302 0-.604-.02-.903-.059-.313-.04-.626-.093-.938-.162a9.32 9.32 0 0 1-.912-.246A17.128 17.128 0 0 1 0 33.075l.218 1.681c.285.108.576.202.87.28.268.071.539.128.812.17.262.04.525.07.787.093.263.023.528.035.795.034.6.004 1.198-.059 1.784-.186a4.237 4.237 0 0 0 1.456-.612c.414-.278.75-.661.971-1.112a3.805 3.805 0 0 0 .343-1.706 3.88 3.88 0 0 0-.192-1.29 2.515 2.515 0 0 0-.553-.917ZM17.311 34.077a.754.754 0 0 1-.653-.271 1.478 1.478 0 0 1-.184-.9l.033-3.498a4.134 4.134 0 0 0-.134-1.087 2.677 2.677 0 0 0-.401-.866 2.282 2.282 0 0 0-.695-.628 3.533 3.533 0 0 0-1.013-.39 5.883 5.883 0 0 0-1.323-.136c-.352 0-.705.022-1.055.068-.33.042-.657.107-.98.195a8.025 8.025 0 0 0-.878.297l-.201 1.443a10.005 10.005 0 0 1 1.524-.424c.23-.044.461-.076.695-.093.228-.017.454-.026.678-.026.34-.007.682.033 1.012.119.242.061.464.184.645.357.162.168.277.375.335.603.072.28.105.568.1.857l-.001.426-1.957.134a5.142 5.142 0 0 0-1.942.441c-.46.204-.856.53-1.147.943a2.215 2.215 0 0 0-.377 1.248c-.003.417.098.83.293 1.197.205.378.513.687.887.891.457.24.968.358 1.482.34a3.81 3.81 0 0 0 1.415-.238c.391-.155.75-.386 1.055-.679.116-.112.226-.231.33-.356.032.176.093.345.18.5.15.26.379.463.653.578.303.123.628.184.955.178.1 0 .198-.003.293-.008a1.51 1.51 0 0 0 .276-.043l.243-.06c.065-.014.13-.034.192-.059l.184-1.137a1.464 1.464 0 0 1-.284.068 1.9 1.9 0 0 1-.235.016Zm-2.788-.764a3.22 3.22 0 0 1-.586.374 2.62 2.62 0 0 1-.653.22 3.656 3.656 0 0 1-.711.068 1.86 1.86 0 0 1-.795-.153 1.096 1.096 0 0 1-.494-.432 1.283 1.283 0 0 1-.168-.67c-.016-.284.06-.565.218-.8.182-.215.43-.364.703-.424a5.037 5.037 0 0 1 1.306-.135h1.466l-.007 1.685a2.275 2.275 0 0 1-.279.267ZM15.586 22.26H13.78l-1.424 3.04h1.307l1.924-3.04ZM25.858 26.836a3.56 3.56 0 0 0-2-.535 5.045 5.045 0 0 0-1.24.16 5.344 5.344 0 0 0-1.49.642v-.785l-1.707.271v12.123h1.707v-3.801l.034.015c.31.13.632.224.963.28.39.065.785.097 1.18.093a4.137 4.137 0 0 0 2.151-.56 4.008 4.008 0 0 0 1.507-1.621 5.487 5.487 0 0 0 .56-2.59 5.343 5.343 0 0 0-.426-2.207 3.4 3.4 0 0 0-1.239-1.485Zm-.444 5.68c-.2.45-.538.824-.962 1.068-.472.251-1 .374-1.532.357a4.7 4.7 0 0 1-1.792-.346v-5.358c.023-.01.046-.024.068-.034.245-.114.474-.21.686-.29a3.389 3.389 0 0 1 1.188-.22 3.062 3.062 0 0 1 1.49.33c.405.224.72.58.896 1.01.213.552.313 1.141.294 1.733a4.1 4.1 0 0 1-.335 1.75ZM41.169 26.657a2.882 2.882 0 0 0-1.49-.356 3.873 3.873 0 0 0-1.323.23 4.645 4.645 0 0 0-1.205.652 6.123 6.123 0 0 0-.594.51 2.12 2.12 0 0 0-.863-1.019 2.921 2.921 0 0 0-1.507-.356c-.447 0-.892.077-1.314.229a4.74 4.74 0 0 0-1.565.928V26.32l-1.708.255v8.574h1.707v-6.46a5.37 5.37 0 0 1 .628-.359 4.28 4.28 0 0 1 .83-.297c.262-.066.532-.1.803-.102.248-.008.496.036.728.127a1.3 1.3 0 0 1 .494.374c.145.189.246.41.293.645.065.304.096.614.092.925v5.145h1.708v-5.502c.001-.324-.02-.649-.065-.97.194-.13.394-.247.6-.354.262-.133.537-.236.821-.305a3.45 3.45 0 0 1 .82-.102c.246-.006.491.037.72.127.196.08.368.21.503.374.145.189.246.41.293.645.065.304.096.614.092.925v5.162h1.707v-5.518a4.993 4.993 0 0 0-.3-1.885 2.18 2.18 0 0 0-.905-1.085ZM44.903 35.147h1.707v-8.83l-1.707.256v8.574ZM46.778 23.185a1.19 1.19 0 0 0-.41-.424 1.072 1.072 0 0 0-.578-.161 1.113 1.113 0 0 0-.586.16c-.175.104-.321.25-.427.425-.106.176-.161.38-.159.586-.002.21.053.415.159.594a1.159 1.159 0 0 0 1.013.577 1.114 1.114 0 0 0 .988-.577c.1-.181.152-.386.15-.594a1.159 1.159 0 0 0-.15-.586Z"/></svg>