<svg xmlns="http://www.w3.org/2000/svg" viewBox="0 0 26 26"><path fill="#000" d="M13 25.5C6.096 25.5.5 19.904.5 13S6.096.5 13 .5 25.5 6.096 25.5 13 19.904 25.5 13 25.5Zm7.55-8.598c-.43-.465-1.114-1.397-1.114-1.397a3.555 3.555 0 0 0 1.578-.912c.692-.688 1.069-1.664 1.064-2.715.01-1.09-.468-2.07-1.225-2.685-.755-.622-1.726-.913-2.736-.913h-1.784a3.038 3.038 0 0 0-3.029 3.033v7.48h2.02v-2.124c0-.55.461-1.01 1.01-1.01h.806l2.328 2.848c.164.159.38.262.62.282h.044l.044.003.042-.003h1.196l.003-1.634s-.493.14-.861-.253h-.006Zm-8.557-8.294h-2v3.26c-.037 1.216-1.175 1.61-2.084 1.622-1.037-.014-2.129-.591-2.129-2.17l-.003-2.719h-1.97v2.72c0 1.233.428 2.287 1.234 3.047.731.69 1.733 1.075 2.827 1.093h.081c.735-.013 1.815-.493 2.024-.917v.9c0 1.193-1.517 1.97-1.926 2.174l.03.034-.028.017 1.267 1.534c.735-.43 2.669-1.284 2.676-3.98V8.608h.001Zm6.306 5.03h-1.965c-.354 0-.692.146-1.01.257v-2.584c0-.547.461-1.009 1.01-1.01h1.783c.628 0 1.131.185 1.445.447.31.267.485.581.495 1.132-.005.591-.194.997-.476 1.284-.287.284-.692.473-1.284.473l.002.002v-.001Z"/></svg>