<svg width="268" height="28" viewBox="0 0 268 28" fill="none" xmlns="http://www.w3.org/2000/svg">
<rect width="267.667" height="28" fill="#01405C"/>
<path d="M6.66663 20.9998V7.00111H11.26V20.9998H6.66663ZM17.5094 9.22908L20.151 20.9998H15.124L11.9697 7.00111H14.7892C15.4357 6.99272 16.063 7.22063 16.5535 7.64196C17.0449 8.04562 17.3824 8.60598 17.5094 9.22908ZM20.8411 20.9998V7.00111H25.4345V20.9998H20.8411ZM28.9038 12.3246C28.4089 12.3294 27.9218 12.1999 27.4946 11.95C27.0731 11.7063 26.7229 11.3561 26.4793 10.9345C26.229 10.5072 26.0995 10.0201 26.1044 9.52487C26.0988 9.03271 26.2284 8.54845 26.4793 8.125C26.7255 7.70799 27.0752 7.36161 27.4946 7.11944C27.922 6.86976 28.4089 6.74027 28.9038 6.74479C29.3959 6.73949 29.8799 6.86909 30.3035 7.11944C30.7187 7.36374 31.0647 7.70982 31.309 8.125C31.5596 8.54857 31.6892 9.03275 31.6838 9.52487C31.6884 10.02 31.5589 10.5071 31.309 10.9345C31.0673 11.3543 30.7209 11.7042 30.3035 11.95C29.8799 12.2008 29.3955 12.3304 28.9032 12.3246H28.9038ZM32.3935 20.9998V7.00111H36.9873V20.9998H32.3935ZM42.8027 14.6511C42.8156 14.6647 42.9141 14.8257 43.0983 15.1342C43.2825 15.4426 43.5224 15.837 43.8179 16.3172C44.1136 16.7972 44.4257 17.3065 44.754 17.8452C45.0824 18.3839 45.3913 18.8933 45.6809 19.3732C45.9694 19.8532 46.298 20.3954 46.6666 20.9998H41.6198C41.3041 20.4872 41.0181 20.0239 40.7618 19.6098C40.5056 19.1958 40.2331 18.7489 39.9444 18.2691C39.6551 17.7898 39.369 17.3231 39.0862 16.8692C38.8034 16.4153 38.5604 16.0177 38.3571 15.6764C38.153 15.3349 38.0116 15.1048 37.9329 14.9863C37.7379 14.6922 37.6225 14.3525 37.5981 14.0005C37.6176 13.6626 37.7263 13.336 37.9132 13.0538C37.992 12.9224 38.1366 12.689 38.3469 12.3538C38.5572 12.0186 38.8036 11.6211 39.0862 11.161C39.3688 10.701 39.6549 10.231 39.9444 9.75127C40.234 9.27151 40.5064 8.82128 40.7618 8.40066C41.0186 7.98048 41.3046 7.51385 41.6198 7.00079H46.6666L42.7629 13.3692C42.6421 13.5583 42.574 13.7762 42.5657 14.0005C42.5787 14.2359 42.6609 14.4622 42.8019 14.6511H42.8027Z" fill="white"/>
<path d="M62.704 7.00253H60.2216L54.8266 13.1689H54.0852V7.00253H52V20.9902H54.0852V14.6662H54.155L60.023 21.0099L62.8628 20.9902L56.1303 14.0555L62.704 7.00253Z" fill="#85E6D6"/>
<path d="M68.601 10.8737C68.2297 10.9725 67.8752 11.1252 67.5489 11.3269C67.2101 11.5368 66.8968 11.7847 66.6151 12.0656C66.5685 12.1123 66.5228 12.1642 66.4762 12.2131V10.7457L64.4506 11.0412V20.9902H66.4762V13.5475C66.6268 13.4431 66.7827 13.3463 66.9432 13.2575C67.1419 13.149 67.3475 13.0536 67.5588 12.9719C67.7638 12.8931 67.9723 12.8241 68.1844 12.765C68.4023 12.7049 68.6245 12.6621 68.8493 12.637C69.09 12.6108 69.3326 12.6042 69.5745 12.6173L69.8128 10.7654C69.4056 10.7366 68.9964 10.7731 68.601 10.8737Z" fill="#85E6D6"/>
<path d="M71.6597 20.9902H73.6853V10.7457L71.6597 11.0412V20.9902Z" fill="#85E6D6"/>
<path d="M73.3973 6.61835C73.1912 6.49337 72.9538 6.42853 72.7122 6.43121C72.4676 6.42931 72.2271 6.49403 72.0171 6.61835C71.81 6.7387 71.6361 6.90787 71.5107 7.11087C71.3848 7.31538 71.3194 7.55094 71.3221 7.79058C71.3201 8.03322 71.3853 8.27174 71.5107 8.4801C71.632 8.68625 71.8069 8.85633 72.0171 8.97262C72.2292 9.09093 72.4689 9.15204 72.7122 9.1499C72.9525 9.15279 73.1891 9.09158 73.3973 8.97262C73.6017 8.85543 73.7699 8.68514 73.8839 8.4801C74.0032 8.2697 74.0648 8.03196 74.0626 7.79058C74.0655 7.55223 74.0037 7.31747 73.8839 7.11087C73.7659 6.90883 73.5986 6.73946 73.3973 6.61835Z" fill="#85E6D6"/>
<path d="M84.568 11.1397C83.978 10.8442 83.322 10.7018 82.6615 10.726C82.085 10.7271 81.5121 10.8168 80.9632 10.992C80.3978 11.1707 79.86 11.4259 79.3649 11.7504C79.1729 11.8755 78.9889 12.0131 78.8085 12.1546V10.7457L76.783 11.0412V20.9902H78.8085V13.5081C79.0046 13.3941 79.2068 13.2907 79.4142 13.1985C79.6932 13.076 79.9782 12.9675 80.2681 12.8734C80.5471 12.7832 80.8326 12.714 81.1221 12.6665C81.3946 12.6217 81.6703 12.5986 81.9465 12.5976C82.2706 12.5901 82.5935 12.6402 82.8998 12.7453C83.1525 12.8357 83.3778 12.9882 83.5548 13.1886C83.7373 13.4059 83.8665 13.6621 83.9324 13.9372C84.0169 14.2855 84.0569 14.6429 84.0513 15.0011V20.9902H86.0769V14.5874C86.1032 13.8405 85.9749 13.0963 85.6999 12.4006C85.4755 11.8664 85.0769 11.4225 84.568 11.1397Z" fill="#85E6D6"/>
<path d="M95.44 10.9821C95.1367 10.8997 94.8282 10.8371 94.5165 10.7949C94.1611 10.7475 93.8028 10.7245 93.4442 10.726C92.7963 10.7233 92.1546 10.8507 91.5576 11.1003C90.9594 11.3516 90.4163 11.7164 89.9589 12.174C89.4714 12.6675 89.0957 13.2586 88.8568 13.9077C88.5798 14.6684 88.4451 15.4729 88.4596 16.2817C88.4377 17.1714 88.6105 18.0552 88.966 18.8723C89.2771 19.5712 89.7925 20.1614 90.4455 20.5666C91.16 20.9847 91.9795 21.1931 92.8087 21.1675C93.5371 21.1649 94.2583 21.0245 94.9336 20.7538C95.3372 20.5908 95.7176 20.3764 96.0655 20.1161V20.6552C96.0735 21.0991 96.0099 21.5414 95.8772 21.9653C95.7626 22.321 95.5652 22.645 95.301 22.911C95.0167 23.1822 94.6685 23.3786 94.2882 23.4823C93.7935 23.6171 93.2818 23.6802 92.7689 23.6695C92.3609 23.6689 91.9532 23.6458 91.5476 23.6005C91.122 23.5529 90.7004 23.4739 90.2866 23.3641C89.8602 23.2516 89.4422 23.11 89.0355 22.9405L89.254 24.6742C89.6191 24.8212 89.9939 24.943 90.376 25.0387C90.7779 25.1393 91.1858 25.215 91.5973 25.2653C92.0321 25.3183 92.4699 25.3446 92.908 25.3441C93.8854 25.3744 94.8568 25.1823 95.7478 24.7826C96.4711 24.4483 97.0765 23.906 97.4854 23.2262C97.8853 22.5274 98.0877 21.7344 98.0713 20.931V10.726L96.1291 11.2221C95.9047 11.1279 95.6745 11.0478 95.44 10.9821ZM95.8074 18.8723C95.5615 19.0143 95.306 19.1393 95.0428 19.2466C94.8111 19.3411 94.5719 19.4169 94.3279 19.4732C94.09 19.5266 93.8469 19.553 93.603 19.552C93.0066 19.5734 92.4147 19.441 91.8853 19.1678C91.4237 18.9065 91.0663 18.4963 90.8724 18.0055C90.6331 17.3664 90.5218 16.6872 90.5448 16.0058C90.536 15.4621 90.613 14.9203 90.7731 14.4002C90.9033 13.9728 91.1271 13.5793 91.4285 13.2477C91.7224 12.9397 92.0821 12.7008 92.481 12.5483C92.9344 12.3779 93.4162 12.2943 93.901 12.3021C94.2138 12.3018 94.526 12.3282 94.8343 12.3809C95.15 12.4363 95.4618 12.5119 95.7677 12.6074C95.865 12.6376 95.9662 12.6777 96.0655 12.7145V18.7216C95.9785 18.7725 95.8892 18.8257 95.8074 18.8723Z" fill="#85E6D6"/>
<path d="M109.788 10.9427H107.306L103.908 14.6465H103.175V6.11597L101.149 6.41149V20.9902H103.175V16.1635H103.208L107.266 20.9902H109.887L105.07 15.6052L109.788 10.9427Z" fill="#85E6D6"/>
<path d="M120.174 19.749C120.029 19.7623 119.883 19.7406 119.748 19.6857C119.613 19.6308 119.494 19.5444 119.4 19.4338C119.215 19.1182 119.139 18.7519 119.181 18.3896L119.221 14.3312C119.225 13.9058 119.172 13.4816 119.062 13.0704C118.966 12.7097 118.804 12.3693 118.586 12.0656C118.364 11.7689 118.084 11.5207 117.761 11.3367C117.387 11.1258 116.981 10.973 116.56 10.8836C116.045 10.7733 115.518 10.7205 114.991 10.726C114.573 10.7258 114.155 10.7521 113.74 10.8048C113.348 10.8537 112.96 10.9294 112.578 11.0314C112.224 11.1266 111.876 11.2417 111.535 11.3761L111.297 13.0507C111.628 12.9325 111.943 12.834 112.241 12.7552C112.539 12.6764 112.827 12.6107 113.104 12.5582C113.377 12.5065 113.652 12.4704 113.929 12.4498C114.2 12.4301 114.468 12.4203 114.733 12.4203C115.138 12.4118 115.542 12.4582 115.934 12.5582C116.22 12.6292 116.484 12.7717 116.699 12.9719C116.89 13.1668 117.027 13.4078 117.096 13.6713C117.181 13.9961 117.221 14.3307 117.215 14.6662L117.213 15.1607L114.892 15.3163C114.098 15.3385 113.316 15.5124 112.588 15.8285C112.044 16.0649 111.574 16.4426 111.227 16.9219C110.934 17.3485 110.778 17.8535 110.781 18.3699C110.777 18.8546 110.897 19.3323 111.129 19.7589C111.371 20.1972 111.737 20.5564 112.181 20.7932C112.723 21.0727 113.328 21.2084 113.939 21.1872C114.51 21.2002 115.079 21.1067 115.616 20.9114C116.081 20.7311 116.506 20.4635 116.868 20.1233C117.005 19.9926 117.135 19.8548 117.258 19.7106C117.297 19.9146 117.37 20.1107 117.473 20.2908C117.65 20.5924 117.922 20.8279 118.248 20.9606C118.607 21.1039 118.992 21.1742 119.38 21.1675C119.499 21.1675 119.615 21.1642 119.727 21.1576C119.838 21.1514 119.947 21.1349 120.055 21.1084C120.161 21.0821 120.257 21.0591 120.343 21.0394C120.421 21.0222 120.497 20.9991 120.571 20.9704L120.79 19.6505C120.68 19.6878 120.567 19.7142 120.452 19.7293C120.36 19.7415 120.267 19.748 120.174 19.749ZM116.868 18.8625C116.652 19.0312 116.419 19.1765 116.173 19.2959C115.927 19.4144 115.667 19.5005 115.398 19.552C115.12 19.6053 114.837 19.6317 114.554 19.6308C114.23 19.64 113.909 19.5795 113.611 19.4535C113.368 19.3491 113.164 19.1739 113.025 18.9511C112.887 18.7149 112.819 18.4456 112.826 18.1729C112.807 17.8445 112.898 17.5189 113.084 17.247C113.301 16.9968 113.593 16.8238 113.918 16.7545C114.425 16.636 114.946 16.583 115.467 16.5969H117.206L117.197 18.5525C117.096 18.6648 116.986 18.7685 116.868 18.8625Z" fill="#85E6D6"/>
<path d="M128.951 16.459C128.748 16.2453 128.514 16.0628 128.256 15.9172C127.99 15.7658 127.71 15.6373 127.422 15.533C127.21 15.4674 127.002 15.3984 126.797 15.3262C126.591 15.2539 126.386 15.1883 126.181 15.1292C125.975 15.0701 125.777 15.0077 125.585 14.942C125.405 14.8814 125.229 14.809 125.059 14.7253C124.895 14.6394 124.739 14.5405 124.592 14.4298C124.456 14.3281 124.341 14.2009 124.255 14.0555C124.167 13.9061 124.122 13.7358 124.125 13.5629C124.12 13.373 124.168 13.1854 124.264 13.0212C124.368 12.8599 124.512 12.7276 124.682 12.637C124.889 12.5239 125.114 12.4441 125.347 12.4006C125.638 12.3452 125.934 12.3188 126.231 12.3218C126.376 12.3218 126.535 12.3287 126.707 12.3415C126.88 12.3543 127.068 12.3779 127.273 12.4104C127.479 12.4429 127.683 12.4863 127.888 12.5385C128.094 12.5907 128.302 12.6502 128.514 12.7158C128.711 12.7758 128.903 12.8482 129.09 12.9325L129.229 11.3367C128.977 11.2321 128.729 11.1402 128.484 11.0609C128.24 10.9825 127.991 10.9167 127.74 10.8639C127.494 10.8125 127.245 10.7763 126.995 10.7556C126.75 10.7359 126.508 10.726 126.27 10.726C125.722 10.7204 125.175 10.7833 124.642 10.9132C124.186 11.0233 123.753 11.2098 123.361 11.4648C123.006 11.6981 122.715 12.0165 122.517 12.3907C122.309 12.8031 122.207 13.2598 122.219 13.7205C122.213 14.0524 122.267 14.3827 122.378 14.6957C122.472 14.9585 122.614 15.2021 122.795 15.4148C122.972 15.6159 123.176 15.7916 123.401 15.9369C123.635 16.0898 123.885 16.2186 124.146 16.3211C124.291 16.3741 124.443 16.4266 124.602 16.4787C124.761 16.5316 124.917 16.5808 125.069 16.6264C125.222 16.6721 125.37 16.7184 125.516 16.7643C125.661 16.8103 125.804 16.8563 125.943 16.9023C126.081 16.9482 126.218 16.9909 126.35 17.0303C126.528 17.0927 126.7 17.1685 126.866 17.2569C127.012 17.3334 127.148 17.4259 127.273 17.5327C127.383 17.6279 127.471 17.7455 127.531 17.8775C127.592 18.0139 127.623 18.1617 127.621 18.3109C127.628 18.4566 127.602 18.602 127.546 18.7366C127.489 18.8713 127.403 18.9916 127.293 19.089C127.047 19.2928 126.754 19.4317 126.439 19.4929C126.071 19.5736 125.695 19.6133 125.317 19.6111C125.082 19.6097 124.846 19.5932 124.612 19.5619C124.354 19.5295 124.083 19.4835 123.798 19.424C123.514 19.3644 123.222 19.2922 122.924 19.2072C122.626 19.1223 122.325 19.0271 122.021 18.9216L122.1 20.5962C122.444 20.7144 122.758 20.8096 123.044 20.8819C123.329 20.9541 123.6 21.0165 123.858 21.069C124.106 21.1203 124.359 21.1533 124.612 21.1675C124.857 21.1806 125.105 21.1872 125.357 21.1872C125.911 21.19 126.463 21.1338 127.005 21.0197C127.482 20.9237 127.939 20.7471 128.355 20.4977C128.731 20.2702 129.042 19.9515 129.259 19.5717C129.487 19.1549 129.6 18.6861 129.587 18.2124C129.595 17.8667 129.538 17.5225 129.418 17.1978C129.311 16.9243 129.153 16.6735 128.951 16.459Z" fill="#85E6D6"/>
<path d="M137.241 19.4043L136.904 19.4633C136.795 19.4825 136.686 19.4957 136.576 19.5027C136.47 19.5096 136.37 19.5126 136.278 19.5126C135.974 19.5209 135.671 19.4602 135.394 19.3353C135.156 19.2234 134.958 19.041 134.828 18.8132C134.689 18.5563 134.62 18.2675 134.63 17.9759V12.5188H137.43L137.648 10.9427H134.63V7.82998L132.604 8.53918V10.9427H131.075L130.856 12.5188H132.604V18.3896C132.595 18.7812 132.656 19.1713 132.783 19.5421C132.885 19.8355 133.044 20.1065 133.25 20.34C133.439 20.5482 133.668 20.7158 133.925 20.8326C134.187 20.9522 134.464 21.0383 134.749 21.0887C135.03 21.1403 135.316 21.1667 135.603 21.1675C135.814 21.1675 136.023 21.1609 136.229 21.1478C136.434 21.1346 136.622 21.115 136.794 21.0887C136.966 21.0624 137.128 21.0329 137.281 21C137.433 20.9672 137.562 20.938 137.668 20.9114L137.787 19.2762C137.71 19.3058 137.63 19.3288 137.549 19.3451C137.457 19.3648 137.354 19.3846 137.241 19.4043Z" fill="#85E6D6"/>
<path d="M139.893 20.9902H141.919V10.7457L139.893 11.0412V20.9902Z" fill="#85E6D6"/>
<path d="M141.631 6.61835C141.425 6.49341 141.188 6.42857 140.946 6.43121C140.702 6.42936 140.461 6.49407 140.251 6.61835C140.044 6.73866 139.87 6.90785 139.745 7.11087C139.619 7.31529 139.554 7.55089 139.556 7.79057C139.554 8.03327 139.62 8.27182 139.745 8.4801C139.866 8.68622 140.041 8.85631 140.251 8.97262C140.463 9.09087 140.703 9.15197 140.946 9.1499C141.186 9.15274 141.423 9.09153 141.631 8.97262C141.836 8.85535 142.004 8.68508 142.118 8.4801C142.237 8.26964 142.299 8.03194 142.297 7.79057C142.299 7.55224 142.238 7.31752 142.118 7.11087C142 6.90888 141.832 6.73954 141.631 6.61835Z" fill="#85E6D6"/>
<path d="M152.802 11.1397C152.212 10.8442 151.556 10.7018 150.895 10.726C150.319 10.7271 149.746 10.8168 149.197 10.992C148.632 11.1708 148.094 11.426 147.599 11.7504C147.407 11.8755 147.223 12.0131 147.042 12.1546V10.7457L145.017 11.0412V20.9902H147.042V13.5081C147.238 13.394 147.441 13.2906 147.648 13.1985C147.927 13.0759 148.212 12.9674 148.502 12.8734C148.781 12.7831 149.067 12.7139 149.356 12.6665C149.629 12.6217 149.904 12.5986 150.18 12.5976C150.504 12.5901 150.827 12.6402 151.134 12.7453C151.386 12.8356 151.612 12.9881 151.789 13.1886C151.971 13.4058 152.1 13.6621 152.166 13.9372C152.251 14.2855 152.291 14.6429 152.285 15.0011V20.9902H154.311V14.5874C154.337 13.8405 154.209 13.0962 153.934 12.4006C153.709 11.8664 153.311 11.4225 152.802 11.1397Z" fill="#85E6D6"/>
<path d="M163.674 10.9821C163.371 10.8997 163.062 10.8371 162.751 10.7949C162.395 10.7475 162.037 10.7245 161.678 10.726C161.03 10.7233 160.389 10.8507 159.792 11.1003C159.194 11.3516 158.65 11.7164 158.193 12.174C157.706 12.6676 157.33 13.2586 157.091 13.9077C156.814 14.6684 156.679 15.4729 156.694 16.2817C156.672 17.1713 156.844 18.0552 157.2 18.8723C157.511 19.5713 158.027 20.1614 158.68 20.5666C159.394 20.9847 160.213 21.1931 161.043 21.1675C161.771 21.1649 162.492 21.0245 163.167 20.7538C163.571 20.5908 163.951 20.3764 164.299 20.1161V20.6552C164.307 21.0991 164.244 21.5414 164.111 21.9653C163.996 22.321 163.799 22.6449 163.535 22.911C163.251 23.1821 162.902 23.3785 162.522 23.4823C162.027 23.6171 161.516 23.6802 161.003 23.6695C160.595 23.6689 160.187 23.6458 159.782 23.6005C159.356 23.553 158.934 23.4739 158.52 23.3641C158.094 23.2516 157.676 23.11 157.269 22.9405L157.488 24.6742C157.853 24.8213 158.228 24.943 158.61 25.0387C159.012 25.1394 159.42 25.2151 159.831 25.2653C160.266 25.3183 160.704 25.3446 161.142 25.3441C162.119 25.3744 163.091 25.1824 163.982 24.7826C164.705 24.4484 165.31 23.9061 165.719 23.2262C166.119 22.5274 166.322 21.7345 166.305 20.931V10.726L164.363 11.2221C164.139 11.1279 163.909 11.0478 163.674 10.9821ZM164.042 18.8723C163.796 19.0143 163.54 19.1394 163.277 19.2466C163.045 19.3411 162.806 19.4169 162.562 19.4732C162.324 19.5265 162.081 19.553 161.837 19.552C161.241 19.5734 160.649 19.441 160.119 19.1678C159.658 18.9066 159.301 18.4964 159.107 18.0055C158.867 17.3665 158.756 16.6872 158.779 16.0058C158.77 15.4621 158.847 14.9203 159.007 14.4002C159.137 13.9728 159.361 13.5793 159.663 13.2477C159.957 12.9397 160.316 12.7008 160.715 12.5483C161.169 12.3779 161.65 12.2943 162.135 12.3021C162.448 12.3018 162.76 12.3282 163.068 12.3809C163.384 12.4363 163.696 12.512 164.002 12.6074C164.099 12.6376 164.201 12.6777 164.3 12.7145V18.7216C164.213 18.7725 164.123 18.8257 164.042 18.8723Z" fill="#85E6D6"/>
<path d="M175.659 16.459C175.455 16.2452 175.221 16.0627 174.964 15.9172C174.697 15.7658 174.418 15.6373 174.129 15.533C173.918 15.4674 173.709 15.3984 173.504 15.3262C173.299 15.2539 173.093 15.1883 172.888 15.1292C172.683 15.0701 172.484 15.0077 172.292 14.942C172.112 14.8815 171.936 14.8091 171.766 14.7253C171.603 14.6395 171.447 14.5406 171.299 14.4298C171.163 14.3281 171.049 14.2009 170.962 14.0555C170.874 13.9061 170.829 13.7358 170.832 13.5629C170.827 13.373 170.875 13.1854 170.972 13.0212C171.075 12.86 171.219 12.7278 171.389 12.637C171.597 12.524 171.821 12.4442 172.054 12.4006C172.345 12.3452 172.641 12.3188 172.938 12.3218C173.083 12.3218 173.242 12.3287 173.414 12.3415C173.586 12.3543 173.775 12.3779 173.98 12.4104C174.186 12.4429 174.39 12.4863 174.596 12.5385C174.801 12.5907 175.01 12.6502 175.221 12.7158C175.418 12.7758 175.61 12.8482 175.797 12.9325L175.936 11.3367C175.685 11.2321 175.437 11.1402 175.192 11.0609C174.947 10.9825 174.698 10.9167 174.447 10.8639C174.201 10.8124 173.953 10.7762 173.702 10.7556C173.457 10.7359 173.215 10.726 172.977 10.726C172.429 10.7205 171.882 10.7833 171.349 10.9132C170.893 11.0232 170.46 11.2098 170.068 11.4648C169.713 11.6982 169.422 12.0166 169.224 12.3907C169.016 12.8031 168.914 13.2598 168.926 13.7205C168.92 14.0524 168.974 14.3827 169.085 14.6957C169.179 14.9585 169.32 15.2022 169.502 15.4148C169.678 15.6159 169.882 15.7916 170.108 15.9369C170.342 16.0898 170.592 16.2186 170.852 16.3211C170.998 16.3741 171.15 16.4266 171.309 16.4787C171.469 16.5308 171.624 16.58 171.776 16.6264C171.928 16.6726 172.077 16.7186 172.223 16.7643C172.368 16.8106 172.511 16.8563 172.65 16.9023C172.789 16.9482 172.924 16.9909 173.057 17.0303C173.234 17.0927 173.407 17.1685 173.573 17.2569C173.719 17.3335 173.855 17.426 173.98 17.5327C174.09 17.6279 174.178 17.7455 174.238 17.8775C174.299 18.0139 174.33 18.1617 174.328 18.3109C174.335 18.4566 174.309 18.602 174.252 18.7366C174.196 18.8713 174.11 18.9916 174 19.089C173.754 19.2928 173.46 19.4317 173.146 19.4929C172.778 19.5736 172.401 19.6132 172.024 19.6111C171.788 19.6097 171.553 19.5932 171.319 19.5619C171.061 19.5295 170.79 19.4835 170.505 19.424C170.22 19.3644 169.929 19.2922 169.631 19.2072C169.333 19.1223 169.032 19.0271 168.728 18.9216L168.807 20.5962C169.151 20.7144 169.465 20.8096 169.75 20.8819C170.035 20.9541 170.307 21.0165 170.565 21.069C170.813 21.1203 171.065 21.1533 171.319 21.1675C171.564 21.1806 171.812 21.1872 172.064 21.1872C172.618 21.19 173.17 21.1338 173.712 21.0197C174.189 20.9236 174.646 20.7471 175.063 20.4977C175.438 20.2701 175.749 19.9514 175.966 19.5717C176.193 19.1549 176.306 18.6861 176.293 18.2124C176.302 17.8667 176.244 17.5225 176.125 17.1977C176.018 16.9244 175.86 16.6737 175.659 16.459Z" fill="#85E6D6"/>
<path d="M185.916 11.3581C185.089 10.922 184.162 10.7048 183.225 10.7276C182.28 10.7063 181.345 10.9304 180.514 11.3777C179.747 11.8039 179.12 12.4399 178.707 13.2099C178.259 14.074 178.037 15.036 178.062 16.0074C178.036 16.9713 178.244 17.9272 178.667 18.7951C179.048 19.5528 179.654 20.1755 180.405 20.5781C181.213 20.9981 182.115 21.2082 183.026 21.1888C183.981 21.2076 184.924 20.9838 185.767 20.5387C186.554 20.1129 187.199 19.4695 187.624 18.6868C188.085 17.8126 188.314 16.8362 188.289 15.8498C188.312 14.9103 188.1 13.9798 187.673 13.141C187.278 12.3877 186.666 11.7674 185.916 11.3581ZM185.797 17.9579C185.574 18.4698 185.196 18.9002 184.715 19.1892C184.232 19.4634 183.683 19.603 183.126 19.593C182.58 19.6066 182.042 19.4629 181.577 19.1793C181.117 18.8759 180.757 18.444 180.544 17.9381C180.274 17.2893 180.146 16.591 180.167 15.8892C180.144 15.2065 180.272 14.5271 180.544 13.8995C180.767 13.4062 181.138 12.9933 181.607 12.7174C182.108 12.4438 182.673 12.3078 183.245 12.3234C183.691 12.3124 184.135 12.3963 184.546 12.5696C184.906 12.7307 185.22 12.9778 185.46 13.2888C185.716 13.6267 185.901 14.0118 186.005 14.4215C186.13 14.9009 186.19 15.3943 186.184 15.8892C186.207 16.5985 186.075 17.3043 185.796 17.9579H185.797Z" fill="#85E6D6"/>
<path d="M194.902 10.8737C194.53 10.9725 194.175 11.1252 193.849 11.3269C193.51 11.5368 193.197 11.7847 192.916 12.0656C192.869 12.1123 192.823 12.1642 192.777 12.2131V10.7457L190.751 11.0412V20.9902H192.777V13.5475C192.927 13.4432 193.083 13.3464 193.243 13.2575C193.442 13.149 193.648 13.0536 193.859 12.9719C194.064 12.8931 194.273 12.8241 194.484 12.765C194.702 12.7049 194.925 12.6621 195.15 12.637C195.391 12.6108 195.633 12.6042 195.875 12.6173L196.113 10.7654C195.706 10.7366 195.297 10.7731 194.902 10.8737Z" fill="#85E6D6"/>
<path d="M206.598 10.9427H204.116L200.718 14.6465H199.985V6.11597L197.96 6.41149V20.9902H199.985V16.1635H200.019L204.076 20.9902H206.697L201.88 15.6052L206.598 10.9427Z" fill="#85E6D6"/>
<path d="M216.071 12.2134C215.69 11.7233 215.187 11.3397 214.612 11.1003C213.972 10.8414 213.286 10.714 212.596 10.726C211.9 10.7143 211.21 10.8486 210.57 11.12C209.988 11.3727 209.47 11.7494 209.051 12.2233C208.62 12.7211 208.295 13.3009 208.097 13.9274C207.871 14.6444 207.761 15.3925 207.77 16.1438C207.742 17.0931 207.943 18.0353 208.356 18.892C208.733 19.6347 209.343 20.2361 210.094 20.606C210.974 21.0178 211.941 21.2169 212.914 21.1872C213.382 21.1912 213.85 21.1616 214.314 21.0985C214.701 21.0431 215.083 20.9542 215.456 20.8326C215.824 20.7097 216.183 20.5582 216.528 20.3795L216.667 18.8625C216.415 18.9549 216.16 19.0468 215.902 19.1383C215.644 19.2298 215.376 19.3119 215.098 19.3846C214.818 19.4574 214.532 19.51 214.244 19.5422C213.954 19.5751 213.662 19.5915 213.37 19.5914C212.849 19.5999 212.328 19.5437 211.821 19.424C211.412 19.3269 211.033 19.1306 210.719 18.8526C210.402 18.5529 210.169 18.1759 210.044 17.7592C209.914 17.3372 209.841 16.9 209.828 16.459H217.004C217.102 15.6442 217.065 14.819 216.895 14.0161C216.755 13.363 216.474 12.7479 216.071 12.2134ZM211.067 12.6862C211.533 12.4056 212.071 12.2653 212.616 12.2824C213.161 12.2553 213.7 12.4115 214.145 12.7256C214.54 13.0388 214.822 13.4709 214.949 13.9569C215.048 14.3163 215.097 14.6876 215.094 15.0602H209.871C209.908 14.6674 209.993 14.2804 210.123 13.9077C210.293 13.4083 210.625 12.9788 211.067 12.6862Z" fill="#85E6D6"/>
<path d="M225.762 16.459C225.558 16.2452 225.324 16.0627 225.067 15.9172C224.8 15.7658 224.521 15.6373 224.232 15.533C224.021 15.4674 223.812 15.3984 223.607 15.3262C223.402 15.2539 223.196 15.1883 222.991 15.1292C222.786 15.0701 222.587 15.0077 222.395 14.942C222.215 14.8814 222.04 14.809 221.869 14.7253C221.706 14.6394 221.55 14.5406 221.402 14.4298C221.266 14.328 221.152 14.2008 221.065 14.0555C220.977 13.9061 220.933 13.7358 220.936 13.5629C220.93 13.373 220.979 13.1854 221.075 13.0212C221.179 12.86 221.322 12.7277 221.492 12.637C221.7 12.5239 221.924 12.4441 222.157 12.4006C222.448 12.3452 222.744 12.3188 223.041 12.3218C223.186 12.3218 223.345 12.3287 223.518 12.3415C223.69 12.3543 223.878 12.3779 224.084 12.4104C224.289 12.4429 224.494 12.4863 224.699 12.5385C224.904 12.5907 225.113 12.6502 225.325 12.7158C225.521 12.7758 225.713 12.8482 225.9 12.9325L226.04 11.3367C225.788 11.2321 225.54 11.1402 225.295 11.0609C225.05 10.9825 224.802 10.9167 224.55 10.8639C224.305 10.8125 224.056 10.7762 223.806 10.7556C223.56 10.7359 223.319 10.726 223.081 10.726C222.532 10.7205 221.985 10.7833 221.452 10.9132C220.997 11.0232 220.563 11.2098 220.171 11.4648C219.816 11.6982 219.526 12.0166 219.327 12.3907C219.12 12.8031 219.017 13.2598 219.029 13.7205C219.023 14.0524 219.077 14.3827 219.188 14.6957C219.282 14.9585 219.424 15.2022 219.605 15.4148C219.782 15.6159 219.986 15.7916 220.211 15.9369C220.445 16.0898 220.695 16.2185 220.956 16.3211C221.101 16.3741 221.253 16.4266 221.413 16.4787C221.572 16.5308 221.727 16.58 221.879 16.6264C222.031 16.6726 222.18 16.7186 222.326 16.7643C222.471 16.8106 222.614 16.8563 222.753 16.9023C222.892 16.9482 223.028 16.9909 223.16 17.0303C223.338 17.0927 223.51 17.1685 223.676 17.2569C223.822 17.3335 223.959 17.426 224.084 17.5327C224.193 17.6279 224.281 17.7455 224.341 17.8775C224.402 18.0139 224.433 18.1617 224.431 18.3109C224.438 18.4566 224.412 18.602 224.356 18.7366C224.299 18.8713 224.213 18.9916 224.103 19.089C223.857 19.2927 223.564 19.4316 223.249 19.4929C222.881 19.5736 222.505 19.6132 222.127 19.6111C221.892 19.6097 221.656 19.5932 221.422 19.5619C221.164 19.5295 220.893 19.4835 220.608 19.424C220.324 19.3644 220.032 19.2922 219.734 19.2072C219.437 19.1223 219.136 19.0271 218.831 18.9216L218.91 20.5962C219.254 20.7144 219.569 20.8096 219.854 20.8819C220.138 20.9541 220.41 21.0165 220.668 21.069C220.917 21.1203 221.169 21.1533 221.422 21.1675C221.667 21.1806 221.915 21.1872 222.167 21.1872C222.721 21.19 223.274 21.1338 223.815 21.0197C224.292 20.9236 224.749 20.747 225.166 20.4977C225.541 20.2701 225.852 19.9514 226.069 19.5717C226.297 19.1549 226.41 18.6861 226.397 18.2124C226.405 17.8667 226.348 17.5225 226.228 17.1977C226.121 16.9243 225.963 16.6736 225.762 16.459Z" fill="#85E6D6"/>
<path d="M234.053 19.4043L233.716 19.4633C233.607 19.4825 233.498 19.4957 233.388 19.5027C233.282 19.5096 233.182 19.5126 233.09 19.5126C232.786 19.5209 232.483 19.4602 232.206 19.3353C231.968 19.2233 231.77 19.041 231.64 18.8132C231.501 18.5563 231.433 18.2675 231.442 17.9759V12.5188H234.242L234.46 10.9427H231.442V7.82998L229.416 8.53918V10.9427H227.887L227.668 12.5188H229.416V18.3896C229.407 18.7812 229.467 19.1713 229.594 19.5421C229.697 19.8355 229.855 20.1064 230.061 20.34C230.25 20.5482 230.48 20.7158 230.737 20.8326C230.999 20.9522 231.276 21.0383 231.56 21.0887C231.842 21.1403 232.128 21.1667 232.414 21.1675C232.626 21.1675 232.835 21.1609 233.04 21.1478C233.246 21.1346 233.434 21.115 233.606 21.0887C233.778 21.0621 233.94 21.0329 234.092 21C234.245 20.9672 234.374 20.938 234.48 20.9114L234.599 19.2762C234.522 19.3057 234.442 19.3288 234.361 19.3451C234.268 19.3648 234.166 19.3846 234.053 19.4043Z" fill="#85E6D6"/>
<path d="M240.854 10.8737C240.483 10.9725 240.128 11.1252 239.802 11.3269C239.463 11.5368 239.15 11.7847 238.868 12.0656C238.821 12.1123 238.776 12.1642 238.729 12.2131V10.7457L236.704 11.0412V20.9902H238.729V13.5475C238.88 13.4431 239.036 13.3463 239.196 13.2575C239.395 13.149 239.601 13.0536 239.812 12.9719C240.017 12.8931 240.225 12.8241 240.437 12.765C240.655 12.7049 240.878 12.6621 241.103 12.637C241.343 12.6108 241.586 12.6042 241.827 12.6173L242.066 10.7654C241.659 10.7366 241.25 10.7731 240.854 10.8737Z" fill="#85E6D6"/>
<path d="M251.598 12.2134C251.217 11.7233 250.714 11.3397 250.138 11.1003C249.499 10.8414 248.813 10.714 248.123 10.726C247.427 10.7143 246.737 10.8486 246.097 11.12C245.515 11.3727 244.997 11.7494 244.578 12.2233C244.147 12.7211 243.822 13.301 243.624 13.9274C243.398 14.6444 243.288 15.3925 243.297 16.1438C243.269 17.093 243.47 18.0352 243.882 18.892C244.26 19.6346 244.869 20.2359 245.62 20.606C246.501 21.0177 247.467 21.2169 248.44 21.1872C248.909 21.1912 249.376 21.1616 249.84 21.0985C250.228 21.0432 250.61 20.9542 250.982 20.8326C251.351 20.7097 251.71 20.5582 252.055 20.3795L252.194 18.8625C251.942 18.9549 251.687 19.0468 251.429 19.1383C251.171 19.2298 250.903 19.3119 250.625 19.3846C250.344 19.4574 250.059 19.5101 249.771 19.5422C249.481 19.5751 249.189 19.5916 248.897 19.5914C248.376 19.5999 247.855 19.5437 247.348 19.424C246.939 19.327 246.56 19.1307 246.246 18.8526C245.929 18.5529 245.696 18.1759 245.571 17.7592C245.441 17.3372 245.368 16.9 245.354 16.459H252.531C252.629 15.6442 252.592 14.819 252.422 14.0161C252.282 13.363 252.001 12.7479 251.598 12.2134ZM246.594 12.6862C247.06 12.4056 247.598 12.2653 248.143 12.2824C248.688 12.2554 249.227 12.4115 249.672 12.7256C250.067 13.0389 250.349 13.471 250.476 13.9569C250.575 14.3164 250.624 14.6876 250.621 15.0602H245.398C245.435 14.6673 245.519 14.2804 245.65 13.9077C245.82 13.4082 246.152 12.9787 246.594 12.6862Z" fill="#85E6D6"/>
<path d="M260.574 19.3451C260.481 19.3648 260.378 19.3846 260.266 19.4043L259.929 19.4633C259.82 19.4825 259.711 19.4957 259.601 19.5027C259.495 19.5096 259.396 19.5126 259.303 19.5126C258.999 19.5208 258.697 19.4602 258.42 19.3353C258.181 19.2233 257.983 19.041 257.854 18.8132C257.714 18.5563 257.646 18.2675 257.655 17.9759V12.5188H260.455L260.673 10.9427H257.655V7.82998L255.629 8.53918V10.9427H254.1L253.881 12.5188H255.629V18.3896C255.62 18.7812 255.681 19.1714 255.808 19.5421C255.91 19.8355 256.069 20.1065 256.275 20.34C256.464 20.5481 256.693 20.7157 256.95 20.8326C257.213 20.9522 257.489 21.0383 257.774 21.0887C258.055 21.1403 258.341 21.1667 258.628 21.1675C258.84 21.1675 259.048 21.1609 259.254 21.1478C259.459 21.1346 259.648 21.115 259.82 21.0887C259.991 21.0621 260.154 21.0329 260.306 21C260.458 20.9672 260.587 20.938 260.693 20.9114L260.813 19.2762C260.735 19.3058 260.656 19.3288 260.574 19.3451Z" fill="#85E6D6"/>
</svg>
