<svg xmlns="http://www.w3.org/2000/svg" viewBox="0 0 36 36"><path fill="#fff" d="M3.462 3.462h29.077v29.077H3.462z"/><path fill="#000" fill-rule="evenodd" d="M0 0h36v36H0V0Zm12.581 16.6a1.986 1.986 0 0 1 1.083-.33h2.38v12.007h-3.3v-8.141l-2.827 2.128-2.828-2.128v4.25l-3.281 2.466V16.269h2.36c.386.003.762.117 1.083.33.273.17 2.496 2.056 2.665 2.2.17-.145 2.393-2.032 2.665-2.2Zm3.941-.33h3.707l.223.362v.002c1.536 2.506 1.548 2.525 1.8 2.952a.887.887 0 0 1 .01 1.075c-.245.406-2.033 3.33-2.033 3.33h-3.707l2.144-3.515a.582.582 0 0 0-.014-.707c-.024-.042-2.13-3.5-2.13-3.5Zm15.317 1.99c-.124-.213-1.228-1.99-1.228-1.99h-7.934l1.733 2.905h4.179l-1.725 2.827 1.923 3.228-1.854 3.05h3.387c.378-.618.886-1.472 1.218-2.03l.31-.52a.89.89 0 0 0-.01-1.078c-.086-.147-.361-.59-.683-1.106a246.39 246.39 0 0 1-.935-1.508l1.629-2.7a.89.89 0 0 0-.01-1.079Zm-7.632 4.178c-.522.853-1.396 2.282-1.56 2.56a.857.857 0 0 0-.009 1.04c.164.271 1.044 1.712 1.569 2.57l1.568-2.57a.856.856 0 0 0-.01-1.04 307.881 307.881 0 0 0-1.558-2.56Zm-15.9-14.66v6.782h2.227V7.777H8.308Zm6.535 6.782-1.28-5.703a1.342 1.342 0 0 0-.463-.769 1.287 1.287 0 0 0-.855-.31h-1.366l1.528 6.782h2.436Zm.335-6.783v6.783h2.226V7.777h-2.226Zm3.224 2.398c.207.121.443.184.683.182.239.003.473-.06.679-.182A1.357 1.357 0 0 0 20.43 9a1.303 1.303 0 0 0-.181-.678 1.374 1.374 0 0 0-.487-.487 1.306 1.306 0 0 0-.679-.182 1.363 1.363 0 0 0-1.175.669c-.121.205-.184.44-.181.678a1.345 1.345 0 0 0 .674 1.175Zm2.374-2.398v6.783h2.227V7.777h-2.227Zm5.188 3.941a5.195 5.195 0 0 0-.143-.234.58.58 0 0 1-.115-.315.61.61 0 0 1 .096-.306l1.891-3.086h-2.445a303.53 303.53 0 0 0-.812 1.333 103.334 103.334 0 0 1-.985 1.6.928.928 0 0 0-.152.459c.012.17.067.335.162.477.038.058.107.17.205.335.099.165.217.358.354.578.137.22.276.446.416.678.14.232.272.449.396.65l.416.673h2.445l-.477-.788a198.775 198.775 0 0 0-.903-1.48 52.79 52.79 0 0 1-.349-.574Z" clip-rule="evenodd"/></svg>