<svg xmlns="http://www.w3.org/2000/svg" viewBox="0 0 142 23"><path fill="#fff" d="M0 18.333V4.335h4.593v13.998H0Zm10.843-11.77 2.641 11.77H8.457L5.303 4.335h2.82a2.655 2.655 0 0 1 1.764.64c.491.404.829.964.956 1.588Zm3.331 11.77V4.335h4.594v13.998h-4.594Zm8.063-8.675a2.738 2.738 0 0 1-1.409-.375 2.778 2.778 0 0 1-1.015-1.015 2.735 2.735 0 0 1-.375-1.41 2.685 2.685 0 0 1 .375-1.4 2.812 2.812 0 0 1 3.824-1.005c.415.244.761.59 1.005 1.005.251.424.38.908.375 1.4.005.496-.125.983-.375 1.41a2.8 2.8 0 0 1-1.005 1.015c-.424.251-.908.38-1.4.375Zm3.49 8.675V4.335h4.594v13.998h-4.594Zm10.409-6.348c.013.013.111.174.296.483.184.308.424.703.72 1.183a384.573 384.573 0 0 1 1.862 3.056c.289.48.617 1.022.986 1.626h-5.047l-.858-1.39c-.256-.414-.529-.86-.817-1.34-.29-.48-.576-.946-.858-1.4a71.148 71.148 0 0 1-.73-1.193 21.119 21.119 0 0 0-.424-.69 2.04 2.04 0 0 1-.334-.986c.019-.338.128-.665.315-.947.078-.131.223-.364.433-.7a216.7 216.7 0 0 0 1.598-2.603l.817-1.35.858-1.4H40l-3.904 6.369c-.12.189-.189.407-.197.631.013.235.095.462.236.65h.001Z"/><path fill="#9FDAF5" d="M54.002 11.837a3.77 3.77 0 0 0-.995-.727 7.815 7.815 0 0 0-1.205-.488 13.631 13.631 0 0 0-1.313-.339c-.346-.08-.668-.159-.966-.238a4.438 4.438 0 0 1-.796-.29 2.633 2.633 0 0 1-.607-.398 1.427 1.427 0 0 1-.388-.557 2.142 2.142 0 0 1-.13-.787c-.004-.277.04-.554.13-.816.081-.232.218-.44.398-.608.186-.17.398-.311.627-.418.262-.12.54-.2.826-.239a7.02 7.02 0 0 1 1.025-.07 9.12 9.12 0 0 1 1.871.2c.3.065.596.148.886.249.271.093.534.21.786.348l.279-1.752a4.947 4.947 0 0 0-.886-.358 11.684 11.684 0 0 0-.945-.24 9.428 9.428 0 0 0-.976-.149c-.331-.033-.67-.05-1.015-.05a8.45 8.45 0 0 0-2.09.24c-.583.14-1.133.39-1.622.736A3.33 3.33 0 0 0 45.84 6.34a4.059 4.059 0 0 0-.368 1.793 3.87 3.87 0 0 0 .228 1.403c.143.377.364.72.648 1.006.28.28.602.516.955.697.374.193.763.353 1.164.479.418.132.846.245 1.284.338.359.08.69.163.995.249.284.078.56.181.827.309.228.107.439.248.626.418.178.167.317.37.408.597.106.273.157.564.15.857.005.31-.042.62-.14.915a2.132 2.132 0 0 1-.398.698 1.922 1.922 0 0 1-.637.477 3.232 3.232 0 0 1-.865.259 6.912 6.912 0 0 1-1.105.08c-.36-.001-.718-.025-1.075-.07-.372-.046-.743-.11-1.115-.19-.37-.079-.733-.175-1.085-.288a20.843 20.843 0 0 1-1.005-.349l.259 1.972c.34.127.685.236 1.035.328.318.084.64.15.965.2.312.046.624.082.936.109.312.026.628.04.946.04a9.777 9.777 0 0 0 2.12-.22 5.072 5.072 0 0 0 1.731-.716c.492-.326.89-.776 1.154-1.305.291-.625.431-1.311.409-2a4.488 4.488 0 0 0-.23-1.515 2.932 2.932 0 0 0-.656-1.074ZM65.915 17.193a.907.907 0 0 1-.777-.319 1.712 1.712 0 0 1-.219-1.055l.04-4.102c.005-.43-.049-.859-.159-1.274a3.124 3.124 0 0 0-.478-1.016 2.691 2.691 0 0 0-.826-.737 4.227 4.227 0 0 0-1.204-.458 7.079 7.079 0 0 0-1.572-.16c-.42 0-.838.027-1.254.08-.393.05-.782.126-1.165.23a9.682 9.682 0 0 0-1.045.348l-.239 1.693a11.698 11.698 0 0 1 1.812-.498c.273-.052.548-.089.826-.11.271-.02.54-.03.806-.03.406-.008.81.039 1.204.14.287.071.55.215.766.418.192.197.33.44.399.707.084.328.125.667.119 1.006l-.002.498-2.327.157a6.183 6.183 0 0 0-2.309.518 3.31 3.31 0 0 0-1.363 1.105c-.294.431-.45.941-.448 1.463-.004.49.116.973.348 1.404.244.443.61.806 1.055 1.046.543.282 1.15.42 1.762.398a4.579 4.579 0 0 0 1.682-.279 3.873 3.873 0 0 0 1.254-.796 5.47 5.47 0 0 0 .391-.417c.039.206.112.404.216.586.177.305.45.543.776.677.36.145.746.216 1.134.21.12 0 .236-.004.349-.01.11-.007.22-.024.328-.05.106-.027.202-.05.289-.07.078-.018.154-.041.229-.07l.219-1.334c-.11.038-.224.065-.339.08a2.26 2.26 0 0 1-.278.02m-3.314-.897c-.216.171-.45.318-.697.438-.246.12-.507.207-.776.26a4.41 4.41 0 0 1-.846.079 2.245 2.245 0 0 1-.946-.18 1.3 1.3 0 0 1-.587-.507 1.492 1.492 0 0 1-.199-.787 1.51 1.51 0 0 1 .259-.936 1.52 1.52 0 0 1 .836-.497 6.074 6.074 0 0 1 1.553-.16h1.742l-.009 1.977a2.644 2.644 0 0 1-.331.313M63.864 3.333h-2.15l-1.691 3.565h1.552l2.29-3.564ZM82.176 8.491a3.464 3.464 0 0 0-1.772-.418 4.66 4.66 0 0 0-1.572.269 5.54 5.54 0 0 0-1.433.766 7.132 7.132 0 0 0-.707.598 2.496 2.496 0 0 0-1.025-1.195 3.507 3.507 0 0 0-1.791-.418c-.533 0-1.06.09-1.563.269a5.655 5.655 0 0 0-1.861 1.088V8.093l-2.03.298v10.057h2.03v-7.575a6.44 6.44 0 0 1 .746-.42c.316-.15.646-.266.986-.349.312-.077.633-.117.955-.12.296-.008.59.042.866.15.228.096.43.247.587.438.173.222.292.48.348.757.078.356.115.72.11 1.085v6.034h2.03v-6.452a8.077 8.077 0 0 0-.076-1.139c.23-.151.468-.29.713-.414.31-.157.638-.277.975-.359.32-.078.647-.118.976-.12.292-.006.583.044.856.15.232.095.437.245.597.438.173.222.292.48.349.757.077.356.114.72.109 1.085v6.054h2.03v-6.472a5.787 5.787 0 0 0-.358-2.21 2.566 2.566 0 0 0-1.075-1.275ZM86.615 18.448h2.03V8.093l-2.03.299v10.056ZM88.356 3.92a1.288 1.288 0 0 0-.686-.188 1.34 1.34 0 0 0-.697.189 1.458 1.458 0 0 0-.507.498 1.288 1.288 0 0 0-.19.687A1.37 1.37 0 0 0 87.67 6.48c.24.003.477-.06.686-.18.205-.118.374-.29.488-.497a1.4 1.4 0 0 0 .18-.697c.002-.241-.06-.478-.18-.687a1.408 1.408 0 0 0-.488-.498ZM100.607 8.222c-.372.1-.728.254-1.055.458-.34.212-.653.463-.935.747-.047.047-.093.1-.14.149V8.093l-2.03.298v10.057h2.03v-7.524a5.164 5.164 0 0 1 1.085-.582c.206-.079.415-.148.627-.208a4.294 4.294 0 0 1 1.393-.15l.239-1.871a3.784 3.784 0 0 0-1.214.11ZM112.033 17.193a.911.911 0 0 1-.777-.319 1.72 1.72 0 0 1-.219-1.055l.04-4.102a4.766 4.766 0 0 0-.159-1.274 3.137 3.137 0 0 0-.478-1.016 2.68 2.68 0 0 0-.826-.737 4.222 4.222 0 0 0-1.204-.458 7.08 7.08 0 0 0-1.572-.16c-.42 0-.839.027-1.254.08-.393.05-.782.126-1.165.23a9.778 9.778 0 0 0-1.045.348l-.239 1.693a11.702 11.702 0 0 1 1.812-.498c.273-.052.548-.089.826-.11.271-.02.54-.03.806-.03.406-.008.811.039 1.204.14.287.071.551.215.766.418.192.197.33.44.398.707.085.328.126.667.12 1.006l-.002.498-2.327.157a6.182 6.182 0 0 0-2.309.518 3.308 3.308 0 0 0-1.363 1.105 2.565 2.565 0 0 0-.448 1.463c-.004.49.116.973.348 1.404.244.443.61.806 1.055 1.046.543.282 1.15.42 1.762.398a4.582 4.582 0 0 0 1.682-.279 3.88 3.88 0 0 0 1.254-.796c.137-.132.268-.272.391-.417.039.206.112.404.216.586.177.305.45.543.776.677.36.145.746.216 1.134.21.12 0 .236-.004.349-.01.111-.007.221-.024.328-.05.106-.027.202-.05.289-.07.078-.018.154-.041.229-.07l.219-1.334c-.11.038-.224.065-.339.08a2.245 2.245 0 0 1-.278.02m-3.314-.897c-.216.171-.45.318-.697.438-.246.12-.507.207-.776.26-.279.053-.562.08-.846.079a2.247 2.247 0 0 1-.946-.18 1.295 1.295 0 0 1-.587-.507 1.487 1.487 0 0 1-.199-.787 1.511 1.511 0 0 1 .259-.936c.216-.253.51-.428.836-.497a6.068 6.068 0 0 1 1.553-.16h1.742l-.009 1.977a2.645 2.645 0 0 1-.331.313M121.449 8.556l-.06-.025a6.874 6.874 0 0 0-2.528-.458 4.86 4.86 0 0 0-4.319 2.559 6.13 6.13 0 0 0-.697 3.036 6.143 6.143 0 0 0 .528 2.65c.323.71.849 1.31 1.513 1.721.713.42 1.531.631 2.358.608a5.53 5.53 0 0 0 1.503-.2c.488-.14.953-.348 1.383-.617.149-.092.299-.195.447-.303l.25.92h1.652V3.434l-2.03.279v4.844Zm-1.065 8.19a4.18 4.18 0 0 1-1.424.288 3.231 3.231 0 0 1-1.632-.389 2.492 2.492 0 0 1-1.035-1.194 4.992 4.992 0 0 1-.358-2.021 4.742 4.742 0 0 1 .398-2.062 2.808 2.808 0 0 1 1.145-1.254 3.52 3.52 0 0 1 1.781-.429 6.017 6.017 0 0 1 1.881.29c.097.03.204.072.309.11v6.137a6.598 6.598 0 0 1-1.065.523ZM128.324 3.92a1.286 1.286 0 0 0-.686-.188 1.342 1.342 0 0 0-.697.189 1.458 1.458 0 0 0-.507.498 1.367 1.367 0 0 0 .507 1.882c.213.12.453.18.697.179a1.34 1.34 0 0 0 .686-.18c.205-.118.374-.29.488-.497.12-.213.181-.453.179-.697a1.346 1.346 0 0 0-.179-.687 1.403 1.403 0 0 0-.488-.498ZM126.583 18.448h2.03V8.093l-2.03.299v10.056ZM140.715 10.512a4.353 4.353 0 0 0-1.762-1.802 5.987 5.987 0 0 0-5.414.02 4.587 4.587 0 0 0-1.811 1.852 5.848 5.848 0 0 0-.647 2.828c-.025.974.183 1.94.607 2.817a4.152 4.152 0 0 0 1.741 1.802c.81.425 1.714.637 2.628.618a5.604 5.604 0 0 0 2.747-.657 4.634 4.634 0 0 0 1.861-1.872c.462-.884.691-1.87.667-2.868a5.79 5.79 0 0 0-.617-2.738Zm-1.881 4.869a2.715 2.715 0 0 1-1.085 1.244 3.09 3.09 0 0 1-1.592.409 2.832 2.832 0 0 1-1.553-.418 2.81 2.81 0 0 1-1.035-1.255 5.032 5.032 0 0 1-.377-2.07 4.691 4.691 0 0 1 .379-2.012 2.648 2.648 0 0 1 1.064-1.195 3.224 3.224 0 0 1 1.643-.398c.447-.011.892.074 1.304.249.36.163.675.412.915.726.257.342.443.731.548 1.146.124.484.184.983.179 1.483.023.717-.11 1.43-.389 2.091"/></svg>