<svg xmlns="http://www.w3.org/2000/svg" viewBox="0 0 112 36"><path fill="#0A2343" d="M0 15.003V1.005h4.593v13.998H0Zm10.843-11.77 2.641 11.77H8.457L5.303 1.005h2.82a2.655 2.655 0 0 1 1.764.64c.491.404.829.965.956 1.588Zm3.331 11.77V1.005h4.594v13.998h-4.594Zm8.063-8.675a2.737 2.737 0 0 1-1.409-.375 2.778 2.778 0 0 1-1.015-1.015 2.735 2.735 0 0 1-.375-1.41 2.685 2.685 0 0 1 .375-1.4 2.812 2.812 0 0 1 3.824-1.005c.415.244.761.59 1.005 1.006.251.423.38.907.375 1.4.005.495-.125.982-.375 1.41a2.8 2.8 0 0 1-1.005 1.014c-.424.251-.908.381-1.4.375Zm3.49 8.675V1.005h4.594v13.998h-4.594Zm10.409-6.348c.013.013.111.174.296.483.184.308.424.703.72 1.183a384.573 384.573 0 0 1 1.862 3.056c.289.48.617 1.022.986 1.626h-5.047l-.858-1.39c-.256-.414-.529-.86-.817-1.34-.29-.48-.576-.946-.858-1.4a71.293 71.293 0 0 1-.73-1.193 21.096 21.096 0 0 0-.424-.69 2.04 2.04 0 0 1-.334-.986c.019-.338.128-.664.315-.947.078-.131.223-.364.433-.7a216.7 216.7 0 0 0 1.598-2.603l.817-1.35.858-1.4H40l-3.904 6.369c-.12.189-.189.407-.197.631.013.235.095.462.236.65h.001Z"/><path fill="#7B0A02" d="M0 35.005h2.07v-5.777h5.284l.217-1.715h-5.5v-4.772h7.157v-1.735H0v14ZM17.44 25.364a5.41 5.41 0 0 0-2.672-.63 5.387 5.387 0 0 0-2.692.65 4.547 4.547 0 0 0-1.794 1.834 5.796 5.796 0 0 0-.64 2.8 6.046 6.046 0 0 0 .6 2.79c.378.758.98 1.38 1.726 1.784.802.42 1.697.63 2.602.611a5.558 5.558 0 0 0 2.722-.65 4.596 4.596 0 0 0 1.843-1.854 5.807 5.807 0 0 0 .66-2.84 5.708 5.708 0 0 0-.61-2.71 4.309 4.309 0 0 0-1.745-1.785Zm-.12 6.605a2.682 2.682 0 0 1-1.073 1.233 3.06 3.06 0 0 1-1.578.404 2.804 2.804 0 0 1-1.538-.414 2.78 2.78 0 0 1-1.025-1.242 4.978 4.978 0 0 1-.374-2.05 4.65 4.65 0 0 1 .374-1.992c.221-.494.59-.907 1.055-1.183a3.193 3.193 0 0 1 1.626-.394c.444-.011.884.073 1.292.246.357.161.669.409.907.72.254.338.438.724.542 1.134.123.48.183.973.177 1.469a4.904 4.904 0 0 1-.384 2.07ZM25.346 33.556a1.745 1.745 0 0 1-.207.01 1.06 1.06 0 0 1-.434-.079.713.713 0 0 1-.296-.246 1.072 1.072 0 0 1-.167-.425 3.24 3.24 0 0 1-.05-.61V20.118l-2.01.296v12.678c-.01.332.044.663.157.976.095.254.25.481.454.66.202.174.441.299.7.365.286.075.581.111.877.109.158 0 .309-.007.453-.02.145-.013.286-.033.424-.06.138-.026.253-.052.345-.078l.197-1.558-.237.04a3.413 3.413 0 0 1-.206.029ZM36.377 24.95h-2.464l-3.374 3.706h-.727V20.12l-2.01.296v14.59h2.01v-4.83h.033l4.028 4.83h2.603l-4.783-5.389 4.684-4.666ZM45.19 26.221a3.578 3.578 0 0 0-1.449-1.114 5.061 5.061 0 0 0-2-.374 4.902 4.902 0 0 0-2.012.394 4.297 4.297 0 0 0-1.508 1.104 4.825 4.825 0 0 0-.947 1.706 7.125 7.125 0 0 0-.325 2.218c-.028.95.171 1.893.581 2.75.375.743.98 1.345 1.726 1.716a6.13 6.13 0 0 0 2.8.581 9.67 9.67 0 0 0 1.39-.088 6.653 6.653 0 0 0 1.133-.267 7.354 7.354 0 0 0 1.065-.453l.138-1.518c-.25.092-.503.184-.76.276a9.482 9.482 0 0 1-.797.246 5.949 5.949 0 0 1-.848.158c-.288.033-.578.05-.868.05a6.218 6.218 0 0 1-1.538-.168 2.531 2.531 0 0 1-1.094-.572 2.498 2.498 0 0 1-.67-1.095 4.99 4.99 0 0 1-.215-1.3h7.125a7.549 7.549 0 0 0-.108-2.446 4.609 4.609 0 0 0-.818-1.804Zm-4.968.474a2.789 2.789 0 0 1 1.538-.405 2.41 2.41 0 0 1 1.518.444c.393.313.673.746.798 1.232.099.36.147.731.144 1.104h-5.185c.037-.393.12-.78.25-1.153.169-.5.498-.93.937-1.222ZM62.206 25.147a3.432 3.432 0 0 0-1.755-.414 4.61 4.61 0 0 0-1.557.266 5.488 5.488 0 0 0-1.42.759 7.15 7.15 0 0 0-.7.591 2.471 2.471 0 0 0-1.016-1.183 3.473 3.473 0 0 0-1.774-.414c-.527 0-1.05.09-1.548.267a5.612 5.612 0 0 0-1.844 1.077v-1.343l-2.01.296v9.957h2.01v-7.5c.237-.154.484-.294.74-.416.313-.148.64-.264.976-.345a4.07 4.07 0 0 1 .947-.119c.292-.008.584.042.857.149.226.095.425.244.582.433.17.22.289.476.345.75.077.352.113.713.108 1.074v5.974h2.011v-6.388a7.934 7.934 0 0 0-.076-1.128c.228-.15.464-.287.707-.41.308-.155.632-.274.966-.355.316-.078.641-.117.967-.119.29-.007.577.044.847.148.23.094.434.243.592.434.171.22.29.476.345.75.077.352.113.713.108 1.074v5.994h2.012v-6.408a5.737 5.737 0 0 0-.355-2.189 2.54 2.54 0 0 0-1.065-1.262ZM73.247 32.551c-.148.09-.295.175-.444.246a7.396 7.396 0 0 1-.719.306c-.234.084-.475.15-.72.197a4.05 4.05 0 0 1-.759.069 2.433 2.433 0 0 1-1.202-.266 1.602 1.602 0 0 1-.7-.809 3.446 3.446 0 0 1-.228-1.33v-6.21l-2.01.295v6.27a5.42 5.42 0 0 0 .384 2.188 2.58 2.58 0 0 0 1.163 1.282 3.961 3.961 0 0 0 1.883.414 4.85 4.85 0 0 0 1.223-.148 4.75 4.75 0 0 0 1.094-.434 6.573 6.573 0 0 0 1.005-.68c.058-.047.115-.102.173-.152l.29 1.216h1.558l.02-10.253-2.01.296v7.503ZM84.564 30.47a2.948 2.948 0 0 0-.69-.542 5.354 5.354 0 0 0-.828-.384c-.21-.066-.417-.135-.621-.207a10.905 10.905 0 0 0-.612-.198c-.203-.059-.4-.121-.591-.187a4.281 4.281 0 0 1-.522-.217 3.45 3.45 0 0 1-.464-.296 1.296 1.296 0 0 1-.335-.374.947.947 0 0 1-.128-.493c-.006-.19.042-.378.138-.542a1.12 1.12 0 0 1 .414-.385c.206-.113.43-.193.66-.237a4.43 4.43 0 0 1 .878-.078 6.388 6.388 0 0 1 1.035.089c.204.033.407.075.611.127.204.052.41.112.621.178.195.06.386.133.572.217l.138-1.597a9.593 9.593 0 0 0-.74-.276 7.339 7.339 0 0 0-.738-.198 5.967 5.967 0 0 0-.74-.108 8.92 8.92 0 0 0-.72-.03 6.5 6.5 0 0 0-1.616.188 4.08 4.08 0 0 0-1.272.552 2.513 2.513 0 0 0-.838.926c-.206.413-.308.87-.296 1.331-.006.332.047.663.158.976.093.263.234.507.414.72.175.201.377.377.601.523.233.152.48.281.74.384.144.053.295.105.453.157.158.052.313.102.464.149a48.008 48.008 0 0 1 .867.276c.138.046.273.088.404.128.177.062.348.138.513.226.145.077.28.17.404.277a1.01 1.01 0 0 1 .345.778.986.986 0 0 1-.325.78 1.891 1.891 0 0 1-.848.403c-.366.081-.74.12-1.114.119a5.46 5.46 0 0 1-.7-.05 10.474 10.474 0 0 1-.808-.138 11.98 11.98 0 0 1-.868-.216 18.01 18.01 0 0 1-.897-.286l.079 1.676c.341.118.654.213.936.286.283.072.553.135.809.187.247.051.497.084.75.099.242.013.489.02.739.02a7.68 7.68 0 0 0 1.636-.169 4.217 4.217 0 0 0 1.34-.522c.374-.228.682-.547.898-.927.225-.417.337-.886.325-1.36a2.767 2.767 0 0 0-.167-1.015 2.302 2.302 0 0 0-.464-.74ZM89.305 20.622a1.276 1.276 0 0 0-.68-.188 1.329 1.329 0 0 0-.69.188c-.206.12-.378.29-.503.493-.125.204-.19.44-.187.68-.002.243.063.481.187.69.12.206.294.377.503.493.21.118.448.18.69.177.238.003.473-.058.68-.177.203-.117.37-.288.483-.493.118-.21.18-.448.178-.69a1.334 1.334 0 0 0-.178-.68 1.397 1.397 0 0 0-.483-.493ZM87.58 35.005h2.012V24.752l-2.011.296v9.957ZM101.245 24.95H98.78l-3.374 3.706h-.727V20.12l-2.011.296v14.59h2.01v-4.83h.034l4.028 4.83h2.603l-4.783-5.389 4.685-4.666ZM109.092 35.005h2.603l-4.783-5.39 4.684-4.665h-2.465l-3.374 3.706h-.727V20.12l-2.011.296v14.59h2.011v-4.83h.033l4.029 4.83Z"/></svg>