<svg xmlns="http://www.w3.org/2000/svg" viewBox="0 0 55 39"><path fill="#fff" d="M0 14.333V.335h4.593v13.998H0Zm10.843-11.77 2.641 11.77H8.457L5.303.335h2.82a2.655 2.655 0 0 1 1.764.64c.491.404.829.964.956 1.588Zm3.331 11.77V.335h4.594v13.998h-4.594Zm8.063-8.675a2.738 2.738 0 0 1-1.409-.375 2.778 2.778 0 0 1-1.015-1.015 2.735 2.735 0 0 1-.375-1.41 2.685 2.685 0 0 1 .375-1.4A2.812 2.812 0 0 1 23.637.454c.415.244.761.59 1.005 1.005.251.424.38.908.375 1.4.005.496-.125.983-.375 1.41a2.8 2.8 0 0 1-1.005 1.015c-.424.251-.908.38-1.4.375Zm3.49 8.675V.335h4.594v13.998h-4.594Zm10.409-6.348c.013.013.111.174.296.483.184.308.424.702.72 1.183a386.846 386.846 0 0 1 1.862 3.056c.289.48.617 1.022.986 1.626h-5.047l-.858-1.39c-.256-.414-.529-.86-.817-1.34-.29-.48-.576-.946-.858-1.4a71.148 71.148 0 0 1-.73-1.193 21.112 21.112 0 0 0-.424-.69 2.04 2.04 0 0 1-.334-.986c.019-.338.128-.665.315-.947.078-.131.223-.364.433-.7a216.7 216.7 0 0 0 1.598-2.603l.817-1.35.858-1.4H40l-3.904 6.369c-.12.189-.189.407-.197.631.013.235.095.462.236.65h.001Z"/><path fill="#9FDAF5" d="M8.506 27.77a3.714 3.714 0 0 0-.977-.723 7.555 7.555 0 0 0-1.182-.485 13.311 13.311 0 0 0-1.289-.337 27.426 27.426 0 0 1-.947-.238 4.31 4.31 0 0 1-.782-.287 2.574 2.574 0 0 1-.595-.396 1.426 1.426 0 0 1-.381-.555 2.163 2.163 0 0 1-.127-.782 2.414 2.414 0 0 1 .127-.813c.08-.23.214-.437.39-.604.183-.17.391-.31.616-.415.257-.12.53-.2.81-.238a6.75 6.75 0 0 1 1.007-.07c.306.001.613.018.917.05.309.033.616.082.919.149a7.4 7.4 0 0 1 .869.247c.267.093.525.21.772.347l.273-1.743a4.825 4.825 0 0 0-.87-.357 11.544 11.544 0 0 0-.927-.238 9.13 9.13 0 0 0-.957-.148 9.843 9.843 0 0 0-.996-.05 8.21 8.21 0 0 0-2.051.238 4.609 4.609 0 0 0-1.592.733c-.442.322-.798.75-1.035 1.248a4.081 4.081 0 0 0-.362 1.782c-.01.476.065.95.225 1.397.14.375.356.716.635 1 .275.279.591.513.937.694.367.191.75.35 1.143.475.41.132.83.245 1.26.337.352.08.677.162.977.248.278.078.55.18.81.307.224.107.432.247.616.416.174.166.31.369.4.594.104.271.153.56.147.852.005.31-.041.617-.137.91-.086.255-.218.49-.39.694a1.882 1.882 0 0 1-.626.475 3.12 3.12 0 0 1-.85.258 6.688 6.688 0 0 1-1.083.08 8.38 8.38 0 0 1-1.055-.07c-.365-.046-.73-.109-1.094-.189-.36-.077-.715-.173-1.065-.287A19.966 19.966 0 0 1 0 31.93l.254 1.961c.333.126.672.235 1.016.327.312.083.628.149.947.198.306.046.612.082.918.109.306.026.616.04.928.04.699.004 1.397-.07 2.08-.219a4.944 4.944 0 0 0 1.7-.713 3.34 3.34 0 0 0 1.133-1.297 4.44 4.44 0 0 0 .4-1.991 4.528 4.528 0 0 0-.225-1.506 2.935 2.935 0 0 0-.645-1.069ZM20.197 33.099a.879.879 0 0 1-.763-.317 1.723 1.723 0 0 1-.214-1.05l.039-4.08a4.82 4.82 0 0 0-.157-1.268 3.125 3.125 0 0 0-.468-1.011 2.666 2.666 0 0 0-.81-.733 4.118 4.118 0 0 0-1.183-.455 6.857 6.857 0 0 0-1.543-.159c-.411 0-.822.026-1.23.08-.386.049-.768.125-1.143.227-.348.096-.69.212-1.026.347l-.234 1.684a11.665 11.665 0 0 1 1.777-.495c.268-.052.54-.088.811-.109.267-.02.53-.03.791-.03.398-.009.796.038 1.182.139.282.071.54.214.752.416.189.196.323.438.39.703.084.327.124.663.118 1l-.002.497-2.283.157a6 6 0 0 0-2.266.515 3.259 3.259 0 0 0-1.338 1.1 2.584 2.584 0 0 0-.44 1.455c-.003.487.114.968.342 1.397.24.44.599.801 1.035 1.04a3.44 3.44 0 0 0 1.729.396 4.447 4.447 0 0 0 1.65-.277c.457-.181.875-.45 1.231-.793.136-.131.264-.27.385-.415.038.206.11.403.211.584.174.303.442.54.762.674.353.144.732.214 1.113.208.118 0 .231-.004.342-.01.109-.007.217-.024.322-.05.104-.027.199-.05.284-.07a1.48 1.48 0 0 0 .224-.069L20.802 33a1.714 1.714 0 0 1-.332.08c-.09.012-.182.018-.273.019Zm-3.253-.892c-.212.17-.441.316-.684.436a3.064 3.064 0 0 1-.762.258c-.273.053-.551.08-.83.079a2.17 2.17 0 0 1-.927-.178 1.28 1.28 0 0 1-.577-.505 1.497 1.497 0 0 1-.195-.783c-.019-.33.07-.657.254-.931.213-.252.5-.426.82-.495a5.876 5.876 0 0 1 1.524-.158h1.71l-.008 1.966a2.65 2.65 0 0 1-.325.311ZM18.184 19.312h-2.109l-1.66 3.546h1.524l2.245-3.546ZM30.168 24.65a4.153 4.153 0 0 0-2.334-.624 5.883 5.883 0 0 0-1.446.188 6.233 6.233 0 0 0-1.739.748v-.916l-1.992.317v14.143h1.992v-4.435l.04.018c.36.152.738.261 1.123.327.455.076.916.112 1.377.109.88.015 1.747-.21 2.51-.654a4.676 4.676 0 0 0 1.758-1.892 6.402 6.402 0 0 0 .654-3.02 6.234 6.234 0 0 0-.498-2.575 3.966 3.966 0 0 0-1.445-1.734Zm-.518 6.626a2.712 2.712 0 0 1-1.123 1.248 3.568 3.568 0 0 1-1.787.416 5.491 5.491 0 0 1-1.797-.297c-.094-.033-.196-.07-.293-.107v-6.251c.026-.012.053-.028.078-.04.287-.132.554-.245.801-.337a3.976 3.976 0 0 1 1.387-.258c.602-.02 1.2.113 1.738.387.471.26.84.675 1.045 1.178.249.643.365 1.33.342 2.02a4.783 4.783 0 0 1-.39 2.041ZM48.03 24.442a3.362 3.362 0 0 0-1.738-.416 4.518 4.518 0 0 0-1.543.268c-.503.183-.977.44-1.407.762a7.136 7.136 0 0 0-.693.594 2.473 2.473 0 0 0-1.006-1.188 3.408 3.408 0 0 0-1.758-.416c-.522 0-1.04.09-1.533.267a5.525 5.525 0 0 0-1.827 1.083v-1.349l-1.992.298v10.003h1.992V26.81a6.25 6.25 0 0 1 .733-.419c.31-.148.634-.264.967-.346a3.98 3.98 0 0 1 .937-.119c.29-.009.58.041.85.149.224.096.422.245.576.435.17.221.287.479.342.753.076.355.112.717.108 1.08v6.002h1.992v-6.419a8.081 8.081 0 0 0-.076-1.132c.226-.15.46-.288.701-.412.305-.156.626-.276.957-.357.313-.078.635-.118.957-.12.287-.006.573.045.84.15.228.094.43.243.586.435.17.221.287.479.342.753.076.355.112.717.107 1.08v6.022h1.993v-6.438a5.828 5.828 0 0 0-.352-2.199 2.543 2.543 0 0 0-1.054-1.267ZM52.386 34.347h1.993v-10.3l-1.993.296v10.004ZM54.574 20.391a1.39 1.39 0 0 0-.478-.495 1.25 1.25 0 0 0-.674-.188 1.3 1.3 0 0 0-.684.188 1.443 1.443 0 0 0-.498.495 1.298 1.298 0 0 0-.186.684c-.002.244.063.484.186.693a1.352 1.352 0 0 0 1.182.674 1.282 1.282 0 0 0 1.152-.674c.117-.211.178-.45.176-.693a1.352 1.352 0 0 0-.176-.684Z"/></svg>