<svg xmlns="http://www.w3.org/2000/svg" viewBox="0 0 101 23"><path fill="#fff" d="M0 18.333V4.335h4.593v13.998H0Zm10.843-11.77 2.641 11.77H8.457L5.303 4.335h2.82a2.655 2.655 0 0 1 1.764.64c.491.404.829.964.956 1.588Zm3.331 11.77V4.335h4.594v13.998h-4.594Zm8.063-8.675a2.738 2.738 0 0 1-1.409-.375 2.778 2.778 0 0 1-1.015-1.015 2.735 2.735 0 0 1-.375-1.41 2.685 2.685 0 0 1 .375-1.4 2.812 2.812 0 0 1 3.824-1.005c.415.244.761.59 1.005 1.005.251.424.38.908.375 1.4.005.496-.125.983-.375 1.41a2.8 2.8 0 0 1-1.005 1.015c-.424.251-.908.38-1.4.375Zm3.49 8.675V4.335h4.594v13.998h-4.594Zm10.409-6.348c.013.013.111.174.296.483.184.308.424.703.72 1.183a384.573 384.573 0 0 1 1.862 3.056c.289.48.617 1.022.986 1.626h-5.047l-.858-1.39c-.256-.414-.529-.86-.817-1.34-.29-.48-.576-.946-.858-1.4a71.148 71.148 0 0 1-.73-1.193 21.119 21.119 0 0 0-.424-.69 2.04 2.04 0 0 1-.334-.986c.019-.338.128-.665.315-.947.078-.131.223-.364.433-.7a216.7 216.7 0 0 0 1.598-2.603l.817-1.35.858-1.4H40l-3.904 6.369c-.12.189-.189.407-.197.631.013.235.095.462.236.65h.001Z"/><path fill="#9FDAF5" d="M53.84 11.77a3.715 3.715 0 0 0-.977-.723 7.554 7.554 0 0 0-1.182-.485 13.308 13.308 0 0 0-1.29-.337c-.338-.08-.654-.158-.947-.238a4.32 4.32 0 0 1-.781-.287 2.578 2.578 0 0 1-.596-.396 1.426 1.426 0 0 1-.38-.555 2.163 2.163 0 0 1-.128-.782c-.004-.276.039-.551.127-.812.08-.23.214-.438.39-.605.184-.17.391-.31.617-.415.257-.12.53-.2.81-.238.333-.048.67-.071 1.006-.07.307.001.613.018.918.05.308.033.615.082.918.149.295.065.585.147.87.247.266.093.524.21.771.347l.274-1.743a4.826 4.826 0 0 0-.87-.357 11.553 11.553 0 0 0-.928-.238 9.154 9.154 0 0 0-.957-.148 9.871 9.871 0 0 0-.996-.05 8.206 8.206 0 0 0-2.05.238 4.61 4.61 0 0 0-1.593.733c-.442.322-.798.75-1.035 1.248a4.08 4.08 0 0 0-.361 1.782c-.011.476.065.95.224 1.397.14.375.357.716.635 1 .276.279.592.513.938.694.366.191.749.35 1.143.475.41.132.83.245 1.26.337.351.08.677.162.976.248.279.077.55.18.81.307.225.107.432.247.616.416.174.166.311.369.4.594.104.271.154.56.147.852a2.79 2.79 0 0 1-.137.91c-.085.255-.218.49-.39.694a1.882 1.882 0 0 1-.625.475 3.12 3.12 0 0 1-.85.258c-.359.056-.721.082-1.084.08a8.38 8.38 0 0 1-1.055-.07c-.364-.046-.73-.109-1.094-.188-.36-.078-.714-.174-1.064-.288a19.973 19.973 0 0 1-.987-.346l.254 1.961c.333.126.672.235 1.016.327.312.083.628.149.947.198.306.046.612.082.919.108.306.027.615.04.927.04.7.005 1.397-.069 2.08-.218a4.944 4.944 0 0 0 1.7-.713 3.34 3.34 0 0 0 1.133-1.297 4.44 4.44 0 0 0 .4-1.991 4.53 4.53 0 0 0-.224-1.506 2.936 2.936 0 0 0-.646-1.069ZM65.53 17.099a.88.88 0 0 1-.762-.317 1.723 1.723 0 0 1-.215-1.05l.039-4.08a4.82 4.82 0 0 0-.156-1.268 3.126 3.126 0 0 0-.47-1.011 2.665 2.665 0 0 0-.81-.733 4.121 4.121 0 0 0-1.181-.455 6.86 6.86 0 0 0-1.543-.159 9.53 9.53 0 0 0-1.231.08c-.386.049-.768.125-1.143.227-.348.096-.69.212-1.026.347l-.234 1.684a11.666 11.666 0 0 1 1.778-.495c.268-.052.538-.089.81-.109.267-.02.53-.03.791-.03.399-.009.796.038 1.182.139.282.071.54.214.752.416.189.196.324.438.391.703.084.327.123.663.117 1l-.002.497-2.283.157a6 6 0 0 0-2.266.515 3.259 3.259 0 0 0-1.338 1.1 2.584 2.584 0 0 0-.44 1.455c-.003.487.115.968.343 1.397.239.44.598.801 1.035 1.04a3.441 3.441 0 0 0 1.728.396 4.447 4.447 0 0 0 1.651-.277c.457-.181.875-.45 1.23-.793.136-.131.264-.27.385-.415.038.206.11.403.212.584.174.303.441.54.761.674.354.144.733.214 1.114.207.117 0 .23-.003.341-.01.109-.006.217-.023.323-.05l.283-.069c.076-.017.151-.04.225-.069L66.135 17a1.712 1.712 0 0 1-.331.08 2.22 2.22 0 0 1-.274.019Zm-3.253-.892c-.212.17-.44.316-.683.436a3.064 3.064 0 0 1-.762.258c-.274.053-.552.08-.83.079a2.17 2.17 0 0 1-.928-.178 1.28 1.28 0 0 1-.576-.505 1.498 1.498 0 0 1-.196-.783c-.019-.33.07-.657.255-.931.212-.252.5-.426.82-.495a5.876 5.876 0 0 1 1.523-.158h1.71l-.008 1.966c-.1.113-.208.217-.325.311ZM63.518 3.312h-2.11l-1.66 3.546h1.524l2.246-3.546ZM75.501 8.65a4.153 4.153 0 0 0-2.334-.624 5.886 5.886 0 0 0-1.445.188 6.231 6.231 0 0 0-1.74.748v-.916l-1.991.317v14.143h1.992v-4.435l.04.018c.36.152.737.262 1.122.327.456.076.916.112 1.377.109.88.015 1.747-.21 2.51-.654a4.677 4.677 0 0 0 1.758-1.892 6.403 6.403 0 0 0 .654-3.02 6.234 6.234 0 0 0-.498-2.575 3.966 3.966 0 0 0-1.445-1.734Zm-.517 6.626a2.712 2.712 0 0 1-1.123 1.248 3.568 3.568 0 0 1-1.788.416 5.491 5.491 0 0 1-1.797-.297c-.094-.033-.195-.07-.293-.107v-6.251c.026-.012.053-.028.079-.04.286-.132.553-.244.8-.337a3.961 3.961 0 0 1 1.387-.258c.602-.02 1.2.113 1.739.387.47.26.84.675 1.044 1.178.249.643.365 1.33.343 2.02a4.782 4.782 0 0 1-.391 2.041ZM93.364 8.442a3.363 3.363 0 0 0-1.739-.416 4.518 4.518 0 0 0-1.543.268c-.503.183-.977.44-1.406.762a7.15 7.15 0 0 0-.693.594 2.473 2.473 0 0 0-1.007-1.188 3.408 3.408 0 0 0-1.757-.416c-.523 0-1.041.09-1.534.267a5.53 5.53 0 0 0-1.826 1.083V8.048l-1.993.297v10.003h1.993V10.81c.234-.156.48-.296.732-.418.31-.15.634-.266.967-.348a3.98 3.98 0 0 1 .938-.118c.29-.009.579.041.85.149.223.096.42.245.576.435.17.221.286.479.341.753.077.354.113.717.108 1.08v6.002h1.992v-6.419a8.081 8.081 0 0 0-.075-1.132c.226-.15.46-.288.7-.412.305-.156.626-.276.958-.357a4.02 4.02 0 0 1 .957-.12 2.15 2.15 0 0 1 .84.15c.227.094.429.244.586.436.17.22.287.478.341.752.077.355.113.717.108 1.08v6.022h1.992v-6.438a5.826 5.826 0 0 0-.351-2.199 2.543 2.543 0 0 0-1.055-1.267ZM97.72 18.347h1.992v-10.3l-1.992.296v10.004ZM99.907 4.391a1.39 1.39 0 0 0-.478-.495 1.251 1.251 0 0 0-.674-.188 1.3 1.3 0 0 0-.684.188c-.203.121-.374.291-.498.495a1.297 1.297 0 0 0-.185.684c-.002.244.062.484.185.693a1.352 1.352 0 0 0 1.182.673 1.282 1.282 0 0 0 1.152-.673c.118-.211.179-.45.176-.693a1.356 1.356 0 0 0-.175-.684Z"/></svg>