<svg xmlns="http://www.w3.org/2000/svg" viewBox="0 0 44 41"><path fill="#fff" d="M0 17.997v-12h3.937v12H0Zm9.294-10.09 2.264 10.09H7.25l-2.704-12h2.417a2.276 2.276 0 0 1 1.513.55c.42.346.71.827.819 1.36Zm2.855 10.09v-12h3.938v12h-3.938Zm6.912-7.436a2.382 2.382 0 0 1-2.4-2.4 2.301 2.301 0 0 1 .321-1.2A2.41 2.41 0 0 1 20.26 6.1c.356.21.653.506.862.862.215.363.326.778.321 1.2a2.35 2.35 0 0 1-.321 1.208 2.4 2.4 0 0 1-.862.87 2.302 2.302 0 0 1-1.2.322Zm2.99 7.436v-12h3.938v12h-3.937Zm8.923-5.442c.01.012.095.15.253.414s.364.603.617 1.014a315.936 315.936 0 0 1 1.597 2.62c.247.411.529.876.845 1.394H29.96c-.27-.44-.516-.837-.736-1.192-.22-.354-.453-.738-.7-1.149-.248-.41-.493-.81-.736-1.2-.242-.389-.45-.73-.625-1.022-.175-.293-.296-.49-.363-.592a1.747 1.747 0 0 1-.287-.845c.016-.29.11-.57.27-.811.067-.113.191-.313.371-.6s.392-.628.634-1.022c.242-.395.488-.798.736-1.209l.7-1.157.736-1.2h4.326l-3.346 5.458a1.08 1.08 0 0 0-.17.541c.012.202.082.396.203.558Z"/><path fill="#8BB5EB" d="M5.883 30.051a4.4 4.4 0 0 0 .664-.155c.439-.136.845-.364 1.19-.667.345-.308.617-.689.795-1.115.2-.49.298-1.016.287-1.546a4.167 4.167 0 0 0-.38-1.79 2.852 2.852 0 0 0-1.25-1.293 4.844 4.844 0 0 0-2.34-.482H0v11.995h1.757v-4.595h2.585L7.332 35h2.061L6.59 30.843l-.706-.792Zm.03-5.35c.35.134.643.385.828.71.193.378.286.8.27 1.225.021.47-.093.936-.33 1.343a1.845 1.845 0 0 1-.945.743c-.47.162-.965.239-1.462.228H1.757v-4.477h2.72c.489-.016.976.061 1.436.228ZM18.5 33.934a.77.77 0 0 1-.66-.27 1.453 1.453 0 0 1-.186-.896l.034-3.48a4.065 4.065 0 0 0-.135-1.081 2.658 2.658 0 0 0-.405-.862 2.291 2.291 0 0 0-.701-.625 3.579 3.579 0 0 0-1.023-.388 6.005 6.005 0 0 0-1.334-.135 8.38 8.38 0 0 0-1.065.067 7.318 7.318 0 0 0-.988.194c-.301.082-.597.18-.887.296l-.203 1.436a9.906 9.906 0 0 1 1.538-.422 6.13 6.13 0 0 1 .7-.093 9.04 9.04 0 0 1 .685-.025 3.79 3.79 0 0 1 1.022.118c.244.06.468.183.65.355.164.167.28.373.339.6.072.278.106.565.1.853L15.98 30l-1.975.133a5.252 5.252 0 0 0-1.96.44 2.81 2.81 0 0 0-1.157.937c-.25.366-.382.799-.38 1.242-.003.415.099.825.296 1.19.206.377.517.685.895.888.461.24.976.356 1.495.338.487.01.971-.07 1.428-.237a3.288 3.288 0 0 0 1.064-.676c.117-.112.228-.23.332-.354.033.175.095.343.183.498.151.259.383.46.66.574.305.123.633.184.962.178.102 0 .2-.003.296-.009.094-.005.187-.02.279-.042l.245-.059c.066-.015.13-.034.194-.06l.186-1.131c-.093.032-.19.055-.287.067a1.89 1.89 0 0 1-.237.017Zm-2.814-.76c-.183.145-.381.27-.591.372-.209.102-.43.175-.659.22a3.715 3.715 0 0 1-.718.067 1.908 1.908 0 0 1-.802-.152c-.207-.09-.38-.24-.499-.43a1.263 1.263 0 0 1-.169-.668 1.28 1.28 0 0 1 .22-.794c.184-.215.433-.363.71-.423a5.155 5.155 0 0 1 1.317-.135h1.48l-.008 1.677a2.27 2.27 0 0 1-.28.266ZM26.491 26.607l-.05-.022a5.827 5.827 0 0 0-2.146-.388 4.15 4.15 0 0 0-2.103.557c-.66.384-1.2.942-1.563 1.614a5.197 5.197 0 0 0-.591 2.576 5.21 5.21 0 0 0 .447 2.247 3.351 3.351 0 0 0 1.285 1.461 3.74 3.74 0 0 0 2.001.515c.431.003.86-.054 1.276-.169.414-.118.81-.295 1.174-.523.127-.078.253-.166.38-.257l.212.78h1.402V22.26l-1.724.237v4.11Zm-.904 6.947a3.537 3.537 0 0 1-1.208.245 2.74 2.74 0 0 1-1.385-.33 2.114 2.114 0 0 1-.878-1.013 4.23 4.23 0 0 1-.305-1.715c-.02-.601.096-1.199.338-1.749.207-.446.546-.818.972-1.064a2.993 2.993 0 0 1 1.512-.363 5.106 5.106 0 0 1 1.596.245c.083.026.174.061.262.093v5.207c-.287.175-.59.324-.905.444h.001ZM30.85 34.998h1.722v-8.785l-1.723.254v8.532ZM32.327 22.674a1.094 1.094 0 0 0-.582-.16 1.137 1.137 0 0 0-.592.16 1.24 1.24 0 0 0-.43.422 1.095 1.095 0 0 0-.161.583c-.002.208.054.413.16.591.104.177.252.323.431.423.18.101.385.154.591.152.205.002.406-.05.583-.152.174-.1.317-.247.414-.423.102-.18.154-.384.152-.59a1.14 1.14 0 0 0-.152-.584 1.194 1.194 0 0 0-.414-.422ZM42.844 28.266a3.693 3.693 0 0 0-1.495-1.529 4.637 4.637 0 0 0-2.29-.54 4.614 4.614 0 0 0-2.306.557 3.897 3.897 0 0 0-1.537 1.571 4.97 4.97 0 0 0-.549 2.4 5.177 5.177 0 0 0 .515 2.39c.324.65.84 1.184 1.478 1.529.688.36 1.455.54 2.23.523a4.76 4.76 0 0 0 2.332-.557 3.932 3.932 0 0 0 1.58-1.588c.392-.75.587-1.587.566-2.433a4.895 4.895 0 0 0-.524-2.323Zm-1.597 4.13c-.19.44-.511.809-.92 1.057a2.626 2.626 0 0 1-1.352.346 2.403 2.403 0 0 1-1.318-.355 2.38 2.38 0 0 1-.878-1.064 4.26 4.26 0 0 1-.32-1.757c-.02-.586.089-1.168.32-1.707.19-.422.505-.777.904-1.013a2.736 2.736 0 0 1 1.394-.338c.38-.01.757.063 1.106.211.306.138.574.35.778.617.217.29.375.62.464.971.106.411.157.834.152 1.259a4.207 4.207 0 0 1-.33 1.774Z"/></svg>