<svg xmlns="http://www.w3.org/2000/svg" viewBox="0 0 83 24"><path fill="#fff" d="M0 18V6.001h3.937V18H0ZM9.294 7.91 11.558 18H7.25L4.545 6.001h2.417a2.276 2.276 0 0 1 1.513.55c.42.345.71.826.819 1.36ZM12.149 18V6.001h3.938V18h-3.938Zm6.912-7.436a2.382 2.382 0 0 1-2.4-2.4 2.301 2.301 0 0 1 .321-1.2 2.41 2.41 0 0 1 3.278-.861c.356.209.653.506.862.861.215.363.326.778.321 1.2a2.35 2.35 0 0 1-.321 1.209 2.4 2.4 0 0 1-.862.87 2.302 2.302 0 0 1-1.2.321ZM22.05 18V6.001h3.938V18h-3.937Zm8.923-5.442c.01.012.095.15.253.414.158.265.364.603.617 1.014a315.936 315.936 0 0 1 1.597 2.62c.247.411.529.876.845 1.394H29.96c-.27-.44-.516-.837-.736-1.191-.22-.355-.453-.738-.7-1.15-.248-.41-.493-.81-.736-1.2-.242-.389-.45-.73-.625-1.022-.175-.293-.296-.49-.363-.591a1.747 1.747 0 0 1-.287-.845c.016-.29.11-.57.27-.812.067-.113.191-.313.371-.6s.392-.628.634-1.022c.242-.395.488-.797.736-1.209a516 516 0 0 1 .7-1.157L29.96 6h4.326l-3.346 5.458a1.08 1.08 0 0 0-.17.542c.012.201.082.395.203.557Z"/><path fill="#8BB5EB" d="M44.883 13.051a4.4 4.4 0 0 0 .664-.155c.439-.136.845-.364 1.19-.667.345-.308.617-.689.795-1.115.2-.49.298-1.016.287-1.546a4.166 4.166 0 0 0-.38-1.79 2.85 2.85 0 0 0-1.25-1.293 4.843 4.843 0 0 0-2.34-.482H39v11.995h1.757v-4.595h2.585l2.99 4.595h2.061l-2.804-4.155-.706-.792Zm.03-5.35c.35.134.643.385.828.71.193.378.286.8.27 1.225.021.47-.093.936-.33 1.343a1.845 1.845 0 0 1-.945.743c-.47.162-.965.239-1.462.228h-2.517V7.473h2.72c.489-.016.976.061 1.436.228ZM57.5 16.934a.77.77 0 0 1-.66-.27 1.453 1.453 0 0 1-.186-.896l.034-3.48a4.061 4.061 0 0 0-.135-1.081 2.656 2.656 0 0 0-.405-.862 2.29 2.29 0 0 0-.701-.625 3.58 3.58 0 0 0-1.023-.388 6.008 6.008 0 0 0-1.334-.135c-.356 0-.712.022-1.065.067a7.309 7.309 0 0 0-.988.194c-.301.082-.597.18-.887.296l-.203 1.436a9.92 9.92 0 0 1 1.538-.422c.232-.044.466-.075.7-.093.232-.017.46-.026.685-.025.345-.008.689.032 1.022.118.244.06.468.183.65.355.164.167.28.373.339.6.072.278.106.565.1.853L54.98 13l-1.975.133a5.252 5.252 0 0 0-1.96.44 2.808 2.808 0 0 0-1.157.937c-.25.366-.382.799-.38 1.242-.003.415.099.825.296 1.19.206.377.517.685.895.888.461.24.976.356 1.495.338.487.01.971-.07 1.428-.237a3.289 3.289 0 0 0 1.064-.676c.117-.112.228-.23.333-.354a1.6 1.6 0 0 0 .183.498c.15.259.382.46.659.574.305.123.633.184.962.178.102 0 .2-.003.296-.009.094-.005.188-.02.279-.042l.245-.059c.066-.015.131-.035.194-.06l.186-1.131c-.093.032-.19.055-.287.067-.079.011-.158.017-.237.017Zm-2.814-.76c-.183.145-.381.27-.591.372-.209.102-.43.175-.659.22a3.714 3.714 0 0 1-.718.067 1.909 1.909 0 0 1-.802-.152c-.207-.09-.38-.24-.499-.43a1.264 1.264 0 0 1-.169-.668 1.28 1.28 0 0 1 .22-.794c.184-.215.433-.363.71-.422a5.155 5.155 0 0 1 1.318-.136h1.479l-.008 1.677c-.086.097-.18.186-.28.266ZM65.491 9.607l-.05-.022a5.82 5.82 0 0 0-2.146-.388 4.15 4.15 0 0 0-2.103.557 4.14 4.14 0 0 0-1.563 1.614 5.197 5.197 0 0 0-.591 2.576 5.21 5.21 0 0 0 .447 2.247 3.351 3.351 0 0 0 1.285 1.461 3.74 3.74 0 0 0 2.001.515c.431.003.86-.054 1.276-.169.414-.118.81-.295 1.174-.523.126-.078.254-.166.38-.257l.212.78h1.402V5.26l-1.724.237v4.11Zm-.904 6.947a3.537 3.537 0 0 1-1.208.245 2.74 2.74 0 0 1-1.385-.33 2.114 2.114 0 0 1-.879-1.013 4.23 4.23 0 0 1-.304-1.715c-.02-.601.096-1.199.338-1.749.207-.446.546-.818.972-1.064a2.993 2.993 0 0 1 1.512-.363 5.106 5.106 0 0 1 1.596.245c.083.026.174.061.262.093v5.207c-.287.175-.59.324-.904.444ZM69.85 17.998h1.722V9.213l-1.723.254v8.531ZM71.327 5.674a1.094 1.094 0 0 0-.582-.16 1.137 1.137 0 0 0-.592.16 1.241 1.241 0 0 0-.43.422 1.096 1.096 0 0 0-.161.583c-.002.208.054.413.16.591.104.177.252.323.431.423.18.101.384.154.591.152.205.002.406-.05.583-.152.174-.1.317-.247.414-.423.102-.18.154-.384.152-.59a1.141 1.141 0 0 0-.152-.584 1.194 1.194 0 0 0-.414-.422ZM81.844 11.266a3.695 3.695 0 0 0-1.495-1.529 4.638 4.638 0 0 0-2.29-.54 4.614 4.614 0 0 0-2.306.557 3.895 3.895 0 0 0-1.537 1.571 4.97 4.97 0 0 0-.549 2.4 5.18 5.18 0 0 0 .515 2.39c.324.65.84 1.184 1.479 1.529.687.36 1.454.54 2.23.524a4.76 4.76 0 0 0 2.331-.558 3.933 3.933 0 0 0 1.58-1.588c.392-.75.587-1.587.566-2.433a4.897 4.897 0 0 0-.524-2.323Zm-1.597 4.13c-.19.44-.511.809-.92 1.057a2.627 2.627 0 0 1-1.352.346 2.402 2.402 0 0 1-1.317-.355 2.38 2.38 0 0 1-.879-1.064 4.26 4.26 0 0 1-.32-1.757c-.02-.586.089-1.168.32-1.707.19-.423.505-.777.904-1.013a2.736 2.736 0 0 1 1.394-.338c.38-.01.757.063 1.106.211.306.138.574.35.778.617.217.29.375.62.464.971.106.411.157.834.152 1.259a4.206 4.206 0 0 1-.33 1.774Z"/></svg>