<svg xmlns="http://www.w3.org/2000/svg" viewBox="0 0 96 41"><path fill="#fff" d="M0 18V6.003h3.937V18H0ZM9.294 7.912l2.264 10.09H7.25L4.546 6h2.416a2.276 2.276 0 0 1 1.513.55c.42.346.71.826.819 1.36Zm2.856 10.09V6h3.937v12H12.15Zm6.91-7.436a2.383 2.383 0 0 1-2.4-2.4 2.303 2.303 0 0 1 .322-1.2 2.412 2.412 0 0 1 3.278-.862c.356.21.653.506.862.862.215.363.326.778.321 1.2a2.4 2.4 0 0 1-1.183 2.079 2.303 2.303 0 0 1-1.2.32ZM22.053 18V6h3.937v12h-3.937Zm8.922-5.442c.01.012.095.15.253.414s.364.602.617 1.014a327.152 327.152 0 0 1 1.597 2.62c.247.41.529.876.845 1.394H29.96c-.27-.44-.516-.837-.736-1.192-.22-.355-.453-.738-.7-1.149-.248-.41-.493-.81-.736-1.2-.242-.389-.45-.73-.625-1.022-.175-.293-.296-.49-.363-.592a1.75 1.75 0 0 1-.287-.845c.016-.29.11-.57.27-.811.067-.113.191-.313.372-.6a182.106 182.106 0 0 0 1.37-2.23c.247-.412.48-.798.7-1.159l.735-1.2h4.326l-3.346 5.46a1.078 1.078 0 0 0-.17.54c.012.202.082.396.203.558ZM0 35h1.775v-4.952h4.529l.186-1.47H1.775v-4.09h6.134V23H0v12ZM14.948 26.736a4.637 4.637 0 0 0-2.29-.541 4.618 4.618 0 0 0-2.307.558 3.898 3.898 0 0 0-1.538 1.571 4.968 4.968 0 0 0-.55 2.4 5.183 5.183 0 0 0 .516 2.392c.324.65.84 1.184 1.48 1.529.687.36 1.454.54 2.23.524a4.764 4.764 0 0 0 2.332-.557 3.94 3.94 0 0 0 1.58-1.59c.393-.75.588-1.587.567-2.433a4.895 4.895 0 0 0-.524-2.324 3.694 3.694 0 0 0-1.496-1.53Zm-.101 5.661c-.19.44-.512.809-.921 1.057a2.622 2.622 0 0 1-1.352.346 2.404 2.404 0 0 1-1.319-.355 2.382 2.382 0 0 1-.879-1.064 4.267 4.267 0 0 1-.32-1.758c-.02-.585.09-1.168.32-1.707.19-.423.506-.777.905-1.014a2.735 2.735 0 0 1 1.394-.338c.38-.01.757.063 1.107.211.306.139.573.35.777.617.218.29.376.62.465.972.106.411.157.835.152 1.26a4.203 4.203 0 0 1-.33 1.773ZM21.725 33.757a1.46 1.46 0 0 1-.178.009.908.908 0 0 1-.371-.068.612.612 0 0 1-.254-.211.917.917 0 0 1-.143-.364 2.777 2.777 0 0 1-.043-.523V22.24l-1.724.254V33.36c-.007.285.04.569.136.837a1.41 1.41 0 0 0 .989.879c.245.063.498.095.752.093.135 0 .264-.006.388-.017.124-.011.245-.028.364-.051a3.66 3.66 0 0 0 .295-.067l.17-1.336-.204.034c-.067.011-.126.02-.177.025ZM31.18 26.38h-2.112l-2.892 3.178h-.623V22.24l-1.724.254V35h1.724v-4.14h.028L29.034 35h2.231l-4.1-4.62 4.016-4ZM38.735 27.47a3.066 3.066 0 0 0-1.242-.954 4.338 4.338 0 0 0-1.716-.322 4.204 4.204 0 0 0-1.724.338c-.495.217-.936.54-1.292.947a4.136 4.136 0 0 0-.812 1.462 6.109 6.109 0 0 0-.278 1.9 5.118 5.118 0 0 0 .498 2.358c.321.637.84 1.153 1.479 1.47.75.354 1.572.525 2.4.5.398.003.796-.023 1.19-.077.331-.047.656-.124.973-.228.314-.105.619-.235.913-.389l.118-1.3-.651.236c-.22.079-.448.149-.684.211a5.094 5.094 0 0 1-.727.135 6.482 6.482 0 0 1-.744.042 5.33 5.33 0 0 1-1.318-.143 2.168 2.168 0 0 1-.938-.49 2.14 2.14 0 0 1-.574-.938 4.276 4.276 0 0 1-.185-1.116h6.108c.083-.699.052-1.407-.093-2.096a3.95 3.95 0 0 0-.701-1.546Zm-4.259.406a2.39 2.39 0 0 1 1.318-.347c.464-.023.923.111 1.302.38.336.27.576.64.684 1.057.084.308.126.627.123.946H33.46c.03-.337.103-.669.214-.988.144-.429.427-.797.803-1.048ZM53.32 26.55a2.94 2.94 0 0 0-1.505-.356 3.95 3.95 0 0 0-1.335.229 4.703 4.703 0 0 0-1.216.65 6.13 6.13 0 0 0-.6.507 2.119 2.119 0 0 0-.871-1.014 2.976 2.976 0 0 0-1.521-.355c-.452 0-.9.078-1.327.228a4.812 4.812 0 0 0-1.58.924v-1.15l-1.724.253V35h1.724v-6.428c.203-.133.415-.252.634-.357.268-.127.548-.226.836-.296.266-.066.538-.1.812-.101.25-.008.5.035.735.127.193.082.364.209.498.371.147.189.248.408.296.642.066.303.097.612.093.921V35h1.724v-5.476a6.805 6.805 0 0 0-.065-.966c.195-.128.397-.246.606-.352.263-.133.54-.235.828-.304.27-.067.549-.1.828-.102.248-.006.495.037.727.127.197.08.37.208.507.372.147.188.248.408.295.642.066.303.097.611.093.921V35h1.724v-5.493a4.918 4.918 0 0 0-.304-1.876 2.177 2.177 0 0 0-.913-1.082ZM62.783 32.896c-.127.077-.253.15-.38.21-.2.099-.407.186-.617.263-.2.072-.407.129-.617.169a3.47 3.47 0 0 1-.65.059 2.086 2.086 0 0 1-1.031-.228 1.373 1.373 0 0 1-.6-.693 2.955 2.955 0 0 1-.195-1.14v-5.324l-1.724.253v5.374c-.02.642.092 1.28.33 1.876.196.47.548.858.997 1.099.5.25 1.055.371 1.614.355a4.16 4.16 0 0 0 1.048-.127c.327-.084.642-.21.938-.372.305-.167.593-.362.862-.583.05-.04.098-.088.148-.13l.249 1.042h1.335l.017-8.788-1.724.254v6.43ZM72.484 31.113a2.525 2.525 0 0 0-.592-.465 4.575 4.575 0 0 0-.71-.33c-.18-.056-.358-.116-.532-.177a9.352 9.352 0 0 0-.524-.17c-.175-.05-.344-.104-.507-.16a3.696 3.696 0 0 1-.448-.186 2.958 2.958 0 0 1-.397-.253 1.11 1.11 0 0 1-.287-.322.811.811 0 0 1-.11-.422.875.875 0 0 1 .118-.465.961.961 0 0 1 .355-.33c.177-.096.368-.165.566-.202.248-.048.5-.07.752-.068a5.46 5.46 0 0 1 .887.077c.175.028.35.064.524.109.175.044.352.096.533.152.167.052.33.114.49.186l.118-1.369a8.29 8.29 0 0 0-.634-.237 6.3 6.3 0 0 0-.633-.169 5.111 5.111 0 0 0-.634-.093 7.637 7.637 0 0 0-.617-.025 5.568 5.568 0 0 0-1.386.16 3.496 3.496 0 0 0-1.09.474c-.302.2-.55.473-.718.794a2.415 2.415 0 0 0-.254 1.141c-.005.285.041.568.136.836.08.226.2.435.355.617.15.173.323.324.515.448.2.131.412.242.634.33.123.045.253.09.388.135.136.044.268.087.398.127a38.956 38.956 0 0 1 .743.236c.118.04.234.076.347.11.15.054.298.119.439.195.124.065.24.145.346.236a.866.866 0 0 1 .296.667.843.843 0 0 1-.279.668c-.209.175-.459.294-.726.347-.314.069-.634.103-.955.101a4.686 4.686 0 0 1-.6-.042 8.951 8.951 0 0 1-.693-.118c-.242-.051-.49-.113-.744-.186-.253-.074-.51-.155-.769-.245l.068 1.436c.293.102.56.183.803.245.242.062.473.116.693.161.211.044.426.072.642.084.208.011.42.017.634.017a6.58 6.58 0 0 0 1.402-.144 3.615 3.615 0 0 0 1.15-.447c.32-.196.584-.469.769-.795.193-.357.289-.76.278-1.166a2.37 2.37 0 0 0-.143-.87 1.973 1.973 0 0 0-.397-.633ZM76.547 22.67a1.094 1.094 0 0 0-.583-.16 1.138 1.138 0 0 0-.591.16 1.242 1.242 0 0 0-.431.423 1.093 1.093 0 0 0-.16.583c-.002.208.053.413.16.592.103.177.252.322.43.422.181.102.385.154.592.152.204.003.406-.05.583-.152.174-.1.317-.246.414-.422.102-.18.154-.385.152-.592a1.145 1.145 0 0 0-.152-.583 1.198 1.198 0 0 0-.414-.422ZM75.07 35h1.723V26.21l-1.724.254v8.534ZM86.781 26.38H84.67l-2.892 3.178h-.624V22.24l-1.724.254V35h1.724v-4.14h.028L84.635 35h2.23l-4.1-4.62 4.016-4ZM93.507 35h2.231l-4.1-4.62 4.016-4H93.54l-2.892 3.178h-.623V22.24l-1.724.254V35h1.724v-4.14h.028L93.507 35Z"/></svg>