<svg xmlns="http://www.w3.org/2000/svg" viewBox="0 0 62 16"><path fill="#fff" d="M0 15V1.001h4.593V15H0ZM10.843 3.23 13.485 15H8.457L5.303 1.001h2.82a2.655 2.655 0 0 1 1.764.641c.491.404.829.964.956 1.587ZM14.175 15V1.001h4.593V15h-4.594Zm8.062-8.675a2.779 2.779 0 0 1-2.425-1.39 2.735 2.735 0 0 1-.374-1.41 2.685 2.685 0 0 1 .375-1.4 2.813 2.813 0 0 1 3.824-1.005c.415.244.761.59 1.005 1.005.251.424.38.908.375 1.4.005.495-.125.982-.375 1.41a2.8 2.8 0 0 1-1.005 1.015c-.424.251-.908.38-1.4.375ZM25.727 15V1.001h4.594V15h-4.594Zm10.41-6.349c.012.014.11.175.295.483.184.309.424.703.72 1.183a373.133 373.133 0 0 1 1.862 3.056c.289.48.617 1.023.986 1.627h-5.047c-.315-.513-.601-.976-.858-1.39-.256-.414-.528-.861-.817-1.34-.29-.48-.576-.947-.858-1.4a71.38 71.38 0 0 1-.73-1.193 20.74 20.74 0 0 0-.424-.69A2.041 2.041 0 0 1 30.932 8c.02-.338.128-.665.315-.947a50 50 0 0 1 .433-.7 212.59 212.59 0 0 0 1.598-2.603l.817-1.35.858-1.4H40l-3.904 6.368c-.12.19-.189.407-.197.632.013.235.095.461.236.65h.001ZM54.836 2.816a3.52 3.52 0 0 0-.917-.957 4.402 4.402 0 0 0-1.33-.63 6.302 6.302 0 0 0-1.775-.227h-5.48V15h2.07V9.972h3.568c.805.012 1.6-.185 2.307-.572a4.272 4.272 0 0 0 1.626-1.597c.416-.74.623-1.577.602-2.425a5.75 5.75 0 0 0-.158-1.36 3.922 3.922 0 0 0-.513-1.202Zm-1.833 4.248a2.33 2.33 0 0 1-1.114.917c-.557.21-1.15.311-1.745.296h-2.74v-5.56h3.016c.576-.022 1.15.09 1.676.325.418.202.76.534.976.946.227.463.34.974.325 1.489a2.914 2.914 0 0 1-.394 1.587ZM60.613 1.002c-.316.157-.615.312-.898.463a25.18 25.18 0 0 1-.827.424c-.27.131-.543.263-.819.394-.276.132-.558.25-.848.355-.289.106-.597.21-.926.315l.434 1.676a18.79 18.79 0 0 0 1.074-.355c.316-.115.625-.247.927-.394.296-.145.591-.302.887-.473l.01-.006V15h2.05V1.002h-1.064Z"/></svg>