<svg xmlns="http://www.w3.org/2000/svg" viewBox="0 0 155 28"><path fill="#114F9D" d="M0 0h154.667v28H0z"/><path fill="#fff" d="M6.667 21V7.001h4.593v14H6.667ZM17.509 9.23 20.151 21h-5.027L11.97 7.001h2.82a2.655 2.655 0 0 1 1.764.641c.49.404.828.964.955 1.587ZM20.841 21V7.001h4.593v14h-4.593Zm8.063-8.675a2.738 2.738 0 0 1-1.41-.375 2.777 2.777 0 0 1-1.015-1.015 2.735 2.735 0 0 1-.375-1.41 2.686 2.686 0 0 1 .375-1.4 2.812 2.812 0 0 1 3.825-1.005c.415.244.76.59 1.005 1.005.25.424.38.908.375 1.4.004.495-.125.982-.375 1.41a2.8 2.8 0 0 1-1.006 1.015c-.423.251-.908.38-1.4.375ZM32.394 21V7.001h4.593v14h-4.593Zm10.409-6.349c.013.014.111.175.295.483.185.309.424.703.72 1.183a373.133 373.133 0 0 1 1.863 3.056c.288.48.617 1.023.986 1.627H41.62a712.71 712.71 0 0 0-.858-1.39 127.3 127.3 0 0 1-.818-1.34c-.289-.48-.575-.947-.858-1.4a71.117 71.117 0 0 1-.729-1.193 20.869 20.869 0 0 0-.424-.69 2.039 2.039 0 0 1-.335-.986c.02-.338.128-.665.315-.947.079-.131.224-.365.434-.7a209.23 209.23 0 0 0 1.598-2.603c.289-.48.561-.93.817-1.35L41.62 7h5.047l-3.904 6.369c-.12.189-.189.407-.197.63.013.236.095.463.236.651Z"/><path fill="#9FDAF5" d="M60.669 14.503a3.768 3.768 0 0 0-.996-.727 7.807 7.807 0 0 0-1.204-.488 13.631 13.631 0 0 0-1.314-.338c-.345-.08-.667-.16-.965-.239a4.444 4.444 0 0 1-.796-.289 2.636 2.636 0 0 1-.607-.398 1.427 1.427 0 0 1-.389-.557 2.142 2.142 0 0 1-.129-.787c-.005-.278.04-.554.13-.817.08-.231.218-.44.398-.607.186-.17.397-.312.626-.418.263-.12.541-.2.827-.24a7.02 7.02 0 0 1 1.025-.069 9.118 9.118 0 0 1 1.87.2c.3.064.597.147.886.248.272.094.535.21.787.348l.278-1.752a4.945 4.945 0 0 0-.885-.358 11.67 11.67 0 0 0-.946-.24 9.433 9.433 0 0 0-.975-.148c-.332-.033-.67-.05-1.015-.05a8.45 8.45 0 0 0-2.09.239c-.583.14-1.133.39-1.623.737-.45.323-.813.754-1.055 1.254a4.06 4.06 0 0 0-.368 1.792c-.01.478.067.954.229 1.404.143.377.363.72.647 1.006.28.28.603.515.956.697.373.192.763.352 1.164.478.418.133.846.246 1.284.339.358.08.69.162.995.248.284.079.56.182.826.31.228.107.44.248.627.417.178.167.317.371.408.598.106.273.156.564.15.856.005.311-.042.62-.14.916a2.132 2.132 0 0 1-.398.697 1.922 1.922 0 0 1-.637.477 3.228 3.228 0 0 1-.866.26 6.912 6.912 0 0 1-1.105.08c-.359-.002-.718-.025-1.074-.07-.372-.047-.744-.11-1.115-.19s-.733-.176-1.085-.289A20.848 20.848 0 0 1 52 18.685l.258 1.971c.34.127.685.237 1.036.329.318.083.64.15.965.199.312.046.623.083.936.11.312.026.627.04.945.04a9.776 9.776 0 0 0 2.12-.22 5.072 5.072 0 0 0 1.732-.717c.492-.326.89-.776 1.154-1.304.29-.626.43-1.311.408-2.001a4.488 4.488 0 0 0-.229-1.514 2.933 2.933 0 0 0-.657-1.075ZM72.581 19.86a.907.907 0 0 1-.776-.319 1.714 1.714 0 0 1-.219-1.055l.04-4.103a4.79 4.79 0 0 0-.16-1.274 3.13 3.13 0 0 0-.477-1.016 2.693 2.693 0 0 0-.826-.736 4.224 4.224 0 0 0-1.204-.458 7.079 7.079 0 0 0-1.573-.16c-.419 0-.838.027-1.254.08a8.62 8.62 0 0 0-1.164.229 9.683 9.683 0 0 0-1.045.348l-.239 1.693a11.686 11.686 0 0 1 1.811-.498c.273-.052.55-.088.826-.11.272-.02.54-.03.806-.03.406-.008.812.04 1.205.14.287.072.55.216.766.418.192.197.33.441.398.707.085.329.125.667.12 1.006l-.003.498-2.326.157a6.183 6.183 0 0 0-2.31.518A3.31 3.31 0 0 0 63.615 17c-.294.431-.45.942-.448 1.464-.003.49.117.973.349 1.404.243.443.61.806 1.055 1.045.543.283 1.15.42 1.761.399a4.579 4.579 0 0 0 1.682-.28 3.872 3.872 0 0 0 1.254-.796c.138-.132.269-.271.392-.417.038.206.111.405.215.587.178.305.45.543.777.677.36.145.746.216 1.134.209.12 0 .236-.004.349-.01.11-.007.22-.023.328-.05.106-.027.202-.05.288-.07.079-.017.155-.04.23-.07l.218-1.334a1.75 1.75 0 0 1-.338.08 2.26 2.26 0 0 1-.279.02m-3.314-.896c-.215.17-.45.317-.697.438-.246.12-.507.207-.775.26a4.41 4.41 0 0 1-.847.078 2.244 2.244 0 0 1-.945-.179 1.299 1.299 0 0 1-.587-.507 1.49 1.49 0 0 1-.2-.787 1.51 1.51 0 0 1 .26-.936 1.52 1.52 0 0 1 .835-.498 6.073 6.073 0 0 1 1.553-.159h1.743l-.009 1.976a2.652 2.652 0 0 1-.332.314M70.53 6h-2.149L66.69 9.564h1.553L70.53 6ZM88.842 11.158a3.464 3.464 0 0 0-1.771-.419 4.66 4.66 0 0 0-1.573.27 5.541 5.541 0 0 0-1.432.766 7.151 7.151 0 0 0-.707.597 2.496 2.496 0 0 0-1.025-1.195 3.507 3.507 0 0 0-1.792-.418c-.532 0-1.06.091-1.562.27a5.656 5.656 0 0 0-1.861 1.088v-1.358l-2.03.299v10.056h2.03V13.54a6.43 6.43 0 0 1 .746-.421c.316-.15.646-.266.985-.348.313-.078.634-.118.956-.12a2.2 2.2 0 0 1 .865.15c.229.096.43.246.588.437.173.223.292.481.348.757.078.357.115.72.11 1.085v6.034h2.03v-6.452a8.077 8.077 0 0 0-.077-1.139c.23-.15.469-.29.714-.414.31-.156.638-.277.975-.358.32-.079.647-.119.975-.12.293-.007.584.044.857.15.232.094.437.245.597.438.173.221.292.48.348.756.078.357.114.72.11 1.085v6.054h2.03v-6.472a5.789 5.789 0 0 0-.358-2.21 2.566 2.566 0 0 0-1.076-1.274ZM93.282 21.114h2.03V10.76l-2.03.298v10.056ZM95.023 6.587a1.289 1.289 0 0 0-.687-.189 1.34 1.34 0 0 0-.696.19 1.458 1.458 0 0 0-.508.497 1.287 1.287 0 0 0-.189.687 1.37 1.37 0 0 0 .697 1.195c.212.12.453.181.696.18.241.002.478-.06.687-.18.205-.118.373-.29.488-.498a1.4 1.4 0 0 0 .179-.697c.003-.24-.06-.478-.18-.687a1.408 1.408 0 0 0-.487-.498ZM107.274 10.889c-.373.1-.728.254-1.055.458-.34.212-.654.462-.936.746-.047.048-.092.1-.139.15v-1.484l-2.03.299v10.056h2.03v-7.523a5.121 5.121 0 0 1 1.085-.581c.205-.08.414-.15.627-.21a4.249 4.249 0 0 1 1.393-.149l.239-1.872a3.784 3.784 0 0 0-1.214.11ZM118.699 19.86a.907.907 0 0 1-.776-.319 1.713 1.713 0 0 1-.219-1.055l.04-4.103a4.807 4.807 0 0 0-.159-1.274 3.138 3.138 0 0 0-.478-1.016 2.693 2.693 0 0 0-.826-.736 4.23 4.23 0 0 0-1.204-.458 7.083 7.083 0 0 0-1.573-.16c-.419 0-.838.027-1.254.08a8.6 8.6 0 0 0-1.164.229 9.618 9.618 0 0 0-1.045.348l-.239 1.693a11.702 11.702 0 0 1 1.811-.498c.273-.052.549-.088.826-.11.272-.02.541-.03.806-.03.406-.008.811.04 1.205.14.287.072.55.216.766.418.192.197.329.441.398.707.085.329.125.667.12 1.006l-.003.498-2.326.157a6.182 6.182 0 0 0-2.309.518A3.31 3.31 0 0 0 109.732 17a2.58 2.58 0 0 0-.448 1.464c-.003.49.116.973.349 1.404.243.443.61.806 1.055 1.045.543.283 1.15.42 1.761.399a4.579 4.579 0 0 0 1.682-.28 3.87 3.87 0 0 0 1.254-.796c.138-.132.269-.271.392-.417.038.206.111.405.215.587.178.305.451.543.777.677.36.145.746.216 1.134.209.12 0 .236-.004.348-.01.111-.007.221-.023.329-.05.106-.027.202-.05.288-.07a1.56 1.56 0 0 0 .229-.07l.219-1.334c-.11.038-.223.065-.338.08a2.261 2.261 0 0 1-.279.02m-3.314-.896c-.216.17-.449.317-.696.438a3.17 3.17 0 0 1-.776.26c-.279.053-.563.08-.847.078a2.242 2.242 0 0 1-.945-.179 1.295 1.295 0 0 1-.587-.507 1.487 1.487 0 0 1-.199-.787c-.02-.332.071-.661.258-.936.217-.253.511-.428.836-.498a6.077 6.077 0 0 1 1.553-.159h1.743l-.009 1.976a2.586 2.586 0 0 1-.332.314M128.115 11.223c-.02-.008-.039-.018-.06-.025a6.878 6.878 0 0 0-2.527-.458 4.859 4.859 0 0 0-4.319 2.559 6.13 6.13 0 0 0-.697 3.036 6.142 6.142 0 0 0 .527 2.649c.323.71.85 1.31 1.513 1.722.714.42 1.531.63 2.359.607a5.536 5.536 0 0 0 1.503-.199c.487-.14.953-.348 1.383-.617.149-.093.299-.195.447-.303l.25.92h1.652V6.1l-2.031.278v4.845Zm-1.065 8.189a4.174 4.174 0 0 1-1.423.289 3.226 3.226 0 0 1-1.632-.389 2.487 2.487 0 0 1-1.035-1.195 4.992 4.992 0 0 1-.358-2.021 4.713 4.713 0 0 1 .398-2.061 2.806 2.806 0 0 1 1.144-1.255 3.522 3.522 0 0 1 1.782-.428 6.044 6.044 0 0 1 1.881.289c.097.03.204.072.308.11v6.138a6.549 6.549 0 0 1-1.065.523ZM134.991 6.587a1.292 1.292 0 0 0-.687-.189 1.336 1.336 0 0 0-.696.19 1.45 1.45 0 0 0-.507.497 1.282 1.282 0 0 0-.19.687 1.368 1.368 0 0 0 .697 1.195c.212.12.453.181.696.18.241.002.478-.06.687-.18.205-.118.373-.29.488-.498.119-.212.181-.453.179-.697a1.346 1.346 0 0 0-.179-.687 1.411 1.411 0 0 0-.488-.498ZM133.249 21.114h2.03V10.76l-2.03.298v10.056ZM147.381 13.179a4.345 4.345 0 0 0-1.761-1.802 5.987 5.987 0 0 0-5.414.02 4.596 4.596 0 0 0-1.812 1.851 5.858 5.858 0 0 0-.646 2.828c-.026.974.182 1.94.606 2.818a4.16 4.16 0 0 0 1.742 1.802c.81.424 1.714.637 2.628.617a5.607 5.607 0 0 0 2.747-.657 4.64 4.64 0 0 0 1.861-1.872c.462-.883.691-1.87.666-2.867a5.767 5.767 0 0 0-.617-2.738Zm-1.881 4.868a2.708 2.708 0 0 1-1.084 1.245 3.097 3.097 0 0 1-1.593.408 2.829 2.829 0 0 1-1.552-.418 2.803 2.803 0 0 1-1.035-1.254 5.016 5.016 0 0 1-.377-2.071 4.69 4.69 0 0 1 .378-2.012 2.644 2.644 0 0 1 1.065-1.194 3.217 3.217 0 0 1 1.642-.399c.448-.01.892.074 1.304.25.361.162.675.412.916.726.256.342.442.73.547 1.145.124.485.185.983.179 1.484a4.965 4.965 0 0 1-.388 2.09"/></svg>