<svg xmlns="http://www.w3.org/2000/svg" viewBox="0 0 83 16"><path fill="#fff" d="M0 15V1.001h4.593v14H0ZM10.843 3.23 13.484 15H8.457L5.303 1.001h2.82a2.655 2.655 0 0 1 1.764.641c.491.404.829.964.956 1.587ZM14.174 15V1.001h4.594v14h-4.594Zm8.063-8.675a2.737 2.737 0 0 1-1.409-.375 2.778 2.778 0 0 1-1.015-1.015 2.735 2.735 0 0 1-.375-1.41 2.685 2.685 0 0 1 .375-1.4 2.812 2.812 0 0 1 3.824-1.005c.415.244.761.59 1.005 1.005.251.424.38.908.375 1.4.005.495-.125.982-.375 1.41a2.8 2.8 0 0 1-1.005 1.015c-.424.251-.908.38-1.4.375ZM25.727 15V1.001h4.594v14h-4.594Zm10.409-6.349c.013.014.111.175.296.483.184.309.424.703.72 1.183a384.573 384.573 0 0 1 1.862 3.056c.289.48.617 1.023.986 1.627h-5.047l-.858-1.39c-.256-.414-.529-.86-.817-1.34-.29-.48-.576-.947-.858-1.4a71.337 71.337 0 0 1-.73-1.193 21.112 21.112 0 0 0-.424-.69A2.04 2.04 0 0 1 30.932 8c.019-.338.128-.665.315-.947.078-.131.223-.365.433-.7a216.7 216.7 0 0 0 1.598-2.603l.817-1.35.858-1.4H40l-3.904 6.368c-.12.19-.189.407-.197.632.013.235.095.461.236.65h.001Z"/><path fill="#C8A1F5" d="M49.141 11.814c.004.228-.036.456-.118.67-.073.189-.187.36-.333.502-.152.142-.333.25-.53.315a2.16 2.16 0 0 1-.707.108c-.157 0-.304-.007-.442-.02a8.766 8.766 0 0 1-.824-.118 10.32 10.32 0 0 1-.854-.197l.157 1.773c.184.052.36.101.53.147.17.046.34.085.51.119.176.033.353.056.53.068.184.014.386.02.609.02a4.86 4.86 0 0 0 1.345-.167c.357-.098.693-.261.99-.483.269-.203.498-.453.678-.738.178-.286.31-.599.392-.926.087-.345.13-.699.128-1.054V1H49.14v10.814ZM62.821 13.744a.893.893 0 0 1-.765-.315 1.7 1.7 0 0 1-.216-1.044l.04-4.058a4.753 4.753 0 0 0-.158-1.26 3.101 3.101 0 0 0-.471-1.005 2.664 2.664 0 0 0-.814-.729c-.37-.21-.771-.363-1.188-.452a6.96 6.96 0 0 0-1.55-.158 9.67 9.67 0 0 0-1.237.079c-.387.049-.771.124-1.148.226-.35.095-.694.21-1.03.345l-.236 1.674a11.688 11.688 0 0 1 1.786-.492 7.17 7.17 0 0 1 .814-.108c.268-.02.533-.03.795-.03.4-.009.8.038 1.188.138.283.07.543.213.755.414.19.194.325.435.393.699.084.325.123.66.118.995l-.002.494-2.295.156a6.084 6.084 0 0 0-2.276.511 3.268 3.268 0 0 0-1.345 1.094 2.55 2.55 0 0 0-.441 1.447 2.89 2.89 0 0 0 .343 1.389c.24.438.602.797 1.04 1.034.536.28 1.134.415 1.737.394a4.511 4.511 0 0 0 1.659-.276c.459-.18.879-.447 1.236-.788.136-.13.265-.268.386-.412.038.204.11.4.213.58.175.302.444.537.765.67.356.143.736.213 1.12.207.117 0 .232-.004.343-.01a1.79 1.79 0 0 0 .323-.05l.285-.069c.077-.017.152-.04.226-.069l.216-1.319c-.109.037-.22.064-.334.079a2.258 2.258 0 0 1-.275.019Zm-3.268-.886a3.775 3.775 0 0 1-.687.433c-.243.119-.5.205-.765.256-.275.053-.554.08-.834.079-.32.009-.638-.051-.933-.178a1.28 1.28 0 0 1-.579-.502 1.476 1.476 0 0 1-.196-.777c-.019-.329.07-.655.255-.927a1.5 1.5 0 0 1 .825-.492 5.961 5.961 0 0 1 1.53-.157h1.72l-.01 1.955c-.1.112-.208.216-.326.31ZM72.713 6.338l-.235-1.399h-7.576l-.236 1.576h5.7l-5.876 7.13.235 1.34h8.008l.216-1.596h-6l5.764-7.05ZM76.842 13.39l5.764-7.052-.236-1.398h-7.576l-.236 1.575h5.7l-5.877 7.13.236 1.34h8.008l.216-1.596h-6Z"/></svg>