<svg xmlns="http://www.w3.org/2000/svg" viewBox="0 0 135 24"><path fill="#fff" d="M0 17.997v-12h3.937v12H0Zm9.294-10.09 2.264 10.09H7.25l-2.704-12h2.417a2.276 2.276 0 0 1 1.513.55c.42.346.71.826.819 1.36Zm2.855 10.09v-12h3.938v12h-3.938Zm6.912-7.436a2.381 2.381 0 0 1-2.078-1.191 2.345 2.345 0 0 1-.322-1.209 2.301 2.301 0 0 1 .321-1.2A2.41 2.41 0 0 1 20.26 6.1c.356.21.653.506.862.862.215.363.326.778.321 1.2a2.35 2.35 0 0 1-.321 1.208 2.4 2.4 0 0 1-.862.87 2.302 2.302 0 0 1-1.2.322Zm2.99 7.436v-12h3.938v12h-3.937Zm8.923-5.442c.01.011.095.15.253.414s.364.602.617 1.014a315.936 315.936 0 0 1 1.597 2.62c.247.41.529.876.845 1.394H29.96c-.27-.44-.516-.837-.736-1.192-.22-.355-.453-.738-.7-1.149-.248-.41-.493-.81-.736-1.2-.242-.389-.45-.73-.625-1.022a18.04 18.04 0 0 0-.363-.592 1.747 1.747 0 0 1-.287-.845c.016-.29.11-.57.27-.811.067-.113.191-.313.371-.6s.392-.628.634-1.023c.242-.394.488-.797.736-1.208l.7-1.158.736-1.2h4.326l-3.346 5.46a1.08 1.08 0 0 0-.17.54c.012.202.082.396.203.558Z"/><path fill="#FFC7BD" d="M39 17.998h1.775v-4.952h4.529l.186-1.47h-4.715v-4.09h6.134V6H39v12ZM53.948 9.735a4.637 4.637 0 0 0-2.29-.541 4.617 4.617 0 0 0-2.307.557 3.898 3.898 0 0 0-1.538 1.572 4.967 4.967 0 0 0-.55 2.4 5.182 5.182 0 0 0 .516 2.391c.324.65.84 1.184 1.48 1.53.687.36 1.454.54 2.23.524a4.765 4.765 0 0 0 2.332-.558 3.94 3.94 0 0 0 1.58-1.589c.393-.75.588-1.587.567-2.433a4.895 4.895 0 0 0-.524-2.324 3.694 3.694 0 0 0-1.496-1.53Zm-.102 5.661c-.189.44-.51.809-.92 1.056a2.622 2.622 0 0 1-1.352.347 2.403 2.403 0 0 1-1.319-.355 2.382 2.382 0 0 1-.879-1.064 4.266 4.266 0 0 1-.32-1.758c-.02-.585.09-1.168.32-1.707.19-.423.506-.777.905-1.014a2.735 2.735 0 0 1 1.394-.338c.38-.01.757.063 1.107.211.306.138.574.35.778.617.217.29.375.62.464.972.106.411.157.835.152 1.26a4.203 4.203 0 0 1-.33 1.773ZM60.725 16.756c-.06.006-.118.01-.178.009a.91.91 0 0 1-.371-.068.61.61 0 0 1-.254-.211.916.916 0 0 1-.143-.364 2.777 2.777 0 0 1-.043-.524V5.238l-1.724.254V16.36c-.007.285.04.569.136.837a1.41 1.41 0 0 0 .988.878c.246.064.499.096.752.093.136 0 .265-.005.39-.016a3.704 3.704 0 0 0 .659-.118l.168-1.336-.203.034c-.067.011-.126.02-.177.025ZM70.18 9.38h-2.112l-2.892 3.176h-.623V5.24l-1.723.253v12.506h1.723v-4.14h.028l3.453 4.14h2.231l-4.1-4.619 4.016-4ZM77.735 10.47a3.067 3.067 0 0 0-1.242-.956 4.338 4.338 0 0 0-1.716-.32 4.202 4.202 0 0 0-1.724.337c-.495.217-.936.54-1.292.947a4.136 4.136 0 0 0-.812 1.461 6.109 6.109 0 0 0-.278 1.902 5.118 5.118 0 0 0 .498 2.357c.321.637.84 1.153 1.479 1.47.75.354 1.572.524 2.4.5.398.003.796-.023 1.19-.077a5.704 5.704 0 0 0 1.886-.617l.118-1.301c-.214.079-.431.158-.651.237-.22.078-.448.149-.684.21a5.094 5.094 0 0 1-.727.136 6.437 6.437 0 0 1-.744.042 5.334 5.334 0 0 1-1.318-.143 2.17 2.17 0 0 1-.938-.49 2.14 2.14 0 0 1-.574-.938 4.275 4.275 0 0 1-.185-1.116h6.108c.083-.699.052-1.407-.093-2.096a3.95 3.95 0 0 0-.701-1.546Zm-4.259.405a2.39 2.39 0 0 1 1.318-.347c.464-.023.923.111 1.302.38.336.27.576.64.684 1.057.084.308.126.627.123.946H72.46c.03-.337.103-.669.214-.989.144-.428.427-.796.803-1.047ZM92.32 9.548a2.94 2.94 0 0 0-1.505-.355 3.952 3.952 0 0 0-1.335.228 4.705 4.705 0 0 0-1.216.651c-.21.156-.411.325-.6.507a2.12 2.12 0 0 0-.871-1.014 2.977 2.977 0 0 0-1.521-.355c-.452 0-.9.077-1.327.228a4.812 4.812 0 0 0-1.58.924V9.211l-1.724.253V18h1.724v-6.428c.203-.133.415-.252.634-.357.268-.127.548-.226.836-.296.266-.066.538-.1.812-.102.25-.007.5.036.735.127.193.082.364.21.498.372.147.189.248.408.296.642.066.303.097.612.093.921V18h1.724v-5.476a6.806 6.806 0 0 0-.065-.966c.195-.129.397-.246.606-.352.263-.133.54-.235.828-.304.27-.067.549-.1.828-.102a1.88 1.88 0 0 1 .727.127c.197.08.37.208.507.372.147.188.248.408.295.642.066.302.097.611.093.92V18h1.724v-5.493a4.918 4.918 0 0 0-.304-1.876 2.177 2.177 0 0 0-.913-1.082ZM101.783 15.895c-.127.077-.253.15-.38.21a6.382 6.382 0 0 1-.617.263 4.04 4.04 0 0 1-.617.169c-.214.04-.432.06-.65.059a2.087 2.087 0 0 1-1.031-.228 1.374 1.374 0 0 1-.6-.693 2.955 2.955 0 0 1-.195-1.14V9.21l-1.724.253v5.374c-.02.642.092 1.28.33 1.876.196.47.548.858.997 1.099.5.25 1.055.371 1.614.355a4.062 4.062 0 0 0 1.986-.499c.305-.167.593-.363.862-.583.049-.04.098-.088.148-.13l.249 1.042h1.335l.017-8.788-1.724.253v6.432ZM111.484 14.111a2.539 2.539 0 0 0-.592-.465 4.574 4.574 0 0 0-.71-.33c-.18-.055-.357-.115-.532-.177a9.397 9.397 0 0 0-.524-.169 10.52 10.52 0 0 1-.507-.16 3.709 3.709 0 0 1-.448-.186 2.925 2.925 0 0 1-.397-.254 1.096 1.096 0 0 1-.287-.32.804.804 0 0 1-.11-.423.87.87 0 0 1 .118-.465.962.962 0 0 1 .355-.33c.177-.096.368-.165.566-.203.248-.047.5-.07.752-.067a5.474 5.474 0 0 1 .887.077c.175.028.35.064.524.109.175.044.352.096.533.152.167.052.33.114.49.186l.118-1.369a8.115 8.115 0 0 0-.634-.237 6.276 6.276 0 0 0-.633-.169 5.121 5.121 0 0 0-.634-.093 7.642 7.642 0 0 0-.617-.025 5.573 5.573 0 0 0-1.386.16 3.507 3.507 0 0 0-1.09.474 2.16 2.16 0 0 0-.718.794 2.413 2.413 0 0 0-.254 1.14c-.005.286.041.569.136.837.08.226.2.435.355.617.15.173.323.323.515.448.199.131.412.242.634.33a23.674 23.674 0 0 0 .786.262 40.851 40.851 0 0 1 .743.236c.118.04.234.076.347.11.151.053.298.118.439.194.124.066.24.145.346.237a.86.86 0 0 1 .296.667.848.848 0 0 1-.279.668 1.62 1.62 0 0 1-.726.346c-.314.07-.634.104-.955.102a4.683 4.683 0 0 1-.6-.042 8.864 8.864 0 0 1-.693-.119c-.242-.05-.49-.112-.744-.186a15.853 15.853 0 0 1-.769-.244l.068 1.436c.293.102.56.183.803.245.242.062.473.116.693.16.211.045.426.073.642.085.208.011.419.017.634.017.471.002.941-.046 1.402-.144a3.623 3.623 0 0 0 1.15-.448c.319-.195.584-.468.768-.794.194-.357.29-.76.279-1.166a2.369 2.369 0 0 0-.143-.87 1.985 1.985 0 0 0-.397-.634ZM115.547 5.67a1.092 1.092 0 0 0-.583-.161 1.135 1.135 0 0 0-.591.16 1.248 1.248 0 0 0-.431.423 1.1 1.1 0 0 0-.161.583 1.14 1.14 0 0 0 .161.592c.103.176.252.322.431.422.18.101.384.154.591.152.205.003.406-.05.583-.152.174-.1.317-.247.414-.422.102-.181.154-.385.152-.592a1.136 1.136 0 0 0-.152-.583 1.194 1.194 0 0 0-.414-.422ZM114.069 17.998h1.724V9.21l-1.724.254v8.534ZM125.781 9.38h-2.112l-2.892 3.176h-.624V5.24l-1.723.253v12.506h1.723v-4.14h.029l3.452 4.14h2.231l-4.099-4.619 4.015-4ZM132.507 17.998h2.231l-4.099-4.62 4.015-3.999h-2.113l-2.892 3.177h-.623V5.24l-1.724.253v12.506h1.724v-4.14h.028l3.453 4.14Z"/></svg>