<svg width="131" height="56" viewBox="0 0 131 56" fill="none" xmlns="http://www.w3.org/2000/svg">
<path d="M0 15.0033V1.00453H4.59339V15.0033H0ZM10.8428 3.2325L13.4844 15.0033H8.45737L5.30307 1.00453H8.12254C8.76907 0.996136 9.39641 1.22405 9.88691 1.64538C10.3782 2.04903 10.7158 2.6094 10.8428 3.2325ZM14.1744 15.0033V1.00453H18.7678V15.0033H14.1744ZM22.2372 6.32804C21.7422 6.33286 21.2552 6.20336 20.828 5.95338C20.4064 5.70973 20.0563 5.35954 19.8127 4.93795C19.5624 4.51064 19.4329 4.02348 19.4378 3.52829C19.4321 3.03613 19.5618 2.55186 19.8127 2.12842C20.0589 1.71141 20.4086 1.36503 20.828 1.12286C21.2553 0.873175 21.7423 0.743689 22.2372 0.748203C22.7292 0.742904 23.2133 0.872505 23.6369 1.12286C24.0521 1.36715 24.3981 1.71324 24.6424 2.12842C24.893 2.55198 25.0226 3.03616 25.0172 3.52829C25.0218 4.02344 24.8923 4.51052 24.6424 4.93795C24.4007 5.35769 24.0542 5.70758 23.6369 5.95338C23.2133 6.20423 22.7289 6.33386 22.2366 6.32804H22.2372ZM25.7269 15.0033V1.00453H30.3207V15.0033H25.7269ZM36.136 8.65453C36.1489 8.66811 36.2475 8.82912 36.4317 9.13757C36.6159 9.44602 36.8558 9.84039 37.1513 10.3206C37.447 10.8006 37.759 11.3099 38.0874 11.8486C38.4157 12.3873 38.7247 12.8967 39.0143 13.3767C39.3028 13.8566 39.6313 14.3988 40 15.0033H34.9531C34.6375 14.4906 34.3515 14.0273 34.0952 13.6132C33.8389 13.1992 33.5665 12.7523 33.2778 12.2725C32.9885 11.7932 32.7024 11.3265 32.4196 10.8726C32.1368 10.4187 31.8938 10.0211 31.6905 9.67982C31.4863 9.33829 31.3449 9.10823 31.2663 8.98971C31.0713 8.69561 30.9559 8.35593 30.9315 8.00389C30.951 7.66601 31.0597 7.33939 31.2466 7.05722C31.3254 6.92577 31.47 6.69242 31.6803 6.35724C31.8906 6.02206 32.137 5.62448 32.4196 5.16443C32.7021 4.70438 32.9882 4.23446 33.2778 3.75469C33.5674 3.27492 33.8398 2.8247 34.0952 2.40408C34.3519 1.9839 34.6379 1.51727 34.9531 1.00421H40L36.0962 7.37267C35.9754 7.56175 35.9073 7.77966 35.8991 8.00389C35.9121 8.2393 35.9942 8.46563 36.1353 8.65453H36.136Z" fill="white"/>
<path d="M10.6144 21.005H8.1542L2.80739 27.1653H2.07262V21.005H0.00605912V34.9789H2.07262V28.6611H2.14182L7.95735 34.9985L10.7718 34.9789L4.09947 28.051L10.6144 21.005Z" fill="white"/>
<path d="M16.4595 24.8724C16.0913 24.9711 15.7399 25.1236 15.4164 25.3251C15.0806 25.5347 14.7702 25.7823 14.4913 26.0632C14.4447 26.1094 14.3998 26.1616 14.3536 26.2104V24.7445L12.346 25.0397V34.9789H14.3536V27.5432C14.5061 27.4382 14.6599 27.3398 14.8161 27.2539C15.013 27.1454 15.217 27.0501 15.4265 26.9685C15.6295 26.8898 15.836 26.8209 16.0462 26.7619C16.2622 26.7018 16.4827 26.659 16.7055 26.6339C16.944 26.6074 17.1842 26.6008 17.4238 26.6142L17.6601 24.7642C17.2567 24.7352 16.8512 24.7718 16.4595 24.8724Z" fill="white"/>
<path d="M19.4898 34.9789H21.4974V24.7445L19.4898 25.0397V34.9789Z" fill="white"/>
<path d="M19.8444 22.9732C20.0546 23.0913 20.292 23.1524 20.5332 23.1503C20.7712 23.1532 21.0057 23.092 21.2119 22.9732C21.4145 22.8561 21.5813 22.686 21.6944 22.4811C21.8125 22.2709 21.8736 22.0334 21.8715 21.7923C21.8743 21.5542 21.8131 21.3197 21.6944 21.1133C21.5775 20.9113 21.4115 20.7421 21.2119 20.6212C21.0077 20.4964 20.7725 20.4316 20.5332 20.4343C20.2908 20.4324 20.0526 20.4971 19.8444 20.6212C19.6392 20.7414 19.4669 20.9105 19.3428 21.1133C19.2178 21.3175 19.1529 21.5529 19.1558 21.7923C19.1537 22.0347 19.2184 22.273 19.3428 22.4811C19.4631 22.687 19.6363 22.8568 19.8444 22.9732Z" fill="white"/>
<path d="M29.6853 26.5946C30.0065 26.5871 30.3264 26.6371 30.63 26.7422C30.8805 26.8324 31.104 26.9848 31.2795 27.185C31.4602 27.4021 31.5882 27.6581 31.6535 27.9329C31.7375 28.2807 31.7771 28.6379 31.7715 28.9957V34.9788H33.7791V28.5824C33.8052 27.8362 33.678 27.0927 33.4051 26.3977C33.1829 25.864 32.7878 25.4204 32.2832 25.1381C31.6985 24.8428 31.0485 24.7006 30.3938 24.7248C29.8225 24.7259 29.2549 24.8156 28.7111 24.9905C28.1507 25.169 27.6175 25.424 27.1267 25.7483C26.9368 25.8732 26.7541 26.0107 26.5757 26.1517V24.7445L24.5681 25.0397V34.9788H26.5757V27.5038C26.77 27.39 26.9704 27.2869 27.176 27.1948C27.4524 27.0723 27.7348 26.9639 28.0222 26.8701C28.2986 26.7796 28.5816 26.7105 28.8685 26.6634C29.1385 26.6185 29.4117 26.5955 29.6853 26.5946Z" fill="white"/>
<path d="M44.153 38.7675C44.8698 38.4334 44.6803 37.8918 45.0857 37.2127C45.4818 36.5145 45.6824 35.7224 45.6663 34.9198V24.7248L43.7412 25.2201C43.5189 25.1261 43.2909 25.0461 43.0585 24.9807C42.7579 24.8984 42.4521 24.8359 42.1433 24.7937C41.7911 24.7462 41.436 24.7232 41.0805 24.7248C40.4384 24.7221 39.8024 24.8493 39.2108 25.0988C38.6179 25.3498 38.0797 25.7142 37.6264 26.1714C37.1433 26.6645 36.7709 27.255 36.5341 27.9034C36.2595 28.6633 36.1261 29.4671 36.1405 30.275C36.1189 31.1638 36.29 32.0467 36.642 32.8631C36.9506 33.5613 37.4615 34.1508 38.1086 34.5557C38.8168 34.9734 39.629 35.1816 40.4507 35.156C41.1726 35.1534 41.8873 35.0131 42.5566 34.7427C42.9564 34.5795 43.3334 34.3653 43.6781 34.1053V34.6443C43.6862 35.0877 43.6232 35.5296 43.4915 35.9531C43.3778 36.3084 43.1823 36.632 42.9207 36.8978C42.6387 37.1686 42.2937 37.3648 41.9167 37.4685C41.4266 37.6032 40.9195 37.6662 40.4113 37.6555C40.0069 37.6549 39.6028 37.6319 39.201 37.5866C38.7791 37.5388 38.3614 37.4599 37.9512 37.3505C37.5286 37.2379 37.1142 37.0965 36.7109 36.9273L37.7168 38.6593C38.0787 38.8061 38.4504 38.9278 38.8292 39.0234C39.2274 39.1239 39.6316 39.1995 40.0392 39.2497C40.4702 39.3027 40.904 39.329 41.3382 39.3285C42.307 39.3588 43.2698 39.1669 44.153 38.7675ZM43.4223 32.8631C43.1785 33.0047 42.9255 33.1297 42.6649 33.237C42.4351 33.3314 42.198 33.4071 41.956 33.4634C41.7204 33.5165 41.4795 33.5429 41.238 33.5421C40.6468 33.5635 40.0603 33.4313 39.5355 33.1583C39.078 32.8974 38.7238 32.4876 38.5318 31.9971C38.2945 31.3587 38.1842 30.6801 38.207 29.9995C38.1982 29.4563 38.2744 28.915 38.433 28.3954C38.562 27.9684 38.7839 27.5752 39.0828 27.244C39.3739 26.9362 39.7302 26.6975 40.1256 26.5454C40.5749 26.375 41.0524 26.2915 41.5328 26.2993C41.843 26.2989 42.1526 26.3253 42.4582 26.3781C42.7711 26.4333 43.0802 26.5089 43.3833 26.6044C43.4797 26.6346 43.58 26.6746 43.6784 26.7113V32.7122C43.5918 32.7634 43.5043 32.8165 43.4223 32.8631Z" fill="white"/>
<path d="M50.7241 30.1569H50.7569L54.7782 34.9789H57.3761L52.6021 29.5993L57.2777 24.9413H54.8175L51.4501 28.6424H50.7241V20.1204L48.7166 20.4156V34.9798H50.7241V30.1569Z" fill="white"/>
<path d="M64.6812 33.7005C64.7196 33.9042 64.7916 34.1001 64.8944 34.2802C65.0699 34.5814 65.3397 34.8165 65.662 34.9493C66.0184 35.0925 66.3998 35.1627 66.7838 35.156C66.9019 35.156 67.0167 35.1527 67.1283 35.1461C67.2378 35.1396 67.3464 35.1231 67.453 35.0969C67.558 35.0704 67.6528 35.0477 67.7384 35.028C67.8155 35.0106 67.8913 34.9876 67.965 34.9592L68.1812 33.6405C68.0725 33.6777 67.9604 33.704 67.8466 33.7192C67.7552 33.7314 67.6633 33.738 67.5711 33.7389C67.4273 33.7521 67.2823 33.7303 67.1487 33.6755C67.015 33.6207 66.8966 33.5344 66.8035 33.424C66.6211 33.1086 66.5452 32.7428 66.587 32.3809L66.6264 28.3265C66.6307 27.9015 66.5778 27.4778 66.4689 27.0669C66.3733 26.7066 66.2134 26.3666 65.9969 26.0632C65.7778 25.7666 65.4996 25.5186 65.1798 25.3349C64.8084 25.124 64.4068 24.9713 63.989 24.8823C63.4783 24.7719 62.9567 24.7191 62.4342 24.7248C62.0196 24.7246 61.6055 24.7509 61.1943 24.8035C60.8057 24.8524 60.421 24.9281 60.0429 25.0299C59.6922 25.1251 59.3473 25.2401 59.0097 25.3743L58.7735 27.0472C59.1015 26.9291 59.4133 26.8307 59.7087 26.752C60.0041 26.6733 60.2894 26.6077 60.5645 26.5552C60.8345 26.5036 61.1072 26.4675 61.3813 26.4469C61.6502 26.4273 61.9159 26.4174 62.1783 26.4174C62.5797 26.4088 62.9803 26.4552 63.3691 26.5552C63.6528 26.6261 63.9137 26.7684 64.1269 26.9685C64.3166 27.1632 64.4522 27.404 64.5205 27.6672C64.6041 27.9917 64.6437 28.326 64.6382 28.6611L64.636 29.1548L62.3355 29.3106C61.5486 29.3325 60.7734 29.5063 60.0524 29.8223C59.5129 30.0583 59.0471 30.4357 58.7043 30.9146C58.4134 31.3407 58.2589 31.8453 58.2614 32.3612C58.2578 32.8453 58.3763 33.3225 58.6059 33.7488C58.8467 34.1865 59.2089 34.5454 59.649 34.782C60.1859 35.0613 60.786 35.1969 61.3908 35.1757C61.9575 35.1887 62.5217 35.0952 63.0539 34.9001C63.514 34.72 63.935 34.4527 64.2938 34.1129C64.4301 33.9823 64.5594 33.8447 64.6812 33.7005ZM62.838 33.5421C62.5622 33.5952 62.2821 33.6216 62.0013 33.6208C61.6805 33.63 61.3616 33.5695 61.0664 33.4437C60.8262 33.3394 60.6237 33.1643 60.4858 32.9418C60.3494 32.7059 60.2813 32.4368 60.2889 32.1644C60.2699 31.8363 60.3599 31.5111 60.5448 31.2394C60.759 30.9893 61.0494 30.8164 61.3714 30.7473C61.8743 30.6288 62.3905 30.5759 62.9069 30.5899H64.63L64.6211 32.5433C64.5209 32.6559 64.4112 32.7596 64.2931 32.8532C64.0797 33.0219 63.8488 33.167 63.6043 33.2862C63.3611 33.4044 63.1034 33.4905 62.838 33.5421Z" fill="white"/>
<path d="M76.5756 33.5628C76.8008 33.1463 76.9127 32.678 76.9 32.2047C76.9083 31.8594 76.8515 31.5155 76.7327 31.1912C76.6268 30.918 76.4698 30.6675 76.2702 30.4531C76.0687 30.2395 75.8366 30.0571 75.5813 29.9119C75.3173 29.7606 75.0407 29.6322 74.7547 29.5281C74.5448 29.4625 74.3382 29.3936 74.1348 29.3214C73.9314 29.2493 73.728 29.1836 73.5246 29.1246C73.3213 29.0655 73.1244 29.0032 72.9342 28.9376C72.7558 28.8769 72.5816 28.8046 72.4127 28.7211C72.2509 28.6352 72.0961 28.5365 71.9501 28.4259C71.8152 28.3243 71.7015 28.1973 71.6155 28.052C71.5289 27.9027 71.4847 27.7325 71.4876 27.5599C71.4822 27.3702 71.53 27.1827 71.6257 27.0187C71.7283 26.8576 71.8705 26.7254 72.0387 26.6349C72.2446 26.5219 72.4671 26.4421 72.698 26.3987C72.9866 26.3434 73.28 26.317 73.5738 26.32C73.7181 26.32 73.8757 26.3266 74.0465 26.3397C74.2173 26.3528 74.4043 26.3758 74.6074 26.4086C74.8104 26.4414 75.0136 26.484 75.2172 26.5365C75.4208 26.589 75.6276 26.648 75.8375 26.7136C76.0321 26.7736 76.2226 26.8459 76.408 26.9301L76.546 25.3359C76.2965 25.231 76.0505 25.1391 75.808 25.0604C75.5656 24.9819 75.3192 24.9162 75.0699 24.8636C74.8264 24.812 74.5799 24.7758 74.3319 24.7553C74.0885 24.7357 73.8494 24.7258 73.6132 24.7258C73.0695 24.7203 72.5274 24.7831 71.9994 24.9128C71.5478 25.0226 71.1184 25.209 70.7299 25.4639C70.3777 25.697 70.09 26.0151 69.8934 26.3889C69.6878 26.8009 69.5865 27.2571 69.5982 27.7174C69.5921 28.0489 69.6454 28.3789 69.7556 28.6916C69.8492 28.954 69.9892 29.1973 70.169 29.41C70.344 29.6107 70.546 29.7862 70.7693 29.9315C71.0018 30.0839 71.249 30.2125 71.5073 30.3153C71.6516 30.3678 71.8025 30.4203 71.96 30.4728C72.1177 30.5253 72.2712 30.5745 72.4224 30.6204C72.5737 30.6663 72.721 30.7122 72.8653 30.7582C73.0096 30.8041 73.1507 30.85 73.2885 30.8959C73.4262 30.9419 73.5607 30.9845 73.6919 31.0239C73.868 31.0862 74.0391 31.1618 74.2037 31.2502C74.3481 31.3267 74.4836 31.4191 74.6074 31.5257C74.7162 31.621 74.8033 31.7385 74.863 31.8702C74.9231 32.0065 74.9533 32.1541 74.9516 32.3031C74.9586 32.4487 74.933 32.594 74.8768 32.7285C74.8207 32.863 74.7353 32.9832 74.6268 33.0806C74.3831 33.2841 74.092 33.4228 73.7805 33.484C73.4154 33.5646 73.0424 33.6042 72.6684 33.6021C72.4347 33.6005 72.2014 33.5841 71.9698 33.5529C71.7139 33.5205 71.4451 33.4746 71.1632 33.4151C70.8813 33.3557 70.5925 33.2835 70.2969 33.1987C70.0016 33.1134 69.7031 33.0183 69.4014 32.9133L69.4804 34.5862C69.8213 34.7043 70.1329 34.7994 70.415 34.8716C70.6971 34.9437 70.966 35.0061 71.2219 35.0586C71.4685 35.1095 71.7184 35.1424 71.9698 35.157C72.2125 35.1699 72.4586 35.1764 72.7079 35.1766C73.2568 35.1794 73.8044 35.1233 74.3414 35.0093C74.814 34.9132 75.2667 34.7368 75.6798 34.4878C76.0519 34.2603 76.3602 33.942 76.5756 33.5628Z" fill="white"/>
<path d="M84.4872 33.3945L84.1526 33.4535C84.0451 33.4727 83.9367 33.4858 83.8278 33.4929C83.7229 33.4998 83.6242 33.5027 83.5326 33.5027C83.231 33.511 82.9315 33.4505 82.6568 33.3256C82.4205 33.2138 82.2246 33.0316 82.0959 32.8041C81.9579 32.5474 81.89 32.2589 81.8991 31.9676V26.5158H84.6742L84.8906 24.9413H81.8991V21.8317L79.8915 22.5402V24.9413H78.3761L78.1596 26.5158H79.8915V32.3809C79.8828 32.7721 79.9428 33.1618 80.0687 33.5323C80.1699 33.8253 80.3271 34.096 80.5313 34.3294C80.7185 34.5372 80.9461 34.7046 81.2004 34.8214C81.4606 34.9409 81.7349 35.0269 82.0168 35.0773C82.296 35.1287 82.5793 35.155 82.8631 35.156C83.0731 35.156 83.2799 35.1494 83.4835 35.1363C83.6865 35.1228 83.8738 35.1035 84.0444 35.0773C84.215 35.051 84.3757 35.0212 84.5266 34.9887C84.6774 34.9562 84.805 34.9267 84.9103 34.9001L85.0285 33.2666C84.9518 33.2962 84.8728 33.3192 84.7923 33.3355C84.7001 33.3551 84.5987 33.3748 84.4872 33.3945Z" fill="white"/>
<path d="M88.8372 20.6212C88.6331 20.4964 88.3979 20.4316 88.1586 20.4343C87.9162 20.4323 87.6779 20.497 87.4697 20.6212C87.2644 20.7414 87.092 20.9104 86.9678 21.1133C86.8428 21.3175 86.778 21.5529 86.7809 21.7923C86.7789 22.0347 86.8435 22.273 86.9678 22.4811C87.0882 22.687 87.2615 22.8569 87.4697 22.9732C87.6799 23.0914 87.9175 23.1525 88.1586 23.1503C88.3966 23.1532 88.631 23.092 88.8372 22.9732C89.0399 22.8562 89.2068 22.686 89.3198 22.4811C89.4381 22.2709 89.4991 22.0334 89.4969 21.7923C89.4998 21.5542 89.4387 21.3196 89.3198 21.1133C89.203 20.9113 89.037 20.742 88.8372 20.6212Z" fill="white"/>
<path d="M87.1143 34.9789H89.1219V24.7445L87.1143 25.0397V34.9789Z" fill="white"/>
<path d="M99.9074 25.1381C99.3228 24.8428 98.6728 24.7005 98.0183 24.7248C97.4469 24.7259 96.8792 24.8155 96.3353 24.9905C95.7749 25.1691 95.2419 25.4241 94.7512 25.7483C94.5609 25.8732 94.3783 26.0107 94.1998 26.1517V24.7445L92.1923 25.0397V34.9788H94.1998V27.5038C94.3942 27.39 94.5945 27.2869 94.8 27.1948C95.0765 27.0724 95.359 26.964 95.6464 26.8701C95.9228 26.7796 96.2057 26.7106 96.4927 26.6634C96.7628 26.6185 97.036 26.5955 97.3098 26.5946C97.6309 26.5871 97.9507 26.6371 98.2541 26.7422C98.5046 26.8324 98.7281 26.9848 98.9036 27.185C99.0843 27.4021 99.2124 27.6581 99.2779 27.9329C99.3617 28.2808 99.4012 28.6379 99.3957 28.9957V34.9788H101.403V28.5824C101.429 27.8363 101.302 27.0927 101.029 26.3977C100.807 25.8639 100.412 25.4203 99.9074 25.1381Z" fill="white"/>
<path d="M110.684 24.9807C110.383 24.8983 110.077 24.8359 109.768 24.7937C109.416 24.7462 109.061 24.7232 108.706 24.7248C108.064 24.722 107.428 24.8492 106.836 25.0988C106.243 25.3497 105.705 25.714 105.252 26.1714C104.768 26.6645 104.396 27.2549 104.159 27.9034C103.884 28.6634 103.751 29.4671 103.765 30.275C103.744 31.1638 103.915 32.0468 104.267 32.8631C104.576 33.5613 105.086 34.1509 105.733 34.5557C106.442 34.9734 107.254 35.1816 108.076 35.156C108.797 35.1534 109.512 35.0131 110.181 34.7427C110.581 34.5795 110.958 34.3653 111.303 34.1053V34.6443C111.311 35.0877 111.248 35.5296 111.116 35.9531C111.003 36.3084 110.807 36.632 110.546 36.8978C110.264 37.1686 109.919 37.3647 109.542 37.4685C109.052 37.6032 108.544 37.6662 108.036 37.6555C107.632 37.6549 107.228 37.6319 106.826 37.5866C106.404 37.5388 105.986 37.4598 105.576 37.3505C105.153 37.2379 104.739 37.0965 104.336 36.9273L104.553 38.6593C104.914 38.8061 105.286 38.9277 105.665 39.0234C106.063 39.124 106.467 39.1996 106.875 39.2497C107.306 39.3027 107.74 39.329 108.174 39.3285C109.143 39.3587 110.105 39.1669 110.988 38.7675C111.705 38.4334 112.305 37.8918 112.71 37.2127C113.107 36.5145 113.307 35.7224 113.291 34.9198V24.7248L111.366 25.2201C111.144 25.1261 110.916 25.0461 110.684 24.9807ZM111.047 32.8631C110.804 33.0048 110.551 33.1297 110.29 33.237C110.06 33.3314 109.823 33.4071 109.581 33.4634C109.346 33.5165 109.105 33.5429 108.863 33.5421C108.272 33.5635 107.685 33.4313 107.161 33.1583C106.703 32.8974 106.349 32.4876 106.157 31.9971C105.92 31.3587 105.809 30.6801 105.832 29.9995C105.823 29.4563 105.9 28.9151 106.058 28.3954C106.187 27.9684 106.409 27.5752 106.708 27.244C106.999 26.9361 107.356 26.6974 107.751 26.5454C108.2 26.3749 108.678 26.2914 109.158 26.2993C109.468 26.2989 109.778 26.3253 110.083 26.3781C110.396 26.4333 110.705 26.5089 111.008 26.6044C111.105 26.6346 111.205 26.6746 111.304 26.7113V32.7122C111.216 32.7634 111.129 32.8165 111.047 32.8631Z" fill="white"/>
<path d="M122.56 30.4521C122.358 30.2385 122.126 30.0561 121.871 29.9109C121.607 29.7595 121.33 29.6312 121.044 29.5271C120.834 29.4615 120.628 29.3926 120.424 29.3204C120.221 29.2483 120.018 29.1827 119.814 29.1236C119.611 29.0646 119.414 29.0022 119.224 28.9366C119.045 28.8759 118.871 28.8036 118.702 28.7201C118.541 28.6342 118.386 28.5355 118.24 28.4249C118.105 28.3234 117.991 28.1964 117.906 28.051C117.819 27.9018 117.774 27.7316 117.777 27.559C117.772 27.3692 117.82 27.1817 117.915 27.0177C118.018 26.8565 118.16 26.7243 118.329 26.6339C118.534 26.5208 118.757 26.4411 118.988 26.3977C119.276 26.3424 119.57 26.316 119.864 26.319C120.008 26.319 120.165 26.3256 120.336 26.3387C120.507 26.3518 120.694 26.3748 120.897 26.4076C121.1 26.4404 121.304 26.483 121.507 26.5355C121.71 26.588 121.917 26.647 122.127 26.7126C122.322 26.7726 122.512 26.8449 122.698 26.9291L122.836 25.3349C122.586 25.23 122.34 25.1381 122.098 25.0594C121.855 24.9809 121.609 24.9152 121.36 24.8626C121.116 24.811 120.87 24.7749 120.622 24.7543C120.378 24.7347 120.139 24.7248 119.903 24.7248C119.359 24.7193 118.817 24.7821 118.289 24.9118C117.838 25.0216 117.408 25.2079 117.02 25.4629C116.667 25.6959 116.38 26.0141 116.183 26.3879C115.978 26.7999 115.876 27.2561 115.888 27.7164C115.882 28.048 115.935 28.3779 116.046 28.6906C116.139 28.953 116.279 29.1964 116.459 29.409C116.634 29.6098 116.836 29.7853 117.06 29.9306C117.292 30.0831 117.539 30.2117 117.798 30.3143C117.942 30.3668 118.092 30.4193 118.25 30.4718C118.408 30.5243 118.562 30.5735 118.713 30.6194C118.864 30.6653 119.011 30.7113 119.155 30.7572C119.3 30.8031 119.441 30.849 119.578 30.8949C119.716 30.9409 119.851 30.9835 119.982 31.0229C120.158 31.0853 120.329 31.1609 120.494 31.2492C120.638 31.3257 120.774 31.4181 120.897 31.5247C121.006 31.6199 121.094 31.7374 121.153 31.8692C121.213 32.0054 121.244 32.1531 121.242 32.3022C121.249 32.4477 121.223 32.5931 121.167 32.7275C121.111 32.862 121.025 32.9822 120.917 33.0796C120.673 33.2831 120.382 33.4219 120.071 33.4831C119.706 33.5637 119.333 33.6033 118.959 33.6011C118.725 33.5995 118.492 33.5831 118.26 33.5519C118.004 33.5196 117.735 33.4736 117.453 33.4142C117.172 33.3547 116.883 33.2825 116.587 33.1977C116.292 33.1124 115.994 33.0173 115.692 32.9123L115.771 34.5852C116.111 34.7033 116.423 34.7984 116.705 34.8706C116.987 34.9428 117.256 35.0051 117.512 35.0576C117.759 35.1085 118.009 35.1414 118.26 35.156C118.503 35.1689 118.749 35.1754 118.998 35.1757C119.547 35.1784 120.095 35.1224 120.631 35.0084C121.104 34.9123 121.557 34.7359 121.97 34.4868C122.342 34.2595 122.65 33.9411 122.866 33.5618C123.091 33.1454 123.203 32.677 123.19 32.2038C123.198 31.8584 123.142 31.5146 123.023 31.1902C122.917 30.9169 122.76 30.6664 122.56 30.4521Z" fill="white"/>
<path d="M125.276 28.5824L125.138 30.1963H130.708L130.846 28.5824H125.276Z" fill="white"/>
<path d="M7.78643 45.3723C6.96644 44.9365 6.04787 44.7196 5.11956 44.7425C4.18275 44.7211 3.25664 44.945 2.43306 45.392C1.67266 45.8174 1.05088 46.4529 0.642063 47.2224C0.19757 48.0855 -0.0225722 49.0466 0.00203265 50.0171C-0.0229634 50.98 0.18289 51.9349 0.602342 52.8021C0.979391 53.5589 1.58079 54.1809 2.32447 54.5832C3.12506 55.0026 4.01879 55.2125 4.92239 55.1933C5.86844 55.2122 6.80357 54.9886 7.63876 54.5439C8.41837 54.1184 9.0577 53.4757 9.479 52.6938C9.93598 51.8204 10.1629 50.8451 10.1383 49.8597C10.1608 48.9211 9.95108 47.9915 9.52786 47.1535C9.13585 46.4009 8.52997 45.7812 7.78643 45.3723ZM7.66831 51.9656C7.44703 52.477 7.07216 52.9069 6.59566 53.1957C6.11683 53.4697 5.57276 53.6092 5.02113 53.5992C4.48032 53.6127 3.94719 53.4692 3.48632 53.1858C3.02998 52.8828 2.67377 52.4514 2.46261 51.9459C2.19501 51.2976 2.06762 50.6 2.08894 49.899C2.06574 49.217 2.19337 48.5383 2.46261 47.9112C2.68335 47.4184 3.05114 47.0059 3.51555 46.7303C4.01222 46.4569 4.57284 46.321 5.13958 46.3367C5.58182 46.3257 6.02128 46.4096 6.42837 46.5827C6.78511 46.7435 7.09631 46.9903 7.33404 47.3011C7.58764 47.6387 7.77158 48.0234 7.875 48.4328C7.99814 48.9116 8.05763 49.4046 8.05207 49.899C8.07498 50.6075 7.94407 51.3126 7.66831 51.9656Z" fill="white"/>
<path d="M16.6917 44.8901C16.3237 44.9888 15.9723 45.1413 15.649 45.3428C15.3131 45.5523 15.0026 45.8 14.7236 46.0809C14.6773 46.1271 14.6321 46.1793 14.5858 46.2281V44.7622L12.5783 45.0574V54.9965H14.5858V47.5609C14.7352 47.4568 14.8896 47.3602 15.0487 47.2716C15.2455 47.1632 15.4494 47.0678 15.6588 46.9862C15.8617 46.9075 16.0684 46.8386 16.2787 46.7795C16.4947 46.7194 16.715 46.6767 16.9378 46.6516C17.1764 46.6251 17.4167 46.6185 17.6564 46.6319L17.8923 44.7819C17.4889 44.7529 17.0835 44.7894 16.6917 44.8901Z" fill="white"/>
<path d="M28.2842 44.959H25.824L22.4562 48.6601H21.7302V40.138L19.7227 40.4333V54.9975H21.7302V50.1756H21.7631L25.7843 54.9975H28.3822L23.6082 49.6179L28.2842 44.959Z" fill="white"/>
<path d="M37.6721 46.2284C37.2944 45.7388 36.7959 45.3556 36.2256 45.1165C35.5919 44.8576 34.9122 44.7304 34.2279 44.7425C33.5385 44.7308 32.8544 44.865 32.2204 45.1361C31.6438 45.3886 31.1297 45.7649 30.7148 46.2383C30.2875 46.7358 29.966 47.315 29.7697 47.9407C29.5454 48.6571 29.4359 49.4044 29.4453 50.1549C29.4174 51.1033 29.6165 52.0446 30.0259 52.9005C30.3998 53.6423 31.004 54.2431 31.748 54.6127C32.6208 55.0239 33.5784 55.2229 34.5428 55.1933C35.0068 55.1974 35.4705 55.1677 35.9303 55.1048C36.3146 55.0494 36.6933 54.9605 37.062 54.8391C37.4277 54.7163 37.783 54.565 38.1248 54.3864L38.2626 52.8709C38.0131 52.9628 37.7604 53.0546 37.5045 53.1465C37.2487 53.2383 36.9831 53.3203 36.7078 53.3925C36.4298 53.4653 36.1469 53.5179 35.8614 53.5499C35.5739 53.5827 35.2848 53.5991 34.9955 53.5991C34.4787 53.6075 33.9628 53.5513 33.46 53.4319C33.0544 53.3348 32.6792 53.1387 32.368 52.8611C32.0535 52.5615 31.8228 52.185 31.6988 51.7688C31.5704 51.3471 31.4982 50.9104 31.4843 50.4698H38.5972C38.6939 49.6558 38.6572 48.8315 38.4886 48.0293C38.3502 47.3769 38.0716 46.7624 37.6721 46.2284ZM32.7124 46.7008C33.1743 46.4204 33.7076 46.2803 34.2476 46.2973C34.7882 46.2703 35.322 46.4263 35.763 46.7402C36.155 47.053 36.4348 47.4847 36.5602 47.9702C36.6583 48.3293 36.7066 48.7002 36.7035 49.0724H31.5276C31.564 48.6799 31.6479 48.2933 31.7775 47.9211C31.9455 47.422 32.2743 46.9928 32.7124 46.7008Z" fill="white"/>
<path d="M47.2766 50.4698C47.0751 50.2562 46.8429 50.0738 46.5877 49.9286C46.3235 49.7773 46.0468 49.6489 45.7608 49.5448C45.5513 49.4792 45.3447 49.4103 45.1411 49.3381C44.9376 49.266 44.734 49.2003 44.5307 49.1413C44.3273 49.0823 44.1305 49.0199 43.9402 48.9543C43.7618 48.8937 43.5876 48.8213 43.4187 48.7378C43.2568 48.652 43.1021 48.5533 42.9561 48.4426C42.8212 48.341 42.7076 48.214 42.6216 48.0687C42.5348 47.9194 42.4904 47.7493 42.4933 47.5766C42.4881 47.3869 42.5359 47.1994 42.6314 47.0354C42.7342 46.8743 42.8765 46.7422 43.0447 46.6516C43.2506 46.5386 43.4732 46.4589 43.704 46.4154C43.9926 46.3601 44.2861 46.3337 44.5799 46.3367C44.7239 46.3367 44.8817 46.3433 45.0523 46.3564C45.2228 46.3695 45.4095 46.3925 45.6132 46.4253C45.8169 46.4581 46.0196 46.5007 46.2233 46.5532C46.427 46.6057 46.6333 46.6647 46.8433 46.7303C47.0379 46.7902 47.2284 46.8625 47.4137 46.9468L47.5518 45.3526C47.3025 45.2477 47.0564 45.1558 46.8137 45.0771C46.5713 44.9986 46.325 44.9328 46.0756 44.8803C45.8322 44.8286 45.5857 44.7925 45.3376 44.772C45.0946 44.7523 44.8552 44.7425 44.6192 44.7425C44.0756 44.737 43.5334 44.7998 43.0054 44.9295C42.5539 45.0393 42.1245 45.2257 41.7359 45.4806C41.3837 45.7136 41.096 46.0318 40.8995 46.4056C40.6939 46.8176 40.5925 47.2738 40.6042 47.7341C40.5981 48.0656 40.6514 48.3956 40.7617 48.7083C40.8551 48.9707 40.9951 49.2141 41.175 49.4267C41.35 49.6275 41.552 49.803 41.7753 49.9482C42.0077 50.1008 42.255 50.2294 42.5134 50.332C42.6573 50.3845 42.8081 50.437 42.966 50.4895C43.1239 50.542 43.2781 50.5912 43.4286 50.6371C43.579 50.683 43.7266 50.7289 43.8713 50.7749C44.0161 50.8208 44.1572 50.8667 44.2945 50.9126C44.4323 50.9586 44.5668 51.0012 44.698 51.0406C44.874 51.1029 45.0451 51.1786 45.2097 51.2669C45.354 51.3435 45.4893 51.4359 45.6132 51.5424C45.7221 51.6376 45.8094 51.755 45.869 51.8869C45.9291 52.0232 45.9593 52.1708 45.9576 52.3198C45.9646 52.4654 45.9391 52.6107 45.8829 52.7452C45.8267 52.8796 45.7413 52.9999 45.6329 53.0973C45.3891 53.3007 45.098 53.4395 44.7865 53.5007C44.4214 53.5813 44.0485 53.6209 43.6746 53.6188C43.4409 53.6172 43.2075 53.6008 42.9758 53.5696C42.72 53.5373 42.451 53.4913 42.1689 53.4319C41.8868 53.3724 41.5982 53.3002 41.303 53.2154C41.0077 53.1301 40.7093 53.035 40.4075 52.93L40.4862 54.6029C40.8269 54.721 41.1385 54.8161 41.421 54.8883C41.7036 54.9604 41.9725 55.0228 42.2279 55.0753C42.4745 55.1262 42.7245 55.1591 42.9758 55.1737C43.2184 55.1866 43.4644 55.1931 43.7139 55.1933C44.2628 55.1961 44.8105 55.14 45.3474 55.026C45.8201 54.9299 46.2728 54.7535 46.6858 54.5045C47.058 54.2771 47.3661 53.9588 47.5813 53.5795C47.8065 53.163 47.9184 52.6947 47.9057 52.2214C47.9141 51.8761 47.8575 51.5323 47.7388 51.2079C47.6329 50.9347 47.4761 50.6842 47.2766 50.4698Z" fill="white"/>
<path d="M55.4934 53.4122L55.1591 53.4712C55.0517 53.4904 54.9432 53.5035 54.8343 53.5106C54.7291 53.5175 54.6303 53.5204 54.5391 53.5204C54.2375 53.5287 53.938 53.4681 53.6633 53.3433C53.4271 53.2313 53.2312 53.0492 53.1024 52.8217C52.9645 52.565 52.8966 52.2765 52.9055 51.9853V46.5335H55.6806L55.8971 44.959H52.9055V41.8493L50.8981 42.5579V44.959H49.3822L49.1658 46.5335H50.8981V52.3986C50.8891 52.7898 50.9491 53.1795 51.0752 53.5499C51.1764 53.843 51.3335 54.1137 51.5377 54.347C51.7249 54.5549 51.9526 54.7223 52.2069 54.8391C52.4671 54.9586 52.7414 55.0446 53.0233 55.0949C53.3025 55.1464 53.5857 55.1727 53.8696 55.1737C54.0795 55.1737 54.2863 55.1671 54.4899 55.154C54.6935 55.1409 54.8805 55.1212 55.0508 55.0949C55.2211 55.0684 55.3821 55.0388 55.5327 55.0064C55.6832 54.9739 55.8115 54.9444 55.9164 54.9178L56.0349 53.2842C55.9582 53.3138 55.8792 53.3369 55.7987 53.3531C55.7067 53.3735 55.6049 53.3932 55.4934 53.4122Z" fill="white"/>
<path d="M62.2341 44.8901C61.866 44.9888 61.5145 45.1413 61.191 45.3428C60.8553 45.5523 60.5448 45.8 60.266 46.0809C60.2197 46.1271 60.1745 46.1793 60.1282 46.2281V44.7622L58.1208 45.0574V54.9965H60.1282V47.5609C60.2807 47.4559 60.4346 47.3575 60.5907 47.2716C60.7877 47.1632 60.9917 47.0679 61.2012 46.9862C61.4041 46.9075 61.6106 46.8386 61.8208 46.7795C62.0368 46.7195 62.2573 46.6767 62.4801 46.6516C62.7187 46.6251 62.9592 46.6185 63.1989 46.6319L63.4347 44.7819C63.0313 44.7529 62.6258 44.7894 62.2341 44.8901Z" fill="white"/>
<path d="M72.8818 46.2284C72.5041 45.7388 72.0055 45.3556 71.4352 45.1165C70.8016 44.8576 70.1219 44.7304 69.4376 44.7425C68.7482 44.7308 68.064 44.865 67.43 45.1361C66.8534 45.3886 66.3393 45.7649 65.9244 46.2383C65.4969 46.7356 65.1754 47.3149 64.9794 47.9407C64.7551 48.6571 64.6456 49.4043 64.655 50.1549C64.6271 51.1033 64.8261 52.0446 65.2356 52.9005C65.6095 53.6423 66.2137 54.2431 66.9577 54.6127C67.8305 55.0239 68.7881 55.2229 69.7525 55.1933C70.2165 55.1973 70.6802 55.1677 71.14 55.1048C71.5243 55.0494 71.9029 54.9605 72.2717 54.8391C72.6373 54.7163 72.9926 54.565 73.3345 54.3864L73.4722 52.8709C73.2227 52.9628 72.97 53.0546 72.7141 53.1465C72.4583 53.2383 72.1927 53.3203 71.9174 53.3925C71.6394 53.4652 71.3566 53.5178 71.0711 53.5499C70.7836 53.5827 70.4945 53.5991 70.2051 53.5991C69.6883 53.6075 69.1725 53.5513 68.6697 53.4318C68.2641 53.3348 67.8889 53.1387 67.5776 52.8611C67.2632 52.5615 67.0326 52.1849 66.9085 51.7688C66.78 51.3471 66.7079 50.9104 66.694 50.4698H73.8065C73.9035 49.6558 73.8669 48.8315 73.6982 48.0293C73.5598 47.3769 73.2813 46.7624 72.8818 46.2284ZM67.9221 46.7008C68.3839 46.4204 68.9172 46.2802 69.4572 46.2973C69.9978 46.2703 70.5317 46.4263 70.9727 46.7402C71.3647 47.0529 71.6443 47.4847 71.7695 47.9702C71.868 48.3292 71.9163 48.7002 71.9131 49.0724H66.7372C66.7737 48.68 66.8575 48.2934 66.9869 47.9211C67.1551 47.4221 67.484 46.9929 67.9221 46.7008Z" fill="white"/>
<path d="M81.4723 53.4122L81.1377 53.4712C81.0302 53.4904 80.9218 53.5035 80.8129 53.5106C80.708 53.5175 80.6092 53.5204 80.5177 53.5204C80.2162 53.5287 79.9168 53.4681 79.6422 53.3433C79.4059 53.2315 79.2099 53.0493 79.0813 52.8217C78.9433 52.5651 78.8753 52.2766 78.8844 51.9853V46.5335H81.6595L81.876 44.959H78.8844V41.8493L76.877 42.5579V44.959H75.3615L75.145 46.5335H76.877V52.3986C76.8682 52.7898 76.9282 53.1795 77.0541 53.5499C77.1553 53.843 77.3124 54.1137 77.5166 54.347C77.7038 54.5549 77.9316 54.7223 78.1858 54.8391C78.446 54.9586 78.7203 55.0446 79.0022 55.0949C79.2814 55.1464 79.5646 55.1727 79.8485 55.1737C80.0584 55.1737 80.2652 55.1671 80.4688 55.154C80.6724 55.1409 80.8594 55.1212 81.0297 55.0949C81.2003 55.0685 81.361 55.039 81.5119 55.0064C81.6628 54.9738 81.7908 54.9443 81.8957 54.9178L82.0138 53.2842C81.9372 53.3139 81.8582 53.3369 81.7776 53.3531C81.6853 53.3735 81.5836 53.3932 81.4723 53.4122Z" fill="white"/>
</svg>
