<svg xmlns="http://www.w3.org/2000/svg" viewBox="0 0 268 28"><path fill="#01405C" d="M0 0h267.667v28H0z"/><path fill="#fff" d="M6.667 21V7h4.593V21H6.667ZM17.509 9.23 20.151 21h-5.027L11.97 7h2.82a2.655 2.655 0 0 1 1.764.641c.49.404.828.964.955 1.587ZM20.841 21V7h4.593V21h-4.593Zm8.063-8.675a2.778 2.778 0 0 1-2.425-1.39 2.735 2.735 0 0 1-.375-1.41 2.686 2.686 0 0 1 .375-1.4 2.812 2.812 0 0 1 3.825-1.006c.415.245.76.59 1.005 1.006.25.424.38.908.375 1.4.004.495-.125.982-.375 1.41a2.8 2.8 0 0 1-1.006 1.015c-.423.25-.908.38-1.4.375ZM32.394 21V7h4.593V21h-4.593Zm10.409-6.349c.013.014.111.175.295.483.185.309.424.703.72 1.183a373.133 373.133 0 0 1 1.863 3.056c.288.48.617 1.022.986 1.627H41.62a744.12 744.12 0 0 0-.858-1.39c-.256-.414-.529-.861-.818-1.34-.289-.48-.575-.947-.858-1.4a71.148 71.148 0 0 1-.729-1.194 20.758 20.758 0 0 0-.424-.69 2.04 2.04 0 0 1-.335-.986c.02-.337.128-.664.315-.946.079-.132.224-.365.434-.7a207.957 207.957 0 0 0 1.598-2.603c.289-.48.561-.93.817-1.35L41.62 7h5.047l-3.904 6.368c-.12.19-.189.407-.197.632.013.235.095.461.236.65Z"/><path fill="#85E6D6" d="M62.704 6.914h-2.482l-5.395 6.216h-.742V6.914H52v14.1h2.085V14.64h.07l5.868 6.394 2.84-.02-6.733-6.99 6.574-7.11ZM68.601 10.817c-.371.1-.726.253-1.052.456a5.218 5.218 0 0 0-.934.745c-.046.047-.092.1-.139.149v-1.48l-2.025.299v10.028h2.025v-7.502a5.173 5.173 0 0 1 1.083-.58c.205-.08.413-.15.625-.209a4.258 4.258 0 0 1 1.39-.149l.239-1.867a3.79 3.79 0 0 0-1.212.11ZM71.66 21.014h2.025V10.688l-2.025.297v10.03ZM73.397 6.527a1.286 1.286 0 0 0-.685-.188 1.336 1.336 0 0 0-.695.188 1.458 1.458 0 0 0-.506.497 1.287 1.287 0 0 0-.189.685c-.002.244.063.485.189.695.121.208.296.38.506.496.212.12.452.181.695.179.24.003.477-.059.685-.179.205-.118.373-.29.487-.496.12-.212.18-.452.179-.695a1.342 1.342 0 0 0-.18-.685 1.403 1.403 0 0 0-.486-.497ZM84.568 11.085a3.911 3.911 0 0 0-1.906-.417 5.583 5.583 0 0 0-1.699.268 6.456 6.456 0 0 0-1.598.764 7.865 7.865 0 0 0-.556.408v-1.42l-2.026.297v10.03h2.025v-7.543c.197-.115.399-.219.606-.312.28-.123.564-.233.854-.328.28-.09.565-.16.854-.208.273-.045.548-.069.825-.07.324-.007.647.043.953.15.252.09.478.244.655.446.182.22.311.477.377.755.085.35.125.711.12 1.072v6.037h2.025V14.56a5.511 5.511 0 0 0-.377-2.204 2.606 2.606 0 0 0-1.132-1.271ZM95.44 10.926a7.168 7.168 0 0 0-.924-.189 7.816 7.816 0 0 0-1.072-.07 4.806 4.806 0 0 0-1.886.378 4.993 4.993 0 0 0-1.6 1.082 4.895 4.895 0 0 0-1.101 1.748 6.694 6.694 0 0 0-.397 2.393c-.022.897.15 1.788.506 2.611.311.705.827 1.3 1.48 1.708a4.383 4.383 0 0 0 2.363.606 5.726 5.726 0 0 0 2.125-.417c.403-.164.784-.38 1.132-.643v.544a4.2 4.2 0 0 1-.189 1.32 2.398 2.398 0 0 1-.576.953 2.365 2.365 0 0 1-1.013.576c-.495.136-1.006.2-1.519.189-.408 0-.816-.024-1.221-.07a8.616 8.616 0 0 1-1.261-.238 9.595 9.595 0 0 1-1.252-.427l.219 1.748c.365.148.74.27 1.122.367.402.102.81.178 1.221.229.435.053.873.08 1.311.079a6.406 6.406 0 0 0 2.84-.566 3.982 3.982 0 0 0 1.737-1.569c.4-.704.603-1.503.586-2.313V10.668l-1.942.5a5.85 5.85 0 0 0-.689-.242Zm.367 7.953c-.246.143-.501.27-.764.378-.232.095-.471.171-.715.228-.238.054-.481.08-.725.08a3.45 3.45 0 0 1-1.718-.388 2.326 2.326 0 0 1-1.013-1.171 5.281 5.281 0 0 1-.327-2.016 5.253 5.253 0 0 1 .228-1.619c.13-.43.354-.827.656-1.161a2.87 2.87 0 0 1 1.052-.705 3.831 3.831 0 0 1 1.42-.248c.313 0 .625.026.933.079.316.056.628.132.934.228.097.03.198.071.297.108v6.055c-.087.052-.176.105-.258.152ZM109.788 10.886h-2.482l-3.398 3.734h-.733v-8.6l-2.026.299v14.695h2.026V16.15h.033l4.058 4.865h2.621l-4.817-5.428 4.718-4.7ZM120.174 19.763a.904.904 0 0 1-.774-.318 1.706 1.706 0 0 1-.219-1.052l.04-4.091a4.782 4.782 0 0 0-.159-1.271 3.142 3.142 0 0 0-.476-1.013c-.222-.299-.502-.55-.825-.735a4.216 4.216 0 0 0-1.201-.456 7.094 7.094 0 0 0-1.569-.16 9.84 9.84 0 0 0-1.251.08 8.6 8.6 0 0 0-1.162.229 9.674 9.674 0 0 0-1.043.347l-.238 1.688a11.648 11.648 0 0 1 1.807-.496c.273-.053.548-.089.825-.11.271-.02.539-.03.804-.03.405-.008.809.039 1.201.14.286.071.55.215.765.417.191.196.328.44.397.705.085.327.125.664.119 1.002l-.002.499-2.321.157a6.18 6.18 0 0 0-2.304.516 3.312 3.312 0 0 0-1.361 1.102c-.293.43-.449.94-.446 1.46-.004.488.116.97.348 1.4.242.442.608.804 1.052 1.043a3.54 3.54 0 0 0 1.758.397 4.566 4.566 0 0 0 1.677-.278c.465-.182.89-.452 1.252-.795.137-.131.267-.27.39-.416.039.206.112.404.215.585.177.304.449.542.775.675a2.9 2.9 0 0 0 1.132.209c.119 0 .235-.003.347-.01.111-.006.22-.023.328-.05l.288-.07a1.56 1.56 0 0 0 .228-.069l.219-1.33c-.11.037-.223.064-.338.08a2.305 2.305 0 0 1-.278.02Zm-3.306-.894c-.216.17-.449.317-.695.437-.246.12-.506.207-.775.258-.278.054-.561.08-.844.08a2.239 2.239 0 0 1-.943-.179 1.292 1.292 0 0 1-.586-.506 1.488 1.488 0 0 1-.199-.785c-.019-.33.072-.659.258-.933.217-.252.509-.427.834-.497a6.05 6.05 0 0 1 1.549-.158h1.739l-.009 1.971a2.745 2.745 0 0 1-.329.313ZM128.951 16.447a2.976 2.976 0 0 0-.695-.546 5.394 5.394 0 0 0-.834-.388c-.212-.066-.42-.135-.625-.208a11.395 11.395 0 0 0-.616-.199c-.206-.06-.404-.122-.596-.188a4.27 4.27 0 0 1-.526-.219 3.38 3.38 0 0 1-.467-.298 1.292 1.292 0 0 1-.337-.377.951.951 0 0 1-.13-.497c-.005-.191.043-.38.139-.546.104-.162.248-.296.418-.387.207-.114.432-.194.665-.238.291-.056.587-.083.884-.08a6.423 6.423 0 0 1 1.042.09c.206.033.41.076.615.129.206.052.414.112.626.179.197.06.389.133.576.218l.139-1.609a9.746 9.746 0 0 0-.745-.278 7.372 7.372 0 0 0-.744-.198 6.053 6.053 0 0 0-.745-.11 9.005 9.005 0 0 0-.725-.03 6.546 6.546 0 0 0-1.628.19c-.456.11-.889.299-1.281.556a2.532 2.532 0 0 0-.844.933c-.208.415-.31.876-.298 1.34a2.81 2.81 0 0 0 .159.983c.094.265.236.51.417.725.177.203.381.38.606.526.234.155.484.284.745.388a16.584 16.584 0 0 0 .923.308 30.882 30.882 0 0 1 .874.277c.138.047.275.09.407.13.178.063.35.139.516.228.146.077.282.17.407.278a1.016 1.016 0 0 1 .348.784.989.989 0 0 1-.328.784 1.9 1.9 0 0 1-.854.408 5.056 5.056 0 0 1-1.122.12 5.52 5.52 0 0 1-.705-.05 10.16 10.16 0 0 1-.814-.14c-.284-.06-.576-.132-.874-.218a16.644 16.644 0 0 1-.903-.288l.079 1.688c.344.12.658.215.944.288.285.073.556.136.814.189.248.051.501.085.754.099.245.013.493.02.745.02a7.748 7.748 0 0 0 1.648-.169 4.242 4.242 0 0 0 1.35-.526c.376-.23.687-.55.904-.934.228-.42.341-.892.328-1.37a2.785 2.785 0 0 0-.169-1.023 2.32 2.32 0 0 0-.467-.744ZM137.241 19.416l-.337.06c-.109.018-.218.032-.328.039-.106.007-.206.01-.298.01a2.006 2.006 0 0 1-.884-.179 1.28 1.28 0 0 1-.566-.526 1.666 1.666 0 0 1-.198-.844v-5.501h2.8l.218-1.589h-3.018V7.75l-2.026.714v2.423h-1.529l-.219 1.589h1.748v5.918c-.009.395.052.788.179 1.162.102.295.261.569.467.804.189.21.418.379.675.496.262.121.539.208.824.258.281.053.567.08.854.08.211 0 .42-.007.626-.02a6.44 6.44 0 0 0 .565-.06c.172-.026.334-.056.487-.089.152-.033.281-.062.387-.09l.119-1.648c-.077.03-.157.054-.238.07-.092.02-.195.04-.308.06ZM139.893 21.014h2.026V10.688l-2.026.297v10.03ZM141.631 6.527a1.285 1.285 0 0 0-.685-.188 1.338 1.338 0 0 0-.695.188 1.454 1.454 0 0 0-.506.497 1.292 1.292 0 0 0-.189.685c-.002.244.064.485.189.695.121.208.296.38.506.496.212.12.452.181.695.179.24.003.477-.059.685-.179.205-.118.373-.29.487-.496.119-.212.181-.452.179-.695a1.35 1.35 0 0 0-.179-.685 1.408 1.408 0 0 0-.487-.497ZM152.802 11.085a3.912 3.912 0 0 0-1.907-.417 5.584 5.584 0 0 0-1.698.268 6.463 6.463 0 0 0-1.598.764 8.016 8.016 0 0 0-.557.408v-1.42l-2.025.297v10.03h2.025v-7.543a6.28 6.28 0 0 1 .606-.312c.279-.123.564-.233.854-.328.279-.09.565-.16.854-.208.273-.045.548-.069.824-.07a2.73 2.73 0 0 1 .954.15c.252.09.478.244.655.446.182.219.311.477.377.755.085.35.125.711.119 1.072v6.037h2.026V14.56a5.516 5.516 0 0 0-.377-2.204 2.608 2.608 0 0 0-1.132-1.271ZM163.674 10.926a7.174 7.174 0 0 0-.923-.189 7.812 7.812 0 0 0-1.073-.07 4.803 4.803 0 0 0-1.886.378 4.993 4.993 0 0 0-1.599 1.082 4.905 4.905 0 0 0-1.102 1.748 6.682 6.682 0 0 0-.397 2.393c-.022.897.15 1.788.506 2.611.311.705.827 1.3 1.48 1.708a4.378 4.378 0 0 0 2.363.606 5.722 5.722 0 0 0 2.124-.417c.404-.164.784-.38 1.132-.643v.544c.008.447-.055.893-.188 1.32a2.406 2.406 0 0 1-.576.953 2.367 2.367 0 0 1-1.013.576c-.495.136-1.006.2-1.519.189-.408 0-.816-.024-1.221-.07a8.611 8.611 0 0 1-1.262-.238 9.63 9.63 0 0 1-1.251-.427l.219 1.748c.365.148.74.27 1.122.367.402.102.81.178 1.221.229.435.053.873.08 1.311.079a6.408 6.408 0 0 0 2.84-.566 3.982 3.982 0 0 0 1.737-1.569c.4-.704.603-1.503.586-2.313V10.668l-1.942.5a5.791 5.791 0 0 0-.689-.242Zm.368 7.953a6.24 6.24 0 0 1-.765.378 4.676 4.676 0 0 1-.715.228c-.238.054-.481.08-.725.08a3.454 3.454 0 0 1-1.718-.388 2.327 2.327 0 0 1-1.012-1.171 5.268 5.268 0 0 1-.328-2.016 5.25 5.25 0 0 1 .228-1.619c.13-.43.354-.827.656-1.161.294-.31.653-.552 1.052-.705a3.833 3.833 0 0 1 1.42-.248c.313 0 .625.026.933.079.316.056.628.132.934.228.097.03.199.071.298.108v6.055l-.258.152ZM175.659 16.447a3.012 3.012 0 0 0-.695-.546 5.405 5.405 0 0 0-.835-.388c-.211-.066-.42-.135-.625-.208a11.117 11.117 0 0 0-.616-.199c-.205-.06-.404-.122-.596-.188a4.255 4.255 0 0 1-.526-.219 3.485 3.485 0 0 1-.467-.298 1.306 1.306 0 0 1-.337-.377.951.951 0 0 1-.13-.497c-.005-.191.043-.38.14-.546.103-.162.247-.295.417-.387.208-.114.432-.194.665-.238.291-.056.587-.083.884-.08a6.423 6.423 0 0 1 1.042.09c.206.033.41.076.616.129.205.052.414.112.625.179.197.06.389.133.576.218l.139-1.609a9.571 9.571 0 0 0-.744-.278 7.462 7.462 0 0 0-.745-.198 6.006 6.006 0 0 0-.745-.11 9.005 9.005 0 0 0-.725-.03 6.546 6.546 0 0 0-1.628.19 4.106 4.106 0 0 0-1.281.556 2.534 2.534 0 0 0-.844.933c-.208.415-.31.876-.298 1.34a2.81 2.81 0 0 0 .159.983c.094.265.235.51.417.725.176.203.38.38.606.526.234.155.484.284.744.388.146.053.298.106.457.159.16.052.315.102.467.149.152.046.301.092.447.139.145.046.288.092.427.139.139.046.274.089.407.129.177.063.35.139.516.228.146.077.282.17.407.278a1.016 1.016 0 0 1 .348.784.987.987 0 0 1-.328.785 1.9 1.9 0 0 1-.854.407 5.063 5.063 0 0 1-1.122.12 5.507 5.507 0 0 1-.705-.05 10.16 10.16 0 0 1-.814-.14c-.285-.06-.576-.132-.874-.218a16.644 16.644 0 0 1-.903-.288l.079 1.688c.344.12.658.215.943.288.285.073.557.136.815.189.248.051.5.085.754.099.245.013.493.02.745.02a7.748 7.748 0 0 0 1.648-.169 4.259 4.259 0 0 0 1.351-.526c.375-.23.686-.55.903-.934.227-.42.34-.892.327-1.37a2.785 2.785 0 0 0-.168-1.023 2.337 2.337 0 0 0-.466-.744ZM185.916 11.305a5.449 5.449 0 0 0-2.691-.636 5.427 5.427 0 0 0-2.711.656 4.584 4.584 0 0 0-1.807 1.847 5.84 5.84 0 0 0-.645 2.82 6.083 6.083 0 0 0 .605 2.81 4.144 4.144 0 0 0 1.738 1.797c.808.423 1.71.635 2.621.615a5.595 5.595 0 0 0 2.741-.655 4.624 4.624 0 0 0 1.857-1.867c.461-.88.69-1.865.665-2.86a5.748 5.748 0 0 0-.616-2.73 4.337 4.337 0 0 0-1.757-1.797Zm-.119 6.653c-.223.516-.601.95-1.082 1.24a3.086 3.086 0 0 1-1.589.408 2.823 2.823 0 0 1-1.549-.417 2.799 2.799 0 0 1-1.033-1.251 5.022 5.022 0 0 1-.377-2.066 4.681 4.681 0 0 1 .377-2.005 2.641 2.641 0 0 1 1.063-1.192 3.214 3.214 0 0 1 1.638-.397c.446-.011.89.073 1.301.248.36.162.674.412.914.725a3.2 3.2 0 0 1 .545 1.142c.125.483.185.98.179 1.48a4.94 4.94 0 0 1-.388 2.085h.001ZM194.902 10.817a3.89 3.89 0 0 0-1.053.456 5.181 5.181 0 0 0-.933.745c-.047.047-.093.1-.139.149v-1.48l-2.026.299v10.028h2.026v-7.502c.15-.105.306-.203.466-.292.199-.11.405-.206.616-.288a7 7 0 0 1 .625-.209 4.281 4.281 0 0 1 1.391-.149l.238-1.867a3.785 3.785 0 0 0-1.211.11ZM206.598 10.886h-2.482l-3.398 3.734h-.733v-8.6l-2.025.299v14.695h2.025V16.15h.034l4.057 4.865h2.621l-4.817-5.428 4.718-4.7ZM216.071 12.167a3.603 3.603 0 0 0-1.459-1.122 5.103 5.103 0 0 0-2.016-.377 4.94 4.94 0 0 0-2.026.397 4.33 4.33 0 0 0-1.519 1.112 4.875 4.875 0 0 0-.954 1.718 7.2 7.2 0 0 0-.327 2.234 6.014 6.014 0 0 0 .586 2.77 3.876 3.876 0 0 0 1.738 1.728c.88.415 1.847.616 2.82.586.468.004.936-.026 1.4-.09a6.744 6.744 0 0 0 2.214-.724l.139-1.53c-.252.094-.507.186-.765.279a9.815 9.815 0 0 1-.804.248 6.03 6.03 0 0 1-.854.159c-.29.033-.582.05-.874.05a6.252 6.252 0 0 1-1.549-.17 2.544 2.544 0 0 1-1.102-.575 2.513 2.513 0 0 1-.675-1.103 4.984 4.984 0 0 1-.216-1.31h7.176a7.6 7.6 0 0 0-.109-2.463 4.648 4.648 0 0 0-.824-1.817Zm-5.004.477a2.814 2.814 0 0 1 1.549-.407 2.43 2.43 0 0 1 1.529.446c.395.316.677.752.804 1.242.099.362.148.736.145 1.112h-5.223c.037-.396.122-.786.252-1.162.17-.503.502-.936.944-1.231ZM225.762 16.447a3.012 3.012 0 0 0-.695-.546 5.405 5.405 0 0 0-.835-.388c-.211-.066-.42-.135-.625-.208a11.117 11.117 0 0 0-.616-.199c-.205-.06-.404-.122-.596-.188a4.335 4.335 0 0 1-.526-.219 3.505 3.505 0 0 1-.467-.298 1.308 1.308 0 0 1-.337-.377.95.95 0 0 1-.129-.497c-.006-.191.043-.38.139-.546a1.13 1.13 0 0 1 .417-.387c.208-.114.432-.194.665-.238.291-.056.587-.083.884-.08a6.47 6.47 0 0 1 1.043.09c.205.033.41.076.615.129.205.052.414.112.626.179.196.06.388.133.575.218l.14-1.609a9.746 9.746 0 0 0-.745-.278 7.39 7.39 0 0 0-.745-.198 6.01 6.01 0 0 0-.744-.11 9.023 9.023 0 0 0-.725-.03 6.548 6.548 0 0 0-1.629.19 4.116 4.116 0 0 0-1.281.556 2.542 2.542 0 0 0-.844.933 2.856 2.856 0 0 0-.298 1.34 2.81 2.81 0 0 0 .159.983c.094.265.236.51.417.725.177.203.381.38.606.526.234.155.484.284.745.388.145.053.297.106.457.159.159.052.314.102.466.149.152.046.301.092.447.139.145.046.288.092.427.139.139.046.275.089.407.129.178.063.35.139.516.228.146.077.283.17.408.278a1.027 1.027 0 0 1 .347.784.988.988 0 0 1-.328.784 1.902 1.902 0 0 1-.854.408 5.056 5.056 0 0 1-1.122.12 5.52 5.52 0 0 1-.705-.05 10.16 10.16 0 0 1-.814-.14c-.284-.06-.576-.132-.874-.218a17.225 17.225 0 0 1-.903-.288l.079 1.688c.344.12.659.215.944.288.284.073.556.136.814.189.249.051.501.085.754.099.245.013.493.02.745.02a7.741 7.741 0 0 0 1.648-.169 4.261 4.261 0 0 0 1.351-.526c.375-.23.686-.55.903-.934.228-.42.341-.892.328-1.37a2.786 2.786 0 0 0-.169-1.023 2.337 2.337 0 0 0-.466-.744ZM234.053 19.416l-.337.06c-.109.018-.218.032-.328.039-.106.007-.206.01-.298.01a2.006 2.006 0 0 1-.884-.179 1.282 1.282 0 0 1-.566-.526 1.676 1.676 0 0 1-.198-.844v-5.501h2.8l.218-1.589h-3.018V7.75l-2.026.714v2.423h-1.529l-.219 1.589h1.748v5.918c-.009.395.051.788.178 1.162.103.295.261.568.467.804.189.21.419.379.676.496.262.121.539.208.823.258.282.053.568.08.854.08.212 0 .421-.007.626-.02.206-.013.394-.033.566-.06.172-.026.334-.056.486-.089.153-.033.282-.062.388-.09l.119-1.648c-.077.03-.157.053-.238.07-.093.02-.195.04-.308.06ZM240.854 10.817c-.371.1-.726.253-1.052.456a5.223 5.223 0 0 0-.934.745c-.047.047-.092.1-.139.149v-1.48l-2.025.299v10.028h2.025v-7.502a5.223 5.223 0 0 1 1.083-.58c.205-.08.413-.15.625-.209a4.281 4.281 0 0 1 1.39-.149l.239-1.867a3.794 3.794 0 0 0-1.212.11ZM251.598 12.167a3.6 3.6 0 0 0-1.46-1.122 5.094 5.094 0 0 0-2.015-.377 4.94 4.94 0 0 0-2.026.397 4.33 4.33 0 0 0-1.519 1.112 4.877 4.877 0 0 0-.954 1.718 7.2 7.2 0 0 0-.327 2.234 6.026 6.026 0 0 0 .585 2.77 3.882 3.882 0 0 0 1.738 1.728 6.172 6.172 0 0 0 2.82.586c.469.004.936-.026 1.4-.09a6.68 6.68 0 0 0 1.142-.268 7.419 7.419 0 0 0 1.073-.456l.139-1.53c-.252.094-.507.186-.765.279a9.815 9.815 0 0 1-.804.248 6.027 6.027 0 0 1-.854.159c-.29.033-.582.05-.874.05a6.247 6.247 0 0 1-1.549-.17 2.542 2.542 0 0 1-1.102-.575 2.513 2.513 0 0 1-.675-1.103 5.027 5.027 0 0 1-.217-1.31h7.177a7.6 7.6 0 0 0-.109-2.463 4.648 4.648 0 0 0-.824-1.817Zm-5.004.477a2.814 2.814 0 0 1 1.549-.407 2.43 2.43 0 0 1 1.529.446c.395.316.677.752.804 1.242.099.362.148.736.145 1.112h-5.223c.037-.396.121-.786.252-1.162.17-.504.502-.937.944-1.231ZM260.574 19.356a9.07 9.07 0 0 1-.308.06l-.337.06c-.109.018-.218.032-.328.039a4.58 4.58 0 0 1-.298.01 2.002 2.002 0 0 1-.883-.179 1.272 1.272 0 0 1-.566-.526 1.667 1.667 0 0 1-.199-.844v-5.501h2.8l.218-1.589h-3.018V7.75l-2.026.714v2.423H254.1l-.219 1.589h1.748v5.918c-.009.395.052.788.179 1.162.102.295.261.568.467.804.189.21.418.379.675.496.263.121.539.208.824.258.281.053.567.08.854.08.212 0 .42-.007.626-.02.205-.013.394-.033.566-.06.171-.026.334-.056.486-.089.152-.033.281-.062.387-.09l.12-1.648a1.49 1.49 0 0 1-.239.07Z"/></svg>