<svg xmlns="http://www.w3.org/2000/svg" viewBox="0 0 51 35"><path fill="#fff" d="M0 14.334v-14h4.593v14H0ZM10.843 2.563l2.641 11.77H8.457L5.303.336h2.82a2.655 2.655 0 0 1 1.764.64c.491.404.829.965.956 1.588Zm3.331 11.77V.336h4.594v13.999h-4.594Zm8.063-8.675a2.737 2.737 0 0 1-1.409-.374 2.778 2.778 0 0 1-1.015-1.016 2.735 2.735 0 0 1-.375-1.41 2.685 2.685 0 0 1 .375-1.4A2.812 2.812 0 0 1 23.637.454c.415.244.761.59 1.005 1.006.251.423.38.907.375 1.4.005.495-.125.982-.375 1.41a2.8 2.8 0 0 1-1.005 1.015c-.424.25-.908.38-1.4.374Zm3.49 8.676v-14h4.594v14h-4.594Zm10.409-6.35c.013.014.111.175.296.484.184.308.424.703.72 1.183a383.821 383.821 0 0 1 1.862 3.056c.289.48.617 1.022.986 1.627h-5.047l-.858-1.39c-.256-.415-.529-.861-.817-1.341-.29-.48-.576-.946-.858-1.4a71.293 71.293 0 0 1-.73-1.193 21.096 21.096 0 0 0-.424-.69 2.04 2.04 0 0 1-.334-.986c.019-.338.128-.664.315-.946.078-.132.223-.365.433-.7a216.7 216.7 0 0 0 1.598-2.603l.817-1.35.858-1.4H40l-3.904 6.368c-.12.19-.189.407-.197.631.013.236.095.462.236.65h.001Z"/><path fill="#8BB5EB" d="M6.864 28.548c.262-.04.52-.1.774-.18.512-.16.986-.425 1.39-.779a3.61 3.61 0 0 0 .926-1.3 4.527 4.527 0 0 0 .335-1.804 4.862 4.862 0 0 0-.444-2.09 3.327 3.327 0 0 0-1.458-1.507 5.649 5.649 0 0 0-2.73-.562H0V34.32h2.05V28.96h3.015l3.49 5.361h2.404l-3.272-4.848-.823-.924Zm.035-6.241c.408.155.75.448.965.828.226.441.334.933.315 1.429a2.868 2.868 0 0 1-.384 1.567c-.26.404-.649.71-1.103.867a4.917 4.917 0 0 1-1.705.266H2.05V22.04h3.173c.57-.02 1.14.071 1.676.266ZM21.582 33.079a.898.898 0 0 1-.768-.316 1.696 1.696 0 0 1-.217-1.044l.04-4.06a4.742 4.742 0 0 0-.158-1.262 3.1 3.1 0 0 0-.473-1.005 2.673 2.673 0 0 0-.818-.73 4.177 4.177 0 0 0-1.193-.453 7.012 7.012 0 0 0-1.557-.158c-.415 0-.83.026-1.242.079-.389.049-.774.125-1.153.227-.351.095-.696.21-1.035.345l-.236 1.675a11.538 11.538 0 0 1 1.793-.492c.27-.052.544-.088.819-.109.269-.02.535-.03.798-.03.402-.008.803.039 1.192.139.284.07.546.213.76.413.19.195.325.437.393.7.084.325.124.66.118.996l-.002.494-2.304.156a6.126 6.126 0 0 0-2.286.512 3.277 3.277 0 0 0-1.35 1.094 2.547 2.547 0 0 0-.444 1.449c-.003.485.115.963.345 1.39.241.438.604.797 1.045 1.034.538.28 1.139.416 1.744.395a4.535 4.535 0 0 0 1.666-.276c.46-.18.883-.448 1.242-.789.136-.13.265-.268.387-.413.039.204.11.4.214.58.175.303.446.538.768.67.357.144.74.215 1.124.208.118 0 .233-.003.345-.01.11-.006.219-.023.325-.05.105-.026.2-.049.286-.068.077-.017.153-.04.227-.07l.216-1.32a1.72 1.72 0 0 1-.335.079 2.196 2.196 0 0 1-.276.02Zm-3.281-.887a3.783 3.783 0 0 1-.69.434 3.097 3.097 0 0 1-.769.256c-.276.053-.556.08-.838.079-.32.009-.64-.052-.936-.178a1.285 1.285 0 0 1-.581-.502 1.473 1.473 0 0 1-.197-.78 1.494 1.494 0 0 1 .256-.925 1.51 1.51 0 0 1 .828-.493 6.01 6.01 0 0 1 1.537-.158h1.726l-.009 1.957c-.1.112-.21.216-.327.31ZM30.906 24.53c-.02-.008-.038-.018-.059-.026a6.795 6.795 0 0 0-2.503-.453 4.842 4.842 0 0 0-2.454.65 4.83 4.83 0 0 0-1.823 1.883 6.063 6.063 0 0 0-.69 3.006 6.077 6.077 0 0 0 .523 2.621c.32.704.84 1.297 1.498 1.705a4.36 4.36 0 0 0 2.335.601 5.469 5.469 0 0 0 1.488-.197 5.37 5.37 0 0 0 1.37-.61c.148-.092.296-.194.443-.3l.248.91h1.635V19.46l-2.01.276v4.795Zm-1.054 8.105c-.45.177-.927.274-1.41.286a3.198 3.198 0 0 1-1.616-.385 2.466 2.466 0 0 1-1.025-1.182 4.937 4.937 0 0 1-.354-2.001 4.68 4.68 0 0 1 .394-2.04c.24-.521.636-.955 1.133-1.242.54-.294 1.15-.44 1.764-.424a5.968 5.968 0 0 1 1.862.286c.097.031.203.072.306.11v6.074a6.453 6.453 0 0 1-1.055.518ZM35.99 34.32h2.011V24.07l-2.01.296v9.954ZM37.715 19.942a1.278 1.278 0 0 0-.68-.188 1.326 1.326 0 0 0-.69.188c-.205.12-.378.29-.502.492-.125.205-.19.44-.188.68-.001.243.063.482.188.69.12.206.294.377.502.493.21.118.449.18.69.177a1.33 1.33 0 0 0 .68-.177c.203-.117.37-.288.483-.493.119-.21.18-.448.178-.69a1.33 1.33 0 0 0-.178-.68 1.392 1.392 0 0 0-.483-.492ZM49.985 26.466a4.31 4.31 0 0 0-1.745-1.784 5.41 5.41 0 0 0-2.67-.63 5.381 5.381 0 0 0-2.691.65 4.544 4.544 0 0 0-1.794 1.833 5.797 5.797 0 0 0-.64 2.799c-.025.964.18 1.92.601 2.789.377.758.98 1.38 1.725 1.784a5.36 5.36 0 0 0 2.601.61 5.55 5.55 0 0 0 2.72-.65 4.589 4.589 0 0 0 1.844-1.853 5.809 5.809 0 0 0 .66-2.838 5.713 5.713 0 0 0-.611-2.71Zm-1.863 4.819a2.686 2.686 0 0 1-1.074 1.232 3.064 3.064 0 0 1-1.577.404 2.804 2.804 0 0 1-1.537-.414 2.778 2.778 0 0 1-1.025-1.242 4.97 4.97 0 0 1-.374-2.05 4.64 4.64 0 0 1 .374-1.99c.221-.494.59-.907 1.054-1.183a3.19 3.19 0 0 1 1.627-.394c.442-.011.883.073 1.29.246.358.161.67.408.907.72.255.338.439.723.542 1.133.123.48.183.973.178 1.468a4.907 4.907 0 0 1-.385 2.07Z"/></svg>