<svg xmlns="http://www.w3.org/2000/svg" viewBox="0 0 85 28"><rect width="84.667" height="28" fill="#00B3C7" rx="14"/><path fill="#fff" d="M11 21V7.001h4.593v14H11ZM21.843 9.23 24.484 21h-5.027L16.303 7.001h2.82a2.655 2.655 0 0 1 1.764.641c.491.404.829.964.956 1.587ZM25.174 21V7.001h4.594v14h-4.594Zm8.063-8.675a2.778 2.778 0 0 1-2.425-1.39 2.735 2.735 0 0 1-.374-1.41 2.685 2.685 0 0 1 .375-1.4 2.812 2.812 0 0 1 3.824-1.005c.415.244.761.59 1.005 1.005.251.424.38.908.375 1.4.005.495-.125.982-.375 1.41a2.8 2.8 0 0 1-1.005 1.015c-.424.251-.908.38-1.4.375ZM36.727 21V7.001h4.594v14h-4.594Zm10.409-6.349c.013.014.111.175.296.483.184.309.424.703.72 1.183a384.573 384.573 0 0 1 1.862 3.056c.289.48.617 1.023.986 1.627h-5.047l-.858-1.39c-.256-.414-.529-.86-.817-1.34-.29-.48-.576-.947-.858-1.4a71.148 71.148 0 0 1-.73-1.193 21.119 21.119 0 0 0-.424-.69 2.04 2.04 0 0 1-.334-.986c.019-.338.128-.665.315-.947.078-.131.223-.365.433-.7a216.689 216.689 0 0 0 1.597-2.603l.818-1.35.858-1.4H51l-3.904 6.369c-.12.189-.189.407-.197.63.013.236.095.463.236.651h.001ZM67.345 4.47a10.4 10.4 0 0 1 3.296 2.223 10.398 10.398 0 0 1 2.223 3.296c.539 1.271.812 2.64.802 4.02a10.065 10.065 0 0 1-.802 4.003 10.406 10.406 0 0 1-5.52 5.519c-1.27.539-2.64.812-4.02.802-1.381.01-2.75-.263-4.021-.802a10.292 10.292 0 0 1-3.287-2.223 10.48 10.48 0 0 1-2.213-3.296A10.059 10.059 0 0 1 53 14.009c-.01-1.38.264-2.749.803-4.02a10.471 10.471 0 0 1 2.213-3.297 10.286 10.286 0 0 1 3.287-2.223c1.271-.539 2.64-.812 4.02-.802 1.382-.01 2.75.263 4.022.802Zm-.773 17.176a8.333 8.333 0 0 0 2.648-1.77 8.193 8.193 0 0 0 2.416-5.867 8.195 8.195 0 0 0-.638-3.228 8.255 8.255 0 0 0-1.778-2.648 8.396 8.396 0 0 0-2.648-1.789 8.148 8.148 0 0 0-3.248-.647 8.098 8.098 0 0 0-3.229.647 8.395 8.395 0 0 0-4.437 4.437 8.096 8.096 0 0 0-.647 3.228 8.092 8.092 0 0 0 .647 3.23 8.273 8.273 0 0 0 1.788 2.638 8.331 8.331 0 0 0 2.65 1.769 8.199 8.199 0 0 0 3.228.638 8.248 8.248 0 0 0 3.248-.638Zm-7.763-6.476a1.52 1.52 0 0 1-.454-1.102 1.566 1.566 0 0 1 .454-1.14 1.497 1.497 0 0 1 1.112-.465 1.583 1.583 0 0 1 1.15.464 1.536 1.536 0 0 1 .474 1.14 1.491 1.491 0 0 1-.474 1.103 1.582 1.582 0 0 1-1.15.464 1.494 1.494 0 0 1-1.112-.464Zm7.859-3.383c.013-.04.039-.04.078 0l.463 1.256a.151.151 0 0 0 .155.117l1.372.038c.026 0 .039.01.039.03a.106.106 0 0 1-.039.067l-.986.85a.148.148 0 0 0-.106.134c0 .02.002.04.01.06l.348 1.256c0 .065-.02.097-.058.097l-1.14-.754a.347.347 0 0 0-.233 0l-1.082.754c-.052 0-.071-.032-.058-.097l.348-1.256a.208.208 0 0 0-.097-.194l-1.024-.85a.15.15 0 0 1-.02-.068c0-.02.007-.03.02-.03l1.372-.037a.164.164 0 0 0 .174-.117l.464-1.256Z"/></svg>