<svg xmlns="http://www.w3.org/2000/svg" viewBox="0 0 40 35"><path fill="#0A2343" d="M0 14.333V.335h4.593v13.998H0Zm10.843-11.77 2.641 11.77H8.457L5.303.335h2.82a2.655 2.655 0 0 1 1.764.64c.491.404.829.964.956 1.588Zm3.331 11.77V.335h4.594v13.998h-4.594Zm8.063-8.675a2.738 2.738 0 0 1-1.409-.375 2.778 2.778 0 0 1-1.015-1.015 2.735 2.735 0 0 1-.375-1.41 2.685 2.685 0 0 1 .375-1.4A2.812 2.812 0 0 1 23.637.454c.415.244.761.59 1.005 1.005.251.424.38.908.375 1.4.005.496-.125.983-.375 1.41a2.8 2.8 0 0 1-1.005 1.015c-.424.251-.908.38-1.4.375Zm3.49 8.675V.335h4.594v13.998h-4.594Zm10.409-6.348c.013.013.111.174.296.483.184.308.424.702.72 1.183a386.846 386.846 0 0 1 1.862 3.056c.289.48.617 1.022.986 1.626h-5.047l-.858-1.39c-.256-.414-.529-.86-.817-1.34-.29-.48-.576-.946-.858-1.4a71.148 71.148 0 0 1-.73-1.193 21.112 21.112 0 0 0-.424-.69 2.04 2.04 0 0 1-.334-.986c.019-.338.128-.665.315-.947.078-.131.223-.364.433-.7a216.7 216.7 0 0 0 1.598-2.603l.817-1.35.858-1.4H40l-3.904 6.369c-.12.189-.189.407-.197.631.013.235.095.462.236.65h.001Z"/><path fill="#2B0B4F" d="M3.808 31.147a1.8 1.8 0 0 1-.118.67 1.41 1.41 0 0 1-.334.502c-.151.142-.332.25-.53.315a2.157 2.157 0 0 1-.706.108 4.63 4.63 0 0 1-.442-.02 8.764 8.764 0 0 1-.824-.118A10.481 10.481 0 0 1 0 32.407l.157 1.773c.183.053.36.102.53.148.17.046.34.085.51.118.175.033.352.056.53.069.183.013.386.02.609.02.453.007.906-.05 1.344-.168a2.97 2.97 0 0 0 .991-.482c.269-.203.498-.454.677-.739.179-.286.311-.599.393-.926a4.26 4.26 0 0 0 .128-1.054V20.333H3.808v10.814ZM17.488 33.077a.891.891 0 0 1-.766-.315 1.7 1.7 0 0 1-.216-1.044l.04-4.057a4.753 4.753 0 0 0-.157-1.26 3.1 3.1 0 0 0-.471-1.006 2.664 2.664 0 0 0-.815-.728c-.37-.211-.77-.364-1.187-.453a6.96 6.96 0 0 0-1.55-.158c-.414 0-.827.026-1.237.079a8.5 8.5 0 0 0-1.149.227c-.35.095-.693.21-1.03.344l-.236 1.674a11.713 11.713 0 0 1 1.787-.492 7.18 7.18 0 0 1 .814-.108c.268-.02.533-.03.795-.03.4-.008.8.038 1.187.138.283.071.543.214.756.414.19.195.325.436.393.7.083.324.123.659.117.994l-.002.494-2.294.156a6.082 6.082 0 0 0-2.277.512 3.268 3.268 0 0 0-1.344 1.093 2.55 2.55 0 0 0-.442 1.447c-.003.485.115.963.344 1.39.24.437.601.796 1.04 1.033.535.28 1.134.415 1.737.394a4.509 4.509 0 0 0 1.658-.276c.46-.18.88-.447 1.237-.787a5.32 5.32 0 0 0 .386-.413c.038.204.11.4.213.58.175.302.443.537.765.67.355.143.736.214 1.119.207.118 0 .232-.004.343-.01.11-.007.218-.023.324-.05l.285-.069c.077-.017.152-.04.225-.068l.216-1.32c-.108.038-.22.064-.333.08a2.255 2.255 0 0 1-.275.018Zm-3.268-.886a3.769 3.769 0 0 1-.687.433c-.243.119-.5.205-.765.256-.275.053-.555.08-.835.079-.32.01-.638-.051-.932-.177a1.281 1.281 0 0 1-.579-.502 1.475 1.475 0 0 1-.196-.778c-.02-.329.07-.654.255-.926.214-.25.503-.423.824-.493a5.961 5.961 0 0 1 1.531-.157h1.719l-.009 1.955a2.64 2.64 0 0 1-.326.31ZM27.38 25.671l-.236-1.398h-7.576l-.236 1.575h5.7l-5.876 7.13.236 1.34H27.4l.216-1.596h-6l5.764-7.05ZM31.508 32.723l5.764-7.051-.236-1.4H29.46l-.235 1.577h5.7l-5.877 7.13.236 1.339h8.008l.215-1.595h-5.999Z"/></svg>