<svg xmlns="http://www.w3.org/2000/svg" viewBox="0 0 142 16"><path fill="#fff" d="M0 15.003V1.005h4.593v13.998H0Zm10.843-11.77 2.641 11.77H8.457L5.303 1.005h2.82a2.655 2.655 0 0 1 1.764.64c.491.404.829.964.956 1.587Zm3.331 11.77V1.005h4.594v13.998h-4.594Zm8.063-8.675a2.779 2.779 0 0 1-2.425-1.39 2.735 2.735 0 0 1-.374-1.41 2.685 2.685 0 0 1 .375-1.4 2.813 2.813 0 0 1 3.824-1.005c.415.244.761.59 1.005 1.005.25.424.38.908.375 1.4.005.495-.125.983-.375 1.41a2.8 2.8 0 0 1-1.005 1.015c-.424.251-.908.38-1.4.375Zm3.49 8.675V1.005h4.594v13.998h-4.594Zm10.409-6.348c.013.013.111.174.296.483.184.308.424.702.72 1.183a373.133 373.133 0 0 1 1.862 3.056c.289.48.617 1.022.986 1.626h-5.047l-.858-1.39c-.256-.414-.529-.86-.817-1.34-.29-.48-.576-.947-.858-1.4a71.236 71.236 0 0 1-.73-1.193 20.751 20.751 0 0 0-.424-.69 2.041 2.041 0 0 1-.335-.986c.02-.338.129-.665.316-.947.078-.131.223-.365.433-.7a212.331 212.331 0 0 0 1.598-2.603l.817-1.35.858-1.4H40l-3.904 6.369c-.12.189-.189.407-.197.63.013.236.095.463.236.652h.001ZM54.002 8.507a3.77 3.77 0 0 0-.995-.727 7.8 7.8 0 0 0-1.205-.488 13.61 13.61 0 0 0-1.313-.339c-.346-.08-.668-.159-.966-.239a4.434 4.434 0 0 1-.796-.289 2.635 2.635 0 0 1-.607-.398 1.427 1.427 0 0 1-.388-.557 2.142 2.142 0 0 1-.13-.787c-.004-.277.04-.554.13-.816.081-.232.218-.44.398-.608.186-.17.398-.311.627-.418.262-.12.54-.2.826-.239.34-.048.682-.071 1.025-.07a9.116 9.116 0 0 1 1.871.2c.3.065.596.148.886.249.271.093.534.21.786.348l.279-1.752a4.947 4.947 0 0 0-.886-.359 11.689 11.689 0 0 0-.945-.239 9.434 9.434 0 0 0-.976-.149c-.332-.033-.67-.05-1.015-.05a8.45 8.45 0 0 0-2.09.239c-.583.14-1.133.39-1.622.737A3.33 3.33 0 0 0 45.84 3.01a4.059 4.059 0 0 0-.368 1.792c-.011.479.066.955.228 1.404.143.377.364.72.648 1.006.28.28.602.516.955.697.373.193.763.353 1.164.479.418.132.846.245 1.284.338.358.08.69.162.995.249.284.078.56.181.826.309.229.107.44.248.627.418.178.167.317.37.408.597.106.273.157.564.15.857.005.31-.042.62-.14.915a2.13 2.13 0 0 1-.398.697 1.923 1.923 0 0 1-.637.478 3.23 3.23 0 0 1-.865.259 6.9 6.9 0 0 1-1.105.08 8.64 8.64 0 0 1-1.075-.07c-.372-.047-.744-.11-1.115-.19-.37-.079-.733-.175-1.085-.288a20.74 20.74 0 0 1-1.005-.349l.259 1.972c.34.127.685.236 1.035.328.318.084.64.15.965.2.312.046.624.082.936.109.312.026.627.04.946.04a9.782 9.782 0 0 0 2.12-.22 5.072 5.072 0 0 0 1.731-.716c.492-.326.89-.776 1.154-1.305.291-.626.431-1.311.409-2a4.488 4.488 0 0 0-.23-1.515 2.934 2.934 0 0 0-.656-1.074ZM65.915 13.863a.906.906 0 0 1-.777-.319 1.713 1.713 0 0 1-.219-1.055l.04-4.102a4.79 4.79 0 0 0-.159-1.275 3.126 3.126 0 0 0-.478-1.015 2.693 2.693 0 0 0-.826-.737 4.226 4.226 0 0 0-1.204-.458 7.078 7.078 0 0 0-1.573-.16c-.419 0-.838.027-1.254.08a8.61 8.61 0 0 0-1.164.23 9.697 9.697 0 0 0-1.045.348l-.239 1.693a11.674 11.674 0 0 1 1.812-.498c.273-.052.548-.09.826-.11.271-.02.54-.03.806-.03a4.46 4.46 0 0 1 1.204.14c.287.071.55.215.766.418.192.197.33.44.398.707.085.328.126.667.12 1.006l-.002.498-2.327.157a6.182 6.182 0 0 0-2.309.518 3.31 3.31 0 0 0-1.363 1.105c-.295.43-.45.941-.448 1.463-.004.49.116.973.348 1.404.244.443.61.806 1.055 1.046.543.282 1.15.42 1.762.398a4.579 4.579 0 0 0 1.681-.279 3.87 3.87 0 0 0 1.255-.796c.137-.132.268-.272.391-.418.039.207.112.405.216.587.177.305.45.543.776.677.36.145.746.216 1.134.21.12 0 .236-.004.349-.01.11-.007.22-.024.328-.05.106-.027.202-.05.289-.07.078-.018.154-.041.229-.07l.219-1.334c-.11.038-.224.064-.339.08a2.279 2.279 0 0 1-.278.02m-3.315-.897c-.215.171-.449.318-.696.438-.246.12-.507.207-.776.26a4.41 4.41 0 0 1-.846.079 2.246 2.246 0 0 1-.946-.18 1.299 1.299 0 0 1-.587-.507 1.49 1.49 0 0 1-.2-.787 1.51 1.51 0 0 1 .26-.936 1.52 1.52 0 0 1 .836-.498 6.069 6.069 0 0 1 1.553-.158h1.742l-.009 1.976a2.645 2.645 0 0 1-.331.313M63.864.003h-2.15l-1.691 3.565h1.552l2.29-3.565ZM82.176 5.16a3.464 3.464 0 0 0-1.772-.417 4.66 4.66 0 0 0-1.572.269 5.543 5.543 0 0 0-1.433.766 7.143 7.143 0 0 0-.707.598 2.496 2.496 0 0 0-1.025-1.195 3.507 3.507 0 0 0-1.791-.418c-.533 0-1.061.09-1.563.268a5.655 5.655 0 0 0-1.861 1.09V4.762l-2.03.298v10.056h2.03V7.543c.24-.156.489-.297.746-.42.316-.15.646-.267.986-.35.312-.076.633-.117.955-.119.296-.008.59.042.866.15.228.096.43.247.587.438.173.222.292.48.348.757.078.356.115.72.11 1.085v6.034h2.03V8.665a8.062 8.062 0 0 0-.076-1.14c.23-.15.468-.289.713-.414.31-.156.638-.276.975-.358.32-.078.647-.118.976-.12.292-.007.583.044.856.15.232.095.437.245.597.438.173.222.292.48.348.757.078.356.115.72.11 1.085v6.053h2.03V8.646a5.789 5.789 0 0 0-.358-2.21 2.566 2.566 0 0 0-1.075-1.275ZM86.615 15.118h2.03V4.763l-2.03.299v10.056ZM88.356.59a1.289 1.289 0 0 0-.686-.188 1.34 1.34 0 0 0-.697.189 1.458 1.458 0 0 0-.507.498 1.288 1.288 0 0 0-.19.687 1.37 1.37 0 0 0 .697 1.194c.213.12.453.182.697.18.24.003.477-.06.686-.18.205-.118.374-.29.488-.497a1.4 1.4 0 0 0 .18-.697c.002-.241-.06-.478-.18-.687a1.408 1.408 0 0 0-.488-.498ZM100.607 4.892c-.372.1-.728.254-1.055.458a5.19 5.19 0 0 0-.935.747c-.048.047-.093.1-.14.149V4.763l-2.03.298v10.056h2.03V7.595a5.16 5.16 0 0 1 1.085-.581c.206-.08.415-.15.627-.21a4.249 4.249 0 0 1 1.393-.149l.239-1.871a3.784 3.784 0 0 0-1.214.11ZM112.033 13.863a.91.91 0 0 1-.777-.319 1.72 1.72 0 0 1-.219-1.055l.04-4.102a4.766 4.766 0 0 0-.159-1.275 3.137 3.137 0 0 0-.478-1.015 2.68 2.68 0 0 0-.826-.737 4.222 4.222 0 0 0-1.204-.458 7.08 7.08 0 0 0-1.572-.16c-.42 0-.839.027-1.254.08-.393.05-.782.126-1.165.23a9.704 9.704 0 0 0-1.045.348l-.239 1.693a11.69 11.69 0 0 1 1.812-.498 7.28 7.28 0 0 1 .826-.11c.271-.02.54-.03.806-.03.406-.008.811.039 1.204.14.287.071.551.215.766.418.192.197.33.44.398.707.085.328.125.667.12 1.006l-.003.498-2.326.157a6.181 6.181 0 0 0-2.309.518 3.301 3.301 0 0 0-1.363 1.105 2.565 2.565 0 0 0-.448 1.463c-.004.49.116.973.348 1.404.244.443.61.806 1.055 1.046.543.282 1.15.42 1.762.398a4.573 4.573 0 0 0 1.681-.279 3.857 3.857 0 0 0 1.254-.796c.138-.132.269-.272.392-.418.039.207.112.405.216.587.177.305.45.543.776.677a2.9 2.9 0 0 0 1.134.21c.12 0 .236-.004.349-.01.111-.007.22-.024.328-.05.106-.027.202-.05.289-.07.078-.018.154-.041.229-.07l.219-1.334c-.11.038-.224.064-.339.08a2.265 2.265 0 0 1-.278.02m-3.315-.897c-.215.171-.449.318-.696.438-.246.12-.507.207-.776.26-.279.053-.562.08-.846.079a2.248 2.248 0 0 1-.946-.18 1.295 1.295 0 0 1-.587-.507 1.487 1.487 0 0 1-.199-.787 1.51 1.51 0 0 1 .259-.936c.216-.253.51-.428.836-.498a6.064 6.064 0 0 1 1.553-.158h1.742l-.009 1.976a2.58 2.58 0 0 1-.332.313M121.448 5.226l-.059-.025a6.874 6.874 0 0 0-2.528-.458 4.86 4.86 0 0 0-4.319 2.559 6.13 6.13 0 0 0-.697 3.036 6.143 6.143 0 0 0 .528 2.65 3.95 3.95 0 0 0 1.512 1.721c.714.42 1.531.631 2.359.608a5.53 5.53 0 0 0 1.503-.2c.488-.14.953-.348 1.383-.617.149-.092.299-.195.447-.303l.25.92h1.652V.104l-2.03.279-.001 4.844Zm-1.064 8.19a4.178 4.178 0 0 1-1.424.288 3.231 3.231 0 0 1-1.632-.389 2.492 2.492 0 0 1-1.035-1.194 4.992 4.992 0 0 1-.358-2.022 4.742 4.742 0 0 1 .398-2.061 2.808 2.808 0 0 1 1.145-1.254 3.52 3.52 0 0 1 1.781-.429 6.016 6.016 0 0 1 1.881.29c.097.03.204.071.308.11v6.137a6.54 6.54 0 0 1-1.064.523ZM128.324.59a1.286 1.286 0 0 0-.686-.188 1.342 1.342 0 0 0-.697.189 1.458 1.458 0 0 0-.507.498 1.29 1.29 0 0 0-.19.687 1.368 1.368 0 0 0 .697 1.194c.213.12.453.182.697.18.24.003.478-.06.686-.18.205-.118.374-.29.488-.497.12-.213.181-.453.179-.697a1.346 1.346 0 0 0-.179-.687 1.403 1.403 0 0 0-.488-.498ZM126.583 15.118h2.03V4.763l-2.03.299v10.056ZM140.715 7.182a4.353 4.353 0 0 0-1.762-1.802 5.987 5.987 0 0 0-5.414.02 4.587 4.587 0 0 0-1.811 1.852 5.848 5.848 0 0 0-.647 2.827c-.025.975.183 1.94.607 2.818a4.151 4.151 0 0 0 1.741 1.802 5.41 5.41 0 0 0 2.628.618 5.605 5.605 0 0 0 2.747-.658 4.64 4.64 0 0 0 1.861-1.871c.462-.884.691-1.87.666-2.868a5.778 5.778 0 0 0-.616-2.738Zm-1.882 4.869a2.708 2.708 0 0 1-1.084 1.245 3.09 3.09 0 0 1-1.592.408 2.831 2.831 0 0 1-1.553-.418 2.809 2.809 0 0 1-1.035-1.255 5.032 5.032 0 0 1-.377-2.071 4.692 4.692 0 0 1 .379-2.011 2.648 2.648 0 0 1 1.064-1.195 3.224 3.224 0 0 1 1.643-.398c.447-.011.892.074 1.303.249.361.163.676.412.916.726a3.2 3.2 0 0 1 .547 1.145c.125.485.185.984.18 1.484.023.717-.11 1.43-.389 2.09"/></svg>