<svg xmlns="http://www.w3.org/2000/svg" viewBox="0 0 131 56"><path fill="#fff" d="M0 15.003V1.005h4.593v13.998H0Zm10.843-11.77 2.641 11.77H8.457L5.303 1.005h2.82a2.655 2.655 0 0 1 1.764.64c.491.404.829.964.956 1.587Zm3.331 11.77V1.005h4.594v13.998h-4.594Zm8.063-8.675a2.737 2.737 0 0 1-1.409-.375 2.778 2.778 0 0 1-1.015-1.015 2.735 2.735 0 0 1-.375-1.41 2.685 2.685 0 0 1 .375-1.4 2.812 2.812 0 0 1 3.824-1.005c.415.244.761.59 1.005 1.005.251.424.38.908.375 1.4.005.495-.125.983-.375 1.41a2.8 2.8 0 0 1-1.005 1.015c-.424.251-.908.38-1.4.375Zm3.49 8.675V1.005h4.594v13.998h-4.594Zm10.409-6.348c.013.013.111.174.296.483.184.308.424.702.72 1.183a384.573 384.573 0 0 1 1.862 3.056c.289.48.617 1.022.986 1.626h-5.047l-.858-1.39c-.256-.414-.529-.86-.817-1.34-.29-.48-.576-.947-.858-1.4a71.236 71.236 0 0 1-.73-1.193 21.112 21.112 0 0 0-.424-.69 2.04 2.04 0 0 1-.334-.986c.019-.338.128-.665.315-.947.078-.131.223-.365.433-.7a216.7 216.7 0 0 0 1.598-2.603l.817-1.35.858-1.4H40l-3.904 6.369c-.12.189-.189.407-.197.63.013.236.095.463.236.652h.001ZM10.614 21.005h-2.46l-5.347 6.16h-.734v-6.16H.006v13.974h2.067V28.66h.069l5.815 6.337 2.815-.02-6.673-6.927 6.515-7.046ZM16.46 24.872c-.369.1-.72.252-1.044.453-.335.21-.646.457-.925.738-.046.046-.091.099-.137.147v-1.466l-2.008.296v9.939h2.008v-7.436a5.1 5.1 0 0 1 1.073-.575c.202-.078.409-.147.62-.206a4.224 4.224 0 0 1 1.377-.148l.236-1.85a3.747 3.747 0 0 0-1.2.108ZM19.49 34.979h2.007V24.744l-2.007.296v9.939ZM19.844 22.973c.21.118.448.18.69.177.237.003.472-.058.678-.177.203-.117.37-.287.482-.492.119-.21.18-.448.178-.689a1.33 1.33 0 0 0-.178-.679 1.389 1.389 0 0 0-.482-.492 1.274 1.274 0 0 0-.679-.187 1.325 1.325 0 0 0-.689.187c-.205.12-.377.29-.501.492-.125.204-.19.44-.187.68-.002.242.062.48.187.688.12.206.293.376.501.492ZM29.685 26.595c.322-.008.641.042.945.147.25.09.474.243.65.443.18.217.308.473.373.748.085.348.124.705.119 1.063v5.983h2.007v-6.397a5.455 5.455 0 0 0-.374-2.184 2.58 2.58 0 0 0-1.122-1.26 3.874 3.874 0 0 0-1.89-.413 5.53 5.53 0 0 0-1.682.265 6.394 6.394 0 0 0-1.584.758 7.86 7.86 0 0 0-.551.404v-1.408l-2.008.296v9.939h2.008v-7.475c.194-.114.394-.217.6-.31.276-.122.559-.23.846-.324.277-.09.56-.16.847-.207.27-.044.543-.067.816-.068ZM44.153 38.767c.717-.334.527-.875.933-1.554.396-.699.596-1.49.58-2.293V24.725l-1.925.495a5.758 5.758 0 0 0-.682-.24 7.114 7.114 0 0 0-.916-.186 7.692 7.692 0 0 0-1.063-.07 4.76 4.76 0 0 0-1.87.375 4.947 4.947 0 0 0-1.584 1.072 4.855 4.855 0 0 0-1.092 1.732 6.63 6.63 0 0 0-.393 2.372c-.022.889.149 1.772.501 2.588.309.698.82 1.288 1.467 1.693.708.417 1.52.626 2.342.6a5.676 5.676 0 0 0 2.106-.413 5 5 0 0 0 1.121-.638v.54c.008.443-.055.885-.186 1.308-.114.355-.31.679-.571.945-.282.27-.627.467-1.004.57-.49.135-.998.198-1.506.188-.404-.001-.808-.024-1.21-.07a8.612 8.612 0 0 1-1.25-.236 9.584 9.584 0 0 1-1.24-.423l1.006 1.732a8.48 8.48 0 0 0 1.112.364c.398.1.803.176 1.21.227.431.053.865.079 1.3.078a6.35 6.35 0 0 0 2.814-.56Zm-.73-5.904a6.234 6.234 0 0 1-.758.374c-.23.094-.467.17-.709.226-.236.053-.477.08-.718.08a3.42 3.42 0 0 1-1.703-.385 2.303 2.303 0 0 1-1.003-1.16A5.23 5.23 0 0 1 38.207 30a5.206 5.206 0 0 1 .226-1.605c.129-.427.35-.82.65-1.151a2.837 2.837 0 0 1 1.043-.699c.449-.17.926-.254 1.407-.246.31 0 .62.026.925.08.313.054.622.13.925.225.097.03.197.07.295.107v6.001c-.086.051-.174.104-.256.151ZM50.724 30.157h.033l4.021 4.822h2.598l-4.774-5.38 4.676-4.658h-2.46l-3.368 3.701h-.726V20.12l-2.007.296V34.98h2.007v-4.823ZM64.681 33.7c.039.204.11.4.213.58.176.301.446.536.768.67.356.142.738.213 1.122.206.118 0 .233-.003.344-.01a1.81 1.81 0 0 0 .325-.05l.285-.068c.078-.017.153-.04.227-.069l.216-1.319c-.108.038-.22.064-.334.08a2.247 2.247 0 0 1-.276.019.897.897 0 0 1-.767-.315 1.695 1.695 0 0 1-.217-1.043l.04-4.055a4.73 4.73 0 0 0-.158-1.26c-.096-.36-.256-.7-.472-1.003a2.668 2.668 0 0 0-.817-.728 4.172 4.172 0 0 0-1.191-.453 6.998 6.998 0 0 0-1.555-.157c-.414 0-.828.026-1.24.078a8.52 8.52 0 0 0-1.151.227c-.35.095-.696.21-1.033.344l-.236 1.673a11.541 11.541 0 0 1 1.79-.492c.27-.051.543-.087.817-.108.27-.02.535-.03.797-.03.402-.008.802.038 1.191.138.284.071.545.213.758.413.19.195.325.436.394.7.083.324.123.658.117.993l-.002.494-2.3.156a6.111 6.111 0 0 0-2.284.511 3.27 3.27 0 0 0-1.348 1.093c-.29.426-.445.93-.443 1.446-.003.484.115.962.345 1.388.24.438.603.796 1.043 1.033.537.28 1.137.415 1.742.394a4.53 4.53 0 0 0 1.663-.276c.46-.18.881-.447 1.24-.787.136-.13.265-.268.387-.413Zm-1.843-.158a4.36 4.36 0 0 1-.837.079c-.32.009-.64-.052-.935-.177a1.285 1.285 0 0 1-.58-.502 1.47 1.47 0 0 1-.197-.778 1.491 1.491 0 0 1 .256-.925c.214-.25.504-.423.826-.492a5.988 5.988 0 0 1 1.536-.157h1.723l-.009 1.953c-.1.113-.21.217-.328.31a3.785 3.785 0 0 1-.689.433c-.243.118-.5.204-.766.256ZM76.576 33.563c.225-.417.337-.885.324-1.358a2.754 2.754 0 0 0-.167-1.014 2.307 2.307 0 0 0-.463-.738 2.956 2.956 0 0 0-.689-.541 5.326 5.326 0 0 0-.826-.384c-.21-.066-.417-.134-.62-.207a10.993 10.993 0 0 0-.61-.196c-.204-.06-.4-.122-.59-.187a4.307 4.307 0 0 1-.522-.217 3.429 3.429 0 0 1-.463-.295 1.292 1.292 0 0 1-.335-.374.95.95 0 0 1-.127-.492c-.006-.19.042-.377.138-.541.102-.161.245-.294.413-.384.206-.113.428-.193.659-.236.289-.056.582-.082.876-.079a6.216 6.216 0 0 1 1.033.089c.203.032.407.075.61.128.204.052.41.111.62.177.195.06.386.132.571.216l.138-1.594a9.363 9.363 0 0 0-.738-.276 7.262 7.262 0 0 0-.738-.196 5.908 5.908 0 0 0-.738-.109 8.945 8.945 0 0 0-.719-.03 6.49 6.49 0 0 0-1.614.188c-.451.11-.88.296-1.27.55a2.51 2.51 0 0 0-.836.926 2.815 2.815 0 0 0-.295 1.328c-.006.332.047.662.158.975.093.262.233.505.413.718.175.2.377.376.6.521.233.153.48.281.738.384a17.65 17.65 0 0 0 .915.305 32.969 32.969 0 0 1 .867.276c.137.046.272.088.403.128.176.062.347.138.512.226.144.077.28.17.403.276a1.015 1.015 0 0 1 .345.777.981.981 0 0 1-.325.778 1.888 1.888 0 0 1-.846.403c-.366.08-.739.12-1.113.118a5.515 5.515 0 0 1-.698-.05 9.99 9.99 0 0 1-.807-.137c-.282-.06-.57-.132-.866-.216-.295-.086-.594-.18-.896-.286l.08 1.673c.34.118.652.213.934.286.282.072.551.134.807.187.247.05.496.083.748.098.243.013.489.02.738.02a7.677 7.677 0 0 0 1.633-.168 4.223 4.223 0 0 0 1.339-.521c.372-.228.68-.546.896-.925ZM84.487 33.395l-.334.058c-.108.02-.216.033-.325.04-.105.007-.204.01-.295.01a1.984 1.984 0 0 1-.876-.177 1.267 1.267 0 0 1-.561-.522 1.657 1.657 0 0 1-.197-.836v-5.452h2.775l.217-1.575h-2.992v-3.11l-2.008.71v2.4h-1.515l-.216 1.575h1.731v5.865c-.008.391.052.78.178 1.151.1.293.258.564.462.797.188.208.415.376.67.492.26.12.534.206.816.256.279.052.562.078.846.079.21 0 .417-.007.62-.02a6.61 6.61 0 0 0 1.044-.147c.15-.033.278-.062.383-.089l.118-1.633c-.076.03-.155.052-.236.069-.092.02-.193.039-.305.059ZM88.837 20.621a1.273 1.273 0 0 0-.678-.187 1.323 1.323 0 0 0-.69.187c-.205.12-.377.29-.501.492-.125.204-.19.44-.187.68-.002.242.063.48.187.688.12.206.293.376.502.492.21.118.448.18.689.177.238.003.472-.058.678-.177.203-.117.37-.287.483-.492.118-.21.18-.448.177-.689a1.327 1.327 0 0 0-.177-.679 1.386 1.386 0 0 0-.483-.492ZM87.114 34.979h2.008V24.744l-2.008.296v9.939ZM99.907 25.138a3.871 3.871 0 0 0-1.889-.413 5.53 5.53 0 0 0-1.683.265 6.398 6.398 0 0 0-1.584.758c-.19.125-.373.263-.551.404v-1.408l-2.008.296v9.939H94.2v-7.475c.194-.114.394-.217.6-.31.276-.122.559-.23.846-.324.277-.09.56-.16.847-.207.27-.044.543-.067.817-.068.32-.008.64.042.944.147.25.09.474.243.65.443.18.217.308.473.374.748.084.348.123.705.118 1.063v5.983h2.007v-6.397a5.456 5.456 0 0 0-.374-2.184 2.577 2.577 0 0 0-1.122-1.26ZM110.684 24.98a7.116 7.116 0 0 0-.916-.186 7.684 7.684 0 0 0-1.062-.07 4.76 4.76 0 0 0-1.87.375 4.936 4.936 0 0 0-1.584 1.072 4.846 4.846 0 0 0-1.093 1.732 6.632 6.632 0 0 0-.394 2.372c-.021.889.15 1.772.502 2.588a3.818 3.818 0 0 0 1.466 1.693 4.348 4.348 0 0 0 2.343.6 5.674 5.674 0 0 0 2.105-.413c.4-.163.777-.378 1.122-.638v.54c.008.443-.055.885-.187 1.308a2.379 2.379 0 0 1-.57.945 2.35 2.35 0 0 1-1.004.57c-.49.135-.998.198-1.506.188-.404-.001-.808-.024-1.21-.07a8.62 8.62 0 0 1-1.25-.236 9.544 9.544 0 0 1-1.24-.423l.217 1.732c.361.147.733.269 1.112.364.398.101.802.177 1.21.227.431.053.865.079 1.299.078a6.346 6.346 0 0 0 2.814-.56 3.944 3.944 0 0 0 1.722-1.555c.397-.699.597-1.49.581-2.293V24.725l-1.925.495a5.753 5.753 0 0 0-.682-.24Zm.363 7.883a6.13 6.13 0 0 1-.757.374 4.63 4.63 0 0 1-.709.226 3.21 3.21 0 0 1-.718.08 3.417 3.417 0 0 1-1.702-.385 2.301 2.301 0 0 1-1.004-1.16 5.233 5.233 0 0 1-.325-1.998 5.218 5.218 0 0 1 .226-1.605c.129-.427.351-.82.65-1.151a2.838 2.838 0 0 1 1.043-.699 3.79 3.79 0 0 1 1.407-.246c.31 0 .62.026.925.08.313.054.622.13.925.225.097.03.197.07.296.107v6.001c-.088.051-.175.104-.257.151ZM122.56 30.452a2.973 2.973 0 0 0-.689-.541 5.321 5.321 0 0 0-.827-.384c-.21-.066-.416-.134-.62-.207a10.803 10.803 0 0 0-.61-.196c-.203-.06-.4-.122-.59-.187a4.281 4.281 0 0 1-.522-.217 3.474 3.474 0 0 1-.462-.295 1.272 1.272 0 0 1-.334-.374.945.945 0 0 1-.129-.492c-.005-.19.043-.377.138-.541.103-.162.245-.294.414-.384a2.21 2.21 0 0 1 .659-.236c.288-.056.582-.082.876-.079a6.209 6.209 0 0 1 1.033.089c.203.032.407.075.61.127.203.053.41.112.62.178.195.06.385.132.571.216l.138-1.594a9.513 9.513 0 0 0-.738-.276 7.323 7.323 0 0 0-.738-.196 5.94 5.94 0 0 0-.738-.109 8.967 8.967 0 0 0-.719-.03 6.49 6.49 0 0 0-1.614.188 4.06 4.06 0 0 0-1.269.55c-.353.234-.64.552-.837.926a2.818 2.818 0 0 0-.295 1.328c-.006.332.047.662.158.975.093.262.233.505.413.718.175.2.377.376.601.522.232.152.479.28.738.383a16.572 16.572 0 0 0 .915.305 34.29 34.29 0 0 1 .865.276c.138.046.273.088.404.128.176.062.347.138.512.226.144.077.28.17.403.276a1.003 1.003 0 0 1 .345.777.984.984 0 0 1-.325.778 1.891 1.891 0 0 1-.846.403 5.02 5.02 0 0 1-1.112.118 5.523 5.523 0 0 1-.699-.05 9.996 9.996 0 0 1-.807-.137c-.281-.06-.57-.132-.866-.216-.295-.086-.593-.18-.895-.286l.079 1.673c.34.118.652.213.934.286.282.072.551.134.807.187.247.05.497.083.748.098.243.013.489.02.738.02a7.672 7.672 0 0 0 1.633-.168 4.22 4.22 0 0 0 1.339-.521c.372-.227.68-.546.896-.925.225-.417.337-.885.324-1.358a2.757 2.757 0 0 0-.167-1.014 2.3 2.3 0 0 0-.463-.738ZM125.276 28.582l-.138 1.614h5.57l.138-1.614h-5.57ZM7.786 45.372a5.399 5.399 0 0 0-2.666-.63 5.374 5.374 0 0 0-2.687.65 4.536 4.536 0 0 0-1.79 1.83 5.784 5.784 0 0 0-.641 2.795c-.025.963.18 1.918.6 2.785a4.108 4.108 0 0 0 1.722 1.781c.801.42 1.695.63 2.598.61a5.544 5.544 0 0 0 2.717-.65 4.586 4.586 0 0 0 1.84-1.85 5.8 5.8 0 0 0 .66-2.833 5.7 5.7 0 0 0-.611-2.706 4.3 4.3 0 0 0-1.742-1.782Zm-.118 6.594a2.685 2.685 0 0 1-1.072 1.23 3.059 3.059 0 0 1-1.575.403 2.797 2.797 0 0 1-1.535-.413 2.77 2.77 0 0 1-1.023-1.24 4.969 4.969 0 0 1-.374-2.047 4.639 4.639 0 0 1 .374-1.988c.22-.493.588-.905 1.053-1.18a3.185 3.185 0 0 1 1.624-.394c.442-.011.881.073 1.288.246.357.16.668.407.906.718.254.338.438.722.541 1.132.123.479.183.972.177 1.466a4.905 4.905 0 0 1-.384 2.067ZM16.692 44.89c-.368.099-.72.251-1.043.453-.336.21-.646.457-.925.738-.047.046-.092.098-.138.147v-1.466l-2.008.295v9.94h2.008V47.56a5.112 5.112 0 0 1 1.073-.575c.203-.079.41-.147.62-.207a4.22 4.22 0 0 1 1.377-.147l.236-1.85a3.744 3.744 0 0 0-1.2.108ZM28.284 44.959h-2.46l-3.368 3.701h-.726v-8.522l-2.007.295v14.565h2.007v-4.822h.033l4.021 4.822h2.598l-4.774-5.38 4.676-4.659ZM37.672 46.228a3.57 3.57 0 0 0-1.446-1.111 5.046 5.046 0 0 0-1.998-.374 4.895 4.895 0 0 0-2.008.393 4.29 4.29 0 0 0-1.505 1.102 4.833 4.833 0 0 0-.945 1.703 7.112 7.112 0 0 0-.325 2.214c-.028.948.171 1.89.58 2.745a3.844 3.844 0 0 0 1.723 1.713c.873.41 1.83.61 2.795.58a9.61 9.61 0 0 0 1.387-.088 6.655 6.655 0 0 0 1.132-.266 7.34 7.34 0 0 0 1.063-.453l.138-1.515-.758.276a9.47 9.47 0 0 1-.797.245c-.278.073-.561.126-.847.158-.287.033-.576.05-.865.05a6.21 6.21 0 0 1-1.536-.168 2.523 2.523 0 0 1-1.092-.57 2.49 2.49 0 0 1-.67-1.093 5 5 0 0 1-.214-1.3h7.113a7.54 7.54 0 0 0-.108-2.44 4.6 4.6 0 0 0-.817-1.8Zm-4.96.473a2.79 2.79 0 0 1 1.536-.404 2.406 2.406 0 0 1 1.515.443c.392.313.672.745.797 1.23.098.36.147.73.143 1.102h-5.175c.036-.392.12-.779.25-1.15.168-.5.496-.93.934-1.221ZM47.277 50.47a2.958 2.958 0 0 0-.69-.541 5.338 5.338 0 0 0-.826-.384c-.21-.066-.416-.135-.62-.207a11.053 11.053 0 0 0-.61-.197 12.48 12.48 0 0 1-.59-.187 4.291 4.291 0 0 1-.522-.216 3.403 3.403 0 0 1-.463-.295 1.292 1.292 0 0 1-.334-.374.947.947 0 0 1-.129-.492 1.02 1.02 0 0 1 .138-.542 1.12 1.12 0 0 1 .414-.383c.206-.113.428-.193.659-.237.289-.055.582-.081.876-.078a6.21 6.21 0 0 1 1.033.088c.204.033.407.076.61.128.204.053.41.112.62.177.195.06.385.133.57.217l.139-1.594a9.306 9.306 0 0 0-.738-.276 7.229 7.229 0 0 0-.738-.197 5.884 5.884 0 0 0-.738-.108 8.887 8.887 0 0 0-.719-.03 6.49 6.49 0 0 0-1.614.188c-.451.11-.88.296-1.27.55-.351.234-.639.552-.835.926a2.815 2.815 0 0 0-.296 1.328c-.006.332.047.662.158.974.093.263.233.506.413.719.175.2.377.376.6.521.233.153.48.281.738.384a16.63 16.63 0 0 0 .916.305 40.04 40.04 0 0 1 .865.276c.138.046.273.088.404.128.176.062.347.138.512.226.144.076.28.169.403.275a1.01 1.01 0 0 1 .345.778.981.981 0 0 1-.325.777 1.89 1.89 0 0 1-.847.404c-.365.08-.738.12-1.111.118a5.52 5.52 0 0 1-.7-.05 10.017 10.017 0 0 1-.806-.137 12.43 12.43 0 0 1-.866-.217c-.295-.085-.594-.18-.895-.285l.078 1.673c.34.118.653.213.935.285.283.072.551.135.807.187.246.051.496.084.748.099.242.013.488.02.738.02a7.677 7.677 0 0 0 1.633-.168 4.22 4.22 0 0 0 1.339-.522 2.57 2.57 0 0 0 .895-.924c.225-.417.337-.885.325-1.359a2.754 2.754 0 0 0-.167-1.013 2.308 2.308 0 0 0-.462-.738ZM55.493 53.412l-.334.06c-.107.018-.216.032-.325.039-.105.006-.204.01-.295.01a1.985 1.985 0 0 1-.876-.178 1.27 1.27 0 0 1-.56-.521 1.66 1.66 0 0 1-.197-.837v-5.452h2.775l.216-1.574h-2.991v-3.11l-2.008.709v2.401h-1.516l-.216 1.574h1.732V52.4c-.009.39.051.78.177 1.15a2.4 2.4 0 0 0 .463.798c.187.208.415.375.669.492.26.12.534.206.816.256.28.051.563.078.847.079.21 0 .416-.007.62-.02.203-.013.39-.033.56-.06.171-.026.332-.055.483-.088.15-.032.279-.062.383-.088l.119-1.634c-.077.03-.156.053-.236.07-.092.02-.194.04-.306.058ZM62.234 44.89c-.368.099-.72.251-1.043.453a5.13 5.13 0 0 0-.925.738c-.046.046-.091.098-.138.147v-1.466l-2.007.295v9.94h2.007V47.56a5.14 5.14 0 0 1 1.073-.575c.203-.079.41-.147.62-.207a4.235 4.235 0 0 1 1.378-.147l.236-1.85a3.744 3.744 0 0 0-1.2.108ZM72.882 46.228a3.571 3.571 0 0 0-1.447-1.111 5.045 5.045 0 0 0-1.997-.374 4.895 4.895 0 0 0-2.008.393 4.29 4.29 0 0 0-1.506 1.102 4.823 4.823 0 0 0-.945 1.703 7.112 7.112 0 0 0-.324 2.214c-.028.948.171 1.89.58 2.745a3.844 3.844 0 0 0 1.723 1.713c.873.41 1.83.61 2.794.58.465.004.928-.025 1.388-.088a6.657 6.657 0 0 0 1.132-.266c.365-.123.72-.274 1.063-.453l.137-1.515c-.25.092-.502.184-.758.276a9.47 9.47 0 0 1-.797.245 5.99 5.99 0 0 1-.846.158 7.64 7.64 0 0 1-.866.05 6.204 6.204 0 0 1-1.535-.168 2.522 2.522 0 0 1-1.092-.57 2.493 2.493 0 0 1-.67-1.093 4.996 4.996 0 0 1-.214-1.3h7.112a7.53 7.53 0 0 0-.108-2.44 4.6 4.6 0 0 0-.816-1.8Zm-4.96.473c.462-.28.995-.42 1.535-.404a2.406 2.406 0 0 1 1.516.443c.392.313.671.745.796 1.23.099.36.147.73.144 1.102h-5.176c.037-.392.12-.779.25-1.15a2.38 2.38 0 0 1 .935-1.221ZM81.472 53.412l-.334.06c-.108.018-.216.032-.325.039-.105.006-.204.01-.295.01-.302.008-.601-.053-.876-.178a1.266 1.266 0 0 1-.56-.521 1.657 1.657 0 0 1-.198-.837v-5.452h2.775l.217-1.574h-2.992v-3.11l-2.007.709v2.401h-1.515l-.217 1.574h1.732V52.4c-.009.39.051.78.177 1.15a2.4 2.4 0 0 0 .463.798c.187.208.415.375.669.492.26.12.534.206.816.256.28.051.563.078.847.079.21 0 .416-.007.62-.02.203-.013.39-.033.56-.06.171-.026.332-.055.483-.088.15-.032.279-.062.384-.088l.118-1.634c-.077.03-.156.053-.236.07-.093.02-.194.04-.306.058Z"/></svg>