<svg xmlns="http://www.w3.org/2000/svg" viewBox="0 0 36 36"><path fill="#000" d="M3.462 3.462h29.077v29.077H3.462z"/><path fill="#FFE100" fill-rule="evenodd" d="M0 0h36v36H0V0Zm11.626 16H8.308v12.056h3.318V16Zm4.208 0h-3.727s2.117 3.47 2.141 3.514c.162.276.172.444.014.71l-2.155 3.528h3.727s1.797-2.935 2.042-3.342c.244-.408.233-.661-.01-1.08-.248-.421-.264-.447-1.722-2.825l-.31-.505Zm10.436 0s1.109 1.784 1.234 1.997c.244.42.255.674.01 1.083l-1.637 2.71c.268.437.625 1.009.939 1.511v.001l.001.002.001.001.001.002c.323.517.599.959.685 1.106.244.42.255.674.01 1.083l-.266.445c-.332.557-.873 1.465-1.27 2.116h-3.406l1.865-3.06-1.934-3.241 1.734-2.838h-4.2L18.294 16h7.976Zm-6.438 6.19a382.4 382.4 0 0 0-1.567 2.572c-.235.404-.245.648-.01 1.042.165.273 1.05 1.72 1.577 2.58.527-.86 1.412-2.307 1.576-2.58.236-.394.226-.638-.009-1.042-.165-.28-1.043-1.715-1.567-2.571ZM8.308 7.432v6.783h2.226V7.43H8.308Zm6.534 6.783-1.28-5.703a1.342 1.342 0 0 0-.463-.77 1.287 1.287 0 0 0-.855-.31h-1.366l1.528 6.783h2.436Zm.335-6.783v6.783h2.226V7.43h-2.226ZM18.4 9.83c.207.121.443.184.683.182.239.002.473-.06.678-.182a1.357 1.357 0 0 0 .67-1.175 1.303 1.303 0 0 0-.182-.678 1.374 1.374 0 0 0-.488-.487 1.306 1.306 0 0 0-.678-.182 1.363 1.363 0 0 0-1.175.669c-.121.205-.184.44-.181.678a1.346 1.346 0 0 0 .674 1.175Zm2.374-2.398v6.783h2.227V7.43h-2.227Zm5.188 3.94a5.241 5.241 0 0 0-.143-.233.58.58 0 0 1-.115-.315.61.61 0 0 1 .095-.306l1.892-3.086h-2.445a305.985 305.985 0 0 0-.812 1.333 103.334 103.334 0 0 1-.985 1.6.928.928 0 0 0-.152.459c.011.17.067.335.162.477.038.058.106.17.205.335.099.165.217.358.354.578.137.22.275.446.416.678.14.232.271.449.396.65l.416.673h2.445c-.178-.293-.338-.556-.477-.788a198.775 198.775 0 0 0-.903-1.48c-.143-.234-.26-.425-.349-.574Z" clip-rule="evenodd"/></svg>