<svg xmlns="http://www.w3.org/2000/svg" viewBox="0 0 63 22"><path fill="#fff" d="M0 18.003V4.005h4.593v13.998H0Zm10.843-11.77 2.642 11.77H8.457L5.303 4.005h2.82a2.655 2.655 0 0 1 1.764.64c.491.404.829.964.956 1.588Zm3.332 11.77V4.005h4.593v13.998h-4.594Zm8.062-8.675a2.779 2.779 0 0 1-2.425-1.39 2.735 2.735 0 0 1-.374-1.41 2.685 2.685 0 0 1 .375-1.4 2.813 2.813 0 0 1 3.824-1.005c.415.244.761.59 1.005 1.005.251.424.38.908.375 1.4.005.495-.125.983-.375 1.41a2.8 2.8 0 0 1-1.005 1.015c-.424.251-.908.38-1.4.375Zm3.49 8.675V4.005h4.594v13.998h-4.594Zm10.41-6.348c.012.013.11.174.295.483.184.308.424.702.72 1.183a373.133 373.133 0 0 1 1.862 3.056c.289.48.617 1.022.986 1.626h-5.047c-.315-.512-.601-.976-.858-1.39-.256-.414-.528-.86-.817-1.34-.29-.48-.576-.947-.858-1.4a71.148 71.148 0 0 1-.73-1.193 20.758 20.758 0 0 0-.424-.69 2.041 2.041 0 0 1-.334-.986c.02-.338.128-.665.315-.947.079-.131.223-.365.433-.7a212.331 212.331 0 0 0 1.598-2.603l.817-1.35.858-1.4H40l-3.904 6.369c-.12.189-.189.407-.197.63.013.236.095.463.236.652h.001ZM56.572 8.839h-1.46a.839.839 0 0 0-.827.828v2.116c.262-.116.542-.187.827-.21h1.61a1.438 1.438 0 0 0 1.053-.387 1.442 1.442 0 0 0 .388-1.054 1.128 1.128 0 0 0-.406-.927 1.851 1.851 0 0 0-1.185-.366Z"/><path fill="#fff" d="M52.333.67a10.333 10.333 0 1 0 0 20.666 10.333 10.333 0 0 0 0-20.666Zm-.778 12.205c-.007 2.208-1.59 2.91-2.194 3.261l-1.04-1.258.025-.012-.025-.029c.335-.167 1.577-.805 1.577-1.781v-.737c-.17.347-1.056.74-1.658.75h-.066a3.43 3.43 0 0 1-2.316-.896 3.33 3.33 0 0 1-1.011-2.497V7.45h1.615v2.226c0 1.295.895 1.767 1.745 1.778.744-.01 1.678-.333 1.71-1.33V7.449h1.636l.002 5.426Zm7.012 1.37a.742.742 0 0 0 .705.21l-.002 1.34h-.98l-.032.001c-.01 0-.023 0-.034-.002h-.037v-.002a.83.83 0 0 1-.508-.23l-1.905-2.334h-.66a.84.84 0 0 0-.827.828v1.738h-1.655V9.667a2.487 2.487 0 0 1 2.482-2.484h1.46a3.487 3.487 0 0 1 2.242.746 2.799 2.799 0 0 1 1.004 2.2 3.097 3.097 0 0 1-.873 2.227 2.94 2.94 0 0 1-1.293.747s.559.764.913 1.142Z"/></svg>