<svg xmlns="http://www.w3.org/2000/svg" viewBox="0 0 64 24"><path fill="#fff" d="M0 17.998V5.999h3.937v11.999H0Zm9.294-10.09 2.264 10.09H7.25L4.546 5.999h2.416a2.276 2.276 0 0 1 1.513.55c.42.345.71.826.819 1.36Zm2.856 10.09V5.999h3.937v11.999H12.15Zm6.91-7.436a2.382 2.382 0 0 1-2.4-2.4 2.303 2.303 0 0 1 .322-1.2 2.412 2.412 0 0 1 3.278-.861c.356.209.653.506.862.861.215.364.326.779.321 1.2a2.4 2.4 0 0 1-1.183 2.079 2.303 2.303 0 0 1-1.2.321Zm2.992 7.436V5.999h3.937v11.999h-3.937Zm8.922-5.442c.01.012.095.15.253.414.158.265.364.603.617 1.014a334.427 334.427 0 0 1 1.597 2.62c.247.411.529.876.845 1.394H29.96c-.27-.44-.516-.837-.736-1.191-.22-.355-.453-.738-.7-1.15-.248-.41-.493-.81-.736-1.2-.242-.389-.45-.73-.625-1.022a18.04 18.04 0 0 0-.363-.591 1.75 1.75 0 0 1-.287-.845c.016-.29.11-.57.27-.812.067-.112.191-.313.372-.6a182.106 182.106 0 0 0 1.37-2.23c.247-.412.48-.798.7-1.158l.735-1.2h4.326l-3.346 5.458a1.079 1.079 0 0 0-.17.542c.012.201.082.395.203.557ZM47.135 7.553a3.017 3.017 0 0 0-.785-.82 3.764 3.764 0 0 0-1.14-.54 5.387 5.387 0 0 0-1.518-.194H39v11.998h1.772v-4.309h3.055c.69.01 1.37-.158 1.974-.49a3.654 3.654 0 0 0 1.393-1.369 4.041 4.041 0 0 0 .515-2.078 4.947 4.947 0 0 0-.135-1.167 3.374 3.374 0 0 0-.44-1.03Zm-1.57 3.642c-.227.356-.56.632-.953.786-.477.18-.985.267-1.494.254h-2.346V7.469h2.582c.494-.019.984.077 1.435.279.358.173.651.458.835.811.195.396.29.834.279 1.276.019.476-.098.948-.338 1.36ZM51.312 6.396c-.242.13-.479.25-.71.363-.23.112-.463.225-.7.338a8.14 8.14 0 0 1-.725.304 21.6 21.6 0 0 1-.794.27l.372 1.437c.337-.101.644-.203.92-.304.27-.1.534-.212.793-.338.253-.124.506-.259.76-.406l.008-.005v9.943h1.755V5.999h-.912c-.27.135-.526.267-.767.397ZM59.86 11.339V7.925h-1.486v3.414H54.95v1.335h3.425v3.397h1.486v-3.397h3.426v-1.335H59.86Z"/></svg>