<svg width="113" height="58" viewBox="0 0 113 58" fill="none" xmlns="http://www.w3.org/2000/svg">
<path d="M0 17.9978V5.99889H3.93719V17.9978H0ZM9.29381 7.90858L11.5581 17.9978H7.24917L4.54549 5.99889H6.96218C7.51635 5.9917 8.05406 6.18705 8.4745 6.54819C8.89562 6.89418 9.18495 7.3745 9.29381 7.90858ZM12.1495 17.9978V5.99889H16.0867V17.9978H12.1495ZM19.0605 10.5619C18.6362 10.566 18.2188 10.455 17.8525 10.2408C17.4912 10.0319 17.1911 9.73176 16.9823 9.3704C16.7678 9.00413 16.6568 8.58656 16.661 8.16212C16.6561 7.74026 16.7672 7.32518 16.9823 6.96223C17.1933 6.60479 17.4931 6.3079 17.8525 6.10032C18.2189 5.88631 18.6362 5.77532 19.0605 5.77919C19.4822 5.77464 19.8971 5.88573 20.2602 6.10032C20.616 6.30972 20.9127 6.60636 21.122 6.96223C21.3368 7.32528 21.4479 7.7403 21.4433 8.16212C21.4473 8.58653 21.3363 9.00403 21.122 9.3704C20.9149 9.73018 20.6179 10.0301 20.2602 10.2408C19.8971 10.4558 19.4819 10.5669 19.0599 10.5619H19.0605ZM22.0516 17.9978V5.99889H25.9892V17.9978H22.0516ZM30.9737 12.556C30.9848 12.5677 31.0693 12.7057 31.2272 12.9701C31.3851 13.2345 31.5906 13.5725 31.8439 13.9841C32.0974 14.3955 32.3649 14.8321 32.6463 15.2938C32.9278 15.7555 33.1926 16.1922 33.4408 16.6036C33.6881 17.015 33.9697 17.4797 34.2857 17.9978H29.9598C29.6893 17.5584 29.4441 17.1613 29.2245 16.8064C29.0048 16.4515 28.7713 16.0684 28.5238 15.6572C28.2758 15.2463 28.0306 14.8463 27.7882 14.4573C27.5458 14.0682 27.3375 13.7274 27.1633 13.4349C26.9883 13.1421 26.8671 12.9449 26.7997 12.8433C26.6325 12.5912 26.5336 12.3001 26.5127 11.9983C26.5294 11.7087 26.6226 11.4288 26.7828 11.1869C26.8504 11.0742 26.9743 10.8742 27.1545 10.5869C27.3348 10.2996 27.546 9.95886 27.7882 9.56453C28.0304 9.1702 28.2756 8.76741 28.5238 8.35618C28.772 7.94495 29.0056 7.55904 29.2245 7.19851C29.4445 6.83835 29.6897 6.43839 29.9598 5.99862H34.2857L30.9396 11.4573C30.8361 11.6194 30.7777 11.8061 30.7706 11.9983C30.7818 12.2001 30.8522 12.3941 30.9731 12.556H30.9737Z" fill="white"/>
<path d="M9.1056 23.0053H6.99512L2.40834 28.2899H1.77801V23.0053H0.00519786V34.9928H1.77801V29.5731H1.83737L6.82626 35.0097L9.24067 34.9928L3.51675 29.0497L9.1056 23.0053Z" fill="#85E6D6"/>
<path d="M14.1198 26.3229C13.804 26.4076 13.5025 26.5384 13.225 26.7113C12.937 26.891 12.6707 27.1035 12.4315 27.3444C12.3915 27.3841 12.353 27.4288 12.3133 27.4707V26.2132L10.5911 26.4665V34.9928H12.3133V28.6141C12.4441 28.524 12.5761 28.4396 12.71 28.3659C12.879 28.2728 13.054 28.191 13.2337 28.121C13.4078 28.0535 13.585 27.9944 13.7653 27.9438C13.9506 27.8923 14.1397 27.8555 14.3309 27.834C14.5355 27.8113 14.7416 27.8056 14.9471 27.8172L15.1498 26.2301C14.8037 26.2052 14.4559 26.2366 14.1198 26.3229Z" fill="#85E6D6"/>
<path d="M16.7195 34.9928H18.4416V26.2132L16.7195 26.4665V34.9928Z" fill="#85E6D6"/>
<path d="M17.0236 24.6936C17.2039 24.795 17.4076 24.8474 17.6145 24.8456C17.8187 24.8481 18.0198 24.7956 18.1967 24.6936C18.3705 24.5932 18.5136 24.4472 18.6107 24.2715C18.712 24.0912 18.7643 23.8875 18.7626 23.6806C18.765 23.4764 18.7125 23.2752 18.6107 23.0981C18.5104 22.9249 18.368 22.7797 18.1967 22.676C18.0216 22.5689 17.8198 22.5133 17.6145 22.5156C17.4066 22.514 17.2022 22.5695 17.0236 22.676C16.8476 22.7791 16.6998 22.9241 16.5933 23.0981C16.4861 23.2733 16.4304 23.4752 16.4329 23.6806C16.4311 23.8886 16.4866 24.093 16.5933 24.2715C16.6965 24.4481 16.8451 24.5938 17.0236 24.6936Z" fill="#85E6D6"/>
<path d="M25.4657 27.8003C25.7412 27.7939 26.0157 27.8367 26.2761 27.9269C26.491 28.0043 26.6827 28.135 26.8333 28.3068C26.9883 28.493 27.0981 28.7126 27.1541 28.9483C27.2262 29.2468 27.2602 29.5531 27.2554 29.8601V34.9928H28.9775V29.5055C29 28.8655 28.8909 28.2276 28.6568 27.6314C28.4661 27.1736 28.1272 26.793 27.6944 26.5509C27.1928 26.2975 26.6351 26.1755 26.0735 26.1963C25.5834 26.1972 25.0965 26.2741 24.63 26.4242C24.1492 26.5774 23.6918 26.7961 23.2708 27.0743C23.1079 27.1815 22.9512 27.2994 22.7981 27.4204V26.2132L21.0759 26.4664V34.9928H22.7981V28.5803C22.9648 28.4827 23.1367 28.3942 23.3131 28.3152C23.5502 28.2101 23.7924 28.1171 24.039 28.0366C24.2761 27.959 24.5189 27.8997 24.765 27.8593C24.9966 27.8208 25.2309 27.801 25.4657 27.8003Z" fill="#85E6D6"/>
<path d="M43.5139 30.8562H43.5421L46.9918 34.9928H49.2204L45.125 30.3779L49.136 26.382H47.0255L44.1367 29.557H43.5139V22.2463L41.7918 22.4996V34.9936H43.5139V30.8562Z" fill="#85E6D6"/>
<path d="M55.4871 33.8962C55.5201 34.0709 55.5818 34.239 55.67 34.3934C55.8206 34.6518 56.052 34.8535 56.3285 34.9674C56.6342 35.0902 56.9614 35.1505 57.2908 35.1447C57.3922 35.1447 57.4907 35.1419 57.5863 35.1363C57.6803 35.1306 57.7735 35.1165 57.8649 35.0941C57.955 35.0713 58.0363 35.0519 58.1098 35.035C58.1759 35.02 58.2409 35.0003 58.3042 34.9759L58.4896 33.8447C58.3964 33.8766 58.3002 33.8992 58.2026 33.9122C58.1242 33.9227 58.0453 33.9283 57.9662 33.9291C57.8428 33.9404 57.7185 33.9217 57.6039 33.8747C57.4892 33.8277 57.3876 33.7537 57.3077 33.659C57.1512 33.3884 57.0861 33.0746 57.1221 32.7641L57.1558 29.286C57.1595 28.9214 57.1141 28.558 57.0207 28.2055C56.9387 27.8964 56.8015 27.6047 56.6158 27.3444C56.4278 27.09 56.1892 26.8772 55.9148 26.7197C55.5962 26.5387 55.2517 26.4077 54.8933 26.3314C54.4552 26.2367 54.0078 26.1914 53.5595 26.1963C53.2039 26.1961 52.8486 26.2187 52.4958 26.2638C52.1625 26.3058 51.8325 26.3706 51.5081 26.458C51.2073 26.5397 50.9114 26.6383 50.6218 26.7535L50.4192 28.1886C50.7006 28.0873 50.968 28.0029 51.2214 27.9353C51.4749 27.8678 51.7196 27.8115 51.9556 27.7665C52.1872 27.7222 52.4211 27.6912 52.6562 27.6736C52.887 27.6568 53.1149 27.6483 53.34 27.6483C53.6843 27.6409 54.028 27.6807 54.3615 27.7665C54.6049 27.8273 54.8287 27.9494 55.0116 28.121C55.1743 28.2881 55.2907 28.4947 55.3492 28.7204C55.421 28.9988 55.4549 29.2856 55.4502 29.5731L55.4483 29.9966L53.4748 30.1302C52.7998 30.149 52.1348 30.2981 51.5163 30.5692C51.0534 30.7717 50.6539 31.0954 50.3598 31.5063C50.1102 31.8718 49.9777 32.3046 49.9799 32.7472C49.9768 33.1625 50.0784 33.5719 50.2754 33.9375C50.482 34.3131 50.7927 34.6209 51.1702 34.8239C51.6308 35.0635 52.1456 35.1799 52.6644 35.1616C53.1506 35.1728 53.6345 35.0926 54.0911 34.9252C54.4859 34.7707 54.847 34.5414 55.1547 34.2499C55.2717 34.1379 55.3827 34.0198 55.4871 33.8962ZM53.9059 33.7603C53.6694 33.8058 53.429 33.8284 53.1881 33.8278C52.913 33.8356 52.6393 33.7838 52.3861 33.6758C52.1801 33.5864 52.0063 33.4362 51.888 33.2453C51.7711 33.0429 51.7126 32.812 51.7192 32.5784C51.7029 32.2969 51.78 32.0179 51.9387 31.7848C52.1225 31.5703 52.3716 31.422 52.6478 31.3627C53.0792 31.2611 53.522 31.2157 53.9651 31.2277H55.4432L55.4356 32.9034C55.3496 33 55.2555 33.0889 55.1542 33.1693C54.9711 33.314 54.773 33.4385 54.5633 33.5408C54.3547 33.6422 54.1336 33.716 53.9059 33.7603Z" fill="#85E6D6"/>
<path d="M65.6908 33.778C65.884 33.4207 65.98 33.019 65.9691 32.613C65.9762 32.3167 65.9275 32.0218 65.8256 31.7435C65.7347 31.5092 65.6001 31.2943 65.4288 31.1103C65.256 30.9271 65.0568 30.7706 64.8379 30.646C64.6113 30.5163 64.3741 30.4061 64.1287 30.3168C63.9486 30.2605 63.7714 30.2014 63.5969 30.1395C63.4225 30.0776 63.248 30.0213 63.0735 29.9707C62.899 29.92 62.7302 29.8666 62.567 29.8103C62.4139 29.7582 62.2645 29.6961 62.1196 29.6246C61.9808 29.5509 61.8481 29.4662 61.7228 29.3713C61.6071 29.2842 61.5095 29.1752 61.4357 29.0505C61.3614 28.9224 61.3235 28.7765 61.326 28.6284C61.3214 28.4656 61.3624 28.3048 61.4445 28.1641C61.5325 28.0259 61.6545 27.9125 61.7988 27.8349C61.9754 27.7379 62.1663 27.6695 62.3644 27.6323C62.6119 27.5848 62.8636 27.5621 63.1157 27.5647C63.2395 27.5647 63.3747 27.5704 63.5212 27.5816C63.6677 27.5929 63.8281 27.6126 64.0024 27.6407C64.1765 27.6688 64.3508 27.7054 64.5255 27.7505C64.7001 27.7955 64.8775 27.8461 65.0576 27.9024C65.2245 27.9538 65.388 28.0159 65.547 28.0881L65.6654 26.7205C65.4514 26.6305 65.2403 26.5517 65.0323 26.4842C64.8243 26.4169 64.613 26.3605 64.3991 26.3153C64.1903 26.2711 63.9788 26.2401 63.766 26.2225C63.5572 26.2056 63.3521 26.1971 63.1495 26.1971C62.6831 26.1924 62.218 26.2463 61.765 26.3575C61.3777 26.4518 61.0093 26.6117 60.676 26.8303C60.3739 27.0303 60.1271 27.3032 59.9584 27.6238C59.7821 27.9773 59.6952 28.3686 59.7052 28.7635C59.6999 29.0479 59.7457 29.331 59.8402 29.5992C59.9205 29.8243 60.0406 30.033 60.1948 30.2155C60.345 30.3877 60.5183 30.5383 60.7098 30.6629C60.9092 30.7936 61.1214 30.9039 61.3429 30.9921C61.4668 31.0372 61.5962 31.0822 61.7312 31.1272C61.8666 31.1722 61.9982 31.2145 62.128 31.2539C62.2577 31.2932 62.3841 31.3326 62.5079 31.372C62.6317 31.4114 62.7527 31.4508 62.8709 31.4902C62.9891 31.5296 63.1045 31.5662 63.217 31.6C63.3681 31.6534 63.5148 31.7183 63.656 31.7941C63.7799 31.8597 63.8961 31.939 64.0024 32.0305C64.0957 32.1122 64.1704 32.213 64.2216 32.326C64.2732 32.4429 64.2991 32.5696 64.2976 32.6974C64.3036 32.8223 64.2817 32.9469 64.2335 33.0623C64.1853 33.1776 64.1121 33.2808 64.019 33.3643C63.81 33.5389 63.5602 33.6579 63.293 33.7104C62.9798 33.7796 62.6598 33.8136 62.339 33.8117C62.1385 33.8103 61.9384 33.7962 61.7397 33.7695C61.5202 33.7418 61.2895 33.7024 61.0477 33.6513C60.8059 33.6003 60.5582 33.5384 60.3045 33.4656C60.0513 33.3925 59.7952 33.3109 59.5363 33.2208L59.6041 34.6559C59.8966 34.7572 60.1639 34.8388 60.4059 34.9007C60.6479 34.9627 60.8786 35.0161 61.0981 35.0611C61.3096 35.1049 61.5241 35.1331 61.7397 35.1456C61.9479 35.1566 62.159 35.1623 62.3728 35.1624C62.8437 35.1648 63.3135 35.1167 63.7742 35.0189C64.1796 34.9365 64.568 34.7852 64.9223 34.5715C65.2416 34.3764 65.506 34.1033 65.6908 33.778Z" fill="#85E6D6"/>
<path d="M72.4778 33.6336L72.1907 33.6843C72.0986 33.7007 72.0056 33.712 71.9122 33.718C71.8221 33.7239 71.7374 33.7265 71.6589 33.7265C71.4002 33.7336 71.1432 33.6816 70.9076 33.5745C70.7049 33.4786 70.5368 33.3223 70.4264 33.1271C70.308 32.9069 70.2498 32.6594 70.2576 32.4096V27.7327H72.6382L72.8239 26.382H70.2576V23.7144L68.5354 24.3222V26.382H67.2354L67.0497 27.7327H68.5354V32.7641C68.5279 33.0997 68.5793 33.434 68.6874 33.7518C68.7742 34.0032 68.909 34.2354 69.0842 34.4356C69.2448 34.6139 69.4401 34.7575 69.6582 34.8577C69.8814 34.9602 70.1167 35.034 70.3586 35.0772C70.5981 35.1213 70.8411 35.1439 71.0846 35.1447C71.2647 35.1447 71.4421 35.1391 71.6167 35.1278C71.7909 35.1163 71.9516 35.0997 72.0979 35.0772C72.2442 35.0547 72.3821 35.0291 72.5116 35.0012C72.641 34.9733 72.7504 34.948 72.8408 34.9252L72.9421 33.5239C72.8764 33.5493 72.8086 33.569 72.7395 33.583C72.6604 33.5999 72.5734 33.6167 72.4778 33.6336Z" fill="#85E6D6"/>
<path d="M76.2095 22.676C76.0344 22.5689 75.8326 22.5133 75.6273 22.5156C75.4194 22.5139 75.2149 22.5694 75.0364 22.676C74.8603 22.7791 74.7124 22.9241 74.6058 23.0981C74.4986 23.2733 74.443 23.4752 74.4455 23.6806C74.4437 23.8886 74.4992 24.093 74.6058 24.2715C74.7091 24.4482 74.8577 24.5939 75.0364 24.6936C75.2167 24.7951 75.4205 24.8475 75.6273 24.8456C75.8315 24.8481 76.0326 24.7956 76.2095 24.6936C76.3833 24.5933 76.5265 24.4473 76.6235 24.2715C76.7249 24.0912 76.7772 23.8875 76.7754 23.6806C76.7779 23.4763 76.7255 23.2751 76.6235 23.0981C76.5233 22.9248 76.3808 22.7796 76.2095 22.676Z" fill="#85E6D6"/>
<path d="M74.7315 34.9928H76.4537V26.2132L74.7315 26.4665V34.9928Z" fill="#85E6D6"/>
<path d="M85.7061 26.5509C85.2046 26.2975 84.647 26.1755 84.0855 26.1963C83.5954 26.1972 83.1083 26.2741 82.6417 26.4242C82.161 26.5774 81.7037 26.7961 81.2828 27.0743C81.1196 27.1815 80.9629 27.2994 80.8098 27.4204V26.2132L79.0876 26.4664V34.9928H80.8098V28.5803C80.9765 28.4827 81.1484 28.3942 81.3247 28.3152C81.5619 28.2102 81.8042 28.1172 82.0508 28.0366C82.2879 27.959 82.5306 27.8998 82.7768 27.8593C83.0085 27.8208 83.2429 27.8011 83.4777 27.8003C83.7532 27.7939 84.0275 27.8367 84.2878 27.9269C84.5027 28.0043 84.6945 28.135 84.845 28.3068C85 28.4931 85.1099 28.7126 85.1661 28.9484C85.238 29.2468 85.2719 29.5531 85.2671 29.8601V34.9928H86.9893V29.5055C87.0117 28.8655 86.9026 28.2276 86.6685 27.6314C86.478 27.1735 86.139 26.7929 85.7061 26.5509Z" fill="#85E6D6"/>
<path d="M94.9505 26.4158C94.6926 26.3452 94.4304 26.2916 94.1654 26.2554C93.8633 26.2146 93.5586 26.1949 93.2537 26.1963C92.7029 26.1939 92.1573 26.303 91.6498 26.5171C91.1411 26.7323 90.6794 27.0449 90.2906 27.4373C89.8761 27.8602 89.5565 28.3668 89.3532 28.923C89.1178 29.575 89.0034 30.2645 89.0156 30.9575C88.997 31.72 89.1439 32.4775 89.4461 33.1778C89.7107 33.7767 90.1488 34.2825 90.704 34.6298C91.3114 34.9881 92.0082 35.1667 92.7132 35.1447C93.3324 35.1425 93.9456 35.0222 94.5197 34.7902C94.8628 34.6502 95.1862 34.4664 95.4821 34.2434V34.7057C95.4889 35.0862 95.4348 35.4652 95.3217 35.8285C95.2244 36.1333 95.0567 36.411 94.8321 36.6389C94.5903 36.8712 94.2943 37.0395 93.971 37.1286C93.5505 37.2441 93.1154 37.2981 92.6794 37.289C92.3324 37.2884 91.9858 37.2687 91.641 37.2299C91.2792 37.1888 90.9208 37.1211 90.5689 37.0273C90.2064 36.9307 89.8509 36.8094 89.5049 36.6643L89.691 38.15C90.0014 38.276 90.3201 38.3803 90.6449 38.4624C90.9866 38.5487 91.3334 38.6135 91.6832 38.6566C92.0529 38.702 92.4251 38.7246 92.7976 38.7241C93.6286 38.7501 94.4544 38.5855 95.212 38.2429C95.8269 37.9563 96.3415 37.4916 96.6893 36.9091C97.0291 36.3101 97.2011 35.6306 97.1874 34.9421V26.1963L95.5361 26.6212C95.3454 26.5406 95.1498 26.4719 94.9505 26.4158ZM95.2626 33.1778C95.0535 33.2993 94.8365 33.4065 94.6129 33.4986C94.4158 33.5795 94.2125 33.6444 94.005 33.6927C93.8028 33.7383 93.5961 33.761 93.3888 33.7603C92.8817 33.7786 92.3785 33.6652 91.9283 33.431C91.5359 33.2072 91.2319 32.8556 91.0673 32.4349C90.8637 31.8872 90.7691 31.3051 90.7887 30.7212C90.7812 30.2552 90.8466 29.7909 90.9826 29.3451C91.0933 28.9788 91.2836 28.6416 91.54 28.3574C91.7897 28.0933 92.0955 27.8885 92.4349 27.7581C92.8203 27.6118 93.2299 27.5402 93.6421 27.547C93.908 27.5467 94.1735 27.5693 94.4356 27.6145C94.704 27.6619 94.9691 27.7268 95.2291 27.8087C95.3119 27.8346 95.3979 27.8689 95.4824 27.9004V33.0483C95.4075 33.0922 95.3324 33.1378 95.2626 33.1778Z" fill="#85E6D6"/>
<path d="M105.139 31.1095C104.966 30.9263 104.767 30.7698 104.548 30.6452C104.321 30.5154 104.084 30.4052 103.839 30.316C103.659 30.2597 103.481 30.2006 103.307 30.1387C103.132 30.0768 102.958 30.0205 102.783 29.9698C102.609 29.9192 102.44 29.8657 102.277 29.8094C102.124 29.7573 101.974 29.6953 101.829 29.6237C101.691 29.55 101.558 29.4653 101.433 29.3704C101.317 29.2834 101.22 29.1744 101.146 29.0497C101.071 28.9216 101.033 28.7757 101.036 28.6276C101.031 28.4648 101.072 28.304 101.154 28.1633C101.242 28.025 101.364 27.9116 101.509 27.834C101.685 27.737 101.876 27.6686 102.074 27.6314C102.322 27.5839 102.574 27.5613 102.826 27.5639C102.949 27.5639 103.085 27.5695 103.231 27.5808C103.378 27.592 103.538 27.6117 103.712 27.6399C103.887 27.668 104.061 27.7046 104.235 27.7496C104.41 27.7946 104.587 27.8453 104.768 27.9016C104.934 27.953 105.098 28.015 105.257 28.0873L105.375 26.7197C105.161 26.6296 104.95 26.5509 104.742 26.4833C104.534 26.416 104.323 26.3596 104.109 26.3145C103.9 26.2702 103.689 26.2392 103.476 26.2216C103.267 26.2047 103.062 26.1963 102.859 26.1963C102.393 26.1915 101.928 26.2454 101.475 26.3567C101.088 26.4509 100.719 26.6107 100.386 26.8294C100.084 27.0294 99.8371 27.3023 99.6686 27.623C99.4921 27.9764 99.4052 28.3677 99.4153 28.7626C99.41 29.0471 99.4559 29.3302 99.5507 29.5984C99.6307 29.8235 99.7507 30.0322 99.905 30.2146C100.055 30.3869 100.229 30.5375 100.42 30.6621C100.62 30.7929 100.832 30.9032 101.053 30.9913C101.177 31.0363 101.306 31.0814 101.441 31.1264C101.577 31.1714 101.709 31.2136 101.838 31.253C101.968 31.2924 102.094 31.3318 102.218 31.3712C102.342 31.4106 102.463 31.45 102.581 31.4894C102.699 31.5288 102.815 31.5654 102.927 31.5991C103.078 31.6526 103.225 31.7175 103.366 31.7933C103.49 31.8589 103.606 31.9382 103.713 32.0297C103.806 32.1113 103.881 32.2121 103.932 32.3251C103.984 32.442 104.01 32.5687 104.008 32.6966C104.014 32.8215 103.992 32.9461 103.944 33.0615C103.896 33.1768 103.822 33.28 103.729 33.3635C103.52 33.538 103.27 33.6571 103.003 33.7096C102.69 33.7787 102.37 33.8127 102.05 33.8109C101.849 33.8095 101.649 33.7954 101.45 33.7687C101.23 33.7409 101 33.7015 100.758 33.6505C100.516 33.5995 100.269 33.5376 100.015 33.4648C99.7617 33.3916 99.5057 33.31 99.2468 33.22L99.3143 34.6551C99.6066 34.7564 99.8738 34.838 100.116 34.8999C100.358 34.9618 100.589 35.0153 100.808 35.0603C101.02 35.104 101.234 35.1322 101.45 35.1447C101.658 35.1558 101.869 35.1614 102.083 35.1616C102.554 35.164 103.024 35.1159 103.484 35.0181C103.89 34.9357 104.278 34.7843 104.632 34.5707C104.952 34.3756 105.216 34.1026 105.401 33.7771C105.594 33.4199 105.69 33.0182 105.679 32.6121C105.686 32.3159 105.638 32.0209 105.536 31.7426C105.445 31.5082 105.31 31.2934 105.139 31.1095Z" fill="#85E6D6"/>
<path d="M107.469 29.5055L107.35 30.89H112.128L112.247 29.5055H107.469Z" fill="#85E6D6"/>
<path d="M6.67963 43.7431C5.9762 43.3693 5.1882 43.1832 4.39184 43.2028C3.58819 43.1845 2.79373 43.3765 2.08721 43.76C1.4349 44.125 0.901507 44.6701 0.550798 45.3302C0.169487 46.0706 -0.0193637 46.8951 0.00174372 47.7277C-0.0196993 48.5537 0.156893 49.3729 0.516722 50.1167C0.840175 50.766 1.35609 51.2996 1.99406 51.6447C2.68085 52.0045 3.44754 52.1846 4.2227 52.1681C5.03427 52.1843 5.83648 51.9925 6.55295 51.611C7.22175 51.246 7.7702 50.6946 8.13162 50.0239C8.52363 49.2747 8.71829 48.4379 8.69723 47.5926C8.71649 46.7874 8.53658 45.99 8.17352 45.2711C7.83724 44.6255 7.31748 44.0938 6.67963 43.7431ZM6.5783 49.3992C6.38847 49.8379 6.06689 50.2066 5.65813 50.4544C5.24735 50.6895 4.78062 50.8091 4.30741 50.8005C3.84347 50.8122 3.38612 50.689 2.99076 50.446C2.59929 50.186 2.29371 49.8159 2.11256 49.3823C1.883 48.8262 1.77372 48.2277 1.79201 47.6264C1.77211 47.0413 1.88159 46.459 2.11256 45.9211C2.30193 45.4983 2.61743 45.1445 3.01584 44.9081C3.4419 44.6735 3.92284 44.5569 4.40901 44.5704C4.7884 44.5609 5.16539 44.6329 5.51461 44.7814C5.82064 44.9193 6.08761 45.1311 6.29154 45.3977C6.5091 45.6873 6.66689 46.0173 6.75561 46.3685C6.86125 46.7793 6.91228 47.2022 6.90751 47.6264C6.92717 48.2341 6.81486 48.839 6.5783 49.3992Z" fill="#85E6D6"/>
<path d="M14.3191 43.3294C14.0034 43.4141 13.702 43.5449 13.4245 43.7178C13.1364 43.8975 12.87 44.11 12.6307 44.3509C12.591 44.3906 12.5522 44.4353 12.5125 44.4773V43.2197L10.7904 43.473V51.9993H12.5125V45.6206C12.6407 45.5312 12.7731 45.4484 12.9096 45.3724C13.0785 45.2794 13.2533 45.1976 13.433 45.1276C13.6071 45.06 13.7843 45.0009 13.9648 44.9503C14.15 44.8987 14.3391 44.862 14.5301 44.8405C14.7348 44.8178 14.941 44.8122 15.1467 44.8237L15.349 43.2366C15.0029 43.2117 14.6551 43.2431 14.3191 43.3294Z" fill="#85E6D6"/>
<path d="M24.2638 43.3885H22.1533L19.2642 46.5635H18.6414V39.2528L16.9193 39.5061V52.0001H18.6414V47.8636H18.6695L22.1192 52.0001H24.3478L20.2524 47.3852L24.2638 43.3885Z" fill="#85E6D6"/>
<path d="M32.3172 44.4775C31.9932 44.0575 31.5656 43.7288 31.0763 43.5236C30.5327 43.3015 29.9497 43.1924 29.3626 43.2028C28.7711 43.1928 28.1843 43.3079 27.6405 43.5405C27.1458 43.7571 26.7048 44.0799 26.3488 44.486C25.9823 44.9128 25.7065 45.4097 25.5381 45.9464C25.3457 46.5609 25.2518 47.202 25.2598 47.8459C25.2359 48.6594 25.4067 49.4669 25.7579 50.2012C26.0786 50.8376 26.5969 51.3529 27.2352 51.67C27.9839 52.0228 28.8054 52.1934 29.6327 52.1681C30.0308 52.1716 30.4286 52.1462 30.823 52.0921C31.1526 52.0447 31.4776 51.9684 31.7939 51.8642C32.1075 51.7589 32.4124 51.629 32.7056 51.4759L32.8238 50.1758C32.6097 50.2546 32.3929 50.3334 32.1734 50.4122C31.954 50.491 31.7261 50.5613 31.4899 50.6232C31.2515 50.6857 31.0089 50.7308 30.7639 50.7583C30.5173 50.7864 30.2693 50.8005 30.0211 50.8005C29.5777 50.8077 29.1352 50.7595 28.7038 50.657C28.3559 50.5737 28.0341 50.4055 27.7671 50.1674C27.4973 49.9104 27.2994 49.5874 27.193 49.2303C27.0828 48.8686 27.0209 48.4939 27.009 48.116H33.1108C33.1938 47.4177 33.1623 46.7106 33.0176 46.0224C32.8989 45.4628 32.66 44.9356 32.3172 44.4775ZM28.0625 44.8827C28.4587 44.6422 28.9162 44.522 29.3795 44.5366C29.8432 44.5134 30.3012 44.6473 30.6795 44.9165C31.0157 45.1849 31.2558 45.5552 31.3633 45.9717C31.4475 46.2798 31.4889 46.5979 31.4863 46.9173H27.0461C27.0773 46.5806 27.1493 46.2489 27.2605 45.9295C27.4046 45.5015 27.6867 45.1333 28.0625 44.8827Z" fill="#85E6D6"/>
<path d="M40.5565 48.116C40.3836 47.9328 40.1844 47.7763 39.9655 47.6517C39.7389 47.5219 39.5015 47.4118 39.2561 47.3225C39.0764 47.2662 38.8992 47.2071 38.7246 47.1452C38.5499 47.0833 38.3753 47.027 38.2009 46.9763C38.0264 46.9257 37.8576 46.8722 37.6943 46.8159C37.5413 46.7639 37.3919 46.7019 37.247 46.6302C37.1081 46.5566 36.9754 46.4719 36.8502 46.377C36.7344 46.2898 36.637 46.1809 36.5632 46.0562C36.4887 45.9282 36.4506 45.7822 36.4531 45.6341C36.4487 45.4713 36.4896 45.3105 36.5716 45.1698C36.6598 45.0316 36.7818 44.9183 36.9261 44.8405C37.1028 44.7436 37.2937 44.6752 37.4917 44.6379C37.7393 44.5904 37.9911 44.5678 38.2431 44.5704C38.3667 44.5704 38.502 44.576 38.6483 44.5873C38.7947 44.5985 38.9548 44.6182 39.1295 44.6464C39.3042 44.6745 39.4782 44.7111 39.6529 44.7561C39.8277 44.8012 40.0046 44.8518 40.1847 44.9081C40.3517 44.9594 40.5151 45.0214 40.6741 45.0938L40.7925 43.7262C40.5787 43.6362 40.3676 43.5574 40.1594 43.4898C39.9515 43.4225 39.7401 43.3661 39.5262 43.321C39.3174 43.2767 39.1059 43.2457 38.8931 43.2281C38.6847 43.2112 38.4793 43.2028 38.2769 43.2028C37.8105 43.1981 37.3454 43.252 36.8924 43.3632C36.5051 43.4574 36.1367 43.6173 35.8034 43.836C35.5012 44.0359 35.2545 44.3088 35.0859 44.6295C34.9095 44.983 34.8225 45.3743 34.8326 45.7692C34.8273 46.0536 34.8731 46.3366 34.9676 46.6049C35.0477 46.83 35.1679 47.0388 35.3222 47.2212C35.4723 47.3934 35.6456 47.544 35.8372 47.6686C36.0366 47.7994 36.2487 47.9097 36.4703 47.9978C36.5938 48.0428 36.7232 48.0879 36.8586 48.1329C36.994 48.1779 37.1264 48.2201 37.2554 48.2595C37.3845 48.2989 37.5111 48.3383 37.6353 48.3777C37.7595 48.4171 37.8805 48.4565 37.9983 48.4959C38.1165 48.5353 38.2318 48.5719 38.3444 48.6056C38.4954 48.6591 38.6422 48.7241 38.7834 48.7998C38.9072 48.8655 39.0233 48.9448 39.1295 49.0362C39.223 49.1178 39.2978 49.2185 39.349 49.3316C39.4006 49.4486 39.4265 49.5753 39.425 49.7031C39.431 49.8279 39.4091 49.9526 39.3609 50.0679C39.3127 50.1833 39.2394 50.2865 39.1464 50.37C38.9373 50.5445 38.6876 50.6636 38.4204 50.7161C38.1071 50.7852 37.7872 50.8192 37.4665 50.8174C37.266 50.816 37.0658 50.8019 36.8671 50.7752C36.6476 50.7474 36.4168 50.708 36.1748 50.657C35.9328 50.606 35.6852 50.5441 35.432 50.4713C35.1787 50.3981 34.9226 50.3165 34.6638 50.2265L34.7313 51.6616C35.0236 51.7629 35.2909 51.8445 35.5332 51.9064C35.7756 51.9683 36.0063 52.0218 36.2255 52.0668C36.437 52.1105 36.6514 52.1387 36.8671 52.1512C37.0751 52.1623 37.2861 52.1679 37.5002 52.1681C37.9711 52.1705 38.4409 52.1224 38.9015 52.0246C39.307 51.9421 39.6953 51.7908 40.0497 51.5772C40.3689 51.3821 40.6333 51.1091 40.8179 50.7836C41.0111 50.4264 41.1071 50.0247 41.0962 49.6187C41.1034 49.3224 41.0548 49.0274 40.9529 48.7492C40.8622 48.5148 40.7276 48.3 40.5565 48.116Z" fill="#85E6D6"/>
<path d="M47.6053 50.6401L47.3185 50.6908C47.2264 50.7072 47.1334 50.7185 47.0399 50.7245C46.9496 50.7305 46.8649 50.733 46.7866 50.733C46.5279 50.7401 46.271 50.6881 46.0353 50.581C45.8327 50.485 45.6647 50.3287 45.5542 50.1336C45.4359 49.9134 45.3776 49.6659 45.3853 49.4161V44.7392H47.7659L47.9517 43.3885H45.3853V40.7209L43.6632 41.3287V43.3885H42.3628L42.1771 44.7392H43.6632V49.7706C43.6555 50.1062 43.707 50.4405 43.8151 50.7583C43.902 51.0097 44.0367 51.242 44.2119 51.4421C44.3725 51.6204 44.5679 51.7641 44.7859 51.8642C45.0092 51.9668 45.2445 52.0405 45.4864 52.0837C45.7259 52.1278 45.9688 52.1504 46.2123 52.1512C46.3924 52.1512 46.5698 52.1456 46.7445 52.1344C46.9191 52.1231 47.0795 52.1062 47.2256 52.0837C47.3717 52.0609 47.5098 52.0356 47.639 52.0077C47.7682 51.9799 47.8782 51.9545 47.9682 51.9318L48.0698 50.5304C48.0041 50.5557 47.9363 50.5755 47.8672 50.5895C47.7882 50.6069 47.701 50.6238 47.6053 50.6401Z" fill="#85E6D6"/>
<path d="M53.3879 43.3294C53.0721 43.4141 52.7705 43.5449 52.493 43.7178C52.205 43.8975 51.9387 44.11 51.6995 44.3509C51.6598 44.3906 51.621 44.4353 51.5813 44.4773V43.2197L49.8592 43.473V51.9993H51.5813V45.6206C51.7122 45.5305 51.8441 45.4461 51.9781 45.3724C52.1471 45.2794 52.322 45.1976 52.5018 45.1276C52.6758 45.06 52.853 45.0009 53.0333 44.9503C53.2186 44.8988 53.4078 44.8621 53.5989 44.8405C53.8036 44.8178 54.0099 44.8122 54.2155 44.8237L54.4178 43.2366C54.0718 43.2117 53.7239 43.2431 53.3879 43.3294Z" fill="#85E6D6"/>
<path d="M62.5221 44.4775C62.198 44.0575 61.7703 43.7288 61.2811 43.5236C60.7375 43.3016 60.1545 43.1924 59.5674 43.2028C58.976 43.1928 58.3891 43.3079 57.8452 43.5405C57.3505 43.7571 56.9095 44.0799 56.5536 44.486C56.1868 44.9126 55.911 45.4095 55.7429 45.9464C55.5505 46.5609 55.4566 47.202 55.4646 47.8459C55.4407 48.6594 55.6115 49.4669 55.9627 50.2011C56.2834 50.8376 56.8018 51.3529 57.44 51.67C58.1887 52.0228 59.0103 52.1934 59.8375 52.1681C60.2356 52.1715 60.6334 52.1461 61.0278 52.0921C61.3575 52.0447 61.6823 51.9684 61.9986 51.8642C62.3123 51.7589 62.6171 51.6291 62.9104 51.4759L63.0285 50.1758C62.8145 50.2546 62.5977 50.3334 62.3782 50.4122C62.1587 50.491 61.9309 50.5613 61.6947 50.6232C61.4563 50.6856 61.2137 50.7308 60.9688 50.7583C60.7221 50.7864 60.474 50.8005 60.2258 50.8005C59.7825 50.8077 59.34 50.7595 58.9086 50.657C58.5607 50.5737 58.2388 50.4055 57.9718 50.1674C57.7021 49.9104 57.5042 49.5873 57.3978 49.2303C57.2876 48.8686 57.2257 48.4939 57.2138 48.116H63.3153C63.3985 47.4177 63.3671 46.7106 63.2224 46.0224C63.1037 45.4628 62.8648 44.9356 62.5221 44.4775ZM58.2673 44.8827C58.6635 44.6422 59.121 44.522 59.5842 44.5366C60.048 44.5135 60.506 44.6473 60.8843 44.9165C61.2206 45.1848 61.4605 45.5552 61.5678 45.9717C61.6523 46.2797 61.6938 46.5979 61.6911 46.9172H57.2509C57.2822 46.5806 57.3541 46.2489 57.465 45.9295C57.6093 45.5015 57.8915 45.1334 58.2673 44.8827Z" fill="#85E6D6"/>
<path d="M69.8914 50.6401L69.6044 50.6908C69.5122 50.7072 69.4192 50.7185 69.3258 50.7245C69.2358 50.7305 69.151 50.733 69.0725 50.733C68.8139 50.7401 68.557 50.6881 68.3215 50.581C68.1188 50.4851 67.9507 50.3289 67.8403 50.1336C67.7219 49.9134 67.6636 49.6659 67.6714 49.4161V44.7392H70.052L70.2378 43.3885H67.6714V40.7209L65.9493 41.3287V43.3885H64.6492L64.4635 44.7392H65.9493V49.7706C65.9418 50.1062 65.9932 50.4405 66.1013 50.7583C66.1881 51.0097 66.3228 51.242 66.498 51.4421C66.6586 51.6204 66.854 51.7641 67.0721 51.8642C67.2953 51.9668 67.5307 52.0405 67.7725 52.0837C68.012 52.1278 68.2549 52.1504 68.4985 52.1512C68.6785 52.1512 68.8559 52.1456 69.0306 52.1344C69.2053 52.1231 69.3656 52.1062 69.5118 52.0837C69.6581 52.061 69.796 52.0357 69.9254 52.0077C70.0549 51.9798 70.1647 51.9545 70.2547 51.9318L70.356 50.5304C70.2902 50.5558 70.2225 50.5756 70.1534 50.5895C70.0742 50.6069 69.9869 50.6238 69.8914 50.6401Z" fill="#85E6D6"/>
<path d="M36.9412 26.4158C36.6833 26.3452 36.421 26.2916 36.1561 26.2554C35.8539 26.2146 35.5493 26.1949 35.2444 26.1963C34.6936 26.1939 34.148 26.303 33.6404 26.5171C33.1317 26.7323 32.67 27.0449 32.2813 27.4373C31.8667 27.8602 31.5472 28.3668 31.3439 28.923C31.1085 29.575 30.9941 30.2645 31.0063 30.9575C30.9877 31.72 31.1346 32.4775 31.4368 33.1778C31.7013 33.7767 32.1395 34.2825 32.6946 34.6298C33.3021 34.9881 33.9989 35.1667 34.7038 35.1447C35.3231 35.1425 35.9362 35.0222 36.5104 34.7902C36.8534 34.6502 37.1769 34.4664 37.4727 34.2434V34.7057C37.4796 35.0862 37.4255 35.4652 37.3124 35.8285C37.2151 36.1333 37.0473 36.411 36.8228 36.6389C36.5809 36.8712 36.285 37.0395 35.9617 37.1286C35.5411 37.2441 35.1061 37.2981 34.67 37.289C34.3231 37.2884 33.9765 37.2687 33.6317 37.2299C33.2698 37.1888 32.9115 37.1211 32.5596 37.0273C32.197 36.9307 31.8416 36.8094 31.4956 36.6643L31.6816 38.15C31.992 38.276 32.3108 38.3803 32.6356 38.4624C32.9773 38.5487 33.3241 38.6135 33.6739 38.6566C34.0436 38.702 34.4158 38.7246 34.7883 38.7241C35.6193 38.7501 36.4451 38.5855 37.2026 38.2429C37.8175 37.9563 38.3322 37.4916 38.6799 36.9091C39.0197 36.3101 39.1918 35.6306 39.178 34.9421V26.1963L37.5268 26.6212C37.3361 26.5406 37.1405 26.4719 36.9412 26.4158ZM37.2533 33.1778C37.0442 33.2993 36.8272 33.4065 36.6036 33.4986C36.4065 33.5795 36.2032 33.6444 35.9957 33.6927C35.7935 33.7383 35.5867 33.761 35.3794 33.7603C34.8723 33.7786 34.3692 33.6652 33.919 33.431C33.5265 33.2072 33.2226 32.8556 33.0579 32.4349C32.8544 31.8872 32.7598 31.3051 32.7793 30.7212C32.7719 30.2552 32.8373 29.7909 32.9732 29.3451C33.084 28.9788 33.2743 28.6416 33.5306 28.3574C33.7804 28.0933 34.0862 27.8885 34.4255 27.7581C34.8109 27.6118 35.2206 27.5402 35.6327 27.547C35.8987 27.5467 36.1642 27.5693 36.4262 27.6145C36.6947 27.6619 36.9598 27.7268 37.2198 27.8087C37.3025 27.8346 37.3886 27.8689 37.473 27.9004V33.0483C37.3982 33.0922 37.323 33.1378 37.2533 33.1778Z" fill="#85E6D6"/>
</svg>
