<svg xmlns="http://www.w3.org/2000/svg" viewBox="0 0 92 28"><path fill="#03FCA3" d="M0 0h91.667v28H0z"/><path fill="#000" d="M6.667 21V7.001h4.593V21H6.667ZM17.509 9.23 20.151 21h-5.027L11.97 7.001h2.82a2.655 2.655 0 0 1 1.764.641c.49.404.828.964.955 1.587ZM20.841 21V7.001h4.593V21h-4.593Zm8.063-8.675a2.779 2.779 0 0 1-2.425-1.39 2.736 2.736 0 0 1-.375-1.41 2.686 2.686 0 0 1 .375-1.4 2.812 2.812 0 0 1 3.825-1.005c.415.244.76.59 1.005 1.005.25.424.38.908.375 1.4.004.495-.125.982-.375 1.41a2.8 2.8 0 0 1-1.006 1.015c-.423.25-.908.38-1.4.375ZM32.394 21V7.001h4.593V21h-4.593Zm10.409-6.349c.013.014.111.175.295.483.185.309.424.703.72 1.183a373.133 373.133 0 0 1 1.863 3.056c.288.48.617 1.022.986 1.627H41.62l-.858-1.39a127.3 127.3 0 0 1-.818-1.34c-.289-.48-.575-.947-.858-1.4a71.148 71.148 0 0 1-.729-1.194 20.758 20.758 0 0 0-.424-.69 2.04 2.04 0 0 1-.335-.985c.02-.338.128-.665.315-.947.079-.132.224-.365.434-.7a206.222 206.222 0 0 0 1.598-2.602c.289-.48.561-.93.817-1.351L41.62 7h5.047l-3.904 6.368c-.12.19-.189.407-.197.632.013.235.095.461.236.65ZM71.156 7h-4.325s2.456 4.027 2.484 4.079a.679.679 0 0 1 .016.825l-2.5 4.092h4.324s2.085-3.406 2.37-3.879a1.033 1.033 0 0 0-.011-1.252c-.305-.522-.307-.521-2.358-3.865ZM84.699 9.318A392.778 392.778 0 0 0 83.266 7h-9.253l2.021 3.387h4.875l-2.012 3.293 2.243 3.763-2.163 3.551h3.951c.636-1.038 1.587-2.643 1.785-2.97a1.036 1.036 0 0 0-.012-1.257c-.198-.337-1.255-2.014-1.888-3.045l1.9-3.145a1.035 1.035 0 0 0-.014-1.259Z"/><path fill="#000" d="M75.796 14.14c-.61.994-1.628 2.659-1.818 2.983a.997.997 0 0 0-.01 1.21c.19.317 1.217 1.995 1.829 2.995.612-1 1.638-2.678 1.829-2.995a.998.998 0 0 0-.01-1.21c-.193-.324-1.212-1.99-1.82-2.983ZM63.498 7c-.45.003-.889.137-1.264.385-.317.195-2.91 2.394-3.108 2.56-.199-.166-2.791-2.365-3.11-2.56A2.318 2.318 0 0 0 54.754 7H52v12.33l3.827-2.872v-4.951l3.299 2.48 3.298-2.48v9.485h3.85V7h-2.776Z"/></svg>