<svg xmlns="http://www.w3.org/2000/svg" viewBox="0 0 82 28"><path fill="#FFE100" d="M0 0h81.333v28H0z"/><path fill="#000" d="M60.722 7.006h-4.318s2.454 4.028 2.481 4.079a.679.679 0 0 1 .016.823L56.404 16h4.319s2.082-3.405 2.367-3.878a1.033 1.033 0 0 0-.012-1.25c-.307-.524-.307-.524-2.356-3.867ZM55.846 7.006H52v13.992h3.846V7.006ZM74.248 9.324a381.01 381.01 0 0 0-1.43-2.318h-9.244l2.02 3.386h4.868l-2.009 3.293 2.239 3.761-2.16 3.551h3.945c.635-1.038 1.583-2.643 1.781-2.972a1.037 1.037 0 0 0-.011-1.256c-.198-.337-1.254-2.013-1.886-3.045 0 0 1.7-2.816 1.897-3.145a1.036 1.036 0 0 0-.01-1.255Z"/><path fill="#000" d="M65.357 14.14c-.609.993-1.626 2.658-1.817 2.983a.998.998 0 0 0-.01 1.21c.19.317 1.215 1.995 1.827 2.996.61-1 1.636-2.678 1.827-2.996a.998.998 0 0 0-.011-1.21c-.19-.325-1.208-1.99-1.816-2.984ZM6.667 21V7.001h4.593V21H6.667ZM17.509 9.23 20.151 21h-5.027L11.97 7.001h2.82a2.655 2.655 0 0 1 1.764.641c.49.404.828.964.955 1.587ZM20.841 21V7.001h4.593V21h-4.593Zm8.063-8.675a2.778 2.778 0 0 1-2.425-1.39 2.735 2.735 0 0 1-.375-1.41 2.686 2.686 0 0 1 .375-1.4 2.812 2.812 0 0 1 3.825-1.005c.415.244.76.59 1.005 1.005.25.424.38.908.375 1.4.004.495-.125.982-.375 1.41a2.8 2.8 0 0 1-1.006 1.015c-.423.251-.908.38-1.4.375ZM32.394 21V7.001h4.593V21h-4.593Zm10.409-6.349c.013.014.111.175.295.483.185.309.424.703.72 1.183a373.133 373.133 0 0 1 1.863 3.056c.288.48.617 1.023.986 1.627H41.62a744.12 744.12 0 0 0-.858-1.39c-.256-.414-.529-.86-.818-1.34-.289-.48-.575-.947-.858-1.4a71.148 71.148 0 0 1-.729-1.193 20.758 20.758 0 0 0-.424-.69 2.04 2.04 0 0 1-.335-.986c.02-.338.128-.665.315-.947.079-.131.224-.365.434-.7a205.984 205.984 0 0 0 1.598-2.603c.289-.48.561-.93.817-1.35L41.62 7h5.047l-3.904 6.369c-.12.189-.189.407-.197.63.013.236.095.462.236.651Z"/></svg>