<svg xmlns="http://www.w3.org/2000/svg" viewBox="0 0 171 28"><path fill="#7B0A02" d="M0 0h170.667v28H0z"/><path fill="#fff" d="M6.667 21V7.001h4.593V21H6.667ZM17.509 9.23 20.151 21h-5.027L11.97 7.001h2.82a2.655 2.655 0 0 1 1.764.641c.49.404.828.964.955 1.587ZM20.841 21V7.001h4.593V21h-4.593Zm8.063-8.675a2.779 2.779 0 0 1-2.425-1.39 2.736 2.736 0 0 1-.375-1.41 2.686 2.686 0 0 1 .375-1.4 2.812 2.812 0 0 1 3.825-1.005c.415.244.76.59 1.005 1.005.25.424.38.908.375 1.4.004.495-.125.982-.375 1.41a2.8 2.8 0 0 1-1.006 1.015c-.423.25-.908.38-1.4.375ZM32.394 21V7.001h4.593V21h-4.593Zm10.409-6.349c.013.014.111.175.295.483.185.309.424.703.72 1.183a373.133 373.133 0 0 1 1.863 3.056c.288.48.617 1.022.986 1.627H41.62l-.858-1.39a127.3 127.3 0 0 1-.818-1.34c-.289-.48-.575-.947-.858-1.4a71.148 71.148 0 0 1-.729-1.194 20.758 20.758 0 0 0-.424-.69 2.04 2.04 0 0 1-.335-.985c.02-.338.128-.665.315-.947.079-.132.224-.365.434-.7a206.222 206.222 0 0 0 1.598-2.602c.289-.48.561-.93.817-1.351L41.62 7h5.047l-3.904 6.368c-.12.19-.189.407-.197.632.013.235.095.461.236.65Z"/><path fill="#FFC7BD" d="M52 21.002h2.07v-5.777h5.284l.217-1.715h-5.5V8.738h7.157V7.003H52v13.999ZM69.44 11.36a5.409 5.409 0 0 0-2.672-.63 5.387 5.387 0 0 0-2.692.65 4.547 4.547 0 0 0-1.794 1.834 5.795 5.795 0 0 0-.64 2.8 6.046 6.046 0 0 0 .6 2.79c.378.758.98 1.381 1.726 1.784.802.42 1.697.63 2.602.612a5.559 5.559 0 0 0 2.722-.65 4.597 4.597 0 0 0 1.843-1.854 5.808 5.808 0 0 0 .66-2.84 5.708 5.708 0 0 0-.61-2.711 4.31 4.31 0 0 0-1.745-1.784Zm-.12 6.606a2.681 2.681 0 0 1-1.073 1.232 3.058 3.058 0 0 1-1.578.405 2.804 2.804 0 0 1-1.538-.414 2.78 2.78 0 0 1-1.025-1.242 4.978 4.978 0 0 1-.374-2.05 4.65 4.65 0 0 1 .374-1.992 2.62 2.62 0 0 1 1.055-1.183 3.19 3.19 0 0 1 1.626-.395c.444-.01.884.073 1.292.247.357.161.669.408.907.72.254.338.438.723.542 1.133.123.48.183.974.177 1.47a4.904 4.904 0 0 1-.384 2.069ZM77.346 19.552a1.745 1.745 0 0 1-.207.01 1.06 1.06 0 0 1-.434-.078.713.713 0 0 1-.296-.247 1.071 1.071 0 0 1-.167-.424 3.24 3.24 0 0 1-.05-.611V6.116l-2.01.296V19.09c-.01.332.044.663.157.976.094.254.25.48.454.66.202.174.441.299.7.365.286.074.581.11.877.108.158 0 .309-.006.453-.02a4.343 4.343 0 0 0 .769-.138l.197-1.557-.237.04a3.413 3.413 0 0 1-.206.028ZM88.377 10.946h-2.464l-3.374 3.707h-.727V6.116l-2.01.296v14.59h2.01v-4.83h.033l4.028 4.83h2.603l-4.783-5.39 4.684-4.666ZM97.19 12.218a3.578 3.578 0 0 0-1.449-1.114 5.063 5.063 0 0 0-2-.375 4.904 4.904 0 0 0-2.012.395 4.298 4.298 0 0 0-1.508 1.104 4.827 4.827 0 0 0-.947 1.705 7.125 7.125 0 0 0-.325 2.218c-.028.95.171 1.893.581 2.75.375.744.98 1.346 1.726 1.716a6.133 6.133 0 0 0 2.8.582 9.67 9.67 0 0 0 1.39-.089 6.653 6.653 0 0 0 1.133-.266 7.366 7.366 0 0 0 1.065-.454l.138-1.518c-.25.092-.503.184-.76.276a9.482 9.482 0 0 1-.797.247 5.949 5.949 0 0 1-.848.157 7.53 7.53 0 0 1-.868.05 6.218 6.218 0 0 1-1.538-.168 2.53 2.53 0 0 1-1.094-.572 2.497 2.497 0 0 1-.67-1.094 4.99 4.99 0 0 1-.215-1.3h7.125a7.55 7.55 0 0 0-.108-2.446 4.609 4.609 0 0 0-.818-1.804Zm-4.968.473a2.789 2.789 0 0 1 1.538-.404 2.41 2.41 0 0 1 1.518.443c.393.314.673.746.798 1.233.099.36.147.731.144 1.104h-5.185c.037-.393.12-.78.25-1.153.169-.5.498-.93.937-1.223ZM114.206 11.143a3.431 3.431 0 0 0-1.755-.414 4.605 4.605 0 0 0-1.557.267 5.486 5.486 0 0 0-1.42.759c-.245.182-.479.38-.699.591a2.478 2.478 0 0 0-1.016-1.183 3.476 3.476 0 0 0-1.775-.414c-.527 0-1.051.09-1.548.266a5.614 5.614 0 0 0-1.844 1.078V10.75l-2.011.296v9.957h2.011v-7.5c.237-.155.484-.294.74-.417.313-.147.64-.263.976-.345.31-.076.627-.116.946-.118.293-.009.585.042.858.148.226.096.426.244.582.434.171.22.289.476.345.749.077.353.113.713.108 1.074v5.975h2.011v-6.389a7.875 7.875 0 0 0-.076-1.127c.228-.15.464-.287.707-.41.308-.155.632-.274.966-.356.316-.077.641-.117.967-.118.289-.007.577.043.847.148.23.094.434.243.592.434.171.22.289.476.345.749.077.353.113.713.108 1.074v5.994h2.012v-6.408a5.75 5.75 0 0 0-.355-2.188 2.546 2.546 0 0 0-1.065-1.263ZM125.247 18.548c-.149.09-.295.174-.444.246a7.358 7.358 0 0 1-.719.305c-.234.085-.475.151-.72.198-.25.046-.504.07-.759.069a2.43 2.43 0 0 1-1.202-.266 1.594 1.594 0 0 1-.7-.809 3.435 3.435 0 0 1-.227-1.33V10.75l-2.012.295v6.27a5.426 5.426 0 0 0 .385 2.189 2.58 2.58 0 0 0 1.163 1.281 3.962 3.962 0 0 0 1.883.415 4.86 4.86 0 0 0 1.223-.148 4.74 4.74 0 0 0 1.094-.434 6.515 6.515 0 0 0 1.005-.68c.058-.048.115-.103.173-.152l.291 1.215h1.557l.02-10.252-2.011.295v7.504ZM136.564 16.467a2.93 2.93 0 0 0-.69-.542 5.379 5.379 0 0 0-.828-.385c-.21-.065-.417-.134-.621-.207a10.97 10.97 0 0 0-.612-.197c-.203-.06-.401-.121-.591-.187a4.252 4.252 0 0 1-.522-.217 3.383 3.383 0 0 1-.464-.296 1.295 1.295 0 0 1-.335-.374.947.947 0 0 1-.128-.493c-.006-.19.042-.378.138-.543.103-.161.245-.293.414-.384.206-.113.429-.193.661-.237.289-.055.583-.082.877-.079a6.34 6.34 0 0 1 1.035.09c.204.032.407.075.611.127.204.052.411.112.621.178.195.06.386.132.572.217l.138-1.597a9.6 9.6 0 0 0-.739-.277 7.345 7.345 0 0 0-.74-.197 5.92 5.92 0 0 0-.739-.108 8.909 8.909 0 0 0-.72-.03 6.492 6.492 0 0 0-1.616.187c-.453.11-.883.297-1.272.552a2.513 2.513 0 0 0-.838.927c-.206.413-.308.87-.296 1.331-.006.332.047.663.158.976.093.263.234.507.414.72.175.2.378.377.601.522.233.153.481.282.74.385.144.052.295.105.453.157.158.052.313.102.464.148a55.471 55.471 0 0 1 .867.276c.138.046.273.089.404.128.177.063.348.139.513.227.145.077.28.17.404.276a1.017 1.017 0 0 1 .345.779.989.989 0 0 1-.325.78 1.892 1.892 0 0 1-.848.403c-.366.08-.739.12-1.114.118a5.483 5.483 0 0 1-.7-.05 10.388 10.388 0 0 1-.808-.137c-.283-.06-.572-.132-.868-.217a17.95 17.95 0 0 1-.897-.285l.079 1.675c.341.119.654.214.936.286.283.073.553.135.809.188.247.05.497.084.749.098.243.013.489.02.739.02a7.677 7.677 0 0 0 1.637-.168 4.229 4.229 0 0 0 1.341-.522c.372-.228.681-.547.897-.927a2.71 2.71 0 0 0 .325-1.36 2.767 2.767 0 0 0-.168-1.016 2.286 2.286 0 0 0-.463-.739ZM141.305 6.618a1.277 1.277 0 0 0-.68-.187 1.326 1.326 0 0 0-.69.187c-.206.12-.378.29-.503.493-.125.205-.19.44-.187.68-.002.243.063.482.187.69.121.207.294.377.503.493.21.119.448.18.69.178.238.003.473-.059.68-.178.203-.117.37-.287.483-.492.118-.211.18-.449.178-.69a1.341 1.341 0 0 0-.178-.68 1.392 1.392 0 0 0-.483-.494ZM139.581 21.002h2.011V10.749l-2.011.296v9.957ZM153.245 10.946h-2.465l-3.374 3.707h-.727V6.116l-2.011.296v14.59h2.011v-4.83h.033l4.028 4.83h2.603l-4.783-5.39 4.685-4.666ZM161.092 21.002h2.603l-4.783-5.39 4.684-4.666h-2.465l-3.374 3.707h-.727V6.116l-2.011.296v14.59h2.011v-4.83h.033l4.029 4.83Z"/></svg>