<svg xmlns="http://www.w3.org/2000/svg" viewBox="0 0 97 28"><path fill="#481581" d="M0 0h96.333v28H0z"/><path fill="#fff" d="M6.667 21V7.001h4.593v14H6.667ZM17.509 9.23 20.151 21h-5.027L11.97 7.001h2.82a2.655 2.655 0 0 1 1.764.641c.49.404.828.964.955 1.587ZM20.841 21V7.001h4.593v14h-4.593Zm8.063-8.675a2.738 2.738 0 0 1-1.41-.375 2.777 2.777 0 0 1-1.015-1.015 2.735 2.735 0 0 1-.375-1.41 2.686 2.686 0 0 1 .375-1.4 2.812 2.812 0 0 1 3.825-1.005c.415.244.76.59 1.005 1.005.25.424.38.908.375 1.4.004.495-.125.982-.375 1.41a2.8 2.8 0 0 1-1.006 1.015c-.423.251-.908.38-1.4.375ZM32.394 21V7.001h4.593v14h-4.593Zm10.409-6.349c.013.014.111.175.295.483.185.309.424.703.72 1.183a373.133 373.133 0 0 1 1.863 3.056c.288.48.617 1.023.986 1.627H41.62a712.71 712.71 0 0 0-.858-1.39 127.3 127.3 0 0 1-.818-1.34c-.289-.48-.575-.947-.858-1.4a71.117 71.117 0 0 1-.729-1.193 20.869 20.869 0 0 0-.424-.69 2.039 2.039 0 0 1-.335-.986c.02-.338.128-.665.315-.947.079-.131.224-.365.434-.7a209.23 209.23 0 0 0 1.598-2.603c.289-.48.561-.93.817-1.35L41.62 7h5.047l-3.904 6.369c-.12.189-.189.407-.197.63.013.236.095.463.236.651Z"/><path fill="#DBBFFA" d="M55.808 17.814a1.8 1.8 0 0 1-.118.67c-.074.189-.188.36-.334.501-.151.143-.332.25-.53.316a2.16 2.16 0 0 1-.706.108c-.157 0-.304-.007-.442-.02a8.766 8.766 0 0 1-.824-.118 10.32 10.32 0 0 1-.854-.197l.157 1.773c.183.052.36.101.53.147.17.047.34.085.51.119.175.033.352.056.53.068.183.014.386.02.609.02.453.008.906-.049 1.344-.167.358-.098.694-.261.991-.483.269-.203.498-.453.678-.738.178-.286.31-.599.392-.926.086-.345.13-.699.127-1.054V7h-2.06v10.814ZM69.488 19.744a.892.892 0 0 1-.766-.315 1.7 1.7 0 0 1-.215-1.044l.039-4.058a4.753 4.753 0 0 0-.157-1.26 3.1 3.1 0 0 0-.471-1.005 2.665 2.665 0 0 0-.815-.729c-.37-.21-.77-.363-1.187-.452a6.96 6.96 0 0 0-1.55-.158c-.414 0-.827.026-1.237.079-.388.049-.771.124-1.149.226-.35.095-.693.21-1.03.345l-.236 1.674a11.687 11.687 0 0 1 1.787-.492c.269-.052.54-.088.814-.108.268-.02.533-.03.795-.03.4-.009.8.038 1.187.138.283.07.544.213.756.414.19.194.325.436.393.699.083.325.123.66.117.995l-.002.494-2.294.156a6.082 6.082 0 0 0-2.277.511 3.267 3.267 0 0 0-1.344 1.094 2.55 2.55 0 0 0-.442 1.447c-.003.485.115.962.344 1.389.24.438.601.797 1.04 1.034.535.28 1.134.415 1.737.394a4.51 4.51 0 0 0 1.658-.276c.46-.18.88-.447 1.237-.788.136-.13.265-.268.386-.412.038.204.11.4.213.58.175.302.444.537.765.67.355.143.736.213 1.119.207.118 0 .232-.004.343-.01a1.79 1.79 0 0 0 .324-.05l.285-.069a1.52 1.52 0 0 0 .225-.069l.216-1.319c-.108.037-.22.064-.333.079a2.255 2.255 0 0 1-.275.019Zm-3.268-.886a3.775 3.775 0 0 1-.687.433c-.243.119-.5.205-.766.256a4.34 4.34 0 0 1-.834.079c-.32.009-.638-.052-.932-.178a1.28 1.28 0 0 1-.579-.502 1.476 1.476 0 0 1-.196-.777c-.02-.329.07-.654.255-.927a1.5 1.5 0 0 1 .824-.492 5.961 5.961 0 0 1 1.531-.157h1.719l-.009 1.955c-.1.112-.209.216-.326.31ZM79.38 12.338l-.236-1.399h-7.576l-.236 1.576h5.7l-5.876 7.13.236 1.34H79.4l.215-1.596h-5.998l5.763-7.05ZM83.508 19.39l5.764-7.052-.236-1.398H81.46l-.235 1.575h5.7l-5.877 7.13.236 1.34h8.007l.216-1.596h-5.999Z"/></svg>