<svg xmlns="http://www.w3.org/2000/svg" viewBox="0 0 110 28"><path fill="#0A2343" d="M0 0h109.333v28H0z"/><path fill="#fff" d="M6.667 21V7.001h4.593V21H6.667ZM17.509 9.23 20.151 21h-5.027L11.97 7.001h2.82a2.655 2.655 0 0 1 1.764.641c.49.404.828.964.955 1.587ZM20.841 21V7.001h4.593V21h-4.593Zm8.063-8.675a2.779 2.779 0 0 1-2.425-1.39 2.736 2.736 0 0 1-.375-1.41 2.686 2.686 0 0 1 .375-1.4 2.812 2.812 0 0 1 3.825-1.005c.415.244.76.59 1.005 1.005.25.424.38.908.375 1.4.004.495-.125.982-.375 1.41a2.8 2.8 0 0 1-1.006 1.015c-.423.25-.908.38-1.4.375ZM32.394 21V7.001h4.593V21h-4.593Zm10.409-6.349c.013.014.111.175.295.483.185.309.424.703.72 1.183a373.133 373.133 0 0 1 1.863 3.056c.288.48.617 1.022.986 1.627H41.62l-.858-1.39a127.3 127.3 0 0 1-.818-1.34c-.289-.48-.575-.947-.858-1.4a71.148 71.148 0 0 1-.729-1.194 20.758 20.758 0 0 0-.424-.69 2.04 2.04 0 0 1-.335-.985c.02-.338.128-.665.315-.947.079-.132.224-.365.434-.7a206.222 206.222 0 0 0 1.598-2.602c.289-.48.561-.93.817-1.351L41.62 7h5.047l-3.904 6.368c-.12.19-.189.407-.197.632.013.235.095.461.236.65Z"/><path fill="#8BB5EB" d="M58.864 15.215c.262-.04.52-.1.774-.181.512-.16.986-.425 1.39-.779a3.61 3.61 0 0 0 .926-1.3 4.526 4.526 0 0 0 .335-1.804 4.862 4.862 0 0 0-.444-2.089 3.327 3.327 0 0 0-1.458-1.508 5.65 5.65 0 0 0-2.73-.562H52v13.994h2.05v-5.36h3.015l3.49 5.36h2.404l-3.272-4.848-.823-.923Zm.035-6.242c.408.156.75.448.965.828.226.441.334.934.315 1.429a2.868 2.868 0 0 1-.384 1.567c-.26.404-.649.71-1.103.867a4.917 4.917 0 0 1-1.705.266H54.05V8.707h3.173c.57-.02 1.14.071 1.676.266ZM73.582 19.745a.898.898 0 0 1-.768-.316 1.695 1.695 0 0 1-.217-1.044l.04-4.06a4.742 4.742 0 0 0-.158-1.262 3.102 3.102 0 0 0-.473-1.005 2.673 2.673 0 0 0-.818-.73 4.177 4.177 0 0 0-1.193-.453 7.012 7.012 0 0 0-1.557-.157c-.415 0-.83.026-1.242.078-.389.05-.774.125-1.153.227-.351.095-.697.21-1.035.345l-.236 1.675a11.617 11.617 0 0 1 1.793-.492 7.15 7.15 0 0 1 .819-.108c.269-.02.535-.03.798-.03.402-.009.803.038 1.192.138.284.07.546.213.76.414.19.195.325.436.393.7.084.324.124.66.118.995l-.002.495-2.304.155a6.128 6.128 0 0 0-2.286.513 3.277 3.277 0 0 0-1.35 1.094 2.548 2.548 0 0 0-.444 1.448c-.003.485.115.963.345 1.39.241.438.604.798 1.045 1.035.538.28 1.139.415 1.744.394a4.535 4.535 0 0 0 1.666-.276c.46-.18.883-.448 1.242-.788a5.46 5.46 0 0 0 .387-.413c.039.204.11.4.214.58.175.302.446.537.769.67.356.143.738.214 1.123.207.118 0 .233-.003.345-.01.11-.006.219-.022.325-.049.105-.026.2-.05.286-.069.077-.017.153-.04.227-.069l.216-1.32a1.728 1.728 0 0 1-.335.078 2.214 2.214 0 0 1-.276.02Zm-3.281-.887a3.788 3.788 0 0 1-.69.434 3.097 3.097 0 0 1-.769.256c-.276.053-.556.08-.838.079-.32.009-.64-.052-.936-.178a1.285 1.285 0 0 1-.581-.502 1.474 1.474 0 0 1-.197-.779 1.494 1.494 0 0 1 .256-.926 1.51 1.51 0 0 1 .828-.493 6.015 6.015 0 0 1 1.537-.158h1.726l-.009 1.957c-.1.112-.21.216-.327.31ZM82.906 11.196l-.059-.025a6.795 6.795 0 0 0-2.503-.453 4.841 4.841 0 0 0-2.454.65 4.831 4.831 0 0 0-1.823 1.882 6.063 6.063 0 0 0-.69 3.006 6.078 6.078 0 0 0 .523 2.622c.32.703.84 1.297 1.498 1.704a4.36 4.36 0 0 0 2.335.602 5.469 5.469 0 0 0 1.488-.198 5.365 5.365 0 0 0 1.37-.61c.148-.092.296-.194.443-.3l.247.91h1.636V6.125l-2.01.276v4.795Zm-1.054 8.105c-.45.177-.927.274-1.41.286a3.198 3.198 0 0 1-1.616-.384 2.467 2.467 0 0 1-1.025-1.183 4.937 4.937 0 0 1-.354-2 4.68 4.68 0 0 1 .394-2.04c.24-.522.636-.956 1.133-1.243.54-.294 1.15-.44 1.764-.424a5.968 5.968 0 0 1 1.862.286c.097.031.203.072.306.11v6.074a6.446 6.446 0 0 1-1.055.518ZM87.99 20.986h2.011V10.737l-2.01.296v9.953ZM89.715 6.608a1.277 1.277 0 0 0-.68-.188 1.326 1.326 0 0 0-.69.188c-.205.12-.378.29-.502.493-.125.204-.19.44-.188.68-.001.242.063.48.188.69.12.206.294.376.502.492.21.119.449.18.69.178a1.33 1.33 0 0 0 .68-.178c.203-.117.37-.287.483-.493.119-.21.18-.448.178-.69a1.33 1.33 0 0 0-.178-.68 1.392 1.392 0 0 0-.483-.492ZM101.985 13.132a4.314 4.314 0 0 0-1.744-1.784 5.415 5.415 0 0 0-2.671-.63 5.381 5.381 0 0 0-2.691.65 4.544 4.544 0 0 0-1.794 1.833 5.797 5.797 0 0 0-.64 2.799c-.025.964.18 1.92.601 2.789.377.758.98 1.38 1.725 1.784.801.42 1.697.63 2.601.61a5.55 5.55 0 0 0 2.72-.65 4.592 4.592 0 0 0 1.844-1.853 5.813 5.813 0 0 0 .66-2.838 5.725 5.725 0 0 0-.611-2.71Zm-1.863 4.82a2.687 2.687 0 0 1-1.074 1.231 3.065 3.065 0 0 1-1.577.404 2.803 2.803 0 0 1-1.537-.414 2.777 2.777 0 0 1-1.025-1.241 4.97 4.97 0 0 1-.374-2.05 4.64 4.64 0 0 1 .374-1.991c.221-.494.59-.907 1.054-1.183a3.19 3.19 0 0 1 1.627-.394c.442-.011.883.073 1.29.246.358.162.67.409.907.72.254.338.439.723.542 1.133.124.48.183.973.178 1.469a4.914 4.914 0 0 1-.385 2.07Z"/></svg>