<svg xmlns="http://www.w3.org/2000/svg" viewBox="0 0 130 28"><path fill="#6B046A" d="M0 0h129.333v28H0z"/><path fill="#fff" d="M6.667 21V7.001h4.593V21H6.667ZM17.509 9.23 20.151 21h-5.027L11.97 7.001h2.82a2.655 2.655 0 0 1 1.764.641c.49.404.828.964.955 1.587ZM20.841 21V7.001h4.593V21h-4.593Zm8.063-8.675a2.779 2.779 0 0 1-2.425-1.39 2.736 2.736 0 0 1-.375-1.41 2.686 2.686 0 0 1 .375-1.4 2.812 2.812 0 0 1 3.825-1.005c.415.244.76.59 1.005 1.005.25.424.38.908.375 1.4.004.495-.125.982-.375 1.41a2.8 2.8 0 0 1-1.006 1.015c-.423.25-.908.38-1.4.375ZM32.394 21V7.001h4.593V21h-4.593Zm10.409-6.349c.013.014.111.175.295.483.185.309.424.703.72 1.183a373.133 373.133 0 0 1 1.863 3.056c.288.48.617 1.022.986 1.627H41.62l-.858-1.39a127.3 127.3 0 0 1-.818-1.34c-.289-.48-.575-.947-.858-1.4a71.148 71.148 0 0 1-.729-1.194 20.758 20.758 0 0 0-.424-.69 2.04 2.04 0 0 1-.335-.985c.02-.338.128-.665.315-.947.079-.132.224-.365.434-.7a206.222 206.222 0 0 0 1.598-2.602c.289-.48.561-.93.817-1.351L41.62 7h5.047l-3.904 6.368c-.12.19-.189.407-.197.632.013.235.095.461.236.65Z"/><path fill="#EFB4ED" d="M62.616 7.012h-2.462l-5.35 6.164h-.736V7.012H52v13.984h2.068v-6.323h.07l5.82 6.342 2.816-.02-6.677-6.933 6.519-7.05ZM67.451 19.548c-.068.007-.137.01-.206.01a1.055 1.055 0 0 1-.434-.08.704.704 0 0 1-.295-.246 1.07 1.07 0 0 1-.167-.423 3.277 3.277 0 0 1-.05-.61V6.125l-2.009.296v12.664a2.68 2.68 0 0 0 .158.975c.094.254.25.48.453.66.202.173.441.298.7.364.285.074.58.11.876.108a4.906 4.906 0 0 0 .876-.078c.138-.026.253-.053.345-.08l.197-1.555-.237.039a5.036 5.036 0 0 1-.207.03ZM78.432 19.755a.897.897 0 0 1-.769-.316 1.693 1.693 0 0 1-.216-1.043l.04-4.058a4.735 4.735 0 0 0-.158-1.26c-.096-.36-.256-.701-.473-1.005a2.663 2.663 0 0 0-.817-.728 4.16 4.16 0 0 0-1.192-.453 7.002 7.002 0 0 0-1.556-.158c-.415 0-.829.026-1.24.079a8.525 8.525 0 0 0-1.153.226c-.35.095-.696.21-1.034.345l-.236 1.674c.328-.118.64-.217.935-.295.296-.079.581-.144.857-.197.27-.052.543-.088.817-.109.27-.02.535-.03.798-.03a4.4 4.4 0 0 1 1.192.139c.283.07.544.213.758.413.19.195.326.436.394.7.084.324.124.659.118.994l-.002.495-2.302.155a6.115 6.115 0 0 0-2.285.512 3.272 3.272 0 0 0-1.35 1.093 2.543 2.543 0 0 0-.442 1.448c-.004.484.114.962.344 1.388.241.439.604.798 1.044 1.035a3.51 3.51 0 0 0 1.743.393 4.524 4.524 0 0 0 1.665-.276 3.84 3.84 0 0 0 1.24-.787c.137-.131.266-.269.388-.413.038.204.11.4.213.58.176.302.445.537.768.67.357.143.739.213 1.123.206.118 0 .233-.003.344-.01.11-.006.219-.022.326-.049.105-.026.2-.05.285-.069a1.67 1.67 0 0 0 .227-.068l.216-1.32a1.72 1.72 0 0 1-.335.079 2.27 2.27 0 0 1-.275.02Zm-3.28-.887a3.784 3.784 0 0 1-.689.433 3.098 3.098 0 0 1-.768.257c-.276.053-.556.08-.837.079-.321.009-.64-.052-.936-.178a1.288 1.288 0 0 1-.58-.502 1.473 1.473 0 0 1-.198-.778 1.491 1.491 0 0 1 .256-.926c.215-.25.505-.423.828-.492a5.99 5.99 0 0 1 1.536-.158h1.725l-.01 1.955c-.1.113-.209.217-.327.31ZM87.137 16.465a2.961 2.961 0 0 0-.69-.541 5.384 5.384 0 0 0-.827-.384c-.21-.066-.417-.135-.62-.207a11.008 11.008 0 0 0-.61-.197c-.205-.06-.402-.122-.592-.187a4.261 4.261 0 0 1-.522-.217 3.473 3.473 0 0 1-.462-.296 1.29 1.29 0 0 1-.335-.374.947.947 0 0 1-.129-.493 1.02 1.02 0 0 1 .139-.541 1.12 1.12 0 0 1 .414-.384 2.23 2.23 0 0 1 .66-.237c.288-.055.582-.081.876-.078a6.366 6.366 0 0 1 1.034.088c.204.033.406.076.61.128.205.052.41.112.62.177.195.06.386.133.571.217l.139-1.595a9.424 9.424 0 0 0-.739-.276 7.405 7.405 0 0 0-.738-.197 5.912 5.912 0 0 0-.739-.108 8.903 8.903 0 0 0-.72-.03 6.495 6.495 0 0 0-1.614.187c-.452.11-.882.297-1.27.552-.353.233-.641.551-.838.925a2.821 2.821 0 0 0-.295 1.33c-.006.332.047.662.158.975.093.262.233.506.413.719.175.2.378.376.6.522.234.152.481.28.74.384.144.052.295.105.453.157.157.053.311.102.463.148.151.045.298.092.443.137.145.046.285.093.423.138.138.046.272.09.404.129.176.062.347.138.512.226.145.077.28.17.404.276.109.095.196.213.256.345.06.136.09.284.088.433a.982.982 0 0 1-.325.778 1.886 1.886 0 0 1-.847.404c-.365.08-.738.12-1.112.117a5.529 5.529 0 0 1-.7-.048 10.4 10.4 0 0 1-.807-.138c-.282-.06-.571-.132-.867-.217-.295-.085-.594-.18-.896-.285l.079 1.674c.341.118.653.213.935.285.283.072.552.135.808.188.247.05.497.084.748.098.243.014.49.02.739.02a7.666 7.666 0 0 0 1.635-.168 4.208 4.208 0 0 0 1.34-.521 2.57 2.57 0 0 0 .895-.926c.226-.417.338-.886.325-1.36a2.755 2.755 0 0 0-.167-1.013 2.303 2.303 0 0 0-.463-.739ZM96.374 16.466a2.969 2.969 0 0 0-.69-.542 5.366 5.366 0 0 0-.827-.384c-.21-.066-.417-.135-.62-.207a10.926 10.926 0 0 0-.611-.197c-.204-.06-.4-.122-.59-.187a4.277 4.277 0 0 1-.523-.217 3.46 3.46 0 0 1-.463-.296 1.288 1.288 0 0 1-.334-.374.944.944 0 0 1-.128-.493 1.02 1.02 0 0 1 .138-.541c.102-.161.245-.294.413-.384a2.23 2.23 0 0 1 .66-.237c.289-.055.582-.081.876-.078a6.383 6.383 0 0 1 1.035.088c.203.033.406.076.61.128.203.052.41.112.62.177.195.06.386.133.571.217l.139-1.595a9.424 9.424 0 0 0-.739-.276 7.359 7.359 0 0 0-.739-.197 5.917 5.917 0 0 0-.738-.108 8.909 8.909 0 0 0-.72-.03 6.49 6.49 0 0 0-1.614.187c-.452.11-.882.296-1.27.552-.353.233-.641.551-.837.925a2.81 2.81 0 0 0-.296 1.33 2.78 2.78 0 0 0 .158.975c.093.262.233.506.413.719.175.2.378.376.601.522.233.152.48.28.739.384a16.032 16.032 0 0 0 .916.305c.151.045.298.092.442.137.145.046.286.093.424.138.138.046.272.09.404.129.176.062.347.138.512.226.145.076.28.169.404.276a1.012 1.012 0 0 1 .345.778.981.981 0 0 1-.326.778 1.886 1.886 0 0 1-.847.404c-.365.08-.738.12-1.112.117a5.544 5.544 0 0 1-.7-.048 10.45 10.45 0 0 1-.807-.138c-.282-.06-.571-.131-.867-.217-.295-.085-.594-.18-.896-.285l.08 1.674c.34.118.652.213.935.285.282.072.552.135.807.188.247.05.497.084.749.098.242.014.489.02.738.02a7.653 7.653 0 0 0 1.635-.168 4.206 4.206 0 0 0 1.339-.521 2.57 2.57 0 0 0 .896-.926c.226-.417.338-.885.325-1.36a2.755 2.755 0 0 0-.167-1.013 2.3 2.3 0 0 0-.463-.738ZM101.111 6.627a1.278 1.278 0 0 0-.68-.187 1.326 1.326 0 0 0-.689.187c-.205.12-.378.29-.502.493-.125.204-.19.44-.187.68-.002.242.063.48.187.688.12.206.294.376.502.493.21.118.448.179.689.177a1.301 1.301 0 0 0 1.163-.67c.118-.21.179-.448.177-.689a1.336 1.336 0 0 0-.177-.68 1.406 1.406 0 0 0-.483-.492ZM99.387 20.995h2.009V10.753l-2.009.296v9.946ZM110.693 16.466a2.958 2.958 0 0 0-.69-.542 5.37 5.37 0 0 0-.827-.384 16.8 16.8 0 0 1-.62-.207 10.935 10.935 0 0 0-.611-.197c-.204-.06-.401-.122-.591-.187a4.237 4.237 0 0 1-.522-.217 3.423 3.423 0 0 1-.463-.296 1.274 1.274 0 0 1-.334-.374.946.946 0 0 1-.129-.493c-.005-.19.043-.377.138-.541.103-.161.246-.294.414-.384a2.23 2.23 0 0 1 .66-.237c.289-.055.582-.081.876-.078a6.394 6.394 0 0 1 1.034.088c.204.033.407.076.611.128.203.052.41.112.62.177.195.06.386.133.571.217l.138-1.595a9.412 9.412 0 0 0-.738-.276 7.325 7.325 0 0 0-.739-.197 5.876 5.876 0 0 0-.738-.108 8.92 8.92 0 0 0-.719-.03 6.488 6.488 0 0 0-1.615.187c-.452.11-.882.296-1.271.552-.352.233-.64.551-.837.925a2.81 2.81 0 0 0-.295 1.33c-.006.332.047.662.158.975.093.262.233.506.413.719.175.2.378.376.601.522.233.152.48.28.739.384a22.599 22.599 0 0 0 .915.305 58.75 58.75 0 0 1 .867.275c.138.047.272.09.404.129.176.062.347.138.512.226.144.076.28.17.404.276a1 1 0 0 1 .344.778.985.985 0 0 1-.325.778 1.889 1.889 0 0 1-.847.404 5.02 5.02 0 0 1-1.112.117 5.556 5.556 0 0 1-.7-.048 10.414 10.414 0 0 1-.807-.138c-.282-.06-.571-.131-.867-.217-.295-.085-.594-.18-.896-.285l.079 1.674c.341.118.653.213.935.285.283.072.552.135.808.188.247.05.497.084.748.098.243.014.489.02.739.02a7.656 7.656 0 0 0 1.634-.168 4.202 4.202 0 0 0 1.34-.521c.373-.228.681-.546.896-.926.226-.417.338-.885.325-1.36a2.78 2.78 0 0 0-.167-1.013 2.301 2.301 0 0 0-.463-.738ZM119.774 20.995h2.6l-4.778-5.383 4.679-4.662h-2.462l-3.37 3.703h-.726V6.125l-2.009.295v14.575h2.009V16.17h.033l4.024 4.825Z"/></svg>