<svg xmlns="http://www.w3.org/2000/svg" viewBox="0 0 83 16"><path fill="#0A2343" d="M0 15V1.001h4.593v14H0ZM10.843 3.23 13.484 15H8.457L5.303 1.001h2.82a2.655 2.655 0 0 1 1.764.641c.491.404.829.964.956 1.587ZM14.174 15V1.001h4.594v14h-4.594Zm8.063-8.675a2.737 2.737 0 0 1-1.409-.375 2.778 2.778 0 0 1-1.015-1.015 2.735 2.735 0 0 1-.375-1.41 2.685 2.685 0 0 1 .375-1.4 2.812 2.812 0 0 1 3.824-1.005c.415.244.761.59 1.005 1.005.251.424.38.908.375 1.4.005.495-.125.982-.375 1.41a2.8 2.8 0 0 1-1.005 1.015c-.424.251-.908.38-1.4.375ZM25.727 15V1.001h4.594v14h-4.594Zm10.409-6.349c.013.014.111.175.296.483.184.309.424.703.72 1.183a384.573 384.573 0 0 1 1.862 3.056c.289.48.617 1.023.986 1.627h-5.047l-.858-1.39c-.256-.414-.529-.86-.817-1.34-.29-.48-.576-.947-.858-1.4a71.337 71.337 0 0 1-.73-1.193 21.112 21.112 0 0 0-.424-.69A2.04 2.04 0 0 1 30.932 8c.019-.338.128-.665.315-.947.078-.131.223-.365.433-.7a216.7 216.7 0 0 0 1.598-2.603l.817-1.35.858-1.4H40l-3.904 6.368c-.12.19-.189.407-.197.632.013.235.095.461.236.65h.001Z"/><path fill="#481581" d="M49.141 11.814c.004.228-.036.456-.118.67-.074.189-.187.36-.333.502-.152.142-.333.25-.53.315a2.16 2.16 0 0 1-.707.108c-.157 0-.304-.007-.442-.02a8.766 8.766 0 0 1-.824-.118 10.32 10.32 0 0 1-.854-.197l.157 1.773c.183.052.36.101.53.147.17.046.34.085.51.119.176.033.353.056.53.068.184.014.386.02.609.02.454.008.906-.049 1.344-.167a2.97 2.97 0 0 0 .992-.483c.268-.203.497-.453.677-.738.178-.286.31-.599.392-.926.087-.345.13-.699.128-1.054V1H49.14v10.814ZM62.821 13.744a.892.892 0 0 1-.765-.315 1.7 1.7 0 0 1-.216-1.044l.04-4.058a4.753 4.753 0 0 0-.158-1.26 3.101 3.101 0 0 0-.471-1.005 2.665 2.665 0 0 0-.815-.729c-.37-.21-.77-.363-1.187-.452a6.96 6.96 0 0 0-1.55-.158c-.414 0-.827.026-1.237.079-.388.049-.771.124-1.148.226-.35.095-.694.21-1.03.345l-.236 1.674a11.688 11.688 0 0 1 1.786-.492 7.17 7.17 0 0 1 .814-.108c.268-.02.533-.03.795-.03.4-.009.8.038 1.188.138.283.07.543.213.755.414.19.194.325.435.393.699.084.325.123.66.118.995l-.003.494-2.294.156a6.083 6.083 0 0 0-2.276.511 3.267 3.267 0 0 0-1.345 1.094 2.55 2.55 0 0 0-.441 1.447c-.004.485.114.962.343 1.389.24.438.601.797 1.04 1.034.536.28 1.134.415 1.737.394a4.51 4.51 0 0 0 1.659-.276c.459-.18.879-.447 1.236-.788.136-.13.265-.268.386-.412.038.204.11.4.213.58.175.302.444.537.765.67.356.143.736.213 1.12.207.117 0 .231-.004.343-.01.109-.007.217-.023.323-.05l.285-.069a1.52 1.52 0 0 0 .226-.069l.216-1.319a1.74 1.74 0 0 1-.334.079 2.255 2.255 0 0 1-.275.019Zm-3.268-.886a3.777 3.777 0 0 1-.687.433c-.243.119-.5.205-.765.256a4.34 4.34 0 0 1-.834.079c-.32.009-.638-.051-.933-.178a1.28 1.28 0 0 1-.579-.502 1.476 1.476 0 0 1-.196-.777c-.019-.329.07-.655.255-.927a1.5 1.5 0 0 1 .825-.492 5.962 5.962 0 0 1 1.53-.157h1.72l-.01 1.955c-.1.112-.208.216-.326.31ZM72.713 6.338l-.235-1.399H64.9l-.235 1.576h5.7l-5.876 7.13.235 1.34h8.008l.216-1.596h-6l5.764-7.05ZM76.842 13.39l5.764-7.052-.236-1.398h-7.577l-.235 1.575h5.7l-5.877 7.13.236 1.34h8.008l.216-1.596h-6Z"/></svg>