<svg xmlns="http://www.w3.org/2000/svg" viewBox="0 0 74 16"><path fill="#0A2343" d="M0 15V1.001h4.593V15H0ZM10.843 3.23 13.484 15H8.457L5.303 1.001h2.82a2.655 2.655 0 0 1 1.764.641c.491.404.829.964.956 1.587ZM14.174 15V1.001h4.594V15h-4.594Zm8.063-8.675a2.737 2.737 0 0 1-1.409-.375 2.778 2.778 0 0 1-1.015-1.015 2.735 2.735 0 0 1-.375-1.41 2.685 2.685 0 0 1 .375-1.4 2.812 2.812 0 0 1 3.824-1.005c.415.244.761.59 1.005 1.005.251.424.38.908.375 1.4.005.495-.125.982-.375 1.41a2.8 2.8 0 0 1-1.005 1.015c-.424.25-.908.38-1.4.375ZM25.727 15V1.001h4.594V15h-4.594Zm10.409-6.349c.013.014.111.175.296.483.184.309.424.703.72 1.183a384.573 384.573 0 0 1 1.862 3.056c.289.48.617 1.023.986 1.627h-5.047l-.858-1.39c-.256-.414-.529-.861-.817-1.34a118.3 118.3 0 0 0-.858-1.4 71.28 71.28 0 0 1-.73-1.193 21.1 21.1 0 0 0-.424-.69A2.04 2.04 0 0 1 30.932 8c.019-.338.128-.665.315-.947.078-.132.223-.365.433-.7a216.97 216.97 0 0 0 1.598-2.603l.817-1.35.858-1.4H40l-3.904 6.368c-.12.19-.189.407-.197.632.013.235.095.461.236.65h.001Z"/><path fill="#015F88" d="M54.824 2.814a3.52 3.52 0 0 0-.916-.956 4.39 4.39 0 0 0-1.329-.63A6.285 6.285 0 0 0 50.807 1h-5.474v13.998h2.068V9.972h3.564a4.641 4.641 0 0 0 2.303-.572 4.262 4.262 0 0 0 1.625-1.597c.414-.74.622-1.577.6-2.425a5.763 5.763 0 0 0-.157-1.36 3.935 3.935 0 0 0-.512-1.204Zm-1.831 4.25a2.33 2.33 0 0 1-1.113.916 4.588 4.588 0 0 1-1.743.296h-2.736v-5.56h3.012a3.74 3.74 0 0 1 1.674.325c.418.203.76.535.975.947.227.462.339.973.325 1.488a2.92 2.92 0 0 1-.394 1.587ZM59.697 1.464c-.283.151-.558.292-.827.424l-.817.394c-.276.131-.558.25-.847.355-.289.105-.597.21-.925.315l.433 1.676c.394-.118.752-.236 1.073-.355.315-.115.624-.247.925-.394.296-.144.591-.302.886-.473l.01-.006V15h2.048V1.001h-1.063a33.13 33.13 0 0 0-.896.463ZM69.67 7.23V3.249h-1.733v3.983H63.94v1.557h3.997v3.964h1.733V8.788h3.997V7.231H69.67Z"/></svg>