<svg xmlns="http://www.w3.org/2000/svg" viewBox="0 0 58 24"><path fill="#fff" d="M0 17.998v-12h3.937v12H0Zm9.294-10.09 2.264 10.09H7.25l-2.703-12h2.416a2.276 2.276 0 0 1 1.513.55c.42.346.71.827.819 1.36Zm2.856 10.09v-12h3.937v12H12.15Zm6.91-7.436a2.383 2.383 0 0 1-2.4-2.4 2.303 2.303 0 0 1 .322-1.2A2.412 2.412 0 0 1 20.26 6.1c.356.21.653.506.862.862.215.363.326.778.321 1.2a2.4 2.4 0 0 1-1.183 2.079 2.303 2.303 0 0 1-1.2.32Zm2.992 7.436v-12h3.937v12h-3.937Zm8.922-5.442c.01.012.095.15.253.414s.364.602.617 1.014a327.152 327.152 0 0 1 1.597 2.62c.247.411.529.876.845 1.394H29.96c-.27-.44-.516-.837-.736-1.192-.22-.355-.453-.738-.7-1.149-.248-.41-.493-.81-.736-1.2-.242-.389-.45-.73-.625-1.022-.175-.293-.296-.49-.363-.592a1.75 1.75 0 0 1-.287-.845c.016-.29.11-.57.27-.811.067-.113.191-.313.372-.6a182.106 182.106 0 0 0 1.37-2.23c.247-.412.48-.798.7-1.158l.735-1.2h4.326l-3.346 5.458a1.078 1.078 0 0 0-.17.541c.012.202.082.396.203.558ZM37.096 7.487h3.91V18h1.792V7.487h3.892V6h-9.594v1.487ZM56.114 6l-2.543 7.47a59.795 59.795 0 0 0-.76 2.502l-.179.64a95.445 95.445 0 0 0-.573-1.984 25.23 25.23 0 0 0-.4-1.225L49.165 6h-1.913l4.2 12h2.22l4.216-12h-1.775Z"/></svg>