<svg xmlns="http://www.w3.org/2000/svg" viewBox="0 0 61 35"><path fill="#fff" d="M0 14.333V.335h4.593v13.998H0Zm10.843-11.77 2.641 11.77H8.457L5.303.335h2.82a2.655 2.655 0 0 1 1.764.64c.491.404.829.964.956 1.588Zm3.331 11.77V.335h4.594v13.998h-4.594Zm8.063-8.675a2.738 2.738 0 0 1-1.409-.375 2.778 2.778 0 0 1-1.015-1.015 2.735 2.735 0 0 1-.375-1.41 2.685 2.685 0 0 1 .375-1.4A2.812 2.812 0 0 1 23.637.454c.415.244.761.59 1.005 1.005.251.424.38.908.375 1.4.005.496-.125.983-.375 1.41a2.8 2.8 0 0 1-1.005 1.015c-.424.251-.908.38-1.4.375Zm3.49 8.675V.335h4.594v13.998h-4.594Zm10.409-6.348c.013.013.111.174.296.483.184.308.424.702.72 1.183a386.846 386.846 0 0 1 1.862 3.056c.289.48.617 1.022.986 1.626h-5.047l-.858-1.39c-.256-.414-.529-.86-.817-1.34-.29-.48-.576-.946-.858-1.4a71.148 71.148 0 0 1-.73-1.193 21.112 21.112 0 0 0-.424-.69 2.04 2.04 0 0 1-.334-.986c.019-.338.128-.665.315-.947.078-.131.223-.364.433-.7a216.7 216.7 0 0 0 1.598-2.603l.817-1.35.858-1.4H40l-3.904 6.369c-.12.189-.189.407-.197.631.013.235.095.462.236.65h.001Z"/><path fill="#9FDAF5" d="M11.138 20.396H0v1.733h4.538v12.252h2.08V22.13h4.52v-1.733ZM15.2 24.267c-.37.099-.724.252-1.05.453-.338.21-.65.458-.931.739-.047.046-.093.098-.14.147v-1.467l-2.02.295v9.948h2.02V26.94a5.131 5.131 0 0 1 1.08-.575c.206-.08.413-.148.625-.207a4.23 4.23 0 0 1 1.387-.148l.238-1.852a3.804 3.804 0 0 0-1.209.109ZM26.576 33.14a.908.908 0 0 1-.773-.315 1.687 1.687 0 0 1-.218-1.044l.04-4.057a4.707 4.707 0 0 0-.159-1.261 3.08 3.08 0 0 0-.476-1.005 2.68 2.68 0 0 0-.822-.728 4.214 4.214 0 0 0-1.199-.454 7.112 7.112 0 0 0-1.566-.157c-.417 0-.834.026-1.248.079a8.612 8.612 0 0 0-1.16.226c-.353.095-.7.21-1.04.345l-.238 1.674a11.715 11.715 0 0 1 1.804-.492c.271-.052.546-.088.822-.108.27-.02.538-.03.803-.03a4.46 4.46 0 0 1 1.199.138c.286.07.548.213.763.413.19.195.328.436.396.7.085.324.125.66.12.995l-.003.492-2.317.156a6.193 6.193 0 0 0-2.298.512 3.29 3.29 0 0 0-1.358 1.093 2.535 2.535 0 0 0-.446 1.448c-.004.485.116.962.347 1.389.242.438.607.797 1.05 1.034.54.28 1.145.415 1.754.394.57.013 1.139-.08 1.675-.276a3.86 3.86 0 0 0 1.248-.788c.137-.13.267-.268.39-.412.038.203.111.4.215.58.176.301.448.537.773.67.358.143.742.213 1.13.206.118 0 .234-.003.346-.01.11-.006.22-.022.327-.049.106-.026.201-.05.287-.069.078-.017.154-.04.228-.069l.218-1.32c-.11.038-.222.064-.337.08-.092.012-.184.02-.277.02Zm-2.97-1.196c-.101.112-.212.216-.33.31a3.821 3.821 0 0 1-.694.433 3.13 3.13 0 0 1-.773.256 4.39 4.39 0 0 1-.842.08 2.25 2.25 0 0 1-.942-.178 1.29 1.29 0 0 1-.584-.502 1.464 1.464 0 0 1-.198-.779c-.02-.328.071-.653.257-.925.216-.25.508-.424.832-.493a6.08 6.08 0 0 1 1.546-.157h1.736l-.009 1.955ZM34.037 19.667a6.488 6.488 0 0 0-1.298-.118 4.012 4.012 0 0 0-1.268.197c-.39.127-.745.34-1.04.62a2.888 2.888 0 0 0-.694 1.055 4.09 4.09 0 0 0-.248 1.497v1.418h-1.486v1.536h1.486v8.51h2.021v-8.51h2.775v-1.536H31.51V22.7a1.836 1.836 0 0 1 .108-.66c.065-.179.17-.34.307-.473a1.21 1.21 0 0 1 .506-.276c.222-.06.453-.09.683-.088.16 0 .31.007.456.02.147.012.288.032.427.059.139.026.27.052.396.078.112.023.221.055.327.099l-.08-1.635a4.777 4.777 0 0 0-.604-.158ZM36.246 34.382h2.022V24.139l-2.022.295v9.948ZM37.98 20.012a1.29 1.29 0 0 0-.683-.187 1.34 1.34 0 0 0-.694.187c-.206.12-.38.29-.505.492-.126.205-.191.44-.188.68-.003.243.063.481.188.69.121.205.296.375.505.492.212.118.451.18.694.177.24.003.476-.058.684-.177.203-.117.371-.288.485-.493.12-.21.18-.448.178-.689a1.323 1.323 0 0 0-.178-.68 1.396 1.396 0 0 0-.486-.492ZM49.98 24.336h-2.477l-3.391 3.703h-.731v-8.53l-2.022.296v14.576h2.022v-4.826h.033l4.049 4.826h2.616l-4.807-5.384 4.708-4.661ZM55.676 28.946l4.708-4.662h-2.477l-3.39 3.703h-.732v-8.529l-2.021.296V34.33h2.021v-4.826h.033l4.05 4.826h2.615l-4.807-5.384Z"/></svg>