<svg xmlns="http://www.w3.org/2000/svg" viewBox="0 0 35 35"><path fill="#000" fill-rule="evenodd" d="M0 0h34.667v34.667H0V0Zm11.196 15.407H8v11.61h3.196v-11.61Zm4.051 0H11.66s2.039 3.342 2.062 3.384c.156.266.165.428.013.684l-2.075 3.397h3.588s1.73-2.826 1.967-3.218c.235-.393.225-.637-.01-1.04-.238-.406-.253-.43-1.658-2.72l-.299-.487Zm10.05 0s1.068 1.718 1.189 1.924c.234.404.245.648.009 1.042a9958.7 9958.7 0 0 1-1.576 2.61c.258.422.603.974.906 1.46.31.497.577.924.66 1.066.235.404.246.649.01 1.042l-.256.43c-.32.536-.84 1.41-1.224 2.036h-3.279l1.796-2.946-1.862-3.121 1.67-2.733h-4.046l-1.677-2.81h7.68Zm-6.2 5.962a364.71 364.71 0 0 0-1.509 2.476c-.225.389-.236.624-.009 1.004.159.262 1.01 1.655 1.518 2.484.508-.83 1.36-2.222 1.519-2.484.227-.38.216-.615-.01-1.004a379.74 379.74 0 0 0-1.509-2.476ZM8 7.156v6.531h2.144v-6.53H8Zm6.293 6.531L13.06 8.196a1.293 1.293 0 0 0-.446-.74 1.239 1.239 0 0 0-.823-.3h-1.316l1.472 6.531h2.346Zm.322-6.53v6.53h2.143v-6.53h-2.143Zm3.105 2.308c.2.117.426.177.657.175.23.003.456-.058.654-.175a1.307 1.307 0 0 0 .644-1.131 1.255 1.255 0 0 0-.175-.654 1.323 1.323 0 0 0-.47-.469 1.258 1.258 0 0 0-.653-.174 1.313 1.313 0 0 0-1.132.644 1.254 1.254 0 0 0-.174.653 1.296 1.296 0 0 0 .649 1.131Zm2.286-2.309v6.531h2.144v-6.53h-2.144ZM25 10.951a5.197 5.197 0 0 0-.138-.226.56.56 0 0 1-.11-.303.588.588 0 0 1 .092-.295l1.822-2.971H24.31a313.335 313.335 0 0 0-.781 1.283 105.098 105.098 0 0 1-.948 1.541.893.893 0 0 0-.147.442.951.951 0 0 0 .156.46c.037.055.103.162.198.322.095.159.208.344.34.556.132.212.266.43.4.653.135.224.262.433.382.626l.4.648h2.356c-.172-.282-.326-.535-.46-.758a183.366 183.366 0 0 0-.87-1.426c-.138-.224-.25-.408-.335-.552Z" clip-rule="evenodd"/></svg>