<svg xmlns="http://www.w3.org/2000/svg" viewBox="0 0 116 16"><path fill="#0A2343" d="M0 15V1.001h4.593V15H0ZM10.843 3.23 13.484 15H8.457L5.303 1.001h2.82a2.655 2.655 0 0 1 1.764.641c.491.404.829.964.956 1.587ZM14.174 15V1.001h4.594V15h-4.594Zm8.063-8.675a2.737 2.737 0 0 1-1.409-.375 2.778 2.778 0 0 1-1.015-1.015 2.735 2.735 0 0 1-.375-1.41 2.685 2.685 0 0 1 .375-1.4 2.812 2.812 0 0 1 3.824-1.005c.415.244.761.59 1.005 1.005.251.424.38.908.375 1.4.005.495-.125.982-.375 1.41a2.8 2.8 0 0 1-1.005 1.015c-.424.25-.908.38-1.4.375ZM25.727 15V1.001h4.594V15h-4.594Zm10.409-6.349c.013.014.111.175.296.483.184.309.424.703.72 1.183a384.573 384.573 0 0 1 1.862 3.056c.289.48.617 1.023.986 1.627h-5.047l-.858-1.39c-.256-.414-.529-.861-.817-1.34a118.3 118.3 0 0 0-.858-1.4 71.28 71.28 0 0 1-.73-1.193 21.1 21.1 0 0 0-.424-.69A2.04 2.04 0 0 1 30.932 8c.019-.338.128-.665.315-.947.078-.132.223-.365.433-.7a216.97 216.97 0 0 0 1.598-2.603l.817-1.35.858-1.4H40l-3.904 6.368c-.12.19-.189.407-.197.632.013.235.095.461.236.65h.001Z"/><path fill="#6B046A" d="M55.95 1.012h-2.463l-5.35 6.164H47.4V1.012h-2.068v13.984h2.068V8.673h.07l5.82 6.342 2.816-.02-6.677-6.933 6.52-7.05ZM60.785 13.548c-.07.007-.138.01-.207.01a1.055 1.055 0 0 1-.433-.08.704.704 0 0 1-.296-.246 1.07 1.07 0 0 1-.167-.423 3.26 3.26 0 0 1-.05-.61V.125l-2.008.296v12.664a2.68 2.68 0 0 0 .157.975c.095.254.25.48.453.66.203.173.442.298.7.364.286.074.58.11.876.109a4.904 4.904 0 0 0 .877-.08 3.9 3.9 0 0 0 .344-.078l.197-1.556-.236.039a5.033 5.033 0 0 1-.207.03ZM71.765 13.755a.896.896 0 0 1-.768-.316 1.693 1.693 0 0 1-.217-1.043l.04-4.058a4.74 4.74 0 0 0-.158-1.26c-.096-.36-.256-.701-.473-1.005a2.664 2.664 0 0 0-.817-.728 4.163 4.163 0 0 0-1.192-.453 7.005 7.005 0 0 0-1.556-.158c-.414 0-.829.026-1.24.079a8.553 8.553 0 0 0-1.153.226c-.35.095-.696.21-1.034.345l-.236 1.674c.328-.118.64-.217.936-.295.295-.079.58-.144.856-.197.27-.052.543-.088.818-.109.269-.02.535-.03.798-.03a4.4 4.4 0 0 1 1.19.139c.285.07.546.213.76.413.19.195.325.436.393.7.084.324.124.659.119.994l-.003.495-2.302.155a6.116 6.116 0 0 0-2.285.512 3.271 3.271 0 0 0-1.349 1.093 2.542 2.542 0 0 0-.443 1.448 2.88 2.88 0 0 0 .345 1.388c.24.439.603.798 1.043 1.035a3.51 3.51 0 0 0 1.743.394 4.524 4.524 0 0 0 1.665-.277 3.84 3.84 0 0 0 1.24-.787c.137-.131.266-.269.388-.413.038.204.11.4.213.58.176.302.446.537.769.67.356.143.738.213 1.122.206.118 0 .233-.003.345-.01.11-.006.218-.022.325-.049.105-.026.2-.05.285-.069a1.67 1.67 0 0 0 .227-.068l.216-1.32c-.108.037-.22.064-.334.079a2.27 2.27 0 0 1-.276.02Zm-3.28-.887a3.785 3.785 0 0 1-.689.433 3.098 3.098 0 0 1-.768.257c-.276.053-.556.08-.837.079-.32.009-.64-.052-.936-.178a1.288 1.288 0 0 1-.58-.502 1.473 1.473 0 0 1-.197-.778 1.491 1.491 0 0 1 .256-.926c.214-.25.505-.423.827-.492a5.99 5.99 0 0 1 1.536-.158h1.725l-.01 1.955c-.1.113-.209.217-.326.31ZM80.47 10.466a2.961 2.961 0 0 0-.69-.542 5.388 5.388 0 0 0-.826-.384 17.22 17.22 0 0 1-.62-.207 10.982 10.982 0 0 0-.611-.197c-.204-.06-.401-.122-.591-.187a4.258 4.258 0 0 1-.522-.217 3.474 3.474 0 0 1-.463-.296 1.291 1.291 0 0 1-.335-.374.947.947 0 0 1-.128-.493 1.02 1.02 0 0 1 .138-.541 1.12 1.12 0 0 1 .414-.384c.206-.113.429-.193.66-.237.288-.055.582-.081.876-.078a6.364 6.364 0 0 1 1.034.088c.204.033.407.076.61.128.205.052.411.112.621.177.195.06.385.133.57.217l.14-1.595a9.447 9.447 0 0 0-.74-.276 7.373 7.373 0 0 0-.738-.197 5.907 5.907 0 0 0-.739-.108 8.912 8.912 0 0 0-.719-.03 6.497 6.497 0 0 0-1.615.187c-.451.11-.881.297-1.27.552-.353.233-.64.551-.837.925a2.823 2.823 0 0 0-.296 1.33c-.006.332.048.662.158.975.094.262.234.506.414.719.175.2.377.376.6.522.233.152.48.28.739.384.144.052.295.105.453.157.158.053.312.102.463.148.151.045.298.092.443.138.145.045.285.092.423.137.138.046.273.09.404.129.176.062.348.138.513.226.144.077.28.17.403.276.11.095.196.213.256.345.06.136.09.284.089.433a.982.982 0 0 1-.325.778 1.886 1.886 0 0 1-.847.404c-.366.08-.739.12-1.113.118a5.529 5.529 0 0 1-.7-.05 10.4 10.4 0 0 1-.806-.137c-.283-.06-.572-.132-.867-.217-.296-.085-.595-.18-.896-.285l.078 1.674c.341.118.653.213.936.285.282.072.551.135.807.188.247.05.497.084.749.098.243.014.489.02.738.02a7.665 7.665 0 0 0 1.635-.168 4.21 4.21 0 0 0 1.34-.521 2.57 2.57 0 0 0 .896-.926c.225-.417.337-.886.324-1.36a2.755 2.755 0 0 0-.167-1.013 2.303 2.303 0 0 0-.463-.739ZM89.707 10.466a2.97 2.97 0 0 0-.69-.542 5.375 5.375 0 0 0-.827-.384c-.21-.066-.417-.135-.62-.207a11.009 11.009 0 0 0-.61-.197c-.204-.06-.401-.122-.592-.187a4.275 4.275 0 0 1-.521-.217 3.46 3.46 0 0 1-.463-.296 1.287 1.287 0 0 1-.335-.374.944.944 0 0 1-.128-.493 1.02 1.02 0 0 1 .138-.541c.103-.161.245-.294.413-.384.207-.113.43-.193.66-.237.29-.055.583-.081.876-.078a6.383 6.383 0 0 1 1.035.088c.204.033.407.076.61.128.204.052.41.112.62.177.196.06.386.133.572.217l.138-1.595a9.447 9.447 0 0 0-.739-.276 7.345 7.345 0 0 0-.738-.197 5.91 5.91 0 0 0-.739-.108 8.91 8.91 0 0 0-.719-.03 6.49 6.49 0 0 0-1.615.187c-.452.11-.881.297-1.27.552-.353.233-.64.551-.837.925a2.813 2.813 0 0 0-.296 1.33 2.78 2.78 0 0 0 .158.975c.094.262.234.506.414.719.175.2.377.376.6.522.233.152.48.28.74.384a16.032 16.032 0 0 0 .915.305c.151.045.298.092.443.138.144.045.285.092.423.137.138.046.273.09.404.129.176.062.348.138.512.226.145.076.28.169.404.276a1.012 1.012 0 0 1 .345.778.981.981 0 0 1-.325.778 1.886 1.886 0 0 1-.847.404c-.366.08-.739.12-1.113.118a5.544 5.544 0 0 1-.7-.05 10.45 10.45 0 0 1-.807-.137c-.282-.06-.57-.132-.867-.217-.295-.085-.593-.18-.895-.285l.078 1.674c.341.118.653.213.936.285.283.072.552.135.808.188.246.05.496.084.748.098.243.014.489.02.739.02a7.654 7.654 0 0 0 1.634-.168 4.207 4.207 0 0 0 1.34-.521 2.57 2.57 0 0 0 .896-.926c.225-.417.337-.885.324-1.36a2.755 2.755 0 0 0-.167-1.013 2.3 2.3 0 0 0-.463-.738ZM94.444.627a1.276 1.276 0 0 0-.68-.187 1.326 1.326 0 0 0-.688.187c-.206.12-.378.29-.502.493-.126.204-.19.44-.188.68-.002.242.063.48.188.688.12.206.293.376.502.493.21.118.448.179.689.177.238.003.472-.058.679-.177.203-.118.37-.288.483-.493.118-.21.18-.448.177-.689a1.33 1.33 0 0 0-.177-.68 1.392 1.392 0 0 0-.483-.492ZM92.72 14.995h2.01V4.753l-2.01.296v9.946ZM104.026 10.466a2.974 2.974 0 0 0-.689-.542 5.416 5.416 0 0 0-.828-.384c-.21-.066-.417-.135-.62-.207a10.986 10.986 0 0 0-.611-.197c-.203-.06-.4-.122-.591-.187a4.224 4.224 0 0 1-.521-.217 3.453 3.453 0 0 1-.464-.296 1.29 1.29 0 0 1-.334-.374.944.944 0 0 1-.128-.493 1.02 1.02 0 0 1 .138-.541c.102-.161.245-.294.413-.384.206-.113.429-.193.66-.237.289-.055.583-.081.877-.078a6.347 6.347 0 0 1 1.034.088c.204.033.406.076.61.128.203.052.41.112.621.177.194.06.385.133.571.217l.138-1.595a9.455 9.455 0 0 0-.739-.276 7.38 7.38 0 0 0-.738-.197 5.93 5.93 0 0 0-.739-.108 8.902 8.902 0 0 0-.719-.03 6.49 6.49 0 0 0-1.615.187c-.452.11-.882.297-1.27.552-.353.233-.641.551-.838.925a2.813 2.813 0 0 0-.295 1.33 2.78 2.78 0 0 0 .158.975c.093.262.233.506.414.719.175.2.377.376.6.522.233.152.48.28.739.384a16.023 16.023 0 0 0 .916.305l.443.138c.144.045.285.091.423.137.138.047.273.09.404.129.176.062.348.138.512.226.145.076.28.17.404.276a1.015 1.015 0 0 1 .345.778.986.986 0 0 1-.325.778 1.892 1.892 0 0 1-.848.404 5.02 5.02 0 0 1-1.112.118 5.541 5.541 0 0 1-.7-.05 10.441 10.441 0 0 1-.807-.137c-.282-.06-.571-.132-.867-.217a17.67 17.67 0 0 1-.895-.285l.078 1.674c.341.118.653.213.936.285.282.072.552.135.807.188.247.05.497.084.749.098.243.014.489.02.738.02a7.659 7.659 0 0 0 1.635-.168 4.206 4.206 0 0 0 1.339-.521c.373-.228.681-.546.897-.926.225-.417.337-.885.324-1.36a2.759 2.759 0 0 0-.167-1.013 2.301 2.301 0 0 0-.463-.738ZM113.107 14.995h2.6l-4.777-5.383 4.679-4.662h-2.462l-3.371 3.703h-.726V.125l-2.009.295v14.575h2.009V10.17h.033l4.024 4.825Z"/></svg>