<svg width="52" height="36" viewBox="0 0 52 36" fill="none" xmlns="http://www.w3.org/2000/svg">
<g clip-path="url(#clip0_4164_1475)">
<g clip-path="url(#clip1_4164_1475)">
<path d="M25.886 30.5543C25.9671 30.768 26.0059 30.9953 26.0001 31.2237C26.0093 31.532 25.935 31.8371 25.785 32.107C25.6406 32.3515 25.4385 32.5573 25.1961 32.7063C24.925 32.8705 24.6269 32.9858 24.3156 33.0468C23.9572 33.1205 23.5921 33.1565 23.2262 33.1542C23.0574 33.1542 22.8907 33.15 22.7261 33.1416C22.5579 33.1327 22.3907 33.1116 22.2256 33.0784C22.0563 33.0444 21.8789 33.0022 21.6935 32.9518C21.5082 32.9014 21.3014 32.8381 21.0731 32.762L21.0222 31.6136C21.2167 31.6811 21.4131 31.7444 21.6115 31.8035C21.8099 31.8625 22.002 31.9109 22.1878 31.9486C22.3734 31.9863 22.5527 32.0161 22.7262 32.0366C22.8837 32.0569 23.0422 32.0675 23.201 32.0683C23.4329 32.0696 23.6643 32.0464 23.8913 31.9991C24.082 31.9643 24.2608 31.8818 24.4107 31.7592C24.4767 31.6998 24.5285 31.6266 24.5624 31.5447C24.5964 31.4629 24.6115 31.3745 24.6068 31.2861C24.6073 31.1959 24.5855 31.1071 24.5433 31.0273C24.4989 30.9449 24.4385 30.8721 24.3657 30.813C24.284 30.746 24.1947 30.6887 24.0997 30.6423C23.9986 30.5919 23.8931 30.5457 23.7831 30.5035C23.6984 30.4783 23.6122 30.4508 23.5234 30.4217C23.4346 30.3925 23.342 30.3629 23.2447 30.3332C23.1474 30.3034 23.0507 30.2765 22.9534 30.2509C22.8562 30.2253 22.7594 30.1964 22.6622 30.1629C22.5649 30.1293 22.4702 30.0912 22.3773 30.0492C22.2094 29.9825 22.0483 29.9001 21.8961 29.803C21.7483 29.7105 21.6158 29.5956 21.5034 29.4625C21.3888 29.3239 21.3008 29.1656 21.2436 28.9953C21.1768 28.794 21.1446 28.5828 21.1484 28.3708C21.1415 28.0737 21.2069 27.7793 21.3389 27.5127C21.4661 27.2681 21.6535 27.0596 21.8835 26.9066C22.1425 26.7372 22.43 26.6155 22.7321 26.5472C23.0848 26.4645 23.4461 26.4243 23.8084 26.4273C23.9688 26.4273 24.1314 26.4336 24.2962 26.4462C24.4598 26.4586 24.6227 26.4797 24.784 26.5095C24.9467 26.5395 25.1074 26.5794 25.2651 26.629C25.4297 26.6813 25.5904 26.7447 25.7463 26.8188L25.6453 27.9294C25.5248 27.8695 25.3998 27.8188 25.2715 27.7779C25.1406 27.7358 25.0076 27.6979 24.8725 27.6643C24.7373 27.6307 24.6044 27.603 24.4735 27.582C24.3426 27.561 24.2201 27.5463 24.106 27.5379C23.9919 27.5295 23.8888 27.5254 23.7958 27.5254C23.613 27.5235 23.4305 27.5403 23.2512 27.5757C23.1075 27.6036 22.9688 27.6525 22.8394 27.7208C22.7356 27.7746 22.6483 27.8553 22.5865 27.9544C22.5306 28.05 22.5021 28.1591 22.5041 28.2698C22.5015 28.3785 22.5301 28.4858 22.5865 28.5789C22.641 28.6672 22.7119 28.7443 22.7953 28.8063C22.8861 28.8731 22.9837 28.9302 23.0866 28.9766C23.1935 29.0294 23.3036 29.0758 23.4162 29.1154C23.534 29.1575 23.6585 29.1954 23.7896 29.229C23.9207 29.2626 24.0516 29.3026 24.1823 29.3489C24.3132 29.3951 24.442 29.4392 24.5687 29.4815C24.7584 29.547 24.9426 29.627 25.1197 29.721C25.2895 29.8114 25.4434 29.9287 25.5756 30.0683C25.7082 30.2098 25.8135 30.3746 25.886 30.5543ZM31.373 26.6418L32.8168 26.4276L32.8042 33.0277H31.677L31.4759 32.2078C31.4442 32.2375 31.4124 32.2674 31.3799 32.2959C31.1808 32.4754 30.9619 32.632 30.7275 32.7626C30.5017 32.888 30.2614 32.9856 30.012 33.0533C29.7495 33.122 29.479 33.1559 29.2076 33.1539C28.7879 33.1661 28.3718 33.0728 27.9979 32.8825C27.6623 32.7 27.3972 32.4114 27.2444 32.0622C27.0751 31.6966 26.9906 31.2275 26.991 30.655V26.6421L28.4348 26.4278V30.3903C28.4265 30.6723 28.4738 30.9532 28.5741 31.217C28.6557 31.4277 28.8077 31.6038 29.0046 31.7157C29.2395 31.8344 29.5011 31.8909 29.7643 31.8797C29.9237 31.8798 30.0828 31.865 30.2395 31.8356C30.3941 31.8066 30.5465 31.7665 30.6954 31.7157C30.8475 31.6634 30.9956 31.6002 31.1386 31.5265C31.2152 31.4871 31.2931 31.4444 31.373 31.3986V26.6418ZM39.2918 26.813C38.8389 26.5372 38.315 26.3991 37.7845 26.4154C37.4637 26.4167 37.1444 26.4593 36.8345 26.542C36.503 26.6305 36.1838 26.7598 35.8845 26.927C35.8293 26.9576 35.7746 26.992 35.7199 27.026V26.4284L34.2762 26.6558V35.6667H35.7199V32.8308C35.9502 32.9277 36.19 33.0003 36.4355 33.0477C36.7382 33.1048 37.0458 33.1322 37.3539 33.1295C37.9261 33.1386 38.4903 32.9949 38.9879 32.7135C39.4777 32.4262 39.8752 32.0059 40.1341 31.5018C40.4169 30.9717 40.5584 30.328 40.5584 29.5708C40.5698 29.0052 40.4597 28.4436 40.2356 27.9238C40.0375 27.4691 39.7092 27.0826 39.2918 26.813ZM38.8355 31.0028C38.6887 31.329 38.44 31.599 38.1264 31.7727C37.7748 31.9542 37.3824 32.0432 36.9866 32.031C36.8043 32.0315 36.6223 32.0189 36.4419 31.9933C36.2526 31.9653 36.0661 31.921 35.8846 31.8607C35.8317 31.8435 35.7764 31.8251 35.72 31.8054V27.8919L35.7326 27.886C35.9098 27.806 36.0766 27.7386 36.2331 27.6839C36.3795 27.632 36.5298 27.5919 36.6826 27.564C36.8205 27.5393 36.9604 27.5267 37.1005 27.5262C37.4802 27.5128 37.8571 27.5953 38.1962 27.7661C38.4913 27.9302 38.723 28.1878 38.8545 28.498C39.0153 28.8945 39.091 29.3201 39.0767 29.7475C39.0896 30.1785 39.0072 30.607 38.8355 31.0028ZM46.0635 30.0696C46.3138 29.9961 46.548 29.8763 46.7538 29.7165C46.9299 29.576 47.0708 29.3967 47.1655 29.1927C47.2591 28.9865 47.3066 28.7625 47.3048 28.5363C47.3036 28.2704 47.2451 28.0079 47.1334 27.7664C47.015 27.508 46.8424 27.2778 46.6271 27.0915C46.3806 26.8812 46.0942 26.7223 45.7848 26.6243C45.4039 26.5045 45.006 26.447 44.6067 26.454C43.9143 26.454 43.3275 26.5991 42.8464 26.8894C42.3667 27.1775 41.9867 27.6046 41.757 28.1136C41.5013 28.6915 41.3758 29.3183 41.3895 29.9497C41.3895 30.6485 41.5183 31.2375 41.7759 31.7167C42.0342 32.197 42.4405 32.582 42.935 32.8149C43.45 33.0674 44.0834 33.1936 44.8349 33.1936C45.1147 33.1954 45.3942 33.1763 45.6711 33.1366C45.9168 33.1008 46.1586 33.0417 46.393 32.96C46.6211 32.8804 46.8533 32.7857 47.0896 32.6761L47.1784 31.6288C46.8498 31.7571 46.5134 31.8646 46.1712 31.9505C45.7877 32.0428 45.3942 32.0873 44.9997 32.083C44.6835 32.0877 44.3682 32.0494 44.0623 31.9694C43.8032 31.9081 43.5662 31.7766 43.3773 31.5895C43.1885 31.4024 43.0553 31.1669 42.9923 30.9091C42.9403 30.7284 42.905 30.5434 42.8871 30.3563L45.0885 30.2403C45.4192 30.2222 45.7464 30.1647 46.0635 30.0696ZM42.7577 29.4188C42.7741 29.1111 42.8354 28.8075 42.9395 28.5174C43.0442 28.2112 43.2437 27.9459 43.5094 27.76C43.7843 27.5889 44.104 27.5033 44.4279 27.5142C44.6904 27.5034 44.9515 27.5577 45.1877 27.6724C45.3656 27.7625 45.5148 27.9001 45.6187 28.0699C45.707 28.2146 45.7551 28.3801 45.758 28.5494C45.7611 28.6799 45.7282 28.8087 45.6627 28.9218C45.5866 29.0372 45.4758 29.1256 45.3461 29.1743C45.1576 29.246 44.9585 29.2865 44.7568 29.2942L42.7577 29.4188ZM52.0002 26.4586L51.823 27.7587C51.6604 27.7501 51.4975 27.7522 51.3352 27.7651C51.1879 27.7762 51.0418 27.7994 50.8983 27.8342C50.7628 27.8684 50.6296 27.9106 50.4993 27.9608C50.3655 28.013 50.2364 28.0762 50.1133 28.15C50.0203 28.2058 49.9272 28.266 49.8346 28.3261V33.0218H48.3904V26.6354L49.8345 26.4211V27.4352C49.8577 27.4083 49.8804 27.3811 49.9039 27.355C50.0793 27.1584 50.2769 26.9827 50.4928 26.8312C50.7024 26.6848 50.936 26.5758 51.1831 26.5092C51.4498 26.4409 51.7271 26.4236 52.0002 26.4586Z" fill="#00B3C7"/>
<path d="M0 33.0609V26.5388H2.15794V33.0609H0ZM5.09385 27.5768L6.33486 33.0609H3.9732L2.49134 26.5388H3.8159C4.11964 26.5349 4.41435 26.6411 4.64479 26.8374C4.8756 27.0255 5.03418 27.2865 5.09385 27.5768ZM6.65903 33.0609V26.5388H8.81697V33.0609H6.65903ZM10.4469 29.0191C10.2143 29.0213 9.98552 28.961 9.7848 28.8445C9.58677 28.731 9.42227 28.5678 9.30782 28.3714C9.19026 28.1723 9.12941 27.9454 9.13172 27.7147C9.12905 27.4853 9.18996 27.2597 9.30782 27.0624C9.42349 26.8682 9.5878 26.7068 9.7848 26.5939C9.98558 26.4776 10.2143 26.4173 10.4469 26.4194C10.678 26.4169 10.9054 26.4773 11.1044 26.5939C11.2995 26.7078 11.462 26.869 11.5768 27.0624C11.6945 27.2598 11.7554 27.4854 11.7529 27.7147C11.755 27.9453 11.6942 28.1723 11.5768 28.3714C11.4632 28.567 11.3005 28.73 11.1044 28.8445C10.9054 28.9614 10.6778 29.0218 10.4466 29.0191H10.4469ZM12.0863 33.0609V26.5388H14.2444V33.0609H12.0863ZM16.9764 30.103C16.9825 30.1093 17.0288 30.1844 17.1153 30.3281C17.2019 30.4718 17.3145 30.6555 17.4533 30.8792C17.5923 31.1029 17.7389 31.3402 17.8931 31.5912C18.0474 31.8421 18.1925 32.0795 18.3286 32.3031C18.4641 32.5267 18.6185 32.7793 18.7917 33.0609H16.4207C16.2724 32.8221 16.1381 32.6062 16.0177 32.4133C15.8973 32.2204 15.7693 32.0122 15.6336 31.7887C15.4977 31.5653 15.3633 31.3479 15.2304 31.1364C15.0976 30.925 14.9834 30.7397 14.8879 30.5807C14.792 30.4216 14.7256 30.3144 14.6886 30.2592C14.597 30.1222 14.5428 29.9639 14.5313 29.7999C14.5405 29.6425 14.5916 29.4903 14.6794 29.3588C14.7164 29.2976 14.7843 29.1888 14.8831 29.0327C14.9819 28.8765 15.0977 28.6913 15.2304 28.4769C15.3632 28.2626 15.4976 28.0437 15.6336 27.8201C15.7697 27.5966 15.8977 27.3868 16.0177 27.1909C16.1383 26.9951 16.2726 26.7777 16.4207 26.5387H18.7917L16.9577 29.5058C16.901 29.5939 16.869 29.6954 16.8651 29.7999C16.8712 29.9096 16.9098 30.015 16.9761 30.103H16.9764Z" fill="#00B3C7"/>
<path fill-rule="evenodd" clip-rule="evenodd" d="M26.167 6.10352e-05C19.8835 6.10352e-05 14.7556 5.1097 14.7556 11.3706C14.7556 17.6198 19.8832 22.7416 26.1671 22.7416C32.4384 22.7416 37.5787 17.6198 37.5787 11.3706C37.5786 5.1097 32.4383 6.10352e-05 26.167 6.10352e-05ZM16.9936 11.3706C16.9936 16.419 21.1375 20.5971 26.167 20.5971C31.2454 20.5971 35.3406 16.419 35.3405 11.3706C35.3405 6.2613 31.2454 2.14444 26.167 2.14444C21.1375 2.14444 16.9936 6.26141 16.9936 11.3706ZM24.1504 11.4075C24.1526 11.638 24.1086 11.8665 24.0209 12.0798C23.9333 12.293 23.8037 12.4866 23.6399 12.6493C23.476 12.8119 23.2812 12.9403 23.0669 13.0269C22.8526 13.1135 22.6231 13.1565 22.3918 13.1535C21.9271 13.1535 21.4814 12.9695 21.1527 12.6421C20.8241 12.3147 20.6395 11.8706 20.6395 11.4075C20.6395 10.9444 20.8241 10.5003 21.1527 10.1729C21.4814 9.84543 21.9271 9.66147 22.3918 9.66147C22.6231 9.65841 22.8526 9.70144 23.067 9.78802C23.2813 9.87461 23.4761 10.003 23.64 10.1657C23.8038 10.3283 23.9334 10.522 24.0211 10.7353C24.1087 10.9485 24.1526 11.1771 24.1504 11.4075ZM32.1306 10.5989L30.9752 11.5173C30.889 11.5786 30.889 11.6398 30.9137 11.7379L31.2948 13.1472C31.3196 13.221 31.2826 13.2327 31.2333 13.1958L29.9909 12.3877C29.9591 12.3637 29.9203 12.3508 29.8805 12.3508C29.8406 12.3508 29.8018 12.3637 29.77 12.3877L28.5156 13.2089C28.4664 13.2453 28.4293 13.221 28.4541 13.1476L28.8351 11.7384C28.8522 11.7013 28.8567 11.6596 28.8478 11.6198C28.8389 11.5799 28.8172 11.5441 28.7859 11.5177L27.6179 10.5741C27.5808 10.5376 27.5808 10.4886 27.6423 10.4886L29.1058 10.4273C29.1394 10.4284 29.1724 10.4181 29.1993 10.398C29.2262 10.378 29.2455 10.3494 29.254 10.317L29.8193 8.90776C29.8563 8.82224 29.9055 8.83394 29.93 8.90776L30.422 10.2682C30.4326 10.3173 30.4611 10.3608 30.502 10.3903C30.5429 10.4197 30.5933 10.433 30.6434 10.4275L32.0944 10.4888C32.1803 10.4886 32.1924 10.5498 32.1311 10.5989H32.1306Z" fill="#00B3C7"/>
</g>
</g>
<defs>
<clipPath id="clip0_4164_1475">
<rect width="52" height="36" fill="white"/>
</clipPath>
<clipPath id="clip1_4164_1475">
<rect width="52" height="35.6667" fill="white"/>
</clipPath>
</defs>
</svg>
