<svg xmlns="http://www.w3.org/2000/svg" viewBox="0 0 158 16"><path fill="#0A2343" d="M0 15V1.001h4.593V15H0ZM10.843 3.23 13.484 15H8.457L5.303 1.001h2.82a2.655 2.655 0 0 1 1.764.641c.491.404.829.964.956 1.587ZM14.174 15V1.001h4.594V15h-4.594Zm8.063-8.675a2.737 2.737 0 0 1-1.409-.375 2.778 2.778 0 0 1-1.015-1.015 2.735 2.735 0 0 1-.375-1.41 2.685 2.685 0 0 1 .375-1.4 2.812 2.812 0 0 1 3.824-1.005c.415.244.761.59 1.005 1.005.251.424.38.908.375 1.4.005.495-.125.982-.375 1.41a2.8 2.8 0 0 1-1.005 1.015c-.424.25-.908.38-1.4.375ZM25.727 15V1.001h4.594V15h-4.594Zm10.409-6.349c.013.014.111.175.296.483.184.309.424.703.72 1.183a384.573 384.573 0 0 1 1.862 3.056c.289.48.617 1.023.986 1.627h-5.047l-.858-1.39c-.256-.414-.529-.861-.817-1.34a118.3 118.3 0 0 0-.858-1.4 71.28 71.28 0 0 1-.73-1.193 21.1 21.1 0 0 0-.424-.69A2.04 2.04 0 0 1 30.932 8c.019-.338.128-.665.315-.947.078-.132.223-.365.433-.7a216.97 216.97 0 0 0 1.598-2.603l.817-1.35.858-1.4H40l-3.904 6.368c-.12.19-.189.407-.197.632.013.235.095.461.236.65h.001Z"/><path fill="#7B0A02" d="M45.333 15.002h2.07V9.225h5.285l.217-1.715h-5.501V2.738h7.157V1.003h-9.228v13.999ZM62.773 5.36a5.41 5.41 0 0 0-2.672-.63 5.386 5.386 0 0 0-2.691.65 4.547 4.547 0 0 0-1.794 1.834 5.796 5.796 0 0 0-.642 2.8 6.047 6.047 0 0 0 .602 2.79c.377.758.98 1.381 1.725 1.784.802.42 1.697.63 2.603.612a5.56 5.56 0 0 0 2.721-.65 4.597 4.597 0 0 0 1.844-1.854 5.807 5.807 0 0 0 .66-2.84 5.71 5.71 0 0 0-.612-2.711 4.31 4.31 0 0 0-1.744-1.784Zm-.119 6.606a2.681 2.681 0 0 1-1.074 1.232 3.058 3.058 0 0 1-1.577.405 2.804 2.804 0 0 1-1.539-.414 2.78 2.78 0 0 1-1.025-1.242 4.978 4.978 0 0 1-.374-2.05 4.651 4.651 0 0 1 .374-1.992c.221-.494.59-.907 1.055-1.183a3.192 3.192 0 0 1 1.627-.395c.443-.01.883.073 1.291.247.358.161.67.408.907.72.255.338.439.723.542 1.133.124.48.183.974.178 1.47a4.904 4.904 0 0 1-.385 2.069ZM70.679 13.552a1.745 1.745 0 0 1-.207.01 1.06 1.06 0 0 1-.434-.078.713.713 0 0 1-.295-.247 1.073 1.073 0 0 1-.168-.424 3.24 3.24 0 0 1-.05-.611V.116l-2.01.296v12.677c-.009.333.045.664.157.977.095.254.25.48.454.66.202.174.442.298.7.365.286.074.581.11.877.108.158 0 .309-.006.454-.02a4.333 4.333 0 0 0 .769-.138l.197-1.557-.237.04a3.426 3.426 0 0 1-.207.028ZM81.71 4.946h-2.464l-3.374 3.707h-.727V.116l-2.01.296v14.59h2.01v-4.83h.033l4.029 4.83h2.602l-4.782-5.39 4.684-4.666ZM90.524 6.218a3.578 3.578 0 0 0-1.45-1.114 5.06 5.06 0 0 0-2-.375 4.903 4.903 0 0 0-2.012.395 4.298 4.298 0 0 0-1.508 1.104 4.828 4.828 0 0 0-.947 1.705 7.128 7.128 0 0 0-.325 2.218c-.028.95.172 1.893.582 2.75.374.744.98 1.346 1.725 1.716a6.133 6.133 0 0 0 2.8.582c.465.004.93-.026 1.39-.089a6.653 6.653 0 0 0 1.134-.266 7.366 7.366 0 0 0 1.064-.454l.138-1.518c-.25.092-.503.184-.759.276a9.482 9.482 0 0 1-.798.247 5.949 5.949 0 0 1-.848.157 7.53 7.53 0 0 1-.868.05 6.218 6.218 0 0 1-1.538-.168 2.53 2.53 0 0 1-1.094-.572 2.498 2.498 0 0 1-.67-1.094 4.994 4.994 0 0 1-.215-1.3h7.125a7.55 7.55 0 0 0-.108-2.446 4.61 4.61 0 0 0-.818-1.804Zm-4.969.473a2.79 2.79 0 0 1 1.538-.404 2.41 2.41 0 0 1 1.518.444c.393.313.673.745.799 1.232.098.36.147.731.144 1.104h-5.186c.037-.393.12-.78.25-1.154.169-.5.498-.93.937-1.222ZM107.539 5.143a3.429 3.429 0 0 0-1.755-.414 4.61 4.61 0 0 0-1.557.266 5.48 5.48 0 0 0-1.419.76c-.246.182-.48.38-.7.591a2.473 2.473 0 0 0-1.016-1.183 3.474 3.474 0 0 0-1.775-.414c-.527 0-1.05.09-1.547.266a5.611 5.611 0 0 0-1.844 1.078V4.75l-2.011.296v9.957h2.01v-7.5c.238-.155.485-.294.74-.417a5.11 5.11 0 0 1 .976-.345 4.07 4.07 0 0 1 .947-.118c.293-.009.584.042.857.148.226.096.426.245.582.434.171.22.289.476.345.749.077.353.113.713.109 1.075v5.974h2.011V8.614a8.022 8.022 0 0 0-.076-1.127c.227-.15.464-.287.707-.41.307-.155.631-.275.965-.356.317-.077.641-.117.967-.118.29-.007.578.043.848.148a1.5 1.5 0 0 1 .591.434c.172.22.29.476.345.749.077.353.113.713.109 1.074v5.994h2.011V8.594a5.75 5.75 0 0 0-.355-2.188 2.542 2.542 0 0 0-1.065-1.263ZM118.581 12.548c-.149.09-.296.174-.444.245a7.48 7.48 0 0 1-.72.306c-.234.085-.475.151-.72.198-.25.046-.504.07-.758.069a2.435 2.435 0 0 1-1.203-.266 1.603 1.603 0 0 1-.7-.809 3.435 3.435 0 0 1-.227-1.33V4.75l-2.011.295v6.27a5.408 5.408 0 0 0 .384 2.189c.229.548.64 1 1.164 1.281.584.291 1.23.434 1.883.415.412.002.822-.047 1.222-.148a4.766 4.766 0 0 0 1.095-.434 6.613 6.613 0 0 0 1.005-.68c.058-.048.115-.103.172-.152l.291 1.215h1.558l.019-10.252-2.01.295v7.504ZM129.897 10.467a2.93 2.93 0 0 0-.69-.542 5.296 5.296 0 0 0-.828-.385c-.21-.065-.417-.135-.621-.207a10.99 10.99 0 0 0-.611-.197c-.204-.06-.401-.122-.592-.187a4.334 4.334 0 0 1-.522-.217 3.501 3.501 0 0 1-.464-.296 1.309 1.309 0 0 1-.335-.375.947.947 0 0 1-.128-.492 1.03 1.03 0 0 1 .138-.543c.103-.161.246-.293.414-.384.207-.113.43-.193.661-.237.289-.055.583-.082.877-.079a6.338 6.338 0 0 1 1.035.09c.204.032.408.075.611.127.204.052.411.112.622.178.195.06.386.132.571.217l.139-1.597a9.649 9.649 0 0 0-.74-.277 7.403 7.403 0 0 0-.739-.197 5.97 5.97 0 0 0-.74-.108 8.894 8.894 0 0 0-.719-.03 6.496 6.496 0 0 0-1.617.187c-.452.11-.882.297-1.272.552a2.514 2.514 0 0 0-.838.927c-.206.413-.307.87-.296 1.331-.006.332.048.663.158.976.094.263.234.507.414.72.176.2.378.377.602.522.232.153.48.282.739.385.144.052.295.105.454.157.158.052.312.102.463.148a45.115 45.115 0 0 1 .867.276c.138.046.273.089.405.128.176.063.347.139.512.227.145.077.28.17.404.276a1.004 1.004 0 0 1 .345.779.988.988 0 0 1-.325.78 1.892 1.892 0 0 1-.848.403c-.366.08-.739.12-1.114.118a5.483 5.483 0 0 1-.7-.05 10.47 10.47 0 0 1-.808-.137c-.283-.06-.572-.131-.868-.217-.295-.085-.594-.18-.897-.286l.079 1.676c.342.119.654.214.937.286.283.073.552.135.808.188.247.05.498.084.749.098.243.013.49.02.74.02a7.668 7.668 0 0 0 1.636-.168 4.22 4.22 0 0 0 1.341-.523c.373-.227.682-.546.897-.926.226-.417.338-.886.325-1.36a2.767 2.767 0 0 0-.167-1.016 2.289 2.289 0 0 0-.464-.739ZM134.638.618a1.274 1.274 0 0 0-.68-.187 1.328 1.328 0 0 0-.69.187c-.205.12-.378.29-.502.493-.126.205-.19.44-.188.68a1.32 1.32 0 0 0 .188.69c.12.207.294.377.502.493.211.119.449.18.69.178.239.003.473-.059.68-.178.203-.117.37-.287.483-.492.119-.211.18-.449.178-.69a1.331 1.331 0 0 0-.178-.68 1.392 1.392 0 0 0-.483-.494ZM132.914 15.002h2.011V4.749l-2.011.296v9.957ZM146.578 4.946h-2.465l-3.374 3.707h-.727V.116l-2.011.296v14.59h2.011v-4.83h.033l4.029 4.83h2.602l-4.782-5.39 4.684-4.666ZM154.425 15.002h2.603l-4.783-5.39 4.684-4.666h-2.464l-3.374 3.707h-.727V.116l-2.012.296v14.59h2.012v-4.83h.032l4.029 4.83Z"/></svg>