<svg xmlns="http://www.w3.org/2000/svg" viewBox="0 0 40 36"><path fill="#fff" d="M0 15.003V1.005h4.593v13.998H0Zm10.843-11.77 2.641 11.77H8.457L5.303 1.005h2.82a2.655 2.655 0 0 1 1.764.64c.491.404.829.964.956 1.588Zm3.331 11.77V1.005h4.594v13.998h-4.594Zm8.063-8.675a2.737 2.737 0 0 1-1.409-.375 2.778 2.778 0 0 1-1.015-1.015 2.735 2.735 0 0 1-.375-1.41 2.685 2.685 0 0 1 .375-1.4 2.812 2.812 0 0 1 3.824-1.005c.415.244.761.59 1.005 1.005.251.424.38.908.375 1.4.005.496-.125.983-.375 1.41a2.8 2.8 0 0 1-1.005 1.015c-.424.251-.908.38-1.4.375Zm3.49 8.675V1.005h4.594v13.998h-4.594Zm10.409-6.348c.013.013.111.174.296.483.184.308.424.702.72 1.183a377.185 377.185 0 0 1 1.862 3.056c.289.48.617 1.022.986 1.626h-5.047l-.858-1.39c-.256-.414-.529-.86-.817-1.34-.29-.48-.576-.946-.858-1.4a71.06 71.06 0 0 1-.73-1.193 21.112 21.112 0 0 0-.424-.69 2.04 2.04 0 0 1-.334-.986c.019-.338.128-.665.315-.947.078-.131.223-.365.433-.7a216.7 216.7 0 0 0 1.598-2.603l.817-1.35.858-1.4H40l-3.904 6.369c-.12.189-.189.407-.197.63.013.236.095.463.236.652h.001Z"/><path fill="#FB84C1" d="M9.52 22.817a3.515 3.515 0 0 0-.918-.957 4.414 4.414 0 0 0-1.333-.63 6.323 6.323 0 0 0-1.778-.227H0v14h2.074v-5.028h3.575a4.669 4.669 0 0 0 2.311-.572 4.271 4.271 0 0 0 1.63-1.598c.416-.739.624-1.577.602-2.425a5.767 5.767 0 0 0-.158-1.36 3.92 3.92 0 0 0-.514-1.203Zm-1.837 4.25a2.33 2.33 0 0 1-1.115.916 4.61 4.61 0 0 1-1.749.296H2.074v-5.56h3.022a3.768 3.768 0 0 1 1.679.325c.42.202.762.534.977.946.229.462.34.973.327 1.489a2.91 2.91 0 0 1-.396 1.587ZM14.215 33.307c.313-.268.634-.546.974-.848.474-.42.951-.877 1.432-1.37.48-.494.938-1.006 1.373-1.538.422-.515.808-1.058 1.155-1.627.325-.527.59-1.09.79-1.676.187-.539.284-1.105.287-1.676a3.635 3.635 0 0 0-.316-1.547 3.345 3.345 0 0 0-.929-1.183 4.237 4.237 0 0 0-1.53-.77 7.57 7.57 0 0 0-2.104-.266 7.79 7.79 0 0 0-1.373.118 7.165 7.165 0 0 0-1.264.346c-.39.146-.77.32-1.136.522l.257 1.716c.313-.21.647-.385.998-.523.38-.153.773-.271 1.175-.355.41-.085.826-.128 1.244-.128a4.19 4.19 0 0 1 1.294.177c.334.103.641.278.899.513.232.216.41.483.523.779.115.313.172.643.168.976a4.358 4.358 0 0 1-.336 1.627 8.657 8.657 0 0 1-.948 1.715 18.315 18.315 0 0 1-1.442 1.795 31.403 31.403 0 0 1-1.807 1.833c-.652.612-1.327 1.233-2.025 1.864l.257 1.222h8.553l.237-1.696h-6.406Z"/></svg>