<svg width="268" height="28" viewBox="0 0 268 28" fill="none" xmlns="http://www.w3.org/2000/svg">
<rect width="267.667" height="28" fill="#01405C"/>
<path d="M6.66663 20.9998V7.00111H11.26V20.9998H6.66663ZM17.5094 9.22908L20.151 20.9998H15.124L11.9697 7.00111H14.7892C15.4357 6.99272 16.063 7.22063 16.5535 7.64196C17.0449 8.04562 17.3824 8.60598 17.5094 9.22908ZM20.8411 20.9998V7.00111H25.4345V20.9998H20.8411ZM28.9038 12.3246C28.4089 12.3294 27.9218 12.1999 27.4946 11.95C27.073 11.7063 26.7229 11.3561 26.4793 10.9345C26.229 10.5072 26.0995 10.0201 26.1044 9.52487C26.0988 9.03271 26.2284 8.54845 26.4793 8.125C26.7255 7.70799 27.0752 7.36161 27.4946 7.11944C27.922 6.86976 28.4089 6.74027 28.9038 6.74479C29.3959 6.73949 29.8799 6.86909 30.3035 7.11944C30.7187 7.36374 31.0647 7.70982 31.309 8.125C31.5596 8.54857 31.6892 9.03275 31.6838 9.52487C31.6884 10.02 31.5589 10.5071 31.309 10.9345C31.0673 11.3543 30.7209 11.7042 30.3035 11.95C29.8799 12.2008 29.3955 12.3304 28.9032 12.3246H28.9038ZM32.3935 20.9998V7.00111H36.9873V20.9998H32.3935ZM42.8027 14.6511C42.8156 14.6647 42.9141 14.8257 43.0983 15.1342C43.2826 15.4426 43.5224 15.837 43.8179 16.3172C44.1136 16.7972 44.4257 17.3065 44.754 17.8452C45.0824 18.3839 45.3913 18.8933 45.6809 19.3732C45.9694 19.8532 46.298 20.3954 46.6666 20.9998H41.6198C41.3041 20.4872 41.0181 20.0239 40.7618 19.6098C40.5056 19.1958 40.2331 18.7489 39.9444 18.2691C39.6551 17.7898 39.369 17.3231 39.0862 16.8692C38.8034 16.4153 38.5604 16.0177 38.3571 15.6764C38.153 15.3349 38.0116 15.1048 37.9329 14.9863C37.7379 14.6922 37.6225 14.3525 37.5981 14.0005C37.6176 13.6626 37.7263 13.336 37.9132 13.0538C37.992 12.9224 38.1366 12.689 38.3469 12.3538C38.5572 12.0186 38.8036 11.6211 39.0862 11.161C39.3688 10.701 39.6549 10.231 39.9444 9.75127C40.234 9.27151 40.5064 8.82128 40.7618 8.40066C41.0186 7.98048 41.3046 7.51385 41.6198 7.00079H46.6666L42.7629 13.3692C42.6421 13.5583 42.574 13.7762 42.5657 14.0005C42.5787 14.2359 42.6609 14.4622 42.8019 14.6511H42.8027Z" fill="white"/>
<path d="M62.704 6.91443H60.2216L54.8266 13.1302H54.0852V6.91443H52V21.0142H54.0852V14.6395H54.155L60.023 21.0341L62.8628 21.0142L56.1303 14.0239L62.704 6.91443Z" fill="#85E6D6"/>
<path d="M68.601 10.8167C68.2297 10.9162 67.8752 11.0701 67.5489 11.2734C67.2101 11.4851 66.8968 11.735 66.6151 12.0181C66.5685 12.0651 66.5228 12.1175 66.4762 12.1668V10.6876L64.4506 10.9855V21.0142H66.4762V13.5119C66.6268 13.4066 66.7827 13.3091 66.9432 13.2196C67.1419 13.1102 67.3475 13.014 67.5588 12.9316C67.7638 12.8522 67.9723 12.7827 68.1844 12.7231C68.4023 12.6625 68.6245 12.6193 68.8493 12.594C69.09 12.5676 69.3326 12.561 69.5745 12.5742L69.8128 10.7075C69.4056 10.6784 68.9964 10.7153 68.601 10.8167Z" fill="#85E6D6"/>
<path d="M71.6597 21.0142H73.6853V10.6876L71.6597 10.9855V21.0142Z" fill="#85E6D6"/>
<path d="M73.3973 6.52716C73.1912 6.40118 72.9538 6.33582 72.7122 6.33852C72.4676 6.3366 72.2271 6.40184 72.0171 6.52716C71.81 6.64847 71.6361 6.819 71.5107 7.02364C71.3848 7.22978 71.3194 7.46723 71.3221 7.70879C71.3201 7.95338 71.3853 8.19381 71.5107 8.40384C71.632 8.61164 71.8069 8.78309 72.0171 8.90031C72.2292 9.01957 72.4689 9.08116 72.7122 9.07902C72.9525 9.08192 73.1891 9.02022 73.3973 8.90031C73.6017 8.78219 73.7699 8.61053 73.8839 8.40384C74.0032 8.19175 74.0648 7.95211 74.0626 7.70879C74.0655 7.46853 74.0037 7.23189 73.8839 7.02364C73.7659 6.81997 73.5986 6.64924 73.3973 6.52716Z" fill="#85E6D6"/>
<path d="M84.568 11.0848C83.978 10.7869 83.322 10.6434 82.6615 10.6677C82.085 10.6688 81.5121 10.7593 80.9632 10.9358C80.3978 11.116 79.86 11.3733 79.3649 11.7004C79.1729 11.8265 78.9889 11.9652 78.8085 12.1078V10.6876L76.783 10.9855V21.0142H78.8085V13.4721C79.0046 13.3572 79.2068 13.253 79.4142 13.16C79.6932 13.0366 79.9782 12.9272 80.2681 12.8324C80.5471 12.7414 80.8326 12.6717 81.1221 12.6238C81.3946 12.5787 81.6703 12.5554 81.9465 12.5543C82.2706 12.5468 82.5935 12.5973 82.8998 12.7033C83.1525 12.7943 83.3778 12.9481 83.5548 13.1501C83.7373 13.3691 83.8665 13.6274 83.9324 13.9047C84.0169 14.2558 84.0569 14.6161 84.0513 14.9771V21.0142H86.0769V14.5601C86.1032 13.8073 85.9749 13.057 85.6999 12.3557C85.4755 11.8173 85.0769 11.3698 84.568 11.0848Z" fill="#85E6D6"/>
<path d="M95.44 10.9259C95.1367 10.8428 94.8282 10.7798 94.5165 10.7372C94.1611 10.6895 93.8028 10.6662 93.4442 10.6677C92.7963 10.6651 92.1546 10.7934 91.5576 11.0451C90.9594 11.2984 90.4163 11.6661 89.9589 12.1274C89.4714 12.6248 89.0957 13.2206 88.8568 13.8749C88.5798 14.6417 88.4451 15.4528 88.4596 16.2679C88.4377 17.1648 88.6105 18.0557 88.966 18.8794C89.2771 19.5839 89.7925 20.1788 90.4455 20.5872C91.16 21.0087 91.9795 21.2188 92.8087 21.193C93.5371 21.1904 94.2583 21.0488 94.9336 20.7759C95.3372 20.6116 95.7176 20.3956 96.0655 20.1331V20.6766C96.0735 21.124 96.0099 21.5699 95.8772 21.9972C95.7626 22.3558 95.5652 22.6823 95.301 22.9504C95.0167 23.2238 94.6685 23.4218 94.2882 23.5263C93.7935 23.6622 93.2818 23.7258 92.769 23.715C92.3609 23.7144 91.9532 23.6912 91.5476 23.6455C91.122 23.5975 90.7004 23.5179 90.2866 23.4072C89.8602 23.2938 89.4422 23.1511 89.0355 22.9802L89.254 24.7278C89.6191 24.876 89.9939 24.9987 90.376 25.0952C90.7779 25.1967 91.1858 25.273 91.5973 25.3236C92.0321 25.3771 92.4699 25.4036 92.908 25.403C93.8854 25.4336 94.8568 25.24 95.7478 24.8371C96.4711 24.5001 97.0765 23.9534 97.4854 23.2682C97.8853 22.5637 98.0877 21.7645 98.0713 20.9546V10.6677L96.1291 11.1678C95.9047 11.0729 95.6745 10.9921 95.44 10.9259ZM95.8074 18.8794C95.5615 19.0225 95.306 19.1485 95.0428 19.2567C94.8111 19.3519 94.5719 19.4283 94.3279 19.4851C94.09 19.5389 93.8469 19.5655 93.603 19.5645C93.0066 19.5861 92.4147 19.4527 91.8853 19.1772C91.4237 18.9138 91.0663 18.5004 90.8724 18.0056C90.6331 17.3614 90.5218 16.6767 90.5448 15.9899C90.536 15.4418 90.613 14.8957 90.7731 14.3714C90.9033 13.9406 91.1271 13.5439 91.4285 13.2097C91.7224 12.8992 92.0821 12.6584 92.481 12.5047C92.9344 12.3329 93.4162 12.2486 93.901 12.2565C94.2138 12.2562 94.526 12.2828 94.8343 12.3359C95.15 12.3917 95.4618 12.468 95.7677 12.5642C95.865 12.5947 95.9662 12.6351 96.0655 12.6722V18.7274C95.9785 18.7787 95.8892 18.8324 95.8074 18.8794Z" fill="#85E6D6"/>
<path d="M109.788 10.8862H107.306L103.908 14.6196H103.175V6.02075L101.149 6.31864V21.0142H103.175V16.1488H103.208L107.266 21.0142H109.887L105.07 15.5861L109.788 10.8862Z" fill="#85E6D6"/>
<path d="M120.174 19.7631C120.029 19.7765 119.883 19.7546 119.748 19.6993C119.613 19.644 119.494 19.5568 119.4 19.4454C119.215 19.1272 119.139 18.758 119.181 18.3928L119.221 14.3019C119.225 13.873 119.172 13.4455 119.062 13.0309C118.965 12.6674 118.804 12.3242 118.586 12.0181C118.364 11.719 118.084 11.4688 117.761 11.2834C117.387 11.0707 116.981 10.9167 116.56 10.8266C116.045 10.7155 115.518 10.6622 114.991 10.6677C114.573 10.6676 114.155 10.6941 113.74 10.7472C113.348 10.7965 112.96 10.8728 112.578 10.9756C112.224 11.0715 111.876 11.1876 111.535 11.3231L111.297 13.0111C111.628 12.8919 111.943 12.7926 112.241 12.7132C112.539 12.6338 112.827 12.5675 113.104 12.5146C113.377 12.4625 113.652 12.4261 113.929 12.4054C114.2 12.3855 114.468 12.3756 114.733 12.3756C115.138 12.3671 115.542 12.4138 115.934 12.5146C116.22 12.5863 116.484 12.7298 116.699 12.9316C116.89 13.1281 117.027 13.3711 117.096 13.6366C117.181 13.9641 117.221 14.3014 117.215 14.6395L117.213 15.138L114.892 15.2948C114.098 15.3172 113.316 15.4926 112.588 15.8112C112.044 16.0495 111.574 16.4302 111.227 16.9133C110.934 17.3434 110.778 17.8524 110.781 18.373C110.777 18.8615 110.897 19.343 111.129 19.773C111.371 20.2148 111.737 20.577 112.181 20.8156C112.723 21.0974 113.328 21.2342 113.939 21.2128C114.51 21.226 115.079 21.1317 115.616 20.9348C116.081 20.753 116.506 20.4833 116.868 20.1404C117.005 20.0087 117.135 19.8698 117.258 19.7244C117.297 19.93 117.37 20.1277 117.473 20.3092C117.65 20.6133 117.922 20.8506 118.248 20.9844C118.607 21.1288 118.992 21.1997 119.38 21.193C119.499 21.193 119.615 21.1896 119.727 21.183C119.838 21.1767 119.947 21.1601 120.055 21.1334C120.161 21.1069 120.257 21.0837 120.343 21.0639C120.421 21.0465 120.497 21.0232 120.571 20.9943L120.79 19.6638C120.68 19.7015 120.567 19.7281 120.452 19.7433C120.36 19.7555 120.267 19.7621 120.174 19.7631ZM116.868 18.8695C116.652 19.0396 116.419 19.186 116.173 19.3063C115.927 19.4258 115.667 19.5126 115.398 19.5645C115.12 19.6183 114.837 19.6449 114.554 19.6439C114.23 19.6532 113.909 19.5922 113.611 19.4652C113.368 19.36 113.164 19.1834 113.025 18.9588C112.887 18.7207 112.819 18.4492 112.826 18.1744C112.807 17.8433 112.898 17.5151 113.084 17.241C113.301 16.9888 113.593 16.8144 113.918 16.7445C114.425 16.6251 114.946 16.5717 115.467 16.5857H117.206L117.197 18.557C117.096 18.6702 116.986 18.7747 116.868 18.8695Z" fill="#85E6D6"/>
<path d="M128.951 16.4467C128.748 16.2313 128.514 16.0473 128.256 15.9006C127.99 15.748 127.71 15.6184 127.422 15.5133C127.21 15.4471 127.002 15.3776 126.797 15.3048C126.591 15.232 126.386 15.1658 126.181 15.1062C125.975 15.0467 125.777 14.9837 125.585 14.9176C125.405 14.8565 125.229 14.7835 125.059 14.6991C124.895 14.6125 124.739 14.5129 124.592 14.4012C124.456 14.2987 124.341 14.1705 124.255 14.0239C124.167 13.8734 124.122 13.7017 124.125 13.5274C124.12 13.336 124.168 13.1468 124.264 12.9813C124.368 12.8187 124.512 12.6854 124.682 12.5941C124.889 12.48 125.114 12.3996 125.347 12.3558C125.638 12.2999 125.934 12.2733 126.231 12.2763C126.376 12.2763 126.535 12.2833 126.707 12.2962C126.88 12.3091 127.068 12.3329 127.273 12.3657C127.479 12.3985 127.683 12.4422 127.888 12.4948C128.094 12.5474 128.302 12.6073 128.514 12.6735C128.711 12.734 128.903 12.8069 129.09 12.8919L129.229 11.2834C128.977 11.1779 128.729 11.0852 128.484 11.0054C128.24 10.9263 127.991 10.86 127.74 10.8068C127.494 10.7549 127.245 10.7184 126.995 10.6975C126.75 10.6777 126.508 10.6678 126.27 10.6678C125.722 10.6622 125.175 10.7255 124.642 10.8564C124.186 10.9674 123.753 11.1555 123.361 11.4125C123.006 11.6476 122.715 11.9686 122.517 12.3458C122.309 12.7615 122.207 13.2218 122.219 13.6863C122.213 14.0209 122.267 14.3538 122.378 14.6693C122.472 14.9342 122.614 15.1798 122.795 15.3942C122.972 15.5969 123.176 15.774 123.401 15.9204C123.635 16.0746 123.885 16.2044 124.146 16.3077C124.291 16.3611 124.443 16.414 124.602 16.4666C124.761 16.5199 124.917 16.5695 125.069 16.6155C125.222 16.6615 125.37 16.7082 125.516 16.7545C125.661 16.8009 125.804 16.8472 125.943 16.8935C126.081 16.9399 126.218 16.9829 126.35 17.0226C126.528 17.0855 126.7 17.1619 126.866 17.251C127.012 17.3282 127.148 17.4214 127.273 17.529C127.383 17.625 127.471 17.7435 127.531 17.8765C127.592 18.0141 127.623 18.163 127.621 18.3134C127.628 18.4603 127.602 18.6069 127.546 18.7426C127.489 18.8783 127.403 18.9996 127.293 19.0978C127.047 19.3032 126.754 19.4433 126.439 19.5049C126.071 19.5863 125.695 19.6263 125.317 19.6241C125.082 19.6227 124.846 19.6061 124.612 19.5745C124.354 19.5418 124.083 19.4955 123.798 19.4355C123.514 19.3754 123.222 19.3026 122.924 19.217C122.626 19.1314 122.325 19.0354 122.021 18.929L122.1 20.6171C122.444 20.7362 122.758 20.8322 123.044 20.905C123.329 20.9778 123.6 21.0407 123.858 21.0937C124.106 21.1454 124.359 21.1786 124.612 21.193C124.857 21.2062 125.105 21.2128 125.357 21.2128C125.911 21.2156 126.463 21.159 127.005 21.044C127.482 20.9472 127.939 20.7692 128.355 20.5178C128.731 20.2885 129.042 19.9672 129.259 19.5844C129.487 19.1642 129.6 18.6917 129.587 18.2142C129.595 17.8657 129.538 17.5187 129.418 17.1914C129.311 16.9157 129.153 16.663 128.951 16.4467Z" fill="#85E6D6"/>
<path d="M137.241 19.4156L136.904 19.4752C136.795 19.4945 136.686 19.5078 136.576 19.5149C136.47 19.5218 136.37 19.5248 136.278 19.5248C135.974 19.5331 135.671 19.472 135.394 19.3461C135.156 19.2333 134.958 19.0495 134.828 18.8198C134.689 18.5608 134.62 18.2697 134.63 17.9758V12.4749H137.43L137.648 10.8862H134.63V7.74851L132.604 8.4634V10.8862H131.075L130.856 12.4749H132.604V18.3928C132.595 18.7876 132.656 19.1808 132.783 19.5546C132.885 19.8503 133.044 20.1235 133.25 20.3589C133.439 20.5687 133.668 20.7376 133.925 20.8554C134.187 20.976 134.464 21.0627 134.749 21.1135C135.03 21.1656 135.316 21.1922 135.603 21.193C135.814 21.193 136.023 21.1863 136.229 21.1731C136.434 21.1599 136.622 21.14 136.794 21.1135C136.966 21.0871 137.128 21.0573 137.281 21.0242C137.433 20.9911 137.562 20.9616 137.668 20.9348L137.787 19.2865C137.71 19.3163 137.63 19.3396 137.549 19.356C137.457 19.3759 137.354 19.3957 137.241 19.4156Z" fill="#85E6D6"/>
<path d="M139.893 21.0142H141.919V10.6876L139.893 10.9855V21.0142Z" fill="#85E6D6"/>
<path d="M141.631 6.52716C141.425 6.40122 141.188 6.33586 140.946 6.33852C140.702 6.33665 140.461 6.40189 140.251 6.52716C140.044 6.64844 139.87 6.81898 139.745 7.02363C139.619 7.22969 139.554 7.46718 139.556 7.70879C139.554 7.95343 139.62 8.19389 139.745 8.40384C139.866 8.61162 140.041 8.78306 140.251 8.90031C140.463 9.01951 140.703 9.0811 140.946 9.07901C141.186 9.08188 141.423 9.02018 141.631 8.90031C141.836 8.7821 142.004 8.61047 142.118 8.40384C142.237 8.19169 142.299 7.95209 142.297 7.70879C142.299 7.46854 142.238 7.23194 142.118 7.02363C142 6.82002 141.832 6.64932 141.631 6.52716Z" fill="#85E6D6"/>
<path d="M152.802 11.0848C152.212 10.7869 151.556 10.6434 150.895 10.6677C150.319 10.6688 149.746 10.7593 149.197 10.9358C148.632 11.1161 148.094 11.3733 147.599 11.7004C147.407 11.8265 147.223 11.9652 147.042 12.1078V10.6876L145.017 10.9855V21.0142H147.042V13.4721C147.238 13.3571 147.441 13.2529 147.648 13.16C147.927 13.0365 148.212 12.9271 148.502 12.8324C148.781 12.7413 149.067 12.6716 149.356 12.6238C149.629 12.5787 149.904 12.5554 150.18 12.5543C150.504 12.5468 150.827 12.5973 151.134 12.7033C151.386 12.7943 151.612 12.948 151.789 13.1501C151.971 13.369 152.1 13.6274 152.166 13.9047C152.251 14.2558 152.291 14.6161 152.285 14.9771V21.0142H154.311V14.5601C154.337 13.8072 154.209 13.057 153.934 12.3557C153.709 11.8173 153.311 11.3698 152.802 11.0848Z" fill="#85E6D6"/>
<path d="M163.674 10.9259C163.371 10.8428 163.062 10.7798 162.751 10.7372C162.395 10.6894 162.037 10.6662 161.678 10.6677C161.03 10.6651 160.389 10.7934 159.792 11.0451C159.194 11.2984 158.65 11.6661 158.193 12.1274C157.706 12.6249 157.33 13.2207 157.091 13.8749C156.814 14.6417 156.679 15.4528 156.694 16.2679C156.672 17.1648 156.844 18.0557 157.2 18.8794C157.511 19.5839 158.027 20.1788 158.68 20.5872C159.394 21.0088 160.213 21.2188 161.043 21.193C161.771 21.1904 162.492 21.0488 163.167 20.7759C163.571 20.6116 163.951 20.3956 164.299 20.1331V20.6766C164.307 21.124 164.244 21.5699 164.111 21.9972C163.996 22.3557 163.799 22.6822 163.535 22.9504C163.251 23.2238 162.902 23.4217 162.522 23.5263C162.027 23.6622 161.516 23.7258 161.003 23.715C160.595 23.7144 160.187 23.6912 159.782 23.6455C159.356 23.5976 158.934 23.5179 158.52 23.4072C158.094 23.2938 157.676 23.1511 157.269 22.9802L157.488 24.7278C157.853 24.876 158.228 24.9988 158.61 25.0952C159.012 25.1967 159.42 25.273 159.831 25.3236C160.266 25.3771 160.704 25.4036 161.142 25.403C162.119 25.4336 163.091 25.24 163.982 24.8371C164.705 24.5001 165.31 23.9535 165.719 23.2682C166.119 22.5638 166.322 21.7645 166.305 20.9546V10.6677L164.363 11.1678C164.139 11.0729 163.909 10.9921 163.674 10.9259ZM164.042 18.8794C163.796 19.0225 163.54 19.1486 163.277 19.2567C163.045 19.3519 162.806 19.4283 162.562 19.4851C162.324 19.5389 162.081 19.5655 161.837 19.5645C161.241 19.5861 160.649 19.4527 160.119 19.1772C159.658 18.9139 159.301 18.5004 159.107 18.0056C158.867 17.3615 158.756 16.6767 158.779 15.9899C158.77 15.4418 158.847 14.8957 159.007 14.3714C159.137 13.9406 159.361 13.5439 159.663 13.2097C159.957 12.8992 160.316 12.6583 160.715 12.5047C161.169 12.3329 161.65 12.2486 162.135 12.2565C162.448 12.2562 162.76 12.2828 163.068 12.3359C163.384 12.3918 163.696 12.468 164.002 12.5642C164.099 12.5947 164.201 12.6351 164.3 12.6722V18.7274C164.213 18.7787 164.123 18.8324 164.042 18.8794Z" fill="#85E6D6"/>
<path d="M175.659 16.4467C175.455 16.2312 175.221 16.0472 174.964 15.9006C174.697 15.748 174.418 15.6184 174.129 15.5133C173.918 15.4471 173.709 15.3776 173.504 15.3048C173.299 15.232 173.093 15.1658 172.888 15.1062C172.683 15.0467 172.484 14.9837 172.292 14.9176C172.112 14.8565 171.936 14.7836 171.766 14.6991C171.603 14.6126 171.447 14.513 171.299 14.4012C171.163 14.2987 171.049 14.1705 170.962 14.0239C170.874 13.8734 170.829 13.7017 170.832 13.5274C170.827 13.336 170.875 13.1468 170.972 12.9813C171.075 12.8189 171.219 12.6856 171.389 12.5941C171.597 12.4801 171.821 12.3997 172.054 12.3558C172.345 12.2999 172.641 12.2733 172.938 12.2763C173.083 12.2763 173.242 12.2833 173.414 12.2962C173.586 12.3091 173.775 12.3329 173.98 12.3657C174.186 12.3985 174.39 12.4422 174.596 12.4948C174.801 12.5474 175.01 12.6073 175.221 12.6735C175.418 12.734 175.61 12.8069 175.797 12.8919L175.936 11.2834C175.685 11.1779 175.437 11.0852 175.192 11.0054C174.947 10.9263 174.698 10.86 174.447 10.8068C174.201 10.7549 173.953 10.7183 173.702 10.6975C173.457 10.6777 173.215 10.6678 172.977 10.6678C172.429 10.6622 171.882 10.7255 171.349 10.8564C170.893 10.9674 170.46 11.1554 170.068 11.4125C169.713 11.6477 169.422 11.9687 169.224 12.3458C169.016 12.7615 168.914 13.2218 168.926 13.6863C168.92 14.0208 168.974 14.3538 169.085 14.6693C169.179 14.9342 169.32 15.1798 169.502 15.3942C169.678 15.5969 169.882 15.774 170.108 15.9204C170.342 16.0746 170.592 16.2044 170.852 16.3077C170.998 16.3611 171.15 16.414 171.309 16.4666C171.469 16.5191 171.624 16.5687 171.776 16.6155C171.928 16.662 172.077 16.7084 172.223 16.7545C172.368 16.8012 172.511 16.8472 172.65 16.8935C172.789 16.9399 172.924 16.9829 173.057 17.0226C173.234 17.0855 173.407 17.1619 173.573 17.251C173.719 17.3282 173.855 17.4215 173.98 17.529C174.09 17.625 174.178 17.7435 174.238 17.8765C174.299 18.014 174.33 18.163 174.328 18.3134C174.335 18.4603 174.309 18.6069 174.252 18.7426C174.196 18.8783 174.11 18.9997 174 19.0978C173.754 19.3032 173.461 19.4433 173.146 19.5049C172.778 19.5863 172.401 19.6263 172.024 19.6241C171.788 19.6227 171.553 19.6061 171.319 19.5745C171.061 19.5418 170.79 19.4955 170.505 19.4355C170.22 19.3754 169.929 19.3026 169.631 19.217C169.333 19.1314 169.032 19.0354 168.728 18.929L168.807 20.6171C169.151 20.7362 169.465 20.8322 169.75 20.905C170.035 20.9778 170.307 21.0407 170.565 21.0937C170.813 21.1454 171.065 21.1786 171.319 21.193C171.564 21.2062 171.812 21.2128 172.064 21.2128C172.618 21.2156 173.17 21.159 173.712 21.044C174.189 20.9471 174.646 20.7692 175.063 20.5178C175.438 20.2884 175.749 19.9671 175.966 19.5844C176.193 19.1642 176.306 18.6917 176.293 18.2142C176.302 17.8657 176.244 17.5188 176.125 17.1914C176.018 16.9158 175.86 16.6631 175.659 16.4467Z" fill="#85E6D6"/>
<path d="M185.916 11.3049C185.089 10.8653 184.162 10.6464 183.225 10.6694C182.28 10.6479 181.345 10.8738 180.514 11.3247C179.747 11.7542 179.12 12.3953 178.707 13.1716C178.259 14.0426 178.037 15.0123 178.062 15.9915C178.036 16.9631 178.244 17.9266 178.667 18.8016C179.048 19.5653 179.654 20.193 180.405 20.5988C181.213 21.0222 182.115 21.234 183.026 21.2144C183.981 21.2334 184.924 21.0078 185.767 20.5591C186.554 20.1299 187.199 19.4813 187.624 18.6924C188.085 17.8111 188.314 16.8269 188.289 15.8327C188.312 14.8856 188.1 13.9477 187.673 13.1021C187.278 12.3428 186.666 11.7175 185.916 11.3049ZM185.797 17.9576C185.574 18.4737 185.196 18.9075 184.715 19.1988C184.232 19.4753 183.683 19.6159 183.126 19.6059C182.58 19.6195 182.042 19.4747 181.577 19.1888C181.117 18.883 180.757 18.4476 180.544 17.9377C180.274 17.2837 180.146 16.5797 180.167 15.8724C180.144 15.1842 180.272 14.4993 180.544 13.8667C180.767 13.3694 181.138 12.9532 181.607 12.6751C182.108 12.3994 182.673 12.2623 183.245 12.2779C183.691 12.2668 184.135 12.3515 184.546 12.5262C184.906 12.6885 185.22 12.9376 185.46 13.2511C185.716 13.5917 185.901 13.9799 186.005 14.3929C186.13 14.8761 186.19 15.3735 186.184 15.8724C186.207 16.5874 186.075 17.2988 185.796 17.9576H185.797Z" fill="#85E6D6"/>
<path d="M194.902 10.8167C194.53 10.9162 194.175 11.0701 193.849 11.2734C193.51 11.4851 193.197 11.735 192.916 12.0181C192.869 12.0651 192.823 12.1175 192.777 12.1668V10.6876L190.751 10.9855V21.0142H192.777V13.5119C192.927 13.4067 193.083 13.3091 193.243 13.2196C193.442 13.1102 193.648 13.014 193.859 12.9316C194.064 12.8522 194.273 12.7827 194.484 12.7231C194.702 12.6625 194.925 12.6194 195.15 12.594C195.391 12.5676 195.633 12.561 195.875 12.5742L196.113 10.7075C195.706 10.6784 195.297 10.7153 194.902 10.8167Z" fill="#85E6D6"/>
<path d="M206.598 10.8862H204.116L200.718 14.6196H199.985V6.02075L197.96 6.31864V21.0142H199.985V16.1488H200.019L204.076 21.0142H206.697L201.88 15.5861L206.598 10.8862Z" fill="#85E6D6"/>
<path d="M216.071 12.1671C215.69 11.673 215.187 11.2864 214.612 11.0451C213.972 10.7841 213.286 10.6557 212.596 10.6678C211.9 10.656 211.21 10.7913 210.57 11.0649C209.988 11.3197 209.47 11.6994 209.051 12.1771C208.62 12.6788 208.295 13.2633 208.097 13.8948C207.871 14.6176 207.761 15.3716 207.77 16.1289C207.742 17.0859 207.943 18.0357 208.356 18.8993C208.733 19.6479 209.343 20.2541 210.094 20.627C210.974 21.042 211.941 21.2428 212.914 21.2128C213.382 21.2169 213.85 21.187 214.314 21.1234C214.701 21.0676 215.083 20.9779 215.456 20.8554C215.824 20.7315 216.183 20.5788 216.528 20.3986L216.667 18.8695C216.415 18.9626 216.16 19.0553 215.902 19.1475C215.644 19.2397 215.376 19.3225 215.098 19.3957C214.818 19.4691 214.532 19.5222 214.244 19.5546C213.954 19.5878 213.662 19.6044 213.37 19.6043C212.849 19.6128 212.328 19.5561 211.821 19.4354C211.412 19.3376 211.033 19.1397 210.719 18.8595C210.402 18.5574 210.169 18.1774 210.044 17.7574C209.914 17.332 209.841 16.8912 209.828 16.4467H217.004C217.102 15.6254 217.065 14.7936 216.895 13.9842C216.755 13.3259 216.474 12.7059 216.071 12.1671ZM211.067 12.6437C211.533 12.3608 212.071 12.2194 212.616 12.2366C213.161 12.2094 213.7 12.3668 214.145 12.6834C214.54 12.9991 214.822 13.4347 214.949 13.9246C215.048 14.2868 215.097 14.6611 215.094 15.0367H209.871C209.908 14.6407 209.993 14.2506 210.123 13.8749C210.293 13.3716 210.625 12.9386 211.067 12.6437Z" fill="#85E6D6"/>
<path d="M225.762 16.4467C225.558 16.2312 225.324 16.0472 225.067 15.9006C224.8 15.748 224.521 15.6184 224.232 15.5133C224.021 15.4471 223.812 15.3776 223.607 15.3048C223.402 15.232 223.196 15.1658 222.991 15.1062C222.786 15.0467 222.587 14.9837 222.395 14.9176C222.215 14.8565 222.04 14.7835 221.869 14.6991C221.706 14.6125 221.55 14.5129 221.402 14.4012C221.266 14.2986 221.152 14.1705 221.065 14.0239C220.977 13.8734 220.933 13.7017 220.936 13.5274C220.93 13.336 220.979 13.1468 221.075 12.9813C221.179 12.8188 221.322 12.6855 221.492 12.5941C221.7 12.4801 221.924 12.3997 222.157 12.3558C222.448 12.2999 222.744 12.2733 223.041 12.2763C223.186 12.2763 223.345 12.2833 223.518 12.2962C223.69 12.3091 223.878 12.3329 224.084 12.3657C224.289 12.3985 224.494 12.4422 224.699 12.4948C224.904 12.5474 225.113 12.6073 225.325 12.6735C225.521 12.734 225.713 12.807 225.9 12.8919L226.04 11.2834C225.788 11.1779 225.54 11.0852 225.295 11.0054C225.05 10.9263 224.802 10.86 224.55 10.8068C224.305 10.7549 224.056 10.7184 223.806 10.6975C223.56 10.6777 223.319 10.6678 223.081 10.6678C222.532 10.6622 221.985 10.7255 221.452 10.8564C220.997 10.9674 220.563 11.1554 220.171 11.4125C219.816 11.6477 219.526 11.9687 219.327 12.3458C219.12 12.7615 219.018 13.2218 219.029 13.6863C219.023 14.0208 219.077 14.3538 219.188 14.6693C219.282 14.9342 219.424 15.1798 219.605 15.3942C219.782 15.5969 219.986 15.774 220.211 15.9204C220.445 16.0746 220.695 16.2043 220.956 16.3077C221.101 16.3611 221.253 16.414 221.413 16.4666C221.572 16.5191 221.727 16.5687 221.879 16.6155C222.031 16.662 222.18 16.7084 222.326 16.7545C222.471 16.8012 222.614 16.8472 222.753 16.8935C222.892 16.9399 223.028 16.9829 223.16 17.0226C223.338 17.0855 223.51 17.1619 223.676 17.251C223.822 17.3282 223.959 17.4215 224.084 17.529C224.193 17.625 224.281 17.7436 224.341 17.8765C224.402 18.014 224.433 18.163 224.431 18.3134C224.438 18.4603 224.412 18.6069 224.356 18.7426C224.299 18.8783 224.213 18.9997 224.103 19.0978C223.857 19.3032 223.564 19.4432 223.249 19.5049C222.881 19.5863 222.505 19.6263 222.127 19.6241C221.892 19.6227 221.656 19.6061 221.422 19.5745C221.164 19.5418 220.893 19.4955 220.608 19.4355C220.324 19.3754 220.032 19.3026 219.734 19.217C219.437 19.1314 219.136 19.0354 218.831 18.929L218.91 20.6171C219.254 20.7362 219.569 20.8322 219.854 20.905C220.138 20.9778 220.41 21.0407 220.668 21.0937C220.917 21.1454 221.169 21.1786 221.422 21.193C221.667 21.2062 221.915 21.2128 222.167 21.2128C222.721 21.2156 223.274 21.159 223.815 21.044C224.292 20.9471 224.749 20.7691 225.166 20.5178C225.541 20.2883 225.852 19.9671 226.069 19.5844C226.297 19.1642 226.41 18.6917 226.397 18.2142C226.405 17.8657 226.348 17.5188 226.228 17.1914C226.121 16.9158 225.963 16.6631 225.762 16.4467Z" fill="#85E6D6"/>
<path d="M234.053 19.4156L233.716 19.4752C233.607 19.4945 233.498 19.5078 233.388 19.5149C233.282 19.5218 233.182 19.5248 233.09 19.5248C232.786 19.5331 232.483 19.472 232.206 19.3461C231.968 19.2332 231.77 19.0494 231.64 18.8198C231.501 18.5608 231.433 18.2697 231.442 17.9758V12.4749H234.242L234.46 10.8862H231.442V7.74851L229.416 8.4634V10.8862H227.887L227.668 12.4749H229.416V18.3928C229.407 18.7876 229.467 19.1808 229.594 19.5546C229.697 19.8503 229.855 20.1234 230.061 20.3589C230.25 20.5687 230.48 20.7377 230.737 20.8554C230.999 20.976 231.276 21.0627 231.56 21.1135C231.842 21.1656 232.128 21.1922 232.414 21.193C232.626 21.193 232.835 21.1863 233.04 21.1731C233.246 21.1599 233.434 21.14 233.606 21.1135C233.778 21.0867 233.94 21.0573 234.092 21.0242C234.245 20.9911 234.374 20.9616 234.48 20.9348L234.599 19.2865C234.522 19.3163 234.442 19.3395 234.361 19.356C234.268 19.3759 234.166 19.3957 234.053 19.4156Z" fill="#85E6D6"/>
<path d="M240.854 10.8167C240.483 10.9162 240.128 11.0701 239.802 11.2734C239.463 11.4851 239.15 11.735 238.868 12.0181C238.821 12.0651 238.776 12.1175 238.729 12.1668V10.6876L236.704 10.9855V21.0142H238.729V13.5119C238.88 13.4067 239.036 13.3091 239.196 13.2196C239.395 13.1102 239.601 13.014 239.812 12.9316C240.017 12.8522 240.225 12.7827 240.437 12.7231C240.655 12.6625 240.878 12.6194 241.103 12.594C241.343 12.5676 241.586 12.561 241.827 12.5742L242.066 10.7075C241.659 10.6784 241.25 10.7153 240.854 10.8167Z" fill="#85E6D6"/>
<path d="M251.598 12.1671C251.217 11.673 250.714 11.2864 250.138 11.0451C249.499 10.7841 248.813 10.6557 248.123 10.6678C247.427 10.656 246.737 10.7913 246.097 11.0649C245.515 11.3197 244.997 11.6994 244.578 12.1771C244.147 12.6789 243.822 13.2634 243.624 13.8948C243.398 14.6176 243.288 15.3716 243.297 16.1289C243.269 17.0858 243.47 18.0356 243.882 18.8993C244.26 19.6478 244.869 20.2539 245.62 20.627C246.501 21.042 247.467 21.2427 248.44 21.2128C248.909 21.2169 249.376 21.187 249.84 21.1234C250.228 21.0677 250.61 20.978 250.982 20.8554C251.351 20.7315 251.71 20.5788 252.055 20.3986L252.194 18.8695C251.942 18.9626 251.687 19.0553 251.429 19.1475C251.171 19.2397 250.903 19.3225 250.625 19.3957C250.344 19.4692 250.059 19.5223 249.771 19.5546C249.481 19.5878 249.189 19.6044 248.897 19.6043C248.376 19.6129 247.855 19.5561 247.348 19.4354C246.939 19.3377 246.56 19.1398 246.246 18.8595C245.929 18.5574 245.696 18.1774 245.571 17.7574C245.441 17.332 245.368 16.8912 245.354 16.4467H252.531C252.629 15.6254 252.592 14.7936 252.422 13.9842C252.282 13.3259 252.001 12.7059 251.598 12.1671ZM246.594 12.6437C247.06 12.3608 247.598 12.2194 248.143 12.2366C248.688 12.2094 249.227 12.3668 249.672 12.6834C250.067 12.9992 250.349 13.4347 250.476 13.9246C250.575 14.2869 250.624 14.6611 250.621 15.0367H245.398C245.435 14.6407 245.519 14.2506 245.65 13.8749C245.82 13.3715 246.152 12.9385 246.594 12.6437Z" fill="#85E6D6"/>
<path d="M260.574 19.356C260.481 19.3759 260.378 19.3957 260.266 19.4156L259.929 19.4752C259.82 19.4945 259.711 19.5077 259.601 19.5149C259.495 19.5218 259.396 19.5248 259.303 19.5248C258.999 19.5331 258.697 19.472 258.42 19.3461C258.181 19.2332 257.983 19.0494 257.854 18.8198C257.714 18.5608 257.646 18.2697 257.655 17.9758V12.4749H260.455L260.673 10.8862H257.655V7.74851L255.629 8.4634V10.8862H254.1L253.881 12.4749H255.629V18.3928C255.62 18.7876 255.681 19.1808 255.808 19.5546C255.91 19.8503 256.069 20.1234 256.275 20.3589C256.464 20.5686 256.693 20.7376 256.95 20.8554C257.213 20.976 257.489 21.0627 257.774 21.1135C258.055 21.1656 258.341 21.1922 258.628 21.193C258.84 21.193 259.048 21.1863 259.254 21.1731C259.459 21.1599 259.648 21.14 259.82 21.1135C259.991 21.0867 260.154 21.0573 260.306 21.0242C260.458 20.9911 260.587 20.9616 260.693 20.9348L260.813 19.2865C260.735 19.3163 260.656 19.3395 260.574 19.356Z" fill="#85E6D6"/>
</svg>
