<svg xmlns="http://www.w3.org/2000/svg" viewBox="0 0 97 36"><path fill="#0A2343" d="M0 15.003V1.005h4.593v13.998H0Zm10.843-11.77 2.641 11.77H8.457L5.303 1.005h2.82a2.655 2.655 0 0 1 1.764.64c.491.404.829.964.956 1.587Zm3.331 11.77V1.005h4.594v13.998h-4.594Zm8.063-8.675a2.737 2.737 0 0 1-1.409-.375 2.778 2.778 0 0 1-1.015-1.015 2.735 2.735 0 0 1-.375-1.41 2.685 2.685 0 0 1 .375-1.4 2.812 2.812 0 0 1 3.824-1.005c.415.244.761.59 1.005 1.005.251.424.38.908.375 1.4.005.495-.125.983-.375 1.41a2.8 2.8 0 0 1-1.005 1.015c-.424.251-.908.38-1.4.375Zm3.49 8.675V1.005h4.594v13.998h-4.594Zm10.409-6.348c.013.013.111.174.296.483.184.308.424.702.72 1.183a384.573 384.573 0 0 1 1.862 3.056c.289.48.617 1.022.986 1.626h-5.047l-.858-1.39c-.256-.414-.529-.86-.817-1.34-.29-.48-.576-.947-.858-1.4a71.236 71.236 0 0 1-.73-1.193 21.112 21.112 0 0 0-.424-.69 2.04 2.04 0 0 1-.334-.986c.019-.338.128-.665.315-.947.078-.131.223-.365.433-.7a216.7 216.7 0 0 0 1.598-2.603l.817-1.35.858-1.4H40l-3.904 6.369c-.12.189-.189.407-.197.63.013.236.095.463.236.652h.001Z"/><path fill="#114F9D" d="M9.37 29.436c.163.49.241 1.004.23 1.52a4.428 4.428 0 0 1-.41 2.01c-.265.531-.665.983-1.16 1.31a5.09 5.09 0 0 1-1.74.72c-.7.151-1.414.225-2.13.22-.32 0-.636-.013-.95-.04a15.035 15.035 0 0 1-.94-.11 9.289 9.289 0 0 1-.97-.2c-.352-.092-.699-.202-1.04-.33L0 32.556c.32.12.657.237 1.01.35.354.114.717.21 1.09.29.373.08.746.144 1.12.19.358.046.719.07 1.08.07.372.004.743-.023 1.11-.08.3-.045.594-.133.87-.26.245-.113.463-.277.64-.48.177-.205.313-.443.4-.7.098-.296.146-.607.14-.92a2.229 2.229 0 0 0-.15-.86 1.687 1.687 0 0 0-.41-.6c-.188-.17-.4-.31-.63-.42a5.063 5.063 0 0 0-.83-.31 19.27 19.27 0 0 0-1-.25 13.2 13.2 0 0 1-1.29-.34 7.356 7.356 0 0 1-1.17-.48 3.853 3.853 0 0 1-.96-.7 2.89 2.89 0 0 1-.65-1.01 3.879 3.879 0 0 1-.23-1.41 4.069 4.069 0 0 1 .37-1.8 3.342 3.342 0 0 1 1.06-1.26 4.75 4.75 0 0 1 1.63-.74 8.497 8.497 0 0 1 2.1-.24c.347 0 .687.017 1.02.05.329.033.656.083.98.15.32.067.637.147.95.24.307.092.606.212.89.36l-.28 1.76a5.036 5.036 0 0 0-.79-.35 7.688 7.688 0 0 0-.89-.25 9.194 9.194 0 0 0-1.88-.2 7.014 7.014 0 0 0-1.03.07 2.97 2.97 0 0 0-.83.24c-.23.108-.443.25-.63.42-.18.169-.318.378-.4.61-.09.264-.135.542-.13.82-.007.27.038.538.13.79.083.216.217.408.39.56.184.16.39.295.61.4.257.122.525.22.8.29.3.08.623.16.97.24.453.094.893.207 1.32.34.416.13.82.293 1.21.49.371.187.709.434 1 .73.296.308.52.676.66 1.08m11.59 4.28a1.76 1.76 0 0 0 .34-.08l-.22 1.34c-.075.03-.152.053-.23.07-.087.02-.183.043-.29.07a1.846 1.846 0 0 1-.33.05c-.113.007-.23.01-.35.01a2.92 2.92 0 0 1-1.14-.21 1.613 1.613 0 0 1-.78-.68 1.894 1.894 0 0 1-.217-.589 5.351 5.351 0 0 1-.393.42 3.9 3.9 0 0 1-1.26.8 4.61 4.61 0 0 1-1.69.28 3.568 3.568 0 0 1-1.77-.4 2.63 2.63 0 0 1-1.06-1.05 2.927 2.927 0 0 1-.35-1.41 2.585 2.585 0 0 1 .45-1.47 3.33 3.33 0 0 1 1.37-1.11 6.211 6.211 0 0 1 2.32-.52l2.338-.159.002-.502a3.78 3.78 0 0 0-.12-1.01 1.59 1.59 0 0 0-.4-.71 1.749 1.749 0 0 0-.77-.42 4.49 4.49 0 0 0-1.21-.14c-.266 0-.536.01-.81.03-.279.021-.556.058-.83.11a11.55 11.55 0 0 0-1.82.5l.24-1.7a9.66 9.66 0 0 1 1.05-.35 8.66 8.66 0 0 1 1.17-.23c.418-.053.839-.08 1.26-.08a7.119 7.119 0 0 1 1.58.16c.425.09.833.246 1.21.46.325.187.608.439.83.74.22.308.383.654.48 1.02.11.418.165.849.16 1.28l-.04 4.12c-.043.368.035.74.22 1.06a.911.911 0 0 0 .78.32c.094 0 .187-.007.28-.02Zm-3.278-1.195.01-1.985H15.94a6.086 6.086 0 0 0-1.56.16c-.327.07-.622.246-.84.5-.188.276-.28.607-.26.94-.008.277.061.55.2.79.14.227.346.404.59.51.3.128.624.19.95.18.285.001.57-.026.85-.08.27-.052.533-.14.78-.26.248-.12.483-.268.7-.44.12-.095.231-.2.333-.315m.937-12.705h-2.16l-1.7 3.58h1.56l2.3-3.58Zm18.4 5.18a3.483 3.483 0 0 0-1.78-.42 4.682 4.682 0 0 0-1.58.27 5.57 5.57 0 0 0-1.44.77c-.249.184-.486.385-.71.6a2.507 2.507 0 0 0-1.03-1.2 3.526 3.526 0 0 0-1.8-.42 4.71 4.71 0 0 0-1.57.27 5.686 5.686 0 0 0-1.87 1.093v-1.363l-2.04.3v10.1h2.04V27.39c.24-.157.491-.299.75-.423.318-.15.65-.267.99-.35.315-.077.637-.117.96-.12.297-.008.593.043.87.15.229.097.431.248.59.44.174.223.293.484.35.76.078.358.115.724.11 1.09v6.06h2.04v-6.48a8.058 8.058 0 0 0-.077-1.143c.231-.152.47-.291.717-.417.312-.157.64-.277.98-.36.32-.078.65-.118.98-.12.294-.007.586.044.86.15.233.095.44.247.6.44.174.223.294.483.35.76.078.358.115.724.11 1.09v6.08h2.04v-6.5a5.804 5.804 0 0 0-.36-2.22 2.576 2.576 0 0 0-1.08-1.28Zm6.21-4.59a1.295 1.295 0 0 0-.69-.19 1.346 1.346 0 0 0-.7.19 1.464 1.464 0 0 0-.51.5 1.373 1.373 0 0 0 .51 1.89 1.4 1.4 0 0 0 .7.18c.242.004.48-.059.69-.18.206-.119.375-.291.49-.5a1.4 1.4 0 0 0 .18-.7 1.35 1.35 0 0 0-.18-.69 1.408 1.408 0 0 0-.49-.5Zm-1.75 14.59h2.04v-10.4l-2.04.3v10.1Zm14.06-10.27c-.374.1-.731.256-1.06.46a5.219 5.219 0 0 0-.94.75c-.047.047-.093.1-.14.15v-1.49l-2.04.3v10.1h2.04V27.44a5.147 5.147 0 0 1 1.09-.584c.206-.08.416-.15.63-.21a4.28 4.28 0 0 1 1.4-.15l.24-1.88a3.82 3.82 0 0 0-1.22.11m11.76 8.99c.116-.015.23-.042.34-.08l-.22 1.34c-.075.03-.152.053-.23.07a13 13 0 0 0-.29.07 1.852 1.852 0 0 1-.33.05c-.113.007-.23.01-.35.01a2.92 2.92 0 0 1-1.14-.21 1.612 1.612 0 0 1-.78-.68 1.885 1.885 0 0 1-.217-.589 5.502 5.502 0 0 1-.393.42 3.906 3.906 0 0 1-1.26.8 4.61 4.61 0 0 1-1.69.28 3.567 3.567 0 0 1-1.77-.4 2.63 2.63 0 0 1-1.06-1.05 2.927 2.927 0 0 1-.35-1.41 2.58 2.58 0 0 1 .45-1.47 3.32 3.32 0 0 1 1.37-1.11 6.207 6.207 0 0 1 2.32-.52l2.338-.159.002-.502a3.78 3.78 0 0 0-.12-1.01 1.583 1.583 0 0 0-.4-.71 1.752 1.752 0 0 0-.77-.42 4.48 4.48 0 0 0-1.21-.14c-.267 0-.537.01-.81.03-.279.021-.556.058-.83.11-.28.054-.57.12-.87.2-.3.08-.617.18-.95.3l.24-1.7a9.68 9.68 0 0 1 1.05-.35c.384-.103.775-.18 1.17-.23a9.83 9.83 0 0 1 1.26-.08 7.117 7.117 0 0 1 1.58.16c.424.09.832.246 1.21.46.325.187.607.439.83.74.22.308.382.654.48 1.02.11.418.164.849.16 1.28l-.04 4.12c-.043.368.034.74.22 1.06a.913.913 0 0 0 .78.32 2.3 2.3 0 0 0 .28-.02Zm-3.278-1.195.009-1.985H62.28a6.081 6.081 0 0 0-1.56.16 1.31 1.31 0 0 0-1.1 1.44c-.008.277.061.55.2.79.14.227.346.404.59.51.3.128.624.19.95.18.285.001.57-.026.85-.08.27-.052.532-.14.78-.26s.483-.268.7-.44c.12-.095.231-.2.333-.315M76.48 20.196l2.04-.28v15.08h-1.66l-.251-.924c-.15.108-.3.212-.45.304-.432.271-.9.48-1.39.62-.491.136-1 .203-1.51.2a4.43 4.43 0 0 1-2.37-.61 3.966 3.966 0 0 1-1.52-1.73 6.161 6.161 0 0 1-.53-2.66 6.156 6.156 0 0 1 .7-3.05 4.886 4.886 0 0 1 4.34-2.57c.466-.003.932.04 1.39.13.392.08.776.19 1.15.33.021.008.04.018.06.026v-4.866Zm0 12.565v-6.165c-.105-.038-.213-.08-.31-.11a6.075 6.075 0 0 0-1.89-.29 3.541 3.541 0 0 0-1.79.43 2.824 2.824 0 0 0-1.15 1.26 4.756 4.756 0 0 0-.4 2.07c-.023.694.1 1.385.36 2.03.206.502.571.923 1.039 1.2a3.244 3.244 0 0 0 1.64.39c.49-.013.974-.11 1.43-.29.372-.143.73-.319 1.07-.526m6.91-12.354a1.294 1.294 0 0 0-.69-.19 1.346 1.346 0 0 0-.7.19 1.464 1.464 0 0 0-.51.5 1.291 1.291 0 0 0-.19.69c-.002.247.064.489.19.7.123.21.3.382.511.5a1.4 1.4 0 0 0 .7.18c.242.004.48-.059.69-.18.206-.118.375-.291.49-.5.12-.213.182-.454.18-.7.003-.241-.06-.48-.18-.69a1.406 1.406 0 0 0-.49-.5m-1.75 14.59h2.04v-10.4l-2.04.3v10.1Zm14.82-5.22a5.9 5.9 0 0 1-.67 2.88 4.66 4.66 0 0 1-1.87 1.88 5.634 5.634 0 0 1-2.76.66 5.436 5.436 0 0 1-2.64-.62 4.173 4.173 0 0 1-1.75-1.81 6.126 6.126 0 0 1-.61-2.83 5.879 5.879 0 0 1 .65-2.84 4.613 4.613 0 0 1 1.82-1.86 6.017 6.017 0 0 1 5.44-.02 4.37 4.37 0 0 1 1.77 1.81c.43.852.643 1.797.62 2.75Zm-2.12.04a5.746 5.746 0 0 0-.18-1.49 3.234 3.234 0 0 0-.55-1.15 2.41 2.41 0 0 0-.92-.73 3.151 3.151 0 0 0-1.31-.25 3.236 3.236 0 0 0-1.65.4c-.472.28-.846.7-1.07 1.2a4.709 4.709 0 0 0-.38 2.02 5.04 5.04 0 0 0 .38 2.08 2.671 2.671 0 0 0 2.6 1.68c.56.01 1.113-.131 1.6-.41.484-.293.865-.73 1.09-1.25.28-.663.413-1.38.39-2.1Z"/></svg>