<svg xmlns="http://www.w3.org/2000/svg" viewBox="0 0 44 41"><path fill="#fff" d="M0 17.997v-12h3.937v12H0Zm9.294-10.09 2.264 10.09H7.25l-2.703-12h2.416a2.276 2.276 0 0 1 1.513.55c.42.346.71.827.819 1.36Zm2.856 10.09v-12h3.937v12H12.15Zm6.91-7.436a2.383 2.383 0 0 1-2.4-2.4 2.303 2.303 0 0 1 .322-1.2A2.412 2.412 0 0 1 20.26 6.1c.356.21.653.506.862.862.215.363.326.778.321 1.2a2.4 2.4 0 0 1-1.183 2.079 2.303 2.303 0 0 1-1.2.32Zm2.992 7.436v-12h3.937v12h-3.937Zm8.922-5.442c.01.012.095.15.253.414s.364.603.617 1.014a327.152 327.152 0 0 1 1.597 2.62c.247.411.529.876.845 1.394H29.96c-.27-.44-.516-.837-.736-1.192-.22-.354-.453-.738-.7-1.149-.248-.41-.493-.81-.736-1.2-.242-.389-.45-.73-.625-1.022-.175-.293-.296-.49-.363-.592a1.75 1.75 0 0 1-.287-.845c.016-.29.11-.57.27-.811.067-.113.191-.313.372-.6a182.106 182.106 0 0 0 1.37-2.23c.247-.412.48-.798.7-1.158l.735-1.2h4.326l-3.346 5.458a1.079 1.079 0 0 0-.17.541c.012.202.082.396.203.558ZM5.883 30.053c.225-.034.447-.086.664-.155.439-.136.845-.364 1.19-.667.345-.308.617-.689.795-1.115.2-.49.298-1.017.287-1.546a4.167 4.167 0 0 0-.38-1.79 2.852 2.852 0 0 0-1.25-1.293 4.844 4.844 0 0 0-2.34-.482H0V35h1.757v-4.595h2.585L7.332 35h2.061L6.59 30.845l-.706-.792Zm.03-5.35c.35.134.643.384.828.71.193.378.286.8.27 1.225.021.47-.093.936-.33 1.343a1.845 1.845 0 0 1-.945.743c-.47.162-.965.239-1.462.228H1.757v-4.477h2.72c.489-.016.976.061 1.436.228ZM18.5 33.936a.77.77 0 0 1-.66-.27 1.453 1.453 0 0 1-.186-.896l.034-3.48a4.065 4.065 0 0 0-.135-1.081 2.657 2.657 0 0 0-.405-.862 2.291 2.291 0 0 0-.701-.625 3.579 3.579 0 0 0-1.023-.388 6.006 6.006 0 0 0-1.334-.135c-.356 0-.712.022-1.065.067a7.302 7.302 0 0 0-.988.194c-.301.082-.597.18-.887.296l-.203 1.436a9.904 9.904 0 0 1 1.538-.422 6.13 6.13 0 0 1 .7-.093c.232-.017.46-.026.685-.026.345-.007.689.033 1.022.119.244.06.468.183.65.355.164.167.28.373.339.6.072.278.106.565.1.853l-.001.424-1.975.133a5.252 5.252 0 0 0-1.96.44 2.809 2.809 0 0 0-1.157.937c-.25.366-.382.799-.38 1.242-.003.415.099.825.296 1.19.206.377.517.685.895.888.461.24.976.356 1.495.338.487.01.971-.07 1.428-.237a3.288 3.288 0 0 0 1.064-.676c.117-.112.228-.23.332-.354a1.6 1.6 0 0 0 .183.498c.151.259.383.46.66.574.305.123.633.183.962.178.102 0 .2-.003.296-.009.094-.005.187-.02.279-.042l.245-.06c.066-.014.13-.034.194-.058l.186-1.132a1.48 1.48 0 0 1-.287.067c-.079.01-.158.017-.237.017Zm-2.814-.76c-.183.145-.381.27-.591.372a2.65 2.65 0 0 1-.659.22 3.715 3.715 0 0 1-.718.067 1.907 1.907 0 0 1-.802-.152c-.207-.09-.38-.24-.499-.431a1.263 1.263 0 0 1-.169-.667 1.28 1.28 0 0 1 .22-.794c.184-.215.433-.363.71-.423a5.15 5.15 0 0 1 1.317-.135h1.48l-.008 1.677c-.086.097-.18.186-.28.266ZM26.491 26.608c-.017-.006-.033-.014-.05-.021a5.827 5.827 0 0 0-2.146-.388 4.15 4.15 0 0 0-2.103.557 4.14 4.14 0 0 0-1.563 1.613 5.196 5.196 0 0 0-.591 2.577 5.21 5.21 0 0 0 .447 2.247 3.351 3.351 0 0 0 1.285 1.461c.605.356 1.299.535 2.001.515.431.003.86-.054 1.276-.169.414-.118.81-.295 1.174-.523.127-.078.253-.166.38-.258l.212.781h1.402V22.262l-1.724.236v4.11Zm-.904 6.948a3.54 3.54 0 0 1-1.208.245c-.483.014-.96-.1-1.385-.33a2.114 2.114 0 0 1-.878-1.013 4.231 4.231 0 0 1-.305-1.715c-.02-.601.096-1.199.338-1.749.207-.446.546-.818.972-1.064a2.996 2.996 0 0 1 1.512-.364 5.104 5.104 0 0 1 1.596.245c.083.027.174.062.262.094v5.207c-.287.175-.59.324-.905.444h.001ZM30.85 35h1.722v-8.785l-1.723.254V35ZM32.327 22.676a1.095 1.095 0 0 0-.582-.16 1.137 1.137 0 0 0-.592.16 1.24 1.24 0 0 0-.43.422 1.095 1.095 0 0 0-.161.583c-.002.208.054.413.16.591.104.177.252.323.431.423.18.101.385.154.591.152.205.002.406-.05.583-.152.174-.1.317-.247.414-.423.102-.18.154-.384.152-.591a1.14 1.14 0 0 0-.152-.583 1.194 1.194 0 0 0-.414-.422ZM42.844 28.268a3.693 3.693 0 0 0-1.495-1.53 4.638 4.638 0 0 0-2.29-.54 4.612 4.612 0 0 0-2.306.558 3.896 3.896 0 0 0-1.537 1.571 4.97 4.97 0 0 0-.549 2.399 5.177 5.177 0 0 0 .515 2.39c.324.65.84 1.184 1.478 1.53.688.36 1.455.54 2.23.523a4.758 4.758 0 0 0 2.332-.557 3.933 3.933 0 0 0 1.58-1.588 4.98 4.98 0 0 0 .566-2.433 4.897 4.897 0 0 0-.524-2.323Zm-1.597 4.13c-.19.44-.511.809-.92 1.056a2.625 2.625 0 0 1-1.352.347 2.403 2.403 0 0 1-1.318-.355 2.38 2.38 0 0 1-.878-1.064 4.26 4.26 0 0 1-.32-1.757c-.02-.586.089-1.169.32-1.707.19-.423.505-.777.904-1.013a2.735 2.735 0 0 1 1.394-.338c.38-.01.757.062 1.106.211.306.138.574.35.778.617.217.29.375.62.464.971.106.411.157.834.152 1.259a4.206 4.206 0 0 1-.33 1.774Z"/></svg>