<svg xmlns="http://www.w3.org/2000/svg" viewBox="0 0 35 41"><path fill="#fff" d="M0 17.997v-12h3.937v12H0Zm9.294-10.09 2.264 10.09H7.25l-2.703-12h2.416a2.276 2.276 0 0 1 1.513.55c.42.346.71.826.819 1.36Zm2.856 10.09v-12h3.937v12H12.15Zm6.91-7.436a2.383 2.383 0 0 1-2.4-2.4 2.303 2.303 0 0 1 .322-1.2A2.411 2.411 0 0 1 20.26 6.1c.356.21.653.506.862.862.215.363.326.778.321 1.2a2.4 2.4 0 0 1-1.183 2.079 2.303 2.303 0 0 1-1.2.32Zm2.992 7.436v-12h3.937v12h-3.937Zm8.922-5.442c.01.012.095.15.253.414s.364.602.617 1.014a327.152 327.152 0 0 1 1.597 2.62c.247.41.529.876.845 1.394H29.96c-.27-.44-.516-.837-.736-1.192-.22-.355-.453-.738-.7-1.149-.248-.41-.493-.81-.736-1.2-.242-.389-.45-.73-.625-1.022-.175-.293-.296-.49-.363-.592a1.75 1.75 0 0 1-.287-.845c.016-.29.11-.57.27-.811.067-.113.191-.313.372-.6a182.106 182.106 0 0 0 1.37-2.23c.247-.412.48-.798.7-1.159l.735-1.2h4.326l-3.346 5.46a1.079 1.079 0 0 0-.17.54c.012.202.082.396.203.558ZM8.135 24.555a3.015 3.015 0 0 0-.785-.82 3.764 3.764 0 0 0-1.14-.54A5.385 5.385 0 0 0 4.693 23H0v11.998h1.772V30.69h3.055c.69.01 1.37-.158 1.974-.49a3.653 3.653 0 0 0 1.393-1.369 4.041 4.041 0 0 0 .515-2.078 4.944 4.944 0 0 0-.135-1.167 3.373 3.373 0 0 0-.44-1.03Zm-1.57 3.642c-.227.356-.56.632-.953.786-.477.18-.985.267-1.494.254H1.772V24.47h2.582c.494-.019.984.077 1.435.279.358.173.651.458.835.811.195.396.29.834.279 1.276.019.476-.098.948-.338 1.36ZM12.312 23.398c-.242.13-.479.25-.71.363-.23.112-.463.225-.7.338a8.113 8.113 0 0 1-.725.304c-.248.09-.512.18-.794.27l.372 1.437c.337-.101.644-.203.92-.304a8.27 8.27 0 0 0 .793-.338c.253-.124.506-.259.76-.406l.008-.005V35h1.755V23.001h-.912c-.27.135-.526.267-.768.397ZM20.86 28.34v-3.413h-1.485v3.414h-3.427v1.335h3.427v3.397h1.485v-3.397h3.426V28.34H20.86Z"/></svg>