<svg xmlns="http://www.w3.org/2000/svg" viewBox="0 0 35 35"><path fill="#000" d="M3.333 3.333h28v28h-28z"/><path fill="#03FCA3" fill-rule="evenodd" d="M0 0h34.667v34.667H0V0Zm12.115 15.985c.31-.205.672-.316 1.043-.318h2.292V27.23h-3.177v-7.84l-2.724 2.05-2.723-2.05v4.093l-3.16 2.374v-10.19H5.94c.37.002.733.113 1.043.318.262.162 2.403 1.98 2.566 2.118.163-.14 2.304-1.957 2.566-2.119Zm3.795-.318h3.57l.214.35.001.001c1.479 2.413 1.49 2.431 1.732 2.843a.854.854 0 0 1 .01 1.035c-.236.391-1.957 3.206-1.957 3.206h-3.57l2.064-3.384a.56.56 0 0 0-.013-.68c-.023-.042-2.05-3.371-2.05-3.371Zm14.75 1.916c-.12-.205-1.183-1.916-1.183-1.916h-7.64l1.67 2.798h4.023l-1.661 2.722 1.852 3.109-1.786 2.937h3.262c.364-.596.853-1.418 1.173-1.955.14-.237.248-.418.299-.5a.857.857 0 0 0-.01-1.04c-.083-.14-.348-.567-.658-1.064-.3-.483-.643-1.032-.9-1.452l1.568-2.6a.856.856 0 0 0-.01-1.039Zm-7.35 4.024c-.503.821-1.344 2.197-1.501 2.466a.825.825 0 0 0-.01 1c.158.262 1.006 1.65 1.511 2.475.505-.826 1.353-2.214 1.51-2.475a.825.825 0 0 0-.009-1c-.157-.269-.996-1.645-1.5-2.466ZM8 7.489v6.532h2.143V7.489H8Zm6.293 6.532L13.06 8.529a1.293 1.293 0 0 0-.446-.74 1.239 1.239 0 0 0-.824-.3h-1.315l1.472 6.532h2.346Zm.322-6.532v6.532h2.143V7.489h-2.143ZM17.72 9.8c.199.116.426.176.657.174.23.003.456-.058.654-.175a1.307 1.307 0 0 0 .644-1.131 1.255 1.255 0 0 0-.175-.653 1.323 1.323 0 0 0-.47-.47 1.258 1.258 0 0 0-.653-.174 1.312 1.312 0 0 0-1.132.644 1.254 1.254 0 0 0-.174.653 1.296 1.296 0 0 0 .649 1.131Zm2.286-2.31v6.532h2.144V7.489h-2.144ZM25 11.284a5.12 5.12 0 0 0-.138-.225.56.56 0 0 1-.11-.304.588.588 0 0 1 .092-.294l1.822-2.972H24.31a313.335 313.335 0 0 0-.781 1.284 105.092 105.092 0 0 1-.948 1.54.893.893 0 0 0-.147.442.951.951 0 0 0 .156.46c.037.055.103.163.198.322.095.16.208.345.34.557.132.211.265.43.4.653.135.224.262.432.382.625l.4.649h2.356c-.172-.282-.326-.535-.46-.76a171.964 171.964 0 0 0-.87-1.425c-.138-.224-.25-.408-.336-.552Z" clip-rule="evenodd"/></svg>