<svg xmlns="http://www.w3.org/2000/svg" viewBox="0 0 103 24"><path fill="#fff" d="M71.046 13.249a5.699 5.699 0 0 1-.178 1.495c-.1.398-.287.767-.55 1.082a2.298 2.298 0 0 1-.97.65 4.216 4.216 0 0 1-1.445.22 4.326 4.326 0 0 1-1.674-.296 2.117 2.117 0 0 1-1.081-.997 4.086 4.086 0 0 1-.372-1.9V6h-1.774v7.79c-.02.702.11 1.399.38 2.046.23.533.59 1.001 1.048 1.36.46.351.986.607 1.546.752a7.13 7.13 0 0 0 1.859.236 5.56 5.56 0 0 0 2.72-.591 3.711 3.711 0 0 0 1.58-1.656c.36-.784.536-1.64.516-2.501V6h-1.606v7.248ZM78.7 9.32a3.307 3.307 0 0 0-.895.39 4.4 4.4 0 0 0-.795.633c-.04.04-.078.084-.118.126V9.21l-1.723.254v8.533h1.723v-6.383c.128-.09.26-.173.397-.25.17-.092.344-.174.524-.244.175-.068.352-.127.532-.178a3.607 3.607 0 0 1 1.183-.126l.203-1.588a3.207 3.207 0 0 0-1.03.092ZM88.552 8.99l-.947 1a3.917 3.917 0 0 0-.388-.256 4.622 4.622 0 0 0-2.298-.54 4.619 4.619 0 0 0-2.307.557 3.896 3.896 0 0 0-1.537 1.572 4.963 4.963 0 0 0-.55 2.4 5.109 5.109 0 0 0 .524 2.39c.097.184.208.36.333.526l-.941 1.004.777.71.901-.975c.13.097.266.186.408.265.69.362 1.46.542 2.24.523.809.017 1.609-.175 2.323-.557a4.007 4.007 0 0 0 1.58-1.589 4.923 4.923 0 0 0 .574-2.433 4.832 4.832 0 0 0-.532-2.324c-.1-.184-.215-.36-.343-.525l.977-1.038-.794-.71Zm-5.898 2.924c.19-.423.506-.777.904-1.014.421-.233.897-.35 1.378-.338.382-.008.762.064 1.115.212.19.085.365.2.52.34l-3.932 4.246a4.374 4.374 0 0 1-.306-1.739c-.02-.586.09-1.168.321-1.707Zm4.462 3.481a2.367 2.367 0 0 1-.921 1.056 2.58 2.58 0 0 1-1.344.347 2.444 2.444 0 0 1-1.326-.355 2.059 2.059 0 0 1-.314-.248l3.933-4.247c.058.135.108.273.149.414.111.41.165.834.16 1.259.02.61-.095 1.216-.338 1.775v-.001ZM94.939 9.32a3.31 3.31 0 0 0-.896.39c-.288.179-.554.392-.794.633-.04.04-.079.084-.118.126V9.21l-1.724.254v8.533h1.724v-6.383c.128-.09.26-.173.397-.25.17-.092.344-.174.524-.244.174-.068.352-.127.532-.178a3.634 3.634 0 0 1 1.183-.126l.203-1.588a3.207 3.207 0 0 0-1.031.092ZM102.273 16.587a7.373 7.373 0 0 1-.262.05l-.287.05a2.577 2.577 0 0 1-.279.034c-.09.006-.175.009-.254.009a1.702 1.702 0 0 1-.752-.152 1.085 1.085 0 0 1-.481-.448 1.424 1.424 0 0 1-.17-.718v-4.68h2.383l.186-1.353h-2.568V6.71l-1.724.608V9.38h-1.301l-.186 1.352h1.487v5.036c-.007.336.044.67.152.988.087.252.222.484.398.685.16.178.356.322.574.422.224.103.459.177.701.22.24.044.483.066.727.067.18 0 .357-.005.532-.016a5.33 5.33 0 0 0 .482-.051 7.679 7.679 0 0 0 .743-.152l.102-1.403a1.332 1.332 0 0 1-.203.06ZM46.479 6h-3.703s2.104 3.454 2.128 3.497a.582.582 0 0 1 .014.706l-2.142 3.51h3.703s1.786-2.92 2.03-3.325a.886.886 0 0 0-.01-1.073c-.263-.448-.264-.448-2.02-3.315ZM42.298 6H39v11.998h3.298V6ZM58.077 7.988C57.952 7.775 56.85 6 56.85 6h-7.926l1.732 2.904h4.174l-1.722 2.823 1.92 3.225-1.853 3.045h3.384c.544-.89 1.357-2.267 1.527-2.549a.889.889 0 0 0-.01-1.077c-.17-.289-1.076-1.726-1.617-2.61l1.627-2.697a.889.889 0 0 0-.01-1.076Z"/><path fill="#fff" d="M50.453 12.117c-.522.852-1.394 2.28-1.558 2.558a.856.856 0 0 0-.01 1.037l1.568 2.57c.524-.858 1.403-2.297 1.567-2.57a.857.857 0 0 0-.01-1.037 391.872 391.872 0 0 0-1.557-2.558ZM0 17.995V5.996h3.937v11.999H0Zm9.294-10.09 2.264 10.09H7.25L4.546 5.996h2.416a2.276 2.276 0 0 1 1.513.55c.42.345.71.826.819 1.36Zm2.856 10.09V5.996h3.937v11.999H12.15Zm6.91-7.436a2.383 2.383 0 0 1-2.4-2.4 2.303 2.303 0 0 1 .322-1.2 2.412 2.412 0 0 1 3.278-.861c.356.209.653.506.862.861.215.363.326.778.321 1.2a2.4 2.4 0 0 1-1.183 2.079 2.303 2.303 0 0 1-1.2.321Zm2.992 7.436V5.996h3.937v11.999h-3.937Zm8.922-5.442c.01.012.095.15.253.414.158.265.364.603.617 1.014a327.152 327.152 0 0 1 1.597 2.62c.247.411.529.876.845 1.394H29.96c-.27-.44-.516-.837-.736-1.191-.22-.355-.453-.738-.7-1.15-.248-.41-.493-.81-.736-1.2-.242-.389-.45-.73-.625-1.022-.175-.293-.296-.49-.363-.591a1.75 1.75 0 0 1-.287-.845c.016-.29.11-.57.27-.812.067-.113.191-.313.372-.6a182.106 182.106 0 0 0 1.37-2.23c.247-.412.48-.798.7-1.158l.735-1.2h4.326l-3.346 5.458a1.078 1.078 0 0 0-.17.541c.012.202.082.396.203.558Z"/></svg>