<svg width="219" height="24" viewBox="0 0 219 24" fill="none" xmlns="http://www.w3.org/2000/svg">
<path d="M0 17.9988V5.99987H3.93719V17.9988H0ZM9.29381 7.90956L11.5581 17.9988H7.24917L4.54549 5.99987H6.96218C7.51635 5.99268 8.05406 6.18803 8.4745 6.54917C8.89562 6.89516 9.18495 7.37548 9.29381 7.90956ZM12.1495 17.9988V5.99987H16.0867V17.9988H12.1495ZM19.0605 10.5629C18.6362 10.567 18.2188 10.456 17.8525 10.2417C17.4912 10.0329 17.1911 9.73274 16.9823 9.37138C16.7678 9.00511 16.6568 8.58754 16.661 8.1631C16.6561 7.74124 16.7672 7.32616 16.9823 6.96321C17.1933 6.60577 17.4931 6.30887 17.8525 6.1013C18.2189 5.88728 18.6362 5.77629 19.0605 5.78016C19.4822 5.77562 19.8971 5.88671 20.2602 6.1013C20.616 6.31069 20.9127 6.60734 21.122 6.96321C21.3368 7.32626 21.4479 7.74127 21.4433 8.1631C21.4473 8.58751 21.3363 9.00501 21.122 9.37138C20.9149 9.73115 20.6179 10.0311 20.2602 10.2417C19.8971 10.4568 19.4819 10.5679 19.0599 10.5629H19.0605ZM22.0516 17.9988V5.99987H25.9892V17.9988H22.0516ZM30.9737 12.557C30.9848 12.5687 31.0693 12.7067 31.2272 12.9711C31.3851 13.2354 31.5906 13.5735 31.8439 13.9851C32.0974 14.3965 32.3649 14.833 32.6463 15.2948C32.9278 15.7565 33.1926 16.1931 33.4408 16.6046C33.6881 17.016 33.9697 17.4807 34.2857 17.9988H29.9598C29.6893 17.5594 29.4441 17.1622 29.2245 16.8073C29.0048 16.4524 28.7713 16.0694 28.5238 15.6581C28.2758 15.2473 28.0306 14.8473 27.7882 14.4582C27.5458 14.0692 27.3375 13.7284 27.1633 13.4358C26.9883 13.1431 26.8671 12.9459 26.7997 12.8443C26.6325 12.5922 26.5336 12.3011 26.5127 11.9993C26.5294 11.7097 26.6226 11.4298 26.7828 11.1879C26.8504 11.0752 26.9743 10.8752 27.1545 10.5879C27.3348 10.3006 27.546 9.95983 27.7882 9.5655C28.0304 9.17117 28.2756 8.76838 28.5238 8.35715C28.772 7.94592 29.0056 7.56002 29.2245 7.19949C29.4445 6.83933 29.6897 6.43937 29.9598 5.99959H34.2857L30.9396 11.4583C30.8361 11.6203 30.7777 11.8071 30.7706 11.9993C30.7818 12.2011 30.8522 12.3951 30.9731 12.557H30.9737Z" fill="#0A2343"/>
<path d="M48.1018 5.99209H45.991L41.4035 11.2775H40.7731V5.99209H39V17.9815H40.7731V12.5609H40.8325L45.8221 17.9984L48.2369 17.9815L42.5121 12.0375L48.1018 5.99209Z" fill="#015F88"/>
<path d="M53.1163 9.31026C52.8005 9.39492 52.499 9.5258 52.2216 9.69866C51.9335 9.87864 51.6671 10.0911 51.4276 10.3319C51.3879 10.3719 51.3491 10.4164 51.3094 10.4583V9.20053L49.587 9.4538V17.9815H51.3094V11.6021C51.4375 11.5126 51.5701 11.4296 51.7066 11.3535C51.8755 11.2605 52.0503 11.1787 52.23 11.1087C52.4043 11.0411 52.5817 10.982 52.762 10.9314C52.9472 10.8798 53.1363 10.8431 53.3273 10.8216C53.5321 10.7991 53.7384 10.7935 53.944 10.8047L54.1467 9.2174C53.8004 9.19269 53.4525 9.22404 53.1163 9.31026Z" fill="#015F88"/>
<path d="M55.7171 17.9815H57.4395V9.20053L55.7171 9.4538V17.9815Z" fill="#015F88"/>
<path d="M57.1947 5.66279C57.0194 5.55567 56.8175 5.50009 56.6121 5.50238C56.4041 5.50076 56.1996 5.55623 56.021 5.66279C55.845 5.76595 55.697 5.91095 55.5904 6.08495C55.4833 6.26025 55.4278 6.46216 55.43 6.66756C55.4284 6.87554 55.4838 7.07998 55.5904 7.25858C55.6936 7.43528 55.8423 7.58106 56.021 7.68074C56.2014 7.78215 56.4052 7.83452 56.6121 7.8327C56.8164 7.83517 57.0176 7.7827 57.1947 7.68074C57.3684 7.58029 57.5115 7.43433 57.6084 7.25858C57.7098 7.07823 57.7622 6.87446 57.7604 6.66756C57.7628 6.46326 57.7103 6.26204 57.6084 6.08495C57.5081 5.91177 57.3658 5.7666 57.1947 5.66279Z" fill="#015F88"/>
<path d="M66.6933 9.53824C66.1916 9.28491 65.6339 9.1629 65.0722 9.18362C64.582 9.18454 64.0948 9.26146 63.6281 9.41161C63.1474 9.56481 62.69 9.78356 62.269 10.0617C62.1058 10.1689 61.9493 10.2869 61.7959 10.4082V9.20053L60.0736 9.45379V17.9815H61.7959V11.5683C61.9627 11.4705 62.1346 11.3819 62.311 11.3029C62.5482 11.1979 62.7905 11.1049 63.0371 11.0243C63.2743 10.9469 63.5171 10.8876 63.7632 10.847C63.995 10.8085 64.2294 10.7888 64.4643 10.7878C64.7399 10.7814 65.0144 10.8243 65.2749 10.9145C65.4897 10.9919 65.6814 11.1227 65.8318 11.2944C65.987 11.4807 66.0969 11.7003 66.1529 11.9361C66.2248 12.2346 66.2588 12.541 66.254 12.848V17.9815H67.9764V12.4934C67.9988 11.8532 67.8897 11.2153 67.6559 10.619C67.465 10.1611 67.1261 9.7806 66.6933 9.53824Z" fill="#015F88"/>
<path d="M75.9381 9.40315C75.6802 9.33251 75.4178 9.2789 75.1529 9.24271C74.8506 9.20209 74.5459 9.18235 74.241 9.18362C73.6901 9.18136 73.1444 9.29049 72.6368 9.50447C72.1281 9.7199 71.6664 10.0325 71.2774 10.4248C70.8628 10.8478 70.5434 11.3544 70.3403 11.9108C70.1047 12.5628 69.9902 13.2524 70.0025 13.9456C69.9839 14.7082 70.1308 15.4658 70.4331 16.1662C70.6977 16.7653 71.1359 17.2711 71.6911 17.6184C72.2987 17.9768 72.9956 18.1554 73.7006 18.1335C74.32 18.1313 74.9332 18.0109 75.5075 17.7789C75.8507 17.6392 76.1742 17.4554 76.47 17.2323V17.6944C76.4768 18.0749 76.4227 18.454 76.3099 18.8174C76.2124 19.1222 76.0446 19.3999 75.8199 19.6279C75.5781 19.8604 75.2821 20.0287 74.9587 20.1176C74.5381 20.2332 74.1029 20.2872 73.6668 20.2781C73.3198 20.2775 72.9732 20.2578 72.6283 20.2189C72.2664 20.1781 71.9079 20.1104 71.556 20.0163C71.1935 19.9198 70.838 19.7985 70.4922 19.6532L70.678 21.1393C70.9884 21.2652 71.3072 21.3696 71.632 21.4516C71.9738 21.5379 72.3207 21.6028 72.6705 21.6459C73.0403 21.6913 73.4126 21.7139 73.7851 21.7134C74.6162 21.7394 75.4422 21.5748 76.1998 21.2322C76.8149 20.9456 77.3297 20.4808 77.6774 19.8981C78.0174 19.2991 78.1895 18.6194 78.1755 17.9308V9.18362L76.5241 9.60887C76.3332 9.52814 76.1375 9.45944 75.9381 9.40315ZM76.2505 16.1662C76.0414 16.2879 75.8242 16.395 75.6004 16.487C75.4033 16.568 75.2 16.633 74.9924 16.6812C74.7902 16.727 74.5834 16.7496 74.3761 16.7488C73.8689 16.7671 73.3657 16.6537 72.9154 16.4195C72.523 16.1955 72.219 15.8439 72.0542 15.4232C71.8507 14.8754 71.756 14.2932 71.7756 13.7092C71.7681 13.2431 71.8336 12.7787 71.9697 12.3329C72.0804 11.9666 72.2707 11.6293 72.527 11.3451C72.777 11.0811 73.0828 10.8763 73.422 10.7456C73.8075 10.5995 74.2172 10.5279 74.6294 10.5346C74.8954 10.5343 75.1609 10.5569 75.423 10.6021C75.6915 10.6496 75.9566 10.7144 76.2167 10.7963C76.2995 10.8222 76.3856 10.8565 76.47 10.888V16.037C76.396 16.0806 76.32 16.1262 76.2505 16.1662Z" fill="#015F88"/>
<path d="M88.1386 9.36939H86.0278L83.1382 12.544H82.5154V5.23218L80.793 5.48548V17.9815H82.5154V13.8443H82.5435L85.9937 17.9815H88.2227L84.1267 13.3658L88.1386 9.36939Z" fill="#015F88"/>
<path d="M96.9702 16.9176C96.8468 16.929 96.7225 16.9104 96.6078 16.8634C96.4931 16.8163 96.3915 16.7423 96.3117 16.6475C96.1549 16.3769 96.0898 16.063 96.1259 15.7525L96.1597 12.2738C96.1635 11.9091 96.1179 11.5456 96.0243 11.1931C95.9424 10.8839 95.8052 10.5921 95.6193 10.3319C95.4313 10.0775 95.1927 9.86481 94.9185 9.7071C94.5998 9.5263 94.2553 9.39532 93.8969 9.31871C93.4587 9.22421 93.0112 9.1789 92.5629 9.18362C92.2071 9.18347 91.8517 9.20603 91.4988 9.25116C91.1655 9.29308 90.8355 9.35798 90.5112 9.44537C90.2102 9.52699 89.9141 9.62564 89.6243 9.74087L89.4217 11.1762C89.7031 11.0749 89.9706 10.9905 90.2241 10.9229C90.4776 10.8554 90.7223 10.7991 90.9584 10.7541C91.1901 10.7098 91.4242 10.6788 91.6595 10.6612C91.8899 10.6443 92.1178 10.6359 92.3431 10.6359C92.6874 10.6286 93.0311 10.6683 93.3647 10.7541C93.6081 10.815 93.832 10.9371 94.0151 11.1087C94.1779 11.2757 94.2943 11.4824 94.3528 11.7081C94.4246 11.9866 94.4586 12.2734 94.4539 12.5609L94.4522 12.9848L92.4785 13.1182C91.8034 13.1372 91.1383 13.2863 90.5196 13.5572C90.0567 13.7598 89.6569 14.0836 89.3626 14.4944C89.1131 14.8601 88.9808 15.2929 88.983 15.7356C88.9797 16.151 89.0813 16.5605 89.2784 16.9261C89.4848 17.3018 89.7956 17.6097 90.1732 17.8126C90.634 18.0522 91.1488 18.1685 91.6679 18.1503C92.154 18.1615 92.638 18.0814 93.0945 17.9139C93.4894 17.7594 93.8507 17.53 94.1586 17.2385C94.2755 17.1264 94.3863 17.0084 94.4907 16.8847C94.5235 17.0595 94.5854 17.2276 94.6737 17.382C94.824 17.6406 95.0554 17.8424 95.332 17.9562C95.6377 18.079 95.9651 18.1393 96.2945 18.1335C96.3961 18.1335 96.4943 18.1307 96.59 18.125C96.684 18.1197 96.7773 18.1055 96.8686 18.0828C96.959 18.0603 97.0403 18.0406 97.1138 18.0237C97.1799 18.0089 97.2448 17.9891 97.308 17.9646L97.4935 16.8332C97.4004 16.8652 97.3043 16.8878 97.2067 16.9008C97.1283 16.9112 97.0493 16.9168 96.9702 16.9176ZM94.1586 16.1578C93.9755 16.3024 93.7774 16.427 93.5676 16.5292C93.3586 16.6308 93.1372 16.7046 92.9091 16.7488C92.6725 16.7945 92.432 16.8171 92.1911 16.8163C91.916 16.8242 91.6424 16.7723 91.3892 16.6643C91.1831 16.5749 91.0093 16.4247 90.8908 16.2337C90.774 16.0312 90.7156 15.8004 90.722 15.5667C90.7055 15.2852 90.7827 15.0061 90.9415 14.773C91.1253 14.5586 91.3743 14.4103 91.6504 14.3509C92.0819 14.2493 92.5248 14.2039 92.9679 14.2158H94.4463L94.439 15.8921C94.3532 15.9883 94.2594 16.0772 94.1586 16.1578Z" fill="#015F88"/>
<path d="M104.434 14.0976C104.261 13.9145 104.061 13.758 103.842 13.6333C103.616 13.5035 103.378 13.3933 103.133 13.304C102.953 13.2477 102.776 13.1886 102.601 13.1266C102.427 13.0647 102.252 13.0084 102.078 12.9578C101.903 12.9071 101.734 12.8536 101.571 12.7973C101.418 12.7454 101.269 12.6834 101.124 12.6116C100.985 12.538 100.852 12.4532 100.727 12.3583C100.611 12.2711 100.514 12.1621 100.44 12.0375C100.365 11.9095 100.327 11.7634 100.33 11.6153C100.325 11.4525 100.366 11.2917 100.448 11.1509C100.536 11.0127 100.659 10.8993 100.803 10.8216C100.98 10.7247 101.171 10.6563 101.369 10.619C101.616 10.5715 101.868 10.5489 102.12 10.5514C102.244 10.5514 102.379 10.5574 102.525 10.5684C102.672 10.5793 102.832 10.5996 103.007 10.6274C103.181 10.6553 103.355 10.6925 103.53 10.7372C103.704 10.782 103.882 10.8329 104.062 10.8892C104.229 10.9406 104.392 11.0026 104.551 11.0749L104.67 9.70712C104.456 9.61744 104.245 9.53864 104.037 9.47072C103.829 9.40348 103.617 9.34712 103.403 9.30186C103.194 9.25775 102.983 9.22671 102.77 9.20897C102.562 9.19208 102.356 9.18365 102.154 9.18365C101.687 9.17887 101.222 9.23276 100.769 9.34405C100.382 9.43842 100.013 9.59835 99.6799 9.81689C99.3777 10.0168 99.1309 10.2898 98.9623 10.6105C98.7858 10.964 98.6988 11.3554 98.709 11.7504C98.7038 12.0349 98.7497 12.318 98.8443 12.5863C98.9243 12.8115 99.0445 13.0203 99.199 13.2026C99.349 13.375 99.5224 13.5256 99.714 13.6501C99.9133 13.7812 100.126 13.8916 100.347 13.9794C100.471 14.0248 100.6 14.0699 100.736 14.1145C100.871 14.1598 101.003 14.202 101.132 14.2411C101.262 14.2803 101.388 14.32 101.512 14.3594C101.636 14.3988 101.757 14.4382 101.875 14.4776C101.993 14.517 102.109 14.5535 102.222 14.5873C102.373 14.6408 102.519 14.7058 102.66 14.7815C102.784 14.8471 102.901 14.9264 103.007 15.0179C103.1 15.0996 103.175 15.2004 103.226 15.3135C103.278 15.4304 103.304 15.5571 103.302 15.6849C103.308 15.8098 103.286 15.9345 103.238 16.0499C103.19 16.1653 103.117 16.2684 103.024 16.352C102.815 16.5266 102.565 16.6457 102.297 16.6981C101.984 16.7673 101.664 16.8013 101.344 16.7995C101.143 16.7982 100.943 16.7841 100.744 16.7572C100.525 16.7295 100.294 16.6901 100.052 16.639C99.8097 16.588 99.562 16.5261 99.3085 16.4533C99.0554 16.3805 98.7994 16.2989 98.5404 16.2084L98.608 17.6438C98.9003 17.7451 99.1676 17.8267 99.41 17.8886C99.6525 17.9506 99.8832 18.004 100.102 18.0491C100.314 18.0931 100.528 18.1213 100.744 18.1335C100.952 18.1448 101.163 18.1504 101.377 18.1504C101.848 18.1528 102.318 18.1046 102.779 18.0068C103.184 17.9245 103.573 17.7732 103.927 17.5594C104.246 17.3644 104.511 17.0912 104.696 16.7657C104.889 16.4084 104.985 16.0066 104.974 15.6005C104.981 15.3042 104.932 15.0092 104.83 14.7308C104.74 14.4964 104.605 14.2815 104.434 14.0976Z" fill="#015F88"/>
<path d="M111.482 16.6221L111.196 16.6728C111.103 16.6892 111.01 16.7005 110.917 16.7066C110.827 16.7125 110.742 16.715 110.664 16.715C110.405 16.7221 110.148 16.6701 109.912 16.563C109.709 16.4671 109.541 16.3108 109.431 16.1155C109.312 15.8953 109.254 15.6478 109.262 15.3978V10.7203H111.643L111.829 9.36939H109.262V6.70133L107.539 7.30922V9.36939H106.239L106.053 10.7203H107.539V15.7525C107.532 16.0881 107.583 16.4225 107.691 16.7403C107.778 16.9918 107.913 17.2241 108.089 17.4242C108.249 17.6026 108.445 17.7463 108.663 17.8464C108.886 17.949 109.121 18.0227 109.363 18.0659C109.603 18.1102 109.846 18.1328 110.089 18.1335C110.269 18.1335 110.447 18.1278 110.622 18.1166C110.797 18.1053 110.956 18.0885 111.103 18.0659C111.249 18.0434 111.387 18.0181 111.516 17.9899C111.646 17.9618 111.756 17.9368 111.846 17.914L111.947 16.5124C111.881 16.5377 111.814 16.5575 111.745 16.5715C111.666 16.5884 111.579 16.6053 111.482 16.6221Z" fill="#015F88"/>
<path d="M113.738 17.9815H115.46V9.20053L113.738 9.4538V17.9815Z" fill="#015F88"/>
<path d="M115.216 5.66279C115.04 5.5557 114.839 5.50012 114.633 5.50238C114.425 5.5008 114.221 5.55627 114.042 5.66279C113.866 5.76592 113.718 5.91093 113.612 6.08495C113.505 6.26017 113.449 6.46211 113.451 6.66756C113.45 6.87558 113.505 7.08005 113.612 7.25858C113.715 7.43525 113.864 7.58104 114.042 7.68074C114.223 7.7821 114.426 7.83447 114.633 7.83269C114.837 7.83513 115.039 7.78266 115.216 7.68074C115.389 7.58022 115.532 7.43428 115.63 7.25858C115.731 7.07818 115.783 6.87444 115.782 6.66756C115.784 6.46327 115.731 6.26208 115.63 6.08495C115.529 5.91182 115.387 5.76667 115.216 5.66279Z" fill="#015F88"/>
<path d="M124.714 9.53824C124.213 9.28491 123.655 9.1629 123.093 9.18362C122.603 9.18454 122.116 9.26146 121.649 9.41161C121.168 9.56486 120.711 9.78361 120.29 10.0617C120.127 10.1689 119.97 10.2869 119.817 10.4082V9.20053L118.094 9.45379V17.9815H119.817V11.5683C119.984 11.4705 120.156 11.3819 120.332 11.3029C120.569 11.1978 120.812 11.1048 121.058 11.0243C121.296 10.9468 121.538 10.8876 121.784 10.847C122.016 10.8085 122.25 10.7887 122.485 10.7878C122.761 10.7814 123.035 10.8243 123.296 10.9145C123.511 10.9919 123.702 11.1226 123.853 11.2944C124.008 11.4806 124.118 11.7003 124.174 11.9361C124.246 12.2346 124.28 12.541 124.275 12.848V17.9815H125.997V12.4934C126.02 11.8532 125.911 11.2153 125.677 10.619C125.486 10.1611 125.147 9.7806 124.714 9.53824Z" fill="#015F88"/>
<path d="M133.959 9.40315C133.701 9.33251 133.439 9.2789 133.174 9.24271C132.872 9.20209 132.567 9.18235 132.262 9.18362C131.711 9.18136 131.166 9.29049 130.658 9.50447C130.149 9.7199 129.688 10.0325 129.299 10.4248C128.884 10.8479 128.565 11.3544 128.361 11.9108C128.126 12.5628 128.011 13.2524 128.024 13.9456C128.005 14.7082 128.152 15.4658 128.454 16.1662C128.719 16.7653 129.157 17.2712 129.712 17.6184C130.32 17.9768 131.017 18.1555 131.722 18.1335C132.341 18.1313 132.954 18.0109 133.528 17.7789C133.872 17.6392 134.195 17.4554 134.491 17.2323V17.6944C134.498 18.0749 134.444 18.454 134.331 18.8174C134.233 19.1222 134.066 19.3998 133.841 19.6279C133.599 19.8603 133.303 20.0286 132.98 20.1176C132.559 20.2332 132.124 20.2872 131.688 20.2781C131.341 20.2775 130.994 20.2578 130.65 20.2189C130.287 20.1782 129.929 20.1104 129.577 20.0163C129.214 19.9198 128.859 19.7985 128.513 19.6532L128.699 21.1393C129.009 21.2653 129.328 21.3697 129.653 21.4516C129.995 21.5379 130.342 21.6028 130.691 21.6459C131.061 21.6913 131.433 21.7139 131.806 21.7134C132.637 21.7394 133.463 21.5748 134.221 21.2322C134.836 20.9457 135.351 20.4808 135.698 19.8981C136.038 19.2991 136.211 18.6195 136.197 17.9308V9.18362L134.545 9.60887C134.354 9.52814 134.159 9.45944 133.959 9.40315ZM134.272 16.1662C134.063 16.2879 133.845 16.3951 133.622 16.487C133.424 16.568 133.221 16.633 133.014 16.6812C132.811 16.727 132.605 16.7496 132.398 16.7488C131.89 16.7671 131.387 16.6537 130.937 16.4195C130.544 16.1955 130.24 15.8439 130.076 15.4232C129.872 14.8755 129.777 14.2932 129.797 13.7092C129.789 13.2431 129.855 12.7787 129.991 12.3329C130.102 11.9666 130.292 11.6293 130.548 11.3451C130.798 11.0811 131.104 10.8763 131.443 10.7456C131.829 10.5995 132.238 10.5279 132.651 10.5346C132.917 10.5343 133.182 10.5569 133.444 10.6021C133.713 10.6496 133.978 10.7145 134.238 10.7963C134.321 10.8222 134.407 10.8565 134.492 10.888V16.037C134.417 16.0806 134.341 16.1262 134.272 16.1662Z" fill="#015F88"/>
<path d="M144.15 14.0976C143.977 13.9144 143.778 13.7579 143.559 13.6333C143.332 13.5035 143.095 13.3933 142.849 13.304C142.669 13.2477 142.492 13.1886 142.318 13.1266C142.143 13.0647 141.969 13.0084 141.794 12.9578C141.62 12.9071 141.451 12.8536 141.287 12.7973C141.134 12.7455 140.985 12.6834 140.84 12.6116C140.701 12.538 140.568 12.4533 140.443 12.3583C140.327 12.2711 140.23 12.1621 140.156 12.0375C140.081 11.9095 140.043 11.7634 140.046 11.6153C140.042 11.4525 140.083 11.2917 140.165 11.1509C140.253 11.0128 140.375 10.8995 140.519 10.8216C140.696 10.7248 140.887 10.6564 141.085 10.619C141.332 10.5715 141.584 10.5489 141.836 10.5514C141.96 10.5514 142.095 10.5574 142.242 10.5683C142.388 10.5793 142.548 10.5996 142.723 10.6274C142.898 10.6553 143.072 10.6925 143.246 10.7372C143.421 10.782 143.598 10.8329 143.778 10.8892C143.945 10.9406 144.109 11.0026 144.268 11.0749L144.386 9.70712C144.172 9.61744 143.961 9.53864 143.753 9.47072C143.545 9.40346 143.334 9.3471 143.12 9.30186C142.911 9.2577 142.699 9.22666 142.486 9.20896C142.278 9.19208 142.072 9.18364 141.87 9.18364C141.404 9.17888 140.938 9.23276 140.485 9.34405C140.098 9.4384 139.73 9.59833 139.396 9.81689C139.094 10.0169 138.847 10.2899 138.679 10.6105C138.502 10.964 138.415 11.3554 138.425 11.7504C138.42 12.0349 138.466 12.3179 138.56 12.5863C138.64 12.8115 138.76 13.0203 138.915 13.2026C139.065 13.375 139.238 13.5256 139.43 13.6501C139.629 13.7812 139.841 13.8916 140.063 13.9794C140.187 14.0248 140.316 14.0699 140.452 14.1145C140.587 14.1592 140.719 14.2014 140.848 14.2411C140.977 14.2807 141.104 14.3201 141.228 14.3594C141.352 14.399 141.473 14.4382 141.591 14.4776C141.71 14.517 141.825 14.5535 141.938 14.5873C142.089 14.6408 142.235 14.7058 142.377 14.7815C142.5 14.8472 142.617 14.9265 142.723 15.0179C142.816 15.0996 142.891 15.2004 142.942 15.3135C142.994 15.4304 143.02 15.5571 143.018 15.6849C143.024 15.8098 143.002 15.9345 142.954 16.0499C142.906 16.1653 142.833 16.2685 142.74 16.352C142.531 16.5266 142.281 16.6457 142.014 16.6981C141.7 16.7673 141.38 16.8013 141.059 16.7995C140.859 16.7982 140.659 16.7841 140.46 16.7572C140.24 16.7295 140.01 16.6901 139.768 16.639C139.526 16.588 139.278 16.5261 139.025 16.4533C138.771 16.3805 138.515 16.2989 138.256 16.2084L138.324 17.6438C138.616 17.7451 138.884 17.8267 139.126 17.8886C139.368 17.9506 139.599 18.004 139.818 18.0491C140.03 18.0931 140.244 18.1213 140.46 18.1335C140.668 18.1448 140.879 18.1504 141.093 18.1504C141.564 18.1528 142.034 18.1046 142.495 18.0068C142.9 17.9245 143.289 17.7731 143.643 17.5594C143.962 17.3643 144.227 17.0911 144.411 16.7657C144.605 16.4084 144.701 16.0066 144.69 15.6005C144.697 15.3042 144.648 15.0092 144.547 14.7308C144.456 14.4965 144.321 14.2816 144.15 14.0976Z" fill="#015F88"/>
<path d="M152.872 9.7254C152.169 9.35162 151.381 9.1655 150.584 9.18502C149.78 9.16673 148.985 9.35882 148.279 9.74227C147.626 10.1075 147.093 10.6527 146.742 11.3127C146.361 12.0533 146.172 12.8779 146.193 13.7106C146.172 14.5368 146.348 15.3561 146.708 16.1C147.032 16.7495 147.548 17.2832 148.186 17.6283C148.873 17.9883 149.64 18.1683 150.415 18.1517C151.227 18.1679 152.029 17.976 152.746 17.5945C153.414 17.2295 153.963 16.6781 154.324 16.0072C154.717 15.2578 154.911 14.421 154.89 13.5755C154.909 12.7702 154.729 11.9726 154.366 11.2536C154.03 10.608 153.51 10.0763 152.872 9.7254ZM152.771 15.3824C152.581 15.8212 152.259 16.1901 151.851 16.4378C151.44 16.6729 150.973 16.7925 150.5 16.7839C150.036 16.7955 149.578 16.6724 149.183 16.4293C148.791 16.1693 148.486 15.7991 148.304 15.3655C148.075 14.8093 147.965 14.2108 147.984 13.6093C147.964 13.0241 148.073 12.4417 148.304 11.9038C148.494 11.481 148.809 11.127 149.208 10.8905C149.634 10.6561 150.115 10.5395 150.601 10.5528C150.981 10.5434 151.358 10.6153 151.707 10.7639C152.013 10.902 152.28 11.1137 152.484 11.3803C152.702 11.67 152.859 12 152.948 12.3512C153.054 12.7621 153.105 13.1851 153.1 13.6093C153.12 14.2172 153.007 14.8222 152.77 15.3824H152.771Z" fill="#015F88"/>
<path d="M160.513 9.31026C160.197 9.39492 159.895 9.5258 159.618 9.69866C159.33 9.87864 159.063 10.0911 158.824 10.3319C158.784 10.3719 158.746 10.4164 158.706 10.4583V9.20053L156.983 9.4538V17.9815H158.706V11.6021C158.834 11.5126 158.966 11.4297 159.103 11.3535C159.272 11.2605 159.447 11.1787 159.626 11.1087C159.801 11.0411 159.978 10.982 160.158 10.9314C160.343 10.8799 160.533 10.8431 160.724 10.8216C160.929 10.7991 161.135 10.7935 161.34 10.8047L161.543 9.2174C161.197 9.19269 160.849 9.22404 160.513 9.31026Z" fill="#015F88"/>
<path d="M170.459 9.36939H168.348L165.458 12.544H164.836V5.23218L163.113 5.48548V17.9815H164.836V13.8443H164.864L168.314 17.9815H170.543L166.447 13.3658L170.459 9.36939Z" fill="#015F88"/>
<path d="M178.514 10.4586C178.19 10.0384 177.762 9.70968 177.273 9.50449C176.729 9.28253 176.146 9.17337 175.559 9.18364C174.967 9.17364 174.38 9.28872 173.836 9.52136C173.341 9.73798 172.9 10.0609 172.544 10.467C172.178 10.8937 171.902 11.3907 171.734 11.9277C171.541 12.5423 171.447 13.1835 171.455 13.8274C171.431 14.6411 171.602 15.4488 171.953 16.1831C172.274 16.8197 172.793 17.3351 173.431 17.6522C174.18 18.0051 175.001 18.1758 175.829 18.1504C176.227 18.1538 176.625 18.1284 177.019 18.0744C177.349 18.0269 177.674 17.9506 177.99 17.8464C178.304 17.7411 178.609 17.6112 178.902 17.458L179.02 16.1578C178.806 16.237 178.589 16.3157 178.37 16.3942C178.15 16.4726 177.923 16.543 177.686 16.6053C177.448 16.6677 177.205 16.7128 176.96 16.7403C176.714 16.7686 176.465 16.7827 176.217 16.7826C175.774 16.7899 175.331 16.7416 174.9 16.639C174.552 16.5558 174.23 16.3876 173.963 16.1493C173.693 15.8924 173.495 15.5693 173.389 15.2121C173.278 14.8504 173.216 14.4756 173.205 14.0976H179.307C179.39 13.3992 179.359 12.692 179.214 12.0037C179.096 11.444 178.857 10.9167 178.514 10.4586ZM174.258 10.8638C174.655 10.6233 175.112 10.503 175.575 10.5177C176.039 10.4945 176.497 10.6284 176.876 10.8976C177.212 11.166 177.452 11.5364 177.559 11.953C177.644 12.261 177.685 12.5793 177.683 12.8987H173.242C173.273 12.5619 173.345 12.2302 173.456 11.9108C173.6 11.4828 173.883 11.1146 174.258 10.8638Z" fill="#015F88"/>
<path d="M186.754 14.0976C186.581 13.9144 186.382 13.7579 186.163 13.6333C185.936 13.5035 185.699 13.3933 185.453 13.304C185.273 13.2477 185.096 13.1886 184.922 13.1266C184.747 13.0647 184.573 13.0084 184.398 12.9578C184.223 12.9071 184.054 12.8536 183.891 12.7973C183.738 12.7454 183.589 12.6834 183.444 12.6116C183.305 12.538 183.172 12.4533 183.047 12.3583C182.931 12.2711 182.834 12.1621 182.76 12.0375C182.686 11.9095 182.647 11.7634 182.65 11.6153C182.646 11.4525 182.687 11.2917 182.769 11.1509C182.857 11.0127 182.979 10.8994 183.123 10.8216C183.3 10.7247 183.491 10.6563 183.689 10.619C183.937 10.5715 184.188 10.5489 184.44 10.5514C184.564 10.5514 184.699 10.5574 184.846 10.5683C184.992 10.5793 185.152 10.5996 185.327 10.6274C185.502 10.6553 185.676 10.6925 185.85 10.7372C186.025 10.782 186.202 10.8329 186.382 10.8892C186.549 10.9406 186.713 11.0027 186.872 11.0749L186.99 9.70712C186.776 9.61744 186.565 9.53864 186.357 9.47072C186.149 9.40346 185.938 9.3471 185.724 9.30186C185.515 9.25774 185.303 9.2267 185.09 9.20896C184.882 9.19208 184.677 9.18364 184.474 9.18364C184.008 9.17888 183.542 9.23276 183.089 9.34405C182.702 9.4384 182.334 9.59833 182 9.81689C181.698 10.0169 181.451 10.2899 181.283 10.6105C181.106 10.964 181.019 11.3554 181.029 11.7504C181.024 12.0349 181.07 12.3179 181.164 12.5863C181.244 12.8115 181.364 13.0203 181.519 13.2026C181.669 13.375 181.842 13.5256 182.034 13.6501C182.233 13.7812 182.445 13.8915 182.667 13.9794C182.791 14.0248 182.92 14.0699 183.056 14.1145C183.191 14.1592 183.323 14.2014 183.452 14.2411C183.582 14.2807 183.708 14.3201 183.832 14.3594C183.956 14.399 184.077 14.4382 184.195 14.4776C184.314 14.517 184.429 14.5535 184.542 14.5873C184.693 14.6408 184.84 14.7058 184.981 14.7815C185.105 14.8472 185.221 14.9265 185.327 15.0179C185.42 15.0996 185.495 15.2004 185.546 15.3135C185.598 15.4304 185.624 15.5571 185.622 15.6849C185.628 15.8098 185.607 15.9345 185.558 16.0499C185.51 16.1653 185.437 16.2685 185.344 16.352C185.135 16.5266 184.885 16.6456 184.618 16.6981C184.304 16.7673 183.984 16.8013 183.664 16.7995C183.463 16.7982 183.263 16.7841 183.064 16.7572C182.845 16.7295 182.614 16.6901 182.372 16.639C182.13 16.588 181.882 16.5261 181.628 16.4533C181.376 16.3805 181.12 16.2989 180.86 16.2084L180.928 17.6438C181.22 17.7451 181.488 17.8267 181.73 17.8886C181.972 17.9506 182.203 18.004 182.422 18.0491C182.634 18.0931 182.848 18.1213 183.064 18.1335C183.272 18.1448 183.483 18.1504 183.697 18.1504C184.168 18.1528 184.638 18.1046 185.099 18.0068C185.504 17.9244 185.893 17.7731 186.247 17.5594C186.567 17.3642 186.831 17.0911 187.016 16.7657C187.209 16.4084 187.305 16.0066 187.294 15.6005C187.301 15.3042 187.252 15.0092 187.151 14.7308C187.06 14.4965 186.925 14.2816 186.754 14.0976Z" fill="#015F88"/>
<path d="M193.804 16.6221L193.517 16.6728C193.425 16.6892 193.332 16.7005 193.238 16.7066C193.148 16.7125 193.064 16.715 192.985 16.715C192.726 16.7221 192.469 16.6701 192.234 16.563C192.031 16.467 191.863 16.3107 191.752 16.1155C191.634 15.8953 191.576 15.6477 191.584 15.3978V10.7203H193.965L194.15 9.36939H191.584V6.70133L189.861 7.30922V9.36939H188.561L188.375 10.7203H189.861V15.7525C189.853 16.0881 189.905 16.4225 190.013 16.7403C190.1 16.9917 190.235 17.224 190.41 17.4242C190.571 17.6027 190.766 17.7463 190.984 17.8464C191.207 17.949 191.443 18.0227 191.685 18.0659C191.924 18.1102 192.167 18.1328 192.411 18.1335C192.591 18.1335 192.768 18.1278 192.943 18.1166C193.118 18.1053 193.278 18.0885 193.424 18.0659C193.57 18.0431 193.708 18.0181 193.838 17.9899C193.967 17.9618 194.077 17.9368 194.167 17.914L194.269 16.5124C194.203 16.5377 194.135 16.5574 194.066 16.5715C193.987 16.5884 193.9 16.6053 193.804 16.6221Z" fill="#015F88"/>
<path d="M199.588 9.31026C199.272 9.39491 198.97 9.52579 198.693 9.69866C198.405 9.87863 198.138 10.0911 197.899 10.3319C197.859 10.3719 197.82 10.4164 197.781 10.4583V9.20053L196.058 9.4538V17.9815H197.781V11.6021C197.909 11.5126 198.041 11.4296 198.178 11.3535C198.347 11.2605 198.522 11.1787 198.701 11.1087C198.875 11.0411 199.053 10.982 199.233 10.9314C199.418 10.8799 199.607 10.8431 199.799 10.8216C200.003 10.7991 200.209 10.7935 200.415 10.8047L200.618 9.2174C200.271 9.19269 199.924 9.22404 199.588 9.31026Z" fill="#015F88"/>
<path d="M208.723 10.4586C208.399 10.0384 207.971 9.70968 207.482 9.50449C206.938 9.28253 206.355 9.17337 205.768 9.18364C205.176 9.17362 204.59 9.2887 204.046 9.52136C203.551 9.73798 203.11 10.0609 202.754 10.467C202.387 10.8937 202.111 11.3907 201.943 11.9277C201.751 12.5423 201.657 13.1835 201.665 13.8274C201.641 14.6411 201.811 15.4487 202.162 16.1831C202.483 16.8196 203.002 17.335 203.64 17.6522C204.389 18.0051 205.211 18.1758 206.038 18.1504C206.436 18.1538 206.834 18.1284 207.228 18.0744C207.558 18.0269 207.883 17.9507 208.2 17.8464C208.513 17.7411 208.818 17.6112 209.112 17.458L209.23 16.1578C209.016 16.237 208.799 16.3157 208.579 16.3942C208.36 16.4726 208.132 16.543 207.896 16.6053C207.657 16.6677 207.414 16.7128 207.169 16.7403C206.923 16.7686 206.675 16.7827 206.427 16.7826C205.983 16.7899 205.541 16.7417 205.109 16.639C204.761 16.5559 204.439 16.3877 204.172 16.1493C203.902 15.8924 203.704 15.5693 203.598 15.2121C203.488 14.8504 203.426 14.4756 203.414 14.0976H209.517C209.6 13.3992 209.568 12.692 209.424 12.0037C209.305 11.444 209.066 10.9167 208.723 10.4586ZM204.468 10.8638C204.864 10.6233 205.322 10.503 205.785 10.5177C206.249 10.4945 206.707 10.6284 207.085 10.8976C207.421 11.1661 207.661 11.5365 207.769 11.953C207.853 12.2611 207.895 12.5793 207.892 12.8987H203.451C203.482 12.5619 203.554 12.2302 203.665 11.9108C203.81 11.4827 204.092 11.1145 204.468 10.8638Z" fill="#015F88"/>
<path d="M216.356 16.5715C216.277 16.5884 216.189 16.6053 216.094 16.6221L215.807 16.6728C215.715 16.6892 215.622 16.7005 215.528 16.7066C215.438 16.7125 215.354 16.715 215.275 16.715C215.016 16.7221 214.759 16.6701 214.524 16.563C214.321 16.467 214.153 16.3107 214.042 16.1155C213.924 15.8953 213.866 15.6477 213.874 15.3978V10.7203H216.255L216.44 9.36939H213.874V6.70133L212.151 7.30922V9.36939H210.851L210.665 10.7203H212.151V15.7525C212.143 16.0881 212.195 16.4225 212.303 16.7403C212.39 16.9918 212.525 17.224 212.7 17.4242C212.861 17.6026 213.056 17.7462 213.274 17.8464C213.497 17.949 213.733 18.0227 213.975 18.0659C214.214 18.1102 214.457 18.1328 214.701 18.1335C214.881 18.1335 215.058 18.1278 215.233 18.1166C215.408 18.1053 215.568 18.0885 215.714 18.0659C215.86 18.0431 215.998 18.0181 216.128 17.9899C216.257 17.9618 216.367 17.9368 216.457 17.914L216.558 16.5124C216.493 16.5377 216.425 16.5575 216.356 16.5715Z" fill="#015F88"/>
</svg>
