<svg xmlns="http://www.w3.org/2000/svg" viewBox="0 0 75 28"><path fill="#114F9D" d="M0 0h74.667v28H0z"/><path fill="#fff" d="M6.667 21V7.001h4.593V21H6.667ZM17.509 9.23 20.151 21h-5.027L11.97 7.001h2.82a2.655 2.655 0 0 1 1.764.641c.49.404.828.964.955 1.587ZM20.841 21V7.001h4.593V21h-4.593Zm8.063-8.675a2.779 2.779 0 0 1-2.425-1.39 2.736 2.736 0 0 1-.375-1.41 2.686 2.686 0 0 1 .375-1.4 2.812 2.812 0 0 1 3.825-1.005c.415.244.76.59 1.005 1.005.25.424.38.908.375 1.4.004.495-.125.982-.375 1.41a2.8 2.8 0 0 1-1.006 1.015c-.423.25-.908.38-1.4.375ZM32.394 21V7.001h4.593V21h-4.593Zm10.409-6.349c.013.014.111.175.295.483.185.309.424.703.72 1.183a373.133 373.133 0 0 1 1.863 3.056c.288.48.617 1.022.986 1.627H41.62l-.858-1.39a127.3 127.3 0 0 1-.818-1.34c-.289-.48-.575-.947-.858-1.4a71.148 71.148 0 0 1-.729-1.194 20.758 20.758 0 0 0-.424-.69 2.04 2.04 0 0 1-.335-.985c.02-.338.128-.665.315-.947.079-.132.224-.365.434-.7a206.222 206.222 0 0 0 1.598-2.602c.289-.48.561-.93.817-1.351L41.62 7h5.047l-3.904 6.368c-.12.19-.189.407-.197.632.013.235.095.461.236.65Z"/><path fill="#B2CFF5" d="M61.503 8.816a3.52 3.52 0 0 0-.917-.957 4.402 4.402 0 0 0-1.33-.63 6.302 6.302 0 0 0-1.775-.227H52V21h2.07v-5.028h3.569c.805.012 1.6-.185 2.306-.572a4.271 4.271 0 0 0 1.627-1.597c.415-.74.623-1.577.601-2.425a5.754 5.754 0 0 0-.158-1.36 3.921 3.921 0 0 0-.512-1.203Zm-1.834 4.248a2.33 2.33 0 0 1-1.114.917c-.557.21-1.15.311-1.745.296h-2.74v-5.56h3.017c.576-.022 1.15.09 1.675.325.419.202.761.534.976.946.228.463.34.973.326 1.489a2.914 2.914 0 0 1-.395 1.587ZM67.28 7.002c-.316.157-.615.312-.898.463-.282.151-.558.292-.828.424-.27.131-.542.263-.818.394a9.56 9.56 0 0 1-.848.355c-.29.106-.598.21-.926.315l.433 1.676c.394-.118.753-.237 1.075-.355.315-.115.624-.247.926-.394.296-.145.592-.303.888-.473l.01-.006V21h2.05V7.002h-1.065Z"/></svg>