<svg xmlns="http://www.w3.org/2000/svg" viewBox="0 0 52 41" fill="currentColor"><path d="M0 18V6.002h3.937V18H0ZM9.294 7.911l2.264 10.09H7.25L4.546 6h2.416a2.276 2.276 0 0 1 1.513.55c.42.346.71.826.819 1.36Zm2.856 10.09V6h3.937v12H12.15Zm6.91-7.436a2.383 2.383 0 0 1-2.4-2.4 2.303 2.303 0 0 1 .322-1.2 2.411 2.411 0 0 1 3.278-.862c.356.21.653.506.862.862.215.363.326.778.321 1.2a2.4 2.4 0 0 1-1.183 2.079 2.303 2.303 0 0 1-1.2.32ZM22.053 18V6.002h3.937V18h-3.937Zm8.922-5.441c.01.011.095.15.253.414s.364.602.617 1.014a320.187 320.187 0 0 1 1.597 2.62c.247.41.529.875.845 1.393H29.96c-.27-.439-.516-.836-.736-1.19-.22-.356-.453-.739-.7-1.15-.248-.411-.493-.811-.736-1.2-.242-.39-.45-.73-.625-1.023a18.04 18.04 0 0 0-.363-.591 1.75 1.75 0 0 1-.287-.845c.016-.29.11-.57.27-.811.067-.113.191-.313.372-.6a182.106 182.106 0 0 0 1.37-2.23c.247-.412.48-.798.7-1.159l.735-1.2h4.326L30.94 11.46a1.078 1.078 0 0 0-.17.541c.012.202.082.396.203.558ZM9.553 23.004H0v1.487h3.892V35h1.785V24.49h3.876v-1.486ZM13.038 26.324a3.37 3.37 0 0 0-.9.388c-.29.18-.559.393-.8.634-.04.04-.079.085-.119.127v-1.259l-1.734.254V35h1.734v-6.383a4.372 4.372 0 0 1 .926-.493 5.86 5.86 0 0 1 .536-.178 3.627 3.627 0 0 1 1.19-.127l.204-1.588a3.26 3.26 0 0 0-1.037.093ZM22.796 33.935a.778.778 0 0 1-.663-.27 1.447 1.447 0 0 1-.187-.896l.034-3.48a4.04 4.04 0 0 0-.136-1.082 2.64 2.64 0 0 0-.408-.861 2.297 2.297 0 0 0-.706-.625 3.613 3.613 0 0 0-1.028-.389 6.103 6.103 0 0 0-1.343-.135 8.44 8.44 0 0 0-1.07.068 7.39 7.39 0 0 0-.995.194c-.303.081-.601.18-.893.296l-.204 1.436a10.035 10.035 0 0 1 1.547-.423c.233-.044.469-.075.706-.092.232-.017.461-.026.688-.026.347-.007.693.032 1.029.118.244.061.47.183.654.355.164.167.281.374.34.6.073.278.107.566.102.853l-.002.423-1.987.134a5.31 5.31 0 0 0-1.972.439 2.822 2.822 0 0 0-1.164.938 2.175 2.175 0 0 0-.383 1.241c-.003.416.1.826.298 1.192.208.375.52.683.9.887.464.24.983.356 1.505.337.49.012.977-.069 1.437-.236.397-.155.76-.384 1.07-.676.118-.112.23-.23.335-.354.033.175.095.343.184.498.151.258.384.46.663.574.308.123.637.183.969.178.102 0 .2-.003.297-.009a1.54 1.54 0 0 0 .28-.042l.247-.06c.067-.014.132-.034.196-.058l.187-1.133a1.52 1.52 0 0 1-.29.068 1.895 1.895 0 0 1-.237.018Zm-2.548-1.026a2.25 2.25 0 0 1-.284.266c-.184.145-.383.27-.595.372-.21.101-.433.175-.662.22-.238.045-.48.067-.723.067a1.929 1.929 0 0 1-.807-.152 1.105 1.105 0 0 1-.502-.431 1.254 1.254 0 0 1-.17-.667c-.016-.282.062-.561.221-.795a1.3 1.3 0 0 1 .714-.422c.435-.102.88-.147 1.326-.135h1.489l-.007 1.677ZM29.195 22.379a5.563 5.563 0 0 0-1.113-.102 3.443 3.443 0 0 0-1.088.17 2.36 2.36 0 0 0-1.487 1.435c-.15.412-.222.847-.213 1.284v1.217H24.02V27.7h1.274V35h1.734v-7.3h2.38v-1.317h-2.38V24.98a1.577 1.577 0 0 1 .094-.566c.055-.154.145-.292.263-.406.123-.113.272-.194.434-.236.19-.053.388-.079.586-.076a3.722 3.722 0 0 1 .757.068c.119.022.232.044.34.067.096.019.19.047.28.084l-.068-1.402a4.097 4.097 0 0 0-.519-.135ZM31.09 35h1.735v-8.786l-1.734.254V35ZM32.578 22.674a1.106 1.106 0 0 0-.586-.16 1.147 1.147 0 0 0-.595.16 1.244 1.244 0 0 0-.434.423 1.087 1.087 0 0 0-.161.582 1.149 1.149 0 0 0 .595 1.014c.181.102.386.154.595.152.205.003.408-.05.586-.152.175-.1.319-.246.417-.422.102-.18.155-.384.153-.591a1.135 1.135 0 0 0-.153-.583 1.197 1.197 0 0 0-.417-.423ZM42.87 26.383h-2.124l-2.909 3.176h-.627v-7.316l-1.734.254V35h1.734v-4.14h.029L40.712 35h2.244l-4.124-4.619 4.039-3.998ZM51.795 26.383H49.67l-2.91 3.176h-.626v-7.316l-1.734.254V35h1.734v-4.14h.028L49.636 35h2.243l-4.123-4.619 4.039-3.998Z"/></svg>