<svg xmlns="http://www.w3.org/2000/svg" viewBox="0 0 106 16"><path fill="#0A2343" d="M0 15V1h4.593V15H0ZM10.843 3.23 13.484 15H8.457L5.303 1h2.82a2.655 2.655 0 0 1 1.764.641c.491.404.829.964.956 1.587ZM14.174 15V1h4.594V15h-4.594Zm8.063-8.675a2.737 2.737 0 0 1-1.409-.375 2.778 2.778 0 0 1-1.015-1.015 2.735 2.735 0 0 1-.375-1.41 2.685 2.685 0 0 1 .375-1.4 2.812 2.812 0 0 1 3.824-1.006c.415.245.761.59 1.005 1.006.251.424.38.908.375 1.4.005.495-.125.982-.375 1.41a2.8 2.8 0 0 1-1.005 1.015c-.424.25-.908.38-1.4.375ZM25.727 15V1h4.594V15h-4.594ZM36.136 8.65c.013.014.111.175.296.483.184.309.424.703.72 1.183a384.573 384.573 0 0 1 1.862 3.056c.289.48.617 1.022.986 1.627h-5.047l-.858-1.39c-.256-.414-.529-.861-.817-1.34-.29-.48-.576-.947-.858-1.4a71.148 71.148 0 0 1-.73-1.194 21.096 21.096 0 0 0-.424-.69A2.04 2.04 0 0 1 30.932 8c.019-.337.128-.664.315-.946.078-.132.223-.365.433-.7a216.7 216.7 0 0 0 1.598-2.603l.817-1.35.858-1.4H40l-3.904 6.368c-.12.19-.189.407-.197.631.013.236.095.462.236.651h.001Z"/><path fill="#1767CE" d="M56.47 1.063H45.334v1.733h4.538v12.252h2.081V2.796h4.519V1.063ZM60.534 4.933c-.37.1-.725.252-1.05.453-.339.21-.651.458-.932.739-.047.047-.093.099-.139.147V4.805l-2.021.296v9.947h2.021V7.606a5.111 5.111 0 0 1 1.08-.575c.205-.079.413-.148.625-.206a4.235 4.235 0 0 1 1.387-.148l.237-1.852a3.802 3.802 0 0 0-1.208.108ZM71.91 13.807a.907.907 0 0 1-.774-.315 1.686 1.686 0 0 1-.218-1.044l.04-4.058a4.71 4.71 0 0 0-.159-1.26 3.08 3.08 0 0 0-.475-1.005 2.68 2.68 0 0 0-.823-.729 4.213 4.213 0 0 0-1.199-.453 7.115 7.115 0 0 0-1.565-.157 9.86 9.86 0 0 0-1.248.078 8.62 8.62 0 0 0-1.16.227c-.353.095-.7.21-1.04.344L63.05 7.11a11.718 11.718 0 0 1 1.803-.493c.272-.052.546-.088.822-.108.271-.02.539-.03.803-.03a4.46 4.46 0 0 1 1.2.138c.285.071.547.214.762.414.191.195.328.436.396.7.085.324.125.659.12.994l-.003.493-2.316.156a6.192 6.192 0 0 0-2.3.512 3.29 3.29 0 0 0-1.357 1.093 2.535 2.535 0 0 0-.446 1.448c-.003.484.116.962.347 1.388.243.439.607.798 1.05 1.035a3.55 3.55 0 0 0 1.754.393c.571.013 1.14-.08 1.675-.275a3.86 3.86 0 0 0 1.248-.788c.138-.131.268-.269.39-.413.039.204.111.4.215.58.176.302.448.537.773.67a2.91 2.91 0 0 0 1.13.207c.118 0 .234-.004.346-.01.11-.007.22-.023.327-.05.106-.026.201-.049.288-.068.077-.018.153-.04.227-.07l.219-1.319c-.11.037-.223.064-.338.079-.091.013-.184.02-.277.02Zm-2.971-1.197c-.101.113-.212.217-.33.31a3.816 3.816 0 0 1-.694.434 3.13 3.13 0 0 1-.773.256c-.277.053-.56.08-.842.079a2.25 2.25 0 0 1-.942-.178 1.289 1.289 0 0 1-.584-.502 1.464 1.464 0 0 1-.198-.778c-.02-.328.071-.654.258-.926.215-.25.508-.423.832-.492a6.081 6.081 0 0 1 1.546-.158h1.735l-.008 1.955ZM79.37.334a6.49 6.49 0 0 0-1.298-.118 4.014 4.014 0 0 0-1.268.197c-.389.127-.744.339-1.04.62a2.889 2.889 0 0 0-.694 1.054c-.175.48-.26.987-.248 1.497v1.418h-1.486V6.54h1.486v8.509h2.022v-8.51h2.774V5.003h-2.774V3.367a1.839 1.839 0 0 1 .109-.66c.064-.178.17-.34.307-.472a1.21 1.21 0 0 1 .505-.276c.223-.061.453-.091.684-.089.159 0 .31.007.456.02.146.013.287.033.426.06.139.025.27.052.396.078.112.022.222.055.327.098L79.975.491a4.784 4.784 0 0 0-.605-.157ZM81.58 15.048H83.6V4.805l-2.021.296v9.947ZM83.314.678a1.29 1.29 0 0 0-.684-.187 1.339 1.339 0 0 0-.694.187c-.206.12-.38.29-.505.493-.126.204-.191.44-.188.68-.002.242.063.48.188.689.121.206.296.376.505.492.212.119.451.18.694.178.24.002.476-.059.684-.178.204-.117.372-.287.485-.492.12-.21.18-.448.179-.69a1.324 1.324 0 0 0-.179-.68 1.396 1.396 0 0 0-.485-.492ZM95.313 5.002h-2.477l-3.39 3.703h-.732V.176l-2.021.296v14.576h2.021v-4.826h.033l4.05 4.826h2.615l-4.807-5.384 4.708-4.662ZM101.009 9.612l4.709-4.662h-2.477l-3.392 3.703h-.73V.125L97.096.42v14.576h2.021v-4.825h.034l4.049 4.825h2.616l-4.808-5.384Z"/></svg>