<svg width="255" height="23" viewBox="0 0 255 23" fill="none" xmlns="http://www.w3.org/2000/svg">
<path d="M6.10352e-05 18.3333V4.3346H4.59345V18.3333H6.10352e-05ZM10.8428 6.56258L13.4845 18.3333H8.45743L5.30313 4.3346H8.1226C8.76913 4.32621 9.39647 4.55412 9.88698 4.97545C10.3783 5.37911 10.7158 5.93948 10.8428 6.56258ZM14.1745 18.3333V4.3346H18.7679V18.3333H14.1745ZM22.2373 9.65812C21.7423 9.66294 21.2553 9.53343 20.828 9.28346C20.4065 9.03981 20.0563 8.68962 19.8127 8.26803C19.5625 7.84072 19.4329 7.35355 19.4379 6.85837C19.4322 6.3662 19.5618 5.88194 19.8127 5.4585C20.0589 5.04149 20.4087 4.69511 20.828 4.45294C21.2554 4.20325 21.7423 4.07377 22.2373 4.07828C22.7293 4.07298 23.2134 4.20258 23.637 4.45294C24.0521 4.69723 24.3982 5.04332 24.6424 5.4585C24.893 5.88206 25.0226 6.36624 25.0173 6.85837C25.0219 7.35352 24.8924 7.8406 24.6424 8.26803C24.4007 8.68777 24.0543 9.03766 23.637 9.28346C23.2133 9.53431 22.7289 9.66394 22.2366 9.65812H22.2373ZM25.727 18.3333V4.3346H30.3208V18.3333H25.727ZM36.1361 11.9846C36.149 11.9982 36.2475 12.1592 36.4318 12.4676C36.616 12.7761 36.8558 13.1705 37.1513 13.6507C37.447 14.1307 37.7591 14.64 38.0874 15.1787C38.4158 15.7174 38.7248 16.2268 39.0144 16.7067C39.3028 17.1867 39.6314 17.7289 40.0001 18.3333H34.9532C34.6376 17.8207 34.3516 17.3574 34.0953 16.9433C33.839 16.5293 33.5666 16.0823 33.2779 15.6026C32.9885 15.1233 32.7024 14.6566 32.4196 14.2027C32.1368 13.7488 31.8938 13.3512 31.6905 13.0099C31.4864 12.6684 31.345 12.4383 31.2663 12.3198C31.0714 12.0257 30.956 11.686 30.9315 11.334C30.9511 10.9961 31.0598 10.6695 31.2466 10.3873C31.3255 10.2559 31.4701 10.0225 31.6803 9.68732C31.8906 9.35214 32.1371 8.95456 32.4196 8.49451C32.7022 8.03446 32.9883 7.56454 33.2779 7.08477C33.5675 6.605 33.8399 6.15477 34.0953 5.73416C34.352 5.31398 34.638 4.84735 34.9532 4.33428H40.0001L36.0963 10.7027C35.9755 10.8918 35.9074 11.1097 35.8991 11.334C35.9121 11.5694 35.9943 11.7957 36.1354 11.9846H36.1361Z" fill="white"/>
<path d="M56.0374 4.24792H53.555L48.16 10.4637H47.4186V4.24792H45.3334V18.3477H47.4186V11.973H47.4884L53.3564 18.3676L56.1962 18.3477L49.4637 11.3574L56.0374 4.24792Z" fill="white"/>
<path d="M61.9344 8.15017C61.5631 8.24972 61.2086 8.40364 60.8823 8.60692C60.5435 8.81858 60.2302 9.06846 59.9486 9.35163C59.9019 9.39863 59.8562 9.45096 59.8096 9.50027V8.02112L57.784 8.31897V18.3477H59.8096V10.8454C59.9602 10.7401 60.1161 10.6425 60.2766 10.5531C60.4753 10.4437 60.6809 10.3475 60.8922 10.2651C61.0972 10.1857 61.3058 10.1162 61.5178 10.0566C61.7357 9.99599 61.958 9.95283 62.1827 9.92753C62.4235 9.90112 62.666 9.8945 62.9079 9.9077L63.1462 8.04096C62.7391 8.0119 62.3298 8.04877 61.9344 8.15017Z" fill="white"/>
<path d="M64.9931 18.3477H67.0187V8.02112L64.9931 8.31897V18.3477Z" fill="white"/>
<path d="M66.7308 3.86066C66.5246 3.73468 66.2872 3.66931 66.0456 3.67202C65.801 3.6701 65.5606 3.73534 65.3505 3.86066C65.1434 3.98197 64.9695 4.1525 64.8441 4.35713C64.7182 4.56328 64.6528 4.80073 64.6555 5.04229C64.6535 5.28688 64.7187 5.52731 64.8441 5.73734C64.9655 5.94514 65.1403 6.11659 65.3505 6.23381C65.5626 6.35307 65.8023 6.41466 66.0456 6.41251C66.2859 6.41542 66.5225 6.35372 66.7308 6.23381C66.9351 6.11568 67.1033 5.94402 67.2173 5.73734C67.3366 5.52525 67.3982 5.28561 67.396 5.04229C67.3989 4.80202 67.3371 4.56539 67.2173 4.35713C67.0993 4.15347 66.932 3.98274 66.7308 3.86066Z" fill="white"/>
<path d="M77.9014 8.41827C77.3114 8.12035 76.6554 7.97686 75.9949 8.00123C75.4184 8.00231 74.8455 8.09277 74.2966 8.26935C73.7312 8.44951 73.1934 8.70677 72.6983 9.03389C72.5063 9.15999 72.3223 9.29866 72.1419 9.44131V8.02111L70.1164 8.31896V18.3477H72.1419V10.8056C72.338 10.6907 72.5402 10.5865 72.7477 10.4935C73.0266 10.3701 73.3116 10.2607 73.6015 10.1659C73.8805 10.0749 74.166 10.0052 74.4555 9.95734C74.728 9.91217 75.0037 9.8889 75.28 9.88781C75.604 9.88029 75.9269 9.93076 76.2332 10.0368C76.4859 10.1278 76.7113 10.2816 76.8882 10.4836C77.0707 10.7026 77.1999 10.9609 77.2658 11.2382C77.3503 11.5893 77.3903 11.9496 77.3847 12.3106V18.3477H79.4103V11.8936C79.4366 11.1408 79.3083 10.3905 79.0333 9.68923C78.8089 9.15082 78.4103 8.70329 77.9014 8.41827Z" fill="white"/>
<path d="M88.7734 8.2594C88.4701 8.17633 88.1616 8.11328 87.85 8.07072C87.4945 8.02295 87.1362 7.99974 86.7776 8.00123C86.1297 7.99857 85.488 8.12691 84.891 8.37855C84.2928 8.63191 83.7497 8.99955 83.2923 9.46087C82.8048 9.95834 82.4291 10.5541 82.1902 11.2084C81.9132 11.9752 81.7785 12.7862 81.793 13.6014C81.7711 14.4983 81.9439 15.3892 82.2994 16.2129C82.6105 16.9174 83.1259 17.5123 83.7789 17.9207C84.4934 18.3422 85.3129 18.5523 86.1421 18.5265C86.8705 18.5239 87.5917 18.3823 88.267 18.1094C88.6706 17.9451 89.0511 17.7291 89.3989 17.4666V18.0101C89.4069 18.4575 89.3434 18.9033 89.2106 19.3307C89.096 19.6893 88.8986 20.0158 88.6344 20.2839C88.3501 20.5573 88.0019 20.7553 87.6216 20.8598C87.127 20.9957 86.6152 21.0593 86.1024 21.0485C85.6943 21.0479 85.2866 21.0247 84.8811 20.979C84.4554 20.931 84.0338 20.8514 83.62 20.7407C83.1937 20.6273 82.7756 20.4846 82.3689 20.3137L82.5874 22.0613C82.9525 22.2095 83.3273 22.3322 83.7094 22.4287C84.1113 22.5302 84.5192 22.6065 84.9307 22.6571C85.3655 22.7106 85.8033 22.7371 86.2414 22.7365C87.2188 22.7671 88.1902 22.5735 89.0812 22.1706C89.8045 21.8335 90.4099 21.2869 90.8188 20.6017C91.2187 19.8972 91.4211 19.098 91.4047 18.2881V8.00123L89.4625 8.50133C89.2381 8.40639 89.0079 8.32559 88.7734 8.2594ZM89.1408 16.2129C88.8949 16.356 88.6394 16.482 88.3762 16.5902C88.1445 16.6854 87.9053 16.7618 87.6613 16.8186C87.4234 16.8724 87.1803 16.899 86.9364 16.898C86.34 16.9196 85.7482 16.7862 85.2187 16.5107C84.7571 16.2473 84.3997 15.8339 84.2058 15.3391C83.9665 14.6949 83.8552 14.0102 83.8782 13.3234C83.8694 12.7753 83.9464 12.2292 84.1065 11.7049C84.2367 11.2741 84.4605 10.8774 84.7619 10.5432C85.0558 10.2327 85.4155 9.99186 85.8144 9.83819C86.2678 9.66637 86.7496 9.58214 87.2344 9.58995C87.5472 9.5897 87.8594 9.61627 88.1677 9.66939C88.4834 9.72522 88.7952 9.80148 89.1011 9.89774C89.1984 9.92819 89.2996 9.96859 89.3989 10.0057V16.0609C89.3119 16.1122 89.2226 16.1659 89.1408 16.2129Z" fill="white"/>
<path d="M103.121 8.2197H100.639L97.2409 11.9531H96.5084V3.35425L94.4829 3.65214V18.3477H96.5084V13.4823H96.5415L100.599 18.3477H103.22L98.4033 12.9196L103.121 8.2197Z" fill="white"/>
<path d="M113.508 17.0966C113.363 17.11 113.216 17.0881 113.081 17.0328C112.947 16.9775 112.827 16.8903 112.733 16.7789C112.549 16.4607 112.472 16.0915 112.515 15.7263L112.554 11.6354C112.559 11.2065 112.505 10.779 112.395 10.3644C112.299 10.0008 112.138 9.65769 111.919 9.35162C111.698 9.05248 111.417 8.80232 111.095 8.61685C110.72 8.40423 110.315 8.2502 109.893 8.16009C109.378 8.04896 108.852 7.99568 108.325 8.00123C107.906 8.00105 107.488 8.02758 107.073 8.08066C106.681 8.12995 106.293 8.20628 105.912 8.30906C105.558 8.40504 105.209 8.52105 104.869 8.65656L104.63 10.3446C104.961 10.2254 105.276 10.1261 105.574 10.0467C105.872 9.96727 106.16 9.90105 106.438 9.84809C106.71 9.79604 106.985 9.75959 107.262 9.73888C107.533 9.71902 107.801 9.7091 108.066 9.7091C108.471 9.70055 108.875 9.74729 109.267 9.84809C109.554 9.91976 109.817 10.0633 110.032 10.2651C110.224 10.4616 110.361 10.7046 110.43 10.9701C110.514 11.2976 110.554 11.6349 110.548 11.973L110.546 12.4715L108.225 12.6283C107.431 12.6507 106.649 12.8261 105.922 13.1447C105.377 13.383 104.907 13.7637 104.561 14.2468C104.268 14.6769 104.112 15.1859 104.114 15.7065C104.111 16.195 104.23 16.6765 104.462 17.1065C104.705 17.5483 105.07 17.9105 105.514 18.1491C106.056 18.4309 106.662 18.5677 107.272 18.5463C107.844 18.5595 108.413 18.4652 108.95 18.2683C109.414 18.0865 109.839 17.8168 110.201 17.4739C110.339 17.3422 110.469 17.2033 110.592 17.0579C110.63 17.2635 110.703 17.4612 110.807 17.6427C110.984 17.9468 111.256 18.1841 111.581 18.3179C111.941 18.4623 112.326 18.5332 112.713 18.5265C112.833 18.5265 112.948 18.5231 113.06 18.5165C113.171 18.5102 113.281 18.4936 113.388 18.4669C113.494 18.4404 113.59 18.4172 113.676 18.3974C113.754 18.38 113.831 18.3567 113.905 18.3278L114.123 16.9973C114.014 17.035 113.901 17.0616 113.786 17.0768C113.694 17.089 113.601 17.0956 113.508 17.0966ZM110.201 16.203C109.986 16.3731 109.753 16.5195 109.506 16.6398C109.26 16.7593 109 16.8461 108.732 16.898C108.453 16.9518 108.171 16.9784 107.887 16.9774C107.564 16.9867 107.242 16.9257 106.944 16.7987C106.702 16.6935 106.497 16.5168 106.358 16.2923C106.221 16.0542 106.152 15.7827 106.16 15.5079C106.14 15.1768 106.231 14.8486 106.418 14.5745C106.634 14.3223 106.927 14.1479 107.251 14.078C107.759 13.9586 108.28 13.9052 108.801 13.9192H110.539L110.531 15.8905C110.43 16.0037 110.32 16.1082 110.201 16.203Z" fill="white"/>
<path d="M122.285 13.7802C122.081 13.5648 121.847 13.3808 121.59 13.2341C121.323 13.0814 121.044 12.9519 120.755 12.8468C120.544 12.7806 120.335 12.7111 120.13 12.6383C119.925 12.5655 119.719 12.4993 119.514 12.4397C119.309 12.3802 119.11 12.3172 118.918 12.251C118.738 12.19 118.563 12.117 118.392 12.0326C118.229 11.946 118.073 11.8464 117.925 11.7347C117.789 11.6322 117.675 11.504 117.588 11.3574C117.5 11.2069 117.456 11.0352 117.459 10.8609C117.453 10.6695 117.502 10.4803 117.598 10.3148C117.702 10.1522 117.845 10.0189 118.015 9.92755C118.223 9.81354 118.447 9.73312 118.68 9.68926C118.971 9.63341 119.268 9.60681 119.564 9.60982C119.709 9.60982 119.868 9.61679 120.041 9.6297C120.213 9.64261 120.401 9.66643 120.607 9.69919C120.812 9.73196 121.017 9.77566 121.222 9.82828C121.427 9.88091 121.636 9.94083 121.848 10.007C122.044 10.0675 122.236 10.1404 122.423 10.2254L122.563 8.61688C122.311 8.51141 122.062 8.41874 121.818 8.33887C121.573 8.25979 121.325 8.19351 121.073 8.14029C120.827 8.08841 120.579 8.0519 120.328 8.03104C120.083 8.01118 119.842 8.00126 119.604 8.00126C119.055 7.99565 118.508 8.05901 117.975 8.1899C117.52 8.30088 117.086 8.48896 116.694 8.74597C116.339 8.9811 116.049 9.30212 115.85 9.67932C115.643 10.095 115.54 10.5553 115.552 11.0198C115.546 11.3544 115.6 11.6873 115.712 12.0028C115.806 12.2677 115.947 12.5133 116.129 12.7277C116.305 12.9304 116.509 13.1075 116.734 13.2539C116.969 13.4081 117.218 13.5379 117.479 13.6412C117.624 13.6946 117.777 13.7475 117.936 13.8001C118.095 13.8533 118.25 13.903 118.403 13.949C118.555 13.995 118.703 14.0417 118.849 14.088C118.995 14.1343 119.137 14.1807 119.276 14.227C119.415 14.2734 119.551 14.3164 119.683 14.3561C119.861 14.419 120.033 14.4954 120.199 14.5845C120.345 14.6617 120.482 14.7549 120.607 14.8625C120.717 14.9585 120.805 15.077 120.865 15.21C120.926 15.3476 120.956 15.4965 120.954 15.6469C120.961 15.7938 120.936 15.9404 120.879 16.0761C120.822 16.2118 120.736 16.3331 120.627 16.4313C120.381 16.6367 120.087 16.7768 119.772 16.8384C119.404 16.9198 119.028 16.9598 118.651 16.9576C118.415 16.9562 118.179 16.9396 117.946 16.908C117.688 16.8753 117.416 16.829 117.132 16.769C116.847 16.7089 116.556 16.6361 116.257 16.5505C115.96 16.4649 115.659 16.3689 115.354 16.2625L115.434 17.9506C115.777 18.0697 116.092 18.1657 116.377 18.2385C116.662 18.3113 116.933 18.3742 117.191 18.4272C117.44 18.4789 117.692 18.5121 117.946 18.5265C118.19 18.5397 118.439 18.5463 118.69 18.5463C119.244 18.5491 119.797 18.4925 120.338 18.3775C120.815 18.2807 121.272 18.1027 121.689 17.8513C122.065 17.6219 122.376 17.3007 122.593 16.9179C122.82 16.4977 122.933 16.0252 122.92 15.5477C122.928 15.1992 122.871 14.8522 122.751 14.5249C122.645 14.2492 122.486 13.9965 122.285 13.7802Z" fill="white"/>
<path d="M130.574 16.7491L130.237 16.8086C130.129 16.828 130.019 16.8412 129.909 16.8484C129.803 16.8553 129.704 16.8583 129.611 16.8583C129.307 16.8666 129.005 16.8055 128.728 16.6796C128.489 16.5668 128.291 16.383 128.161 16.1533C128.022 15.8943 127.954 15.6032 127.963 15.3093V9.80838H130.763L130.982 8.2197H127.963V5.082L125.937 5.79689V8.2197H124.408L124.19 9.80838H125.937V15.7263C125.928 16.1211 125.989 16.5143 126.116 16.8881C126.218 17.1838 126.377 17.457 126.583 17.6924C126.772 17.9022 127.002 18.0711 127.258 18.1889C127.521 18.3095 127.798 18.3962 128.082 18.447C128.364 18.4991 128.65 18.5257 128.936 18.5265C129.148 18.5265 129.356 18.5198 129.562 18.5066C129.768 18.4933 129.955 18.4735 130.128 18.447C130.3 18.4206 130.462 18.3908 130.614 18.3577C130.766 18.3246 130.895 18.2951 131.001 18.2683L131.121 16.62C131.043 16.6498 130.964 16.6731 130.883 16.6895C130.791 16.7094 130.688 16.7292 130.574 16.7491Z" fill="white"/>
<path d="M133.227 18.3477H135.252V8.02112L133.227 8.31897V18.3477Z" fill="white"/>
<path d="M134.965 3.86066C134.759 3.73472 134.521 3.66936 134.28 3.67201C134.035 3.67015 133.795 3.73538 133.585 3.86066C133.378 3.98193 133.204 4.15248 133.079 4.35713C132.952 4.56319 132.887 4.80068 132.89 5.04228C132.888 5.28693 132.953 5.52739 133.079 5.73734C133.2 5.94511 133.375 6.11656 133.585 6.23381C133.797 6.35301 134.036 6.4146 134.28 6.41251C134.52 6.41537 134.756 6.35367 134.965 6.23381C135.169 6.11559 135.337 5.94396 135.451 5.73734C135.571 5.52519 135.632 5.28559 135.63 5.04228C135.633 4.80204 135.571 4.56544 135.451 4.35713C135.333 4.15352 135.166 3.98282 134.965 3.86066Z" fill="white"/>
<path d="M146.135 8.41827C145.545 8.12035 144.889 7.97686 144.229 8.00123C143.652 8.00231 143.079 8.09277 142.53 8.26935C141.965 8.44957 141.427 8.70682 140.932 9.03389C140.74 9.15999 140.556 9.29866 140.376 9.44131V8.02111L138.35 8.31896V18.3477H140.376V10.8056C140.572 10.6906 140.774 10.5864 140.982 10.4935C141.261 10.37 141.546 10.2606 141.836 10.1659C142.115 10.0748 142.4 10.0051 142.69 9.95734C142.962 9.91216 143.238 9.88889 143.514 9.88781C143.838 9.88029 144.161 9.93076 144.467 10.0368C144.72 10.1278 144.945 10.2815 145.122 10.4836C145.305 10.7025 145.434 10.9609 145.5 11.2382C145.584 11.5893 145.624 11.9496 145.619 12.3106V18.3477H147.644V11.8936C147.671 11.1407 147.542 10.3905 147.267 9.68923C147.043 9.15082 146.644 8.70329 146.135 8.41827Z" fill="white"/>
<path d="M157.008 8.2594C156.704 8.17633 156.396 8.11328 156.084 8.07072C155.729 8.02294 155.37 7.99973 155.012 8.00123C154.364 7.99857 153.722 8.12691 153.125 8.37855C152.527 8.63191 151.984 8.99955 151.526 9.46087C151.039 9.95841 150.663 10.5542 150.424 11.2084C150.147 11.9752 150.013 12.7862 150.027 13.6014C150.005 14.4983 150.178 15.3892 150.533 16.2129C150.844 16.9174 151.36 17.5123 152.013 17.9207C152.727 18.3423 153.547 18.5523 154.376 18.5265C155.104 18.5239 155.825 18.3823 156.501 18.1094C156.904 17.9451 157.285 17.7291 157.633 17.4666V18.0101C157.641 18.4575 157.577 18.9034 157.444 19.3307C157.33 19.6892 157.133 20.0157 156.869 20.2839C156.584 20.5573 156.236 20.7552 155.855 20.8598C155.361 20.9957 154.849 21.0593 154.336 21.0485C153.928 21.0479 153.521 21.0247 153.115 20.979C152.689 20.931 152.268 20.8514 151.854 20.7407C151.427 20.6273 151.009 20.4846 150.603 20.3137L150.821 22.0613C151.186 22.2095 151.561 22.3323 151.944 22.4287C152.345 22.5302 152.753 22.6065 153.164 22.6571C153.599 22.7106 154.037 22.7371 154.475 22.7365C155.453 22.7671 156.424 22.5735 157.315 22.1706C158.038 21.8336 158.644 21.287 159.053 20.6017C159.453 19.8973 159.655 19.098 159.639 18.2881V8.00123L157.696 8.50133C157.472 8.40639 157.242 8.32559 157.008 8.2594ZM157.375 16.2129C157.129 16.356 156.874 16.4821 156.61 16.5902C156.379 16.6854 156.139 16.7618 155.895 16.8186C155.658 16.8723 155.415 16.899 155.171 16.898C154.574 16.9196 153.982 16.7861 153.453 16.5107C152.991 16.2474 152.634 15.8339 152.44 15.3391C152.201 14.695 152.089 14.0102 152.112 13.3234C152.104 12.7753 152.181 12.2292 152.341 11.7049C152.471 11.2741 152.695 10.8774 152.996 10.5432C153.29 10.2327 153.65 9.99183 154.049 9.83819C154.502 9.66637 154.984 9.58214 155.469 9.58995C155.781 9.58968 156.094 9.61626 156.402 9.66939C156.718 9.72525 157.03 9.80152 157.336 9.89774C157.433 9.92819 157.534 9.96859 157.633 10.0057V16.0609C157.546 16.1122 157.457 16.1659 157.375 16.2129Z" fill="white"/>
<path d="M168.992 13.7802C168.789 13.5647 168.554 13.3807 168.297 13.2341C168.03 13.0815 167.751 12.9519 167.463 12.8468C167.251 12.7806 167.043 12.7111 166.837 12.6383C166.632 12.5655 166.427 12.4993 166.221 12.4397C166.016 12.3802 165.818 12.3172 165.626 12.251C165.446 12.19 165.27 12.1171 165.099 12.0326C164.936 11.9461 164.78 11.8465 164.633 11.7347C164.497 11.6322 164.382 11.504 164.295 11.3574C164.207 11.2069 164.163 11.0352 164.166 10.8609C164.16 10.6695 164.209 10.4803 164.305 10.3148C164.409 10.1524 164.552 10.0191 164.722 9.92755C164.93 9.81364 165.154 9.73323 165.387 9.68925C165.679 9.63341 165.975 9.6068 166.271 9.60982C166.416 9.60982 166.576 9.61679 166.748 9.6297C166.92 9.64261 167.108 9.66643 167.314 9.69919C167.519 9.73196 167.724 9.77566 167.929 9.82828C168.135 9.88091 168.343 9.94083 168.555 10.007C168.751 10.0675 168.943 10.1404 169.13 10.2254L169.27 8.61688C169.018 8.51141 168.77 8.41874 168.525 8.33887C168.28 8.25977 168.032 8.19349 167.78 8.14028C167.535 8.08835 167.286 8.05184 167.036 8.03103C166.791 8.01118 166.549 8.00126 166.311 8.00126C165.762 7.99565 165.215 8.05902 164.682 8.1899C164.227 8.30086 163.794 8.48894 163.401 8.74597C163.046 8.98119 162.756 9.30219 162.557 9.67932C162.35 10.095 162.248 10.5553 162.26 11.0198C162.253 11.3543 162.307 11.6873 162.418 12.0028C162.512 12.2677 162.654 12.5133 162.835 12.7277C163.012 12.9304 163.216 13.1075 163.441 13.2539C163.676 13.4081 163.925 13.5379 164.186 13.6412C164.331 13.6946 164.483 13.7475 164.643 13.8001C164.802 13.8526 164.958 13.9022 165.109 13.949C165.261 13.9955 165.41 14.0419 165.556 14.088C165.701 14.1347 165.844 14.1807 165.983 14.227C166.122 14.2734 166.258 14.3164 166.39 14.3561C166.568 14.419 166.74 14.4954 166.907 14.5845C167.052 14.6617 167.189 14.755 167.314 14.8625C167.424 14.9585 167.511 15.077 167.571 15.21C167.632 15.3475 167.663 15.4965 167.661 15.6469C167.668 15.7938 167.643 15.9404 167.586 16.0761C167.529 16.2118 167.443 16.3332 167.334 16.4313C167.088 16.6367 166.794 16.7768 166.48 16.8384C166.111 16.9197 165.735 16.9597 165.358 16.9576C165.122 16.9562 164.886 16.9396 164.653 16.908C164.394 16.8753 164.123 16.829 163.838 16.769C163.554 16.7089 163.262 16.6361 162.965 16.5505C162.667 16.4649 162.365 16.3689 162.061 16.2625L162.14 17.9506C162.484 18.0697 162.799 18.1657 163.084 18.2385C163.369 18.3113 163.64 18.3742 163.898 18.4272C164.147 18.4789 164.399 18.5121 164.653 18.5265C164.897 18.5397 165.145 18.5463 165.397 18.5463C165.951 18.5491 166.504 18.4925 167.046 18.3775C167.523 18.2806 167.979 18.1026 168.396 17.8513C168.771 17.6219 169.082 17.3006 169.3 16.9179C169.527 16.4977 169.64 16.0252 169.627 15.5476C169.635 15.1992 169.578 14.8523 169.458 14.5249C169.352 14.2493 169.193 13.9966 168.992 13.7802Z" fill="white"/>
<path d="M179.25 8.63837C178.422 8.1988 177.495 7.97992 176.559 8.00288C175.613 7.98137 174.679 8.20727 173.848 8.65821C173.08 9.08774 172.453 9.72884 172.04 10.5051C171.592 11.3761 171.37 12.3458 171.395 13.325C171.37 14.2966 171.577 15.2601 172.001 16.1351C172.381 16.8988 172.988 17.5265 173.738 17.9323C174.546 18.3557 175.448 18.5675 176.36 18.5479C177.314 18.5669 178.258 18.3413 179.101 17.8926C179.887 17.4634 180.532 16.8148 180.957 16.0259C181.419 15.1446 181.647 14.1604 181.623 13.1662C181.645 12.2191 181.434 11.2812 181.007 10.4356C180.611 9.67628 180 9.05099 179.25 8.63837ZM179.13 15.2911C178.907 15.8072 178.529 16.241 178.048 16.5323C177.565 16.8088 177.016 16.9494 176.459 16.9394C175.914 16.953 175.376 16.8082 174.91 16.5223C174.45 16.2165 174.091 15.7811 173.878 15.2712C173.607 14.6172 173.479 13.9132 173.501 13.2059C173.477 12.5177 173.606 11.8328 173.878 11.2002C174.101 10.7029 174.472 10.2867 174.94 10.0086C175.441 9.73286 176.007 9.59577 176.579 9.61144C177.025 9.60032 177.468 9.68496 177.879 9.85968C178.239 10.022 178.553 10.2711 178.793 10.5845C179.049 10.9252 179.234 11.3134 179.339 11.7264C179.463 12.2096 179.523 12.707 179.518 13.2059C179.541 13.9209 179.408 14.6323 179.129 15.2911H179.13Z" fill="white"/>
<path d="M188.235 8.15017C187.864 8.24972 187.509 8.40364 187.182 8.60692C186.844 8.81859 186.531 9.06846 186.249 9.35163C186.202 9.39863 186.157 9.45096 186.11 9.50027V8.02112L184.085 8.31897V18.3477H186.11V10.8454C186.261 10.7402 186.416 10.6426 186.577 10.5531C186.776 10.4437 186.981 10.3475 187.193 10.2651C187.398 10.1857 187.606 10.1162 187.818 10.0566C188.036 9.99603 188.258 9.95287 188.483 9.92753C188.724 9.90112 188.967 9.8945 189.208 9.9077L189.446 8.04096C189.039 8.0119 188.63 8.04877 188.235 8.15017Z" fill="white"/>
<path d="M199.932 8.2197H197.45L194.051 11.9531H193.319V3.35425L191.293 3.65214V18.3477H193.319V13.4823H193.352L197.409 18.3477H200.031L195.214 12.9196L199.932 8.2197Z" fill="white"/>
<path d="M209.405 9.50061C209.023 9.00652 208.52 8.61989 207.945 8.37858C207.306 8.11755 206.62 7.98917 205.929 8.00125C205.234 7.98949 204.543 8.12483 203.904 8.39841C203.322 8.65317 202.803 9.03288 202.384 9.51055C201.953 10.0123 201.629 10.5968 201.431 11.2283C201.205 11.9511 201.094 12.7051 201.104 13.4624C201.075 14.4194 201.276 15.3692 201.689 16.2328C202.067 16.9814 202.676 17.5876 203.427 17.9605C204.308 18.3755 205.274 18.5763 206.247 18.5463C206.715 18.5504 207.183 18.5205 207.647 18.4569C208.035 18.4011 208.417 18.3114 208.789 18.1889C209.158 18.065 209.516 17.9123 209.861 17.7321L210 16.203C209.749 16.2961 209.494 16.3888 209.235 16.481C208.977 16.5732 208.709 16.656 208.431 16.7292C208.151 16.8026 207.866 16.8557 207.578 16.8881C207.287 16.9213 206.996 16.9379 206.704 16.9377C206.182 16.9463 205.662 16.8896 205.154 16.7689C204.745 16.6711 204.367 16.4732 204.053 16.193C203.735 15.8909 203.502 15.5109 203.377 15.0909C203.248 14.6655 203.175 14.2247 203.161 13.7802H210.338C210.435 12.9589 210.399 12.1271 210.228 11.3177C210.089 10.6594 209.808 10.0394 209.405 9.50061ZM204.4 9.9772C204.866 9.69429 205.404 9.55286 205.949 9.5701C206.495 9.54286 207.033 9.70027 207.478 10.0169C207.874 10.3326 208.156 10.7682 208.282 11.2581C208.382 11.6203 208.43 11.9946 208.427 12.3702H203.205C203.241 11.9742 203.326 11.5841 203.456 11.2084C203.626 10.7051 203.958 10.2721 204.4 9.9772Z" fill="white"/>
<path d="M219.095 13.7802C218.892 13.5647 218.657 13.3807 218.4 13.2341C218.133 13.0815 217.854 12.9519 217.566 12.8468C217.354 12.7806 217.146 12.7111 216.94 12.6383C216.735 12.5655 216.53 12.4993 216.324 12.4397C216.119 12.3802 215.921 12.3172 215.729 12.251C215.549 12.19 215.373 12.117 215.203 12.0326C215.039 11.946 214.883 11.8464 214.736 11.7347C214.6 11.6321 214.485 11.5039 214.398 11.3574C214.311 11.2069 214.266 11.0352 214.269 10.8609C214.264 10.6695 214.312 10.4803 214.408 10.3148C214.512 10.1523 214.656 10.019 214.825 9.92755C215.033 9.81358 215.258 9.73316 215.491 9.68925C215.782 9.63341 216.078 9.6068 216.374 9.60982C216.52 9.60982 216.679 9.61679 216.851 9.6297C217.023 9.64261 217.211 9.66643 217.417 9.69919C217.623 9.73196 217.827 9.77566 218.032 9.82828C218.237 9.88091 218.446 9.94083 218.658 10.007C218.854 10.0675 219.047 10.1405 219.234 10.2254L219.373 8.61688C219.121 8.51141 218.873 8.41874 218.628 8.33887C218.384 8.25977 218.135 8.19349 217.884 8.14028C217.638 8.08839 217.389 8.05189 217.139 8.03103C216.894 8.01118 216.652 8.00126 216.414 8.00126C215.866 7.99565 215.318 8.05902 214.786 8.1899C214.33 8.30086 213.897 8.48894 213.505 8.74597C213.149 8.98119 212.859 9.30219 212.661 9.67932C212.453 10.095 212.351 10.5553 212.363 11.0198C212.357 11.3543 212.41 11.6873 212.522 12.0028C212.616 12.2677 212.757 12.5133 212.939 12.7277C213.115 12.9304 213.319 13.1075 213.544 13.2539C213.779 13.4081 214.028 13.5378 214.289 13.6412C214.435 13.6946 214.587 13.7475 214.746 13.8001C214.905 13.8526 215.061 13.9022 215.213 13.949C215.364 13.9955 215.513 14.0419 215.659 14.088C215.805 14.1347 215.947 14.1807 216.086 14.227C216.225 14.2734 216.361 14.3164 216.494 14.3561C216.671 14.419 216.844 14.4954 217.01 14.5845C217.155 14.6617 217.292 14.755 217.417 14.8625C217.527 14.9585 217.615 15.0771 217.675 15.21C217.736 15.3475 217.766 15.4965 217.764 15.6469C217.772 15.7938 217.746 15.9404 217.689 16.0761C217.632 16.2118 217.546 16.3332 217.437 16.4313C217.191 16.6367 216.897 16.7767 216.583 16.8384C216.214 16.9198 215.838 16.9598 215.461 16.9576C215.225 16.9562 214.99 16.9396 214.756 16.908C214.498 16.8753 214.226 16.829 213.942 16.769C213.657 16.7089 213.366 16.6361 213.068 16.5505C212.77 16.4649 212.469 16.3689 212.164 16.2625L212.244 17.9506C212.588 18.0697 212.902 18.1657 213.187 18.2385C213.472 18.3113 213.743 18.3742 214.001 18.4272C214.25 18.4789 214.502 18.5121 214.756 18.5265C215.001 18.5397 215.249 18.5463 215.501 18.5463C216.054 18.5491 216.607 18.4925 217.149 18.3775C217.626 18.2806 218.083 18.1026 218.499 17.8513C218.875 17.6218 219.186 17.3006 219.403 16.9179C219.63 16.4977 219.743 16.0252 219.73 15.5476C219.738 15.1992 219.681 14.8523 219.562 14.5249C219.455 14.2493 219.296 13.9966 219.095 13.7802Z" fill="white"/>
<path d="M227.386 16.7491L227.049 16.8086C226.941 16.828 226.831 16.8413 226.721 16.8484C226.615 16.8553 226.516 16.8583 226.423 16.8583C226.119 16.8666 225.817 16.8055 225.54 16.6796C225.301 16.5667 225.103 16.3829 224.974 16.1533C224.834 15.8943 224.766 15.6032 224.775 15.3093V9.80838H227.575L227.794 8.2197H224.775V5.082L222.749 5.79689V8.2197H221.22L221.001 9.80838H222.749V15.7263C222.74 16.1211 222.801 16.5143 222.928 16.8881C223.03 17.1838 223.189 17.4569 223.395 17.6924C223.584 17.9022 223.813 18.0712 224.07 18.1889C224.333 18.3095 224.609 18.3962 224.894 18.447C225.175 18.4991 225.461 18.5257 225.748 18.5265C225.96 18.5265 226.168 18.5198 226.374 18.5066C226.579 18.4933 226.768 18.4735 226.94 18.447C227.111 18.4202 227.274 18.3908 227.426 18.3577C227.578 18.3246 227.707 18.2951 227.813 18.2683L227.933 16.62C227.855 16.6498 227.775 16.673 227.694 16.6895C227.602 16.7094 227.499 16.7292 227.386 16.7491Z" fill="white"/>
<path d="M234.188 8.15017C233.816 8.24971 233.462 8.40362 233.135 8.60692C232.797 8.81857 232.483 9.06845 232.202 9.35163C232.155 9.39863 232.11 9.45096 232.063 9.50027V8.02112L230.037 8.31897V18.3477H232.063V10.8454C232.213 10.7402 232.369 10.6426 232.53 10.5531C232.728 10.4437 232.934 10.3475 233.146 10.2651C233.35 10.1857 233.559 10.1162 233.771 10.0566C233.989 9.99603 234.211 9.95287 234.436 9.92753C234.677 9.90112 234.919 9.8945 235.161 9.9077L235.399 8.04096C234.992 8.01189 234.583 8.04876 234.188 8.15017Z" fill="white"/>
<path d="M244.931 9.50061C244.55 9.00652 244.047 8.61989 243.472 8.37858C242.832 8.11755 242.147 7.98917 241.456 8.00125C240.76 7.98947 240.07 8.12481 239.431 8.39841C238.849 8.65317 238.33 9.03288 237.911 9.51055C237.48 10.0124 237.156 10.5969 236.958 11.2283C236.731 11.9511 236.621 12.7051 236.63 13.4624C236.602 14.4193 236.803 15.3691 237.216 16.2328C237.593 16.9813 238.203 17.5874 238.954 17.9605C239.834 18.3755 240.801 18.5762 241.774 18.5463C242.242 18.5504 242.71 18.5205 243.174 18.4569C243.561 18.4012 243.944 18.3115 244.316 18.1889C244.685 18.065 245.043 17.9123 245.388 17.7321L245.527 16.203C245.275 16.2961 245.02 16.3888 244.762 16.481C244.504 16.5732 244.236 16.656 243.958 16.7292C243.678 16.8027 243.392 16.8557 243.104 16.8881C242.814 16.9213 242.522 16.9379 242.231 16.9377C241.709 16.9463 241.189 16.8896 240.681 16.7689C240.272 16.6712 239.893 16.4733 239.579 16.193C239.262 15.8909 239.029 15.5109 238.904 15.0909C238.774 14.6655 238.702 14.2247 238.688 13.7802H245.864C245.962 12.9589 245.925 12.1271 245.755 11.3177C245.616 10.6594 245.335 10.0394 244.931 9.50061ZM239.927 9.9772C240.393 9.69429 240.931 9.55286 241.476 9.5701C242.021 9.54288 242.56 9.70029 243.005 10.0169C243.4 10.3327 243.683 10.7682 243.809 11.2581C243.908 11.6204 243.957 11.9946 243.954 12.3702H238.731C238.768 11.9742 238.853 11.5841 238.983 11.2084C239.153 10.705 239.485 10.272 239.927 9.9772Z" fill="white"/>
<path d="M253.908 16.6895C253.815 16.7094 253.712 16.7292 253.599 16.7491L253.262 16.8086C253.154 16.828 253.044 16.8412 252.935 16.8484C252.828 16.8553 252.729 16.8583 252.637 16.8583C252.332 16.8666 252.03 16.8055 251.753 16.6796C251.515 16.5667 251.317 16.3829 251.187 16.1533C251.048 15.8943 250.979 15.6032 250.988 15.3093V9.80838H253.788L254.007 8.2197H250.988V5.082L248.963 5.79689V8.2197H247.434L247.215 9.80838H248.963V15.7263C248.954 16.1211 249.014 16.5143 249.142 16.8881C249.244 17.1838 249.402 17.4569 249.608 17.6924C249.797 17.9021 250.027 18.071 250.283 18.1889C250.546 18.3095 250.823 18.3962 251.107 18.447C251.389 18.4991 251.675 18.5257 251.961 18.5265C252.173 18.5265 252.382 18.5198 252.587 18.5066C252.792 18.4933 252.981 18.4735 253.153 18.447C253.325 18.4202 253.487 18.3908 253.64 18.3577C253.792 18.3246 253.921 18.2951 254.026 18.2683L254.146 16.62C254.069 16.6498 253.989 16.673 253.908 16.6895Z" fill="white"/>
</svg>
