<svg xmlns="http://www.w3.org/2000/svg" viewBox="0 0 36 36"><path fill="#000" fill-rule="evenodd" d="M0 0h36v36H0V0Zm11.626 16H8.308v12.056h3.318V16Zm4.208 0h-3.727s2.117 3.47 2.141 3.514c.163.276.172.444.014.71l-2.155 3.528h3.727s1.797-2.935 2.042-3.342c.244-.408.233-.661-.01-1.08-.247-.421-.264-.447-1.72-2.822l-.002-.003-.31-.505Zm10.436 0s1.109 1.784 1.234 1.997c.244.42.255.674.01 1.083l-1.637 2.71c.269.438.627 1.011.941 1.515.323.518.6.96.686 1.108.244.42.255.674.01 1.083l-.266.445c-.332.557-.873 1.465-1.27 2.116h-3.406l1.865-3.06-1.934-3.241 1.734-2.838h-4.2L18.294 16h7.976Zm-6.438 6.19c-.525.857-1.403 2.292-1.567 2.572-.235.404-.245.648-.01 1.042.165.273 1.05 1.72 1.577 2.58.527-.86 1.412-2.307 1.577-2.58.235-.394.225-.638-.01-1.042-.164-.28-1.042-1.715-1.567-2.571ZM8.308 7.432v6.783h2.226V7.43H8.308Zm6.534 6.783-1.28-5.703a1.342 1.342 0 0 0-.463-.77 1.287 1.287 0 0 0-.855-.31h-1.366l1.528 6.783h2.436Zm.335-6.783v6.783h2.226V7.43h-2.226ZM18.4 9.83c.207.121.443.184.683.182.239.002.473-.06.678-.182a1.356 1.356 0 0 0 .67-1.175 1.304 1.304 0 0 0-.182-.678 1.374 1.374 0 0 0-.488-.487 1.305 1.305 0 0 0-.678-.182 1.363 1.363 0 0 0-1.175.669 1.3 1.3 0 0 0-.181.678 1.346 1.346 0 0 0 .674 1.175Zm2.374-2.398v6.783h2.227V7.43h-2.227Zm5.188 3.94a5.241 5.241 0 0 0-.143-.233.58.58 0 0 1-.115-.315.61.61 0 0 1 .096-.306l1.891-3.086h-2.445a305.985 305.985 0 0 0-.812 1.333 107.797 107.797 0 0 1-.985 1.6.927.927 0 0 0-.152.459c.011.17.067.335.162.477.038.058.107.17.205.335.099.165.217.358.354.578.137.22.275.446.416.678.14.232.272.449.396.65l.416.673h2.445a150.16 150.16 0 0 1-.477-.788 198.775 198.775 0 0 0-.903-1.48c-.143-.234-.26-.425-.349-.574Z" clip-rule="evenodd"/></svg>