<svg width="229" height="24" viewBox="0 0 229 24" fill="none" xmlns="http://www.w3.org/2000/svg">
<rect width="229" height="24" fill="#01405C"/>
<path d="M6.00427 18.0002V6.00133H9.94146V18.0002H6.00427ZM15.2981 7.91102L17.5623 18.0002H13.2534L10.5498 6.00133H12.9664C13.5206 5.99414 14.0583 6.18949 14.4788 6.55063C14.8999 6.89663 15.1892 7.37694 15.2981 7.91102ZM18.1538 18.0002V6.00133H22.091V18.0002H18.1538ZM25.0647 10.5643C24.6405 10.5685 24.223 10.4575 23.8568 10.2432C23.4955 10.0344 23.1954 9.7342 22.9865 9.37284C22.7721 9.00658 22.661 8.58901 22.6652 8.16456C22.6604 7.74271 22.7715 7.32762 22.9865 6.96467C23.1976 6.60723 23.4974 6.31034 23.8568 6.10276C24.2231 5.88875 24.6405 5.77776 25.0647 5.78163C25.4865 5.77709 25.9014 5.88817 26.2645 6.10276C26.6203 6.31216 26.9169 6.60881 27.1263 6.96467C27.3411 7.32773 27.4522 7.74274 27.4476 8.16456C27.4515 8.58897 27.3405 9.00647 27.1263 9.37284C26.9191 9.73262 26.6222 10.0325 26.2645 10.2432C25.9014 10.4582 25.4862 10.5693 25.0642 10.5643H25.0647ZM28.0559 18.0002V6.00133H31.9934V18.0002H28.0559ZM36.978 12.5585C36.9891 12.5701 37.0735 12.7081 37.2314 12.9725C37.3893 13.2369 37.5949 13.5749 37.8482 13.9865C38.1017 14.398 38.3692 14.8345 38.6506 15.2962C38.932 15.758 39.1969 16.1946 39.4451 16.606C39.6924 17.0174 39.974 17.4822 40.29 18.0002H35.9641C35.6936 17.5608 35.4484 17.1637 35.2287 16.8088C35.0091 16.4539 34.7756 16.0708 34.5281 15.6596C34.2801 15.2487 34.0349 14.8488 33.7925 14.4597C33.5501 14.0706 33.3418 13.7299 33.1675 13.4373C32.9925 13.1446 32.8713 12.9474 32.8039 12.8458C32.6368 12.5937 32.5379 12.3025 32.517 12.0008C32.5337 11.7112 32.6269 11.4312 32.787 11.1894C32.8546 11.0767 32.9786 10.8767 33.1588 10.5894C33.339 10.3021 33.5503 9.9613 33.7925 9.56697C34.0347 9.17264 34.2799 8.76985 34.5281 8.35862C34.7763 7.94739 35.0098 7.56148 35.2287 7.20095C35.4488 6.8408 35.6939 6.44083 35.9641 6.00106H40.29L36.9439 11.4597C36.8404 11.6218 36.782 11.8086 36.7749 12.0008C36.786 12.2026 36.8565 12.3966 36.9774 12.5585H36.978Z" fill="white"/>
<path d="M54.1748 6.0021H52.0471L47.4228 11.2875H46.7873V6.0021H45V17.9915H46.7873V12.5709H46.8472L51.8768 18.0084L54.311 17.9915L48.5403 12.0475L54.1748 6.0021Z" fill="#85E6D6"/>
<path d="M59.2295 9.32027C58.9112 9.40493 58.6073 9.53581 58.3276 9.70866C58.0373 9.88865 57.7687 10.1011 57.5273 10.3419C57.4873 10.3819 57.4481 10.4264 57.4081 10.4683V9.21054L55.6719 9.46381V17.9915H57.4081V11.6121C57.5372 11.5226 57.6709 11.4396 57.8085 11.3635C57.9788 11.2705 58.155 11.1887 58.3361 11.1187C58.5118 11.0511 58.6906 10.992 58.8723 10.9414C59.0591 10.8898 59.2496 10.8531 59.4422 10.8316C59.6486 10.8092 59.8565 10.8035 60.0639 10.8147L60.2681 9.22741C59.9191 9.2027 59.5684 9.23405 59.2295 9.32027Z" fill="#85E6D6"/>
<path d="M61.8512 17.9915H63.5874V9.21054L61.8512 9.46381V17.9915Z" fill="#85E6D6"/>
<path d="M63.3406 5.6728C63.1639 5.56568 62.9604 5.5101 62.7533 5.51239C62.5437 5.51076 62.3376 5.56624 62.1575 5.6728C61.98 5.77596 61.8309 5.92096 61.7234 6.09496C61.6155 6.27026 61.5595 6.47217 61.5618 6.67757C61.5601 6.88555 61.616 7.08999 61.7234 7.26859C61.8275 7.44529 61.9774 7.59107 62.1575 7.69075C62.3393 7.79216 62.5447 7.84453 62.7533 7.84271C62.9592 7.84518 63.1621 7.79271 63.3406 7.69075C63.5157 7.5903 63.6599 7.44434 63.7576 7.26859C63.8599 7.08824 63.9127 6.88447 63.9108 6.67757C63.9133 6.47327 63.8603 6.27205 63.7576 6.09496C63.6565 5.92178 63.5131 5.77661 63.3406 5.6728Z" fill="#85E6D6"/>
<path d="M72.9154 9.54825C72.4097 9.29492 71.8475 9.17291 71.2813 9.19363C70.7871 9.19455 70.296 9.27147 69.8256 9.42162C69.341 9.57482 68.88 9.79357 68.4556 10.0717C68.2911 10.179 68.1333 10.2969 67.9787 10.4182V9.21053L66.2425 9.4638V17.9915H67.9787V11.5783C68.1468 11.4806 68.3201 11.392 68.4979 11.3129C68.737 11.2079 68.9813 11.1149 69.2298 11.0343C69.4689 10.9569 69.7136 10.8977 69.9618 10.857C70.1954 10.8186 70.4317 10.7988 70.6685 10.7978C70.9462 10.7914 71.223 10.8344 71.4855 10.9245C71.7021 11.0019 71.8953 11.1327 72.047 11.3044C72.2034 11.4907 72.3141 11.7103 72.3707 11.9461C72.4431 12.2446 72.4773 12.551 72.4725 12.858V17.9915H74.2087V12.5034C74.2313 11.8632 74.1214 11.2253 73.8856 10.629C73.6933 10.1712 73.3516 9.79061 72.9154 9.54825Z" fill="#85E6D6"/>
<path d="M82.2343 9.41316C81.9743 9.34252 81.7098 9.28891 81.4427 9.25272C81.1381 9.2121 80.831 9.19236 80.5236 9.19363C79.9683 9.19137 79.4182 9.3005 78.9065 9.51447C78.3938 9.72991 77.9283 10.0425 77.5362 10.4348C77.1183 10.8578 76.7963 11.3644 76.5915 11.9208C76.3541 12.5728 76.2387 13.2625 76.2511 13.9556C76.2323 14.7182 76.3804 15.4758 76.6851 16.1762C76.9518 16.7753 77.3936 17.2811 77.9532 17.6284C78.5657 17.9868 79.2682 18.1655 79.9789 18.1435C80.6032 18.1413 81.2214 18.0209 81.8002 17.7889C82.1461 17.6492 82.4723 17.4654 82.7704 17.2423V17.7044C82.7773 18.0849 82.7228 18.464 82.6091 18.8274C82.5108 19.1322 82.3416 19.4099 82.1151 19.6379C81.8714 19.8704 81.573 20.0387 81.247 20.1276C80.823 20.2432 80.3844 20.2972 79.9448 20.2881C79.595 20.2875 79.2456 20.2678 78.898 20.2289C78.5331 20.1881 78.1718 20.1204 77.8171 20.0263C77.4516 19.9299 77.0933 19.8085 76.7447 19.6632L76.932 21.1493C77.2449 21.2753 77.5662 21.3796 77.8937 21.4617C78.2382 21.5479 78.5878 21.6128 78.9405 21.6559C79.3132 21.7013 79.6885 21.7239 80.064 21.7234C80.9018 21.7494 81.7344 21.5848 82.4981 21.2422C83.1181 20.9556 83.637 20.4908 83.9875 19.9081C84.3303 19.3091 84.5038 18.6295 84.4897 17.9408V9.19363L82.8249 9.61888C82.6326 9.53815 82.4353 9.46945 82.2343 9.41316ZM82.5492 16.1762C82.3384 16.2979 82.1194 16.405 81.8939 16.497C81.6952 16.578 81.4902 16.643 81.281 16.6912C81.0772 16.737 80.8687 16.7596 80.6597 16.7588C80.1485 16.7771 79.6412 16.6637 79.1874 16.4295C78.7918 16.2055 78.4854 15.8539 78.3192 15.4332C78.1141 14.8855 78.0187 14.3032 78.0384 13.7192C78.0308 13.2531 78.0969 12.7887 78.2341 12.3429C78.3457 11.9766 78.5375 11.6393 78.7958 11.3551C79.0478 11.0911 79.3561 10.8863 79.698 10.7556C80.0866 10.6095 80.4996 10.5379 80.9151 10.5446C81.1832 10.5443 81.4508 10.5669 81.7151 10.6121C81.9857 10.6596 82.253 10.7244 82.5151 10.8063C82.5985 10.8322 82.6853 10.8665 82.7704 10.898V16.047C82.6958 16.0906 82.6193 16.1362 82.5492 16.1762Z" fill="#85E6D6"/>
<path d="M94.5326 9.3794H92.4049L89.4921 12.554H88.8643V5.24219L87.1281 5.49549V17.9915H88.8643V13.8543H88.8927L92.3705 17.9915H94.6174L90.4885 13.3759L94.5326 9.3794Z" fill="#85E6D6"/>
<path d="M103.435 16.9276C103.311 16.939 103.185 16.9204 103.07 16.8734C102.954 16.8263 102.852 16.7523 102.771 16.6575C102.613 16.387 102.548 16.073 102.584 15.7625L102.618 12.2839C102.622 11.9192 102.576 11.5556 102.482 11.2031C102.399 10.894 102.261 10.6022 102.073 10.3419C101.884 10.0875 101.643 9.87482 101.367 9.71711C101.046 9.53631 100.698 9.40533 100.337 9.32872C99.8953 9.23422 99.4443 9.18891 98.9924 9.19363C98.6337 9.19348 98.2755 9.21604 97.9197 9.26117C97.5838 9.30309 97.2511 9.36799 96.9242 9.45538C96.6208 9.537 96.3223 9.63565 96.0302 9.75088L95.826 11.1862C96.1097 11.0849 96.3793 11.0005 96.6348 10.933C96.8903 10.8654 97.137 10.8091 97.375 10.7641C97.6086 10.7198 97.8446 10.6888 98.0817 10.6712C98.314 10.6543 98.5437 10.6459 98.7708 10.6459C99.1179 10.6386 99.4643 10.6783 99.8006 10.7641C100.046 10.825 100.272 10.9471 100.456 11.1187C100.62 11.2857 100.738 11.4924 100.797 11.7182C100.869 11.9966 100.903 12.2834 100.899 12.5709L100.897 12.9948L98.9073 13.1282C98.2267 13.1472 97.5563 13.2963 96.9327 13.5672C96.466 13.7699 96.0631 14.0936 95.7664 14.5044C95.515 14.8701 95.3815 15.303 95.3837 15.7456C95.3804 16.161 95.4828 16.5705 95.6816 16.9361C95.8896 17.3118 96.2029 17.6197 96.5835 17.8226C97.048 18.0622 97.567 18.1786 98.0902 18.1604C98.5802 18.1716 99.0681 18.0914 99.5283 17.924C99.9263 17.7694 100.291 17.5401 100.601 17.2485C100.719 17.1364 100.83 17.0184 100.936 16.8947C100.969 17.0695 101.031 17.2376 101.12 17.392C101.272 17.6506 101.505 17.8524 101.784 17.9662C102.092 18.089 102.422 18.1493 102.754 18.1435C102.856 18.1435 102.955 18.1407 103.052 18.135C103.147 18.1297 103.241 18.1155 103.333 18.0928C103.424 18.0703 103.506 18.0506 103.58 18.0337C103.646 18.0189 103.712 17.9991 103.775 17.9746L103.963 16.8432C103.869 16.8752 103.772 16.8979 103.673 16.9108C103.594 16.9212 103.515 16.9268 103.435 16.9276ZM100.601 16.1678C100.416 16.3124 100.217 16.437 100.005 16.5392C99.7945 16.6408 99.5713 16.7147 99.3413 16.7588C99.1029 16.8045 98.8605 16.8271 98.6176 16.8263C98.3403 16.8342 98.0645 16.7823 97.8093 16.6743C97.6016 16.5849 97.4263 16.4347 97.3069 16.2438C97.1892 16.0413 97.1303 15.8104 97.1367 15.5767C97.1201 15.2952 97.1979 15.0161 97.358 14.7831C97.5433 14.5686 97.7943 14.4203 98.0726 14.3609C98.5075 14.2594 98.9539 14.214 99.4006 14.2258H100.891L100.884 15.9021C100.797 15.9983 100.702 16.0872 100.601 16.1678Z" fill="#85E6D6"/>
<path d="M110.958 14.1076C110.784 13.9245 110.583 13.768 110.362 13.6433C110.134 13.5135 109.895 13.4033 109.647 13.314C109.466 13.2577 109.287 13.1986 109.111 13.1367C108.935 13.0747 108.759 13.0185 108.583 12.9678C108.407 12.9171 108.237 12.8636 108.073 12.8074C107.918 12.7554 107.768 12.6934 107.622 12.6216C107.482 12.548 107.348 12.4632 107.222 12.3683C107.105 12.2812 107.007 12.1721 106.933 12.0475C106.857 11.9195 106.819 11.7735 106.822 11.6253C106.817 11.4625 106.858 11.3017 106.941 11.1609C107.03 11.0227 107.153 10.9093 107.298 10.8316C107.477 10.7347 107.669 10.6663 107.869 10.629C108.118 10.5815 108.372 10.5589 108.626 10.5615C108.751 10.5615 108.887 10.5674 109.035 10.5784C109.183 10.5893 109.344 10.6096 109.52 10.6375C109.696 10.6653 109.871 10.7025 110.047 10.7472C110.223 10.792 110.402 10.8429 110.584 10.8992C110.752 10.9506 110.917 11.0127 111.077 11.0849L111.196 9.71713C110.98 9.62745 110.768 9.54865 110.558 9.48073C110.348 9.41349 110.135 9.35713 109.92 9.31187C109.709 9.26776 109.496 9.23672 109.281 9.21898C109.071 9.20209 108.864 9.19366 108.66 9.19366C108.19 9.18888 107.721 9.24277 107.264 9.35406C106.874 9.44843 106.503 9.60836 106.166 9.8269C105.862 10.0268 105.613 10.2998 105.443 10.6205C105.265 10.974 105.177 11.3654 105.188 11.7604C105.183 12.0449 105.229 12.328 105.324 12.5963C105.405 12.8215 105.526 13.0303 105.682 13.2126C105.833 13.385 106.008 13.5356 106.201 13.6601C106.402 13.7912 106.616 13.9016 106.839 13.9894C106.964 14.0348 107.094 14.0799 107.231 14.1245C107.367 14.1698 107.5 14.212 107.631 14.2512C107.761 14.2903 107.889 14.33 108.013 14.3694C108.138 14.4088 108.26 14.4482 108.379 14.4876C108.498 14.527 108.615 14.5635 108.729 14.5973C108.881 14.6508 109.029 14.7158 109.171 14.7915C109.296 14.8572 109.413 14.9364 109.52 15.0279C109.614 15.1096 109.69 15.2104 109.741 15.3235C109.793 15.4404 109.82 15.5671 109.818 15.695C109.824 15.8198 109.802 15.9445 109.753 16.0599C109.705 16.1753 109.631 16.2785 109.537 16.362C109.326 16.5366 109.074 16.6557 108.805 16.7081C108.489 16.7773 108.167 16.8113 107.843 16.8095C107.641 16.8082 107.439 16.7941 107.239 16.7673C107.018 16.7395 106.785 16.7001 106.541 16.649C106.297 16.598 106.048 16.5361 105.792 16.4633C105.537 16.3905 105.279 16.3089 105.018 16.2184L105.086 17.6538C105.381 17.7551 105.65 17.8367 105.894 17.8987C106.139 17.9606 106.371 18.014 106.592 18.0591C106.806 18.1031 107.022 18.1313 107.239 18.1435C107.449 18.1548 107.662 18.1604 107.877 18.1604C108.352 18.1628 108.826 18.1146 109.29 18.0168C109.699 17.9345 110.09 17.7832 110.448 17.5694C110.77 17.3744 111.036 17.1012 111.222 16.7757C111.417 16.4184 111.514 16.0166 111.503 15.6105C111.51 15.3142 111.461 15.0192 111.358 14.7409C111.267 14.5065 111.131 14.2915 110.958 14.1076Z" fill="#85E6D6"/>
<path d="M118.064 16.6322L117.775 16.6828C117.682 16.6992 117.588 16.7105 117.493 16.7166C117.403 16.7225 117.317 16.725 117.238 16.725C116.977 16.7321 116.718 16.6801 116.481 16.573C116.276 16.4771 116.107 16.3208 115.995 16.1255C115.876 15.9053 115.818 15.6578 115.825 15.4079V10.7303H118.225L118.413 9.3794H115.825V6.71134L114.089 7.31923V9.3794H112.778L112.591 10.7303H114.089V15.7625C114.081 16.0981 114.133 16.4325 114.242 16.7503C114.33 17.0018 114.466 17.2341 114.643 17.4343C114.804 17.6126 115.001 17.7563 115.221 17.8564C115.446 17.959 115.684 18.0328 115.927 18.076C116.169 18.1202 116.414 18.1428 116.659 18.1435C116.841 18.1435 117.019 18.1379 117.196 18.1266C117.372 18.1153 117.533 18.0985 117.681 18.076C117.828 18.0534 117.967 18.0281 118.098 18C118.228 17.9718 118.339 17.9468 118.43 17.924L118.532 16.5224C118.466 16.5477 118.397 16.5675 118.328 16.5815C118.249 16.5984 118.161 16.6153 118.064 16.6322Z" fill="#85E6D6"/>
<path d="M120.337 17.9915H122.073V9.21054L120.337 9.46381V17.9915Z" fill="#85E6D6"/>
<path d="M121.827 5.6728C121.65 5.56571 121.447 5.51013 121.24 5.51239C121.03 5.51081 120.824 5.56628 120.644 5.6728C120.466 5.77592 120.318 5.92094 120.21 6.09496C120.102 6.27018 120.046 6.47212 120.048 6.67756C120.046 6.88559 120.103 7.09006 120.21 7.26859C120.314 7.44526 120.464 7.59105 120.644 7.69075C120.826 7.79211 121.031 7.84448 121.24 7.8427C121.446 7.84514 121.648 7.79267 121.827 7.69075C122.002 7.59023 122.146 7.44429 122.244 7.26859C122.346 7.08819 122.399 6.88445 122.397 6.67756C122.4 6.47328 122.347 6.27209 122.244 6.09496C122.143 5.92183 121.999 5.77667 121.827 5.6728Z" fill="#85E6D6"/>
<path d="M131.402 9.54825C130.896 9.29492 130.334 9.17291 129.767 9.19363C129.273 9.19455 128.782 9.27147 128.312 9.42162C127.827 9.57486 127.366 9.79361 126.942 10.0717C126.777 10.179 126.619 10.2969 126.465 10.4182V9.21053L124.729 9.4638V17.9915H126.465V11.5783C126.633 11.4805 126.806 11.3919 126.984 11.3129C127.223 11.2078 127.468 11.1148 127.716 11.0343C127.955 10.9569 128.2 10.8976 128.448 10.857C128.682 10.8185 128.918 10.7988 129.155 10.7978C129.432 10.7914 129.709 10.8344 129.972 10.9245C130.188 11.0019 130.381 11.1326 130.533 11.3044C130.69 11.4906 130.8 11.7103 130.857 11.9461C130.929 12.2446 130.963 12.551 130.959 12.858V17.9915H132.695V12.5034C132.718 11.8632 132.608 11.2253 132.372 10.629C132.179 10.1712 131.838 9.79061 131.402 9.54825Z" fill="#85E6D6"/>
<path d="M140.721 9.41316C140.461 9.34252 140.196 9.28891 139.929 9.25272C139.624 9.2121 139.317 9.19236 139.01 9.19363C138.455 9.19137 137.905 9.3005 137.393 9.51448C136.88 9.72991 136.415 10.0425 136.023 10.4348C135.605 10.8579 135.283 11.3644 135.078 11.9208C134.84 12.5728 134.725 13.2625 134.737 13.9556C134.719 14.7182 134.867 15.4758 135.171 16.1762C135.438 16.7753 135.88 17.2812 136.44 17.6284C137.052 17.9869 137.754 18.1655 138.465 18.1435C139.089 18.1413 139.707 18.0209 140.286 17.7889C140.632 17.6492 140.958 17.4654 141.257 17.2423V17.7044C141.264 18.0849 141.209 18.464 141.095 18.8274C140.997 19.1322 140.828 19.4098 140.602 19.6379C140.358 19.8703 140.059 20.0387 139.733 20.1276C139.309 20.2432 138.871 20.2972 138.431 20.2881C138.081 20.2876 137.732 20.2678 137.384 20.2289C137.019 20.1882 136.658 20.1204 136.303 20.0263C135.938 19.9299 135.579 19.8085 135.231 19.6632L135.418 21.1493C135.731 21.2753 136.053 21.3797 136.38 21.4617C136.725 21.548 137.074 21.6128 137.427 21.6559C137.799 21.7013 138.175 21.7239 138.55 21.7234C139.388 21.7494 140.221 21.5848 140.984 21.2422C141.604 20.9557 142.123 20.4908 142.474 19.9081C142.816 19.3091 142.99 18.6295 142.976 17.9408V9.19363L141.311 9.61888C141.119 9.53815 140.922 9.46945 140.721 9.41316ZM141.036 16.1762C140.825 16.2979 140.606 16.4051 140.38 16.497C140.182 16.578 139.977 16.643 139.767 16.6912C139.564 16.737 139.355 16.7596 139.146 16.7588C138.635 16.7771 138.128 16.6637 137.674 16.4295C137.278 16.2056 136.972 15.854 136.806 15.4332C136.601 14.8855 136.505 14.3032 136.525 13.7192C136.517 13.2531 136.583 12.7887 136.721 12.3429C136.832 11.9766 137.024 11.6393 137.282 11.3551C137.534 11.0911 137.842 10.8863 138.184 10.7556C138.573 10.6095 138.986 10.5379 139.402 10.5446C139.67 10.5443 139.937 10.5669 140.201 10.6121C140.472 10.6596 140.74 10.7245 141.002 10.8063C141.085 10.8322 141.172 10.8665 141.257 10.898V16.047C141.182 16.0906 141.106 16.1362 141.036 16.1762Z" fill="#85E6D6"/>
<path d="M150.993 14.1076C150.819 13.9244 150.618 13.768 150.397 13.6433C150.169 13.5135 149.93 13.4033 149.682 13.314C149.501 13.2577 149.322 13.1986 149.146 13.1367C148.97 13.0747 148.794 13.0185 148.618 12.9678C148.442 12.9171 148.272 12.8636 148.108 12.8074C147.953 12.7555 147.803 12.6934 147.657 12.6216C147.517 12.548 147.383 12.4633 147.257 12.3683C147.14 12.2812 147.042 12.1721 146.967 12.0475C146.892 11.9195 146.854 11.7735 146.856 11.6253C146.852 11.4625 146.893 11.3017 146.976 11.1609C147.065 11.0228 147.188 10.9095 147.333 10.8316C147.511 10.7348 147.704 10.6664 147.903 10.629C148.153 10.5815 148.407 10.5589 148.661 10.5615C148.785 10.5615 148.922 10.5674 149.069 10.5784C149.217 10.5893 149.378 10.6096 149.554 10.6375C149.731 10.6653 149.906 10.7025 150.082 10.7472C150.258 10.792 150.437 10.8429 150.618 10.8992C150.787 10.9506 150.951 11.0126 151.112 11.0849L151.231 9.71713C151.016 9.62745 150.803 9.54865 150.593 9.48073C150.383 9.41347 150.17 9.35711 149.955 9.31187C149.744 9.26771 149.531 9.23667 149.316 9.21897C149.106 9.20209 148.899 9.19365 148.695 9.19365C148.225 9.18889 147.756 9.24277 147.299 9.35406C146.909 9.44841 146.537 9.60834 146.201 9.8269C145.897 10.0269 145.648 10.2999 145.478 10.6205C145.3 10.974 145.212 11.3654 145.222 11.7604C145.217 12.0449 145.263 12.328 145.359 12.5963C145.439 12.8215 145.56 13.0304 145.716 13.2126C145.867 13.385 146.042 13.5356 146.235 13.6601C146.436 13.7912 146.65 13.9016 146.874 13.9894C146.998 14.0348 147.129 14.0799 147.265 14.1245C147.402 14.1692 147.535 14.2114 147.665 14.2512C147.795 14.2907 147.923 14.3302 148.048 14.3694C148.173 14.4091 148.295 14.4482 148.414 14.4876C148.533 14.527 148.649 14.5635 148.763 14.5973C148.915 14.6509 149.063 14.7158 149.206 14.7915C149.33 14.8572 149.447 14.9365 149.554 15.0279C149.649 15.1096 149.724 15.2104 149.775 15.3235C149.828 15.4404 149.854 15.5671 149.852 15.6949C149.858 15.8198 149.836 15.9445 149.788 16.0599C149.739 16.1753 149.665 16.2785 149.571 16.362C149.361 16.5366 149.109 16.6557 148.84 16.7081C148.524 16.7773 148.201 16.8113 147.878 16.8095C147.676 16.8082 147.474 16.7941 147.274 16.7673C147.052 16.7395 146.82 16.7001 146.576 16.649C146.332 16.598 146.082 16.5361 145.827 16.4633C145.571 16.3905 145.313 16.3089 145.052 16.2184L145.12 17.6538C145.415 17.7551 145.685 17.8367 145.929 17.8987C146.173 17.9606 146.406 18.014 146.627 18.0591C146.84 18.1031 147.056 18.1313 147.274 18.1435C147.483 18.1548 147.696 18.1604 147.912 18.1604C148.387 18.1628 148.86 18.1146 149.325 18.0168C149.734 17.9345 150.125 17.7831 150.482 17.5694C150.804 17.3743 151.071 17.1011 151.257 16.7757C151.452 16.4184 151.548 16.0166 151.537 15.6105C151.544 15.3142 151.495 15.0193 151.393 14.7409C151.301 14.5065 151.166 14.2916 150.993 14.1076Z" fill="#85E6D6"/>
<path d="M159.785 9.73541C159.076 9.36163 158.282 9.17551 157.479 9.19503C156.668 9.17674 155.867 9.36883 155.155 9.75228C154.497 10.1175 153.96 10.6627 153.606 11.3227C153.222 12.0633 153.032 12.8879 153.053 13.7206C153.031 14.5468 153.209 15.3661 153.572 16.11C153.898 16.7595 154.418 17.2932 155.061 17.6383C155.754 17.9983 156.527 18.1784 157.308 18.1618C158.126 18.1779 158.935 17.986 159.658 17.6045C160.332 17.2395 160.885 16.6881 161.249 16.0172C161.644 15.2678 161.841 14.431 161.819 13.5855C161.839 12.7802 161.657 11.9826 161.291 11.2636C160.952 10.618 160.428 10.0863 159.785 9.73541ZM159.683 15.3924C159.492 15.8312 159.168 16.2001 158.755 16.4478C158.341 16.6829 157.871 16.8025 157.394 16.794C156.926 16.8056 156.465 16.6824 156.066 16.4393C155.671 16.1793 155.363 15.8091 155.181 15.3755C154.949 14.8193 154.839 14.2208 154.858 13.6193C154.838 13.0341 154.948 12.4517 155.181 11.9138C155.372 11.491 155.69 11.1371 156.091 10.9005C156.521 10.6661 157.006 10.5495 157.496 10.5628C157.878 10.5534 158.259 10.6254 158.611 10.7739C158.919 10.912 159.188 11.1238 159.394 11.3903C159.613 11.68 159.772 12.01 159.862 12.3612C159.968 12.7721 160.02 13.1951 160.015 13.6193C160.035 14.2272 159.921 14.8322 159.682 15.3924H159.683Z" fill="#85E6D6"/>
<path d="M167.487 9.32027C167.169 9.40493 166.865 9.53581 166.585 9.70866C166.295 9.88865 166.026 10.1011 165.785 10.3419C165.745 10.3819 165.706 10.4264 165.666 10.4683V9.21054L163.929 9.46381V17.9915H165.666V11.6121C165.795 11.5226 165.928 11.4397 166.066 11.3635C166.236 11.2705 166.412 11.1887 166.594 11.1187C166.769 11.0511 166.948 10.992 167.13 10.9414C167.316 10.8899 167.507 10.8532 167.7 10.8316C167.906 10.8092 168.114 10.8035 168.321 10.8147L168.525 9.22741C168.176 9.2027 167.826 9.23405 167.487 9.32027Z" fill="#85E6D6"/>
<path d="M177.513 9.3794H175.385L172.472 12.554H171.845V5.24219L170.108 5.49549V17.9915H171.845V13.8543H171.873L175.351 17.9915H177.598L173.469 13.3759L177.513 9.3794Z" fill="#85E6D6"/>
<path d="M185.632 10.4686C185.306 10.0485 184.875 9.71969 184.381 9.5145C183.833 9.29254 183.245 9.18338 182.654 9.19365C182.057 9.18365 181.466 9.29873 180.917 9.53137C180.419 9.74799 179.974 10.0709 179.615 10.477C179.245 10.9037 178.967 11.4007 178.798 11.9377C178.604 12.5523 178.509 13.1935 178.517 13.8374C178.493 14.6511 178.665 15.4588 179.019 16.1931C179.343 16.8297 179.865 17.3452 180.509 17.6622C181.264 18.0151 182.092 18.1859 182.926 18.1604C183.327 18.1638 183.728 18.1384 184.126 18.0844C184.458 18.0369 184.786 17.9606 185.105 17.8564C185.421 17.7511 185.728 17.6213 186.024 17.468L186.143 16.1678C185.927 16.247 185.709 16.3258 185.487 16.4042C185.266 16.4826 185.036 16.553 184.798 16.6153C184.558 16.6777 184.313 16.7228 184.066 16.7504C183.818 16.7786 183.568 16.7927 183.317 16.7926C182.87 16.7999 182.424 16.7517 181.989 16.649C181.639 16.5659 181.314 16.3976 181.045 16.1593C180.773 15.9024 180.573 15.5793 180.466 15.2221C180.355 14.8604 180.293 14.4856 180.281 14.1076H186.432C186.516 13.4092 186.484 12.702 186.339 12.0137C186.219 11.454 185.978 10.9267 185.632 10.4686ZM181.343 10.8738C181.742 10.6333 182.204 10.513 182.671 10.5277C183.138 10.5045 183.6 10.6384 183.981 10.9076C184.32 11.176 184.562 11.5464 184.67 11.963C184.756 12.271 184.797 12.5893 184.795 12.9087H180.318C180.35 12.5719 180.422 12.2402 180.534 11.9208C180.68 11.4928 180.964 11.1246 181.343 10.8738Z" fill="#85E6D6"/>
<path d="M193.938 14.1076C193.764 13.9244 193.563 13.7679 193.343 13.6433C193.114 13.5135 192.875 13.4033 192.628 13.314C192.446 13.2577 192.268 13.1986 192.092 13.1367C191.916 13.0747 191.74 13.0185 191.564 12.9678C191.388 12.9171 191.218 12.8636 191.053 12.8074C190.899 12.7554 190.748 12.6934 190.602 12.6216C190.462 12.548 190.328 12.4633 190.202 12.3683C190.085 12.2811 189.987 12.1721 189.913 12.0475C189.838 11.9195 189.799 11.7735 189.802 11.6253C189.797 11.4625 189.839 11.3017 189.921 11.1609C190.01 11.0227 190.133 10.9094 190.279 10.8316C190.457 10.7347 190.649 10.6663 190.849 10.629C191.099 10.5815 191.352 10.5589 191.606 10.5615C191.731 10.5615 191.867 10.5674 192.015 10.5784C192.163 10.5893 192.324 10.6096 192.5 10.6375C192.676 10.6653 192.852 10.7025 193.028 10.7472C193.203 10.792 193.382 10.8429 193.564 10.8992C193.732 10.9506 193.897 11.0127 194.057 11.0849L194.177 9.71713C193.961 9.62745 193.748 9.54865 193.538 9.48073C193.329 9.41347 193.116 9.35711 192.9 9.31187C192.69 9.26775 192.476 9.23671 192.262 9.21897C192.052 9.20209 191.845 9.19365 191.641 9.19365C191.17 9.18889 190.701 9.24277 190.245 9.35406C189.854 9.44841 189.483 9.60834 189.147 9.8269C188.842 10.0269 188.593 10.2999 188.423 10.6205C188.245 10.974 188.158 11.3654 188.168 11.7604C188.163 12.0449 188.209 12.328 188.304 12.5963C188.385 12.8215 188.506 13.0304 188.662 13.2126C188.813 13.385 188.988 13.5356 189.181 13.6601C189.382 13.7912 189.596 13.9015 189.819 13.9894C189.944 14.0348 190.074 14.0799 190.211 14.1245C190.347 14.1692 190.48 14.2114 190.611 14.2512C190.741 14.2907 190.869 14.3302 190.994 14.3694C191.118 14.4091 191.241 14.4482 191.36 14.4876C191.479 14.527 191.595 14.5635 191.709 14.5973C191.861 14.6508 192.009 14.7158 192.151 14.7915C192.276 14.8572 192.393 14.9365 192.5 15.0279C192.594 15.1096 192.67 15.2104 192.721 15.3235C192.773 15.4404 192.8 15.5671 192.798 15.6949C192.804 15.8198 192.782 15.9445 192.733 16.0599C192.685 16.1753 192.611 16.2785 192.517 16.362C192.306 16.5366 192.055 16.6556 191.785 16.7081C191.469 16.7773 191.147 16.8113 190.823 16.8095C190.621 16.8082 190.42 16.7941 190.219 16.7673C189.998 16.7395 189.765 16.7001 189.521 16.649C189.277 16.598 189.028 16.5361 188.772 16.4633C188.517 16.3905 188.259 16.3089 187.998 16.2184L188.066 17.6538C188.361 17.7551 188.63 17.8367 188.875 17.8987C189.119 17.9606 189.351 18.014 189.572 18.0591C189.786 18.1031 190.002 18.1313 190.219 18.1435C190.429 18.1548 190.642 18.1604 190.858 18.1604C191.332 18.1628 191.806 18.1146 192.27 18.0168C192.679 17.9344 193.071 17.7831 193.428 17.5694C193.75 17.3743 194.016 17.1011 194.202 16.7757C194.397 16.4184 194.494 16.0166 194.483 15.6105C194.49 15.3142 194.441 15.0193 194.339 14.7409C194.247 14.5065 194.111 14.2916 193.938 14.1076Z" fill="#85E6D6"/>
<path d="M201.045 16.6322L200.756 16.6828C200.663 16.6993 200.569 16.7105 200.475 16.7166C200.384 16.7225 200.299 16.725 200.22 16.725C199.959 16.7321 199.7 16.6801 199.462 16.573C199.258 16.477 199.089 16.3208 198.977 16.1255C198.858 15.9053 198.799 15.6578 198.807 15.4079V10.7303H201.207L201.394 9.3794H198.807V6.71134L197.071 7.31923V9.3794H195.76L195.573 10.7303H197.071V15.7625C197.063 16.0981 197.115 16.4325 197.224 16.7503C197.312 17.0018 197.447 17.234 197.624 17.4343C197.786 17.6127 197.983 17.7563 198.203 17.8564C198.428 17.959 198.665 18.0328 198.909 18.076C199.15 18.1202 199.395 18.1428 199.641 18.1435C199.822 18.1435 200.001 18.1379 200.177 18.1266C200.353 18.1153 200.515 18.0985 200.662 18.076C200.81 18.0532 200.949 18.0281 201.079 18C201.21 17.9718 201.32 17.9468 201.411 17.924L201.514 16.5224C201.447 16.5477 201.379 16.5675 201.309 16.5815C201.23 16.5984 201.142 16.6153 201.045 16.6322Z" fill="#85E6D6"/>
<path d="M206.875 9.32027C206.557 9.40492 206.253 9.5358 205.973 9.70866C205.683 9.88864 205.414 10.1011 205.173 10.3419C205.133 10.3819 205.094 10.4264 205.054 10.4683V9.21054L203.318 9.46381V17.9915H205.054V11.6121C205.183 11.5226 205.316 11.4397 205.454 11.3635C205.624 11.2705 205.801 11.1887 205.982 11.1187C206.157 11.0511 206.336 10.992 206.518 10.9414C206.705 10.8899 206.895 10.8532 207.088 10.8316C207.294 10.8092 207.502 10.8035 207.709 10.8147L207.913 9.22741C207.565 9.2027 207.214 9.23405 206.875 9.32027Z" fill="#85E6D6"/>
<path d="M216.084 10.4686C215.757 10.0485 215.326 9.71969 214.833 9.5145C214.285 9.29254 213.697 9.18338 213.105 9.19365C212.509 9.18363 211.917 9.29871 211.369 9.53137C210.87 9.74799 210.426 10.0709 210.067 10.477C209.697 10.9038 209.419 11.4008 209.249 11.9377C209.055 12.5523 208.961 13.1935 208.969 13.8374C208.945 14.6511 209.117 15.4587 209.471 16.1931C209.794 16.8296 210.317 17.345 210.96 17.6622C211.715 18.0151 212.543 18.1858 213.378 18.1604C213.779 18.1638 214.18 18.1384 214.577 18.0844C214.91 18.0369 215.237 17.9607 215.556 17.8564C215.873 17.7511 216.18 17.6212 216.476 17.468L216.595 16.1678C216.379 16.247 216.16 16.3258 215.939 16.4042C215.718 16.4826 215.488 16.553 215.25 16.6153C215.009 16.6777 214.765 16.7228 214.518 16.7504C214.269 16.7786 214.019 16.7927 213.769 16.7926C213.322 16.7999 212.876 16.7517 212.441 16.649C212.09 16.5659 211.766 16.3977 211.497 16.1593C211.225 15.9024 211.025 15.5793 210.918 15.2221C210.807 14.8604 210.744 14.4856 210.732 14.1076H216.884C216.968 13.4092 216.936 12.702 216.79 12.0137C216.67 11.454 216.43 10.9267 216.084 10.4686ZM211.795 10.8738C212.194 10.6333 212.655 10.513 213.122 10.5277C213.59 10.5045 214.051 10.6384 214.433 10.9076C214.772 11.1761 215.014 11.5465 215.122 11.963C215.207 12.2711 215.249 12.5893 215.246 12.9087H210.77C210.801 12.5719 210.874 12.2402 210.986 11.9208C211.131 11.4927 211.416 11.1245 211.795 10.8738Z" fill="#85E6D6"/>
<path d="M223.778 16.5815C223.698 16.5984 223.61 16.6153 223.514 16.6322L223.225 16.6828C223.132 16.6992 223.038 16.7105 222.944 16.7166C222.853 16.7225 222.768 16.725 222.688 16.725C222.428 16.7321 222.169 16.6801 221.931 16.573C221.727 16.477 221.557 16.3208 221.446 16.1255C221.327 15.9053 221.268 15.6578 221.276 15.4079V10.7303H223.676L223.863 9.3794H221.276V6.71134L219.539 7.31923V9.3794H218.229L218.041 10.7303H219.539V15.7625C219.532 16.0981 219.584 16.4325 219.693 16.7503C219.78 17.0018 219.916 17.2341 220.093 17.4343C220.255 17.6126 220.452 17.7562 220.671 17.8564C220.896 17.959 221.134 18.0328 221.378 18.076C221.619 18.1202 221.864 18.1428 222.109 18.1435C222.291 18.1435 222.47 18.1379 222.646 18.1266C222.822 18.1153 222.984 18.0985 223.131 18.076C223.278 18.0532 223.418 18.0281 223.548 18C223.679 17.9718 223.789 17.9468 223.88 17.924L223.982 16.5224C223.916 16.5477 223.848 16.5675 223.778 16.5815Z" fill="#85E6D6"/>
</svg>
