<svg xmlns="http://www.w3.org/2000/svg" viewBox="0 0 75 28"><path fill="#D9E9FF" d="M0 0h74.667v28H0z"/><path fill="#0A2343" d="M6.667 21V7.001h4.593v14H6.667ZM17.509 9.23 20.151 21h-5.027L11.97 7.001h2.82a2.655 2.655 0 0 1 1.764.641c.49.404.828.964.955 1.587ZM20.841 21V7.001h4.593v14h-4.593Zm8.063-8.675a2.738 2.738 0 0 1-1.41-.375 2.777 2.777 0 0 1-1.015-1.015 2.735 2.735 0 0 1-.375-1.41 2.686 2.686 0 0 1 .375-1.4 2.812 2.812 0 0 1 3.825-1.005c.415.244.76.59 1.005 1.005.25.424.38.908.375 1.4.004.495-.125.982-.375 1.41a2.8 2.8 0 0 1-1.006 1.015c-.423.251-.908.38-1.4.375ZM32.394 21V7.001h4.593v14h-4.593Zm10.409-6.349c.013.014.111.175.295.483.185.309.424.703.72 1.183a373.133 373.133 0 0 1 1.863 3.056c.288.48.617 1.023.986 1.627H41.62a712.71 712.71 0 0 0-.858-1.39 127.3 127.3 0 0 1-.818-1.34c-.289-.48-.575-.947-.858-1.4a71.117 71.117 0 0 1-.729-1.193 20.869 20.869 0 0 0-.424-.69 2.039 2.039 0 0 1-.335-.986c.02-.338.128-.665.315-.947.079-.131.224-.365.434-.7a209.23 209.23 0 0 0 1.598-2.603c.289-.48.561-.93.817-1.35L41.62 7h5.047l-3.904 6.369c-.12.189-.189.407-.197.63.013.236.095.463.236.651Z"/><circle cx="59" cy="14" r="10" fill="#fff"/><path fill="#00B8F1" d="M63.239 11.836h-1.46a.839.839 0 0 0-.828.828v2.116c.263-.116.542-.187.828-.21h1.61a1.435 1.435 0 0 0 1.053-.387 1.442 1.442 0 0 0 .387-1.054 1.13 1.13 0 0 0-.405-.927 1.851 1.851 0 0 0-1.185-.366Z"/><path fill="#00B8F1" d="M59 3.667a10.333 10.333 0 1 0 0 20.667 10.333 10.333 0 0 0 0-20.667Zm-.778 12.205c-.008 2.208-1.59 2.91-2.194 3.26l-1.04-1.257.024-.012-.024-.029c.334-.167 1.577-.805 1.577-1.781v-.738c-.171.348-1.056.74-1.658.75h-.067a3.43 3.43 0 0 1-2.315-.895 3.33 3.33 0 0 1-1.011-2.497v-2.226h1.614v2.226c0 1.295.896 1.766 1.746 1.778.744-.01 1.677-.333 1.71-1.33v-2.676h1.636l.002 5.427Zm7.012 1.37a.743.743 0 0 0 .705.21l-.003 1.34h-.98l-.031.001c-.01 0-.023 0-.035-.002h-.036v-.002a.83.83 0 0 1-.508-.23l-1.906-2.334h-.66a.839.839 0 0 0-.827.828v1.738h-1.655v-6.128a2.487 2.487 0 0 1 2.483-2.484h1.46a3.488 3.488 0 0 1 2.241.746 2.8 2.8 0 0 1 1.005 2.202 3.097 3.097 0 0 1-.873 2.226c-.36.356-.805.614-1.293.747 0 0 .558.763.913 1.141v.002Z"/></svg>