<svg width="101" height="24" viewBox="0 0 101 24" fill="none" xmlns="http://www.w3.org/2000/svg">
<path d="M0 19.0033V5.00453H4.59339V19.0033H0ZM10.8428 7.2325L13.4844 19.0033H8.45737L5.30307 5.00453H8.12254C8.76907 4.99614 9.39641 5.22405 9.88691 5.64538C10.3782 6.04903 10.7158 6.6094 10.8428 7.2325ZM14.1744 19.0033V5.00453H18.7678V19.0033H14.1744ZM22.2372 10.328C21.7422 10.3329 21.2552 10.2034 20.828 9.95338C20.4064 9.70973 20.0563 9.35954 19.8127 8.93795C19.5624 8.51064 19.4329 8.02348 19.4378 7.52829C19.4321 7.03613 19.5618 6.55186 19.8127 6.12842C20.0589 5.71141 20.4086 5.36503 20.828 5.12286C21.2553 4.87317 21.7423 4.74369 22.2372 4.7482C22.7292 4.7429 23.2133 4.87251 23.6369 5.12286C24.0521 5.36715 24.3981 5.71324 24.6424 6.12842C24.893 6.55198 25.0226 7.03616 25.0172 7.52829C25.0218 8.02344 24.8923 8.51052 24.6424 8.93795C24.4007 9.35769 24.0542 9.70758 23.6369 9.95338C23.2133 10.2042 22.7289 10.3339 22.2366 10.328H22.2372ZM25.7269 19.0033V5.00453H30.3207V19.0033H25.7269ZM36.136 12.6545C36.1489 12.6681 36.2475 12.8291 36.4317 13.1376C36.6159 13.446 36.8558 13.8404 37.1513 14.3206C37.447 14.8006 37.759 15.3099 38.0874 15.8486C38.4157 16.3873 38.7247 16.8967 39.0143 17.3767C39.3028 17.8566 39.6313 18.3988 40 19.0033H34.9531C34.6375 18.4906 34.3515 18.0273 34.0952 17.6132C33.8389 17.1992 33.5665 16.7523 33.2778 16.2725C32.9884 15.7932 32.7024 15.3265 32.4196 14.8726C32.1368 14.4187 31.8938 14.0211 31.6905 13.6798C31.4863 13.3383 31.3449 13.1082 31.2663 12.9897C31.0713 12.6956 30.9559 12.3559 30.9315 12.0039C30.951 11.666 31.0597 11.3394 31.2466 11.0572C31.3254 10.9258 31.47 10.6924 31.6803 10.3572C31.8906 10.0221 32.137 9.62448 32.4196 9.16443C32.7021 8.70438 32.9882 8.23446 33.2778 7.75469C33.5674 7.27492 33.8398 6.8247 34.0952 6.40408C34.3519 5.9839 34.6379 5.51727 34.9531 5.00421H40L36.0962 11.3727C35.9754 11.5617 35.9073 11.7797 35.8991 12.0039C35.9121 12.2393 35.9942 12.4656 36.1353 12.6545H36.136Z" fill="#0A2343"/>
<path d="M53.8392 12.4401C53.5548 12.1466 53.2248 11.9023 52.8625 11.7171C52.4826 11.5221 52.0873 11.3598 51.6807 11.2318C51.2635 11.0997 50.8338 10.9874 50.3915 10.8947C50.0525 10.8157 49.7367 10.7366 49.4442 10.6574C49.1753 10.587 48.9136 10.4907 48.6628 10.3698C48.4472 10.2663 48.2468 10.133 48.0674 9.97366C47.8983 9.82255 47.7675 9.63241 47.6861 9.41933C47.596 9.16874 47.5529 8.90325 47.5592 8.63658C47.5548 8.36045 47.5977 8.08565 47.6861 7.82444C47.7663 7.59401 47.9003 7.38669 48.0768 7.22026C48.2597 7.05045 48.4674 6.91028 48.6924 6.80464C48.9497 6.68575 49.2226 6.60564 49.5027 6.56691C49.836 6.51877 50.1724 6.49561 50.5091 6.4976C50.8156 6.4982 51.1219 6.51463 51.4267 6.5468C51.7353 6.57946 52.0419 6.62914 52.3451 6.69567C52.6395 6.76046 52.9298 6.84315 53.2144 6.94328C53.4808 7.03619 53.739 7.15208 53.986 7.28962L54.2595 5.54679C53.9817 5.39984 53.6906 5.28045 53.3902 5.19026C53.0839 5.09804 52.7747 5.01867 52.4624 4.9522C52.1461 4.88592 51.8266 4.83645 51.5052 4.80398C51.1796 4.77096 50.8476 4.75445 50.5091 4.75445C49.8183 4.74688 49.1293 4.82661 48.458 4.99182C47.8865 5.13177 47.3464 5.38062 46.8664 5.72508C46.4241 6.04679 46.0681 6.47568 45.8311 6.97266C45.5782 7.53122 45.4547 8.14101 45.4698 8.75542C45.4586 9.23091 45.5348 9.70436 45.6944 10.1516C45.8344 10.5266 46.0506 10.8675 46.3289 11.1522C46.6044 11.4308 46.9207 11.6647 47.2665 11.8455C47.6333 12.0372 48.0157 12.1964 48.4096 12.3213C48.8198 12.4533 49.2397 12.5656 49.6694 12.658C50.021 12.737 50.3466 12.8196 50.6461 12.9056C50.9246 12.9834 51.1958 13.0862 51.4564 13.2126C51.6806 13.32 51.888 13.4601 52.0721 13.6286C52.2465 13.7948 52.383 13.9976 52.4722 14.2229C52.5759 14.4942 52.6258 14.7837 52.619 15.0746C52.6241 15.384 52.5779 15.692 52.4823 15.9858C52.3965 16.2399 52.2639 16.4752 52.0915 16.6791C51.9183 16.8801 51.7053 17.042 51.4665 17.1542C51.1966 17.2803 50.9105 17.3671 50.6167 17.412C50.2582 17.4678 49.8958 17.4943 49.533 17.4913C49.1803 17.4904 48.8281 17.4672 48.4782 17.4219C48.1136 17.3757 47.7488 17.3129 47.384 17.2334C47.0247 17.1558 46.6695 17.06 46.3198 16.9462C45.9742 16.8346 45.6454 16.7192 45.3333 16.5999L45.5873 18.5609C45.9202 18.6869 46.2593 18.7959 46.603 18.8874C46.915 18.9705 47.2311 19.0366 47.55 19.0855C47.8561 19.1315 48.1622 19.1678 48.4685 19.1944C48.7747 19.2211 49.0838 19.2343 49.3959 19.2341C50.0952 19.2385 50.7929 19.1654 51.4766 19.0162C52.0817 18.8875 52.6578 18.6457 53.1756 18.3031C53.659 17.9788 54.0498 17.5313 54.3089 17.0056C54.5941 16.3829 54.7311 15.7011 54.709 15.0149C54.7197 14.5036 54.6438 13.9943 54.4847 13.5091C54.3481 13.1097 54.1279 12.745 53.8392 12.4401Z" fill="#114F9D"/>
<path d="M65.5298 17.7686C65.387 17.7818 65.2431 17.7599 65.1105 17.7048C64.9778 17.6496 64.8602 17.5628 64.7677 17.4516C64.5866 17.1342 64.5113 16.766 64.5531 16.4018L64.5919 12.3212C64.5962 11.8935 64.5436 11.4671 64.4356 11.0535C64.3409 10.6907 64.1821 10.3483 63.9668 10.0429C63.7495 9.74458 63.4736 9.49506 63.1565 9.31005C62.7878 9.09807 62.3893 8.94453 61.9748 8.85477C61.4678 8.74376 60.9502 8.69062 60.4316 8.69631C60.0201 8.696 59.609 8.72236 59.2007 8.77522C58.8151 8.82468 58.4333 8.90088 58.058 9.00332C57.71 9.09896 57.3675 9.21472 57.0325 9.34999L56.7981 11.0337C57.1236 10.9152 57.4333 10.8161 57.7259 10.7366C58.0186 10.657 58.3021 10.5913 58.5756 10.5385C58.8437 10.4866 59.1145 10.4504 59.3866 10.4299C59.6531 10.4101 59.9167 10.4 60.1774 10.3998C60.5757 10.3913 60.9733 10.4379 61.3591 10.5385C61.6408 10.61 61.8997 10.7533 62.1115 10.9548C62.3 11.1506 62.4346 11.393 62.5021 11.658C62.5855 11.9845 62.6249 12.321 62.6194 12.6583L62.6171 13.1552L60.3343 13.312C59.5534 13.3341 58.784 13.5088 58.0684 13.8267C57.5329 14.0643 57.0705 14.4442 56.73 14.9261C56.4412 15.3549 56.288 15.8627 56.2906 16.3819C56.2869 16.8693 56.4046 17.3498 56.6327 17.7788C56.8715 18.2193 57.231 18.5804 57.6677 18.8184C58.2006 19.0995 58.796 19.236 59.3963 19.2146C59.9587 19.2276 60.5186 19.1337 61.0469 18.9376C61.5036 18.7564 61.9215 18.4873 62.2775 18.1452C62.4129 18.014 62.5412 17.8755 62.662 17.7303C62.6999 17.9354 62.7715 18.1327 62.8736 18.3139C63.0476 18.6172 63.3152 18.8539 63.6351 18.9874C63.9888 19.1315 64.3674 19.2023 64.7485 19.1954C64.866 19.1954 64.9796 19.1918 65.0903 19.1855C65.199 19.1789 65.3069 19.1622 65.4126 19.1357C65.5168 19.1093 65.6112 19.0865 65.6958 19.0663C65.7724 19.0492 65.8475 19.026 65.9205 18.997L66.1354 17.6702C66.0276 17.7076 65.9165 17.7341 65.8036 17.7494C65.7128 17.7614 65.6214 17.7678 65.5298 17.7686ZM62.2772 16.8772C62.0654 17.047 61.8362 17.1932 61.5935 17.3133C61.3517 17.4324 61.0957 17.5189 60.8318 17.5708C60.5582 17.6241 60.2802 17.6506 60.0016 17.6497C59.6833 17.6591 59.3668 17.5983 59.074 17.4714C58.8356 17.3667 58.6344 17.1906 58.4975 16.9666C58.3622 16.7292 58.2946 16.4583 58.3022 16.1842C58.2833 15.8538 58.3727 15.5264 58.5564 15.2529C58.769 15.0012 59.0571 14.8273 59.3765 14.7577C59.8756 14.6387 60.3876 14.5856 60.9001 14.5995H62.6105L62.6021 16.5655C62.5027 16.6784 62.394 16.7829 62.2772 16.8772Z" fill="#114F9D"/>
<path d="M63.5176 3.98193H61.4083L59.748 7.52763H61.2719L63.5176 3.98193Z" fill="#114F9D"/>
<path d="M75.5012 9.32026C74.8001 8.88499 73.9885 8.66802 73.167 8.69629C72.6794 8.69875 72.194 8.76183 71.7215 8.88413C71.211 9.01596 70.7188 9.21239 70.2565 9.4688C70.1647 9.51931 70.0739 9.57544 69.9827 9.63222V8.71607L67.9907 9.03304V23.1759H69.9827V18.7411C69.9961 18.7467 70.0085 18.753 70.0222 18.7589C70.3831 18.9108 70.7599 19.0204 71.1453 19.0858C71.6004 19.1619 72.0611 19.1983 72.5224 19.1947C73.4018 19.2101 74.2689 18.9841 75.0321 18.5407C75.7817 18.0903 76.3909 17.4348 76.7901 16.6493C77.2511 15.7128 77.4758 14.6748 77.4441 13.6286C77.4626 12.7439 77.2928 11.8656 76.9464 11.0535C76.6408 10.3457 76.1386 9.74347 75.5012 9.32026ZM74.9836 15.9461C74.7489 16.4721 74.3557 16.909 73.8605 17.1938C73.31 17.4862 72.6943 17.6296 72.0732 17.6101C71.7756 17.6103 71.4784 17.587 71.1843 17.5404C70.8758 17.4906 70.572 17.4145 70.2761 17.3129C70.1823 17.2799 70.0807 17.2423 69.9831 17.206V10.9548C70.0091 10.9425 70.0358 10.9267 70.0615 10.9148C70.348 10.7828 70.615 10.6704 70.8624 10.5777C71.0967 10.489 71.3387 10.4227 71.5852 10.3797C71.8044 10.3414 72.0264 10.3215 72.2489 10.3202C72.8512 10.2999 73.4489 10.4327 73.9877 10.7065C74.4586 10.9665 74.8273 11.3824 75.0324 11.8848C75.2809 12.5276 75.3973 13.2151 75.3746 13.9052C75.3953 14.6065 75.2618 15.3037 74.9836 15.9461Z" fill="#114F9D"/>
<path d="M93.3638 9.11229C92.8312 8.81903 92.231 8.67541 91.6253 8.69631C91.0996 8.69488 90.5776 8.78532 90.0822 8.96371C89.5791 9.14645 89.1052 9.40333 88.6758 9.72603C88.4325 9.90897 88.201 10.1074 87.9827 10.3203C87.7826 9.82433 87.4295 9.4074 86.9764 9.13176C86.4372 8.83729 85.8304 8.69381 85.2184 8.7161C84.6961 8.7162 84.1775 8.80655 83.6851 8.98321C83.1797 9.16365 82.7027 9.41726 82.2689 9.73622C82.1286 9.83857 81.9925 9.94982 81.8587 10.0664V8.71743L79.8663 9.01457V19.0178H81.8587V11.481C82.0933 11.3251 82.3381 11.1852 82.5912 11.0624C82.901 10.9137 83.225 10.7974 83.5581 10.7154C83.8649 10.6388 84.1797 10.599 84.4957 10.5969C84.7859 10.5879 85.0749 10.6384 85.3454 10.7455C85.5691 10.8416 85.7668 10.991 85.9216 11.1809C86.0913 11.4019 86.2083 11.6596 86.2634 11.934C86.3396 12.2884 86.3757 12.6505 86.3709 13.0132V19.0155H88.3633V12.5972C88.3646 12.2183 88.3394 11.8398 88.2878 11.4645C88.5137 11.3143 88.7476 11.1767 88.9884 11.0525C89.2929 10.8968 89.614 10.7772 89.9455 10.696C90.2588 10.618 90.58 10.578 90.9026 10.5768C91.1895 10.5698 91.475 10.6204 91.7426 10.7257C91.9704 10.8197 92.1716 10.9694 92.3285 11.1614C92.4984 11.3821 92.6155 11.6398 92.6703 11.9142C92.7465 12.2687 92.7826 12.6309 92.7778 12.9937V19.0155H94.7702V12.5778C94.7953 11.8286 94.6759 11.0817 94.4186 10.379C94.2158 9.8495 93.8446 9.40375 93.3638 9.11229Z" fill="#114F9D"/>
<path d="M97.7197 19.0165H99.7121V8.71612L97.7197 9.01325V19.0165Z" fill="#114F9D"/>
<path d="M99.9074 5.06116C99.7914 4.85798 99.6268 4.68768 99.4288 4.56595C99.2261 4.44038 98.9926 4.37524 98.755 4.37807C98.5145 4.37603 98.2779 4.44104 98.0713 4.56595C97.8676 4.68688 97.6965 4.85699 97.5732 5.06116C97.4493 5.26689 97.385 5.50381 97.3876 5.74486C97.3856 5.98884 97.4498 6.22867 97.5732 6.43814C97.6924 6.64552 97.8645 6.81656 98.0713 6.93335C98.2799 7.05244 98.5157 7.11392 98.755 7.11164C98.9914 7.11472 99.2241 7.05312 99.4288 6.93335C99.6299 6.81566 99.7954 6.6444 99.9074 6.43814C100.025 6.22663 100.085 5.98758 100.083 5.74486C100.086 5.50509 100.025 5.26897 99.9074 5.06116Z" fill="#114F9D"/>
</svg>
