<svg width="106" height="16" viewBox="0 0 106 16" fill="none" xmlns="http://www.w3.org/2000/svg">
<path d="M0 14.9998V1.00111H4.59339V14.9998H0ZM10.8428 3.22908L13.4844 14.9998H8.45737L5.30307 1.00111H8.12254C8.76907 0.992718 9.39641 1.22063 9.88691 1.64196C10.3782 2.04562 10.7158 2.60598 10.8428 3.22908ZM14.1744 14.9998V1.00111H18.7678V14.9998H14.1744ZM22.2372 6.32462C21.7422 6.32945 21.2552 6.19994 20.828 5.94996C20.4064 5.70631 20.0563 5.35612 19.8127 4.93454C19.5624 4.50722 19.4329 4.02006 19.4378 3.52487C19.4321 3.03271 19.5618 2.54845 19.8127 2.125C20.0589 1.70799 20.4086 1.36161 20.828 1.11944C21.2553 0.869757 21.7423 0.740271 22.2372 0.744785C22.7292 0.739486 23.2133 0.869088 23.6369 1.11944C24.0521 1.36374 24.3981 1.70982 24.6424 2.125C24.893 2.54857 25.0226 3.03275 25.0172 3.52487C25.0218 4.02002 24.8923 4.5071 24.6424 4.93454C24.4007 5.35427 24.0542 5.70416 23.6369 5.94996C23.2133 6.20081 22.7289 6.33044 22.2366 6.32462H22.2372ZM25.7269 14.9998V1.00111H30.3207V14.9998H25.7269ZM36.136 8.65111C36.1489 8.66469 36.2475 8.8257 36.4317 9.13415C36.6159 9.44261 36.8558 9.83697 37.1513 10.3172C37.447 10.7972 37.759 11.3065 38.0874 11.8452C38.4157 12.3839 38.7247 12.8933 39.0143 13.3732C39.3028 13.8532 39.6313 14.3954 40 14.9998H34.9531C34.6375 14.4872 34.3515 14.0239 34.0952 13.6098C33.8389 13.1958 33.5665 12.7489 33.2778 12.2691C32.9884 11.7898 32.7024 11.3231 32.4196 10.8692C32.1368 10.4153 31.8938 10.0177 31.6905 9.6764C31.4863 9.33487 31.3449 9.10481 31.2663 8.9863C31.0713 8.69219 30.9559 8.35251 30.9315 8.00047C30.951 7.66259 31.0597 7.33598 31.2466 7.0538C31.3254 6.92236 31.47 6.689 31.6803 6.35382C31.8906 6.01864 32.137 5.62107 32.4196 5.16101C32.7021 4.70096 32.9882 4.23104 33.2778 3.75127C33.5674 3.27151 33.8398 2.82128 34.0952 2.40066C34.3519 1.98048 34.6379 1.51385 34.9531 1.00079H40L36.0962 7.36925C35.9754 7.55833 35.9073 7.77624 35.8991 8.00047C35.9121 8.23588 35.9942 8.46221 36.1353 8.65111H36.136Z" fill="white"/>
<path d="M56.471 1.06264H45.3334V2.79603H49.8713V15.0479H51.9521V2.79603H56.4707L56.471 1.06264Z" fill="#9FDAF5"/>
<path d="M60.5337 4.93335C60.1631 5.03239 59.8092 5.18504 59.4833 5.3864C59.1453 5.59624 58.8328 5.84409 58.5519 6.12505C58.505 6.17167 58.4594 6.22357 58.4131 6.27249V4.80535L56.3918 5.10078V15.048H58.4131V7.60633C58.5633 7.50206 58.7188 7.40553 58.8789 7.31711C59.077 7.20837 59.2821 7.11281 59.4929 7.03114C59.698 6.95235 59.9058 6.88344 60.1175 6.82468C60.335 6.76427 60.557 6.72135 60.7814 6.69632C61.0216 6.66993 61.2635 6.66333 61.5048 6.6766L61.7426 4.82503C61.3364 4.79618 60.9282 4.83275 60.5337 4.93335Z" fill="#9FDAF5"/>
<path d="M71.9092 13.8068C71.7644 13.8201 71.6184 13.7984 71.4838 13.7435C71.3493 13.6886 71.23 13.6022 71.1363 13.4916C70.9525 13.176 70.8761 12.8099 70.9183 12.4477L70.9579 8.38998C70.9623 7.96459 70.909 7.54057 70.7994 7.12935C70.7032 6.76868 70.5421 6.4283 70.3238 6.12476C70.1033 5.82792 69.8232 5.57977 69.5013 5.39596C69.1274 5.18477 68.723 5.03197 68.3024 4.94291C67.788 4.83278 67.2628 4.78003 66.7367 4.78566C66.3194 4.78538 65.9025 4.81159 65.4886 4.86413C65.0972 4.91302 64.7098 4.98873 64.3289 5.09067C63.9759 5.18583 63.6286 5.30089 63.2887 5.43535L63.0506 7.10963C63.3809 6.99145 63.6947 6.89299 63.992 6.8142C64.2893 6.73541 64.5766 6.66972 64.854 6.6172C65.1258 6.56541 65.4005 6.52935 65.6765 6.50919C65.9471 6.48928 66.2148 6.47934 66.4795 6.47934C66.8836 6.47077 67.2869 6.51714 67.6784 6.6172C67.9639 6.68836 68.2264 6.83073 68.4411 7.03085C68.6323 7.22562 68.7689 7.46668 68.8374 7.73011C68.9223 8.05491 68.9624 8.38965 68.9567 8.72516L68.9544 9.2176L66.6377 9.37353C65.8454 9.39566 65.0648 9.56957 64.3388 9.88569C63.7956 10.122 63.3265 10.4997 62.9813 10.9789C62.6884 11.4054 62.5328 11.9103 62.5353 12.4267C62.5317 12.9112 62.651 13.3888 62.8822 13.8153C63.1247 14.2535 63.4894 14.6126 63.9325 14.8495C64.4731 15.129 65.0774 15.2647 65.6864 15.2434C66.2571 15.2564 66.8253 15.1629 67.3613 14.9676C67.8246 14.7875 68.2485 14.5199 68.6095 14.1797C68.7466 14.049 68.8767 13.9113 68.9993 13.7671C69.0379 13.971 69.1104 14.167 69.2139 14.3472C69.3905 14.6488 69.6622 14.8842 69.9869 15.0169C70.3457 15.1601 70.7298 15.2305 71.1165 15.2237C71.2354 15.2237 71.3511 15.2204 71.4636 15.2139C71.5738 15.2075 71.6832 15.191 71.7903 15.1646C71.896 15.1383 71.9915 15.1154 72.0777 15.0957C72.1553 15.0785 72.2314 15.0554 72.3056 15.0267L72.5238 13.707C72.4143 13.7442 72.3013 13.7706 72.1866 13.7858C72.0947 13.7986 72.002 13.8056 71.9092 13.8068ZM68.9389 12.6102C68.8379 12.7228 68.7274 12.8266 68.6086 12.9204C68.3937 13.0892 68.1611 13.2345 67.9149 13.3537C67.6698 13.4723 67.41 13.5584 67.1423 13.6098C66.8648 13.6631 66.5828 13.6895 66.3001 13.6886C65.977 13.6978 65.6558 13.6373 65.3584 13.5113C65.1167 13.4071 64.9128 13.2318 64.7741 13.0091C64.6367 12.773 64.5681 12.5036 64.5759 12.231C64.5568 11.9026 64.6474 11.5772 64.8335 11.3052C65.0493 11.0549 65.3417 10.8819 65.6659 10.8128C66.1722 10.6944 66.6918 10.6414 67.2118 10.6552H68.9471L68.9389 12.6102Z" fill="#9FDAF5"/>
<path d="M79.3703 0.333913C79.1655 0.294518 78.9574 0.264966 78.746 0.245268C78.5347 0.225571 78.31 0.215693 78.0722 0.215693C77.6416 0.212949 77.2135 0.279498 76.8043 0.4127C76.4153 0.539861 76.0597 0.75186 75.7638 1.03318C75.4574 1.32948 75.2206 1.68929 75.0702 2.08698C74.8949 2.56639 74.8109 3.07401 74.8225 3.58397V5.00221H73.3361V6.5386H74.8225V15.0479H76.8439V6.5386H79.6183V5.00221H76.8439V3.36733C76.8395 3.14261 76.8765 2.919 76.9529 2.70746C77.0176 2.52871 77.1225 2.367 77.2597 2.2347C77.4034 2.10351 77.5769 2.0089 77.7654 1.95894C77.9879 1.89764 78.218 1.86779 78.4488 1.8703C78.6077 1.8703 78.7589 1.87721 78.9049 1.89001C79.0509 1.90282 79.1919 1.92282 79.331 1.94908C79.4701 1.97535 79.6015 2.00161 79.7273 2.02787C79.8393 2.05002 79.9488 2.08303 80.0543 2.12637L79.9751 0.491487C79.7772 0.42585 79.5751 0.373216 79.3703 0.333913Z" fill="#9FDAF5"/>
<path d="M81.5798 15.048H83.6012V4.80535L81.5798 5.10078V15.048Z" fill="#9FDAF5"/>
<path d="M83.3139 0.678441C83.1082 0.553517 82.8712 0.488686 82.6302 0.491332C82.3861 0.489381 82.1461 0.554094 81.9365 0.678441C81.7299 0.798767 81.5563 0.967911 81.4311 1.17088C81.3053 1.37527 81.2401 1.61085 81.2429 1.85047C81.2408 2.09309 81.3059 2.3316 81.4311 2.53987C81.5523 2.7459 81.7268 2.91593 81.9365 3.03231C82.1481 3.15064 82.3873 3.21173 82.6302 3.20956C82.8699 3.21239 83.1061 3.15119 83.3139 3.03231C83.5177 2.91505 83.6856 2.74481 83.7994 2.53987C83.9185 2.3295 83.98 2.09181 83.9778 1.85047C83.9807 1.61215 83.9191 1.37742 83.7994 1.17088C83.6817 0.968868 83.5147 0.79953 83.3139 0.678441Z" fill="#9FDAF5"/>
<path d="M95.3135 5.00215H92.8363L89.4452 8.70529H88.7142V0.176234L86.6928 0.471704V15.0479H88.7142V10.222H88.7472L92.7964 15.0479H95.4123L90.6052 9.66388L95.3135 5.00215Z" fill="#9FDAF5"/>
<path d="M101.009 9.61208L105.718 4.95031H103.241L99.8495 8.65345H99.1185V0.124756L97.0971 0.420227V14.9964H99.1185V10.1705H99.1515L103.201 14.9964H105.817L101.009 9.61208Z" fill="#9FDAF5"/>
</svg>
