<svg width="83" height="16" viewBox="0 0 83 16" fill="none" xmlns="http://www.w3.org/2000/svg">
<path d="M0 15.0001V1.00135H4.59339V15.0001H0ZM10.8428 3.22932L13.4844 15.0001H8.45737L5.30307 1.00135H8.12254C8.76907 0.992962 9.39641 1.22087 9.88691 1.6422C10.3782 2.04586 10.7158 2.60623 10.8428 3.22932ZM14.1744 15.0001V1.00135H18.7678V15.0001H14.1744ZM22.2372 6.32486C21.7422 6.32969 21.2552 6.20018 20.828 5.95021C20.4064 5.70655 20.0563 5.35637 19.8127 4.93478C19.5624 4.50747 19.4329 4.0203 19.4378 3.52512C19.4321 3.03295 19.5618 2.54869 19.8127 2.12525C20.0589 1.70824 20.4086 1.36186 20.828 1.11969C21.2553 0.870001 21.7423 0.740515 22.2372 0.745029C22.7292 0.73973 23.2133 0.869332 23.6369 1.11969C24.0521 1.36398 24.3981 1.71007 24.6424 2.12525C24.893 2.54881 25.0226 3.03299 25.0172 3.52512C25.0218 4.02026 24.8923 4.50735 24.6424 4.93478C24.4007 5.35452 24.0542 5.70441 23.6369 5.95021C23.2133 6.20105 22.7289 6.33069 22.2366 6.32486H22.2372ZM25.7269 15.0001V1.00135H30.3207V15.0001H25.7269ZM36.136 8.65135C36.1489 8.66494 36.2475 8.82594 36.4317 9.1344C36.6159 9.44285 36.8558 9.83721 37.1513 10.3174C37.447 10.7974 37.759 11.3067 38.0874 11.8454C38.4157 12.3841 38.7247 12.8935 39.0143 13.3735C39.3028 13.8535 39.6313 14.3957 40 15.0001H34.9531C34.6375 14.4875 34.3515 14.0241 34.0952 13.6101C33.8389 13.196 33.5665 12.7491 33.2778 12.2693C32.9884 11.79 32.7024 11.3234 32.4196 10.8695C32.1368 10.4155 31.8938 10.018 31.6905 9.67665C31.4863 9.33512 31.3449 9.10506 31.2663 8.98654C31.0713 8.69243 30.9559 8.35276 30.9315 8.00072C30.951 7.66284 31.0597 7.33622 31.2466 7.05404C31.3254 6.9226 31.47 6.68925 31.6803 6.35407C31.8906 6.01889 32.137 5.62131 32.4196 5.16126C32.7021 4.70121 32.9882 4.23129 33.2778 3.75152C33.5674 3.27175 33.8398 2.82152 34.0952 2.4009C34.3519 1.98072 34.6379 1.5141 34.9531 1.00103H40L36.0962 7.36949C35.9754 7.55857 35.9073 7.77648 35.8991 8.00072C35.9121 8.23612 35.9942 8.46245 36.1353 8.65135H36.136Z" fill="white"/>
<path d="M49.141 11.8136C49.1447 12.0423 49.1048 12.2697 49.0233 12.4833C48.9496 12.673 48.8357 12.8443 48.6896 12.9855C48.5379 13.128 48.357 13.2355 48.1597 13.3007C47.9317 13.3758 47.693 13.4124 47.4531 13.409C47.2961 13.409 47.1489 13.4024 47.0115 13.3893C46.8741 13.3762 46.7367 13.3598 46.5993 13.3401C46.4619 13.3204 46.3246 13.2973 46.1872 13.2708C46.0498 13.2443 45.9091 13.2149 45.7652 13.1825C45.6213 13.1497 45.4773 13.1136 45.3334 13.0742L45.4904 14.8468C45.6736 14.8993 45.8503 14.9485 46.0204 14.9942C46.1905 15.0405 46.3605 15.0795 46.5306 15.1127C46.7058 15.1459 46.8828 15.1689 47.0606 15.1813C47.2438 15.1945 47.4465 15.2011 47.669 15.2013C48.1227 15.2085 48.5753 15.152 49.0135 15.0336C49.3709 14.9362 49.7071 14.7726 50.0047 14.5514C50.273 14.3483 50.5025 14.098 50.6818 13.8128C50.8601 13.5266 50.9926 13.2141 51.0744 12.8868C51.1606 12.5422 51.2035 12.1882 51.2019 11.833V1.00012H49.141V11.8136Z" fill="#C8A1F5"/>
<path d="M62.8212 13.7439C62.6778 13.757 62.5333 13.7353 62.4 13.6804C62.2668 13.6255 62.1486 13.5392 62.0557 13.4287C61.8738 13.1131 61.7981 12.747 61.8399 12.3848L61.8792 8.32743C61.8835 7.90208 61.8307 7.47809 61.7222 7.06689C61.6268 6.7062 61.4671 6.36577 61.251 6.06205C61.0326 5.76529 60.7553 5.51717 60.4365 5.33331C60.0661 5.12242 59.6656 4.96974 59.2491 4.88061C58.7397 4.7702 58.2196 4.71735 57.6985 4.72305C57.2851 4.72274 56.8721 4.74895 56.462 4.80151C56.0746 4.85067 55.6909 4.92643 55.3138 5.02832C54.9641 5.12337 54.6201 5.23847 54.2834 5.37302L54.0478 7.04718C54.3749 6.92922 54.6857 6.83073 54.9801 6.75173C55.2746 6.67273 55.5592 6.60708 55.834 6.55477C56.1032 6.50323 56.3752 6.46718 56.6485 6.44678C56.9163 6.42709 57.1812 6.41711 57.4434 6.41689C57.8436 6.40842 58.2431 6.45482 58.6308 6.55477C58.9137 6.62582 59.1739 6.76832 59.3865 6.96872C59.5759 7.16343 59.7112 7.40449 59.779 7.66793C59.8627 7.99264 59.9024 8.32723 59.8968 8.66259L59.8945 9.15664L57.6004 9.31256C56.8157 9.33459 56.0427 9.50834 55.3236 9.82432C54.7857 10.0607 54.3212 10.4384 53.9791 10.9175C53.6889 11.3439 53.535 11.8488 53.5376 12.3651C53.5339 12.8497 53.652 13.3274 53.881 13.754C54.1212 14.192 54.4825 14.551 54.9213 14.7877C55.4567 15.0673 56.0551 15.203 56.6582 15.1817C57.2234 15.1947 57.7859 15.1012 58.3168 14.9063C58.7757 14.726 59.1955 14.4585 59.5533 14.1184C59.6891 13.9878 59.818 13.8501 59.9393 13.7058C59.9774 13.9098 60.0493 14.106 60.152 14.2862C60.327 14.5876 60.5959 14.8229 60.9174 14.9558C61.2728 15.0991 61.6532 15.1695 62.0362 15.1626C62.1539 15.1626 62.2685 15.159 62.3797 15.1528C62.4889 15.1462 62.5973 15.1296 62.7035 15.1032C62.8082 15.077 62.9027 15.0543 62.9881 15.0343C63.065 15.0172 63.1404 14.9941 63.2138 14.9653L63.4297 13.646C63.3213 13.6832 63.2096 13.7096 63.0961 13.7248C63.0049 13.7368 62.9131 13.7431 62.8212 13.7439ZM59.5533 12.8575C59.3405 13.0264 59.1102 13.1718 58.8663 13.2912C58.6233 13.4096 58.3661 13.4957 58.1009 13.5472C57.826 13.6002 57.5466 13.6265 57.2667 13.6257C56.9468 13.635 56.6287 13.5745 56.3344 13.4484C56.0949 13.3443 55.8929 13.1691 55.7555 12.9465C55.6195 12.7104 55.5515 12.441 55.5592 12.1685C55.5402 11.84 55.6299 11.5145 55.8143 11.2425C56.0281 10.9923 56.3176 10.8193 56.6387 10.7501C57.1401 10.6317 57.6547 10.5789 58.1696 10.5928H59.8882L59.8795 12.5476C59.7797 12.66 59.6706 12.7639 59.5533 12.8575Z" fill="#C8A1F5"/>
<path d="M72.7131 6.33807L72.4776 4.93932H64.9015L64.6659 6.51502H70.3656L64.4896 13.645L64.7251 14.9843H72.733L72.9489 13.3889H66.9499L72.7131 6.33807Z" fill="#C8A1F5"/>
<path d="M76.8417 13.3893L82.6056 6.33846L82.3697 4.93967H74.7936L74.558 6.51538H80.2575L74.3814 13.6454L74.617 14.9847H82.6249L82.8408 13.3893H76.8417Z" fill="#C8A1F5"/>
</svg>
