<svg width="52" height="36" viewBox="0 0 52 36" fill="none" xmlns="http://www.w3.org/2000/svg">
<g clip-path="url(#clip0_4164_1479)">
<path d="M25.8857 30.5543C25.9669 30.768 26.0056 30.9953 25.9998 31.2237C26.009 31.532 25.9347 31.8371 25.7848 32.107C25.6404 32.3515 25.4382 32.5573 25.1959 32.7063C24.9247 32.8705 24.6267 32.9858 24.3153 33.0468C23.957 33.1205 23.5918 33.1565 23.2259 33.1542C23.0572 33.1542 22.8905 33.15 22.7259 33.1416C22.5577 33.1327 22.3904 33.1116 22.2253 33.0784C22.056 33.0444 21.8787 33.0022 21.6933 32.9518C21.5079 32.9014 21.3011 32.8381 21.0729 32.762L21.022 31.6136C21.2164 31.6811 21.4129 31.7444 21.6113 31.8035C21.8097 31.8625 22.0018 31.9109 22.1876 31.9486C22.3732 31.9863 22.5525 32.0161 22.726 32.0366C22.8834 32.0569 23.042 32.0675 23.2007 32.0683C23.4326 32.0696 23.664 32.0464 23.891 31.9991C24.0818 31.9643 24.2606 31.8818 24.4105 31.7592C24.4764 31.6998 24.5283 31.6266 24.5622 31.5447C24.5961 31.4629 24.6113 31.3745 24.6066 31.2861C24.6071 31.1959 24.5853 31.1071 24.5431 31.0273C24.4986 30.9449 24.4383 30.8721 24.3655 30.813C24.2837 30.746 24.1945 30.6887 24.0994 30.6423C23.9984 30.5919 23.8929 30.5457 23.7829 30.5035C23.6982 30.4783 23.6119 30.4508 23.5231 30.4217C23.4343 30.3925 23.3417 30.3629 23.2445 30.3332C23.1472 30.3034 23.0505 30.2765 22.9532 30.2509C22.8559 30.2253 22.7592 30.1964 22.6619 30.1629C22.5647 30.1293 22.4699 30.0912 22.377 30.0492C22.2092 29.9825 22.0481 29.9001 21.8959 29.803C21.748 29.7105 21.6155 29.5956 21.5031 29.4625C21.3886 29.3239 21.3005 29.1656 21.2434 28.9953C21.1766 28.794 21.1444 28.5828 21.1481 28.3708C21.1413 28.0737 21.2066 27.7793 21.3386 27.5127C21.4659 27.2681 21.6532 27.0596 21.8833 26.9066C22.1423 26.7372 22.4297 26.6155 22.7319 26.5472C23.0845 26.4645 23.4459 26.4243 23.8081 26.4273C23.9685 26.4273 24.1311 26.4336 24.296 26.4462C24.4596 26.4586 24.6224 26.4797 24.7838 26.5095C24.9464 26.5395 25.1071 26.5794 25.2649 26.629C25.4294 26.6813 25.5902 26.7447 25.746 26.8188L25.6451 27.9294C25.5245 27.8695 25.3995 27.8188 25.2712 27.7779C25.1404 27.7358 25.0074 27.6979 24.8722 27.6643C24.7371 27.6307 24.6042 27.603 24.4732 27.582C24.3423 27.561 24.2199 27.5463 24.1058 27.5379C23.9917 27.5295 23.8886 27.5254 23.7956 27.5254C23.6128 27.5235 23.4302 27.5403 23.2509 27.5757C23.1073 27.6036 22.9685 27.6525 22.8392 27.7208C22.7354 27.7746 22.648 27.8553 22.5863 27.9544C22.5304 28.05 22.5019 28.1591 22.5038 28.2698C22.5012 28.3785 22.5298 28.4858 22.5863 28.5789C22.6408 28.6672 22.7117 28.7443 22.7951 28.8063C22.8858 28.8731 22.9835 28.9302 23.0863 28.9766C23.1933 29.0294 23.3033 29.0758 23.4159 29.1154C23.5337 29.1575 23.6582 29.1954 23.7893 29.229C23.9204 29.2626 24.0513 29.3026 24.1821 29.3489C24.313 29.3951 24.4418 29.4392 24.5685 29.4815C24.7581 29.547 24.9423 29.627 25.1195 29.721C25.2893 29.8114 25.4432 29.9287 25.5753 30.0683C25.708 30.2098 25.8132 30.3746 25.8857 30.5543ZM31.3728 26.6418L32.8165 26.4276L32.8039 33.0277H31.6768L31.4757 32.2078C31.4439 32.2375 31.4122 32.2674 31.3797 32.2959C31.1805 32.4754 30.9617 32.632 30.7273 32.7626C30.5015 32.888 30.2612 32.9856 30.0117 33.0533C29.7492 33.122 29.4788 33.1559 29.2074 33.1539C28.7876 33.1661 28.3716 33.0728 27.9976 32.8825C27.6621 32.7 27.397 32.4114 27.2442 32.0622C27.0748 31.6966 26.9904 31.2275 26.9908 30.655V26.6421L28.4345 26.4278V30.3903C28.4263 30.6723 28.4736 30.9532 28.5738 31.217C28.6554 31.4277 28.8075 31.6038 29.0044 31.7157C29.2393 31.8344 29.5009 31.8909 29.7641 31.8797C29.9235 31.8798 30.0826 31.865 30.2393 31.8356C30.3939 31.8066 30.5462 31.7665 30.6951 31.7157C30.8472 31.6634 30.9954 31.6002 31.1384 31.5265C31.215 31.4871 31.2929 31.4444 31.3728 31.3986V26.6418ZM39.2916 26.813C38.8386 26.5372 38.3148 26.3991 37.7842 26.4154C37.4634 26.4167 37.1441 26.4593 36.8342 26.542C36.5027 26.6305 36.1836 26.7598 35.8842 26.927C35.8291 26.9576 35.7744 26.992 35.7197 27.026V26.4284L34.2759 26.6558V35.6667H35.7197V32.8308C35.95 32.9277 36.1898 33.0003 36.4352 33.0477C36.7379 33.1048 37.0456 33.1322 37.3537 33.1295C37.9258 33.1386 38.49 32.9949 38.9877 32.7135C39.4775 32.4262 39.875 32.0059 40.1338 31.5018C40.4167 30.9717 40.5581 30.328 40.5581 29.5708C40.5695 29.0052 40.4595 28.4436 40.2353 27.9238C40.0372 27.4691 39.7089 27.0826 39.2916 26.813ZM38.8353 31.0028C38.6885 31.329 38.4397 31.599 38.1262 31.7727C37.7746 31.9542 37.3822 32.0432 36.9863 32.031C36.8041 32.0315 36.6221 32.0189 36.4417 31.9933C36.2524 31.9653 36.0659 31.921 35.8843 31.8607C35.8314 31.8435 35.7762 31.8251 35.7198 31.8054V27.8919L35.7324 27.886C35.9095 27.806 36.0764 27.7386 36.2329 27.6839C36.3792 27.632 36.5295 27.5919 36.6823 27.564C36.8203 27.5393 36.9601 27.5267 37.1003 27.5262C37.48 27.5128 37.8569 27.5953 38.1959 27.7661C38.491 27.9302 38.7227 28.1878 38.8542 28.498C39.0151 28.8945 39.0908 29.3201 39.0765 29.7475C39.0893 30.1785 39.007 30.607 38.8353 31.0028ZM46.0633 30.0696C46.3136 29.9961 46.5477 29.8763 46.7535 29.7165C46.9296 29.576 47.0705 29.3967 47.1653 29.1927C47.2589 28.9865 47.3064 28.7625 47.3045 28.5363C47.3033 28.2704 47.2449 28.0079 47.1332 27.7664C47.0148 27.508 46.8421 27.2778 46.6269 27.0915C46.3803 26.8812 46.0939 26.7223 45.7846 26.6243C45.4037 26.5045 45.0058 26.447 44.6064 26.454C43.914 26.454 43.3273 26.5991 42.8461 26.8894C42.3665 27.1775 41.9864 27.6046 41.7567 28.1136C41.501 28.6915 41.3756 29.3183 41.3893 29.9497C41.3893 30.6485 41.5181 31.2375 41.7757 31.7167C42.0339 32.197 42.4402 32.582 42.9347 32.8149C43.4498 33.0674 44.0831 33.1936 44.8347 33.1936C45.1144 33.1954 45.3939 33.1763 45.6708 33.1366C45.9166 33.1008 46.1583 33.0417 46.3927 32.96C46.6209 32.8804 46.8531 32.7857 47.0894 32.6761L47.1782 31.6288C46.8496 31.7571 46.5131 31.8646 46.1709 31.9505C45.7874 32.0428 45.394 32.0873 44.9995 32.083C44.6833 32.0877 44.3679 32.0494 44.0621 31.9694C43.803 31.9081 43.5659 31.7766 43.3771 31.5895C43.1883 31.4024 43.055 31.1669 42.9921 30.9091C42.94 30.7284 42.9048 30.5434 42.8869 30.3563L45.0883 30.2403C45.4189 30.2222 45.7462 30.1647 46.0633 30.0696ZM42.7574 29.4188C42.7739 29.1111 42.8351 28.8075 42.9393 28.5174C43.0439 28.2112 43.2435 27.9459 43.5092 27.76C43.784 27.5889 44.1038 27.5033 44.4277 27.5142C44.6902 27.5034 44.9513 27.5577 45.1875 27.6724C45.3654 27.7625 45.5146 27.9001 45.6184 28.0699C45.7068 28.2146 45.7548 28.3801 45.7577 28.5494C45.7609 28.6799 45.7279 28.8087 45.6625 28.9218C45.5863 29.0372 45.4755 29.1256 45.3459 29.1743C45.1573 29.246 44.9583 29.2865 44.7566 29.2942L42.7574 29.4188ZM51.9999 26.4586L51.8227 27.7587C51.6602 27.7501 51.4972 27.7522 51.3349 27.7651C51.1877 27.7762 51.0415 27.7994 50.898 27.8342C50.7626 27.8684 50.6293 27.9106 50.499 27.9608C50.3653 28.013 50.2361 28.0762 50.113 28.15C50.02 28.2058 49.927 28.266 49.8344 28.3261V33.0218H48.3901V26.6354L49.8343 26.4211V27.4352C49.8574 27.4083 49.8802 27.3811 49.9037 27.355C50.0791 27.1584 50.2767 26.9827 50.4926 26.8312C50.7022 26.6848 50.9357 26.5758 51.1828 26.5092C51.4495 26.4409 51.7268 26.4236 51.9999 26.4586Z" fill="white"/>
<path d="M0 33.0609V26.5388H2.15794V33.0609H0ZM5.09385 27.5768L6.33486 33.0609H3.9732L2.49134 26.5388H3.8159C4.11964 26.5349 4.41435 26.6411 4.64479 26.8374C4.8756 27.0255 5.03418 27.2865 5.09385 27.5768ZM6.65903 33.0609V26.5388H8.81697V33.0609H6.65903ZM10.4469 29.0191C10.2143 29.0213 9.98552 28.961 9.7848 28.8445C9.58677 28.731 9.42227 28.5678 9.30782 28.3714C9.19026 28.1723 9.12941 27.9454 9.13172 27.7147C9.12905 27.4853 9.18996 27.2597 9.30782 27.0624C9.42349 26.8682 9.5878 26.7068 9.7848 26.5939C9.98558 26.4776 10.2143 26.4173 10.4469 26.4194C10.678 26.4169 10.9054 26.4773 11.1044 26.5939C11.2995 26.7078 11.462 26.869 11.5768 27.0624C11.6945 27.2598 11.7554 27.4854 11.7529 27.7147C11.755 27.9453 11.6942 28.1723 11.5768 28.3714C11.4632 28.567 11.3005 28.73 11.1044 28.8445C10.9054 28.9614 10.6778 29.0218 10.4466 29.0191H10.4469ZM12.0863 33.0609V26.5388H14.2444V33.0609H12.0863ZM16.9764 30.103C16.9825 30.1093 17.0288 30.1844 17.1153 30.3281C17.2019 30.4718 17.3145 30.6555 17.4533 30.8792C17.5923 31.1029 17.7389 31.3402 17.8931 31.5912C18.0474 31.8421 18.1925 32.0795 18.3286 32.3031C18.4641 32.5267 18.6185 32.7793 18.7917 33.0609H16.4207C16.2724 32.8221 16.1381 32.6062 16.0177 32.4133C15.8973 32.2204 15.7693 32.0122 15.6336 31.7887C15.4977 31.5653 15.3633 31.3479 15.2304 31.1364C15.0976 30.925 14.9834 30.7397 14.8879 30.5807C14.792 30.4216 14.7256 30.3144 14.6886 30.2592C14.597 30.1222 14.5428 29.9639 14.5313 29.7999C14.5405 29.6425 14.5916 29.4903 14.6794 29.3588C14.7164 29.2976 14.7843 29.1888 14.8831 29.0327C14.9819 28.8765 15.0977 28.6913 15.2304 28.4769C15.3632 28.2626 15.4976 28.0437 15.6336 27.8201C15.7697 27.5966 15.8977 27.3868 16.0177 27.1909C16.1383 26.9951 16.2726 26.7777 16.4207 26.5387H18.7917L16.9577 29.5058C16.901 29.5939 16.869 29.6954 16.8651 29.7999C16.8712 29.9096 16.9098 30.015 16.9761 30.103H16.9764Z" fill="white"/>
<path fill-rule="evenodd" clip-rule="evenodd" d="M26.1669 6.10352e-05C19.8833 6.10352e-05 14.7555 5.1097 14.7555 11.3706C14.7555 17.6198 19.8831 22.7416 26.167 22.7416C32.4383 22.7416 37.5785 17.6198 37.5785 11.3706C37.5784 5.1097 32.4382 6.10352e-05 26.1669 6.10352e-05ZM16.9934 11.3706C16.9934 16.419 21.1374 20.5971 26.1669 20.5971C31.2453 20.5971 35.3405 16.419 35.3404 11.3706C35.3404 6.2613 31.2453 2.14444 26.1669 2.14444C21.1374 2.14444 16.9934 6.26141 16.9934 11.3706ZM24.1503 11.4075C24.1525 11.638 24.1085 11.8665 24.0208 12.0798C23.9331 12.293 23.8036 12.4866 23.6397 12.6493C23.4759 12.8119 23.2811 12.9403 23.0668 13.0269C22.8525 13.1135 22.6229 13.1565 22.3917 13.1535C21.9269 13.1535 21.4812 12.9695 21.1526 12.6421C20.824 12.3147 20.6394 11.8706 20.6394 11.4075C20.6394 10.9444 20.824 10.5003 21.1526 10.1729C21.4812 9.84543 21.9269 9.66147 22.3917 9.66147C22.623 9.65841 22.8525 9.70144 23.0669 9.78802C23.2812 9.87461 23.476 10.003 23.6399 10.1657C23.8037 10.3283 23.9333 10.522 24.0209 10.7353C24.1086 10.9485 24.1525 11.1771 24.1503 11.4075ZM32.1304 10.5989L30.9751 11.5173C30.8889 11.5786 30.8889 11.6398 30.9136 11.7379L31.2946 13.1472C31.3195 13.221 31.2825 13.2327 31.2331 13.1958L29.9908 12.3877C29.959 12.3637 29.9202 12.3508 29.8803 12.3508C29.8405 12.3508 29.8017 12.3637 29.7698 12.3877L28.5154 13.2089C28.4662 13.2453 28.4292 13.221 28.454 13.1476L28.835 11.7384C28.8521 11.7013 28.8566 11.6596 28.8477 11.6198C28.8388 11.5799 28.817 11.5441 28.7858 11.5177L27.6177 10.5741C27.5807 10.5376 27.5807 10.4886 27.6422 10.4886L29.1057 10.4273C29.1393 10.4284 29.1723 10.4181 29.1992 10.398C29.2261 10.378 29.2454 10.3494 29.2539 10.317L29.8192 8.90776C29.8562 8.82224 29.9054 8.83394 29.9299 8.90776L30.4219 10.2682C30.4325 10.3173 30.461 10.3608 30.5019 10.3903C30.5428 10.4197 30.5932 10.433 30.6433 10.4275L32.0942 10.4888C32.1802 10.4886 32.1922 10.5498 32.131 10.5989H32.1304Z" fill="white"/>
</g>
<defs>
<clipPath id="clip0_4164_1479">
<rect width="52" height="35.6667" fill="white"/>
</clipPath>
</defs>
</svg>
