<svg xmlns="http://www.w3.org/2000/svg" viewBox="0 0 103 24"><path fill="#fff" d="M0 18.003v-12h3.937v12H0Zm9.294-10.09 2.264 10.09H7.25l-2.704-12h2.417a2.276 2.276 0 0 1 1.513.55c.42.346.71.827.819 1.36Zm2.855 10.09v-12h3.938v12h-3.938Zm6.912-7.436a2.382 2.382 0 0 1-2.4-2.4 2.301 2.301 0 0 1 .321-1.2 2.41 2.41 0 0 1 3.278-.862c.356.21.653.506.862.862.215.363.326.778.321 1.2a2.35 2.35 0 0 1-.321 1.208 2.4 2.4 0 0 1-.862.87 2.302 2.302 0 0 1-1.2.322Zm2.99 7.436v-12h3.938v12h-3.937Zm8.923-5.442c.01.012.095.15.253.414s.364.603.617 1.014a315.936 315.936 0 0 1 1.597 2.62c.247.411.529.876.845 1.394H29.96c-.27-.44-.516-.837-.736-1.192-.22-.355-.453-.738-.7-1.149-.248-.41-.493-.81-.736-1.2-.242-.389-.45-.73-.625-1.022-.175-.293-.296-.49-.363-.592a1.747 1.747 0 0 1-.287-.845c.016-.29.11-.57.27-.811.067-.113.191-.313.371-.6s.392-.628.634-1.022c.242-.395.488-.798.736-1.209l.7-1.157.736-1.2h4.326l-3.346 5.458a1.08 1.08 0 0 0-.17.541c.012.202.082.396.203.558ZM47.596 15.13l-7.22-9.138H39v12.012h1.597V8.86l7.237 9.144h1.376V5.992h-1.614v9.138ZM57.652 9.46l-.013 6.336a8.104 8.104 0 0 1-.368.203c-.206.106-.42.199-.637.279a3.42 3.42 0 0 1-.637.169 4.195 4.195 0 0 1-.67.05 2.024 2.024 0 0 1-1.003-.22 1.352 1.352 0 0 1-.586-.684 3.005 3.005 0 0 1-.196-1.16V9.206l-1.732.253v5.313c-.021.64.089 1.28.323 1.878.187.466.533.852.976 1.09a3.43 3.43 0 0 0 1.622.347c.469.004.934-.073 1.377-.228a4.879 4.879 0 0 0 1.223-.643c.103-.074.205-.153.307-.234l-.002.733c0 .846-.198 1.488-.594 1.928-.397.44-1.07.66-2.022.66a9.59 9.59 0 0 1-.798-.034 6.476 6.476 0 0 1-.807-.118 9.005 9.005 0 0 1-1.623-.508l.188 1.506a8.413 8.413 0 0 0 2.293.55c.283.028.571.042.866.042a5.415 5.415 0 0 0 1.809-.279 3.827 3.827 0 0 0 1.334-.779c.36-.33.642-.738.824-1.192.192-.49.287-1.013.28-1.54l-.017-8.746-1.717.255ZM68.558 9.544a3.317 3.317 0 0 0-1.614-.355c-.499 0-.994.077-1.47.228a5.699 5.699 0 0 0-1.74.906V5.23L62 5.484v12.52h1.732v-6.501a5.496 5.496 0 0 1 1.155-.478c.243-.072.49-.128.74-.17.233-.038.468-.058.704-.058.272-.006.543.037.799.127.216.077.409.208.56.38.156.187.267.407.323.643.073.299.107.606.102.913v5.143h1.733v-5.498a4.668 4.668 0 0 0-.323-1.878 2.221 2.221 0 0 0-.968-1.083ZM79.005 10.467a3.085 3.085 0 0 0-1.248-.956 4.381 4.381 0 0 0-1.725-.322 4.237 4.237 0 0 0-1.732.339c-.498.217-.942.54-1.3.947a4.142 4.142 0 0 0-.815 1.464 6.09 6.09 0 0 0-.28 1.903 5.103 5.103 0 0 0 .5 2.36 3.315 3.315 0 0 0 1.487 1.472 5.3 5.3 0 0 0 2.412.499c.4.003.8-.022 1.198-.076a5.776 5.776 0 0 0 1.894-.618l.119-1.302-.654.236c-.221.08-.45.15-.688.212-.24.063-.484.108-.73.135a6.574 6.574 0 0 1-.748.042 5.376 5.376 0 0 1-1.325-.143 2.18 2.18 0 0 1-.943-.49 2.138 2.138 0 0 1-.577-.94 4.284 4.284 0 0 1-.186-1.116h6.14c.083-.7.051-1.409-.094-2.099a3.946 3.946 0 0 0-.705-1.547Zm-4.28.405c.398-.24.858-.36 1.324-.346.467-.023.928.11 1.308.38.339.27.58.64.688 1.058.085.309.127.627.124.947h-4.467c.031-.337.103-.67.215-.99.145-.428.43-.797.808-1.049ZM86.403 16.642l-.288.05a2.561 2.561 0 0 1-.28.034c-.092.006-.177.009-.256.009a1.716 1.716 0 0 1-.755-.153 1.092 1.092 0 0 1-.485-.448 1.422 1.422 0 0 1-.17-.719V10.73h2.396l.186-1.354H84.17V6.702l-1.732.61v2.063h-1.308l-.187 1.354h1.495v5.042c-.008.336.044.67.153.989.087.252.223.485.399.685.161.18.358.323.577.423.225.103.462.177.705.22.241.044.486.067.73.068.182 0 .36-.006.536-.017.176-.011.337-.028.484-.051a7.176 7.176 0 0 0 .748-.152l.101-1.404a1.244 1.244 0 0 1-.203.059c-.08.017-.168.034-.264.05ZM94.974 10.467a3.085 3.085 0 0 0-1.25-.956 4.381 4.381 0 0 0-1.723-.322 4.24 4.24 0 0 0-1.733.339c-.498.217-.941.54-1.3.947a4.14 4.14 0 0 0-.815 1.463 6.09 6.09 0 0 0-.28 1.904 5.106 5.106 0 0 0 .5 2.36 3.313 3.313 0 0 0 1.487 1.471c.754.354 1.58.525 2.413.5.4.003.8-.022 1.197-.076a5.782 5.782 0 0 0 1.894-.618l.12-1.303c-.216.08-.434.158-.655.237-.22.08-.45.15-.688.212a5.13 5.13 0 0 1-.73.135 6.573 6.573 0 0 1-.748.042 5.39 5.39 0 0 1-1.325-.143 2.183 2.183 0 0 1-.942-.491 2.14 2.14 0 0 1-.578-.94 4.27 4.27 0 0 1-.185-1.116h6.139c.084-.7.052-1.408-.094-2.098a3.946 3.946 0 0 0-.704-1.547Zm-4.281.405c.398-.24.859-.36 1.325-.346.466-.023.927.11 1.308.38.338.27.58.64.687 1.058.085.309.127.627.124.947H89.67c.031-.337.104-.67.215-.99a2.05 2.05 0 0 1 .808-1.049ZM101.445 9.316a3.335 3.335 0 0 0-.9.39c-.29.18-.558.392-.799.633-.04.04-.079.085-.119.127v-1.26l-1.732.253v8.544h1.732v-6.391a4.424 4.424 0 0 1 .927-.494c.175-.068.353-.127.535-.178a3.595 3.595 0 0 1 1.189-.127l.204-1.59a3.248 3.248 0 0 0-1.037.093Z"/></svg>