<svg xmlns="http://www.w3.org/2000/svg" viewBox="0 0 59 14" fill="currentColor"><path d="M46.333 1.01h-3.701s2.103 3.453 2.127 3.497a.582.582 0 0 1 .014.705l-2.141 3.51h3.702s1.785-2.92 2.029-3.325a.885.885 0 0 0-.01-1.072c-.263-.449-.264-.449-2.02-3.314ZM42.154 1.01h-3.297v11.994h3.297V1.01ZM57.927 2.997A328.772 328.772 0 0 0 56.7 1.011h-7.922l1.73 2.902h4.173l-1.72 2.822 1.918 3.224-1.852 3.044h3.382c.544-.89 1.357-2.265 1.527-2.547a.888.888 0 0 0-.01-1.077c-.17-.29-1.075-1.726-1.616-2.61l1.626-2.695a.888.888 0 0 0-.01-1.077Z"/><path d="M50.306 7.125a376.74 376.74 0 0 0-1.557 2.557.855.855 0 0 0-.01 1.037c.164.272 1.043 1.71 1.567 2.568a906.39 906.39 0 0 0 1.566-2.568.856.856 0 0 0-.01-1.037 390.735 390.735 0 0 0-1.556-2.557ZM0 13.006v-12h3.937v12H0Zm9.294-10.09 2.264 10.09H7.25l-2.703-12h2.416a2.276 2.276 0 0 1 1.513.55c.42.346.71.826.819 1.36Zm2.856 10.09v-12h3.937v12H12.15Zm6.91-7.436a2.383 2.383 0 0 1-2.4-2.4 2.303 2.303 0 0 1 .322-1.2 2.412 2.412 0 0 1 3.278-.862c.356.21.653.506.862.862.215.363.326.778.321 1.2a2.4 2.4 0 0 1-1.183 2.079 2.303 2.303 0 0 1-1.2.32Zm2.992 7.436v-12h3.937v12h-3.937Zm8.922-5.442c.01.011.095.15.253.414s.364.602.617 1.014a326.442 326.442 0 0 1 1.597 2.62c.247.41.529.876.845 1.394H29.96c-.27-.44-.516-.837-.736-1.192-.22-.355-.453-.738-.7-1.149-.248-.41-.493-.81-.736-1.2-.242-.389-.45-.73-.625-1.022-.175-.293-.296-.49-.363-.592a1.75 1.75 0 0 1-.287-.845c.016-.29.11-.57.27-.811.067-.113.191-.313.372-.6a182.106 182.106 0 0 0 1.37-2.23c.247-.412.48-.798.7-1.159l.735-1.2h4.326l-3.346 5.46a1.078 1.078 0 0 0-.17.54c.012.202.082.396.203.558Z"/></svg>