<svg width="230" height="24" viewBox="0 0 230 24" fill="none" xmlns="http://www.w3.org/2000/svg">
<rect width="230" height="24" fill="#01405C"/>
<path d="M6.00427 18.0002V6.00133H9.94146V18.0002H6.00427ZM15.2981 7.91102L17.5623 18.0002H13.2534L10.5498 6.00133H12.9664C13.5206 5.99414 14.0583 6.18949 14.4788 6.55063C14.8999 6.89663 15.1892 7.37694 15.2981 7.91102ZM18.1538 18.0002V6.00133H22.091V18.0002H18.1538ZM25.0647 10.5643C24.6405 10.5685 24.223 10.4575 23.8568 10.2432C23.4955 10.0344 23.1954 9.7342 22.9865 9.37284C22.7721 9.00658 22.661 8.58901 22.6652 8.16456C22.6604 7.74271 22.7715 7.32762 22.9865 6.96467C23.1976 6.60723 23.4974 6.31034 23.8568 6.10276C24.2231 5.88875 24.6405 5.77776 25.0647 5.78163C25.4865 5.77709 25.9014 5.88817 26.2645 6.10276C26.6203 6.31216 26.9169 6.60881 27.1263 6.96467C27.3411 7.32773 27.4522 7.74274 27.4476 8.16456C27.4515 8.58897 27.3405 9.00647 27.1263 9.37284C26.9191 9.73262 26.6222 10.0325 26.2645 10.2432C25.9014 10.4582 25.4862 10.5693 25.0642 10.5643H25.0647ZM28.0559 18.0002V6.00133H31.9934V18.0002H28.0559ZM36.978 12.5585C36.9891 12.5701 37.0735 12.7081 37.2314 12.9725C37.3893 13.2369 37.5949 13.5749 37.8482 13.9865C38.1017 14.398 38.3692 14.8345 38.6506 15.2962C38.932 15.758 39.1969 16.1946 39.4451 16.606C39.6924 17.0174 39.974 17.4822 40.29 18.0002H35.9641C35.6936 17.5608 35.4484 17.1637 35.2287 16.8088C35.0091 16.4539 34.7756 16.0708 34.5281 15.6596C34.2801 15.2487 34.0349 14.8488 33.7925 14.4597C33.5501 14.0706 33.3418 13.7299 33.1675 13.4373C32.9925 13.1446 32.8713 12.9474 32.8039 12.8458C32.6368 12.5937 32.5379 12.3025 32.517 12.0008C32.5337 11.7112 32.6269 11.4312 32.787 11.1894C32.8546 11.0767 32.9786 10.8767 33.1588 10.5894C33.339 10.3021 33.5503 9.9613 33.7925 9.56697C34.0347 9.17264 34.2799 8.76985 34.5281 8.35862C34.7763 7.94739 35.0098 7.56148 35.2287 7.20095C35.4488 6.8408 35.6939 6.44083 35.9641 6.00106H40.29L36.9439 11.4597C36.8404 11.6218 36.782 11.8086 36.7749 12.0008C36.786 12.2026 36.8565 12.3966 36.9774 12.5585H36.978Z" fill="white"/>
<path d="M54.0363 6.0021H51.9085L47.2842 11.2875H46.6488V6.0021H44.8615V17.9915H46.6488V12.5709H46.7086L51.7383 18.0084L54.1724 17.9915L48.4017 12.0475L54.0363 6.0021Z" fill="#85E6D6"/>
<path d="M59.0909 9.32027C58.7726 9.40493 58.4687 9.53581 58.189 9.70866C57.8987 9.88865 57.6302 10.1011 57.3887 10.3419C57.3487 10.3819 57.3096 10.4264 57.2696 10.4683V9.21054L55.5334 9.46381V17.9915H57.2696V11.6121C57.3987 11.5226 57.5323 11.4396 57.6699 11.3635C57.8402 11.2705 58.0164 11.1887 58.1976 11.1187C58.3733 11.0511 58.552 10.992 58.7338 10.9414C58.9205 10.8898 59.1111 10.8531 59.3037 10.8316C59.5101 10.8092 59.718 10.8035 59.9253 10.8147L60.1296 9.22741C59.7806 9.2027 59.4298 9.23405 59.0909 9.32027Z" fill="#85E6D6"/>
<path d="M61.7126 17.9915H63.4488V9.21054L61.7126 9.46381V17.9915Z" fill="#85E6D6"/>
<path d="M63.202 5.6728C63.0253 5.56568 62.8218 5.5101 62.6148 5.51239C62.4051 5.51076 62.199 5.56624 62.019 5.6728C61.8415 5.77596 61.6924 5.92096 61.5849 6.09496C61.477 6.27026 61.421 6.47217 61.4232 6.67757C61.4215 6.88555 61.4774 7.08999 61.5849 7.26859C61.6889 7.44529 61.8388 7.59107 62.019 7.69075C62.2008 7.79216 62.4062 7.84453 62.6148 7.84271C62.8207 7.84518 63.0235 7.79271 63.202 7.69075C63.3772 7.5903 63.5214 7.44434 63.6191 7.26859C63.7213 7.08824 63.7741 6.88447 63.7723 6.67757C63.7747 6.47327 63.7218 6.27205 63.6191 6.09496C63.5179 5.92178 63.3745 5.77661 63.202 5.6728Z" fill="#85E6D6"/>
<path d="M72.7768 9.54825C72.2711 9.29492 71.7089 9.17291 71.1427 9.19363C70.6486 9.19455 70.1575 9.27147 69.6871 9.42162C69.2024 9.57482 68.7414 9.79357 68.3171 10.0717C68.1525 10.179 67.9948 10.2969 67.8402 10.4182V9.21053L66.104 9.4638V17.9915H67.8402V11.5783C68.0083 11.4806 68.1816 11.392 68.3594 11.3129C68.5985 11.2079 68.8427 11.1149 69.0913 11.0343C69.3304 10.9569 69.5751 10.8977 69.8232 10.857C70.0568 10.8186 70.2931 10.7988 70.5299 10.7978C70.8077 10.7914 71.0844 10.8344 71.347 10.9245C71.5636 11.0019 71.7567 11.1327 71.9084 11.3044C72.0648 11.4907 72.1756 11.7103 72.2321 11.9461C72.3045 12.2446 72.3388 12.551 72.334 12.858V17.9915H74.0702V12.5034C74.0928 11.8632 73.9828 11.2253 73.7471 10.629C73.5547 10.1712 73.2131 9.79061 72.7768 9.54825Z" fill="#85E6D6"/>
<path d="M82.0957 9.41316C81.8357 9.34252 81.5713 9.28891 81.3042 9.25272C80.9995 9.2121 80.6924 9.19236 80.385 9.19363C79.8297 9.19137 79.2797 9.3005 78.7679 9.51447C78.2552 9.72991 77.7897 10.0425 77.3977 10.4348C76.9798 10.8578 76.6577 11.3644 76.453 11.9208C76.2155 12.5728 76.1001 13.2625 76.1125 13.9556C76.0938 14.7182 76.2419 15.4758 76.5466 16.1762C76.8133 16.7753 77.255 17.2811 77.8147 17.6284C78.4271 17.9868 79.1296 18.1655 79.8403 18.1435C80.4647 18.1413 81.0828 18.0209 81.6617 17.7889C82.0076 17.6492 82.3337 17.4654 82.6319 17.2423V17.7044C82.6387 18.0849 82.5843 18.464 82.4705 18.8274C82.3722 19.1322 82.203 19.4099 81.9766 19.6379C81.7329 19.8704 81.4344 20.0387 81.1085 20.1276C80.6845 20.2432 80.2458 20.2972 79.8063 20.2881C79.4565 20.2875 79.107 20.2678 78.7594 20.2289C78.3946 20.1881 78.0332 20.1204 77.6785 20.0263C77.3131 19.9299 76.9548 19.8085 76.6061 19.6632L76.7934 21.1493C77.1064 21.2753 77.4277 21.3796 77.7551 21.4617C78.0997 21.5479 78.4493 21.6128 78.802 21.6559C79.1747 21.7013 79.5499 21.7239 79.9255 21.7234C80.7632 21.7494 81.5958 21.5848 82.3595 21.2422C82.9796 20.9556 83.4985 20.4908 83.849 19.9081C84.1917 19.3091 84.3652 18.6295 84.3511 17.9408V9.19363L82.6864 9.61888C82.494 9.53815 82.2967 9.46945 82.0957 9.41316ZM82.4107 16.1762C82.1998 16.2979 81.9809 16.405 81.7553 16.497C81.5566 16.578 81.3517 16.643 81.1425 16.6912C80.9386 16.737 80.7302 16.7596 80.5212 16.7588C80.0099 16.7771 79.5027 16.6637 79.0488 16.4295C78.6532 16.2055 78.3468 15.8539 78.1807 15.4332C77.9755 14.8855 77.8801 14.3032 77.8998 13.7192C77.8923 13.2531 77.9583 12.7887 78.0956 12.3429C78.2071 11.9766 78.3989 11.6393 78.6573 11.3551C78.9092 11.0911 79.2175 10.8863 79.5595 10.7556C79.9481 10.6095 80.3611 10.5379 80.7766 10.5446C81.0447 10.5443 81.3123 10.5669 81.5765 10.6121C81.8472 10.6596 82.1144 10.7244 82.3766 10.8063C82.46 10.8322 82.5468 10.8665 82.6319 10.898V16.047C82.5573 16.0906 82.4807 16.1362 82.4107 16.1762Z" fill="#85E6D6"/>
<path d="M94.3941 9.3794H92.2664L89.3536 12.554H88.7257V5.24219L86.9895 5.49549V17.9915H88.7257V13.8543H88.7541L92.232 17.9915H94.4789L90.3499 13.3759L94.3941 9.3794Z" fill="#85E6D6"/>
<path d="M103.297 16.9276C103.172 16.939 103.047 16.9204 102.931 16.8734C102.816 16.8263 102.713 16.7523 102.633 16.6575C102.475 16.387 102.409 16.073 102.445 15.7625L102.479 12.2839C102.483 11.9192 102.437 11.5556 102.343 11.2031C102.26 10.894 102.122 10.6022 101.935 10.3419C101.745 10.0875 101.505 9.87482 101.228 9.71711C100.907 9.53631 100.56 9.40533 100.199 9.32872C99.7568 9.23422 99.3057 9.18891 98.8538 9.19363C98.4952 9.19348 98.1369 9.21604 97.7812 9.26117C97.4452 9.30309 97.1126 9.36799 96.7857 9.45538C96.4823 9.537 96.1838 9.63565 95.8917 9.75088L95.6874 11.1862C95.9711 11.0849 96.2408 11.0005 96.4963 10.933C96.7518 10.8654 96.9985 10.8091 97.2364 10.7641C97.47 10.7198 97.706 10.6888 97.9432 10.6712C98.1754 10.6543 98.4051 10.6459 98.6323 10.6459C98.9794 10.6386 99.3258 10.6783 99.662 10.7641C99.9074 10.825 100.133 10.9471 100.318 11.1187C100.482 11.2857 100.599 11.4924 100.658 11.7182C100.73 11.9966 100.765 12.2834 100.76 12.5709L100.758 12.9948L98.7687 13.1282C98.0882 13.1472 97.4178 13.2963 96.7942 13.5672C96.3275 13.7699 95.9246 14.0936 95.6279 14.5044C95.3764 14.8701 95.243 15.303 95.2452 15.7456C95.2419 16.161 95.3443 16.5705 95.543 16.9361C95.7511 17.3118 96.0644 17.6197 96.445 17.8226C96.9094 18.0622 97.4284 18.1786 97.9516 18.1604C98.4417 18.1716 98.9295 18.0914 99.3897 17.924C99.7878 17.7694 100.152 17.5401 100.462 17.2485C100.58 17.1364 100.692 17.0184 100.797 16.8947C100.83 17.0695 100.893 17.2376 100.982 17.392C101.133 17.6506 101.366 17.8524 101.645 17.9662C101.953 18.089 102.283 18.1493 102.615 18.1435C102.718 18.1435 102.817 18.1407 102.913 18.135C103.008 18.1297 103.102 18.1155 103.194 18.0928C103.285 18.0703 103.367 18.0506 103.441 18.0337C103.508 18.0189 103.573 17.9991 103.637 17.9746L103.824 16.8432C103.73 16.8752 103.633 16.8979 103.535 16.9108C103.456 16.9212 103.376 16.9268 103.297 16.9276ZM100.462 16.1678C100.278 16.3124 100.078 16.437 99.8666 16.5392C99.6559 16.6408 99.4328 16.7147 99.2028 16.7588C98.9643 16.8045 98.7219 16.8271 98.479 16.8263C98.2017 16.8342 97.9259 16.7823 97.6708 16.6743C97.463 16.5849 97.2877 16.4347 97.1683 16.2438C97.0506 16.0413 96.9918 15.8104 96.9982 15.5767C96.9816 15.2952 97.0594 15.0161 97.2194 14.7831C97.4047 14.5686 97.6557 14.4203 97.934 14.3609C98.369 14.2594 98.8154 14.214 99.2621 14.2258H100.752L100.745 15.9021C100.658 15.9983 100.564 16.0872 100.462 16.1678Z" fill="#85E6D6"/>
<path d="M110.82 14.1076C110.645 13.9245 110.444 13.768 110.224 13.6433C109.995 13.5135 109.756 13.4033 109.509 13.314C109.327 13.2577 109.149 13.1986 108.973 13.1367C108.797 13.0747 108.621 13.0185 108.445 12.9678C108.269 12.9171 108.099 12.8636 107.934 12.8074C107.78 12.7554 107.629 12.6934 107.483 12.6216C107.343 12.548 107.209 12.4632 107.083 12.3683C106.966 12.2812 106.868 12.1721 106.794 12.0475C106.719 11.9195 106.68 11.7735 106.683 11.6253C106.678 11.4625 106.72 11.3017 106.802 11.1609C106.891 11.0227 107.014 10.9093 107.16 10.8316C107.338 10.7347 107.53 10.6663 107.73 10.629C107.98 10.5815 108.234 10.5589 108.488 10.5615C108.612 10.5615 108.748 10.5674 108.896 10.5784C109.044 10.5893 109.205 10.6096 109.381 10.6375C109.557 10.6653 109.733 10.7025 109.909 10.7472C110.085 10.792 110.263 10.8429 110.445 10.8992C110.613 10.9506 110.778 11.0127 110.938 11.0849L111.058 9.71713C110.842 9.62745 110.629 9.54865 110.42 9.48073C110.21 9.41349 109.997 9.35713 109.781 9.31187C109.571 9.26776 109.357 9.23672 109.143 9.21898C108.933 9.20209 108.726 9.19366 108.522 9.19366C108.051 9.18888 107.583 9.24277 107.126 9.35406C106.735 9.44843 106.364 9.60836 106.028 9.8269C105.723 10.0268 105.475 10.2998 105.305 10.6205C105.127 10.974 105.039 11.3654 105.049 11.7604C105.044 12.0449 105.09 12.328 105.186 12.5963C105.266 12.8215 105.387 13.0303 105.543 13.2126C105.694 13.385 105.869 13.5356 106.062 13.6601C106.263 13.7912 106.477 13.9016 106.701 13.9894C106.825 14.0348 106.956 14.0799 107.092 14.1245C107.228 14.1698 107.361 14.212 107.492 14.2512C107.623 14.2903 107.75 14.33 107.875 14.3694C108 14.4088 108.122 14.4482 108.241 14.4876C108.36 14.527 108.477 14.5635 108.59 14.5973C108.742 14.6508 108.89 14.7158 109.032 14.7915C109.157 14.8572 109.274 14.9364 109.382 15.0279C109.476 15.1096 109.551 15.2104 109.603 15.3235C109.655 15.4404 109.681 15.5671 109.679 15.695C109.686 15.8198 109.663 15.9445 109.615 16.0599C109.566 16.1753 109.492 16.2785 109.399 16.362C109.188 16.5366 108.936 16.6557 108.666 16.7081C108.351 16.7773 108.028 16.8113 107.705 16.8095C107.503 16.8082 107.301 16.7941 107.101 16.7673C106.879 16.7395 106.647 16.7001 106.403 16.649C106.159 16.598 105.909 16.5361 105.654 16.4633C105.398 16.3905 105.14 16.3089 104.879 16.2184L104.947 17.6538C105.242 17.7551 105.512 17.8367 105.756 17.8987C106 17.9606 106.233 18.014 106.454 18.0591C106.667 18.1031 106.883 18.1313 107.101 18.1435C107.31 18.1548 107.523 18.1604 107.739 18.1604C108.214 18.1628 108.687 18.1146 109.151 18.0168C109.56 17.9345 109.952 17.7832 110.309 17.5694C110.631 17.3744 110.898 17.1012 111.084 16.7757C111.279 16.4184 111.375 16.0166 111.364 15.6105C111.371 15.3142 111.322 15.0192 111.22 14.7409C111.128 14.5065 110.992 14.2915 110.82 14.1076Z" fill="#85E6D6"/>
<path d="M117.925 16.6322L117.636 16.6828C117.543 16.6992 117.449 16.7105 117.355 16.7166C117.264 16.7225 117.179 16.725 117.1 16.725C116.839 16.7321 116.58 16.6801 116.342 16.573C116.138 16.4771 115.968 16.3208 115.857 16.1255C115.738 15.9053 115.679 15.6578 115.687 15.4079V10.7303H118.087L118.274 9.3794H115.687V6.71134L113.951 7.31923V9.3794H112.64L112.453 10.7303H113.951V15.7625C113.943 16.0981 113.995 16.4325 114.104 16.7503C114.191 17.0018 114.327 17.2341 114.504 17.4343C114.666 17.6126 114.863 17.7563 115.083 17.8564C115.308 17.959 115.545 18.0328 115.789 18.076C116.03 18.1202 116.275 18.1428 116.521 18.1435C116.702 18.1435 116.881 18.1379 117.057 18.1266C117.234 18.1153 117.395 18.0985 117.542 18.076C117.69 18.0534 117.829 18.0281 117.959 18C118.09 17.9718 118.2 17.9468 118.291 17.924L118.393 16.5224C118.327 16.5477 118.259 16.5675 118.189 16.5815C118.11 16.5984 118.022 16.6153 117.925 16.6322Z" fill="#85E6D6"/>
<path d="M120.199 17.9915H121.935V9.21054L120.199 9.46381V17.9915Z" fill="#85E6D6"/>
<path d="M121.688 5.6728C121.512 5.56571 121.308 5.51013 121.101 5.51239C120.892 5.51081 120.685 5.56628 120.505 5.6728C120.328 5.77592 120.179 5.92094 120.072 6.09496C119.963 6.27018 119.907 6.47212 119.91 6.67756C119.908 6.88559 119.964 7.09006 120.072 7.26859C120.176 7.44526 120.325 7.59105 120.505 7.69075C120.687 7.79211 120.893 7.84448 121.101 7.8427C121.307 7.84514 121.51 7.79267 121.688 7.69075C121.863 7.59023 122.008 7.44429 122.105 7.26859C122.208 7.08819 122.26 6.88445 122.259 6.67756C122.261 6.47328 122.208 6.27209 122.105 6.09496C122.004 5.92183 121.861 5.77667 121.688 5.6728Z" fill="#85E6D6"/>
<path d="M131.263 9.54825C130.757 9.29492 130.195 9.17291 129.629 9.19363C129.135 9.19455 128.644 9.27147 128.173 9.42162C127.689 9.57486 127.228 9.79361 126.803 10.0717C126.639 10.179 126.481 10.2969 126.326 10.4182V9.21053L124.59 9.4638V17.9915H126.326V11.5783C126.494 11.4805 126.668 11.3919 126.846 11.3129C127.085 11.2078 127.329 11.1148 127.578 11.0343C127.817 10.9569 128.061 10.8976 128.31 10.857C128.543 10.8185 128.779 10.7988 129.016 10.7978C129.294 10.7914 129.571 10.8344 129.833 10.9245C130.05 11.0019 130.243 11.1326 130.395 11.3044C130.551 11.4906 130.662 11.7103 130.718 11.9461C130.791 12.2446 130.825 12.551 130.82 12.858V17.9915H132.556V12.5034C132.579 11.8632 132.469 11.2253 132.233 10.629C132.041 10.1712 131.699 9.79061 131.263 9.54825Z" fill="#85E6D6"/>
<path d="M140.582 9.41316C140.322 9.34252 140.058 9.28891 139.791 9.25272C139.486 9.2121 139.179 9.19236 138.871 9.19363C138.316 9.19137 137.766 9.3005 137.254 9.51448C136.742 9.72991 136.276 10.0425 135.884 10.4348C135.466 10.8579 135.144 11.3644 134.939 11.9208C134.702 12.5728 134.587 13.2625 134.599 13.9556C134.58 14.7182 134.728 15.4758 135.033 16.1762C135.299 16.7753 135.741 17.2812 136.301 17.6284C136.913 17.9869 137.616 18.1655 138.326 18.1435C138.951 18.1413 139.569 18.0209 140.148 17.7889C140.494 17.6492 140.82 17.4654 141.118 17.2423V17.7044C141.125 18.0849 141.071 18.464 140.957 18.8274C140.858 19.1322 140.689 19.4098 140.463 19.6379C140.219 19.8703 139.921 20.0387 139.595 20.1276C139.171 20.2432 138.732 20.2972 138.292 20.2881C137.943 20.2876 137.593 20.2678 137.246 20.2289C136.881 20.1882 136.519 20.1204 136.165 20.0263C135.799 19.9299 135.441 19.8085 135.092 19.6632L135.28 21.1493C135.593 21.2753 135.914 21.3797 136.242 21.4617C136.586 21.548 136.935 21.6128 137.288 21.6559C137.661 21.7013 138.036 21.7239 138.412 21.7234C139.249 21.7494 140.082 21.5848 140.846 21.2422C141.466 20.9557 141.985 20.4908 142.335 19.9081C142.678 19.3091 142.852 18.6295 142.838 17.9408V9.19363L141.173 9.61888C140.98 9.53815 140.783 9.46945 140.582 9.41316ZM140.897 16.1762C140.686 16.2979 140.467 16.4051 140.242 16.497C140.043 16.578 139.838 16.643 139.629 16.6912C139.425 16.737 139.217 16.7596 139.008 16.7588C138.497 16.7771 137.989 16.6637 137.535 16.4295C137.14 16.2056 136.833 15.854 136.667 15.4332C136.462 14.8855 136.367 14.3032 136.386 13.7192C136.379 13.2531 136.445 12.7887 136.582 12.3429C136.694 11.9766 136.885 11.6393 137.144 11.3551C137.396 11.0911 137.704 10.8863 138.046 10.7556C138.434 10.6095 138.847 10.5379 139.263 10.5446C139.531 10.5443 139.799 10.5669 140.063 10.6121C140.334 10.6596 140.601 10.7245 140.863 10.8063C140.946 10.8322 141.034 10.8665 141.119 10.898V16.047C141.044 16.0906 140.967 16.1362 140.897 16.1762Z" fill="#85E6D6"/>
<path d="M150.855 14.1076C150.68 13.9244 150.479 13.768 150.259 13.6433C150.03 13.5135 149.791 13.4033 149.544 13.314C149.362 13.2577 149.184 13.1986 149.008 13.1367C148.832 13.0747 148.656 13.0185 148.48 12.9678C148.304 12.9171 148.134 12.8636 147.969 12.8074C147.815 12.7555 147.664 12.6934 147.518 12.6216C147.378 12.548 147.244 12.4633 147.118 12.3683C147.001 12.2812 146.903 12.1721 146.829 12.0475C146.753 11.9195 146.715 11.7735 146.718 11.6253C146.713 11.4625 146.755 11.3017 146.837 11.1609C146.926 11.0228 147.049 10.9095 147.195 10.8316C147.373 10.7348 147.565 10.6664 147.765 10.629C148.014 10.5815 148.268 10.5589 148.522 10.5615C148.647 10.5615 148.783 10.5674 148.931 10.5784C149.078 10.5893 149.24 10.6096 149.416 10.6375C149.592 10.6653 149.767 10.7025 149.944 10.7472C150.12 10.792 150.298 10.8429 150.48 10.8992C150.648 10.9506 150.813 11.0126 150.973 11.0849L151.093 9.71713C150.877 9.62745 150.664 9.54865 150.454 9.48073C150.245 9.41347 150.032 9.35711 149.816 9.31187C149.605 9.26771 149.392 9.23667 149.178 9.21897C148.968 9.20209 148.76 9.19365 148.556 9.19365C148.086 9.18889 147.617 9.24277 147.161 9.35406C146.77 9.44841 146.399 9.60834 146.063 9.8269C145.758 10.0269 145.509 10.2999 145.339 10.6205C145.161 10.974 145.074 11.3654 145.084 11.7604C145.079 12.0449 145.125 12.328 145.22 12.5963C145.301 12.8215 145.422 13.0304 145.577 13.2126C145.729 13.385 145.903 13.5356 146.097 13.6601C146.298 13.7912 146.511 13.9016 146.735 13.9894C146.859 14.0348 146.99 14.0799 147.127 14.1245C147.263 14.1692 147.396 14.2114 147.526 14.2512C147.657 14.2907 147.784 14.3302 147.91 14.3694C148.034 14.4091 148.156 14.4482 148.275 14.4876C148.395 14.527 148.511 14.5635 148.624 14.5973C148.777 14.6509 148.925 14.7158 149.067 14.7915C149.192 14.8572 149.309 14.9365 149.416 15.0279C149.51 15.1096 149.585 15.2104 149.637 15.3235C149.689 15.4404 149.715 15.5671 149.714 15.6949C149.72 15.8198 149.698 15.9445 149.649 16.0599C149.601 16.1753 149.527 16.2785 149.433 16.362C149.222 16.5366 148.97 16.6557 148.701 16.7081C148.385 16.7773 148.063 16.8113 147.739 16.8095C147.537 16.8082 147.335 16.7941 147.135 16.7673C146.914 16.7395 146.681 16.7001 146.437 16.649C146.193 16.598 145.943 16.5361 145.688 16.4633C145.433 16.3905 145.175 16.3089 144.914 16.2184L144.982 17.6538C145.277 17.7551 145.546 17.8367 145.79 17.8987C146.034 17.9606 146.267 18.014 146.488 18.0591C146.701 18.1031 146.918 18.1313 147.135 18.1435C147.345 18.1548 147.557 18.1604 147.773 18.1604C148.248 18.1628 148.722 18.1146 149.186 18.0168C149.595 17.9345 149.986 17.7831 150.344 17.5694C150.665 17.3743 150.932 17.1011 151.118 16.7757C151.313 16.4184 151.41 16.0166 151.399 15.6105C151.406 15.3142 151.357 15.0193 151.254 14.7409C151.163 14.5065 151.027 14.2916 150.855 14.1076Z" fill="#85E6D6"/>
<path d="M159.647 9.73541C158.937 9.36163 158.143 9.17551 157.34 9.19503C156.53 9.17674 155.729 9.36883 155.016 9.75228C154.359 10.1175 153.821 10.6627 153.467 11.3227C153.083 12.0633 152.893 12.8879 152.914 13.7206C152.893 14.5468 153.071 15.3661 153.433 16.11C153.759 16.7595 154.28 17.2932 154.923 17.6383C155.615 17.9983 156.388 18.1784 157.17 18.1618C157.988 18.1779 158.797 17.986 159.519 17.6045C160.193 17.2395 160.746 16.6881 161.111 16.0172C161.506 15.2678 161.702 14.431 161.681 13.5855C161.7 12.7802 161.519 11.9826 161.153 11.2636C160.814 10.618 160.29 10.0863 159.647 9.73541ZM159.544 15.3924C159.353 15.8312 159.029 16.2001 158.617 16.4478C158.203 16.6829 157.732 16.8025 157.255 16.794C156.787 16.8056 156.326 16.6824 155.927 16.4393C155.533 16.1793 155.225 15.8091 155.042 15.3755C154.811 14.8193 154.7 14.2208 154.719 13.6193C154.699 13.0341 154.809 12.4517 155.042 11.9138C155.233 11.491 155.551 11.1371 155.953 10.9005C156.382 10.6661 156.867 10.5495 157.357 10.5628C157.74 10.5534 158.12 10.6254 158.472 10.7739C158.781 10.912 159.05 11.1238 159.255 11.3903C159.475 11.68 159.634 12.01 159.723 12.3612C159.83 12.7721 159.881 13.1951 159.876 13.6193C159.896 14.2272 159.783 14.8322 159.544 15.3924H159.544Z" fill="#85E6D6"/>
<path d="M167.348 9.32027C167.03 9.40493 166.726 9.53581 166.446 9.70866C166.156 9.88865 165.888 10.1011 165.646 10.3419C165.606 10.3819 165.567 10.4264 165.527 10.4683V9.21054L163.791 9.46381V17.9915H165.527V11.6121C165.656 11.5226 165.79 11.4397 165.927 11.3635C166.098 11.2705 166.274 11.1887 166.455 11.1187C166.631 11.0511 166.809 10.992 166.991 10.9414C167.178 10.8899 167.369 10.8532 167.561 10.8316C167.768 10.8092 167.976 10.8035 168.183 10.8147L168.387 9.22741C168.038 9.2027 167.687 9.23405 167.348 9.32027Z" fill="#85E6D6"/>
<path d="M177.374 9.3794H175.247L172.334 12.554H171.706V5.24219L169.97 5.49549V17.9915H171.706V13.8543H171.734L175.212 17.9915H177.459L173.33 13.3759L177.374 9.3794Z" fill="#85E6D6"/>
<path d="M185.494 10.4686C185.167 10.0485 184.736 9.71969 184.243 9.5145C183.695 9.29254 183.107 9.18338 182.515 9.19365C181.919 9.18365 181.327 9.29873 180.779 9.53137C180.28 9.74799 179.835 10.0709 179.477 10.477C179.107 10.9037 178.829 11.4007 178.659 11.9377C178.465 12.5523 178.371 13.1935 178.379 13.8374C178.355 14.6511 178.527 15.4588 178.881 16.1931C179.204 16.8297 179.727 17.3452 180.37 17.6622C181.125 18.0151 181.953 18.1859 182.787 18.1604C183.189 18.1638 183.59 18.1384 183.987 18.0844C184.32 18.0369 184.647 17.9606 184.966 17.8564C185.282 17.7511 185.59 17.6213 185.885 17.468L186.004 16.1678C185.789 16.247 185.57 16.3258 185.349 16.4042C185.128 16.4826 184.898 16.553 184.66 16.6153C184.419 16.6777 184.175 16.7228 183.928 16.7504C183.679 16.7786 183.429 16.7927 183.179 16.7926C182.732 16.7999 182.286 16.7517 181.851 16.649C181.5 16.5659 181.176 16.3976 180.906 16.1593C180.634 15.9024 180.435 15.5793 180.328 15.2221C180.216 14.8604 180.154 14.4856 180.142 14.1076H186.294C186.377 13.4092 186.346 12.702 186.2 12.0137C186.08 11.454 185.839 10.9267 185.494 10.4686ZM181.204 10.8738C181.604 10.6333 182.065 10.513 182.532 10.5277C183 10.5045 183.461 10.6384 183.843 10.9076C184.182 11.176 184.424 11.5464 184.532 11.963C184.617 12.271 184.659 12.5893 184.656 12.9087H180.18C180.211 12.5719 180.284 12.2402 180.395 11.9208C180.541 11.4928 180.826 11.1246 181.204 10.8738Z" fill="#85E6D6"/>
<path d="M193.8 14.1076C193.626 13.9244 193.425 13.7679 193.204 13.6433C192.976 13.5135 192.736 13.4033 192.489 13.314C192.308 13.2577 192.129 13.1986 191.953 13.1367C191.777 13.0747 191.601 13.0185 191.425 12.9678C191.249 12.9171 191.079 12.8636 190.914 12.8074C190.76 12.7554 190.61 12.6934 190.464 12.6216C190.324 12.548 190.19 12.4633 190.063 12.3683C189.947 12.2811 189.849 12.1721 189.774 12.0475C189.699 11.9195 189.661 11.7735 189.663 11.6253C189.659 11.4625 189.7 11.3017 189.783 11.1609C189.872 11.0227 189.995 10.9094 190.14 10.8316C190.318 10.7347 190.511 10.6663 190.71 10.629C190.96 10.5815 191.214 10.5589 191.468 10.5615C191.592 10.5615 191.729 10.5674 191.876 10.5784C192.024 10.5893 192.185 10.6096 192.362 10.6375C192.538 10.6653 192.713 10.7025 192.889 10.7472C193.065 10.792 193.244 10.8429 193.426 10.8992C193.594 10.9506 193.759 11.0127 193.919 11.0849L194.038 9.71713C193.822 9.62745 193.61 9.54865 193.4 9.48073C193.19 9.41347 192.977 9.35711 192.762 9.31187C192.551 9.26775 192.338 9.23671 192.123 9.21897C191.913 9.20209 191.706 9.19365 191.502 9.19365C191.032 9.18889 190.563 9.24277 190.106 9.35406C189.716 9.44841 189.344 9.60834 189.008 9.8269C188.704 10.0269 188.455 10.2999 188.285 10.6205C188.107 10.974 188.019 11.3654 188.03 11.7604C188.024 12.0449 188.07 12.328 188.166 12.5963C188.246 12.8215 188.367 13.0304 188.523 13.2126C188.674 13.385 188.849 13.5356 189.042 13.6601C189.243 13.7912 189.457 13.9015 189.681 13.9894C189.805 14.0348 189.936 14.0799 190.072 14.1245C190.209 14.1692 190.342 14.2114 190.472 14.2512C190.602 14.2907 190.73 14.3302 190.855 14.3694C190.98 14.4091 191.102 14.4482 191.221 14.4876C191.34 14.527 191.457 14.5635 191.57 14.5973C191.722 14.6508 191.87 14.7158 192.013 14.7915C192.137 14.8572 192.255 14.9365 192.362 15.0279C192.456 15.1096 192.531 15.2104 192.583 15.3235C192.635 15.4404 192.661 15.5671 192.659 15.6949C192.666 15.8198 192.643 15.9445 192.595 16.0599C192.546 16.1753 192.472 16.2785 192.379 16.362C192.168 16.5366 191.916 16.6556 191.647 16.7081C191.331 16.7773 191.008 16.8113 190.685 16.8095C190.483 16.8082 190.281 16.7941 190.081 16.7673C189.859 16.7395 189.627 16.7001 189.383 16.649C189.139 16.598 188.889 16.5361 188.634 16.4633C188.379 16.3905 188.12 16.3089 187.859 16.2184L187.927 17.6538C188.222 17.7551 188.492 17.8367 188.736 17.8987C188.98 17.9606 189.213 18.014 189.434 18.0591C189.647 18.1031 189.863 18.1313 190.081 18.1435C190.29 18.1548 190.503 18.1604 190.719 18.1604C191.194 18.1628 191.667 18.1146 192.132 18.0168C192.541 17.9344 192.932 17.7831 193.289 17.5694C193.611 17.3743 193.878 17.1011 194.064 16.7757C194.259 16.4184 194.355 16.0166 194.344 15.6105C194.351 15.3142 194.302 15.0193 194.2 14.7409C194.108 14.5065 193.973 14.2916 193.8 14.1076Z" fill="#85E6D6"/>
<path d="M200.907 16.6322L200.618 16.6828C200.525 16.6993 200.431 16.7105 200.337 16.7166C200.246 16.7225 200.16 16.725 200.081 16.725C199.82 16.7321 199.561 16.6801 199.324 16.573C199.12 16.477 198.95 16.3208 198.839 16.1255C198.719 15.9053 198.661 15.6578 198.669 15.4079V10.7303H201.069L201.256 9.3794H198.669V6.71134L196.932 7.31923V9.3794H195.621L195.434 10.7303H196.932V15.7625C196.924 16.0981 196.976 16.4325 197.085 16.7503C197.173 17.0018 197.309 17.234 197.485 17.4343C197.647 17.6127 197.844 17.7563 198.064 17.8564C198.289 17.959 198.527 18.0328 198.77 18.076C199.012 18.1202 199.257 18.1428 199.502 18.1435C199.684 18.1435 199.863 18.1379 200.039 18.1266C200.215 18.1153 200.377 18.0985 200.524 18.076C200.671 18.0532 200.81 18.0281 200.941 18C201.071 17.9718 201.182 17.9468 201.273 17.924L201.375 16.5224C201.309 16.5477 201.24 16.5675 201.171 16.5815C201.091 16.5984 201.003 16.6153 200.907 16.6322Z" fill="#85E6D6"/>
<path d="M206.737 9.32027C206.418 9.40492 206.114 9.5358 205.834 9.70866C205.544 9.88864 205.276 10.1011 205.034 10.3419C204.994 10.3819 204.955 10.4264 204.915 10.4683V9.21054L203.179 9.46381V17.9915H204.915V11.6121C205.044 11.5226 205.178 11.4397 205.315 11.3635C205.486 11.2705 205.662 11.1887 205.843 11.1187C206.019 11.0511 206.197 10.992 206.379 10.9414C206.566 10.8899 206.757 10.8532 206.949 10.8316C207.156 10.8092 207.363 10.8035 207.571 10.8147L207.775 9.22741C207.426 9.2027 207.075 9.23405 206.737 9.32027Z" fill="#85E6D6"/>
<path d="M215.945 10.4686C215.619 10.0485 215.188 9.71969 214.694 9.5145C214.146 9.29254 213.558 9.18338 212.967 9.19365C212.37 9.18363 211.779 9.29871 211.23 9.53137C210.732 9.74799 210.287 10.0709 209.928 10.477C209.559 10.9038 209.28 11.4008 209.111 11.9377C208.917 12.5523 208.822 13.1935 208.83 13.8374C208.806 14.6511 208.978 15.4587 209.332 16.1931C209.656 16.8296 210.178 17.345 210.822 17.6622C211.576 18.0151 212.405 18.1858 213.239 18.1604C213.64 18.1638 214.041 18.1384 214.439 18.0844C214.771 18.0369 215.099 17.9607 215.418 17.8564C215.734 17.7511 216.041 17.6212 216.337 17.468L216.456 16.1678C216.24 16.247 216.022 16.3258 215.8 16.4042C215.579 16.4826 215.35 16.553 215.111 16.6153C214.871 16.6777 214.626 16.7228 214.379 16.7504C214.131 16.7786 213.881 16.7927 213.63 16.7926C213.184 16.7999 212.737 16.7517 212.302 16.649C211.952 16.5659 211.627 16.3977 211.358 16.1593C211.086 15.9024 210.886 15.5793 210.779 15.2221C210.668 14.8604 210.606 14.4856 210.594 14.1076H216.745C216.829 13.4092 216.797 12.702 216.652 12.0137C216.532 11.454 216.291 10.9267 215.945 10.4686ZM211.656 10.8738C212.055 10.6333 212.517 10.513 212.984 10.5277C213.451 10.5045 213.913 10.6384 214.294 10.9076C214.633 11.1761 214.875 11.5465 214.983 11.963C215.068 12.2711 215.11 12.5893 215.108 12.9087H210.631C210.663 12.5719 210.735 12.2402 210.847 11.9208C210.993 11.4927 211.277 11.1245 211.656 10.8738Z" fill="#85E6D6"/>
<path d="M223.639 16.5815C223.56 16.5984 223.471 16.6153 223.375 16.6322L223.086 16.6828C222.993 16.6992 222.899 16.7105 222.805 16.7166C222.714 16.7225 222.629 16.725 222.55 16.725C222.289 16.7321 222.03 16.6801 221.792 16.573C221.588 16.477 221.419 16.3208 221.307 16.1255C221.188 15.9053 221.129 15.6578 221.137 15.4079V10.7303H223.537L223.724 9.3794H221.137V6.71134L219.401 7.31923V9.3794H218.09L217.903 10.7303H219.401V15.7625C219.393 16.0981 219.445 16.4325 219.554 16.7503C219.642 17.0018 219.778 17.2341 219.954 17.4343C220.116 17.6126 220.313 17.7562 220.533 17.8564C220.758 17.959 220.995 18.0328 221.239 18.076C221.48 18.1202 221.725 18.1428 221.971 18.1435C222.152 18.1435 222.331 18.1379 222.507 18.1266C222.684 18.1153 222.845 18.0985 222.993 18.076C223.14 18.0532 223.279 18.0281 223.41 18C223.54 17.9718 223.65 17.9468 223.741 17.924L223.844 16.5224C223.777 16.5477 223.709 16.5675 223.639 16.5815Z" fill="#85E6D6"/>
</svg>
