<svg xmlns="http://www.w3.org/2000/svg" viewBox="0 0 97 24"><path fill="#0A2343" d="M0 17.997V6h4v11.998H0ZM9.244 7.908l2.264 10.09H7.2l-2.704-12h2.417a2.276 2.276 0 0 1 1.513.55c.42.346.66.826.819 1.36ZM12 17.998v-12h4v12h-4Zm7.01-7.436a2.381 2.381 0 0 1-2.078-1.192 2.345 2.345 0 0 1-.321-1.208 2.301 2.301 0 0 1 .321-1.2A2.41 2.41 0 0 1 20.21 6.1c.356.21.653.506.862.862a2.3 2.3 0 0 1 .321 1.2 2.35 2.35 0 0 1-.321 1.208 2.4 2.4 0 0 1-.862.87 2.3 2.3 0 0 1-1.2.322ZM22 17.997V6h4v11.998h-4Zm8.974-5.441c.01.011.095.15.253.414s.364.602.617 1.014a309.436 309.436 0 0 1 1.597 2.62c.247.41.529.875.845 1.393H29.96c-.27-.439-.516-.836-.736-1.191-.22-.355-.453-.738-.7-1.15-.248-.41-.493-.81-.736-1.2a60.12 60.12 0 0 1-.625-1.021 18.04 18.04 0 0 0-.363-.592 1.747 1.747 0 0 1-.287-.845c.016-.29.11-.57.27-.811.067-.113.191-.313.371-.6a182.106 182.106 0 0 0 1.37-2.23l.7-1.159.736-1.2h4.326l-3.346 5.459a1.079 1.079 0 0 0-.17.541c.012.202.083.396.204.558Z"/><path fill="#1767CE" d="M50.055 5.447 48.75 6.86a5.189 5.189 0 0 0-1.337-.812c-.718-.298-1.535-.448-2.454-.448-.918 0-1.78.155-2.514.465a5.236 5.236 0 0 0-1.868 1.31 5.737 5.737 0 0 0-1.171 2.023c-.27.786-.405 1.656-.405 2.608 0 .953.132 1.811.396 2.575a5.59 5.59 0 0 0 .87 1.616L39 17.587l.844.792 1.245-1.358c.385.305.816.557 1.295.746.717.282 1.53.422 2.436.422.907 0 1.745-.149 2.48-.447a5.154 5.154 0 0 0 1.869-1.275 5.7 5.7 0 0 0 1.179-1.98c.276-.77.413-1.642.413-2.617 0-.976-.129-1.797-.387-2.566a5.77 5.77 0 0 0-.79-1.553l1.35-1.478-.879-.826Zm-8.713 4.029c.321-.735.786-1.312 1.395-1.73.608-.42 1.349-.63 2.221-.63.873 0 1.55.199 2.135.595.178.12.34.261.494.41l-6.076 6.705a4.376 4.376 0 0 1-.384-.89 6.498 6.498 0 0 1-.267-1.929c0-.952.16-1.796.482-2.531Zm7.293 4.357a4.32 4.32 0 0 1-.784 1.506c-.344.42-.766.747-1.266.982-.499.235-1.076.353-1.73.353-.654 0-1.194-.11-1.688-.327a3.486 3.486 0 0 1-.904-.583l6.05-6.627c.04.084.09.158.127.247.31.718.464 1.553.464 2.506 0 .711-.089 1.36-.267 1.945l-.002-.002Zm10.246.852c.097.247.146.542.146.887 0 .46-.095.855-.284 1.188a2.25 2.25 0 0 1-.784.81 3.693 3.693 0 0 1-1.17.456 6.705 6.705 0 0 1-1.43.146c-.218 0-.433-.006-.646-.017a4.455 4.455 0 0 1-.654-.086c-.224-.046-.46-.1-.706-.164a10.37 10.37 0 0 1-.818-.25l-.069-1.463c.264.092.525.175.784.25.258.074.51.137.757.189a8.7 8.7 0 0 0 .706.12c.224.03.428.043.612.043a4.4 4.4 0 0 0 .973-.103 1.65 1.65 0 0 0 .74-.353c.19-.166.284-.393.284-.68a.88.88 0 0 0-.301-.68 1.9 1.9 0 0 0-.353-.241 3.2 3.2 0 0 0-.448-.198 12.007 12.007 0 0 1-.353-.112 28.638 28.638 0 0 0-.758-.241 15.992 15.992 0 0 1-.8-.267 3.626 3.626 0 0 1-.646-.336 2.523 2.523 0 0 1-.525-.456 2.028 2.028 0 0 1-.362-.629 2.434 2.434 0 0 1-.138-.852c0-.448.086-.835.259-1.163.172-.327.416-.597.732-.809a3.557 3.557 0 0 1 1.11-.482c.425-.11.896-.164 1.412-.164.207 0 .416.009.629.026.212.017.427.049.645.095.219.046.434.103.646.172.213.069.428.15.646.241l-.12 1.395a4.14 4.14 0 0 0-.5-.19 11.18 11.18 0 0 0-.542-.154 5.886 5.886 0 0 0-1.438-.19c-.287 0-.543.023-.767.069a1.946 1.946 0 0 0-.576.207.979.979 0 0 0-.362.335.893.893 0 0 0-.12.474c0 .16.037.304.111.43.075.127.173.236.293.328.12.091.256.178.405.258.138.069.29.132.456.19.167.057.339.111.517.163a9.5 9.5 0 0 1 .534.172c.178.063.358.124.542.181.253.092.494.204.723.336.23.132.43.29.603.473.172.184.307.4.405.646Zm7.017 1.877c.08-.017.149-.037.206-.06l-.103 1.43a18.61 18.61 0 0 1-.336.077 5.61 5.61 0 0 1-.913.13 8.408 8.408 0 0 1-.542.016c-.24 0-.488-.023-.74-.069a2.963 2.963 0 0 1-.715-.224 1.8 1.8 0 0 1-.585-.43 2.11 2.11 0 0 1-.405-.698 2.927 2.927 0 0 1-.155-1.007v-5.132h-1.515l.189-1.377h1.326V7.117l1.756-.62v2.72h2.618l-.19 1.378h-2.428v4.77c0 .287.058.531.173.732.114.201.278.353.49.456.213.104.468.155.767.155.08 0 .166 0 .258-.008.092-.006.186-.017.284-.035l.293-.051c.097-.018.186-.035.267-.052ZM72.94 5.274l.069 1.43a1.52 1.52 0 0 0-.285-.087 18.064 18.064 0 0 0-.344-.068 3.828 3.828 0 0 0-.766-.07c-.218 0-.416.027-.594.078a1.05 1.05 0 0 0-.44.241c-.114.11-.203.247-.266.414a1.622 1.622 0 0 0-.095.576v1.43h2.41v1.343h-2.41V18h-1.756v-7.44h-1.292V9.219h1.292v-1.24c0-.505.071-.942.215-1.309.143-.367.344-.674.602-.921.259-.247.56-.428.905-.543a3.463 3.463 0 0 1 1.102-.172 5.61 5.61 0 0 1 1.128.103c.177.035.353.08.525.138Zm7.275 4.305c-.66-.367-1.438-.55-2.333-.55-.895 0-1.679.189-2.35.568a3.971 3.971 0 0 0-1.568 1.601c-.373.689-.56 1.504-.56 2.445 0 .942.176 1.754.526 2.437a3.59 3.59 0 0 0 1.507 1.558c.654.356 1.412.534 2.273.534.86 0 1.687-.19 2.376-.568a4.011 4.011 0 0 0 1.61-1.619c.385-.7.577-1.527.577-2.48 0-.952-.178-1.696-.534-2.367a3.762 3.762 0 0 0-1.524-1.559Zm-.103 5.769c-.224.482-.537.841-.939 1.076a2.675 2.675 0 0 1-1.377.353c-.517 0-.965-.12-1.343-.361-.38-.241-.678-.603-.896-1.085-.218-.482-.327-1.08-.327-1.791 0-.712.11-1.28.327-1.74.218-.459.525-.803.921-1.033.397-.23.87-.344 1.421-.344.436 0 .812.072 1.128.215.316.144.58.353.792.629.213.275.37.606.474.99.103.385.155.812.155 1.283 0 .723-.112 1.326-.336 1.808Zm7.19 1.36.206-.034-.172 1.36a3.853 3.853 0 0 1-1.068.138c-.275 0-.53-.031-.766-.095a1.52 1.52 0 0 1-.612-.318 1.441 1.441 0 0 1-.396-.577 2.349 2.349 0 0 1-.137-.852V5.257L86.114 5v10.556c0 .206.014.384.043.534a.95.95 0 0 0 .147.37.62.62 0 0 0 .258.215.93.93 0 0 0 .379.069c.069 0 .129 0 .18-.009.052-.006.112-.014.181-.026Zm7.903-11.45v4.19a.406.406 0 0 1-.051-.024 5.932 5.932 0 0 0-2.187-.396c-.77 0-1.484.19-2.144.569-.66.378-1.191.927-1.593 1.644-.402.718-.603 1.593-.603 2.626 0 .884.152 1.647.457 2.29.304.643.74 1.14 1.308 1.49.569.35 1.249.525 2.04.525.46 0 .893-.057 1.301-.172a4.698 4.698 0 0 0 1.197-.534c.129-.08.258-.17.387-.261l.216.795h1.429V5.016l-1.757.241Zm-.92 11.27c-.454.166-.865.25-1.232.25-.551 0-1.022-.113-1.412-.336-.39-.224-.689-.569-.896-1.034-.206-.465-.31-1.047-.31-1.747 0-.7.115-1.306.345-1.783.23-.476.56-.838.99-1.085.43-.246.944-.37 1.541-.37a5.215 5.215 0 0 1 1.627.25c.084.026.178.063.267.095v5.306a5.672 5.672 0 0 1-.92.454Z"/></svg>