<svg xmlns="http://www.w3.org/2000/svg" viewBox="0 0 60 14" fill="currentColor"><path d="M0 12.998v-12h3.937v12H0Zm9.294-10.09 2.264 10.09H7.25l-2.703-12h2.416a2.276 2.276 0 0 1 1.513.55c.42.346.71.826.819 1.36Zm2.856 10.09v-12h3.937v12H12.15Zm6.91-7.436a2.383 2.383 0 0 1-2.4-2.4 2.303 2.303 0 0 1 .322-1.2A2.412 2.412 0 0 1 20.26 1.1c.356.21.653.506.862.862.215.363.326.778.321 1.2a2.4 2.4 0 0 1-1.183 2.079 2.303 2.303 0 0 1-1.2.32Zm2.992 7.436v-12h3.937v12h-3.937Zm8.922-5.442a9.3 9.3 0 0 1 .253.414c.158.264.364.602.617 1.014a325.765 325.765 0 0 1 1.597 2.62c.247.411.529.876.845 1.394H29.96c-.27-.44-.516-.837-.736-1.192-.22-.354-.453-.738-.7-1.149-.248-.41-.493-.81-.736-1.2-.242-.389-.45-.73-.625-1.022-.175-.293-.296-.49-.363-.592a1.75 1.75 0 0 1-.287-.845c.016-.29.11-.57.27-.811.067-.113.191-.313.372-.6a182.106 182.106 0 0 0 1.37-2.23c.247-.412.48-.798.7-1.158l.735-1.2h4.326L30.94 6.457a1.078 1.078 0 0 0-.17.541c.012.202.082.396.203.558ZM38.857 2.503h3.896v10.476h1.787V2.503h3.88V1.02h-9.563v1.483ZM57.81 1.02l-2.534 7.445a58.922 58.922 0 0 0-.757 2.493l-.178.638a88.345 88.345 0 0 0-.571-1.977c-.13-.432-.264-.84-.4-1.221L50.886 1.02H48.98l4.186 11.96h2.212L59.58 1.02h-1.77Z"/></svg>