<svg xmlns="http://www.w3.org/2000/svg" viewBox="0 0 219 24" fill="currentColor"><path d="M0 17.998V6h3.937v11.998H0ZM9.294 7.91 11.558 18H7.25l-2.703-12h2.416a2.276 2.276 0 0 1 1.513.55c.42.346.71.826.819 1.36ZM12.15 18v-12h3.937v12H12.15Zm6.91-7.436a2.382 2.382 0 0 1-2.4-2.4 2.303 2.303 0 0 1 .322-1.2 2.412 2.412 0 0 1 3.278-.862c.356.21.653.506.862.862.215.363.326.778.321 1.2a2.4 2.4 0 0 1-1.183 2.079 2.303 2.303 0 0 1-1.2.32Zm2.992 7.435V6h3.937v11.998h-3.937Zm8.922-5.441c.01.011.095.15.253.414s.364.602.617 1.014a327.152 327.152 0 0 1 1.597 2.62c.247.41.529.875.845 1.393H29.96c-.27-.439-.516-.836-.736-1.19-.22-.356-.453-.739-.7-1.15-.248-.411-.493-.81-.736-1.2-.242-.39-.45-.73-.625-1.022a18.04 18.04 0 0 0-.363-.592 1.75 1.75 0 0 1-.287-.845c.016-.29.11-.57.27-.811.067-.113.191-.313.372-.6a182.106 182.106 0 0 0 1.37-2.23c.247-.412.48-.798.7-1.159L29.96 6h4.326l-3.346 5.459a1.079 1.079 0 0 0-.17.541c.012.202.082.396.203.558ZM48.108 6h-2.112l-4.59 5.29h-.632V6H39V18h1.774v-5.425h.06l4.993 5.441L48.243 18l-5.729-5.949L48.108 6ZM53.126 9.321a3.317 3.317 0 0 0-.895.389c-.289.18-.555.393-.795.634-.04.04-.078.084-.118.126V9.212l-1.724.253v8.534h1.724v-6.384a4.415 4.415 0 0 1 .921-.494c.174-.068.352-.127.532-.177a3.63 3.63 0 0 1 1.183-.127l.203-1.589a3.226 3.226 0 0 0-1.031.093ZM55.729 17.999h1.723V9.212l-1.723.253v8.534ZM57.207 5.671a1.095 1.095 0 0 0-.583-.16 1.137 1.137 0 0 0-.591.16 1.241 1.241 0 0 0-.431.423 1.096 1.096 0 0 0-.16.583c-.002.208.053.413.16.591.103.177.252.323.43.423.181.101.385.154.592.152.205.002.406-.05.583-.152.174-.1.317-.247.414-.423.102-.18.154-.384.152-.591a1.142 1.142 0 0 0-.152-.583 1.195 1.195 0 0 0-.414-.423ZM66.712 9.55a3.327 3.327 0 0 0-1.622-.355c-.49 0-.978.078-1.445.228a5.494 5.494 0 0 0-1.36.65 6.69 6.69 0 0 0-.473.347V9.212l-1.724.253v8.534h1.724V11.58c.166-.098.339-.186.515-.266.237-.105.48-.198.727-.278.237-.078.48-.137.726-.178a4.41 4.41 0 0 1 .702-.06c.275-.005.55.037.81.128.216.077.408.208.558.38.156.186.266.406.322.642.072.299.106.605.1.912V18h1.724v-5.492a4.689 4.689 0 0 0-.32-1.876 2.218 2.218 0 0 0-.964-1.082ZM75.963 9.414a6.097 6.097 0 0 0-.785-.16 6.643 6.643 0 0 0-.913-.06 4.09 4.09 0 0 0-1.605.322 4.249 4.249 0 0 0-1.36.92c-.415.424-.735.93-.938 1.488a5.696 5.696 0 0 0-.338 2.036 5.283 5.283 0 0 0 .43 2.222c.265.6.704 1.106 1.26 1.453a3.729 3.729 0 0 0 2.01.516 4.872 4.872 0 0 0 1.809-.355c.343-.14.667-.324.963-.547v.462c.007.381-.047.76-.16 1.124a2.041 2.041 0 0 1-.49.811 2.013 2.013 0 0 1-.863.49c-.42.116-.856.17-1.292.16-.348 0-.695-.02-1.04-.058a7.336 7.336 0 0 1-1.073-.203 8.188 8.188 0 0 1-1.064-.364l.186 1.488c.31.126.63.23.954.312.343.086.69.151 1.04.194.37.046.742.069 1.115.068a5.449 5.449 0 0 0 2.416-.482 3.388 3.388 0 0 0 1.479-1.335c.34-.599.513-1.28.499-1.968V9.195l-1.653.425a4.975 4.975 0 0 0-.587-.206Zm.313 6.768c-.21.122-.426.229-.65.321-.198.081-.401.146-.609.194-.202.046-.41.069-.617.068a2.938 2.938 0 0 1-1.461-.33 1.98 1.98 0 0 1-.862-.996 4.492 4.492 0 0 1-.279-1.716 4.47 4.47 0 0 1 .194-1.377 2.6 2.6 0 0 1 .558-.988c.25-.265.556-.47.896-.6a3.26 3.26 0 0 1 1.208-.211c.266 0 .532.022.794.067.269.048.534.112.794.194.083.026.17.06.254.092v5.153l-.22.129ZM88.172 9.38H86.06l-2.891 3.177h-.624V5.24l-1.723.254v12.505h1.723v-4.14h.028l3.453 4.14h2.23l-4.098-4.62 4.014-3.998ZM97.01 16.934a.769.769 0 0 1-.659-.27 1.452 1.452 0 0 1-.186-.896l.034-3.481a4.049 4.049 0 0 0-.135-1.082 2.647 2.647 0 0 0-.406-.861 2.296 2.296 0 0 0-.701-.626 3.597 3.597 0 0 0-1.022-.388 6.033 6.033 0 0 0-1.335-.135c-.356 0-.712.022-1.065.067a7.297 7.297 0 0 0-.988.195c-.302.081-.598.18-.888.295l-.203 1.437a9.882 9.882 0 0 1 1.538-.423c.232-.044.466-.075.702-.093.23-.017.458-.025.684-.025a3.79 3.79 0 0 1 1.022.118c.244.061.468.183.65.355.164.167.28.374.339.6.072.278.106.566.101.853l-.002.424-1.975.134a5.253 5.253 0 0 0-1.96.44 2.81 2.81 0 0 0-1.158.937c-.25.366-.382.8-.38 1.242-.003.416.099.825.296 1.191.206.376.517.684.895.888.462.24.977.356 1.496.338.487.01.97-.07 1.428-.237a3.297 3.297 0 0 0 1.065-.676c.116-.112.227-.23.332-.354.033.175.095.343.183.498.15.258.382.46.659.574.306.123.633.183.963.178.102 0 .2-.003.296-.009a1.51 1.51 0 0 0 .278-.042c.09-.023.172-.042.246-.06.066-.014.13-.034.194-.058l.186-1.133a1.48 1.48 0 0 1-.287.068c-.079.01-.158.016-.237.017Zm-2.813-.76c-.184.144-.382.269-.592.371-.209.102-.43.176-.659.22a3.725 3.725 0 0 1-.718.068 1.909 1.909 0 0 1-.803-.152c-.206-.09-.38-.24-.498-.431a1.267 1.267 0 0 1-.17-.668c-.016-.282.061-.56.22-.794.184-.215.433-.363.71-.423a5.153 5.153 0 0 1 1.318-.135h1.48l-.008 1.678a2.32 2.32 0 0 1-.28.266ZM104.479 14.112a2.578 2.578 0 0 0-.592-.465 4.574 4.574 0 0 0-.71-.33c-.18-.056-.357-.115-.532-.177a9.397 9.397 0 0 0-.524-.169c-.175-.05-.344-.104-.507-.16a3.66 3.66 0 0 1-.448-.186 2.97 2.97 0 0 1-.397-.254 1.107 1.107 0 0 1-.287-.32.804.804 0 0 1-.11-.423.871.871 0 0 1 .119-.465.96.96 0 0 1 .354-.33c.177-.096.368-.165.566-.202.248-.047.5-.07.752-.068a5.477 5.477 0 0 1 .888.076c.174.028.349.066.523.11.175.045.352.096.533.152.167.052.33.114.489.186l.119-1.368a8.335 8.335 0 0 0-.634-.237 6.279 6.279 0 0 0-.633-.169 5.133 5.133 0 0 0-.634-.093 7.642 7.642 0 0 0-.617-.025 5.561 5.561 0 0 0-1.385.16 3.495 3.495 0 0 0-1.09.473c-.303.2-.55.474-.718.795a2.414 2.414 0 0 0-.254 1.14c-.005.285.04.568.135.837.08.225.2.434.355.616.15.173.324.324.516.448.2.131.412.242.633.33.124.045.253.09.389.135.135.045.267.088.397.127a26.738 26.738 0 0 1 .743.236c.118.04.234.076.347.11.151.054.298.119.439.194.124.066.24.145.347.237a.869.869 0 0 1 .296.667.84.84 0 0 1-.279.667c-.21.176-.46.295-.727.347-.314.07-.634.104-.955.102a4.668 4.668 0 0 1-.599-.043 8.593 8.593 0 0 1-.693-.118c-.242-.05-.49-.113-.744-.186-.253-.073-.51-.154-.769-.245l.068 1.437c.293.101.56.183.803.245.242.062.473.115.692.16.212.044.427.072.643.085.208.01.419.017.633.017.471.002.942-.046 1.402-.144a3.624 3.624 0 0 0 1.15-.448c.319-.195.584-.468.769-.794.193-.358.289-.76.278-1.166a2.367 2.367 0 0 0-.143-.87 1.987 1.987 0 0 0-.397-.634ZM111.532 16.638l-.287.05a2.47 2.47 0 0 1-.279.035c-.09.006-.175.008-.253.008a1.705 1.705 0 0 1-.752-.152 1.09 1.09 0 0 1-.482-.448 1.426 1.426 0 0 1-.169-.718v-4.68h2.383l.186-1.352h-2.569V6.71l-1.723.608V9.38h-1.302l-.185 1.351h1.487v5.036c-.008.336.044.67.152.988.087.252.222.485.397.685.161.178.356.322.575.422a2.9 2.9 0 0 0 .701.22c.239.044.482.067.726.068.18 0 .358-.006.533-.017.175-.012.335-.028.481-.05.147-.023.285-.049.414-.077.13-.028.239-.053.33-.076l.101-1.403a1.256 1.256 0 0 1-.202.06 7.002 7.002 0 0 1-.263.05ZM113.789 17.999h1.724V9.212l-1.724.253v8.534ZM115.268 5.671a1.093 1.093 0 0 0-.583-.16 1.137 1.137 0 0 0-.591.16 1.245 1.245 0 0 0-.431.423 1.1 1.1 0 0 0-.161.583 1.14 1.14 0 0 0 .161.591c.103.177.252.323.431.423.18.101.384.154.591.152.205.002.406-.05.583-.152.174-.1.317-.247.414-.423.102-.18.154-.384.152-.591a1.136 1.136 0 0 0-.152-.583 1.194 1.194 0 0 0-.414-.423ZM124.773 9.55a3.326 3.326 0 0 0-1.622-.355c-.491 0-.978.078-1.445.228a5.493 5.493 0 0 0-1.36.65c-.164.108-.32.226-.474.347V9.212l-1.723.253v8.534h1.723V11.58c.167-.098.339-.187.516-.266.237-.105.48-.198.727-.278.237-.078.48-.137.726-.178.232-.038.467-.058.702-.06.275-.005.55.037.811.128.215.077.407.208.557.38.155.186.265.406.321.642.072.299.106.605.101.912V18h1.724v-5.492a4.679 4.679 0 0 0-.321-1.876 2.217 2.217 0 0 0-.963-1.082ZM134.025 9.414a6.14 6.14 0 0 0-.786-.16 6.656 6.656 0 0 0-.913-.06 4.09 4.09 0 0 0-1.605.322 4.245 4.245 0 0 0-1.36.92 4.16 4.16 0 0 0-.938 1.488 5.696 5.696 0 0 0-.338 2.036 5.284 5.284 0 0 0 .43 2.222c.265.6.704 1.106 1.26 1.453a3.726 3.726 0 0 0 2.01.516 4.868 4.868 0 0 0 1.808-.355 4.27 4.27 0 0 0 .964-.547v.462c.006.381-.048.76-.161 1.124a2.034 2.034 0 0 1-.49.811 2.013 2.013 0 0 1-.862.49c-.421.116-.856.17-1.293.16-.347 0-.694-.02-1.038-.058a7.315 7.315 0 0 1-1.074-.203 8.164 8.164 0 0 1-1.064-.364l.186 1.488c.31.126.629.23.954.312.342.087.689.151 1.039.194.37.046.743.069 1.116.068a5.447 5.447 0 0 0 2.416-.482 3.386 3.386 0 0 0 1.479-1.335c.34-.599.512-1.279.499-1.968V9.195l-1.653.425a5 5 0 0 0-.586-.206Zm.312 6.768c-.209.122-.426.23-.65.321a3.99 3.99 0 0 1-.609.194 2.74 2.74 0 0 1-.616.068 2.937 2.937 0 0 1-1.462-.33 1.979 1.979 0 0 1-.862-.996 4.498 4.498 0 0 1-.279-1.716 4.491 4.491 0 0 1 .194-1.377c.111-.367.302-.704.558-.988.25-.265.556-.47.896-.6a3.254 3.254 0 0 1 1.208-.211c.266 0 .532.022.794.067.269.048.534.112.795.194.082.026.169.06.253.092v5.153l-.22.129ZM144.222 14.112a2.546 2.546 0 0 0-.591-.465 4.626 4.626 0 0 0-.71-.33 14.54 14.54 0 0 1-.532-.177 9.673 9.673 0 0 0-.524-.169c-.175-.05-.344-.104-.507-.16a3.644 3.644 0 0 1-.448-.186 2.888 2.888 0 0 1-.397-.254 1.093 1.093 0 0 1-.287-.32.814.814 0 0 1-.111-.423.88.88 0 0 1 .119-.465.965.965 0 0 1 .355-.33c.177-.096.368-.165.566-.202.248-.047.5-.07.752-.068a5.43 5.43 0 0 1 .887.076c.175.028.349.066.524.11.175.045.352.096.532.152.167.052.331.114.49.186l.119-1.368a8.339 8.339 0 0 0-.634-.237 6.29 6.29 0 0 0-.634-.169 5.098 5.098 0 0 0-.633-.093 7.66 7.66 0 0 0-.617-.025 5.57 5.57 0 0 0-1.386.16 3.498 3.498 0 0 0-1.09.473 2.16 2.16 0 0 0-.718.795 2.412 2.412 0 0 0-.254 1.14c-.005.285.041.568.136.837.08.225.2.434.355.616.15.173.323.324.515.448.199.131.412.242.634.33.123.045.253.09.388.135.136.045.268.087.397.127l.381.118.363.118c.118.04.234.076.346.11.151.054.298.119.44.194.124.066.24.145.346.237a.857.857 0 0 1 .296.667.846.846 0 0 1-.279.668 1.617 1.617 0 0 1-.727.346c-.313.07-.633.104-.954.102a4.683 4.683 0 0 1-.6-.043 8.593 8.593 0 0 1-.693-.118c-.242-.05-.49-.113-.744-.186a14.497 14.497 0 0 1-.768-.245l.067 1.437c.293.101.56.183.803.245.242.062.473.115.693.16.211.044.426.072.642.085.208.01.419.017.633.017a6.59 6.59 0 0 0 1.403-.144 3.62 3.62 0 0 0 1.149-.448c.32-.195.584-.468.769-.794.193-.358.289-.76.278-1.166a2.368 2.368 0 0 0-.143-.87 1.972 1.972 0 0 0-.397-.634ZM152.95 9.737a4.635 4.635 0 0 0-2.289-.541 4.615 4.615 0 0 0-2.307.558 3.897 3.897 0 0 0-1.538 1.571 4.974 4.974 0 0 0-.549 2.4 5.177 5.177 0 0 0 .515 2.39c.324.65.84 1.185 1.479 1.53.687.36 1.455.54 2.23.524a4.762 4.762 0 0 0 2.333-.558 3.94 3.94 0 0 0 1.58-1.588c.392-.75.587-1.587.566-2.434a4.902 4.902 0 0 0-.524-2.323 3.693 3.693 0 0 0-1.496-1.53Zm-.101 5.66c-.19.44-.512.809-.921 1.057a2.627 2.627 0 0 1-1.352.346 2.404 2.404 0 0 1-1.318-.355 2.389 2.389 0 0 1-.879-1.064 4.266 4.266 0 0 1-.32-1.758 3.983 3.983 0 0 1 .32-1.706c.19-.424.506-.778.905-1.014a2.733 2.733 0 0 1 1.394-.338c.379-.01.757.062 1.106.211.307.138.574.35.778.617.218.29.376.62.464.971.106.412.157.835.153 1.26a4.218 4.218 0 0 1-.331 1.774h.001ZM160.596 9.321a3.307 3.307 0 0 0-.895.389c-.289.18-.555.393-.795.634-.039.04-.078.084-.118.126V9.212l-1.723.253v8.534h1.723v-6.384a4.395 4.395 0 0 1 .921-.494c.175-.068.352-.127.532-.177a3.65 3.65 0 0 1 1.184-.127l.202-1.589a3.228 3.228 0 0 0-1.031.093ZM170.549 9.38h-2.112l-2.892 3.177h-.623V5.24l-1.723.254v12.505h1.723v-4.14h.028l3.453 4.14h2.23l-4.098-4.62 4.014-3.998ZM178.61 10.47a3.075 3.075 0 0 0-1.242-.954 4.34 4.34 0 0 0-1.716-.321 4.202 4.202 0 0 0-1.723.338c-.495.216-.937.54-1.293.946a4.136 4.136 0 0 0-.811 1.462 6.096 6.096 0 0 0-.279 1.9 5.108 5.108 0 0 0 .499 2.358 3.296 3.296 0 0 0 1.478 1.47c.75.353 1.572.524 2.4.498.398.004.796-.021 1.191-.076a5.713 5.713 0 0 0 1.884-.616l.119-1.301c-.215.079-.432.158-.651.236a8.5 8.5 0 0 1-.684.211 5.169 5.169 0 0 1-.727.136 6.53 6.53 0 0 1-.744.042 5.321 5.321 0 0 1-1.318-.144 2.162 2.162 0 0 1-.937-.49 2.125 2.125 0 0 1-.575-.938 4.306 4.306 0 0 1-.184-1.115h6.107a6.496 6.496 0 0 0-.093-2.095 3.95 3.95 0 0 0-.701-1.546Zm-4.259.406c.397-.24.855-.361 1.318-.346a2.07 2.07 0 0 1 1.302.38c.336.268.576.639.684 1.056.084.308.126.627.123.946h-4.444c.031-.337.103-.669.214-.988a2.05 2.05 0 0 1 .803-1.048ZM186.855 14.112a2.546 2.546 0 0 0-.591-.465 4.583 4.583 0 0 0-.71-.33 14.54 14.54 0 0 1-.532-.177 9.397 9.397 0 0 0-.524-.169c-.175-.05-.344-.104-.507-.16a3.66 3.66 0 0 1-.448-.186 2.907 2.907 0 0 1-.397-.254 1.11 1.11 0 0 1-.287-.32.804.804 0 0 1-.11-.423.87.87 0 0 1 .118-.465.972.972 0 0 1 .355-.33c.177-.096.368-.165.566-.202.248-.047.5-.07.752-.068a5.477 5.477 0 0 1 .887.076c.175.028.349.066.524.11.175.045.352.096.533.152.167.052.33.114.489.186l.119-1.368a8.339 8.339 0 0 0-.634-.237 6.27 6.27 0 0 0-.633-.169 5.157 5.157 0 0 0-.634-.093 7.642 7.642 0 0 0-.617-.025 5.575 5.575 0 0 0-1.386.16 3.493 3.493 0 0 0-1.089.473c-.303.2-.55.474-.719.795a2.423 2.423 0 0 0-.253 1.14c-.005.285.04.568.135.837.08.225.2.434.355.616.15.173.324.324.515.448.2.131.412.242.634.33a18.388 18.388 0 0 0 .786.262 52.332 52.332 0 0 1 .743.236c.119.04.234.076.347.11.151.054.298.119.439.194.124.066.24.146.346.237a.86.86 0 0 1 .296.667.846.846 0 0 1-.279.668 1.62 1.62 0 0 1-.726.346c-.314.07-.634.104-.955.102a4.683 4.683 0 0 1-.6-.043 8.668 8.668 0 0 1-.693-.118c-.242-.05-.49-.113-.744-.186a14.497 14.497 0 0 1-.768-.245l.067 1.437c.293.101.561.183.803.245.243.062.473.115.693.16.212.044.426.072.642.085.208.01.42.017.634.017.471.002.941-.046 1.402-.144a3.614 3.614 0 0 0 1.149-.448c.32-.195.584-.468.769-.794.194-.358.29-.76.279-1.166a2.369 2.369 0 0 0-.144-.87 1.972 1.972 0 0 0-.397-.634ZM193.911 16.638l-.287.05a2.517 2.517 0 0 1-.28.035c-.09.006-.174.008-.253.008a1.705 1.705 0 0 1-.752-.152 1.091 1.091 0 0 1-.482-.448 1.436 1.436 0 0 1-.169-.718v-4.68h2.383l.186-1.352h-2.569V6.71l-1.723.608V9.38h-1.302l-.185 1.351h1.487v5.036c-.008.336.043.67.152.988.087.252.222.485.397.685.161.178.356.322.575.422a2.9 2.9 0 0 0 .701.22c.239.044.482.067.726.068.18 0 .358-.006.533-.017.175-.012.335-.028.481-.05.147-.024.285-.049.414-.077.13-.028.239-.053.33-.076l.101-1.403a1.248 1.248 0 0 1-.203.06 7.253 7.253 0 0 1-.261.05ZM199.698 9.321a3.326 3.326 0 0 0-.896.389 4.45 4.45 0 0 0-.794.634c-.04.04-.078.084-.118.126V9.212l-1.724.253v8.534h1.724v-6.384a4.38 4.38 0 0 1 .921-.494 5.85 5.85 0 0 1 .532-.177 3.65 3.65 0 0 1 1.183-.127l.203-1.589a3.223 3.223 0 0 0-1.031.093ZM208.84 10.47a3.075 3.075 0 0 0-1.242-.954 4.338 4.338 0 0 0-1.715-.321 4.203 4.203 0 0 0-1.724.338c-.495.216-.936.54-1.293.946a4.136 4.136 0 0 0-.811 1.462 6.096 6.096 0 0 0-.279 1.9 5.108 5.108 0 0 0 .499 2.358 3.298 3.298 0 0 0 1.478 1.47c.75.353 1.572.524 2.4.498.398.004.796-.021 1.191-.076a5.713 5.713 0 0 0 1.884-.616l.119-1.301c-.215.079-.431.158-.651.236a8.5 8.5 0 0 1-.684.211 5.154 5.154 0 0 1-.727.136 6.526 6.526 0 0 1-.743.042 5.324 5.324 0 0 1-1.319-.144 2.16 2.16 0 0 1-.937-.49 2.143 2.143 0 0 1-.575-.938 4.306 4.306 0 0 1-.184-1.115h6.107a6.468 6.468 0 0 0-.093-2.095 3.95 3.95 0 0 0-.701-1.546Zm-4.259.406c.397-.24.855-.361 1.319-.346.464-.024.922.11 1.301.38.336.268.576.64.684 1.056.084.308.126.627.123.946h-4.444c.031-.337.103-.669.215-.988.144-.429.426-.797.802-1.048ZM216.478 16.588a7.88 7.88 0 0 1-.263.05l-.287.05a2.481 2.481 0 0 1-.278.035 3.844 3.844 0 0 1-.254.008 1.706 1.706 0 0 1-.752-.152 1.084 1.084 0 0 1-.481-.448 1.416 1.416 0 0 1-.169-.718v-4.68h2.382l.186-1.352h-2.568V6.71l-1.724.608V9.38h-1.301l-.186 1.351h1.487v5.036c-.008.336.044.67.152.988.087.252.222.485.397.685.161.178.357.322.575.422a2.9 2.9 0 0 0 .701.22c.239.044.483.067.726.068.181 0 .358-.006.533-.017a5.522 5.522 0 0 0 .896-.127c.129-.028.239-.053.329-.076l.101-1.403a1.226 1.226 0 0 1-.202.06Z"/></svg>