<svg xmlns="http://www.w3.org/2000/svg" viewBox="0 0 59 24"><path fill="#78003D" d="M0 0h59v24H0z"/><path fill="#fff" d="M6.004 18V6.001h3.937V18H6.004Zm9.294-10.09L17.562 18h-4.309L10.55 6.001h2.416a2.276 2.276 0 0 1 1.513.55c.42.345.71.826.82 1.36ZM18.154 18V6.001h3.937V18h-3.937Zm6.91-7.436a2.383 2.383 0 0 1-2.4-2.4 2.303 2.303 0 0 1 .323-1.2 2.411 2.411 0 0 1 3.278-.861c.355.209.652.506.861.861.215.363.326.778.322 1.2a2.4 2.4 0 0 1-1.183 2.079 2.302 2.302 0 0 1-1.2.321ZM28.057 18V6.001h3.937V18h-3.937Zm8.922-5.442c.011.012.096.15.253.414.158.265.364.603.617 1.014a315.936 315.936 0 0 1 1.597 2.62c.247.411.529.876.845 1.394h-4.326c-.27-.44-.516-.837-.735-1.191-.22-.355-.453-.738-.7-1.15-.249-.41-.494-.81-.737-1.2-.242-.389-.45-.73-.625-1.022-.175-.293-.296-.49-.363-.591a1.748 1.748 0 0 1-.287-.845c.017-.29.11-.57.27-.812.068-.113.192-.313.372-.6s.391-.628.633-1.022c.243-.395.488-.797.736-1.209l.7-1.157.736-1.2h4.326l-3.346 5.458a1.08 1.08 0 0 0-.17.542c.012.201.082.395.203.557h.001Z"/><path fill="#FDAFD7" d="M47.12 16.549c.267-.23.543-.468.833-.727.406-.36.814-.752 1.225-1.174a20.02 20.02 0 0 0 1.174-1.318c.361-.442.692-.907.989-1.394.277-.453.504-.934.676-1.436.16-.462.242-.947.245-1.436a3.117 3.117 0 0 0-.27-1.327 2.862 2.862 0 0 0-.795-1.013 3.624 3.624 0 0 0-1.309-.66 6.466 6.466 0 0 0-1.8-.228 6.649 6.649 0 0 0-1.174.102 6.11 6.11 0 0 0-1.081.296 7.291 7.291 0 0 0-.971.447l.219 1.47a4.5 4.5 0 0 1 .853-.448A5.98 5.98 0 0 1 46.94 7.4a5.17 5.17 0 0 1 1.064-.11c.375-.007.748.044 1.107.153.285.087.548.237.768.439.199.185.352.413.448.667.098.268.147.551.144.837a3.747 3.747 0 0 1-.287 1.393 7.412 7.412 0 0 1-.811 1.47c-.379.538-.791 1.052-1.234 1.538a26.923 26.923 0 0 1-1.546 1.571c-.557.524-1.135 1.056-1.732 1.597l.22 1.047h7.316l.203-1.453h-5.48Z"/></svg>