<svg xmlns="http://www.w3.org/2000/svg" viewBox="0 0 113 24">
  <path fill="#fff" d="M0 17.999v-12h4v12H0Zm9.244-10.09L11.508 18H7.2l-2.704-12h2.417a2.276 2.276 0 0 1 1.513.55c.42.346.66.826.819 1.36ZM12 18v-12h4v12h-4Zm7.01-7.436a2.381 2.381 0 0 1-2.078-1.191 2.345 2.345 0 0 1-.321-1.209 2.301 2.301 0 0 1 .321-1.2 2.41 2.41 0 0 1 3.278-.862c.356.21.653.506.862.862.215.363.326.778.321 1.2a2.35 2.35 0 0 1-.321 1.208 2.4 2.4 0 0 1-.862.87 2.3 2.3 0 0 1-1.2.322ZM22 17.999v-12h4v12h-4Zm8.974-5.442c.01.012.095.15.253.414s.364.602.617 1.014a322.716 322.716 0 0 1 1.597 2.62c.247.41.529.876.845 1.394H29.96c-.27-.44-.516-.837-.736-1.192-.22-.355-.453-.738-.7-1.149-.248-.41-.493-.81-.736-1.2-.242-.389-.45-.73-.625-1.022a18.04 18.04 0 0 0-.363-.592 1.747 1.747 0 0 1-.287-.845c.016-.29.11-.57.27-.811.067-.113.191-.313.371-.6s.392-.628.634-1.023c.242-.394.488-.797.736-1.208l.7-1.158.736-1.2h4.326l-3.346 5.46a1.08 1.08 0 0 0-.17.54c.012.202.083.396.204.558Z"/>
  <path fill="#9FDAF5" d="M39 6h7.91v1.488h-6.135v4.09h4.715l-.186 1.47h-4.53v4.953H39v-12Zm11.045-.329a1.094 1.094 0 0 0-.583-.16c-.214 0-.411.053-.591.16a1.24 1.24 0 0 0-.431.423c-.107.174-.16.369-.16.583a1.15 1.15 0 0 0 .591 1.014c.18.101.377.152.591.152.214 0 .409-.05.583-.152.175-.102.313-.242.414-.423.102-.18.153-.377.153-.591 0-.214-.051-.409-.153-.583a1.19 1.19 0 0 0-.414-.423Zm-1.479 12.33h1.724v-8.79l-1.724.254v8.536ZM59.553 9.55c-.428-.237-.97-.355-1.623-.355-.484 0-.966.076-1.445.228a5.488 5.488 0 0 0-1.36.651 6.356 6.356 0 0 0-.474.346V9.212l-1.724.253v8.536h1.724v-6.42c.166-.096.335-.186.516-.265.242-.107.484-.2.727-.279a4.87 4.87 0 0 1 .726-.177c.243-.04.476-.06.702-.06.315 0 .586.043.811.127.225.085.411.212.558.38.146.17.253.384.32.643.069.26.102.564.102.913V18h1.724v-5.493c0-.766-.107-1.392-.32-1.876-.215-.485-.536-.845-.964-1.082Zm10.462 0c-.428-.237-.969-.355-1.623-.355-.484 0-.966.076-1.445.228a5.488 5.488 0 0 0-1.36.651 6.356 6.356 0 0 0-.474.346V9.212l-1.724.253v8.536h1.724v-6.42c.164-.096.336-.186.516-.265.242-.107.485-.2.727-.279a4.87 4.87 0 0 1 .727-.177c.242-.04.476-.06.701-.06.316 0 .586.043.811.127.226.085.412.212.558.38.147.17.254.384.321.643.068.26.102.564.102.913V18H71.3v-5.493c0-.766-.107-1.392-.322-1.876-.214-.485-.535-.845-.963-1.082Zm15.516 0c-.406-.237-.907-.355-1.504-.355-.462 0-.907.076-1.335.228a4.707 4.707 0 0 0-1.217.651 5.964 5.964 0 0 0-.6.507c-.198-.448-.485-.789-.87-1.014-.406-.237-.913-.355-1.522-.355-.45 0-.893.076-1.327.228a4.81 4.81 0 0 0-1.58.924V9.212l-1.724.253v8.536h1.724v-6.428a5.44 5.44 0 0 1 .634-.358c.276-.13.555-.228.836-.296.282-.068.552-.101.812-.101.293 0 .538.042.735.126.197.085.363.209.498.372.136.164.234.378.296.643.062.264.093.571.093.92v5.122h1.724v-5.476c0-.352-.022-.674-.065-.966.2-.13.4-.248.606-.353a3.87 3.87 0 0 1 .828-.304c.282-.067.558-.101.829-.101.27 0 .523.042.726.127.203.084.372.208.507.371.135.164.234.378.296.643.062.264.093.572.093.92v5.139h1.724v-5.493c0-.766-.101-1.392-.304-1.876-.203-.485-.507-.845-.913-1.082Zm11.324 7.37c.09-.012.186-.035.288-.068l-.186 1.132a1.336 1.336 0 0 1-.194.06 13.24 13.24 0 0 0-.246.058c-.09.023-.183.037-.278.043a4.983 4.983 0 0 1-.296.008c-.36 0-.682-.06-.964-.177a1.365 1.365 0 0 1-.659-.575 1.58 1.58 0 0 1-.183-.499 4.98 4.98 0 0 1-.332.355c-.31.293-.665.519-1.065.676-.4.158-.876.237-1.428.237-.598 0-1.096-.113-1.496-.338a2.227 2.227 0 0 1-.896-.887 2.475 2.475 0 0 1-.296-1.192c0-.45.127-.865.38-1.242.254-.378.64-.69 1.158-.938.519-.248 1.172-.395 1.96-.44l1.976-.132v-.423c0-.326-.031-.611-.099-.853a1.337 1.337 0 0 0-.338-.6c-.158-.158-.375-.276-.65-.355a3.78 3.78 0 0 0-1.023-.119c-.226 0-.454.009-.685.026a6.157 6.157 0 0 0-.701.093 9.934 9.934 0 0 0-1.538.423l.202-1.437c.282-.113.578-.212.888-.296.31-.085.64-.15.989-.195.349-.045.704-.067 1.064-.067.496 0 .941.045 1.336.135.394.09.735.22 1.022.389.288.169.521.377.702.625.18.248.315.535.405.862.09.327.136.688.136 1.082l-.034 3.482c-.012.417.05.715.186.896.135.18.355.27.659.27.067 0 .146-.006.236-.017v-.003Zm-2.769-1.012.009-1.676h-1.48c-.551 0-.99.045-1.317.135-.327.09-.564.231-.71.423-.147.191-.22.456-.22.794 0 .26.056.482.169.668.113.186.279.33.498.43.22.102.488.153.803.153.248 0 .488-.023.719-.068.23-.045.45-.118.659-.22a2.762 2.762 0 0 0 .873-.637l-.003-.002Zm8.195-6.589a3.323 3.323 0 0 0-.896.389 4.4 4.4 0 0 0-.794.634c-.04.039-.079.084-.119.126V9.21l-1.724.254v8.535h1.724v-6.386a4.314 4.314 0 0 1 .922-.493 5.82 5.82 0 0 1 .532-.177 3.6 3.6 0 0 1 1.183-.127l.203-1.589a3.214 3.214 0 0 0-1.031.093Zm7.809 8.68h2.231l-4.099-4.62 4.014-4h-2.113l-2.893 3.177h-.622V5.24l-1.724.254V18h1.724V13.86h.028l3.454 4.141v-.003Z"/>
</svg>