<svg xmlns="http://www.w3.org/2000/svg" viewBox="0 0 63 14"><path fill="#fff" d="M0 13V1.001h3.937v12H0ZM9.294 2.91 11.558 13H7.25L4.545 1.001h2.417a2.276 2.276 0 0 1 1.513.55c.42.346.71.826.819 1.36ZM12.149 13V1.001h3.938v12h-3.938Zm6.912-7.436a2.382 2.382 0 0 1-2.4-2.4 2.301 2.301 0 0 1 .321-1.2 2.41 2.41 0 0 1 3.278-.861c.356.209.653.506.862.862.215.363.326.778.321 1.2a2.35 2.35 0 0 1-.321 1.208 2.4 2.4 0 0 1-.862.87 2.302 2.302 0 0 1-1.2.321ZM22.05 13V1.001h3.938v12h-3.937Zm8.923-5.442c.01.012.095.15.253.414.158.265.364.603.617 1.014a315.908 315.908 0 0 1 1.597 2.62c.247.411.529.876.845 1.394H29.96c-.27-.44-.516-.836-.736-1.191-.22-.355-.453-.738-.7-1.15-.248-.41-.493-.81-.736-1.2-.242-.388-.45-.73-.625-1.022-.175-.293-.296-.49-.363-.591A1.747 1.747 0 0 1 26.513 7c.016-.29.11-.57.27-.812.067-.112.191-.312.371-.6a182.106 182.106 0 0 0 1.37-2.23l.7-1.158.736-1.2h4.326L30.94 6.46a1.08 1.08 0 0 0-.17.54c.012.202.082.396.203.558Z"/><path fill="#FFA90A" d="M47.002 2.554a3.021 3.021 0 0 0-.786-.82 3.767 3.767 0 0 0-1.14-.54A5.402 5.402 0 0 0 43.555 1h-4.698v11.998h1.775v-4.31h3.058c.69.011 1.372-.158 1.977-.49a3.655 3.655 0 0 0 1.394-1.368 4.034 4.034 0 0 0 .516-2.079 4.928 4.928 0 0 0-.136-1.166 3.361 3.361 0 0 0-.439-1.03ZM45.43 6.196a2 2 0 0 1-.954.786c-.478.18-.986.267-1.496.253h-2.348V2.47h2.585c.494-.018.985.077 1.436.28.359.173.652.457.837.81.195.397.29.834.279 1.276a2.5 2.5 0 0 1-.338 1.36ZM51.184 1.397c-.242.13-.479.25-.71.363-.23.113-.464.226-.701.338a8.192 8.192 0 0 1-.727.304c-.248.09-.512.18-.794.27l.372 1.437c.338-.101.645-.203.92-.304.271-.1.536-.212.795-.338.254-.124.507-.259.76-.405l.01-.006v9.942h1.756V1.001h-.912c-.27.134-.527.266-.769.396ZM62.075 8.502a2.662 2.662 0 0 0-.541-.912 2.63 2.63 0 0 0-.887-.625 4.267 4.267 0 0 0-1.208-.321v-.051c.505-.16.975-.416 1.385-.752.366-.3.668-.67.887-1.09.208-.402.315-.848.313-1.3a2.343 2.343 0 0 0-.254-1.108 2.358 2.358 0 0 0-.743-.828A3.447 3.447 0 0 0 59.836 1a6.843 6.843 0 0 0-1.597-.169 8.35 8.35 0 0 0-2.13.296c-.339.092-.667.22-.98.38l.237 1.335a9.43 9.43 0 0 1 .718-.262 6.864 6.864 0 0 1 1.293-.279c.197-.022.394-.033.591-.033.358-.006.715.028 1.065.1.254.052.495.152.71.297.175.123.312.293.397.49.09.222.132.46.127.7.005.33-.074.656-.229.947a2.192 2.192 0 0 1-.642.727c-.3.214-.634.374-.988.473a4.482 4.482 0 0 1-1.267.169h-.322l-.202 1.318h.54c.499-.007.997.036 1.487.127.367.066.72.197 1.04.389.261.16.475.387.616.659.142.292.211.613.203.938.009.328-.055.653-.186.954a1.631 1.631 0 0 1-.566.66c-.292.19-.62.322-.963.388-.453.09-.915.133-1.377.127a7.284 7.284 0 0 1-1.014-.068 7.862 7.862 0 0 1-.566-.093 18.01 18.01 0 0 1-.65-.144l-.22 1.437c.247.045.487.087.718.126.231.04.46.074.684.102.226.028.445.047.66.059.213.011.422.017.624.017a8.288 8.288 0 0 0 1.606-.144c.45-.084.885-.232 1.292-.44.356-.18.677-.423.947-.717.254-.283.449-.613.574-.972.134-.394.2-.809.195-1.225a3.471 3.471 0 0 0-.186-1.167Z"/></svg>