<svg xmlns="http://www.w3.org/2000/svg" viewBox="0 0 83 24"><path fill="#481581" d="M0 0h82.995v24H0z"/><path fill="#fff" d="M6.004 18V6.001h3.937V18H6.004Zm9.294-10.09L17.562 18h-4.309L10.55 6.001h2.416a2.276 2.276 0 0 1 1.513.55c.42.345.71.826.82 1.36ZM18.154 18V6.001h3.937V18h-3.937Zm6.91-7.436a2.383 2.383 0 0 1-2.4-2.4 2.303 2.303 0 0 1 .323-1.2 2.411 2.411 0 0 1 3.278-.861c.355.209.652.506.861.861.215.363.326.778.322 1.2a2.4 2.4 0 0 1-1.183 2.079 2.302 2.302 0 0 1-1.2.321ZM28.057 18V6.001h3.937V18h-3.937Zm8.922-5.442c.011.012.096.15.253.414.158.265.364.603.617 1.014a315.936 315.936 0 0 1 1.597 2.62c.247.411.529.876.845 1.394h-4.326c-.27-.44-.516-.837-.735-1.191-.22-.355-.453-.738-.7-1.15-.249-.41-.494-.81-.737-1.2-.242-.389-.45-.73-.625-1.022-.175-.293-.296-.49-.363-.591a1.748 1.748 0 0 1-.287-.845c.017-.29.11-.57.27-.812.068-.113.192-.313.372-.6s.391-.628.633-1.022c.243-.395.488-.797.736-1.209l.7-1.157.736-1.2h4.326l-3.346 5.458a1.08 1.08 0 0 0-.17.542c.012.201.082.395.203.557h.001Z"/><path fill="#DBBFFA" d="M48.004 15.269c.003.196-.031.39-.101.574-.063.162-.161.31-.286.43-.13.122-.285.215-.454.27-.196.065-.4.096-.606.093-.135 0-.26-.005-.379-.017a7.574 7.574 0 0 1-.706-.101 9.14 9.14 0 0 1-.732-.169l.135 1.52c.157.045.308.087.454.126.146.04.291.073.437.101.15.029.302.049.455.06.157.01.33.016.52.017.39.006.778-.043 1.153-.144.307-.084.595-.224.85-.414a2.39 2.39 0 0 0 .58-.633c.153-.245.267-.513.337-.793.074-.296.11-.6.11-.904V6h-1.767v9.269ZM59.73 16.923a.765.765 0 0 1-.656-.27 1.457 1.457 0 0 1-.186-.895l.034-3.477a4.073 4.073 0 0 0-.134-1.08 2.656 2.656 0 0 0-.404-.862 2.284 2.284 0 0 0-.699-.625 3.564 3.564 0 0 0-1.017-.388 5.966 5.966 0 0 0-1.33-.135c-.354 0-.708.022-1.06.067-.331.042-.66.107-.983.195-.3.081-.595.18-.884.295l-.202 1.435a10.056 10.056 0 0 1 1.531-.422c.231-.044.464-.075.699-.092a9.39 9.39 0 0 1 .681-.026c.343-.007.685.032 1.018.118.242.061.465.183.648.355.162.167.278.373.336.6.072.278.106.564.1.852l-.001.423-1.966.134a5.215 5.215 0 0 0-1.952.439c-.461.202-.86.526-1.152.937-.25.365-.381.798-.379 1.24a2.48 2.48 0 0 0 .294 1.19c.206.376.516.684.892.887.46.24.972.356 1.489.338.484.01.967-.07 1.422-.236a3.276 3.276 0 0 0 1.06-.676c.116-.112.226-.23.33-.353.033.174.095.343.183.497.15.258.38.46.656.574.304.123.63.183.959.177.1 0 .199-.003.294-.008.094-.006.187-.02.278-.043l.244-.059c.066-.014.13-.034.193-.059l.185-1.13a1.49 1.49 0 0 1-.286.067c-.078.01-.157.016-.235.016Zm-2.801-.76c-.183.145-.38.27-.59.372a2.654 2.654 0 0 1-.655.22 3.722 3.722 0 0 1-.715.067 1.89 1.89 0 0 1-.8-.152 1.098 1.098 0 0 1-.496-.43 1.265 1.265 0 0 1-.168-.667c-.016-.282.06-.56.219-.794.183-.214.431-.363.706-.422.43-.101.871-.147 1.313-.135h1.473l-.008 1.676a2.257 2.257 0 0 1-.28.265ZM68.208 10.575l-.202-1.199h-6.493l-.202 1.351h4.885l-5.036 6.111.202 1.148h6.863l.186-1.367h-5.143l4.94-6.044ZM71.747 16.62l4.94-6.044-.202-1.2h-6.493l-.202 1.351h4.885l-5.037 6.112.202 1.148h6.864l.185-1.368h-5.142Z"/></svg>