<svg xmlns="http://www.w3.org/2000/svg" viewBox="0 0 103 24"><path fill="#fff" d="M0 18.003V6.004h3.937v11.999H0Zm9.294-10.09 2.264 10.09H7.25L4.545 6.004h2.417a2.276 2.276 0 0 1 1.513.55c.42.345.71.826.819 1.36Zm2.855 10.09V6.004h3.938v11.999h-3.938Zm6.912-7.436a2.381 2.381 0 0 1-2.078-1.192 2.345 2.345 0 0 1-.322-1.208 2.301 2.301 0 0 1 .321-1.2 2.41 2.41 0 0 1 3.278-.862c.356.21.653.506.862.862.215.363.326.778.321 1.2a2.35 2.35 0 0 1-.321 1.208 2.4 2.4 0 0 1-.862.87 2.302 2.302 0 0 1-1.2.322Zm2.99 7.436V6.004h3.938v11.999h-3.937Zm8.923-5.442c.01.012.095.15.253.414s.364.603.617 1.014a309.436 309.436 0 0 1 1.597 2.62c.247.411.529.876.845 1.394H29.96c-.27-.44-.516-.837-.736-1.192-.22-.355-.453-.738-.7-1.149-.248-.41-.493-.81-.736-1.2a60.12 60.12 0 0 1-.625-1.022 18.04 18.04 0 0 0-.363-.592 1.747 1.747 0 0 1-.287-.845c.016-.29.11-.57.27-.811.067-.113.191-.313.371-.6s.392-.628.634-1.022c.242-.395.488-.798.736-1.209l.7-1.157.736-1.2h4.326l-3.346 5.458a1.079 1.079 0 0 0-.17.541c.012.202.082.396.203.558Z"/><path fill="#9FDAF5" d="m47.596 15.13-7.22-9.138H39v12.012h1.597V8.86l7.237 9.144h1.376V5.992h-1.614v9.139ZM57.652 9.46l-.013 6.336a8.104 8.104 0 0 1-.368.203c-.206.106-.42.199-.637.279a3.42 3.42 0 0 1-.637.169 4.195 4.195 0 0 1-.67.05 2.023 2.023 0 0 1-1.003-.22 1.351 1.351 0 0 1-.586-.684 3.004 3.004 0 0 1-.196-1.16V9.206l-1.732.253v5.313c-.021.64.089 1.28.323 1.878.187.466.533.852.976 1.09a3.431 3.431 0 0 0 1.622.348 4.1 4.1 0 0 0 1.377-.229 4.88 4.88 0 0 0 1.223-.643c.103-.074.205-.153.307-.234l-.002.733c0 .846-.198 1.488-.594 1.928-.397.44-1.07.66-2.022.66-.26 0-.527-.011-.798-.034a6.456 6.456 0 0 1-.807-.118 9.005 9.005 0 0 1-1.623-.508l.188 1.506a8.378 8.378 0 0 0 2.293.55c.283.028.571.042.866.042a5.415 5.415 0 0 0 1.809-.279 3.827 3.827 0 0 0 1.334-.778c.36-.331.642-.739.824-1.193.192-.49.287-1.013.28-1.54l-.017-8.746-1.717.255ZM68.558 9.544a3.317 3.317 0 0 0-1.614-.355c-.499 0-.994.077-1.47.229a5.7 5.7 0 0 0-1.74.905V5.23L62 5.484v12.52h1.732v-6.501a5.534 5.534 0 0 1 1.155-.478c.243-.072.49-.128.74-.17.233-.038.468-.058.704-.058.272-.006.543.037.799.127.216.077.409.208.56.38.157.187.267.407.323.643.073.299.107.606.102.913v5.143h1.733v-5.498a4.669 4.669 0 0 0-.323-1.878 2.221 2.221 0 0 0-.968-1.083ZM79.005 10.467a3.085 3.085 0 0 0-1.248-.956 4.38 4.38 0 0 0-1.725-.322 4.237 4.237 0 0 0-1.732.339c-.498.217-.942.54-1.3.947a4.143 4.143 0 0 0-.815 1.464 6.09 6.09 0 0 0-.28 1.903 5.105 5.105 0 0 0 .5 2.36 3.315 3.315 0 0 0 1.487 1.472 5.3 5.3 0 0 0 2.412.499c.4.003.8-.022 1.198-.076a5.77 5.77 0 0 0 1.894-.618l.119-1.302a83.11 83.11 0 0 1-.654.236c-.221.08-.45.15-.688.212-.24.063-.484.108-.73.135a6.574 6.574 0 0 1-.748.043 5.38 5.38 0 0 1-1.325-.144 2.18 2.18 0 0 1-.943-.49 2.138 2.138 0 0 1-.577-.94 4.284 4.284 0 0 1-.186-1.116h6.14c.083-.7.051-1.409-.094-2.098a3.947 3.947 0 0 0-.705-1.548Zm-4.28.405c.398-.24.858-.36 1.324-.346.467-.023.928.11 1.308.38.339.27.58.64.688 1.058.085.309.127.627.124.947h-4.467c.031-.337.103-.67.215-.99.145-.428.43-.797.808-1.048ZM86.403 16.642l-.288.05a2.561 2.561 0 0 1-.28.034c-.092.006-.177.009-.256.009a1.716 1.716 0 0 1-.755-.153 1.092 1.092 0 0 1-.485-.448 1.423 1.423 0 0 1-.17-.719V10.73h2.396l.186-1.354H84.17V6.702l-1.732.61v2.063h-1.308l-.187 1.354h1.495v5.042c-.008.336.044.67.153.989.087.252.223.485.399.685.161.18.358.323.577.423.225.103.462.177.705.22.241.044.486.067.73.068.182 0 .36-.006.536-.017.176-.011.337-.028.484-.05a7.279 7.279 0 0 0 .748-.153l.101-1.404a1.264 1.264 0 0 1-.203.06c-.08.016-.168.033-.264.05ZM94.974 10.467a3.085 3.085 0 0 0-1.25-.956 4.381 4.381 0 0 0-1.723-.322 4.24 4.24 0 0 0-1.733.339c-.498.217-.941.54-1.3.947a4.142 4.142 0 0 0-.815 1.463 6.09 6.09 0 0 0-.28 1.904 5.106 5.106 0 0 0 .5 2.36 3.313 3.313 0 0 0 1.487 1.472c.754.353 1.58.524 2.413.499.4.003.8-.022 1.197-.076a5.773 5.773 0 0 0 1.894-.618l.12-1.303c-.216.08-.434.158-.655.237-.22.08-.45.15-.688.212-.24.062-.484.107-.73.135a6.573 6.573 0 0 1-.748.042 5.38 5.38 0 0 1-1.325-.143 2.184 2.184 0 0 1-.942-.491 2.141 2.141 0 0 1-.578-.94 4.27 4.27 0 0 1-.185-1.116h6.139c.084-.7.052-1.408-.094-2.098a3.947 3.947 0 0 0-.704-1.547Zm-4.281.405c.398-.24.859-.36 1.325-.346.466-.023.927.11 1.308.38.338.27.58.64.687 1.058.085.309.127.627.124.947H89.67c.031-.337.104-.67.215-.99.146-.428.43-.797.808-1.048ZM101.445 9.316a3.335 3.335 0 0 0-.9.39c-.29.18-.558.392-.799.634-.04.04-.079.084-.119.126v-1.26l-1.732.254v8.543h1.732v-6.391a4.423 4.423 0 0 1 .927-.494 5.55 5.55 0 0 1 .535-.178 3.607 3.607 0 0 1 1.189-.127l.204-1.59a3.248 3.248 0 0 0-1.037.093Z"/></svg>