<svg xmlns="http://www.w3.org/2000/svg" viewBox="0 0 114 24"><path fill="#1767CE" d="M0 0h114v24H0z"/><path fill="#fff" d="M6.004 18V6.001h3.937V18H6.004Zm9.294-10.09L17.562 18h-4.309L10.55 6.001h2.416a2.276 2.276 0 0 1 1.513.55c.42.345.71.826.82 1.36ZM18.154 18V6.001h3.937V18h-3.937Zm6.91-7.436a2.382 2.382 0 0 1-2.4-2.4 2.303 2.303 0 0 1 .323-1.2 2.411 2.411 0 0 1 3.278-.861c.355.209.652.506.861.861.215.363.326.778.322 1.2a2.4 2.4 0 0 1-1.183 2.079 2.3 2.3 0 0 1-1.2.321ZM28.057 18V6.001h3.937V18h-3.937Zm8.922-5.442c.011.012.096.15.253.414.158.265.364.603.617 1.014a327.152 327.152 0 0 1 1.597 2.62c.247.411.529.876.845 1.394h-4.326c-.27-.44-.516-.837-.735-1.191-.22-.355-.453-.738-.7-1.15-.249-.41-.494-.81-.737-1.2-.242-.389-.45-.73-.625-1.022-.175-.293-.296-.49-.363-.591a1.75 1.75 0 0 1-.287-.845c.017-.29.11-.57.27-.812.068-.113.191-.313.372-.6a182.106 182.106 0 0 0 1.37-2.23c.247-.412.48-.798.7-1.158l.735-1.2h4.326l-3.346 5.458a1.078 1.078 0 0 0-.17.542c.012.201.083.395.204.557Z"/><path fill="#D4EEFC" d="m53.596 15.128-7.22-9.139H45v12.012h1.597V8.857l7.237 9.144h1.376V5.989h-1.614v9.139ZM63.652 9.457l-.013 6.336c-.124.072-.247.141-.368.203a5.7 5.7 0 0 1-.637.279 3.42 3.42 0 0 1-.637.17 4.206 4.206 0 0 1-.67.05 2.024 2.024 0 0 1-1.003-.22 1.352 1.352 0 0 1-.586-.685 3.005 3.005 0 0 1-.196-1.16V9.204l-1.732.254v5.312c-.021.641.089 1.28.323 1.878.187.466.533.852.976 1.091a3.432 3.432 0 0 0 1.622.347c.469.003.934-.074 1.377-.229a4.88 4.88 0 0 0 1.223-.643c.103-.074.205-.152.307-.234l-.002.733c0 .846-.198 1.489-.594 1.928-.397.44-1.07.66-2.022.66-.26 0-.527-.011-.798-.034a6.456 6.456 0 0 1-.807-.118 9.005 9.005 0 0 1-1.623-.508l.188 1.506a8.343 8.343 0 0 0 2.293.55c.283.028.571.042.866.042a5.415 5.415 0 0 0 1.809-.279 3.827 3.827 0 0 0 1.333-.778c.362-.331.643-.739.825-1.193.192-.49.287-1.013.28-1.54l-.017-8.746-1.717.255ZM74.558 9.542a3.317 3.317 0 0 0-1.614-.355c-.499 0-.994.076-1.47.228a5.701 5.701 0 0 0-1.74.905V5.228L68 5.48v12.52h1.732V11.5a5.533 5.533 0 0 1 1.155-.478c.243-.072.49-.128.74-.169.233-.039.468-.059.704-.06.272-.005.543.038.799.128.216.077.409.208.56.38.157.187.267.407.323.643.073.3.107.606.102.913v5.144h1.733v-5.499a4.668 4.668 0 0 0-.323-1.878 2.222 2.222 0 0 0-.968-1.082ZM85.005 10.464a3.084 3.084 0 0 0-1.248-.956 4.38 4.38 0 0 0-1.725-.321 4.237 4.237 0 0 0-1.732.338 3.7 3.7 0 0 0-1.3.947 4.142 4.142 0 0 0-.815 1.464 6.091 6.091 0 0 0-.28 1.903 5.104 5.104 0 0 0 .5 2.36 3.314 3.314 0 0 0 1.487 1.472 5.3 5.3 0 0 0 2.412.5c.4.002.8-.023 1.198-.077a5.779 5.779 0 0 0 1.894-.618l.119-1.302a83.11 83.11 0 0 1-.654.237c-.221.078-.45.149-.688.211-.24.063-.484.108-.73.135a6.574 6.574 0 0 1-.748.043 5.376 5.376 0 0 1-1.325-.144 2.18 2.18 0 0 1-.943-.49 2.138 2.138 0 0 1-.577-.94 4.283 4.283 0 0 1-.186-1.116h6.14c.083-.7.051-1.409-.094-2.098a3.946 3.946 0 0 0-.705-1.548Zm-4.28.406c.398-.241.858-.362 1.324-.347.467-.023.928.111 1.308.38.339.27.58.64.688 1.058.085.309.127.628.124.947h-4.467a4.18 4.18 0 0 1 .215-.99c.145-.428.43-.797.808-1.048ZM92.403 16.639l-.288.05a2.537 2.537 0 0 1-.28.035 3.92 3.92 0 0 1-.256.008 1.716 1.716 0 0 1-.755-.153 1.092 1.092 0 0 1-.485-.448 1.423 1.423 0 0 1-.17-.719v-4.686h2.396l.186-1.353H90.17V6.699l-1.732.61v2.064h-1.308l-.187 1.353h1.495v5.042c-.008.336.044.67.153.99.087.251.223.484.399.685.161.178.358.322.577.422.225.103.462.177.705.22.241.044.486.067.73.068.182 0 .36-.006.536-.017.176-.01.337-.028.484-.05a7.279 7.279 0 0 0 .748-.153l.101-1.404a1.264 1.264 0 0 1-.203.06c-.08.016-.168.033-.264.05ZM100.973 10.464a3.083 3.083 0 0 0-1.248-.956A4.381 4.381 0 0 0 98 9.187a4.24 4.24 0 0 0-1.733.338c-.498.217-.941.54-1.3.947a4.14 4.14 0 0 0-.815 1.463 6.09 6.09 0 0 0-.28 1.904 5.106 5.106 0 0 0 .5 2.36 3.313 3.313 0 0 0 1.487 1.472c.754.353 1.58.524 2.413.499.4.003.8-.022 1.197-.076a5.772 5.772 0 0 0 1.894-.618l.119-1.302-.654.236c-.221.08-.45.15-.688.212-.24.062-.484.108-.73.135a6.573 6.573 0 0 1-.748.042 5.38 5.38 0 0 1-1.325-.143 2.183 2.183 0 0 1-.942-.491 2.14 2.14 0 0 1-.578-.939 4.271 4.271 0 0 1-.185-1.117h6.139a6.43 6.43 0 0 0-.094-2.098 3.935 3.935 0 0 0-.705-1.547Zm-4.28.406c.398-.241.859-.362 1.325-.347.466-.023.927.111 1.308.38.338.27.58.64.687 1.058.085.309.127.628.124.947H95.67a4.19 4.19 0 0 1 .215-.99c.146-.428.43-.797.808-1.048ZM107.445 9.313a3.335 3.335 0 0 0-.9.39c-.29.18-.558.392-.799.634-.04.04-.079.084-.119.126v-1.26l-1.732.254V18h1.732V11.61a4.424 4.424 0 0 1 .927-.494c.175-.068.353-.127.535-.178a3.607 3.607 0 0 1 1.189-.127l.204-1.59a3.248 3.248 0 0 0-1.037.093Z"/></svg>