<svg xmlns="http://www.w3.org/2000/svg" viewBox="0 0 108 28"><path fill="#E81502" d="M0 0h107.667v28H0z"/><path fill="#fff" d="M6.667 21V7.001h4.593V21H6.667ZM17.509 9.23 20.151 21h-5.027L11.97 7.001h2.82a2.655 2.655 0 0 1 1.764.641c.49.404.828.964.955 1.587ZM20.841 21V7.001h4.593V21h-4.593Zm8.063-8.675a2.779 2.779 0 0 1-2.425-1.39 2.736 2.736 0 0 1-.375-1.41 2.686 2.686 0 0 1 .375-1.4 2.812 2.812 0 0 1 3.825-1.005c.415.244.76.59 1.005 1.005.25.424.38.908.375 1.4.004.495-.125.982-.375 1.41a2.8 2.8 0 0 1-1.006 1.015c-.423.25-.908.38-1.4.375ZM32.394 21V7.001h4.593V21h-4.593Zm10.409-6.349c.013.014.111.175.295.483.185.309.424.703.72 1.183a373.133 373.133 0 0 1 1.863 3.056c.288.48.617 1.022.986 1.627H41.62l-.858-1.39a127.3 127.3 0 0 1-.818-1.34c-.289-.48-.575-.947-.858-1.4a71.148 71.148 0 0 1-.729-1.194 20.758 20.758 0 0 0-.424-.69 2.04 2.04 0 0 1-.335-.985c.02-.338.128-.665.315-.947.079-.132.224-.365.434-.7a206.222 206.222 0 0 0 1.598-2.602c.289-.48.561-.93.817-1.351L41.62 7h5.047l-3.904 6.368c-.12.19-.189.407-.197.632.013.235.095.461.236.65ZM60.593 14.448a3.736 3.736 0 0 0-.986-.72 7.687 7.687 0 0 0-1.194-.483 13.55 13.55 0 0 0-1.302-.336 28.51 28.51 0 0 1-.957-.236 4.416 4.416 0 0 1-.79-.287 2.61 2.61 0 0 1-.601-.394 1.42 1.42 0 0 1-.385-.553 2.133 2.133 0 0 1-.128-.78 2.38 2.38 0 0 1 .128-.808c.08-.23.216-.437.394-.602a2.44 2.44 0 0 1 .622-.414c.26-.119.536-.199.819-.237a6.914 6.914 0 0 1 1.016-.07c.31.001.62.018.928.05.311.032.62.082.927.148.297.065.59.147.878.247.27.092.53.208.78.345l.276-1.736a4.916 4.916 0 0 0-.878-.356c-.31-.091-.622-.17-.938-.237a9.366 9.366 0 0 0-.966-.147c-.33-.033-.665-.05-1.007-.05a8.396 8.396 0 0 0-2.072.237 4.692 4.692 0 0 0-1.608.73c-.447.32-.806.748-1.046 1.243a4.018 4.018 0 0 0-.365 1.776c-.011.474.066.945.227 1.39.142.374.36.714.641.998.279.277.598.51.947.69.37.191.757.35 1.155.474.414.132.839.243 1.273.336.355.078.684.16.986.246.282.078.556.18.82.306.226.107.435.247.62.415.177.165.315.367.405.591.105.27.155.56.148.849.005.308-.041.615-.138.908a2.11 2.11 0 0 1-.395.69c-.175.2-.39.362-.631.474a3.192 3.192 0 0 1-.859.256 6.835 6.835 0 0 1-1.095.08 8.59 8.59 0 0 1-1.065-.07 12.845 12.845 0 0 1-1.105-.188 11.094 11.094 0 0 1-1.076-.286c-.348-.11-.68-.226-.996-.345l.257 1.954c.336.125.678.234 1.026.325.315.083.634.149.957.198.308.045.617.081.927.108.31.026.622.04.937.04a9.697 9.697 0 0 0 2.102-.218 5.031 5.031 0 0 0 1.716-.71 3.34 3.34 0 0 0 1.145-1.293c.288-.62.427-1.299.405-1.983a4.453 4.453 0 0 0-.227-1.5 2.915 2.915 0 0 0-.651-1.065ZM71.446 11.34a4.24 4.24 0 0 0-2.358-.62 6.018 6.018 0 0 0-1.46.186 6.348 6.348 0 0 0-1.756.745v-.912l-2.013.316v14.088h2.013v-4.418l.04.018c.364.152.745.26 1.134.326.46.076.925.112 1.39.108a4.93 4.93 0 0 0 2.536-.651 4.684 4.684 0 0 0 1.776-1.884 6.3 6.3 0 0 0 .661-3.01 6.129 6.129 0 0 0-.503-2.565 3.96 3.96 0 0 0-1.46-1.726Zm-.522 6.601c-.238.524-.635.96-1.135 1.243a3.646 3.646 0 0 1-1.806.415 5.624 5.624 0 0 1-1.815-.296c-.095-.033-.197-.07-.296-.107V12.97c.026-.012.053-.028.079-.04.29-.131.559-.243.809-.336a4.054 4.054 0 0 1 1.4-.256 3.648 3.648 0 0 1 1.757.385c.476.259.848.673 1.055 1.173.251.64.369 1.326.346 2.013a4.711 4.711 0 0 1-.394 2.033ZM83.03 11.35a5.414 5.414 0 0 0-2.674-.631 5.389 5.389 0 0 0-2.694.651 4.549 4.549 0 0 0-1.796 1.835 5.804 5.804 0 0 0-.641 2.802 6.047 6.047 0 0 0 .602 2.792c.378.759.98 1.383 1.726 1.786.803.42 1.699.631 2.605.612a5.562 5.562 0 0 0 2.723-.651 4.596 4.596 0 0 0 1.845-1.855 5.816 5.816 0 0 0 .661-2.841 5.719 5.719 0 0 0-.612-2.714 4.313 4.313 0 0 0-1.746-1.786Zm-.12 6.61a2.692 2.692 0 0 1-1.075 1.234 3.066 3.066 0 0 1-1.578.405 2.806 2.806 0 0 1-1.54-.415 2.778 2.778 0 0 1-1.026-1.243 4.975 4.975 0 0 1-.374-2.052 4.646 4.646 0 0 1 .374-1.993c.222-.495.59-.908 1.056-1.184a3.19 3.19 0 0 1 1.628-.395c.444-.011.884.073 1.293.247.357.161.669.409.907.72.255.339.44.724.543 1.135.123.48.183.974.177 1.47a4.912 4.912 0 0 1-.384 2.072ZM91.958 10.867c-.37.099-.722.252-1.046.454-.337.21-.648.458-.928.74-.046.046-.091.098-.138.147v-1.47l-2.012.297V21h2.012v-7.455a5.037 5.037 0 0 1 1.076-.576c.204-.08.41-.149.621-.208a4.233 4.233 0 0 1 1.382-.148l.236-1.855a3.772 3.772 0 0 0-1.203.109ZM100.522 19.352c-.093.02-.195.04-.307.06l-.335.058c-.107.02-.216.033-.325.04-.106.006-.205.01-.296.01a1.997 1.997 0 0 1-.878-.178 1.276 1.276 0 0 1-.563-.523 1.667 1.667 0 0 1-.197-.839v-5.465h2.782l.217-1.579h-3V7.82l-2.012.71v2.407h-1.52l-.217 1.579h1.737v5.88c-.009.392.051.783.178 1.154.101.294.259.565.463.8.188.208.416.376.671.492.261.12.536.207.819.257.28.052.564.078.849.08.21 0 .417-.007.621-.02a6.737 6.737 0 0 0 1.046-.149c.152-.033.279-.062.385-.088l.118-1.638c-.076.03-.156.053-.236.07Z"/></svg>