<svg xmlns="http://www.w3.org/2000/svg" fill="currentColor" viewBox="0 0 103 20"><path d="M0 16.003v-12h3.937v12H0Zm9.294-10.09 2.264 10.09H7.25l-2.704-12h2.417a2.276 2.276 0 0 1 1.513.55c.42.346.71.827.819 1.36Zm2.855 10.09v-12h3.938v12h-3.938Zm6.912-7.436a2.382 2.382 0 0 1-2.4-2.4 2.301 2.301 0 0 1 .321-1.2 2.41 2.41 0 0 1 3.278-.862c.356.21.653.506.862.862.215.363.326.778.321 1.2a2.35 2.35 0 0 1-.321 1.208 2.4 2.4 0 0 1-.862.87 2.302 2.302 0 0 1-1.2.322Zm2.99 7.436v-12h3.938v12h-3.937Zm8.923-5.442c.01.012.095.15.253.414s.364.603.617 1.014a315.936 315.936 0 0 1 1.597 2.62c.247.411.529.876.845 1.394H29.96c-.27-.44-.516-.837-.736-1.192-.22-.354-.453-.738-.7-1.149-.248-.41-.493-.81-.736-1.2-.242-.389-.45-.73-.625-1.022-.175-.293-.296-.49-.363-.592a1.747 1.747 0 0 1-.287-.845c.016-.29.11-.57.27-.811.067-.113.191-.313.371-.6s.392-.628.634-1.022c.242-.395.488-.798.736-1.209l.7-1.157.736-1.2h4.326L30.94 9.462a1.08 1.08 0 0 0-.17.541c.012.202.082.396.203.558ZM47.453 13.13l-7.22-9.138h-1.376v12.012h1.597V6.86l7.237 9.144h1.376V3.992h-1.614v9.138ZM57.51 7.46l-.014 6.336a8.05 8.05 0 0 1-.368.203c-.206.106-.419.199-.637.279-.206.076-.42.133-.637.169a4.197 4.197 0 0 1-.67.05 2.024 2.024 0 0 1-1.003-.22 1.35 1.35 0 0 1-.586-.684 3.003 3.003 0 0 1-.195-1.16V7.206l-1.733.253v5.313c-.02.64.089 1.28.323 1.878.188.466.533.852.977 1.09a3.43 3.43 0 0 0 1.622.347c.468.004.934-.073 1.376-.228a4.879 4.879 0 0 0 1.223-.643c.103-.074.205-.153.307-.234l-.002.733c0 .846-.198 1.488-.594 1.928-.397.44-1.07.66-2.022.66-.26 0-.526-.011-.798-.034a6.476 6.476 0 0 1-.807-.118 8.997 8.997 0 0 1-1.622-.508l.187 1.506a8.425 8.425 0 0 0 2.293.55c.283.028.572.042.866.042a5.416 5.416 0 0 0 1.81-.279 3.829 3.829 0 0 0 1.333-.779c.36-.33.642-.738.824-1.192.192-.49.287-1.013.28-1.54l-.017-8.746-1.716.255ZM68.415 7.544a3.317 3.317 0 0 0-1.614-.355c-.498 0-.994.077-1.469.228a5.697 5.697 0 0 0-1.741.906V3.23l-1.733.253v12.52h1.733V9.503a5.541 5.541 0 0 1 1.155-.478c.242-.072.489-.128.739-.17a4.4 4.4 0 0 1 .705-.058c.271-.006.542.037.798.126.216.078.41.21.56.381.157.187.267.407.323.643.073.299.107.606.103.913v5.143h1.732v-5.498a4.665 4.665 0 0 0-.323-1.878 2.221 2.221 0 0 0-.968-1.083ZM78.862 8.467a3.084 3.084 0 0 0-1.248-.956 4.38 4.38 0 0 0-1.724-.322 4.236 4.236 0 0 0-1.733.339c-.498.217-.941.54-1.3.947a4.14 4.14 0 0 0-.815 1.464 6.09 6.09 0 0 0-.28 1.903 5.101 5.101 0 0 0 .5 2.36 3.314 3.314 0 0 0 1.487 1.472 5.3 5.3 0 0 0 2.412.499c.4.003.801-.022 1.198-.076a5.78 5.78 0 0 0 1.894-.618l.119-1.302c-.215.079-.433.158-.654.236-.221.08-.45.15-.688.212a5.13 5.13 0 0 1-.73.135 6.571 6.571 0 0 1-.748.043 5.377 5.377 0 0 1-1.325-.144 2.18 2.18 0 0 1-.943-.49 2.137 2.137 0 0 1-.577-.94 4.284 4.284 0 0 1-.186-1.116h6.14c.083-.7.052-1.409-.094-2.099a3.946 3.946 0 0 0-.705-1.547Zm-4.28.405c.398-.24.858-.36 1.324-.346.467-.023.928.11 1.308.38.339.27.58.64.688 1.058.085.309.127.627.124.947H73.56c.031-.337.104-.67.216-.99.144-.428.428-.797.807-1.049ZM86.26 14.642l-.288.05a2.564 2.564 0 0 1-.28.034c-.091.006-.176.009-.255.009a1.717 1.717 0 0 1-.756-.153 1.092 1.092 0 0 1-.484-.448 1.422 1.422 0 0 1-.17-.719V8.73h2.395l.187-1.354h-2.582V4.702l-1.733.61v2.063h-1.308l-.187 1.354h1.495v5.042c-.008.336.044.67.153.989.087.252.223.485.399.685.162.18.358.323.578.423.224.103.461.177.704.22.241.044.486.067.73.068.182 0 .36-.006.536-.017.176-.011.337-.028.484-.051a7.164 7.164 0 0 0 .748-.152l.102-1.404a1.245 1.245 0 0 1-.204.059c-.08.017-.168.034-.264.05ZM94.83 8.467a3.085 3.085 0 0 0-1.248-.956 4.381 4.381 0 0 0-1.724-.322 4.24 4.24 0 0 0-1.733.339c-.498.217-.941.54-1.3.947a4.142 4.142 0 0 0-.815 1.463 6.09 6.09 0 0 0-.28 1.904 5.107 5.107 0 0 0 .501 2.36 3.314 3.314 0 0 0 1.486 1.472 5.3 5.3 0 0 0 2.413.499c.4.003.8-.022 1.197-.076a5.781 5.781 0 0 0 1.895-.618l.119-1.303c-.216.08-.434.158-.655.237-.22.08-.45.15-.688.212a5.13 5.13 0 0 1-.73.135 6.573 6.573 0 0 1-.747.042 5.388 5.388 0 0 1-1.326-.143 2.183 2.183 0 0 1-.942-.491 2.142 2.142 0 0 1-.578-.94 4.267 4.267 0 0 1-.185-1.116h6.139c.084-.7.052-1.408-.093-2.098a3.947 3.947 0 0 0-.705-1.547Zm-4.28.405c.398-.24.859-.36 1.325-.346.466-.023.927.11 1.308.38.338.27.58.64.688 1.058.085.309.126.627.124.947h-4.468c.032-.337.104-.67.216-.99.145-.428.429-.797.807-1.049ZM101.302 7.316a3.348 3.348 0 0 0-.9.39c-.29.18-.558.392-.799.634-.04.04-.078.084-.118.126v-1.26l-1.733.253v8.544h1.733V9.612a4.42 4.42 0 0 1 .926-.494c.175-.068.353-.127.535-.178a3.593 3.593 0 0 1 1.189-.127l.204-1.59a3.248 3.248 0 0 0-1.037.093Z"/></svg>