<svg xmlns="http://www.w3.org/2000/svg" viewBox="0 0 111 24"><path fill="#6B046A" d="M0 0h111v24H0z"/><path fill="#fff" d="M6.004 18V6.001h3.937V18H6.004Zm9.294-10.09L17.562 18h-4.309L10.55 6.001h2.416a2.276 2.276 0 0 1 1.513.55c.42.345.71.826.82 1.36ZM18.154 18V6.001h3.937V18h-3.937Zm6.91-7.436a2.383 2.383 0 0 1-2.4-2.4 2.303 2.303 0 0 1 .323-1.2 2.411 2.411 0 0 1 3.278-.861c.355.209.652.506.861.861.215.363.326.778.322 1.2a2.4 2.4 0 0 1-1.183 2.079 2.302 2.302 0 0 1-1.2.321ZM28.057 18V6.001h3.937V18h-3.937Zm8.922-5.442c.011.012.096.15.253.414.158.265.364.603.617 1.014a315.936 315.936 0 0 1 1.597 2.62c.247.411.529.876.845 1.394h-4.326c-.27-.44-.516-.837-.735-1.191-.22-.355-.453-.738-.7-1.15-.249-.41-.494-.81-.737-1.2-.242-.389-.45-.73-.625-1.022-.175-.293-.296-.49-.363-.591a1.748 1.748 0 0 1-.287-.845c.017-.29.11-.57.27-.812.068-.113.192-.313.372-.6s.391-.628.633-1.022c.243-.395.488-.797.736-1.209l.7-1.157.736-1.2h4.326l-3.346 5.458a1.08 1.08 0 0 0-.17.542c.012.201.082.395.203.557h.001Z"/><path fill="#EFB4ED" d="M53.96 6.01h-2.11l-4.586 5.284h-.63V6.01h-1.773v11.986h1.773v-5.419h.06l4.988 5.436 2.414-.017-5.723-5.942 5.588-6.044ZM58.105 16.755a1.5 1.5 0 0 1-.177.009.906.906 0 0 1-.371-.068.604.604 0 0 1-.253-.211.917.917 0 0 1-.144-.363 2.805 2.805 0 0 1-.042-.523V5.25l-1.722.253V16.36c-.007.284.039.567.135.835.081.218.215.412.389.566.173.148.378.255.599.312.245.064.498.095.751.093a4.163 4.163 0 0 0 .751-.067 3.37 3.37 0 0 0 .296-.068l.169-1.334a17.455 17.455 0 0 1-.38.06ZM67.517 16.933a.768.768 0 0 1-.658-.27 1.45 1.45 0 0 1-.186-.895l.034-3.478a4.064 4.064 0 0 0-.135-1.08c-.082-.31-.22-.601-.405-.861a2.284 2.284 0 0 0-.701-.625 3.568 3.568 0 0 0-1.021-.388A6.005 6.005 0 0 0 63.11 9.2c-.356 0-.71.022-1.063.067a7.33 7.33 0 0 0-.988.194c-.301.082-.597.18-.887.296l-.202 1.435a9.677 9.677 0 0 1 1.536-.422c.232-.045.466-.076.7-.093.231-.017.46-.026.685-.026a3.77 3.77 0 0 1 1.02.119c.244.06.468.183.65.354.164.167.28.373.338.6.072.278.107.565.102.852l-.002.424-1.973.133a5.241 5.241 0 0 0-1.959.44 2.806 2.806 0 0 0-1.156.936 2.18 2.18 0 0 0-.38 1.24c-.003.416.098.825.295 1.19.207.377.518.684.895.887.46.24.975.356 1.494.338.486.011.97-.069 1.427-.237a3.29 3.29 0 0 0 1.063-.675c.117-.112.228-.23.332-.354.033.175.095.343.183.498.15.258.382.46.659.574.305.122.633.183.962.177.101 0 .2-.003.295-.009.094-.005.188-.02.279-.042.09-.023.171-.042.245-.059.066-.015.13-.035.194-.059l.185-1.131c-.093.032-.189.055-.287.068-.078.01-.157.016-.236.017Zm-2.81-.76a3.249 3.249 0 0 1-.592.371c-.208.102-.43.176-.658.22a3.736 3.736 0 0 1-.717.067 1.906 1.906 0 0 1-.802-.152c-.206-.09-.38-.24-.498-.43a1.262 1.262 0 0 1-.17-.667c-.016-.282.062-.56.22-.793a1.29 1.29 0 0 1 .71-.422 5.132 5.132 0 0 1 1.316-.136h1.478l-.007 1.676c-.086.097-.18.186-.28.266ZM74.979 14.113a2.536 2.536 0 0 0-.591-.464 4.613 4.613 0 0 0-.71-.33c-.18-.056-.356-.115-.53-.177a9.376 9.376 0 0 0-.524-.168c-.175-.051-.344-.105-.507-.16a3.645 3.645 0 0 1-.447-.187 2.966 2.966 0 0 1-.397-.253 1.107 1.107 0 0 1-.287-.321.813.813 0 0 1-.11-.422.873.873 0 0 1 .119-.464.96.96 0 0 1 .354-.33c.177-.096.368-.165.566-.202.247-.048.5-.07.751-.067a5.438 5.438 0 0 1 .886.075c.175.029.349.065.524.11.175.045.352.096.532.152.166.051.33.114.489.186l.118-1.368a8.102 8.102 0 0 0-.633-.236 6.327 6.327 0 0 0-.633-.17 5.064 5.064 0 0 0-.633-.092A7.632 7.632 0 0 0 72.7 9.2a5.569 5.569 0 0 0-1.385.16 3.487 3.487 0 0 0-1.088.473c-.303.2-.55.473-.718.793a2.417 2.417 0 0 0-.253 1.14c-.005.284.04.567.135.835.08.225.2.434.354.617.15.172.324.322.515.447.2.131.412.241.633.33a13.774 13.774 0 0 0 .786.26l.38.119c.124.039.244.079.362.118.118.04.234.076.346.11.151.053.298.118.44.194.123.066.24.145.346.237a.875.875 0 0 1 .219.295.899.899 0 0 1 .076.371.842.842 0 0 1-.279.667 1.617 1.617 0 0 1-.726.346 4.312 4.312 0 0 1-.953.101c-.2-.001-.401-.015-.6-.042a8.894 8.894 0 0 1-.692-.118c-.242-.05-.49-.112-.743-.185a14.82 14.82 0 0 1-.768-.245l.067 1.435a10 10 0 0 0 .802.244c.242.062.473.116.693.161.211.044.425.072.641.085.208.011.42.017.633.017.471.002.94-.046 1.402-.144a3.609 3.609 0 0 0 1.148-.447c.319-.195.583-.468.768-.794.193-.357.289-.759.278-1.165a2.362 2.362 0 0 0-.144-.869 1.976 1.976 0 0 0-.396-.633ZM82.896 14.113a2.544 2.544 0 0 0-.59-.464 4.61 4.61 0 0 0-.71-.33c-.18-.056-.357-.115-.532-.177a9.432 9.432 0 0 0-.523-.168c-.175-.051-.343-.105-.507-.16a3.687 3.687 0 0 1-.447-.187 2.969 2.969 0 0 1-.397-.253 1.102 1.102 0 0 1-.286-.321.809.809 0 0 1-.11-.422.874.874 0 0 1 .118-.464.955.955 0 0 1 .354-.33c.177-.096.368-.165.566-.202.248-.048.5-.07.751-.067a5.457 5.457 0 0 1 .887.075c.174.029.348.065.523.11.174.045.351.096.532.152.167.051.33.114.49.186l.117-1.368a8.094 8.094 0 0 0-.633-.236 6.283 6.283 0 0 0-.633-.169 5.061 5.061 0 0 0-.633-.093 7.639 7.639 0 0 0-.616-.025 5.564 5.564 0 0 0-1.384.16 3.482 3.482 0 0 0-1.09.473c-.301.2-.548.473-.717.793a2.411 2.411 0 0 0-.253 1.14c-.005.284.04.567.135.835.08.226.2.434.355.617.15.172.323.323.515.447.2.131.411.241.633.33a13.856 13.856 0 0 0 .785.26l.38.119c.123.039.244.079.362.118.119.04.234.076.347.11.15.053.297.118.439.194.124.066.24.145.346.237a.867.867 0 0 1 .295.666.842.842 0 0 1-.278.667 1.616 1.616 0 0 1-.726.346 4.312 4.312 0 0 1-.954.101 4.73 4.73 0 0 1-.6-.042 8.886 8.886 0 0 1-.691-.118c-.242-.05-.49-.112-.744-.185a15.033 15.033 0 0 1-.767-.245l.067 1.435c.292.101.56.183.802.244.242.062.473.116.692.161.212.044.426.072.642.085.208.011.419.017.633.017.47.002.94-.046 1.4-.144a3.606 3.606 0 0 0 1.149-.447c.32-.195.584-.468.768-.794.193-.357.29-.759.278-1.165a2.362 2.362 0 0 0-.143-.869 1.97 1.97 0 0 0-.397-.633ZM86.956 5.68a1.093 1.093 0 0 0-.582-.16 1.137 1.137 0 0 0-.59.16 1.236 1.236 0 0 0-.43.423 1.09 1.09 0 0 0-.162.582c-.001.208.054.412.161.59.103.177.252.323.43.423.18.101.384.153.591.152.204.002.405-.05.582-.152.174-.1.317-.247.414-.422.101-.18.154-.384.152-.591a1.14 1.14 0 0 0-.152-.582 1.193 1.193 0 0 0-.414-.422ZM85.48 17.996H87.2V9.217l-1.722.254v8.525ZM95.17 14.113a2.536 2.536 0 0 0-.591-.464 4.607 4.607 0 0 0-.71-.33c-.18-.056-.357-.115-.531-.177a9.439 9.439 0 0 0-.524-.168c-.174-.051-.343-.105-.506-.16a3.657 3.657 0 0 1-.448-.187 2.962 2.962 0 0 1-.397-.253 1.104 1.104 0 0 1-.286-.321.81.81 0 0 1-.11-.422.874.874 0 0 1 .118-.464.955.955 0 0 1 .355-.33c.176-.096.367-.165.565-.202.248-.048.5-.07.752-.067a5.45 5.45 0 0 1 .886.075c.175.029.349.065.523.11.174.045.352.096.532.152.167.051.33.114.49.186l.118-1.368a8.109 8.109 0 0 0-.633-.236 6.28 6.28 0 0 0-.633-.169 5.06 5.06 0 0 0-.633-.093 7.629 7.629 0 0 0-.617-.025 5.563 5.563 0 0 0-1.384.16 3.482 3.482 0 0 0-1.089.473c-.302.2-.549.473-.717.793a2.412 2.412 0 0 0-.254 1.14c-.005.284.041.567.136.835.08.226.2.434.354.617.15.172.324.322.515.447.2.131.412.241.633.33a13.96 13.96 0 0 0 .785.26l.38.119c.124.039.245.078.363.118.118.04.233.076.346.11.151.053.298.118.44.194.123.066.24.145.345.237a.866.866 0 0 1 .296.666.84.84 0 0 1-.279.667 1.62 1.62 0 0 1-.726.346 4.313 4.313 0 0 1-.954.101 4.73 4.73 0 0 1-.599-.042 8.886 8.886 0 0 1-.692-.118 10.22 10.22 0 0 1-.743-.185 15.126 15.126 0 0 1-.768-.245l.067 1.435c.293.101.56.183.802.244.242.062.473.116.692.161.212.044.426.072.642.085.208.011.419.017.633.017.47.002.94-.046 1.401-.144a3.613 3.613 0 0 0 1.148-.447c.32-.195.584-.468.768-.794.194-.357.29-.759.279-1.165a2.367 2.367 0 0 0-.144-.869 1.97 1.97 0 0 0-.397-.633ZM102.953 17.996h2.229l-4.095-4.614 4.011-3.996h-2.111l-2.889 3.174h-.622V5.25l-1.722.253v12.493h1.722V13.86h.028l3.449 4.136Z"/></svg>