<svg xmlns="http://www.w3.org/2000/svg" viewBox="0 0 47 14"><path fill="#0A2343" d="M0 12.997V.998h3.937v12H0Zm9.294-10.09 2.264 10.09H7.25L4.545.998h2.417a2.276 2.276 0 0 1 1.513.55c.42.346.71.826.819 1.36Zm2.855 10.09V.998h3.938v12h-3.938Zm6.912-7.436a2.382 2.382 0 0 1-2.4-2.4 2.301 2.301 0 0 1 .321-1.2A2.41 2.41 0 0 1 20.26 1.1c.356.21.653.506.862.862.215.363.326.778.321 1.2a2.35 2.35 0 0 1-.321 1.208 2.4 2.4 0 0 1-.862.87 2.302 2.302 0 0 1-1.2.321Zm2.99 7.436V.998h3.938v12h-3.937Zm8.923-5.442c.01.012.095.15.253.414.158.265.364.603.617 1.014a316.488 316.488 0 0 1 1.597 2.62c.247.411.529.876.845 1.394H29.96c-.27-.44-.516-.836-.736-1.191-.22-.355-.453-.738-.7-1.15-.248-.41-.493-.81-.736-1.2-.242-.388-.45-.73-.625-1.022-.175-.293-.296-.49-.363-.591a1.747 1.747 0 0 1-.287-.845c.016-.29.11-.57.27-.812.067-.112.191-.312.371-.6a182.106 182.106 0 0 0 1.37-2.23l.7-1.158.736-1.2h4.326L30.94 6.457a1.08 1.08 0 0 0-.17.54c.012.202.082.396.203.558Z"/><path fill="#AB0058" d="M41.115 11.546c.268-.23.543-.468.834-.727.405-.36.814-.752 1.225-1.174.41-.423.802-.862 1.174-1.318.361-.441.691-.907.988-1.394.278-.452.505-.934.676-1.436.16-.462.243-.947.245-1.436a3.119 3.119 0 0 0-.27-1.327 2.863 2.863 0 0 0-.794-1.013 3.625 3.625 0 0 0-1.31-.66 6.466 6.466 0 0 0-1.799-.227 6.647 6.647 0 0 0-1.174.101c-.369.065-.73.164-1.082.296a7.306 7.306 0 0 0-.97.447l.219 1.47c.267-.179.553-.33.853-.447.326-.131.662-.233 1.005-.304.35-.074.707-.11 1.064-.11.375-.008.749.043 1.107.152.286.087.549.237.769.439.198.185.352.414.448.667.098.268.147.552.144.837a3.75 3.75 0 0 1-.288 1.394 7.409 7.409 0 0 1-.81 1.47c-.38.537-.791 1.05-1.234 1.537a26.933 26.933 0 0 1-1.546 1.572c-.558.523-1.135 1.056-1.732 1.596l.22 1.048h7.316l.202-1.453h-5.48Z"/></svg>