<svg xmlns="http://www.w3.org/2000/svg" viewBox="0 0 35 41"><path fill="#0A2343" d="M0 17.998V6h3.937v12H0Zm9.294-10.09 2.264 10.09H7.25L4.545 6h2.417a2.276 2.276 0 0 1 1.513.55c.42.346.71.826.819 1.36Zm2.855 10.09V6h3.938v12h-3.938Zm6.912-7.436a2.381 2.381 0 0 1-2.078-1.192 2.345 2.345 0 0 1-.322-1.208 2.301 2.301 0 0 1 .321-1.2 2.41 2.41 0 0 1 3.278-.861c.356.21.653.506.862.862.215.363.326.778.321 1.2a2.35 2.35 0 0 1-.321 1.208 2.4 2.4 0 0 1-.862.87 2.302 2.302 0 0 1-1.2.321Zm2.99 7.436V6h3.938v12h-3.937Zm8.923-5.442c.01.012.095.15.253.414.158.265.364.603.617 1.014a309.436 309.436 0 0 1 1.597 2.62c.247.411.529.876.845 1.394H29.96c-.27-.44-.516-.836-.736-1.191-.22-.355-.453-.738-.7-1.15-.248-.41-.493-.81-.736-1.2a60.12 60.12 0 0 1-.625-1.022 18.04 18.04 0 0 0-.363-.591 1.747 1.747 0 0 1-.287-.845c.016-.29.11-.57.27-.812.067-.112.191-.312.371-.6a182.106 182.106 0 0 0 1.37-2.23l.7-1.158.736-1.2h4.326l-3.346 5.459a1.079 1.079 0 0 0-.17.54c.012.203.082.397.203.558Z"/><path fill="#2B0B4F" d="M3.266 32.276c.003.196-.03.391-.1.574-.064.163-.162.31-.287.431-.13.122-.285.215-.455.27-.195.065-.4.096-.606.093-.134 0-.26-.005-.379-.017a7.602 7.602 0 0 1-.707-.101A8.952 8.952 0 0 1 0 33.357l.135 1.52c.157.046.308.088.454.127.146.04.292.073.438.102.15.028.302.048.455.059.157.01.33.017.521.017.39.006.778-.042 1.154-.144.306-.084.595-.224.85-.414a2.39 2.39 0 0 0 .58-.633c.154-.246.267-.514.338-.795.074-.295.11-.599.109-.904V23H3.266v9.276ZM15.001 33.932a.766.766 0 0 1-.656-.27 1.459 1.459 0 0 1-.186-.896l.034-3.48a4.075 4.075 0 0 0-.135-1.082 2.66 2.66 0 0 0-.404-.862 2.287 2.287 0 0 0-.698-.625 3.567 3.567 0 0 0-1.02-.388 5.97 5.97 0 0 0-1.33-.136c-.354 0-.708.023-1.06.068a7.303 7.303 0 0 0-.985.194c-.3.082-.595.18-.884.296l-.202 1.436a10.037 10.037 0 0 1 1.532-.422c.231-.044.465-.075.7-.093.229-.017.456-.025.681-.026.343-.007.686.033 1.019.119.242.06.465.183.648.355.162.167.278.374.337.6.071.278.105.565.1.853l-.002.424-1.967.133a5.22 5.22 0 0 0-1.953.44c-.462.202-.86.526-1.154.937a2.188 2.188 0 0 0-.378 1.242 2.48 2.48 0 0 0 .294 1.191c.206.376.516.684.893.887.459.24.972.356 1.49.338.484.011.967-.069 1.422-.236a3.28 3.28 0 0 0 1.06-.676c.117-.112.228-.23.332-.354.033.175.094.343.182.498.15.258.381.46.657.574.305.123.631.184.96.178.1 0 .199-.004.294-.009.094-.005.187-.02.278-.042l.244-.06c.066-.014.13-.034.194-.059l.185-1.131a1.498 1.498 0 0 1-.286.067c-.078.01-.157.016-.236.017Zm-2.803-.76c-.183.144-.38.269-.59.371-.208.102-.428.176-.656.22a3.711 3.711 0 0 1-.716.067 1.892 1.892 0 0 1-.8-.152 1.098 1.098 0 0 1-.496-.43 1.266 1.266 0 0 1-.168-.668c-.017-.282.06-.56.219-.794.183-.215.431-.363.707-.423.43-.101.871-.146 1.313-.134h1.474l-.007 1.677c-.086.096-.18.185-.28.265ZM23.486 27.579l-.202-1.2h-6.498l-.203 1.352h4.89l-5.04 6.116.201 1.149h6.87l.185-1.369h-5.146l4.943-6.048ZM27.028 33.627l4.944-6.048-.202-1.2H25.27l-.202 1.352h4.889l-5.04 6.116.201 1.149h6.87l.185-1.369h-5.146Z"/></svg>