<svg xmlns="http://www.w3.org/2000/svg" viewBox="0 0 52 31"><path fill="#fff" d="M0 13V1.003h3.937V13H0ZM9.294 2.912l2.264 10.09H7.25L4.545 1h2.417a2.276 2.276 0 0 1 1.513.55c.42.346.71.826.819 1.36Zm2.855 10.09V1h3.938v12h-3.938Zm6.912-7.436a2.382 2.382 0 0 1-2.4-2.4 2.301 2.301 0 0 1 .321-1.2 2.41 2.41 0 0 1 3.278-.862c.356.21.653.506.862.862.215.363.326.778.321 1.2a2.35 2.35 0 0 1-.321 1.208 2.4 2.4 0 0 1-.862.87 2.302 2.302 0 0 1-1.2.322ZM22.05 13V1h3.938v12h-3.937Zm8.923-5.442c.01.011.095.15.253.414s.364.602.617 1.014a313.36 313.36 0 0 1 1.597 2.62c.247.41.529.875.845 1.394H29.96c-.27-.44-.516-.837-.736-1.192-.22-.355-.453-.738-.7-1.15-.248-.41-.493-.81-.736-1.2-.242-.388-.45-.729-.625-1.021-.175-.293-.296-.49-.363-.592a1.747 1.747 0 0 1-.287-.845c.016-.29.11-.57.27-.811.067-.113.191-.313.371-.6a182.106 182.106 0 0 0 1.37-2.23l.7-1.159.736-1.2h4.326L30.94 6.46a1.08 1.08 0 0 0-.17.541c.012.202.082.396.203.558Z"/><path fill="#9FDAF5" d="M9.547 18.154H0v1.486h3.89v10.502h1.783V19.64h3.873v-1.486ZM13.029 21.472a3.366 3.366 0 0 0-.9.389 4.44 4.44 0 0 0-.799.633c-.04.04-.08.084-.119.126v-1.258l-1.732.254v8.526h1.732v-6.379a4.555 4.555 0 0 1 .926-.493c.176-.067.354-.126.535-.177a3.62 3.62 0 0 1 1.19-.127l.203-1.587a3.26 3.26 0 0 0-1.036.093ZM22.78 29.078a.778.778 0 0 1-.663-.27 1.445 1.445 0 0 1-.187-.895l.034-3.478a4.038 4.038 0 0 0-.136-1.08c-.082-.31-.22-.601-.408-.862a2.296 2.296 0 0 0-.705-.624 3.61 3.61 0 0 0-1.027-.389 6.1 6.1 0 0 0-1.342-.134c-.358 0-.715.022-1.07.067a7.38 7.38 0 0 0-.994.194c-.303.082-.6.18-.892.296l-.204 1.435a10.02 10.02 0 0 1 1.546-.422c.233-.045.468-.076.705-.093.232-.017.461-.026.688-.026.347-.007.692.033 1.028.119.245.06.47.183.654.354.164.167.28.374.34.6.072.278.106.565.102.852l-.002.422-1.986.134a5.307 5.307 0 0 0-1.97.44 2.82 2.82 0 0 0-1.164.936 2.173 2.173 0 0 0-.383 1.241c-.003.415.1.825.298 1.19.208.376.52.684.9.887.463.24.981.356 1.503.337.49.012.977-.069 1.436-.236a3.31 3.31 0 0 0 1.07-.675 4.65 4.65 0 0 0 .334-.354c.033.175.095.343.184.497.151.259.384.46.663.574.307.123.636.183.968.178.102 0 .2-.003.297-.009a1.53 1.53 0 0 0 .28-.042c.09-.023.173-.042.247-.06.066-.014.131-.034.195-.058l.187-1.131c-.094.031-.19.054-.289.067a1.893 1.893 0 0 1-.238.018Zm-2.547-1.026a2.261 2.261 0 0 1-.283.266 3.27 3.27 0 0 1-.594.372c-.21.101-.433.175-.663.22-.238.045-.48.067-.722.067a1.928 1.928 0 0 1-.807-.152 1.105 1.105 0 0 1-.5-.43 1.254 1.254 0 0 1-.17-.668c-.017-.281.06-.56.22-.793a1.3 1.3 0 0 1 .714-.422c.434-.102.88-.147 1.325-.135h1.487l-.007 1.675ZM29.174 17.53a5.556 5.556 0 0 0-1.112-.102 3.442 3.442 0 0 0-1.087.17 2.358 2.358 0 0 0-1.486 1.434c-.15.411-.223.846-.213 1.284v1.215h-1.274v1.317h1.274v7.294h1.733v-7.294h2.378v-1.317H27.01V20.13a1.575 1.575 0 0 1 .093-.566 1.07 1.07 0 0 1 .263-.405c.124-.112.272-.193.434-.236.19-.053.388-.078.586-.076.136 0 .265.006.39.017.126.01.247.028.366.05.119.023.232.045.34.068.095.019.19.047.28.084l-.068-1.401a4.117 4.117 0 0 0-.519-.135ZM31.068 30.142h1.733v-8.78l-1.733.254v8.526ZM32.555 17.825a1.105 1.105 0 0 0-.586-.16 1.147 1.147 0 0 0-.595.16 1.244 1.244 0 0 0-.433.422 1.087 1.087 0 0 0-.161.583 1.15 1.15 0 0 0 .595 1.013c.18.101.386.154.594.152.205.002.408-.05.586-.152.175-.1.318-.247.416-.422.102-.18.155-.384.153-.591a1.135 1.135 0 0 0-.153-.583 1.196 1.196 0 0 0-.416-.422ZM42.84 21.531h-2.123l-2.907 3.174h-.627v-7.31l-1.732.253v12.494h1.733v-4.137h.028l3.47 4.137h2.243l-4.12-4.615 4.035-3.996ZM47.722 25.483l4.036-3.996h-2.123l-2.907 3.174h-.627v-7.31l-1.732.253v12.494h1.733V25.96h.028l3.47 4.137h2.243l-4.12-4.615Z"/></svg>