<svg width="91" height="14" viewBox="0 0 91 14" fill="none" xmlns="http://www.w3.org/2000/svg">
<path d="M0 12.9968V0.997916H3.93719V12.9968H0ZM9.29381 2.90761L11.5581 12.9968H7.24917L4.54549 0.997916H6.96218C7.51635 0.990724 8.05406 1.18607 8.4745 1.54722C8.89562 1.89321 9.18495 2.37352 9.29381 2.90761ZM12.1495 12.9968V0.997916H16.0867V12.9968H12.1495ZM19.0605 5.56093C18.6362 5.56506 18.2188 5.45406 17.8525 5.23979C17.4912 5.03095 17.1911 4.73079 16.9823 4.36942C16.7678 4.00316 16.6568 3.58559 16.661 3.16114C16.6561 2.73929 16.7672 2.32421 16.9823 1.96125C17.1933 1.60382 17.4931 1.30692 17.8525 1.09935C18.2189 0.885329 18.6362 0.774341 19.0605 0.77821C19.4822 0.773668 19.8971 0.884755 20.2602 1.09935C20.616 1.30874 20.9127 1.60539 21.122 1.96125C21.3368 2.32431 21.4479 2.73932 21.4433 3.16114C21.4473 3.58555 21.3363 4.00305 21.122 4.36942C20.9149 4.7292 20.6179 5.02911 20.2602 5.23979C19.8971 5.4548 19.4819 5.56592 19.0599 5.56093H19.0605ZM22.0516 12.9968V0.997916H25.9892V12.9968H22.0516ZM30.9737 7.55506C30.9848 7.5667 31.0693 7.70471 31.2272 7.9691C31.3851 8.23349 31.5906 8.57151 31.8439 8.98312C32.0974 9.39453 32.3649 9.83108 32.6463 10.2928C32.9278 10.7546 33.1926 11.1912 33.4408 11.6026C33.6881 12.014 33.9697 12.4788 34.2857 12.9968H29.9598C29.6893 12.5574 29.4441 12.1603 29.2245 11.8054C29.0048 11.4505 28.7713 11.0674 28.5238 10.6562C28.2758 10.2453 28.0306 9.84536 27.7882 9.45629C27.5458 9.06722 27.3375 8.72644 27.1633 8.43388C26.9883 8.14114 26.8671 7.94395 26.7997 7.84236C26.6325 7.59027 26.5336 7.29912 26.5127 6.99737C26.5294 6.70776 26.6226 6.4278 26.7828 6.18594C26.8504 6.07327 26.9743 5.87325 27.1545 5.58596C27.3348 5.29866 27.546 4.95788 27.7882 4.56355C28.0304 4.16922 28.2756 3.76643 28.5238 3.3552C28.772 2.94397 29.0056 2.55806 29.2245 2.19753C29.4445 1.83738 29.6897 1.43741 29.9598 0.997641H34.2857L30.9396 6.45632C30.8361 6.61839 30.7777 6.80517 30.7706 6.99737C30.7818 7.19915 30.8522 7.39314 30.9731 7.55506H30.9737Z" fill="#0A2343"/>
<path d="M48.4036 1.05073H38.8571V2.53649H42.7468V13.0381H44.5303V2.53649H48.4034L48.4036 1.05073Z" fill="#1767CE"/>
<path d="M51.886 4.36848C51.5684 4.45337 51.265 4.58421 50.9856 4.7568C50.6959 4.93667 50.4281 5.14912 50.1873 5.38994C50.1471 5.4299 50.108 5.47438 50.0684 5.51631V4.25877L48.3357 4.51199V13.0382H50.0684V6.65961C50.1971 6.57023 50.3303 6.48749 50.4676 6.41171C50.6374 6.31849 50.8131 6.23659 50.9939 6.16659C51.1697 6.09905 51.3478 6.03999 51.5293 5.98962C51.7157 5.93784 51.906 5.90105 52.0983 5.87959C52.3042 5.85698 52.5115 5.85131 52.7183 5.86269L52.9221 4.27563C52.574 4.25091 52.2241 4.28225 51.886 4.36848Z" fill="#1767CE"/>
<path d="M61.6364 11.9743C61.5123 11.9857 61.3872 11.9671 61.2718 11.92C61.1565 11.873 61.0542 11.7989 60.9739 11.7042C60.8164 11.4336 60.7509 11.1198 60.7871 10.8093L60.821 7.3313C60.8248 6.96669 60.7791 6.60324 60.6851 6.25076C60.6027 5.94162 60.4646 5.64987 60.2775 5.38968C60.0884 5.13525 59.8484 4.92255 59.5725 4.765C59.252 4.58398 58.9054 4.45301 58.5448 4.37668C58.104 4.28227 57.6538 4.23706 57.2028 4.24189C56.8451 4.24165 56.4878 4.26411 56.133 4.30915C55.7976 4.35105 55.4655 4.41595 55.139 4.50332C54.8364 4.58489 54.5387 4.68351 54.2474 4.79877L54.0433 6.23386C54.3264 6.13256 54.5954 6.04817 54.8502 5.98064C55.105 5.9131 55.3513 5.8568 55.5891 5.81177C55.8221 5.76738 56.0575 5.73648 56.2941 5.7192C56.526 5.70213 56.7555 5.69361 56.9823 5.69361C57.3287 5.68627 57.6745 5.72601 58.01 5.81177C58.2547 5.87277 58.4797 5.9948 58.6637 6.16633C58.8276 6.33328 58.9447 6.5399 59.0035 6.7657C59.0762 7.0441 59.1106 7.33102 59.1057 7.6186L59.1037 8.04069L57.118 8.17435C56.4388 8.19332 55.7698 8.34238 55.1475 8.61334C54.6819 8.8159 54.2798 9.13962 53.9839 9.55036C53.7328 9.91592 53.5995 10.3487 53.6017 10.7913C53.5985 11.2066 53.7008 11.616 53.8989 11.9816C54.1068 12.3572 54.4194 12.665 54.7992 12.868C55.2626 13.1076 55.7805 13.2239 56.3026 13.2057C56.7918 13.2168 57.2788 13.1366 57.7382 12.9693C58.1353 12.8149 58.4986 12.5855 58.8081 12.2939C58.9256 12.1819 59.0371 12.0639 59.1422 11.9402C59.1753 12.115 59.2375 12.283 59.3262 12.4375C59.4775 12.696 59.7104 12.8977 59.9887 13.0115C60.2963 13.1343 60.6255 13.1946 60.9569 13.1888C61.0588 13.1888 61.158 13.186 61.2545 13.1803C61.3489 13.1749 61.4426 13.1608 61.5345 13.1381C61.6251 13.1156 61.7069 13.0959 61.7808 13.079C61.8473 13.0643 61.9126 13.0445 61.9761 13.02L62.1632 11.8888C62.0693 11.9206 61.9725 11.9432 61.8742 11.9563C61.7954 11.9673 61.716 11.9733 61.6364 11.9743ZM59.0904 10.9486C59.0039 11.0452 58.9092 11.1341 58.8073 11.2145C58.6231 11.3592 58.4237 11.4837 58.2127 11.586C58.0026 11.6876 57.7799 11.7614 57.5505 11.8055C57.3126 11.8511 57.0709 11.8737 56.8286 11.873C56.5517 11.8809 56.2763 11.829 56.0215 11.721C55.8142 11.6317 55.6394 11.4815 55.5206 11.2905C55.4028 11.0882 55.344 10.8573 55.3507 10.6236C55.3343 10.3422 55.412 10.0632 55.5716 9.83007C55.7564 9.61552 56.0071 9.46724 56.285 9.40798C56.719 9.30649 57.1644 9.2611 57.61 9.27292H59.0975L59.0904 10.9486Z" fill="#1767CE"/>
<path d="M68.0316 0.426104C67.8561 0.392337 67.6777 0.367006 67.4965 0.350122C67.3154 0.333239 67.1228 0.324772 66.919 0.324772C66.5499 0.32242 66.1829 0.379463 65.8322 0.493635C65.4987 0.602631 65.194 0.784344 64.9403 1.02547C64.6777 1.27945 64.4748 1.58785 64.3458 1.92873C64.1956 2.33966 64.1236 2.77476 64.1335 3.21187V4.4275H62.8595V5.7444H64.1335V13.0381H65.8661V5.7444H68.2442V4.4275H65.8661V3.02617C65.8624 2.83356 65.8941 2.64189 65.9595 2.46057C66.015 2.30736 66.105 2.16875 66.2225 2.05535C66.3457 1.9429 66.4944 1.86181 66.656 1.81899C66.8467 1.76644 67.0439 1.74086 67.2418 1.743C67.378 1.743 67.5076 1.74893 67.6327 1.7599C67.7578 1.77088 67.8787 1.78802 67.9979 1.81054C68.1171 1.83305 68.2298 1.85556 68.3377 1.87807C68.4336 1.89706 68.5275 1.92534 68.6179 1.9625L68.55 0.561167C68.3804 0.504907 68.2072 0.459792 68.0316 0.426104Z" fill="#1767CE"/>
<path d="M69.9255 13.0382H71.6581V4.25877L69.9255 4.51199V13.0382Z" fill="#1767CE"/>
<path d="M71.4118 0.721413C71.2355 0.614336 71.0324 0.558767 70.8258 0.561035C70.6166 0.559362 70.4109 0.61483 70.2312 0.721413C70.0541 0.82455 69.9053 0.969531 69.7981 1.1435C69.6902 1.3187 69.6343 1.52062 69.6367 1.72601C69.6349 1.93397 69.6907 2.13841 69.7981 2.31692C69.902 2.49352 70.0515 2.63926 70.2312 2.73901C70.4126 2.84044 70.6177 2.89281 70.8258 2.89094C71.0313 2.89337 71.2337 2.84092 71.4118 2.73901C71.5866 2.6385 71.7304 2.49258 71.828 2.31692C71.93 2.13661 71.9828 1.93287 71.9809 1.72601C71.9834 1.52174 71.9306 1.32054 71.828 1.1435C71.7271 0.970351 71.584 0.825204 71.4118 0.721413Z" fill="#1767CE"/>
<path d="M81.6972 4.42745H79.5739L76.6672 7.60157H76.0407V0.29095L74.3081 0.544211V13.0381H76.0407V8.9016H76.069L79.5397 13.0381H81.7819L77.6615 8.42321L81.6972 4.42745Z" fill="#1767CE"/>
<path d="M86.5795 8.37882L90.6152 4.38301H88.4918L85.5852 7.55714H84.9586V0.246826L83.226 0.500087V12.9939H84.9586V8.85744H84.987L88.4576 12.9939H90.6999L86.5795 8.37882Z" fill="#1767CE"/>
</svg>
