<svg xmlns="http://www.w3.org/2000/svg" viewBox="0 0 61 41"><path fill="#0A2343" d="M0 17.997v-12h3.937v12H0Zm9.294-10.09 2.264 10.09H7.25l-2.704-12h2.417a2.276 2.276 0 0 1 1.513.55c.42.346.71.826.819 1.36Zm2.855 10.09v-12h3.938v12h-3.938Zm6.912-7.436a2.381 2.381 0 0 1-2.078-1.192 2.345 2.345 0 0 1-.322-1.208 2.301 2.301 0 0 1 .321-1.2 2.41 2.41 0 0 1 3.278-.862c.356.21.653.506.862.862.215.363.326.778.321 1.2a2.35 2.35 0 0 1-.321 1.208c-.207.36-.504.66-.862.87a2.301 2.301 0 0 1-1.2.322Zm2.99 7.436v-12h3.938v12h-3.937Zm8.923-5.442c.01.011.095.15.253.414s.364.602.617 1.014a309.436 309.436 0 0 1 1.597 2.62c.247.41.529.875.845 1.394H29.96c-.27-.44-.516-.837-.736-1.192-.22-.355-.453-.738-.7-1.15-.248-.41-.493-.81-.736-1.199a60.12 60.12 0 0 1-.625-1.022 18.04 18.04 0 0 0-.363-.592 1.747 1.747 0 0 1-.287-.845c.016-.29.11-.57.27-.811.067-.113.191-.313.371-.6a182.106 182.106 0 0 0 1.37-2.23l.7-1.159.736-1.2h4.326l-3.346 5.46a1.079 1.079 0 0 0-.17.54c.012.202.082.396.203.558Z"/><path fill="#6B046A" d="M9.109 23H6.996l-4.59 5.29h-.632V23H0v12h1.774v-5.425h.06l4.994 5.441 2.416-.017-5.729-5.949L9.11 23ZM13.257 33.757c-.059.006-.118.01-.177.008a.904.904 0 0 1-.372-.067.604.604 0 0 1-.253-.212.919.919 0 0 1-.144-.363 2.81 2.81 0 0 1-.042-.524V22.24l-1.724.254V33.36c-.007.285.039.568.136.836.08.218.214.413.388.567.174.148.379.255.6.312.246.064.498.095.752.093a4.17 4.17 0 0 0 .752-.068 3.38 3.38 0 0 0 .296-.067l.169-1.335c-.068.011-.135.023-.203.033-.068.011-.127.02-.178.026ZM22.679 33.934a.77.77 0 0 1-.66-.27 1.453 1.453 0 0 1-.185-.896l.034-3.48a4.063 4.063 0 0 0-.136-1.083 2.654 2.654 0 0 0-.405-.861 2.287 2.287 0 0 0-.702-.626 3.568 3.568 0 0 0-1.022-.388 6.009 6.009 0 0 0-1.335-.135c-.356 0-.711.022-1.064.067a7.343 7.343 0 0 0-.99.194c-.3.082-.596.181-.886.296l-.203 1.437a9.622 9.622 0 0 1 1.538-.423c.231-.044.465-.075.7-.093.232-.017.46-.025.686-.025.344-.007.688.032 1.022.118.243.061.467.183.65.355.163.167.28.374.338.6.072.279.107.566.102.854l-.002.424-1.976.133a5.247 5.247 0 0 0-1.96.44 2.808 2.808 0 0 0-1.157.937c-.25.366-.383.8-.38 1.242a2.47 2.47 0 0 0 .295 1.192c.207.376.518.684.896.887.46.24.976.356 1.495.338a3.88 3.88 0 0 0 1.428-.237 3.295 3.295 0 0 0 1.065-.676c.117-.112.228-.23.332-.354.033.175.095.343.183.498.151.259.383.46.66.575.306.122.633.183.963.177.101 0 .2-.003.295-.009.095-.005.188-.02.28-.042.09-.023.17-.042.244-.059.067-.015.131-.035.195-.059l.186-1.133c-.094.033-.19.055-.288.068-.078.01-.157.017-.236.017Zm-2.814-.76a3.25 3.25 0 0 1-.591.371c-.21.102-.431.176-.66.22a3.744 3.744 0 0 1-.718.068 1.908 1.908 0 0 1-.803-.152c-.206-.09-.38-.24-.498-.431a1.263 1.263 0 0 1-.169-.668 1.28 1.28 0 0 1 .22-.794 1.29 1.29 0 0 1 .71-.422 5.138 5.138 0 0 1 1.318-.135h1.48l-.008 1.677a2.25 2.25 0 0 1-.281.266ZM30.148 31.112a2.542 2.542 0 0 0-.592-.465 4.627 4.627 0 0 0-.71-.33 14.62 14.62 0 0 1-.532-.177 9.394 9.394 0 0 0-.524-.169 10.52 10.52 0 0 1-.507-.16 3.662 3.662 0 0 1-.447-.186 2.965 2.965 0 0 1-.397-.254 1.106 1.106 0 0 1-.288-.321.813.813 0 0 1-.11-.423.875.875 0 0 1 .119-.464.96.96 0 0 1 .355-.33 1.91 1.91 0 0 1 .566-.203c.248-.047.5-.07.752-.067a5.45 5.45 0 0 1 .887.076c.175.028.349.065.524.11.175.044.352.096.532.152.167.051.33.113.49.186l.119-1.37a8.12 8.12 0 0 0-.634-.236 6.306 6.306 0 0 0-.634-.169 5.074 5.074 0 0 0-.634-.093 7.64 7.64 0 0 0-.617-.025 5.576 5.576 0 0 0-1.385.16 3.49 3.49 0 0 0-1.09.474c-.303.2-.55.473-.718.794a2.42 2.42 0 0 0-.254 1.14c-.005.285.04.568.135.837.08.225.2.434.355.617.15.172.324.323.516.448.2.13.411.241.633.33a13.373 13.373 0 0 0 .786.26c.13.04.256.08.38.12.125.038.245.078.364.117.118.04.233.077.346.11.151.054.298.119.44.195.124.065.24.145.346.236a.874.874 0 0 1 .22.296.9.9 0 0 1 .076.372.84.84 0 0 1-.28.667c-.208.175-.458.294-.726.347-.313.069-.633.103-.954.101a4.745 4.745 0 0 1-.6-.042 8.961 8.961 0 0 1-.693-.118 10.26 10.26 0 0 1-.744-.186c-.253-.073-.51-.155-.769-.245l.068 1.436c.292.102.56.184.802.245.243.062.474.116.694.161.211.044.426.072.641.085.209.011.42.017.634.017a6.58 6.58 0 0 0 1.403-.144 3.614 3.614 0 0 0 1.15-.448c.319-.195.583-.468.768-.794.193-.358.29-.76.278-1.166a2.367 2.367 0 0 0-.143-.87 1.978 1.978 0 0 0-.397-.634ZM38.073 31.112a2.547 2.547 0 0 0-.591-.465 4.605 4.605 0 0 0-.71-.33 14.75 14.75 0 0 1-.532-.177 9.421 9.421 0 0 0-.524-.169c-.175-.05-.344-.104-.507-.16a3.678 3.678 0 0 1-.448-.186 2.966 2.966 0 0 1-.397-.254 1.104 1.104 0 0 1-.287-.321.81.81 0 0 1-.11-.423.875.875 0 0 1 .118-.464.955.955 0 0 1 .355-.33 1.91 1.91 0 0 1 .566-.203c.248-.047.5-.07.752-.067a5.468 5.468 0 0 1 .887.076c.175.028.35.065.524.11.175.044.352.096.533.152.166.051.33.113.49.186l.118-1.37a8.123 8.123 0 0 0-.634-.236 6.3 6.3 0 0 0-.634-.169 5.073 5.073 0 0 0-.633-.093 7.644 7.644 0 0 0-.617-.025 5.571 5.571 0 0 0-1.386.16 3.486 3.486 0 0 0-1.09.474c-.302.2-.55.473-.718.794a2.412 2.412 0 0 0-.254 1.14c-.005.285.041.569.136.837.08.225.2.434.355.617.15.172.323.323.515.448.2.13.412.241.634.33a13.664 13.664 0 0 0 .786.26 29.712 29.712 0 0 1 .743.237c.118.04.234.077.347.11.15.054.298.119.439.195.124.065.24.145.347.236a.869.869 0 0 1 .295.668.84.84 0 0 1-.279.667c-.209.175-.459.294-.727.347-.313.069-.633.103-.954.101a4.722 4.722 0 0 1-.6-.042 8.96 8.96 0 0 1-.693-.118c-.242-.05-.49-.113-.744-.186-.253-.073-.51-.155-.768-.245l.067 1.436c.293.102.56.184.803.245.243.062.474.116.693.161.212.044.426.072.642.085.208.011.42.017.634.017a6.57 6.57 0 0 0 1.402-.144 3.61 3.61 0 0 0 1.15-.448c.319-.195.584-.468.769-.794.193-.357.289-.76.278-1.166a2.364 2.364 0 0 0-.144-.87 1.97 1.97 0 0 0-.397-.634ZM42.138 22.671a1.094 1.094 0 0 0-.583-.16 1.138 1.138 0 0 0-.592.16 1.238 1.238 0 0 0-.43.423 1.092 1.092 0 0 0-.161.582c-.002.209.054.413.16.592.104.177.253.322.431.422.18.102.385.154.592.152.204.003.405-.05.583-.152.173-.1.317-.246.414-.422.101-.18.154-.385.152-.592a1.14 1.14 0 0 0-.152-.582 1.193 1.193 0 0 0-.414-.423ZM40.659 34.999h1.724V26.21l-1.724.254v8.534ZM50.359 31.112a2.54 2.54 0 0 0-.592-.465 4.605 4.605 0 0 0-.71-.33c-.18-.056-.357-.115-.532-.177a9.347 9.347 0 0 0-.524-.169c-.174-.05-.343-.104-.507-.16a3.66 3.66 0 0 1-.447-.186 2.958 2.958 0 0 1-.398-.254 1.105 1.105 0 0 1-.287-.321.811.811 0 0 1-.11-.423.876.876 0 0 1 .119-.464.955.955 0 0 1 .355-.33 1.91 1.91 0 0 1 .566-.203c.248-.047.5-.07.752-.067a5.465 5.465 0 0 1 .887.076c.175.028.349.065.524.11.174.044.352.096.532.152.167.051.33.113.49.186l.119-1.37a8.136 8.136 0 0 0-.634-.236 6.274 6.274 0 0 0-.634-.169 5.07 5.07 0 0 0-.634-.093 7.637 7.637 0 0 0-.616-.025 5.568 5.568 0 0 0-1.386.16 3.488 3.488 0 0 0-1.09.474c-.303.2-.55.473-.718.794a2.413 2.413 0 0 0-.254 1.14c-.005.285.04.569.136.837.08.225.2.434.355.617.15.172.323.323.515.448.2.13.412.241.634.33a13.674 13.674 0 0 0 .785.26c.13.04.256.08.38.12.125.038.246.078.364.117.118.04.234.077.346.11.152.054.299.119.44.195.124.065.24.145.346.236a.866.866 0 0 1 .296.668.843.843 0 0 1-.279.667 1.62 1.62 0 0 1-.727.347c-.313.069-.633.103-.954.101a4.72 4.72 0 0 1-.6-.042 8.95 8.95 0 0 1-.693-.118 10.28 10.28 0 0 1-.744-.186c-.253-.073-.51-.155-.769-.245l.068 1.436c.293.102.56.184.803.245.242.062.473.116.693.161.211.044.426.072.642.085.208.011.42.017.633.017a6.57 6.57 0 0 0 1.403-.144 3.614 3.614 0 0 0 1.15-.448c.319-.195.583-.468.768-.794.194-.358.29-.76.279-1.166a2.364 2.364 0 0 0-.144-.87 1.971 1.971 0 0 0-.397-.634ZM58.15 34.999h2.232l-4.1-4.62 4.015-3.999h-2.112l-2.892 3.177h-.623V22.24l-1.724.254v12.505h1.724v-4.14h.028l3.453 4.14Z"/></svg>