<svg xmlns="http://www.w3.org/2000/svg" viewBox="0 0 95 24"><path fill="#fff" d="M0 18.667v-14h4.593v14H0ZM10.843 6.896l2.641 11.77H8.457L5.303 4.669h2.82a2.655 2.655 0 0 1 1.764.64c.491.404.829.965.956 1.588Zm3.331 11.77V4.669h4.594v13.999h-4.594Zm8.063-8.675a2.737 2.737 0 0 1-1.409-.374A2.778 2.778 0 0 1 19.813 8.6a2.735 2.735 0 0 1-.375-1.41 2.685 2.685 0 0 1 .375-1.4 2.812 2.812 0 0 1 3.824-1.005c.415.245.761.59 1.005 1.006.251.423.38.908.375 1.4.005.495-.125.982-.375 1.41a2.8 2.8 0 0 1-1.005 1.015c-.424.25-.908.38-1.4.374Zm3.49 8.676v-14h4.594v14h-4.594Zm10.409-6.35c.013.014.111.175.296.484.184.308.424.703.72 1.183a384.573 384.573 0 0 1 1.862 3.056c.289.48.617 1.022.986 1.627h-5.047l-.858-1.39c-.256-.414-.529-.861-.817-1.341-.29-.48-.576-.946-.858-1.4a71.148 71.148 0 0 1-.73-1.193 21.119 21.119 0 0 0-.424-.69 2.04 2.04 0 0 1-.334-.986c.019-.338.128-.664.315-.946.078-.132.223-.365.433-.7a216.7 216.7 0 0 0 1.598-2.603l.817-1.35.858-1.4H40l-3.904 6.368c-.12.19-.189.407-.197.631.013.236.095.462.236.65h.001ZM53.927 12.115a3.736 3.736 0 0 0-.987-.72 7.674 7.674 0 0 0-1.194-.483c-.42-.132-.855-.244-1.302-.336a28.277 28.277 0 0 1-.957-.237 4.411 4.411 0 0 1-.79-.286 2.61 2.61 0 0 1-.6-.395 1.42 1.42 0 0 1-.386-.552 2.136 2.136 0 0 1-.128-.78 2.383 2.383 0 0 1 .128-.809c.081-.23.217-.436.395-.602a2.44 2.44 0 0 1 .621-.414c.26-.118.536-.198.82-.237a6.911 6.911 0 0 1 1.015-.069c.31.001.62.017.928.05.311.032.621.081.927.148.298.064.59.147.878.246.27.093.53.208.78.345l.276-1.736a4.914 4.914 0 0 0-.878-.355c-.31-.092-.622-.17-.937-.237a9.359 9.359 0 0 0-.967-.148c-.33-.033-.665-.05-1.007-.05a8.397 8.397 0 0 0-2.072.237 4.692 4.692 0 0 0-1.608.73c-.447.321-.806.749-1.045 1.244a4.017 4.017 0 0 0-.366 1.776c-.01.473.066.945.227 1.39.142.374.36.714.642.997.278.278.597.51.946.69.371.192.757.35 1.155.475a13.4 13.4 0 0 0 1.273.335c.355.079.684.161.987.247.281.077.555.18.819.306.226.107.435.246.621.414.176.166.314.368.405.592.104.27.154.559.148.849.005.308-.042.615-.139.907a2.11 2.11 0 0 1-.394.69c-.175.201-.39.362-.632.474a3.19 3.19 0 0 1-.858.257 6.848 6.848 0 0 1-1.095.079c-.357 0-.712-.024-1.066-.07a12.832 12.832 0 0 1-1.105-.187 11.078 11.078 0 0 1-1.075-.286c-.349-.111-.68-.226-.997-.345l.257 1.953c.336.126.679.235 1.026.326.315.082.635.148.957.197.309.046.618.082.927.109.31.026.622.04.937.04a9.698 9.698 0 0 0 2.102-.218 5.032 5.032 0 0 0 1.717-.71 3.341 3.341 0 0 0 1.145-1.293c.288-.62.426-1.3.404-1.983a4.452 4.452 0 0 0-.227-1.5 2.915 2.915 0 0 0-.651-1.065ZM64.78 9.007a4.24 4.24 0 0 0-2.358-.621 6.024 6.024 0 0 0-1.46.187 6.348 6.348 0 0 0-1.757.745v-.913l-2.012.316V22.81h2.012v-4.418l.04.018c.364.151.745.26 1.134.325.46.076.925.113 1.391.109a4.93 4.93 0 0 0 2.536-.652 4.684 4.684 0 0 0 1.776-1.884 6.3 6.3 0 0 0 .66-3.009 6.13 6.13 0 0 0-.503-2.565 3.961 3.961 0 0 0-1.46-1.727Zm-.523 6.6c-.237.525-.635.96-1.135 1.244a3.645 3.645 0 0 1-1.805.414 5.612 5.612 0 0 1-1.815-.296 18.48 18.48 0 0 1-.297-.106v-6.227c.026-.013.053-.028.08-.04.288-.132.558-.244.808-.336a4.044 4.044 0 0 1 1.401-.257 3.649 3.649 0 0 1 1.756.385c.476.26.849.674 1.056 1.174.25.64.368 1.325.345 2.013a4.714 4.714 0 0 1-.394 2.033ZM76.363 9.017a5.413 5.413 0 0 0-2.674-.631 5.388 5.388 0 0 0-2.694.65 4.55 4.55 0 0 0-1.796 1.836 5.804 5.804 0 0 0-.64 2.802 6.05 6.05 0 0 0 .601 2.792 4.12 4.12 0 0 0 1.727 1.786c.802.42 1.698.63 2.604.611a5.562 5.562 0 0 0 2.723-.65 4.595 4.595 0 0 0 1.846-1.856 5.818 5.818 0 0 0 .66-2.84 5.72 5.72 0 0 0-.611-2.714 4.312 4.312 0 0 0-1.746-1.786Zm-.119 6.61a2.692 2.692 0 0 1-1.075 1.234 3.067 3.067 0 0 1-1.579.404 2.807 2.807 0 0 1-1.54-.414 2.778 2.778 0 0 1-1.025-1.243 4.976 4.976 0 0 1-.375-2.052 4.648 4.648 0 0 1 .375-1.994c.221-.494.59-.907 1.056-1.184a3.19 3.19 0 0 1 1.627-.394c.444-.011.885.073 1.293.246.357.162.67.41.908.72.254.34.438.725.542 1.136.123.48.183.974.178 1.47a4.915 4.915 0 0 1-.385 2.072ZM85.291 8.533c-.369.1-.721.252-1.046.454-.336.21-.648.459-.927.74-.047.047-.092.099-.138.148v-1.47l-2.013.296v9.965h2.013v-7.455a5.021 5.021 0 0 1 1.076-.576c.203-.079.41-.148.62-.207a4.223 4.223 0 0 1 1.382-.148l.237-1.855a3.772 3.772 0 0 0-1.204.108ZM93.855 17.019c-.093.02-.194.039-.306.059l-.335.059c-.108.02-.217.032-.326.04-.106.006-.204.01-.296.01a1.997 1.997 0 0 1-.878-.178 1.276 1.276 0 0 1-.562-.523 1.666 1.666 0 0 1-.198-.84v-5.465h2.783l.217-1.578h-3V5.485l-2.012.71v2.408h-1.52l-.217 1.578h1.737v5.88c-.01.393.05.784.177 1.155.102.294.26.565.464.799.187.208.416.376.67.493.262.12.537.207.82.257.28.052.563.078.848.079.21 0 .418-.007.622-.02a6.69 6.69 0 0 0 1.046-.148c.15-.033.279-.062.384-.089l.119-1.638c-.077.03-.156.053-.237.07Z"/></svg>