<svg xmlns="http://www.w3.org/2000/svg" fill="currentColor" viewBox="0 0 47 14"><path d="M0 12.997V.998h3.937v12H0Zm9.294-10.09 2.264 10.09H7.25L4.545.998h2.417a2.276 2.276 0 0 1 1.513.55c.42.346.71.826.819 1.36Zm2.855 10.09V.998h3.938v12h-3.938Zm6.912-7.436a2.382 2.382 0 0 1-2.4-2.4 2.301 2.301 0 0 1 .321-1.2A2.41 2.41 0 0 1 20.26 1.1c.356.21.653.506.862.862.215.363.326.778.321 1.2a2.35 2.35 0 0 1-.321 1.208 2.4 2.4 0 0 1-.862.87 2.302 2.302 0 0 1-1.2.321Zm2.99 7.436V.998h3.938v12h-3.937Zm8.923-5.442c.01.012.095.15.253.414.158.265.364.603.617 1.014a312.142 312.142 0 0 1 1.597 2.62c.247.411.529.876.845 1.394H29.96c-.27-.44-.516-.836-.736-1.191-.22-.355-.453-.738-.7-1.15-.248-.41-.493-.81-.736-1.2-.242-.388-.45-.73-.625-1.022-.175-.293-.296-.49-.363-.591a1.747 1.747 0 0 1-.287-.845c.016-.29.11-.57.27-.812.067-.112.191-.312.371-.6a182.106 182.106 0 0 0 1.37-2.23l.7-1.158.736-1.2h4.326L30.94 6.457a1.08 1.08 0 0 0-.17.54c.012.202.082.396.203.558ZM45.97 8.501a2.66 2.66 0 0 0-.54-.912 2.628 2.628 0 0 0-.888-.626 4.284 4.284 0 0 0-1.208-.32v-.051a4.19 4.19 0 0 0 1.386-.752c.366-.3.667-.671.887-1.09.208-.402.315-.849.313-1.301a2.34 2.34 0 0 0-.254-1.107 2.356 2.356 0 0 0-.743-.828 3.45 3.45 0 0 0-1.192-.515 6.843 6.843 0 0 0-1.596-.17 7.704 7.704 0 0 0-1.056.077c-.362.05-.72.123-1.073.22a4.99 4.99 0 0 0-.98.38l.236 1.335c.248-.102.487-.19.719-.262a6.782 6.782 0 0 1 1.293-.279c.196-.022.393-.034.59-.034.358-.006.715.028 1.065.101.254.051.495.152.71.296.175.123.313.293.397.49.09.223.133.461.127.701a1.96 1.96 0 0 1-.228.947 2.19 2.19 0 0 1-.642.726c-.3.214-.634.374-.989.473a4.469 4.469 0 0 1-1.267.17h-.321l-.203 1.317h.54c.5-.006.998.036 1.488.127a3.08 3.08 0 0 1 1.039.389c.262.16.475.387.617.659.14.292.21.613.202.937.01.329-.054.655-.186.955a1.628 1.628 0 0 1-.566.66c-.292.19-.62.322-.962.388-.454.09-.916.133-1.378.127a7.3 7.3 0 0 1-.498-.017 7.871 7.871 0 0 1-1.081-.144 18.48 18.48 0 0 1-.651-.144l-.22 1.437c.248.045.487.087.718.126.232.04.46.074.684.102.226.028.445.047.66.059.214.012.422.017.625.017a8.32 8.32 0 0 0 1.605-.144c.45-.084.885-.232 1.293-.44a3.32 3.32 0 0 0 .946-.717 2.86 2.86 0 0 0 .574-.972c.134-.394.2-.808.195-1.225a3.468 3.468 0 0 0-.187-1.166Z"/></svg>