<svg xmlns="http://www.w3.org/2000/svg" viewBox="0 0 122 14"><path fill="#fff" d="M0 12.997v-12h3.937v12H0Zm9.294-10.09 2.264 10.09H7.25l-2.704-12h2.417a2.276 2.276 0 0 1 1.513.55c.42.346.71.826.819 1.36Zm2.855 10.09v-12h3.938v12h-3.938Zm6.912-7.436a2.382 2.382 0 0 1-2.4-2.4 2.301 2.301 0 0 1 .321-1.2 2.41 2.41 0 0 1 3.278-.862c.356.21.653.506.862.862.215.363.326.778.321 1.2a2.35 2.35 0 0 1-.321 1.208 2.4 2.4 0 0 1-.862.87 2.302 2.302 0 0 1-1.2.322Zm2.99 7.436v-12h3.938v12h-3.937Zm8.923-5.442c.01.011.095.15.253.414s.364.602.617 1.014a313.388 313.388 0 0 1 1.597 2.62c.247.41.529.876.845 1.394H29.96c-.27-.44-.516-.837-.736-1.192-.22-.355-.453-.738-.7-1.15-.248-.41-.493-.81-.736-1.199-.242-.389-.45-.73-.625-1.022-.175-.293-.296-.49-.363-.592a1.747 1.747 0 0 1-.287-.845c.016-.29.11-.57.27-.811.067-.113.191-.313.371-.6a182.106 182.106 0 0 0 1.37-2.23l.7-1.159.736-1.2h4.326l-3.346 5.46a1.08 1.08 0 0 0-.17.54c.012.202.082.396.203.558Z"/><path fill="#9FDAF5" d="M46.287 7.428a3.232 3.232 0 0 0-.853-.623 6.686 6.686 0 0 0-1.032-.418c-.364-.114-.74-.21-1.126-.29a24.454 24.454 0 0 1-.828-.205 3.802 3.802 0 0 1-.682-.248 2.257 2.257 0 0 1-.52-.341 1.224 1.224 0 0 1-.333-.478 1.837 1.837 0 0 1-.11-.674 2.047 2.047 0 0 1 .11-.7c.07-.199.187-.377.341-.52.16-.147.341-.268.537-.36.225-.101.464-.17.709-.204.29-.041.584-.061.878-.06a7.815 7.815 0 0 1 1.604.171c.257.056.51.127.76.214.232.08.458.18.673.298l.24-1.502a4.24 4.24 0 0 0-.76-.307c-.267-.08-.538-.148-.81-.205a8.085 8.085 0 0 0-.837-.128 8.794 8.794 0 0 0-.87-.043 7.242 7.242 0 0 0-1.791.205c-.5.12-.971.335-1.39.632a2.854 2.854 0 0 0-.905 1.075 3.478 3.478 0 0 0-.315 1.536c-.01.41.056.818.196 1.203.122.323.311.617.554.863.24.24.517.442.82.597.32.165.653.302.997.41.359.114.726.21 1.1.29.308.068.592.14.854.214.243.067.48.155.708.264a2.2 2.2 0 0 1 .537.359c.152.143.272.317.35.512.09.233.134.483.128.734.005.266-.036.531-.12.785-.074.219-.19.421-.34.597a1.65 1.65 0 0 1-.547.41 2.764 2.764 0 0 1-.742.221 5.92 5.92 0 0 1-.947.069 7.43 7.43 0 0 1-.921-.06c-.319-.04-.637-.094-.955-.162a9.723 9.723 0 0 1-.93-.248 17.792 17.792 0 0 1-.862-.299l.222 1.69c.29.109.587.203.887.282.273.071.549.128.828.17.267.04.534.071.802.094.267.023.537.034.81.034a8.38 8.38 0 0 0 1.817-.187 4.346 4.346 0 0 0 1.484-.615c.422-.28.763-.665.99-1.118.249-.536.369-1.124.35-1.715.009-.44-.058-.88-.197-1.298a2.515 2.515 0 0 0-.563-.92ZM56.498 12.02a.776.776 0 0 1-.665-.274 1.468 1.468 0 0 1-.188-.904l.034-3.517a4.109 4.109 0 0 0-.136-1.092 2.68 2.68 0 0 0-.41-.87 2.307 2.307 0 0 0-.708-.632 3.623 3.623 0 0 0-1.032-.393 6.068 6.068 0 0 0-1.348-.136c-.359 0-.718.023-1.075.068-.336.043-.67.108-.998.197a8.315 8.315 0 0 0-.895.298l-.205 1.451a10.023 10.023 0 0 1 1.553-.427 6.26 6.26 0 0 1 .708-.094c.233-.017.463-.025.69-.025.349-.008.696.033 1.033.12.246.06.472.184.657.358.164.169.282.377.34.606.074.281.108.571.103.862l-.002.427-1.994.134a5.3 5.3 0 0 0-1.979.444 2.837 2.837 0 0 0-1.169.948c-.252.37-.386.807-.384 1.254-.003.42.1.834.299 1.203.209.38.523.691.904.896.466.243.986.36 1.51.342.491.011.98-.07 1.442-.24a3.317 3.317 0 0 0 1.075-.682c.118-.113.23-.232.335-.357.033.176.096.346.185.503.152.26.386.465.665.58.31.124.64.185.973.18.102 0 .202-.004.298-.01.095-.005.19-.02.282-.042.09-.023.173-.043.247-.06.067-.015.133-.035.197-.06l.187-1.144a1.505 1.505 0 0 1-.29.07c-.079.01-.159.015-.239.016m-2.84-.768a3.272 3.272 0 0 1-.598.375 2.697 2.697 0 0 1-.665.223 3.789 3.789 0 0 1-.725.067 1.925 1.925 0 0 1-.81-.153 1.114 1.114 0 0 1-.504-.435 1.278 1.278 0 0 1-.17-.675 1.294 1.294 0 0 1 .221-.802c.186-.217.438-.367.717-.427a5.202 5.202 0 0 1 1.331-.136h1.494l-.008 1.694a2.273 2.273 0 0 1-.284.269M54.74.14h-1.842l-1.45 3.055h1.33L54.742.14ZM70.436 4.56a2.969 2.969 0 0 0-1.518-.358 3.995 3.995 0 0 0-1.348.23 4.75 4.75 0 0 0-1.228.657 6.113 6.113 0 0 0-.606.513 2.139 2.139 0 0 0-.879-1.025c-.47-.254-1-.377-1.535-.358-.456 0-.91.078-1.34.23a4.845 4.845 0 0 0-1.595.934V4.219l-1.74.256v8.62h1.74V6.602c.205-.134.42-.254.64-.36.27-.128.554-.228.845-.3.268-.065.543-.1.819-.101.253-.008.506.035.742.128.195.082.368.211.503.375.148.19.25.412.299.649.066.305.098.617.094.93v5.172h1.74v-5.53a6.913 6.913 0 0 0-.066-.977 6.35 6.35 0 0 1 .612-.355c.266-.134.546-.237.836-.307.273-.067.554-.102.836-.103.25-.006.5.038.734.128.198.082.374.21.511.376.149.19.251.412.299.649.066.305.098.617.094.93v5.189h1.74V7.547a4.958 4.958 0 0 0-.307-1.894 2.199 2.199 0 0 0-.922-1.093ZM74.242 13.095h1.74V4.219l-1.74.256v8.62ZM75.734.643a1.104 1.104 0 0 0-.588-.162 1.148 1.148 0 0 0-.598.162 1.25 1.25 0 0 0-.434.427 1.105 1.105 0 0 0-.163.589 1.175 1.175 0 0 0 1.195 1.177c.206.003.409-.05.588-.153.175-.102.32-.25.418-.427a1.2 1.2 0 0 0 .154-.597c.002-.207-.051-.41-.154-.59a1.207 1.207 0 0 0-.418-.426ZM86.235 4.33a3.35 3.35 0 0 0-.905.393c-.29.181-.56.396-.802.64-.04.04-.079.085-.119.127V4.22l-1.74.256v8.62h1.74V6.646a4.43 4.43 0 0 1 .93-.498 5.92 5.92 0 0 1 .537-.18 3.66 3.66 0 0 1 1.195-.127l.204-1.605a3.246 3.246 0 0 0-1.04.094ZM96.028 12.02a.776.776 0 0 1-.665-.274 1.469 1.469 0 0 1-.188-.904l.034-3.517a4.109 4.109 0 0 0-.136-1.092 2.68 2.68 0 0 0-.41-.87 2.307 2.307 0 0 0-.708-.632 3.623 3.623 0 0 0-1.032-.393 6.068 6.068 0 0 0-1.348-.136c-.36 0-.718.023-1.075.068-.337.043-.67.108-.998.197a8.307 8.307 0 0 0-.896.298l-.204 1.451a10.023 10.023 0 0 1 1.552-.427 6.26 6.26 0 0 1 .708-.094c.233-.017.464-.025.691-.025.348-.008.695.033 1.032.12.246.06.472.184.657.358.165.169.282.377.341.606.073.281.108.571.103.862l-.002.427-1.994.134a5.3 5.3 0 0 0-1.98.444 2.837 2.837 0 0 0-1.168.948c-.252.37-.386.807-.384 1.254-.003.42.1.834.299 1.203.208.38.522.691.904.896.465.243.986.36 1.51.342.491.011.98-.07 1.441-.24a3.32 3.32 0 0 0 1.075-.682c.118-.113.23-.232.336-.357.033.176.096.346.185.503.152.26.386.465.665.58.309.124.64.185.973.18.102 0 .201-.004.298-.01.095-.005.19-.02.282-.042.09-.023.173-.043.247-.06.067-.015.132-.035.196-.06l.188-1.144a1.505 1.505 0 0 1-.29.07c-.08.01-.16.015-.239.016m-2.84-.768a3.272 3.272 0 0 1-.598.375 2.697 2.697 0 0 1-.665.223 3.79 3.79 0 0 1-.725.067 1.925 1.925 0 0 1-.81-.153 1.114 1.114 0 0 1-.504-.435 1.278 1.278 0 0 1-.17-.675 1.293 1.293 0 0 1 .221-.802c.186-.217.438-.367.717-.427a5.202 5.202 0 0 1 1.33-.136h1.495l-.008 1.694a2.273 2.273 0 0 1-.285.269M104.099 4.616c-.018-.006-.034-.015-.051-.021a5.903 5.903 0 0 0-2.167-.393 4.167 4.167 0 0 0-3.702 2.194 5.252 5.252 0 0 0-.597 2.602c-.02.781.135 1.557.452 2.27.277.61.728 1.124 1.296 1.477.612.36 1.313.54 2.022.52a4.74 4.74 0 0 0 1.288-.17 4.67 4.67 0 0 0 1.186-.53c.128-.079.256-.167.383-.26l.214.79h1.416V.225l-1.74.239v4.152Zm-.913 7.02a3.577 3.577 0 0 1-1.22.247c-.487.014-.97-.1-1.399-.333a2.134 2.134 0 0 1-.887-1.024 4.277 4.277 0 0 1-.307-1.733c-.02-.607.096-1.21.341-1.767.208-.45.551-.826.981-1.075a3.021 3.021 0 0 1 1.527-.367 5.157 5.157 0 0 1 1.612.248c.084.026.175.062.265.094v5.26c-.29.178-.596.328-.913.45ZM109.992.643a1.104 1.104 0 0 0-.588-.162 1.147 1.147 0 0 0-.597.162c-.178.104-.328.25-.435.427a1.102 1.102 0 0 0-.162.589 1.166 1.166 0 0 0 .597 1.024c.182.102.388.155.597.153.206.003.409-.05.588-.153.176-.102.32-.25.418-.427.103-.182.156-.388.154-.597a1.158 1.158 0 0 0-.154-.59 1.202 1.202 0 0 0-.418-.426ZM108.499 13.095h1.741V4.219l-1.741.256v8.62ZM120.613 6.293a3.733 3.733 0 0 0-1.51-1.545 5.133 5.133 0 0 0-4.641.017 3.94 3.94 0 0 0-1.553 1.588 5.025 5.025 0 0 0-.554 2.423 5.24 5.24 0 0 0 .52 2.415 3.56 3.56 0 0 0 1.493 1.545 4.636 4.636 0 0 0 2.252.53 4.806 4.806 0 0 0 2.355-.564 3.972 3.972 0 0 0 1.595-1.604 5.026 5.026 0 0 0 .571-2.458 4.95 4.95 0 0 0-.528-2.347ZM119 10.466a2.32 2.32 0 0 1-.929 1.067 2.65 2.65 0 0 1-1.365.35 2.427 2.427 0 0 1-1.331-.359 2.406 2.406 0 0 1-.887-1.075 4.301 4.301 0 0 1-.323-1.775c-.02-.592.09-1.18.324-1.724.191-.427.51-.785.913-1.024.43-.237.916-.355 1.408-.342.383-.009.764.064 1.117.214.309.14.579.353.785.623.22.293.379.626.469.981.106.416.158.843.154 1.272a4.27 4.27 0 0 1-.333 1.792"/></svg>