<svg xmlns="http://www.w3.org/2000/svg" viewBox="0 0 35 31"><path fill="#fff" d="M0 12.997v-12h3.937v12H0Zm9.294-10.09 2.264 10.09H7.25l-2.704-12h2.417a2.276 2.276 0 0 1 1.513.55c.42.346.71.826.819 1.36Zm2.855 10.09v-12h3.938v12h-3.938Zm6.912-7.436a2.382 2.382 0 0 1-2.4-2.4 2.301 2.301 0 0 1 .321-1.2A2.41 2.41 0 0 1 20.26 1.1c.356.21.653.506.862.862.215.363.326.778.321 1.2a2.35 2.35 0 0 1-.321 1.208 2.4 2.4 0 0 1-.862.87 2.302 2.302 0 0 1-1.2.322Zm2.99 7.436v-12h3.938v12h-3.937Zm8.923-5.442c.01.012.095.15.253.414s.364.602.617 1.014a316.545 316.545 0 0 1 1.597 2.62c.247.41.529.876.845 1.394H29.96c-.27-.44-.516-.837-.736-1.192-.22-.355-.453-.738-.7-1.149a99.5 99.5 0 0 0-.736-1.2c-.242-.389-.45-.73-.625-1.022-.175-.293-.296-.49-.363-.592a1.747 1.747 0 0 1-.287-.845c.016-.29.11-.57.27-.811.067-.113.191-.313.371-.6s.392-.628.634-1.023c.242-.394.488-.797.736-1.208l.7-1.158.736-1.2h4.326l-3.346 5.46a1.08 1.08 0 0 0-.17.54c.012.202.082.396.203.558ZM8.135 19.695a3.015 3.015 0 0 0-.785-.82 3.764 3.764 0 0 0-1.14-.54 5.389 5.389 0 0 0-1.518-.195H0v12h1.772v-4.31h3.055c.69.01 1.37-.159 1.974-.49a3.652 3.652 0 0 0 1.393-1.37 4.04 4.04 0 0 0 .515-2.078 4.944 4.944 0 0 0-.135-1.166 3.372 3.372 0 0 0-.44-1.031Zm-1.57 3.642c-.227.356-.56.631-.953.786-.477.18-.985.266-1.494.253H1.772V19.61h2.582c.494-.018.984.077 1.435.28.358.173.651.457.835.81.195.397.29.835.279 1.277.019.476-.098.948-.338 1.36ZM12.312 18.537c-.242.13-.479.25-.71.363-.23.113-.463.226-.7.338a8.113 8.113 0 0 1-.725.305c-.248.09-.512.18-.794.27l.372 1.437c.337-.102.644-.203.92-.305.27-.099.534-.211.793-.338.253-.123.506-.258.76-.405l.008-.005v9.943h1.755v-12h-.912c-.27.135-.526.268-.768.397ZM20.86 23.48v-3.413h-1.485v3.413h-3.427v1.335h3.427v3.397h1.485v-3.397h3.426V23.48H20.86Z"/></svg>