<svg xmlns="http://www.w3.org/2000/svg" viewBox="0 0 68 24" fill="currentColor"><path d="M0 17.995V5.996h3.937v11.999H0Zm9.294-10.09 2.264 10.09H7.25L4.546 5.996h2.416a2.276 2.276 0 0 1 1.513.55c.42.345.71.826.819 1.36Zm2.856 10.09V5.996h3.937v11.999H12.15Zm6.91-7.436a2.382 2.382 0 0 1-2.4-2.4 2.303 2.303 0 0 1 .322-1.2 2.412 2.412 0 0 1 3.278-.862c.356.21.653.506.862.862.215.363.326.778.321 1.2a2.4 2.4 0 0 1-1.183 2.079 2.303 2.303 0 0 1-1.2.321Zm2.992 7.436V5.996h3.937v11.999h-3.937Zm8.922-5.442c.01.012.095.15.253.414.158.265.364.603.617 1.014a327.152 327.152 0 0 1 1.597 2.62c.247.411.529.876.845 1.394H29.96c-.27-.44-.516-.837-.736-1.192-.22-.354-.453-.738-.7-1.149-.248-.41-.493-.81-.736-1.2-.242-.389-.45-.73-.625-1.022-.175-.293-.296-.49-.363-.591a1.75 1.75 0 0 1-.287-.845c.016-.29.11-.57.27-.812.067-.113.191-.313.372-.6a182.106 182.106 0 0 0 1.37-2.23c.247-.412.48-.798.7-1.158l.735-1.2h4.326l-3.346 5.458a1.079 1.079 0 0 0-.17.541c.012.202.082.396.203.558ZM55.426 6h-3.71s2.107 3.453 2.13 3.498a.582.582 0 0 1 .015.707l-2.144 3.509h3.708s1.787-2.92 2.032-3.326a.886.886 0 0 0-.01-1.074c-.261-.447-.263-.447-2.021-3.314ZM67.037 7.988C66.913 7.776 65.81 6 65.81 6h-7.934l1.733 2.904h4.18l-1.725 2.824 1.923 3.227L62.132 18h3.387c.545-.89 1.36-2.267 1.53-2.548a.889.889 0 0 0-.01-1.077c-.17-.289-1.076-1.726-1.618-2.61l1.629-2.697a.888.888 0 0 0-.013-1.08Z"/><path fill="#fff" d="M59.404 12.123c-.523.852-1.396 2.28-1.559 2.558a.855.855 0 0 0-.01 1.037c.164.272 1.045 1.71 1.57 2.568.524-.857 1.404-2.296 1.568-2.568a.855.855 0 0 0-.01-1.037 435.808 435.808 0 0 0-1.56-2.558ZM48.859 6a1.988 1.988 0 0 0-1.083.33c-.273.168-2.497 2.053-2.666 2.196-.17-.143-2.393-2.028-2.666-2.196A1.988 1.988 0 0 0 41.361 6H39v10.572l3.282-2.462V9.865l2.828 2.126 2.828-2.126v8.133h3.301V6h-2.38Z"/></svg>