<svg xmlns="http://www.w3.org/2000/svg" viewBox="0 0 68 14" fill="currentColor"><path d="M0 12.995V.996h3.937v11.999H0Zm9.294-10.09 2.264 10.09H7.25L4.546.996h2.416a2.276 2.276 0 0 1 1.513.55c.42.345.71.826.819 1.36Zm2.856 10.09V.996h3.937v11.999H12.15Zm6.91-7.436a2.383 2.383 0 0 1-2.4-2.4 2.303 2.303 0 0 1 .322-1.2 2.412 2.412 0 0 1 3.278-.862c.356.21.653.506.862.862.215.363.326.778.321 1.2a2.4 2.4 0 0 1-1.183 2.079 2.303 2.303 0 0 1-1.2.321Zm2.992 7.436V.996h3.937v11.999h-3.937Zm8.922-5.442a9.3 9.3 0 0 1 .253.414c.158.265.364.603.617 1.014a323.751 323.751 0 0 1 1.597 2.62c.247.411.529.876.845 1.394H29.96c-.27-.44-.516-.837-.736-1.192-.22-.355-.453-.738-.7-1.149-.248-.41-.493-.81-.736-1.2-.242-.389-.45-.73-.625-1.022-.175-.293-.296-.49-.363-.592a1.75 1.75 0 0 1-.287-.845c.016-.29.11-.57.27-.811.067-.113.191-.313.372-.6a182.106 182.106 0 0 0 1.37-2.23c.247-.412.48-.798.7-1.158l.735-1.2h4.326L30.94 6.454a1.078 1.078 0 0 0-.17.541c.012.202.082.396.203.558ZM55.277.995h-3.708s2.106 3.452 2.13 3.496a.582.582 0 0 1 .013.707L51.57 8.706h3.707s1.787-2.92 2.031-3.325a.885.885 0 0 0-.01-1.073c-.26-.447-.262-.447-2.02-3.313ZM66.885 2.982C66.76 2.77 65.657.995 65.657.995h-7.932l1.733 2.903h4.178L61.911 6.72l1.924 3.225-1.854 3.044h3.386c.545-.89 1.36-2.266 1.53-2.546a.888.888 0 0 0-.01-1.078c-.17-.288-1.076-1.725-1.618-2.61l1.628-2.695a.887.887 0 0 0-.012-1.08Z"/><path d="M59.254 7.115c-.523.852-1.396 2.279-1.558 2.557a.855.855 0 0 0-.01 1.037c.164.272 1.044 1.71 1.568 2.567.525-.857 1.405-2.295 1.568-2.567a.855.855 0 0 0-.009-1.037 438.075 438.075 0 0 0-1.56-2.557ZM48.713.995a1.987 1.987 0 0 0-1.083.33c-.273.167-2.496 2.051-2.665 2.195-.17-.144-2.392-2.028-2.665-2.196a1.987 1.987 0 0 0-1.083-.33h-2.36v10.57l3.28-2.462V4.858l2.828 2.125 2.827-2.125v8.13h3.3V.995h-2.38Z"/></svg>