<svg xmlns="http://www.w3.org/2000/svg" viewBox="0 0 83 24"><path fill="#481581" d="M0 0h83v24H0z"/><path fill="#fff" d="M6.004 18V6.001h3.937V18H6.004Zm9.294-10.09L17.562 18h-4.309L10.55 6.001h2.416a2.276 2.276 0 0 1 1.513.55c.42.345.71.826.82 1.36ZM18.154 18V6.001h3.937V18h-3.937Zm6.91-7.436a2.383 2.383 0 0 1-2.4-2.4 2.303 2.303 0 0 1 .323-1.2 2.411 2.411 0 0 1 3.278-.861c.355.209.652.506.861.861.215.363.326.778.322 1.2a2.4 2.4 0 0 1-1.183 2.079 2.302 2.302 0 0 1-1.2.321ZM28.057 18V6.001h3.937V18h-3.937Zm8.922-5.442c.011.012.096.15.253.414.158.265.364.603.617 1.014a315.936 315.936 0 0 1 1.597 2.62c.247.411.529.876.845 1.394h-4.326c-.27-.44-.516-.837-.735-1.191-.22-.355-.453-.738-.7-1.15-.249-.41-.494-.81-.737-1.2-.242-.389-.45-.73-.625-1.022-.175-.293-.296-.49-.363-.591a1.748 1.748 0 0 1-.287-.845c.017-.29.11-.57.27-.812.068-.113.192-.313.372-.6s.391-.628.633-1.022c.243-.395.488-.797.736-1.209l.7-1.157.736-1.2h4.326l-3.346 5.458a1.08 1.08 0 0 0-.17.542c.012.201.082.395.203.557h.001Z"/><path fill="#DBBFFA" d="M48.125 15.269c.003.196-.03.39-.1.574-.064.162-.161.31-.287.43-.13.122-.285.215-.454.27-.195.065-.4.096-.606.093-.134 0-.26-.005-.378-.017a7.607 7.607 0 0 1-.707-.101 9.058 9.058 0 0 1-.732-.169l.135 1.52c.157.045.308.087.454.126.146.04.292.073.438.101.15.029.302.049.454.06.157.01.33.016.521.017.39.006.777-.043 1.153-.144.306-.084.594-.224.85-.414a2.39 2.39 0 0 0 .58-.633c.153-.245.266-.513.336-.793.074-.296.111-.6.11-.904V6h-1.767v9.269ZM59.851 16.923a.765.765 0 0 1-.656-.27 1.458 1.458 0 0 1-.185-.895l.034-3.477a4.073 4.073 0 0 0-.135-1.08 2.659 2.659 0 0 0-.404-.862 2.285 2.285 0 0 0-.698-.625 3.565 3.565 0 0 0-1.018-.388 5.965 5.965 0 0 0-1.329-.135c-.354 0-.708.022-1.06.067-.332.042-.66.107-.984.195-.3.081-.594.18-.883.295l-.202 1.435a10.067 10.067 0 0 1 1.531-.422c.23-.044.464-.075.698-.092.23-.017.457-.026.681-.026.343-.007.686.032 1.018.118.243.061.466.183.648.355.162.167.278.373.336.6.072.278.106.564.101.852l-.002.423-1.966.134a5.216 5.216 0 0 0-1.951.439c-.462.202-.86.526-1.153.937-.249.365-.38.798-.378 1.24-.003.416.098.825.294 1.19.206.376.516.684.892.887.459.24.971.356 1.489.338.484.01.966-.07 1.421-.236a3.277 3.277 0 0 0 1.06-.676c.116-.112.227-.23.33-.353.033.174.095.343.183.497.15.258.38.46.656.574.305.123.63.183.96.177.1 0 .198-.003.294-.008a1.54 1.54 0 0 0 .277-.043l.244-.059c.066-.014.13-.034.194-.059l.185-1.13a1.494 1.494 0 0 1-.286.067c-.079.01-.157.016-.236.016Zm-2.801-.76a3.24 3.24 0 0 1-.589.372 2.653 2.653 0 0 1-.656.22 3.721 3.721 0 0 1-.715.067 1.89 1.89 0 0 1-.8-.152 1.098 1.098 0 0 1-.495-.43 1.264 1.264 0 0 1-.169-.667c-.016-.282.061-.56.22-.794.182-.214.43-.363.706-.422.43-.101.87-.147 1.312-.135h1.473l-.008 1.676a2.257 2.257 0 0 1-.279.265ZM68.33 10.575l-.202-1.199h-6.494l-.202 1.351h4.886l-5.037 6.111.202 1.148h6.864l.185-1.367H63.39l4.94-6.044ZM71.869 16.62l4.94-6.044-.202-1.2h-6.494l-.202 1.351h4.885L69.76 16.84l.202 1.148h6.864l.185-1.368h-5.142Z"/></svg>