<svg xmlns="http://www.w3.org/2000/svg" viewBox="0 0 75 40"><path fill="#0A2343" d="M0 15.003V1.005h4.593v13.998H0Zm10.843-11.77 2.641 11.77H8.457L5.303 1.005h2.82a2.655 2.655 0 0 1 1.764.64c.491.404.829.964.956 1.588Zm3.331 11.77V1.005h4.594v13.998h-4.594Zm8.063-8.675a2.737 2.737 0 0 1-1.409-.375 2.778 2.778 0 0 1-1.015-1.015 2.735 2.735 0 0 1-.375-1.41 2.685 2.685 0 0 1 .375-1.4 2.812 2.812 0 0 1 3.824-1.005c.415.244.761.59 1.005 1.005.251.424.38.908.375 1.4.005.496-.125.983-.375 1.41a2.8 2.8 0 0 1-1.005 1.015c-.424.251-.908.38-1.4.375Zm3.49 8.675V1.005h4.594v13.998h-4.594Zm10.409-6.348c.013.013.111.174.296.483.184.308.424.702.72 1.183a377.185 377.185 0 0 1 1.862 3.056c.289.48.617 1.022.986 1.626h-5.047l-.858-1.39c-.256-.414-.529-.86-.817-1.34-.29-.48-.576-.946-.858-1.4a71.06 71.06 0 0 1-.73-1.193 21.112 21.112 0 0 0-.424-.69 2.04 2.04 0 0 1-.334-.986c.019-.338.128-.665.315-.947.078-.131.223-.365.433-.7a216.7 216.7 0 0 0 1.598-2.603l.817-1.35.858-1.4H40l-3.904 6.369c-.12.189-.189.407-.197.63.013.236.095.463.236.652h.001Z"/><path fill="#1767CE" d="M10.028 31.665 1.605 21.003H0v14.014h1.863V24.35l8.443 10.667h1.605V21.003H10.03v10.662ZM21.761 25.05l-.015 7.391a9.513 9.513 0 0 1-.43.237c-.24.124-.489.233-.743.326-.24.09-.49.155-.743.197-.259.04-.52.06-.783.06a2.361 2.361 0 0 1-1.169-.258 1.577 1.577 0 0 1-.684-.799 3.506 3.506 0 0 1-.228-1.352v-6.099l-2.021.296v6.197a5.525 5.525 0 0 0 .376 2.192c.22.543.623.994 1.14 1.273a4.003 4.003 0 0 0 1.892.404 4.78 4.78 0 0 0 1.606-.266c.509-.181.99-.434 1.427-.75.12-.087.24-.179.358-.274l-.002.855c0 .987-.23 1.737-.693 2.25-.463.514-1.249.77-2.359.77-.304 0-.614-.013-.931-.04a7.528 7.528 0 0 1-.942-.138 10.532 10.532 0 0 1-1.893-.592l.219 1.757a9.746 9.746 0 0 0 2.675.641c.33.033.667.05 1.011.05a6.317 6.317 0 0 0 2.11-.326 4.467 4.467 0 0 0 1.556-.908c.421-.386.75-.862.962-1.391a4.752 4.752 0 0 0 .327-1.797l-.02-10.204-2.003.298ZM34.484 25.148a3.87 3.87 0 0 0-1.883-.414c-.581 0-1.16.09-1.714.266a6.644 6.644 0 0 0-2.031 1.056v-5.94l-2.022.295v14.606h2.022v-7.584a6.465 6.465 0 0 1 1.347-.558c.283-.083.571-.15.862-.197.272-.045.547-.068.823-.069.317-.007.632.043.931.148.252.09.478.244.655.444.182.218.31.475.376.75.085.349.125.707.12 1.066v6h2.02v-6.415a5.444 5.444 0 0 0-.377-2.19 2.591 2.591 0 0 0-1.129-1.264ZM46.673 26.224a3.598 3.598 0 0 0-1.457-1.115 5.112 5.112 0 0 0-2.011-.375 4.943 4.943 0 0 0-2.022.395 4.32 4.32 0 0 0-1.516 1.105 4.833 4.833 0 0 0-.952 1.707 7.107 7.107 0 0 0-.326 2.22 5.954 5.954 0 0 0 .584 2.754 3.866 3.866 0 0 0 1.734 1.718 6.183 6.183 0 0 0 2.815.582 9.77 9.77 0 0 0 1.397-.09 6.737 6.737 0 0 0 2.21-.72l.138-1.52c-.25.093-.505.185-.763.277a9.503 9.503 0 0 1-.803.247c-.28.073-.564.126-.852.157-.29.033-.58.05-.872.05a6.273 6.273 0 0 1-1.546-.168 2.543 2.543 0 0 1-1.1-.572c-.316-.3-.548-.678-.673-1.096a4.997 4.997 0 0 1-.217-1.302h7.163a7.533 7.533 0 0 0-.109-2.448 4.603 4.603 0 0 0-.822-1.806Zm-4.994.474a2.817 2.817 0 0 1 1.545-.405 2.43 2.43 0 0 1 1.526.444c.395.314.677.747.803 1.234.099.36.147.732.145 1.105h-5.213a4.88 4.88 0 0 1 .252-1.154c.17-.5.5-.931.942-1.224ZM55.304 33.428l-.337.06c-.108.019-.217.032-.327.04-.106.006-.205.009-.297.009a2.003 2.003 0 0 1-.882-.178 1.274 1.274 0 0 1-.565-.523 1.66 1.66 0 0 1-.198-.838V26.53h2.794l.218-1.579h-3.012v-3.119l-2.022.711v2.408H49.15l-.218 1.58h1.744v5.881c-.009.392.052.783.179 1.154.102.294.26.566.465.8.189.208.418.376.674.493.262.12.538.206.822.257.281.051.567.078.852.079.212 0 .42-.007.625-.02.205-.013.393-.032.565-.06.171-.026.334-.055.486-.088.151-.032.28-.062.386-.089l.119-1.638c-.077.03-.157.053-.238.07-.093.019-.195.039-.307.058ZM65.302 26.224a3.599 3.599 0 0 0-1.456-1.115 5.113 5.113 0 0 0-2.012-.375 4.947 4.947 0 0 0-2.021.395c-.581.253-1.099.63-1.517 1.105a4.832 4.832 0 0 0-.95 1.707 7.106 7.106 0 0 0-.327 2.22 5.958 5.958 0 0 0 .584 2.754 3.866 3.866 0 0 0 1.734 1.717 6.183 6.183 0 0 0 2.814.582c.468.004.934-.025 1.397-.088a6.74 6.74 0 0 0 2.21-.72l.14-1.52c-.252.091-.506.184-.764.276a9.545 9.545 0 0 1-.802.246c-.28.073-.565.126-.853.158-.29.033-.58.05-.872.05a6.28 6.28 0 0 1-1.546-.168 2.547 2.547 0 0 1-1.1-.572 2.498 2.498 0 0 1-.673-1.096 4.983 4.983 0 0 1-.216-1.303h7.162a7.525 7.525 0 0 0-.11-2.448 4.603 4.603 0 0 0-.822-1.805Zm-4.994.474a2.817 2.817 0 0 1 1.546-.405 2.43 2.43 0 0 1 1.526.444c.395.314.676.747.802 1.234.1.36.148.732.145 1.105h-5.212a4.89 4.89 0 0 1 .251-1.154c.17-.5.5-.931.942-1.224ZM72.853 24.882a3.9 3.9 0 0 0-1.05.454 5.17 5.17 0 0 0-.932.74c-.047.046-.092.098-.139.148v-1.471l-2.022.296v9.968h2.022V27.56a5.169 5.169 0 0 1 1.08-.576c.205-.08.413-.149.625-.207a4.229 4.229 0 0 1 1.387-.149l.238-1.855a3.785 3.785 0 0 0-1.21.109Z"/></svg>