<svg width="83" height="14" viewBox="0 0 83 14" fill="none" xmlns="http://www.w3.org/2000/svg">
<path d="M0 13V1.00109H3.93719V13H0ZM9.29381 2.91078L11.5581 13H7.24917L4.54549 1.00109H6.96218C7.51635 0.993898 8.05406 1.18925 8.4745 1.55039C8.89562 1.89638 9.18495 2.3767 9.29381 2.91078ZM12.1495 13V1.00109H16.0867V13H12.1495ZM19.0605 5.5641C18.6362 5.56824 18.2188 5.45723 17.8525 5.24296C17.4912 5.03412 17.1911 4.73396 16.9823 4.3726C16.7678 4.00633 16.6568 3.58876 16.661 3.16432C16.6561 2.74246 16.7672 2.32738 16.9823 1.96443C17.1933 1.60699 17.4931 1.31009 17.8525 1.10252C18.2189 0.888502 18.6362 0.777515 19.0605 0.781384C19.4822 0.776842 19.8971 0.887929 20.2602 1.10252C20.616 1.31191 20.9127 1.60856 21.122 1.96443C21.3368 2.32748 21.4479 2.74249 21.4433 3.16432C21.4473 3.58873 21.3363 4.00623 21.122 4.3726C20.9149 4.73238 20.6179 5.03228 20.2602 5.24296C19.8971 5.45798 19.4819 5.56909 19.0599 5.5641H19.0605ZM22.0516 13V1.00109H25.9892V13H22.0516ZM30.9737 7.55823C30.9848 7.56988 31.0693 7.70788 31.2272 7.97227C31.3851 8.23666 31.5906 8.57468 31.8439 8.98629C32.0974 9.39771 32.3649 9.83426 32.6463 10.296C32.9278 10.7577 33.1926 11.1944 33.4408 11.6058C33.6881 12.0172 33.9697 12.4819 34.2857 13H29.9598C29.6893 12.5606 29.4441 12.1635 29.2245 11.8086C29.0048 11.4537 28.7713 11.0706 28.5238 10.6594C28.2758 10.2485 28.0306 9.84854 27.7882 9.45947C27.5458 9.07039 27.3375 8.72961 27.1633 8.43706C26.9883 8.14432 26.8671 7.94712 26.7997 7.84554C26.6325 7.59344 26.5336 7.30229 26.5127 7.00054C26.5294 6.71094 26.6226 6.43098 26.7828 6.18911C26.8504 6.07645 26.9743 5.87643 27.1545 5.58913C27.3348 5.30183 27.546 4.96105 27.7882 4.56672C28.0304 4.17239 28.2756 3.7696 28.5238 3.35837C28.772 2.94715 29.0056 2.56124 29.2245 2.20071C29.4445 1.84055 29.6897 1.44059 29.9598 1.00081H34.2857L30.9396 6.4595C30.8361 6.62157 30.7777 6.80835 30.7706 7.00054C30.7818 7.20232 30.8522 7.39632 30.9731 7.55823H30.9737Z" fill="white"/>
<path d="M44.7404 8.0412C44.9652 8.0068 45.187 7.95501 45.4038 7.88632C45.8431 7.74964 46.2489 7.52234 46.5949 7.21902C46.9395 6.91128 47.2107 6.53029 47.3889 6.10399C47.5891 5.6137 47.6868 5.08763 47.6761 4.55814C47.6836 3.9405 47.5538 3.32887 47.296 2.76757C47.0296 2.21309 46.591 1.75968 46.0457 1.47491C45.3182 1.12154 44.5138 0.955953 43.7059 0.993354H38.8572V12.9885H40.6142V8.39317H43.1988L46.1893 12.9885H48.2502L45.4457 8.83272L44.7404 8.0412ZM44.7703 2.69126C45.1202 2.82464 45.4127 3.07561 45.5978 3.40111C45.7913 3.77941 45.8844 4.20111 45.8681 4.62572C45.8892 5.0957 45.7749 5.56186 45.539 5.96884C45.3155 6.31541 44.9824 6.57709 44.5928 6.71217C44.123 6.87374 43.6282 6.95097 43.1315 6.94026H40.6142V2.46317H43.3339C43.8229 2.4469 44.3104 2.52433 44.7703 2.69126Z" fill="#8BB5EB"/>
<path d="M57.3564 11.9244C57.2329 11.9357 57.1084 11.9171 56.9937 11.87C56.879 11.8228 56.7774 11.7487 56.6975 11.6538C56.5408 11.3831 56.4756 11.0691 56.5117 10.7584L56.5454 7.27841C56.5492 6.91346 56.5037 6.54966 56.4103 6.19686C56.3281 5.88758 56.1908 5.59574 56.0048 5.33529C55.8168 5.08074 55.5781 4.86791 55.3037 4.7102C54.9849 4.52919 54.6401 4.39818 54.2816 4.32186C53.8431 4.22713 53.3954 4.1818 52.9469 4.18671C52.591 4.18647 52.2355 4.20895 51.8825 4.25401C51.549 4.29596 51.2188 4.36086 50.8942 4.44828C50.5932 4.53006 50.2971 4.62887 50.0073 4.74423L49.8045 6.18029C50.0861 6.07892 50.3537 5.99441 50.6073 5.92683C50.8609 5.85925 51.1058 5.80298 51.3419 5.75793C51.5737 5.71359 51.8077 5.68263 52.043 5.66526C52.2737 5.64799 52.5018 5.63943 52.7273 5.63962C53.0717 5.63235 53.4157 5.67219 53.7494 5.75793C53.9929 5.81888 54.2168 5.941 54.3999 6.11271C54.5628 6.27979 54.6793 6.4865 54.7377 6.71244C54.8098 6.99106 54.8439 7.27814 54.8391 7.56589L54.8371 7.9897L52.8624 8.12341C52.187 8.14229 51.5216 8.29137 50.9026 8.56241C50.4395 8.7651 50.0397 9.08906 49.7454 9.50007C49.4957 9.86586 49.3631 10.2989 49.3653 10.7418C49.3621 11.1574 49.4638 11.567 49.6609 11.9329C49.8675 12.3087 50.1785 12.6168 50.5563 12.8198C51.0172 13.0595 51.5323 13.176 52.0515 13.1577C52.538 13.1689 53.0222 13.0887 53.4791 12.9212C53.8742 12.7667 54.2356 12.5372 54.5435 12.2454C54.6603 12.1333 54.7712 12.0151 54.8757 11.8915C54.9086 12.0663 54.9704 12.2345 55.0587 12.389C55.2092 12.6478 55.4408 12.8496 55.7176 12.9634C56.0235 13.0863 56.351 13.1466 56.6806 13.1408C56.7819 13.1408 56.8805 13.138 56.9762 13.1324C57.0703 13.127 57.1636 13.1129 57.255 13.0902C57.3451 13.0676 57.4265 13.0479 57.5 13.031C57.5662 13.0162 57.6311 12.9965 57.6943 12.9719L57.8801 11.8399C57.7869 11.872 57.6906 11.8946 57.5929 11.9075C57.5145 11.9181 57.4355 11.9237 57.3564 11.9244ZM54.5435 11.1642C54.3603 11.309 54.162 11.4336 53.9521 11.5359C53.7432 11.6376 53.5217 11.7115 53.2935 11.7555C53.0568 11.8012 52.8163 11.8239 52.5753 11.8231C52.2999 11.8309 52.0261 11.779 51.7727 11.671C51.5666 11.5816 51.3927 11.4313 51.2743 11.2402C51.1573 11.0377 51.0988 10.8066 51.1054 10.5728C51.0891 10.2912 51.1663 10.0121 51.325 9.77883C51.509 9.5643 51.7583 9.41595 52.0346 9.35647C52.4663 9.25486 52.9093 9.20944 53.3527 9.22132H54.8318L54.8241 10.8983C54.7383 10.9947 54.6444 11.0838 54.5435 11.1642Z" fill="#8BB5EB"/>
<path d="M65.3483 4.59668C65.3311 4.58993 65.3151 4.58172 65.2976 4.57496C64.9818 4.45604 64.657 4.36282 64.3262 4.2962C63.9395 4.22005 63.5461 4.18337 63.152 4.1867C62.4139 4.18217 61.6879 4.37462 61.049 4.74421C60.3893 5.12775 59.8485 5.6861 59.4862 6.35763C59.0703 7.15102 58.8666 8.03849 58.8949 8.93381C58.8755 9.70675 59.0285 10.4743 59.3426 11.1808C59.6167 11.7842 60.0637 12.2927 60.6269 12.6421C61.2324 12.9986 61.9262 13.1772 62.6286 13.1574C63.0595 13.16 63.4887 13.1032 63.9041 12.9885C64.3181 12.8697 64.7133 12.6934 65.0783 12.4647C65.2047 12.3867 65.3317 12.2992 65.4579 12.2077L65.6699 12.9885H67.0718V0.25L65.3486 0.486548L65.3483 4.59668ZM64.4444 11.544C64.0592 11.6958 63.6504 11.7788 63.2365 11.7892C62.7537 11.8033 62.2758 11.6896 61.8511 11.4595C61.456 11.2259 61.1477 10.8701 60.9727 10.4458C60.7535 9.90142 60.6499 9.31734 60.6685 8.73074C60.6488 8.12993 60.7642 7.53237 61.0064 6.98217C61.2128 6.53573 61.552 6.16397 61.9778 5.91781C62.4411 5.66563 62.9629 5.54031 63.4902 5.55456C63.7615 5.55394 64.0325 5.57377 64.3008 5.61375C64.5672 5.65497 64.8299 5.71718 65.0864 5.79984C65.1689 5.82603 65.2599 5.86096 65.3483 5.89306V11.0999C65.0609 11.2752 64.7581 11.4238 64.4436 11.544H64.4444Z" fill="#8BB5EB"/>
<path d="M69.7063 12.9885H71.4295V4.20333L69.7063 4.45672V12.9885Z" fill="#8BB5EB"/>
<path d="M71.1845 0.663908C71.0092 0.556732 70.8072 0.50109 70.6017 0.50339C70.3936 0.50176 70.1891 0.557295 70.0104 0.663908C69.8342 0.767092 69.6862 0.912171 69.5796 1.08627C69.4724 1.26165 69.4168 1.46365 69.4191 1.66915C69.4174 1.87723 69.4729 2.08174 69.5796 2.26042C69.6828 2.43724 69.8316 2.58311 70.0104 2.68278C70.1908 2.78426 70.3947 2.8367 70.6017 2.83484C70.8061 2.83734 71.0074 2.78482 71.1845 2.68278C71.3584 2.58234 71.5015 2.43629 71.5984 2.26042C71.7 2.08002 71.7525 1.87617 71.7505 1.66915C71.753 1.46475 71.7004 1.26343 71.5984 1.08627C71.4981 0.912992 71.3558 0.767746 71.1845 0.663908Z" fill="#8BB5EB"/>
<path d="M81.7011 6.25606C81.3645 5.61015 80.8444 5.07815 80.2062 4.72705C79.5022 4.35321 78.7138 4.16713 77.917 4.18672C77.1128 4.16828 76.3176 4.36047 75.6106 4.74424C74.958 5.10944 74.4243 5.65482 74.0732 6.31517C73.6919 7.05616 73.5031 7.88114 73.5241 8.7142C73.5026 9.54077 73.6793 10.3605 74.0394 11.1048C74.363 11.7545 74.8793 12.2886 75.5177 12.634C76.205 12.9939 76.9721 13.174 77.7478 13.1575C78.5598 13.1736 79.3624 12.9816 80.0792 12.5999C80.7487 12.2349 81.2975 11.6831 81.6591 11.0118C82.0514 10.2622 82.2462 9.42491 82.2251 8.57905C82.2442 7.7734 82.0643 6.97547 81.7011 6.25606ZM80.1045 10.3867C79.9148 10.8258 79.5932 11.1949 79.1841 11.4427C78.7731 11.678 78.3061 11.7977 77.8325 11.7893C77.3682 11.8008 76.9104 11.6774 76.5147 11.4342C76.1232 11.174 75.8176 10.8038 75.6362 10.3701C75.4064 9.81358 75.2971 9.21466 75.3155 8.61281C75.2955 8.02735 75.405 7.44468 75.6362 6.90644C75.8258 6.48345 76.1415 6.12944 76.5401 5.89281C76.9664 5.65822 77.4475 5.54159 77.9339 5.55493C78.3136 5.54545 78.691 5.61747 79.0405 5.76612C79.3466 5.90425 79.6137 6.1161 79.8179 6.38275C80.0356 6.67267 80.1934 7.00296 80.2822 7.35445C80.3879 7.76541 80.439 8.1885 80.4343 8.61281C80.454 9.22101 80.3415 9.82626 80.1045 10.3867Z" fill="#8BB5EB"/>
</svg>
