<svg width="87" height="21" viewBox="0 0 87 21" fill="none" xmlns="http://www.w3.org/2000/svg">
<path d="M0 16.9993V5.00036H3.93719V16.9993H0ZM9.29381 6.91005L11.5581 16.9993H7.24917L4.54549 5.00036H6.96218C7.51635 4.99317 8.05406 5.18852 8.4745 5.54966C8.89562 5.89565 9.18495 6.37597 9.29381 6.91005ZM12.1495 16.9993V5.00036H16.0867V16.9993H12.1495ZM19.0605 9.56337C18.6362 9.5675 18.2188 9.4565 17.8525 9.24223C17.4912 9.03339 17.1911 8.73323 16.9823 8.37187C16.7678 8.0056 16.6568 7.58803 16.661 7.16359C16.6561 6.74173 16.7672 6.32665 16.9823 5.96369C17.1933 5.60626 17.4931 5.30936 17.8525 5.10179C18.2189 4.88777 18.6362 4.77678 19.0605 4.78065C19.4822 4.77611 19.8971 4.8872 20.2602 5.10179C20.616 5.31118 20.9127 5.60783 21.122 5.96369C21.3368 6.32675 21.4479 6.74176 21.4433 7.16359C21.4473 7.588 21.3363 8.00549 21.122 8.37187C20.9149 8.73164 20.6179 9.03155 20.2602 9.24223C19.8971 9.45724 19.4819 9.56836 19.0599 9.56337H19.0605ZM22.0516 16.9993V5.00036H25.9892V16.9993H22.0516ZM30.9737 11.5575C30.9848 11.5691 31.0693 11.7072 31.2272 11.9715C31.3851 12.2359 31.5906 12.574 31.8439 12.9856C32.0974 13.397 32.3649 13.8335 32.6463 14.2953C32.9278 14.757 33.1926 15.1936 33.4408 15.605C33.6881 16.0165 33.9697 16.4812 34.2857 16.9993H29.9598C29.6893 16.5599 29.4441 16.1627 29.2245 15.8078C29.0048 15.4529 28.7713 15.0699 28.5238 14.6586C28.2758 14.2478 28.0306 13.8478 27.7882 13.4587C27.5458 13.0697 27.3375 12.7289 27.1633 12.4363C26.9883 12.1436 26.8671 11.9464 26.7997 11.8448C26.6325 11.5927 26.5336 11.3016 26.5127 10.9998C26.5294 10.7102 26.6226 10.4302 26.7828 10.1884C26.8504 10.0757 26.9743 9.8757 27.1545 9.5884C27.3348 9.3011 27.546 8.96032 27.7882 8.56599C28.0304 8.17166 28.2756 7.76887 28.5238 7.35764C28.772 6.94641 29.0056 6.5605 29.2245 6.19997C29.4445 5.83982 29.6897 5.43985 29.9598 5.00008H34.2857L30.9396 10.4588C30.8361 10.6208 30.7777 10.8076 30.7706 10.9998C30.7818 11.2016 30.8522 11.3956 30.9731 11.5575H30.9737Z" fill="#0A2343"/>
<path d="M46.1478 11.3737C45.9041 11.1221 45.6213 10.9127 45.3107 10.7539C44.9851 10.5868 44.6462 10.4476 44.2977 10.3379C43.9402 10.2248 43.5718 10.1284 43.1927 10.049C42.9021 9.9813 42.6315 9.91348 42.3807 9.84557C42.1502 9.78525 41.9259 9.70272 41.7109 9.5991C41.5262 9.51039 41.3544 9.39613 41.2006 9.25954C41.0557 9.13002 40.9436 8.96705 40.8738 8.7844C40.7965 8.56961 40.7596 8.34205 40.765 8.11347C40.7612 7.87679 40.798 7.64125 40.8738 7.41736C40.9425 7.21985 41.0574 7.04214 41.2086 6.89949C41.3654 6.75393 41.5435 6.63379 41.7364 6.54325C41.9568 6.44134 42.1908 6.37267 42.4309 6.33948C42.7166 6.29821 43.0049 6.27836 43.2935 6.28006C43.5562 6.28058 43.8187 6.29467 44.0801 6.32224C44.3445 6.35023 44.6073 6.39281 44.8673 6.44984C45.1196 6.50538 45.3684 6.57625 45.6123 6.66207C45.8407 6.74172 46.062 6.84105 46.2737 6.95894L46.5081 5.46509C46.27 5.33913 46.0205 5.2368 45.763 5.15948C45.5005 5.08044 45.2354 5.01241 44.9677 4.95544C44.6967 4.89863 44.4228 4.85623 44.1473 4.82839C43.8683 4.80009 43.5837 4.78593 43.2935 4.78593C42.7014 4.77945 42.1108 4.84779 41.5355 4.98939C41.0455 5.10935 40.5826 5.32265 40.1712 5.61791C39.792 5.89366 39.4869 6.26127 39.2838 6.68726C39.0671 7.16602 38.9612 7.6887 38.9741 8.21534C38.9645 8.6229 39.0298 9.02872 39.1666 9.41205C39.2866 9.73345 39.4719 10.0257 39.7105 10.2698C39.9466 10.5086 40.2177 10.709 40.5142 10.864C40.8286 11.0283 41.1563 11.1647 41.4939 11.2718C41.8455 11.385 42.2054 11.4812 42.5738 11.5604C42.8751 11.6282 43.1542 11.6989 43.4109 11.7727C43.6497 11.8393 43.8821 11.9274 44.1055 12.0358C44.2976 12.1278 44.4754 12.248 44.6332 12.3924C44.7827 12.5348 44.8997 12.7087 44.9761 12.9017C45.065 13.1343 45.1078 13.3824 45.102 13.6318C45.1064 13.897 45.0668 14.161 44.9848 14.4128C44.9113 14.6306 44.7976 14.8323 44.6499 15.0071C44.5014 15.1794 44.3189 15.3181 44.1141 15.4143C43.8828 15.5224 43.6376 15.5968 43.3858 15.6353C43.0784 15.6831 42.7678 15.7058 42.4569 15.7032C42.1546 15.7025 41.8526 15.6826 41.5528 15.6438C41.2402 15.6042 40.9276 15.5503 40.6149 15.4822C40.3069 15.4157 40.0025 15.3335 39.7026 15.236C39.4065 15.1404 39.1246 15.0414 38.8571 14.9392L39.0748 16.6201C39.3602 16.7281 39.6508 16.8215 39.9454 16.8999C40.2129 16.9711 40.4838 17.0278 40.7572 17.0697C41.0195 17.1091 41.2819 17.1403 41.5444 17.1631C41.8069 17.1859 42.0718 17.1972 42.3393 17.197C42.9387 17.2008 43.5368 17.1382 44.1228 17.0103C44.6414 16.8999 45.1353 16.6927 45.5791 16.3991C45.9934 16.1211 46.3284 15.7375 46.5505 15.2869C46.7949 14.7532 46.9124 14.1687 46.8934 13.5806C46.9026 13.1424 46.8376 12.7058 46.7012 12.2899C46.5841 11.9476 46.3954 11.635 46.1478 11.3737Z" fill="#114F9D"/>
<path d="M56.1684 15.9409C56.046 15.9523 55.9227 15.9335 55.809 15.8862C55.6952 15.8389 55.5944 15.7645 55.5151 15.6692C55.3599 15.3972 55.2954 15.0816 55.3313 14.7694L55.3644 11.2718C55.3682 10.9051 55.3231 10.5396 55.2305 10.1851C55.1493 9.87414 55.0132 9.58065 54.8287 9.31894C54.6424 9.06319 54.4059 8.84931 54.1341 8.69073C53.8181 8.50904 53.4765 8.37743 53.1212 8.3005C52.6867 8.20535 52.2431 8.15979 51.7985 8.16468C51.4458 8.16441 51.0934 8.187 50.7435 8.23231C50.413 8.27471 50.0857 8.34002 49.764 8.42783C49.4657 8.50981 49.1721 8.60902 48.885 8.72497L48.6841 10.1681C48.9631 10.0666 49.2285 9.98166 49.4794 9.91346C49.7302 9.84526 49.9732 9.78895 50.2076 9.74368C50.4374 9.69924 50.6695 9.66816 50.9028 9.65058C51.1313 9.63361 51.3572 9.625 51.5806 9.62481C51.922 9.61748 52.2628 9.65748 52.5935 9.74368C52.8349 9.80499 53.0569 9.92781 53.2384 10.1005C53.4 10.2684 53.5154 10.4762 53.5732 10.7033C53.6447 10.9832 53.6785 11.2716 53.6737 11.5607L53.6718 11.9866L51.7151 12.121C51.0457 12.1399 50.3863 12.2897 49.7729 12.5621C49.3139 12.7658 48.9176 13.0914 48.6257 13.5045C48.3782 13.872 48.2468 14.3073 48.2491 14.7524C48.2459 15.1701 48.3468 15.5819 48.5423 15.9497C48.747 16.3273 49.0552 16.6367 49.4294 16.8407C49.8862 17.0817 50.3966 17.1987 50.9111 17.1803C51.3932 17.1915 51.8731 17.111 52.3259 16.9429C52.7174 16.7876 53.0756 16.557 53.3807 16.2638C53.4967 16.1512 53.6067 16.0325 53.7102 15.9081C53.7427 16.0839 53.8041 16.253 53.8917 16.4084C54.0408 16.6683 54.2701 16.8712 54.5443 16.9856C54.8475 17.1091 55.172 17.1698 55.4987 17.1639C55.5994 17.1639 55.6968 17.1608 55.7917 17.1554C55.8848 17.1498 55.9773 17.1355 56.0679 17.1127C56.1572 17.0901 56.2382 17.0705 56.3107 17.0533C56.3763 17.0386 56.4407 17.0187 56.5032 16.9938L56.6875 15.8566C56.5951 15.8886 56.4998 15.9114 56.4031 15.9245C56.3253 15.9348 56.2469 15.9403 56.1684 15.9409ZM53.3804 15.1768C53.1989 15.3224 53.0024 15.4477 52.7944 15.5507C52.5872 15.6527 52.3677 15.7269 52.1415 15.7714C51.907 15.8171 51.6687 15.8397 51.4299 15.839C51.1571 15.8471 50.8858 15.7949 50.6349 15.6862C50.4305 15.5964 50.2581 15.4455 50.1407 15.2535C50.0247 15.05 49.9668 14.8178 49.9733 14.5829C49.9571 14.2997 50.0337 14.019 50.1912 13.7846C50.3734 13.5689 50.6203 13.4198 50.8942 13.3601C51.3219 13.2582 51.7608 13.2126 52.2001 13.2246H53.6662L53.6589 14.9097C53.5737 15.0065 53.4805 15.096 53.3804 15.1768Z" fill="#114F9D"/>
<path d="M54.4436 4.12378H52.6357L51.2125 7.16295H52.5187L54.4436 4.12378Z" fill="#114F9D"/>
<path d="M64.7153 8.69948C64.1144 8.3264 63.4187 8.14043 62.7146 8.16465C62.2966 8.16676 61.8805 8.22083 61.4756 8.32566C61.038 8.43866 60.6161 8.60703 60.2199 8.82681C60.1412 8.87011 60.0633 8.91821 59.9852 8.96688V8.18161L58.2777 8.4533V20.5758H59.9852V16.7745C59.9966 16.7793 60.0073 16.7847 60.019 16.7898C60.3284 16.9199 60.6513 17.0139 60.9817 17.0699C61.3718 17.1352 61.7667 17.1664 62.162 17.1633C62.9158 17.1765 63.6591 16.9828 64.3132 16.6027C64.9557 16.2166 65.4779 15.6548 65.82 14.9816C66.2152 14.1788 66.4078 13.2891 66.3807 12.3923C66.3965 11.634 66.251 10.8812 65.954 10.1851C65.6921 9.57846 65.2617 9.06224 64.7153 8.69948ZM64.2717 14.3788C64.0705 14.8297 63.7334 15.2041 63.309 15.4482C62.8371 15.6989 62.3094 15.8218 61.777 15.805C61.5219 15.8052 61.2671 15.7852 61.0151 15.7453C60.7507 15.7026 60.4903 15.6374 60.2366 15.5504C60.1563 15.5221 60.0692 15.4898 59.9855 15.4587V10.1005C60.0078 10.09 60.0307 10.0764 60.0527 10.0663C60.2983 9.95306 60.5271 9.85676 60.7392 9.77733C60.94 9.70125 61.1474 9.64442 61.3587 9.60755C61.5466 9.57474 61.7369 9.55769 61.9276 9.5566C62.4439 9.53922 62.9562 9.65304 63.418 9.8877C63.8216 10.1106 64.1377 10.467 64.3135 10.8976C64.5265 11.4487 64.6263 12.038 64.6068 12.6295C64.6245 13.2306 64.5101 13.8282 64.2717 14.3788Z" fill="#114F9D"/>
<path d="M80.0261 8.52123C79.5696 8.26986 79.0551 8.14676 78.536 8.16468C78.0854 8.16345 77.6379 8.24097 77.2133 8.39387C76.782 8.55051 76.3758 8.77069 76.0078 9.04729C75.7993 9.20409 75.6009 9.37421 75.4137 9.55663C75.2422 9.13155 74.9396 8.77418 74.5512 8.53792C74.089 8.28551 73.5689 8.16253 73.0444 8.18164C72.5966 8.18172 72.1522 8.25916 71.7301 8.41059C71.2969 8.56525 70.888 8.78263 70.5162 9.05603C70.3959 9.14375 70.2793 9.23911 70.1646 9.339V8.18278L68.4568 8.43746V17.0117H70.1646V10.5516C70.3657 10.4179 70.5755 10.298 70.7924 10.1928C71.058 10.0653 71.3357 9.96563 71.6212 9.89536C71.8842 9.82967 72.154 9.79557 72.4249 9.79377C72.6736 9.78604 72.9213 9.82934 73.1532 9.92109C73.345 10.0035 73.5144 10.1315 73.6471 10.2944C73.7925 10.4837 73.8928 10.7046 73.9401 10.9398C74.0054 11.2436 74.0363 11.554 74.0322 11.8649V17.0097H75.7399V11.5083C75.7411 11.1835 75.7195 10.8591 75.6752 10.5374C75.8688 10.4086 76.0693 10.2907 76.2757 10.1843C76.5368 10.0508 76.812 9.94831 77.0961 9.87867C77.3646 9.81183 77.64 9.77751 77.9165 9.77649C78.1624 9.77053 78.4071 9.81392 78.6365 9.90413C78.8317 9.98472 79.0042 10.113 79.1387 10.2776C79.2844 10.4668 79.3847 10.6877 79.4317 10.9228C79.497 11.2267 79.5279 11.5372 79.5238 11.8482V17.0097H81.2316V11.4916C81.2531 10.8495 81.1508 10.2093 80.9302 9.60699C80.7564 9.15312 80.4382 8.77105 80.0261 8.52123Z" fill="#114F9D"/>
<path d="M83.7597 17.0106H85.4675V8.18165L83.7597 8.43634V17.0106Z" fill="#114F9D"/>
<path d="M85.6349 5.04883C85.5355 4.87468 85.3944 4.7287 85.2247 4.62437C85.0509 4.51673 84.8508 4.4609 84.6471 4.46333C84.441 4.46157 84.2382 4.5173 84.0611 4.62437C83.8865 4.72802 83.7398 4.87383 83.6342 5.04883C83.528 5.22517 83.4728 5.42824 83.4751 5.63486C83.4734 5.84398 83.5284 6.04955 83.6342 6.2291C83.7364 6.40685 83.8838 6.55346 84.0611 6.65357C84.2399 6.75564 84.442 6.80834 84.6471 6.80639C84.8497 6.80903 85.0492 6.75623 85.2247 6.65357C85.3971 6.55269 85.5389 6.4059 85.6349 6.2291C85.7356 6.04781 85.7875 5.8429 85.7856 5.63486C85.7881 5.42934 85.736 5.22696 85.6349 5.04883Z" fill="#114F9D"/>
</svg>
