<svg xmlns="http://www.w3.org/2000/svg" viewBox="0 0 68 24"><path fill="#000" d="M0 17.995v-12h3.937v12H0Zm9.294-10.09 2.264 10.09H7.25l-2.704-12h2.417a2.276 2.276 0 0 1 1.513.55c.42.346.71.827.819 1.36Zm2.855 10.09v-12h3.938v12h-3.938Zm6.912-7.436a2.382 2.382 0 0 1-2.4-2.4 2.301 2.301 0 0 1 .321-1.2 2.41 2.41 0 0 1 3.278-.862c.356.21.653.506.862.862.215.363.326.778.321 1.2a2.35 2.35 0 0 1-.321 1.208 2.4 2.4 0 0 1-.862.87 2.302 2.302 0 0 1-1.2.322Zm2.99 7.436v-12h3.938v12h-3.937Zm8.923-5.442c.01.012.095.15.253.414s.364.602.617 1.014a315.936 315.936 0 0 1 1.597 2.62c.247.411.529.876.845 1.394H29.96c-.27-.44-.516-.837-.736-1.192-.22-.355-.453-.738-.7-1.149-.248-.41-.493-.81-.736-1.2-.242-.389-.45-.73-.625-1.022-.175-.293-.296-.49-.363-.592a1.747 1.747 0 0 1-.287-.845c.016-.29.11-.57.27-.811.067-.113.191-.313.371-.6s.392-.628.634-1.022c.242-.395.488-.798.736-1.209l.7-1.157.736-1.2h4.326l-3.346 5.458a1.08 1.08 0 0 0-.17.541c.012.202.082.396.203.558ZM55.428 6h-3.71s2.107 3.453 2.13 3.498a.582.582 0 0 1 .014.707l-2.144 3.509h3.708s1.788-2.92 2.033-3.326a.885.885 0 0 0-.01-1.074c-.261-.447-.263-.447-2.021-3.314ZM67.04 7.988C66.917 7.776 65.813 6 65.813 6h-7.935l1.733 2.904h4.18l-1.725 2.824 1.924 3.227L62.134 18h3.388c.545-.89 1.36-2.267 1.53-2.548a.888.888 0 0 0-.01-1.077c-.17-.289-1.076-1.726-1.618-2.61l1.629-2.697a.888.888 0 0 0-.012-1.08ZM59.406 12.123c-.522.852-1.396 2.28-1.559 2.558a.855.855 0 0 0-.01 1.037c.165.272 1.045 1.71 1.57 2.568.524-.857 1.405-2.296 1.569-2.568a.855.855 0 0 0-.01-1.037 438.37 438.37 0 0 0-1.56-2.558ZM48.86 6a1.988 1.988 0 0 0-1.083.33c-.273.168-2.497 2.053-2.666 2.196-.17-.143-2.394-2.028-2.666-2.196A1.988 1.988 0 0 0 41.36 6H39v10.572l3.282-2.462V9.865l2.829 2.126 2.828-2.126v8.133h3.301V6h-2.38Z"/></svg>