<svg xmlns="http://www.w3.org/2000/svg" viewBox="0 0 283 71"><path fill="#fff" d="M0 56.5V14.504h13.78V56.5H0Zm32.528-35.312L40.453 56.5h-15.08l-9.464-41.996h8.459a7.965 7.965 0 0 1 5.293 1.922 8.31 8.31 0 0 1 2.867 4.762ZM42.523 56.5V14.504h13.78V56.5h-13.78Zm24.189-26.026a8.213 8.213 0 0 1-4.228-1.124 8.336 8.336 0 0 1-3.046-3.046 8.206 8.206 0 0 1-1.125-4.229 8.056 8.056 0 0 1 1.125-4.2 8.437 8.437 0 0 1 3.046-3.016 8.233 8.233 0 0 1 4.228-1.124 8.083 8.083 0 0 1 4.199 1.124 8.504 8.504 0 0 1 3.016 3.016 8.075 8.075 0 0 1 1.125 4.2 8.226 8.226 0 0 1-1.125 4.23 8.4 8.4 0 0 1-3.016 3.045 8.059 8.059 0 0 1-4.201 1.124h.002ZM77.18 56.5V14.504h13.781V56.5H77.181Zm31.227-19.046c.039.04.334.524.887 1.449.553.925 1.272 2.108 2.159 3.549a1143.28 1143.28 0 0 1 5.589 9.168A854.89 854.89 0 0 0 120 56.5h-15.141c-.947-1.538-1.804-2.928-2.573-4.17a382.214 382.214 0 0 1-2.453-4.022 351.934 351.934 0 0 0-2.574-4.2 213.445 213.445 0 0 1-2.188-3.578 62.753 62.753 0 0 0-1.272-2.07 6.119 6.119 0 0 1-1.005-2.958 5.744 5.744 0 0 1 .946-2.84c.236-.394.67-1.095 1.3-2.1.632-1.006 1.371-2.198 2.219-3.579a636.03 636.03 0 0 0 2.574-4.229c.869-1.439 1.686-2.79 2.453-4.052.77-1.26 1.628-2.66 2.573-4.2H120l-11.711 19.106a3.773 3.773 0 0 0-.592 1.894c.039.706.286 1.385.709 1.952h.002Z"/><path fill="#F34531" d="M161.78 36.846a11.207 11.207 0 0 0-2.959-2.161 23.11 23.11 0 0 0-3.582-1.45 40.58 40.58 0 0 0-3.907-1.008 84.993 84.993 0 0 1-2.871-.71 13.223 13.223 0 0 1-2.368-.858 7.805 7.805 0 0 1-1.804-1.184 4.257 4.257 0 0 1-1.156-1.657 6.407 6.407 0 0 1-.383-2.34 7.127 7.127 0 0 1 .383-2.426 4.516 4.516 0 0 1 1.184-1.806 7.312 7.312 0 0 1 1.865-1.242 8.779 8.779 0 0 1 2.457-.71 20.727 20.727 0 0 1 3.048-.208c.93.002 1.858.051 2.783.147.934.098 1.863.247 2.782.445.892.194 1.772.441 2.634.74.808.278 1.59.624 2.338 1.035l.829-5.208a14.754 14.754 0 0 0-2.634-1.066 35.268 35.268 0 0 0-2.812-.711 28.106 28.106 0 0 0-2.901-.443 30.307 30.307 0 0 0-3.019-.148 25.191 25.191 0 0 0-6.216.71 14.076 14.076 0 0 0-4.824 2.19 9.888 9.888 0 0 0-3.137 3.73 12.052 12.052 0 0 0-1.096 5.327 11.45 11.45 0 0 0 .681 4.172 8.552 8.552 0 0 0 1.924 2.99 11.45 11.45 0 0 0 2.841 2.073 21.707 21.707 0 0 0 3.464 1.421c1.243.395 2.516.73 3.818 1.007a53.03 53.03 0 0 1 2.96.74c.844.232 1.666.54 2.456.917.68.32 1.308.74 1.865 1.243a4.994 4.994 0 0 1 1.214 1.776c.313.812.464 1.676.444 2.546a8.256 8.256 0 0 1-.415 2.723 6.309 6.309 0 0 1-1.184 2.072 5.7 5.7 0 0 1-1.894 1.42 9.563 9.563 0 0 1-2.576.77 20.498 20.498 0 0 1-3.285.237 25.744 25.744 0 0 1-3.196-.207 38.555 38.555 0 0 1-3.315-.564 33.21 33.21 0 0 1-3.226-.858 61.647 61.647 0 0 1-2.99-1.035l.77 5.86c1.009.377 2.036.703 3.078.977.946.248 1.904.445 2.871.591.926.138 1.853.246 2.782.326.929.08 1.866.119 2.811.118a29.093 29.093 0 0 0 6.305-.65 15.097 15.097 0 0 0 5.151-2.132 10.023 10.023 0 0 0 3.433-3.877 13.099 13.099 0 0 0 1.214-5.95 13.353 13.353 0 0 0-.681-4.5 8.738 8.738 0 0 0-1.954-3.194ZM194.339 27.522a12.72 12.72 0 0 0-7.074-1.865 18.06 18.06 0 0 0-4.38.562 19.035 19.035 0 0 0-4.44 1.747c-.278.15-.555.319-.829.487v-2.737l-6.038.948V68.93h6.038V55.676c.04.017.078.036.118.054 1.094.454 2.236.781 3.404.976 1.379.228 2.775.337 4.173.326 2.665.046 5.293-.63 7.606-1.955a14.047 14.047 0 0 0 5.328-5.652 18.892 18.892 0 0 0 1.983-9.028 18.384 18.384 0 0 0-1.51-7.695 11.887 11.887 0 0 0-4.379-5.18Zm-1.568 19.802a8.156 8.156 0 0 1-3.404 3.728 10.943 10.943 0 0 1-5.417 1.244c-.902 0-1.802-.069-2.694-.208a16.865 16.865 0 0 1-2.752-.68 56.55 56.55 0 0 1-.888-.32V32.407c.078-.037.159-.084.237-.12.867-.394 1.676-.73 2.427-1.007a12.14 12.14 0 0 1 4.203-.77c1.824-.06 3.635.337 5.267 1.155a7.097 7.097 0 0 1 3.167 3.521 15.14 15.14 0 0 1 1.036 6.038 14.144 14.144 0 0 1-1.182 6.1ZM229.088 27.551a16.237 16.237 0 0 0-8.021-1.894 16.168 16.168 0 0 0-8.082 1.954 13.649 13.649 0 0 0-5.387 5.505 17.416 17.416 0 0 0-1.924 8.405 18.152 18.152 0 0 0 1.806 8.377 12.358 12.358 0 0 0 5.18 5.358 16.097 16.097 0 0 0 7.814 1.834 16.683 16.683 0 0 0 8.169-1.953 13.784 13.784 0 0 0 5.536-5.565 17.45 17.45 0 0 0 1.983-8.524 17.153 17.153 0 0 0-1.836-8.14 12.936 12.936 0 0 0-5.238-5.357Zm-.356 19.832a8.08 8.08 0 0 1-3.225 3.7 9.203 9.203 0 0 1-4.736 1.213 8.42 8.42 0 0 1-4.619-1.244 8.34 8.34 0 0 1-3.078-3.729 14.929 14.929 0 0 1-1.125-6.156 13.936 13.936 0 0 1 1.125-5.98 7.872 7.872 0 0 1 3.168-3.552 9.572 9.572 0 0 1 4.883-1.184 9.308 9.308 0 0 1 3.877.74 7.126 7.126 0 0 1 2.725 2.162 9.58 9.58 0 0 1 1.626 3.404c.37 1.44.549 2.923.533 4.41a14.741 14.741 0 0 1-1.154 6.216ZM255.873 26.1a11.701 11.701 0 0 0-3.138 1.362 15.563 15.563 0 0 0-2.782 2.22c-.14.14-.275.296-.414.443v-4.409l-6.038.888V56.5h6.038V34.134a15.152 15.152 0 0 1 3.227-1.728 20.607 20.607 0 0 1 1.864-.622 12.724 12.724 0 0 1 4.144-.444l.71-5.565a11.312 11.312 0 0 0-3.611.325ZM281.565 51.556c-.278.06-.583.118-.919.178l-1.005.176a8.611 8.611 0 0 1-.977.12c-.317.02-.613.03-.888.03a5.989 5.989 0 0 1-2.634-.533 3.828 3.828 0 0 1-1.687-1.57 4.993 4.993 0 0 1-.592-2.516V31.044h8.347l.651-4.736h-8.998v-9.352l-6.038 2.131v7.221h-4.559l-.652 4.736h5.211v17.641a10.039 10.039 0 0 0 .532 3.463 7.228 7.228 0 0 0 1.391 2.397 6.16 6.16 0 0 0 2.013 1.48c.783.36 1.608.619 2.456.77.84.155 1.692.234 2.545.237.632 0 1.254-.02 1.866-.06a20.074 20.074 0 0 0 3.138-.444c.454-.099.837-.186 1.153-.266l.356-4.914c-.23.09-.468.159-.71.208Z"/></svg>