<svg xmlns="http://www.w3.org/2000/svg" viewBox="0 0 98 24"><path fill="#114F9D" d="M0 0h98v24H0z"/><path fill="#fff" d="M6.004 18V6h3.937v12H6.004Zm9.294-10.09L17.562 18h-4.309L10.55 6h2.416a2.276 2.276 0 0 1 1.513.55c.42.346.71.826.82 1.36ZM18.154 18V6h3.937v12h-3.937Zm6.91-7.436a2.382 2.382 0 0 1-2.4-2.4 2.303 2.303 0 0 1 .323-1.2 2.412 2.412 0 0 1 3.278-.862c.355.21.652.506.861.862.215.363.326.778.322 1.2a2.4 2.4 0 0 1-1.183 2.079 2.303 2.303 0 0 1-1.2.32ZM28.057 18V6h3.937v12h-3.937Zm8.922-5.442c.011.012.096.15.253.414.158.264.364.602.617 1.014a316.22 316.22 0 0 1 1.597 2.62c.247.411.529.876.845 1.394h-4.326c-.27-.44-.516-.837-.735-1.192-.22-.355-.453-.738-.7-1.149-.249-.41-.494-.81-.737-1.2-.242-.389-.45-.73-.625-1.022a18.04 18.04 0 0 0-.363-.592 1.748 1.748 0 0 1-.287-.845c.017-.29.11-.57.27-.811.068-.113.192-.313.372-.6s.391-.628.633-1.023c.243-.394.488-.797.736-1.208l.7-1.158.736-1.2h4.326l-3.346 5.46a1.079 1.079 0 0 0-.17.54c.012.202.082.396.203.558h.001Z"/><path fill="#9FDAF5" d="M52.152 12.374a3.185 3.185 0 0 0-.837-.62 6.48 6.48 0 0 0-1.013-.416c-.358-.113-.726-.21-1.105-.288a23.71 23.71 0 0 1-.812-.204 3.71 3.71 0 0 1-.67-.246 2.209 2.209 0 0 1-.51-.34 1.222 1.222 0 0 1-.327-.475 1.857 1.857 0 0 1-.109-.671 2.073 2.073 0 0 1 .11-.696c.068-.198.183-.375.334-.518.157-.146.335-.266.528-.356.22-.102.454-.17.694-.204.286-.041.574-.061.863-.06.262.001.525.015.786.043.265.028.528.07.788.127.252.056.5.127.745.213.228.08.45.179.661.296l.234-1.493a4.135 4.135 0 0 0-.745-.306 9.914 9.914 0 0 0-.795-.204 7.845 7.845 0 0 0-.82-.127 8.457 8.457 0 0 0-.854-.043 7.033 7.033 0 0 0-1.758.204c-.49.12-.953.333-1.364.628-.38.276-.685.644-.888 1.07a3.499 3.499 0 0 0-.31 1.528c-.01.407.056.813.193 1.197.12.32.305.613.544.857.236.24.507.44.803.595.315.164.643.3.98.407.352.114.712.21 1.08.289.301.068.58.138.837.212.239.067.471.155.695.263.192.092.37.212.528.357.149.142.266.316.343.51.088.232.131.48.125.73.005.265-.035.529-.117.78-.073.218-.187.42-.335.595a1.615 1.615 0 0 1-.536.407 2.68 2.68 0 0 1-.728.22c-.307.049-.618.071-.929.069-.302-.001-.604-.02-.904-.06-.312-.04-.625-.093-.938-.161a9.286 9.286 0 0 1-.912-.247 16.904 16.904 0 0 1-.846-.296l.218 1.68c.285.108.576.202.87.28.268.072.54.128.813.17.262.04.524.07.787.094.262.022.527.034.795.034.6.003 1.197-.06 1.783-.187a4.236 4.236 0 0 0 1.456-.611c.415-.278.75-.662.972-1.113a3.806 3.806 0 0 0 .343-1.706 3.884 3.884 0 0 0-.193-1.29 2.518 2.518 0 0 0-.553-.917ZM62.173 16.941a.755.755 0 0 1-.654-.271 1.477 1.477 0 0 1-.183-.9l.033-3.498a4.135 4.135 0 0 0-.134-1.086 2.677 2.677 0 0 0-.402-.867 2.285 2.285 0 0 0-.694-.628 3.532 3.532 0 0 0-1.013-.39 5.881 5.881 0 0 0-1.323-.136c-.353 0-.705.022-1.055.068-.33.042-.658.107-.98.195a8.035 8.035 0 0 0-.879.297l-.2 1.444a9.997 9.997 0 0 1 1.523-.425c.23-.044.462-.075.695-.093.229-.017.455-.025.678-.026.341-.007.682.033 1.013.12.241.06.463.183.645.356.161.168.277.376.335.603.071.28.105.568.1.857l-.002.426-1.957.134a5.141 5.141 0 0 0-1.942.442c-.459.203-.855.529-1.147.942a2.215 2.215 0 0 0-.377 1.248c-.003.418.098.83.294 1.197.204.378.513.687.887.891.457.241.967.358 1.482.34a3.81 3.81 0 0 0 1.414-.238c.392-.155.75-.386 1.055-.679.116-.112.226-.231.33-.355.032.175.093.345.181.5.15.26.379.463.653.577.303.124.627.184.954.178.1 0 .198-.003.293-.008a1.5 1.5 0 0 0 .276-.043l.243-.06c.066-.014.13-.034.193-.059l.184-1.137a1.472 1.472 0 0 1-.285.068c-.077.01-.156.016-.234.016Zm-2.788-.764c-.182.146-.378.271-.586.374a2.624 2.624 0 0 1-.653.22 3.664 3.664 0 0 1-.712.069 1.861 1.861 0 0 1-.795-.153 1.097 1.097 0 0 1-.494-.433 1.283 1.283 0 0 1-.167-.67c-.017-.284.06-.564.218-.799.182-.216.429-.365.703-.424a5.04 5.04 0 0 1 1.305-.136h1.466l-.007 1.685a2.275 2.275 0 0 1-.278.267ZM60.448 5.124H58.64l-1.423 3.04h1.306l1.925-3.04ZM70.72 9.7a3.56 3.56 0 0 0-2.001-.535 5.046 5.046 0 0 0-1.24.161 5.342 5.342 0 0 0-1.49.641v-.785l-1.707.272v12.122h1.708v-3.801l.033.015c.31.13.633.224.963.28.39.066.785.097 1.18.094a4.136 4.136 0 0 0 2.151-.56 4.009 4.009 0 0 0 1.507-1.622 5.489 5.489 0 0 0 .561-2.59 5.344 5.344 0 0 0-.427-2.206A3.398 3.398 0 0 0 70.72 9.7Zm-.444 5.68c-.201.45-.538.825-.963 1.069-.472.25-1 .373-1.532.356a4.705 4.705 0 0 1-1.54-.255c-.08-.027-.168-.06-.251-.09V11.1c.022-.01.045-.024.067-.034.246-.114.474-.21.687-.29a3.398 3.398 0 0 1 1.188-.22 3.061 3.061 0 0 1 1.49.331c.404.223.72.58.896 1.01.213.551.313 1.14.293 1.732a4.099 4.099 0 0 1-.335 1.75ZM86.03 9.522a2.882 2.882 0 0 0-1.49-.357 3.873 3.873 0 0 0-1.322.23 4.65 4.65 0 0 0-1.206.653 6.123 6.123 0 0 0-.594.51 2.12 2.12 0 0 0-.863-1.02 2.92 2.92 0 0 0-1.506-.356c-.448 0-.893.078-1.315.23a4.74 4.74 0 0 0-1.565.927V9.183l-1.708.255v8.574h1.708v-6.46c.201-.134.41-.253.628-.359.265-.127.543-.227.829-.297.263-.066.532-.1.803-.102.249-.008.497.036.728.128.192.082.362.21.494.373.146.19.246.41.293.645.066.304.097.615.093.925v5.145h1.707V12.51c.001-.325-.02-.65-.064-.971a6.29 6.29 0 0 1 .6-.353c.261-.134.536-.236.82-.306.269-.067.544-.101.82-.102.247-.006.492.037.72.128.196.08.369.209.503.373.146.19.246.41.293.645.065.304.096.615.092.926v5.161h1.708v-5.518a4.997 4.997 0 0 0-.301-1.885 2.18 2.18 0 0 0-.904-1.085ZM89.764 18.011h1.708V9.182l-1.708.255v8.574ZM91.64 6.05a1.19 1.19 0 0 0-.411-.425 1.072 1.072 0 0 0-.578-.161 1.115 1.115 0 0 0-.586.16c-.174.105-.32.25-.427.425-.106.177-.16.38-.159.586-.001.21.054.415.16.595a1.16 1.16 0 0 0 1.013.577 1.114 1.114 0 0 0 .987-.577 1.2 1.2 0 0 0 .15-.595 1.158 1.158 0 0 0-.15-.586Z"/></svg>