<svg xmlns="http://www.w3.org/2000/svg" viewBox="0 0 100 14"><path fill="#fff" d="M0 13V1.001h3.937v12H0ZM9.294 2.911l2.264 10.09H7.25L4.546 1h2.416a2.276 2.276 0 0 1 1.513.55c.42.346.71.826.819 1.36Zm2.856 10.09V1h3.937v12H12.15Zm6.91-7.437a2.382 2.382 0 0 1-2.4-2.4 2.303 2.303 0 0 1 .322-1.2 2.412 2.412 0 0 1 3.278-.861c.356.21.653.506.862.862.215.363.326.778.321 1.2a2.4 2.4 0 0 1-1.183 2.079 2.303 2.303 0 0 1-1.2.32ZM22.053 13V1.001h3.937v12h-3.937Zm8.922-5.441c.01.011.095.15.253.414s.364.602.617 1.014a322.363 322.363 0 0 1 1.597 2.62c.247.41.529.875.845 1.393H29.96c-.27-.439-.516-.836-.736-1.191-.22-.355-.453-.738-.7-1.15-.248-.41-.493-.81-.736-1.2-.242-.388-.45-.729-.625-1.022-.175-.292-.296-.49-.363-.591A1.75 1.75 0 0 1 26.513 7c.016-.29.11-.57.27-.812.067-.112.191-.312.372-.6a182.106 182.106 0 0 0 1.37-2.23c.247-.411.48-.797.7-1.158l.735-1.2h4.326L30.94 6.46a1.078 1.078 0 0 0-.17.54c.012.203.082.397.203.559ZM47.957 1.01h-2.11L41.26 6.294h-.63V1.01h-1.773v11.987h1.773v-5.42h.06l4.988 5.437 2.414-.018-5.723-5.942 5.588-6.044ZM52.101 11.755c-.059.007-.118.01-.177.01a.902.902 0 0 1-.371-.069.603.603 0 0 1-.253-.21.917.917 0 0 1-.144-.364 2.803 2.803 0 0 1-.042-.523V.251l-1.722.253v10.855c-.007.284.038.568.135.836.08.217.214.412.388.565.174.149.379.256.6.313.245.063.497.094.75.092a4.198 4.198 0 0 0 .752-.067c.118-.022.217-.045.295-.068l.17-1.334a17.822 17.822 0 0 1-.38.06ZM61.513 11.933a.769.769 0 0 1-.658-.27 1.45 1.45 0 0 1-.186-.895l.034-3.478a4.06 4.06 0 0 0-.136-1.08 2.65 2.65 0 0 0-.405-.861 2.285 2.285 0 0 0-.7-.625 3.568 3.568 0 0 0-1.022-.388 6.005 6.005 0 0 0-1.333-.135c-.356 0-.71.022-1.063.068a7.328 7.328 0 0 0-.988.193c-.301.082-.597.18-.887.296l-.202 1.435a9.621 9.621 0 0 1 1.536-.422 6.14 6.14 0 0 1 .7-.093c.231-.017.46-.025.685-.025.344-.008.687.032 1.02.118.244.06.468.183.65.355.163.166.28.373.338.599.072.278.106.565.102.852l-.002.424-1.974.134a5.242 5.242 0 0 0-1.958.438 2.804 2.804 0 0 0-1.156.937 2.18 2.18 0 0 0-.38 1.241c-.003.415.098.825.295 1.19.207.376.517.684.895.887.46.24.975.356 1.494.337a3.88 3.88 0 0 0 1.426-.236 3.294 3.294 0 0 0 1.064-.675c.117-.113.228-.23.332-.354.033.174.095.342.183.497.15.258.382.46.658.574.306.123.633.183.963.177.1 0 .2-.003.295-.008a1.54 1.54 0 0 0 .279-.042c.09-.023.171-.043.245-.06.066-.014.13-.034.194-.059l.185-1.131c-.093.032-.19.055-.287.068-.078.01-.157.016-.236.017Zm-2.81-.76a3.243 3.243 0 0 1-.592.371c-.209.102-.43.176-.658.22a3.745 3.745 0 0 1-.717.068 1.906 1.906 0 0 1-.803-.152c-.206-.09-.38-.24-.498-.431a1.263 1.263 0 0 1-.169-.667c-.016-.281.061-.56.22-.793a1.29 1.29 0 0 1 .71-.422 5.133 5.133 0 0 1 1.316-.135h1.478l-.007 1.675c-.086.097-.18.186-.28.266ZM68.975 9.114a2.538 2.538 0 0 0-.591-.465 4.62 4.62 0 0 0-.71-.33c-.18-.055-.357-.114-.531-.176a9.436 9.436 0 0 0-.523-.17c-.175-.05-.344-.103-.507-.16a3.644 3.644 0 0 1-.447-.185 2.97 2.97 0 0 1-.397-.254 1.106 1.106 0 0 1-.287-.32.812.812 0 0 1-.11-.423.874.874 0 0 1 .119-.464.959.959 0 0 1 .354-.329 1.91 1.91 0 0 1 .566-.203c.247-.047.499-.07.75-.067a5.455 5.455 0 0 1 .887.076c.175.028.349.065.524.11.175.044.351.095.531.151.167.052.33.114.49.186l.118-1.367a8.109 8.109 0 0 0-.633-.237 6.324 6.324 0 0 0-.633-.169 5.067 5.067 0 0 0-.633-.093 7.636 7.636 0 0 0-.617-.025 5.568 5.568 0 0 0-1.384.16 3.486 3.486 0 0 0-1.089.473c-.302.2-.549.473-.717.794a2.418 2.418 0 0 0-.254 1.14c-.005.284.041.567.136.835.08.225.2.434.354.616.15.172.324.323.515.447.2.131.412.242.633.33a13.486 13.486 0 0 0 .785.261l.38.118.363.118c.118.04.233.077.346.11.151.054.298.119.44.194.123.066.24.145.345.237a.874.874 0 0 1 .22.295.899.899 0 0 1 .076.372.841.841 0 0 1-.28.666 1.617 1.617 0 0 1-.725.347 4.312 4.312 0 0 1-.954.1c-.2 0-.4-.015-.6-.041a8.992 8.992 0 0 1-.691-.118 10.29 10.29 0 0 1-.743-.186c-.253-.073-.51-.155-.768-.245l.067 1.435c.293.101.56.183.802.245s.473.115.693.16c.21.044.425.073.64.085.209.012.42.017.634.017.47.003.94-.046 1.401-.144a3.608 3.608 0 0 0 1.148-.447c.32-.195.584-.468.769-.793.193-.357.288-.76.278-1.165a2.364 2.364 0 0 0-.144-.87 1.975 1.975 0 0 0-.396-.632ZM76.892 9.114a2.546 2.546 0 0 0-.59-.465 4.606 4.606 0 0 0-.71-.329c-.18-.056-.358-.115-.532-.177a9.418 9.418 0 0 0-.523-.17c-.175-.05-.344-.103-.507-.16a3.675 3.675 0 0 1-.447-.185 2.976 2.976 0 0 1-.397-.254 1.104 1.104 0 0 1-.287-.32.81.81 0 0 1-.11-.423.873.873 0 0 1 .119-.464.954.954 0 0 1 .354-.329 1.91 1.91 0 0 1 .566-.203c.247-.047.499-.07.75-.067a5.468 5.468 0 0 1 .887.076c.175.028.35.065.523.11.175.044.352.095.532.151.167.052.33.114.49.186l.118-1.367a8.113 8.113 0 0 0-.633-.237 6.3 6.3 0 0 0-.633-.169 5.064 5.064 0 0 0-.633-.093 7.634 7.634 0 0 0-.616-.025 5.563 5.563 0 0 0-1.384.16 3.483 3.483 0 0 0-1.09.473c-.302.2-.548.473-.717.794a2.41 2.41 0 0 0-.253 1.14c-.005.284.04.567.135.835.08.225.2.434.355.616.15.172.323.323.515.447.2.131.411.242.633.33a13.673 13.673 0 0 0 .785.261l.38.118.362.118c.118.04.234.077.347.11.15.054.297.119.438.194.124.066.24.145.347.237a.869.869 0 0 1 .295.667.839.839 0 0 1-.279.666 1.617 1.617 0 0 1-.726.347 4.312 4.312 0 0 1-.953.1 4.75 4.75 0 0 1-.6-.041 8.982 8.982 0 0 1-.692-.118c-.242-.051-.49-.113-.743-.186a15.202 15.202 0 0 1-.768-.245l.068 1.435c.292.101.56.183.802.245s.473.115.692.16c.211.044.426.073.642.085.208.012.419.017.633.017.47.003.94-.046 1.4-.144a3.607 3.607 0 0 0 1.148-.447c.32-.195.584-.468.769-.793.193-.357.29-.76.278-1.165a2.362 2.362 0 0 0-.143-.87 1.97 1.97 0 0 0-.397-.632ZM80.952.681a1.093 1.093 0 0 0-.582-.16 1.137 1.137 0 0 0-.59.16 1.236 1.236 0 0 0-.431.422 1.09 1.09 0 0 0-.16.582c-.002.208.053.413.16.591.103.177.252.322.43.422.18.101.384.154.59.152.205.002.406-.05.583-.152.174-.1.317-.246.414-.422.101-.18.154-.384.152-.59a1.14 1.14 0 0 0-.152-.583 1.193 1.193 0 0 0-.414-.422ZM79.475 12.996h1.722V4.218l-1.722.253v8.525ZM89.165 9.114a2.535 2.535 0 0 0-.59-.465 4.603 4.603 0 0 0-.71-.329c-.18-.056-.357-.115-.531-.177a9.389 9.389 0 0 0-.524-.17c-.175-.05-.343-.103-.507-.16a3.646 3.646 0 0 1-.447-.185 2.952 2.952 0 0 1-.397-.254 1.105 1.105 0 0 1-.286-.32.81.81 0 0 1-.11-.423.874.874 0 0 1 .118-.464.955.955 0 0 1 .355-.329 1.91 1.91 0 0 1 .565-.203c.248-.047.5-.07.751-.067a5.46 5.46 0 0 1 .887.076c.174.028.348.065.523.11.174.044.352.095.532.151.167.052.33.114.49.186l.118-1.367a8.113 8.113 0 0 0-.633-.237 6.292 6.292 0 0 0-.634-.169 5.067 5.067 0 0 0-.633-.093 7.631 7.631 0 0 0-.616-.025 5.564 5.564 0 0 0-1.384.16 3.481 3.481 0 0 0-1.09.473c-.301.2-.548.473-.717.794a2.41 2.41 0 0 0-.253 1.14c-.005.284.04.567.136.835.08.225.2.434.354.616.15.172.323.323.515.447.2.131.412.242.633.33a13.673 13.673 0 0 0 .785.261l.38.118.363.118c.118.04.233.077.346.11.151.054.298.119.439.194.124.066.24.145.346.237a.868.868 0 0 1 .295.667.841.841 0 0 1-.278.666 1.62 1.62 0 0 1-.726.347 4.312 4.312 0 0 1-.954.1c-.2 0-.4-.015-.6-.041a8.982 8.982 0 0 1-.691-.118c-.242-.051-.49-.113-.743-.186a15.333 15.333 0 0 1-.768-.245l.067 1.435c.293.101.56.183.802.245s.473.115.692.16c.212.044.426.073.642.085.208.012.419.017.633.017.47.003.94-.046 1.4-.144a3.61 3.61 0 0 0 1.149-.447c.32-.195.584-.468.768-.793.193-.357.29-.76.278-1.165a2.366 2.366 0 0 0-.143-.87 1.97 1.97 0 0 0-.397-.632ZM96.95 12.996h2.228l-4.095-4.614 4.01-3.996h-2.11L94.094 7.56h-.622V.25L91.75.504v12.492h1.722V8.86h.028l3.45 4.136Z"/></svg>