<svg xmlns="http://www.w3.org/2000/svg" viewBox="0 0 114 24"><path fill="#1767CE" d="M0 0h114v24H0z"/><path fill="#fff" d="M6.004 18V6.001h3.937V18H6.004Zm9.294-10.09L17.562 18h-4.309L10.55 6.001h2.416a2.276 2.276 0 0 1 1.513.55c.42.345.71.826.82 1.36ZM18.154 18V6.001h3.937V18h-3.937Zm6.91-7.436a2.383 2.383 0 0 1-2.4-2.4 2.303 2.303 0 0 1 .323-1.2 2.411 2.411 0 0 1 3.278-.861c.355.209.652.506.861.861.215.363.326.778.322 1.2a2.4 2.4 0 0 1-1.183 2.079 2.302 2.302 0 0 1-1.2.321ZM28.057 18V6.001h3.937V18h-3.937Zm8.922-5.442c.011.012.096.15.253.414.158.265.364.603.617 1.014a315.936 315.936 0 0 1 1.597 2.62c.247.411.529.876.845 1.394h-4.326c-.27-.44-.516-.837-.735-1.191-.22-.355-.453-.738-.7-1.15-.249-.41-.494-.81-.737-1.2-.242-.389-.45-.73-.625-1.022-.175-.293-.296-.49-.363-.591a1.748 1.748 0 0 1-.287-.845c.017-.29.11-.57.27-.812.068-.113.192-.313.372-.6s.391-.628.633-1.022c.243-.395.488-.797.736-1.209l.7-1.157.736-1.2h4.326l-3.346 5.458a1.08 1.08 0 0 0-.17.542c.012.201.082.395.203.557h.001Z"/><path fill="#D4EEFC" d="m53.457 15.128-7.22-9.14h-1.376v12.013h1.597V8.857l7.237 9.144h1.376V5.989h-1.614v9.139ZM63.514 9.457l-.013 6.336a8.05 8.05 0 0 1-.368.203c-.207.106-.42.199-.638.279-.206.077-.42.133-.636.17a4.197 4.197 0 0 1-.671.05 2.023 2.023 0 0 1-1.003-.22 1.351 1.351 0 0 1-.586-.685 3.004 3.004 0 0 1-.195-1.16V9.204l-1.733.254v5.312c-.02.641.09 1.28.323 1.878.188.466.533.852.977 1.091a3.431 3.431 0 0 0 1.622.347 4.1 4.1 0 0 0 1.376-.229 4.88 4.88 0 0 0 1.223-.643c.103-.074.206-.152.307-.234l-.001.733c0 .846-.198 1.489-.595 1.928-.396.44-1.07.66-2.021.66-.26 0-.527-.011-.799-.034a6.457 6.457 0 0 1-.807-.118 8.997 8.997 0 0 1-1.622-.508l.187 1.506a8.39 8.39 0 0 0 2.293.55c.283.028.572.042.867.042a5.416 5.416 0 0 0 1.809-.279 3.829 3.829 0 0 0 1.333-.778c.361-.331.643-.739.824-1.193.192-.49.287-1.013.28-1.54l-.017-8.746-1.716.255ZM74.42 9.541a3.317 3.317 0 0 0-1.615-.355c-.498 0-.994.077-1.469.229a5.696 5.696 0 0 0-1.741.905V5.228l-1.733.253v12.52h1.733V11.5a5.534 5.534 0 0 1 1.155-.478c.243-.072.49-.128.739-.17.233-.038.469-.058.705-.058.272-.006.542.037.798.127.216.077.41.208.561.38.156.187.266.407.322.643.073.299.108.606.103.913v5.144h1.732v-5.499a4.665 4.665 0 0 0-.323-1.878 2.221 2.221 0 0 0-.968-1.083ZM84.867 10.464a3.085 3.085 0 0 0-1.25-.956 4.38 4.38 0 0 0-1.723-.321 4.236 4.236 0 0 0-1.733.338c-.497.217-.941.54-1.3.947a4.141 4.141 0 0 0-.815 1.464 6.09 6.09 0 0 0-.28 1.903 5.102 5.102 0 0 0 .5 2.36 3.314 3.314 0 0 0 1.487 1.472 5.3 5.3 0 0 0 2.413.5c.4.002.8-.023 1.197-.077a5.77 5.77 0 0 0 1.894-.618l.12-1.302a84.56 84.56 0 0 1-.655.237c-.22.078-.45.149-.688.211-.24.063-.484.108-.73.135a6.571 6.571 0 0 1-.748.043 5.382 5.382 0 0 1-1.325-.144 2.18 2.18 0 0 1-.942-.49 2.137 2.137 0 0 1-.578-.94 4.284 4.284 0 0 1-.185-1.116h6.139c.084-.7.052-1.409-.094-2.098a3.945 3.945 0 0 0-.704-1.548Zm-4.281.406c.398-.241.859-.362 1.325-.347.466-.023.927.11 1.308.38.338.27.58.64.688 1.058.084.309.126.627.124.947h-4.468c.032-.337.104-.67.216-.99.145-.428.429-.797.807-1.048ZM92.265 16.639l-.289.05a2.564 2.564 0 0 1-.28.035c-.091.006-.176.008-.255.008a1.717 1.717 0 0 1-.756-.153 1.091 1.091 0 0 1-.484-.448 1.423 1.423 0 0 1-.17-.719v-4.686h2.395l.187-1.353h-2.582V6.699l-1.733.61v2.064H86.99l-.187 1.353h1.495v5.042c-.008.336.044.67.153.99.088.251.223.484.4.684.16.18.358.323.577.424.225.102.461.176.705.22.24.044.485.066.73.067.181 0 .36-.006.535-.017.176-.01.338-.028.484-.05a7.247 7.247 0 0 0 .748-.153l.102-1.404a1.265 1.265 0 0 1-.204.06c-.08.016-.167.033-.263.05ZM100.835 10.464a3.08 3.08 0 0 0-1.249-.956 4.382 4.382 0 0 0-1.724-.321 4.24 4.24 0 0 0-1.733.338c-.497.217-.94.54-1.3.947a4.143 4.143 0 0 0-.814 1.463 6.09 6.09 0 0 0-.28 1.904 5.107 5.107 0 0 0 .5 2.36 3.314 3.314 0 0 0 1.487 1.472c.753.353 1.58.524 2.412.499.4.003.8-.022 1.198-.076a5.785 5.785 0 0 0 1.894-.618l.119-1.303c-.216.08-.434.158-.654.237-.221.08-.451.15-.688.212-.24.062-.484.108-.73.135a6.576 6.576 0 0 1-.748.042 5.378 5.378 0 0 1-1.325-.143 2.183 2.183 0 0 1-.943-.491 2.142 2.142 0 0 1-.578-.939 4.27 4.27 0 0 1-.185-1.117h6.139c.084-.7.052-1.408-.093-2.098a3.95 3.95 0 0 0-.705-1.547Zm-4.28.406c.398-.241.858-.362 1.324-.347.467-.023.927.111 1.308.38.338.27.58.64.688 1.058.085.309.127.627.124.947H95.53c.032-.337.104-.67.216-.99.145-.428.429-.797.807-1.048ZM107.307 9.313a3.355 3.355 0 0 0-.901.39 4.46 4.46 0 0 0-.798.634c-.04.04-.079.084-.119.126v-1.26l-1.733.254V18h1.733V11.61a4.423 4.423 0 0 1 .926-.494 5.55 5.55 0 0 1 .535-.178 3.619 3.619 0 0 1 1.189-.127l.204-1.59a3.244 3.244 0 0 0-1.036.093Z"/></svg>