<svg xmlns="http://www.w3.org/2000/svg" viewBox="0 0 58 24"><path fill="#064E42" d="M0 0h58v24H0z"/><path fill="#fff" d="M6.004 18V6.001h3.937V18H6.004Zm9.294-10.09L17.562 18h-4.309L10.55 6.001h2.416a2.276 2.276 0 0 1 1.513.55c.42.345.71.826.82 1.36ZM18.154 18V6.001h3.937V18h-3.937Zm6.91-7.436a2.383 2.383 0 0 1-2.4-2.4 2.303 2.303 0 0 1 .323-1.2 2.411 2.411 0 0 1 3.278-.861c.355.209.652.506.861.861.215.363.326.778.322 1.2a2.4 2.4 0 0 1-1.183 2.079 2.302 2.302 0 0 1-1.2.321ZM28.057 18V6.001h3.937V18h-3.937Zm8.922-5.442c.011.012.096.15.253.414.158.265.364.603.617 1.014a315.936 315.936 0 0 1 1.597 2.62c.247.411.529.876.845 1.394h-4.326c-.27-.44-.516-.837-.735-1.191-.22-.355-.453-.738-.7-1.15-.249-.41-.494-.81-.737-1.2-.242-.389-.45-.73-.625-1.022-.174-.293-.296-.49-.363-.591a1.748 1.748 0 0 1-.287-.845c.017-.29.11-.57.27-.812.068-.113.192-.313.372-.6s.391-.628.633-1.022c.243-.395.488-.797.736-1.209l.7-1.157.736-1.2h4.326l-3.346 5.458a1.08 1.08 0 0 0-.17.542c.012.201.082.395.203.557h.001Z"/><path fill="#BEF7ED" d="M51.974 13.504a2.66 2.66 0 0 0-.54-.912 2.63 2.63 0 0 0-.887-.626 4.282 4.282 0 0 0-1.209-.32v-.051a4.19 4.19 0 0 0 1.386-.752c.366-.3.668-.671.887-1.09.208-.402.315-.849.313-1.301a2.34 2.34 0 0 0-.253-1.107 2.356 2.356 0 0 0-.744-.828A3.45 3.45 0 0 0 49.736 6a6.843 6.843 0 0 0-1.597-.168 7.704 7.704 0 0 0-1.056.076c-.362.05-.72.123-1.073.22a4.99 4.99 0 0 0-.98.38l.236 1.334c.248-.101.488-.188.719-.262a6.786 6.786 0 0 1 1.293-.279c.196-.022.393-.033.59-.033a4.81 4.81 0 0 1 1.066.101c.253.051.494.152.71.296.174.123.312.293.396.49.09.223.133.461.127.701.005.33-.073.655-.228.946a2.189 2.189 0 0 1-.642.727c-.3.214-.634.374-.988.473a4.471 4.471 0 0 1-1.268.17h-.321l-.203 1.317h.541c.499-.007.997.036 1.487.127.367.065.72.197 1.039.388.262.16.475.388.617.66.141.292.21.613.203.937.008.328-.055.654-.186.955a1.628 1.628 0 0 1-.566.659 2.69 2.69 0 0 1-.963.389c-.453.09-.915.133-1.377.126-.17 0-.336-.005-.5-.017a7.869 7.869 0 0 1-1.081-.144c-.196-.039-.413-.086-.65-.143l-.22 1.436c.248.046.487.088.719.127.23.04.459.074.684.102a9.705 9.705 0 0 0 1.284.076 8.328 8.328 0 0 0 1.605-.144c.45-.084.885-.232 1.293-.44.356-.18.676-.423.946-.717.254-.283.45-.613.575-.972.134-.394.2-.809.194-1.225a3.468 3.468 0 0 0-.187-1.166Z"/></svg>