<svg xmlns="http://www.w3.org/2000/svg" viewBox="0 0 64 41"><path fill="#fff" d="M0 18V6.001h3.937V18H0ZM9.294 7.91 11.558 18H7.25L4.545 6.001h2.417a2.276 2.276 0 0 1 1.513.55c.42.345.71.826.819 1.36ZM12.149 18V6.001h3.938V18h-3.938Zm6.912-7.436a2.382 2.382 0 0 1-2.4-2.4 2.301 2.301 0 0 1 .321-1.2 2.41 2.41 0 0 1 3.278-.861c.356.209.653.506.862.861.215.363.326.778.321 1.2a2.35 2.35 0 0 1-.321 1.209 2.4 2.4 0 0 1-.862.87 2.302 2.302 0 0 1-1.2.321ZM22.05 18V6.001h3.938V18h-3.937Zm8.923-5.442c.01.012.095.15.253.414.158.265.364.603.617 1.014a315.936 315.936 0 0 1 1.597 2.62c.247.411.529.876.845 1.394H29.96c-.27-.44-.516-.837-.736-1.191-.22-.355-.453-.738-.7-1.15-.248-.41-.493-.81-.736-1.2-.242-.389-.45-.73-.625-1.022-.175-.293-.296-.49-.363-.591a1.747 1.747 0 0 1-.287-.845c.016-.29.11-.57.27-.812.067-.113.191-.313.371-.6s.392-.628.634-1.022c.242-.395.488-.797.736-1.209a516 516 0 0 1 .7-1.157L29.96 6h4.326l-3.346 5.458a1.08 1.08 0 0 0-.17.542c.012.201.082.395.203.557Z"/><path fill="#9FDAF5" d="m8.596 32.282-7.22-9.139H0v12.012h1.597V26.01l7.237 9.144h1.376V23.143H8.596v9.139ZM18.652 26.611l-.013 6.336a8.206 8.206 0 0 1-.368.203 5.7 5.7 0 0 1-.637.279 3.42 3.42 0 0 1-.637.17 4.206 4.206 0 0 1-.67.05 2.024 2.024 0 0 1-1.003-.22 1.352 1.352 0 0 1-.586-.685 3.005 3.005 0 0 1-.196-1.16v-5.227l-1.732.254v5.312c-.021.641.089 1.28.323 1.878.187.466.533.852.977 1.091.503.246 1.06.365 1.622.347.468.003.934-.074 1.376-.228a4.88 4.88 0 0 0 1.223-.644c.103-.074.205-.152.307-.234l-.002.733c0 .846-.198 1.489-.594 1.928-.397.44-1.07.66-2.022.66-.26 0-.527-.011-.798-.034a6.439 6.439 0 0 1-.807-.118 9.004 9.004 0 0 1-1.623-.508l.188 1.506a8.378 8.378 0 0 0 2.293.55c.283.028.572.042.866.042a5.415 5.415 0 0 0 1.809-.279 3.827 3.827 0 0 0 1.334-.778c.36-.331.642-.739.824-1.193.192-.49.287-1.013.28-1.54l-.017-8.746-1.717.255ZM29.558 26.695a3.318 3.318 0 0 0-1.614-.355 4.84 4.84 0 0 0-1.47.229 5.7 5.7 0 0 0-1.74.905v-5.092L23 22.635v12.52h1.732v-6.501a5.572 5.572 0 0 1 1.155-.478c.243-.072.49-.128.74-.169.232-.039.468-.059.704-.06.272-.005.543.038.799.128.216.077.409.208.56.38.157.187.267.407.323.643.073.299.107.606.102.914v5.143h1.733v-5.499a4.668 4.668 0 0 0-.323-1.878 2.222 2.222 0 0 0-.968-1.082ZM40.005 27.618a3.084 3.084 0 0 0-1.248-.956 4.381 4.381 0 0 0-1.724-.322 4.236 4.236 0 0 0-1.733.339c-.498.217-.942.54-1.3.947a4.143 4.143 0 0 0-.815 1.464 6.09 6.09 0 0 0-.28 1.903 5.103 5.103 0 0 0 .5 2.36 3.314 3.314 0 0 0 1.487 1.472 5.3 5.3 0 0 0 2.412.5c.4.002.8-.023 1.198-.077a5.78 5.78 0 0 0 1.894-.618l.119-1.302a83.11 83.11 0 0 1-.654.237c-.221.079-.45.149-.688.211-.24.063-.484.108-.73.135a6.574 6.574 0 0 1-.748.043 5.376 5.376 0 0 1-1.325-.144 2.18 2.18 0 0 1-.943-.49 2.138 2.138 0 0 1-.577-.94 4.284 4.284 0 0 1-.186-1.116h6.14c.083-.7.051-1.409-.094-2.098a3.946 3.946 0 0 0-.705-1.548Zm-4.28.406c.398-.241.858-.362 1.324-.347.467-.023.928.111 1.308.38.339.27.58.64.688 1.058.085.309.127.628.124.948h-4.467c.031-.338.104-.67.215-.99.145-.43.43-.798.807-1.05ZM47.403 33.793l-.288.05a2.537 2.537 0 0 1-.28.035 3.92 3.92 0 0 1-.256.008 1.716 1.716 0 0 1-.755-.153 1.092 1.092 0 0 1-.485-.448 1.423 1.423 0 0 1-.17-.719V27.88h2.396l.187-1.353h-2.583v-2.674l-1.732.61v2.064h-1.308l-.187 1.353h1.495v5.042c-.008.336.044.67.153.99.087.251.223.484.399.685.161.178.358.322.577.422.225.103.462.177.705.22.241.044.486.067.73.068.182 0 .36-.006.536-.017.176-.01.337-.028.484-.05a7.259 7.259 0 0 0 .748-.153l.101-1.404a1.264 1.264 0 0 1-.203.06c-.08.016-.168.033-.264.05ZM55.974 27.618a3.084 3.084 0 0 0-1.25-.956 4.382 4.382 0 0 0-1.723-.322 4.24 4.24 0 0 0-1.733.339c-.498.217-.941.54-1.3.947a4.142 4.142 0 0 0-.815 1.463 6.091 6.091 0 0 0-.28 1.904 5.107 5.107 0 0 0 .5 2.36 3.314 3.314 0 0 0 1.487 1.472c.754.353 1.58.524 2.413.499.4.003.8-.022 1.197-.076a5.773 5.773 0 0 0 1.894-.618l.12-1.303c-.216.08-.434.158-.655.237-.22.08-.45.15-.688.212a5.13 5.13 0 0 1-.73.135 6.573 6.573 0 0 1-.748.042 5.38 5.38 0 0 1-1.325-.143 2.183 2.183 0 0 1-.942-.491 2.141 2.141 0 0 1-.578-.939 4.27 4.27 0 0 1-.185-1.117h6.139a6.45 6.45 0 0 0-.094-2.098 3.946 3.946 0 0 0-.704-1.547Zm-4.281.406c.398-.241.859-.362 1.325-.347.466-.023.927.111 1.308.38.338.27.58.64.687 1.058.085.309.127.628.124.948H50.67c.031-.338.104-.67.215-.99.146-.43.43-.798.808-1.05ZM62.445 26.467c-.318.085-.62.216-.9.39a4.43 4.43 0 0 0-.799.634c-.04.04-.079.084-.119.126v-1.26l-1.732.254v8.543h1.732v-6.391a4.448 4.448 0 0 1 .926-.494c.176-.068.354-.127.536-.178a3.616 3.616 0 0 1 1.189-.127l.203-1.59a3.248 3.248 0 0 0-1.036.093Z"/></svg>