<svg width="122" height="21" viewBox="0 0 122 21" fill="none" xmlns="http://www.w3.org/2000/svg">
<path d="M0 16.0029V4.00396H3.93719V16.0029H0ZM9.29381 5.91365L11.5581 16.0029H7.24917L4.54549 4.00396H6.96218C7.51635 3.99677 8.05406 4.19212 8.4745 4.55326C8.89562 4.89925 9.18495 5.37957 9.29381 5.91365ZM12.1495 16.0029V4.00396H16.0867V16.0029H12.1495ZM19.0605 8.56697C18.6362 8.57111 18.2188 8.4601 17.8525 8.24583C17.4912 8.03699 17.1911 7.73683 16.9823 7.37547C16.7678 7.0092 16.6568 6.59163 16.661 6.16719C16.6561 5.74533 16.7672 5.33025 16.9823 4.9673C17.1933 4.60986 17.4931 4.31296 17.8525 4.10539C18.2189 3.89137 18.6362 3.78038 19.0605 3.78425C19.4822 3.77971 19.8971 3.8908 20.2602 4.10539C20.616 4.31478 20.9127 4.61143 21.122 4.9673C21.3368 5.33035 21.4479 5.74536 21.4433 6.16719C21.4473 6.5916 21.3363 7.0091 21.122 7.37547C20.9149 7.73524 20.6179 8.03515 20.2602 8.24583C19.8971 8.46085 19.4819 8.57196 19.0599 8.56697H19.0605ZM22.0516 16.0029V4.00396H25.9892V16.0029H22.0516ZM30.9737 10.5611C30.9848 10.5727 31.0693 10.7108 31.2272 10.9751C31.3851 11.2395 31.5906 11.5776 31.8439 11.9892C32.0974 12.4006 32.3649 12.8371 32.6463 13.2989C32.9278 13.7606 33.1926 14.1972 33.4408 14.6086C33.6881 15.0201 33.9697 15.4848 34.2857 16.0029H29.9598C29.6893 15.5635 29.4441 15.1663 29.2245 14.8114C29.0048 14.4565 28.7713 14.0735 28.5238 13.6622C28.2758 13.2514 28.0306 12.8514 27.7882 12.4623C27.5458 12.0733 27.3375 11.7325 27.1633 11.4399C26.9883 11.1472 26.8671 10.95 26.7997 10.8484C26.6325 10.5963 26.5336 10.3052 26.5127 10.0034C26.5294 9.7138 26.6226 9.43385 26.7828 9.19198C26.8504 9.07931 26.9743 8.8793 27.1545 8.592C27.3348 8.3047 27.546 7.96392 27.7882 7.56959C28.0304 7.17526 28.2756 6.77247 28.5238 6.36124C28.772 5.95001 29.0056 5.5641 29.2245 5.20357C29.4445 4.84342 29.6897 4.44345 29.9598 4.00368H34.2857L30.9396 9.46237C30.8361 9.62443 30.7777 9.81121 30.7706 10.0034C30.7818 10.2052 30.8522 10.3992 30.9731 10.5611H30.9737Z" fill="white"/>
<path d="M38.8572 5.476H42.7354V16.0099H44.5136V5.476H48.3752V3.98566H38.8572V5.476Z" fill="#9FDAF5"/>
<path d="M56.5381 8.4651C56.2131 8.04374 55.7841 7.71404 55.2933 7.50826C54.7481 7.2857 54.1633 7.17622 53.5744 7.18648C52.9812 7.17641 52.3925 7.29183 51.847 7.5252C51.3508 7.74245 50.9084 8.06623 50.5514 8.47358C50.1836 8.90153 49.9069 9.39999 49.7382 9.9385C49.5452 10.5549 49.451 11.1979 49.4591 11.8437C49.4351 12.6598 49.6063 13.4697 49.9584 14.2062C50.2803 14.8445 50.8002 15.3614 51.4402 15.6796C52.1913 16.0334 53.0155 16.2046 53.8454 16.1792C54.2446 16.1827 54.6435 16.1572 55.039 16.103C55.3697 16.0554 55.6955 15.9789 56.0128 15.8744C56.3275 15.7688 56.6334 15.6386 56.9276 15.4849L57.0462 14.1808C56.8314 14.2599 56.614 14.3389 56.3939 14.4179C56.1737 14.497 55.9451 14.5675 55.708 14.6296C55.4688 14.6923 55.2255 14.7376 54.9798 14.7651C54.7325 14.7933 54.4838 14.8074 54.2349 14.8075C53.7902 14.8146 53.3463 14.7663 52.9136 14.6635C52.5646 14.5801 52.2417 14.4114 51.974 14.1724C51.7033 13.9147 51.5047 13.5907 51.3982 13.2324C51.2875 12.8697 51.2254 12.4938 51.2136 12.1147H57.3338C57.4171 11.4143 57.3856 10.705 57.2407 10.0147C57.1216 9.45335 56.8819 8.92459 56.5381 8.4651ZM52.2704 8.87156C52.6677 8.63035 53.1265 8.50974 53.591 8.52438C54.0562 8.50113 54.5156 8.63539 54.8951 8.90544C55.2324 9.17455 55.4732 9.54604 55.581 9.96391C55.6654 10.2729 55.707 10.592 55.7046 10.9123H51.2506C51.2822 10.5746 51.3544 10.242 51.4656 9.92157C51.6103 9.49214 51.8933 9.12284 52.2704 8.87156Z" fill="#9FDAF5"/>
<path d="M64.8785 7.40664C64.6198 7.33582 64.3568 7.28209 64.091 7.24577C63.7878 7.205 63.4822 7.18519 63.1762 7.18649C62.6237 7.18422 62.0765 7.29367 61.5674 7.50826C61.0572 7.72423 60.5941 8.03774 60.2041 8.43124C59.7884 8.85554 59.4679 9.36362 59.2641 9.92157C59.0279 10.5755 58.9131 11.2671 58.9254 11.9623C58.9069 12.7271 59.0541 13.4868 59.357 14.1893C59.6225 14.7901 60.0621 15.2974 60.619 15.6458C61.2283 16.0052 61.927 16.1843 62.634 16.1623C63.2552 16.1601 63.8702 16.0394 64.4461 15.8066C64.7903 15.6664 65.1148 15.4821 65.4115 15.2582V15.722C65.4184 16.1035 65.3641 16.4838 65.2508 16.8482C65.153 17.1539 64.9848 17.4323 64.7597 17.6611C64.517 17.8941 64.2201 18.0629 63.8957 18.1522C63.4739 18.2681 63.0375 18.3223 62.6001 18.3131C62.2522 18.3126 61.9046 18.2928 61.5589 18.2538C61.1958 18.2128 60.8363 18.1449 60.4832 18.0506C60.1197 17.9537 59.7632 17.8321 59.4163 17.6865L59.6026 19.1768C59.914 19.3032 60.2338 19.4079 60.5597 19.4901C60.9024 19.5767 61.2502 19.6417 61.601 19.6849C61.9718 19.7305 62.3451 19.7531 62.7187 19.7526C63.5522 19.7787 64.3806 19.6136 65.1405 19.27C65.7574 18.9827 66.2737 18.5165 66.6223 17.9321C66.9634 17.3314 67.1361 16.6497 67.1222 15.9591V7.18649L65.4656 7.6127C65.2744 7.53175 65.0784 7.46292 64.8785 7.40664ZM65.1916 14.1893C64.9818 14.3113 64.764 14.4188 64.5396 14.5111C64.3419 14.5923 64.138 14.6574 63.9299 14.7058C63.7271 14.7517 63.5199 14.7744 63.312 14.7736C62.8033 14.792 62.2985 14.6782 61.8468 14.4433C61.4533 14.2187 61.1486 13.8661 60.9834 13.4441C60.7792 12.8948 60.6843 12.3109 60.7039 11.7252C60.6963 11.2578 60.7619 10.7921 60.8984 10.345C61.0094 9.97748 61.2003 9.63914 61.4576 9.35423C61.708 9.08934 62.0146 8.88391 62.3549 8.75302C62.7415 8.60653 63.1524 8.5347 63.5658 8.54132C63.8326 8.54112 64.099 8.56378 64.362 8.60906C64.6313 8.6566 64.8972 8.72166 65.158 8.80382C65.241 8.82979 65.3273 8.86422 65.412 8.89583V14.0589C65.3375 14.1035 65.2616 14.1492 65.1916 14.1893Z" fill="#9FDAF5"/>
<path d="M76.3859 7.54213C75.8828 7.288 75.3234 7.16563 74.7601 7.18649C74.2685 7.18744 73.7801 7.26457 73.3121 7.41511C72.8299 7.56874 72.3711 7.78814 71.9488 8.06713C71.7854 8.17467 71.6282 8.29293 71.4746 8.4143V7.20342L69.7472 7.45746V16.0099H71.4746V9.57777C71.6419 9.47985 71.8143 9.39109 71.9911 9.31188C72.229 9.20658 72.4721 9.11332 72.7194 9.03245C72.9573 8.95472 73.2007 8.89527 73.4476 8.85462C73.6799 8.81596 73.9149 8.79615 74.1504 8.79536C74.4268 8.78895 74.7021 8.83197 74.9633 8.92238C75.1789 9.00004 75.3712 9.13114 75.5222 9.30342C75.6777 9.49022 75.7878 9.71048 75.844 9.94696C75.9161 10.2463 75.9503 10.5536 75.9456 10.8615V16.0099H77.673V10.5058C77.6955 9.86381 77.586 9.22398 77.3512 8.62599C77.1599 8.16677 76.82 7.78509 76.3859 7.54213Z" fill="#9FDAF5"/>
<path d="M85.5816 12.1147C85.4082 11.931 85.2084 11.774 84.9889 11.649C84.7615 11.5188 84.5235 11.4083 84.2773 11.3187C84.0966 11.2623 83.9188 11.203 83.7438 11.1409C83.5688 11.0788 83.3938 11.0224 83.2188 10.9715C83.0438 10.9207 82.8745 10.8671 82.7107 10.8107C82.5573 10.7584 82.4073 10.6962 82.262 10.6244C82.1227 10.5505 81.9896 10.4655 81.864 10.3703C81.748 10.2829 81.6503 10.1736 81.5763 10.0486C81.5016 9.92017 81.4634 9.77375 81.466 9.62519C81.4614 9.46191 81.5026 9.3006 81.5848 9.15946C81.6732 9.02081 81.7957 8.90713 81.9405 8.82922C82.1176 8.73187 82.3091 8.66326 82.5078 8.62599C82.7561 8.57835 83.0086 8.55566 83.2614 8.55825C83.3854 8.55825 83.5208 8.56417 83.6679 8.57518C83.8149 8.58619 83.9753 8.60652 84.1506 8.63446C84.3258 8.66241 84.5003 8.69967 84.6753 8.74455C84.8503 8.78943 85.0281 8.84051 85.209 8.89696C85.3765 8.94843 85.5404 9.01065 85.6998 9.08324L85.8187 7.71147C85.604 7.62115 85.3923 7.54213 85.1836 7.47439C84.975 7.4068 84.7631 7.35026 84.5485 7.30502C84.339 7.26063 84.1269 7.22954 83.9134 7.21189C83.7044 7.19495 83.4984 7.18648 83.2953 7.18648C82.8275 7.18169 82.3609 7.23575 81.9066 7.34737C81.518 7.44174 81.1485 7.60213 80.8143 7.82156C80.5111 8.022 80.2635 8.2958 80.0945 8.61753C79.9175 8.97202 79.8303 9.36457 79.8405 9.76067C79.8353 10.046 79.8813 10.3299 79.9762 10.599C80.0565 10.8248 80.177 11.0342 80.3319 11.2171C80.4825 11.3899 80.6563 11.5409 80.8484 11.6659C81.0484 11.7971 81.2612 11.9078 81.4835 11.9961C81.6075 12.0413 81.7373 12.0865 81.873 12.1316C82.0087 12.1768 82.1413 12.2191 82.271 12.2586C82.4005 12.2984 82.5276 12.3377 82.6518 12.3772C82.776 12.4167 82.8973 12.4562 83.0159 12.4958C83.1344 12.5353 83.2501 12.572 83.3633 12.6058C83.5147 12.6595 83.6618 12.7246 83.8034 12.8006C83.9277 12.8664 84.0442 12.9459 84.1508 13.0377C84.2445 13.1196 84.3195 13.2206 84.3707 13.334C84.4227 13.4513 84.4487 13.5784 84.4472 13.7066C84.4532 13.8319 84.4313 13.957 84.3829 14.0727C84.3345 14.1884 84.2609 14.2919 84.1675 14.3756C83.9579 14.5508 83.7074 14.6702 83.4393 14.7228C83.1252 14.7921 82.8043 14.8262 82.4827 14.8244C82.2816 14.823 82.0808 14.8088 81.8815 14.782C81.6613 14.7542 81.4299 14.7147 81.1871 14.6635C80.9444 14.6123 80.6959 14.5502 80.4417 14.4772C80.1878 14.404 79.9311 14.3222 79.6714 14.2316L79.7391 15.6712C80.0323 15.7728 80.3005 15.8546 80.5436 15.9167C80.7867 15.9788 81.0181 16.0324 81.2379 16.0776C81.4501 16.1216 81.6652 16.1499 81.8815 16.1623C82.0902 16.1736 82.3018 16.1792 82.5166 16.1792C82.9888 16.1816 83.46 16.1334 83.9219 16.0353C84.3286 15.9526 84.7181 15.8008 85.0735 15.5865C85.3939 15.3909 85.6592 15.117 85.8444 14.7905C86.0382 14.4322 86.1345 14.0292 86.1235 13.622C86.1306 13.3248 86.0818 13.0289 85.9796 12.7498C85.8887 12.5146 85.7536 12.2991 85.5816 12.1147Z" fill="#9FDAF5"/>
<path d="M94.6844 7.71994C94.0766 7.34779 93.3729 7.16229 92.6606 7.18647C92.2379 7.18854 91.817 7.24258 91.4074 7.34736C90.9647 7.45986 90.538 7.62772 90.1372 7.84696C90.0577 7.89015 89.9789 7.93813 89.9002 7.98668V7.20341L88.1727 7.47438V19.5663H89.9002V15.7747C89.9117 15.7795 89.9225 15.7849 89.934 15.7897C90.2469 15.9197 90.5736 16.0135 90.9078 16.0691C91.3024 16.1342 91.7018 16.1654 92.1018 16.1623C92.8643 16.1754 93.6161 15.9823 94.278 15.6034C94.9278 15.2181 95.4561 14.6576 95.8022 13.9861C96.2022 13.1854 96.3971 12.298 96.3695 11.4034C96.3853 10.6471 96.2381 9.8962 95.9379 9.2018C95.6728 8.59665 95.2372 8.08176 94.6844 7.71994ZM94.2356 13.3849C94.0322 13.8346 93.6912 14.2082 93.2618 14.4518C92.7845 14.7018 92.2508 14.8243 91.7122 14.8074C91.4542 14.8076 91.1966 14.7877 90.9417 14.7482C90.6742 14.7055 90.4107 14.6403 90.1542 14.5534C90.0729 14.5252 89.9848 14.493 89.9002 14.462V9.1174C89.9227 9.10696 89.9456 9.0934 89.9679 9.08324C90.2159 8.97034 90.4473 8.87438 90.6622 8.79535C90.8654 8.71952 91.0752 8.66281 91.2888 8.62598C91.4791 8.59326 91.6717 8.57627 91.8647 8.57518C92.3868 8.55788 92.9049 8.67142 93.3719 8.90543C93.7803 9.12777 94.1001 9.48343 94.278 9.91308C94.4934 10.4627 94.5944 11.0505 94.5746 11.6405C94.5925 12.2399 94.4767 12.8358 94.2356 13.3849Z" fill="#9FDAF5"/>
<path d="M102.008 7.31293C101.692 7.39781 101.389 7.52907 101.111 7.70245C100.822 7.88274 100.555 8.09585 100.315 8.33753C100.275 8.37733 100.236 8.4222 100.197 8.46425V7.20284L98.4689 7.45688V16.0093H100.197V9.61108C100.325 9.52144 100.458 9.43835 100.595 9.36213C100.764 9.26883 100.939 9.1868 101.12 9.11656C101.294 9.04882 101.472 8.98954 101.653 8.93874C101.839 8.88702 102.028 8.8502 102.22 8.82865C102.425 8.80585 102.632 8.80018 102.839 8.81172L103.042 7.21978C102.695 7.19484 102.346 7.2263 102.008 7.31293Z" fill="#9FDAF5"/>
<path d="M111.95 14.9429C111.826 14.9543 111.701 14.9356 111.586 14.8884C111.471 14.8412 111.37 14.767 111.289 14.672C111.132 14.4006 111.067 14.0858 111.103 13.7744L111.137 10.2857C111.141 9.91993 111.095 9.55536 111.001 9.2018C110.919 8.89173 110.782 8.59911 110.595 8.33809C110.407 8.0828 110.167 7.86942 109.892 7.71147C109.573 7.53006 109.227 7.39869 108.868 7.32195C108.428 7.22701 107.979 7.18157 107.53 7.18647C107.173 7.18632 106.817 7.20894 106.463 7.25421C106.128 7.29629 105.797 7.36136 105.472 7.44897C105.17 7.53083 104.873 7.62978 104.583 7.74534L104.38 9.18487C104.662 9.08325 104.93 8.99857 105.184 8.93083C105.438 8.86309 105.684 8.80664 105.921 8.76148C106.153 8.71709 106.388 8.68599 106.624 8.66833C106.855 8.65139 107.084 8.64292 107.31 8.64292C107.655 8.63565 108 8.67555 108.334 8.76148C108.578 8.82257 108.803 8.94499 108.986 9.11713C109.15 9.28459 109.266 9.49183 109.325 9.71832C109.397 9.99753 109.431 10.2852 109.426 10.5736L109.425 10.9986L107.445 11.1324C106.768 11.1513 106.101 11.3008 105.481 11.5728C105.016 11.7759 104.615 12.1006 104.32 12.5127C104.07 12.8794 103.937 13.3135 103.939 13.7574C103.936 14.174 104.038 14.5847 104.236 14.9514C104.443 15.3281 104.755 15.6369 105.133 15.8405C105.595 16.0808 106.112 16.1975 106.632 16.1792C107.12 16.1904 107.605 16.11 108.063 15.9421C108.459 15.7871 108.821 15.5571 109.13 15.2647C109.247 15.1523 109.358 15.0339 109.463 14.9099C109.496 15.0852 109.558 15.2538 109.647 15.4087C109.798 15.6679 110.03 15.8703 110.307 15.9845C110.614 16.1076 110.942 16.1681 111.272 16.1623C111.374 16.1623 111.473 16.1595 111.569 16.1538C111.663 16.1481 111.757 16.134 111.848 16.1115C111.939 16.0886 112.02 16.0691 112.094 16.0522C112.16 16.0374 112.225 16.0176 112.289 15.9929L112.475 14.8582C112.381 14.8903 112.285 14.913 112.187 14.926C112.108 14.9365 112.029 14.9421 111.95 14.9429ZM109.13 14.1808C108.947 14.326 108.748 14.451 108.537 14.5534C108.328 14.6552 108.106 14.7292 107.877 14.7736C107.64 14.8193 107.399 14.8419 107.157 14.8413C106.881 14.8492 106.607 14.7972 106.353 14.6889C106.146 14.5992 105.972 14.4485 105.853 14.257C105.736 14.054 105.677 13.8225 105.684 13.5881C105.667 13.3057 105.745 13.0259 105.904 12.7921C106.088 12.5769 106.338 12.4282 106.615 12.3687C107.048 12.2668 107.492 12.2212 107.936 12.2333H109.419L109.412 13.9141C109.326 14.0109 109.231 14.1002 109.13 14.1808Z" fill="#9FDAF5"/>
<path d="M106.539 5.83164C106.859 5.983 107.21 6.05834 107.564 6.05179C107.927 6.05892 108.286 5.9806 108.614 5.82316C108.909 5.67965 109.158 5.45682 109.333 5.17963C109.514 4.88147 109.605 4.5375 109.596 4.1889C109.607 3.93603 109.562 3.68383 109.466 3.44985C109.369 3.21587 109.223 3.00574 109.037 2.83406C108.64 2.48642 108.125 2.30453 107.597 2.32598C107.245 2.322 106.895 2.3942 106.573 2.53768C106.27 2.67236 106.014 2.89325 105.836 3.17276C105.648 3.48358 105.553 3.8425 105.565 4.20583C105.553 4.55737 105.645 4.90468 105.828 5.20502C106.002 5.47564 106.248 5.69256 106.539 5.83164ZM106.81 3.39293C106.917 3.29816 107.042 3.22544 107.177 3.17894C107.312 3.13244 107.455 3.11307 107.597 3.12195C107.807 3.11249 108.016 3.16238 108.199 3.26591C108.347 3.35684 108.464 3.4894 108.537 3.64697C108.613 3.81737 108.651 4.00237 108.647 4.1889C108.651 4.37632 108.61 4.56193 108.529 4.73083C108.452 4.8865 108.332 5.01612 108.182 5.10341C107.997 5.20158 107.789 5.24837 107.58 5.23889C107.382 5.24477 107.185 5.20418 107.005 5.12035C106.85 5.04495 106.724 4.91971 106.649 4.7647C106.565 4.58459 106.525 4.38744 106.53 4.1889C106.52 4.04416 106.54 3.89883 106.588 3.76191C106.636 3.62499 106.711 3.49941 106.81 3.39293Z" fill="#9FDAF5"/>
<path d="M119.3 16.0099H121.535L117.427 11.3808L121.45 7.37276H119.333L116.436 10.5566H115.811V3.22358L114.083 3.4776V16.0099H115.811V11.8607H115.839L119.3 16.0099Z" fill="#9FDAF5"/>
</svg>
