<svg xmlns="http://www.w3.org/2000/svg" fill="currentColor" viewBox="0 0 83 35"><path d="M0 13V1.001h3.937V13H0ZM9.294 2.91 11.558 13H7.25L4.545 1.001h2.417a2.276 2.276 0 0 1 1.513.55c.42.345.71.826.819 1.36ZM12.149 13V1.001h3.938V13h-3.938Zm6.912-7.436a2.382 2.382 0 0 1-2.4-2.4 2.301 2.301 0 0 1 .321-1.2 2.41 2.41 0 0 1 3.278-.861c.356.209.653.506.862.861.215.363.326.778.321 1.2a2.35 2.35 0 0 1-.321 1.209 2.4 2.4 0 0 1-.862.87 2.302 2.302 0 0 1-1.2.321ZM22.05 13V1.001h3.938V13h-3.937Zm8.923-5.442c.01.012.095.15.253.414.158.265.364.603.617 1.014a314.643 314.643 0 0 1 1.597 2.62c.247.411.529.876.845 1.394H29.96c-.27-.44-.516-.836-.736-1.191-.22-.355-.453-.738-.7-1.15-.248-.41-.493-.81-.736-1.2-.242-.389-.45-.73-.625-1.022a17.98 17.98 0 0 0-.363-.591A1.747 1.747 0 0 1 26.513 7c.016-.29.11-.57.27-.812.067-.113.191-.313.371-.6s.392-.628.634-1.022c.242-.395.488-.797.736-1.209a516 516 0 0 1 .7-1.157L29.96 1h4.326L30.94 6.46a1.08 1.08 0 0 0-.17.54c.012.202.082.396.203.558ZM0 19.616h3.878V30.15h1.778V19.616h3.862v-1.49H0v1.49ZM17.68 22.605a3.073 3.073 0 0 0-1.244-.957 4.35 4.35 0 0 0-1.719-.322 4.21 4.21 0 0 0-1.727.34 3.692 3.692 0 0 0-1.296.947 4.152 4.152 0 0 0-.813 1.465 6.122 6.122 0 0 0-.28 1.906 5.128 5.128 0 0 0 .5 2.362 3.31 3.31 0 0 0 1.482 1.474 5.266 5.266 0 0 0 2.405.5c.4.003.798-.023 1.194-.077.33-.048.656-.124.974-.229.314-.105.62-.235.914-.39l.119-1.303-.652.237a8.13 8.13 0 0 1-.686.212c-.24.062-.483.108-.728.135a6.598 6.598 0 0 1-.745.042 5.347 5.347 0 0 1-1.322-.143 2.167 2.167 0 0 1-.94-.492 2.14 2.14 0 0 1-.575-.94 4.287 4.287 0 0 1-.185-1.117h6.12c.084-.7.053-1.41-.092-2.1a3.957 3.957 0 0 0-.703-1.55Zm-4.267.407a2.4 2.4 0 0 1 1.32-.348 2.07 2.07 0 0 1 1.305.381c.337.27.578.641.686 1.059.084.309.126.628.123.948h-4.454c.032-.337.104-.67.215-.99.145-.43.428-.8.805-1.05ZM26.021 21.547a6.122 6.122 0 0 0-.787-.161 6.662 6.662 0 0 0-.915-.06 4.1 4.1 0 0 0-1.609.322c-.51.216-.973.53-1.363.923a4.178 4.178 0 0 0-.94 1.49 5.706 5.706 0 0 0-.339 2.041 5.3 5.3 0 0 0 .432 2.227c.265.601.705 1.108 1.262 1.457.61.36 1.308.538 2.015.516a4.883 4.883 0 0 0 1.812-.355c.344-.14.669-.325.965-.549v.464c.007.382-.047.762-.16 1.126a2.049 2.049 0 0 1-.491.813c-.243.233-.54.402-.864.491-.422.116-.859.17-1.296.161-.348 0-.695-.02-1.041-.06a7.403 7.403 0 0 1-1.076-.202 8.243 8.243 0 0 1-1.067-.365l.186 1.49c.312.127.632.232.957.314a8.5 8.5 0 0 0 1.042.195c.37.045.744.068 1.117.068a5.461 5.461 0 0 0 2.422-.483 3.393 3.393 0 0 0 1.482-1.338c.341-.6.514-1.282.5-1.973v-8.773l-1.657.427a4.932 4.932 0 0 0-.587-.206Zm.313 6.782c-.21.122-.427.23-.652.322a3.975 3.975 0 0 1-.61.195c-.202.046-.41.068-.617.067a2.945 2.945 0 0 1-1.465-.33 1.983 1.983 0 0 1-.864-.999 4.5 4.5 0 0 1-.28-1.719 4.475 4.475 0 0 1 .195-1.38c.111-.368.302-.706.56-.99.25-.266.556-.471.897-.602a3.268 3.268 0 0 1 1.21-.212c.267 0 .534.023.797.068.27.048.535.113.796.195.083.026.17.06.254.092v5.163c-.075.044-.15.09-.22.13ZM37.529 21.682a3.334 3.334 0 0 0-1.626-.356c-.492.001-.98.078-1.448.23-.482.153-.941.372-1.363.651-.164.108-.321.226-.475.347v-1.21l-1.727.253v8.553h1.727v-6.432c.168-.098.34-.187.517-.266a7.76 7.76 0 0 1 .728-.28c.238-.077.481-.137.728-.177.233-.04.468-.059.703-.06.277-.006.552.037.813.127.216.078.408.21.559.381.156.187.266.407.322.644.072.3.106.607.101.914v5.149h1.728v-5.504a4.692 4.692 0 0 0-.322-1.88 2.22 2.22 0 0 0-.965-1.084ZM46.724 26.255a2.552 2.552 0 0 0-.592-.466 4.603 4.603 0 0 0-.712-.33c-.18-.057-.358-.116-.533-.178a9.435 9.435 0 0 0-.525-.17 10.7 10.7 0 0 1-.508-.16 3.715 3.715 0 0 1-.45-.187 2.951 2.951 0 0 1-.397-.254 1.11 1.11 0 0 1-.288-.322.814.814 0 0 1-.11-.423.878.878 0 0 1 .119-.466.963.963 0 0 1 .355-.33c.177-.097.369-.166.568-.203.248-.048.5-.07.753-.068a5.492 5.492 0 0 1 .89.076c.175.028.35.066.524.11.175.045.353.096.534.153.167.051.331.114.49.186l.12-1.372a8.073 8.073 0 0 0-.636-.237 6.207 6.207 0 0 0-.635-.169 5.094 5.094 0 0 0-.635-.093 7.671 7.671 0 0 0-.618-.026 5.581 5.581 0 0 0-1.389.161 3.494 3.494 0 0 0-1.092.475c-.303.2-.55.474-.72.796a2.42 2.42 0 0 0-.254 1.143c-.005.285.041.569.136.838.08.226.2.435.356.618.15.173.324.324.516.449.2.131.413.242.635.33a14.742 14.742 0 0 0 .788.263 37.475 37.475 0 0 1 .745.237c.118.04.234.076.347.11.152.053.299.119.44.195.125.065.241.145.348.237a.868.868 0 0 1 .296.669.844.844 0 0 1-.28.668 1.62 1.62 0 0 1-.728.348c-.314.07-.635.103-.956.101a4.741 4.741 0 0 1-.602-.042 8.62 8.62 0 0 1-.694-.119 10.648 10.648 0 0 1-.745-.186c-.254-.073-.511-.155-.77-.245l.067 1.44c.293.1.561.183.804.245s.475.115.695.16c.212.045.427.073.643.085.209.012.42.017.635.017.473.003.944-.046 1.406-.144a3.63 3.63 0 0 0 1.151-.449c.32-.195.586-.47.771-.796.194-.358.29-.76.28-1.168a2.374 2.374 0 0 0-.145-.872 1.974 1.974 0 0 0-.398-.635ZM55.827 21.86a3.639 3.639 0 0 0-2.024-.534 5.16 5.16 0 0 0-1.253.161 5.436 5.436 0 0 0-1.507.64v-.784l-1.727.271v12.092h1.727v-3.791l.034.015c.313.13.64.223.974.28.394.064.794.095 1.194.092a4.235 4.235 0 0 0 2.176-.559 4.023 4.023 0 0 0 1.524-1.617c.4-.8.595-1.688.567-2.583a5.272 5.272 0 0 0-.431-2.201 3.403 3.403 0 0 0-1.254-1.482Zm-.448 5.665c-.204.45-.545.823-.974 1.067a3.13 3.13 0 0 1-1.55.355 4.827 4.827 0 0 1-1.812-.345v-5.345c.023-.01.045-.024.068-.034.248-.113.48-.209.694-.288a3.49 3.49 0 0 1 1.203-.22 3.133 3.133 0 0 1 1.507.33c.408.223.728.578.906 1.008.215.55.316 1.137.296 1.727.018.6-.097 1.196-.338 1.745ZM63.151 21.453c-.316.085-.619.216-.897.39a4.42 4.42 0 0 0-.796.634c-.04.04-.079.085-.118.127v-1.261l-1.728.254v8.552h1.727v-6.398a4.42 4.42 0 0 1 .923-.495c.175-.067.353-.127.534-.177a3.632 3.632 0 0 1 1.185-.127l.204-1.592a3.226 3.226 0 0 0-1.034.093ZM73.093 29.083a.772.772 0 0 1-.66-.271 1.457 1.457 0 0 1-.187-.898l.034-3.488a4.074 4.074 0 0 0-.136-1.084 2.662 2.662 0 0 0-.406-.864 2.293 2.293 0 0 0-.703-.627 3.596 3.596 0 0 0-1.025-.39 6.027 6.027 0 0 0-1.338-.135c-.356 0-.713.023-1.066.068a7.32 7.32 0 0 0-.991.195c-.302.082-.599.18-.89.296l-.203 1.44a9.947 9.947 0 0 1 1.542-.424c.232-.044.467-.075.703-.093.23-.017.46-.025.685-.025.346-.007.69.032 1.025.118.244.061.468.184.652.356.163.167.28.375.339.601.072.28.106.567.101.855l-.002.426-1.98.133a5.256 5.256 0 0 0-1.964.44 2.814 2.814 0 0 0-1.16.94c-.25.367-.383.801-.38 1.245-.004.417.098.828.296 1.194.207.377.518.686.897.89.462.24.978.356 1.499.338.488.011.973-.069 1.431-.237a3.305 3.305 0 0 0 1.067-.677c.117-.113.228-.231.333-.355.033.175.095.344.184.499.15.259.382.461.66.575.307.124.635.184.965.178.102 0 .2-.003.297-.008a1.57 1.57 0 0 0 .28-.043l.245-.059a1.35 1.35 0 0 0 .194-.06l.187-1.134c-.094.032-.19.055-.288.068-.079.01-.158.016-.237.017Zm-2.82-.762c-.184.145-.382.27-.593.372a2.68 2.68 0 0 1-.66.22 3.758 3.758 0 0 1-.72.068 1.913 1.913 0 0 1-.804-.152c-.207-.09-.381-.24-.5-.432a1.266 1.266 0 0 1-.17-.669 1.283 1.283 0 0 1 .22-.796c.185-.215.435-.364.712-.423a5.151 5.151 0 0 1 1.321-.136h1.483l-.008 1.681a2.26 2.26 0 0 1-.281.267ZM67.682 19.972c.32.151.67.226 1.024.22.364.007.723-.071 1.05-.229.295-.143.545-.366.72-.643.181-.299.272-.643.263-.991a1.742 1.742 0 0 0-.56-1.355 2.058 2.058 0 0 0-1.439-.508 2.452 2.452 0 0 0-1.024.212 1.685 1.685 0 0 0-.737.635c-.189.31-.283.67-.271 1.033-.012.351.08.699.263.999.174.27.42.488.71.627Zm.27-2.44a1.085 1.085 0 0 1 .788-.27c.21-.01.419.04.602.144.147.09.265.223.338.38.076.171.114.356.11.543a1.2 1.2 0 0 1-.118.542.88.88 0 0 1-.347.372 1.168 1.168 0 0 1-.602.136 1.275 1.275 0 0 1-.576-.119.77.77 0 0 1-.355-.355 1.277 1.277 0 0 1-.119-.576 1.06 1.06 0 0 1 .28-.796ZM80.442 30.15h2.236l-4.108-4.63 4.023-4.007h-2.117l-2.898 3.184h-.624v-7.334l-1.728.255V30.15h1.728V26h.028l3.46 4.15Z"/></svg>