<svg xmlns="http://www.w3.org/2000/svg" viewBox="0 0 81 24"><path fill="#fff" d="M0 18.003V6.004h3.937v11.999H0Zm9.294-10.09 2.264 10.09H7.25L4.545 6.004h2.417a2.276 2.276 0 0 1 1.513.55c.42.345.71.826.819 1.36Zm2.855 10.09V6.004h3.938v11.999h-3.938Zm6.912-7.436a2.381 2.381 0 0 1-2.078-1.192 2.345 2.345 0 0 1-.322-1.208 2.301 2.301 0 0 1 .321-1.2 2.41 2.41 0 0 1 3.278-.862c.356.21.653.506.862.862.215.363.326.778.321 1.2a2.35 2.35 0 0 1-.321 1.208 2.4 2.4 0 0 1-.862.87 2.302 2.302 0 0 1-1.2.322Zm2.99 7.436V6.004h3.938v11.999h-3.937Zm8.923-5.442c.01.012.095.15.253.414s.364.603.617 1.014a309.436 309.436 0 0 1 1.597 2.62c.247.411.529.876.845 1.394H29.96c-.27-.44-.516-.837-.736-1.192-.22-.355-.453-.738-.7-1.149-.248-.41-.493-.81-.736-1.2a60.12 60.12 0 0 1-.625-1.022 18.04 18.04 0 0 0-.363-.592 1.747 1.747 0 0 1-.287-.845c.016-.29.11-.57.27-.811.067-.113.191-.313.371-.6s.392-.628.634-1.022c.242-.395.488-.798.736-1.209l.7-1.157.736-1.2h4.326l-3.346 5.458a1.079 1.079 0 0 0-.17.541c.012.202.082.396.203.558Z"/><path fill="#F34531" d="M45.366 12.387a3.203 3.203 0 0 0-.846-.617 6.593 6.593 0 0 0-1.023-.414 11.58 11.58 0 0 0-1.116-.288 24.165 24.165 0 0 1-.82-.203 3.775 3.775 0 0 1-.677-.245 2.235 2.235 0 0 1-.516-.339 1.218 1.218 0 0 1-.33-.473 1.832 1.832 0 0 1-.11-.668c-.003-.236.034-.47.11-.694.07-.197.186-.374.338-.516.159-.145.338-.264.533-.355.223-.101.46-.17.702-.203.289-.04.58-.06.871-.059a7.381 7.381 0 0 1 1.59.17c.255.055.506.125.753.21.23.08.454.18.668.297l.236-1.489a4.213 4.213 0 0 0-.752-.304 10.082 10.082 0 0 0-.804-.203 8.024 8.024 0 0 0-.828-.127 8.666 8.666 0 0 0-.863-.042 7.198 7.198 0 0 0-1.776.203c-.495.12-.963.332-1.378.626a2.825 2.825 0 0 0-.897 1.065 3.443 3.443 0 0 0-.313 1.522c-.01.406.057.81.195 1.192.121.32.308.611.55.855.238.238.512.437.811.592.318.163.649.3.99.406.355.113.719.209 1.09.287.305.068.587.138.846.212.242.066.477.154.702.262.194.092.374.211.533.355.151.142.27.315.347.508.09.231.133.478.127.727.004.264-.036.527-.119.778a1.81 1.81 0 0 1-.338.592 1.63 1.63 0 0 1-.541.405 2.732 2.732 0 0 1-.736.22 5.86 5.86 0 0 1-.939.068c-.305 0-.61-.02-.913-.059-.316-.04-.631-.093-.947-.16a9.5 9.5 0 0 1-.922-.246 17.714 17.714 0 0 1-.854-.296l.22 1.675c.288.107.582.2.88.278.27.071.544.128.82.17.264.039.53.07.795.093.265.022.533.034.803.033a8.308 8.308 0 0 0 1.801-.186 4.313 4.313 0 0 0 1.472-.608c.418-.277.757-.66.98-1.108a3.742 3.742 0 0 0 .347-1.7 3.817 3.817 0 0 0-.194-1.286 2.499 2.499 0 0 0-.558-.913ZM54.668 9.723a3.635 3.635 0 0 0-2.02-.532 5.163 5.163 0 0 0-1.252.16 5.44 5.44 0 0 0-1.506.639v-.782l-1.725.27v12.076h1.725v-3.787l.034.016c.313.13.639.223.973.279.394.065.793.096 1.192.093a4.225 4.225 0 0 0 2.173-.559 4.015 4.015 0 0 0 1.522-1.614c.4-.8.595-1.686.567-2.58a5.252 5.252 0 0 0-.432-2.199 3.395 3.395 0 0 0-1.25-1.48Zm-.448 5.658c-.203.45-.544.822-.972 1.065-.477.25-1.01.372-1.548.356a4.827 4.827 0 0 1-1.81-.345v-5.338c.023-.01.046-.024.068-.034.248-.113.479-.209.693-.288a3.476 3.476 0 0 1 1.201-.22 3.125 3.125 0 0 1 1.505.33c.408.222.727.577.905 1.006a4.33 4.33 0 0 1 .296 1.725 4.04 4.04 0 0 1-.338 1.743ZM64.597 9.732a4.64 4.64 0 0 0-2.292-.541 4.618 4.618 0 0 0-2.31.558 3.9 3.9 0 0 0-1.538 1.573 4.973 4.973 0 0 0-.55 2.401 5.183 5.183 0 0 0 .516 2.393 3.53 3.53 0 0 0 1.48 1.531c.688.36 1.456.541 2.232.524a4.767 4.767 0 0 0 2.334-.557 3.939 3.939 0 0 0 1.582-1.59c.393-.751.588-1.59.567-2.436a4.903 4.903 0 0 0-.525-2.325 3.696 3.696 0 0 0-1.496-1.531Zm-.102 5.666c-.19.44-.512.809-.922 1.057a2.628 2.628 0 0 1-1.353.347 2.406 2.406 0 0 1-1.32-.356 2.38 2.38 0 0 1-.879-1.065 4.267 4.267 0 0 1-.321-1.759c-.02-.586.09-1.17.321-1.709.19-.423.506-.778.905-1.014a2.735 2.735 0 0 1 1.395-.339c.38-.01.758.063 1.108.212.307.138.574.35.779.617.218.29.376.621.464.973.106.412.157.835.153 1.26a4.211 4.211 0 0 1-.33 1.776ZM72.25 9.317a3.34 3.34 0 0 0-.897.39c-.288.18-.555.392-.795.633-.04.04-.079.085-.118.127v-1.26l-1.725.254v8.542h1.725v-6.39a4.318 4.318 0 0 1 .922-.494c.174-.068.352-.127.532-.178a3.627 3.627 0 0 1 1.184-.127l.203-1.59a3.232 3.232 0 0 0-1.032.093ZM79.59 16.59c-.08.017-.167.034-.263.051l-.287.05a2.491 2.491 0 0 1-.279.035c-.09.005-.175.008-.254.008a1.712 1.712 0 0 1-.752-.152 1.093 1.093 0 0 1-.482-.448 1.427 1.427 0 0 1-.17-.72V10.73h2.386l.185-1.353h-2.57V6.705l-1.726.609v2.063h-1.302l-.186 1.353h1.488v5.04c-.007.336.044.671.153.99.087.251.222.484.397.684.16.179.357.323.575.423.224.103.46.177.702.22.24.044.483.067.727.068.18 0 .358-.006.533-.017a5.747 5.747 0 0 0 .897-.127c.13-.028.239-.053.33-.076l.1-1.404a1.256 1.256 0 0 1-.202.06Z"/></svg>