<svg xmlns="http://www.w3.org/2000/svg" viewBox="0 0 359 70"><path fill="#fff" d="M0 56V14.004h13.78V56H0Zm32.528-35.312L40.453 56h-15.08l-9.464-41.996h8.459a7.965 7.965 0 0 1 5.293 1.922 8.31 8.31 0 0 1 2.867 4.762ZM42.523 56V14.004h13.78V56h-13.78Zm24.189-26.026a8.213 8.213 0 0 1-4.228-1.124 8.336 8.336 0 0 1-3.046-3.046 8.206 8.206 0 0 1-1.125-4.229 8.056 8.056 0 0 1 1.125-4.2 8.437 8.437 0 0 1 3.046-3.016 8.233 8.233 0 0 1 4.228-1.124 8.083 8.083 0 0 1 4.199 1.124 8.504 8.504 0 0 1 3.016 3.016 8.075 8.075 0 0 1 1.125 4.2 8.226 8.226 0 0 1-1.125 4.23 8.4 8.4 0 0 1-3.016 3.045 8.059 8.059 0 0 1-4.201 1.124h.002ZM77.18 56V14.004h13.781V56H77.181Zm31.227-19.046c.039.04.334.524.887 1.449.553.925 1.272 2.108 2.159 3.549a1143.28 1143.28 0 0 1 5.589 9.168A854.89 854.89 0 0 0 120 56h-15.141c-.947-1.538-1.804-2.928-2.573-4.17a382.214 382.214 0 0 1-2.453-4.022 351.934 351.934 0 0 0-2.574-4.2 213.445 213.445 0 0 1-2.188-3.578 62.753 62.753 0 0 0-1.272-2.07 6.119 6.119 0 0 1-1.005-2.958 5.744 5.744 0 0 1 .946-2.84c.236-.394.67-1.095 1.3-2.1.632-1.006 1.371-2.198 2.219-3.579a636.03 636.03 0 0 0 2.574-4.229c.869-1.439 1.686-2.79 2.453-4.052.77-1.26 1.628-2.66 2.573-4.2H120l-11.711 19.106a3.773 3.773 0 0 0-.592 1.894c.039.706.286 1.385.709 1.952h.002ZM166.085 45.947 140.816 13.96H136v42.042h5.589V24l25.329 32.003h4.816V13.96h-5.648l-.001 31.986ZM201.284 26.1l-.047 22.176c-.433.251-.865.493-1.288.71-.723.37-1.467.697-2.23.976a11.98 11.98 0 0 1-2.229.592c-.777.122-1.562.182-2.348.178a7.086 7.086 0 0 1-3.508-.77 4.728 4.728 0 0 1-2.051-2.398 10.524 10.524 0 0 1-.685-4.057V25.21l-6.064.888V44.69a16.577 16.577 0 0 0 1.13 6.574 7.54 7.54 0 0 0 3.419 3.82 12.012 12.012 0 0 0 5.677 1.212c1.64.011 3.269-.259 4.817-.798a17.077 17.077 0 0 0 4.28-2.251c.362-.26.719-.535 1.076-.822l-.006 2.567c0 2.96-.694 5.21-2.081 6.75s-3.746 2.31-7.075 2.31c-.912 0-1.844-.04-2.795-.12a22.611 22.611 0 0 1-2.824-.414 31.578 31.578 0 0 1-2.825-.74 33.017 33.017 0 0 1-2.854-1.036l.655 5.27c.793.314 1.625.6 2.496.858a28.43 28.43 0 0 0 2.676.652 30.922 30.922 0 0 0 5.887.561 18.954 18.954 0 0 0 6.331-.976 13.391 13.391 0 0 0 4.667-2.725 11.393 11.393 0 0 0 2.885-4.173 14.27 14.27 0 0 0 .981-5.389l-.06-30.614-6.007.894ZM239.452 26.395a11.606 11.606 0 0 0-5.648-1.242c-1.745 0-3.48.269-5.142.798a19.951 19.951 0 0 0-6.095 3.168V11.297l-6.065.888v43.818h6.065V33.249c.47-.256.951-.501 1.455-.724.842-.37 1.706-.686 2.588-.948a21.202 21.202 0 0 1 2.586-.592 15.412 15.412 0 0 1 2.467-.207c.951-.02 1.898.13 2.795.444a4.77 4.77 0 0 1 1.963 1.332 5.502 5.502 0 0 1 1.128 2.25c.255 1.047.375 2.12.358 3.197v18.001h6.064V36.758a16.34 16.34 0 0 0-1.131-6.573 7.771 7.771 0 0 0-3.388-3.79ZM276.019 29.623a10.799 10.799 0 0 0-4.371-3.346 15.336 15.336 0 0 0-6.034-1.124 14.829 14.829 0 0 0-6.065 1.184 12.96 12.96 0 0 0-4.548 3.315 14.504 14.504 0 0 0-2.855 5.123 21.344 21.344 0 0 0-.98 6.662 17.873 17.873 0 0 0 1.753 8.26 11.599 11.599 0 0 0 5.202 5.151 18.553 18.553 0 0 0 8.444 1.747 29.31 29.31 0 0 0 4.191-.266 20.226 20.226 0 0 0 3.419-.8 22.324 22.324 0 0 0 3.211-1.362l.415-4.559c-.753.276-1.516.553-2.289.829a28.55 28.55 0 0 1-2.408.74c-.839.22-1.694.377-2.556.473-.869.1-1.742.149-2.616.149a18.824 18.824 0 0 1-4.638-.503 7.631 7.631 0 0 1-3.299-1.718 7.48 7.48 0 0 1-2.021-3.286 14.943 14.943 0 0 1-.649-3.908h21.487c.293-2.45.182-4.93-.327-7.343a13.817 13.817 0 0 0-2.466-5.417Zm-14.983 1.42a8.447 8.447 0 0 1 4.636-1.212 7.29 7.29 0 0 1 4.578 1.332 6.955 6.955 0 0 1 2.408 3.7 12.14 12.14 0 0 1 .434 3.317h-15.636c.11-1.18.363-2.344.755-3.464a7.158 7.158 0 0 1 2.825-3.672ZM301.912 51.235l-1.011.179a8.943 8.943 0 0 1-.981.118c-.318.021-.616.029-.892.029a6.011 6.011 0 0 1-2.646-.533 3.82 3.82 0 0 1-1.694-1.568 4.973 4.973 0 0 1-.595-2.517V30.541h8.383l.654-4.737h-9.037v-9.357l-6.064 2.133v7.224h-4.579l-.654 4.737h5.233v17.646a9.993 9.993 0 0 0 .535 3.463 7.22 7.22 0 0 0 1.397 2.399 6.22 6.22 0 0 0 2.021 1.48 10.29 10.29 0 0 0 2.467.77c.843.154 1.699.234 2.556.236.635 0 1.259-.02 1.874-.058a18.69 18.69 0 0 0 1.695-.179 25.18 25.18 0 0 0 1.456-.265c.456-.098.842-.188 1.16-.268l.357-4.914a4.44 4.44 0 0 1-.714.208c-.278.058-.585.118-.921.176ZM331.907 29.623a10.79 10.79 0 0 0-4.37-3.346 15.338 15.338 0 0 0-6.035-1.124 14.836 14.836 0 0 0-6.064 1.184 12.97 12.97 0 0 0-4.549 3.315 14.481 14.481 0 0 0-2.853 5.122 21.316 21.316 0 0 0-.981 6.662 17.899 17.899 0 0 0 1.753 8.26 11.604 11.604 0 0 0 5.203 5.151 18.555 18.555 0 0 0 8.444 1.747 29.267 29.267 0 0 0 4.19-.266 20.237 20.237 0 0 0 3.42-.8 22.197 22.197 0 0 0 3.21-1.361l.417-4.56c-.754.276-1.517.553-2.29.829a28.68 28.68 0 0 1-2.407.74c-.84.22-1.694.377-2.557.473a23 23 0 0 1-2.616.149 18.824 18.824 0 0 1-4.638-.503 7.633 7.633 0 0 1-3.299-1.718 7.495 7.495 0 0 1-2.022-3.286 14.982 14.982 0 0 1-.648-3.908h21.486c.293-2.45.183-4.93-.326-7.343a13.817 13.817 0 0 0-2.468-5.416Zm-14.983 1.42a8.449 8.449 0 0 1 4.638-1.212 7.291 7.291 0 0 1 4.578 1.332 6.96 6.96 0 0 1 2.407 3.7c.297 1.081.443 2.197.434 3.317h-15.636c.11-1.18.363-2.344.754-3.464a7.17 7.17 0 0 1 2.825-3.672ZM354.558 25.596a11.68 11.68 0 0 0-3.15 1.362 15.503 15.503 0 0 0-2.796 2.22c-.14.14-.276.296-.416.444V25.21l-6.065.888v29.903h6.065v-22.37c.451-.313.918-.603 1.398-.87a15.57 15.57 0 0 1 1.843-.859 19.806 19.806 0 0 1 1.873-.622c.652-.18 1.318-.31 1.991-.384.721-.08 1.447-.1 2.171-.06l.713-5.566a11.357 11.357 0 0 0-3.627.326Z"/></svg>