<svg xmlns="http://www.w3.org/2000/svg" viewBox="0 0 64 24"><path fill="#D9E9FF" d="M0 0h64v24H0z"/><path fill="#0A2343" d="M6.004 18V6.001h3.937V18H6.004Zm9.294-10.09L17.562 18h-4.309L10.55 6.001h2.416a2.276 2.276 0 0 1 1.513.55c.42.345.71.826.82 1.36ZM18.154 18V6.001h3.937V18h-3.937Zm6.91-7.436a2.383 2.383 0 0 1-2.4-2.4 2.303 2.303 0 0 1 .323-1.2 2.411 2.411 0 0 1 3.278-.861c.355.209.652.506.861.861.215.363.326.778.322 1.2a2.4 2.4 0 0 1-1.183 2.079 2.302 2.302 0 0 1-1.2.321ZM28.057 18V6.001h3.937V18h-3.937Zm8.922-5.442c.011.012.096.15.253.414.158.265.364.603.617 1.014a315.936 315.936 0 0 1 1.597 2.62c.247.411.529.876.845 1.394h-4.326c-.27-.44-.516-.837-.735-1.191-.22-.355-.453-.738-.7-1.15-.249-.41-.494-.81-.737-1.2-.242-.389-.45-.73-.625-1.022-.175-.293-.296-.49-.363-.591a1.748 1.748 0 0 1-.287-.845c.017-.29.11-.57.27-.812.068-.113.192-.313.372-.6s.391-.628.633-1.022c.243-.395.488-.797.736-1.209l.7-1.157.736-1.2h4.326l-3.346 5.458a1.08 1.08 0 0 0-.17.542c.012.201.082.395.203.557h.001Z"/><circle cx="50.861" cy="12" r="8.571" fill="#fff"/><path fill="#00B8F1" d="M54.495 10.145h-1.252a.719.719 0 0 0-.709.71v1.814c.225-.1.465-.16.71-.18h1.379a1.232 1.232 0 0 0 .903-.333 1.236 1.236 0 0 0 .332-.903.969.969 0 0 0-.348-.794 1.587 1.587 0 0 0-1.015-.314Z"/><path fill="#00B8F1" d="M50.861 3.143a8.857 8.857 0 1 0 0 17.714 8.857 8.857 0 0 0 0-17.714Zm-.667 10.462c-.006 1.892-1.363 2.494-1.88 2.794l-.891-1.078.02-.01-.02-.025c.286-.143 1.351-.69 1.351-1.527v-.632c-.146.298-.905.635-1.421.643h-.057a2.94 2.94 0 0 1-1.985-.767 2.854 2.854 0 0 1-.867-2.14V8.953h1.384v1.908c0 1.11.768 1.514 1.497 1.525.638-.01 1.438-.286 1.465-1.14V8.952h1.403l.001 4.652Zm6.01 1.174a.636.636 0 0 0 .605.18l-.002 1.148h-.84l-.027.001-.03-.001h-.03v-.002a.711.711 0 0 1-.436-.197l-1.634-2.001h-.565a.719.719 0 0 0-.71.71v1.49h-1.418v-5.253a2.132 2.132 0 0 1 2.128-2.129h1.251a2.989 2.989 0 0 1 1.921.64 2.4 2.4 0 0 1 .862 1.886 2.655 2.655 0 0 1-.748 1.908c-.309.306-.69.526-1.109.64 0 0 .479.655.783.98Z"/></svg>