<svg xmlns="http://www.w3.org/2000/svg" viewBox="0 0 122 21"><path fill="#fff" d="M0 16.003V4.004h3.937v11.999H0Zm9.294-10.09 2.264 10.09H7.25L4.545 4.004h2.417a2.276 2.276 0 0 1 1.513.55c.42.345.71.826.819 1.36Zm2.855 10.09V4.004h3.938v11.999h-3.938Zm6.912-7.436a2.382 2.382 0 0 1-2.4-2.4 2.301 2.301 0 0 1 .321-1.2 2.41 2.41 0 0 1 3.278-.862c.356.21.653.506.862.862.215.363.326.778.321 1.2a2.35 2.35 0 0 1-.321 1.208 2.4 2.4 0 0 1-.862.87 2.302 2.302 0 0 1-1.2.322Zm2.99 7.436V4.004h3.938v11.999h-3.937Zm8.923-5.442c.01.012.095.15.253.414s.364.603.617 1.014a309.436 309.436 0 0 1 1.597 2.62c.247.411.529.876.845 1.394H29.96c-.27-.44-.516-.837-.736-1.192-.22-.354-.453-.738-.7-1.149-.248-.41-.493-.81-.736-1.2a60.12 60.12 0 0 1-.625-1.022 18.04 18.04 0 0 0-.363-.592 1.747 1.747 0 0 1-.287-.845c.016-.29.11-.57.27-.811.067-.113.191-.313.371-.6s.392-.628.634-1.022c.242-.395.488-.798.736-1.209l.7-1.157.736-1.2h4.326L30.94 9.462a1.08 1.08 0 0 0-.17.541c.012.202.082.396.203.558Z"/><path fill="#9FDAF5" d="M38.857 5.476h3.878V16.01h1.779V5.476h3.861v-1.49h-9.518v1.49ZM56.538 8.465a3.072 3.072 0 0 0-1.245-.957 4.348 4.348 0 0 0-1.719-.322 4.21 4.21 0 0 0-1.727.34 3.691 3.691 0 0 0-1.296.948 4.152 4.152 0 0 0-.813 1.464 6.12 6.12 0 0 0-.279 1.906 5.128 5.128 0 0 0 .5 2.362 3.31 3.31 0 0 0 1.481 1.474 5.266 5.266 0 0 0 2.405.5c.4.003.799-.023 1.194-.077.33-.048.657-.124.974-.229.315-.105.62-.235.915-.39l.118-1.303-.652.237c-.22.079-.449.15-.686.212-.24.062-.483.108-.728.135a6.598 6.598 0 0 1-.745.042 5.347 5.347 0 0 1-1.321-.143 2.167 2.167 0 0 1-.94-.492 2.14 2.14 0 0 1-.576-.94 4.286 4.286 0 0 1-.184-1.117h6.12a6.49 6.49 0 0 0-.093-2.1 3.958 3.958 0 0 0-.703-1.55Zm-4.268.407a2.4 2.4 0 0 1 1.321-.348 2.07 2.07 0 0 1 1.304.381c.337.27.578.641.686 1.059a3.5 3.5 0 0 1 .124.948H51.25c.031-.337.103-.67.215-.99.144-.43.427-.8.804-1.05ZM64.879 7.407a6.12 6.12 0 0 0-.788-.161 6.652 6.652 0 0 0-.915-.06 4.099 4.099 0 0 0-1.609.322c-.51.216-.973.53-1.363.923a4.178 4.178 0 0 0-.94 1.49 5.71 5.71 0 0 0-.339 2.041 5.3 5.3 0 0 0 .432 2.227c.266.601.705 1.108 1.262 1.457.61.36 1.308.538 2.015.516a4.881 4.881 0 0 0 1.812-.355c.344-.14.669-.325.966-.549v.464c.006.382-.048.762-.161 1.126a2.05 2.05 0 0 1-.491.813c-.243.233-.54.402-.864.491a4.53 4.53 0 0 1-1.296.161c-.348 0-.695-.02-1.041-.06a7.376 7.376 0 0 1-1.076-.202 8.243 8.243 0 0 1-1.067-.364l.187 1.49c.311.126.63.23.957.313.342.087.69.152 1.041.195.37.046.744.068 1.118.068a5.463 5.463 0 0 0 2.422-.483 3.394 3.394 0 0 0 1.481-1.338 3.84 3.84 0 0 0 .5-1.973V7.186l-1.656.427a4.938 4.938 0 0 0-.587-.206Zm.313 6.782a5.33 5.33 0 0 1-.652.322 3.975 3.975 0 0 1-.61.195 2.75 2.75 0 0 1-.618.068 2.945 2.945 0 0 1-1.465-.33 1.983 1.983 0 0 1-.864-1 4.501 4.501 0 0 1-.28-1.719 4.477 4.477 0 0 1 .195-1.38 2.6 2.6 0 0 1 .56-.99c.25-.266.557-.471.897-.602a3.27 3.27 0 0 1 1.21-.212c.268 0 .534.023.797.068.27.048.535.113.796.195.083.026.17.06.254.092v5.163c-.075.045-.15.09-.22.13ZM76.386 7.542a3.332 3.332 0 0 0-1.626-.356c-.492.001-.98.079-1.448.23a5.505 5.505 0 0 0-1.363.651c-.164.108-.32.226-.474.347v-1.21l-1.728.253v8.553h1.728V9.578c.167-.098.34-.187.516-.266.238-.105.481-.199.728-.28.238-.077.482-.137.729-.177a4.37 4.37 0 0 1 .702-.06 2.32 2.32 0 0 1 .813.127c.216.078.408.21.56.381.155.187.265.407.321.644.072.3.106.607.102.915v5.148h1.727v-5.504a4.694 4.694 0 0 0-.322-1.88 2.22 2.22 0 0 0-.965-1.084ZM85.582 12.115a2.551 2.551 0 0 0-.593-.466 4.594 4.594 0 0 0-.712-.33c-.18-.057-.358-.116-.533-.178a9.519 9.519 0 0 0-.525-.17 10.86 10.86 0 0 1-.508-.16 3.73 3.73 0 0 1-.449-.187 2.94 2.94 0 0 1-.398-.254 1.112 1.112 0 0 1-.288-.321.814.814 0 0 1-.11-.424.876.876 0 0 1 .119-.466.963.963 0 0 1 .356-.33c.177-.097.368-.166.567-.203.248-.048.5-.07.753-.068a5.488 5.488 0 0 1 .89.076c.175.028.35.066.524.11.175.045.353.097.534.153.167.051.331.114.49.186l.12-1.372a8.04 8.04 0 0 0-.635-.237 6.228 6.228 0 0 0-.635-.169 5.085 5.085 0 0 0-.636-.093 7.649 7.649 0 0 0-.618-.026 5.581 5.581 0 0 0-1.388.161 3.491 3.491 0 0 0-1.093.475c-.303.2-.55.474-.72.796a2.42 2.42 0 0 0-.253 1.143c-.006.285.04.569.135.838.08.226.201.435.356.618.15.173.324.324.516.449.2.131.413.242.636.33a14.388 14.388 0 0 0 .787.263 41.114 41.114 0 0 1 .745.237c.118.04.234.076.347.11.152.053.299.119.44.195.125.065.241.145.348.237a.868.868 0 0 1 .296.669.844.844 0 0 1-.28.669c-.21.175-.46.294-.728.347-.314.07-.635.103-.956.101a4.76 4.76 0 0 1-.602-.042 8.583 8.583 0 0 1-.694-.118 10.718 10.718 0 0 1-.745-.187c-.254-.073-.51-.155-.77-.245l.067 1.44c.293.1.561.183.805.245.243.062.474.115.694.16.212.045.427.073.644.085.208.012.42.017.635.017.472.003.943-.046 1.405-.144a3.632 3.632 0 0 0 1.151-.449c.32-.195.586-.469.771-.796.194-.358.29-.76.28-1.168a2.372 2.372 0 0 0-.144-.872 1.975 1.975 0 0 0-.398-.635ZM94.684 7.72a3.64 3.64 0 0 0-2.023-.534 5.159 5.159 0 0 0-1.254.161 5.437 5.437 0 0 0-1.507.64v-.784l-1.727.271v12.092H89.9v-3.791l.034.015c.313.13.64.224.974.28.394.064.794.095 1.194.092a4.234 4.234 0 0 0 2.176-.559 4.023 4.023 0 0 0 1.524-1.617c.4-.8.595-1.688.567-2.583a5.27 5.27 0 0 0-.431-2.201 3.403 3.403 0 0 0-1.254-1.482Zm-.448 5.665c-.204.45-.545.823-.974 1.067a3.128 3.128 0 0 1-1.55.355 4.825 4.825 0 0 1-1.812-.345V9.117c.023-.01.046-.024.068-.034.248-.113.48-.209.694-.288a3.487 3.487 0 0 1 1.203-.22 3.133 3.133 0 0 1 1.507.33c.408.223.728.578.906 1.008.215.55.316 1.137.297 1.727a4.04 4.04 0 0 1-.34 1.745ZM102.008 7.313a3.328 3.328 0 0 0-.897.39c-.289.18-.556.393-.796.635-.04.04-.079.084-.118.126V7.203l-1.728.254v8.552h1.728V9.611a4.316 4.316 0 0 1 .923-.495c.174-.067.352-.126.533-.177a3.62 3.62 0 0 1 1.186-.127l.203-1.592a3.23 3.23 0 0 0-1.034.093ZM111.95 14.943a.773.773 0 0 1-.661-.271 1.458 1.458 0 0 1-.186-.898l.034-3.488a4.046 4.046 0 0 0-.136-1.084 2.642 2.642 0 0 0-.406-.864 2.289 2.289 0 0 0-.703-.627 3.592 3.592 0 0 0-1.024-.39 6.033 6.033 0 0 0-1.338-.135 8.38 8.38 0 0 0-1.067.068 7.304 7.304 0 0 0-.991.195c-.302.082-.599.18-.889.296l-.203 1.44a9.922 9.922 0 0 1 1.541-.424c.232-.044.467-.075.703-.093.231-.017.46-.025.686-.025.345-.007.69.033 1.024.118.244.062.469.184.652.356.164.168.28.375.339.601.072.28.106.567.101.856l-.001.425-1.98.133a5.254 5.254 0 0 0-1.964.44 2.811 2.811 0 0 0-1.161.94c-.25.367-.383.801-.381 1.245-.003.417.099.828.297 1.194.207.377.519.686.897.89.462.24.979.357 1.499.338.488.011.973-.069 1.431-.237a3.305 3.305 0 0 0 1.067-.677c.117-.113.228-.231.333-.355.033.175.095.344.184.499.151.259.383.461.66.575.307.124.635.184.965.178.102 0 .201-.002.297-.008a1.56 1.56 0 0 0 .279-.043l.246-.059a1.38 1.38 0 0 0 .195-.06l.186-1.134a1.5 1.5 0 0 1-.288.068c-.079.01-.158.016-.237.017Zm-2.82-.762c-.183.145-.382.27-.593.372a2.666 2.666 0 0 1-.66.22 3.753 3.753 0 0 1-.72.068 1.91 1.91 0 0 1-.804-.152 1.107 1.107 0 0 1-.5-.432 1.264 1.264 0 0 1-.169-.669 1.28 1.28 0 0 1 .22-.796c.184-.215.434-.364.711-.423a5.154 5.154 0 0 1 1.321-.136h1.483l-.007 1.681a2.279 2.279 0 0 1-.282.267ZM106.539 5.832c.32.151.671.226 1.025.22a2.32 2.32 0 0 0 1.05-.229c.295-.143.544-.366.719-.643.181-.299.272-.643.263-.991a1.748 1.748 0 0 0-.559-1.355 2.058 2.058 0 0 0-1.44-.508 2.45 2.45 0 0 0-1.024.212 1.685 1.685 0 0 0-.737.635c-.188.31-.283.67-.271 1.033-.012.351.08.699.263.999.174.27.42.488.711.627Zm.271-2.44a1.089 1.089 0 0 1 .787-.27c.21-.01.419.04.602.144a.88.88 0 0 1 .338.381c.076.17.114.355.11.542.004.187-.037.373-.118.542a.883.883 0 0 1-.347.372 1.171 1.171 0 0 1-.602.136 1.273 1.273 0 0 1-.575-.119.77.77 0 0 1-.356-.355 1.285 1.285 0 0 1-.119-.576 1.069 1.069 0 0 1 .28-.796ZM119.3 16.01h2.235l-4.108-4.63 4.023-4.007h-2.117l-2.897 3.184h-.625V3.224l-1.728.254V16.01h1.728v-4.15h.028l3.461 4.15Z"/></svg>