<svg xmlns="http://www.w3.org/2000/svg" viewBox="0 0 45 31"><g clip-path="url(#a)"><g fill="#00B3C7" clip-path="url(#b)"><path d="M22.188 26.443c.07.183.103.378.098.574.008.264-.056.526-.185.757-.123.21-.297.386-.504.514-.233.14-.488.24-.755.292a4.49 4.49 0 0 1-.934.092 8.53 8.53 0 0 1-.428-.011 2.977 2.977 0 0 1-.43-.054 6.939 6.939 0 0 1-.456-.109 9.987 9.987 0 0 1-.531-.163l-.044-.984c.167.058.335.112.505.163a5.724 5.724 0 0 0 .956.2c.135.017.27.026.407.027.198.001.397-.019.591-.06.164-.03.317-.1.445-.205a.511.511 0 0 0 .169-.405.468.468 0 0 0-.055-.222.61.61 0 0 0-.152-.184 1.171 1.171 0 0 0-.228-.146 3.08 3.08 0 0 0-.271-.12 8.66 8.66 0 0 1-.223-.07l-.239-.075a6.658 6.658 0 0 0-.25-.07 2.828 2.828 0 0 1-.494-.173 2.447 2.447 0 0 1-.412-.212 1.443 1.443 0 0 1-.337-.292 1.257 1.257 0 0 1-.222-.4 1.612 1.612 0 0 1-.082-.535c-.006-.255.05-.507.164-.736.108-.21.27-.388.466-.52.222-.144.469-.249.728-.307.302-.071.612-.106.922-.103.138 0 .277.005.418.016.14.01.28.029.418.054a3.256 3.256 0 0 1 .825.265l-.086.952a2.276 2.276 0 0 0-.32-.13 5.266 5.266 0 0 0-.343-.097 4.136 4.136 0 0 0-.657-.108 3.59 3.59 0 0 0-.266-.011 2.3 2.3 0 0 0-.466.043 1.28 1.28 0 0 0-.353.125.558.558 0 0 0-.217.2.518.518 0 0 0-.07.27.489.489 0 0 0 .07.265.703.703 0 0 0 .179.195c.078.057.161.106.25.146.091.045.185.085.282.119.101.036.208.069.32.097.112.03.225.063.337.103.112.04.222.078.33.114.163.056.321.124.473.205.146.078.278.178.39.298.115.121.205.262.267.416Zm4.703-3.353 1.238-.184-.011 5.657h-.966l-.173-.703c-.027.026-.054.052-.082.076-.17.154-.358.288-.56.4-.193.108-.399.191-.613.25a2.637 2.637 0 0 1-.689.085c-.36.011-.716-.069-1.037-.232a1.473 1.473 0 0 1-.646-.703c-.145-.314-.217-.716-.217-1.206v-3.44l1.238-.184v3.397c-.007.241.033.482.119.708.07.18.2.332.37.428.2.102.425.15.65.14a2.2 2.2 0 0 0 .408-.038 2.832 2.832 0 0 0 .77-.264c.066-.034.133-.07.201-.11V23.09Zm6.788.146a2.347 2.347 0 0 0-1.292-.34 3.212 3.212 0 0 0-.815.108 3.549 3.549 0 0 0-.814.33c-.047.026-.094.056-.14.085v-.512l-1.238.195v7.723h1.237v-2.43c.197.083.403.145.613.185.26.05.524.073.788.07.49.008.974-.115 1.4-.356.42-.246.76-.607.983-1.039.242-.454.363-1.006.363-1.655a3.391 3.391 0 0 0-.276-1.412 2.162 2.162 0 0 0-.81-.952Zm-.391 3.592c-.126.28-.34.51-.608.66a1.997 1.997 0 0 1-.977.221 2.837 2.837 0 0 1-.945-.146 7.377 7.377 0 0 1-.14-.047V24.16l.01-.005c.152-.069.295-.126.429-.173.125-.045.254-.079.385-.103a2.08 2.08 0 0 1 .358-.032c.326-.012.649.059.94.205.252.141.451.362.564.628.138.34.203.704.19 1.07.011.37-.06.737-.206 1.077Zm6.195-.8c.215-.063.415-.166.592-.303.15-.12.271-.274.353-.449.08-.177.12-.369.119-.563a1.59 1.59 0 0 0-.147-.66 1.704 1.704 0 0 0-.434-.578 2.08 2.08 0 0 0-.722-.4 3.18 3.18 0 0 0-1.01-.146c-.593 0-1.096.124-1.509.373a2.354 2.354 0 0 0-.933 1.05 3.692 3.692 0 0 0-.315 1.573c0 .599.11 1.104.33 1.515.222.411.57.741.994.94.442.217.985.326 1.629.326.24.001.48-.015.717-.05.21-.03.418-.08.618-.15a6.58 6.58 0 0 0 .597-.244l.077-.898c-.282.11-.57.202-.864.276-.328.08-.666.117-1.004.114a3 3 0 0 1-.803-.098 1.24 1.24 0 0 1-.917-.909 2.608 2.608 0 0 1-.09-.474l1.886-.099c.284-.015.564-.065.836-.146Zm-2.834-.558c.014-.264.067-.524.156-.773.09-.262.261-.49.489-.649.235-.146.51-.22.787-.21.225-.01.449.037.651.135.153.077.28.195.37.34a.815.815 0 0 1 .12.412.608.608 0 0 1-.083.319.562.562 0 0 1-.27.216 1.596 1.596 0 0 1-.506.103l-1.714.107Zm7.923-2.537-.152 1.114a3.137 3.137 0 0 0-.418.005c-.127.01-.252.03-.375.06-.116.029-.23.065-.342.108a2.199 2.199 0 0 0-.33.162c-.08.048-.16.1-.24.151v4.025h-1.238v-5.474l1.238-.183v.869l.06-.069c.15-.169.32-.32.505-.449.18-.125.38-.219.591-.276.229-.058.466-.073.7-.043ZM0 28.592v-5.59h1.85v5.59H0Zm4.366-4.7 1.064 4.7H3.406l-1.27-5.59H3.27c.26-.004.513.087.71.255.198.162.334.385.385.634Zm1.342 4.7v-5.59h1.85v5.59h-1.85Zm3.246-3.465a1.115 1.115 0 0 1-.976-1.677 1.128 1.128 0 0 1 .976-.551c.199-.002.393.05.564.15.167.097.307.235.405.401.1.17.153.363.15.56a1.123 1.123 0 0 1-.556.968c-.17.1-.365.152-.563.15Zm1.406 3.465v-5.59h1.85v5.59h-1.85Zm4.191-2.536c.005.006.045.07.12.193.073.123.17.281.289.473a148.408 148.408 0 0 1 .75 1.22c.116.192.249.408.397.65h-2.032l-.346-.555a49.776 49.776 0 0 1-.329-.536 49.138 49.138 0 0 0-.345-.559c-.114-.181-.212-.34-.294-.476a8.542 8.542 0 0 0-.17-.276.81.81 0 0 1-.136-.393.761.761 0 0 1 .127-.378A61.051 61.051 0 0 0 13.4 24.1 234.993 234.993 0 0 1 14.075 23h2.032l-1.572 2.543a.499.499 0 0 0-.08.253.476.476 0 0 0 .096.26Z"/><path fill-rule="evenodd" d="M22.429.254c-5.386 0-9.781 4.38-9.781 9.746 0 5.357 4.395 9.747 9.78 9.747 5.376 0 9.782-4.39 9.782-9.747 0-5.366-4.406-9.746-9.781-9.746ZM14.566 10c0 4.327 3.552 7.909 7.863 7.909 4.353 0 7.863-3.582 7.863-7.909 0-4.38-3.51-7.908-7.863-7.908-4.311 0-7.863 3.529-7.863 7.908Zm6.134.032a1.478 1.478 0 0 1-.928 1.388c-.184.074-.38.11-.58.108-.398 0-.78-.157-1.061-.438a1.494 1.494 0 0 1 1.062-2.555 1.492 1.492 0 0 1 1.396.92c.076.183.113.38.111.577Zm6.84-.693-.99.787c-.074.052-.074.105-.053.189l.327 1.208c.021.063-.01.073-.053.042l-1.065-.693a.157.157 0 0 0-.189 0l-1.075.704c-.042.031-.074.01-.053-.053l.327-1.208a.16.16 0 0 0-.043-.189l-1-.809c-.032-.03-.032-.073.02-.073l1.255-.052a.127.127 0 0 0 .127-.095l.484-1.208c.032-.073.074-.063.095 0l.422 1.166a.174.174 0 0 0 .19.137l1.243.052c.074 0 .084.053.032.095Z" clip-rule="evenodd"/></g></g><defs><clipPath id="a"><path fill="#fff" d="M0 0h45v31H0z"/></clipPath><clipPath id="b"><path fill="#fff" d="M0 0h44.571v30.571H0z"/></clipPath></defs></svg>