<svg xmlns="http://www.w3.org/2000/svg" viewBox="0 0 55 16"><path fill="#fff" d="M0 15V1.001h4.593V15H0ZM10.843 3.23 13.484 15H8.457L5.303 1.001h2.82a2.655 2.655 0 0 1 1.764.641c.491.404.829.964.956 1.587ZM14.174 15V1.001h4.594V15h-4.594Zm8.063-8.675a2.737 2.737 0 0 1-1.409-.375 2.778 2.778 0 0 1-1.015-1.015 2.735 2.735 0 0 1-.375-1.41 2.685 2.685 0 0 1 .375-1.4 2.812 2.812 0 0 1 3.824-1.005c.415.244.761.59 1.005 1.005.251.424.38.908.375 1.4.005.495-.125.982-.375 1.41a2.8 2.8 0 0 1-1.005 1.015c-.424.251-.908.38-1.4.375ZM25.727 15V1.001h4.594V15h-4.594Zm10.409-6.349c.013.014.111.175.296.483.184.309.424.703.72 1.183a377.481 377.481 0 0 1 1.862 3.056c.289.48.617 1.023.986 1.627h-5.047l-.858-1.39c-.256-.414-.529-.861-.817-1.34-.29-.48-.576-.947-.858-1.4a71.104 71.104 0 0 1-.73-1.193 21.1 21.1 0 0 0-.424-.69A2.04 2.04 0 0 1 30.932 8c.019-.338.128-.665.315-.947.078-.131.223-.365.433-.7a216.97 216.97 0 0 0 1.598-2.603l.817-1.35.858-1.4H40l-3.904 6.368c-.12.19-.189.407-.197.632.013.235.095.461.236.65h.001ZM47.968 13.307c.312-.268.633-.546.972-.848.473-.42.95-.877 1.43-1.37.479-.493.936-1.005 1.37-1.538.42-.515.806-1.058 1.152-1.626.324-.528.589-1.09.789-1.675.186-.54.283-1.105.286-1.676a3.637 3.637 0 0 0-.316-1.547 3.34 3.34 0 0 0-.926-1.183 4.228 4.228 0 0 0-1.527-.769 7.544 7.544 0 0 0-2.1-.266 7.754 7.754 0 0 0-1.37.119c-.43.076-.852.191-1.262.344-.39.147-.768.321-1.133.523l.256 1.715a5.25 5.25 0 0 1 .996-.523c.38-.152.772-.27 1.173-.354a6.03 6.03 0 0 1 1.241-.129c.438-.008.873.051 1.292.178.333.102.64.277.896.512.232.216.41.483.523.779.115.312.172.643.168.976a4.373 4.373 0 0 1-.335 1.626 8.642 8.642 0 0 1-.947 1.715 18.42 18.42 0 0 1-1.438 1.794 31.431 31.431 0 0 1-1.804 1.833c-.65.61-1.324 1.232-2.02 1.863l.255 1.222h8.536l.236-1.695h-6.393Z"/></svg>