<svg xmlns="http://www.w3.org/2000/svg" viewBox="0 0 64 28"><path fill="#0A2343" d="M0 0h64v28H0z"/><path fill="#fff" d="M6.667 21V7.001h4.593V21H6.667ZM17.509 9.23 20.151 21h-5.027L11.97 7.001h2.82a2.655 2.655 0 0 1 1.764.641c.49.404.828.964.955 1.587ZM20.841 21V7.001h4.593V21h-4.593Zm8.063-8.675a2.738 2.738 0 0 1-1.41-.375 2.777 2.777 0 0 1-1.015-1.015 2.735 2.735 0 0 1-.375-1.41 2.686 2.686 0 0 1 .375-1.4 2.812 2.812 0 0 1 3.825-1.005c.415.244.76.59 1.005 1.005.25.424.38.908.375 1.4.004.495-.125.982-.375 1.41a2.8 2.8 0 0 1-1.006 1.015c-.423.251-.908.38-1.4.375ZM32.394 21V7.001h4.593V21h-4.593Zm10.409-6.349c.013.014.111.175.295.483.185.309.424.703.72 1.183a373.133 373.133 0 0 1 1.863 3.056c.288.48.617 1.023.986 1.627H41.62a712.71 712.71 0 0 0-.858-1.39 127.3 127.3 0 0 1-.818-1.34c-.289-.48-.575-.947-.858-1.4a71.117 71.117 0 0 1-.729-1.194 20.869 20.869 0 0 0-.424-.69 2.039 2.039 0 0 1-.335-.985c.02-.338.128-.665.315-.947.079-.132.224-.365.434-.7a209.23 209.23 0 0 0 1.598-2.603c.289-.48.561-.93.817-1.35L41.62 7h5.047l-3.904 6.368c-.12.19-.189.407-.197.632.013.235.095.461.236.65Z"/><path fill="#8BB5EB" d="M56.318 7c-.315.158-.614.312-.897.463-.283.152-.559.293-.828.424-.27.132-.542.263-.818.395-.276.131-.56.25-.848.355-.29.105-.598.21-.927.315l.434 1.676c.394-.118.752-.237 1.075-.355a9.73 9.73 0 0 0 .926-.394c.296-.145.592-.303.887-.473l.01-.006V21h2.051V7h-1.065Z"/></svg>