<svg xmlns="http://www.w3.org/2000/svg" viewBox="0 0 135 14"><path fill="#0A2343" d="M0 12.997v-12h3.937v12H0Zm9.294-10.09 2.264 10.09H7.25l-2.704-12h2.417a2.276 2.276 0 0 1 1.513.55c.42.346.71.826.819 1.36Zm2.855 10.09v-12h3.938v12h-3.938Zm6.912-7.436a2.382 2.382 0 0 1-2.4-2.4 2.301 2.301 0 0 1 .321-1.2 2.41 2.41 0 0 1 3.278-.862c.356.21.653.506.862.862.215.363.326.778.321 1.2a2.35 2.35 0 0 1-.321 1.208 2.4 2.4 0 0 1-.862.87 2.302 2.302 0 0 1-1.2.322Zm2.99 7.436v-12h3.938v12h-3.937Zm8.923-5.442c.01.011.095.15.253.414s.364.602.617 1.014a313.388 313.388 0 0 1 1.597 2.62c.247.41.529.876.845 1.394H29.96c-.27-.44-.516-.837-.736-1.192-.22-.355-.453-.738-.7-1.15-.248-.41-.493-.81-.736-1.199-.242-.389-.45-.73-.625-1.022-.175-.293-.296-.49-.363-.592a1.747 1.747 0 0 1-.287-.845c.016-.29.11-.57.27-.811.067-.113.191-.313.371-.6a182.106 182.106 0 0 0 1.37-2.23l.7-1.159.736-1.2h4.326l-3.346 5.46a1.08 1.08 0 0 0-.17.54c.012.202.082.396.203.558Z"/><path fill="#7B0A02" d="M38.857 12.998h1.775V8.046h4.529l.186-1.47h-4.715v-4.09h6.134V1h-7.909v12ZM53.805 4.735a4.636 4.636 0 0 0-2.29-.541 4.617 4.617 0 0 0-2.307.557 3.897 3.897 0 0 0-1.537 1.572 4.968 4.968 0 0 0-.55 2.4 5.182 5.182 0 0 0 .515 2.391c.324.65.84 1.184 1.48 1.53.687.36 1.454.54 2.23.524a4.765 4.765 0 0 0 2.333-.558 3.94 3.94 0 0 0 1.58-1.589c.392-.75.587-1.587.566-2.433a4.894 4.894 0 0 0-.524-2.324 3.694 3.694 0 0 0-1.496-1.53Zm-.101 5.661c-.19.44-.512.809-.921 1.056a2.622 2.622 0 0 1-1.352.347 2.404 2.404 0 0 1-1.319-.355 2.383 2.383 0 0 1-.879-1.064 4.267 4.267 0 0 1-.32-1.758c-.02-.586.09-1.168.32-1.707.19-.423.506-.778.905-1.014a2.736 2.736 0 0 1 1.394-.338c.38-.01.757.062 1.107.211.306.138.574.35.778.617.217.29.375.62.464.972.106.411.157.835.152 1.26a4.204 4.204 0 0 1-.33 1.773ZM60.582 11.756a1.46 1.46 0 0 1-.178.009.907.907 0 0 1-.371-.068.61.61 0 0 1-.254-.211.917.917 0 0 1-.143-.364 2.776 2.776 0 0 1-.043-.524V.238L57.87.493V11.36c-.007.285.04.569.136.837a1.408 1.408 0 0 0 .989.878c.245.064.498.095.752.093.135 0 .264-.005.388-.016a3.717 3.717 0 0 0 .659-.118l.17-1.336-.204.034a2.93 2.93 0 0 1-.177.025ZM70.038 4.379h-2.113l-2.892 3.177h-.623V.24l-1.723.253v12.506h1.723v-4.14h.028l3.453 4.14h2.231l-4.1-4.619 4.016-4ZM77.592 5.47a3.067 3.067 0 0 0-1.242-.956 4.338 4.338 0 0 0-1.716-.32 4.203 4.203 0 0 0-1.723.337c-.496.217-.937.54-1.293.947a4.137 4.137 0 0 0-.812 1.461 6.109 6.109 0 0 0-.278 1.902 5.118 5.118 0 0 0 .498 2.357c.321.637.84 1.153 1.479 1.47.75.354 1.572.524 2.4.5.398.002.796-.023 1.191-.077.33-.047.655-.124.972-.228.314-.105.62-.236.913-.389l.118-1.301a89.57 89.57 0 0 1-.651.236c-.22.08-.448.15-.684.212a5.12 5.12 0 0 1-.727.135 6.485 6.485 0 0 1-.744.042 5.335 5.335 0 0 1-1.318-.143 2.168 2.168 0 0 1-.938-.49 2.14 2.14 0 0 1-.574-.939 4.275 4.275 0 0 1-.184-1.115h6.107c.083-.699.052-1.407-.093-2.096a3.95 3.95 0 0 0-.701-1.546Zm-4.259.405a2.391 2.391 0 0 1 1.318-.347c.465-.023.923.111 1.302.38.336.27.576.64.684 1.057.084.308.126.626.123.946h-4.444c.031-.337.103-.669.214-.989.144-.428.427-.796.803-1.047ZM92.177 4.548c-.461-.25-.98-.373-1.505-.355a3.953 3.953 0 0 0-1.335.228 4.706 4.706 0 0 0-1.216.651c-.21.156-.411.325-.6.507a2.118 2.118 0 0 0-.87-1.014 2.977 2.977 0 0 0-1.522-.355c-.452 0-.9.077-1.327.228a4.809 4.809 0 0 0-1.58.924V4.211l-1.724.253V13h1.724V6.57a5.5 5.5 0 0 1 .634-.357c.268-.127.548-.226.836-.296.266-.066.538-.1.812-.102.25-.007.5.036.735.127.194.082.365.21.498.372.147.188.248.408.296.642.066.303.097.612.093.921v5.12h1.724V7.524a6.821 6.821 0 0 0-.065-.966c.195-.129.397-.246.606-.352.263-.133.541-.235.828-.304.27-.067.549-.1.828-.102.248-.006.495.037.727.127.197.08.371.208.507.372.147.188.248.408.295.642.066.302.098.611.094.92V13h1.723V7.506a4.918 4.918 0 0 0-.304-1.876 2.178 2.178 0 0 0-.912-1.082ZM101.641 10.895c-.128.077-.254.15-.381.21a6.332 6.332 0 0 1-.617.262c-.201.073-.407.13-.617.17-.214.04-.432.06-.65.059a2.086 2.086 0 0 1-1.031-.228 1.373 1.373 0 0 1-.6-.693 2.955 2.955 0 0 1-.195-1.14V4.21l-1.723.253v5.374c-.021.641.091 1.28.33 1.876.195.47.547.858.996 1.098.5.25 1.055.372 1.614.356.354.002.706-.04 1.048-.127a4.07 4.07 0 0 0 .938-.372c.305-.167.593-.363.862-.583.049-.04.099-.088.148-.13l.249 1.042h1.335l.017-8.788-1.723.253v6.432ZM111.341 9.111a2.538 2.538 0 0 0-.592-.465 4.574 4.574 0 0 0-.71-.33c-.18-.056-.357-.115-.532-.177a9.423 9.423 0 0 0-.524-.169c-.175-.05-.344-.104-.507-.16a3.705 3.705 0 0 1-.448-.186 2.922 2.922 0 0 1-.397-.254 1.109 1.109 0 0 1-.287-.32.804.804 0 0 1-.11-.423.87.87 0 0 1 .118-.465.963.963 0 0 1 .355-.33c.177-.096.368-.165.566-.203.248-.047.5-.07.752-.067a5.48 5.48 0 0 1 .888.076c.175.029.349.065.523.11.175.044.352.096.533.152.167.052.331.114.49.186l.118-1.369a8.244 8.244 0 0 0-.633-.237 6.367 6.367 0 0 0-.634-.169 5.121 5.121 0 0 0-.634-.093 7.642 7.642 0 0 0-.617-.025 5.572 5.572 0 0 0-1.386.16 3.507 3.507 0 0 0-1.09.474 2.16 2.16 0 0 0-.718.794 2.4 2.4 0 0 0-.253 1.14c-.006.285.04.569.135.837.08.226.2.435.355.617.15.173.323.323.515.448.2.131.412.241.634.33a23.522 23.522 0 0 0 .786.262 40.551 40.551 0 0 1 .743.236c.119.04.234.076.347.11.151.053.298.118.439.194.124.066.24.145.347.237a.87.87 0 0 1 .295.667.847.847 0 0 1-.278.668c-.21.175-.46.294-.727.346-.314.07-.634.104-.955.102a4.701 4.701 0 0 1-.6-.042 8.913 8.913 0 0 1-.693-.119c-.242-.05-.49-.112-.744-.186a15.27 15.27 0 0 1-.768-.244l.067 1.436c.293.101.561.183.803.245s.473.116.693.16c.212.045.426.073.642.085.208.011.42.017.634.017a6.59 6.59 0 0 0 1.403-.144 3.629 3.629 0 0 0 1.149-.448c.319-.195.584-.468.769-.794.193-.357.289-.76.278-1.166a2.368 2.368 0 0 0-.143-.87 1.985 1.985 0 0 0-.397-.634ZM115.404.67a1.092 1.092 0 0 0-.583-.161 1.137 1.137 0 0 0-.591.16 1.248 1.248 0 0 0-.431.423 1.09 1.09 0 0 0-.16.583 1.13 1.13 0 0 0 .16.592c.103.176.252.322.431.422.18.101.384.154.591.152.205.002.406-.05.583-.152.174-.1.317-.247.414-.422.102-.181.154-.385.152-.592a1.136 1.136 0 0 0-.152-.583 1.194 1.194 0 0 0-.414-.423ZM113.926 12.998h1.724V4.21l-1.724.254v8.534ZM125.638 4.379h-2.112l-2.892 3.177h-.624V.24l-1.723.253v12.506h1.723v-4.14h.029l3.453 4.14h2.23l-4.099-4.619 4.015-4ZM132.364 12.998h2.231l-4.099-4.62 4.015-3.999h-2.113l-2.892 3.177h-.623V.24l-1.724.253v12.506h1.724v-4.14h.028l3.453 4.14Z"/></svg>