<svg xmlns="http://www.w3.org/2000/svg" viewBox="0 0 48 32"><path fill="#000" d="M3.077 3.077h25.846v25.846H3.077z"/><path fill="#FFE100" fill-rule="evenodd" d="M0 0h32v32H0V0Zm10.547 14.638h-2.93v10.646h2.93V14.638Zm3.716 0h-3.29s1.869 3.065 1.89 3.103c.143.243.152.392.012.627l-1.903 3.115h3.29s1.587-2.591 1.804-2.951c.215-.36.206-.584-.009-.953-.218-.373-.233-.396-1.52-2.494l-.274-.447Zm9.214 0s.98 1.575 1.09 1.764c.215.37.225.595.009.956l-1.445 2.392c.237.387.553.893.83 1.338.286.457.53.849.606.979.215.37.225.595.009.956l-.235.393c-.293.491-.77 1.294-1.122 1.868h-3.006l1.646-2.702-1.708-2.862 1.532-2.505h-3.71l-1.538-2.577h7.043Zm-5.684 5.467c-.463.756-1.239 2.022-1.384 2.27-.207.356-.216.572-.008.92.145.241.926 1.518 1.392 2.278.466-.76 1.247-2.037 1.392-2.278.208-.348.199-.564-.008-.92-.146-.248-.92-1.514-1.384-2.27Zm-10.21-13.1v5.99h1.966v-5.99H7.583Zm5.771 5.99-1.13-5.037a1.185 1.185 0 0 0-.41-.679 1.137 1.137 0 0 0-.755-.274H9.854l1.35 5.99h2.151Zm.296-5.99v5.99h1.966v-5.99H13.65Zm2.847 2.117c.183.107.392.163.604.16.21.003.418-.052.599-.16a1.198 1.198 0 0 0 .59-1.037 1.151 1.151 0 0 0-.16-.6 1.212 1.212 0 0 0-.43-.43 1.153 1.153 0 0 0-.6-.16 1.204 1.204 0 0 0-1.038.59 1.15 1.15 0 0 0-.16.6 1.189 1.189 0 0 0 .595 1.038Zm2.097-2.117v5.99h1.966v-5.99h-1.966Zm4.582 3.48a4.645 4.645 0 0 0-.127-.207.512.512 0 0 1-.1-.278.538.538 0 0 1 .083-.27l1.671-2.725h-2.16a303.862 303.862 0 0 0-.717 1.177 90.969 90.969 0 0 1-.87 1.413.82.82 0 0 0-.134.405c.01.15.06.296.143.422.034.05.094.149.182.295.087.146.19.316.312.51.12.195.243.394.367.6.124.205.24.396.35.573l.367.595h2.16l-.422-.696a173.957 173.957 0 0 0-.797-1.308c-.127-.205-.23-.374-.308-.506Z" clip-rule="evenodd"/><path fill="#fff" d="m47.286 22.003-4.144-6.261L46.928 10h-1.894l-2.75 4.57L39.267 10h-2.082l3.888 5.825-4.075 6.177h1.928l3.034-4.932 3.261 4.932h2.065Z"/></svg>