<svg xmlns="http://www.w3.org/2000/svg" viewBox="0 0 91 24"><path fill="#fff" d="M0 17.997V5.998h3.937v11.999H0Zm9.294-10.09 2.264 10.09H7.25L4.545 5.998h2.417a2.276 2.276 0 0 1 1.513.55c.42.345.71.826.819 1.36Zm2.855 10.09V5.998h3.938v11.999h-3.938Zm6.912-7.436a2.381 2.381 0 0 1-2.078-1.191 2.345 2.345 0 0 1-.322-1.209 2.301 2.301 0 0 1 .321-1.2A2.41 2.41 0 0 1 20.26 6.1c.356.21.653.507.862.862.215.363.326.778.321 1.2a2.35 2.35 0 0 1-.321 1.209 2.4 2.4 0 0 1-.862.87 2.302 2.302 0 0 1-1.2.321Zm2.99 7.436V5.998h3.938v11.999h-3.937Zm8.923-5.442c.01.012.095.15.253.414.158.265.364.603.617 1.014a322.716 322.716 0 0 1 1.597 2.62c.247.411.529.876.845 1.394H29.96c-.27-.44-.516-.837-.736-1.192-.22-.354-.453-.738-.7-1.149-.248-.41-.493-.81-.736-1.2-.242-.389-.45-.73-.625-1.022a18.04 18.04 0 0 0-.363-.591 1.747 1.747 0 0 1-.287-.845c.016-.29.11-.57.27-.812.067-.113.191-.313.371-.6s.392-.628.634-1.022c.242-.395.488-.797.736-1.209l.7-1.157.736-1.2h4.326l-3.346 5.458a1.08 1.08 0 0 0-.17.542c.012.201.082.395.203.557Z"/><path fill="#9FDAF5" d="M47.663 6.004H38.11v1.487h3.892v10.51h1.785V7.49h3.876V6.004ZM51.148 9.325a3.368 3.368 0 0 0-.901.388c-.29.18-.558.393-.799.634-.04.04-.08.084-.12.126V9.215l-1.733.253v8.533h1.734v-6.384a4.393 4.393 0 0 1 .926-.493c.176-.068.354-.127.536-.177a3.637 3.637 0 0 1 1.19-.127l.204-1.588a3.261 3.261 0 0 0-1.037.093ZM60.905 16.936a.78.78 0 0 1-.663-.27 1.447 1.447 0 0 1-.187-.896l.034-3.48a4.037 4.037 0 0 0-.136-1.082 2.644 2.644 0 0 0-.408-.861 2.3 2.3 0 0 0-.705-.626 3.612 3.612 0 0 0-1.029-.388 6.103 6.103 0 0 0-1.343-.135c-.357 0-.715.022-1.07.067a7.392 7.392 0 0 0-.995.195c-.303.081-.6.18-.892.295l-.204 1.436a10.076 10.076 0 0 1 1.547-.422c.233-.044.468-.075.705-.093.232-.017.462-.025.689-.025.346-.008.693.032 1.028.118.245.061.47.183.654.355.164.167.282.374.34.6.073.278.108.565.103.853L58.37 13l-1.987.134c-.68.02-1.35.168-1.972.44a2.823 2.823 0 0 0-1.165.937 2.175 2.175 0 0 0-.382 1.242c-.003.416.099.825.297 1.191.208.376.521.684.901.887.464.24.982.356 1.505.338.49.011.977-.069 1.436-.236a3.312 3.312 0 0 0 1.071-.676c.118-.112.23-.23.334-.354.033.175.096.343.184.497.152.26.385.461.663.575.308.123.638.183.97.177.101 0 .2-.003.297-.008.095-.006.188-.02.28-.043l.247-.059c.066-.014.132-.034.195-.059l.188-1.132c-.094.032-.191.055-.29.068-.079.01-.158.017-.238.018Zm-2.547-1.027a2.271 2.271 0 0 1-.284.267 3.29 3.29 0 0 1-.595.371c-.21.102-.433.176-.663.22-.238.046-.48.068-.722.067a1.93 1.93 0 0 1-.808-.152 1.105 1.105 0 0 1-.5-.43 1.255 1.255 0 0 1-.17-.668c-.017-.281.06-.56.22-.794a1.3 1.3 0 0 1 .714-.422c.434-.102.88-.147 1.326-.135h1.489l-.008 1.676ZM67.305 5.38a5.567 5.567 0 0 0-1.113-.102 3.443 3.443 0 0 0-1.088.169c-.334.109-.639.29-.892.532a2.476 2.476 0 0 0-.595.904c-.15.411-.223.847-.213 1.284v1.217H62.13V10.7h1.275v7.3h1.734v-7.3h2.38V9.384h-2.38V7.98a1.576 1.576 0 0 1 .094-.566 1.07 1.07 0 0 1 .263-.405c.123-.113.272-.194.433-.237a2.12 2.12 0 0 1 .587-.076c.136 0 .266.006.39.017.126.011.247.028.366.05l.34.068c.096.02.19.048.28.085l-.067-1.402a4.108 4.108 0 0 0-.519-.136ZM69.2 18h1.734V9.216l-1.734.253v8.533ZM70.688 5.675a1.107 1.107 0 0 0-.587-.16 1.148 1.148 0 0 0-.595.16 1.246 1.246 0 0 0-.433.422 1.087 1.087 0 0 0-.162.583c-.001.208.054.413.162.592.104.176.254.322.433.422.182.101.387.154.595.152.206.002.409-.05.587-.152.175-.1.319-.247.416-.422.102-.18.155-.385.153-.592a1.134 1.134 0 0 0-.153-.583 1.198 1.198 0 0 0-.416-.422ZM80.98 9.384h-2.124l-2.91 3.176h-.626V5.244l-1.734.254V18h1.734v-4.139h.028l3.473 4.14h2.244l-4.123-4.619 4.039-3.998ZM89.904 9.384H87.78l-2.908 3.176h-.627V5.244l-1.734.254V18h1.734v-4.139h.028l3.473 4.14h2.244l-4.123-4.619 4.038-3.998Z"/></svg>