<svg xmlns="http://www.w3.org/2000/svg" viewBox="0 0 81 21"><path fill="#0A2343" d="M0 16.003V4.004h3.937v11.999H0Zm9.294-10.09 2.264 10.09H7.25L4.545 4.004h2.417a2.276 2.276 0 0 1 1.513.55c.42.345.71.826.819 1.36Zm2.855 10.09V4.004h3.938v11.999h-3.938Zm6.912-7.436a2.382 2.382 0 0 1-2.4-2.4 2.301 2.301 0 0 1 .321-1.2 2.41 2.41 0 0 1 3.278-.862c.356.21.653.506.862.862.215.363.326.778.321 1.2a2.35 2.35 0 0 1-.321 1.208 2.4 2.4 0 0 1-.862.87 2.302 2.302 0 0 1-1.2.322Zm2.99 7.436V4.004h3.938v11.999h-3.937Zm8.923-5.442c.01.012.095.15.253.414s.364.603.617 1.014a309.436 309.436 0 0 1 1.597 2.62c.247.411.529.876.845 1.394H29.96c-.27-.44-.516-.837-.736-1.192-.22-.354-.453-.738-.7-1.149-.248-.41-.493-.81-.736-1.2a60.12 60.12 0 0 1-.625-1.022 18.04 18.04 0 0 0-.363-.592 1.747 1.747 0 0 1-.287-.845c.016-.29.11-.57.27-.811.067-.113.191-.313.371-.6s.392-.628.634-1.022c.242-.395.488-.798.736-1.209l.7-1.157.736-1.2h4.326L30.94 9.462a1.08 1.08 0 0 0-.17.541c.012.202.082.396.203.558Z"/><path fill="#E81502" d="M46.223 10.387a3.202 3.202 0 0 0-.846-.617 6.59 6.59 0 0 0-1.023-.414 11.6 11.6 0 0 0-1.116-.288 24.167 24.167 0 0 1-.82-.203 3.78 3.78 0 0 1-.677-.245 2.234 2.234 0 0 1-.516-.339 1.217 1.217 0 0 1-.33-.473 1.83 1.83 0 0 1-.11-.668c-.003-.236.034-.47.11-.694.07-.197.186-.374.338-.516a2.09 2.09 0 0 1 .533-.355c.223-.101.46-.17.702-.203.289-.04.58-.06.871-.059a7.384 7.384 0 0 1 1.59.17c.255.055.506.125.753.21.23.08.454.18.668.296l.237-1.488a4.213 4.213 0 0 0-.753-.304 10.084 10.084 0 0 0-.803-.203 8.02 8.02 0 0 0-.83-.127 8.665 8.665 0 0 0-.862-.042 7.198 7.198 0 0 0-1.776.203c-.495.12-.963.332-1.378.626a2.825 2.825 0 0 0-.897 1.065 3.443 3.443 0 0 0-.313 1.522c-.01.406.057.81.195 1.192.121.32.309.611.55.855.238.238.512.437.811.592.318.163.649.3.99.406.355.113.719.208 1.09.287.305.068.587.138.847.212.24.066.476.154.702.262.194.091.373.211.532.355.151.142.27.315.347.508.09.231.133.478.127.727.004.264-.036.527-.118.778a1.808 1.808 0 0 1-.339.592 1.63 1.63 0 0 1-.541.405 2.736 2.736 0 0 1-.736.22c-.31.048-.624.07-.939.068-.305 0-.61-.02-.913-.059-.316-.04-.631-.093-.947-.16a9.485 9.485 0 0 1-.922-.246 17.61 17.61 0 0 1-.854-.296l.22 1.675c.288.107.582.2.88.278.27.071.544.128.82.17.264.039.53.07.795.092.265.023.533.035.803.034a8.308 8.308 0 0 0 1.801-.186 4.313 4.313 0 0 0 1.472-.609c.418-.277.757-.659.98-1.107a3.742 3.742 0 0 0 .348-1.7 3.816 3.816 0 0 0-.195-1.286 2.499 2.499 0 0 0-.558-.913ZM55.525 7.723a3.635 3.635 0 0 0-2.02-.532 5.163 5.163 0 0 0-1.252.16 5.44 5.44 0 0 0-1.506.639v-.782l-1.725.27v12.076h1.725v-3.786c.012.004.023.01.034.015.313.13.639.223.973.279.394.065.793.096 1.192.093a4.225 4.225 0 0 0 2.173-.559 4.015 4.015 0 0 0 1.523-1.615 5.4 5.4 0 0 0 .566-2.579 5.254 5.254 0 0 0-.431-2.199 3.395 3.395 0 0 0-1.252-1.48Zm-.448 5.658c-.203.45-.544.822-.972 1.065-.477.25-1.01.373-1.548.356a4.817 4.817 0 0 1-1.81-.345V9.119c.023-.01.046-.024.068-.034.248-.113.479-.209.694-.288a3.467 3.467 0 0 1 1.2-.22 3.127 3.127 0 0 1 1.505.33c.408.222.728.577.905 1.006.215.55.316 1.136.296 1.725a4.04 4.04 0 0 1-.338 1.743ZM65.454 7.732a4.64 4.64 0 0 0-2.292-.541 4.618 4.618 0 0 0-2.309.558 3.898 3.898 0 0 0-1.54 1.573 4.973 4.973 0 0 0-.549 2.401 5.184 5.184 0 0 0 .516 2.393 3.53 3.53 0 0 0 1.48 1.531 4.6 4.6 0 0 0 2.233.524 4.767 4.767 0 0 0 2.334-.557 3.938 3.938 0 0 0 1.581-1.59c.393-.751.588-1.59.567-2.436a4.903 4.903 0 0 0-.525-2.326 3.697 3.697 0 0 0-1.496-1.53Zm-.102 5.666c-.19.44-.512.809-.922 1.057a2.628 2.628 0 0 1-1.353.347 2.405 2.405 0 0 1-1.32-.356 2.382 2.382 0 0 1-.879-1.065 4.264 4.264 0 0 1-.321-1.76c-.02-.585.09-1.169.321-1.708.19-.423.506-.778.905-1.014a2.735 2.735 0 0 1 1.396-.339c.38-.01.758.063 1.107.212.307.138.574.35.779.617.218.29.376.621.465.973.105.411.156.835.152 1.26a4.212 4.212 0 0 1-.33 1.776ZM73.107 7.317a3.34 3.34 0 0 0-.897.39c-.288.18-.555.392-.795.633-.04.04-.079.085-.118.127v-1.26l-1.725.254v8.542h1.725v-6.39a4.325 4.325 0 0 1 .922-.494 5.88 5.88 0 0 1 .532-.178 3.629 3.629 0 0 1 1.184-.127l.203-1.59a3.232 3.232 0 0 0-1.031.093ZM80.447 14.59c-.08.017-.166.034-.262.051l-.288.05a2.447 2.447 0 0 1-.279.035c-.09.005-.175.008-.253.008a1.713 1.713 0 0 1-.753-.152 1.094 1.094 0 0 1-.482-.448 1.428 1.428 0 0 1-.17-.72V8.73h2.386l.186-1.353H77.96V4.705l-1.725.609v2.063h-1.303l-.186 1.353h1.489v5.04c-.008.336.043.671.152.99.087.251.222.484.397.684.161.179.357.323.575.423.224.103.46.177.702.22.24.044.483.067.727.068.18 0 .358-.006.533-.017a5.749 5.749 0 0 0 .897-.127c.13-.028.24-.053.33-.076l.101-1.404a1.26 1.26 0 0 1-.203.06Z"/></svg>