<svg xmlns="http://www.w3.org/2000/svg" viewBox="0 0 44 14"><path fill="#fff" d="M0 12.997V.998h3.937v12H0Zm9.294-10.09 2.264 10.09H7.25L4.545.998h2.417a2.276 2.276 0 0 1 1.513.55c.42.346.71.826.819 1.36Zm2.855 10.09V.998h3.938v12h-3.938Zm6.912-7.436a2.382 2.382 0 0 1-2.4-2.4 2.301 2.301 0 0 1 .321-1.2A2.41 2.41 0 0 1 20.26 1.1c.356.21.653.506.862.862.215.363.326.778.321 1.2a2.35 2.35 0 0 1-.321 1.208 2.4 2.4 0 0 1-.862.87 2.302 2.302 0 0 1-1.2.321Zm2.99 7.436V.998h3.938v12h-3.937Zm8.923-5.442c.01.012.095.15.253.414.158.265.364.603.617 1.014a317.184 317.184 0 0 1 1.597 2.62c.247.411.529.876.845 1.394H29.96c-.27-.44-.516-.836-.736-1.191-.22-.355-.453-.738-.7-1.15-.248-.41-.493-.81-.736-1.2-.242-.388-.45-.73-.625-1.022-.175-.293-.296-.49-.363-.591a1.747 1.747 0 0 1-.287-.845c.016-.29.11-.57.27-.812.067-.112.191-.312.371-.6a182.106 182.106 0 0 0 1.37-2.23l.7-1.158.736-1.2h4.326L30.94 6.457a1.08 1.08 0 0 0-.17.54c.012.202.082.396.203.558Z"/><path fill="#8BB5EB" d="M42.558.997c-.27.135-.526.268-.769.397-.242.13-.478.251-.71.364l-.7.338a8.229 8.229 0 0 1-.727.304c-.248.09-.513.18-.795.27l.372 1.437c.338-.102.645-.203.921-.304.27-.1.536-.212.794-.338.254-.124.507-.26.76-.406l.01-.005v9.943h1.757v-12h-.913Z"/></svg>