<svg xmlns="http://www.w3.org/2000/svg" viewBox="0 0 83 41" fill="currentColor"><path d="M0 17.997v-12h3.937v12H0Zm9.294-10.09 2.264 10.09H7.25l-2.704-12h2.417a2.276 2.276 0 0 1 1.513.55c.42.346.71.826.819 1.36Zm2.855 10.09v-12h3.938v12h-3.938Zm6.912-7.436a2.381 2.381 0 0 1-2.078-1.192 2.345 2.345 0 0 1-.322-1.208 2.301 2.301 0 0 1 .321-1.2 2.41 2.41 0 0 1 3.278-.862c.356.21.653.506.862.862.215.363.326.778.321 1.2a2.35 2.35 0 0 1-.321 1.208c-.207.36-.504.66-.862.87a2.301 2.301 0 0 1-1.2.322Zm2.99 7.436v-12h3.938v12h-3.937Zm8.923-5.442c.01.011.095.15.253.414s.364.602.617 1.014a309.436 309.436 0 0 1 1.597 2.62c.247.41.529.875.845 1.394H29.96c-.27-.44-.516-.837-.736-1.192-.22-.355-.453-.738-.7-1.15-.248-.41-.493-.81-.736-1.199a60.12 60.12 0 0 1-.625-1.022 18.04 18.04 0 0 0-.363-.592 1.747 1.747 0 0 1-.287-.845c.016-.29.11-.57.27-.811.067-.113.191-.313.371-.6a182.106 182.106 0 0 0 1.37-2.23l.7-1.159.736-1.2h4.326l-3.346 5.46a1.079 1.079 0 0 0-.17.54c.012.202.082.396.203.558ZM8.026 30.24c.14.419.206.86.197 1.301a3.793 3.793 0 0 1-.352 1.722c-.227.454-.57.841-.993 1.122a4.36 4.36 0 0 1-1.49.616 8.41 8.41 0 0 1-1.825.189c-.274 0-.545-.012-.813-.034a12.975 12.975 0 0 1-.806-.095c-.28-.042-.557-.1-.83-.17a9.165 9.165 0 0 1-.891-.284L0 32.912c.274.102.563.202.865.3.303.097.614.18.934.248.319.068.639.123.959.163.307.039.616.059.925.06.318.002.636-.02.95-.07.258-.038.509-.113.746-.222a1.65 1.65 0 0 0 .548-.41c.151-.177.268-.38.342-.6a2.37 2.37 0 0 0 .12-.788 1.909 1.909 0 0 0-.128-.737 1.445 1.445 0 0 0-.351-.514 2.233 2.233 0 0 0-.54-.36 4.33 4.33 0 0 0-.71-.265 16.386 16.386 0 0 0-.857-.214c-.377-.08-.745-.177-1.105-.291a6.315 6.315 0 0 1-1.002-.411 3.301 3.301 0 0 1-.822-.6 2.476 2.476 0 0 1-.557-.865A3.323 3.323 0 0 1 .12 26.13a3.485 3.485 0 0 1 .317-1.542c.208-.43.52-.801.908-1.08a4.07 4.07 0 0 1 1.396-.633 7.274 7.274 0 0 1 1.798-.206c.297 0 .588.014.874.043.282.028.562.07.84.128.273.058.545.126.813.206.263.078.519.181.762.308l-.24 1.508a4.313 4.313 0 0 0-.676-.3 6.56 6.56 0 0 0-.763-.214 7.816 7.816 0 0 0-1.61-.171 6 6 0 0 0-.882.06 2.54 2.54 0 0 0-.71.205c-.198.092-.38.213-.54.36a1.305 1.305 0 0 0-.343.522 2.053 2.053 0 0 0-.111.703c-.006.23.032.46.111.676.071.185.186.349.334.48.158.137.334.252.523.342.22.104.449.188.685.248.257.069.534.137.83.206.389.08.765.177 1.13.291.358.11.704.251 1.037.42.318.16.608.371.857.625.253.264.446.58.566.925Zm9.926 3.665c.1-.013.197-.036.291-.068l-.188 1.147a1.37 1.37 0 0 1-.197.06c-.075.017-.157.037-.249.06a1.586 1.586 0 0 1-.282.043 5.405 5.405 0 0 1-.3.009 2.501 2.501 0 0 1-.977-.18 1.382 1.382 0 0 1-.668-.583 1.62 1.62 0 0 1-.185-.504 4.589 4.589 0 0 1-.337.359 3.34 3.34 0 0 1-1.079.685 3.95 3.95 0 0 1-1.447.24 3.056 3.056 0 0 1-1.517-.343 2.253 2.253 0 0 1-.908-.9 2.506 2.506 0 0 1-.299-1.207c-.002-.449.132-.888.385-1.259a2.851 2.851 0 0 1 1.174-.95 5.318 5.318 0 0 1 1.987-.446l2.002-.136.002-.43a3.24 3.24 0 0 0-.103-.864 1.364 1.364 0 0 0-.343-.608 1.499 1.499 0 0 0-.659-.36 3.844 3.844 0 0 0-1.036-.12c-.229 0-.46.009-.694.026a6.23 6.23 0 0 0-.711.094 9.86 9.86 0 0 0-1.559.428l.206-1.456c.294-.117.594-.217.899-.3.33-.088.664-.154 1.002-.197a8.406 8.406 0 0 1 1.08-.068c.454-.005.908.04 1.353.137.363.077.713.21 1.036.394.278.16.52.375.711.633.188.265.328.56.41.874.096.358.142.727.138 1.097l-.034 3.528c-.037.315.03.634.188.908a.78.78 0 0 0 .668.274c.08 0 .16-.006.24-.017Zm-2.807-1.023.007-1.7h-1.5a5.212 5.212 0 0 0-1.336.137c-.28.06-.533.21-.719.428-.161.236-.24.52-.223.805-.007.237.053.471.171.676.12.194.296.346.505.437.257.11.535.162.814.154.245.001.488-.022.728-.068.232-.045.456-.12.668-.223a3.29 3.29 0 0 0 .6-.377c.103-.081.197-.171.285-.27ZM15.948 22h-1.85l-1.456 3.066h1.336L15.948 22Zm15.76 4.437a2.983 2.983 0 0 0-1.525-.36 4.008 4.008 0 0 0-1.354.231c-.44.158-.856.38-1.233.66-.213.157-.416.329-.608.513a2.147 2.147 0 0 0-.882-1.028 3.021 3.021 0 0 0-1.542-.36c-.458 0-.912.079-1.344.232a4.865 4.865 0 0 0-1.602.936v-1.167l-1.747.257V35h1.747v-6.515c.206-.135.42-.256.642-.362a4.42 4.42 0 0 1 .848-.3c.27-.066.545-.1.822-.103.255-.007.508.036.745.129.196.083.37.212.506.377.148.19.25.413.3.65.066.307.098.62.094.934v5.19h1.747v-5.55a6.901 6.901 0 0 0-.066-.98c.198-.13.403-.248.614-.356a3.91 3.91 0 0 1 .84-.308 3.58 3.58 0 0 1 .838-.103c.252-.006.503.038.737.129.2.081.376.21.514.377.15.19.252.413.3.65.067.307.098.62.094.934v5.207h1.747v-5.567a4.972 4.972 0 0 0-.308-1.901 2.207 2.207 0 0 0-.925-1.096Zm5.318-3.932a1.108 1.108 0 0 0-.591-.162 1.153 1.153 0 0 0-.6.162 1.253 1.253 0 0 0-.437.429 1.175 1.175 0 0 0 .437 1.619c.183.102.39.155.6.153.207.003.411-.05.59-.154.177-.101.322-.25.42-.428.103-.183.157-.39.155-.6a1.155 1.155 0 0 0-.155-.59 1.206 1.206 0 0 0-.42-.429Zm-1.5 12.496h1.748v-8.907l-1.747.257V35Zm12.043-8.796a3.38 3.38 0 0 0-.908.394 4.47 4.47 0 0 0-.805.642c-.04.04-.08.086-.12.129v-1.276l-1.747.257V35h1.747V28.53a4.42 4.42 0 0 1 .934-.5c.177-.069.356-.129.54-.18a3.663 3.663 0 0 1 1.198-.129l.206-1.61a3.279 3.279 0 0 0-1.045.094Zm10.072 7.7c.1-.013.197-.036.291-.068l-.188 1.147c-.064.025-.13.045-.197.06l-.248.06a1.59 1.59 0 0 1-.283.043 5.372 5.372 0 0 1-.3.009 2.501 2.501 0 0 1-.976-.18 1.38 1.38 0 0 1-.668-.583 1.613 1.613 0 0 1-.186-.504 4.702 4.702 0 0 1-.337.359 3.346 3.346 0 0 1-1.079.685c-.463.17-.954.25-1.447.24a3.054 3.054 0 0 1-1.516-.343 2.251 2.251 0 0 1-.908-.9c-.2-.37-.303-.785-.3-1.207a2.21 2.21 0 0 1 .386-1.259 2.845 2.845 0 0 1 1.173-.95 5.316 5.316 0 0 1 1.987-.446l2.002-.136.002-.43a3.24 3.24 0 0 0-.103-.864 1.357 1.357 0 0 0-.343-.608 1.5 1.5 0 0 0-.66-.36 3.837 3.837 0 0 0-1.035-.12c-.229 0-.46.009-.694.026a6.23 6.23 0 0 0-.711.094 9.72 9.72 0 0 0-1.559.428l.206-1.456c.293-.117.594-.217.9-.3.328-.088.663-.154 1.001-.197a8.391 8.391 0 0 1 1.08-.068c.454-.005.908.04 1.353.137.363.077.713.21 1.036.394.278.16.52.375.71.633.19.265.329.56.412.874.095.358.14.727.137 1.097l-.034 3.528c-.037.315.03.634.188.908a.783.783 0 0 0 .669.274c.08 0 .16-.006.24-.017Zm-2.807-1.023.007-1.7h-1.5a5.208 5.208 0 0 0-1.335.137 1.122 1.122 0 0 0-.943 1.233 1.28 1.28 0 0 0 .172.676c.12.194.296.346.505.437.257.11.535.163.814.154.244.001.488-.022.728-.068a2.69 2.69 0 0 0 .668-.223c.213-.103.414-.23.6-.377a2.29 2.29 0 0 0 .284-.27Zm10.67-10.556 1.746-.24V35h-1.42l-.216-.792a6.455 6.455 0 0 1-.385.261c-.37.232-.77.411-1.19.531a4.762 4.762 0 0 1-1.293.172 3.795 3.795 0 0 1-2.03-.523 3.398 3.398 0 0 1-1.302-1.481 5.278 5.278 0 0 1-.454-2.279 5.273 5.273 0 0 1 .6-2.612 4.185 4.185 0 0 1 3.716-2.201 5.902 5.902 0 0 1 2.176.394l.051.022v-4.167Zm0 10.76v-5.279c-.09-.033-.182-.068-.266-.095a5.199 5.199 0 0 0-1.619-.248 3.032 3.032 0 0 0-1.533.368c-.432.25-.776.627-.985 1.08a4.073 4.073 0 0 0-.343 1.772c-.019.595.086 1.187.309 1.739.177.43.49.79.89 1.028.43.233.916.348 1.405.334.42-.011.834-.095 1.225-.249.318-.122.625-.272.916-.45Zm5.917-10.58a1.11 1.11 0 0 0-.59-.163 1.154 1.154 0 0 0-.6.162 1.254 1.254 0 0 0-.436.429 1.106 1.106 0 0 0-.163.59c-.002.211.054.419.162.6a1.198 1.198 0 0 0 1.037.582c.207.003.411-.05.59-.154.177-.101.322-.25.42-.428.104-.183.157-.39.155-.6a1.158 1.158 0 0 0-.154-.59 1.207 1.207 0 0 0-.42-.429ZM69.923 35h1.748v-8.907l-1.748.257V35Zm12.693-4.47a5.053 5.053 0 0 1-.573 2.467 3.99 3.99 0 0 1-1.602 1.61 4.824 4.824 0 0 1-2.364.565 4.655 4.655 0 0 1-2.261-.531 3.574 3.574 0 0 1-1.499-1.55 5.247 5.247 0 0 1-.522-2.424 5.034 5.034 0 0 1 .556-2.433 3.95 3.95 0 0 1 1.56-1.593 5.153 5.153 0 0 1 4.658-.017 3.742 3.742 0 0 1 1.516 1.55c.368.73.55 1.539.531 2.356Zm-1.815.034a4.92 4.92 0 0 0-.155-1.276 2.768 2.768 0 0 0-.47-.985 2.064 2.064 0 0 0-.789-.625 2.699 2.699 0 0 0-1.122-.215 2.77 2.77 0 0 0-1.413.343c-.404.24-.724.599-.916 1.028a4.032 4.032 0 0 0-.326 1.73c-.018.61.093 1.217.326 1.781a2.287 2.287 0 0 0 2.227 1.44c.48.008.953-.114 1.37-.352.415-.251.74-.625.933-1.07a4.27 4.27 0 0 0 .335-1.8Z"/></svg>