<svg xmlns="http://www.w3.org/2000/svg" viewBox="0 0 45 31"><g clip-path="url(#a)"><g fill="#00B3C7" clip-path="url(#b)"><path d="M22.188 26.443c.07.183.103.378.098.574.008.264-.056.526-.185.757-.123.21-.297.386-.504.514a2.32 2.32 0 0 1-.755.292c-.307.063-.62.094-.934.092-.145 0-.287-.004-.428-.011a2.963 2.963 0 0 1-.43-.054 6.942 6.942 0 0 1-.456-.109 9.887 9.887 0 0 1-.531-.162l-.044-.985c.167.058.335.112.505.163a5.687 5.687 0 0 0 .956.2c.135.017.27.026.407.027a2.82 2.82 0 0 0 .591-.06c.164-.03.317-.1.445-.205a.51.51 0 0 0 .169-.405.47.47 0 0 0-.055-.222.608.608 0 0 0-.152-.184 1.167 1.167 0 0 0-.228-.146 3.08 3.08 0 0 0-.271-.12 8.291 8.291 0 0 1-.223-.07l-.239-.075a6.473 6.473 0 0 0-.25-.07 2.86 2.86 0 0 1-.494-.173 2.447 2.447 0 0 1-.412-.212 1.445 1.445 0 0 1-.337-.291 1.258 1.258 0 0 1-.222-.4 1.612 1.612 0 0 1-.082-.536c-.006-.255.05-.507.164-.736.108-.21.27-.388.466-.52.222-.144.469-.249.728-.307.302-.071.612-.106.922-.103.138 0 .277.005.418.016.14.01.28.029.418.054a3.256 3.256 0 0 1 .825.265l-.086.952a2.252 2.252 0 0 0-.32-.13 5.204 5.204 0 0 0-.685-.167 3.768 3.768 0 0 0-.58-.049 2.292 2.292 0 0 0-.467.043 1.273 1.273 0 0 0-.353.125.558.558 0 0 0-.217.2.518.518 0 0 0-.07.27.489.489 0 0 0 .07.265.703.703 0 0 0 .179.195c.078.057.161.106.25.146.091.045.185.085.282.119.101.036.208.069.32.097.112.03.225.063.337.103.112.04.222.078.33.114.163.056.321.124.473.205.146.078.278.178.39.298.115.121.205.262.267.416Zm4.703-3.353 1.238-.184-.011 5.657h-.966l-.173-.702-.082.075c-.17.154-.358.288-.56.4a2.74 2.74 0 0 1-.613.25 2.645 2.645 0 0 1-.689.086c-.36.01-.716-.07-1.037-.233a1.473 1.473 0 0 1-.646-.703c-.145-.314-.217-.716-.217-1.206v-3.44l1.238-.184v3.397c-.007.241.033.482.119.708.07.18.2.332.37.428.2.102.425.15.65.14a2.2 2.2 0 0 0 .408-.037 2.832 2.832 0 0 0 .77-.265c.066-.034.133-.07.201-.11V23.09Zm6.788.146a2.346 2.346 0 0 0-1.292-.34 3.207 3.207 0 0 0-.815.108 3.544 3.544 0 0 0-.814.33c-.047.026-.094.056-.14.085v-.512l-1.238.195v7.723h1.237v-2.43c.197.083.403.145.613.186.26.049.524.072.788.07.49.007.974-.116 1.4-.357.42-.246.76-.607.983-1.039.242-.454.363-1.006.363-1.655a3.39 3.39 0 0 0-.276-1.411 2.162 2.162 0 0 0-.81-.953Zm-.391 3.592c-.126.28-.34.51-.608.66a1.996 1.996 0 0 1-.977.221 2.828 2.828 0 0 1-.945-.146 6.722 6.722 0 0 1-.14-.047V24.16l.01-.005c.152-.068.295-.126.429-.173.125-.044.254-.079.385-.103a2.07 2.07 0 0 1 .358-.032c.326-.012.649.059.94.205.252.141.451.362.564.628.138.34.203.704.19 1.07.011.37-.06.737-.206 1.077Zm6.195-.8c.215-.063.415-.166.592-.303.15-.12.271-.274.353-.449.08-.177.12-.369.119-.562a1.59 1.59 0 0 0-.147-.66 1.704 1.704 0 0 0-.434-.579 2.078 2.078 0 0 0-.722-.4 3.18 3.18 0 0 0-1.01-.146c-.593 0-1.096.124-1.509.373a2.354 2.354 0 0 0-.933 1.05 3.692 3.692 0 0 0-.315 1.573c0 .6.11 1.104.33 1.515.222.411.57.741.994.941.442.216.985.325 1.629.325.24.001.48-.015.717-.05.21-.03.418-.08.618-.15.196-.069.395-.15.597-.244l.077-.898c-.282.11-.57.202-.864.276-.328.08-.666.117-1.004.114a3 3 0 0 1-.803-.098 1.239 1.239 0 0 1-.917-.909 2.607 2.607 0 0 1-.09-.473l1.886-.1c.284-.015.564-.065.836-.146Zm-2.834-.558c.014-.264.067-.524.156-.773.09-.262.261-.49.489-.649.235-.146.51-.22.787-.21.225-.01.449.037.651.135a.92.92 0 0 1 .37.34.815.815 0 0 1 .12.412.608.608 0 0 1-.083.32.563.563 0 0 1-.27.215 1.593 1.593 0 0 1-.506.103l-1.714.107Zm7.923-2.537-.152 1.114a3.17 3.17 0 0 0-.418.005c-.127.01-.252.03-.375.06-.116.03-.23.065-.342.108a2.2 2.2 0 0 0-.33.163c-.08.047-.16.099-.24.15v4.025h-1.238v-5.474l1.238-.183v.869l.06-.069c.15-.168.32-.32.505-.449.18-.125.38-.219.591-.276.229-.058.466-.073.7-.043ZM0 28.592v-5.59h1.85v5.59H0Zm4.366-4.7 1.064 4.7H3.406l-1.27-5.59H3.27c.26-.004.513.087.71.255.198.162.334.385.385.634Zm1.342 4.7v-5.59h1.85v5.59h-1.85Zm3.246-3.465a1.11 1.11 0 0 1-.567-.15 1.114 1.114 0 0 1-.409-1.527 1.128 1.128 0 0 1 .976-.551c.199-.002.393.05.564.15.167.097.307.235.405.401.1.17.153.363.15.56a1.122 1.122 0 0 1-.556.968c-.17.1-.365.152-.563.15Zm1.406 3.465v-5.59h1.85v5.59h-1.85Zm4.191-2.536c.005.006.045.07.12.193.073.123.17.281.289.473a148.408 148.408 0 0 1 .75 1.22c.116.192.249.408.397.65h-2.032l-.346-.555a48.75 48.75 0 0 1-.329-.536 49.165 49.165 0 0 0-.345-.559c-.114-.181-.212-.34-.294-.476a8.426 8.426 0 0 0-.17-.276.81.81 0 0 1-.136-.393.76.76 0 0 1 .127-.378c.032-.053.09-.146.175-.28a59.018 59.018 0 0 0 .643-1.04 260.044 260.044 0 0 1 .675-1.098h2.032l-1.572 2.543a.5.5 0 0 0-.08.253.475.475 0 0 0 .096.26Z"/><path fill-rule="evenodd" d="M22.429.254c-5.386 0-9.781 4.38-9.781 9.746 0 5.357 4.395 9.747 9.78 9.747 5.376 0 9.782-4.39 9.782-9.747 0-5.366-4.406-9.746-9.781-9.746ZM14.566 10c0 4.327 3.552 7.909 7.863 7.909 4.353 0 7.863-3.582 7.863-7.909 0-4.38-3.51-7.908-7.863-7.908-4.311 0-7.863 3.529-7.863 7.908Zm6.134.032a1.479 1.479 0 0 1-.928 1.388c-.184.074-.38.11-.58.108-.398 0-.78-.157-1.061-.438a1.494 1.494 0 0 1 1.062-2.555 1.492 1.492 0 0 1 1.396.92c.076.183.113.38.111.577Zm6.84-.693-.99.787c-.074.052-.074.105-.053.189l.327 1.208c.021.063-.01.073-.053.042l-1.065-.693a.157.157 0 0 0-.189 0l-1.075.704c-.042.031-.074.01-.053-.053l.327-1.208a.16.16 0 0 0-.043-.189l-1-.809c-.032-.03-.032-.073.02-.073l1.255-.052a.127.127 0 0 0 .127-.095l.484-1.208c.032-.073.074-.063.095 0l.422 1.166a.174.174 0 0 0 .19.137l1.243.052c.074 0 .084.053.032.095Z" clip-rule="evenodd"/></g></g><defs><clipPath id="a"><path fill="#fff" d="M0 0h45v31H0z"/></clipPath><clipPath id="b"><path fill="#fff" d="M0 0h44.571v30.571H0z"/></clipPath></defs></svg>