<svg xmlns="http://www.w3.org/2000/svg" viewBox="0 0 84 31"><path fill="#0A2343" d="M0 12.997v-12h3.937v12H0Zm9.294-10.09 2.264 10.09H7.25l-2.704-12h2.417a2.276 2.276 0 0 1 1.513.55c.42.346.71.826.819 1.36Zm2.855 10.09v-12h3.938v12h-3.938Zm6.912-7.436a2.382 2.382 0 0 1-2.4-2.4 2.301 2.301 0 0 1 .321-1.2 2.41 2.41 0 0 1 3.278-.862c.356.21.653.506.862.862.215.363.326.778.321 1.2a2.35 2.35 0 0 1-.321 1.208 2.4 2.4 0 0 1-.862.87 2.302 2.302 0 0 1-1.2.322Zm2.99 7.436v-12h3.938v12h-3.937Zm8.923-5.442c.01.011.095.15.253.414s.364.602.617 1.014a313.388 313.388 0 0 1 1.597 2.62c.247.41.529.876.845 1.394H29.96c-.27-.44-.516-.837-.736-1.192-.22-.355-.453-.738-.7-1.15-.248-.41-.493-.81-.736-1.199-.242-.389-.45-.73-.625-1.022-.175-.293-.296-.49-.363-.592a1.747 1.747 0 0 1-.287-.845c.016-.29.11-.57.27-.811.067-.113.191-.313.371-.6a182.106 182.106 0 0 0 1.37-2.23l.7-1.159.736-1.2h4.326l-3.346 5.46a1.08 1.08 0 0 0-.17.54c.012.202.082.396.203.558Z"/><path fill="#114F9D" d="M8.032 25.368c.14.42.206.86.197 1.303a3.795 3.795 0 0 1-.352 1.723c-.227.455-.57.842-.994 1.123-.454.296-.96.506-1.491.617-.6.129-1.212.192-1.826.188a9.58 9.58 0 0 1-.814-.034 12.843 12.843 0 0 1-.806-.094c-.28-.043-.558-.1-.831-.172-.302-.079-.6-.173-.892-.282L0 28.041c.274.103.563.203.866.3.303.098.614.18.934.249.32.069.64.123.96.163.307.04.616.06.926.06.318.003.636-.02.951-.069.258-.039.509-.114.746-.223.21-.097.396-.237.548-.411.152-.176.268-.38.343-.6.085-.254.125-.52.12-.789a1.91 1.91 0 0 0-.128-.737 1.445 1.445 0 0 0-.351-.514 2.233 2.233 0 0 0-.54-.36 4.319 4.319 0 0 0-.712-.265 16.403 16.403 0 0 0-.857-.215c-.378-.08-.746-.177-1.106-.291a6.314 6.314 0 0 1-1.003-.412 3.305 3.305 0 0 1-.822-.6 2.478 2.478 0 0 1-.558-.865 3.325 3.325 0 0 1-.197-1.209 3.487 3.487 0 0 1 .317-1.543c.208-.43.52-.801.909-1.08a4.071 4.071 0 0 1 1.397-.634 7.285 7.285 0 0 1 1.8-.206c.297 0 .588.014.874.043.282.028.562.07.84.128a9.9 9.9 0 0 1 .814.206c.264.078.52.182.763.309l-.24 1.508a4.31 4.31 0 0 0-.677-.3 6.55 6.55 0 0 0-.763-.214 7.856 7.856 0 0 0-1.611-.171 6.022 6.022 0 0 0-.883.06 2.54 2.54 0 0 0-.711.206c-.198.091-.38.213-.54.36a1.306 1.306 0 0 0-.343.522 2.054 2.054 0 0 0-.112.703c-.005.23.032.46.112.677.071.185.186.35.334.48.158.137.334.253.523.343.22.104.45.187.686.248.257.069.534.137.83.206.39.08.766.177 1.132.291.357.111.704.252 1.038.42.318.16.607.372.857.626.253.264.446.58.565.926m9.935 3.669c.099-.014.197-.037.291-.069l-.188 1.149c-.064.024-.13.045-.198.06l-.248.06a1.588 1.588 0 0 1-.283.043 5.417 5.417 0 0 1-.3.008 2.503 2.503 0 0 1-.977-.18 1.382 1.382 0 0 1-.669-.583 1.622 1.622 0 0 1-.185-.505 4.578 4.578 0 0 1-.338.36 3.344 3.344 0 0 1-1.08.685c-.463.17-.954.251-1.448.24-.527.019-1.05-.1-1.517-.343a2.254 2.254 0 0 1-.909-.9 2.508 2.508 0 0 1-.3-1.208c-.002-.45.133-.89.386-1.26a2.853 2.853 0 0 1 1.174-.952 5.322 5.322 0 0 1 1.989-.445l2.004-.136.001-.43a3.24 3.24 0 0 0-.102-.866 1.364 1.364 0 0 0-.343-.608 1.499 1.499 0 0 0-.66-.36 3.85 3.85 0 0 0-1.037-.12c-.229 0-.46.008-.695.025-.239.018-.476.05-.711.095a9.848 9.848 0 0 0-1.56.429l.206-1.458c.294-.117.594-.217.9-.3.329-.089.664-.155 1.003-.197a8.419 8.419 0 0 1 1.08-.069c.455-.005.909.041 1.354.137.364.078.713.211 1.037.395.278.16.52.375.712.634a2.7 2.7 0 0 1 .41.874c.096.358.142.727.138 1.098l-.034 3.53c-.037.316.03.635.188.91a.783.783 0 0 0 .669.274c.08-.001.16-.007.24-.017Zm-2.81-1.025.008-1.701h-1.5c-.45-.012-.9.034-1.338.137-.28.06-.534.21-.72.429-.161.236-.24.52-.223.805-.007.238.052.472.171.678.12.193.297.346.506.437.257.11.535.162.814.154.245 0 .489-.022.729-.069.232-.045.456-.12.668-.223.213-.103.415-.23.6-.377.103-.081.199-.172.286-.27m.803-10.89H14.11l-1.458 3.069h1.338l1.971-3.069Zm15.772 4.44a2.985 2.985 0 0 0-1.526-.36 4.014 4.014 0 0 0-1.354.232c-.442.158-.858.38-1.235.66-.213.158-.416.33-.608.514a2.148 2.148 0 0 0-.883-1.029 3.023 3.023 0 0 0-1.543-.36c-.458 0-.913.078-1.345.231a4.869 4.869 0 0 0-1.603.938v-1.169l-1.749.258v8.657h1.749v-6.52c.206-.136.42-.257.642-.363a4.43 4.43 0 0 1 .85-.3c.268-.067.544-.101.822-.103.254-.008.508.036.745.129.197.083.37.212.506.377.149.19.252.414.3.651.067.307.098.62.094.934v5.195h1.749v-5.555a6.912 6.912 0 0 0-.066-.98c.198-.13.403-.25.614-.357.268-.134.55-.238.84-.308a3.59 3.59 0 0 1 .84-.103c.252-.006.503.038.738.128.2.082.376.212.514.378.149.19.252.414.3.651.067.307.098.62.094.934v5.212h1.749v-5.572a4.973 4.973 0 0 0-.309-1.902 2.208 2.208 0 0 0-.925-1.098Zm5.322-3.934a1.11 1.11 0 0 0-.591-.163 1.153 1.153 0 0 0-.6.163c-.179.105-.33.252-.437.429a1.177 1.177 0 0 0 .437 1.62 1.2 1.2 0 0 0 .6.154c.207.003.412-.05.591-.154.177-.102.322-.25.42-.429.103-.183.157-.39.155-.6a1.157 1.157 0 0 0-.155-.591 1.208 1.208 0 0 0-.42-.429Zm-1.5 12.506h1.749v-8.915l-1.749.258v8.657Zm12.052-8.803c-.32.086-.627.219-.91.394a4.477 4.477 0 0 0-.805.643c-.04.04-.08.085-.12.128V21.22l-1.748.257v8.657h1.748v-6.477a4.411 4.411 0 0 1 .934-.5c.178-.069.358-.129.54-.18a3.659 3.659 0 0 1 1.2-.129l.206-1.612a3.275 3.275 0 0 0-1.045.095m10.08 7.706c.099-.014.196-.037.29-.069l-.188 1.149c-.064.025-.13.045-.197.06a11.22 11.22 0 0 0-.248.06 1.593 1.593 0 0 1-.283.043 5.379 5.379 0 0 1-.3.008 2.499 2.499 0 0 1-.977-.18 1.381 1.381 0 0 1-.669-.583 1.614 1.614 0 0 1-.185-.505 4.729 4.729 0 0 1-.338.36c-.312.295-.679.528-1.08.685-.463.17-.955.251-1.448.24-.527.018-1.05-.1-1.517-.343a2.253 2.253 0 0 1-.909-.9 2.51 2.51 0 0 1-.3-1.208c-.003-.45.132-.89.386-1.26a2.846 2.846 0 0 1 1.174-.952 5.322 5.322 0 0 1 1.989-.445l2.003-.136.002-.43a3.24 3.24 0 0 0-.103-.866c-.059-.23-.177-.439-.343-.608a1.5 1.5 0 0 0-.66-.36 3.839 3.839 0 0 0-1.037-.12c-.228 0-.46.008-.694.025-.239.018-.476.05-.711.095a9.687 9.687 0 0 0-1.56.429l.205-1.458c.294-.117.595-.217.9-.3.33-.089.665-.155 1.003-.197a8.423 8.423 0 0 1 1.08-.069c.455-.005.91.041 1.354.137.364.078.714.211 1.038.395.278.16.52.375.71.634.19.264.33.56.413.874.094.358.14.727.137 1.098l-.034 3.53c-.037.316.029.635.188.91a.783.783 0 0 0 .669.274c.08-.001.16-.007.24-.017Zm-2.81-1.025.008-1.701h-1.501a5.212 5.212 0 0 0-1.337.137 1.123 1.123 0 0 0-.943 1.234 1.28 1.28 0 0 0 .171.678c.12.193.297.346.506.437.257.11.535.162.815.154.244 0 .488-.022.728-.069.231-.044.456-.12.668-.223a3.29 3.29 0 0 0 .6-.377c.103-.081.199-.172.286-.27m10.677-10.564 1.748-.24v12.926H65.88l-.215-.793a6.462 6.462 0 0 1-.386.261c-.37.232-.77.411-1.191.532a4.761 4.761 0 0 1-1.294.171 3.798 3.798 0 0 1-2.032-.523A3.4 3.4 0 0 1 59.46 28.3a5.282 5.282 0 0 1-.455-2.28 5.277 5.277 0 0 1 .6-2.614 4.188 4.188 0 0 1 3.72-2.203 5.904 5.904 0 0 1 2.177.395c.018.006.034.015.052.022v-4.171Zm0 10.77v-5.284c-.09-.033-.182-.069-.266-.095a5.206 5.206 0 0 0-1.62-.249 3.035 3.035 0 0 0-1.534.369c-.432.25-.777.627-.986 1.08a4.076 4.076 0 0 0-.343 1.774 4.29 4.29 0 0 0 .309 1.74c.177.43.49.792.89 1.029a2.78 2.78 0 0 0 1.407.334c.42-.01.835-.095 1.226-.248.318-.122.625-.273.917-.451m5.922-10.589a1.109 1.109 0 0 0-.59-.163 1.154 1.154 0 0 0-.6.163 1.256 1.256 0 0 0-.438.429 1.108 1.108 0 0 0-.163.591c-.002.211.055.419.163.6a1.2 1.2 0 0 0 1.037.583c.208.003.412-.05.592-.154.176-.102.322-.25.42-.429.103-.183.156-.39.154-.6a1.16 1.16 0 0 0-.154-.591 1.206 1.206 0 0 0-.42-.429m-1.5 12.506h1.749v-8.915l-1.75.258v8.657ZM82.68 25.66a5.057 5.057 0 0 1-.574 2.468 3.995 3.995 0 0 1-1.603 1.611 4.83 4.83 0 0 1-2.366.566 4.659 4.659 0 0 1-2.263-.531 3.576 3.576 0 0 1-1.5-1.552 5.25 5.25 0 0 1-.523-2.425 5.04 5.04 0 0 1 .558-2.435 3.954 3.954 0 0 1 1.56-1.594 5.157 5.157 0 0 1 4.662-.017 3.745 3.745 0 0 1 1.518 1.551c.368.73.55 1.54.531 2.358Zm-1.817.034c.005-.43-.047-.86-.154-1.277a2.771 2.771 0 0 0-.472-.986 2.065 2.065 0 0 0-.788-.626 2.701 2.701 0 0 0-1.123-.214 2.773 2.773 0 0 0-1.415.343c-.404.24-.724.6-.917 1.028a4.035 4.035 0 0 0-.325 1.732 4.32 4.32 0 0 0 .325 1.783 2.29 2.29 0 0 0 2.229 1.44c.48.008.954-.113 1.371-.352.415-.251.742-.626.934-1.071.24-.569.355-1.183.335-1.8Z"/></svg>