<svg xmlns="http://www.w3.org/2000/svg" viewBox="0 0 64 14" fill="currentColor"><path d="M0 12.998V1h3.937v12H0Zm9.294-10.09 2.264 10.09H7.25L4.546 1h2.416a2.276 2.276 0 0 1 1.513.55c.42.345.71.826.819 1.36Zm2.856 10.09V1h3.937v12H12.15Zm6.91-7.436a2.383 2.383 0 0 1-2.4-2.4 2.303 2.303 0 0 1 .322-1.2 2.412 2.412 0 0 1 3.278-.861c.356.209.653.506.862.861.215.364.326.779.321 1.2a2.4 2.4 0 0 1-1.183 2.079 2.303 2.303 0 0 1-1.2.321Zm2.992 7.436V1h3.937v12h-3.937Zm8.922-5.442c.01.012.095.15.253.414.158.265.364.603.617 1.014a323.721 323.721 0 0 1 1.597 2.62c.247.411.529.876.845 1.394H29.96c-.27-.44-.516-.836-.736-1.191-.22-.355-.453-.738-.7-1.15-.248-.41-.493-.81-.736-1.2-.242-.389-.45-.73-.625-1.022-.175-.293-.296-.49-.363-.591a1.75 1.75 0 0 1-.287-.845c.016-.29.11-.57.27-.812.067-.112.191-.312.372-.6a182.106 182.106 0 0 0 1.37-2.23c.247-.412.48-.798.7-1.158l.735-1.2h4.326L30.94 6.458a1.078 1.078 0 0 0-.17.54c.012.202.082.396.203.558ZM46.992 2.553a3.017 3.017 0 0 0-.785-.82 3.763 3.763 0 0 0-1.139-.54 5.387 5.387 0 0 0-1.519-.194h-4.692v11.998h1.772V8.689h3.055c.69.01 1.37-.158 1.975-.49a3.652 3.652 0 0 0 1.392-1.369 4.04 4.04 0 0 0 .515-2.078 4.942 4.942 0 0 0-.135-1.167 3.374 3.374 0 0 0-.439-1.03Zm-1.57 3.642c-.226.356-.56.632-.953.786-.477.18-.984.267-1.494.254h-2.346V2.469h2.583c.493-.019.984.077 1.434.279.358.173.651.458.835.811.195.396.291.834.279 1.276.02.476-.098.948-.338 1.36ZM51.169 1.396c-.242.13-.478.25-.709.363l-.7.338a8.138 8.138 0 0 1-.726.304c-.247.09-.512.18-.793.27l.371 1.437c.338-.101.644-.203.92-.304.27-.099.535-.212.793-.338.253-.124.506-.259.76-.406l.008-.005v9.943h1.755V1h-.911c-.27.135-.527.267-.768.397ZM59.717 6.339V2.925h-1.485V6.34h-3.426v1.335h3.426v3.397h1.485V7.674h3.426V6.339h-3.426Z"/></svg>