<svg width="113" height="48" viewBox="0 0 113 48" fill="none" xmlns="http://www.w3.org/2000/svg">
<path d="M0 12.9978V0.998893H3.93719V12.9978H0ZM9.29381 2.90858L11.5581 12.9978H7.24917L4.54549 0.998893H6.96218C7.51635 0.991701 8.05406 1.18705 8.4745 1.54819C8.89562 1.89418 9.18495 2.3745 9.29381 2.90858ZM12.1495 12.9978V0.998893H16.0867V12.9978H12.1495ZM19.0605 5.5619C18.6362 5.56604 18.2188 5.45503 17.8525 5.24077C17.4912 5.03192 17.1911 4.73176 16.9823 4.3704C16.7678 4.00413 16.6568 3.58656 16.661 3.16212C16.6561 2.74026 16.7672 2.32518 16.9823 1.96223C17.1933 1.60479 17.4931 1.3079 17.8525 1.10032C18.2189 0.886305 18.6362 0.775317 19.0605 0.779187C19.4822 0.774645 19.8971 0.885732 20.2602 1.10032C20.616 1.30972 20.9127 1.60636 21.122 1.96223C21.3368 2.32528 21.4479 2.7403 21.4433 3.16212C21.4473 3.58653 21.3363 4.00403 21.122 4.3704C20.9149 4.73018 20.6179 5.03008 20.2602 5.24077C19.8971 5.45578 19.4819 5.56689 19.0599 5.5619H19.0605ZM22.0516 12.9978V0.998893H25.9892V12.9978H22.0516ZM30.9737 7.55604C30.9848 7.56768 31.0693 7.70569 31.2272 7.97007C31.3851 8.23446 31.5906 8.57249 31.8439 8.98409C32.0974 9.39551 32.3649 9.83206 32.6463 10.2938C32.9278 10.7555 33.1926 11.1922 33.4408 11.6036C33.6881 12.015 33.9697 12.4797 34.2857 12.9978H29.9598C29.6893 12.5584 29.4441 12.1613 29.2245 11.8064C29.0048 11.4515 28.7713 11.0684 28.5238 10.6572C28.2758 10.2463 28.0306 9.84634 27.7882 9.45727C27.5458 9.0682 27.3375 8.72742 27.1633 8.43486C26.9883 8.14212 26.8671 7.94493 26.7997 7.84334C26.6325 7.59125 26.5336 7.3001 26.5127 6.99835C26.5294 6.70874 26.6226 6.42878 26.7828 6.18691C26.8504 6.07425 26.9743 5.87423 27.1545 5.58693C27.3348 5.29964 27.546 4.95886 27.7882 4.56453C28.0304 4.1702 28.2756 3.76741 28.5238 3.35618C28.772 2.94495 29.0056 2.55904 29.2245 2.19851C29.4445 1.83835 29.6897 1.43839 29.9598 0.998618H34.2857L30.9396 6.4573C30.8361 6.61937 30.7777 6.80615 30.7706 6.99835C30.7818 7.20013 30.8522 7.39412 30.9731 7.55604H30.9737Z" fill="white"/>
<path d="M9.0935 18.1423H6.98478L2.4018 23.4226H1.772V18.1423H0.000659486V30.1199H1.772V24.7047H1.83131L6.81605 30.1368L9.22846 30.1199L3.5093 24.1817L9.0935 18.1423Z" fill="#85E6D6"/>
<path d="M14.1036 21.4572C13.788 21.5418 13.4868 21.6726 13.2095 21.8453C12.9217 22.0249 12.6556 22.2371 12.4166 22.4779C12.3767 22.5175 12.3382 22.5622 12.2985 22.6041V21.3476L10.5778 21.6006V30.1199H12.2985V23.7465C12.4293 23.6565 12.5611 23.5722 12.6949 23.4985C12.8638 23.4055 13.0386 23.3238 13.2182 23.2539C13.3922 23.1864 13.5692 23.1274 13.7493 23.0767C13.9345 23.0253 14.1235 22.9886 14.3145 22.9671C14.5189 22.9444 14.7248 22.9387 14.9302 22.9502L15.1327 21.3645C14.7869 21.3396 14.4393 21.3709 14.1036 21.4572Z" fill="#85E6D6"/>
<path d="M16.701 30.1199H18.4218V21.3476L16.701 21.6006V30.1199Z" fill="#85E6D6"/>
<path d="M17.0049 19.8293C17.1851 19.9306 17.3886 19.9829 17.5953 19.9811C17.7994 19.9836 18.0003 19.9312 18.1771 19.8293C18.3507 19.7289 18.4937 19.5831 18.5907 19.4076C18.6919 19.2273 18.7442 19.0238 18.7425 18.8171C18.7449 18.613 18.6924 18.412 18.5907 18.2351C18.4904 18.062 18.3482 17.9169 18.1771 17.8134C18.0021 17.7063 17.8005 17.6508 17.5953 17.6531C17.3876 17.6515 17.1834 17.7069 17.0049 17.8134C16.8291 17.9164 16.6814 18.0613 16.575 18.2351C16.4678 18.4101 16.4122 18.6119 16.4147 18.8171C16.4129 19.0249 16.4684 19.2292 16.575 19.4076C16.6781 19.584 16.8266 19.7296 17.0049 19.8293Z" fill="#85E6D6"/>
<path d="M25.44 22.9333C25.7153 22.927 25.9895 22.9698 26.2497 23.0599C26.4645 23.1372 26.656 23.2678 26.8064 23.4394C26.9613 23.6255 27.0711 23.8449 27.127 24.0805C27.199 24.3786 27.233 24.6848 27.2282 24.9915V30.1199H28.9489V24.6372C28.9714 23.9977 28.8623 23.3603 28.6284 22.7646C28.438 22.3072 28.0993 21.9269 27.6668 21.685C27.1656 21.4318 26.6084 21.3099 26.0473 21.3307C25.5576 21.3317 25.0711 21.4085 24.605 21.5585C24.1246 21.7115 23.6676 21.93 23.2469 22.2079C23.0841 22.3151 22.9276 22.4329 22.7746 22.5538V21.3476L21.0539 21.6006V30.1199H22.7746V23.7127C22.9412 23.6152 23.113 23.5268 23.2892 23.4479C23.5261 23.3428 23.7681 23.2499 24.0145 23.1695C24.2514 23.092 24.4939 23.0327 24.7399 22.9924C24.9713 22.9539 25.2055 22.9341 25.44 22.9333Z" fill="#85E6D6"/>
<path d="M37.8409 33.3673C38.4553 33.0809 38.2929 32.6167 38.6403 32.0346C38.9798 31.4361 39.1518 30.7572 39.138 30.0693V21.3307L37.4879 21.7553C37.2974 21.6746 37.1019 21.6061 36.9028 21.55C36.6451 21.4795 36.383 21.426 36.1183 21.3898C35.8164 21.349 35.512 21.3293 35.2073 21.3307C34.657 21.3284 34.1118 21.4374 33.6047 21.6513C33.0965 21.8664 32.6352 22.1787 32.2467 22.5706C31.8326 22.9933 31.5134 23.4994 31.3104 24.0552C31.075 24.7066 30.9607 25.3955 30.973 26.088C30.9545 26.8498 31.1012 27.6066 31.4029 28.3064C31.6674 28.9048 32.1053 29.4102 32.66 29.7572C33.267 30.1152 33.9631 30.2937 34.6675 30.2717C35.2863 30.2695 35.8989 30.1492 36.4726 29.9174C36.8152 29.7776 37.1383 29.594 37.4339 29.3711V29.8331C37.4408 30.2132 37.3867 30.5919 37.2738 30.9549C37.1765 31.2595 37.0089 31.5368 36.7846 31.7647C36.5429 31.9968 36.2472 32.165 35.924 32.2539C35.504 32.3693 35.0693 32.4233 34.6338 32.4142C34.2871 32.4136 33.9408 32.3939 33.5963 32.3551C33.2347 32.3141 32.8766 32.2465 32.525 32.1527C32.1628 32.0562 31.8076 31.9351 31.4619 31.79L32.3241 33.2745C32.6344 33.4004 32.953 33.5047 33.2776 33.5866C33.619 33.6728 33.9654 33.7376 34.3148 33.7806C34.6842 33.826 35.056 33.8486 35.4282 33.8481C36.2586 33.8741 37.0839 33.7096 37.8409 33.3673ZM37.2145 28.3064C37.0056 28.4278 36.7888 28.5349 36.5654 28.6269C36.3684 28.7078 36.1652 28.7727 35.9578 28.8209C35.7558 28.8665 35.5493 28.8891 35.3423 28.8884C34.8356 28.9068 34.3329 28.7934 33.8831 28.5594C33.4909 28.3358 33.1873 27.9845 33.0227 27.5641C32.8193 27.0169 32.7248 26.4353 32.7443 25.8518C32.7368 25.3862 32.8021 24.9223 32.9381 24.4769C33.0486 24.1109 33.2388 23.7739 33.495 23.4901C33.7445 23.2262 34.0499 23.0215 34.3888 22.8912C34.7739 22.7451 35.1832 22.6736 35.595 22.6803C35.8609 22.68 36.1263 22.7025 36.3882 22.7478C36.6564 22.7951 36.9213 22.8599 37.1811 22.9418C37.2638 22.9676 37.3498 23.0019 37.4341 23.0334V28.177C37.3599 28.2209 37.2848 28.2665 37.2145 28.3064Z" fill="#85E6D6"/>
<path d="M43.4733 25.9868H43.5014L46.9482 30.1199H49.175L45.0829 25.5088L49.0906 21.5163H46.9819L44.0955 24.6886H43.4733V17.384L41.7526 17.6371V30.1207H43.4733V25.9868Z" fill="#85E6D6"/>
<path d="M55.4365 29.0242C55.4694 29.1988 55.5311 29.3667 55.6192 29.521C55.7697 29.7792 56.0009 29.9807 56.2772 30.0946C56.5826 30.2173 56.9096 30.2775 57.2387 30.2717C57.3399 30.2717 57.4384 30.2689 57.534 30.2633C57.6278 30.2576 57.721 30.2435 57.8123 30.2211C57.9023 30.1983 57.9836 30.1789 58.057 30.162C58.1231 30.1471 58.188 30.1274 58.2512 30.103L58.4365 28.9727C58.3433 29.0046 58.2473 29.0272 58.1497 29.0402C58.0714 29.0507 57.9926 29.0563 57.9136 29.0571C57.7903 29.0684 57.666 29.0497 57.5515 29.0027C57.4369 28.9558 57.3354 28.8818 57.2556 28.7872C57.0992 28.5168 57.0342 28.2033 57.0701 27.8931L57.1038 24.4179C57.1075 24.0536 57.0621 23.6904 56.9688 23.3382C56.8868 23.0294 56.7498 22.738 56.5642 22.4779C56.3764 22.2236 56.138 22.0111 55.8639 21.8537C55.5455 21.6728 55.2013 21.542 54.8432 21.4657C54.4054 21.3711 53.9584 21.3258 53.5105 21.3307C53.1552 21.3306 52.8002 21.3531 52.4477 21.3982C52.1147 21.4401 51.7849 21.5049 51.4608 21.5922C51.1602 21.6738 50.8646 21.7723 50.5752 21.8874L50.3727 23.3214C50.6539 23.2201 50.9211 23.1358 51.1744 23.0683C51.4276 23.0008 51.6721 22.9446 51.9079 22.8996C52.1393 22.8554 52.373 22.8244 52.608 22.8068C52.8385 22.79 53.0663 22.7815 53.2912 22.7815C53.6352 22.7741 53.9786 22.8139 54.3118 22.8996C54.555 22.9604 54.7786 23.0823 54.9613 23.2539C55.1239 23.4208 55.2402 23.6272 55.2987 23.8527C55.3704 24.1309 55.4044 24.4175 55.3996 24.7047L55.3977 25.1278L53.4259 25.2614C52.7514 25.2802 52.0869 25.4291 51.469 25.7C51.0065 25.9023 50.6073 26.2258 50.3134 26.6363C50.0641 27.0015 49.9317 27.4339 49.9338 27.8762C49.9307 28.2911 50.0323 28.7002 50.2291 29.0655C50.4355 29.4408 50.746 29.7483 51.1232 29.9512C51.5834 30.1906 52.0977 30.3068 52.6161 30.2886C53.1019 30.2997 53.5855 30.2196 54.0417 30.0524C54.4361 29.898 54.7969 29.6689 55.1044 29.3776C55.2212 29.2657 55.3321 29.1478 55.4365 29.0242ZM53.8566 28.8884C53.6202 28.9339 53.3801 28.9565 53.1394 28.9559C52.8645 28.9637 52.5911 28.9119 52.3381 28.804C52.1322 28.7147 51.9586 28.5646 51.8404 28.3738C51.7236 28.1716 51.6651 27.941 51.6717 27.7075C51.6554 27.4263 51.7325 27.1475 51.891 26.9146C52.0746 26.7003 52.3236 26.5521 52.5995 26.4929C53.0306 26.3913 53.473 26.3459 53.9157 26.3579H55.3926L55.385 28.0322C55.2991 28.1288 55.205 28.2176 55.1038 28.2979C54.9209 28.4425 54.723 28.5669 54.5134 28.6691C54.305 28.7704 54.0841 28.8441 53.8566 28.8884Z" fill="#85E6D6"/>
<path d="M65.6317 28.9061C65.8247 28.5491 65.9206 28.1477 65.9098 27.7421C65.9168 27.446 65.8682 27.1513 65.7664 26.8733C65.6756 26.6392 65.541 26.4245 65.3699 26.2407C65.1972 26.0576 64.9982 25.9012 64.7795 25.7767C64.5531 25.6471 64.3161 25.537 64.0709 25.4478C63.891 25.3916 63.7139 25.3325 63.5396 25.2707C63.3652 25.2088 63.1909 25.1526 63.0166 25.1019C62.8423 25.0513 62.6735 24.9979 62.5105 24.9417C62.3576 24.8896 62.2083 24.8276 62.0635 24.7561C61.9248 24.6825 61.7922 24.5979 61.667 24.5031C61.5514 24.416 61.4539 24.3071 61.3802 24.1826C61.3059 24.0546 61.2681 23.9088 61.2706 23.7608C61.2659 23.5982 61.3069 23.4374 61.3889 23.2969C61.4768 23.1588 61.5987 23.0455 61.7429 22.9679C61.9194 22.871 62.1102 22.8027 62.308 22.7655C62.5554 22.718 62.8069 22.6954 63.0587 22.698C63.1824 22.698 63.3175 22.7036 63.4639 22.7149C63.6103 22.7261 63.7706 22.7458 63.9447 22.7739C64.1186 22.802 64.2928 22.8386 64.4673 22.8836C64.6419 22.9286 64.8191 22.9792 64.9991 23.0354C65.1658 23.0868 65.3292 23.1488 65.488 23.221L65.6063 21.8545C65.3925 21.7645 65.1816 21.6858 64.9737 21.6183C64.766 21.5511 64.5548 21.4948 64.3411 21.4496C64.1324 21.4054 63.9211 21.3744 63.7085 21.3569C63.4999 21.34 63.2949 21.3316 63.0925 21.3316C62.6265 21.3268 62.1618 21.3807 61.7092 21.4918C61.3222 21.586 60.9541 21.7457 60.6211 21.9642C60.3192 22.164 60.0726 22.4367 59.9041 22.7571C59.7279 23.1102 59.641 23.5012 59.6511 23.8958C59.6458 24.1799 59.6915 24.4628 59.786 24.7308C59.8662 24.9557 59.9862 25.1643 60.1403 25.3466C60.2903 25.5186 60.4635 25.6691 60.6548 25.7936C60.8541 25.9242 61.0661 26.0345 61.2874 26.1226C61.4112 26.1676 61.5405 26.2126 61.6754 26.2575C61.8107 26.3025 61.9422 26.3447 62.0718 26.3841C62.2015 26.4234 62.3277 26.4628 62.4514 26.5022C62.5751 26.5415 62.6961 26.5809 62.8141 26.6202C62.9322 26.6596 63.0475 26.6962 63.16 26.7299C63.3109 26.7833 63.4576 26.8482 63.5986 26.9239C63.7224 26.9894 63.8385 27.0687 63.9447 27.1601C64.0379 27.2417 64.1126 27.3424 64.1637 27.4553C64.2153 27.5722 64.2411 27.6987 64.2397 27.8264C64.2457 27.9512 64.2238 28.0757 64.1756 28.191C64.1275 28.3063 64.0543 28.4094 63.9613 28.4928C63.7524 28.6672 63.5029 28.7862 63.2359 28.8386C62.9229 28.9077 62.6032 28.9416 62.2827 28.9398C62.0824 28.9384 61.8824 28.9243 61.6839 28.8976C61.4646 28.8699 61.2341 28.8306 60.9925 28.7796C60.7509 28.7286 60.5033 28.6667 60.2499 28.594C59.9969 28.5209 59.741 28.4394 59.4823 28.3494L59.5501 29.7833C59.8423 29.8845 60.1094 29.9661 60.3512 30.0279C60.593 30.0898 60.8235 30.1432 61.0428 30.1882C61.2542 30.2319 61.4684 30.2601 61.6839 30.2725C61.8919 30.2836 62.1028 30.2892 62.3165 30.2894C62.787 30.2918 63.2564 30.2437 63.7167 30.146C64.1218 30.0636 64.5098 29.9124 64.8638 29.699C65.1828 29.504 65.447 29.2312 65.6317 28.9061Z" fill="#85E6D6"/>
<path d="M72.413 28.7619L72.1262 28.8125C72.0341 28.8289 71.9412 28.8402 71.8479 28.8462C71.7579 28.8521 71.6733 28.8546 71.5949 28.8546C71.3363 28.8618 71.0796 28.8098 70.8442 28.7028C70.6416 28.607 70.4737 28.4508 70.3634 28.2558C70.2451 28.0358 70.1869 27.7885 70.1947 27.5388V22.8659H72.5733L72.7589 21.5163H70.1947V18.8509L68.4739 19.4582V21.5163H67.175L66.9894 22.8659H68.4739V27.8931C68.4664 28.2284 68.5178 28.5624 68.6258 28.8799C68.7126 29.1311 68.8472 29.3632 69.0223 29.5632C69.1827 29.7413 69.3779 29.8848 69.5958 29.9849C69.8188 30.0873 70.054 30.161 70.2956 30.2042C70.5349 30.2483 70.7777 30.2709 71.021 30.2717C71.201 30.2717 71.3782 30.2661 71.5527 30.2548C71.7268 30.2433 71.8873 30.2267 72.0335 30.2042C72.1797 30.1817 72.3175 30.1561 72.4468 30.1283C72.5761 30.1005 72.6855 30.0752 72.7757 30.0524L72.877 28.6522C72.8113 28.6776 72.7436 28.6973 72.6746 28.7113C72.5956 28.7281 72.5086 28.745 72.413 28.7619Z" fill="#85E6D6"/>
<path d="M76.1417 17.8134C75.9667 17.7063 75.7651 17.6508 75.56 17.6531C75.3522 17.6514 75.1479 17.7069 74.9695 17.8134C74.7936 17.9164 74.6458 18.0612 74.5393 18.2351C74.4322 18.4101 74.3766 18.6119 74.3791 18.8171C74.3773 19.0249 74.4327 19.2292 74.5393 19.4076C74.6425 19.584 74.791 19.7297 74.9695 19.8293C75.1497 19.9307 75.3533 19.983 75.56 19.9811C75.764 19.9836 75.9649 19.9312 76.1417 19.8293C76.3154 19.729 76.4584 19.5832 76.5553 19.4076C76.6566 19.2274 76.7089 19.0238 76.7071 18.8171C76.7096 18.613 76.6572 18.412 76.5553 18.2351C76.4552 18.0619 76.3129 17.9169 76.1417 17.8134Z" fill="#85E6D6"/>
<path d="M74.6649 30.1199H76.3856V21.3476L74.6649 21.6006V30.1199Z" fill="#85E6D6"/>
<path d="M85.6304 21.685C85.1293 21.4318 84.5722 21.3099 84.0111 21.3307C83.5214 21.3316 83.0348 21.4085 82.5685 21.5585C82.0883 21.7115 81.6313 21.9301 81.2108 22.2079C81.0477 22.3151 80.8911 22.4329 80.7382 22.5538V21.3476L79.0174 21.6006V30.1199H80.7382V23.7127C80.9048 23.6152 81.0765 23.5268 81.2526 23.4479C81.4896 23.3429 81.7317 23.25 81.9781 23.1695C82.215 23.092 82.4575 23.0328 82.7035 22.9924C82.935 22.9539 83.1692 22.9341 83.4039 22.9333C83.6791 22.9269 83.9532 22.9698 84.2133 23.0599C84.428 23.1372 84.6196 23.2678 84.77 23.4394C84.9249 23.6256 85.0347 23.8449 85.0908 24.0805C85.1626 24.3787 85.1965 24.6848 85.1917 24.9915V30.1199H86.9125V24.6372C86.9349 23.9977 86.8259 23.3603 86.592 22.7646C86.4016 22.3071 86.0629 21.9268 85.6304 21.685Z" fill="#85E6D6"/>
<path d="M94.8671 21.55C94.6095 21.4795 94.3474 21.4259 94.0827 21.3898C93.7808 21.349 93.4764 21.3293 93.1717 21.3307C92.6214 21.3283 92.0762 21.4373 91.5691 21.6513C91.0608 21.8663 90.5995 22.1786 90.2111 22.5706C89.7969 22.9933 89.4776 23.4994 89.2745 24.0552C89.0393 24.7066 88.9249 25.3955 88.9371 26.088C88.9186 26.8498 89.0653 27.6067 89.3673 28.3064C89.6316 28.9048 90.0694 29.4102 90.6241 29.7572C91.2311 30.1152 91.9273 30.2937 92.6316 30.2717C93.2504 30.2695 93.863 30.1493 94.4367 29.9174C94.7794 29.7776 95.1026 29.594 95.3982 29.3711V29.8331C95.4051 30.2132 95.351 30.5919 95.238 30.9549C95.1408 31.2595 94.9732 31.5369 94.7488 31.7647C94.5072 31.9968 94.2114 32.1649 93.8884 32.2539C93.4682 32.3693 93.0335 32.4233 92.5979 32.4142C92.2512 32.4136 91.9049 32.3939 91.5604 32.3551C91.1988 32.3141 90.8408 32.2464 90.4891 32.1527C90.1269 32.0562 89.7717 31.935 89.4261 31.79L89.6119 33.2745C89.9221 33.4004 90.2405 33.5046 90.5651 33.5866C90.9065 33.6728 91.253 33.7376 91.6025 33.7806C91.9719 33.8261 92.3438 33.8486 92.716 33.8481C93.5463 33.8741 94.3714 33.7096 95.1283 33.3673C95.7427 33.0809 96.257 32.6167 96.6044 32.0346C96.9439 31.4361 97.1159 30.7572 97.1021 30.0693V21.3307L95.4523 21.7553C95.2617 21.6747 95.0663 21.6061 94.8671 21.55ZM95.1789 28.3064C94.9701 28.4278 94.7532 28.5349 94.5298 28.6269C94.3329 28.7078 94.1297 28.7727 93.9224 28.8209C93.7203 28.8665 93.5138 28.8891 93.3067 28.8884C92.8 28.9067 92.2972 28.7934 91.8475 28.5594C91.4553 28.3358 91.1516 27.9845 90.9871 27.5641C90.7837 27.0169 90.6892 26.4353 90.7087 25.8518C90.7013 25.3862 90.7666 24.9223 90.9025 24.4769C91.0131 24.1109 91.2033 23.7739 91.4594 23.4901C91.7089 23.2261 92.0145 23.0215 92.3536 22.8912C92.7386 22.7451 93.148 22.6735 93.5598 22.6803C93.8255 22.68 94.0907 22.7025 94.3526 22.7478C94.6208 22.7951 94.8857 22.8599 95.1455 22.9418C95.2282 22.9676 95.3142 23.0019 95.3985 23.0334V28.177C95.3237 28.2209 95.2487 28.2665 95.1789 28.3064Z" fill="#85E6D6"/>
<path d="M105.047 26.2398C104.874 26.0567 104.675 25.9004 104.456 25.7759C104.23 25.6462 103.993 25.5361 103.748 25.4469C103.568 25.3907 103.391 25.3317 103.216 25.2698C103.042 25.208 102.868 25.1517 102.693 25.1011C102.519 25.0505 102.35 24.9971 102.187 24.9408C102.034 24.8888 101.885 24.8268 101.74 24.7553C101.602 24.6816 101.469 24.597 101.344 24.5022C101.228 24.4152 101.131 24.3063 101.057 24.1817C100.983 24.0538 100.945 23.9079 100.947 23.76C100.943 23.5973 100.984 23.4366 101.066 23.296C101.154 23.1578 101.276 23.0446 101.42 22.9671C101.596 22.8702 101.787 22.8018 101.985 22.7646C102.232 22.7172 102.484 22.6946 102.736 22.6972C102.859 22.6972 102.994 22.7028 103.141 22.714C103.287 22.7253 103.447 22.745 103.622 22.7731C103.796 22.8012 103.97 22.8378 104.144 22.8827C104.319 22.9277 104.496 22.9783 104.676 23.0346C104.843 23.0859 105.006 23.1479 105.165 23.2201L105.283 21.8537C105.069 21.7637 104.858 21.685 104.651 21.6175C104.443 21.5502 104.232 21.4939 104.018 21.4488C103.809 21.4046 103.598 21.3736 103.385 21.356C103.177 21.3391 102.972 21.3307 102.769 21.3307C102.303 21.326 101.839 21.3798 101.386 21.491C100.999 21.5851 100.631 21.7448 100.298 21.9633C99.9961 22.1631 99.7496 22.4358 99.5813 22.7562C99.405 23.1093 99.318 23.5004 99.3282 23.8949C99.3229 24.1791 99.3687 24.462 99.4635 24.73C99.5434 24.9549 99.6633 25.1635 99.8174 25.3457C99.9675 25.5178 100.141 25.6683 100.332 25.7928C100.531 25.9235 100.743 26.0337 100.965 26.1217C101.088 26.1667 101.217 26.2117 101.353 26.2567C101.488 26.3017 101.62 26.3438 101.749 26.3832C101.879 26.4226 102.005 26.4619 102.129 26.5013C102.252 26.5407 102.373 26.58 102.491 26.6194C102.609 26.6588 102.725 26.6953 102.837 26.7291C102.988 26.7825 103.135 26.8474 103.276 26.9231C103.4 26.9886 103.516 27.0678 103.622 27.1592C103.715 27.2408 103.79 27.3415 103.841 27.4544C103.893 27.5713 103.919 27.6978 103.917 27.8256C103.923 27.9504 103.901 28.0749 103.853 28.1902C103.805 28.3054 103.731 28.4085 103.638 28.4919C103.43 28.6664 103.18 28.7853 102.913 28.8378C102.6 28.9069 102.281 28.9408 101.96 28.939C101.76 28.9376 101.56 28.9235 101.361 28.8968C101.142 28.8691 100.911 28.8297 100.67 28.7787C100.428 28.7277 100.181 28.6659 99.9271 28.5932C99.6743 28.5201 99.4185 28.4385 99.1599 28.3486L99.2273 29.7825C99.5194 29.8837 99.7863 29.9652 100.028 30.0271C100.27 30.0889 100.501 30.1424 100.72 30.1874C100.931 30.231 101.146 30.2592 101.361 30.2717C101.569 30.2828 101.78 30.2884 101.994 30.2886C102.464 30.291 102.934 30.2429 103.394 30.1452C103.799 30.0628 104.187 29.9116 104.541 29.6981C104.86 29.5033 105.124 29.2304 105.309 28.9053C105.502 28.5483 105.598 28.1469 105.587 27.7412C105.594 27.4452 105.545 27.1505 105.444 26.8724C105.353 26.6383 105.218 26.4235 105.047 26.2398Z" fill="#85E6D6"/>
<path d="M107.375 24.6372L107.257 26.0205H112.031L112.149 24.6372H107.375Z" fill="#85E6D6"/>
<path d="M6.67457 39.0316C5.97172 38.6581 5.18438 38.4721 4.38868 38.4918C3.5857 38.4734 2.79189 38.6653 2.08597 39.0485C1.43419 39.4131 0.901247 39.9578 0.550828 40.6174C0.169834 41.3572 -0.0188593 42.181 0.00223056 43.0129C-0.0191947 43.8382 0.157251 44.6567 0.516781 45.3999C0.839966 46.0486 1.35545 46.5818 1.99289 46.9267C2.67911 47.2862 3.44516 47.4661 4.21968 47.4496C5.03058 47.4658 5.83212 47.2742 6.54799 46.8929C7.21624 46.5282 7.76423 45.9773 8.12535 45.3072C8.51704 44.5586 8.71154 43.7225 8.69049 42.8779C8.70974 42.0734 8.52998 41.2766 8.16722 40.5583C7.83122 39.9132 7.31189 39.382 6.67457 39.0316ZM6.57332 44.683C6.38366 45.1213 6.06234 45.4898 5.65391 45.7373C5.24348 45.9722 4.77714 46.0917 4.30432 46.0832C3.84076 46.0948 3.38379 45.9717 2.98877 45.7289C2.59762 45.4692 2.29229 45.0993 2.1113 44.6661C1.88192 44.1105 1.77274 43.5125 1.79101 42.9116C1.77112 42.327 1.88052 41.7453 2.1113 41.2078C2.3005 40.7854 2.61575 40.4318 3.01382 40.1956C3.43953 39.9613 3.92007 39.8448 4.40584 39.8582C4.78491 39.8488 5.16159 39.9207 5.51052 40.0691C5.81629 40.2069 6.08304 40.4185 6.28681 40.6848C6.50418 40.9742 6.66184 41.304 6.75049 41.6549C6.85604 42.0653 6.90703 42.4879 6.90226 42.9116C6.9219 43.5189 6.80969 44.1233 6.57332 44.683Z" fill="#85E6D6"/>
<path d="M14.3077 38.6183C13.9922 38.7028 13.6911 38.8336 13.4139 39.0063C13.126 39.1859 12.8598 39.3982 12.6207 39.6389C12.5811 39.6786 12.5423 39.7233 12.5026 39.7652V38.5086L10.7819 38.7617V47.2809H12.5026V40.9075C12.6306 40.8183 12.763 40.7355 12.8993 40.6595C13.0681 40.5666 13.2428 40.4849 13.4223 40.4149C13.5963 40.3474 13.7734 40.2884 13.9537 40.2378C14.1388 40.1863 14.3277 40.1496 14.5186 40.1281C14.7231 40.1054 14.9291 40.0998 15.1346 40.1113L15.3367 38.5255C14.9909 38.5007 14.6434 38.532 14.3077 38.6183Z" fill="#85E6D6"/>
<path d="M24.2441 38.6773H22.1354L19.2486 41.8497H18.6264V34.5451L16.9057 34.7981V47.2818H18.6264V43.1487H18.6545L22.1013 47.2818H24.3281L20.2361 42.6707L24.2441 38.6773Z" fill="#85E6D6"/>
<path d="M32.2909 39.7654C31.9671 39.3457 31.5399 39.0173 31.051 38.8123C30.5079 38.5904 29.9253 38.4813 29.3387 38.4918C28.7477 38.4817 28.1614 38.5967 27.618 38.8292C27.1237 39.0456 26.6831 39.3681 26.3274 39.7739C25.9612 40.2003 25.6856 40.6968 25.5174 41.2331C25.3251 41.8471 25.2313 42.4876 25.2393 43.131C25.2154 43.9438 25.386 44.7507 25.7369 45.4843C26.0574 46.1202 26.5753 46.6351 27.2131 46.952C27.9612 47.3044 28.782 47.4749 29.6086 47.4496C30.0063 47.4531 30.4038 47.4277 30.7979 47.3737C31.1273 47.3263 31.4519 47.2501 31.768 47.146C32.0813 47.0407 32.3859 46.911 32.6789 46.7579L32.797 45.459C32.5831 45.5377 32.3665 45.6164 32.1472 45.6952C31.9279 45.7739 31.7003 45.8442 31.4643 45.906C31.226 45.9684 30.9836 46.0135 30.7389 46.041C30.4924 46.069 30.2446 46.0831 29.9966 46.0832C29.5536 46.0903 29.1115 46.0421 28.6804 45.9398C28.3328 45.8566 28.0113 45.6885 27.7445 45.4505C27.475 45.1938 27.2772 44.871 27.1709 44.5143C27.0608 44.1529 26.999 43.7785 26.987 43.4009H33.0838C33.1667 42.7032 33.1352 41.9966 32.9907 41.309C32.8721 40.7498 32.6333 40.2231 32.2909 39.7654ZM28.0397 40.1703C28.4356 39.93 28.8927 39.8098 29.3556 39.8245C29.8189 39.8013 30.2765 39.935 30.6545 40.204C30.9905 40.4722 31.2303 40.8422 31.3378 41.2584C31.4219 41.5662 31.4632 41.8841 31.4606 42.2031H27.0241C27.0553 41.8667 27.1273 41.5353 27.2384 41.2162C27.3823 40.7885 27.6642 40.4206 28.0397 40.1703Z" fill="#85E6D6"/>
<path d="M40.5233 43.4009C40.3506 43.2178 40.1516 43.0614 39.9328 42.937C39.7063 42.8073 39.4692 42.6972 39.224 42.608C39.0444 42.5518 38.8674 42.4927 38.6929 42.4309C38.5184 42.369 38.344 42.3128 38.1696 42.2622C37.9953 42.2115 37.8266 42.1581 37.6635 42.1019C37.5106 42.0499 37.3613 41.9879 37.2165 41.9163C37.0778 41.8428 36.9452 41.7581 36.82 41.6633C36.7044 41.5762 36.607 41.4673 36.5333 41.3428C36.4589 41.2148 36.4208 41.069 36.4233 40.921C36.4189 40.7584 36.4598 40.5977 36.5417 40.4571C36.6298 40.319 36.7518 40.2058 36.896 40.1281C37.0725 40.0313 37.2632 39.9629 37.4611 39.9257C37.7085 39.8782 37.96 39.8556 38.2118 39.8582C38.3353 39.8582 38.4705 39.8638 38.6167 39.8751C38.7629 39.8863 38.9229 39.906 39.0975 39.9341C39.2721 39.9622 39.4459 39.9988 39.6205 40.0438C39.7951 40.0888 39.9719 40.1394 40.1518 40.1956C40.3186 40.2469 40.482 40.3089 40.6408 40.3812L40.7591 39.0147C40.5454 38.9247 40.3346 38.846 40.1265 38.7786C39.9188 38.7112 39.7076 38.6549 39.4939 38.6098C39.2852 38.5656 39.0739 38.5346 38.8613 38.5171C38.653 38.5002 38.4478 38.4918 38.2456 38.4918C37.7796 38.487 37.3148 38.5409 36.8622 38.652C36.4752 38.7462 36.1072 38.9059 35.7741 39.1244C35.4722 39.3241 35.2257 39.5968 35.0572 39.9173C34.881 40.2704 34.7941 40.6614 34.8041 41.056C34.7989 41.3401 34.8446 41.623 34.9391 41.891C35.0191 42.1159 35.1391 42.3245 35.2933 42.5068C35.4433 42.6789 35.6165 42.8293 35.8079 42.9538C36.0071 43.0846 36.2191 43.1948 36.4405 43.2828C36.5638 43.3278 36.6931 43.3728 36.8285 43.4177C36.9638 43.4627 37.096 43.5049 37.225 43.5443C37.3539 43.5836 37.4804 43.623 37.6045 43.6624C37.7286 43.7017 37.8495 43.7411 37.9672 43.7804C38.0853 43.8198 38.2006 43.8564 38.313 43.8901C38.4639 43.9436 38.6106 44.0084 38.7517 44.0841C38.8754 44.1497 38.9913 44.2289 39.0975 44.3203C39.1909 44.4018 39.2657 44.5025 39.3168 44.6155C39.3683 44.7324 39.3942 44.8589 39.3927 44.9866C39.3987 45.1114 39.3768 45.2359 39.3287 45.3512C39.2805 45.4664 39.2073 45.5695 39.1144 45.653C38.9055 45.8274 38.656 45.9463 38.3889 45.9988C38.076 46.0679 37.7563 46.1018 37.4358 46.1C37.2355 46.0987 37.0355 46.0846 36.8369 46.0579C36.6176 46.0301 36.3871 45.9908 36.1453 45.9398C35.9035 45.8888 35.6561 45.8269 35.403 45.7542C35.15 45.6811 34.8941 45.5996 34.6355 45.5096L34.7029 46.9435C34.995 47.0447 35.262 47.1263 35.5042 47.1881C35.7464 47.25 35.9769 47.3034 36.1959 47.3484C36.4072 47.3921 36.6215 47.4203 36.8369 47.4327C37.0448 47.4438 37.2557 47.4494 37.4695 47.4496C37.9401 47.452 38.4095 47.4039 38.8697 47.3062C39.2748 47.2238 39.6628 47.0726 40.0169 46.8592C40.3359 46.6643 40.6 46.3914 40.7845 46.0663C40.9775 45.7094 41.0734 45.3079 41.0625 44.9023C41.0697 44.6063 41.0212 44.3116 40.9194 44.0335C40.8287 43.7994 40.6943 43.5847 40.5233 43.4009Z" fill="#85E6D6"/>
<path d="M47.5662 45.9229L47.2797 45.9735C47.1876 45.9899 47.0947 46.0012 47.0014 46.0072C46.9111 46.0132 46.8264 46.0157 46.7483 46.0157C46.4897 46.0228 46.233 45.9708 45.9976 45.8639C45.7951 45.7679 45.6272 45.6118 45.5168 45.4168C45.3986 45.1968 45.3404 44.9495 45.3481 44.6999V40.0269H47.7267L47.9123 38.6773H45.3481V36.0119L43.6274 36.6192V38.6773H42.3281L42.1426 40.0269H43.6274V45.0541C43.6197 45.3894 43.6711 45.7235 43.7792 46.041C43.866 46.2922 44.0006 46.5242 44.1757 46.7242C44.3361 46.9024 44.5313 47.0459 44.7492 47.146C44.9723 47.2484 45.2074 47.3221 45.4491 47.3653C45.6884 47.4094 45.9311 47.4319 46.1744 47.4327C46.3544 47.4327 46.5316 47.4271 46.7061 47.4159C46.8806 47.4046 47.0409 47.3878 47.1869 47.3653C47.3328 47.3425 47.4709 47.3172 47.5999 47.2894C47.729 47.2615 47.8389 47.2362 47.9289 47.2135L48.0304 45.8132C47.9647 45.8386 47.897 45.8584 47.828 45.8723C47.749 45.8897 47.6618 45.9066 47.5662 45.9229Z" fill="#85E6D6"/>
<path d="M53.344 38.6183C53.0285 38.7029 52.7272 38.8336 52.4499 39.0063C52.1621 39.1859 51.8961 39.3982 51.657 39.6389C51.6174 39.6786 51.5786 39.7233 51.539 39.7652V38.5086L49.8183 38.7617V47.2809H51.539V40.9075C51.6697 40.8175 51.8015 40.7332 51.9354 40.6595C52.1043 40.5667 52.2791 40.4849 52.4586 40.4149C52.6326 40.3474 52.8096 40.2884 52.9897 40.2378C53.1749 40.1863 53.3639 40.1496 53.5549 40.1281C53.7594 40.1054 53.9655 40.0998 54.1709 40.1113L54.3731 38.5255C54.0273 38.5007 53.6798 38.532 53.344 38.6183Z" fill="#85E6D6"/>
<path d="M62.4706 39.7654C62.1468 39.3457 61.7195 39.0173 61.2307 38.8123C60.6875 38.5904 60.105 38.4814 59.5184 38.4918C58.9275 38.4818 58.3411 38.5967 57.7977 38.8292C57.3034 39.0456 56.8628 39.3681 56.5071 39.7739C56.1407 40.2001 55.8651 40.6967 55.6971 41.2331C55.5049 41.8471 55.411 42.4876 55.419 43.1309C55.3951 43.9438 55.5658 44.7507 55.9167 45.4843C56.2372 46.1202 56.7551 46.6351 57.3928 46.9519C58.1409 47.3044 58.9617 47.4749 59.7883 47.4496C60.1861 47.453 60.5835 47.4277 60.9776 47.3737C61.307 47.3263 61.6316 47.2501 61.9476 47.146C62.261 47.0407 62.5656 46.911 62.8586 46.7579L62.9767 45.459C62.7628 45.5377 62.5462 45.6164 62.3269 45.6952C62.1076 45.7739 61.8799 45.8442 61.644 45.906C61.4057 45.9684 61.1633 46.0135 60.9186 46.041C60.6722 46.069 60.4243 46.0831 60.1763 46.0832C59.7333 46.0903 59.2912 46.0421 58.8602 45.9398C58.5126 45.8565 58.1909 45.6885 57.9242 45.4505C57.6547 45.1937 57.457 44.871 57.3506 44.5143C57.2405 44.1529 57.1787 43.7785 57.1668 43.4009H63.2632C63.3463 42.7032 63.3149 41.9966 63.1704 41.309C63.0518 40.7498 62.8131 40.2231 62.4706 39.7654ZM58.2194 40.1703C58.6152 39.93 59.0724 39.8098 59.5352 39.8245C59.9986 39.8013 60.4562 39.935 60.8342 40.204C61.1702 40.4721 61.4099 40.8422 61.5172 41.2584C61.6016 41.5661 61.643 41.884 61.6403 42.2031H57.2038C57.2351 41.8667 57.3069 41.5354 57.4178 41.2162C57.562 40.7885 57.8439 40.4207 58.2194 40.1703Z" fill="#85E6D6"/>
<path d="M69.8339 45.9229L69.5471 45.9735C69.455 45.9899 69.3621 46.0012 69.2687 46.0072C69.1787 46.0132 69.0941 46.0157 69.0156 46.0157C68.7572 46.0228 68.5006 45.9708 68.2652 45.8639C68.0627 45.768 67.8947 45.6119 67.7844 45.4168C67.6661 45.1968 67.6079 44.9495 67.6157 44.6999V40.0269H69.9943L70.18 38.6773H67.6157V36.0119L65.895 36.6192V38.6773H64.596L64.4105 40.0269H65.895V45.0541C65.8875 45.3894 65.9389 45.7234 66.0469 46.041C66.1336 46.2922 66.2682 46.5242 66.4433 46.7242C66.6038 46.9024 66.799 47.0459 67.0169 47.146C67.2399 47.2484 67.4751 47.3221 67.7167 47.3653C67.956 47.4094 68.1987 47.4319 68.442 47.4327C68.622 47.4327 68.7992 47.4271 68.9737 47.4159C69.1483 47.4046 69.3085 47.3878 69.4545 47.3653C69.6007 47.3426 69.7385 47.3173 69.8678 47.2894C69.9972 47.2614 70.1069 47.2361 70.1968 47.2135L70.298 45.8132C70.2323 45.8386 70.1646 45.8584 70.0956 45.8723C70.0165 45.8897 69.9293 45.9066 69.8339 45.9229Z" fill="#85E6D6"/>
</svg>
