<svg xmlns="http://www.w3.org/2000/svg" viewBox="0 0 120 24"><path fill="#fff" d="M0 18.667v-14h4.593v14H0ZM10.843 6.896l2.641 11.77H8.457L5.303 4.669h2.82a2.655 2.655 0 0 1 1.764.64c.491.404.829.965.956 1.588Zm3.331 11.77V4.669h4.594v13.999h-4.594Zm8.063-8.675a2.737 2.737 0 0 1-1.409-.374A2.778 2.778 0 0 1 19.813 8.6a2.735 2.735 0 0 1-.375-1.41 2.685 2.685 0 0 1 .375-1.4 2.812 2.812 0 0 1 3.824-1.005c.415.245.761.59 1.005 1.006.251.423.38.908.375 1.4.005.495-.125.982-.375 1.41a2.8 2.8 0 0 1-1.005 1.015c-.424.25-.908.38-1.4.374Zm3.49 8.676v-14h4.594v14h-4.594Zm10.409-6.35c.013.014.111.175.296.484.184.308.424.703.72 1.183a384.573 384.573 0 0 1 1.862 3.056c.289.48.617 1.022.986 1.627h-5.047l-.858-1.39c-.256-.414-.529-.861-.817-1.341-.29-.48-.576-.946-.858-1.4a71.148 71.148 0 0 1-.73-1.193 21.119 21.119 0 0 0-.424-.69 2.04 2.04 0 0 1-.334-.986c.019-.338.128-.664.315-.946.078-.132.223-.365.433-.7a216.7 216.7 0 0 0 1.598-2.603l.817-1.35.858-1.4H40l-3.904 6.368c-.12.19-.189.407-.197.631.013.236.095.462.236.65h.001Z"/><path fill="#9FDAF5" d="M55.362 15.316 46.939 4.653h-1.606v14.014h1.863V8l8.443 10.668h1.606V4.654h-1.883v10.662ZM67.094 8.7l-.015 7.392a9.458 9.458 0 0 1-.43.237c-.24.123-.488.232-.743.325-.24.09-.49.156-.743.197-.259.041-.52.06-.782.06a2.361 2.361 0 0 1-1.17-.257 1.577 1.577 0 0 1-.683-.8 3.506 3.506 0 0 1-.229-1.352V8.403l-2.021.296v6.198a5.524 5.524 0 0 0 .377 2.191c.219.544.622.994 1.14 1.273a4.004 4.004 0 0 0 1.892.404 4.781 4.781 0 0 0 1.605-.266c.51-.181.99-.434 1.427-.75.12-.087.24-.178.359-.274l-.002.855c0 .987-.231 1.737-.694 2.25-.462.514-1.249.77-2.358.77-.304 0-.615-.013-.932-.04a7.544 7.544 0 0 1-.941-.137 10.509 10.509 0 0 1-1.893-.592l.218 1.756a9.804 9.804 0 0 0 2.675.642c.33.033.668.049 1.011.049a6.318 6.318 0 0 0 2.11-.326 4.464 4.464 0 0 0 1.556-.908c.422-.386.75-.861.962-1.391a4.752 4.752 0 0 0 .327-1.796l-.02-10.205-2.002.298ZM79.817 8.798a3.87 3.87 0 0 0-1.882-.414c-.582 0-1.16.09-1.714.266a6.648 6.648 0 0 0-2.032 1.056v-5.94l-2.022.296v14.606h2.022v-7.585a6.484 6.484 0 0 1 1.348-.557c.283-.084.57-.15.862-.198a5.14 5.14 0 0 1 .822-.069c.317-.006.633.044.932.148.252.091.477.244.654.444.182.218.31.475.376.75.085.35.125.707.12 1.066v6h2.02v-6.414a5.446 5.446 0 0 0-.376-2.191 2.592 2.592 0 0 0-1.13-1.264ZM92.006 9.874A3.599 3.599 0 0 0 90.55 8.76a5.111 5.111 0 0 0-2.011-.375 4.943 4.943 0 0 0-2.022.395A4.32 4.32 0 0 0 85 9.884a4.83 4.83 0 0 0-.951 1.708 7.103 7.103 0 0 0-.327 2.22 5.954 5.954 0 0 0 .584 2.754 3.866 3.866 0 0 0 1.734 1.717 6.183 6.183 0 0 0 2.815.582c.467.004.934-.026 1.397-.089a6.736 6.736 0 0 0 2.21-.72l.138-1.52a97.71 97.71 0 0 1-.763.276 9.527 9.527 0 0 1-.802.247 5.98 5.98 0 0 1-.852.158c-.29.033-.581.05-.872.05a6.273 6.273 0 0 1-1.546-.168 2.544 2.544 0 0 1-1.1-.573c-.317-.3-.549-.678-.674-1.095a4.996 4.996 0 0 1-.216-1.303h7.162a7.535 7.535 0 0 0-.109-2.448 4.603 4.603 0 0 0-.822-1.806Zm-4.994.474a2.816 2.816 0 0 1 1.546-.404 2.43 2.43 0 0 1 1.525.444c.395.313.677.746.803 1.233.099.36.148.732.145 1.106h-5.212c.036-.394.12-.782.251-1.155.17-.5.5-.931.942-1.224ZM100.637 17.078l-.337.06c-.108.02-.217.032-.327.04-.106.006-.205.009-.297.009a2.003 2.003 0 0 1-.882-.178 1.273 1.273 0 0 1-.565-.522 1.66 1.66 0 0 1-.198-.84V10.18h2.794l.219-1.579h-3.013V5.482l-2.021.711v2.408h-1.526l-.219 1.58h1.745v5.881c-.01.392.051.783.178 1.155.102.294.26.565.466.8.188.208.418.376.674.493.262.12.538.205.822.256.28.052.566.078.852.079.211 0 .42-.006.624-.02.206-.012.394-.032.565-.059.172-.026.334-.056.486-.088.152-.033.28-.063.386-.09l.119-1.637c-.077.03-.157.052-.238.069-.092.019-.195.039-.307.058ZM110.636 9.874a3.605 3.605 0 0 0-1.457-1.115 5.11 5.11 0 0 0-2.012-.375 4.943 4.943 0 0 0-2.021.395 4.319 4.319 0 0 0-1.516 1.105 4.817 4.817 0 0 0-.951 1.707 7.086 7.086 0 0 0-.327 2.22 5.957 5.957 0 0 0 .584 2.754 3.867 3.867 0 0 0 1.734 1.717 6.187 6.187 0 0 0 2.815.583c.467.004.934-.026 1.397-.09a6.753 6.753 0 0 0 2.21-.72l.139-1.52c-.252.093-.506.185-.764.277a9.465 9.465 0 0 1-.802.247c-.28.073-.565.125-.852.157-.29.033-.581.05-.872.05a6.27 6.27 0 0 1-1.546-.168 2.542 2.542 0 0 1-1.1-.572 2.496 2.496 0 0 1-.674-1.096 5.008 5.008 0 0 1-.216-1.302h7.162a7.51 7.51 0 0 0-.109-2.448 4.6 4.6 0 0 0-.822-1.806Zm-4.995.474a2.818 2.818 0 0 1 1.546-.404 2.43 2.43 0 0 1 1.526.444c.395.313.677.746.803 1.233.099.36.148.732.144 1.106h-5.212c.037-.394.121-.782.252-1.155.169-.5.5-.931.941-1.224ZM118.186 8.532a3.897 3.897 0 0 0-1.05.454c-.338.21-.651.458-.932.74-.046.047-.092.099-.139.148v-1.47l-2.021.295v9.968h2.021V11.21a5.23 5.23 0 0 1 1.081-.576c.204-.08.412-.148.624-.207a4.21 4.21 0 0 1 1.387-.149l.238-1.855a3.786 3.786 0 0 0-1.209.109Z"/></svg>