<svg xmlns="http://www.w3.org/2000/svg" viewBox="0 0 79 24"><path fill="#03FCA3" d="M0 0h79v24H0z"/><path fill="#000" d="M6.004 18V6.001h3.937V18H6.004Zm9.294-10.09L17.562 18h-4.309L10.55 6.001h2.416a2.276 2.276 0 0 1 1.513.55c.42.345.71.826.82 1.36ZM18.154 18V6.001h3.937V18h-3.937Zm6.91-7.436a2.383 2.383 0 0 1-2.4-2.4 2.303 2.303 0 0 1 .323-1.2 2.411 2.411 0 0 1 3.278-.861c.355.209.652.506.861.861.215.363.326.778.322 1.2a2.4 2.4 0 0 1-1.183 2.079 2.302 2.302 0 0 1-1.2.321ZM28.057 18V6.001h3.937V18h-3.937Zm8.922-5.442c.011.012.096.15.253.414.158.265.364.603.617 1.014a315.936 315.936 0 0 1 1.597 2.62c.247.411.529.876.845 1.394h-4.326c-.27-.44-.516-.837-.735-1.191-.22-.355-.453-.738-.7-1.15-.249-.41-.494-.81-.737-1.2-.242-.389-.45-.73-.625-1.022-.174-.293-.296-.49-.363-.591a1.748 1.748 0 0 1-.287-.845c.017-.29.11-.57.27-.812.068-.113.192-.313.372-.6s.391-.628.633-1.022c.243-.395.488-.797.736-1.209l.7-1.157.736-1.2h4.326l-3.346 5.458a1.08 1.08 0 0 0-.17.542c.012.201.082.395.203.557h.001ZM61.281 6h-3.708s2.106 3.452 2.13 3.496a.58.58 0 0 1 .014.707l-2.144 3.508h3.707s1.787-2.92 2.032-3.325a.886.886 0 0 0-.01-1.073c-.261-.447-.263-.447-2.02-3.313ZM72.889 7.987A335.625 335.625 0 0 0 71.66 6H63.73l1.732 2.903h4.178l-1.724 2.823 1.923 3.225-1.854 3.044h3.386c.545-.89 1.36-2.266 1.53-2.546a.888.888 0 0 0-.01-1.077c-.17-.29-1.076-1.726-1.618-2.61L72.9 9.066a.888.888 0 0 0-.012-1.08Z"/><path fill="#000" d="M65.258 12.12c-.522.852-1.395 2.279-1.558 2.557a.855.855 0 0 0-.01 1.037c.164.272 1.044 1.71 1.569 2.567.524-.857 1.404-2.295 1.568-2.567a.855.855 0 0 0-.01-1.037 435.64 435.64 0 0 0-1.56-2.557ZM54.717 6a1.987 1.987 0 0 0-1.083.33c-.273.167-2.495 2.052-2.665 2.195-.17-.143-2.392-2.028-2.665-2.195A1.988 1.988 0 0 0 47.221 6h-2.36v10.568l3.28-2.461V9.863l2.828 2.125 2.828-2.125v8.13h3.3V6h-2.38Z"/></svg>