<svg xmlns="http://www.w3.org/2000/svg" viewBox="0 0 108 24" >
  <path fill="#1767CE" d="M0 0h108v24H0z"/>
  <path fill="#fff" d="M6 17.997V6h4v11.998H6Zm9.244-10.089 2.264 10.09H13.2l-2.704-12h2.417a2.276 2.276 0 0 1 1.512.55c.422.346.66.826.82 1.36ZM18 17.998v-12h4v12h-4Zm7.01-7.436a2.381 2.381 0 0 1-2.078-1.192 2.345 2.345 0 0 1-.321-1.208 2.301 2.301 0 0 1 .321-1.2A2.41 2.41 0 0 1 26.21 6.1c.356.21.653.506.862.862.215.363.326.778.321 1.2a2.35 2.35 0 0 1-.321 1.208 2.4 2.4 0 0 1-.862.87 2.3 2.3 0 0 1-1.2.322ZM28 17.997V6h4v11.998h-4Zm8.974-5.441c.01.011.095.15.253.414s.364.602.617 1.014a309.436 309.436 0 0 1 1.597 2.62c.247.41.529.875.845 1.393H35.96c-.27-.439-.516-.836-.736-1.191-.22-.355-.453-.738-.7-1.15-.248-.41-.493-.81-.736-1.2a60.12 60.12 0 0 1-.625-1.021 18.04 18.04 0 0 0-.363-.592 1.747 1.747 0 0 1-.287-.845c.016-.29.11-.57.27-.811.067-.113.191-.313.371-.6a182.106 182.106 0 0 0 1.37-2.23l.7-1.159.736-1.2h4.326l-3.346 5.459a1.079 1.079 0 0 0-.17.541c.012.202.083.396.204.558Z"/>
  <path fill="#D4EEFC" d="M55.055 5.448 53.75 6.863a5.19 5.19 0 0 0-1.337-.813c-.718-.298-1.535-.447-2.454-.447-.918 0-1.78.155-2.514.465a5.236 5.236 0 0 0-1.868 1.308A5.737 5.737 0 0 0 44.405 9.4c-.27.786-.405 1.656-.405 2.609 0 .952.132 1.81.396 2.574a5.59 5.59 0 0 0 .87 1.616L44 17.588l.844.792 1.245-1.357c.385.304.816.556 1.295.746.717.28 1.53.422 2.436.422.907 0 1.745-.15 2.48-.448a5.156 5.156 0 0 0 1.869-1.274 5.701 5.701 0 0 0 1.179-1.98c.276-.77.413-1.642.413-2.618s-.129-1.797-.387-2.566a5.77 5.77 0 0 0-.79-1.553l1.35-1.478-.879-.826Zm-8.713 4.03c.321-.736.786-1.312 1.395-1.731.608-.42 1.349-.629 2.221-.629.873 0 1.55.198 2.135.594.178.12.34.261.494.41l-6.076 6.705a4.376 4.376 0 0 1-.384-.89 6.498 6.498 0 0 1-.267-1.928c0-.953.16-1.797.482-2.532Zm7.293 4.356a4.32 4.32 0 0 1-.784 1.507 3.606 3.606 0 0 1-1.266.981c-.499.236-1.076.353-1.73.353-.654 0-1.194-.109-1.688-.327a3.484 3.484 0 0 1-.904-.583l6.05-6.626c.04.083.09.157.127.246.31.718.464 1.553.464 2.506 0 .712-.089 1.36-.267 1.946l-.002-.003Zm10.246.852c.097.247.146.543.146.887 0 .46-.095.855-.284 1.188-.19.333-.45.603-.784.81a3.696 3.696 0 0 1-1.17.456 6.699 6.699 0 0 1-1.43.146c-.218 0-.433-.005-.646-.017a4.428 4.428 0 0 1-.654-.086c-.224-.046-.46-.1-.706-.164a10.41 10.41 0 0 1-.818-.25l-.069-1.463c.264.092.525.175.784.25.258.074.51.137.757.19.247.05.483.091.706.12.224.028.428.043.612.043.344 0 .668-.035.973-.104a1.65 1.65 0 0 0 .74-.353c.19-.166.284-.393.284-.68a.88.88 0 0 0-.301-.68 1.895 1.895 0 0 0-.353-.241 3.188 3.188 0 0 0-.448-.198 12.007 12.007 0 0 1-.353-.112 27.19 27.19 0 0 0-.758-.241 16.398 16.398 0 0 1-.8-.267 3.62 3.62 0 0 1-.646-.336 2.523 2.523 0 0 1-.525-.456 2.026 2.026 0 0 1-.362-.629 2.434 2.434 0 0 1-.138-.852c0-.448.086-.835.259-1.162.172-.328.416-.597.732-.81a3.557 3.557 0 0 1 1.11-.482c.425-.109.896-.163 1.412-.163.207 0 .416.008.629.025.212.018.427.05.645.095.219.046.434.103.646.172.213.07.428.15.646.241l-.12 1.395a4.156 4.156 0 0 0-.5-.19 11.294 11.294 0 0 0-.542-.154 5.886 5.886 0 0 0-1.438-.19c-.287 0-.543.023-.767.07a1.946 1.946 0 0 0-.576.206.979.979 0 0 0-.362.336.893.893 0 0 0-.12.473c0 .16.037.304.111.43.075.127.173.236.293.328.12.092.256.178.405.258.138.07.29.132.456.19.167.057.339.111.517.163a9.5 9.5 0 0 1 .534.172c.178.063.358.124.542.181.253.092.494.204.723.336.23.132.43.29.603.473.172.184.307.4.405.646Zm7.017 1.877c.08-.017.149-.037.206-.06l-.103 1.43a11.67 11.67 0 0 1-.336.077 5.65 5.65 0 0 1-.913.13 8.408 8.408 0 0 1-.542.016c-.24 0-.488-.023-.74-.069a2.968 2.968 0 0 1-.715-.224 1.8 1.8 0 0 1-.585-.43 2.11 2.11 0 0 1-.405-.698 2.927 2.927 0 0 1-.155-1.007v-5.131h-1.515l.189-1.378h1.326v-2.1l1.756-.62v2.72h2.618l-.19 1.378h-2.428v4.77c0 .286.058.53.173.731.114.201.278.353.49.457.213.103.468.155.767.155.08 0 .166 0 .258-.009.092-.006.186-.017.284-.034l.293-.052c.097-.017.186-.034.267-.052ZM77.94 5.276l.069 1.429a1.52 1.52 0 0 0-.285-.086 18.064 18.064 0 0 0-.344-.07 3.828 3.828 0 0 0-.766-.068c-.218 0-.416.026-.594.077a1.05 1.05 0 0 0-.44.242c-.114.109-.203.246-.266.413a1.622 1.622 0 0 0-.095.577v1.429h2.41v1.343h-2.41v7.44h-1.756v-7.44h-1.292V9.22h1.292v-1.24c0-.505.071-.941.215-1.309.143-.367.344-.674.602-.92.259-.248.56-.429.905-.543a3.463 3.463 0 0 1 1.102-.173 5.61 5.61 0 0 1 1.128.103c.177.035.353.081.525.139Zm7.275 4.305c-.66-.368-1.438-.551-2.333-.551-.895 0-1.679.189-2.35.568a3.97 3.97 0 0 0-1.568 1.601c-.373.689-.56 1.504-.56 2.446 0 .94.176 1.753.526 2.436.35.683.852 1.203 1.507 1.559.654.355 1.412.533 2.273.533.86 0 1.687-.19 2.376-.568a4.01 4.01 0 0 0 1.61-1.619c.385-.7.577-1.526.577-2.48 0-.952-.178-1.696-.534-2.367a3.762 3.762 0 0 0-1.524-1.558Zm-.103 5.768c-.224.482-.537.841-.939 1.076a2.674 2.674 0 0 1-1.377.354c-.517 0-.965-.121-1.343-.362-.38-.241-.678-.603-.896-1.085-.218-.482-.327-1.08-.327-1.79 0-.713.11-1.28.327-1.74.218-.46.525-.804.921-1.033.397-.23.87-.345 1.421-.345.436 0 .812.072 1.128.216.316.143.58.353.792.628.213.276.37.606.474.99.103.385.155.813.155 1.283 0 .723-.112 1.326-.336 1.808Zm7.19 1.36.206-.034-.172 1.36a3.822 3.822 0 0 1-1.068.138c-.275 0-.53-.031-.766-.094a1.52 1.52 0 0 1-.612-.319 1.441 1.441 0 0 1-.396-.577 2.349 2.349 0 0 1-.137-.852V5.258L91.114 5v10.556c0 .207.014.385.043.534.029.149.078.272.147.37.068.098.154.17.258.215.103.046.23.07.379.07.069 0 .129 0 .18-.01.052-.005.112-.014.181-.025Zm7.903-11.45v4.19c-.017-.006-.034-.015-.051-.023a5.932 5.932 0 0 0-2.187-.396c-.77 0-1.484.189-2.144.568-.66.379-1.191.927-1.593 1.644-.402.718-.603 1.593-.603 2.626 0 .884.152 1.648.457 2.29.304.643.74 1.14 1.308 1.49.569.35 1.249.525 2.04.525.46 0 .893-.057 1.301-.172a4.698 4.698 0 0 0 1.197-.534c.129-.08.258-.169.387-.26l.216.794h1.429V5.017l-1.757.241Zm-.92 11.27c-.454.166-.865.25-1.232.25-.551 0-1.022-.112-1.412-.336-.39-.224-.689-.569-.896-1.034-.206-.464-.31-1.047-.31-1.747 0-.7.115-1.306.345-1.783.23-.476.56-.838.99-1.084.43-.247.944-.37 1.541-.37a5.215 5.215 0 0 1 1.627.25c.084.025.178.062.267.094v5.306a5.641 5.641 0 0 1-.92.454Z"/>
</svg>
