<svg xmlns="http://www.w3.org/2000/svg" viewBox="0 0 53 14"><path fill="#0A2343" d="M0 12.998v-12h3.937v12H0Zm9.294-10.09 2.264 10.09H7.25l-2.704-12h2.417a2.276 2.276 0 0 1 1.513.55c.42.346.71.826.819 1.36Zm2.855 10.09v-12h3.938v12h-3.938Zm6.912-7.436a2.382 2.382 0 0 1-2.4-2.4 2.301 2.301 0 0 1 .321-1.2A2.41 2.41 0 0 1 20.26 1.1c.356.21.653.506.862.862.215.363.326.778.321 1.2a2.35 2.35 0 0 1-.321 1.208 2.4 2.4 0 0 1-.862.87 2.302 2.302 0 0 1-1.2.322Zm2.99 7.436v-12h3.938v12h-3.937Zm8.923-5.442c.01.012.095.15.253.414s.364.602.617 1.014a317.184 317.184 0 0 1 1.597 2.62c.247.41.529.876.845 1.394H29.96c-.27-.44-.516-.837-.736-1.192-.22-.355-.453-.738-.7-1.149-.248-.41-.493-.81-.736-1.2-.242-.389-.45-.73-.625-1.022-.175-.293-.296-.49-.363-.592a1.747 1.747 0 0 1-.287-.845c.016-.29.11-.57.27-.811.067-.113.191-.313.371-.6s.392-.628.634-1.023c.242-.394.488-.797.736-1.208l.7-1.158.736-1.2h4.326l-3.346 5.46a1.08 1.08 0 0 0-.17.54c.012.202.082.396.203.558Z"/><path fill="#1767CE" d="M47.002 2.554a3.019 3.019 0 0 0-.785-.82 3.774 3.774 0 0 0-1.141-.54 5.4 5.4 0 0 0-1.521-.195h-4.698v11.998h1.775V8.688h3.058a3.99 3.99 0 0 0 1.977-.49 3.662 3.662 0 0 0 1.395-1.369 4.034 4.034 0 0 0 .515-2.079 4.934 4.934 0 0 0-.135-1.166 3.361 3.361 0 0 0-.44-1.03Zm-1.571 3.642a1.997 1.997 0 0 1-.955.785c-.477.181-.985.267-1.496.254h-2.348V2.469h2.585c.494-.018.985.077 1.437.279.358.173.652.458.836.811.195.396.29.834.279 1.276.02.476-.098.949-.338 1.36ZM51.954 1c-.27.134-.527.267-.77.396-.242.13-.478.251-.709.364l-.701.338a8.194 8.194 0 0 1-.727.304c-.248.09-.513.18-.794.27l.371 1.436c.338-.101.645-.202.921-.304a8.35 8.35 0 0 0 .795-.338c.253-.124.507-.259.76-.405l.009-.005v9.942h1.757V.999h-.912Z"/></svg>