<svg xmlns="http://www.w3.org/2000/svg" viewBox="0 0 26 26"><path fill="#000" d="M13.152.5C20.076.5 25.5 6.217 25.5 13.162c0 6.935-5.82 12.338-12.661 12.338C5.924 25.5.5 19.691.5 12.885.5 5.94 6.237.5 13.152.5Zm.59 6.52c-.406 0-.82.268-.82.831 0 .388.258.813.828.813a.787.787 0 0 0 .802-.785c0-.49-.323-.859-.81-.859Zm-2.386.148v4.119c0 .055 0 .055.037.055h1.354c.037 0 .037 0 .037-.055v-4.12c0-.045 0-.045-.037-.045h-1.354c-.037 0-.037 0-.037.046ZM8.76 7.122c-.046 0-.046 0-.046.046l.93 4.119c.009.055.046.055.046.055h1.482c.046 0 .046-.055.046-.055l-.792-3.473c-.083-.424-.377-.692-.782-.692H8.76Zm-1.612.046v4.119c0 .055 0 .055.046.055h1.437v-4.22H7.194c-.046 0-.046 0-.046.046ZM6.025 17.752c1.132 0 1.823-.61 1.823-1.58 0-1.607-2.1-1.274-2.1-2.133 0-.277.194-.499.664-.499.138 0 .248.028.414.083l.138.471h.746V13.07a2.449 2.449 0 0 0-1.326-.36c-.967 0-1.768.471-1.768 1.413 0 1.773 2.127 1.247 2.127 2.244 0 .36-.22.554-.663.554a1.5 1.5 0 0 1-.552-.11l-.166-.555h-.746v1.22c.387.193.856.277 1.409.277v-.001Zm4.512-3.796c-.415 0-.801.222-1.022.526h-.028l-.138-.415H8.133v.582l.36.11v3.713l-.36.11v.555h2.045v-.554l-.636-.166v-1.053c.138.166.442.388.912.388.884 0 1.436-.638 1.436-1.968 0-1.357-.58-1.828-1.353-1.828Zm-.387 2.937c-.193 0-.47-.111-.552-.167v-1.662c.11-.11.386-.194.607-.194.36 0 .58.25.58.998s-.248 1.025-.635 1.025Zm4.033-2.937c-1.105 0-1.823.61-1.823 1.94 0 1.218.663 1.856 1.74 1.856 1.05 0 1.824-.61 1.824-1.912 0-1.33-.719-1.884-1.74-1.884h-.001Zm-.027 2.964c-.442 0-.691-.277-.691-1.08 0-.776.276-1.025.69-1.025.36 0 .636.221.636 1.025 0 .803-.276 1.08-.635 1.08Zm1.961-5.633v-4.12c0-.045-.037-.045-.037-.045h-1.409s-.037 0-.037.046v4.119c0 .055.037.055.037.055h1.41s.036 0 .036-.055Zm2.67 3.805.056-1.025s-.166-.028-.36-.028c-.386 0-.718.166-.911.637h-.028l-.138-.61h-1.16v.583l.387.11v2.245l-.387.11v.554h2.072v-.554l-.636-.138v-1.607c.11-.166.415-.305.719-.305.11 0 .248 0 .386.028Zm.277-3.75s.046-.009.009-.055l-1.114-1.875c-.102-.166-.11-.203-.046-.35l1.16-1.894c.009-.028 0-.046-.028-.046h-1.528c-.065 0-.083.046-.083.046l-1.013 1.69c-.194.314-.175.397-.028.674l1.05 1.783c.01.018.028.027.074.027h1.547Zm2.458 3.528v-.803h-.801v-.887h-.856l-.194.887h-.442l-.055.803h.442v1.967c0 .582.332.915 1.022.915.304 0 .663-.056.884-.139l-.11-.748c-.138.028-.249.055-.36.055-.276 0-.331-.083-.331-.304V14.87h.801Z"/></svg>