<svg xmlns="http://www.w3.org/2000/svg" viewBox="0 0 133 24"><path fill="#1767CE" d="M0 0h133v24H0z"/><path fill="#fff" d="M6.004 18V6.001h3.937V18H6.004Zm9.294-10.09L17.562 18h-4.309L10.55 6.001h2.416a2.276 2.276 0 0 1 1.513.55c.42.345.71.826.82 1.36ZM18.154 18V6.001h3.937V18h-3.937Zm6.91-7.436a2.383 2.383 0 0 1-2.4-2.4 2.303 2.303 0 0 1 .323-1.2 2.411 2.411 0 0 1 3.278-.861c.355.209.652.506.861.861.215.363.326.778.322 1.2a2.4 2.4 0 0 1-1.183 2.079 2.302 2.302 0 0 1-1.2.321ZM28.057 18V6.001h3.937V18h-3.937Zm8.922-5.442c.011.012.096.15.253.414.158.265.364.603.617 1.014a315.936 315.936 0 0 1 1.597 2.62c.247.411.529.876.845 1.394h-4.326c-.27-.44-.516-.837-.735-1.191-.22-.355-.453-.738-.7-1.15-.249-.41-.494-.81-.737-1.2-.242-.389-.45-.73-.625-1.022-.175-.293-.296-.49-.363-.591a1.748 1.748 0 0 1-.287-.845c.017-.29.11-.57.27-.812.068-.113.192-.313.372-.6s.391-.628.633-1.022c.243-.395.488-.797.736-1.209l.7-1.157.736-1.2h4.326l-3.346 5.458a1.08 1.08 0 0 0-.17.542c.012.201.082.395.203.557h.001Z"/><path fill="#D9E9FF" d="M44.861 7.473h3.879v10.534h1.778V7.473h3.861v-1.49h-9.517v1.49ZM62.542 10.462a3.073 3.073 0 0 0-1.244-.957 4.348 4.348 0 0 0-1.72-.321 4.21 4.21 0 0 0-1.727.338 3.691 3.691 0 0 0-1.295.949 4.149 4.149 0 0 0-.813 1.465 6.122 6.122 0 0 0-.28 1.905 5.128 5.128 0 0 0 .5 2.362 3.31 3.31 0 0 0 1.481 1.474 5.267 5.267 0 0 0 2.406.5c.399.003.798-.023 1.193-.077.331-.047.657-.124.974-.229.315-.105.62-.235.915-.389l.118-1.304c-.214.079-.432.158-.652.237a8.12 8.12 0 0 1-.686.212c-.239.062-.482.108-.728.135a6.598 6.598 0 0 1-.745.043 5.342 5.342 0 0 1-1.321-.144 2.165 2.165 0 0 1-.94-.492 2.14 2.14 0 0 1-.576-.94 4.286 4.286 0 0 1-.184-1.117h6.12c.083-.7.052-1.41-.093-2.1a3.958 3.958 0 0 0-.703-1.55Zm-4.267.407a2.4 2.4 0 0 1 1.32-.348 2.07 2.07 0 0 1 1.304.382c.338.269.578.64.686 1.058.085.309.126.628.124.948h-4.454c.031-.337.104-.67.215-.99.145-.43.428-.799.805-1.05ZM70.883 9.404a6.124 6.124 0 0 0-.788-.161 6.653 6.653 0 0 0-.915-.06 4.098 4.098 0 0 0-1.608.322c-.51.216-.974.53-1.364.923a4.178 4.178 0 0 0-.94 1.49 5.707 5.707 0 0 0-.338 2.041 5.3 5.3 0 0 0 .431 2.227c.266.601.705 1.108 1.262 1.457.61.36 1.308.538 2.015.516a4.883 4.883 0 0 0 1.812-.355c.345-.14.67-.325.966-.549v.464c.007.382-.048.762-.16 1.126a2.05 2.05 0 0 1-.492.813c-.243.233-.54.402-.864.491a4.53 4.53 0 0 1-1.296.161c-.347 0-.695-.02-1.04-.059a7.388 7.388 0 0 1-1.076-.203 8.223 8.223 0 0 1-1.067-.364l.186 1.49c.311.126.631.231.957.313.343.087.69.152 1.041.195.371.046.744.068 1.118.068a5.461 5.461 0 0 0 2.422-.483 3.393 3.393 0 0 0 1.482-1.338 3.84 3.84 0 0 0 .5-1.973V9.184l-1.657.426a4.944 4.944 0 0 0-.587-.206Zm.313 6.782c-.21.122-.428.23-.652.322a3.981 3.981 0 0 1-.61.195 2.75 2.75 0 0 1-.618.068 2.946 2.946 0 0 1-1.465-.33 1.983 1.983 0 0 1-.863-1 4.502 4.502 0 0 1-.28-1.719 4.477 4.477 0 0 1 .195-1.38 2.6 2.6 0 0 1 .559-.99c.25-.266.557-.471.897-.602a3.27 3.27 0 0 1 1.211-.211c.267 0 .533.022.796.067.27.048.535.113.796.195.083.026.17.06.254.092v5.163c-.074.045-.15.09-.22.13ZM82.39 9.54a3.332 3.332 0 0 0-1.626-.356c-.491 0-.98.078-1.448.228a5.502 5.502 0 0 0-1.363.652c-.163.108-.32.226-.474.347v-1.21l-1.728.254v8.552h1.728v-6.432c.167-.098.34-.187.516-.266.238-.105.481-.199.729-.28a4.91 4.91 0 0 1 .728-.177c.232-.039.467-.059.703-.06.276-.006.551.037.813.127.215.078.407.21.558.382.156.186.266.407.322.643.072.3.106.607.102.915v5.148h1.727v-5.504a4.694 4.694 0 0 0-.322-1.88 2.22 2.22 0 0 0-.965-1.084ZM91.586 14.112a2.552 2.552 0 0 0-.593-.466 4.592 4.592 0 0 0-.711-.33c-.181-.057-.359-.116-.534-.178a9.433 9.433 0 0 0-.525-.17c-.175-.05-.344-.104-.508-.16a3.732 3.732 0 0 1-.449-.187 2.961 2.961 0 0 1-.398-.254 1.113 1.113 0 0 1-.287-.321.815.815 0 0 1-.11-.424.877.877 0 0 1 .118-.465.962.962 0 0 1 .356-.33 1.91 1.91 0 0 1 .567-.204c.248-.047.5-.07.754-.068a5.494 5.494 0 0 1 .889.077c.175.027.35.065.525.11.174.045.352.096.533.152.168.052.332.114.491.186l.119-1.371a8.04 8.04 0 0 0-.635-.237 6.234 6.234 0 0 0-.635-.17 5.087 5.087 0 0 0-.635-.093 7.65 7.65 0 0 0-.618-.025 5.581 5.581 0 0 0-1.39.16 3.493 3.493 0 0 0-1.091.475c-.304.2-.551.474-.72.796a2.417 2.417 0 0 0-.254 1.143c-.005.285.04.569.136.838.08.226.2.435.355.618.15.173.325.324.517.449.2.131.413.242.635.33a15.113 15.113 0 0 0 .787.263 41.115 41.115 0 0 1 .745.237c.119.04.234.076.348.11.151.054.298.119.44.195.124.066.24.145.347.237a.868.868 0 0 1 .296.669.844.844 0 0 1-.28.669c-.209.175-.46.294-.728.347a4.32 4.32 0 0 1-.956.102 4.763 4.763 0 0 1-.601-.043 8.627 8.627 0 0 1-.695-.118 10.718 10.718 0 0 1-.745-.187 14.8 14.8 0 0 1-.77-.245l.067 1.44c.294.1.562.183.805.245s.474.116.694.16c.212.045.427.073.644.085.208.012.42.017.635.017.472.003.943-.045 1.405-.144a3.632 3.632 0 0 0 1.152-.448c.32-.196.585-.47.77-.796.195-.359.29-.762.28-1.169a2.372 2.372 0 0 0-.144-.872 1.98 1.98 0 0 0-.398-.635ZM100.689 9.717a3.64 3.64 0 0 0-2.024-.533 5.158 5.158 0 0 0-1.253.16 5.435 5.435 0 0 0-1.508.64V9.2l-1.727.27v12.092h1.727v-3.791l.034.015c.313.13.64.224.974.28.395.064.794.096 1.194.092a4.232 4.232 0 0 0 2.176-.558 4.02 4.02 0 0 0 1.524-1.618c.4-.8.595-1.688.568-2.583a5.271 5.271 0 0 0-.432-2.201 3.4 3.4 0 0 0-1.253-1.482Zm-.449 5.665c-.204.45-.544.823-.974 1.067a3.13 3.13 0 0 1-1.55.356 4.817 4.817 0 0 1-1.558-.254c-.08-.029-.169-.06-.254-.092v-5.345c.023-.01.046-.024.068-.034.248-.113.48-.209.695-.287a3.477 3.477 0 0 1 1.202-.22 3.133 3.133 0 0 1 1.507.33c.409.222.728.578.906 1.007.216.55.317 1.138.297 1.728a4.04 4.04 0 0 1-.339 1.744ZM108.013 9.31a3.334 3.334 0 0 0-.898.39c-.289.18-.556.393-.796.635-.04.04-.079.084-.118.126V9.2l-1.728.254v8.552h1.728v-6.398a4.382 4.382 0 0 1 .923-.495c.175-.067.353-.126.533-.177a3.64 3.64 0 0 1 1.186-.127l.203-1.592a3.222 3.222 0 0 0-1.033.093ZM117.954 16.94a.77.77 0 0 1-.66-.27 1.459 1.459 0 0 1-.187-.899l.034-3.488a4.087 4.087 0 0 0-.135-1.084 2.665 2.665 0 0 0-.407-.864 2.277 2.277 0 0 0-.703-.626 3.592 3.592 0 0 0-1.024-.39 6.026 6.026 0 0 0-1.338-.135c-.357 0-.713.022-1.067.067a7.364 7.364 0 0 0-.991.195c-.301.082-.598.18-.889.296l-.203 1.44a9.913 9.913 0 0 1 1.541-.423c.232-.045.467-.076.703-.094.231-.016.46-.025.686-.025.345-.007.69.033 1.024.119.244.06.469.183.652.355.164.168.281.375.339.601.072.28.107.567.102.856l-.002.425-1.98.134a5.252 5.252 0 0 0-1.964.44 2.815 2.815 0 0 0-1.16.94c-.251.367-.384.8-.381 1.245-.004.416.098.827.296 1.193.207.377.519.686.898.89.462.24.978.357 1.498.338.488.012.973-.069 1.431-.237a3.296 3.296 0 0 0 1.067-.677c.118-.113.229-.231.333-.355.033.175.095.344.184.499.151.259.383.461.66.576.307.123.635.183.966.177.101 0 .2-.002.296-.008.094-.006.188-.02.28-.042.09-.023.171-.043.245-.06.066-.014.132-.034.195-.059l.186-1.135c-.093.032-.19.055-.288.068-.078.01-.158.016-.237.017Zm-2.82-.762c-.183.145-.382.27-.592.372-.21.102-.432.176-.661.22a3.745 3.745 0 0 1-.72.068 1.91 1.91 0 0 1-.804-.152 1.107 1.107 0 0 1-.5-.432 1.265 1.265 0 0 1-.169-.669 1.286 1.286 0 0 1 .22-.796c.185-.215.434-.364.711-.423a5.154 5.154 0 0 1 1.321-.136h1.483l-.007 1.681c-.086.097-.18.186-.282.267ZM112.543 7.829c.32.151.671.226 1.025.22.363.007.723-.071 1.05-.229a1.77 1.77 0 0 0 .72-.643c.18-.298.272-.642.262-.991a1.733 1.733 0 0 0-.559-1.355 2.057 2.057 0 0 0-1.439-.508 2.452 2.452 0 0 0-1.025.212 1.685 1.685 0 0 0-.737.635c-.188.31-.282.67-.271 1.033-.011.351.08.699.263 1 .175.27.421.487.711.626Zm.271-2.439a1.089 1.089 0 0 1 .788-.27c.21-.01.418.04.601.143.148.091.266.224.339.381.076.17.113.356.11.542a1.21 1.21 0 0 1-.119.542.876.876 0 0 1-.347.373 1.168 1.168 0 0 1-.601.135 1.274 1.274 0 0 1-.576-.119.774.774 0 0 1-.356-.355 1.284 1.284 0 0 1-.118-.576 1.05 1.05 0 0 1 .279-.796ZM125.304 18.007h2.235l-4.108-4.629 4.024-4.008h-2.117l-2.898 3.184h-.625V5.22l-1.727.254v12.532h1.727v-4.15h.028l3.461 4.15Z"/></svg>