<svg xmlns="http://www.w3.org/2000/svg" viewBox="0 0 103 24"><path fill="#fff" d="M71.046 13.249a5.699 5.699 0 0 1-.178 1.495c-.1.397-.287.767-.55 1.082a2.296 2.296 0 0 1-.97.65 4.216 4.216 0 0 1-1.445.22 4.328 4.328 0 0 1-1.674-.296 2.117 2.117 0 0 1-1.081-.997 4.087 4.087 0 0 1-.372-1.9V6h-1.774v7.79c-.02.702.11 1.399.38 2.046.23.533.59 1.001 1.048 1.36.46.351.986.607 1.546.752a7.13 7.13 0 0 0 1.859.236 5.56 5.56 0 0 0 2.72-.591 3.712 3.712 0 0 0 1.58-1.656c.36-.784.536-1.64.516-2.501V6h-1.606v7.248ZM78.7 9.32a3.308 3.308 0 0 0-.895.389 4.4 4.4 0 0 0-.795.634c-.04.04-.078.084-.118.126V9.21l-1.723.254v8.533h1.723v-6.384a4.432 4.432 0 0 1 .921-.494c.175-.067.352-.126.532-.177a3.618 3.618 0 0 1 1.183-.126l.203-1.589a3.207 3.207 0 0 0-1.03.093ZM88.552 8.99l-.947 1a3.917 3.917 0 0 0-.388-.256 4.622 4.622 0 0 0-2.298-.54 4.619 4.619 0 0 0-2.307.557 3.897 3.897 0 0 0-1.537 1.572 4.963 4.963 0 0 0-.55 2.4 5.11 5.11 0 0 0 .524 2.39c.097.184.208.36.333.526l-.941 1.004.777.71.901-.975c.13.097.266.186.408.265.69.362 1.46.542 2.24.523a4.71 4.71 0 0 0 2.323-.557 4.008 4.008 0 0 0 1.58-1.589 4.923 4.923 0 0 0 .574-2.433 4.831 4.831 0 0 0-.532-2.324c-.1-.184-.215-.36-.343-.525l.977-1.038-.794-.71Zm-5.898 2.924c.19-.423.506-.777.904-1.014.421-.233.897-.35 1.378-.338.382-.008.762.064 1.115.212.19.085.365.2.52.34l-3.932 4.246a4.374 4.374 0 0 1-.306-1.74c-.02-.585.09-1.167.321-1.706Zm4.462 3.48a2.366 2.366 0 0 1-.921 1.057 2.58 2.58 0 0 1-1.344.347 2.444 2.444 0 0 1-1.326-.355 2.071 2.071 0 0 1-.314-.248l3.933-4.247c.058.135.108.273.149.414.111.41.165.834.16 1.259.02.61-.095 1.215-.338 1.775v-.001ZM94.939 9.32a3.31 3.31 0 0 0-.896.389c-.288.18-.554.393-.794.634-.04.04-.079.084-.118.126V9.21l-1.724.254v8.533h1.724v-6.384a4.438 4.438 0 0 1 .92-.494c.175-.067.353-.126.533-.177a3.622 3.622 0 0 1 1.183-.126l.203-1.589a3.207 3.207 0 0 0-1.031.093ZM102.273 16.587a7.373 7.373 0 0 1-.262.05l-.287.05a2.528 2.528 0 0 1-.279.034 3.89 3.89 0 0 1-.254.009 1.702 1.702 0 0 1-.752-.152 1.086 1.086 0 0 1-.481-.448 1.424 1.424 0 0 1-.17-.718v-4.68h2.383l.186-1.353h-2.568V6.71l-1.724.608V9.38h-1.301l-.186 1.352h1.487v5.036c-.007.335.044.67.152.988.087.252.222.484.398.685.16.178.356.322.574.422.224.103.459.177.701.22.24.044.483.066.727.067.18 0 .357-.005.532-.016.175-.011.335-.028.482-.051a7.582 7.582 0 0 0 .743-.152l.102-1.403a1.332 1.332 0 0 1-.203.06Z"/><path fill="#FFE100" d="M46.48 6h-3.703s2.105 3.455 2.129 3.498a.582.582 0 0 1 .013.706l-2.142 3.511h3.704s1.787-2.92 2.031-3.326a.886.886 0 0 0-.01-1.073c-.263-.449-.264-.448-2.021-3.316ZM42.299 6H39V18h3.299V6ZM58.082 7.988C57.958 7.776 56.855 6 56.855 6h-7.928l1.732 2.905h4.176l-1.723 2.823 1.92 3.226L53.18 18h3.385c.544-.89 1.357-2.267 1.527-2.549a.889.889 0 0 0-.01-1.077c-.169-.29-1.075-1.727-1.617-2.612l1.627-2.697a.888.888 0 0 0-.009-1.077Z"/><path fill="#FFE100" d="M50.456 12.118c-.522.852-1.394 2.28-1.558 2.56a.856.856 0 0 0-.01 1.037l1.568 2.57c.524-.858 1.404-2.297 1.567-2.57a.857.857 0 0 0-.009-1.038 392.8 392.8 0 0 0-1.558-2.559Z"/><path fill="#fff" d="M0 17.995V5.996h3.937v11.999H0Zm9.294-10.09 2.264 10.09H7.25L4.545 5.996h2.417a2.276 2.276 0 0 1 1.513.55c.42.345.71.826.819 1.36Zm2.855 10.09V5.996h3.938v11.999h-3.938Zm6.912-7.436a2.382 2.382 0 0 1-2.4-2.4 2.301 2.301 0 0 1 .321-1.2 2.41 2.41 0 0 1 3.278-.861c.356.209.653.506.862.861.215.363.326.778.321 1.2a2.35 2.35 0 0 1-.321 1.209 2.4 2.4 0 0 1-.862.87 2.302 2.302 0 0 1-1.2.321Zm2.99 7.436V5.996h3.938v11.999h-3.937Zm8.923-5.442c.01.012.095.15.253.414.158.265.364.603.617 1.014a315.936 315.936 0 0 1 1.597 2.62c.247.411.529.876.845 1.394H29.96c-.27-.44-.516-.837-.736-1.191-.22-.355-.453-.738-.7-1.15-.248-.41-.493-.81-.736-1.2-.242-.389-.45-.73-.625-1.022-.175-.293-.296-.49-.363-.591a1.747 1.747 0 0 1-.287-.845c.016-.29.11-.57.27-.812.067-.113.191-.313.371-.6s.392-.628.634-1.022c.242-.395.488-.797.736-1.209l.7-1.157.736-1.2h4.326l-3.346 5.458a1.08 1.08 0 0 0-.17.541c.012.202.082.396.203.558Z"/></svg>