<svg xmlns="http://www.w3.org/2000/svg" viewBox="0 0 74 24"><path fill="#000" d="M73.143 18.002 69 11.742l3.785-5.74H70.89l-2.75 4.57-3.016-4.57h-2.08l3.887 5.824L62.857 18h1.928l3.033-4.931L71.078 18h2.065ZM46.48 6h-3.703s2.105 3.455 2.129 3.498a.582.582 0 0 1 .013.706l-2.142 3.512h3.704s1.787-2.921 2.031-3.327a.886.886 0 0 0-.01-1.073c-.263-.449-.264-.448-2.021-3.316ZM42.299 6H39v12.001h3.299V6ZM58.082 7.988A324.935 324.935 0 0 0 56.855 6h-7.928l1.732 2.905h4.176l-1.723 2.824 1.92 3.226L53.18 18h3.385c.544-.89 1.357-2.267 1.527-2.549a.889.889 0 0 0-.01-1.077c-.169-.29-1.075-1.727-1.617-2.612l1.627-2.697a.888.888 0 0 0-.009-1.077Z"/><path fill="#000" d="M50.456 12.118c-.522.853-1.394 2.281-1.558 2.56a.856.856 0 0 0-.01 1.037l1.568 2.57c.524-.858 1.404-2.297 1.567-2.57a.857.857 0 0 0-.009-1.038 392.8 392.8 0 0 0-1.558-2.559ZM0 18.002v-12h3.937v12H0Zm9.294-10.09 2.264 10.09H7.25l-2.704-12h2.417a2.276 2.276 0 0 1 1.513.55c.42.346.71.827.819 1.36Zm2.855 10.09v-12h3.938v12h-3.938Zm6.912-7.436a2.381 2.381 0 0 1-2.078-1.191 2.345 2.345 0 0 1-.322-1.209 2.301 2.301 0 0 1 .321-1.2 2.41 2.41 0 0 1 3.278-.862c.356.21.653.506.862.862.215.363.326.778.321 1.2a2.35 2.35 0 0 1-.321 1.208 2.4 2.4 0 0 1-.862.87 2.302 2.302 0 0 1-1.2.322Zm2.99 7.436v-12h3.938v12h-3.937Zm8.923-5.442c.01.012.095.15.253.414s.364.602.617 1.014a315.936 315.936 0 0 1 1.597 2.62c.247.411.529.876.845 1.394H29.96c-.27-.44-.516-.837-.736-1.192-.22-.354-.453-.738-.7-1.149-.248-.41-.493-.81-.736-1.2-.242-.389-.45-.73-.625-1.022-.175-.293-.296-.49-.363-.592a1.747 1.747 0 0 1-.287-.845c.016-.29.11-.57.27-.811.067-.113.191-.313.371-.6s.392-.628.634-1.022c.242-.395.488-.798.736-1.209l.7-1.157.736-1.2h4.326L30.94 11.46a1.08 1.08 0 0 0-.17.541c.012.202.082.396.203.558Z"/></svg>