<svg xmlns="http://www.w3.org/2000/svg" viewBox="0 0 54 19" fill="currentColor"><path d="M0 14.999V3h3.937v11.999H0Zm9.294-10.09L11.558 15H7.25L4.545 3h2.417a2.276 2.276 0 0 1 1.513.55c.42.345.71.826.819 1.36ZM12.149 15V3h3.938v11.999h-3.938Zm6.912-7.436a2.382 2.382 0 0 1-2.4-2.4 2.301 2.301 0 0 1 .321-1.2 2.41 2.41 0 0 1 3.278-.862c.356.21.653.506.862.862.215.363.326.778.321 1.2a2.35 2.35 0 0 1-.321 1.208 2.4 2.4 0 0 1-.862.87 2.3 2.3 0 0 1-1.2.322Zm2.99 7.436V3h3.938v11.999h-3.937Zm8.923-5.442c.01.012.095.15.253.414s.364.603.617 1.014a309.436 309.436 0 0 1 1.597 2.62c.247.411.529.876.845 1.394H29.96c-.27-.44-.516-.837-.736-1.192-.22-.354-.453-.738-.7-1.149-.248-.41-.493-.81-.736-1.2-.242-.389-.45-.73-.625-1.022-.175-.293-.296-.49-.363-.592A1.747 1.747 0 0 1 26.513 9c.016-.29.11-.57.27-.811.067-.113.191-.313.371-.6s.392-.628.634-1.022c.242-.395.488-.798.736-1.209l.7-1.157.736-1.2h4.326L30.94 8.458a1.08 1.08 0 0 0-.17.541c.012.202.083.396.204.558ZM48.313.836a8.913 8.913 0 0 1 4.731 4.73 8.667 8.667 0 0 1 .688 3.447 8.627 8.627 0 0 1-.688 3.43 8.918 8.918 0 0 1-4.73 4.731 8.677 8.677 0 0 1-3.447.688 8.672 8.672 0 0 1-3.447-.688 8.821 8.821 0 0 1-2.817-1.905 8.98 8.98 0 0 1-1.897-2.826 8.621 8.621 0 0 1-.688-3.43 8.664 8.664 0 0 1 .688-3.446 8.976 8.976 0 0 1 1.897-2.826A8.818 8.818 0 0 1 41.42.836a8.669 8.669 0 0 1 3.447-.688 8.672 8.672 0 0 1 3.446.688Zm-.662 14.723a7.142 7.142 0 0 0 2.27-1.517 7.023 7.023 0 0 0 2.071-5.03 7.025 7.025 0 0 0-.547-2.766 7.077 7.077 0 0 0-1.525-2.27 7.197 7.197 0 0 0-2.27-1.533 6.984 6.984 0 0 0-2.783-.555 6.941 6.941 0 0 0-2.767.555 7.195 7.195 0 0 0-3.804 3.803 6.938 6.938 0 0 0-.554 2.767c-.007.95.182 1.893.554 2.768.36.846.88 1.614 1.533 2.261a7.14 7.14 0 0 0 2.27 1.517 7.027 7.027 0 0 0 2.768.546 7.071 7.071 0 0 0 2.784-.546Zm-6.654-5.552a1.304 1.304 0 0 1-.389-.944 1.344 1.344 0 0 1 .39-.978 1.283 1.283 0 0 1 .952-.397 1.357 1.357 0 0 1 .986.397 1.317 1.317 0 0 1 .406.978 1.277 1.277 0 0 1-.406.944 1.357 1.357 0 0 1-.986.398 1.281 1.281 0 0 1-.953-.398Zm6.736-2.9c.011-.033.034-.033.067 0l.398 1.078a.13.13 0 0 0 .132.1l1.176.032c.022 0 .033.009.033.025a.09.09 0 0 1-.033.058l-.845.73a.126.126 0 0 0-.083.165l.299 1.077c0 .056-.017.083-.05.083l-.978-.646a.298.298 0 0 0-.198 0l-.929.646c-.044 0-.06-.027-.049-.083l.298-1.077a.177.177 0 0 0-.083-.166L46.01 8.4a.13.13 0 0 1-.016-.058c0-.016.005-.025.016-.025l1.177-.033a.14.14 0 0 0 .149-.1l.397-1.076Z"/></svg>