<svg xmlns="http://www.w3.org/2000/svg" viewBox="0 0 122 24"><path fill="#fff" d="M0 17.997v-12h3.937v12H0Zm9.294-10.09 2.264 10.09H7.25l-2.704-12h2.417a2.276 2.276 0 0 1 1.513.55c.42.346.71.826.819 1.36Zm2.855 10.09v-12h3.938v12h-3.938Zm6.912-7.436a2.381 2.381 0 0 1-2.078-1.192 2.345 2.345 0 0 1-.322-1.208 2.301 2.301 0 0 1 .321-1.2 2.41 2.41 0 0 1 3.278-.862c.356.21.653.506.862.862.215.363.326.778.321 1.2a2.35 2.35 0 0 1-.321 1.208c-.207.36-.504.66-.862.87a2.301 2.301 0 0 1-1.2.322Zm2.99 7.436v-12h3.938v12h-3.937Zm8.923-5.442c.01.011.095.15.253.414s.364.602.617 1.014a309.436 309.436 0 0 1 1.597 2.62c.247.41.529.875.845 1.394H29.96c-.27-.44-.516-.837-.736-1.192-.22-.355-.453-.738-.7-1.15-.248-.41-.493-.81-.736-1.199a60.12 60.12 0 0 1-.625-1.022 18.04 18.04 0 0 0-.363-.592 1.747 1.747 0 0 1-.287-.845c.016-.29.11-.57.27-.811.067-.113.191-.313.371-.6a182.106 182.106 0 0 0 1.37-2.23l.7-1.159.736-1.2h4.326l-3.346 5.46a1.079 1.079 0 0 0-.17.54c.012.202.082.396.203.558Z"/><path fill="#9FDAF5" d="M46.287 12.334a3.234 3.234 0 0 0-.853-.623 6.686 6.686 0 0 0-1.032-.419 11.68 11.68 0 0 0-1.126-.29 24.41 24.41 0 0 1-.828-.205 3.797 3.797 0 0 1-.682-.247 2.257 2.257 0 0 1-.52-.342 1.224 1.224 0 0 1-.333-.477 1.837 1.837 0 0 1-.11-.675 2.047 2.047 0 0 1 .11-.7c.07-.198.187-.377.341-.52.16-.146.341-.267.537-.359.225-.102.464-.171.709-.205.29-.04.584-.06.878-.059a7.815 7.815 0 0 1 1.604.17c.257.056.51.128.76.214.232.08.458.18.673.298l.24-1.501a4.24 4.24 0 0 0-.76-.308c-.267-.08-.538-.148-.81-.205a8.084 8.084 0 0 0-.837-.127 8.794 8.794 0 0 0-.87-.043 7.243 7.243 0 0 0-1.791.205c-.5.12-.971.334-1.39.631a2.854 2.854 0 0 0-.905 1.075 3.48 3.48 0 0 0-.315 1.537c-.01.41.056.817.196 1.203.122.323.311.617.554.862.24.24.517.442.82.598.32.164.653.302.997.41.359.113.726.21 1.1.29.308.068.592.139.854.213.243.067.48.155.708.264a2.2 2.2 0 0 1 .537.359c.152.143.272.318.35.512.09.234.134.483.128.734.005.267-.036.532-.12.785-.074.219-.19.422-.34.598a1.648 1.648 0 0 1-.547.408 2.764 2.764 0 0 1-.742.223 5.92 5.92 0 0 1-.947.068 7.43 7.43 0 0 1-.921-.06c-.319-.04-.637-.094-.955-.162a9.723 9.723 0 0 1-.93-.248 17.792 17.792 0 0 1-.862-.298l.222 1.69c.29.108.587.202.887.281.273.072.549.129.828.17.267.04.534.072.802.095.267.022.537.034.81.034A8.38 8.38 0 0 0 44.223 18a4.346 4.346 0 0 0 1.484-.614c.422-.28.763-.665.99-1.119.249-.536.369-1.123.35-1.715.009-.44-.058-.88-.197-1.297a2.515 2.515 0 0 0-.563-.921ZM56.498 16.925a.776.776 0 0 1-.665-.273 1.468 1.468 0 0 1-.188-.905l.034-3.516a4.109 4.109 0 0 0-.136-1.092 2.68 2.68 0 0 0-.41-.871 2.307 2.307 0 0 0-.708-.632 3.623 3.623 0 0 0-1.032-.392 6.066 6.066 0 0 0-1.348-.137c-.359 0-.718.023-1.075.069-.336.042-.67.108-.998.196a8.315 8.315 0 0 0-.895.299l-.205 1.45a10.034 10.034 0 0 1 1.553-.426 6.27 6.27 0 0 1 .708-.094c.233-.017.463-.026.69-.026.349-.007.696.033 1.033.12.246.061.472.185.657.358.164.169.282.378.34.606.074.282.108.572.103.862l-.002.427-1.994.135a5.3 5.3 0 0 0-1.979.444 2.838 2.838 0 0 0-1.169.947c-.252.37-.386.807-.384 1.255-.003.42.1.833.299 1.203.209.38.523.69.904.896.466.242.986.36 1.51.341.491.012.98-.07 1.442-.239a3.319 3.319 0 0 0 1.075-.682c.118-.114.23-.233.335-.358.033.177.096.347.185.503.152.261.386.465.665.58.31.124.64.185.973.18.102 0 .202-.004.298-.01.095-.005.19-.02.282-.042.09-.023.173-.043.247-.06.067-.015.133-.035.197-.06l.187-1.143a1.505 1.505 0 0 1-.29.069c-.079.01-.159.016-.239.016m-2.84-.768a3.272 3.272 0 0 1-.598.376 2.701 2.701 0 0 1-.665.222 3.789 3.789 0 0 1-.725.068 1.925 1.925 0 0 1-.81-.154 1.114 1.114 0 0 1-.504-.435 1.278 1.278 0 0 1-.17-.674 1.294 1.294 0 0 1 .221-.802c.186-.217.438-.367.717-.427a5.197 5.197 0 0 1 1.331-.136h1.494l-.008 1.693a2.273 2.273 0 0 1-.284.27M54.74 5.045h-1.842L51.448 8.1h1.33l1.963-3.055ZM70.436 9.466a2.969 2.969 0 0 0-1.518-.359 3.994 3.994 0 0 0-1.348.23 4.75 4.75 0 0 0-1.228.658 6.114 6.114 0 0 0-.606.512 2.139 2.139 0 0 0-.879-1.024c-.47-.254-1-.378-1.535-.359-.456 0-.91.079-1.34.23a4.846 4.846 0 0 0-1.595.934V9.124l-1.74.256V18h1.74v-6.492c.205-.135.42-.255.64-.361a4.42 4.42 0 0 1 .845-.299c.268-.066.543-.1.819-.102.253-.008.506.036.742.128.195.083.368.212.503.375.148.19.25.413.299.649.066.306.098.618.094.93V18h1.74v-5.53a6.912 6.912 0 0 0-.066-.976c.197-.13.401-.249.612-.355a3.9 3.9 0 0 1 .836-.308c.273-.067.554-.101.836-.102.25-.006.5.037.734.128.198.081.374.21.511.375.149.19.251.413.299.649.066.306.098.617.094.93V18h1.74v-5.547a4.958 4.958 0 0 0-.307-1.895 2.199 2.199 0 0 0-.922-1.092ZM74.242 18h1.74V9.125l-1.74.256V18ZM75.734 5.549a1.104 1.104 0 0 0-.588-.163 1.148 1.148 0 0 0-.598.163 1.25 1.25 0 0 0-.434.426 1.105 1.105 0 0 0-.163.59 1.174 1.174 0 0 0 1.195 1.177c.206.002.409-.05.588-.154.175-.101.32-.249.418-.426a1.2 1.2 0 0 0 .154-.598c.002-.206-.051-.41-.154-.589a1.207 1.207 0 0 0-.418-.426ZM86.235 9.235a3.35 3.35 0 0 0-.905.393 4.45 4.45 0 0 0-.802.64c-.04.04-.079.085-.119.128V9.124l-1.74.256V18h1.74v-6.448a4.45 4.45 0 0 1 .93-.498c.176-.07.355-.129.537-.18a3.655 3.655 0 0 1 1.195-.128l.204-1.605a3.246 3.246 0 0 0-1.04.094ZM96.028 16.925a.776.776 0 0 1-.665-.273 1.469 1.469 0 0 1-.188-.905l.034-3.516a4.109 4.109 0 0 0-.136-1.092 2.68 2.68 0 0 0-.41-.871 2.307 2.307 0 0 0-.708-.632 3.623 3.623 0 0 0-1.032-.392 6.066 6.066 0 0 0-1.348-.137c-.36 0-.718.023-1.075.069-.337.042-.67.108-.998.196a8.305 8.305 0 0 0-.896.299l-.204 1.45a10.021 10.021 0 0 1 1.552-.426 6.27 6.27 0 0 1 .708-.094c.233-.017.464-.026.691-.026.348-.007.695.033 1.032.12.246.061.472.185.657.358.165.169.282.378.341.606.073.282.108.572.103.862l-.002.427-1.994.135a5.3 5.3 0 0 0-1.98.444 2.837 2.837 0 0 0-1.168.947c-.252.37-.386.807-.384 1.255-.003.42.1.833.299 1.203.208.38.522.69.904.896.465.242.986.36 1.51.341.491.012.98-.07 1.441-.239a3.32 3.32 0 0 0 1.075-.682c.118-.114.23-.233.336-.358.033.177.096.347.185.503.152.261.386.465.665.58.309.124.64.185.972.18.103 0 .202-.004.3-.01.094-.005.188-.02.28-.042l.248-.06c.067-.015.132-.035.196-.06l.188-1.143a1.504 1.504 0 0 1-.29.069c-.08.01-.16.016-.239.016m-2.84-.768a3.272 3.272 0 0 1-.598.376 2.701 2.701 0 0 1-.665.222 3.79 3.79 0 0 1-.725.068 1.925 1.925 0 0 1-.81-.154 1.114 1.114 0 0 1-.504-.435 1.278 1.278 0 0 1-.17-.674 1.293 1.293 0 0 1 .221-.802c.186-.217.438-.367.717-.427a5.197 5.197 0 0 1 1.33-.136h1.495l-.008 1.693a2.273 2.273 0 0 1-.285.27M104.099 9.522l-.051-.022a5.904 5.904 0 0 0-2.167-.393 4.167 4.167 0 0 0-3.702 2.194 5.252 5.252 0 0 0-.597 2.603c-.02.78.135 1.556.452 2.27.277.61.728 1.123 1.296 1.476.612.36 1.313.54 2.022.52a4.74 4.74 0 0 0 1.288-.17 4.67 4.67 0 0 0 1.186-.53c.128-.078.256-.166.383-.26l.214.79h1.416V5.13l-1.74.24v4.152Zm-.913 7.019a3.577 3.577 0 0 1-1.22.247c-.487.015-.97-.1-1.399-.333a2.134 2.134 0 0 1-.887-1.024 4.277 4.277 0 0 1-.307-1.732c-.02-.607.096-1.211.341-1.767.208-.451.551-.827.981-1.075a3.022 3.022 0 0 1 1.527-.367 5.16 5.16 0 0 1 1.612.248c.084.026.175.061.265.093v5.261c-.29.177-.596.327-.913.449ZM109.992 5.549a1.104 1.104 0 0 0-.588-.163 1.147 1.147 0 0 0-.597.163c-.178.104-.328.25-.435.426a1.102 1.102 0 0 0-.162.59 1.166 1.166 0 0 0 .597 1.023c.182.103.388.156.597.154.206.002.409-.05.588-.154.176-.101.32-.249.418-.426.103-.183.156-.389.154-.598a1.158 1.158 0 0 0-.154-.589 1.202 1.202 0 0 0-.418-.426ZM108.499 18h1.741V9.125l-1.741.256V18ZM120.613 11.198a3.733 3.733 0 0 0-1.51-1.544 5.132 5.132 0 0 0-4.641.017 3.94 3.94 0 0 0-1.553 1.587 5.024 5.024 0 0 0-.554 2.424 5.24 5.24 0 0 0 .52 2.415 3.561 3.561 0 0 0 1.493 1.545 4.636 4.636 0 0 0 2.252.529 4.806 4.806 0 0 0 2.355-.564 3.972 3.972 0 0 0 1.595-1.604 5.026 5.026 0 0 0 .571-2.458 4.95 4.95 0 0 0-.528-2.347ZM119 15.371a2.32 2.32 0 0 1-.929 1.067 2.65 2.65 0 0 1-1.365.35 2.427 2.427 0 0 1-1.331-.358 2.406 2.406 0 0 1-.887-1.076 4.301 4.301 0 0 1-.323-1.775c-.02-.591.09-1.18.324-1.724.191-.427.51-.785.913-1.024.43-.237.916-.355 1.408-.341.383-.01.764.063 1.117.213.309.14.579.354.785.623.22.293.379.627.469.982.106.415.158.842.154 1.271a4.27 4.27 0 0 1-.333 1.792"/></svg>