<svg xmlns="http://www.w3.org/2000/svg" viewBox="0 0 68 28"><path fill="#78003D" d="M0 0h68v28H0z"/><path fill="#fff" d="M6.667 21V7.001h4.593V21H6.667ZM17.509 9.23 20.151 21h-5.027L11.97 7.001h2.82a2.655 2.655 0 0 1 1.764.641c.49.404.828.964.955 1.587ZM20.841 21V7.001h4.593V21h-4.593Zm8.063-8.675a2.738 2.738 0 0 1-1.41-.375 2.777 2.777 0 0 1-1.015-1.015 2.735 2.735 0 0 1-.375-1.41 2.686 2.686 0 0 1 .375-1.4 2.812 2.812 0 0 1 3.825-1.005c.415.244.76.59 1.005 1.005.25.424.38.908.375 1.4.004.495-.125.982-.375 1.41a2.8 2.8 0 0 1-1.006 1.015c-.423.251-.908.38-1.4.375ZM32.394 21V7.001h4.593V21h-4.593Zm10.409-6.349c.013.014.111.175.295.483.185.309.424.703.72 1.183a366.453 366.453 0 0 1 1.863 3.056c.288.48.617 1.023.986 1.627H41.62a744.12 744.12 0 0 0-.858-1.39c-.256-.414-.529-.861-.818-1.34-.289-.48-.575-.947-.858-1.4a71.148 71.148 0 0 1-.729-1.193 20.758 20.758 0 0 0-.424-.69 2.04 2.04 0 0 1-.335-.986c.02-.338.128-.665.315-.947.079-.132.224-.365.434-.7a210.216 210.216 0 0 0 1.598-2.603c.289-.48.561-.93.817-1.35L41.62 7h5.047l-3.904 6.368c-.12.19-.189.407-.197.632.013.235.095.461.236.65Z"/><path fill="#FDAFD7" d="M54.635 19.307c.312-.268.633-.546.972-.848.473-.42.95-.877 1.429-1.37.48-.493.936-1.005 1.37-1.537.421-.516.806-1.059 1.153-1.627.324-.528.588-1.09.789-1.675.186-.54.282-1.105.285-1.676a3.64 3.64 0 0 0-.315-1.547 3.339 3.339 0 0 0-.926-1.183 4.228 4.228 0 0 0-1.528-.769 7.544 7.544 0 0 0-2.099-.266 7.755 7.755 0 0 0-1.37.119c-.43.076-.853.191-1.262.344-.39.147-.769.321-1.133.523l.256 1.715c.312-.21.646-.385.996-.523.38-.152.772-.27 1.173-.354a6.03 6.03 0 0 1 1.241-.129c.437-.008.873.051 1.292.178.333.102.64.277.896.512.232.216.41.483.523.779.114.312.171.643.167.976a4.372 4.372 0 0 1-.335 1.626 8.648 8.648 0 0 1-.946 1.715 18.414 18.414 0 0 1-1.439 1.794 31.397 31.397 0 0 1-1.803 1.833A150.76 150.76 0 0 1 52 19.78l.256 1.222h8.535l.237-1.695h-6.393Z"/></svg>