<svg xmlns="http://www.w3.org/2000/svg" viewBox="0 0 115 24">
  <path fill="#0A2343" d="M0 17.999v-12h4v12H0Zm9.244-10.09L11.508 18H7.2l-2.704-12h2.417a2.276 2.276 0 0 1 1.513.55c.42.346.66.826.819 1.36ZM12 18v-12h4v12h-4Zm7.01-7.436a2.381 2.381 0 0 1-2.078-1.191 2.345 2.345 0 0 1-.321-1.209 2.301 2.301 0 0 1 .321-1.2 2.41 2.41 0 0 1 3.278-.862c.356.21.653.506.862.862.215.363.326.778.321 1.2a2.35 2.35 0 0 1-.321 1.208 2.4 2.4 0 0 1-.862.87 2.3 2.3 0 0 1-1.2.322ZM22 17.999v-12h4v12h-4Zm8.974-5.442c.01.012.095.15.253.414s.364.602.617 1.014a322.716 322.716 0 0 1 1.597 2.62c.247.41.529.876.845 1.394H29.96c-.27-.44-.516-.837-.736-1.192-.22-.355-.453-.738-.7-1.149-.248-.41-.493-.81-.736-1.2-.242-.389-.45-.73-.625-1.022a18.04 18.04 0 0 0-.363-.592 1.747 1.747 0 0 1-.287-.845c.016-.29.11-.57.27-.811.067-.113.191-.313.371-.6s.392-.628.634-1.023c.242-.394.488-.797.736-1.208l.7-1.158.736-1.2h4.326l-3.346 5.46a1.08 1.08 0 0 0-.17.54c.012.202.083.396.204.558Z"/>
  <path fill="#1767CE" d="M46.493 13.285c.13.362.195.792.195 1.29 0 .679-.116 1.248-.348 1.706-.232.458-.56.829-.984 1.111a4.324 4.324 0 0 1-1.477.611 8.32 8.32 0 0 1-1.807.187c-.272 0-.54-.011-.806-.034a12.819 12.819 0 0 1-.798-.093 7.905 7.905 0 0 1-.823-.17 9.243 9.243 0 0 1-.883-.28l-.22-1.68c.271.102.557.2.857.297.3.096.608.178.925.246.317.068.633.122.95.161.317.04.622.06.917.06.35 0 .664-.023.941-.068.278-.046.524-.12.739-.221.215-.102.396-.238.543-.407.147-.17.26-.368.34-.594.078-.227.118-.487.118-.781 0-.294-.042-.526-.127-.73a1.43 1.43 0 0 0-.348-.509 2.202 2.202 0 0 0-.535-.356 4.25 4.25 0 0 0-.704-.263c-.26-.074-.543-.145-.849-.213-.373-.079-.738-.175-1.094-.288a6.278 6.278 0 0 1-.993-.407 3.277 3.277 0 0 1-.815-.594 2.457 2.457 0 0 1-.551-.857c-.13-.334-.196-.733-.196-1.197 0-.588.105-1.097.315-1.527.209-.43.509-.787.899-1.07.39-.282.851-.492 1.383-.627a7.208 7.208 0 0 1 1.782-.204c.294 0 .583.014.866.042.282.029.56.071.831.128.272.056.54.124.806.203.266.08.518.181.756.306l-.238 1.493a4.282 4.282 0 0 0-.67-.297 6.45 6.45 0 0 0-.756-.212 7.7 7.7 0 0 0-1.595-.17c-.317 0-.608.02-.874.06-.266.04-.5.107-.704.204a2.102 2.102 0 0 0-.535.356 1.291 1.291 0 0 0-.34.518 2.04 2.04 0 0 0-.11.695c0 .26.037.484.11.67.074.187.185.346.332.476.147.13.32.243.517.34.198.095.425.178.68.245.254.068.528.136.822.204.385.08.758.175 1.12.289.362.113.705.251 1.027.415.323.165.605.37.849.62.243.249.43.554.56.916Zm6.517 3.352-.289.051c-.096.017-.19.028-.28.034-.09.006-.175.008-.254.008-.294 0-.546-.05-.756-.152a1.095 1.095 0 0 1-.483-.45 1.432 1.432 0 0 1-.17-.721v-4.701h2.393l.187-1.358h-2.58V6.666l-1.731.611v2.071H47.74l-.187 1.358h1.494v5.057c0 .385.05.716.153.993.101.277.234.506.398.687.165.181.357.323.578.424.22.102.455.176.704.221.249.045.492.068.73.068.18 0 .359-.006.534-.017a5.546 5.546 0 0 0 .9-.127c.13-.029.24-.054.33-.077l.102-1.408a1.278 1.278 0 0 1-.203.06c-.08.016-.167.033-.263.05Zm9.665-5.397c.35.662.526 1.44.526 2.334 0 .939-.19 1.754-.569 2.444a3.953 3.953 0 0 1-1.586 1.595c-.68.373-1.46.56-2.342.56-.883 0-1.596-.175-2.24-.526a3.542 3.542 0 0 1-1.486-1.536c-.345-.673-.517-1.474-.517-2.401 0-.928.184-1.732.551-2.41a3.913 3.913 0 0 1 1.545-1.579c.662-.373 1.434-.56 2.316-.56.883 0 1.65.181 2.3.543.65.362 1.151.874 1.502 1.536Zm-1.273 2.368c0-.464-.05-.886-.153-1.265a2.745 2.745 0 0 0-.466-.976 2.034 2.034 0 0 0-.781-.619c-.311-.141-.682-.212-1.112-.212-.543 0-1.01.113-1.4.34-.39.226-.693.565-.908 1.018-.215.452-.322 1.024-.322 1.714s.107 1.29.322 1.765c.215.475.51.831.883 1.069s.814.356 1.323.356c.51 0 .962-.116 1.358-.348.396-.232.704-.585.925-1.06.22-.476.331-1.07.331-1.782Zm7.45-4.32a3.337 3.337 0 0 0-.899.39 4.425 4.425 0 0 0-.798.637c-.04.04-.079.085-.118.128V9.178l-1.732.255v8.57h1.731v-6.412a4.228 4.228 0 0 1 .925-.495c.176-.068.354-.127.535-.178a3.609 3.609 0 0 1 1.188-.127l.204-1.596a3.23 3.23 0 0 0-1.035.094Zm1.545 4.591H75.2l.118-1.391h-4.802l-.12 1.391Zm17.921-4.446c.26.758.39 1.6.39 2.528 0 .928-.135 1.822-.406 2.58a5.55 5.55 0 0 1-1.172 1.952 5.176 5.176 0 0 1-1.84 1.256c-.72.294-1.531.441-2.436.441s-1.695-.139-2.402-.416a4.878 4.878 0 0 1-1.807-1.213 5.322 5.322 0 0 1-1.137-1.927c-.26-.752-.39-1.598-.39-2.537 0-.939.132-1.796.398-2.57.266-.776.65-1.44 1.154-1.995a5.16 5.16 0 0 1 1.842-1.29c.724-.305 1.544-.458 2.46-.458.917 0 1.712.147 2.419.441a4.965 4.965 0 0 1 1.799 1.256 5.548 5.548 0 0 1 1.129 1.952Zm-1.442 2.546c0-.94-.156-1.763-.467-2.47-.31-.707-.755-1.256-1.332-1.646-.577-.39-1.278-.586-2.104-.586-.826 0-1.573.207-2.173.62-.6.413-1.06.981-1.383 1.706-.322.724-.484 1.555-.484 2.494 0 .702.088 1.335.263 1.901.176.566.436 1.05.781 1.451.345.402.758.71 1.239.925.48.215 1.033.323 1.655.323.622 0 1.216-.116 1.714-.348a3.533 3.533 0 0 0 1.256-.968 4.26 4.26 0 0 0 .772-1.485 6.577 6.577 0 0 0 .263-1.918Zm9.351 2.12a2.55 2.55 0 0 0-.594-.466 4.54 4.54 0 0 0-.713-.33c-.18-.057-.359-.117-.534-.179a9.364 9.364 0 0 0-.526-.17 10.863 10.863 0 0 1-.51-.16 3.69 3.69 0 0 1-.45-.188 3.018 3.018 0 0 1-.398-.254 1.118 1.118 0 0 1-.289-.323.818.818 0 0 1-.11-.424.88.88 0 0 1 .119-.467c.08-.13.198-.24.356-.33a1.92 1.92 0 0 1 .569-.204c.22-.045.472-.068.755-.068a5.345 5.345 0 0 1 .891.076c.175.029.35.065.526.11.175.046.354.097.535.153.18.057.345.12.492.187l.119-1.375a7.996 7.996 0 0 0-.637-.237 6.208 6.208 0 0 0-.636-.17 5.081 5.081 0 0 0-.636-.093 7.661 7.661 0 0 0-.62-.026c-.51 0-.973.054-1.392.162a3.505 3.505 0 0 0-1.094.475c-.311.209-.552.475-.722.797-.17.323-.254.705-.254 1.146 0 .317.045.597.136.84a2 2 0 0 0 .356.62c.147.17.32.32.518.45s.41.24.636.33a15.19 15.19 0 0 0 .79.263 31.49 31.49 0 0 1 .746.238c.119.04.235.076.348.11.158.057.305.122.441.195.136.074.252.153.348.238a.867.867 0 0 1 .297.67c0 .283-.093.506-.28.67-.187.165-.43.28-.73.349-.3.067-.62.101-.959.101a4.77 4.77 0 0 1-.602-.042 8.987 8.987 0 0 1-.696-.119c-.243-.05-.492-.113-.747-.187a15.133 15.133 0 0 1-.772-.246l.068 1.443c.294.102.563.184.806.246.243.062.475.116.696.161.22.045.436.074.645.085.21.011.421.017.636.017.498 0 .968-.048 1.409-.144a3.64 3.64 0 0 0 1.154-.45c.328-.204.585-.47.772-.798.187-.328.28-.718.28-1.17 0-.34-.048-.631-.144-.875a1.988 1.988 0 0 0-.399-.636Zm5.27 2.657a1.634 1.634 0 0 1-.178.008.917.917 0 0 1-.374-.067.604.604 0 0 1-.254-.213.94.94 0 0 1-.145-.365 2.854 2.854 0 0 1-.042-.526V5.19l-1.731.255v10.912c0 .328.045.608.136.84.09.232.22.422.39.569.17.147.37.252.602.314.232.062.484.093.756.093a3.812 3.812 0 0 0 1.052-.136l.17-1.34c-.068.01-.136.022-.204.034-.068.01-.127.02-.178.025Zm10.208-3.182c0 .939-.19 1.754-.569 2.444a3.956 3.956 0 0 1-1.586 1.595c-.679.373-1.46.56-2.342.56-.883 0-1.596-.175-2.241-.526a3.541 3.541 0 0 1-1.485-1.536c-.345-.673-.517-1.474-.517-2.401 0-.928.184-1.732.551-2.41a3.916 3.916 0 0 1 1.545-1.579c.662-.373 1.434-.56 2.316-.56.883 0 1.649.181 2.3.543.65.362 1.151.874 1.502 1.536s.526 1.44.526 2.334Zm-1.799.034c0-.464-.051-.886-.153-1.265a2.753 2.753 0 0 0-.466-.976 2.042 2.042 0 0 0-.781-.619c-.311-.141-.682-.212-1.112-.212-.543 0-1.01.113-1.4.34-.39.226-.693.565-.908 1.018-.215.452-.322 1.024-.322 1.714s.107 1.29.322 1.765c.215.475.509.831.883 1.069.373.238.814.356 1.323.356.51 0 .962-.116 1.358-.348.396-.232.704-.585.925-1.06.221-.476.331-1.07.331-1.782Z"/>
</svg>