<svg xmlns="http://www.w3.org/2000/svg" viewBox="0 0 120 24"><path fill="#0A2343" d="M0 18.997v-14h4.593v14H0ZM10.843 7.226l2.641 11.77H8.457L5.303 4.999h2.82a2.655 2.655 0 0 1 1.764.64c.491.404.829.965.956 1.588Zm3.331 11.77V4.999h4.594v13.999h-4.594Zm8.063-8.675a2.736 2.736 0 0 1-1.409-.374 2.778 2.778 0 0 1-1.015-1.016 2.735 2.735 0 0 1-.375-1.41 2.685 2.685 0 0 1 .375-1.4 2.812 2.812 0 0 1 3.824-1.005c.415.245.761.59 1.005 1.006.251.423.38.908.375 1.4.005.495-.125.982-.375 1.41a2.8 2.8 0 0 1-1.005 1.015c-.424.25-.908.38-1.4.374Zm3.49 8.676v-14h4.594v14h-4.594Zm10.409-6.35c.013.014.111.175.296.484.184.308.424.703.72 1.183a384.573 384.573 0 0 1 1.862 3.056c.289.48.617 1.022.986 1.627h-5.047l-.858-1.39c-.256-.414-.529-.861-.817-1.341a118.3 118.3 0 0 0-.858-1.4 71.148 71.148 0 0 1-.73-1.193 21.119 21.119 0 0 0-.424-.69 2.04 2.04 0 0 1-.334-.986c.019-.338.128-.664.315-.946.078-.132.223-.365.433-.7a216.7 216.7 0 0 0 1.598-2.603l.817-1.35.858-1.4H40l-3.904 6.368c-.12.19-.189.407-.197.631.013.236.095.462.236.65h.001Z"/><path fill="#1767CE" d="M55.362 15.646 46.939 4.984h-1.606v14.014h1.863V8.33l8.443 10.668h1.606V4.984h-1.883v10.662ZM67.094 9.03l-.015 7.392a9.554 9.554 0 0 1-.43.237 6.61 6.61 0 0 1-.743.325c-.24.09-.49.156-.743.197-.259.041-.52.061-.782.06a2.363 2.363 0 0 1-1.17-.257 1.577 1.577 0 0 1-.683-.8 3.506 3.506 0 0 1-.229-1.352V8.733l-2.021.296v6.198a5.525 5.525 0 0 0 .377 2.191c.219.544.622.994 1.14 1.273a4.003 4.003 0 0 0 1.892.404 4.78 4.78 0 0 0 1.605-.266 5.69 5.69 0 0 0 1.427-.75c.12-.087.24-.178.359-.274l-.002.856c0 .986-.232 1.736-.694 2.25-.462.513-1.249.77-2.358.77-.305 0-.615-.014-.932-.04a7.528 7.528 0 0 1-.941-.138 10.997 10.997 0 0 1-1.893-.592l.218 1.756a9.746 9.746 0 0 0 2.675.642c.33.033.668.049 1.011.049a6.316 6.316 0 0 0 2.11-.326 4.467 4.467 0 0 0 1.556-.908c.422-.386.75-.861.962-1.391a4.752 4.752 0 0 0 .327-1.796l-.02-10.205-2.002.298ZM79.817 9.129a3.87 3.87 0 0 0-1.882-.415c-.582 0-1.16.09-1.714.266a6.648 6.648 0 0 0-2.032 1.056v-5.94l-2.022.296v14.606h2.022v-7.585a6.503 6.503 0 0 1 1.348-.557c.282-.084.57-.15.862-.197.272-.046.547-.069.822-.07.317-.006.633.044.932.149.252.09.477.243.654.444.182.217.31.474.376.75.085.348.125.706.12 1.065v6h2.02v-6.414a5.444 5.444 0 0 0-.376-2.191 2.591 2.591 0 0 0-1.13-1.263ZM92.006 10.205a3.598 3.598 0 0 0-1.457-1.116 5.111 5.111 0 0 0-2.011-.375 4.943 4.943 0 0 0-2.022.395A4.32 4.32 0 0 0 85 10.214a4.833 4.833 0 0 0-.951 1.708 7.106 7.106 0 0 0-.327 2.22 5.955 5.955 0 0 0 .584 2.754 3.866 3.866 0 0 0 1.734 1.717 6.183 6.183 0 0 0 2.815.582c.467.004.934-.026 1.397-.089a6.745 6.745 0 0 0 2.21-.72l.138-1.52c-.25.092-.505.184-.763.276a9.503 9.503 0 0 1-.802.247c-.28.073-.565.126-.852.158-.29.033-.581.05-.873.05a6.273 6.273 0 0 1-1.545-.168 2.543 2.543 0 0 1-1.1-.573c-.317-.3-.549-.678-.674-1.095a4.997 4.997 0 0 1-.216-1.303h7.162a7.532 7.532 0 0 0-.109-2.448 4.604 4.604 0 0 0-.822-1.805Zm-4.994.473a2.817 2.817 0 0 1 1.545-.404 2.43 2.43 0 0 1 1.526.444c.395.313.677.746.803 1.233.099.36.148.732.145 1.106h-5.213a4.88 4.88 0 0 1 .252-1.155c.17-.5.5-.931.942-1.224ZM100.637 17.409l-.337.06c-.108.018-.217.031-.327.039a4.57 4.57 0 0 1-.297.01 2.003 2.003 0 0 1-.882-.179 1.274 1.274 0 0 1-.565-.522 1.66 1.66 0 0 1-.198-.84v-5.466h2.794l.218-1.58h-3.012V5.813l-2.022.71v2.408h-1.525l-.219 1.58h1.745v5.881c-.01.393.05.783.178 1.155.102.294.26.565.466.8.188.208.418.376.674.493.262.12.538.206.822.256.28.052.566.078.852.08.211 0 .42-.007.624-.02.205-.013.394-.033.565-.06.172-.026.334-.056.486-.088.152-.033.28-.063.386-.09l.119-1.637c-.077.03-.157.052-.238.069-.092.019-.195.04-.307.058ZM110.636 10.205a3.605 3.605 0 0 0-1.457-1.116 5.11 5.11 0 0 0-2.012-.375 4.943 4.943 0 0 0-2.021.395 4.32 4.32 0 0 0-1.516 1.105 4.834 4.834 0 0 0-.952 1.707 7.114 7.114 0 0 0-.326 2.22 5.958 5.958 0 0 0 .584 2.754 3.867 3.867 0 0 0 1.734 1.718 6.186 6.186 0 0 0 2.815.582c.467.004.934-.026 1.397-.089a6.763 6.763 0 0 0 2.21-.72l.139-1.52c-.252.092-.506.184-.764.276a9.501 9.501 0 0 1-.802.247c-.28.073-.565.126-.852.157-.29.034-.581.05-.872.05a6.288 6.288 0 0 1-1.547-.168 2.544 2.544 0 0 1-1.099-.572 2.496 2.496 0 0 1-.674-1.096 5.01 5.01 0 0 1-.216-1.302h7.162a7.51 7.51 0 0 0-.109-2.448 4.6 4.6 0 0 0-.822-1.805Zm-4.995.473a2.817 2.817 0 0 1 1.546-.404 2.43 2.43 0 0 1 1.526.444c.395.313.676.746.803 1.233.099.36.147.732.144 1.106h-5.212a4.86 4.86 0 0 1 .252-1.155c.169-.5.5-.931.941-1.224ZM118.186 8.862a3.884 3.884 0 0 0-1.05.454c-.338.21-.651.459-.932.74-.047.047-.092.099-.139.148v-1.47l-2.021.295v9.968h2.021V11.54a5.214 5.214 0 0 1 1.081-.576c.204-.08.412-.148.624-.207a4.21 4.21 0 0 1 1.387-.149l.238-1.855a3.786 3.786 0 0 0-1.209.11Z"/></svg>