<svg width="113" height="48" viewBox="0 0 113 48" fill="none" xmlns="http://www.w3.org/2000/svg">
<path d="M0 12.8572V0.858268H3.93719V12.8572H0ZM9.29381 2.76796L11.5581 12.8572H7.24917L4.54549 0.858268H6.96218C7.51635 0.851076 8.05406 1.04643 8.4745 1.40757C8.89562 1.75356 9.18495 2.23388 9.29381 2.76796ZM12.1495 12.8572V0.858268H16.0867V12.8572H12.1495ZM19.0605 5.42128C18.6362 5.42541 18.2188 5.31441 17.8525 5.10014C17.4912 4.8913 17.1911 4.59114 16.9823 4.22978C16.7678 3.86351 16.6568 3.44594 16.661 3.0215C16.6561 2.59964 16.7672 2.18456 16.9823 1.82161C17.1933 1.46417 17.4931 1.16727 17.8525 0.959697C18.2189 0.74568 18.6362 0.634692 19.0605 0.638562C19.4822 0.63402 19.8971 0.745107 20.2602 0.959697C20.616 1.16909 20.9127 1.46574 21.122 1.82161C21.3368 2.18466 21.4479 2.59967 21.4433 3.0215C21.4473 3.44591 21.3363 3.8634 21.122 4.22978C20.9149 4.58955 20.6179 4.88946 20.2602 5.10014C19.8971 5.31515 19.4819 5.42627 19.0599 5.42128H19.0605ZM22.0516 12.8572V0.858268H25.9892V12.8572H22.0516ZM30.9737 7.41541C30.9848 7.42705 31.0693 7.56506 31.2272 7.82945C31.3851 8.09384 31.5906 8.43186 31.8439 8.84347C32.0974 9.25488 32.3649 9.69144 32.6463 10.1532C32.9278 10.6149 33.1926 11.0515 33.4408 11.463C33.6881 11.8744 33.9697 12.3391 34.2857 12.8572H29.9598C29.6893 12.4178 29.4441 12.0206 29.2245 11.6657C29.0048 11.3108 28.7713 10.9278 28.5238 10.5165C28.2758 10.1057 28.0306 9.70572 27.7882 9.31664C27.5458 8.92757 27.3375 8.58679 27.1633 8.29424C26.9883 8.00149 26.8671 7.8043 26.7997 7.70271C26.6325 7.45062 26.5336 7.15947 26.5127 6.85772C26.5294 6.56811 26.6226 6.28815 26.7828 6.04629C26.8504 5.93362 26.9743 5.73361 27.1545 5.44631C27.3348 5.15901 27.546 4.81823 27.7882 4.4239C28.0304 4.02957 28.2756 3.62678 28.5238 3.21555C28.772 2.80432 29.0056 2.41841 29.2245 2.05788C29.4445 1.69773 29.6897 1.29776 29.9598 0.857993H34.2857L30.9396 6.31667C30.8361 6.47874 30.7777 6.66552 30.7706 6.85772C30.7818 7.0595 30.8522 7.2535 30.9731 7.41541H30.9737Z" fill="#0A2343"/>
<path d="M9.0935 18.0017H6.98478L2.4018 23.2819H1.772V18.0017H0.000659484V29.9793H1.772V24.5641H1.83131L6.81605 29.9961L9.22846 29.9793L3.5093 24.0411L9.0935 18.0017Z" fill="#015F88"/>
<path d="M14.1036 21.3166C13.788 21.4012 13.4868 21.5319 13.2095 21.7046C12.9217 21.8842 12.6556 22.0965 12.4166 22.3372C12.3767 22.3769 12.3382 22.4216 12.2985 22.4635V21.207L10.5778 21.46V29.9793H12.2985V23.6058C12.4293 23.5159 12.5611 23.4315 12.6949 23.3579C12.8638 23.2649 13.0386 23.1832 13.2182 23.1132C13.3922 23.0458 13.5692 22.9867 13.7493 22.9361C13.9345 22.8846 14.1235 22.848 14.3145 22.8265C14.5189 22.8037 14.7248 22.7981 14.9302 22.8096L15.1327 21.2238C14.7869 21.199 14.4393 21.2303 14.1036 21.3166Z" fill="#015F88"/>
<path d="M16.701 29.9793H18.4218V21.207L16.701 21.46V29.9793Z" fill="#015F88"/>
<path d="M17.0049 19.6887C17.1851 19.79 17.3886 19.8423 17.5953 19.8405C17.7994 19.843 18.0003 19.7905 18.1771 19.6887C18.3507 19.5883 18.4937 19.4425 18.5907 19.2669C18.6919 19.0867 18.7442 18.8832 18.7425 18.6765C18.7449 18.4724 18.6924 18.2714 18.5907 18.0945C18.4904 17.9214 18.3482 17.7763 18.1771 17.6727C18.0021 17.5657 17.8005 17.5102 17.5953 17.5125C17.3876 17.5109 17.1834 17.5663 17.0049 17.6727C16.8291 17.7758 16.6814 17.9206 16.575 18.0945C16.4678 18.2695 16.4122 18.4713 16.4147 18.6765C16.4129 18.8843 16.4684 19.0886 16.575 19.2669C16.6781 19.4433 16.8266 19.589 17.0049 19.6887Z" fill="#015F88"/>
<path d="M25.44 22.7927C25.7153 22.7863 25.9895 22.8292 26.2497 22.9192C26.4645 22.9966 26.656 23.1272 26.8064 23.2988C26.9613 23.4849 27.0711 23.7043 27.127 23.9399C27.199 24.238 27.233 24.5441 27.2282 24.8508V29.9792H28.9489V24.4966C28.9714 23.857 28.8623 23.2197 28.6284 22.624C28.438 22.1665 28.0993 21.7863 27.6668 21.5444C27.1656 21.2912 26.6084 21.1693 26.0473 21.1901C25.5576 21.191 25.0711 21.2679 24.605 21.4178C24.1246 21.5709 23.6676 21.7894 23.2469 22.0673C23.0841 22.1744 22.9276 22.2922 22.7746 22.4131V21.207L21.0539 21.46V29.9792H22.7746V23.5721C22.9412 23.4746 23.113 23.3861 23.2892 23.3072C23.5261 23.2022 23.7681 23.1093 24.0145 23.0289C24.2514 22.9513 24.4939 22.8921 24.7399 22.8518C24.9713 22.8132 25.2055 22.7935 25.44 22.7927Z" fill="#015F88"/>
<path d="M37.8409 33.2267C38.4553 32.9403 38.2929 32.476 38.6403 31.894C38.9798 31.2955 39.1518 30.6166 39.138 29.9287V21.1901L37.4879 21.6147C37.2974 21.534 37.1019 21.4655 36.9028 21.4094C36.6451 21.3389 36.383 21.2853 36.1183 21.2491C35.8164 21.2084 35.512 21.1887 35.2073 21.1901C34.657 21.1877 34.1118 21.2968 33.6047 21.5106C33.0965 21.7258 32.6352 22.0381 32.2467 22.43C31.8326 22.8527 31.5134 23.3588 31.3104 23.9146C31.075 24.566 30.9607 25.2549 30.973 25.9474C30.9545 26.7092 31.1012 27.466 31.4029 28.1658C31.6674 28.7642 32.1053 29.2695 32.66 29.6165C33.267 29.9746 33.9631 30.153 34.6675 30.1311C35.2863 30.1288 35.8989 30.0086 36.4726 29.7768C36.8152 29.637 37.1383 29.4533 37.4339 29.2305V29.6925C37.4408 30.0726 37.3867 30.4513 37.2738 30.8143C37.1765 31.1188 37.0089 31.3962 36.7846 31.6241C36.5429 31.8562 36.2472 32.0244 35.924 32.1133C35.504 32.2287 35.0693 32.2827 34.6338 32.2735C34.2871 32.273 33.9408 32.2533 33.5963 32.2145C33.2347 32.1735 32.8766 32.1058 32.525 32.0121C32.1628 31.9156 31.8076 31.7944 31.4619 31.6494L32.3241 33.1339C32.6344 33.2598 32.953 33.3641 33.2776 33.446C33.619 33.5322 33.9654 33.597 34.3148 33.64C34.6842 33.6854 35.056 33.708 35.4282 33.7075C36.2586 33.7335 37.0839 33.569 37.8409 33.2267ZM37.2145 28.1658C37.0056 28.2872 36.7888 28.3942 36.5654 28.4863C36.3684 28.5672 36.1652 28.632 35.9578 28.6803C35.7558 28.7258 35.5493 28.7485 35.3423 28.7478C34.8356 28.7661 34.3329 28.6528 33.8831 28.4188C33.4909 28.1952 33.1873 27.8439 33.0227 27.4235C32.8193 26.8763 32.7248 26.2946 32.7443 25.7112C32.7368 25.2456 32.8021 24.7817 32.9381 24.3363C33.0486 23.9703 33.2388 23.6332 33.495 23.3494C33.7445 23.0856 34.0499 22.8809 34.3888 22.7505C34.7739 22.6045 35.1832 22.5329 35.595 22.5397C35.8609 22.5393 36.1263 22.5619 36.3882 22.6072C36.6564 22.6545 36.9213 22.7193 37.1811 22.8012C37.2638 22.827 37.3498 22.8613 37.4341 22.8928V28.0364C37.3599 28.0803 37.2848 28.1258 37.2145 28.1658Z" fill="#015F88"/>
<path d="M43.4733 25.8462H43.5014L46.9482 29.9793H49.175L45.0829 25.3682L49.0906 21.3757H46.9819L44.0955 24.548H43.4733V17.2434L41.7526 17.4964V29.9801H43.4733V25.8462Z" fill="#015F88"/>
<path d="M55.4365 28.8836C55.4694 29.0582 55.5311 29.2261 55.6192 29.3804C55.7697 29.6386 56.0009 29.8401 56.2772 29.9539C56.5826 30.0766 56.9096 30.1369 57.2387 30.1311C57.3399 30.1311 57.4384 30.1283 57.534 30.1227C57.6278 30.117 57.721 30.1029 57.8123 30.0805C57.9023 30.0577 57.9836 30.0383 58.057 30.0214C58.1231 30.0065 58.188 29.9868 58.2512 29.9624L58.4365 28.8321C58.3433 28.864 58.2473 28.8866 58.1497 28.8996C58.0714 28.91 57.9926 28.9157 57.9136 28.9164C57.7903 28.9277 57.666 28.9091 57.5515 28.8621C57.4369 28.8151 57.3354 28.7412 57.2556 28.6465C57.0992 28.3762 57.0342 28.0627 57.0701 27.7524L57.1038 24.2773C57.1075 23.9129 57.0621 23.5498 56.9688 23.1976C56.8868 22.8888 56.7498 22.5973 56.5642 22.3372C56.3764 22.083 56.138 21.8705 55.8639 21.713C55.5455 21.5322 55.2013 21.4014 54.8432 21.325C54.4054 21.2305 53.9584 21.1852 53.5105 21.1901C53.1552 21.1899 52.8002 21.2125 52.4477 21.2576C52.1147 21.2995 51.7849 21.3643 51.4608 21.4516C51.1602 21.5332 50.8646 21.6317 50.5752 21.7468L50.3727 23.1807C50.6539 23.0795 50.9211 22.9952 51.1744 22.9277C51.4276 22.8602 51.6721 22.804 51.9079 22.759C52.1393 22.7148 52.373 22.6838 52.608 22.6662C52.8385 22.6493 53.0663 22.6409 53.2912 22.6409C53.6352 22.6335 53.9786 22.6732 54.3118 22.759C54.555 22.8197 54.7786 22.9417 54.9613 23.1132C55.1239 23.2802 55.2402 23.4866 55.2987 23.7121C55.3704 23.9903 55.4044 24.2768 55.3996 24.564L55.3977 24.9872L53.4259 25.1207C52.7514 25.1396 52.0869 25.2885 51.469 25.5594C51.0065 25.7617 50.6073 26.0852 50.3134 26.4956C50.0641 26.8609 49.9317 27.2933 49.9338 27.7356C49.9307 28.1505 50.0323 28.5596 50.2291 28.9249C50.4355 29.3001 50.746 29.6077 51.1232 29.8105C51.5834 30.0499 52.0977 30.1662 52.6161 30.1479C53.1019 30.1591 53.5855 30.079 54.0417 29.9118C54.4361 29.7574 54.7969 29.5282 55.1044 29.237C55.2212 29.1251 55.3321 29.0071 55.4365 28.8836ZM53.8566 28.7478C53.6202 28.7933 53.3801 28.8159 53.1394 28.8152C52.8645 28.8231 52.5911 28.7713 52.3381 28.6634C52.1322 28.5741 51.9586 28.424 51.8404 28.2332C51.7236 28.031 51.6651 27.8003 51.6717 27.5669C51.6554 27.2856 51.7325 27.0069 51.891 26.774C52.0746 26.5596 52.3236 26.4115 52.5995 26.3522C53.0306 26.2507 53.473 26.2053 53.9157 26.2173H55.3926L55.385 27.8916C55.2991 27.9881 55.205 28.077 55.1038 28.1573C54.9209 28.3018 54.723 28.4263 54.5134 28.5284C54.305 28.6298 54.0841 28.7035 53.8566 28.7478Z" fill="#015F88"/>
<path d="M65.6317 28.7655C65.8247 28.4085 65.9206 28.0071 65.9098 27.6014C65.9168 27.3054 65.8682 27.0107 65.7664 26.7327C65.6756 26.4985 65.541 26.2838 65.3699 26.1C65.1972 25.917 64.9982 25.7606 64.7795 25.6361C64.5531 25.5065 64.3161 25.3964 64.0709 25.3072C63.891 25.2509 63.7139 25.1919 63.5396 25.13C63.3652 25.0682 63.1909 25.0119 63.0166 24.9613C62.8423 24.9107 62.6735 24.8573 62.5105 24.8011C62.3576 24.749 62.2083 24.687 62.0635 24.6155C61.9248 24.5419 61.7922 24.4572 61.667 24.3625C61.5514 24.2754 61.4539 24.1665 61.3802 24.0419C61.3059 23.9139 61.2681 23.7681 61.2706 23.6202C61.2659 23.4575 61.3069 23.2968 61.3889 23.1563C61.4768 23.0181 61.5987 22.9049 61.7429 22.8273C61.9194 22.7304 62.1102 22.6621 62.308 22.6249C62.5554 22.5774 62.8069 22.5548 63.0587 22.5574C63.1824 22.5574 63.3175 22.563 63.4639 22.5742C63.6103 22.5855 63.7706 22.6052 63.9447 22.6333C64.1186 22.6614 64.2928 22.698 64.4673 22.743C64.6419 22.7879 64.8191 22.8385 64.9991 22.8948C65.1658 22.9461 65.3292 23.0081 65.488 23.0804L65.6063 21.7139C65.3925 21.6239 65.1816 21.5452 64.9737 21.4777C64.766 21.4105 64.5548 21.3541 64.3411 21.309C64.1324 21.2648 63.9211 21.2338 63.7085 21.2162C63.4999 21.1994 63.2949 21.1909 63.0925 21.1909C62.6265 21.1862 62.1618 21.24 61.7092 21.3512C61.3222 21.4453 60.9541 21.6051 60.6211 21.8235C60.3192 22.0234 60.0726 22.2961 59.9041 22.6164C59.7279 22.9696 59.641 23.3606 59.6511 23.7551C59.6458 24.0393 59.6915 24.3221 59.786 24.5902C59.8662 24.8151 59.9862 25.0236 60.1403 25.2059C60.2903 25.378 60.4635 25.5284 60.6548 25.653C60.8541 25.7836 61.0661 25.8938 61.2874 25.9819C61.4112 26.0269 61.5405 26.0719 61.6754 26.1169C61.8107 26.1619 61.9422 26.2041 62.0718 26.2434C62.2015 26.2828 62.3277 26.3222 62.4514 26.3615C62.5751 26.4009 62.6961 26.4402 62.8141 26.4796C62.9322 26.519 63.0475 26.5555 63.16 26.5893C63.3109 26.6427 63.4576 26.7075 63.5986 26.7833C63.7224 26.8488 63.8385 26.928 63.9447 27.0194C64.0379 27.1011 64.1126 27.2018 64.1637 27.3147C64.2153 27.4315 64.2411 27.5581 64.2397 27.6858C64.2457 27.8106 64.2238 27.9351 64.1756 28.0504C64.1275 28.1656 64.0543 28.2687 63.9613 28.3522C63.7524 28.5266 63.5029 28.6455 63.2359 28.698C62.9229 28.7671 62.6032 28.801 62.2827 28.7992C62.0824 28.7978 61.8824 28.7837 61.6839 28.757C61.4646 28.7293 61.2341 28.6899 60.9925 28.6389C60.7509 28.588 60.5033 28.5261 60.2499 28.4534C59.9969 28.3803 59.741 28.2987 59.4823 28.2088L59.5501 29.6427C59.8423 29.7439 60.1094 29.8254 60.3512 29.8873C60.593 29.9492 60.8235 30.0026 61.0428 30.0476C61.2542 30.0912 61.4684 30.1194 61.6839 30.1319C61.8919 30.143 62.1028 30.1486 62.3165 30.1488C62.787 30.1512 63.2564 30.1031 63.7167 30.0054C64.1218 29.923 64.5098 29.7718 64.8638 29.5583C65.1828 29.3634 65.447 29.0905 65.6317 28.7655Z" fill="#015F88"/>
<path d="M72.413 28.6212L72.1262 28.6718C72.0341 28.6883 71.9412 28.6995 71.8479 28.7056C71.7579 28.7115 71.6733 28.714 71.5949 28.714C71.3363 28.7211 71.0796 28.6692 70.8442 28.5622C70.6416 28.4664 70.4737 28.3102 70.3634 28.1151C70.2451 27.8951 70.1869 27.6478 70.1947 27.3982V22.7253H72.5733L72.7589 21.3757H70.1947V18.7102L68.4739 19.3175V21.3757H67.175L66.9894 22.7253H68.4739V27.7524C68.4664 28.0877 68.5178 28.4218 68.6258 28.7393C68.7126 28.9905 68.8472 29.2225 69.0223 29.4225C69.1827 29.6007 69.3779 29.7442 69.5958 29.8443C69.8188 29.9467 70.054 30.0204 70.2956 30.0636C70.5349 30.1077 70.7777 30.1303 71.021 30.1311C71.201 30.1311 71.3782 30.1255 71.5527 30.1142C71.7268 30.1027 71.8873 30.0861 72.0335 30.0636C72.1797 30.0411 72.3175 30.0155 72.4468 29.9877C72.5761 29.9598 72.6855 29.9346 72.7757 29.9118L72.877 28.5116C72.8113 28.537 72.7436 28.5567 72.6746 28.5706C72.5956 28.5875 72.5086 28.6044 72.413 28.6212Z" fill="#015F88"/>
<path d="M76.1417 17.6727C75.9667 17.5657 75.7651 17.5102 75.56 17.5125C75.3522 17.5108 75.1479 17.5662 74.9695 17.6727C74.7936 17.7757 74.6458 17.9206 74.5393 18.0945C74.4322 18.2695 74.3766 18.4713 74.3791 18.6765C74.3773 18.8843 74.4327 19.0885 74.5393 19.2669C74.6425 19.4434 74.791 19.589 74.9695 19.6887C75.1497 19.79 75.3533 19.8424 75.56 19.8405C75.764 19.843 75.9649 19.7905 76.1417 19.6887C76.3154 19.5884 76.4584 19.4425 76.5553 19.2669C76.6566 19.0868 76.7089 18.8832 76.7071 18.6765C76.7096 18.4724 76.6572 18.2714 76.5553 18.0945C76.4552 17.9213 76.3129 17.7762 76.1417 17.6727Z" fill="#015F88"/>
<path d="M74.6649 29.9793H76.3856V21.207L74.6649 21.46V29.9793Z" fill="#015F88"/>
<path d="M85.6304 21.5444C85.1293 21.2912 84.5722 21.1693 84.0111 21.1901C83.5214 21.191 83.0348 21.2678 82.5685 21.4178C82.0883 21.5709 81.6313 21.7894 81.2108 22.0673C81.0477 22.1744 80.8911 22.2922 80.7382 22.4131V21.207L79.0174 21.46V29.9793H80.7382V23.5721C80.9048 23.4746 81.0765 23.3861 81.2526 23.3072C81.4896 23.2023 81.7317 23.1094 81.9781 23.0289C82.215 22.9514 82.4575 22.8921 82.7035 22.8518C82.935 22.8133 83.1692 22.7935 83.4039 22.7927C83.6791 22.7863 83.9532 22.8292 84.2133 22.9192C84.428 22.9966 84.6196 23.1272 84.77 23.2988C84.9249 23.4849 85.0347 23.7043 85.0908 23.9399C85.1626 24.2381 85.1965 24.5441 85.1917 24.8508V29.9793H86.9125V24.4966C86.9349 23.857 86.8259 23.2197 86.592 22.624C86.4016 22.1665 86.0629 21.7862 85.6304 21.5444Z" fill="#015F88"/>
<path d="M94.8671 21.4094C94.6095 21.3388 94.3474 21.2853 94.0827 21.2491C93.7808 21.2084 93.4764 21.1887 93.1717 21.1901C92.6214 21.1877 92.0762 21.2967 91.5691 21.5106C91.0608 21.7257 90.5995 22.038 90.2111 22.43C89.7969 22.8526 89.4776 23.3588 89.2745 23.9146C89.0393 24.566 88.9249 25.2549 88.9371 25.9474C88.9186 26.7092 89.0653 27.4661 89.3673 28.1658C89.6316 28.7642 90.0694 29.2696 90.6241 29.6165C91.2311 29.9746 91.9273 30.153 92.6316 30.1311C93.2504 30.1289 93.863 30.0086 94.4367 29.7768C94.7794 29.637 95.1026 29.4533 95.3982 29.2305V29.6925C95.4051 30.0726 95.351 30.4513 95.238 30.8143C95.1408 31.1189 94.9732 31.3963 94.7488 31.6241C94.5072 31.8562 94.2114 32.0243 93.8884 32.1133C93.4682 32.2287 93.0335 32.2827 92.5979 32.2735C92.2512 32.273 91.9049 32.2533 91.5604 32.2145C91.1988 32.1735 90.8408 32.1058 90.4891 32.0121C90.1269 31.9156 89.7717 31.7944 89.4261 31.6494L89.6119 33.1339C89.9221 33.2597 90.2405 33.364 90.5651 33.446C90.9065 33.5322 91.253 33.597 91.6025 33.64C91.9719 33.6854 92.3438 33.708 92.716 33.7075C93.5463 33.7334 94.3714 33.569 95.1283 33.2267C95.7427 32.9403 96.257 32.476 96.6044 31.894C96.9439 31.2955 97.1159 30.6166 97.1021 29.9287V21.1901L95.4523 21.6147C95.2617 21.5341 95.0663 21.4655 94.8671 21.4094ZM95.1789 28.1658C94.9701 28.2872 94.7532 28.3943 94.5298 28.4863C94.3329 28.5672 94.1297 28.632 93.9224 28.6803C93.7203 28.7258 93.5138 28.7485 93.3067 28.7478C92.8 28.7661 92.2972 28.6528 91.8475 28.4188C91.4553 28.1952 91.1516 27.8439 90.9871 27.4235C90.7837 26.8763 90.6892 26.2946 90.7087 25.7112C90.7013 25.2456 90.7666 24.7817 90.9025 24.3363C91.0131 23.9703 91.2033 23.6333 91.4594 23.3494C91.7089 23.0855 92.0145 22.8808 92.3536 22.7505C92.7386 22.6044 93.148 22.5329 93.5598 22.5397C93.8255 22.5393 94.0907 22.5619 94.3526 22.6072C94.6208 22.6545 94.8857 22.7193 95.1455 22.8012C95.2282 22.827 95.3142 22.8613 95.3985 22.8928V28.0364C95.3237 28.0803 95.2487 28.1258 95.1789 28.1658Z" fill="#015F88"/>
<path d="M105.047 26.0992C104.874 25.9161 104.675 25.7598 104.456 25.6353C104.23 25.5056 103.993 25.3955 103.748 25.3063C103.568 25.2501 103.391 25.191 103.216 25.1292C103.042 25.0673 102.868 25.0111 102.693 24.9605C102.519 24.9099 102.35 24.8564 102.187 24.8002C102.034 24.7482 101.885 24.6862 101.74 24.6147C101.602 24.541 101.469 24.4564 101.344 24.3616C101.228 24.2746 101.131 24.1657 101.057 24.0411C100.983 23.9132 100.945 23.7673 100.947 23.6193C100.943 23.4567 100.984 23.296 101.066 23.1554C101.154 23.0172 101.276 22.904 101.42 22.8265C101.596 22.7295 101.787 22.6612 101.985 22.624C102.232 22.5766 102.484 22.554 102.736 22.5565C102.859 22.5565 102.994 22.5622 103.141 22.5734C103.287 22.5847 103.447 22.6043 103.622 22.6325C103.796 22.6606 103.97 22.6971 104.144 22.7421C104.319 22.7871 104.496 22.8377 104.676 22.8939C104.843 22.9453 105.006 23.0073 105.165 23.0795L105.283 21.713C105.069 21.6231 104.858 21.5444 104.651 21.4769C104.443 21.4096 104.232 21.3532 104.018 21.3082C103.809 21.264 103.598 21.233 103.385 21.2154C103.177 21.1985 102.972 21.1901 102.769 21.1901C102.303 21.1853 101.839 21.2392 101.386 21.3504C100.999 21.4444 100.631 21.6042 100.298 21.8227C99.9961 22.0225 99.7496 22.2952 99.5813 22.6156C99.405 22.9687 99.318 23.3597 99.3282 23.7543C99.3229 24.0385 99.3687 24.3213 99.4635 24.5893C99.5434 24.8142 99.6633 25.0228 99.8174 25.2051C99.9675 25.3772 100.141 25.5277 100.332 25.6521C100.531 25.7829 100.743 25.8931 100.965 25.9811C101.088 26.0261 101.217 26.0711 101.353 26.1161C101.488 26.1611 101.62 26.2032 101.749 26.2426C101.879 26.2819 102.005 26.3213 102.129 26.3607C102.252 26.4 102.373 26.4394 102.491 26.4788C102.609 26.5181 102.725 26.5547 102.837 26.5884C102.988 26.6419 103.135 26.7067 103.276 26.7824C103.4 26.848 103.516 26.9272 103.622 27.0186C103.715 27.1002 103.79 27.2008 103.841 27.3138C103.893 27.4306 103.919 27.5572 103.917 27.685C103.923 27.8097 103.901 27.9343 103.853 28.0496C103.805 28.1648 103.731 28.2679 103.638 28.3513C103.43 28.5257 103.18 28.6447 102.913 28.6972C102.6 28.7662 102.281 28.8002 101.96 28.7984C101.76 28.797 101.56 28.7829 101.361 28.7562C101.142 28.7284 100.911 28.6891 100.67 28.6381C100.428 28.5871 100.181 28.5253 99.9271 28.4525C99.6743 28.3794 99.4185 28.2979 99.1599 28.2079L99.2273 29.6419C99.5194 29.7431 99.7863 29.8246 100.028 29.8865C100.27 29.9483 100.501 30.0017 100.72 30.0467C100.931 30.0904 101.146 30.1186 101.361 30.1311C101.569 30.1421 101.78 30.1478 101.994 30.1479C102.464 30.1503 102.934 30.1023 103.394 30.0045C103.799 29.9222 104.187 29.771 104.541 29.5575C104.86 29.3626 105.124 29.0898 105.309 28.7646C105.502 28.4077 105.598 28.0063 105.587 27.6006C105.594 27.3046 105.545 27.0099 105.444 26.7318C105.353 26.4976 105.218 26.2829 105.047 26.0992Z" fill="#015F88"/>
<path d="M107.375 24.4966L107.257 25.8799H112.031L112.149 24.4966H107.375Z" fill="#015F88"/>
<path d="M6.67457 38.8954C5.97172 38.5219 5.18438 38.336 4.38868 38.3556C3.5857 38.3373 2.79189 38.5292 2.08597 38.9123C1.43419 39.277 0.901247 39.8217 0.550828 40.4812C0.169834 41.221 -0.0188593 42.0448 0.00223056 42.8767C-0.0191947 43.7021 0.157251 44.5206 0.516781 45.2638C0.839966 45.9125 1.35545 46.4457 1.99289 46.7905C2.67911 47.15 3.44516 47.3299 4.21968 47.3135C5.03058 47.3297 5.83212 47.138 6.54799 46.7568C7.21624 46.3921 7.76423 45.8412 8.12535 45.171C8.51704 44.4224 8.71154 43.5864 8.69049 42.7418C8.70974 41.9373 8.52998 41.1405 8.16722 40.4222C7.83122 39.7771 7.31189 39.2459 6.67457 38.8954ZM6.57332 44.5468C6.38366 44.9852 6.06234 45.3536 5.65391 45.6012C5.24348 45.8361 4.77714 45.9556 4.30432 45.947C3.84076 45.9587 3.38379 45.8356 2.98877 45.5928C2.59762 45.333 2.29229 44.9632 2.1113 44.53C1.88192 43.9743 1.77274 43.3764 1.79101 42.7755C1.77112 42.1909 1.88052 41.6091 2.1113 41.0716C2.3005 40.6492 2.61575 40.2957 3.01382 40.0595C3.43953 39.8251 3.92007 39.7086 4.40584 39.7221C4.78491 39.7126 5.16159 39.7845 5.51052 39.9329C5.81629 40.0707 6.08304 40.2823 6.28681 40.5487C6.50418 40.8381 6.66184 41.1678 6.75049 41.5187C6.85604 41.9292 6.90703 42.3517 6.90226 42.7755C6.9219 43.3828 6.80969 43.9871 6.57332 44.5468Z" fill="#015F88"/>
<path d="M14.3077 38.4821C13.9922 38.5667 13.6911 38.6975 13.4139 38.8702C13.126 39.0497 12.8598 39.262 12.6207 39.5028C12.5811 39.5424 12.5423 39.5871 12.5026 39.629V38.3725L10.7819 38.6255V47.1448H12.5026V40.7714C12.6306 40.6821 12.763 40.5994 12.8993 40.5234C13.0681 40.4305 13.2428 40.3487 13.4223 40.2788C13.5963 40.2113 13.7734 40.1523 13.9537 40.1016C14.1388 40.0501 14.3277 40.0135 14.5186 39.992C14.7231 39.9693 14.9291 39.9636 15.1346 39.9751L15.3367 38.3894C14.9909 38.3645 14.6434 38.3958 14.3077 38.4821Z" fill="#015F88"/>
<path d="M24.2441 38.5412H22.1354L19.2486 41.7135H18.6264V34.4089L16.9057 34.662V47.1456H18.6264V43.0125H18.6545L22.1013 47.1456H24.3281L20.2361 42.5345L24.2441 38.5412Z" fill="#015F88"/>
<path d="M32.2909 39.6293C31.9671 39.2095 31.5399 38.8811 31.051 38.6761C30.5079 38.4543 29.9253 38.3452 29.3387 38.3556C28.7477 38.3456 28.1614 38.4606 27.618 38.693C27.1237 38.9094 26.6831 39.2319 26.3274 39.6377C25.9612 40.0642 25.6856 40.5606 25.5174 41.097C25.3251 41.7109 25.2313 42.3515 25.2393 42.9948C25.2154 43.8077 25.386 44.6145 25.7369 45.3481C26.0574 45.984 26.5753 46.499 27.2131 46.8158C27.9612 47.1682 28.782 47.3388 29.6086 47.3135C30.0063 47.3169 30.4038 47.2915 30.7979 47.2375C31.1273 47.1901 31.4519 47.1139 31.768 47.0098C32.0813 46.9046 32.3859 46.7749 32.6789 46.6218L32.797 45.3228C32.5831 45.4016 32.3665 45.4803 32.1472 45.559C31.9279 45.6377 31.7003 45.708 31.4643 45.7699C31.226 45.8323 30.9836 45.8774 30.7389 45.9048C30.4924 45.9329 30.2446 45.947 29.9966 45.947C29.5536 45.9542 29.1115 45.906 28.6804 45.8036C28.3328 45.7204 28.0113 45.5523 27.7445 45.3144C27.475 45.0576 27.2772 44.7349 27.1709 44.3781C27.0608 44.0167 26.999 43.6423 26.987 43.2647H33.0838C33.1667 42.567 33.1352 41.8605 32.9907 41.1729C32.8721 40.6137 32.6333 40.087 32.2909 39.6293ZM28.0397 40.0341C28.4356 39.7938 28.8927 39.6737 29.3556 39.6883C29.8189 39.6652 30.2765 39.7989 30.6545 40.0679C30.9905 40.336 31.2303 40.706 31.3378 41.1222C31.4219 41.43 31.4632 41.7479 31.4606 42.067H27.0241C27.0553 41.7305 27.1273 41.3992 27.2384 41.0801C27.3823 40.6523 27.6642 40.2845 28.0397 40.0341Z" fill="#015F88"/>
<path d="M40.5233 43.2647C40.3506 43.0816 40.1516 42.9253 39.9328 42.8008C39.7063 42.6711 39.4692 42.5611 39.224 42.4718C39.0444 42.4156 38.8674 42.3566 38.6929 42.2947C38.5184 42.2329 38.344 42.1766 38.1696 42.126C37.9953 42.0754 37.8266 42.022 37.6635 41.9657C37.5106 41.9137 37.3613 41.8518 37.2165 41.7802C37.0778 41.7066 36.9452 41.622 36.82 41.5271C36.7044 41.4401 36.607 41.3312 36.5333 41.2066C36.4589 41.0787 36.4208 40.9328 36.4233 40.7849C36.4189 40.6222 36.4598 40.4616 36.5417 40.3209C36.6298 40.1829 36.7518 40.0697 36.896 39.992C37.0725 39.8951 37.2632 39.8268 37.4611 39.7895C37.7085 39.7421 37.96 39.7195 38.2118 39.7221C38.3353 39.7221 38.4705 39.7277 38.6167 39.7389C38.7629 39.7502 38.9229 39.7699 39.0975 39.798C39.2721 39.8261 39.4459 39.8627 39.6205 39.9076C39.7951 39.9526 39.9719 40.0032 40.1518 40.0595C40.3186 40.1107 40.482 40.1727 40.6408 40.245L40.7591 38.8786C40.5454 38.7886 40.3346 38.7099 40.1265 38.6424C39.9188 38.5751 39.7076 38.5188 39.4939 38.4737C39.2852 38.4294 39.0739 38.3984 38.8613 38.3809C38.653 38.364 38.4478 38.3556 38.2456 38.3556C37.7796 38.3509 37.3148 38.4047 36.8622 38.5159C36.4752 38.61 36.1072 38.7698 35.7741 38.9882C35.4722 39.188 35.2257 39.4607 35.0572 39.7811C34.881 40.1343 34.7941 40.5253 34.8041 40.9198C34.7989 41.204 34.8446 41.4868 34.9391 41.7549C35.0191 41.9798 35.1391 42.1884 35.2933 42.3706C35.4433 42.5427 35.6165 42.6932 35.8079 42.8177C36.0071 42.9484 36.2191 43.0586 36.4405 43.1466C36.5638 43.1916 36.6931 43.2366 36.8285 43.2816C36.9638 43.3266 37.096 43.3687 37.225 43.4081C37.3539 43.4475 37.4804 43.4868 37.6045 43.5262C37.7286 43.5656 37.8495 43.6049 37.9672 43.6443C38.0853 43.6837 38.2006 43.7202 38.313 43.754C38.4639 43.8074 38.6106 43.8723 38.7517 43.948C38.8754 44.0136 38.9913 44.0928 39.0975 44.1841C39.1909 44.2657 39.2657 44.3664 39.3168 44.4793C39.3683 44.5962 39.3942 44.7228 39.3927 44.8505C39.3987 44.9752 39.3768 45.0998 39.3287 45.215C39.2805 45.3303 39.2073 45.4334 39.1144 45.5168C38.9055 45.6912 38.656 45.8102 38.3889 45.8627C38.076 45.9317 37.7563 45.9657 37.4358 45.9639C37.2355 45.9625 37.0355 45.9484 36.8369 45.9217C36.6176 45.894 36.3871 45.8546 36.1453 45.8036C35.9035 45.7526 35.6561 45.6908 35.403 45.6181C35.15 45.545 34.8941 45.4634 34.6355 45.3735L34.7029 46.8074C34.995 46.9086 35.262 46.9901 35.5042 47.052C35.7464 47.1138 35.9769 47.1673 36.1959 47.2123C36.4072 47.2559 36.6215 47.2841 36.8369 47.2966C37.0448 47.3077 37.2557 47.3133 37.4695 47.3135C37.9401 47.3159 38.4095 47.2678 38.8697 47.1701C39.2748 47.0877 39.6628 46.9365 40.0169 46.723C40.3359 46.5281 40.6 46.2553 40.7845 45.9301C40.9775 45.5732 41.0734 45.1718 41.0625 44.7661C41.0697 44.4701 41.0212 44.1754 40.9194 43.8973C40.8287 43.6632 40.6943 43.4485 40.5233 43.2647Z" fill="#015F88"/>
<path d="M47.5662 45.7868L47.2797 45.8374C47.1876 45.8538 47.0947 45.865 47.0014 45.8711C46.9111 45.877 46.8264 45.8795 46.7483 45.8795C46.4897 45.8866 46.233 45.8347 45.9976 45.7277C45.7951 45.6317 45.6272 45.4756 45.5168 45.2807C45.3986 45.0606 45.3404 44.8134 45.3481 44.5637V39.8908H47.7267L47.9123 38.5412H45.3481V35.8758L43.6274 36.4831V38.5412H42.3281L42.1426 39.8908H43.6274V44.918C43.6197 45.2533 43.6711 45.5873 43.7792 45.9048C43.866 46.1561 44.0006 46.3881 44.1757 46.5881C44.3361 46.7662 44.5313 46.9097 44.7492 47.0098C44.9723 47.1123 45.2074 47.186 45.4491 47.2291C45.6884 47.2732 45.9311 47.2958 46.1744 47.2966C46.3544 47.2966 46.5316 47.291 46.7061 47.2797C46.8806 47.2685 47.0409 47.2516 47.1869 47.2291C47.3328 47.2064 47.4709 47.181 47.5999 47.1532C47.729 47.1254 47.8389 47.1001 47.9289 47.0773L48.0304 45.6771C47.9647 45.7024 47.897 45.7222 47.828 45.7361C47.749 45.7536 47.6618 45.7705 47.5662 45.7868Z" fill="#015F88"/>
<path d="M53.344 38.4821C53.0285 38.5667 52.7272 38.6975 52.4499 38.8702C52.1621 39.0498 51.8961 39.262 51.657 39.5028C51.6174 39.5424 51.5786 39.5871 51.539 39.629V38.3725L49.8183 38.6255V47.1448H51.539V40.7714C51.6697 40.6814 51.8015 40.5971 51.9354 40.5234C52.1043 40.4305 52.2791 40.3488 52.4586 40.2788C52.6326 40.2113 52.8096 40.1523 52.9897 40.1016C53.1749 40.0502 53.3639 40.0135 53.5549 39.992C53.7594 39.9693 53.9655 39.9636 54.1709 39.9751L54.3731 38.3894C54.0273 38.3645 53.6798 38.3958 53.344 38.4821Z" fill="#015F88"/>
<path d="M62.4706 39.6293C62.1468 39.2095 61.7195 38.8811 61.2307 38.6761C60.6875 38.4543 60.105 38.3452 59.5184 38.3556C58.9275 38.3456 58.3411 38.4606 57.7977 38.693C57.3034 38.9094 56.8628 39.2319 56.5071 39.6377C56.1407 40.064 55.8651 40.5605 55.6971 41.097C55.5049 41.7109 55.411 42.3515 55.419 42.9948C55.3951 43.8077 55.5658 44.6145 55.9167 45.3481C56.2372 45.984 56.7551 46.499 57.3928 46.8158C58.1409 47.1682 58.9617 47.3388 59.7883 47.3135C60.1861 47.3169 60.5835 47.2915 60.9776 47.2375C61.307 47.1901 61.6316 47.1139 61.9476 47.0098C62.261 46.9046 62.5656 46.7749 62.8586 46.6218L62.9767 45.3228C62.7628 45.4015 62.5462 45.4803 62.3269 45.559C62.1076 45.6377 61.8799 45.708 61.644 45.7699C61.4057 45.8322 61.1633 45.8773 60.9186 45.9048C60.6722 45.9329 60.4243 45.947 60.1763 45.947C59.7333 45.9542 59.2912 45.906 58.8602 45.8036C58.5126 45.7204 58.1909 45.5523 57.9242 45.3144C57.6547 45.0576 57.457 44.7348 57.3506 44.3781C57.2405 44.0167 57.1787 43.6423 57.1668 43.2647H63.2632C63.3463 42.567 63.3149 41.8605 63.1704 41.1729C63.0518 40.6137 62.8131 40.087 62.4706 39.6293ZM58.2194 40.0341C58.6152 39.7938 59.0724 39.6737 59.5352 39.6883C59.9986 39.6652 60.4562 39.7989 60.8342 40.0679C61.1702 40.336 61.4099 40.706 61.5172 41.1222C61.6016 41.43 61.643 41.7479 61.6403 42.067H57.2038C57.2351 41.7306 57.3069 41.3992 57.4178 41.0801C57.562 40.6524 57.8439 40.2845 58.2194 40.0341Z" fill="#015F88"/>
<path d="M69.8339 45.7868L69.5471 45.8374C69.455 45.8538 69.3621 45.865 69.2687 45.8711C69.1787 45.877 69.0941 45.8795 69.0156 45.8795C68.7572 45.8866 68.5006 45.8347 68.2652 45.7277C68.0627 45.6319 67.8947 45.4757 67.7844 45.2807C67.6661 45.0607 67.6079 44.8134 67.6157 44.5637V39.8908H69.9943L70.18 38.5412H67.6157V35.8758L65.895 36.4831V38.5412H64.596L64.4105 39.8908H65.895V44.918C65.8875 45.2533 65.9389 45.5873 66.0469 45.9048C66.1336 46.1561 66.2682 46.3881 66.4433 46.5881C66.6038 46.7662 66.799 46.9097 67.0169 47.0098C67.2399 47.1123 67.4751 47.186 67.7167 47.2291C67.956 47.2732 68.1987 47.2958 68.442 47.2966C68.622 47.2966 68.7992 47.291 68.9737 47.2797C69.1483 47.2685 69.3085 47.2516 69.4545 47.2291C69.6007 47.2064 69.7385 47.1811 69.8678 47.1532C69.9972 47.1253 70.1069 47.1 70.1968 47.0773L70.298 45.6771C70.2323 45.7025 70.1646 45.7222 70.0956 45.7361C70.0165 45.7536 69.9293 45.7705 69.8339 45.7868Z" fill="#015F88"/>
</svg>
