<svg xmlns="http://www.w3.org/2000/svg" viewBox="0 0 219 21" fill="currentColor"><path d="M0 15.998V4h3.937v11.998H0ZM9.294 5.91 11.558 16H7.25l-2.703-12h2.416a2.276 2.276 0 0 1 1.513.55c.42.346.71.826.819 1.36ZM12.15 16v-12h3.937v12H12.15Zm6.91-7.436a2.382 2.382 0 0 1-2.4-2.4 2.303 2.303 0 0 1 .322-1.2 2.412 2.412 0 0 1 3.278-.862c.356.21.653.506.862.862.215.363.326.778.321 1.2a2.4 2.4 0 0 1-1.183 2.079 2.303 2.303 0 0 1-1.2.32Zm2.992 7.435V4h3.937v11.998h-3.937Zm8.922-5.441c.01.011.095.15.253.414s.364.602.617 1.014a339.194 339.194 0 0 1 1.597 2.62c.247.41.529.875.845 1.393H29.96c-.27-.439-.516-.836-.736-1.19-.22-.356-.453-.739-.7-1.15-.248-.411-.493-.81-.736-1.2-.242-.39-.45-.73-.625-1.022a18.04 18.04 0 0 0-.363-.592 1.75 1.75 0 0 1-.287-.845c.016-.29.11-.57.27-.811.067-.113.191-.313.372-.6a182.106 182.106 0 0 0 1.37-2.23c.247-.412.48-.798.7-1.159L29.96 4h4.326L30.94 9.458a1.078 1.078 0 0 0-.17.541c.012.202.082.396.203.558ZM47.965 4h-2.112l-4.59 5.29h-.631V4h-1.775V16h1.775v-5.425h.059l4.993 5.441L48.1 16l-5.728-5.949L47.965 4ZM52.983 7.321a3.317 3.317 0 0 0-.895.389c-.288.18-.555.393-.795.634-.04.04-.078.084-.118.126V7.212l-1.723.253v8.534h1.723V9.615a4.4 4.4 0 0 1 .921-.494c.175-.068.352-.127.533-.177a3.618 3.618 0 0 1 1.183-.127l.202-1.589a3.226 3.226 0 0 0-1.03.093ZM55.586 15.999h1.723V7.212l-1.723.253v8.534ZM57.064 3.671a1.095 1.095 0 0 0-.583-.16 1.137 1.137 0 0 0-.591.16 1.241 1.241 0 0 0-.431.423 1.096 1.096 0 0 0-.16.583c-.002.208.053.413.16.591.103.177.252.323.43.423.181.101.385.154.592.152.205.002.406-.05.583-.152.174-.1.317-.247.414-.423.102-.18.154-.384.152-.591a1.142 1.142 0 0 0-.152-.583 1.195 1.195 0 0 0-.414-.423ZM66.57 7.55a3.327 3.327 0 0 0-1.623-.355c-.49 0-.978.078-1.445.228a5.493 5.493 0 0 0-1.36.65c-.163.108-.32.226-.473.347V7.212l-1.724.253v8.534h1.724V9.58c.167-.098.339-.187.515-.266.238-.105.48-.198.727-.278.237-.078.48-.137.726-.178.232-.038.467-.058.702-.06.276-.005.55.037.811.128.215.077.407.208.557.38.156.186.266.406.322.642.072.299.106.605.1.912V16h1.724v-5.492a4.69 4.69 0 0 0-.32-1.876 2.218 2.218 0 0 0-.963-1.082ZM75.82 7.414a6.097 6.097 0 0 0-.785-.16 6.643 6.643 0 0 0-.913-.06 4.09 4.09 0 0 0-1.605.322 4.25 4.25 0 0 0-1.36.92c-.415.424-.735.93-.938 1.488a5.697 5.697 0 0 0-.338 2.036 5.283 5.283 0 0 0 .43 2.222c.266.6.704 1.106 1.26 1.453a3.729 3.729 0 0 0 2.01.516 4.872 4.872 0 0 0 1.809-.355 4.28 4.28 0 0 0 .963-.547v.462c.007.381-.047.76-.16 1.124a2.041 2.041 0 0 1-.49.811 2.013 2.013 0 0 1-.862.49c-.421.116-.857.17-1.293.16-.347 0-.694-.02-1.04-.058a7.338 7.338 0 0 1-1.072-.203 8.188 8.188 0 0 1-1.065-.364l.186 1.488c.31.126.63.23.955.312.342.086.689.151 1.039.194.37.046.742.069 1.115.068a5.449 5.449 0 0 0 2.417-.482 3.388 3.388 0 0 0 1.478-1.335c.34-.599.513-1.28.499-1.968V7.195l-1.653.425a4.975 4.975 0 0 0-.586-.206Zm.313 6.768c-.209.122-.426.229-.65.321-.198.081-.401.146-.609.194-.202.046-.409.069-.616.068a2.938 2.938 0 0 1-1.462-.33 1.98 1.98 0 0 1-.862-.997 4.492 4.492 0 0 1-.279-1.715 4.47 4.47 0 0 1 .195-1.377 2.6 2.6 0 0 1 .557-.988c.25-.265.556-.47.896-.6a3.26 3.26 0 0 1 1.208-.211c.266 0 .532.022.794.067.269.048.534.112.794.194.083.026.17.06.254.092v5.153l-.22.129ZM88.03 7.38h-2.113l-2.891 3.177h-.623V3.24l-1.724.254v12.505h1.724v-4.14h.028l3.452 4.14h2.23l-4.098-4.62 4.015-3.998ZM96.867 14.934a.77.77 0 0 1-.659-.27 1.452 1.452 0 0 1-.186-.896l.034-3.481a4.048 4.048 0 0 0-.135-1.081 2.648 2.648 0 0 0-.406-.862 2.295 2.295 0 0 0-.7-.626 3.597 3.597 0 0 0-1.023-.388 6.033 6.033 0 0 0-1.335-.135c-.356 0-.712.022-1.065.067a7.298 7.298 0 0 0-.988.195c-.301.081-.598.18-.888.295l-.202 1.437a9.925 9.925 0 0 1 1.537-.423c.232-.044.466-.075.702-.093.23-.017.459-.025.684-.025.345-.007.689.032 1.022.118.244.061.468.183.651.355.163.167.28.374.338.6.072.279.106.566.101.853l-.002.424-1.975.134a5.253 5.253 0 0 0-1.96.44 2.81 2.81 0 0 0-1.158.937c-.25.366-.382.8-.38 1.242-.003.416.099.825.296 1.191.207.376.518.684.896.888.46.24.976.356 1.495.338.487.01.971-.07 1.428-.237a3.297 3.297 0 0 0 1.065-.676c.117-.112.228-.23.332-.354.033.175.095.343.183.498.15.258.382.46.659.574.306.123.633.183.963.178.102 0 .2-.003.296-.009a1.51 1.51 0 0 0 .279-.042l.245-.06c.066-.014.131-.034.194-.058l.186-1.132a1.48 1.48 0 0 1-.287.067 1.97 1.97 0 0 1-.237.017Zm-2.813-.76c-.183.144-.382.269-.592.371-.209.102-.43.176-.659.22a3.725 3.725 0 0 1-.718.068 1.908 1.908 0 0 1-.802-.152c-.207-.09-.38-.24-.5-.431a1.267 1.267 0 0 1-.168-.668c-.017-.282.06-.56.22-.794.183-.215.433-.363.709-.423a5.153 5.153 0 0 1 1.318-.135h1.48l-.008 1.678a2.32 2.32 0 0 1-.28.266ZM104.336 12.112a2.556 2.556 0 0 0-.592-.465 4.574 4.574 0 0 0-.71-.33c-.18-.056-.357-.115-.532-.177a9.397 9.397 0 0 0-.524-.169c-.175-.05-.343-.104-.507-.16a3.646 3.646 0 0 1-.447-.186 2.98 2.98 0 0 1-.398-.254 1.122 1.122 0 0 1-.287-.32.822.822 0 0 1-.11-.423.88.88 0 0 1 .119-.465.955.955 0 0 1 .355-.33c.176-.096.367-.165.566-.202a3.78 3.78 0 0 1 .752-.068 5.48 5.48 0 0 1 .887.076c.175.028.349.066.523.11.175.045.352.096.533.152a4.1 4.1 0 0 1 .49.186l.118-1.369a8.315 8.315 0 0 0-.633-.236 6.37 6.37 0 0 0-.634-.169 5.133 5.133 0 0 0-.634-.093 7.642 7.642 0 0 0-.617-.025 5.567 5.567 0 0 0-1.385.16 3.496 3.496 0 0 0-1.09.473c-.303.2-.55.474-.718.795a2.414 2.414 0 0 0-.254 1.14c-.005.285.04.568.136.837.08.225.2.434.355.616.15.173.323.324.515.448.2.131.412.242.634.33a13.855 13.855 0 0 0 .785.262 26.738 26.738 0 0 1 .744.236c.118.04.234.076.346.11.151.054.298.119.439.194.124.066.241.145.347.237a.856.856 0 0 1 .219.296.898.898 0 0 1 .077.371.846.846 0 0 1-.279.668 1.617 1.617 0 0 1-.727.346c-.313.07-.633.104-.954.102a4.683 4.683 0 0 1-.6-.043 8.602 8.602 0 0 1-.693-.118c-.242-.05-.49-.113-.744-.186-.253-.073-.51-.154-.768-.245l.067 1.437c.293.101.56.183.803.245.242.062.473.115.693.16.211.044.426.072.642.085.208.01.419.017.633.017.472.002.942-.046 1.403-.144a3.627 3.627 0 0 0 1.149-.448c.319-.195.584-.468.769-.794.193-.358.289-.76.278-1.166a2.347 2.347 0 0 0-.143-.87 1.987 1.987 0 0 0-.397-.634ZM111.39 14.638l-.287.05a2.517 2.517 0 0 1-.28.035c-.09.006-.174.008-.253.008a1.705 1.705 0 0 1-.752-.152 1.09 1.09 0 0 1-.482-.448 1.436 1.436 0 0 1-.169-.718v-4.68h2.383l.186-1.352h-2.569V4.71l-1.723.608v2.062h-1.301l-.186 1.351h1.487v5.036c-.008.336.044.67.152.989.087.251.222.484.397.684.161.178.356.322.575.422a2.9 2.9 0 0 0 .701.22c.239.044.483.067.726.068.181 0 .358-.006.533-.017.175-.012.335-.028.481-.05a9.948 9.948 0 0 0 .744-.152l.101-1.404a1.226 1.226 0 0 1-.202.06 7.334 7.334 0 0 1-.262.05ZM113.647 15.999h1.723V7.212l-1.723.253v8.534ZM115.125 3.671a1.093 1.093 0 0 0-.583-.16 1.137 1.137 0 0 0-.591.16 1.245 1.245 0 0 0-.431.423 1.09 1.09 0 0 0-.16.583c-.002.208.054.413.16.591.104.177.252.323.431.423.18.101.384.154.591.152.205.002.406-.05.583-.152.174-.1.317-.247.414-.423a1.19 1.19 0 0 0 .153-.591 1.147 1.147 0 0 0-.153-.583 1.194 1.194 0 0 0-.414-.423ZM124.63 7.55a3.326 3.326 0 0 0-1.622-.355c-.49 0-.978.078-1.445.228a5.491 5.491 0 0 0-1.36.65c-.163.108-.32.226-.473.347V7.212l-1.724.253v8.534h1.724V9.58c.166-.098.339-.187.515-.266.238-.105.48-.198.727-.278.237-.078.48-.137.726-.178.232-.038.467-.058.702-.06.276-.005.55.037.811.128.215.077.407.208.557.38.156.186.266.406.322.642.071.299.105.605.101.912V16h1.723v-5.492a4.678 4.678 0 0 0-.32-1.876 2.22 2.22 0 0 0-.964-1.082ZM133.882 7.414a6.106 6.106 0 0 0-.786-.16 6.635 6.635 0 0 0-.913-.06 4.09 4.09 0 0 0-1.605.322 4.246 4.246 0 0 0-1.36.92 4.16 4.16 0 0 0-.938 1.488 5.697 5.697 0 0 0-.338 2.036 5.269 5.269 0 0 0 .431 2.222c.265.6.703 1.106 1.259 1.453a3.726 3.726 0 0 0 2.01.516 4.877 4.877 0 0 0 1.809-.355c.343-.14.667-.324.963-.547v.462c.007.381-.047.76-.16 1.124a2.048 2.048 0 0 1-.491.811 2.013 2.013 0 0 1-.862.49c-.421.116-.856.17-1.292.16-.347 0-.694-.02-1.039-.058a7.34 7.34 0 0 1-1.074-.203 8.215 8.215 0 0 1-1.064-.364l.186 1.488c.31.126.63.23.955.312.342.087.689.151 1.039.194.37.046.742.069 1.115.068a5.445 5.445 0 0 0 2.416-.482 3.386 3.386 0 0 0 1.479-1.335c.34-.599.513-1.279.499-1.968V7.195l-1.653.425a5 5 0 0 0-.586-.206Zm.312 6.768c-.209.122-.426.23-.65.321a3.955 3.955 0 0 1-.609.194 2.74 2.74 0 0 1-.616.068 2.94 2.94 0 0 1-1.462-.33 1.979 1.979 0 0 1-.862-.997 4.517 4.517 0 0 1-.279-1.715 4.462 4.462 0 0 1 .195-1.377c.11-.366.301-.704.557-.988.25-.265.556-.47.896-.6a3.262 3.262 0 0 1 1.208-.211c.266 0 .532.022.794.067.269.048.534.113.795.194.082.026.169.06.253.092v5.153l-.22.129ZM144.079 12.112a2.546 2.546 0 0 0-.591-.465 4.583 4.583 0 0 0-.71-.33c-.18-.056-.357-.115-.532-.177a9.397 9.397 0 0 0-.524-.169c-.175-.05-.344-.104-.507-.16a3.644 3.644 0 0 1-.448-.186 2.888 2.888 0 0 1-.397-.254 1.107 1.107 0 0 1-.287-.32.803.803 0 0 1-.11-.423.87.87 0 0 1 .118-.465.973.973 0 0 1 .355-.33c.177-.096.368-.165.566-.202.248-.048.5-.07.752-.068a5.483 5.483 0 0 1 .887.076c.175.028.349.066.524.11.175.045.352.096.532.152.167.052.331.114.49.186l.119-1.369a8.183 8.183 0 0 0-.634-.236 6.29 6.29 0 0 0-.634-.169 5.098 5.098 0 0 0-.633-.093 7.642 7.642 0 0 0-.617-.025 5.575 5.575 0 0 0-1.386.16 3.508 3.508 0 0 0-1.09.473 2.16 2.16 0 0 0-.718.795 2.423 2.423 0 0 0-.253 1.14c-.006.285.04.568.135.837.08.225.2.434.355.616.15.173.323.324.515.448.2.131.412.242.634.33a18.388 18.388 0 0 0 .786.262l.38.118.363.118c.118.04.234.076.347.11.151.054.298.119.439.194.124.066.24.145.346.237a.86.86 0 0 1 .296.667.846.846 0 0 1-.279.668 1.619 1.619 0 0 1-.726.346c-.314.07-.634.104-.955.102a4.683 4.683 0 0 1-.6-.043 8.593 8.593 0 0 1-.693-.118c-.242-.05-.49-.113-.743-.186-.254-.073-.51-.154-.769-.245l.067 1.437c.293.101.561.183.803.245s.473.115.693.16c.212.044.426.072.642.085.208.01.419.017.634.017.471.002.941-.046 1.402-.144a3.611 3.611 0 0 0 1.149-.448c.32-.195.584-.468.769-.794.194-.358.29-.76.279-1.166a2.369 2.369 0 0 0-.144-.87 1.972 1.972 0 0 0-.397-.634ZM152.808 7.737a4.64 4.64 0 0 0-2.29-.541 4.618 4.618 0 0 0-2.307.558 3.903 3.903 0 0 0-1.538 1.571 4.975 4.975 0 0 0-.549 2.4 5.177 5.177 0 0 0 .516 2.39c.323.65.84 1.185 1.478 1.53.687.36 1.455.54 2.231.524a4.761 4.761 0 0 0 2.332-.558 3.94 3.94 0 0 0 1.58-1.588c.392-.75.587-1.587.566-2.434a4.902 4.902 0 0 0-.524-2.323 3.696 3.696 0 0 0-1.495-1.53Zm-.102 5.66c-.19.44-.512.809-.921 1.057a2.627 2.627 0 0 1-1.352.346 2.404 2.404 0 0 1-1.318-.355 2.38 2.38 0 0 1-.878-1.064 4.25 4.25 0 0 1-.321-1.758 3.97 3.97 0 0 1 .321-1.706c.189-.423.505-.778.904-1.014a2.734 2.734 0 0 1 1.394-.338c.38-.01.757.062 1.107.211.306.138.573.35.777.617.218.29.376.62.465.971.105.412.157.835.152 1.26a4.203 4.203 0 0 1-.331 1.774h.001ZM160.453 7.321a3.32 3.32 0 0 0-.895.389c-.288.18-.555.393-.794.634-.04.04-.079.084-.119.126V7.212l-1.723.253v8.534h1.723V9.615a4.72 4.72 0 0 1 .397-.249c.17-.093.345-.175.525-.245.174-.068.351-.127.532-.177a3.605 3.605 0 0 1 1.183-.127l.202-1.589a3.228 3.228 0 0 0-1.031.093ZM170.406 7.38h-2.112l-2.891 3.177h-.624V3.24l-1.723.254v12.505h1.723v-4.14h.029l3.452 4.14h2.231l-4.099-4.62 4.014-3.998ZM178.467 8.47a3.062 3.062 0 0 0-1.242-.954 4.338 4.338 0 0 0-1.715-.321 4.203 4.203 0 0 0-1.724.338c-.495.216-.936.54-1.293.946a4.136 4.136 0 0 0-.811 1.462 6.096 6.096 0 0 0-.279 1.9 5.108 5.108 0 0 0 .499 2.358c.321.637.84 1.153 1.479 1.47a5.246 5.246 0 0 0 2.399.498c.398.004.797-.021 1.191-.076a5.713 5.713 0 0 0 1.884-.616l.119-1.301c-.214.079-.431.158-.651.236a8.5 8.5 0 0 1-.684.211 5.169 5.169 0 0 1-.727.136 6.526 6.526 0 0 1-.743.042 5.324 5.324 0 0 1-1.319-.144 2.162 2.162 0 0 1-.937-.49 2.143 2.143 0 0 1-.575-.938 4.306 4.306 0 0 1-.184-1.115h6.107a6.468 6.468 0 0 0-.093-2.095 3.952 3.952 0 0 0-.701-1.547Zm-4.258.406c.396-.24.854-.361 1.318-.346.464-.024.922.11 1.301.38.336.268.576.639.684 1.056.084.308.126.627.123.946h-4.444c.032-.337.104-.669.215-.988.144-.429.427-.797.803-1.048ZM186.713 12.112a2.572 2.572 0 0 0-.592-.465 4.583 4.583 0 0 0-.71-.33c-.18-.056-.357-.115-.532-.177a9.397 9.397 0 0 0-.524-.169c-.175-.05-.344-.104-.507-.16a3.66 3.66 0 0 1-.448-.186 2.97 2.97 0 0 1-.397-.254 1.11 1.11 0 0 1-.287-.32.803.803 0 0 1-.11-.423.88.88 0 0 1 .119-.465.962.962 0 0 1 .354-.33c.177-.096.368-.165.567-.202.247-.048.499-.07.751-.068a5.461 5.461 0 0 1 .888.076c.175.028.349.066.523.11.175.045.352.096.533.152.167.052.33.114.49.186l.118-1.369a8.183 8.183 0 0 0-.634-.236 6.27 6.27 0 0 0-.633-.169 5.129 5.129 0 0 0-.634-.093 7.642 7.642 0 0 0-.617-.025 5.567 5.567 0 0 0-1.385.16 3.488 3.488 0 0 0-1.09.473c-.303.2-.55.474-.718.795a2.412 2.412 0 0 0-.254 1.14c-.005.285.041.568.135.837.08.225.201.434.355.616.15.173.324.324.515.448.2.131.412.242.634.33a20.353 20.353 0 0 0 .786.262 52.332 52.332 0 0 1 .743.236c.119.04.234.076.347.11.151.054.298.119.439.194.124.066.24.146.347.237a.87.87 0 0 1 .295.667.846.846 0 0 1-.278.668c-.21.175-.46.294-.727.346-.314.07-.634.104-.955.102a4.696 4.696 0 0 1-.6-.043 8.745 8.745 0 0 1-.693-.118c-.242-.05-.49-.113-.743-.186s-.51-.154-.769-.245l.068 1.437c.292.101.56.183.802.245.243.062.474.115.693.16.212.044.426.072.642.085.209.01.42.017.634.017.471.002.941-.046 1.403-.144a3.632 3.632 0 0 0 1.149-.448c.319-.195.584-.468.768-.794.194-.358.29-.76.279-1.166a2.39 2.39 0 0 0-.143-.87 1.99 1.99 0 0 0-.397-.634ZM193.768 14.638l-.287.05a2.528 2.528 0 0 1-.279.035c-.09.006-.175.008-.254.008a1.705 1.705 0 0 1-.752-.152 1.084 1.084 0 0 1-.481-.448 1.416 1.416 0 0 1-.169-.718v-4.68h2.382l.186-1.352h-2.568V4.71l-1.724.608v2.062h-1.301l-.186 1.351h1.487v5.036c-.008.336.044.67.152.989.087.251.222.484.397.684.161.178.356.322.575.422a2.9 2.9 0 0 0 .701.22c.239.044.483.067.726.068.181 0 .358-.006.533-.017a5.522 5.522 0 0 0 .895-.127c.13-.028.24-.053.33-.076l.101-1.403a1.236 1.236 0 0 1-.202.06 7.334 7.334 0 0 1-.262.05ZM199.555 7.321a3.306 3.306 0 0 0-.895.389c-.289.18-.555.393-.795.634-.04.04-.078.084-.118.126V7.212l-1.724.253v8.534h1.724V9.615a4.378 4.378 0 0 1 .921-.494 5.85 5.85 0 0 1 .532-.177 3.65 3.65 0 0 1 1.183-.127l.203-1.589a3.225 3.225 0 0 0-1.031.093ZM208.697 8.47a3.062 3.062 0 0 0-1.242-.954 4.338 4.338 0 0 0-1.715-.321 4.206 4.206 0 0 0-1.724.338c-.495.216-.936.54-1.293.946a4.136 4.136 0 0 0-.811 1.462 6.124 6.124 0 0 0-.278 1.9 5.107 5.107 0 0 0 .498 2.358c.321.637.84 1.153 1.478 1.47.75.353 1.572.524 2.4.498.398.004.797-.021 1.191-.076a5.713 5.713 0 0 0 1.885-.616l.118-1.301c-.214.079-.431.158-.651.236a8.5 8.5 0 0 1-.684.211 5.154 5.154 0 0 1-.727.136 6.526 6.526 0 0 1-.743.042 5.324 5.324 0 0 1-1.319-.144 2.16 2.16 0 0 1-.937-.49 2.143 2.143 0 0 1-.575-.938 4.306 4.306 0 0 1-.184-1.115h6.107a6.468 6.468 0 0 0-.093-2.095 3.952 3.952 0 0 0-.701-1.547Zm-4.258.406c.396-.24.854-.361 1.318-.346.464-.024.922.11 1.301.38.336.268.576.64.684 1.056.084.308.126.627.123.946h-4.444c.032-.337.104-.669.215-.988.144-.429.427-.797.803-1.048ZM216.335 14.588a7.794 7.794 0 0 1-.262.05l-.287.05a2.528 2.528 0 0 1-.279.035 3.844 3.844 0 0 1-.254.008 1.706 1.706 0 0 1-.752-.152 1.089 1.089 0 0 1-.481-.448 1.416 1.416 0 0 1-.169-.718v-4.68h2.383l.185-1.352h-2.568V4.71l-1.724.608v2.062h-1.301l-.186 1.351h1.487v5.036c-.007.336.044.67.152.989.087.251.222.484.397.684.161.178.357.322.575.422a2.9 2.9 0 0 0 .701.22c.24.044.483.067.727.068.18 0 .357-.006.532-.017a5.48 5.48 0 0 0 .896-.127c.129-.028.239-.053.329-.076l.102-1.403a1.267 1.267 0 0 1-.203.06Z"/></svg>