<svg xmlns="http://www.w3.org/2000/svg" viewBox="0 0 57 14"><path fill="#0A2343" d="M0 13.002v-12h3.937v12H0Zm9.294-10.09 2.264 10.09H7.25l-2.704-12h2.417a2.276 2.276 0 0 1 1.513.55c.42.346.71.826.819 1.36Zm2.855 10.09v-12h3.938v12h-3.938Zm6.912-7.436a2.382 2.382 0 0 1-2.4-2.4 2.301 2.301 0 0 1 .321-1.2 2.41 2.41 0 0 1 3.278-.862c.356.21.653.506.862.862.215.363.326.778.321 1.2a2.35 2.35 0 0 1-.321 1.208 2.4 2.4 0 0 1-.862.87 2.302 2.302 0 0 1-1.2.322Zm2.99 7.436v-12h3.938v12h-3.937Zm8.923-5.442c.01.012.095.15.253.414s.364.602.617 1.014a315.274 315.274 0 0 1 1.597 2.62c.247.41.529.876.845 1.394H29.96c-.27-.44-.516-.837-.736-1.192-.22-.355-.453-.738-.7-1.149-.248-.41-.493-.81-.736-1.2-.242-.389-.45-.73-.625-1.022a17.97 17.97 0 0 0-.363-.592 1.747 1.747 0 0 1-.287-.845c.016-.29.11-.57.27-.811.067-.113.191-.313.371-.6s.392-.628.634-1.023c.242-.394.488-.797.736-1.208l.7-1.158.736-1.2h4.326l-3.346 5.46a1.08 1.08 0 0 0-.17.54c.012.202.082.396.203.558Z"/><path fill="#AB0058" d="M47.017 2.556a3.013 3.013 0 0 0-.787-.82 3.784 3.784 0 0 0-1.142-.54 5.422 5.422 0 0 0-1.524-.194h-4.707v12h1.778v-4.31h3.064a4.002 4.002 0 0 0 1.981-.49 3.661 3.661 0 0 0 1.397-1.37 4.03 4.03 0 0 0 .516-2.079 4.94 4.94 0 0 0-.135-1.166 3.357 3.357 0 0 0-.44-1.03ZM45.443 6.2a1.997 1.997 0 0 1-.957.786 3.95 3.95 0 0 1-1.498.253h-2.353V2.472h2.59a3.23 3.23 0 0 1 1.44.279c.359.173.653.457.837.81.196.397.292.835.28 1.277.02.476-.098.949-.34 1.36ZM51.042 11.548c.268-.23.543-.469.834-.727.407-.36.816-.752 1.228-1.175.412-.422.804-.862 1.176-1.318.362-.441.693-.907.99-1.394.279-.452.506-.934.678-1.436.16-.463.243-.948.245-1.437a3.115 3.115 0 0 0-.27-1.327 2.869 2.869 0 0 0-.796-1.014 3.633 3.633 0 0 0-1.312-.66 6.49 6.49 0 0 0-1.803-.227 6.676 6.676 0 0 0-1.177.101 6.13 6.13 0 0 0-1.084.296c-.335.125-.66.275-.973.448l.22 1.47c.268-.18.555-.33.855-.448.326-.13.663-.232 1.007-.304a5.19 5.19 0 0 1 1.067-.11c.375-.007.75.044 1.109.152.286.088.55.238.77.44.2.185.353.414.449.667.098.268.147.552.144.837a3.738 3.738 0 0 1-.288 1.394 7.421 7.421 0 0 1-.813 1.47c-.379.539-.792 1.053-1.236 1.539a26.92 26.92 0 0 1-1.549 1.572c-.558.524-1.137 1.056-1.735 1.597l.22 1.048h7.33l.204-1.454h-5.49Z"/></svg>