<svg xmlns="http://www.w3.org/2000/svg" viewBox="0 0 87 24"><path fill="#fff" d="M0 18V6h3.937v12H0ZM9.294 7.91 11.558 18H7.25L4.545 6h2.417a2.276 2.276 0 0 1 1.513.55c.42.346.71.826.819 1.36ZM12.149 18V6h3.938v12h-3.938Zm6.912-7.437a2.382 2.382 0 0 1-2.4-2.4 2.301 2.301 0 0 1 .321-1.2 2.41 2.41 0 0 1 3.278-.861c.356.21.653.506.862.862.215.363.326.778.321 1.2a2.35 2.35 0 0 1-.321 1.208 2.4 2.4 0 0 1-.862.87 2.302 2.302 0 0 1-1.2.321ZM22.05 18V6h3.938v12h-3.937Zm8.923-5.441c.01.011.095.15.253.414s.364.602.617 1.014a309.436 309.436 0 0 1 1.597 2.62c.247.41.529.875.845 1.393H29.96c-.27-.439-.516-.836-.736-1.191-.22-.355-.453-.738-.7-1.15-.248-.41-.493-.81-.736-1.2-.242-.388-.45-.729-.625-1.022a18.04 18.04 0 0 0-.363-.591 1.747 1.747 0 0 1-.287-.845c.016-.29.11-.57.27-.812.067-.112.191-.312.371-.6a182.106 182.106 0 0 0 1.37-2.23 516 516 0 0 1 .7-1.158L29.96 6h4.326L30.94 11.46a1.08 1.08 0 0 0-.17.54c.012.203.082.397.203.559Z"/><path fill="#9FDAF5" d="M46.148 12.36a3.186 3.186 0 0 0-.837-.62 6.48 6.48 0 0 0-1.013-.416c-.358-.113-.726-.21-1.105-.289-.29-.068-.561-.135-.812-.203a3.7 3.7 0 0 1-.67-.247 2.209 2.209 0 0 1-.51-.34 1.223 1.223 0 0 1-.327-.474 1.853 1.853 0 0 1-.109-.671 2.068 2.068 0 0 1 .109-.696c.069-.198.183-.376.335-.518.156-.146.334-.266.527-.357.22-.101.455-.17.695-.203.286-.042.574-.061.863-.06a7.216 7.216 0 0 1 1.574.17c.252.056.5.126.744.212.229.08.45.18.662.297l.234-1.494a4.14 4.14 0 0 0-.745-.305 9.903 9.903 0 0 0-.795-.204 7.85 7.85 0 0 0-.82-.127 8.463 8.463 0 0 0-.855-.043 7.034 7.034 0 0 0-1.758.204c-.49.12-.952.333-1.364.628-.379.276-.684.643-.887 1.07a3.498 3.498 0 0 0-.31 1.528c-.01.407.056.813.193 1.196.12.322.305.614.544.858.236.239.507.44.803.594.315.165.642.3.98.408.352.113.712.21 1.08.289.301.067.58.138.837.212.239.067.471.155.694.263.193.092.37.212.528.357.15.142.267.316.343.509.09.232.132.48.126.73.004.265-.035.53-.117.781-.074.218-.187.42-.335.594a1.613 1.613 0 0 1-.536.408 2.675 2.675 0 0 1-.728.22 5.72 5.72 0 0 1-.93.068c-.301 0-.603-.02-.903-.059-.313-.04-.625-.093-.938-.162a9.294 9.294 0 0 1-.912-.246 17.007 17.007 0 0 1-.846-.297l.218 1.681a9 9 0 0 0 .87.28c.268.071.539.128.812.17.263.04.525.07.787.093.263.023.528.034.795.034.6.004 1.198-.059 1.784-.186a4.24 4.24 0 0 0 1.456-.612c.414-.278.75-.661.971-1.112a3.805 3.805 0 0 0 .344-1.706 3.882 3.882 0 0 0-.193-1.29 2.515 2.515 0 0 0-.553-.917ZM56.169 16.927a.754.754 0 0 1-.654-.272 1.477 1.477 0 0 1-.184-.9l.033-3.497a4.135 4.135 0 0 0-.133-1.087 2.678 2.678 0 0 0-.402-.866 2.284 2.284 0 0 0-.695-.628 3.532 3.532 0 0 0-1.013-.39A5.88 5.88 0 0 0 51.8 9.15c-.353 0-.706.022-1.056.068-.33.042-.657.107-.979.195a8.034 8.034 0 0 0-.879.297l-.2 1.443a10.062 10.062 0 0 1 1.523-.424 6.05 6.05 0 0 1 .695-.093 9.24 9.24 0 0 1 .678-.026c.341-.007.682.033 1.013.119.241.061.463.184.645.357.161.168.277.375.334.603.072.28.105.568.1.857l-.001.426-1.957.134a5.141 5.141 0 0 0-1.942.441c-.459.204-.855.53-1.147.943a2.215 2.215 0 0 0-.377 1.248c-.003.417.098.83.293 1.197.205.378.513.687.887.89.457.242.968.359 1.482.34a3.81 3.81 0 0 0 1.415-.237c.391-.155.75-.386 1.055-.679.116-.113.226-.231.33-.356.032.176.093.345.18.5.15.26.38.463.653.578.304.123.628.184.955.178.1 0 .198-.003.293-.008.093-.006.185-.02.276-.043l.243-.06c.065-.014.13-.034.192-.059l.184-1.137a1.471 1.471 0 0 1-.284.068c-.078.01-.156.015-.234.016Zm-2.788-.764a3.22 3.22 0 0 1-.587.374 2.627 2.627 0 0 1-.652.22 3.664 3.664 0 0 1-.712.068 1.861 1.861 0 0 1-.795-.153 1.096 1.096 0 0 1-.494-.432 1.284 1.284 0 0 1-.168-.67c-.016-.284.06-.565.218-.8.182-.215.43-.364.703-.424a5.041 5.041 0 0 1 1.306-.135h1.466l-.007 1.685a2.275 2.275 0 0 1-.279.267ZM54.444 5.11h-1.808l-1.423 3.04h1.306l1.925-3.04ZM64.715 9.686a3.56 3.56 0 0 0-2-.535 5.045 5.045 0 0 0-1.24.16 5.342 5.342 0 0 0-1.49.642v-.785l-1.707.272v12.122h1.707v-3.801l.034.015c.31.13.632.224.963.28.39.065.785.097 1.18.093a4.136 4.136 0 0 0 2.151-.56 4.008 4.008 0 0 0 1.507-1.621 5.489 5.489 0 0 0 .56-2.59 5.344 5.344 0 0 0-.426-2.207 3.4 3.4 0 0 0-1.239-1.485Zm-.443 5.679c-.201.45-.539.825-.963 1.07-.472.25-1 .373-1.532.356a4.717 4.717 0 0 1-1.792-.346v-5.358c.023-.01.046-.024.068-.034a10.2 10.2 0 0 1 .686-.29 3.397 3.397 0 0 1 1.189-.22 3.061 3.061 0 0 1 1.49.33c.404.224.72.58.896 1.01.213.552.312 1.141.293 1.733a4.099 4.099 0 0 1-.335 1.749ZM80.026 9.507a2.882 2.882 0 0 0-1.49-.356 3.872 3.872 0 0 0-1.323.23 4.646 4.646 0 0 0-1.205.652 6.124 6.124 0 0 0-.594.51 2.12 2.12 0 0 0-.863-1.019 2.92 2.92 0 0 0-1.507-.356c-.447 0-.892.077-1.314.229a4.74 4.74 0 0 0-1.565.928V9.17l-1.708.255v8.574h1.708v-6.46c.2-.134.41-.254.627-.359a4.27 4.27 0 0 1 .83-.297c.262-.066.532-.1.803-.102.249-.008.496.036.728.127.192.083.361.21.494.374.146.189.246.41.293.645.065.304.096.614.092.925v5.145h1.708v-5.501c.001-.325-.02-.65-.065-.971.194-.13.394-.247.6-.353.262-.134.537-.236.821-.306.269-.067.544-.101.82-.102.246-.006.491.037.72.127.196.08.368.21.503.374.145.189.246.41.293.645.065.304.096.614.092.925v5.162h1.708v-5.518a4.995 4.995 0 0 0-.302-1.885 2.18 2.18 0 0 0-.904-1.086ZM83.76 17.997h1.708v-8.83l-1.708.256v8.574ZM85.635 6.035c-.1-.174-.24-.32-.41-.424a1.073 1.073 0 0 0-.578-.161 1.114 1.114 0 0 0-.586.16c-.175.104-.321.25-.427.425-.106.176-.161.38-.159.586-.002.21.053.415.16.594a1.159 1.159 0 0 0 1.013.577 1.1 1.1 0 0 0 .988-.577c.1-.181.152-.386.15-.594a1.16 1.16 0 0 0-.151-.586Z"/></svg>