<svg width="45" height="31" viewBox="0 0 45 31" fill="none" xmlns="http://www.w3.org/2000/svg">
<g clip-path="url(#clip0_4164_1475)">
<g clip-path="url(#clip1_4164_1475)">
<path d="M22.188 26.4433C22.2575 26.6265 22.2908 26.8213 22.2858 27.0171C22.2937 27.2813 22.23 27.5429 22.1014 27.7742C21.9777 27.9838 21.8044 28.1601 21.5967 28.2879C21.3643 28.4286 21.1088 28.5274 20.8419 28.5798C20.5348 28.6429 20.2218 28.6738 19.9082 28.6718C19.7635 28.6718 19.6206 28.6682 19.4795 28.661C19.3354 28.6534 19.192 28.6353 19.0505 28.6068C18.9054 28.5777 18.7533 28.5415 18.5945 28.4983C18.4356 28.4551 18.2583 28.4009 18.0627 28.3356L18.019 27.3513C18.1857 27.4092 18.3541 27.4634 18.5242 27.514C18.6942 27.5647 18.8589 27.6061 19.0181 27.6384C19.1772 27.6708 19.3309 27.6963 19.4796 27.7139C19.6146 27.7312 19.7505 27.7403 19.8866 27.741C20.0853 27.7421 20.2837 27.7223 20.4782 27.6817C20.6417 27.6519 20.795 27.5811 20.9235 27.4761C20.98 27.4252 21.0244 27.3624 21.0535 27.2922C21.0826 27.2221 21.0956 27.1464 21.0916 27.0706C21.092 26.9933 21.0733 26.9171 21.0371 26.8487C20.999 26.7781 20.9473 26.7157 20.8849 26.6651C20.8148 26.6076 20.7383 26.5585 20.6568 26.5187C20.5702 26.4756 20.4798 26.4359 20.3855 26.3998C20.3129 26.3782 20.239 26.3546 20.1629 26.3296C20.0868 26.3047 20.0074 26.2793 19.924 26.2538C19.8407 26.2283 19.7577 26.2052 19.6744 26.1833C19.591 26.1613 19.5081 26.1365 19.4247 26.1078C19.3413 26.0791 19.2602 26.0463 19.1805 26.0104C19.0366 25.9532 18.8985 25.8826 18.7681 25.7994C18.6414 25.72 18.5278 25.6216 18.4314 25.5075C18.3333 25.3887 18.2578 25.253 18.2088 25.1071C18.1516 24.9345 18.124 24.7535 18.1272 24.5718C18.1213 24.3171 18.1773 24.0647 18.2905 23.8362C18.3995 23.6265 18.5601 23.4478 18.7573 23.3168C18.9793 23.1715 19.2257 23.0672 19.4847 23.0087C19.787 22.9378 20.0967 22.9033 20.4072 22.9059C20.5447 22.9059 20.684 22.9113 20.8253 22.9221C20.9656 22.9327 21.1051 22.9508 21.2434 22.9763C21.3829 23.002 21.5206 23.0362 21.6558 23.0788C21.7969 23.1236 21.9346 23.178 22.0682 23.2415L21.9817 24.1934C21.8784 24.142 21.7713 24.0986 21.6613 24.0636C21.5491 24.0274 21.4351 23.9949 21.3193 23.9661C21.2034 23.9374 21.0895 23.9136 20.9773 23.8956C20.865 23.8776 20.7601 23.8651 20.6623 23.8578C20.5645 23.8506 20.4761 23.8471 20.3964 23.8471C20.2397 23.8455 20.0833 23.8599 19.9296 23.8902C19.8064 23.9141 19.6875 23.956 19.5767 24.0146C19.4877 24.0608 19.4128 24.1299 19.3599 24.2148C19.312 24.2968 19.2875 24.3903 19.2892 24.4852C19.287 24.5784 19.3115 24.6703 19.3599 24.7501C19.4066 24.8258 19.4674 24.8919 19.5388 24.945C19.6166 25.0023 19.7003 25.0513 19.7885 25.091C19.8802 25.1363 19.9745 25.176 20.071 25.2099C20.172 25.2461 20.2787 25.2786 20.391 25.3074C20.5034 25.3362 20.6156 25.3704 20.7277 25.4101C20.8399 25.4497 20.9503 25.4876 21.0589 25.5238C21.2214 25.5799 21.3793 25.6485 21.5312 25.7291C21.6767 25.8066 21.8087 25.9071 21.9219 26.0267C22.0356 26.1481 22.1258 26.2893 22.188 26.4433ZM26.8912 23.0898L28.1287 22.9061L28.1179 28.5634H27.1517L26.9794 27.8606C26.9521 27.8861 26.9249 27.9117 26.8971 27.9361C26.7264 28.09 26.5388 28.2242 26.3379 28.3362C26.1443 28.4437 25.9384 28.5273 25.7245 28.5853C25.4996 28.6442 25.2677 28.6732 25.0351 28.6715C24.6753 28.682 24.3187 28.602 23.9982 28.4389C23.7106 28.2824 23.4833 28.0351 23.3524 27.7358C23.2072 27.4224 23.1348 27.0204 23.1352 26.5297V23.09L24.3727 22.9063V26.3028C24.3656 26.5445 24.4061 26.7852 24.492 27.0114C24.562 27.1919 24.6924 27.3429 24.8611 27.4388C25.0624 27.5406 25.2867 27.589 25.5123 27.5794C25.6489 27.5795 25.7853 27.5668 25.9196 27.5416C26.0521 27.5167 26.1827 27.4823 26.3103 27.4388C26.4407 27.394 26.5677 27.3398 26.6902 27.2767C26.7559 27.2429 26.8227 27.2062 26.8912 27.167V23.0898ZM33.6787 23.2365C33.2904 23.0001 32.8414 22.8817 32.3867 22.8957C32.1117 22.8968 31.838 22.9333 31.5724 23.0042C31.2883 23.08 31.0147 23.1909 30.7581 23.3342C30.7109 23.3604 30.664 23.3899 30.6171 23.4191V22.9068L29.3796 23.1017V30.8254H30.6171V28.3946C30.8145 28.4776 31.02 28.5399 31.2304 28.5805C31.4899 28.6295 31.7536 28.6529 32.0176 28.6506C32.5081 28.6584 32.9917 28.5353 33.4182 28.294C33.838 28.0478 34.1788 27.6875 34.4006 27.2554C34.6431 26.801 34.7643 26.2494 34.7643 25.6003C34.7741 25.1155 34.6798 24.6341 34.4876 24.1886C34.3178 23.7989 34.0364 23.4676 33.6787 23.2365ZM33.2876 26.8278C33.1618 27.1073 32.9485 27.3388 32.6798 27.4876C32.3784 27.6433 32.0421 27.7195 31.7028 27.7091C31.5466 27.7095 31.3906 27.6987 31.2359 27.6767C31.0737 27.6528 30.9138 27.6147 30.7582 27.5631C30.7129 27.5484 30.6655 27.5326 30.6171 27.5157V24.1613L30.6279 24.1562C30.7798 24.0876 30.9228 24.0298 31.0569 23.9829C31.1824 23.9385 31.3113 23.9041 31.4422 23.8802C31.5605 23.859 31.6803 23.8482 31.8005 23.8478C32.1259 23.8363 32.449 23.907 32.7396 24.0534C32.9925 24.1941 33.1911 24.4149 33.3038 24.6808C33.4417 25.0206 33.5066 25.3854 33.4944 25.7517C33.5053 26.1212 33.4348 26.4884 33.2876 26.8278ZM39.483 26.0279C39.6975 25.9648 39.8983 25.8621 40.0747 25.7252C40.2256 25.6047 40.3464 25.451 40.4276 25.2762C40.5078 25.0995 40.5486 24.9075 40.547 24.7136C40.5459 24.4857 40.4958 24.2607 40.4001 24.0537C40.2986 23.8322 40.1506 23.6349 39.9661 23.4752C39.7548 23.2949 39.5093 23.1587 39.2442 23.0748C38.9177 22.9721 38.5766 22.9228 38.2343 22.9288C37.6408 22.9288 37.1379 23.0532 36.7255 23.3019C36.3143 23.5489 35.9886 23.915 35.7917 24.3513C35.5725 24.8467 35.465 25.3839 35.4767 25.9251C35.4767 26.5241 35.5871 27.0289 35.8079 27.4396C36.0293 27.8514 36.3776 28.1814 36.8014 28.381C37.2429 28.5974 37.7857 28.7056 38.43 28.7056C38.6697 28.7071 38.9093 28.6908 39.1466 28.6567C39.3573 28.626 39.5645 28.5754 39.7654 28.5054C39.9609 28.4371 40.16 28.356 40.3625 28.262L40.4386 27.3643C40.157 27.4743 39.8686 27.5664 39.5753 27.64C39.2466 27.7191 38.9093 27.7573 38.5712 27.7537C38.3002 27.7576 38.0299 27.7249 37.7677 27.6562C37.5456 27.6037 37.3424 27.491 37.1806 27.3306C37.0187 27.1703 36.9045 26.9684 36.8506 26.7474C36.8059 26.5926 36.7758 26.4339 36.7604 26.2736L38.6473 26.1741C38.9307 26.1586 39.2112 26.1094 39.483 26.0279ZM36.6494 25.47C36.6635 25.2063 36.716 24.946 36.8053 24.6974C36.895 24.4349 37.0661 24.2076 37.2938 24.0482C37.5294 23.9016 37.8034 23.8282 38.0811 23.8375C38.3061 23.8282 38.5299 23.8748 38.7323 23.9731C38.8848 24.0503 39.0127 24.1683 39.1017 24.3139C39.1774 24.4378 39.2186 24.5797 39.2211 24.7248C39.2238 24.8367 39.1956 24.9471 39.1395 25.0441C39.0742 25.1429 38.9792 25.2187 38.8681 25.2605C38.7065 25.3219 38.5359 25.3566 38.363 25.3632L36.6494 25.47ZM44.5716 22.9327L44.4197 24.0471C44.2804 24.0397 44.1407 24.0415 44.0016 24.0525C43.8753 24.0621 43.7501 24.0819 43.6271 24.1118C43.511 24.1411 43.3968 24.1773 43.2851 24.2203C43.1704 24.265 43.0598 24.3193 42.9542 24.3825C42.8745 24.4303 42.7948 24.4819 42.7154 24.5334V28.5583H41.4775V23.0843L42.7153 22.9006V23.7698C42.7352 23.7467 42.7547 23.7234 42.7748 23.7011C42.9251 23.5326 43.0945 23.3819 43.2796 23.2521C43.4592 23.1266 43.6594 23.0332 43.8712 22.9761C44.0998 22.9175 44.3375 22.9027 44.5716 22.9327Z" fill="#00B3C7"/>
<path d="M0 28.5918V23.0014H1.84966V28.5918H0ZM4.36616 23.8912L5.42988 28.5918H3.4056L2.13543 23.0014H3.27077C3.53112 22.9981 3.78373 23.0891 3.98125 23.2573C4.17909 23.4185 4.31501 23.6423 4.36616 23.8912ZM5.70774 28.5918V23.0014H7.5574V28.5918H5.70774ZM8.95445 25.1274C8.75514 25.1293 8.55902 25.0776 8.38697 24.9777C8.21723 24.8804 8.07623 24.7406 7.97813 24.5722C7.87736 24.4016 7.8252 24.207 7.82719 24.0093C7.8249 23.8127 7.87711 23.6193 7.97813 23.4502C8.07728 23.2837 8.21811 23.1454 8.38697 23.0487C8.55907 22.949 8.75515 22.8972 8.95445 22.899C9.15257 22.8969 9.3475 22.9487 9.51808 23.0487C9.68525 23.1462 9.82459 23.2844 9.92295 23.4502C10.0239 23.6194 10.0761 23.8127 10.0739 24.0093C10.0758 24.207 10.0236 24.4015 9.92295 24.5722C9.82563 24.7399 9.68612 24.8796 9.51808 24.9777C9.34749 25.0779 9.15243 25.1297 8.95419 25.1274H8.95445ZM10.3597 28.5918V23.0014H12.2095V28.5918H10.3597ZM14.5512 26.0564C14.5564 26.0619 14.5961 26.1262 14.6703 26.2493C14.7444 26.3725 14.841 26.53 14.96 26.7218C15.0791 26.9135 15.2048 27.1169 15.337 27.332C15.4692 27.5471 15.5936 27.7505 15.7102 27.9422C15.8264 28.1339 15.9587 28.3504 16.1071 28.5918H14.0749C13.9478 28.3871 13.8326 28.2021 13.7294 28.0367C13.6262 27.8714 13.5165 27.6929 13.4003 27.5013C13.2837 27.3099 13.1685 27.1235 13.0547 26.9422C12.9408 26.761 12.8429 26.6022 12.7611 26.4659C12.6789 26.3295 12.6219 26.2376 12.5903 26.1903C12.5117 26.0728 12.4653 25.9372 12.4554 25.7966C12.4633 25.6617 12.5071 25.5312 12.5823 25.4186C12.6141 25.3661 12.6723 25.2729 12.757 25.139C12.8417 25.0052 12.9409 24.8464 13.0547 24.6627C13.1685 24.479 13.2837 24.2913 13.4003 24.0997C13.5169 23.9081 13.6266 23.7283 13.7294 23.5603C13.8328 23.3925 13.948 23.2062 14.0749 23.0013H16.1071L14.5352 25.5445C14.4865 25.62 14.4591 25.7071 14.4558 25.7966C14.461 25.8906 14.4941 25.981 14.5509 26.0564H14.5512Z" fill="#00B3C7"/>
<path fill-rule="evenodd" clip-rule="evenodd" d="M22.4288 0.253967C17.0429 0.253967 12.6476 4.63366 12.6476 10.0002C12.6476 15.3566 17.0427 19.7467 22.4289 19.7467C27.8043 19.7467 32.2102 15.3566 32.2102 10.0002C32.2101 4.63366 27.8042 0.253967 22.4288 0.253967ZM14.5658 10.0002C14.5658 14.3273 18.1178 17.9086 22.4288 17.9086C26.7817 17.9086 30.2919 14.3273 30.2918 10.0002C30.2918 5.62074 26.7817 2.09201 22.4288 2.09201C18.1178 2.09201 14.5658 5.62083 14.5658 10.0002ZM20.7003 10.0318C20.7022 10.2293 20.6644 10.4252 20.5893 10.608C20.5141 10.7908 20.4031 10.9567 20.2627 11.0962C20.1222 11.2356 19.9553 11.3456 19.7716 11.4198C19.5878 11.4941 19.3911 11.5309 19.1929 11.5283C18.7945 11.5283 18.4125 11.3707 18.1308 11.09C17.8492 10.8093 17.6909 10.4287 17.6909 10.0318C17.6909 9.63484 17.8492 9.25418 18.1308 8.97351C18.4125 8.69285 18.7945 8.53518 19.1929 8.53518C19.3911 8.53255 19.5879 8.56943 19.7716 8.64365C19.9553 8.71786 20.1223 8.82792 20.2628 8.96735C20.4032 9.10677 20.5142 9.27276 20.5894 9.45556C20.6645 9.63836 20.7022 9.83427 20.7003 10.0318ZM27.5404 9.33867L26.5501 10.1259C26.4762 10.1784 26.4762 10.2308 26.4974 10.315L26.824 11.5229C26.8453 11.5862 26.8136 11.5962 26.7713 11.5646L25.7064 10.8719C25.6792 10.8514 25.6459 10.8403 25.6117 10.8403C25.5776 10.8403 25.5443 10.8514 25.517 10.8719L24.4418 11.5758C24.3996 11.6071 24.3679 11.5862 24.3891 11.5233L24.7157 10.3154C24.7304 10.2836 24.7342 10.2479 24.7266 10.2137C24.719 10.1796 24.7003 10.1489 24.6735 10.1263L23.6724 9.31743C23.6406 9.28616 23.6406 9.24412 23.6933 9.24412L24.9478 9.19161C24.9766 9.19253 25.0048 9.18368 25.0279 9.1665C25.051 9.14932 25.0675 9.12483 25.0748 9.09705L25.5593 7.88914C25.591 7.81583 25.6332 7.82587 25.6542 7.88914L26.0759 9.0552C26.085 9.09733 26.1094 9.13462 26.1445 9.15985C26.1795 9.18508 26.2227 9.19646 26.2657 9.19179L27.5094 9.2443C27.583 9.24412 27.5934 9.29664 27.5408 9.33867H27.5404Z" fill="#00B3C7"/>
</g>
</g>
<defs>
<clipPath id="clip0_4164_1475">
<rect width="45" height="31" fill="white"/>
</clipPath>
<clipPath id="clip1_4164_1475">
<rect width="44.5714" height="30.5714" fill="white"/>
</clipPath>
</defs>
</svg>
