<svg xmlns="http://www.w3.org/2000/svg" viewBox="0 0 190 64"><path fill="#0A2343" d="M0 53V11.004h13.78V53H0Zm32.528-35.312L40.453 53h-15.08l-9.464-41.996h8.459a7.965 7.965 0 0 1 5.293 1.922 8.31 8.31 0 0 1 2.867 4.762ZM42.523 53V11.004h13.78V53h-13.78Zm24.189-26.026a8.213 8.213 0 0 1-4.228-1.124 8.336 8.336 0 0 1-3.046-3.046 8.206 8.206 0 0 1-1.125-4.229 8.056 8.056 0 0 1 1.125-4.2 8.437 8.437 0 0 1 3.046-3.016 8.233 8.233 0 0 1 4.228-1.124 8.083 8.083 0 0 1 4.199 1.124 8.504 8.504 0 0 1 3.016 3.017 8.075 8.075 0 0 1 1.125 4.2 8.226 8.226 0 0 1-1.125 4.228 8.4 8.4 0 0 1-3.016 3.046 8.059 8.059 0 0 1-4.201 1.124h.002ZM77.18 53V11.004h13.781V53H77.181Zm31.227-19.046c.039.04.334.524.887 1.449.553.925 1.272 2.108 2.159 3.549a1143.28 1143.28 0 0 1 5.589 9.168A854.89 854.89 0 0 0 120 53h-15.141c-.947-1.538-1.804-2.928-2.573-4.17a382.214 382.214 0 0 1-2.453-4.022 351.934 351.934 0 0 0-2.574-4.2 213.445 213.445 0 0 1-2.188-3.578 62.753 62.753 0 0 0-1.272-2.07 6.119 6.119 0 0 1-1.005-2.958 5.744 5.744 0 0 1 .946-2.84c.236-.394.67-1.095 1.3-2.1.632-1.006 1.371-2.198 2.219-3.579a636.03 636.03 0 0 0 2.574-4.229c.869-1.439 1.686-2.79 2.453-4.052.77-1.26 1.628-2.66 2.573-4.2H120l-11.711 19.106a3.773 3.773 0 0 0-.592 1.894c.039.706.286 1.385.709 1.952h.002Z"/><circle cx="158" cy="32" r="31" fill="#fff"/><path fill="#1767CE" fill-rule="evenodd" d="M180.627 54.627a31.997 31.997 0 0 0 0-45.254 31.999 31.999 0 1 0-45.254 45.254 31.998 31.998 0 0 0 45.254 0Zm-10.838-36.745-10.259 5.555.004-.007a.622.622 0 0 0-.251.84l.04.072a.618.618 0 0 0 .839.25l7.294-3.942a1.51 1.51 0 0 1 2.056.547 1.51 1.51 0 0 1-.668 2.02l-7.218 3.903a.686.686 0 0 0-.312.92.69.69 0 0 0 .941.242l1.977-1.07.18-.1 3.254-1.76a1.511 1.511 0 0 1 2.057.546 1.51 1.51 0 0 1-.668 2.021l-4.858 2.627-.781.416a2.21 2.21 0 0 0-2.456-1.409l-8.847 1.688a3.226 3.226 0 0 0-.741.277 7.647 7.647 0 0 1-1.622-2.069 7.765 7.765 0 0 1-.111-7.187c.006-.01.006-.02.006-.03l3.708-8.263a1.51 1.51 0 0 1 1.966-.813 1.516 1.516 0 0 1 .7 2.014l-1.2 2.672 1.94-1.049c.014-.008.029-.012.043-.017a.238.238 0 0 0 .088-.048.412.412 0 0 1 .051-.034l7.854-4.248a1.51 1.51 0 0 1 2.056.547 1.51 1.51 0 0 1-.668 2.02l-8.671 4.69a.625.625 0 0 0-.25.84l.038.072a.622.622 0 0 0 .841.25l10.26-5.549a1.508 1.508 0 0 1 2.056.546 1.51 1.51 0 0 1-.668 2.02Zm-11.77 20.737 10.456 5.136a1.504 1.504 0 0 1 .746 1.99 1.51 1.51 0 0 1-2.031.625l-10.452-5.136a.62.62 0 0 0-.828.282l-.037.074a.62.62 0 0 0 .283.828l7.437 3.654c.362.166.643.469.782.842.14.373.127.785-.037 1.148a1.51 1.51 0 0 1-2.03.625l-7.356-3.613a.688.688 0 0 0-.929.278.691.691 0 0 0 .348.906l5.513 2.71a1.51 1.51 0 0 1 .745 1.988 1.507 1.507 0 0 1-2.03.626l-4.949-2.432s-4.488-2.243-4.6-2.343a7.79 7.79 0 0 1-.496-12.88 7.762 7.762 0 0 1 3.412-1.416c.005 0 .009-.003.013-.006.005-.003.01-.006.016-.006l8.869-1.765a1.497 1.497 0 0 1 1.8 1.13 1.513 1.513 0 0 1-1.234 1.732l-2.868.571 1.977.971a.231.231 0 0 1 .036.024c.015.01.03.022.049.03l.042.015c.019.006.039.013.058.022l8 3.932a1.511 1.511 0 0 1 .745 1.99 1.511 1.511 0 0 1-2.031.624l-8.836-4.34a.621.621 0 0 0-.829.282l-.036.074a.624.624 0 0 0 .282.828Z" clip-rule="evenodd"/></svg>