<svg xmlns="http://www.w3.org/2000/svg" viewBox="0 0 95 24"><path fill="#0A2343" d="M0 18.997v-14h4.593v14H0ZM10.843 7.226l2.641 11.77H8.457L5.303 4.999h2.82a2.655 2.655 0 0 1 1.764.64c.491.404.829.965.956 1.588Zm3.331 11.77V4.999h4.594v13.999h-4.594Zm8.063-8.675a2.736 2.736 0 0 1-1.409-.374 2.778 2.778 0 0 1-1.015-1.016 2.735 2.735 0 0 1-.375-1.41 2.685 2.685 0 0 1 .375-1.4 2.812 2.812 0 0 1 3.824-1.005c.415.245.761.59 1.005 1.006.251.423.38.908.375 1.4.005.495-.125.982-.375 1.41a2.8 2.8 0 0 1-1.005 1.015c-.424.25-.908.38-1.4.374Zm3.49 8.676v-14h4.594v14h-4.594Zm10.409-6.35c.013.014.111.175.296.484.184.308.424.703.72 1.183a384.573 384.573 0 0 1 1.862 3.056c.289.48.617 1.022.986 1.627h-5.047l-.858-1.39c-.256-.414-.529-.861-.817-1.341a118.3 118.3 0 0 0-.858-1.4 71.148 71.148 0 0 1-.73-1.193 21.119 21.119 0 0 0-.424-.69 2.04 2.04 0 0 1-.334-.986c.019-.338.128-.664.315-.946.078-.132.223-.365.433-.7a216.7 216.7 0 0 0 1.598-2.603l.817-1.35.858-1.4H40l-3.904 6.368c-.12.19-.189.407-.197.631.013.236.095.462.236.65h.001Z"/><path fill="#E81502" d="M53.927 12.445a3.74 3.74 0 0 0-.987-.72 7.692 7.692 0 0 0-1.194-.483 13.55 13.55 0 0 0-1.302-.336 28.51 28.51 0 0 1-.957-.237 4.419 4.419 0 0 1-.79-.286 2.61 2.61 0 0 1-.6-.395 1.42 1.42 0 0 1-.386-.552 2.134 2.134 0 0 1-.128-.78 2.38 2.38 0 0 1 .128-.809c.081-.23.217-.436.395-.602a2.44 2.44 0 0 1 .621-.414c.26-.118.536-.198.82-.236a6.912 6.912 0 0 1 1.015-.07c.31.001.62.017.928.05.311.032.621.082.927.148.298.064.59.147.878.246.27.093.53.208.78.345l.276-1.736a4.912 4.912 0 0 0-.878-.355c-.31-.092-.622-.17-.937-.237a9.364 9.364 0 0 0-.967-.148 10.11 10.11 0 0 0-1.007-.049 8.396 8.396 0 0 0-2.072.236 4.692 4.692 0 0 0-1.608.73c-.447.321-.806.749-1.045 1.244a4.018 4.018 0 0 0-.366 1.776c-.01.473.066.945.227 1.39.142.374.36.714.642.997.278.278.597.51.946.69.371.192.757.35 1.155.475.414.131.839.243 1.273.335.355.079.684.161.987.247.281.077.555.18.819.306.226.107.435.246.621.414.176.166.314.368.404.592.105.27.155.559.148.849.006.308-.041.615-.138.907a2.11 2.11 0 0 1-.394.691c-.175.2-.39.361-.632.473a3.192 3.192 0 0 1-.858.257 6.835 6.835 0 0 1-1.095.079 8.59 8.59 0 0 1-1.066-.07 12.845 12.845 0 0 1-1.105-.187 11.094 11.094 0 0 1-1.075-.286c-.349-.111-.681-.226-.997-.345l.257 1.954c.336.125.679.234 1.026.325.315.083.635.149.957.197.309.046.618.082.927.109.31.026.622.04.937.04a9.691 9.691 0 0 0 2.102-.218 5.033 5.033 0 0 0 1.717-.71 3.34 3.34 0 0 0 1.144-1.293c.289-.62.427-1.3.405-1.983a4.453 4.453 0 0 0-.227-1.5 2.915 2.915 0 0 0-.651-1.065ZM64.78 9.337a4.24 4.24 0 0 0-2.358-.621 6.022 6.022 0 0 0-1.46.187 6.346 6.346 0 0 0-1.757.745v-.913l-2.012.316V23.14h2.012v-4.418l.04.018c.364.151.745.26 1.134.326.46.075.925.112 1.391.108a4.93 4.93 0 0 0 2.536-.651 4.684 4.684 0 0 0 1.776-1.885 6.3 6.3 0 0 0 .66-3.009 6.128 6.128 0 0 0-.503-2.565 3.96 3.96 0 0 0-1.46-1.727Zm-.523 6.6c-.237.525-.635.96-1.135 1.244a3.646 3.646 0 0 1-1.805.414 5.624 5.624 0 0 1-1.815-.296c-.095-.032-.198-.07-.297-.106v-6.227c.026-.013.053-.028.08-.04.288-.132.558-.244.808-.336a4.054 4.054 0 0 1 1.401-.256 3.648 3.648 0 0 1 1.756.384c.476.26.849.674 1.056 1.174.25.64.368 1.325.345 2.013a4.711 4.711 0 0 1-.394 2.033ZM76.363 9.347a5.413 5.413 0 0 0-2.674-.631 5.388 5.388 0 0 0-2.694.65 4.55 4.55 0 0 0-1.796 1.836 5.804 5.804 0 0 0-.64 2.802 6.05 6.05 0 0 0 .601 2.792 4.12 4.12 0 0 0 1.727 1.786c.802.42 1.698.63 2.604.611a5.562 5.562 0 0 0 2.723-.65 4.596 4.596 0 0 0 1.846-1.856 5.816 5.816 0 0 0 .66-2.84 5.72 5.72 0 0 0-.611-2.714 4.313 4.313 0 0 0-1.746-1.786Zm-.119 6.61a2.692 2.692 0 0 1-1.075 1.234 3.067 3.067 0 0 1-1.579.404 2.807 2.807 0 0 1-1.54-.414 2.778 2.778 0 0 1-1.025-1.243 4.976 4.976 0 0 1-.375-2.052 4.648 4.648 0 0 1 .375-1.994c.221-.494.59-.907 1.056-1.184a3.19 3.19 0 0 1 1.627-.394c.444-.011.885.073 1.293.246.357.162.67.41.908.72.254.34.438.725.542 1.136.123.48.183.974.178 1.47a4.914 4.914 0 0 1-.385 2.072ZM85.291 8.863c-.369.1-.721.253-1.046.454-.336.21-.648.459-.927.74-.047.047-.092.099-.138.148v-1.47l-2.013.296v9.965h2.013v-7.455a5.037 5.037 0 0 1 1.076-.576c.203-.079.41-.148.62-.207a4.224 4.224 0 0 1 1.382-.148l.237-1.855a3.771 3.771 0 0 0-1.204.108ZM93.855 17.349c-.093.02-.195.039-.306.059l-.335.059c-.108.02-.217.033-.326.04-.106.006-.204.01-.296.01a1.997 1.997 0 0 1-.878-.178 1.276 1.276 0 0 1-.563-.523 1.666 1.666 0 0 1-.197-.839v-5.466h2.783l.217-1.578h-3V5.815l-2.012.71v2.408h-1.52l-.217 1.578h1.737v5.88c-.01.393.05.784.177 1.155.102.294.26.565.464.799.187.209.416.376.67.493.261.12.537.207.82.257.28.052.563.078.848.079.21 0 .417-.007.622-.02a6.737 6.737 0 0 0 1.046-.148c.15-.033.279-.062.384-.088l.119-1.639c-.077.03-.156.053-.237.07Z"/></svg>