<svg xmlns="http://www.w3.org/2000/svg" viewBox="0 0 74 24"><path fill="#FFA90A" d="M0 0h74v24H0z"/><path fill="#0A2343" d="M6.004 18V6.001h3.937V18H6.004Zm9.294-10.09L17.562 18h-4.309L10.55 6.001h2.416a2.276 2.276 0 0 1 1.513.55c.42.345.71.826.82 1.36ZM18.154 18V6.001h3.937V18h-3.937Zm6.91-7.436a2.383 2.383 0 0 1-2.4-2.4 2.303 2.303 0 0 1 .323-1.2 2.411 2.411 0 0 1 3.278-.861c.355.209.652.506.861.861.215.363.326.778.322 1.2a2.4 2.4 0 0 1-1.183 2.079 2.302 2.302 0 0 1-1.2.321ZM28.057 18V6.001h3.937V18h-3.937Zm8.922-5.442c.011.012.096.15.253.414.158.265.364.603.617 1.014a315.936 315.936 0 0 1 1.597 2.62c.247.411.529.876.845 1.394h-4.326c-.27-.44-.516-.837-.735-1.191-.22-.355-.453-.738-.7-1.15-.249-.41-.494-.81-.737-1.2-.242-.389-.45-.73-.625-1.022-.174-.293-.296-.49-.363-.591a1.748 1.748 0 0 1-.287-.845c.017-.29.11-.57.27-.812.068-.113.192-.313.372-.6s.391-.628.633-1.022c.243-.395.488-.797.736-1.209l.7-1.157.736-1.2h4.326l-3.346 5.458a1.08 1.08 0 0 0-.17.542c.012.201.082.395.203.557h.001ZM53.006 7.554a3.021 3.021 0 0 0-.785-.82 3.768 3.768 0 0 0-1.141-.54A5.4 5.4 0 0 0 49.56 6H44.86v11.997h1.775v-4.309h3.058c.69.011 1.372-.158 1.977-.49a3.655 3.655 0 0 0 1.394-1.368 4.034 4.034 0 0 0 .516-2.079 4.933 4.933 0 0 0-.135-1.166 3.361 3.361 0 0 0-.44-1.03Zm-1.571 3.642a1.999 1.999 0 0 1-.955.786c-.477.18-.985.267-1.495.253h-2.35V7.47h2.586c.494-.018.986.077 1.437.28.358.172.652.457.836.81.195.396.29.834.279 1.276.02.476-.098.948-.338 1.36ZM57.188 6.397c-.242.13-.478.25-.71.363-.23.113-.464.226-.7.338a8.192 8.192 0 0 1-.727.304c-.248.09-.513.18-.794.27l.371 1.437c.338-.101.645-.203.921-.304.27-.1.536-.212.794-.338.254-.124.507-.26.76-.406l.01-.005v9.942h1.757V6h-.913c-.27.135-.526.267-.769.397ZM68.079 13.502a2.662 2.662 0 0 0-.54-.912 2.63 2.63 0 0 0-.888-.625 4.265 4.265 0 0 0-1.208-.321v-.051c.505-.16.975-.416 1.386-.752.365-.3.667-.67.887-1.09a2.81 2.81 0 0 0 .312-1.3 2.343 2.343 0 0 0-.253-1.108 2.359 2.359 0 0 0-.744-.828A3.448 3.448 0 0 0 65.84 6a6.844 6.844 0 0 0-1.597-.17 8.346 8.346 0 0 0-2.13.296c-.338.093-.667.22-.98.381l.237 1.335c.248-.101.488-.189.719-.262A6.88 6.88 0 0 1 63.38 7.3a5.35 5.35 0 0 1 .592-.034c.357-.005.714.029 1.064.102.254.05.495.151.71.296.175.123.313.293.397.49.09.222.132.46.127.7a1.96 1.96 0 0 1-.228.947 2.193 2.193 0 0 1-.642.727c-.3.214-.634.374-.989.473a4.483 4.483 0 0 1-1.267.169h-.321l-.203 1.318h.54c.5-.007.997.036 1.488.127.367.066.719.197 1.039.389.262.16.475.387.617.659.14.292.21.613.202.938.01.328-.054.653-.185.954a1.631 1.631 0 0 1-.567.659c-.292.19-.62.323-.963.389-.453.09-.915.133-1.377.126-.169 0-.335-.005-.498-.016a9.04 9.04 0 0 1-1.082-.144c-.197-.04-.414-.087-.65-.144l-.22 1.437c.248.045.487.087.718.126.231.04.46.073.684.102.226.027.446.047.66.058.213.012.422.018.625.018a8.305 8.305 0 0 0 1.605-.144c.45-.084.885-.232 1.293-.44.356-.18.676-.423.946-.717.254-.283.45-.613.575-.972.133-.394.2-.809.194-1.225a3.471 3.471 0 0 0-.186-1.167Z"/></svg>