<svg xmlns="http://www.w3.org/2000/svg" viewBox="0 0 72 14" fill="currentColor"><path d="M0 13.002v-12h3.937v12H0Zm9.294-10.09 2.264 10.09H7.25l-2.703-12h2.416a2.276 2.276 0 0 1 1.513.55c.42.346.71.826.819 1.36Zm2.856 10.09v-12h3.937v12H12.15Zm6.91-7.436a2.383 2.383 0 0 1-2.4-2.4 2.303 2.303 0 0 1 .322-1.2 2.411 2.411 0 0 1 3.278-.862c.356.21.653.506.862.862.215.363.326.778.321 1.2a2.4 2.4 0 0 1-1.183 2.079 2.302 2.302 0 0 1-1.2.32Zm2.992 7.436v-12h3.937v12h-3.937Zm8.922-5.442c.01.012.095.15.253.414s.364.602.617 1.014a326.442 326.442 0 0 1 1.597 2.62c.247.41.529.876.845 1.394H29.96c-.27-.44-.516-.837-.736-1.192-.22-.355-.453-.738-.7-1.149-.248-.41-.493-.81-.736-1.2-.242-.389-.45-.73-.625-1.022a17.97 17.97 0 0 0-.363-.592 1.75 1.75 0 0 1-.287-.845c.016-.29.11-.57.27-.811.067-.113.191-.313.372-.6a182.106 182.106 0 0 0 1.37-2.23c.247-.412.48-.798.7-1.159l.735-1.2h4.326l-3.346 5.46a1.078 1.078 0 0 0-.17.54c.012.202.082.396.203.558ZM42.12 10.27a1.54 1.54 0 0 1-.1.574c-.063.163-.16.31-.286.43-.13.123-.285.215-.454.271-.196.065-.4.096-.606.093-.134 0-.26-.006-.378-.017a7.59 7.59 0 0 1-.707-.102 8.941 8.941 0 0 1-.732-.168l.135 1.52.454.126c.146.04.292.073.437.101.15.029.302.048.455.059.157.011.33.017.521.017.39.006.777-.042 1.153-.144.306-.083.594-.223.85-.413.23-.174.426-.389.58-.633.152-.245.266-.513.336-.794.074-.295.11-.598.11-.903V1.002H42.12v9.268ZM53.847 11.925a.765.765 0 0 1-.656-.27 1.457 1.457 0 0 1-.185-.895l.033-3.478a4.073 4.073 0 0 0-.134-1.08 2.657 2.657 0 0 0-.404-.861 2.284 2.284 0 0 0-.698-.625 3.566 3.566 0 0 0-1.018-.388 5.966 5.966 0 0 0-1.33-.135c-.353 0-.707.022-1.059.067a7.293 7.293 0 0 0-.984.194c-.3.082-.595.18-.883.296l-.202 1.435a10.013 10.013 0 0 1 1.53-.422c.232-.044.465-.075.699-.093.23-.017.457-.025.681-.025.343-.008.686.032 1.018.118.242.06.465.183.648.355.162.167.278.373.336.599.072.278.106.565.101.853l-.002.423-1.966.134a5.214 5.214 0 0 0-1.952.438c-.46.203-.859.527-1.152.937-.249.366-.38.798-.379 1.241a2.48 2.48 0 0 0 .295 1.19c.206.376.515.684.891.887.46.24.972.356 1.49.337.484.011.966-.069 1.42-.236a3.277 3.277 0 0 0 1.06-.675 4.57 4.57 0 0 0 .332-.354c.032.175.094.343.182.498.15.258.38.46.656.574.305.123.63.183.959.177.1 0 .199-.003.294-.008a1.54 1.54 0 0 0 .278-.043l.244-.059c.066-.015.13-.034.193-.06l.185-1.13a1.487 1.487 0 0 1-.286.068c-.078.01-.156.015-.235.016Zm-2.801-.76c-.183.145-.38.27-.59.372a2.654 2.654 0 0 1-.655.22 3.722 3.722 0 0 1-.715.067 1.889 1.889 0 0 1-.8-.152 1.098 1.098 0 0 1-.496-.43 1.265 1.265 0 0 1-.168-.667c-.016-.282.06-.561.219-.794.183-.215.431-.363.706-.422a5.11 5.11 0 0 1 1.313-.135h1.473l-.008 1.676a2.257 2.257 0 0 1-.28.265ZM62.325 5.577l-.201-1.199H55.63l-.202 1.35h4.886l-5.037 6.112.202 1.148h6.864l.185-1.367h-5.142l4.94-6.044ZM65.864 11.621l4.94-6.044-.201-1.199h-6.494l-.202 1.351h4.885l-5.036 6.112.201 1.148h6.864l.185-1.368h-5.142Z"/></svg>