<svg xmlns="http://www.w3.org/2000/svg" viewBox="0 0 85 24"><path fill="#FFE100" d="M0 0h85v24H0z"/><path fill="#000" d="m79.147 18-4.143-6.26L78.79 6h-1.893l-2.75 4.57L71.13 6h-2.08l3.886 5.824L68.861 18h1.928l3.034-4.932L77.083 18h2.064ZM52.337 6.005h-3.7s2.102 3.453 2.126 3.496a.582.582 0 0 1 .014.706l-2.14 3.508h3.701s1.785-2.918 2.03-3.324a.886.886 0 0 0-.01-1.072c-.264-.448-.264-.448-2.02-3.314ZM48.158 6.005h-3.297v11.993h3.297V6.005ZM63.93 7.992c-.124-.212-1.225-1.987-1.225-1.987h-7.923l1.73 2.903h4.174l-1.722 2.822 1.92 3.224-1.853 3.043h3.383c.543-.889 1.356-2.265 1.526-2.547a.888.888 0 0 0-.01-1.077c-.17-.289-1.075-1.725-1.616-2.61l1.626-2.695a.888.888 0 0 0-.01-1.076Z"/><path fill="#000" d="M56.31 12.12c-.521.851-1.393 2.278-1.557 2.557a.855.855 0 0 0-.01 1.037c.164.271 1.043 1.71 1.567 2.568.524-.857 1.403-2.296 1.566-2.568a.856.856 0 0 0-.01-1.037 392.387 392.387 0 0 0-1.556-2.558ZM6.004 18V6.001h3.937V18H6.004Zm9.294-10.09L17.562 18h-4.309L10.55 6.001h2.416a2.276 2.276 0 0 1 1.513.55c.42.345.71.826.82 1.36ZM18.154 18V6.001h3.937V18h-3.937Zm6.91-7.436a2.383 2.383 0 0 1-2.4-2.4 2.303 2.303 0 0 1 .323-1.2 2.411 2.411 0 0 1 3.278-.861c.355.209.652.506.861.861.215.363.326.778.322 1.2a2.4 2.4 0 0 1-1.183 2.079 2.302 2.302 0 0 1-1.2.321ZM28.057 18V6.001h3.937V18h-3.937Zm8.922-5.442c.011.012.096.15.253.414.158.265.364.603.617 1.014a315.936 315.936 0 0 1 1.597 2.62c.247.411.529.876.845 1.394h-4.326c-.27-.44-.516-.837-.735-1.191-.22-.355-.453-.738-.7-1.15-.249-.41-.494-.81-.737-1.2-.242-.389-.45-.73-.625-1.022-.175-.293-.296-.49-.363-.591a1.748 1.748 0 0 1-.287-.845c.017-.29.11-.57.27-.812.068-.113.192-.313.372-.6s.391-.628.633-1.022c.243-.395.488-.797.736-1.209l.7-1.157.736-1.2h4.326l-3.346 5.458a1.08 1.08 0 0 0-.17.542c.012.201.082.395.203.557h.001Z"/></svg>