<svg xmlns="http://www.w3.org/2000/svg" viewBox="0 0 35 31"><path fill="#fff" d="M0 12.998V.999h3.937v11.999H0Zm9.294-10.09 2.264 10.09H7.25L4.545.999h2.417a2.276 2.276 0 0 1 1.513.55c.42.345.71.826.819 1.36Zm2.855 10.09V.999h3.938v11.999h-3.938Zm6.912-7.436a2.382 2.382 0 0 1-2.4-2.4 2.301 2.301 0 0 1 .321-1.2 2.41 2.41 0 0 1 3.278-.861c.356.209.653.506.862.861.215.363.326.778.321 1.2a2.35 2.35 0 0 1-.321 1.209 2.4 2.4 0 0 1-.862.87 2.302 2.302 0 0 1-1.2.321Zm2.99 7.436V.999h3.938v11.999h-3.937Zm8.923-5.442c.01.012.095.15.253.414.158.265.364.603.617 1.014a313.388 313.388 0 0 1 1.597 2.62c.247.411.529.876.845 1.394H29.96c-.27-.44-.516-.837-.736-1.191-.22-.355-.453-.738-.7-1.15-.248-.41-.493-.81-.736-1.2-.242-.389-.45-.73-.625-1.022-.175-.293-.296-.49-.363-.591a1.747 1.747 0 0 1-.287-.845c.016-.29.11-.57.27-.812.067-.113.191-.313.371-.6s.392-.628.634-1.022c.242-.395.488-.797.736-1.209l.7-1.157.736-1.2h4.326L30.94 6.457a1.08 1.08 0 0 0-.17.542c.012.201.082.395.203.557Z"/><path fill="#8BB5EB" d="M8.145 19.697a3.018 3.018 0 0 0-.786-.82 3.771 3.771 0 0 0-1.14-.54 5.403 5.403 0 0 0-1.521-.195H0v11.999h1.774v-4.31h3.06a3.99 3.99 0 0 0 1.976-.49 3.662 3.662 0 0 0 1.394-1.369 4.034 4.034 0 0 0 .516-2.078 4.932 4.932 0 0 0-.135-1.166 3.361 3.361 0 0 0-.44-1.031Zm-1.571 3.642a1.997 1.997 0 0 1-.955.786c-.478.18-.985.266-1.496.253H1.774v-4.765H4.36a3.22 3.22 0 0 1 1.436.278c.36.174.653.458.837.811.195.396.29.834.279 1.276.02.477-.098.949-.338 1.36ZM13.097 18.142c-.27.136-.527.268-.77.398a21.7 21.7 0 0 1-.709.363c-.231.112-.465.225-.702.338a8.2 8.2 0 0 1-.726.304c-.248.09-.513.18-.794.27l.371 1.436c.338-.1.645-.202.921-.304.27-.099.536-.211.795-.338.253-.124.507-.259.76-.405l.009-.005v9.942h1.757V18.143h-.912Z"/></svg>