<svg xmlns="http://www.w3.org/2000/svg" viewBox="0 0 58 41">
  <path fill="#0A2343" d="M0 17.966V5.967h4v12H0ZM9.244 7.877l2.264 10.09H7.2l-2.704-12h2.417a2.276 2.276 0 0 1 1.513.55c.42.346.66.826.819 1.36ZM12 17.967v-12h4v12h-4Zm7.01-7.437a2.381 2.381 0 0 1-2.078-1.192 2.345 2.345 0 0 1-.321-1.207 2.301 2.301 0 0 1 .321-1.2 2.41 2.41 0 0 1 3.278-.862c.356.21.653.506.862.862.215.363.326.778.321 1.2a2.35 2.35 0 0 1-.321 1.208 2.4 2.4 0 0 1-.862.87 2.3 2.3 0 0 1-1.2.321ZM22 17.966V5.967h4v12h-4Zm8.974-5.442c.01.012.095.15.253.415.158.264.364.602.617 1.014a309.436 309.436 0 0 1 1.597 2.62c.247.41.529.875.845 1.393H29.96c-.27-.44-.516-.836-.736-1.191-.22-.355-.453-.738-.7-1.15-.248-.41-.493-.81-.736-1.2a60.12 60.12 0 0 1-.625-1.022 18.04 18.04 0 0 0-.363-.591 1.747 1.747 0 0 1-.287-.845c.016-.29.11-.57.27-.812.067-.112.191-.312.371-.6a182.106 182.106 0 0 0 1.37-2.23l.7-1.158.736-1.2h4.326l-3.346 5.459a1.079 1.079 0 0 0-.17.54c.012.203.083.397.204.559Z"/>
  <path fill="#1767CE" d="M11.055 22.416 9.75 23.831a5.188 5.188 0 0 0-1.337-.812c-.718-.298-1.535-.447-2.454-.447-.918 0-1.78.154-2.514.464a5.236 5.236 0 0 0-1.868 1.31 5.736 5.736 0 0 0-1.171 2.023C.135 27.155 0 28.024 0 28.977c0 .953.132 1.811.396 2.575.212.611.505 1.148.87 1.615L0 34.557l.844.792 1.245-1.358c.385.304.815.557 1.295.746.717.282 1.53.422 2.436.422.907 0 1.745-.149 2.48-.447a5.154 5.154 0 0 0 1.868-1.275 5.7 5.7 0 0 0 1.18-1.98c.276-.77.413-1.642.413-2.617 0-.976-.129-1.797-.387-2.566a5.77 5.77 0 0 0-.79-1.553l1.35-1.478-.879-.826Zm-8.713 4.03c.321-.735.786-1.312 1.395-1.73.608-.42 1.349-.63 2.221-.63.873 0 1.55.199 2.135.595.178.12.34.261.494.41l-6.076 6.705a4.38 4.38 0 0 1-.384-.89 6.5 6.5 0 0 1-.267-1.929c0-.953.16-1.796.482-2.531Zm7.293 4.357a4.32 4.32 0 0 1-.784 1.506 3.607 3.607 0 0 1-1.266.982c-.499.235-1.076.353-1.73.353-.655 0-1.194-.11-1.688-.327a3.49 3.49 0 0 1-.904-.583l6.05-6.627c.04.084.09.158.126.247.31.718.465 1.553.465 2.506 0 .711-.089 1.36-.267 1.945l-.002-.002Zm10.246.852c.097.247.146.542.146.887 0 .46-.095.855-.284 1.188a2.25 2.25 0 0 1-.784.81 3.693 3.693 0 0 1-1.17.456 6.699 6.699 0 0 1-1.43.146c-.218 0-.433-.006-.646-.017a4.455 4.455 0 0 1-.654-.086c-.224-.046-.46-.1-.706-.164-.247-.063-.52-.146-.818-.25l-.069-1.463c.264.092.525.175.784.25.258.074.51.137.757.189.247.052.482.092.706.12a4.398 4.398 0 0 0 1.584-.06c.305-.069.552-.186.741-.353.19-.166.284-.393.284-.68a.88.88 0 0 0-.301-.68 1.895 1.895 0 0 0-.353-.241 3.2 3.2 0 0 0-.448-.198 12.323 12.323 0 0 1-.353-.112 30.288 30.288 0 0 0-.758-.241 16.407 16.407 0 0 1-.8-.267 3.626 3.626 0 0 1-.646-.336 2.526 2.526 0 0 1-.525-.456 2.027 2.027 0 0 1-.362-.629 2.435 2.435 0 0 1-.138-.852c0-.448.086-.835.259-1.163.172-.327.416-.597.732-.809a3.558 3.558 0 0 1 1.11-.482 5.68 5.68 0 0 1 1.412-.164c.207 0 .416.009.629.026.212.017.427.049.645.095.219.046.434.103.646.172.213.069.428.15.646.241l-.12 1.395a4.14 4.14 0 0 0-.5-.19 11.18 11.18 0 0 0-.542-.154 5.886 5.886 0 0 0-1.438-.19 3.83 3.83 0 0 0-.767.069 1.946 1.946 0 0 0-.576.207.978.978 0 0 0-.362.335.893.893 0 0 0-.12.474c0 .16.037.304.111.43.075.127.173.236.293.328.12.091.255.178.405.258.137.069.29.132.456.19.167.057.339.111.517.163.178.052.356.109.534.172.177.063.358.123.542.18.253.093.494.205.723.337.23.132.43.29.603.473.172.184.307.4.405.646Zm7.017 1.877c.08-.017.149-.037.206-.06l-.103 1.429c-.092.023-.204.049-.336.077a5.61 5.61 0 0 1-.913.13 8.48 8.48 0 0 1-.542.017c-.24 0-.488-.023-.74-.069a2.959 2.959 0 0 1-.715-.224 1.8 1.8 0 0 1-.585-.43 2.108 2.108 0 0 1-.405-.698 2.926 2.926 0 0 1-.155-1.007v-5.132h-1.515l.189-1.377h1.326v-2.101l1.756-.62v2.72h2.618l-.19 1.378h-2.428v4.77c0 .287.058.531.173.732.114.201.278.353.49.456.213.104.468.155.767.155.08 0 .166 0 .258-.008.092-.006.187-.017.284-.035l.293-.051c.097-.018.186-.035.267-.052Zm7.043-11.288.069 1.43a1.526 1.526 0 0 0-.285-.087 18.083 18.083 0 0 0-.344-.068 3.822 3.822 0 0 0-.766-.07c-.218 0-.416.026-.594.078a1.05 1.05 0 0 0-.44.241c-.114.11-.203.247-.266.413a1.622 1.622 0 0 0-.095.577v1.43h2.41v1.343h-2.41v7.439h-1.756v-7.44h-1.292v-1.342h1.292v-1.24c0-.505.071-.942.215-1.309.143-.367.344-.674.603-.921.258-.247.56-.428.904-.543a3.463 3.463 0 0 1 1.102-.172 5.617 5.617 0 0 1 1.128.103c.178.035.353.08.525.138Zm7.275 4.305c-.66-.367-1.438-.55-2.333-.55-.896 0-1.679.189-2.35.568a3.971 3.971 0 0 0-1.568 1.601c-.373.689-.56 1.504-.56 2.445 0 .942.176 1.754.526 2.437.35.683.852 1.202 1.507 1.558.654.356 1.412.534 2.273.534.86 0 1.687-.19 2.376-.568a4.01 4.01 0 0 0 1.61-1.619c.385-.7.577-1.527.577-2.48 0-.952-.178-1.696-.534-2.367a3.762 3.762 0 0 0-1.524-1.559Zm-.103 5.769c-.224.482-.537.84-.939 1.076a2.675 2.675 0 0 1-1.377.353c-.517 0-.964-.12-1.343-.361-.38-.241-.678-.603-.896-1.085-.218-.482-.327-1.08-.327-1.791 0-.712.11-1.28.327-1.74.218-.459.525-.803.922-1.032.396-.23.87-.345 1.42-.345.436 0 .812.072 1.128.215.316.144.58.353.792.629.213.275.37.605.474.99.103.385.155.812.155 1.283 0 .723-.112 1.326-.336 1.808Zm7.19 1.36.206-.034-.172 1.36a3.822 3.822 0 0 1-1.068.138c-.275 0-.53-.031-.766-.095a1.52 1.52 0 0 1-.611-.318 1.44 1.44 0 0 1-.397-.577 2.349 2.349 0 0 1-.137-.852V22.227l1.756-.258v10.556c0 .206.015.384.043.534.029.149.078.272.147.37.068.097.154.169.258.215.103.046.23.069.379.069.069 0 .129 0 .18-.009a3.34 3.34 0 0 0 .181-.026Zm7.903-11.45v4.19c-.017-.006-.034-.015-.051-.024a5.934 5.934 0 0 0-2.187-.396c-.77 0-1.484.19-2.144.569-.66.378-1.191.927-1.593 1.644-.402.718-.603 1.593-.603 2.626 0 .884.152 1.647.457 2.29a3.42 3.42 0 0 0 1.308 1.49c.569.35 1.249.525 2.04.525.46 0 .894-.057 1.301-.172a4.698 4.698 0 0 0 1.197-.534c.129-.08.258-.17.387-.261l.215.795h1.43V21.986l-1.757.241Zm-.92 11.27c-.454.166-.865.25-1.232.25-.551 0-1.022-.113-1.412-.337-.39-.223-.689-.568-.896-1.033-.206-.465-.31-1.047-.31-1.748 0-.7.115-1.305.345-1.782.23-.476.56-.838.99-1.085.43-.247.944-.37 1.541-.37a5.215 5.215 0 0 1 1.627.25c.084.026.178.063.267.095v5.306a5.665 5.665 0 0 1-.92.454Z"/>
</svg>