<svg xmlns="http://www.w3.org/2000/svg" viewBox="0 0 73 24"><path fill="#fff" d="M0 18.002v-12h3.937v12H0Zm9.294-10.09 2.264 10.09H7.25l-2.704-12h2.417a2.276 2.276 0 0 1 1.513.55c.42.346.71.826.819 1.36Zm2.855 10.09v-12h3.938v12h-3.938Zm6.912-7.436a2.381 2.381 0 0 1-2.078-1.192 2.345 2.345 0 0 1-.322-1.208 2.301 2.301 0 0 1 .321-1.2 2.41 2.41 0 0 1 3.278-.862c.356.21.653.506.862.862.215.363.326.778.321 1.2a2.35 2.35 0 0 1-.321 1.208c-.207.36-.504.66-.862.87a2.302 2.302 0 0 1-1.2.322Zm2.99 7.436v-12h3.938v12h-3.937Zm8.923-5.442c.01.012.095.15.253.414s.364.602.617 1.014a309.436 309.436 0 0 1 1.597 2.62c.247.411.529.876.845 1.394H29.96c-.27-.44-.516-.837-.736-1.192-.22-.355-.453-.738-.7-1.149-.248-.41-.493-.81-.736-1.2a60.12 60.12 0 0 1-.625-1.022 18.04 18.04 0 0 0-.363-.592 1.747 1.747 0 0 1-.287-.845c.016-.29.11-.57.27-.811.067-.113.191-.313.371-.6s.392-.628.634-1.023c.242-.394.488-.797.736-1.208a516 516 0 0 1 .7-1.158l.736-1.2h4.326l-3.346 5.46a1.079 1.079 0 0 0-.17.54c.012.202.082.396.203.558Z"/><path fill="#C8A1F5" d="M42.007 15.278c.003.196-.031.39-.101.574-.063.163-.161.31-.286.43-.13.123-.286.215-.455.271-.196.065-.4.096-.606.093-.135 0-.261-.006-.379-.017a7.466 7.466 0 0 1-.707-.101 8.912 8.912 0 0 1-.732-.169l.134 1.52c.157.046.309.088.455.127.146.04.292.073.438.102.15.028.302.048.454.058.157.012.331.017.522.018.39.006.778-.043 1.153-.144.307-.084.595-.224.85-.414.23-.174.428-.389.581-.634.153-.245.267-.513.337-.794.074-.295.111-.6.11-.904V6.002h-1.768v9.276ZM53.742 16.933a.765.765 0 0 1-.657-.27 1.459 1.459 0 0 1-.185-.895l.034-3.48a4.075 4.075 0 0 0-.135-1.082 2.66 2.66 0 0 0-.404-.862 2.286 2.286 0 0 0-.699-.625 3.568 3.568 0 0 0-1.018-.389 5.97 5.97 0 0 0-1.33-.135c-.355 0-.71.023-1.061.068a7.3 7.3 0 0 0-.985.194c-.3.082-.595.18-.884.296l-.202 1.436a10.069 10.069 0 0 1 1.532-.422c.231-.045.464-.076.699-.093.23-.017.457-.025.682-.026.343-.007.686.033 1.018.119.243.06.466.183.648.355.163.167.279.373.337.6.072.278.106.565.101.853l-.002.423-1.968.134a5.218 5.218 0 0 0-1.953.44c-.461.202-.86.526-1.153.937a2.188 2.188 0 0 0-.379 1.242 2.48 2.48 0 0 0 .295 1.191c.206.376.516.684.892.887.46.24.973.356 1.49.338.485.01.967-.07 1.423-.237a3.28 3.28 0 0 0 1.06-.675c.117-.112.227-.23.332-.354.032.175.094.343.182.498.15.258.38.46.657.574.304.123.63.183.96.177.1 0 .198-.003.294-.008.094-.006.187-.02.278-.043l.244-.059c.066-.014.13-.034.193-.059l.186-1.132a1.498 1.498 0 0 1-.287.068c-.078.01-.156.016-.235.016Zm-2.803-.76c-.183.145-.38.27-.59.372a2.66 2.66 0 0 1-.656.22 3.72 3.72 0 0 1-.716.067 1.89 1.89 0 0 1-.8-.152 1.098 1.098 0 0 1-.496-.43 1.265 1.265 0 0 1-.169-.668c-.016-.282.061-.561.22-.794.182-.215.43-.363.706-.423.43-.101.872-.146 1.313-.135h1.475l-.008 1.677c-.085.097-.179.186-.28.266ZM62.227 10.58l-.202-1.2h-6.499l-.202 1.352h4.89l-5.041 6.117.202 1.148h6.87l.184-1.368h-5.146l4.944-6.048ZM65.769 16.63l4.944-6.049-.203-1.2h-6.498l-.203 1.352h4.89l-5.04 6.116.201 1.149h6.87l.184-1.369H65.77Z"/></svg>