<svg xmlns="http://www.w3.org/2000/svg" viewBox="0 0 87 21"><path fill="#fff" d="M0 17V5h3.937v12H0ZM9.294 6.91 11.558 17H7.25L4.545 5h2.417a2.276 2.276 0 0 1 1.513.55c.42.346.71.826.819 1.36ZM12.149 17V5h3.938v12h-3.938Zm6.912-7.437a2.382 2.382 0 0 1-2.4-2.4 2.301 2.301 0 0 1 .321-1.2 2.41 2.41 0 0 1 3.278-.861c.356.21.653.506.862.862.215.363.326.778.321 1.2a2.35 2.35 0 0 1-.321 1.208 2.4 2.4 0 0 1-.862.87 2.302 2.302 0 0 1-1.2.321ZM22.05 17V5h3.938v12h-3.937Zm8.923-5.441c.01.011.095.15.253.414s.364.602.617 1.014a309.436 309.436 0 0 1 1.597 2.619c.247.412.529.876.845 1.394H29.96c-.27-.44-.516-.836-.736-1.191-.22-.355-.453-.738-.7-1.15-.248-.41-.493-.81-.736-1.2a60.12 60.12 0 0 1-.625-1.022 18.04 18.04 0 0 0-.363-.591 1.747 1.747 0 0 1-.287-.845c.016-.29.11-.57.27-.812.067-.112.191-.312.371-.6a182.106 182.106 0 0 0 1.37-2.23l.7-1.158.736-1.2h4.326L30.94 10.46a1.079 1.079 0 0 0-.17.54c.012.203.082.397.203.558Z"/><path fill="#9FDAF5" d="M46.148 11.374a3.186 3.186 0 0 0-.837-.62 6.48 6.48 0 0 0-1.013-.416c-.358-.113-.726-.21-1.105-.289-.29-.068-.561-.136-.812-.203a3.7 3.7 0 0 1-.67-.247 2.206 2.206 0 0 1-.51-.34 1.222 1.222 0 0 1-.327-.475 1.852 1.852 0 0 1-.109-.67 2.068 2.068 0 0 1 .109-.697c.069-.197.183-.375.335-.518.156-.145.334-.265.527-.356.22-.102.455-.17.695-.204.286-.04.574-.06.863-.059a7.216 7.216 0 0 1 1.574.17c.252.055.5.126.744.212.229.08.45.18.662.297l.234-1.494a4.141 4.141 0 0 0-.745-.306 9.917 9.917 0 0 0-.795-.204 7.85 7.85 0 0 0-.82-.127 8.46 8.46 0 0 0-.855-.042 7.034 7.034 0 0 0-1.758.203c-.49.12-.952.334-1.364.629-.379.276-.684.643-.887 1.07a3.496 3.496 0 0 0-.31 1.527c-.01.408.056.814.193 1.197.12.321.305.614.544.858.236.239.507.439.803.594.315.164.642.3.98.408.352.113.712.21 1.08.288.301.068.58.139.837.213.239.066.471.154.694.263.193.092.37.212.528.356.15.143.267.317.343.51.09.232.132.48.126.73.004.265-.035.529-.117.78-.074.219-.187.42-.335.595a1.613 1.613 0 0 1-.536.407 2.675 2.675 0 0 1-.728.221c-.308.048-.618.07-.93.068-.301 0-.603-.02-.903-.06-.313-.039-.625-.093-.938-.16a9.294 9.294 0 0 1-.912-.247 17.007 17.007 0 0 1-.846-.297l.218 1.681c.285.108.576.201.87.28.268.071.539.128.812.17.263.04.525.07.787.093.263.023.528.034.795.034.6.004 1.198-.059 1.784-.187a4.24 4.24 0 0 0 1.456-.61c.414-.279.75-.662.971-1.113a3.805 3.805 0 0 0 .344-1.706 3.881 3.881 0 0 0-.193-1.291 2.515 2.515 0 0 0-.553-.916ZM56.169 15.94a.754.754 0 0 1-.654-.27 1.477 1.477 0 0 1-.184-.9l.033-3.498a4.135 4.135 0 0 0-.133-1.087 2.677 2.677 0 0 0-.402-.866 2.283 2.283 0 0 0-.695-.628 3.532 3.532 0 0 0-1.013-.39 5.88 5.88 0 0 0-1.322-.136c-.353 0-.706.022-1.056.067-.33.043-.657.108-.979.196a8.032 8.032 0 0 0-.879.297l-.2 1.443a10.063 10.063 0 0 1 1.523-.424 6.06 6.06 0 0 1 .695-.093c.228-.017.454-.026.678-.026a3.7 3.7 0 0 1 1.013.119c.241.061.463.184.645.357.161.167.277.375.334.602.072.28.106.569.1.858l-.001.426-1.957.134a5.141 5.141 0 0 0-1.942.441c-.459.204-.855.53-1.147.943a2.215 2.215 0 0 0-.377 1.247c-.003.418.098.83.293 1.198.205.377.513.687.887.89.457.242.968.359 1.482.34a3.81 3.81 0 0 0 1.415-.237c.392-.155.75-.386 1.055-.68.116-.112.226-.23.33-.355.032.176.093.345.18.5.15.26.38.463.653.578.304.123.628.184.955.178.1 0 .198-.003.293-.009.093-.005.185-.02.276-.042l.243-.06c.065-.014.13-.034.192-.06l.184-1.136a1.471 1.471 0 0 1-.284.068c-.078.01-.156.015-.234.016Zm-2.788-.763a3.22 3.22 0 0 1-.587.374 2.627 2.627 0 0 1-.652.22 3.664 3.664 0 0 1-.712.068 1.861 1.861 0 0 1-.795-.153 1.097 1.097 0 0 1-.494-.432 1.283 1.283 0 0 1-.168-.671c-.016-.283.06-.564.218-.798.182-.216.43-.365.703-.425a5.041 5.041 0 0 1 1.306-.135h1.466l-.007 1.685a2.275 2.275 0 0 1-.279.267ZM54.444 4.124h-1.808l-1.423 3.039h1.306l1.925-3.04ZM64.715 8.7a3.56 3.56 0 0 0-2-.535 5.044 5.044 0 0 0-1.24.16 5.341 5.341 0 0 0-1.49.642v-.785l-1.707.271v12.123h1.707v-3.802l.034.016c.31.13.632.224.963.28.39.065.785.096 1.18.093a4.136 4.136 0 0 0 2.151-.56 4.008 4.008 0 0 0 1.507-1.621 5.488 5.488 0 0 0 .56-2.59 5.342 5.342 0 0 0-.426-2.207A3.4 3.4 0 0 0 64.715 8.7Zm-.443 5.679c-.201.45-.539.825-.963 1.07-.472.25-1 .373-1.532.356a4.717 4.717 0 0 1-1.792-.346V10.1c.023-.011.046-.025.068-.035.245-.113.474-.21.686-.289a3.396 3.396 0 0 1 1.189-.22 3.062 3.062 0 0 1 1.49.33c.404.224.72.58.896 1.01.213.552.312 1.141.293 1.732a4.099 4.099 0 0 1-.335 1.75ZM80.026 8.521a2.882 2.882 0 0 0-1.49-.356 3.872 3.872 0 0 0-1.323.229 4.646 4.646 0 0 0-1.205.653 6.122 6.122 0 0 0-.594.51 2.12 2.12 0 0 0-.863-1.02 2.92 2.92 0 0 0-1.507-.355c-.447 0-.892.077-1.314.229a4.739 4.739 0 0 0-1.565.928V8.183l-1.708.254v8.575h1.708v-6.46c.2-.134.41-.254.627-.36.266-.127.544-.226.83-.297.262-.065.532-.1.803-.101.249-.008.496.035.728.127.192.083.361.21.494.373.146.19.246.41.293.646.065.304.096.614.092.925v5.145h1.708v-5.502c.001-.324-.02-.649-.065-.97.194-.13.394-.247.6-.354.262-.133.537-.236.821-.305.269-.067.544-.101.82-.103.246-.005.491.038.72.128.196.08.368.209.503.374.145.189.246.41.293.645.065.304.096.614.092.925v5.162h1.708v-5.518a4.995 4.995 0 0 0-.302-1.885 2.18 2.18 0 0 0-.904-1.086ZM83.76 17.01h1.708V8.183l-1.708.254v8.575ZM85.635 5.049c-.1-.174-.24-.32-.41-.425a1.072 1.072 0 0 0-.578-.16 1.114 1.114 0 0 0-.586.16c-.175.104-.321.25-.427.425-.106.176-.161.38-.159.586-.002.209.053.415.16.594a1.159 1.159 0 0 0 1.013.577 1.1 1.1 0 0 0 .988-.577c.1-.181.152-.386.15-.594a1.16 1.16 0 0 0-.151-.586Z"/></svg>