<svg xmlns="http://www.w3.org/2000/svg" viewBox="0 0 45 31" fill="#00B3C7"><path d="M22.188 26.443c.07.183.103.378.098.574.008.264-.056.526-.185.757-.123.21-.297.386-.504.514-.233.14-.488.24-.755.292-.307.063-.62.094-.934.092-.145 0-.288-.004-.429-.011a2.977 2.977 0 0 1-.429-.054 6.941 6.941 0 0 1-.456-.109 10.014 10.014 0 0 1-.531-.163l-.044-.984c.167.058.335.112.505.163a5.735 5.735 0 0 0 .956.2c.134.017.27.026.406.027.2.001.398-.019.592-.06a.98.98 0 0 0 .445-.205.51.51 0 0 0 .168-.405.467.467 0 0 0-.054-.222.61.61 0 0 0-.152-.184 1.171 1.171 0 0 0-.228-.146 3.08 3.08 0 0 0-.272-.12 8.66 8.66 0 0 1-.222-.07c-.076-.024-.156-.05-.24-.075a6.712 6.712 0 0 0-.249-.07 2.815 2.815 0 0 1-.494-.173 2.447 2.447 0 0 1-.412-.212 1.443 1.443 0 0 1-.337-.292 1.255 1.255 0 0 1-.222-.4 1.612 1.612 0 0 1-.082-.535c-.006-.255.05-.507.163-.736a1.4 1.4 0 0 1 .467-.52c.222-.144.469-.249.728-.307.302-.071.612-.106.922-.103.137 0 .277.005.418.016.14.01.28.029.418.054a3.261 3.261 0 0 1 .825.265l-.086.952a2.285 2.285 0 0 0-.32-.13 5.266 5.266 0 0 0-.343-.097 4.13 4.13 0 0 0-.657-.108 3.59 3.59 0 0 0-.266-.011 2.301 2.301 0 0 0-.467.043 1.282 1.282 0 0 0-.352.125.56.56 0 0 0-.217.2.518.518 0 0 0-.07.27.49.49 0 0 0 .07.265.703.703 0 0 0 .179.195c.077.057.161.106.25.146.091.045.185.085.282.119.1.036.208.069.32.097.112.03.225.063.337.103.112.04.222.078.33.114.163.056.321.124.473.205.146.078.277.178.39.298.114.121.205.262.267.416Zm4.703-3.353 1.238-.184-.011 5.657h-.966l-.173-.703c-.027.026-.054.052-.082.076-.17.154-.358.288-.56.4-.193.108-.399.191-.613.25a2.637 2.637 0 0 1-.689.085c-.36.011-.716-.069-1.037-.232a1.473 1.473 0 0 1-.646-.703c-.145-.314-.217-.716-.217-1.206v-3.44l1.237-.184v3.397c-.006.241.034.482.12.708.07.18.2.332.369.428.201.102.426.15.651.14a2.2 2.2 0 0 0 .407-.038 2.832 2.832 0 0 0 .771-.264c.066-.034.133-.07.201-.11V23.09Zm6.788.146a2.347 2.347 0 0 0-1.292-.34 3.212 3.212 0 0 0-.815.108 3.547 3.547 0 0 0-.814.33c-.047.026-.094.056-.141.085v-.512l-1.238.195v7.723h1.238v-2.43c.197.083.403.145.613.185.26.05.523.073.787.07.491.008.974-.115 1.401-.356.42-.246.76-.607.983-1.039.242-.454.363-1.006.363-1.655a3.393 3.393 0 0 0-.277-1.412 2.162 2.162 0 0 0-.808-.952Zm-.392 3.592c-.125.28-.339.51-.607.66a1.997 1.997 0 0 1-.977.221 2.837 2.837 0 0 1-.945-.146 7.15 7.15 0 0 1-.141-.047V24.16l.01-.005c.153-.069.296-.126.43-.173.125-.045.254-.079.385-.103.118-.021.238-.032.358-.032.326-.012.649.059.94.205.252.141.451.362.564.628.138.34.203.704.19 1.07.011.37-.06.737-.206 1.077Zm6.196-.8c.214-.063.415-.166.592-.303.15-.12.271-.274.352-.449.08-.177.121-.369.12-.563a1.588 1.588 0 0 0-.147-.66 1.704 1.704 0 0 0-.434-.578 2.08 2.08 0 0 0-.722-.4 3.18 3.18 0 0 0-1.01-.146c-.593 0-1.096.124-1.509.373a2.355 2.355 0 0 0-.933 1.05 3.692 3.692 0 0 0-.315 1.573c0 .599.11 1.104.33 1.515.222.411.57.741.994.94.442.217.985.326 1.629.326.24.001.48-.015.717-.05.21-.03.417-.08.618-.15a6.58 6.58 0 0 0 .597-.244l.076-.898c-.281.11-.57.202-.863.276-.329.08-.666.117-1.004.114a3 3 0 0 1-.803-.098 1.24 1.24 0 0 1-.918-.909 2.607 2.607 0 0 1-.09-.474l1.887-.099c.284-.015.564-.065.836-.146Zm-2.834-.558c.014-.264.067-.524.156-.773.09-.262.26-.49.489-.649.235-.146.51-.22.787-.21.225-.01.449.037.651.135.153.077.28.195.37.34a.815.815 0 0 1 .119.412.608.608 0 0 1-.082.319.562.562 0 0 1-.271.216 1.597 1.597 0 0 1-.505.103l-1.714.107Zm7.922-2.537-.151 1.114a3.136 3.136 0 0 0-.419.005c-.126.01-.251.03-.374.06-.116.029-.23.065-.342.108a2.194 2.194 0 0 0-.33.162c-.08.048-.16.1-.24.151v4.025h-1.238v-5.474l1.238-.183v.869l.06-.069c.15-.169.32-.32.504-.449.18-.125.38-.219.592-.276.229-.058.466-.073.7-.043ZM0 28.592v-5.59h1.85v5.59H0Zm4.366-4.7 1.064 4.7H3.406l-1.27-5.59H3.27c.26-.004.513.087.71.255.198.162.334.385.385.634Zm1.342 4.7v-5.59h1.85v5.59h-1.85Zm3.246-3.465a1.115 1.115 0 0 1-.976-1.677 1.128 1.128 0 0 1 .976-.551c.199-.002.393.05.564.15.167.097.307.235.405.401.1.17.153.363.15.56a1.123 1.123 0 0 1-.556.968c-.17.1-.365.152-.563.15Zm1.406 3.465v-5.59h1.85v5.59h-1.85Zm4.191-2.536c.005.006.045.07.12.193.073.123.17.281.289.473a148.408 148.408 0 0 1 .75 1.22c.116.192.249.408.397.65h-2.032l-.346-.555a49.776 49.776 0 0 1-.329-.536 49.138 49.138 0 0 0-.345-.559c-.114-.181-.212-.34-.294-.476a8.542 8.542 0 0 0-.17-.276.81.81 0 0 1-.136-.393.761.761 0 0 1 .127-.378A61.051 61.051 0 0 0 13.4 24.1 234.993 234.993 0 0 1 14.075 23h2.032l-1.572 2.543a.499.499 0 0 0-.08.253.476.476 0 0 0 .096.26Z"/><path fill-rule="evenodd" d="M22.429.254c-5.386 0-9.781 4.38-9.781 9.746 0 5.357 4.395 9.747 9.78 9.747 5.376 0 9.782-4.39 9.782-9.747 0-5.366-4.406-9.746-9.781-9.746ZM14.566 10c0 4.327 3.552 7.909 7.863 7.909 4.353 0 7.863-3.582 7.863-7.909 0-4.38-3.51-7.908-7.863-7.908-4.311 0-7.863 3.529-7.863 7.908Zm6.134.032a1.478 1.478 0 0 1-.928 1.388c-.184.074-.38.11-.58.108-.398 0-.78-.157-1.061-.438a1.494 1.494 0 0 1 1.062-2.555 1.492 1.492 0 0 1 1.396.92c.076.183.113.38.111.577Zm6.84-.693-.99.787c-.074.052-.074.105-.053.189l.327 1.208c.021.063-.01.073-.053.042l-1.065-.693a.157.157 0 0 0-.189 0l-1.075.704c-.042.031-.074.01-.053-.053l.327-1.208a.16.16 0 0 0-.043-.189l-1-.809c-.032-.03-.032-.073.02-.073l1.255-.052a.127.127 0 0 0 .127-.095l.484-1.208c.032-.073.074-.063.095 0l.422 1.166a.174.174 0 0 0 .19.137l1.243.052c.074 0 .084.053.032.095Z"/></svg>