<svg xmlns="http://www.w3.org/2000/svg" viewBox="0 0 204 84"><path fill="#78003D" d="M0 0h204v84H0z"/><path fill="#fff" d="M20 63V21.004h13.78V63H20Zm32.528-35.312L60.453 63h-15.08l-9.464-41.996h8.459a7.965 7.965 0 0 1 5.293 1.922 8.31 8.31 0 0 1 2.867 4.762ZM62.523 63V21.004h13.78V63h-13.78Zm24.189-26.026a8.213 8.213 0 0 1-4.228-1.124 8.336 8.336 0 0 1-3.046-3.046 8.206 8.206 0 0 1-1.125-4.229 8.056 8.056 0 0 1 1.125-4.2 8.437 8.437 0 0 1 3.046-3.016 8.233 8.233 0 0 1 4.228-1.124 8.083 8.083 0 0 1 4.199 1.124 8.504 8.504 0 0 1 3.016 3.016 8.075 8.075 0 0 1 1.125 4.2 8.226 8.226 0 0 1-1.125 4.23 8.4 8.4 0 0 1-3.016 3.045 8.059 8.059 0 0 1-4.201 1.124h.002ZM97.18 63V21.004h13.781V63H97.181Zm31.227-19.046c.039.04.334.524.887 1.449.553.925 1.272 2.108 2.159 3.549a1143.28 1143.28 0 0 1 5.589 9.168A854.89 854.89 0 0 0 140 63h-15.141c-.947-1.538-1.804-2.928-2.573-4.17a388.795 388.795 0 0 1-2.453-4.022 355.984 355.984 0 0 0-2.574-4.2 210.645 210.645 0 0 1-2.188-3.578 62.13 62.13 0 0 0-1.272-2.07 6.127 6.127 0 0 1-1.005-2.958 5.745 5.745 0 0 1 .946-2.84c.236-.394.67-1.094 1.301-2.1.631-1.006 1.37-2.198 2.218-3.578.847-1.38 1.706-2.79 2.574-4.23.869-1.439 1.686-2.79 2.453-4.052.77-1.26 1.628-2.66 2.573-4.2H140l-11.711 19.106a3.773 3.773 0 0 0-.592 1.894c.039.706.286 1.385.709 1.952h.002Z"/><path fill="#FDAFD7" d="M163.904 57.92c.937-.804 1.9-1.638 2.917-2.543a82.405 82.405 0 0 0 4.287-4.11 70.042 70.042 0 0 0 4.11-4.613 43.646 43.646 0 0 0 3.46-4.878 25.29 25.29 0 0 0 2.365-5.027c.559-1.617.848-3.315.857-5.026a10.895 10.895 0 0 0-.946-4.642 10.015 10.015 0 0 0-2.778-3.549 12.686 12.686 0 0 0-4.583-2.306 22.64 22.64 0 0 0-6.298-.798 23.275 23.275 0 0 0-4.11.354 21.396 21.396 0 0 0-3.786 1.035c-1.17.439-2.306.963-3.399 1.567l.768 5.145a15.753 15.753 0 0 1 2.987-1.567 20.956 20.956 0 0 1 3.519-1.064 18.093 18.093 0 0 1 3.724-.385 12.523 12.523 0 0 1 3.875.533 7.03 7.03 0 0 1 2.689 1.537 6.182 6.182 0 0 1 1.567 2.336c.345.937.515 1.929.504 2.927a13.121 13.121 0 0 1-1.005 4.879 25.928 25.928 0 0 1-2.839 5.145 55.114 55.114 0 0 1-4.317 5.381 93.722 93.722 0 0 1-5.411 5.5A452.181 452.181 0 0 1 156 59.339l.768 3.666h25.606l.71-5.085h-19.18Z"/></svg>