<svg width="219" height="21" viewBox="0 0 219 21" fill="none" xmlns="http://www.w3.org/2000/svg">
<path d="M0 15.9988V3.99987H3.93719V15.9988H0ZM9.29381 5.90956L11.5581 15.9988H7.24917L4.54549 3.99987H6.96218C7.51635 3.99268 8.05406 4.18803 8.4745 4.54917C8.89562 4.89516 9.18495 5.37548 9.29381 5.90956ZM12.1495 15.9988V3.99987H16.0867V15.9988H12.1495ZM19.0605 8.56288C18.6362 8.56702 18.2188 8.45601 17.8525 8.24174C17.4912 8.0329 17.1911 7.73274 16.9823 7.37138C16.7678 7.00511 16.6568 6.58754 16.661 6.1631C16.6561 5.74124 16.7672 5.32616 16.9823 4.96321C17.1933 4.60577 17.4931 4.30887 17.8525 4.1013C18.2189 3.88728 18.6362 3.77629 19.0605 3.78016C19.4822 3.77562 19.8971 3.88671 20.2602 4.1013C20.616 4.31069 20.9127 4.60734 21.122 4.96321C21.3368 5.32626 21.4479 5.74127 21.4433 6.1631C21.4473 6.58751 21.3363 7.00501 21.122 7.37138C20.9149 7.73115 20.6179 8.03106 20.2602 8.24174C19.8971 8.45676 19.4819 8.56787 19.0599 8.56288H19.0605ZM22.0516 15.9988V3.99987H25.9892V15.9988H22.0516ZM30.9737 10.557C30.9848 10.5687 31.0693 10.7067 31.2272 10.9711C31.3851 11.2354 31.5906 11.5735 31.8439 11.9851C32.0974 12.3965 32.3649 12.833 32.6463 13.2948C32.9278 13.7565 33.1926 14.1931 33.4408 14.6046C33.6881 15.016 33.9697 15.4807 34.2857 15.9988H29.9598C29.6893 15.5594 29.4441 15.1622 29.2245 14.8073C29.0048 14.4524 28.7713 14.0694 28.5238 13.6581C28.2758 13.2473 28.0306 12.8473 27.7882 12.4582C27.5458 12.0692 27.3375 11.7284 27.1633 11.4358C26.9883 11.1431 26.8671 10.9459 26.7997 10.8443C26.6325 10.5922 26.5336 10.3011 26.5127 9.99932C26.5294 9.70971 26.6226 9.42976 26.7828 9.18789C26.8504 9.07522 26.9743 8.87521 27.1545 8.58791C27.3348 8.30061 27.546 7.95983 27.7882 7.5655C28.0304 7.17117 28.2756 6.76838 28.5238 6.35715C28.772 5.94592 29.0056 5.56002 29.2245 5.19949C29.4445 4.83933 29.6897 4.43937 29.9598 3.99959H34.2857L30.9396 9.45828C30.8361 9.62035 30.7777 9.80713 30.7706 9.99932C30.7818 10.2011 30.8522 10.3951 30.9731 10.557H30.9737Z" fill="#0A2343"/>
<path d="M47.959 3.99209H45.8482L41.2606 9.27754H40.6302V3.99209H38.8571V15.9815H40.6302V10.5609H40.6896L45.6793 15.9984L48.0941 15.9815L42.3692 10.0375L47.959 3.99209Z" fill="#015F88"/>
<path d="M52.9734 7.31026C52.6576 7.39492 52.3562 7.5258 52.0787 7.69866C51.7907 7.87864 51.5243 8.09111 51.2847 8.3319C51.245 8.37186 51.2062 8.41636 51.1665 8.45829V7.20053L49.4442 7.4538V15.9815H51.1665V9.60206C51.2946 9.51256 51.4272 9.4296 51.5637 9.35353C51.7326 9.26052 51.9075 9.17872 52.0871 9.10868C52.2614 9.04113 52.4388 8.98203 52.6191 8.93137C52.8044 8.87982 52.9934 8.84311 53.1845 8.8216C53.3892 8.79915 53.5955 8.79352 53.8011 8.80474L54.0038 7.2174C53.6576 7.19269 53.3096 7.22404 52.9734 7.31026Z" fill="#015F88"/>
<path d="M55.5742 15.9815H57.2966V7.20053L55.5742 7.4538V15.9815Z" fill="#015F88"/>
<path d="M57.0518 3.66279C56.8765 3.55567 56.6746 3.50009 56.4692 3.50238C56.2612 3.50076 56.0568 3.55623 55.8781 3.66279C55.7021 3.76595 55.5542 3.91095 55.4475 4.08495C55.3405 4.26025 55.2849 4.46216 55.2872 4.66756C55.2855 4.87554 55.3409 5.07998 55.4475 5.25858C55.5507 5.43528 55.6994 5.58106 55.8781 5.68074C56.0585 5.78215 56.2623 5.83452 56.4692 5.8327C56.6735 5.83517 56.8747 5.7827 57.0518 5.68074C57.2256 5.58029 57.3686 5.43433 57.4655 5.25858C57.5669 5.07823 57.6194 4.87446 57.6175 4.66756C57.6199 4.46326 57.5674 4.26204 57.4655 4.08495C57.3652 3.91177 57.2229 3.7666 57.0518 3.66279Z" fill="#015F88"/>
<path d="M66.5505 7.53824C66.0488 7.28491 65.491 7.1629 64.9294 7.18362C64.4391 7.18454 63.9519 7.26146 63.4853 7.41161C63.0045 7.56481 62.5471 7.78356 62.1261 8.06172C61.9629 8.16895 61.8064 8.28686 61.6531 8.40816V7.20053L59.9307 7.45379V15.9815H61.6531V9.56828C61.8198 9.47054 61.9918 9.38195 62.1681 9.30289C62.4054 9.19792 62.6476 9.10493 62.8942 9.02426C63.1314 8.94692 63.3742 8.88764 63.6203 8.84695C63.8521 8.80854 64.0865 8.78875 64.3214 8.78783C64.597 8.78143 64.8715 8.82434 65.132 8.91449C65.3468 8.99193 65.5385 9.12266 65.689 9.29443C65.8441 9.48067 65.954 9.70031 66.01 9.93613C66.0819 10.2346 66.1159 10.541 66.1111 10.848V15.9815H67.8335V10.4934C67.8559 9.85323 67.7468 9.21529 67.513 8.61897C67.3221 8.16114 66.9832 7.7806 66.5505 7.53824Z" fill="#015F88"/>
<path d="M75.7952 7.40315C75.5373 7.33251 75.275 7.2789 75.01 7.24271C74.7077 7.20209 74.4031 7.18235 74.0981 7.18362C73.5472 7.18136 73.0016 7.29049 72.4939 7.50447C71.9852 7.7199 71.5235 8.03252 71.1345 8.42479C70.72 8.8478 70.4005 9.35439 70.1974 9.91077C69.9618 10.5628 69.8473 11.2524 69.8596 11.9456C69.841 12.7082 69.9879 13.4658 70.2902 14.1662C70.5548 14.7653 70.993 15.2711 71.5482 15.6184C72.1558 15.9768 72.8527 16.1554 73.5578 16.1335C74.1771 16.1313 74.7904 16.0109 75.3646 15.7789C75.7078 15.6392 76.0313 15.4554 76.3271 15.2323V15.6944C76.3339 16.0749 76.2799 16.454 76.167 16.8174C76.0695 17.1222 75.9017 17.3999 75.677 17.6279C75.4353 17.8604 75.1392 18.0287 74.8158 18.1176C74.3952 18.2332 73.9601 18.2872 73.524 18.2781C73.177 18.2775 72.8303 18.2578 72.4855 18.2189C72.1235 18.1781 71.765 18.1104 71.4131 18.0163C71.0506 17.9198 70.6952 17.7985 70.3493 17.6532L70.5351 19.1393C70.8455 19.2652 71.1643 19.3696 71.4891 19.4516C71.8309 19.5379 72.1778 19.6028 72.5276 19.6459C72.8974 19.6913 73.2697 19.7139 73.6422 19.7134C74.4733 19.7394 75.2993 19.5748 76.0569 19.2322C76.672 18.9456 77.1868 18.4808 77.5345 17.8981C77.8745 17.2991 78.0466 16.6194 78.0327 15.9308V7.18362L76.3812 7.60887C76.1903 7.52814 75.9946 7.45944 75.7952 7.40315ZM76.1076 14.1662C75.8985 14.2879 75.6813 14.395 75.4575 14.487C75.2604 14.568 75.0571 14.633 74.8495 14.6812C74.6473 14.727 74.4405 14.7496 74.2332 14.7488C73.726 14.7671 73.2228 14.6537 72.7725 14.4195C72.3801 14.1955 72.0761 13.8439 71.9113 13.4232C71.7078 12.8754 71.6131 12.2932 71.6327 11.7092C71.6252 11.2431 71.6907 10.7787 71.8269 10.3329C71.9375 9.9666 72.1278 9.6293 72.3841 9.3451C72.6341 9.08112 72.9399 8.87631 73.2791 8.74563C73.6646 8.59953 74.0743 8.5279 74.4865 8.53455C74.7525 8.53434 75.018 8.55693 75.2802 8.60209C75.5486 8.64957 75.8138 8.71442 76.0738 8.79627C76.1566 8.82217 76.2427 8.85652 76.3271 8.88804V14.037C76.2531 14.0806 76.1772 14.1262 76.1076 14.1662Z" fill="#015F88"/>
<path d="M87.9958 7.36939H85.8849L82.9954 10.544H82.3725V3.23218L80.6501 3.48548V15.9815H82.3725V11.8443H82.4007L85.8509 15.9815H88.0799L83.9838 11.3658L87.9958 7.36939Z" fill="#015F88"/>
<path d="M96.8274 14.9176C96.7039 14.929 96.5796 14.9104 96.4649 14.8634C96.3502 14.8163 96.2486 14.7423 96.1688 14.6475C96.012 14.3769 95.9469 14.063 95.983 13.7525L96.0168 10.2738C96.0206 9.90914 95.975 9.54562 95.8814 9.19312C95.7995 8.88394 95.6623 8.59215 95.4764 8.33189C95.2884 8.07753 95.0498 7.86481 94.7756 7.7071C94.4569 7.5263 94.1124 7.39532 93.754 7.31871C93.3158 7.22421 92.8683 7.1789 92.42 7.18362C92.0642 7.18347 91.7088 7.20603 91.3559 7.25116C91.0226 7.29308 90.6926 7.35798 90.3683 7.44537C90.0673 7.52699 89.7712 7.62564 89.4814 7.74087L89.2788 9.17621C89.5602 9.07489 89.8277 8.99049 90.0812 8.92294C90.3347 8.8554 90.5794 8.79908 90.8155 8.75405C91.0472 8.70979 91.2813 8.6788 91.5166 8.66119C91.747 8.6443 91.9749 8.63587 92.2002 8.63587C92.5445 8.62859 92.8882 8.66834 93.2218 8.75405C93.4653 8.81499 93.6891 8.93705 93.8722 9.10867C94.035 9.27573 94.1514 9.48235 94.2099 9.70814C94.2817 9.98658 94.3157 10.2734 94.311 10.5609L94.3093 10.9848L92.3356 11.1182C91.6605 11.1372 90.9954 11.2863 90.3767 11.5572C89.9138 11.7598 89.514 12.0836 89.2197 12.4944C88.9703 12.8601 88.8379 13.2929 88.8401 13.7356C88.8368 14.151 88.9384 14.5605 89.1355 14.9261C89.3419 15.3018 89.6527 15.6097 90.0303 15.8126C90.4911 16.0522 91.006 16.1685 91.525 16.1503C92.0111 16.1615 92.4951 16.0814 92.9516 15.9139C93.3465 15.7594 93.7079 15.53 94.0158 15.2385C94.1326 15.1264 94.2434 15.0084 94.3479 14.8847C94.3806 15.0595 94.4425 15.2276 94.5308 15.382C94.6811 15.6406 94.9125 15.8424 95.1891 15.9562C95.4949 16.079 95.8222 16.1393 96.1517 16.1335C96.2533 16.1335 96.3514 16.1307 96.4471 16.125C96.5411 16.1197 96.6344 16.1055 96.7257 16.0828C96.8161 16.0603 96.8974 16.0406 96.9709 16.0237C97.037 16.0089 97.1019 15.9891 97.1651 15.9646L97.3506 14.8332C97.2575 14.8652 97.1614 14.8878 97.0638 14.9008C96.9854 14.9112 96.9064 14.9168 96.8274 14.9176ZM94.0158 14.1578C93.8326 14.3024 93.6345 14.427 93.4247 14.5292C93.2157 14.6308 92.9943 14.7046 92.7662 14.7488C92.5296 14.7945 92.2892 14.8171 92.0482 14.8163C91.7731 14.8242 91.4995 14.7723 91.2464 14.6643C91.0403 14.5749 90.8664 14.4247 90.7479 14.2337C90.6312 14.0312 90.5728 13.8004 90.5791 13.5667C90.5627 13.2852 90.6399 13.0061 90.7986 12.773C90.9824 12.5586 91.2314 12.4103 91.5075 12.3509C91.939 12.2493 92.3819 12.2039 92.825 12.2158H94.3034L94.2961 13.8921C94.2103 13.9883 94.1165 14.0772 94.0158 14.1578Z" fill="#015F88"/>
<path d="M104.291 12.0976C104.118 11.9145 103.918 11.758 103.7 11.6333C103.473 11.5035 103.236 11.3933 102.99 11.304C102.81 11.2477 102.633 11.1886 102.458 11.1266C102.284 11.0647 102.109 11.0084 101.935 10.9578C101.76 10.9071 101.591 10.8536 101.428 10.7973C101.275 10.7454 101.126 10.6834 100.981 10.6116C100.842 10.538 100.709 10.4532 100.584 10.3583C100.468 10.2711 100.371 10.1621 100.297 10.0375C100.222 9.90946 100.184 9.76344 100.187 9.6153C100.182 9.4525 100.223 9.29167 100.305 9.15092C100.394 9.01267 100.516 8.89929 100.66 8.82162C100.837 8.72467 101.028 8.65629 101.226 8.61899C101.473 8.57151 101.725 8.54888 101.977 8.55145C102.101 8.55145 102.236 8.55737 102.382 8.56835C102.529 8.57933 102.689 8.59958 102.864 8.62744C103.038 8.6553 103.212 8.69246 103.387 8.73721C103.561 8.78196 103.739 8.83291 103.919 8.8892C104.086 8.94062 104.25 9.00264 104.409 9.07492L104.527 7.70712C104.313 7.61744 104.102 7.53864 103.894 7.47072C103.686 7.40348 103.474 7.34712 103.261 7.30186C103.052 7.25775 102.84 7.22671 102.627 7.20897C102.419 7.19208 102.213 7.18365 102.011 7.18365C101.544 7.17887 101.079 7.23276 100.626 7.34405C100.239 7.43842 99.8705 7.59835 99.5371 7.81689C99.2348 8.01683 98.9881 8.2898 98.8194 8.61054C98.6429 8.96401 98.5559 9.35544 98.5661 9.75039C98.5609 10.0349 98.6068 10.318 98.7015 10.5863C98.7814 10.8115 98.9016 11.0203 99.0561 11.2026C99.2061 11.375 99.3795 11.5256 99.5711 11.6501C99.7704 11.7812 99.9826 11.8916 100.204 11.9794C100.328 12.0248 100.457 12.0699 100.593 12.1145C100.728 12.1598 100.86 12.202 100.99 12.2411C101.119 12.2803 101.245 12.32 101.369 12.3594C101.493 12.3988 101.614 12.4382 101.732 12.4776C101.85 12.517 101.966 12.5535 102.079 12.5873C102.23 12.6408 102.376 12.7058 102.518 12.7815C102.641 12.8471 102.758 12.9264 102.864 13.0179C102.957 13.0996 103.032 13.2004 103.083 13.3135C103.135 13.4304 103.161 13.5571 103.16 13.6849C103.166 13.8098 103.144 13.9345 103.095 14.0499C103.047 14.1653 102.974 14.2684 102.881 14.352C102.672 14.5266 102.422 14.6457 102.154 14.6981C101.841 14.7673 101.521 14.8013 101.201 14.7995C101 14.7982 100.8 14.7841 100.601 14.7572C100.382 14.7295 100.151 14.6901 99.9089 14.639C99.6668 14.588 99.4191 14.5261 99.1656 14.4533C98.9125 14.3805 98.6565 14.2989 98.3975 14.2084L98.4651 15.6438C98.7574 15.7451 99.0247 15.8267 99.2672 15.8886C99.5096 15.9506 99.7403 16.004 99.9595 16.0491C100.171 16.0931 100.386 16.1213 100.601 16.1335C100.809 16.1448 101.02 16.1504 101.234 16.1504C101.705 16.1528 102.175 16.1046 102.636 16.0068C103.041 15.9245 103.43 15.7732 103.784 15.5594C104.103 15.3644 104.368 15.0912 104.553 14.7657C104.746 14.4084 104.842 14.0066 104.831 13.6005C104.838 13.3042 104.789 13.0092 104.687 12.7308C104.597 12.4964 104.462 12.2815 104.291 12.0976Z" fill="#015F88"/>
<path d="M111.34 14.6221L111.053 14.6728C110.961 14.6892 110.867 14.7005 110.774 14.7066C110.684 14.7125 110.599 14.715 110.521 14.715C110.262 14.7221 110.005 14.6701 109.769 14.563C109.566 14.4671 109.398 14.3108 109.288 14.1155C109.17 13.8953 109.111 13.6478 109.119 13.3978V8.72029H111.5L111.686 7.36939H109.119V4.70133L107.397 5.30922V7.36939H106.096L105.911 8.72029H107.397V13.7525C107.389 14.0881 107.441 14.4225 107.549 14.7403C107.636 14.9918 107.77 15.2241 107.946 15.4242C108.106 15.6026 108.302 15.7463 108.52 15.8464C108.743 15.949 108.978 16.0227 109.22 16.0659C109.46 16.1102 109.703 16.1328 109.946 16.1335C110.127 16.1335 110.304 16.1278 110.479 16.1166C110.654 16.1053 110.813 16.0885 110.96 16.0659C111.106 16.0434 111.244 16.0181 111.373 15.9899C111.503 15.9618 111.613 15.9368 111.703 15.914L111.804 14.5124C111.738 14.5377 111.671 14.5575 111.602 14.5715C111.523 14.5884 111.436 14.6053 111.34 14.6221Z" fill="#015F88"/>
<path d="M113.595 15.9815H115.318V7.20053L113.595 7.4538V15.9815Z" fill="#015F88"/>
<path d="M115.073 3.66279C114.898 3.5557 114.696 3.50012 114.49 3.50238C114.282 3.5008 114.078 3.55627 113.899 3.66279C113.723 3.76592 113.576 3.91093 113.469 4.08495C113.362 4.26017 113.306 4.46211 113.308 4.66756C113.307 4.87558 113.362 5.08005 113.469 5.25858C113.572 5.43525 113.721 5.58104 113.899 5.68074C114.08 5.7821 114.283 5.83447 114.49 5.83269C114.695 5.83513 114.896 5.78266 115.073 5.68074C115.246 5.58022 115.39 5.43428 115.487 5.25858C115.588 5.07818 115.64 4.87444 115.639 4.66756C115.641 4.46327 115.588 4.26208 115.487 4.08495C115.386 3.91182 115.244 3.76667 115.073 3.66279Z" fill="#015F88"/>
<path d="M124.571 7.53824C124.07 7.28491 123.512 7.1629 122.95 7.18362C122.46 7.18454 121.973 7.26146 121.506 7.41161C121.025 7.56486 120.568 7.78361 120.147 8.06172C119.984 8.16895 119.827 8.28686 119.674 8.40816V7.20053L117.952 7.45379V15.9815H119.674V9.56828C119.841 9.47049 120.013 9.38189 120.189 9.30289C120.426 9.19782 120.669 9.10483 120.915 9.02426C121.153 8.94684 121.395 8.88757 121.641 8.84695C121.873 8.80853 122.107 8.78874 122.342 8.78783C122.618 8.78143 122.892 8.82434 123.153 8.91449C123.368 8.99186 123.559 9.1226 123.71 9.29443C123.865 9.4806 123.975 9.70027 124.031 9.93613C124.103 10.2346 124.137 10.541 124.132 10.848V15.9815H125.854V10.4934C125.877 9.85323 125.768 9.21525 125.534 8.61897C125.343 8.16114 125.004 7.7806 124.571 7.53824Z" fill="#015F88"/>
<path d="M133.816 7.40315C133.558 7.33251 133.296 7.2789 133.031 7.24271C132.729 7.20209 132.424 7.18235 132.119 7.18362C131.568 7.18136 131.023 7.29049 130.515 7.50447C130.006 7.7199 129.545 8.03252 129.156 8.42479C128.741 8.84786 128.422 9.35444 128.219 9.91077C127.983 10.5628 127.868 11.2524 127.881 11.9456C127.862 12.7082 128.009 13.4658 128.311 14.1662C128.576 14.7653 129.014 15.2712 129.569 15.6184C130.177 15.9768 130.874 16.1555 131.579 16.1335C132.198 16.1313 132.811 16.0109 133.385 15.7789C133.729 15.6392 134.052 15.4554 134.348 15.2323V15.6944C134.355 16.0749 134.301 16.454 134.188 16.8174C134.09 17.1222 133.923 17.3998 133.698 17.6279C133.456 17.8603 133.16 18.0286 132.837 18.1176C132.416 18.2332 131.981 18.2872 131.545 18.2781C131.198 18.2775 130.851 18.2578 130.507 18.2189C130.145 18.1782 129.786 18.1104 129.434 18.0163C129.072 17.9198 128.716 17.7985 128.37 17.6532L128.556 19.1393C128.867 19.2653 129.185 19.3697 129.51 19.4516C129.852 19.5379 130.199 19.6028 130.549 19.6459C130.918 19.6913 131.291 19.7139 131.663 19.7134C132.494 19.7394 133.32 19.5748 134.078 19.2322C134.693 18.9457 135.208 18.4808 135.555 17.8981C135.896 17.2991 136.068 16.6195 136.054 15.9308V7.18362L134.402 7.60887C134.211 7.52814 134.016 7.45944 133.816 7.40315ZM134.129 14.1662C133.92 14.2879 133.702 14.3951 133.479 14.487C133.282 14.568 133.078 14.633 132.871 14.6812C132.669 14.727 132.462 14.7496 132.255 14.7488C131.747 14.7671 131.244 14.6537 130.794 14.4195C130.401 14.1955 130.097 13.8439 129.933 13.4232C129.729 12.8755 129.634 12.2932 129.654 11.7092C129.646 11.2431 129.712 10.7787 129.848 10.3329C129.959 9.96659 130.149 9.62929 130.405 9.3451C130.655 9.0811 130.961 8.87628 131.3 8.74563C131.686 8.59953 132.096 8.5279 132.508 8.53455C132.774 8.53432 133.039 8.55692 133.301 8.60209C133.57 8.6496 133.835 8.71445 134.095 8.79627C134.178 8.82217 134.264 8.85652 134.349 8.88804V14.037C134.274 14.0806 134.198 14.1262 134.129 14.1662Z" fill="#015F88"/>
<path d="M144.007 12.0976C143.834 11.9144 143.635 11.7579 143.416 11.6333C143.189 11.5035 142.952 11.3933 142.707 11.304C142.527 11.2477 142.349 11.1886 142.175 11.1266C142 11.0647 141.826 11.0084 141.651 10.9578C141.477 10.9071 141.308 10.8536 141.145 10.7973C140.991 10.7455 140.842 10.6834 140.697 10.6116C140.558 10.538 140.425 10.4533 140.3 10.3583C140.185 10.2711 140.087 10.1621 140.013 10.0375C139.939 9.90946 139.9 9.76344 139.903 9.6153C139.899 9.4525 139.94 9.29167 140.022 9.15092C140.11 9.0128 140.232 8.89945 140.376 8.82162C140.553 8.72476 140.744 8.65638 140.942 8.61899C141.19 8.5715 141.441 8.54888 141.693 8.55145C141.817 8.55145 141.952 8.55737 142.099 8.56835C142.245 8.57933 142.405 8.59958 142.58 8.62744C142.755 8.6553 142.929 8.69246 143.103 8.73721C143.278 8.78196 143.455 8.83291 143.635 8.8892C143.802 8.94061 143.966 9.00263 144.125 9.07492L144.243 7.70712C144.029 7.61744 143.818 7.53864 143.61 7.47072C143.402 7.40346 143.191 7.3471 142.977 7.30186C142.768 7.2577 142.556 7.22666 142.344 7.20896C142.135 7.19208 141.93 7.18364 141.727 7.18364C141.261 7.17888 140.795 7.23276 140.342 7.34405C139.955 7.4384 139.587 7.59833 139.253 7.81689C138.951 8.01691 138.704 8.28986 138.536 8.61054C138.359 8.96401 138.272 9.35543 138.282 9.75039C138.277 10.0349 138.323 10.3179 138.417 10.5863C138.497 10.8115 138.617 11.0203 138.772 11.2026C138.922 11.375 139.095 11.5256 139.287 11.6501C139.486 11.7812 139.699 11.8916 139.92 11.9794C140.044 12.0248 140.173 12.0699 140.309 12.1145C140.444 12.1592 140.576 12.2014 140.706 12.2411C140.835 12.2807 140.961 12.3201 141.085 12.3594C141.209 12.399 141.33 12.4382 141.449 12.4776C141.567 12.517 141.682 12.5535 141.795 12.5873C141.946 12.6408 142.093 12.7058 142.234 12.7815C142.358 12.8472 142.474 12.9265 142.58 13.0179C142.673 13.0996 142.748 13.2004 142.799 13.3135C142.851 13.4304 142.877 13.5571 142.875 13.6849C142.881 13.8098 142.86 13.9345 142.811 14.0499C142.763 14.1653 142.69 14.2685 142.597 14.352C142.388 14.5266 142.138 14.6457 141.871 14.6981C141.557 14.7673 141.237 14.8013 140.917 14.7995C140.716 14.7982 140.516 14.7841 140.317 14.7572C140.098 14.7295 139.867 14.6901 139.625 14.639C139.383 14.588 139.135 14.5261 138.882 14.4533C138.628 14.3805 138.372 14.2989 138.113 14.2084L138.181 15.6438C138.474 15.7451 138.741 15.8267 138.983 15.8886C139.225 15.9506 139.456 16.004 139.675 16.0491C139.887 16.0931 140.101 16.1213 140.317 16.1335C140.525 16.1448 140.736 16.1504 140.95 16.1504C141.421 16.1528 141.891 16.1046 142.352 16.0068C142.758 15.9245 143.146 15.7731 143.5 15.5594C143.82 15.3643 144.084 15.0911 144.269 14.7657C144.462 14.4084 144.558 14.0066 144.547 13.6005C144.554 13.3042 144.505 13.0092 144.404 12.7308C144.313 12.4965 144.178 12.2816 144.007 12.0976Z" fill="#015F88"/>
<path d="M152.729 7.7254C152.026 7.35162 151.238 7.1655 150.441 7.18502C149.637 7.16673 148.843 7.35882 148.136 7.74227C147.484 8.10751 146.95 8.65265 146.599 9.3127C146.218 10.0533 146.029 10.8779 146.05 11.7106C146.029 12.5368 146.206 13.3561 146.565 14.1C146.889 14.7495 147.405 15.2832 148.043 15.6283C148.73 15.9883 149.497 16.1683 150.272 16.1517C151.084 16.1679 151.886 15.976 152.603 15.5945C153.272 15.2295 153.82 14.6781 154.182 14.0072C154.574 13.2578 154.768 12.421 154.747 11.5755C154.767 10.7702 154.587 9.97264 154.223 9.25361C153.887 8.60796 153.367 8.07626 152.729 7.7254ZM152.628 13.3824C152.438 13.8212 152.117 14.1901 151.708 14.4378C151.297 14.6729 150.83 14.7925 150.357 14.7839C149.893 14.7955 149.435 14.6724 149.04 14.4293C148.648 14.1693 148.343 13.7991 148.161 13.3655C147.932 12.8093 147.822 12.2108 147.841 11.6093C147.821 11.0241 147.93 10.4417 148.161 9.90376C148.351 9.48095 148.666 9.12704 149.065 8.89054C149.491 8.65607 149.972 8.5395 150.458 8.55282C150.838 8.54337 151.215 8.61534 151.564 8.7639C151.87 8.90196 152.137 9.11375 152.341 9.38028C152.559 9.66996 152.716 10 152.805 10.3512C152.911 10.7621 152.962 11.1851 152.957 11.6093C152.977 12.2172 152.864 12.8222 152.627 13.3824H152.628Z" fill="#015F88"/>
<path d="M160.37 7.31026C160.054 7.39492 159.752 7.5258 159.475 7.69866C159.187 7.87864 158.921 8.09112 158.681 8.3319C158.641 8.37186 158.603 8.41636 158.563 8.45829V7.20053L156.841 7.4538V15.9815H158.563V9.60206C158.691 9.51264 158.823 9.42968 158.96 9.35353C159.129 9.26053 159.304 9.17874 159.484 9.10868C159.658 9.04113 159.835 8.98203 160.015 8.93137C160.201 8.87985 160.39 8.84315 160.581 8.8216C160.786 8.79915 160.992 8.79352 161.198 8.80474L161.4 7.2174C161.054 7.19269 160.706 7.22404 160.37 7.31026Z" fill="#015F88"/>
<path d="M170.316 7.36939H168.205L165.316 10.544H164.693V3.23218L162.97 3.48548V15.9815H164.693V11.8443H164.721L168.171 15.9815H170.4L166.304 11.3658L170.316 7.36939Z" fill="#015F88"/>
<path d="M178.371 8.45858C178.047 8.03844 177.619 7.70968 177.13 7.50449C176.586 7.28253 176.003 7.17337 175.416 7.18364C174.824 7.17364 174.237 7.28872 173.693 7.52136C173.199 7.73798 172.757 8.06086 172.401 8.46703C172.035 8.89372 171.759 9.39073 171.591 9.9277C171.398 10.5423 171.304 11.1835 171.312 11.8274C171.288 12.6411 171.459 13.4488 171.81 14.1831C172.131 14.8197 172.65 15.3351 173.288 15.6522C174.037 16.0051 174.859 16.1758 175.686 16.1504C176.084 16.1538 176.482 16.1284 176.876 16.0744C177.206 16.0269 177.531 15.9506 177.847 15.8464C178.161 15.7411 178.466 15.6112 178.759 15.458L178.877 14.1578C178.663 14.237 178.447 14.3157 178.227 14.3942C178.008 14.4726 177.78 14.543 177.543 14.6053C177.305 14.6677 177.062 14.7128 176.817 14.7403C176.571 14.7686 176.323 14.7827 176.074 14.7826C175.631 14.7899 175.188 14.7416 174.757 14.639C174.409 14.5558 174.087 14.3876 173.82 14.1493C173.55 13.8924 173.352 13.5693 173.246 13.2121C173.135 12.8504 173.074 12.4756 173.062 12.0976H179.164C179.247 11.3992 179.216 10.692 179.071 10.0037C178.953 9.44395 178.714 8.91673 178.371 8.45858ZM174.115 8.86384C174.512 8.62327 174.969 8.50301 175.433 8.51767C175.896 8.49451 176.355 8.62835 176.733 8.89761C177.069 9.166 177.309 9.53641 177.416 9.95302C177.501 10.261 177.542 10.5793 177.54 10.8987H173.099C173.13 10.5619 173.202 10.2302 173.313 9.91079C173.458 9.48277 173.74 9.11463 174.115 8.86384Z" fill="#015F88"/>
<path d="M186.611 12.0976C186.438 11.9144 186.239 11.7579 186.02 11.6333C185.793 11.5035 185.556 11.3933 185.31 11.304C185.13 11.2477 184.953 11.1886 184.779 11.1266C184.604 11.0647 184.43 11.0084 184.255 10.9578C184.08 10.9071 183.912 10.8536 183.748 10.7973C183.595 10.7454 183.446 10.6834 183.301 10.6116C183.162 10.538 183.029 10.4533 182.904 10.3583C182.788 10.2711 182.691 10.1621 182.617 10.0375C182.543 9.90946 182.505 9.76344 182.507 9.6153C182.503 9.4525 182.544 9.29167 182.626 9.15092C182.714 9.01274 182.836 8.89938 182.98 8.82162C183.157 8.72471 183.348 8.65633 183.546 8.61899C183.794 8.5715 184.045 8.54888 184.297 8.55145C184.421 8.55145 184.556 8.55737 184.703 8.56835C184.849 8.57933 185.009 8.59958 185.184 8.62744C185.359 8.6553 185.533 8.69246 185.707 8.73721C185.882 8.78196 186.059 8.83291 186.239 8.8892C186.406 8.94063 186.57 9.00265 186.729 9.07492L186.847 7.70712C186.633 7.61744 186.422 7.53864 186.214 7.47072C186.006 7.40346 185.795 7.3471 185.581 7.30186C185.372 7.25774 185.16 7.2267 184.948 7.20896C184.739 7.19208 184.534 7.18364 184.331 7.18364C183.865 7.17888 183.4 7.23276 182.947 7.34405C182.559 7.4384 182.191 7.59833 181.857 7.81689C181.555 8.01691 181.308 8.28986 181.14 8.61054C180.963 8.96401 180.876 9.35543 180.886 9.75039C180.881 10.0349 180.927 10.3179 181.021 10.5863C181.101 10.8115 181.222 11.0203 181.376 11.2026C181.526 11.375 181.699 11.5256 181.891 11.6501C182.09 11.7812 182.303 11.8915 182.524 11.9794C182.648 12.0248 182.777 12.0699 182.913 12.1145C183.048 12.1592 183.18 12.2014 183.31 12.2411C183.439 12.2807 183.565 12.3201 183.69 12.3594C183.813 12.399 183.934 12.4382 184.053 12.4776C184.171 12.517 184.286 12.5535 184.399 12.5873C184.55 12.6408 184.697 12.7058 184.838 12.7815C184.962 12.8472 185.078 12.9265 185.184 13.0179C185.277 13.0996 185.352 13.2004 185.403 13.3135C185.455 13.4304 185.481 13.5571 185.479 13.6849C185.486 13.8098 185.464 13.9345 185.415 14.0499C185.367 14.1653 185.294 14.2685 185.201 14.352C184.992 14.5266 184.742 14.6456 184.475 14.6981C184.162 14.7673 183.841 14.8013 183.521 14.7995C183.32 14.7982 183.12 14.7841 182.921 14.7572C182.702 14.7295 182.471 14.6901 182.229 14.639C181.987 14.588 181.739 14.5261 181.486 14.4533C181.233 14.3805 180.977 14.2989 180.718 14.2084L180.785 15.6438C181.078 15.7451 181.345 15.8267 181.587 15.8886C181.829 15.9506 182.06 16.004 182.28 16.0491C182.491 16.0931 182.706 16.1213 182.921 16.1335C183.129 16.1448 183.34 16.1504 183.554 16.1504C184.025 16.1528 184.495 16.1046 184.956 16.0068C185.362 15.9244 185.75 15.7731 186.104 15.5594C186.424 15.3642 186.688 15.0911 186.873 14.7657C187.066 14.4084 187.162 14.0066 187.151 13.6005C187.158 13.3042 187.109 13.0092 187.008 12.7308C186.917 12.4965 186.782 12.2816 186.611 12.0976Z" fill="#015F88"/>
<path d="M193.661 14.6221L193.374 14.6728C193.282 14.6892 193.189 14.7005 193.096 14.7066C193.006 14.7125 192.921 14.715 192.842 14.715C192.584 14.7221 192.327 14.6701 192.091 14.563C191.888 14.467 191.72 14.3107 191.61 14.1155C191.491 13.8953 191.433 13.6477 191.441 13.3978V8.72029H193.822L194.007 7.36939H191.441V4.70133L189.718 5.30922V7.36939H188.418L188.232 8.72029H189.718V13.7525C189.71 14.0881 189.762 14.4225 189.87 14.7403C189.957 14.9917 190.092 15.224 190.267 15.4242C190.428 15.6027 190.623 15.7463 190.841 15.8464C191.064 15.949 191.3 16.0227 191.542 16.0659C191.781 16.1102 192.024 16.1328 192.268 16.1335C192.448 16.1335 192.625 16.1278 192.8 16.1166C192.975 16.1053 193.135 16.0885 193.281 16.0659C193.427 16.0431 193.565 16.0181 193.695 15.9899C193.824 15.9618 193.934 15.9368 194.024 15.914L194.126 14.5124C194.06 14.5377 193.992 14.5574 193.923 14.5715C193.844 14.5884 193.757 14.6053 193.661 14.6221Z" fill="#015F88"/>
<path d="M199.445 7.31026C199.129 7.39491 198.827 7.52579 198.55 7.69866C198.262 7.87863 197.995 8.0911 197.756 8.3319C197.716 8.37186 197.677 8.41636 197.638 8.45829V7.20053L195.915 7.4538V15.9815H197.638V9.60206C197.766 9.5126 197.898 9.42965 198.035 9.35353C198.204 9.2605 198.379 9.17871 198.558 9.10868C198.733 9.04113 198.91 8.98203 199.09 8.93137C199.275 8.87985 199.465 8.84315 199.656 8.8216C199.86 8.79914 200.066 8.79351 200.272 8.80474L200.475 7.2174C200.129 7.19269 199.781 7.22404 199.445 7.31026Z" fill="#015F88"/>
<path d="M208.58 8.45858C208.256 8.03844 207.828 7.70968 207.339 7.50449C206.795 7.28253 206.212 7.17337 205.625 7.18364C205.034 7.17362 204.447 7.2887 203.903 7.52136C203.408 7.73798 202.967 8.06086 202.611 8.46703C202.244 8.89375 201.968 9.39075 201.8 9.9277C201.608 10.5423 201.514 11.1835 201.522 11.8274C201.498 12.6411 201.668 13.4487 202.02 14.1831C202.34 14.8196 202.859 15.335 203.497 15.6522C204.246 16.0051 205.068 16.1758 205.895 16.1504C206.293 16.1538 206.691 16.1284 207.085 16.0744C207.415 16.0269 207.74 15.9507 208.057 15.8464C208.37 15.7411 208.675 15.6112 208.969 15.458L209.087 14.1578C208.873 14.237 208.656 14.3157 208.436 14.3942C208.217 14.4726 207.989 14.543 207.753 14.6053C207.514 14.6677 207.271 14.7128 207.026 14.7403C206.78 14.7686 206.532 14.7827 206.284 14.7826C205.84 14.7899 205.398 14.7417 204.966 14.639C204.618 14.5559 204.296 14.3877 204.029 14.1493C203.759 13.8924 203.561 13.5693 203.455 13.2121C203.345 12.8504 203.283 12.4756 203.271 12.0976H209.374C209.457 11.3992 209.425 10.692 209.281 10.0037C209.162 9.44395 208.923 8.91673 208.58 8.45858ZM204.325 8.86384C204.721 8.62327 205.179 8.50301 205.642 8.51767C206.106 8.49453 206.564 8.62837 206.942 8.89761C207.278 9.16609 207.518 9.53646 207.626 9.95302C207.71 10.2611 207.752 10.5793 207.749 10.8987H203.308C203.34 10.5619 203.411 10.2302 203.522 9.91079C203.667 9.4827 203.949 9.11454 204.325 8.86384Z" fill="#015F88"/>
<path d="M216.213 14.5715C216.134 14.5884 216.046 14.6053 215.951 14.6221L215.664 14.6728C215.572 14.6892 215.479 14.7005 215.385 14.7066C215.295 14.7125 215.211 14.715 215.132 14.715C214.873 14.7221 214.616 14.6701 214.381 14.563C214.178 14.467 214.01 14.3107 213.899 14.1155C213.781 13.8953 213.723 13.6477 213.731 13.3978V8.72029H216.112L216.297 7.36939H213.731V4.70133L212.008 5.30922V7.36939H210.708L210.522 8.72029H212.008V13.7525C212 14.0881 212.052 14.4225 212.16 14.7403C212.247 14.9918 212.382 15.224 212.557 15.4242C212.718 15.6026 212.913 15.7462 213.131 15.8464C213.354 15.949 213.59 16.0227 213.832 16.0659C214.071 16.1102 214.314 16.1328 214.558 16.1335C214.738 16.1335 214.915 16.1278 215.09 16.1166C215.265 16.1053 215.425 16.0885 215.571 16.0659C215.717 16.0431 215.856 16.0181 215.985 15.9899C216.114 15.9618 216.224 15.9368 216.314 15.914L216.416 14.5124C216.35 14.5377 216.282 14.5575 216.213 14.5715Z" fill="#015F88"/>
</svg>
