<svg xmlns="http://www.w3.org/2000/svg" viewBox="0 0 113 48"><path fill="#0A2343" d="M0 12.857V.858h3.937v12H0ZM9.294 2.768l2.264 10.09H7.25l-2.704-12h2.417a2.276 2.276 0 0 1 1.513.55c.42.346.71.826.819 1.36Zm2.855 10.09v-12h3.938v12h-3.938Zm6.912-7.437a2.382 2.382 0 0 1-2.4-2.4 2.301 2.301 0 0 1 .321-1.2A2.41 2.41 0 0 1 20.26.96c.356.21.653.506.862.862.215.363.326.778.321 1.2a2.35 2.35 0 0 1-.321 1.208 2.4 2.4 0 0 1-.862.87 2.302 2.302 0 0 1-1.2.321Zm2.99 7.436V.858h3.938v12h-3.937Zm8.923-5.442c.01.012.095.15.253.414.158.265.364.603.617 1.014a312.736 312.736 0 0 1 1.597 2.62c.247.411.529.876.845 1.394H29.96c-.27-.44-.516-.836-.736-1.191-.22-.355-.453-.738-.7-1.15-.248-.41-.493-.81-.736-1.2-.242-.388-.45-.73-.625-1.022-.175-.293-.296-.49-.363-.591a1.747 1.747 0 0 1-.287-.845c.016-.29.11-.57.27-.812.067-.112.191-.312.371-.6a182.106 182.106 0 0 0 1.37-2.23l.7-1.158.736-1.2h4.326L30.94 6.317a1.08 1.08 0 0 0-.17.54c.012.202.082.396.203.558Z"/><path fill="#015F88" d="M9.094 18.002h-2.11l-4.582 5.28h-.63v-5.28H.001v11.977h1.771v-5.415h.06l4.984 5.432 2.412-.017-5.719-5.938 5.585-6.04ZM14.104 21.317a3.314 3.314 0 0 0-.894.388 4.4 4.4 0 0 0-.793.632c-.04.04-.079.085-.118.127v-1.257l-1.721.253v8.52h1.72v-6.374a4.39 4.39 0 0 1 .92-.493 5.85 5.85 0 0 1 .531-.177 3.622 3.622 0 0 1 1.181-.126l.203-1.586a3.211 3.211 0 0 0-1.03.093ZM16.701 29.98h1.72v-8.773l-1.72.253v8.52ZM17.005 19.689c.18.101.384.153.59.151.204.003.405-.05.582-.151.174-.1.317-.247.414-.422.1-.18.153-.384.151-.59a1.14 1.14 0 0 0-.151-.582 1.191 1.191 0 0 0-.414-.422 1.092 1.092 0 0 0-.582-.16 1.136 1.136 0 0 0-.59.16 1.238 1.238 0 0 0-.43.422 1.089 1.089 0 0 0-.16.582c-.002.207.053.412.16.59.103.176.252.322.43.422ZM25.44 22.793c.275-.007.55.036.81.126.215.078.406.208.556.38.155.186.265.405.321.64.072.299.106.605.101.912v5.128h1.72v-5.482a4.674 4.674 0 0 0-.32-1.873 2.21 2.21 0 0 0-.961-1.08 3.319 3.319 0 0 0-1.62-.354c-.49.001-.976.078-1.442.228-.48.153-.937.371-1.358.65-.163.106-.32.224-.472.345v-1.206l-1.721.253v8.52h1.72v-6.408c.167-.097.339-.186.515-.265.237-.105.48-.198.726-.278.236-.078.479-.137.725-.177.231-.039.466-.058.7-.06ZM37.84 33.227c.615-.287.453-.751.8-1.333.34-.598.512-1.277.498-1.965V21.19l-1.65.425c-.19-.081-.386-.15-.585-.206a6.111 6.111 0 0 0-.785-.16 6.592 6.592 0 0 0-.91-.059 4.08 4.08 0 0 0-1.603.32 4.24 4.24 0 0 0-1.358.92 4.162 4.162 0 0 0-.937 1.485 5.684 5.684 0 0 0-.337 2.032 5.28 5.28 0 0 0 .43 2.219 3.271 3.271 0 0 0 1.257 1.45 3.723 3.723 0 0 0 2.008.515 4.867 4.867 0 0 0 1.805-.354 4.29 4.29 0 0 0 .96-.547v.462a3.56 3.56 0 0 1-.16 1.122 2.04 2.04 0 0 1-.488.81c-.242.232-.538.4-.861.49a4.51 4.51 0 0 1-1.29.16 9.39 9.39 0 0 1-1.038-.06 7.397 7.397 0 0 1-1.071-.202 8.22 8.22 0 0 1-1.063-.363l.862 1.485c.31.126.629.23.954.312.341.086.687.151 1.037.194.37.045.741.068 1.113.068a5.442 5.442 0 0 0 2.413-.481Zm-.626-5.061a5.35 5.35 0 0 1-.649.32c-.197.081-.4.146-.607.194a2.759 2.759 0 0 1-.616.068 2.932 2.932 0 0 1-1.459-.33 1.974 1.974 0 0 1-.86-.994 4.485 4.485 0 0 1-.279-1.713c-.007-.465.058-.93.194-1.375.11-.366.3-.703.557-.987.25-.263.555-.468.894-.599a3.251 3.251 0 0 1 1.206-.21c.266 0 .531.022.793.067.268.047.533.112.793.194.083.026.169.06.253.092v5.143c-.074.044-.15.09-.22.13ZM43.473 25.846h.028l3.447 4.133h2.227l-4.092-4.61 4.008-3.993h-2.11l-2.886 3.172h-.622v-7.305l-1.72.253V29.98h1.72v-4.134ZM55.437 28.884c.032.174.094.342.182.496.15.259.382.46.658.574.306.123.633.183.962.177.1 0 .2-.003.295-.008.094-.006.187-.02.278-.043l.245-.059c.066-.015.131-.034.194-.059l.186-1.13c-.094.032-.19.055-.287.068-.079.01-.157.016-.236.016a.769.769 0 0 1-.658-.27 1.452 1.452 0 0 1-.186-.894l.034-3.475a4.055 4.055 0 0 0-.135-1.08 2.654 2.654 0 0 0-.405-.86 2.288 2.288 0 0 0-.7-.624 3.58 3.58 0 0 0-1.02-.388 6.005 6.005 0 0 0-1.334-.135c-.355 0-.71.022-1.062.068a7.297 7.297 0 0 0-.987.194c-.3.081-.596.18-.886.295l-.202 1.434a9.917 9.917 0 0 1 1.535-.422c.231-.044.465-.075.7-.093.23-.017.458-.025.683-.025.344-.007.688.032 1.02.118.244.06.468.183.65.354.163.167.28.374.338.6a3.2 3.2 0 0 1 .1.851l-.001.423-1.972.134a5.24 5.24 0 0 0-1.957.438 2.803 2.803 0 0 0-1.156.937c-.249.365-.381.797-.38 1.24-.002.415.1.824.296 1.189.206.375.517.683.894.886.46.239.975.355 1.493.337.486.011.97-.069 1.426-.236a3.29 3.29 0 0 0 1.062-.675 4.62 4.62 0 0 0 .333-.353Zm-1.58-.136a3.737 3.737 0 0 1-.718.067 1.903 1.903 0 0 1-.8-.152 1.1 1.1 0 0 1-.499-.43 1.261 1.261 0 0 1-.168-.666c-.017-.281.06-.56.219-.793a1.29 1.29 0 0 1 .709-.422 5.136 5.136 0 0 1 1.316-.135h1.477l-.008 1.675c-.086.096-.18.185-.281.265-.183.145-.381.27-.59.371-.209.102-.43.175-.657.22ZM65.632 28.765c.193-.357.289-.758.278-1.164a2.364 2.364 0 0 0-.144-.868 1.978 1.978 0 0 0-.396-.633 2.54 2.54 0 0 0-.59-.464 4.574 4.574 0 0 0-.71-.329 14.76 14.76 0 0 1-.53-.177 9.473 9.473 0 0 0-.523-.169c-.175-.05-.344-.104-.507-.16a3.718 3.718 0 0 1-.447-.185 2.949 2.949 0 0 1-.396-.253 1.107 1.107 0 0 1-.287-.321.813.813 0 0 1-.11-.422.87.87 0 0 1 .119-.464.957.957 0 0 1 .354-.329c.176-.097.367-.165.565-.202.247-.048.499-.07.75-.068a5.34 5.34 0 0 1 .887.076c.174.028.348.065.522.11.175.045.352.096.532.152.167.051.33.113.489.185l.118-1.366a7.995 7.995 0 0 0-.632-.236 6.244 6.244 0 0 0-.633-.169 5.074 5.074 0 0 0-.632-.093 7.667 7.667 0 0 0-.617-.025c-.465-.005-.93.049-1.383.16a3.486 3.486 0 0 0-1.088.473c-.302.2-.548.472-.717.792a2.413 2.413 0 0 0-.253 1.14c-.005.283.04.566.135.834.08.225.2.434.354.616.15.172.324.322.515.447.2.13.411.24.632.329a15.418 15.418 0 0 0 .785.261 31.225 31.225 0 0 1 .742.237c.118.039.233.075.346.11.15.053.298.117.439.193.123.066.24.145.346.236a.87.87 0 0 1 .295.667.84.84 0 0 1-.279.666 1.62 1.62 0 0 1-.725.346 4.31 4.31 0 0 1-.953.101 4.74 4.74 0 0 1-.6-.042 8.533 8.533 0 0 1-.69-.118c-.242-.051-.49-.113-.743-.186a15.155 15.155 0 0 1-.768-.244l.068 1.434c.292.1.56.182.801.244.242.062.473.116.692.16.211.044.425.072.64.085.209.011.42.017.633.017.471.002.94-.046 1.4-.144a3.617 3.617 0 0 0 1.148-.447c.319-.195.583-.468.768-.793ZM72.413 28.621l-.287.05a2.504 2.504 0 0 1-.278.035c-.09.006-.175.008-.253.008a1.701 1.701 0 0 1-.75-.152 1.085 1.085 0 0 1-.482-.447 1.42 1.42 0 0 1-.168-.717v-4.673h2.378l.186-1.35h-2.564V18.71l-1.721.607v2.059h-1.299l-.186 1.35h1.485v5.026c-.008.336.044.67.152.987.087.252.221.483.396.683.16.179.356.322.574.422a2.9 2.9 0 0 0 .7.22c.239.044.482.066.725.067.18 0 .357-.006.532-.017a5.614 5.614 0 0 0 .894-.126 9.86 9.86 0 0 0 .329-.076l.101-1.4a1.24 1.24 0 0 1-.202.059 7.265 7.265 0 0 1-.262.05ZM76.142 17.673a1.092 1.092 0 0 0-.582-.16 1.134 1.134 0 0 0-.59.16 1.238 1.238 0 0 0-.43.422 1.09 1.09 0 0 0-.16.582c-.003.207.053.412.16.59.102.176.251.322.43.422.18.101.383.153.59.151.204.003.405-.05.582-.151.173-.1.316-.247.413-.422.102-.18.154-.384.152-.59a1.138 1.138 0 0 0-.152-.582 1.187 1.187 0 0 0-.413-.422ZM74.665 29.98h1.72v-8.773l-1.72.253v8.52ZM85.63 21.544a3.318 3.318 0 0 0-1.619-.354c-.49.001-.976.078-1.442.228-.48.153-.938.371-1.358.65-.163.106-.32.224-.473.345v-1.206l-1.72.253v8.52h1.72v-6.408c.167-.097.338-.186.515-.265.237-.105.479-.198.725-.278a4.86 4.86 0 0 1 .726-.177 4.36 4.36 0 0 1 .7-.06c.275-.006.55.037.81.127.214.078.406.208.556.38.155.186.265.405.32.64.073.3.106.605.102.912v5.128h1.72v-5.482a4.676 4.676 0 0 0-.32-1.873 2.21 2.21 0 0 0-.962-1.08ZM94.867 21.41a6.09 6.09 0 0 0-.784-.16 6.592 6.592 0 0 0-.911-.06 4.078 4.078 0 0 0-1.603.32c-.508.216-.97.528-1.358.92a4.162 4.162 0 0 0-.936 1.485 5.69 5.69 0 0 0-.338 2.032 5.275 5.275 0 0 0 .43 2.219 3.269 3.269 0 0 0 1.257 1.45 3.723 3.723 0 0 0 2.008.515 4.865 4.865 0 0 0 1.805-.354 4.29 4.29 0 0 0 .961-.547v.462c.007.38-.047.76-.16 1.122a2.036 2.036 0 0 1-.49.81c-.24.232-.537.4-.86.49-.42.115-.855.169-1.29.16a9.39 9.39 0 0 1-1.038-.06 7.4 7.4 0 0 1-1.07-.202 8.213 8.213 0 0 1-1.064-.363l.186 1.485c.31.126.629.23.953.312.341.086.688.151 1.038.194.369.045.74.068 1.113.068a5.442 5.442 0 0 0 2.412-.481 3.384 3.384 0 0 0 1.476-1.333c.34-.598.512-1.277.498-1.965V21.19l-1.65.425c-.19-.08-.386-.15-.585-.206Zm.312 6.756a5.328 5.328 0 0 1-.65.32c-.196.081-.4.146-.607.194a2.76 2.76 0 0 1-.615.068 2.932 2.932 0 0 1-1.46-.33 1.974 1.974 0 0 1-.86-.994 4.485 4.485 0 0 1-.278-1.713c-.008-.465.058-.93.194-1.375.11-.366.3-.703.556-.987a2.43 2.43 0 0 1 .895-.599 3.249 3.249 0 0 1 1.206-.21c.266 0 .53.022.793.067.268.047.533.112.793.194.082.026.168.06.252.092v5.143c-.074.044-.15.09-.22.13ZM105.047 26.1a2.54 2.54 0 0 0-.591-.465 4.55 4.55 0 0 0-.708-.329c-.18-.056-.357-.115-.532-.177a9.102 9.102 0 0 0-.523-.169c-.174-.05-.343-.104-.506-.16a3.708 3.708 0 0 1-.447-.185 2.976 2.976 0 0 1-.396-.253 1.105 1.105 0 0 1-.287-.32.82.82 0 0 1-.11-.423.878.878 0 0 1 .119-.464.958.958 0 0 1 .354-.329c.176-.096.367-.165.565-.202.247-.047.499-.07.751-.067a5.366 5.366 0 0 1 .886.076c.174.028.348.064.522.11.175.044.352.095.532.15.167.052.33.114.489.186l.118-1.366a8.188 8.188 0 0 0-.632-.236 6.199 6.199 0 0 0-.633-.169 5.077 5.077 0 0 0-.633-.093 7.598 7.598 0 0 0-.616-.025c-.466-.005-.93.05-1.383.16a3.481 3.481 0 0 0-1.088.473 2.15 2.15 0 0 0-.717.793 2.41 2.41 0 0 0-.253 1.138c-.005.284.04.567.135.835.08.225.2.434.354.616.15.172.324.323.515.447a3.5 3.5 0 0 0 .633.33 13.163 13.163 0 0 0 .784.26 28.13 28.13 0 0 1 .742.237c.118.04.234.076.346.11.151.053.298.118.439.193.124.066.24.145.346.237a.869.869 0 0 1 .295.666.844.844 0 0 1-.279.666 1.614 1.614 0 0 1-.725.346 4.31 4.31 0 0 1-.953.101c-.2-.001-.4-.015-.599-.042a8.546 8.546 0 0 1-.691-.118 10.7 10.7 0 0 1-.743-.186 15.074 15.074 0 0 1-.767-.244l.067 1.434c.292.101.56.183.801.245.242.061.473.115.692.16.211.043.426.072.641.084.208.011.419.017.633.017.47.002.94-.046 1.4-.143a3.615 3.615 0 0 0 1.147-.447c.319-.195.583-.468.768-.793.193-.357.289-.759.278-1.164a2.381 2.381 0 0 0-.143-.87 1.983 1.983 0 0 0-.397-.632ZM107.375 24.497l-.118 1.383h4.774l.118-1.383h-4.774ZM6.675 38.895a4.628 4.628 0 0 0-2.286-.54 4.608 4.608 0 0 0-2.303.557 3.889 3.889 0 0 0-1.535 1.57 4.958 4.958 0 0 0-.549 2.395 5.173 5.173 0 0 0 .515 2.387 3.52 3.52 0 0 0 1.476 1.526 4.59 4.59 0 0 0 2.227.523 4.752 4.752 0 0 0 2.328-.556 3.93 3.93 0 0 0 1.577-1.586 4.973 4.973 0 0 0 .565-2.43 4.886 4.886 0 0 0-.523-2.319 3.685 3.685 0 0 0-1.492-1.527Zm-.102 5.652c-.19.438-.51.807-.92 1.054-.41.235-.876.355-1.349.346a2.397 2.397 0 0 1-1.315-.354 2.375 2.375 0 0 1-.878-1.063 4.259 4.259 0 0 1-.32-1.755c-.02-.584.09-1.166.32-1.703.19-.423.505-.776.903-1.013.426-.234.906-.35 1.392-.337.379-.01.756.063 1.105.21.305.139.572.35.776.617.217.29.375.619.463.97.106.41.157.833.152 1.257a4.204 4.204 0 0 1-.329 1.77ZM14.308 38.482a3.313 3.313 0 0 0-.894.388c-.288.18-.554.392-.793.633-.04.04-.079.084-.118.126v-1.256l-1.721.253v8.519h1.72V40.77a4.385 4.385 0 0 1 .92-.493c.174-.067.351-.126.532-.176a3.618 3.618 0 0 1 1.18-.127l.203-1.586a3.208 3.208 0 0 0-1.03.093ZM24.244 38.541h-2.109l-2.886 3.173h-.623v-7.305l-1.72.253v12.484h1.72v-4.133h.028l3.447 4.133h2.227l-4.092-4.611 4.008-3.994ZM32.29 39.63a3.06 3.06 0 0 0-1.239-.954 4.326 4.326 0 0 0-1.712-.32 4.195 4.195 0 0 0-1.721.337 3.677 3.677 0 0 0-1.29.945 4.143 4.143 0 0 0-.81 1.459 6.096 6.096 0 0 0-.279 1.898c-.024.813.147 1.62.498 2.353.32.636.838 1.151 1.476 1.468a5.245 5.245 0 0 0 2.396.497c.397.004.795-.022 1.189-.076a5.694 5.694 0 0 0 1.88-.615l.119-1.3c-.214.08-.43.158-.65.237a8.12 8.12 0 0 1-.683.21c-.238.063-.48.108-.725.136a6.553 6.553 0 0 1-.742.042 5.32 5.32 0 0 1-1.317-.143 2.163 2.163 0 0 1-.936-.49 2.136 2.136 0 0 1-.573-.936 4.288 4.288 0 0 1-.184-1.113h6.097a6.463 6.463 0 0 0-.093-2.092 3.942 3.942 0 0 0-.7-1.544Zm-4.25.404a2.39 2.39 0 0 1 1.316-.346c.463-.023.92.11 1.298.38.337.268.576.638.684 1.054.084.308.125.626.123.945h-4.437c.031-.337.103-.668.214-.987.144-.428.426-.795.802-1.046ZM40.523 43.265a2.535 2.535 0 0 0-.59-.464 4.58 4.58 0 0 0-.709-.33c-.18-.055-.357-.114-.531-.176a9.482 9.482 0 0 0-.523-.169c-.175-.05-.343-.104-.507-.16a3.685 3.685 0 0 1-.446-.186 2.93 2.93 0 0 1-.397-.253 1.105 1.105 0 0 1-.287-.32.812.812 0 0 1-.11-.422.875.875 0 0 1 .119-.464.961.961 0 0 1 .354-.329c.176-.097.367-.165.565-.203.248-.047.499-.07.75-.067a5.333 5.333 0 0 1 .886.076c.175.028.349.065.523.11.175.045.352.095.532.151.167.052.33.114.489.186l.118-1.366a7.951 7.951 0 0 0-.633-.237 6.217 6.217 0 0 0-.632-.168 5.037 5.037 0 0 0-.633-.093 7.611 7.611 0 0 0-.615-.025c-.466-.005-.931.049-1.384.16a3.487 3.487 0 0 0-1.088.472c-.302.2-.548.473-.717.793a2.414 2.414 0 0 0-.253 1.139c-.005.284.04.567.135.835.08.225.2.433.354.616.15.172.324.322.515.447.2.13.411.24.633.329a14.143 14.143 0 0 0 .784.261 36.916 36.916 0 0 1 .742.236c.118.04.234.076.346.11.15.053.298.118.439.194.123.066.24.145.345.236a.867.867 0 0 1 .296.666.841.841 0 0 1-.279.667 1.62 1.62 0 0 1-.725.346 4.314 4.314 0 0 1-.953.1c-.2 0-.4-.015-.6-.041a8.552 8.552 0 0 1-.69-.118c-.242-.051-.49-.113-.743-.186a15.12 15.12 0 0 1-.767-.245l.067 1.434c.292.102.559.183.801.245s.473.115.692.16c.211.044.425.072.64.085.209.01.42.016.633.017.471.002.94-.046 1.4-.144a3.619 3.619 0 0 0 1.148-.447c.319-.195.583-.468.767-.793.194-.357.29-.758.279-1.164a2.36 2.36 0 0 0-.144-.869 1.978 1.978 0 0 0-.396-.632ZM47.566 45.787l-.286.05a2.528 2.528 0 0 1-.279.034c-.09.006-.175.008-.253.008a1.701 1.701 0 0 1-.75-.151 1.088 1.088 0 0 1-.481-.447 1.423 1.423 0 0 1-.169-.717V39.89h2.379l.185-1.35h-2.564v-2.665l-1.72.607v2.058h-1.3l-.185 1.35h1.484v5.027c-.007.335.044.67.152.987.087.251.222.483.397.683.16.178.355.322.573.422.223.102.458.176.7.22.24.043.482.066.725.067.18 0 .358-.006.532-.017a5.472 5.472 0 0 0 .894-.127c.129-.028.239-.053.329-.076l.101-1.4a1.25 1.25 0 0 1-.202.06 5.459 5.459 0 0 1-.262.05ZM53.344 38.482a3.316 3.316 0 0 0-.894.388 4.4 4.4 0 0 0-.793.633c-.04.04-.078.084-.118.126v-1.256l-1.72.253v8.519h1.72V40.77a4.411 4.411 0 0 1 .92-.493c.174-.067.35-.126.53-.176a3.633 3.633 0 0 1 1.182-.127l.202-1.586a3.208 3.208 0 0 0-1.029.093ZM62.47 39.63a3.06 3.06 0 0 0-1.24-.954 4.327 4.327 0 0 0-1.712-.32 4.195 4.195 0 0 0-1.72.337 3.677 3.677 0 0 0-1.29.945 4.134 4.134 0 0 0-.81 1.459 6.098 6.098 0 0 0-.279 1.898c-.024.813.147 1.62.498 2.353.32.636.838 1.151 1.476 1.468a5.245 5.245 0 0 0 2.395.497c.398.004.796-.022 1.19-.076a5.69 5.69 0 0 0 .97-.227c.313-.105.618-.235.91-.388l.119-1.3c-.214.08-.43.158-.65.237a8.13 8.13 0 0 1-.683.21c-.238.063-.48.108-.725.136a6.552 6.552 0 0 1-.743.042 5.32 5.32 0 0 1-1.316-.143 2.162 2.162 0 0 1-.936-.49 2.137 2.137 0 0 1-.573-.936 4.284 4.284 0 0 1-.184-1.113h6.096a6.457 6.457 0 0 0-.093-2.092 3.94 3.94 0 0 0-.7-1.544Zm-4.25.404a2.39 2.39 0 0 1 1.315-.346c.464-.023.921.11 1.3.38.335.268.575.638.682 1.054.085.308.126.626.123.945h-4.436c.031-.336.103-.668.214-.987.144-.428.426-.795.801-1.046ZM69.834 45.787l-.287.05a2.527 2.527 0 0 1-.278.034c-.09.006-.175.008-.253.008a1.7 1.7 0 0 1-.75-.151 1.086 1.086 0 0 1-.482-.447 1.42 1.42 0 0 1-.168-.717V39.89h2.378l.186-1.35h-2.564v-2.665l-1.721.607v2.058h-1.299l-.186 1.35h1.485v5.027c-.007.335.044.67.152.987.087.251.221.483.396.683.16.178.356.322.574.422.223.102.458.176.7.22.239.043.482.066.725.067.18 0 .357-.006.532-.017a5.467 5.467 0 0 0 .894-.127c.13-.028.239-.053.329-.076l.101-1.4a1.24 1.24 0 0 1-.202.06c-.08.017-.167.033-.262.05Z"/></svg>