<svg xmlns="http://www.w3.org/2000/svg" viewBox="0 0 64 22"><path fill="#fff" d="M0 17.997v-14h4.593v14H0ZM10.843 6.226l2.641 11.77H8.457L5.303 3.999h2.82a2.655 2.655 0 0 1 1.764.64c.491.404.829.965.956 1.588Zm3.331 11.77V3.999h4.594v13.999h-4.594Zm8.063-8.675a2.738 2.738 0 0 1-1.409-.374 2.778 2.778 0 0 1-1.015-1.016 2.735 2.735 0 0 1-.375-1.41 2.685 2.685 0 0 1 .375-1.4 2.812 2.812 0 0 1 3.824-1.005c.415.245.761.59 1.005 1.006.251.423.38.908.375 1.4.005.495-.125.982-.375 1.41a2.8 2.8 0 0 1-1.005 1.015c-.424.25-.908.38-1.4.374Zm3.49 8.676v-14h4.594v14h-4.594Zm10.409-6.35c.013.014.111.175.296.484.184.308.424.703.72 1.183a384.573 384.573 0 0 1 1.862 3.056c.289.48.617 1.022.986 1.627h-5.047l-.858-1.39c-.256-.414-.529-.861-.817-1.341a118.3 118.3 0 0 0-.858-1.4 71.148 71.148 0 0 1-.73-1.193 21.119 21.119 0 0 0-.424-.69 2.04 2.04 0 0 1-.334-.986c.019-.338.128-.664.315-.946a48.2 48.2 0 0 1 .433-.7 216.7 216.7 0 0 0 1.598-2.603l.817-1.35.858-1.4H40l-3.904 6.368c-.12.19-.189.407-.197.631.013.236.095.462.236.65h.001Z"/><circle cx="52.667" cy="10.997" r="10.333" fill="#fff"/><path fill="#1767CE" fill-rule="evenodd" d="M60.21 18.54A10.667 10.667 0 1 0 45.123 3.453 10.667 10.667 0 0 0 60.21 18.54ZM56.595 6.29l-3.42 1.852.002-.002a.207.207 0 0 0-.084.28l.014.024a.207.207 0 0 0 .28.083l2.43-1.314a.504.504 0 0 1 .686.183.504.504 0 0 1-.223.673L53.875 9.37a.23.23 0 0 0-.104.306.23.23 0 0 0 .314.081l.659-.356.06-.034 1.085-.586a.504.504 0 0 1 .685.182.504.504 0 0 1-.222.673l-1.62.876-.26.139a.736.736 0 0 0-.819-.47l-2.949.563c-.086.02-.169.051-.247.092a2.593 2.593 0 0 1-.578-3.085c.003-.004.003-.007.003-.01l1.236-2.755a.503.503 0 0 1 .655-.27.505.505 0 0 1 .233.67l-.4.891.647-.35.014-.005a.076.076 0 0 0 .03-.016.14.14 0 0 1 .017-.011l2.618-1.416a.503.503 0 0 1 .685.182.504.504 0 0 1-.223.673l-2.89 1.563a.207.207 0 0 0-.083.28l.012.025a.207.207 0 0 0 .28.083l3.42-1.85a.503.503 0 0 1 .686.182.504.504 0 0 1-.223.674Zm-3.923 6.913 3.485 1.712a.504.504 0 0 1 .249.663.503.503 0 0 1-.677.209l-3.484-1.712a.207.207 0 0 0-.276.094l-.012.024a.208.208 0 0 0 .094.277l2.479 1.217a.503.503 0 0 1 .248.664.503.503 0 0 1-.676.208l-2.452-1.204a.229.229 0 0 0-.31.092.23.23 0 0 0 .116.303l1.838.902a.502.502 0 0 1 .248.663.503.503 0 0 1-.677.21l-1.65-.811s-1.495-.748-1.533-.781a2.598 2.598 0 0 1-.165-4.294 2.588 2.588 0 0 1 1.142-.474l.005-.002 2.956-.588a.5.5 0 0 1 .6.376.503.503 0 0 1-.411.578l-.956.19.659.324a.082.082 0 0 1 .012.008l.016.01.014.005a.158.158 0 0 1 .02.007l2.666 1.31a.503.503 0 0 1 .249.664.503.503 0 0 1-.677.208l-2.946-1.447a.207.207 0 0 0-.276.095l-.012.024a.207.207 0 0 0 .094.276Z" clip-rule="evenodd"/></svg>