<svg xmlns="http://www.w3.org/2000/svg" viewBox="0 0 96 31"><path fill="#0A2343" d="M0 13V1.003h3.937V13H0ZM9.294 2.913 11.558 13H7.25L4.545 1h2.417a2.276 2.276 0 0 1 1.513.55c.42.346.71.826.819 1.36ZM12.149 13V1h3.938v12h-3.938Zm6.912-7.436a2.382 2.382 0 0 1-2.4-2.4 2.301 2.301 0 0 1 .321-1.2 2.41 2.41 0 0 1 3.278-.862c.356.21.653.506.862.862.215.363.326.778.321 1.2a2.35 2.35 0 0 1-.321 1.208 2.4 2.4 0 0 1-.862.87 2.302 2.302 0 0 1-1.2.322ZM22.05 13V1h3.938v12h-3.937Zm8.923-5.442c.01.012.095.15.253.414s.364.602.617 1.014a316.545 316.545 0 0 1 1.597 2.62c.247.41.529.876.845 1.394H29.96c-.27-.44-.516-.837-.736-1.192-.22-.355-.453-.738-.7-1.149a99.5 99.5 0 0 0-.736-1.2c-.242-.389-.45-.73-.625-1.022-.175-.293-.296-.49-.363-.592a1.747 1.747 0 0 1-.287-.845c.016-.29.11-.57.27-.811.067-.113.191-.313.371-.6s.392-.628.634-1.023c.242-.394.488-.797.736-1.208l.7-1.158.736-1.2h4.326l-3.346 5.46a1.08 1.08 0 0 0-.17.54c.012.202.082.396.203.558Z"/><path fill="#7B0A02" d="M0 30.145h1.775v-4.952h4.529l.186-1.47H1.775v-4.09h6.134v-1.487H0v12ZM14.948 21.881a4.638 4.638 0 0 0-2.29-.54 4.617 4.617 0 0 0-2.307.557 3.898 3.898 0 0 0-1.538 1.572 4.968 4.968 0 0 0-.55 2.4 5.183 5.183 0 0 0 .516 2.391c.324.65.84 1.184 1.48 1.53.687.36 1.454.54 2.23.524a4.765 4.765 0 0 0 2.332-.558 3.94 3.94 0 0 0 1.58-1.589c.393-.75.588-1.587.567-2.433a4.895 4.895 0 0 0-.524-2.324 3.695 3.695 0 0 0-1.496-1.53Zm-.101 5.662c-.19.44-.512.809-.921 1.056a2.622 2.622 0 0 1-1.352.347 2.403 2.403 0 0 1-1.319-.355 2.383 2.383 0 0 1-.879-1.064 4.267 4.267 0 0 1-.32-1.758c-.02-.586.09-1.168.32-1.707.19-.423.506-.778.905-1.014a2.736 2.736 0 0 1 1.394-.338c.38-.01.757.062 1.107.211.306.138.573.35.777.617.218.29.376.62.465.972.106.411.157.834.152 1.26a4.204 4.204 0 0 1-.33 1.773ZM21.725 28.903c-.06.006-.118.01-.178.009a.91.91 0 0 1-.371-.068.61.61 0 0 1-.254-.211.917.917 0 0 1-.143-.364 2.777 2.777 0 0 1-.043-.524v-10.36l-1.724.254v10.867c-.007.285.04.569.136.837a1.408 1.408 0 0 0 .989.878c.245.064.498.096.752.093.135 0 .264-.005.388-.016a3.704 3.704 0 0 0 .659-.118l.17-1.336-.204.034c-.067.011-.126.02-.177.025ZM31.18 21.526h-2.112l-2.892 3.177h-.623v-7.317l-1.724.253v12.506h1.724v-4.14h.028l3.453 4.14h2.231l-4.1-4.619 4.016-4ZM38.735 22.616a3.067 3.067 0 0 0-1.242-.955 4.338 4.338 0 0 0-1.716-.32 4.202 4.202 0 0 0-1.724.337c-.495.217-.936.54-1.292.947a4.135 4.135 0 0 0-.812 1.461 6.108 6.108 0 0 0-.278 1.902 5.118 5.118 0 0 0 .498 2.357c.321.637.84 1.153 1.479 1.47.75.354 1.572.524 2.4.5.398.002.796-.023 1.19-.077a5.704 5.704 0 0 0 1.886-.617l.118-1.301a89.57 89.57 0 0 1-.651.236c-.22.08-.448.15-.684.212a5.108 5.108 0 0 1-.727.135 6.482 6.482 0 0 1-.744.042 5.334 5.334 0 0 1-1.318-.143 2.17 2.17 0 0 1-.938-.49 2.14 2.14 0 0 1-.574-.939 4.275 4.275 0 0 1-.185-1.115h6.108c.083-.699.052-1.407-.093-2.096a3.95 3.95 0 0 0-.701-1.546Zm-4.259.406a2.39 2.39 0 0 1 1.318-.347c.464-.023.923.111 1.302.38.336.27.576.64.684 1.057.084.308.126.627.123.946H33.46c.03-.337.103-.669.214-.989.144-.428.427-.796.803-1.047ZM53.32 21.695a2.94 2.94 0 0 0-1.505-.355 3.953 3.953 0 0 0-1.335.228 4.706 4.706 0 0 0-1.216.65 6.13 6.13 0 0 0-.6.508 2.12 2.12 0 0 0-.871-1.014 2.978 2.978 0 0 0-1.521-.355c-.452 0-.9.077-1.327.228a4.812 4.812 0 0 0-1.58.924v-1.151l-1.724.253v8.535h1.724v-6.428c.203-.133.415-.253.634-.358.268-.126.548-.225.836-.295.266-.066.538-.1.812-.102.25-.007.5.036.735.127.193.082.364.21.498.372.147.188.248.408.296.642.066.303.097.612.093.921v5.12h1.724V24.67a6.806 6.806 0 0 0-.065-.966c.195-.129.397-.246.606-.352.263-.133.54-.235.828-.304.27-.067.549-.1.828-.102a1.88 1.88 0 0 1 .727.127c.197.08.37.208.507.372.147.188.248.408.295.642.066.302.097.611.093.92v5.139h1.724v-5.493a4.918 4.918 0 0 0-.304-1.876 2.177 2.177 0 0 0-.913-1.082ZM62.783 28.042c-.127.077-.253.15-.38.21-.2.099-.407.186-.617.263-.2.072-.407.129-.617.168-.214.04-.432.06-.65.06a2.087 2.087 0 0 1-1.031-.228 1.373 1.373 0 0 1-.6-.693 2.955 2.955 0 0 1-.195-1.14v-5.324l-1.724.253v5.374c-.02.641.092 1.28.33 1.876.196.47.548.858.997 1.098.5.25 1.055.372 1.614.356a4.067 4.067 0 0 0 1.986-.499 5.63 5.63 0 0 0 .862-.583c.05-.04.098-.088.148-.13l.249 1.042h1.335l.017-8.788-1.724.253v6.432ZM72.484 26.258a2.53 2.53 0 0 0-.592-.465 4.584 4.584 0 0 0-.71-.33c-.18-.056-.358-.115-.532-.177a9.35 9.35 0 0 0-.524-.169c-.175-.05-.344-.104-.507-.16a3.68 3.68 0 0 1-.448-.186 2.967 2.967 0 0 1-.397-.254 1.111 1.111 0 0 1-.287-.32.812.812 0 0 1-.11-.423.875.875 0 0 1 .118-.465.96.96 0 0 1 .355-.33c.177-.096.368-.165.566-.203.248-.047.5-.07.752-.067a5.457 5.457 0 0 1 .887.076c.175.029.35.065.524.11.175.044.352.096.533.152.167.052.33.114.49.186l.118-1.369a8.206 8.206 0 0 0-.634-.237 6.3 6.3 0 0 0-.633-.169 5.15 5.15 0 0 0-.634-.093 7.637 7.637 0 0 0-.617-.025 5.568 5.568 0 0 0-1.386.16 3.496 3.496 0 0 0-1.09.474c-.302.2-.55.473-.718.794a2.415 2.415 0 0 0-.254 1.14c-.005.285.041.569.136.837.08.226.2.435.355.617.15.173.323.323.515.448.2.131.412.241.634.33a24.537 24.537 0 0 0 .786.262 41.906 41.906 0 0 1 .743.236c.118.04.234.076.347.11.15.053.298.118.439.194.124.066.24.145.346.237a.867.867 0 0 1 .296.667.843.843 0 0 1-.279.668 1.62 1.62 0 0 1-.726.346c-.314.07-.634.104-.955.102a4.686 4.686 0 0 1-.6-.043 8.902 8.902 0 0 1-.693-.118 10.28 10.28 0 0 1-.744-.186c-.253-.073-.51-.154-.769-.244l.068 1.436c.293.102.56.183.803.245.242.062.473.116.693.16.211.045.426.073.642.085.208.011.42.017.634.017a6.58 6.58 0 0 0 1.402-.144 3.615 3.615 0 0 0 1.15-.448c.32-.195.584-.468.769-.794.193-.358.289-.76.278-1.166a2.371 2.371 0 0 0-.143-.87 1.974 1.974 0 0 0-.397-.634ZM76.547 17.816a1.094 1.094 0 0 0-.583-.16 1.138 1.138 0 0 0-.591.16 1.244 1.244 0 0 0-.431.423 1.093 1.093 0 0 0-.16.583c-.002.208.053.413.16.591.103.177.252.323.43.423.181.101.385.154.592.152.204.003.406-.05.583-.152.174-.1.317-.247.414-.422.102-.181.154-.385.152-.592a1.145 1.145 0 0 0-.152-.583 1.2 1.2 0 0 0-.414-.423ZM75.07 30.145h1.723v-8.788l-1.724.253v8.535ZM86.781 21.526H84.67l-2.892 3.177h-.624v-7.317l-1.724.253v12.506h1.724v-4.14h.028l3.454 4.14h2.23l-4.1-4.619 4.016-4ZM93.507 30.145h2.231l-4.1-4.62 4.016-3.999H93.54l-2.892 3.177h-.623v-7.317l-1.724.253v12.506h1.724v-4.14h.028l3.453 4.14Z"/></svg>