<svg xmlns="http://www.w3.org/2000/svg" viewBox="0 0 103 21"><path fill="#0A2343" d="M0 16.003V4.004h3.937v11.999H0Zm9.294-10.09 2.264 10.09H7.25L4.545 4.004h2.417a2.276 2.276 0 0 1 1.513.55c.42.345.71.826.819 1.36Zm2.855 10.09V4.004h3.938v11.999h-3.938Zm6.912-7.436a2.382 2.382 0 0 1-2.4-2.4 2.301 2.301 0 0 1 .321-1.2 2.41 2.41 0 0 1 3.278-.862c.356.21.653.506.862.862.215.363.326.778.321 1.2a2.35 2.35 0 0 1-.321 1.208 2.4 2.4 0 0 1-.862.87 2.302 2.302 0 0 1-1.2.322Zm2.99 7.436V4.004h3.938v11.999h-3.937Zm8.923-5.442c.01.012.095.15.253.414s.364.603.617 1.014a309.436 309.436 0 0 1 1.597 2.62c.247.411.529.876.845 1.394H29.96c-.27-.44-.516-.837-.736-1.192-.22-.354-.453-.738-.7-1.149-.248-.41-.493-.81-.736-1.2a60.12 60.12 0 0 1-.625-1.022 18.04 18.04 0 0 0-.363-.592 1.747 1.747 0 0 1-.287-.845c.016-.29.11-.57.27-.811.067-.113.191-.313.371-.6s.392-.628.634-1.022c.242-.395.488-.798.736-1.209l.7-1.157.736-1.2h4.326L30.94 9.462a1.08 1.08 0 0 0-.17.541c.012.202.082.396.203.558Z"/><path fill="#1767CE" d="m47.453 13.13-7.22-9.138h-1.376v12.012h1.597V6.86l7.237 9.144h1.376V3.992h-1.614v9.138ZM57.51 7.46l-.014 6.336a8.05 8.05 0 0 1-.368.203c-.206.106-.419.199-.637.279a3.42 3.42 0 0 1-.637.169 4.197 4.197 0 0 1-.67.05 2.025 2.025 0 0 1-1.003-.22 1.352 1.352 0 0 1-.586-.684 3.007 3.007 0 0 1-.196-1.16V7.206l-1.732.253v5.313c-.021.64.089 1.28.323 1.878.187.466.533.852.977 1.09a3.43 3.43 0 0 0 1.622.347c.468.004.934-.073 1.376-.228a4.88 4.88 0 0 0 1.223-.643c.103-.074.205-.153.307-.234l-.002.733c0 .846-.198 1.488-.594 1.928-.397.44-1.07.66-2.022.66-.26 0-.526-.011-.798-.034a6.477 6.477 0 0 1-.807-.118 9.005 9.005 0 0 1-1.622-.508l.187 1.506a8.413 8.413 0 0 0 2.293.55c.283.028.572.042.866.042a5.415 5.415 0 0 0 1.81-.279 3.827 3.827 0 0 0 1.333-.779c.36-.33.642-.738.824-1.192.192-.49.287-1.013.28-1.54l-.017-8.746-1.716.255ZM68.415 7.544A3.317 3.317 0 0 0 66.8 7.19a4.84 4.84 0 0 0-1.47.228 5.7 5.7 0 0 0-1.74.906V3.23l-1.733.253v12.52h1.733V9.503a5.541 5.541 0 0 1 1.155-.478 6.05 6.05 0 0 1 .739-.17c.233-.038.468-.058.704-.058.272-.006.543.037.799.126.216.078.41.21.56.381.157.187.267.407.323.643.073.299.107.606.103.913v5.143h1.732v-5.498a4.668 4.668 0 0 0-.323-1.878 2.221 2.221 0 0 0-.968-1.083ZM78.862 8.467a3.084 3.084 0 0 0-1.248-.956 4.38 4.38 0 0 0-1.724-.322 4.237 4.237 0 0 0-1.733.339c-.498.217-.941.54-1.3.947a4.142 4.142 0 0 0-.815 1.464 6.09 6.09 0 0 0-.28 1.903 5.104 5.104 0 0 0 .5 2.36 3.315 3.315 0 0 0 1.487 1.472 5.3 5.3 0 0 0 2.412.499c.4.003.801-.022 1.198-.076a5.779 5.779 0 0 0 1.894-.618l.119-1.302c-.215.079-.433.158-.654.236-.221.08-.45.15-.688.212a5.13 5.13 0 0 1-.73.135 6.573 6.573 0 0 1-.748.043 5.376 5.376 0 0 1-1.325-.144 2.18 2.18 0 0 1-.943-.49 2.137 2.137 0 0 1-.577-.94 4.28 4.28 0 0 1-.186-1.116h6.14a6.46 6.46 0 0 0-.094-2.099 3.945 3.945 0 0 0-.705-1.547Zm-4.28.405c.398-.24.858-.36 1.324-.346.467-.023.928.11 1.308.38.339.27.58.64.688 1.058.085.309.127.627.124.947H73.56c.031-.337.104-.67.215-.99.145-.428.43-.797.808-1.049ZM86.26 14.642l-.288.05a2.562 2.562 0 0 1-.28.034c-.091.006-.176.009-.255.009a1.717 1.717 0 0 1-.756-.153 1.092 1.092 0 0 1-.484-.448 1.421 1.421 0 0 1-.17-.719V8.73h2.395l.187-1.354h-2.582V4.702l-1.733.61v2.063h-1.308l-.187 1.354h1.495v5.042c-.008.336.044.67.153.989.087.252.223.485.399.685.162.18.358.323.578.423.224.103.461.177.704.22.241.044.486.067.73.068.182 0 .36-.006.536-.017.176-.011.337-.028.484-.051a7.195 7.195 0 0 0 .748-.152l.102-1.404a1.248 1.248 0 0 1-.204.059c-.08.017-.168.034-.264.05ZM94.83 8.467a3.085 3.085 0 0 0-1.248-.956 4.382 4.382 0 0 0-1.724-.322 4.24 4.24 0 0 0-1.733.339c-.498.217-.941.54-1.3.947a4.141 4.141 0 0 0-.815 1.463 6.096 6.096 0 0 0-.28 1.904 5.106 5.106 0 0 0 .501 2.36 3.313 3.313 0 0 0 1.486 1.472 5.3 5.3 0 0 0 2.413.499c.4.003.8-.022 1.197-.076a5.782 5.782 0 0 0 1.895-.618l.119-1.303c-.216.08-.434.158-.655.237-.22.08-.45.15-.688.212-.24.062-.484.107-.73.135a6.573 6.573 0 0 1-.748.042 5.388 5.388 0 0 1-1.325-.143 2.183 2.183 0 0 1-.942-.491 2.142 2.142 0 0 1-.578-.94 4.27 4.27 0 0 1-.185-1.116h6.139c.084-.7.052-1.408-.093-2.098a3.947 3.947 0 0 0-.705-1.547Zm-4.28.405c.398-.24.859-.36 1.325-.346.466-.023.927.11 1.308.38.338.27.58.64.688 1.058.085.309.126.627.124.947h-4.468c.032-.337.104-.67.216-.99.145-.428.429-.797.807-1.049ZM101.302 7.316a3.348 3.348 0 0 0-.9.39c-.29.18-.558.392-.799.634-.04.04-.078.084-.118.126v-1.26l-1.733.253v8.544h1.733V9.612a4.42 4.42 0 0 1 .927-.494c.174-.068.352-.127.534-.178a3.593 3.593 0 0 1 1.189-.127l.204-1.59a3.248 3.248 0 0 0-1.037.093Z"/></svg>