<svg xmlns="http://www.w3.org/2000/svg" viewBox="0 0 26 26"><path fill="#DA2E3D" d="M13.152.5C6.237.5.5 5.94.5 12.885.5 19.69 5.924 25.5 12.839 25.5c6.841 0 12.661-5.403 12.661-12.338C25.5 6.217 20.076.5 13.152.5Z"/><path fill="#fff" d="M13.741 7.02c.488 0 .81.37.81.859a.788.788 0 0 1-.8.785c-.571 0-.83-.425-.83-.813 0-.563.415-.83.82-.83V7.02Zm-2.385.148c0-.046 0-.046.037-.046h1.354c.037 0 .037 0 .037.046v4.119c0 .055 0 .055-.037.055h-1.354c-.037 0-.037 0-.037-.055v-4.12.001ZM8.76 7.122h.884c.405 0 .7.268.782.692l.792 3.473s0 .055-.046.055H9.69s-.037 0-.046-.055l-.93-4.12c0-.045 0-.045.046-.045Zm-1.612.046c0-.046 0-.046.046-.046h1.437v4.22H7.194c-.046 0-.046 0-.046-.055v-4.12.001ZM6.025 17.752c-.553 0-1.022-.084-1.409-.277v-1.22h.746l.166.555a1.5 1.5 0 0 0 .552.11c.442 0 .663-.194.663-.554 0-.997-2.127-.47-2.127-2.244 0-.942.801-1.413 1.768-1.413.497 0 .912.11 1.326.36v1.025h-.746l-.138-.47a1.224 1.224 0 0 0-.414-.084c-.47 0-.663.222-.663.499 0 .859 2.1.526 2.1 2.133 0 .97-.692 1.58-1.824 1.58Zm4.512-3.796c.773 0 1.353.47 1.353 1.828 0 1.33-.552 1.968-1.436 1.968-.47 0-.774-.222-.912-.388v1.053l.636.166v.554H8.133v-.554l.36-.111v-3.713l-.36-.11v-.582H9.35l.138.415h.028a1.294 1.294 0 0 1 1.022-.526h-.001Zm-.387 2.937c.387 0 .635-.277.635-1.025 0-.748-.22-.998-.58-.998-.22 0-.497.083-.607.194v1.662c.082.056.359.167.552.167Zm4.033-2.937c1.022 0 1.74.554 1.74 1.884 0 1.302-.773 1.912-1.823 1.912-1.077 0-1.74-.638-1.74-1.857 0-1.33.718-1.94 1.823-1.94v.001Zm-.027 2.964c.359 0 .635-.277.635-1.08 0-.804-.276-1.025-.635-1.025-.415 0-.691.25-.691 1.025 0 .803.249 1.08.69 1.08h.001Zm1.961-5.633c0 .055-.037.055-.037.055h-1.409s-.037 0-.037-.055v-4.12c0-.045.037-.045.037-.045h1.41s.036 0 .036.046v4.119Zm2.67 3.805c-.138-.028-.276-.028-.386-.028-.304 0-.608.139-.719.305v1.607l.636.138v.554h-2.072v-.554l.387-.11v-2.245l-.387-.11v-.582h1.16l.138.61h.028c.193-.472.525-.638.911-.638.194 0 .36.028.36.028l-.056 1.025Zm.277-3.75h-1.547c-.046 0-.065-.009-.074-.027l-1.05-1.783c-.147-.277-.166-.36.028-.674l1.013-1.69s.018-.046.083-.046h1.528c.028 0 .037.018.028.046l-1.16 1.893c-.065.148-.056.185.046.351l1.114 1.875c.037.046-.01.055-.01.055h.001Zm2.458 3.528h-.801v1.746c0 .221.055.304.332.304.11 0 .22-.027.359-.055l.11.748a2.82 2.82 0 0 1-.884.139c-.69 0-1.022-.333-1.022-.915V14.87h-.442l.055-.803h.442l.194-.887h.856v.887h.801v.803Z"/></svg>