<svg xmlns="http://www.w3.org/2000/svg" viewBox="0 0 103 24"><path fill="#1767CE" d="M0 0h103v24H0z"/><path fill="#fff" d="M6.004 18V6h3.937v12H6.004Zm9.294-10.09L17.562 18h-4.309L10.55 6h2.416a2.276 2.276 0 0 1 1.513.55c.42.346.71.826.82 1.36ZM18.154 18V6h3.937v12h-3.937Zm6.91-7.436a2.382 2.382 0 0 1-2.4-2.4 2.303 2.303 0 0 1 .323-1.2 2.412 2.412 0 0 1 3.278-.862c.355.21.652.506.861.862.215.363.326.778.322 1.2a2.4 2.4 0 0 1-1.183 2.079 2.303 2.303 0 0 1-1.2.32ZM28.057 18V6h3.937v12h-3.937Zm8.922-5.442c.011.012.096.15.253.414.158.264.364.602.617 1.014a316.22 316.22 0 0 1 1.597 2.62c.247.411.529.876.845 1.394h-4.326c-.27-.44-.516-.837-.735-1.192-.22-.355-.453-.738-.7-1.149-.249-.41-.494-.81-.737-1.2-.242-.389-.45-.73-.625-1.022a18.04 18.04 0 0 0-.363-.592 1.748 1.748 0 0 1-.287-.845c.017-.29.11-.57.27-.811.068-.113.192-.313.372-.6s.391-.628.633-1.023c.243-.394.488-.797.736-1.208l.7-1.158.736-1.2h4.326l-3.346 5.46a1.079 1.079 0 0 0-.17.54c.012.202.082.396.203.558h.001Z"/><path fill="#D4EEFC" d="M54.408 6.054h-9.547v1.485h3.89v10.502h1.784V7.539h3.873V6.054ZM57.89 9.371a3.366 3.366 0 0 0-.9.389 4.44 4.44 0 0 0-.798.633c-.04.04-.08.084-.12.126V9.262l-1.732.253v8.526h1.733v-6.379a4.388 4.388 0 0 1 .925-.493c.176-.067.354-.126.536-.176a3.644 3.644 0 0 1 1.189-.127l.203-1.587a3.259 3.259 0 0 0-1.036.092ZM67.64 16.977a.777.777 0 0 1-.662-.27 1.446 1.446 0 0 1-.187-.895l.034-3.478a4.034 4.034 0 0 0-.136-1.08c-.082-.31-.22-.601-.407-.861a2.297 2.297 0 0 0-.705-.625 3.61 3.61 0 0 0-1.028-.388 6.098 6.098 0 0 0-1.342-.135c-.358 0-.715.022-1.07.067a7.387 7.387 0 0 0-.994.194c-.302.082-.6.18-.891.296l-.204 1.435a10.02 10.02 0 0 1 1.545-.422 6.17 6.17 0 0 1 .705-.093c.232-.017.462-.025.689-.025.346-.008.692.032 1.027.118.245.06.47.183.654.354.164.167.281.374.34.6.073.278.107.565.102.852l-.002.423-1.986.133a5.306 5.306 0 0 0-1.97.44 2.82 2.82 0 0 0-1.164.936 2.173 2.173 0 0 0-.382 1.241c-.003.415.1.825.297 1.19.208.376.52.684.9.887.464.24.982.356 1.504.338.49.01.976-.07 1.436-.237.397-.154.76-.384 1.07-.675a4.65 4.65 0 0 0 .334-.354c.033.175.095.343.183.497.152.259.385.46.663.574.308.123.637.184.968.178.102 0 .201-.003.298-.009a1.54 1.54 0 0 0 .28-.042l.246-.059c.067-.015.132-.035.196-.06l.187-1.13c-.094.032-.191.054-.29.067a1.892 1.892 0 0 1-.237.018Zm-2.545-1.026a2.255 2.255 0 0 1-.283.267 3.28 3.28 0 0 1-.595.37c-.21.102-.433.176-.662.22a3.76 3.76 0 0 1-.722.068 1.928 1.928 0 0 1-.807-.152 1.106 1.106 0 0 1-.501-.43 1.254 1.254 0 0 1-.17-.667c-.016-.282.061-.56.22-.794a1.3 1.3 0 0 1 .714-.422c.434-.102.88-.147 1.325-.135h1.488l-.007 1.675ZM74.036 5.429a5.564 5.564 0 0 0-1.113-.101 3.44 3.44 0 0 0-1.087.169c-.333.109-.638.29-.891.531a2.474 2.474 0 0 0-.595.904c-.15.41-.222.846-.212 1.283V9.43h-1.274v1.317h1.274v7.294h1.732v-7.294h2.379V9.43H71.87v-1.4a1.576 1.576 0 0 1 .094-.566c.055-.154.145-.292.263-.406.123-.112.272-.193.433-.236.191-.053.388-.078.586-.076.136 0 .266.006.391.017.125.01.246.028.365.05.12.023.232.045.34.068.096.019.19.047.28.084l-.068-1.4a4.1 4.1 0 0 0-.518-.136ZM75.93 18.041h1.732v-8.78l-1.732.254v8.526ZM77.416 5.724a1.106 1.106 0 0 0-.586-.16 1.147 1.147 0 0 0-.594.16 1.243 1.243 0 0 0-.434.422 1.085 1.085 0 0 0-.16.583 1.15 1.15 0 0 0 .595 1.013c.18.101.385.154.593.152.206.002.408-.05.586-.152.175-.1.319-.246.416-.422.102-.18.155-.384.153-.591a1.134 1.134 0 0 0-.153-.583 1.197 1.197 0 0 0-.416-.422ZM87.702 9.43h-2.124l-2.906 3.175h-.627V5.293l-1.733.253v12.494h1.733v-4.136h.028l3.471 4.136h2.242l-4.12-4.615 4.036-3.996ZM92.584 13.382l4.035-3.996h-2.123L91.59 12.56h-.627V5.25l-1.733.253v12.494h1.733V13.86h.028l3.471 4.137h2.242l-4.12-4.615Z"/></svg>