<svg xmlns="http://www.w3.org/2000/svg" viewBox="0 0 81 21"><path fill="#fff" d="M0 16.003V4.004h3.937v11.999H0Zm9.294-10.09 2.264 10.09H7.25L4.545 4.004h2.417a2.276 2.276 0 0 1 1.513.55c.42.345.71.826.819 1.36Zm2.855 10.09V4.004h3.938v11.999h-3.938Zm6.912-7.436a2.382 2.382 0 0 1-2.4-2.4 2.301 2.301 0 0 1 .321-1.2 2.41 2.41 0 0 1 3.278-.862c.356.21.653.506.862.862.215.363.326.778.321 1.2a2.35 2.35 0 0 1-.321 1.208 2.4 2.4 0 0 1-.862.87 2.302 2.302 0 0 1-1.2.322Zm2.99 7.436V4.004h3.938v11.999h-3.937Zm8.923-5.442c.01.012.095.15.253.414s.364.603.617 1.014a309.436 309.436 0 0 1 1.597 2.62c.247.411.529.876.845 1.394H29.96c-.27-.44-.516-.837-.736-1.192-.22-.354-.453-.738-.7-1.149-.248-.41-.493-.81-.736-1.2a60.12 60.12 0 0 1-.625-1.022 18.04 18.04 0 0 0-.363-.592 1.747 1.747 0 0 1-.287-.845c.016-.29.11-.57.27-.811.067-.113.191-.313.371-.6s.392-.628.634-1.022c.242-.395.488-.798.736-1.209l.7-1.157.736-1.2h4.326L30.94 9.462a1.08 1.08 0 0 0-.17.541c.012.202.082.396.203.558Z"/><path fill="#F34531" d="M46.223 10.387a3.201 3.201 0 0 0-.846-.617 6.59 6.59 0 0 0-1.023-.414 11.6 11.6 0 0 0-1.116-.288 24.167 24.167 0 0 1-.82-.203 3.778 3.778 0 0 1-.677-.245 2.236 2.236 0 0 1-.516-.339 1.217 1.217 0 0 1-.33-.473 1.83 1.83 0 0 1-.11-.668c-.003-.236.034-.47.11-.694a1.29 1.29 0 0 1 .338-.516c.159-.145.339-.264.533-.355.223-.101.46-.17.702-.203.289-.04.58-.06.871-.059a7.384 7.384 0 0 1 1.59.17c.255.055.506.125.753.21.23.08.454.18.668.296l.237-1.488a4.214 4.214 0 0 0-.753-.304 10.093 10.093 0 0 0-.803-.203 8.028 8.028 0 0 0-.83-.127 8.667 8.667 0 0 0-.862-.042 7.197 7.197 0 0 0-1.776.203c-.495.12-.962.332-1.378.626a2.825 2.825 0 0 0-.897 1.065 3.442 3.442 0 0 0-.312 1.522c-.01.406.056.81.194 1.192.121.32.309.611.55.855.238.238.512.437.811.592.318.163.65.3.99.406.355.113.719.208 1.091.287.304.068.586.138.846.212.24.066.476.154.702.262.194.091.373.211.532.355.151.142.27.315.347.508.09.231.133.478.127.727.004.264-.036.527-.118.778a1.81 1.81 0 0 1-.339.592 1.63 1.63 0 0 1-.541.405 2.737 2.737 0 0 1-.736.22 5.86 5.86 0 0 1-.938.068c-.306 0-.61-.02-.914-.059-.316-.04-.631-.093-.947-.16a9.493 9.493 0 0 1-.922-.246 17.605 17.605 0 0 1-.854-.296l.22 1.675c.288.107.582.2.88.278.27.071.544.128.82.17.264.039.53.07.795.092.265.023.533.035.803.034a8.31 8.31 0 0 0 1.801-.186 4.312 4.312 0 0 0 1.472-.609c.418-.277.757-.659.981-1.107a3.742 3.742 0 0 0 .347-1.7 3.814 3.814 0 0 0-.195-1.286 2.497 2.497 0 0 0-.558-.913ZM55.526 7.723a3.635 3.635 0 0 0-2.022-.532 5.162 5.162 0 0 0-1.251.16 5.442 5.442 0 0 0-1.506.639v-.782l-1.725.27v12.076h1.725v-3.786c.012.004.023.01.034.015.313.13.64.223.973.279a6.99 6.99 0 0 0 1.192.093 4.225 4.225 0 0 0 2.173-.559 4.014 4.014 0 0 0 1.523-1.615 5.4 5.4 0 0 0 .566-2.579 5.254 5.254 0 0 0-.431-2.199 3.395 3.395 0 0 0-1.252-1.48Zm-.449 5.658c-.203.45-.543.822-.972 1.065-.477.25-1.01.373-1.548.356a4.817 4.817 0 0 1-1.81-.345V9.119c.023-.01.046-.024.068-.034.248-.113.48-.209.694-.288a3.472 3.472 0 0 1 1.2-.22 3.127 3.127 0 0 1 1.505.33c.408.222.728.577.905 1.006a4.33 4.33 0 0 1 .296 1.725 4.039 4.039 0 0 1-.338 1.743ZM65.454 7.732a4.64 4.64 0 0 0-2.292-.541 4.618 4.618 0 0 0-2.309.558 3.9 3.9 0 0 0-1.54 1.573 4.973 4.973 0 0 0-.549 2.401 5.185 5.185 0 0 0 .516 2.393c.324.65.84 1.186 1.48 1.531a4.6 4.6 0 0 0 2.233.524 4.767 4.767 0 0 0 2.334-.557 3.938 3.938 0 0 0 1.581-1.59c.393-.751.588-1.59.567-2.436a4.903 4.903 0 0 0-.525-2.326 3.696 3.696 0 0 0-1.496-1.53Zm-.102 5.666c-.19.44-.512.809-.922 1.057-.411.236-.879.355-1.353.347a2.405 2.405 0 0 1-1.32-.356 2.382 2.382 0 0 1-.879-1.065 4.264 4.264 0 0 1-.321-1.76c-.02-.585.09-1.169.321-1.708a2.25 2.25 0 0 1 .905-1.014 2.735 2.735 0 0 1 1.396-.339c.38-.01.758.063 1.108.212.306.138.573.35.778.617.218.29.376.621.465.973.105.411.156.835.152 1.26a4.212 4.212 0 0 1-.33 1.776ZM73.107 7.317a3.34 3.34 0 0 0-.897.39c-.288.18-.555.392-.795.633-.04.04-.078.085-.118.127v-1.26l-1.725.254v8.542h1.725v-6.39a4.318 4.318 0 0 1 .922-.494c.174-.068.352-.127.532-.178a3.632 3.632 0 0 1 1.184-.127l.203-1.59a3.233 3.233 0 0 0-1.031.093ZM80.447 14.59c-.08.017-.166.034-.262.051l-.288.05a2.447 2.447 0 0 1-.279.035 4.05 4.05 0 0 1-.253.008 1.713 1.713 0 0 1-.753-.152 1.095 1.095 0 0 1-.482-.448 1.43 1.43 0 0 1-.17-.72V8.73h2.386l.186-1.353H77.96V4.705l-1.725.609v2.063h-1.303l-.186 1.353h1.489v5.04c-.008.336.043.671.152.99.087.251.222.484.397.684.161.179.357.323.575.423.224.103.46.177.702.22.24.044.483.067.727.068.18 0 .358-.006.533-.017a5.744 5.744 0 0 0 .897-.127c.13-.028.24-.053.33-.076l.101-1.404a1.256 1.256 0 0 1-.203.06Z"/></svg>