<svg xmlns="http://www.w3.org/2000/svg" viewBox="0 0 133 28"><path fill="#1767CE" d="M0 0h133v28H0z"/><path fill="#fff" d="M6.667 21V7.001h4.593V21H6.667ZM17.509 9.23 20.151 21h-5.027L11.97 7.001h2.82a2.655 2.655 0 0 1 1.764.641c.49.404.828.964.955 1.587ZM20.841 21V7.001h4.593V21h-4.593Zm8.063-8.675a2.738 2.738 0 0 1-1.41-.375 2.777 2.777 0 0 1-1.015-1.015 2.735 2.735 0 0 1-.375-1.41 2.686 2.686 0 0 1 .375-1.4 2.812 2.812 0 0 1 3.825-1.005c.415.244.76.59 1.005 1.005.25.424.38.908.375 1.4.004.495-.125.982-.375 1.41a2.8 2.8 0 0 1-1.006 1.015c-.423.251-.908.38-1.4.375ZM32.394 21V7.001h4.593V21h-4.593Zm10.409-6.349c.013.014.111.175.295.483.185.309.424.703.72 1.183a366.453 366.453 0 0 1 1.863 3.056c.288.48.617 1.023.986 1.627H41.62a744.12 744.12 0 0 0-.858-1.39c-.256-.414-.529-.861-.818-1.34-.289-.48-.575-.947-.858-1.4a71.148 71.148 0 0 1-.729-1.193 20.758 20.758 0 0 0-.424-.69 2.04 2.04 0 0 1-.335-.986c.02-.338.128-.665.315-.947.079-.132.224-.365.434-.7a210.216 210.216 0 0 0 1.598-2.603c.289-.48.561-.93.817-1.35L41.62 7h5.047l-3.904 6.368c-.12.19-.189.407-.197.632.013.235.095.461.236.65Z"/><path fill="#D4EEFC" d="M62.028 17.649 53.605 6.987H52v14.014h1.863V10.333l8.443 10.668h1.605V6.987H62.03V17.65ZM73.761 11.033l-.015 7.392a9.61 9.61 0 0 1-.43.237c-.24.124-.489.232-.743.325-.24.09-.49.156-.743.198-.259.04-.52.06-.783.059a2.361 2.361 0 0 1-1.169-.257 1.577 1.577 0 0 1-.684-.799 3.506 3.506 0 0 1-.228-1.352v-6.1l-2.021.297v6.197a5.525 5.525 0 0 0 .376 2.191c.22.544.623.995 1.14 1.273a4.003 4.003 0 0 0 1.892.405 4.78 4.78 0 0 0 1.606-.266c.509-.182.99-.434 1.427-.75.12-.087.24-.18.358-.274l-.002.855c0 .987-.23 1.737-.693 2.25-.463.513-1.249.77-2.359.77-.304 0-.614-.014-.931-.04a7.528 7.528 0 0 1-.942-.138 10.532 10.532 0 0 1-1.893-.592l.219 1.757a9.746 9.746 0 0 0 2.675.641c.33.033.667.05 1.011.05a6.317 6.317 0 0 0 2.11-.326 4.467 4.467 0 0 0 1.556-.909c.421-.385.75-.86.962-1.39a4.752 4.752 0 0 0 .327-1.797l-.02-10.205-2.003.298ZM86.484 11.132a3.87 3.87 0 0 0-1.883-.414c-.581 0-1.16.09-1.714.266a6.648 6.648 0 0 0-2.031 1.056V6.099l-2.022.296v14.606h2.022v-7.585a6.503 6.503 0 0 1 1.347-.557c.283-.084.571-.15.862-.197a5.15 5.15 0 0 1 .823-.07c.317-.006.632.044.931.149.252.09.478.243.655.444.181.218.31.474.376.75.085.349.125.707.12 1.065v6h2.02v-6.414a5.444 5.444 0 0 0-.377-2.191 2.591 2.591 0 0 0-1.129-1.263ZM98.673 12.208a3.598 3.598 0 0 0-1.457-1.116 5.112 5.112 0 0 0-2.011-.374 4.945 4.945 0 0 0-2.022.394 4.32 4.32 0 0 0-1.516 1.105 4.833 4.833 0 0 0-.952 1.708 7.107 7.107 0 0 0-.326 2.22 5.954 5.954 0 0 0 .584 2.754 3.866 3.866 0 0 0 1.734 1.717 6.183 6.183 0 0 0 2.815.582c.467.004.934-.025 1.397-.088a6.747 6.747 0 0 0 2.21-.72l.138-1.52c-.25.091-.505.184-.763.276a9.503 9.503 0 0 1-.803.246c-.28.073-.564.126-.852.158-.29.033-.58.05-.872.05a6.273 6.273 0 0 1-1.546-.168 2.543 2.543 0 0 1-1.1-.572c-.316-.3-.548-.678-.673-1.096a4.993 4.993 0 0 1-.216-1.303h7.162a7.532 7.532 0 0 0-.109-2.447 4.602 4.602 0 0 0-.822-1.806Zm-4.994.473a2.817 2.817 0 0 1 1.545-.404 2.43 2.43 0 0 1 1.526.444c.395.314.677.747.803 1.234.099.36.147.732.145 1.105h-5.213a4.88 4.88 0 0 1 .252-1.155c.17-.5.5-.93.942-1.224ZM107.304 19.412l-.337.06c-.108.019-.217.032-.327.039-.106.007-.205.01-.297.01a2.001 2.001 0 0 1-.882-.178 1.276 1.276 0 0 1-.565-.523 1.658 1.658 0 0 1-.198-.839v-5.467h2.794l.218-1.58h-3.012V7.817l-2.022.71v2.409h-1.526l-.218 1.579h1.744v5.882c-.009.392.052.783.179 1.154.102.294.26.566.465.8.189.208.418.376.674.493.262.12.538.206.822.256.281.052.567.079.852.08.212 0 .42-.007.625-.02.205-.013.393-.033.565-.06.171-.026.334-.055.485-.088.152-.033.281-.063.387-.09l.119-1.637c-.077.03-.157.053-.238.069-.093.02-.195.04-.307.059ZM117.302 12.208a3.595 3.595 0 0 0-1.456-1.116 5.116 5.116 0 0 0-2.012-.374 4.944 4.944 0 0 0-2.021.394 4.323 4.323 0 0 0-1.517 1.105 4.832 4.832 0 0 0-.951 1.708 7.085 7.085 0 0 0-.326 2.22 5.958 5.958 0 0 0 .584 2.754 3.867 3.867 0 0 0 1.734 1.717 6.183 6.183 0 0 0 2.815.582c.467.004.934-.026 1.396-.089a6.74 6.74 0 0 0 2.21-.72l.139-1.52c-.251.092-.505.184-.763.276a9.616 9.616 0 0 1-.802.247c-.28.073-.565.126-.853.158-.289.033-.58.05-.872.05a6.285 6.285 0 0 1-1.546-.168 2.544 2.544 0 0 1-1.099-.573 2.496 2.496 0 0 1-.674-1.095 4.967 4.967 0 0 1-.216-1.303h7.162a7.539 7.539 0 0 0-.109-2.448 4.602 4.602 0 0 0-.823-1.805Zm-4.994.473a2.817 2.817 0 0 1 1.546-.404 2.431 2.431 0 0 1 1.526.444c.395.314.676.747.802 1.234.099.36.148.732.145 1.105h-5.212c.037-.394.121-.781.251-1.155.17-.5.501-.93.942-1.224ZM124.853 10.865a3.885 3.885 0 0 0-1.05.454c-.339.21-.651.459-.932.74-.047.047-.092.1-.139.148v-1.47l-2.022.296V21h2.022v-7.456a5.2 5.2 0 0 1 1.08-.576c.205-.08.413-.149.625-.208a4.22 4.22 0 0 1 1.387-.148l.238-1.855a3.781 3.781 0 0 0-1.209.108Z"/></svg>