<svg xmlns="http://www.w3.org/2000/svg" viewBox="0 0 115 24"><path fill="#FFE100" d="M0 0h115v24H0z"/><path fill="#000" d="M76.907 13.254a5.703 5.703 0 0 1-.177 1.495c-.1.397-.288.767-.55 1.082a2.299 2.299 0 0 1-.971.65 4.216 4.216 0 0 1-1.445.22 4.326 4.326 0 0 1-1.673-.296 2.117 2.117 0 0 1-1.082-.997 4.088 4.088 0 0 1-.371-1.9V6.004h-1.775v7.79c-.019.702.11 1.399.38 2.046.231.533.591 1.001 1.048 1.36.46.351.986.607 1.547.752.606.16 1.231.24 1.858.236a5.56 5.56 0 0 0 2.72-.591 3.71 3.71 0 0 0 1.58-1.656c.36-.784.536-1.64.516-2.501V6.006h-1.605v7.248ZM84.562 9.325a3.304 3.304 0 0 0-.896.39c-.288.179-.555.392-.794.633-.04.04-.079.084-.118.126V9.215l-1.724.254v8.533h1.724V11.62c.128-.09.26-.173.397-.25.169-.092.344-.174.524-.244.174-.068.352-.127.532-.178a3.622 3.622 0 0 1 1.183-.126l.203-1.588a3.206 3.206 0 0 0-1.031.092ZM94.413 8.996l-.946.998a3.92 3.92 0 0 0-.389-.255 4.622 4.622 0 0 0-2.298-.54 4.619 4.619 0 0 0-2.306.557 3.898 3.898 0 0 0-1.538 1.572 4.965 4.965 0 0 0-.55 2.4 5.11 5.11 0 0 0 .525 2.39c.096.184.208.36.333.526l-.942 1.004.778.71.9-.975c.13.097.267.186.409.265.69.362 1.46.542 2.239.523.81.017 1.61-.175 2.323-.557a4.007 4.007 0 0 0 1.58-1.588 4.924 4.924 0 0 0 .575-2.434 4.83 4.83 0 0 0-.533-2.324c-.1-.184-.215-.36-.343-.525l.977-1.038-.794-.71Zm-5.897 2.923c.19-.423.505-.777.904-1.014.42-.233.896-.35 1.377-.337.383-.01.763.063 1.115.21.19.086.366.2.52.34l-3.931 4.247a4.374 4.374 0 0 1-.306-1.739c-.02-.586.09-1.168.32-1.707Zm4.46 3.481a2.366 2.366 0 0 1-.92 1.056 2.58 2.58 0 0 1-1.343.347 2.444 2.444 0 0 1-1.327-.355 2.064 2.064 0 0 1-.314-.248l3.933-4.247c.059.135.109.273.15.414.11.41.165.834.16 1.259.02.61-.096 1.216-.338 1.775V15.4ZM100.8 9.325a3.316 3.316 0 0 0-.895.39c-.288.179-.555.392-.794.633-.04.04-.08.084-.119.126V9.215l-1.723.254v8.533h1.723V11.62c.128-.09.26-.173.397-.25.17-.092.345-.174.524-.244.175-.068.352-.127.533-.178a3.605 3.605 0 0 1 1.182-.126l.203-1.588a3.211 3.211 0 0 0-1.031.092ZM108.134 16.592a7.373 7.373 0 0 1-.262.05l-.287.05a2.518 2.518 0 0 1-.279.035 3.88 3.88 0 0 1-.253.008 1.7 1.7 0 0 1-.752-.152 1.09 1.09 0 0 1-.482-.448 1.425 1.425 0 0 1-.169-.718v-4.68h2.383l.186-1.353h-2.569v-2.67l-1.723.608v2.062h-1.302l-.185 1.352h1.487v5.036c-.008.336.043.67.152.988.087.252.222.484.397.685.161.178.356.322.575.422.223.103.458.177.701.22.239.044.482.067.726.067.18 0 .358-.005.533-.016.175-.011.335-.028.481-.051a7.679 7.679 0 0 0 .744-.152l.101-1.403a1.332 1.332 0 0 1-.203.06ZM52.337 6.005h-3.7s2.102 3.452 2.126 3.496a.582.582 0 0 1 .014.705l-2.14 3.51h3.701s1.785-2.92 2.03-3.325a.886.886 0 0 0-.01-1.072c-.264-.449-.264-.448-2.02-3.314ZM48.158 6.005h-3.297v11.993h3.297V6.005ZM63.93 7.992c-.124-.212-1.225-1.987-1.225-1.987h-7.923l1.73 2.903h4.174l-1.722 2.822 1.92 3.224-1.853 3.043h3.383c.543-.89 1.356-2.265 1.526-2.547a.889.889 0 0 0-.01-1.077c-.17-.289-1.075-1.725-1.616-2.61l1.626-2.695a.888.888 0 0 0-.01-1.076Z"/><path fill="#000" d="M56.31 12.12c-.521.851-1.393 2.278-1.557 2.557a.855.855 0 0 0-.01 1.037c.164.271 1.043 1.71 1.567 2.568.524-.857 1.403-2.296 1.566-2.568a.856.856 0 0 0-.01-1.037 392.387 392.387 0 0 0-1.556-2.558ZM6.004 18V6.001h3.937V18H6.004Zm9.294-10.09L17.562 18h-4.309L10.55 6.001h2.416a2.276 2.276 0 0 1 1.513.55c.42.345.71.826.82 1.36ZM18.154 18V6.001h3.937V18h-3.937Zm6.91-7.436a2.383 2.383 0 0 1-2.4-2.4 2.303 2.303 0 0 1 .323-1.2 2.411 2.411 0 0 1 3.278-.861c.355.209.652.506.861.861.215.363.326.778.322 1.2a2.4 2.4 0 0 1-1.183 2.079 2.302 2.302 0 0 1-1.2.321ZM28.057 18V6.001h3.937V18h-3.937Zm8.922-5.442c.011.012.096.15.253.414.158.265.364.603.617 1.014a315.936 315.936 0 0 1 1.597 2.62c.247.411.529.876.845 1.394h-4.326c-.27-.44-.516-.837-.735-1.191-.22-.355-.453-.738-.7-1.15-.249-.41-.494-.81-.737-1.2-.242-.389-.45-.73-.625-1.022-.175-.293-.296-.49-.363-.591a1.748 1.748 0 0 1-.287-.845c.017-.29.11-.57.27-.812.068-.113.192-.313.372-.6s.391-.628.633-1.022c.243-.395.488-.797.736-1.209l.7-1.157.736-1.2h4.326l-3.346 5.458a1.08 1.08 0 0 0-.17.542c.012.201.082.395.203.557h.001Z"/></svg>