<svg xmlns="http://www.w3.org/2000/svg" viewBox="0 0 42 41"><path fill="#0A2343" d="M0 18V6.001h3.937V18H0ZM9.294 7.91 11.558 18H7.25L4.545 6.001h2.417a2.276 2.276 0 0 1 1.513.55c.42.345.71.826.819 1.36ZM12.149 18V6.001h3.938V18h-3.938Zm6.912-7.436a2.382 2.382 0 0 1-2.4-2.4 2.301 2.301 0 0 1 .321-1.2 2.41 2.41 0 0 1 3.278-.861c.356.209.653.506.862.861.215.363.326.778.321 1.2a2.35 2.35 0 0 1-.321 1.209 2.4 2.4 0 0 1-.862.87 2.302 2.302 0 0 1-1.2.321ZM22.05 18V6.001h3.938V18h-3.937Zm8.923-5.442c.01.012.095.15.253.414.158.265.364.603.617 1.014a315.936 315.936 0 0 1 1.597 2.62c.247.411.529.876.845 1.394H29.96c-.27-.44-.516-.837-.736-1.191-.22-.355-.453-.738-.7-1.15-.248-.41-.493-.81-.736-1.2-.242-.389-.45-.73-.625-1.022-.175-.293-.296-.49-.363-.591a1.747 1.747 0 0 1-.287-.845c.016-.29.11-.57.27-.812.067-.113.191-.313.371-.6s.392-.628.634-1.022c.242-.395.488-.797.736-1.209a516 516 0 0 1 .7-1.157L29.96 6h4.326l-3.346 5.458a1.08 1.08 0 0 0-.17.542c.012.201.082.395.203.557Z"/><path fill="#F34531" d="M7.366 29.538a3.202 3.202 0 0 0-.846-.617 6.594 6.594 0 0 0-1.023-.414c-.36-.113-.733-.209-1.116-.288a24.168 24.168 0 0 1-.82-.203 3.783 3.783 0 0 1-.677-.245 2.236 2.236 0 0 1-.516-.338 1.217 1.217 0 0 1-.33-.474 1.83 1.83 0 0 1-.11-.668 2.04 2.04 0 0 1 .11-.694c.07-.196.186-.373.338-.516.159-.145.338-.264.533-.354.223-.102.46-.17.702-.203.289-.041.58-.061.871-.06a7.387 7.387 0 0 1 1.59.17c.255.055.506.125.753.211.23.08.454.178.668.296l.236-1.488a4.21 4.21 0 0 0-.752-.305 10.085 10.085 0 0 0-.804-.203 8.02 8.02 0 0 0-.828-.127 8.662 8.662 0 0 0-.863-.042 7.197 7.197 0 0 0-1.776.203 4.02 4.02 0 0 0-1.378.626c-.383.275-.691.64-.897 1.065a3.444 3.444 0 0 0-.313 1.522c-.01.406.057.81.195 1.192.121.32.309.612.55.855.238.238.512.438.811.592.318.163.649.3.99.406.355.113.719.209 1.09.287.305.068.587.139.847.212.24.067.476.154.701.262.194.092.374.211.533.355.151.142.27.315.347.508.09.232.133.479.127.727.004.264-.036.527-.119.778a1.809 1.809 0 0 1-.338.592 1.63 1.63 0 0 1-.541.406 2.733 2.733 0 0 1-.736.22c-.31.047-.625.07-.939.068-.305-.001-.61-.021-.913-.06-.316-.04-.631-.093-.947-.16a9.52 9.52 0 0 1-.922-.246A17.61 17.61 0 0 1 0 33.09l.22 1.675c.288.107.582.2.88.279.27.07.543.127.82.169.264.039.53.07.795.093.265.023.533.034.803.034a8.32 8.32 0 0 0 1.801-.187 4.312 4.312 0 0 0 1.472-.608c.418-.277.757-.66.98-1.108a3.743 3.743 0 0 0 .348-1.7 3.816 3.816 0 0 0-.195-1.286 2.499 2.499 0 0 0-.558-.913ZM16.668 26.875a3.635 3.635 0 0 0-2.02-.533 5.165 5.165 0 0 0-1.252.16 5.443 5.443 0 0 0-1.506.639v-.782l-1.725.27v12.076h1.725V34.92l.034.015c.313.13.639.223.973.279.394.065.793.096 1.192.093a4.226 4.226 0 0 0 2.173-.558 4.014 4.014 0 0 0 1.522-1.615c.4-.8.595-1.686.567-2.58a5.253 5.253 0 0 0-.432-2.198 3.395 3.395 0 0 0-1.25-1.48Zm-.448 5.657c-.203.45-.544.822-.972 1.066-.477.25-1.01.372-1.548.355a4.817 4.817 0 0 1-1.81-.345V28.27l.068-.034c.248-.113.479-.209.693-.288a3.467 3.467 0 0 1 1.201-.22 3.127 3.127 0 0 1 1.505.33c.408.222.727.577.905 1.006a4.33 4.33 0 0 1 .296 1.726 4.04 4.04 0 0 1-.338 1.742ZM26.597 26.883a4.64 4.64 0 0 0-2.292-.541 4.618 4.618 0 0 0-2.31.558 3.9 3.9 0 0 0-1.538 1.573 4.973 4.973 0 0 0-.55 2.401 5.184 5.184 0 0 0 .516 2.394c.324.65.84 1.185 1.48 1.53a4.6 4.6 0 0 0 2.232.525 4.767 4.767 0 0 0 2.334-.558 3.939 3.939 0 0 0 1.582-1.59c.393-.75.588-1.589.567-2.436a4.903 4.903 0 0 0-.525-2.325 3.696 3.696 0 0 0-1.496-1.531Zm-.102 5.666c-.19.44-.512.809-.922 1.057a2.63 2.63 0 0 1-1.353.347 2.406 2.406 0 0 1-1.32-.356 2.38 2.38 0 0 1-.879-1.065 4.266 4.266 0 0 1-.321-1.759c-.02-.586.09-1.17.321-1.708.19-.424.506-.779.905-1.015a2.736 2.736 0 0 1 1.396-.338c.38-.01.757.062 1.107.21.307.14.574.351.779.619.218.29.376.62.464.972.106.412.157.835.153 1.26a4.212 4.212 0 0 1-.33 1.776ZM34.25 26.468a3.34 3.34 0 0 0-.897.39c-.288.18-.555.392-.795.634-.04.04-.079.084-.118.126v-1.26l-1.725.254v8.542h1.725v-6.39a4.334 4.334 0 0 1 .922-.494c.174-.068.352-.127.532-.178a3.638 3.638 0 0 1 1.184-.127l.203-1.59a3.233 3.233 0 0 0-1.032.093ZM41.59 33.742c-.08.016-.167.033-.263.05l-.287.05a2.445 2.445 0 0 1-.279.035c-.09.005-.175.008-.254.008a1.712 1.712 0 0 1-.752-.152 1.093 1.093 0 0 1-.482-.448 1.427 1.427 0 0 1-.17-.72v-4.684h2.386l.186-1.353h-2.571v-2.672l-1.726.609v2.063h-1.302l-.186 1.353h1.488v5.04c-.007.336.044.671.153.99.087.251.222.484.397.684.16.18.357.323.575.423.224.103.46.177.702.22.24.045.483.067.727.068.18 0 .358-.006.533-.017a5.705 5.705 0 0 0 .897-.127c.13-.028.239-.053.33-.076l.1-1.404a1.256 1.256 0 0 1-.202.06Z"/></svg>