<svg xmlns="http://www.w3.org/2000/svg" viewBox="0 0 61 31" fill="currentColor"><path d="M0 12.997v-12h3.937v12H0Zm9.294-10.09 2.264 10.09H7.25l-2.704-12h2.417a2.276 2.276 0 0 1 1.513.55c.42.346.71.826.819 1.36Zm2.855 10.09v-12h3.938v12h-3.938Zm6.912-7.436a2.382 2.382 0 0 1-2.4-2.4 2.301 2.301 0 0 1 .321-1.2 2.41 2.41 0 0 1 3.278-.862c.356.21.653.506.862.862.215.363.326.778.321 1.2a2.35 2.35 0 0 1-.321 1.208 2.4 2.4 0 0 1-.862.87 2.302 2.302 0 0 1-1.2.322Zm2.99 7.436v-12h3.938v12h-3.937Zm8.923-5.442c.01.011.095.15.253.414s.364.602.617 1.014a313.388 313.388 0 0 1 1.597 2.62c.247.41.529.876.845 1.394H29.96c-.27-.44-.516-.837-.736-1.192-.22-.355-.453-.738-.7-1.15-.248-.41-.493-.81-.736-1.199-.242-.389-.45-.73-.625-1.022-.175-.293-.296-.49-.363-.592a1.747 1.747 0 0 1-.287-.845c.016-.29.11-.57.27-.811.067-.113.191-.313.371-.6a182.106 182.106 0 0 0 1.37-2.23l.7-1.159.736-1.2h4.326l-3.346 5.46a1.08 1.08 0 0 0-.17.54c.012.202.082.396.203.558ZM9.1 18.15H6.99l-4.587 5.284h-.63v-5.285H0v11.987h1.773v-5.42h.06l4.988 5.437 2.414-.017-5.723-5.943 5.587-6.044ZM13.244 28.895c-.059.006-.118.009-.177.008a.906.906 0 0 1-.372-.067.605.605 0 0 1-.253-.211.919.919 0 0 1-.143-.363 2.796 2.796 0 0 1-.042-.524V17.39l-1.722.253v10.855c-.008.285.038.568.135.836.08.217.214.412.388.565.173.149.378.256.6.313.245.063.497.095.75.093a4.2 4.2 0 0 0 .752-.068 3.35 3.35 0 0 0 .295-.067l.17-1.335-.204.034c-.067.011-.126.02-.177.026ZM22.656 29.072a.769.769 0 0 1-.659-.27 1.451 1.451 0 0 1-.185-.895l.033-3.477a4.059 4.059 0 0 0-.135-1.081c-.082-.31-.219-.6-.405-.86a2.285 2.285 0 0 0-.7-.626 3.571 3.571 0 0 0-1.022-.388 6.009 6.009 0 0 0-1.333-.135c-.356 0-.711.023-1.064.068a7.327 7.327 0 0 0-.988.194c-.3.081-.596.18-.886.295l-.203 1.435a9.643 9.643 0 0 1 1.537-.422 6.14 6.14 0 0 1 .7-.093 9.41 9.41 0 0 1 .684-.025c.345-.007.688.032 1.021.118.244.061.468.183.65.355.163.167.28.373.338.599.072.278.106.565.102.853l-.002.423-1.974.134a5.244 5.244 0 0 0-1.958.439 2.804 2.804 0 0 0-1.157.937 2.18 2.18 0 0 0-.38 1.24c-.003.416.099.825.296 1.19.206.376.517.684.895.887.46.24.975.356 1.494.338.486.01.97-.07 1.426-.237a3.292 3.292 0 0 0 1.064-.675c.117-.113.227-.23.332-.354.033.174.095.343.183.497.15.259.382.46.658.574.306.123.633.183.962.177.102 0 .2-.002.296-.008.094-.006.187-.02.278-.042a9.86 9.86 0 0 1 .245-.06 1.43 1.43 0 0 0 .194-.058l.186-1.132a1.48 1.48 0 0 1-.287.068c-.078.01-.157.016-.236.017Zm-2.811-.76a3.246 3.246 0 0 1-.591.372c-.209.101-.43.175-.659.22a3.735 3.735 0 0 1-.717.067 1.904 1.904 0 0 1-.802-.152c-.206-.09-.38-.24-.498-.43a1.262 1.262 0 0 1-.169-.668c-.016-.281.061-.56.22-.793.183-.214.433-.363.709-.422a5.133 5.133 0 0 1 1.317-.135h1.478l-.008 1.676c-.085.096-.18.185-.28.265ZM30.117 26.253a2.535 2.535 0 0 0-.59-.465 4.616 4.616 0 0 0-.71-.329c-.18-.056-.357-.115-.531-.177a9.456 9.456 0 0 0-.524-.169c-.175-.05-.343-.104-.506-.16a3.647 3.647 0 0 1-.448-.186 2.964 2.964 0 0 1-.396-.254 1.104 1.104 0 0 1-.287-.32.812.812 0 0 1-.11-.423.874.874 0 0 1 .118-.464.96.96 0 0 1 .355-.329c.177-.097.367-.165.566-.203.247-.047.499-.07.75-.067a5.497 5.497 0 0 1 .887.076c.175.028.348.065.523.11.175.044.352.095.532.151.167.052.33.114.49.186l.118-1.367a8.09 8.09 0 0 0-.633-.237 6.339 6.339 0 0 0-.633-.169 5.063 5.063 0 0 0-.633-.092 7.673 7.673 0 0 0-.617-.026 5.57 5.57 0 0 0-1.384.16 3.487 3.487 0 0 0-1.089.473c-.302.2-.549.473-.717.794a2.419 2.419 0 0 0-.254 1.14c-.005.284.04.567.135.835.08.225.2.434.355.616.15.172.323.323.515.448.2.13.411.24.633.329a13.454 13.454 0 0 0 .785.261l.38.118.363.119c.118.039.233.076.346.11.15.053.298.118.439.194.124.065.24.145.346.236a.873.873 0 0 1 .22.296.896.896 0 0 1 .075.37.84.84 0 0 1-.278.668 1.618 1.618 0 0 1-.726.346 4.312 4.312 0 0 1-.954.1c-.2 0-.4-.014-.6-.041a8.941 8.941 0 0 1-.691-.118c-.242-.05-.49-.113-.743-.186-.254-.073-.51-.155-.768-.245l.067 1.435c.292.102.56.183.802.245s.473.115.692.16c.212.044.426.073.642.085.208.012.419.017.633.017.47.003.94-.045 1.401-.143a3.608 3.608 0 0 0 1.148-.448c.32-.195.584-.468.768-.793.193-.357.29-.76.278-1.165a2.366 2.366 0 0 0-.143-.87 1.974 1.974 0 0 0-.397-.632ZM38.035 26.253a2.543 2.543 0 0 0-.591-.465 4.601 4.601 0 0 0-.71-.329c-.18-.056-.357-.115-.531-.177a9.487 9.487 0 0 0-.524-.169c-.174-.05-.343-.104-.506-.16a3.654 3.654 0 0 1-.447-.186 2.964 2.964 0 0 1-.397-.254 1.101 1.101 0 0 1-.287-.32.81.81 0 0 1-.11-.423.874.874 0 0 1 .118-.464.954.954 0 0 1 .355-.329 1.91 1.91 0 0 1 .566-.203c.247-.047.499-.07.75-.067a5.515 5.515 0 0 1 .887.076c.175.028.349.065.523.11.175.044.352.095.532.151.167.052.33.114.49.186l.118-1.367a8.104 8.104 0 0 0-.633-.237 6.294 6.294 0 0 0-.633-.169 5.063 5.063 0 0 0-.633-.092 7.675 7.675 0 0 0-.616-.026 5.566 5.566 0 0 0-1.385.16 3.483 3.483 0 0 0-1.089.473c-.302.2-.549.473-.717.794a2.41 2.41 0 0 0-.253 1.14c-.005.284.04.567.135.835.08.225.2.434.355.616.15.173.323.323.514.448.2.13.412.24.634.329a13.64 13.64 0 0 0 .785.261l.38.118.362.119c.118.039.234.076.346.11.151.053.298.118.44.194.123.065.24.144.346.236a.868.868 0 0 1 .295.667.839.839 0 0 1-.279.667 1.617 1.617 0 0 1-.726.346 4.3 4.3 0 0 1-.953.1 4.71 4.71 0 0 1-.6-.041 8.932 8.932 0 0 1-.692-.118c-.242-.05-.49-.113-.743-.186a15.128 15.128 0 0 1-.768-.245l.068 1.435c.292.102.56.183.802.245s.473.115.692.16c.211.044.426.073.641.085.208.012.42.017.633.017.471.003.94-.045 1.401-.143a3.607 3.607 0 0 0 1.148-.448c.32-.195.584-.468.769-.793.193-.357.289-.76.278-1.165a2.36 2.36 0 0 0-.144-.87 1.968 1.968 0 0 0-.396-.632ZM42.095 17.82a1.095 1.095 0 0 0-.582-.16 1.137 1.137 0 0 0-.591.16 1.235 1.235 0 0 0-.43.422 1.09 1.09 0 0 0-.161.582c-.002.208.054.413.16.591.104.177.252.323.43.422.181.102.385.154.592.152.204.003.405-.05.582-.152.174-.1.316-.246.414-.422.101-.18.153-.384.152-.59a1.14 1.14 0 0 0-.152-.583 1.193 1.193 0 0 0-.414-.422ZM40.618 30.136h1.722v-8.78l-1.722.254v8.526ZM50.308 26.253a2.535 2.535 0 0 0-.59-.465 4.62 4.62 0 0 0-.71-.329 14.91 14.91 0 0 1-.532-.177 9.409 9.409 0 0 0-.523-.169c-.175-.05-.344-.104-.507-.16a3.644 3.644 0 0 1-.447-.186 2.946 2.946 0 0 1-.397-.254 1.103 1.103 0 0 1-.287-.32.81.81 0 0 1-.11-.423.874.874 0 0 1 .119-.464.955.955 0 0 1 .354-.329 1.91 1.91 0 0 1 .566-.203c.247-.047.5-.07.751-.067a5.507 5.507 0 0 1 .887.076c.174.028.348.065.523.11.174.044.351.095.532.151.166.052.33.114.489.186l.118-1.367a8.104 8.104 0 0 0-.633-.237 6.294 6.294 0 0 0-.633-.169 5.063 5.063 0 0 0-.633-.092 7.668 7.668 0 0 0-.616-.026 5.566 5.566 0 0 0-1.385.16 3.483 3.483 0 0 0-1.088.473c-.303.2-.55.473-.718.794a2.41 2.41 0 0 0-.253 1.14c-.005.284.04.567.135.835.08.225.2.434.355.616.15.172.323.323.515.448.2.13.411.24.633.329a13.759 13.759 0 0 0 .785.261l.38.118c.123.04.244.079.362.119.118.04.234.076.347.11.15.053.297.118.439.194.123.065.24.145.346.236a.865.865 0 0 1 .295.667.842.842 0 0 1-.278.667c-.21.174-.46.293-.727.346a4.3 4.3 0 0 1-.953.1c-.2 0-.4-.014-.6-.041a8.938 8.938 0 0 1-.692-.118 10.26 10.26 0 0 1-.743-.186 15.227 15.227 0 0 1-.768-.245l.068 1.435a10 10 0 0 0 .802.245c.242.062.473.115.692.16.212.044.426.073.642.085.208.012.419.017.633.017.47.003.94-.045 1.4-.143a3.61 3.61 0 0 0 1.149-.448c.319-.195.583-.468.768-.793.193-.357.29-.76.278-1.165a2.362 2.362 0 0 0-.143-.87 1.97 1.97 0 0 0-.397-.632ZM58.092 30.136h2.229l-4.096-4.615 4.011-3.995h-2.11L55.237 24.7h-.623v-7.31l-1.722.253v12.492h1.722V26h.028l3.45 4.137Z"/></svg>