<svg xmlns="http://www.w3.org/2000/svg" viewBox="0 0 75 39"><path fill="#fff" d="M0 14.333V.335h4.593v13.998H0Zm10.843-11.77 2.641 11.77H8.457L5.303.335h2.82a2.655 2.655 0 0 1 1.764.64c.491.404.829.964.956 1.588Zm3.331 11.77V.335h4.594v13.998h-4.594Zm8.063-8.675a2.738 2.738 0 0 1-1.409-.375 2.778 2.778 0 0 1-1.015-1.015 2.735 2.735 0 0 1-.375-1.41 2.685 2.685 0 0 1 .375-1.4A2.812 2.812 0 0 1 23.637.454c.415.244.761.59 1.005 1.005.251.424.38.908.375 1.4.005.496-.125.983-.375 1.41a2.8 2.8 0 0 1-1.005 1.015c-.424.251-.908.38-1.4.375Zm3.49 8.675V.335h4.594v13.998h-4.594Zm10.409-6.348c.013.013.111.174.296.483.184.308.424.702.72 1.183a386.846 386.846 0 0 1 1.862 3.056c.289.48.617 1.022.986 1.626h-5.047l-.858-1.39c-.256-.414-.529-.86-.817-1.34-.29-.48-.576-.946-.858-1.4a71.148 71.148 0 0 1-.73-1.193 21.112 21.112 0 0 0-.424-.69 2.04 2.04 0 0 1-.334-.986c.019-.338.128-.665.315-.947.078-.131.223-.364.433-.7a216.7 216.7 0 0 0 1.598-2.603l.817-1.35.858-1.4H40l-3.904 6.369c-.12.189-.189.407-.197.631.013.235.095.462.236.65h.001Z"/><path fill="#9FDAF5" d="M10.028 30.995 1.605 20.333H0v14.014h1.863V23.68l8.443 10.667h1.605V20.333H10.03v10.662ZM21.761 24.38l-.015 7.392a9.51 9.51 0 0 1-.43.236c-.24.124-.489.233-.743.326-.24.09-.49.155-.743.197-.259.04-.52.06-.783.06a2.362 2.362 0 0 1-1.169-.258 1.577 1.577 0 0 1-.684-.799 3.506 3.506 0 0 1-.228-1.352v-6.099l-2.021.296v6.197a5.526 5.526 0 0 0 .376 2.192c.22.544.623.994 1.14 1.273a4.002 4.002 0 0 0 1.892.404 4.78 4.78 0 0 0 1.606-.266c.509-.181.99-.434 1.427-.75.12-.087.24-.179.358-.274l-.002.855c0 .987-.23 1.737-.693 2.25-.463.514-1.249.77-2.359.77-.304 0-.614-.013-.931-.04a7.547 7.547 0 0 1-.942-.138 10.997 10.997 0 0 1-1.893-.592l.219 1.757a9.746 9.746 0 0 0 2.675.641c.33.033.667.05 1.011.05a6.317 6.317 0 0 0 2.11-.326 4.465 4.465 0 0 0 1.556-.908c.421-.386.75-.862.962-1.391a4.752 4.752 0 0 0 .327-1.797l-.02-10.204-2.003.298ZM34.484 24.478a3.87 3.87 0 0 0-1.883-.414c-.581 0-1.16.09-1.714.266a6.648 6.648 0 0 0-2.031 1.056v-5.94l-2.022.295v14.606h2.022v-7.584a6.503 6.503 0 0 1 1.347-.558c.283-.083.571-.15.862-.197.272-.045.547-.068.823-.069.317-.007.632.044.931.148.252.09.478.244.655.444.182.218.31.475.376.75.085.349.125.707.12 1.066v6h2.02v-6.415a5.444 5.444 0 0 0-.377-2.19 2.591 2.591 0 0 0-1.129-1.264ZM46.673 25.554a3.597 3.597 0 0 0-1.457-1.115 5.108 5.108 0 0 0-2.011-.375 4.943 4.943 0 0 0-2.022.395c-.58.253-1.098.63-1.516 1.105a4.833 4.833 0 0 0-.952 1.707 7.106 7.106 0 0 0-.326 2.22 5.954 5.954 0 0 0 .584 2.754 3.866 3.866 0 0 0 1.734 1.718 6.183 6.183 0 0 0 2.815.582c.467.004.934-.026 1.397-.089a6.738 6.738 0 0 0 2.21-.72l.138-1.52c-.25.092-.505.184-.763.276a9.503 9.503 0 0 1-.803.247c-.28.073-.564.126-.852.157-.29.033-.58.05-.872.05a6.273 6.273 0 0 1-1.546-.168 2.543 2.543 0 0 1-1.1-.572c-.316-.3-.548-.678-.673-1.096a4.996 4.996 0 0 1-.217-1.302h7.163a7.532 7.532 0 0 0-.109-2.448 4.602 4.602 0 0 0-.822-1.806Zm-4.994.474a2.817 2.817 0 0 1 1.545-.405 2.43 2.43 0 0 1 1.526.444c.395.314.677.747.803 1.234.099.36.147.732.145 1.105h-5.213a4.88 4.88 0 0 1 .252-1.154c.17-.5.5-.931.942-1.224ZM55.304 32.758l-.337.06a2.99 2.99 0 0 1-.327.04c-.106.006-.205.009-.297.009a2.003 2.003 0 0 1-.882-.178 1.273 1.273 0 0 1-.565-.523 1.66 1.66 0 0 1-.198-.838V25.86h2.794l.218-1.579h-3.012v-3.119l-2.022.711v2.408H49.15l-.218 1.58h1.744v5.881c-.009.392.052.783.179 1.154.102.294.26.566.465.8.189.208.418.376.674.493.262.12.538.206.822.257.281.052.567.078.852.079.212 0 .42-.007.625-.02.205-.013.393-.033.565-.06.171-.026.334-.055.486-.088.151-.032.28-.062.386-.089l.119-1.638c-.077.03-.157.053-.238.07-.093.019-.195.039-.307.058ZM65.302 25.554a3.599 3.599 0 0 0-1.456-1.115 5.11 5.11 0 0 0-2.012-.375 4.947 4.947 0 0 0-2.021.395c-.581.253-1.099.63-1.517 1.105a4.833 4.833 0 0 0-.95 1.707 7.106 7.106 0 0 0-.327 2.22 5.958 5.958 0 0 0 .584 2.754 3.866 3.866 0 0 0 1.734 1.717 6.185 6.185 0 0 0 2.814.582c.468.004.934-.025 1.397-.088a6.75 6.75 0 0 0 2.21-.72l.14-1.52c-.252.091-.506.184-.764.276a9.545 9.545 0 0 1-.802.246 5.98 5.98 0 0 1-.853.158c-.29.033-.58.05-.872.05a6.28 6.28 0 0 1-1.546-.168 2.547 2.547 0 0 1-1.1-.572 2.498 2.498 0 0 1-.673-1.096 4.983 4.983 0 0 1-.216-1.303h7.162a7.525 7.525 0 0 0-.11-2.447 4.603 4.603 0 0 0-.822-1.806Zm-4.994.474a2.817 2.817 0 0 1 1.546-.405 2.431 2.431 0 0 1 1.526.444c.395.314.676.747.802 1.234.1.36.148.732.145 1.105h-5.212a4.89 4.89 0 0 1 .251-1.154c.17-.5.5-.931.942-1.224ZM72.853 24.212c-.371.099-.725.252-1.05.454-.339.21-.651.458-.932.74-.047.046-.092.099-.139.148v-1.47l-2.022.295v9.968h2.022V26.89a5.169 5.169 0 0 1 1.08-.576c.205-.08.413-.149.625-.207a4.229 4.229 0 0 1 1.387-.149l.238-1.855a3.785 3.785 0 0 0-1.21.109Z"/></svg>