<svg xmlns="http://www.w3.org/2000/svg" viewBox="0 0 47 41"><path fill="#fff" d="M0 17.966V5.967h4v12H0ZM9.244 7.877l2.264 10.09H7.2l-2.704-12h2.417a2.276 2.276 0 0 1 1.513.55c.42.346.66.826.819 1.36ZM12 17.967v-12h4v12h-4Zm7.01-7.437a2.381 2.381 0 0 1-2.078-1.192 2.345 2.345 0 0 1-.321-1.207 2.301 2.301 0 0 1 .321-1.2 2.41 2.41 0 0 1 3.278-.862c.356.21.653.506.862.862a2.3 2.3 0 0 1 .321 1.2 2.35 2.35 0 0 1-.321 1.208 2.4 2.4 0 0 1-.862.87 2.3 2.3 0 0 1-1.2.321ZM22 17.966V5.967h4v12h-4Zm8.974-5.442c.01.012.095.15.253.415.158.264.364.602.617 1.014a309.436 309.436 0 0 1 1.597 2.62c.247.41.529.875.845 1.393H29.96c-.27-.44-.516-.836-.736-1.191-.22-.355-.453-.738-.7-1.15-.248-.41-.493-.81-.736-1.2a60.12 60.12 0 0 1-.625-1.022 18.04 18.04 0 0 0-.363-.591 1.747 1.747 0 0 1-.287-.845c.016-.29.11-.57.27-.812.067-.112.191-.312.371-.6a182.106 182.106 0 0 0 1.37-2.23l.7-1.158.736-1.2h4.326l-3.346 5.459a1.079 1.079 0 0 0-.17.54c.012.203.083.397.204.559Z"/><path fill="#9FDAF5" d="M5.636 24.454V34.95H3.864V24.454H0v-1.485h9.484v1.485H5.636Zm7.307 1.83a3.32 3.32 0 0 0-.894.389 4.404 4.404 0 0 0-.793.633c-.04.039-.08.084-.119.126v-1.257l-1.72.253v8.522h1.72v-6.376a4.214 4.214 0 0 1 .92-.492 5.88 5.88 0 0 1 .532-.177 3.594 3.594 0 0 1 1.181-.127l.203-1.586a3.21 3.21 0 0 0-1.03.093Zm9.923 1.941c.348.658.523 1.432.523 2.32 0 .934-.189 1.744-.566 2.43a3.93 3.93 0 0 1-1.577 1.587c-.675.371-1.452.557-2.33.557-.877 0-1.585-.175-2.227-.523a3.522 3.522 0 0 1-1.476-1.528c-.343-.669-.515-1.465-.515-2.387 0-.923.183-1.722.549-2.397a3.891 3.891 0 0 1 1.535-1.569c.658-.371 1.426-.557 2.304-.557.877 0 1.64.18 2.286.54.647.36 1.145.87 1.494 1.527ZM21.6 30.58c0-.46-.05-.88-.152-1.257a2.728 2.728 0 0 0-.464-.97 2.025 2.025 0 0 0-.776-.616c-.31-.14-.678-.211-1.105-.211-.54 0-1.005.113-1.393.338-.388.224-.689.562-.902 1.012-.214.45-.321 1.018-.321 1.704 0 .687.107 1.283.32 1.755.214.473.507.827.878 1.063.371.237.81.355 1.316.355a2.62 2.62 0 0 0 1.35-.346c.394-.23.7-.582.92-1.055.22-.472.329-1.063.329-1.772Zm15.542-4.067c-.405-.236-.906-.354-1.502-.354-.461 0-.906.076-1.333.228a4.704 4.704 0 0 0-1.215.65 5.95 5.95 0 0 0-.6.506c-.196-.447-.483-.788-.868-1.013-.405-.236-.912-.354-1.519-.354-.45 0-.892.076-1.325.228a4.802 4.802 0 0 0-1.578.922v-1.15l-1.72.253v8.522h1.72v-6.418c.206-.132.417-.256.633-.357.276-.13.554-.228.836-.296a3.47 3.47 0 0 1 .81-.1c.292 0 .537.041.734.126.197.084.363.208.497.37.136.164.234.378.296.642.062.265.093.571.093.92v5.113h1.72v-5.468c0-.351-.022-.672-.064-.964.2-.13.4-.248.605-.352a3.86 3.86 0 0 1 .827-.303 3.51 3.51 0 0 1 .827-.102c.27 0 .523.042.725.127.203.084.371.208.507.371.135.163.233.377.295.641.062.265.093.571.093.92v5.13h1.72v-5.484c0-.765-.1-1.39-.303-1.873-.202-.484-.506-.844-.911-1.08Zm9.492 5.19a1.98 1.98 0 0 0-.397-.633 2.54 2.54 0 0 0-.59-.464 4.511 4.511 0 0 0-.709-.33 13.76 13.76 0 0 1-.531-.177 9.452 9.452 0 0 0-.524-.168c-.174-.05-.343-.104-.506-.16a3.7 3.7 0 0 1-.447-.186 3.007 3.007 0 0 1-.397-.253 1.112 1.112 0 0 1-.286-.321.813.813 0 0 1-.11-.422c0-.18.04-.335.118-.464a.96.96 0 0 1 .354-.329 1.91 1.91 0 0 1 .566-.203c.22-.044.47-.067.75-.067a5.281 5.281 0 0 1 .887.076c.174.028.348.065.523.11.174.045.351.095.531.152.18.056.343.118.49.185l.118-1.367a7.92 7.92 0 0 0-.633-.236 6.164 6.164 0 0 0-.633-.169 5.057 5.057 0 0 0-.633-.093 7.653 7.653 0 0 0-.616-.025 5.6 5.6 0 0 0-1.383.16 3.488 3.488 0 0 0-1.089.473c-.31.208-.548.472-.717.793-.169.32-.253.7-.253 1.14 0 .314.045.593.135.834.09.242.208.448.354.616.147.17.318.318.515.448.197.129.408.239.633.329a15.301 15.301 0 0 0 .784.261 31.13 31.13 0 0 1 .743.236c.118.04.233.076.346.11.157.056.304.121.439.194.135.073.25.152.346.236a.863.863 0 0 1 .295.667c0 .281-.093.503-.279.667a1.62 1.62 0 0 1-.725.345 4.31 4.31 0 0 1-.954.102c-.18 0-.38-.014-.599-.042a8.927 8.927 0 0 1-.692-.119c-.241-.05-.489-.112-.742-.185a15.064 15.064 0 0 1-.768-.245l.068 1.434c.292.102.56.183.801.245.242.062.473.115.692.16.22.045.433.074.641.085.208.011.42.017.633.017a6.57 6.57 0 0 0 1.4-.144 3.621 3.621 0 0 0 1.148-.447 2.21 2.21 0 0 0 .768-.793c.186-.326.279-.714.279-1.164 0-.338-.048-.628-.144-.87Z"/></svg>