<svg xmlns="http://www.w3.org/2000/svg" viewBox="0 0 65 24"><path fill="#1767CE" d="M0 0h65v24H0z"/><path fill="#fff" d="M6.004 18V6h3.938V18H6.004Zm9.294-10.09L17.562 18h-4.308L10.55 6h2.417a2.276 2.276 0 0 1 1.512.55c.421.345.71.826.82 1.36ZM18.154 18V6h3.937V18h-3.937Zm6.91-7.436a2.381 2.381 0 0 1-2.078-1.191 2.344 2.344 0 0 1-.32-1.209 2.301 2.301 0 0 1 .32-1.2 2.41 2.41 0 0 1 3.279-.862c.355.21.652.506.861.862.215.363.326.778.322 1.2a2.35 2.35 0 0 1-.322 1.209 2.4 2.4 0 0 1-.861.87 2.302 2.302 0 0 1-1.2.321ZM28.057 18V6h3.938V18h-3.938Zm8.922-5.442c.011.012.096.15.254.414.157.265.363.603.616 1.014a315.936 315.936 0 0 1 1.597 2.62L40.29 18h-4.326c-.27-.44-.515-.837-.735-1.192-.22-.354-.453-.738-.7-1.149-.249-.41-.494-.81-.736-1.2-.243-.389-.451-.73-.625-1.022a18.04 18.04 0 0 0-.364-.591 1.747 1.747 0 0 1-.287-.845c.017-.29.11-.57.27-.812.068-.113.192-.313.372-.6s.391-.628.634-1.022c.242-.395.487-.797.735-1.209l.7-1.157.736-1.2h4.326l-3.346 5.458a1.08 1.08 0 0 0-.169.542c.011.201.082.395.203.557Z"/><path fill="#D4EEFC" fill-rule="evenodd" d="M57.612 18.465a9.143 9.143 0 1 0-12.93-12.93 9.143 9.143 0 0 0 12.93 12.93ZM54.516 7.966l-2.932 1.587.002-.002a.178.178 0 0 0-.072.24l.011.021a.177.177 0 0 0 .24.072l2.084-1.127a.432.432 0 0 1 .587.156.432.432 0 0 1-.19.578l-2.063 1.115a.196.196 0 0 0-.089.262.197.197 0 0 0 .269.07l.565-.306.051-.028.93-.503a.432.432 0 0 1 .588.156.432.432 0 0 1-.191.577l-1.388.75-.223.12a.631.631 0 0 0-.702-.403l-2.528.482a.922.922 0 0 0-.212.08 2.22 2.22 0 0 1-.495-2.645c.002-.003.002-.006.002-.009l1.06-2.36a.431.431 0 0 1 .561-.233.433.433 0 0 1 .2.575l-.343.764.555-.3a.07.07 0 0 1 .012-.005c.005-.001.01-.003.014-.006a.152.152 0 0 0 .011-.007l.015-.01 2.244-1.214a.431.431 0 0 1 .587.156.432.432 0 0 1-.19.578l-2.478 1.34a.178.178 0 0 0-.072.24l.011.02a.178.178 0 0 0 .24.072l2.932-1.586a.432.432 0 0 1 .587.156.432.432 0 0 1-.19.577Zm-3.363 5.925 2.987 1.468a.43.43 0 0 1 .213.568.43.43 0 0 1-.58.179l-2.986-1.468a.177.177 0 0 0-.237.08l-.01.022a.177.177 0 0 0 .08.237l2.125 1.044a.431.431 0 0 1 .213.568.43.43 0 0 1-.58.179l-2.102-1.033a.196.196 0 0 0-.265.08.197.197 0 0 0 .1.259l1.575.774a.431.431 0 0 1 .212.568.43.43 0 0 1-.58.179l-1.414-.695s-1.282-.64-1.314-.67a2.227 2.227 0 0 1-.142-3.68 2.217 2.217 0 0 1 .979-.406l.005-.001 2.533-.505a.43.43 0 0 1 .515.323.432.432 0 0 1-.353.495l-.82.163.566.278a.066.066 0 0 1 .01.006c.004.003.008.007.014.009a.355.355 0 0 0 .029.01l2.285 1.124a.43.43 0 0 1 .213.568.43.43 0 0 1-.58.179l-2.525-1.24a.177.177 0 0 0-.237.08l-.01.022a.177.177 0 0 0 .08.236Z" clip-rule="evenodd"/></svg>