<svg xmlns="http://www.w3.org/2000/svg" viewBox="0 0 35 31"><path fill="#0A2343" d="M0 13V1.003h3.937V13H0ZM9.294 2.913 11.558 13H7.25L4.545 1h2.417a2.276 2.276 0 0 1 1.513.55c.42.346.71.826.819 1.36ZM12.149 13V1h3.938v12h-3.938Zm6.912-7.436a2.382 2.382 0 0 1-2.4-2.4 2.301 2.301 0 0 1 .321-1.2 2.41 2.41 0 0 1 3.278-.862c.356.21.653.506.862.862.215.363.326.778.321 1.2a2.35 2.35 0 0 1-.321 1.208 2.4 2.4 0 0 1-.862.87 2.302 2.302 0 0 1-1.2.322ZM22.05 13V1h3.938v12h-3.937Zm8.923-5.442c.01.012.095.15.253.414s.364.602.617 1.014a316.545 316.545 0 0 1 1.597 2.62c.247.41.529.876.845 1.394H29.96c-.27-.44-.516-.837-.736-1.192-.22-.355-.453-.738-.7-1.149a99.5 99.5 0 0 0-.736-1.2c-.242-.389-.45-.73-.625-1.022-.175-.293-.296-.49-.363-.592a1.747 1.747 0 0 1-.287-.845c.016-.29.11-.57.27-.811.067-.113.191-.313.371-.6s.392-.628.634-1.023c.242-.394.488-.797.736-1.208l.7-1.158.736-1.2h4.326l-3.346 5.46a1.08 1.08 0 0 0-.17.54c.012.202.082.396.203.558Z"/><path fill="#1767CE" d="M0 19.648h3.896v10.477h1.787V19.648h3.879v-1.482H0v1.482ZM18.954 18.166l-2.535 7.445a60.227 60.227 0 0 0-.758 2.493l-.177.638a89.67 89.67 0 0 0-.572-1.977c-.13-.433-.263-.84-.4-1.221l-2.483-7.378h-1.906l4.186 11.96h2.211l4.203-11.96h-1.77Z"/></svg>