<svg xmlns="http://www.w3.org/2000/svg" viewBox="0 0 35 31"><path fill="#fff" d="M0 13.005V1.006h3.937v12H0ZM9.294 2.916l2.264 10.09H7.25l-2.704-12h2.417a2.276 2.276 0 0 1 1.513.55c.42.346.71.826.819 1.36Zm2.855 10.09v-12h3.938v12h-3.938Zm6.912-7.437a2.382 2.382 0 0 1-2.4-2.4 2.301 2.301 0 0 1 .321-1.2 2.41 2.41 0 0 1 3.278-.861c.356.21.653.506.862.862.215.363.326.778.321 1.2a2.35 2.35 0 0 1-.321 1.208 2.4 2.4 0 0 1-.862.87 2.302 2.302 0 0 1-1.2.321Zm2.99 7.436V1.006h3.938v12h-3.937Zm8.923-5.442c.01.012.095.15.253.414.158.265.364.603.617 1.015a315.246 315.246 0 0 1 1.597 2.619c.247.411.529.876.845 1.394H29.96c-.27-.44-.516-.836-.736-1.191-.22-.355-.453-.738-.7-1.15-.248-.41-.493-.81-.736-1.2-.242-.388-.45-.73-.625-1.022a17.97 17.97 0 0 0-.363-.591 1.747 1.747 0 0 1-.287-.845c.016-.29.11-.57.27-.812.067-.112.191-.312.371-.6a182.106 182.106 0 0 0 1.37-2.23l.7-1.158.736-1.2h4.326L30.94 6.465a1.08 1.08 0 0 0-.17.54c.012.203.082.397.203.558ZM8.145 19.771a3.018 3.018 0 0 0-.786-.82 3.771 3.771 0 0 0-1.14-.54 5.403 5.403 0 0 0-1.521-.195H0v11.999h1.774v-4.31h3.06a3.99 3.99 0 0 0 1.976-.49 3.661 3.661 0 0 0 1.394-1.369 4.034 4.034 0 0 0 .516-2.078 4.932 4.932 0 0 0-.135-1.166 3.36 3.36 0 0 0-.44-1.03Zm-1.571 3.642a1.997 1.997 0 0 1-.955.786c-.478.18-.985.266-1.496.253H1.774v-4.765H4.36a3.22 3.22 0 0 1 1.436.278c.36.174.653.458.837.811.195.397.29.835.279 1.276.02.477-.098.949-.338 1.36ZM13.097 18.216c-.27.136-.527.268-.77.398a21.7 21.7 0 0 1-.709.363c-.231.113-.465.225-.702.338a8.2 8.2 0 0 1-.726.304c-.248.09-.513.18-.794.27l.371 1.437c.338-.102.645-.203.921-.305.27-.098.536-.211.795-.338.253-.123.507-.259.76-.405l.009-.005v9.942h1.757V18.217h-.912Z"/></svg>