<svg xmlns="http://www.w3.org/2000/svg" viewBox="0 0 113 48"><path fill="#fff" d="M0 12.998v-12h3.937v12H0Zm9.294-10.09 2.264 10.09H7.25l-2.704-12h2.417a2.276 2.276 0 0 1 1.513.55c.42.346.71.826.819 1.36Zm2.855 10.09v-12h3.938v12h-3.938Zm6.912-7.436a2.382 2.382 0 0 1-2.4-2.4 2.301 2.301 0 0 1 .321-1.2A2.41 2.41 0 0 1 20.26 1.1c.356.21.653.506.862.862.215.363.326.778.321 1.2a2.35 2.35 0 0 1-.321 1.208 2.4 2.4 0 0 1-.862.87 2.302 2.302 0 0 1-1.2.322Zm2.99 7.436v-12h3.938v12h-3.937Zm8.923-5.442c.01.012.095.15.253.414s.364.602.617 1.014a314.643 314.643 0 0 1 1.597 2.62c.247.411.529.876.845 1.394H29.96c-.27-.44-.516-.837-.736-1.192-.22-.354-.453-.738-.7-1.149-.248-.41-.493-.81-.736-1.2-.242-.389-.45-.73-.625-1.022-.175-.293-.296-.49-.363-.592a1.747 1.747 0 0 1-.287-.845c.016-.29.11-.57.27-.811.067-.113.191-.313.371-.6s.392-.628.634-1.022c.242-.395.488-.798.736-1.209l.7-1.157.736-1.2h4.326L30.94 6.457a1.08 1.08 0 0 0-.17.541c.012.202.082.396.203.558Z"/><path fill="#85E6D6" d="M9.094 18.142h-2.11l-4.582 5.28h-.63v-5.28H.001V30.12h1.771v-5.415h.06l4.984 5.432 2.412-.017-5.719-5.938 5.585-6.04ZM14.104 21.457a3.315 3.315 0 0 0-.894.388c-.288.18-.554.392-.793.633-.04.04-.079.084-.118.126v-1.256l-1.721.253v8.519h1.72v-6.373a4.374 4.374 0 0 1 .92-.493c.174-.068.351-.127.531-.177a3.633 3.633 0 0 1 1.181-.127l.203-1.585a3.208 3.208 0 0 0-1.03.092ZM16.701 30.12h1.72v-8.772l-1.72.253v8.519ZM17.005 19.83c.18.1.384.153.59.151.204.003.405-.05.582-.152.174-.1.317-.246.414-.421.1-.18.153-.384.151-.59a1.14 1.14 0 0 0-.151-.583 1.19 1.19 0 0 0-.414-.422 1.09 1.09 0 0 0-.582-.16 1.135 1.135 0 0 0-.59.16 1.238 1.238 0 0 0-.43.422 1.089 1.089 0 0 0-.16.582c-.002.208.053.412.16.59.103.177.252.323.43.422ZM25.44 22.933c.275-.006.55.037.81.127.215.077.406.208.556.38.155.185.265.405.321.64.072.299.106.605.101.912v5.128h1.72v-5.483a4.674 4.674 0 0 0-.32-1.872 2.21 2.21 0 0 0-.961-1.08 3.319 3.319 0 0 0-1.62-.354 4.74 4.74 0 0 0-1.442.227c-.48.154-.937.372-1.358.65-.163.107-.32.225-.472.346v-1.206l-1.721.253v8.519h1.72v-6.407c.167-.098.339-.186.515-.265.237-.105.48-.198.726-.279a4.86 4.86 0 0 1 .725-.177c.231-.038.466-.058.7-.059ZM37.84 33.367c.615-.286.453-.75.8-1.332.34-.599.512-1.278.498-1.966v-8.738l-1.65.424c-.19-.08-.386-.149-.585-.205a6.111 6.111 0 0 0-.785-.16 6.577 6.577 0 0 0-.91-.06 4.08 4.08 0 0 0-1.603.321c-.508.215-.97.528-1.358.92a4.162 4.162 0 0 0-.937 1.484 5.684 5.684 0 0 0-.337 2.033 5.28 5.28 0 0 0 .43 2.218 3.271 3.271 0 0 0 1.257 1.451 3.723 3.723 0 0 0 2.008.515 4.865 4.865 0 0 0 1.805-.355c.342-.14.665-.323.96-.546v.462a3.56 3.56 0 0 1-.16 1.122 2.039 2.039 0 0 1-.488.81c-.242.232-.538.4-.861.489-.42.115-.855.17-1.29.16-.347 0-.693-.02-1.038-.059a7.383 7.383 0 0 1-1.071-.202 8.204 8.204 0 0 1-1.063-.363l.862 1.485c.31.125.629.23.954.312.341.086.687.15 1.037.194.37.045.741.068 1.113.067a5.442 5.442 0 0 0 2.413-.48Zm-.626-5.06a5.335 5.335 0 0 1-.649.32c-.197.08-.4.146-.607.194a2.753 2.753 0 0 1-.616.067 2.931 2.931 0 0 1-1.459-.329 1.974 1.974 0 0 1-.86-.995 4.484 4.484 0 0 1-.279-1.712c-.007-.466.058-.93.194-1.375.11-.366.3-.703.557-.987a2.43 2.43 0 0 1 .894-.599 3.251 3.251 0 0 1 1.206-.21c.266-.001.531.021.793.067.268.047.533.112.793.194.083.026.169.06.253.091v5.144c-.074.044-.15.09-.22.13ZM43.473 25.987h.028l3.447 4.133h2.227l-4.092-4.611 4.008-3.993h-2.11l-2.886 3.173h-.622v-7.305l-1.72.253v12.484h1.72v-4.134ZM55.437 29.024c.032.175.094.343.182.497.15.258.382.46.658.574.306.122.633.183.962.177.1 0 .2-.003.295-.009.094-.005.187-.02.278-.042.09-.023.172-.042.245-.059.066-.015.131-.035.194-.059l.186-1.13c-.094.032-.19.054-.287.067-.079.01-.157.016-.236.017a.77.77 0 0 1-.658-.27 1.452 1.452 0 0 1-.186-.894l.034-3.475a4.056 4.056 0 0 0-.135-1.08 2.653 2.653 0 0 0-.405-.86 2.285 2.285 0 0 0-.7-.624 3.573 3.573 0 0 0-1.02-.388 6 6 0 0 0-1.334-.135c-.355 0-.71.022-1.062.067a7.297 7.297 0 0 0-.987.194c-.3.082-.596.18-.886.295l-.202 1.434a9.88 9.88 0 0 1 1.535-.421c.231-.045.465-.076.7-.093.23-.017.458-.025.683-.025.344-.008.688.032 1.02.118.244.06.468.182.65.354.163.167.28.373.338.599a3.2 3.2 0 0 1 .1.852l-.001.423-1.972.133a5.237 5.237 0 0 0-1.957.439 2.803 2.803 0 0 0-1.156.936 2.18 2.18 0 0 0-.38 1.24c-.002.415.1.824.296 1.19.206.375.517.682.894.885.46.24.975.356 1.493.338.486.01.97-.07 1.426-.237a3.288 3.288 0 0 0 1.062-.674c.117-.112.228-.23.333-.354Zm-1.58-.136a3.745 3.745 0 0 1-.718.068 1.905 1.905 0 0 1-.8-.152 1.1 1.1 0 0 1-.499-.43 1.26 1.26 0 0 1-.168-.666c-.017-.282.06-.56.219-.793a1.29 1.29 0 0 1 .709-.422 5.132 5.132 0 0 1 1.316-.135h1.477l-.008 1.674c-.086.097-.18.186-.281.266-.183.145-.381.269-.59.371a2.67 2.67 0 0 1-.657.22ZM65.632 28.906c.193-.357.289-.758.278-1.164a2.364 2.364 0 0 0-.144-.869 1.979 1.979 0 0 0-.396-.632 2.537 2.537 0 0 0-.59-.464 4.574 4.574 0 0 0-.71-.33 14.76 14.76 0 0 1-.53-.176 9.474 9.474 0 0 0-.523-.17c-.175-.05-.344-.103-.507-.16a3.718 3.718 0 0 1-.447-.185 2.939 2.939 0 0 1-.396-.253 1.108 1.108 0 0 1-.287-.32.813.813 0 0 1-.11-.422.87.87 0 0 1 .119-.464.958.958 0 0 1 .354-.33c.176-.096.367-.164.565-.201.247-.048.499-.07.75-.068a5.292 5.292 0 0 1 .887.076c.174.028.348.065.522.11.175.045.352.095.532.151.167.052.33.114.489.186l.118-1.366a7.995 7.995 0 0 0-.632-.237 6.27 6.27 0 0 0-.633-.168 5.055 5.055 0 0 0-.632-.093 7.62 7.62 0 0 0-.617-.025c-.465-.005-.93.049-1.383.16a3.486 3.486 0 0 0-1.088.472c-.302.2-.548.473-.717.793a2.412 2.412 0 0 0-.253 1.139c-.005.284.04.567.135.835.08.225.2.433.354.616.15.172.324.322.515.447.2.13.411.24.632.329a15.036 15.036 0 0 0 .785.261 28.05 28.05 0 0 1 .742.236c.118.04.233.076.346.11.15.053.298.118.439.194.123.065.24.145.346.236a.868.868 0 0 1 .295.666.84.84 0 0 1-.279.667 1.618 1.618 0 0 1-.725.346 4.31 4.31 0 0 1-.953.1 4.74 4.74 0 0 1-.6-.041 8.53 8.53 0 0 1-.69-.118c-.242-.051-.49-.113-.743-.186a15.055 15.055 0 0 1-.768-.245l.068 1.434c.292.101.56.183.801.245.242.062.473.115.692.16.211.044.425.072.64.085.209.01.42.016.633.016.471.003.94-.045 1.4-.143a3.62 3.62 0 0 0 1.148-.447c.319-.195.583-.468.768-.793ZM72.413 28.762l-.287.05a2.504 2.504 0 0 1-.278.034c-.09.006-.175.009-.253.009a1.7 1.7 0 0 1-.75-.152 1.086 1.086 0 0 1-.482-.447 1.42 1.42 0 0 1-.168-.717v-4.673h2.378l.186-1.35h-2.564v-2.665l-1.721.607v2.058h-1.299l-.186 1.35h1.485v5.027c-.008.335.044.67.152.987.087.251.221.483.396.683.16.178.356.322.574.422a2.9 2.9 0 0 0 .7.22c.239.043.482.066.725.067.18 0 .357-.006.532-.017a5.614 5.614 0 0 0 .894-.127c.13-.027.239-.053.329-.076l.101-1.4a1.25 1.25 0 0 1-.202.06 7.732 7.732 0 0 1-.262.05ZM76.142 17.813a1.09 1.09 0 0 0-.582-.16 1.134 1.134 0 0 0-.59.16 1.238 1.238 0 0 0-.43.422 1.09 1.09 0 0 0-.16.582c-.003.208.053.412.16.59.102.177.251.323.43.422.18.102.383.154.59.152.204.003.405-.05.582-.152.173-.1.316-.246.413-.421.102-.18.154-.384.152-.59a1.138 1.138 0 0 0-.152-.583 1.187 1.187 0 0 0-.413-.422ZM74.665 30.12h1.72v-8.772l-1.72.253v8.519ZM85.63 21.685a3.318 3.318 0 0 0-1.619-.354c-.49 0-.976.078-1.442.227-.48.154-.938.372-1.358.65-.163.107-.32.225-.473.346v-1.206l-1.72.253v8.519h1.72v-6.407c.167-.098.338-.186.515-.265.237-.105.479-.198.725-.279.237-.077.48-.136.726-.177a4.36 4.36 0 0 1 .7-.059c.275-.006.55.037.81.127.214.077.406.208.556.38.155.186.265.405.32.64.073.299.106.605.102.912v5.128h1.72v-5.483a4.676 4.676 0 0 0-.32-1.872 2.21 2.21 0 0 0-.962-1.08ZM94.867 21.55a6.09 6.09 0 0 0-.784-.16 6.577 6.577 0 0 0-.911-.06 4.076 4.076 0 0 0-1.603.321c-.508.215-.97.528-1.358.92a4.162 4.162 0 0 0-.936 1.484 5.69 5.69 0 0 0-.338 2.033 5.275 5.275 0 0 0 .43 2.218 3.27 3.27 0 0 0 1.257 1.451 3.723 3.723 0 0 0 2.008.515 4.863 4.863 0 0 0 1.805-.355c.342-.14.666-.323.961-.546v.462c.007.38-.047.759-.16 1.122a2.036 2.036 0 0 1-.49.81c-.24.232-.537.4-.86.489-.42.115-.855.17-1.29.16-.347 0-.693-.02-1.038-.059a7.4 7.4 0 0 1-1.07-.202 8.213 8.213 0 0 1-1.064-.363l.186 1.485c.31.125.629.23.953.312.341.086.688.15 1.038.194.369.045.74.068 1.113.067a5.44 5.44 0 0 0 2.412-.48 3.384 3.384 0 0 0 1.476-1.333c.34-.599.512-1.278.498-1.966v-8.738l-1.65.424c-.19-.08-.386-.149-.585-.205Zm.312 6.756a5.328 5.328 0 0 1-.65.32c-.196.082-.4.147-.607.195a2.755 2.755 0 0 1-.615.067 2.932 2.932 0 0 1-1.46-.329 1.974 1.974 0 0 1-.86-.995 4.484 4.484 0 0 1-.278-1.712c-.008-.466.058-.93.194-1.375.11-.366.3-.703.556-.987a2.43 2.43 0 0 1 .895-.599 3.249 3.249 0 0 1 1.206-.21c.266-.001.53.021.793.067.268.047.533.112.793.194.082.026.168.06.252.091v5.144c-.074.044-.15.09-.22.13ZM105.047 26.24a2.54 2.54 0 0 0-.591-.464 4.55 4.55 0 0 0-.708-.33c-.18-.055-.357-.114-.532-.176a9.181 9.181 0 0 0-.523-.169c-.174-.05-.343-.104-.506-.16a3.708 3.708 0 0 1-.447-.186 2.976 2.976 0 0 1-.396-.253 1.105 1.105 0 0 1-.287-.32.82.82 0 0 1-.11-.422.878.878 0 0 1 .119-.464.958.958 0 0 1 .354-.329 1.9 1.9 0 0 1 .565-.202c.247-.048.499-.07.751-.068a5.363 5.363 0 0 1 .886.076c.174.028.348.065.522.11.175.045.352.095.532.152.167.05.33.113.489.185l.118-1.366a8.148 8.148 0 0 0-.632-.236 6.225 6.225 0 0 0-.633-.17 5.077 5.077 0 0 0-.633-.092 7.598 7.598 0 0 0-.616-.025c-.466-.005-.93.049-1.383.16a3.483 3.483 0 0 0-1.088.472 2.15 2.15 0 0 0-.717.793 2.41 2.41 0 0 0-.253 1.139c-.005.284.04.567.135.835.08.225.2.433.354.616.15.172.324.322.515.447.199.13.411.24.633.329a13.163 13.163 0 0 0 .784.261 29.638 29.638 0 0 1 .742.236c.118.04.234.076.346.11.151.053.298.118.439.194.124.066.24.145.346.236a.87.87 0 0 1 .295.667.843.843 0 0 1-.279.666 1.613 1.613 0 0 1-.725.346c-.313.069-.632.103-.953.101-.2-.001-.4-.015-.599-.042a8.502 8.502 0 0 1-.691-.118 10.756 10.756 0 0 1-.743-.186 15.175 15.175 0 0 1-.767-.244l.067 1.433c.292.102.56.183.801.245.242.062.473.115.692.16.211.044.426.072.641.085.208.01.419.016.633.017.47.002.94-.046 1.4-.144a3.618 3.618 0 0 0 1.147-.447c.319-.195.583-.468.768-.793.193-.357.289-.758.278-1.164a2.381 2.381 0 0 0-.143-.869 1.984 1.984 0 0 0-.397-.632ZM107.375 24.637l-.118 1.383h4.774l.118-1.383h-4.774ZM6.675 39.032a4.627 4.627 0 0 0-2.286-.54 4.605 4.605 0 0 0-2.303.556 3.887 3.887 0 0 0-1.535 1.57 4.958 4.958 0 0 0-.549 2.395A5.173 5.173 0 0 0 .517 45.4a3.521 3.521 0 0 0 1.476 1.527c.686.36 1.452.54 2.227.523a4.75 4.75 0 0 0 2.328-.557 3.931 3.931 0 0 0 1.577-1.586 4.973 4.973 0 0 0 .565-2.43 4.886 4.886 0 0 0-.523-2.319 3.684 3.684 0 0 0-1.492-1.526Zm-.102 5.651c-.19.438-.51.807-.92 1.054-.41.235-.876.355-1.349.346a2.398 2.398 0 0 1-1.315-.354 2.374 2.374 0 0 1-.878-1.063 4.259 4.259 0 0 1-.32-1.754c-.02-.585.09-1.167.32-1.704.19-.423.505-.776.903-1.012a2.73 2.73 0 0 1 1.392-.338c.379-.01.756.063 1.105.211.305.138.572.35.776.616.217.29.375.619.463.97.106.41.157.833.152 1.257a4.204 4.204 0 0 1-.329 1.771ZM14.308 38.618a3.31 3.31 0 0 0-.894.388c-.288.18-.554.392-.793.633-.04.04-.079.084-.118.126V38.51l-1.721.253v8.519h1.72v-6.373a4.4 4.4 0 0 1 .92-.493c.174-.068.351-.127.532-.177a3.618 3.618 0 0 1 1.18-.127l.203-1.585a3.21 3.21 0 0 0-1.03.092ZM24.244 38.677h-2.109L19.25 41.85h-.623v-7.305l-1.72.253v12.484h1.72v-4.133h.028l3.447 4.133h2.227l-4.092-4.611 4.008-3.994ZM32.29 39.765a3.06 3.06 0 0 0-1.239-.953 4.323 4.323 0 0 0-1.712-.32 4.192 4.192 0 0 0-1.721.337 3.677 3.677 0 0 0-1.29.945 4.142 4.142 0 0 0-.81 1.46 6.096 6.096 0 0 0-.279 1.897c-.024.813.147 1.62.498 2.353.32.636.838 1.151 1.476 1.468a5.245 5.245 0 0 0 2.396.498c.397.003.795-.022 1.189-.076a5.694 5.694 0 0 0 1.88-.616l.119-1.299c-.214.079-.43.157-.65.236-.22.079-.447.15-.683.211-.238.062-.48.108-.725.135a6.6 6.6 0 0 1-.742.042 5.33 5.33 0 0 1-1.317-.143 2.162 2.162 0 0 1-.936-.49 2.135 2.135 0 0 1-.573-.936 4.288 4.288 0 0 1-.184-1.113h6.097a6.464 6.464 0 0 0-.093-2.092 3.942 3.942 0 0 0-.7-1.544Zm-4.25.405a2.39 2.39 0 0 1 1.316-.346c.463-.023.92.111 1.298.38.337.268.576.638.684 1.054.084.308.125.626.123.945h-4.437c.031-.336.103-.668.214-.987.144-.428.426-.795.802-1.046ZM40.523 43.4a2.532 2.532 0 0 0-.59-.463 4.571 4.571 0 0 0-.709-.329c-.18-.056-.357-.115-.531-.177a9.398 9.398 0 0 0-.523-.169c-.175-.05-.343-.104-.507-.16a3.686 3.686 0 0 1-.446-.186 2.929 2.929 0 0 1-.397-.253 1.108 1.108 0 0 1-.287-.32.812.812 0 0 1-.11-.422.875.875 0 0 1 .119-.464.96.96 0 0 1 .354-.329c.176-.097.367-.165.565-.202.248-.048.499-.07.75-.068a5.285 5.285 0 0 1 .886.076c.175.028.349.065.523.11.175.045.352.095.532.152.167.05.33.113.489.185l.118-1.366a7.911 7.911 0 0 0-.633-.236 6.192 6.192 0 0 0-.632-.17 5.055 5.055 0 0 0-.633-.092 7.611 7.611 0 0 0-.615-.025c-.466-.005-.931.049-1.384.16a3.487 3.487 0 0 0-1.088.472 2.15 2.15 0 0 0-.717.793 2.413 2.413 0 0 0-.253 1.139c-.005.284.04.567.135.835.08.225.2.434.354.616.15.172.324.322.515.447.2.13.411.24.633.329a13.821 13.821 0 0 0 .784.261 34.6 34.6 0 0 1 .742.236c.118.04.234.076.346.11.15.054.298.118.439.194.123.066.24.145.345.236a.865.865 0 0 1 .296.667.842.842 0 0 1-.279.666 1.62 1.62 0 0 1-.725.346c-.313.069-.633.103-.953.101-.2-.001-.4-.015-.6-.042a8.596 8.596 0 0 1-.69-.118c-.242-.051-.49-.113-.743-.186a15.02 15.02 0 0 1-.767-.244l.067 1.434c.292.1.559.182.801.244s.473.115.692.16c.211.044.425.072.64.085.209.01.42.016.633.017.471.002.94-.046 1.4-.144a3.62 3.62 0 0 0 1.148-.447c.319-.195.583-.468.767-.793.194-.357.29-.758.279-1.164a2.36 2.36 0 0 0-.144-.869 1.978 1.978 0 0 0-.396-.632ZM47.566 45.923l-.286.05a2.504 2.504 0 0 1-.279.034c-.09.006-.175.009-.253.009a1.703 1.703 0 0 1-.75-.152 1.088 1.088 0 0 1-.481-.447 1.422 1.422 0 0 1-.169-.717v-4.673h2.379l.185-1.35h-2.564v-2.665l-1.72.607v2.058h-1.3l-.185 1.35h1.484v5.027c-.007.335.044.67.152.987.087.251.222.483.397.683.16.178.355.322.573.422.223.102.458.176.7.22.24.043.482.066.725.067a8.3 8.3 0 0 0 .532-.017 5.51 5.51 0 0 0 .894-.127c.129-.028.239-.053.329-.075l.101-1.4a1.24 1.24 0 0 1-.202.058 5.592 5.592 0 0 1-.262.05ZM53.344 38.618a3.316 3.316 0 0 0-.894.388c-.288.18-.554.392-.793.633-.04.04-.078.084-.118.126V38.51l-1.72.253v8.519h1.72v-6.373a4.427 4.427 0 0 1 .92-.493 5.82 5.82 0 0 1 .53-.177 3.622 3.622 0 0 1 1.182-.127l.202-1.585a3.211 3.211 0 0 0-1.029.092ZM62.47 39.765a3.062 3.062 0 0 0-1.24-.953 4.325 4.325 0 0 0-1.712-.32 4.194 4.194 0 0 0-1.72.337 3.677 3.677 0 0 0-1.29.945 4.134 4.134 0 0 0-.81 1.46 6.099 6.099 0 0 0-.279 1.897c-.024.813.147 1.62.498 2.353.32.636.838 1.151 1.476 1.468a5.243 5.243 0 0 0 2.395.498c.398.003.796-.022 1.19-.076a5.69 5.69 0 0 0 .97-.228c.313-.105.618-.235.91-.388l.119-1.299c-.214.079-.43.157-.65.236-.22.079-.447.15-.683.211-.238.062-.48.108-.725.135a6.599 6.599 0 0 1-.743.042 5.33 5.33 0 0 1-1.316-.143 2.163 2.163 0 0 1-.936-.49 2.137 2.137 0 0 1-.573-.936 4.284 4.284 0 0 1-.184-1.113h6.096a6.458 6.458 0 0 0-.093-2.092 3.94 3.94 0 0 0-.7-1.544Zm-4.25.405a2.39 2.39 0 0 1 1.315-.346c.464-.023.921.111 1.3.38.335.268.575.638.682 1.054.085.308.126.626.123.945h-4.436a4.19 4.19 0 0 1 .214-.987 2.04 2.04 0 0 1 .801-1.046ZM69.834 45.923l-.287.05a2.503 2.503 0 0 1-.278.034c-.09.006-.175.009-.253.009a1.702 1.702 0 0 1-.75-.152 1.086 1.086 0 0 1-.482-.447 1.42 1.42 0 0 1-.168-.717v-4.673h2.378l.186-1.35h-2.564v-2.665l-1.721.607v2.058h-1.299l-.186 1.35h1.485v5.027c-.007.335.044.67.152.987.087.251.221.483.396.683.16.178.356.322.574.422a2.9 2.9 0 0 0 .7.22c.239.043.482.066.725.067a8.3 8.3 0 0 0 .532-.017 5.506 5.506 0 0 0 .894-.127c.13-.028.239-.053.329-.075l.101-1.4a1.24 1.24 0 0 1-.202.058c-.08.018-.167.035-.262.05Z"/></svg>