<svg xmlns="http://www.w3.org/2000/svg" viewBox="0 0 68 14"><path fill="#fff" d="M0 12.995V.996h3.937v11.999H0Zm9.294-10.09 2.264 10.09H7.25L4.545.996h2.417a2.276 2.276 0 0 1 1.513.55c.42.345.71.826.819 1.36Zm2.855 10.09V.996h3.938v11.999h-3.938Zm6.912-7.436a2.382 2.382 0 0 1-2.4-2.4 2.301 2.301 0 0 1 .321-1.2 2.41 2.41 0 0 1 3.278-.862c.356.21.653.506.862.862.215.363.326.778.321 1.2a2.35 2.35 0 0 1-.321 1.208 2.4 2.4 0 0 1-.862.87 2.302 2.302 0 0 1-1.2.322Zm2.99 7.436V.996h3.938v11.999h-3.937Zm8.923-5.442c.01.012.095.15.253.414.158.265.364.603.617 1.014a312.764 312.764 0 0 1 1.597 2.62c.247.411.529.876.845 1.394H29.96c-.27-.44-.516-.837-.736-1.192-.22-.355-.453-.738-.7-1.149-.248-.41-.493-.81-.736-1.2-.242-.389-.45-.73-.625-1.022-.175-.293-.296-.49-.363-.592a1.747 1.747 0 0 1-.287-.845c.016-.29.11-.57.27-.811.067-.113.191-.313.371-.6s.392-.628.634-1.022c.242-.395.488-.798.736-1.209l.7-1.157.736-1.2h4.326L30.94 6.454a1.08 1.08 0 0 0-.17.541c.012.202.082.396.203.558Z"/><path fill="#03FCA3" d="M55.277.995h-3.708s2.106 3.452 2.13 3.496a.582.582 0 0 1 .013.707L51.57 8.706h3.707s1.787-2.92 2.031-3.325a.885.885 0 0 0-.01-1.073c-.26-.447-.262-.447-2.02-3.313ZM66.885 2.982C66.76 2.77 65.657.995 65.657.995h-7.932l1.733 2.903h4.178L61.911 6.72l1.924 3.225-1.854 3.044h3.386c.545-.89 1.36-2.266 1.53-2.546a.888.888 0 0 0-.01-1.078c-.17-.288-1.077-1.725-1.618-2.61l1.628-2.695a.887.887 0 0 0-.012-1.08Z"/><path fill="#03FCA3" d="M59.254 7.115c-.523.852-1.396 2.279-1.558 2.557a.855.855 0 0 0-.01 1.037c.164.272 1.044 1.71 1.568 2.567.525-.857 1.405-2.295 1.568-2.567a.855.855 0 0 0-.009-1.037 439.368 439.368 0 0 0-1.56-2.557ZM48.713.995a1.988 1.988 0 0 0-1.083.33c-.273.167-2.496 2.051-2.665 2.195-.17-.144-2.392-2.028-2.665-2.196a1.988 1.988 0 0 0-1.083-.33h-2.36v10.57l3.28-2.462V4.858l2.828 2.125 2.827-2.125v8.13h3.3V.995h-2.38Z"/></svg>