<svg xmlns="http://www.w3.org/2000/svg" viewBox="0 0 68 28"><path fill="#064E42" d="M0 0h67.333v28H0z"/><path fill="#fff" d="M6.667 21V7.001h4.593V21H6.667ZM17.509 9.23 20.151 21h-5.027L11.97 7.001h2.82a2.655 2.655 0 0 1 1.764.641c.49.404.828.964.955 1.587ZM20.841 21V7.001h4.593V21h-4.593Zm8.063-8.675a2.738 2.738 0 0 1-1.41-.375 2.777 2.777 0 0 1-1.015-1.015 2.735 2.735 0 0 1-.375-1.41 2.686 2.686 0 0 1 .375-1.4 2.812 2.812 0 0 1 3.825-1.005c.415.244.76.59 1.005 1.005.25.424.38.908.375 1.4.004.495-.125.982-.375 1.41a2.8 2.8 0 0 1-1.006 1.015c-.423.251-.908.38-1.4.375ZM32.394 21V7.001h4.593V21h-4.593Zm10.409-6.349c.013.014.111.175.295.483.185.309.424.703.72 1.183a366.453 366.453 0 0 1 1.863 3.056c.288.48.617 1.023.986 1.627H41.62a744.12 744.12 0 0 0-.858-1.39c-.256-.414-.529-.861-.818-1.34-.289-.48-.575-.947-.858-1.4a71.148 71.148 0 0 1-.729-1.193 20.758 20.758 0 0 0-.424-.69 2.04 2.04 0 0 1-.335-.986c.02-.338.128-.665.315-.947.079-.132.224-.365.434-.7a210.216 210.216 0 0 0 1.598-2.603c.289-.48.561-.93.817-1.35L41.62 7h5.047l-3.904 6.368c-.12.19-.189.407-.197.632.013.235.095.461.236.65Z"/><path fill="#BEF7ED" d="M60.298 15.755a3.105 3.105 0 0 0-.63-1.065 3.068 3.068 0 0 0-1.035-.73 4.996 4.996 0 0 0-1.41-.374v-.059a4.887 4.887 0 0 0 1.617-.877 4.11 4.11 0 0 0 1.035-1.272c.242-.469.367-.99.365-1.518a2.728 2.728 0 0 0-.296-1.291 2.749 2.749 0 0 0-.867-.966 4.025 4.025 0 0 0-1.39-.601 7.984 7.984 0 0 0-1.863-.197c-.412 0-.824.03-1.232.088-.422.059-.84.144-1.252.257-.396.107-.779.255-1.144.443l.276 1.558c.29-.119.569-.22.839-.306a7.92 7.92 0 0 1 1.508-.325c.229-.026.46-.04.69-.04a5.61 5.61 0 0 1 1.242.119c.296.06.577.176.828.345.204.144.364.341.463.571.104.26.155.538.148.818.006.385-.086.765-.266 1.104-.183.335-.44.625-.75.848-.349.25-.739.437-1.152.552-.481.136-.98.203-1.479.197h-.375l-.236 1.538h.63a8.853 8.853 0 0 1 1.736.148c.428.076.838.23 1.212.453.305.186.554.452.72.769.164.34.245.716.236 1.094.01.383-.064.763-.217 1.114a1.9 1.9 0 0 1-.66.769 3.136 3.136 0 0 1-1.124.453 7.65 7.65 0 0 1-1.607.148c-.197 0-.39-.007-.581-.02a10.9 10.9 0 0 1-.602-.059 9.196 9.196 0 0 1-.66-.108c-.23-.046-.483-.102-.759-.168L52 20.841c.289.052.568.102.838.148s.536.085.798.118c.263.032.52.055.77.069.249.014.492.02.729.02a9.708 9.708 0 0 0 1.872-.168 5.588 5.588 0 0 0 1.508-.512c.416-.211.79-.495 1.104-.838.297-.33.524-.715.67-1.134.157-.46.234-.943.227-1.43a4.05 4.05 0 0 0-.218-1.36Z"/></svg>