<svg xmlns="http://www.w3.org/2000/svg" viewBox="0 0 49 40"><path fill="#0A2343" d="M0 15.003V1.005h4.593v13.998H0Zm10.843-11.77 2.641 11.77H8.457L5.303 1.005h2.82a2.655 2.655 0 0 1 1.764.64c.491.404.829.964.956 1.588Zm3.331 11.77V1.005h4.594v13.998h-4.594Zm8.063-8.675a2.737 2.737 0 0 1-1.409-.375 2.778 2.778 0 0 1-1.015-1.015 2.735 2.735 0 0 1-.375-1.41 2.685 2.685 0 0 1 .375-1.4 2.812 2.812 0 0 1 3.824-1.005c.415.244.761.59 1.005 1.005.251.424.38.908.375 1.4.005.496-.125.983-.375 1.41a2.8 2.8 0 0 1-1.005 1.015c-.424.251-.908.38-1.4.375Zm3.49 8.675V1.005h4.594v13.998h-4.594Zm10.409-6.348c.013.013.111.174.296.483.184.308.424.702.72 1.183a377.185 377.185 0 0 1 1.862 3.056c.289.48.617 1.022.986 1.626h-5.047l-.858-1.39c-.256-.414-.529-.86-.817-1.34-.29-.48-.576-.946-.858-1.4a71.06 71.06 0 0 1-.73-1.193 21.112 21.112 0 0 0-.424-.69 2.04 2.04 0 0 1-.334-.986c.019-.338.128-.665.315-.947.078-.131.223-.365.433-.7a216.7 216.7 0 0 0 1.598-2.603l.817-1.35.858-1.4H40l-3.904 6.369c-.12.189-.189.407-.197.63.013.236.095.463.236.652h.001Z"/><path fill="#F34531" d="M8.593 28.465a3.735 3.735 0 0 0-.986-.72 7.687 7.687 0 0 0-1.194-.484 13.578 13.578 0 0 0-1.302-.336 28.273 28.273 0 0 1-.957-.236 4.41 4.41 0 0 1-.79-.287 2.607 2.607 0 0 1-.601-.394 1.42 1.42 0 0 1-.385-.552 2.134 2.134 0 0 1-.128-.78 2.382 2.382 0 0 1 .128-.81c.08-.229.216-.435.394-.601a2.44 2.44 0 0 1 .622-.414c.26-.119.536-.198.819-.237a6.91 6.91 0 0 1 1.016-.069c.31 0 .62.017.928.05.311.032.62.081.927.147.297.065.59.147.878.247.27.093.53.208.78.345l.276-1.736a4.918 4.918 0 0 0-.878-.355c-.31-.092-.622-.171-.938-.237a9.388 9.388 0 0 0-.967-.148c-.328-.033-.664-.05-1.006-.05a8.392 8.392 0 0 0-2.072.237 4.69 4.69 0 0 0-1.608.73c-.447.321-.806.748-1.046 1.243a4.017 4.017 0 0 0-.365 1.776 3.82 3.82 0 0 0 .227 1.391c.142.374.36.713.641.997.278.277.598.51.947.69.37.191.757.35 1.155.474.414.132.839.244 1.273.336.355.079.684.16.986.247.282.077.556.18.82.305.226.107.435.247.62.415.177.165.315.367.405.592.105.27.155.558.148.848.005.308-.041.615-.138.908a2.11 2.11 0 0 1-.395.69c-.175.2-.39.362-.631.474a3.19 3.19 0 0 1-.859.257 6.836 6.836 0 0 1-1.095.079c-.356-.001-.712-.024-1.065-.07a12.838 12.838 0 0 1-1.105-.187 11.088 11.088 0 0 1-1.075-.286c-.35-.111-.681-.227-.997-.345l.257 1.953c.336.126.678.234 1.026.325.315.083.634.15.957.198.308.046.617.082.927.108.31.027.622.04.937.04a9.698 9.698 0 0 0 2.102-.217 5.032 5.032 0 0 0 1.717-.71 3.34 3.34 0 0 0 1.144-1.293c.288-.62.427-1.3.405-1.983a4.453 4.453 0 0 0-.227-1.5 2.916 2.916 0 0 0-.652-1.065ZM19.446 25.357a4.24 4.24 0 0 0-2.358-.622 6.018 6.018 0 0 0-1.46.188 6.348 6.348 0 0 0-1.756.744v-.912l-2.013.316v14.088h2.013v-4.417l.04.018c.364.15.745.26 1.134.325.46.076.925.112 1.39.109a4.93 4.93 0 0 0 2.537-.652 4.684 4.684 0 0 0 1.775-1.884 6.3 6.3 0 0 0 .661-3.01 6.129 6.129 0 0 0-.503-2.564 3.96 3.96 0 0 0-1.46-1.727Zm-.523 6.6c-.236.524-.634.96-1.134 1.243a3.646 3.646 0 0 1-1.806.415 5.634 5.634 0 0 1-1.815-.296c-.095-.033-.197-.07-.296-.107v-6.227c.026-.012.053-.028.079-.04.29-.131.559-.243.809-.335a4.054 4.054 0 0 1 1.4-.257 3.648 3.648 0 0 1 1.757.385c.476.259.848.673 1.055 1.174.251.64.369 1.325.346 2.012a4.712 4.712 0 0 1-.395 2.034ZM31.03 25.367a5.414 5.414 0 0 0-2.674-.632 5.389 5.389 0 0 0-2.694.652 4.549 4.549 0 0 0-1.796 1.835 5.804 5.804 0 0 0-.641 2.801 6.047 6.047 0 0 0 .602 2.792 4.12 4.12 0 0 0 1.726 1.787c.803.42 1.699.63 2.605.611a5.562 5.562 0 0 0 2.723-.65 4.596 4.596 0 0 0 1.845-1.856 5.816 5.816 0 0 0 .661-2.841 5.719 5.719 0 0 0-.612-2.713 4.313 4.313 0 0 0-1.746-1.786Zm-.12 6.61a2.692 2.692 0 0 1-1.075 1.233 3.066 3.066 0 0 1-1.578.405 2.806 2.806 0 0 1-1.54-.415 2.778 2.778 0 0 1-1.026-1.243 4.975 4.975 0 0 1-.374-2.052 4.646 4.646 0 0 1 .374-1.993c.222-.494.59-.908 1.056-1.184a3.19 3.19 0 0 1 1.628-.395c.444-.01.884.073 1.293.247.357.161.669.409.908.72.254.339.438.725.542 1.135.123.48.183.975.177 1.47a4.912 4.912 0 0 1-.384 2.072ZM39.958 24.883c-.37.1-.722.252-1.046.454-.337.21-.648.458-.928.74-.046.046-.091.098-.138.147v-1.469l-2.012.296v9.965h2.012v-7.455a5.037 5.037 0 0 1 1.076-.576c.204-.08.41-.148.621-.207a4.233 4.233 0 0 1 1.382-.148l.236-1.855a3.772 3.772 0 0 0-1.203.108ZM48.522 33.368a9.62 9.62 0 0 1-.307.06l-.335.058c-.107.02-.216.033-.325.04-.106.007-.205.01-.296.01a1.999 1.999 0 0 1-.878-.178 1.276 1.276 0 0 1-.563-.522 1.667 1.667 0 0 1-.197-.84v-5.465h2.782l.217-1.579h-3v-3.117l-2.012.71v2.407h-1.52l-.217 1.579h1.737v5.88c-.009.392.051.783.178 1.155.101.293.259.565.463.798.188.21.416.377.671.494.261.12.536.206.819.257.28.051.564.078.849.079.21 0 .417-.007.621-.02a6.697 6.697 0 0 0 1.046-.148c.151-.033.28-.062.385-.089l.118-1.638c-.076.03-.156.053-.236.07Z"/></svg>