<svg xmlns="http://www.w3.org/2000/svg" viewBox="0 0 32 32"><path fill="#fff" d="M3.077 3.077h25.846v25.846H3.077z"/><path fill="#000" fill-rule="evenodd" d="M0 0h32v32H0V0Zm11.27 14.93a1.76 1.76 0 0 1 .96-.292h2.11V25.28h-2.924v-7.215L8.909 19.95l-2.506-1.886v3.766l-2.908 2.186v-9.38h2.092c.342.003.675.105.96.293.241.15 2.212 1.823 2.362 1.95.15-.129 2.12-1.801 2.362-1.95Zm3.494-.292h3.285l.198.322v.002c1.361 2.22 1.372 2.237 1.594 2.616a.786.786 0 0 1 .01.952c-.217.36-1.802 2.95-1.802 2.95h-3.285l1.9-3.114a.516.516 0 0 0-.013-.626 3058.06 3058.06 0 0 0-1.887-3.102Zm13.575 1.764c-.11-.189-1.088-1.764-1.088-1.764h-7.032l1.536 2.575h3.703l-1.529 2.505 1.705 2.862-1.643 2.703h3.001c.335-.548.786-1.305 1.08-1.8l.275-.46a.788.788 0 0 0-.008-.956c-.077-.13-.321-.523-.606-.98-.277-.444-.592-.95-.829-1.336l1.444-2.393a.789.789 0 0 0-.009-.956Zm-6.764 3.703c-.463.756-1.237 2.023-1.382 2.27a.76.76 0 0 0-.009.92c.145.241.926 1.518 1.39 2.278.465-.76 1.245-2.038 1.39-2.278a.76.76 0 0 0-.008-.92c-.145-.247-.917-1.514-1.381-2.27ZM7.582 7.005v5.99h1.966v-5.99H7.583Zm5.771 5.99-1.13-5.037a1.186 1.186 0 0 0-.41-.679 1.136 1.136 0 0 0-.755-.274H9.854l1.35 5.99h2.151Zm.296-5.99v5.99h1.966v-5.99H13.65Zm2.847 2.117c.183.107.392.163.604.16.21.003.417-.052.599-.16a1.199 1.199 0 0 0 .59-1.037 1.152 1.152 0 0 0-.16-.6 1.213 1.213 0 0 0-.43-.43 1.153 1.153 0 0 0-.6-.16 1.204 1.204 0 0 0-1.038.59 1.149 1.149 0 0 0-.16.6 1.19 1.19 0 0 0 .595 1.038Zm2.097-2.117v5.99h1.966v-5.99h-1.966Zm4.582 3.48a4.467 4.467 0 0 0-.127-.207.513.513 0 0 1-.101-.278.54.54 0 0 1 .084-.27l1.671-2.725h-2.16a262.44 262.44 0 0 0-1.084 1.78c-.121.197-.227.367-.317.51-.09.144-.151.244-.185.3a.818.818 0 0 0-.135.405c.01.15.06.296.143.422.034.05.094.149.182.295.087.146.19.316.312.51.12.195.243.394.367.6.124.205.24.396.35.573l.367.595h2.16l-.422-.696a166.503 166.503 0 0 0-.797-1.308 45.43 45.43 0 0 1-.308-.506Z" clip-rule="evenodd"/></svg>