<svg xmlns="http://www.w3.org/2000/svg" viewBox="0 0 110 24"><path fill="#fff" d="M0 17.998v-12h4v12H0Zm9.244-10.09 2.264 10.09H7.2l-2.704-12h2.417a2.276 2.276 0 0 1 1.513.55c.42.346.66.826.819 1.36ZM12 17.998v-12h4v12h-4Zm7.01-7.436a2.381 2.381 0 0 1-2.078-1.192 2.345 2.345 0 0 1-.321-1.208 2.301 2.301 0 0 1 .321-1.2A2.41 2.41 0 0 1 20.21 6.1c.356.21.653.506.862.862.215.363.326.778.321 1.2a2.35 2.35 0 0 1-.321 1.208 2.4 2.4 0 0 1-.862.87 2.301 2.301 0 0 1-1.2.322ZM22 17.998v-12h4v12h-4Zm8.974-5.442c.01.011.095.15.253.414s.364.602.617 1.014a316.22 316.22 0 0 1 1.597 2.62c.247.41.529.876.845 1.394H29.96c-.27-.44-.516-.837-.736-1.192-.22-.355-.453-.738-.7-1.15-.248-.41-.493-.81-.736-1.199-.242-.39-.45-.73-.625-1.022a18.04 18.04 0 0 0-.363-.592 1.747 1.747 0 0 1-.287-.845c.016-.29.11-.57.27-.811.067-.113.191-.313.371-.6a182.106 182.106 0 0 0 1.37-2.23l.7-1.159.736-1.2h4.326l-3.346 5.46a1.079 1.079 0 0 0-.17.54c.012.202.083.396.204.558Z"/><g clip-path="url(#a)"><path fill="#fff" d="M45.094 11.622v-.05c.598-.193 1.044-.509 1.337-.949.294-.44.44-.96.44-1.557 0-.553-.126-1.064-.38-1.532-.254-.469-.691-.841-1.312-1.118-.62-.276-1.484-.414-2.59-.414H39V18.02h3.741c.937 0 1.76-.119 2.472-.356.71-.237 1.264-.615 1.659-1.134.395-.52.592-1.196.592-2.031 0-.723-.209-1.335-.626-1.837-.418-.502-.999-.85-1.744-1.041Zm-2.488-4.164c.666 0 1.176.081 1.532.245.355.164.606.384.753.66.147.277.22.59.22.94s-.06.666-.178.914a1.494 1.494 0 0 1-.49.592c-.21.147-.44.254-.695.322a3.042 3.042 0 0 1-.787.101h-2.183V7.458h1.828Zm2.725 8.235c-.214.3-.542.52-.982.66-.44.141-.993.212-1.659.212h-1.912v-3.91h2.268c.564 0 1.038.062 1.422.186.383.124.677.321.88.592.203.271.305.643.305 1.117s-.108.844-.322 1.143Zm9.92-6.221 1.727-.254-.017 8.803h-1.338l-.25-1.044c-.051.042-.1.09-.15.13-.277.225-.565.42-.864.584a4.075 4.075 0 0 1-.94.372 4.176 4.176 0 0 1-1.049.127c-.632 0-1.17-.119-1.616-.356-.446-.236-.779-.603-.999-1.1-.22-.496-.33-1.123-.33-1.879V9.472l1.727-.254v5.332c0 .452.064.833.194 1.143.13.31.33.542.601.694.271.152.615.229 1.033.229a3.5 3.5 0 0 0 .652-.06c.208-.04.414-.096.617-.169.203-.073.41-.16.618-.262a4.3 4.3 0 0 0 .381-.212V9.472h.003Zm10.114 5.29c.096.243.144.533.144.872 0 .451-.093.84-.279 1.168a2.213 2.213 0 0 1-.77.796 3.633 3.633 0 0 1-1.151.448 6.59 6.59 0 0 1-1.405.144c-.215 0-.426-.006-.635-.017a4.369 4.369 0 0 1-.643-.085c-.22-.045-.452-.098-.694-.16-.243-.063-.511-.144-.805-.246l-.067-1.439c.26.09.516.172.77.246.254.073.502.135.745.186.242.05.474.09.694.118a4.324 4.324 0 0 0 1.557-.06c.3-.066.542-.182.728-.346.186-.163.28-.386.28-.668a.866.866 0 0 0-.296-.669 1.869 1.869 0 0 0-.348-.237 3.148 3.148 0 0 0-.44-.195c-.113-.034-.228-.07-.347-.11a28.154 28.154 0 0 0-.745-.237 15.994 15.994 0 0 1-.787-.262c-.226-.09-.437-.2-.635-.33a2.48 2.48 0 0 1-.516-.449 1.996 1.996 0 0 1-.355-.618 2.395 2.395 0 0 1-.136-.838c0-.44.085-.82.254-1.142.17-.322.41-.587.72-.796.31-.209.674-.367 1.091-.474.418-.107.88-.16 1.388-.16.204 0 .41.008.618.025.21.016.42.048.635.093.215.045.426.101.635.169.209.068.42.147.635.237l-.119 1.371a4.066 4.066 0 0 0-.49-.186c-.181-.056-.359-.107-.534-.152a5.77 5.77 0 0 0-1.007-.17 5.318 5.318 0 0 0-.406-.017c-.283 0-.534.023-.754.068-.22.045-.409.113-.567.203a.962.962 0 0 0-.355.33.878.878 0 0 0-.119.466c0 .158.037.299.11.423.074.124.17.231.288.322.118.09.251.175.398.254a3.7 3.7 0 0 0 .448.186c.164.056.333.11.508.16.175.051.35.108.525.17.175.062.353.121.533.178.248.09.486.2.711.33.226.13.423.285.593.465.169.18.302.392.397.635Zm5.536-1.368 4.105 4.627h-2.234l-3.46-4.148h-.028v4.148h-1.726V5.494l1.726-.254v7.33h.624l2.897-3.183h2.116l-4.02 4.007Zm11.587-2.915a3.068 3.068 0 0 0-1.244-.956c-.502-.215-1.075-.322-1.718-.322s-1.219.113-1.727.339c-.508.225-.94.541-1.295.948a4.15 4.15 0 0 0-.812 1.464 6.11 6.11 0 0 0-.28 1.904c0 .926.167 1.713.5 2.362a3.31 3.31 0 0 0 1.48 1.473c.656.332 1.457.499 2.405.499.451 0 .849-.025 1.193-.076.344-.051.669-.127.974-.229a6.35 6.35 0 0 0 .914-.39l.118-1.303c-.214.08-.431.159-.652.238-.22.079-.448.149-.685.211-.237.062-.48.107-.728.136a6.594 6.594 0 0 1-.745.042c-.508 0-.948-.048-1.32-.144a2.172 2.172 0 0 1-.94-.491c-.254-.231-.446-.545-.575-.94a4.276 4.276 0 0 1-.184-1.117h6.117c.079-.79.048-1.49-.093-2.099-.141-.61-.375-1.126-.703-1.549Zm-4.266.407c.362-.232.802-.347 1.32-.347.52 0 .977.126 1.304.38.328.254.556.607.686 1.058.085.291.121.61.124.948h-4.452c.042-.378.11-.714.214-.99.175-.468.443-.818.804-1.05Zm11.749-1.651-.204 1.591a3.713 3.713 0 0 0-1.185.127c-.18.051-.358.11-.533.178a4.383 4.383 0 0 0-.922.494v6.396H85.4V9.472l1.727-.254v1.261c.04-.042.079-.087.118-.127.248-.248.514-.46.796-.635a3.33 3.33 0 0 1 .897-.389c.316-.085.66-.116 1.032-.093Zm7.279.237 1.726-.254-.017 8.803h-1.337l-.251-1.044c-.05.042-.099.09-.15.13-.276.225-.564.42-.863.584-.299.163-.612.287-.94.372a4.176 4.176 0 0 1-1.049.127c-.632 0-1.17-.119-1.617-.356-.445-.236-.778-.603-.998-1.1-.22-.496-.33-1.123-.33-1.879V9.472l1.726-.254v5.332c0 .452.065.833.195 1.143.13.31.33.542.6.694.272.152.616.229 1.033.229.226 0 .443-.02.652-.06.209-.04.415-.096.618-.169.203-.073.41-.16.618-.262.127-.062.254-.133.38-.212V9.472h.004Zm10.292-3.978v4.12a.401.401 0 0 1-.051-.023 5.84 5.84 0 0 0-2.15-.39c-.756 0-1.458.186-2.107.559-.649.372-1.171.911-1.566 1.616-.395.706-.593 1.566-.593 2.582 0 .869.15 1.62.449 2.251.299.632.728 1.12 1.286 1.465.559.344 1.228.516 2.006.516.452 0 .878-.056 1.279-.17a4.63 4.63 0 0 0 1.176-.524c.127-.08.254-.166.381-.257l.212.782h1.405V5.257l-1.727.237Zm-.906 11.08c-.446.163-.849.245-1.21.245-.542 0-1.005-.11-1.388-.33-.384-.22-.677-.559-.88-1.016-.204-.457-.305-1.03-.305-1.718 0-.689.113-1.284.338-1.752a2.39 2.39 0 0 1 .974-1.067c.423-.242.928-.364 1.515-.364a5.147 5.147 0 0 1 1.6.245c.081.026.174.063.262.094v5.217a5.578 5.578 0 0 1-.906.445Z"/></g><defs><clipPath id="a"><path fill="#fff" d="M39 5h71v14H39z"/></clipPath></defs></svg>