<svg width="113" height="48" viewBox="0 0 113 48" fill="none" xmlns="http://www.w3.org/2000/svg">
<path d="M0 13.0005V1.00158H3.93719V13.0005H0ZM9.29381 2.91127L11.5581 13.0005H7.24917L4.54549 1.00158H6.96218C7.51635 0.994386 8.05406 1.18974 8.4745 1.55088C8.89562 1.89687 9.18495 2.37719 9.29381 2.91127ZM12.1495 13.0005V1.00158H16.0867V13.0005H12.1495ZM19.0605 5.56459C18.6362 5.56872 18.2188 5.45772 17.8525 5.24345C17.4912 5.03461 17.1911 4.73445 16.9823 4.37309C16.7678 4.00682 16.6568 3.58925 16.661 3.16481C16.6561 2.74295 16.7672 2.32787 16.9823 1.96492C17.1933 1.60748 17.4931 1.31058 17.8525 1.10301C18.2189 0.888991 18.6362 0.778003 19.0605 0.781872C19.4822 0.77733 19.8971 0.888417 20.2602 1.10301C20.616 1.3124 20.9127 1.60905 21.122 1.96492C21.3368 2.32797 21.4479 2.74298 21.4433 3.16481C21.4473 3.58922 21.3363 4.00672 21.122 4.37309C20.9149 4.73286 20.6179 5.03277 20.2602 5.24345C19.8971 5.45847 19.4819 5.56958 19.0599 5.56459H19.0605ZM22.0516 13.0005V1.00158H25.9892V13.0005H22.0516ZM30.9737 7.55872C30.9848 7.57036 31.0693 7.70837 31.2272 7.97276C31.3851 8.23715 31.5906 8.57517 31.8439 8.98678C32.0974 9.39819 32.3649 9.83475 32.6463 10.2965C32.9278 10.7582 33.1926 11.1948 33.4408 11.6063C33.6881 12.0177 33.9697 12.4824 34.2857 13.0005H29.9598C29.6893 12.5611 29.4441 12.164 29.2245 11.8091C29.0048 11.4542 28.7713 11.0711 28.5238 10.6598C28.2758 10.249 28.0306 9.84903 27.7882 9.45995C27.5458 9.07088 27.3375 8.7301 27.1633 8.43755C26.9883 8.1448 26.8671 7.94761 26.7997 7.84602C26.6325 7.59393 26.5336 7.30278 26.5127 7.00103C26.5294 6.71142 26.6226 6.43147 26.7828 6.1896C26.8504 6.07693 26.9743 5.87692 27.1545 5.58962C27.3348 5.30232 27.546 4.96154 27.7882 4.56721C28.0304 4.17288 28.2756 3.77009 28.5238 3.35886C28.772 2.94763 29.0056 2.56172 29.2245 2.20119C29.4445 1.84104 29.6897 1.44107 29.9598 1.0013H34.2857L30.9396 6.45999C30.8361 6.62205 30.7777 6.80883 30.7706 7.00103C30.7818 7.20281 30.8522 7.39681 30.9731 7.55872H30.9737Z" fill="white"/>
<path d="M9.09804 18.145H6.98931L2.40634 23.4253H1.77654V18.145H0.00519353V30.1226H1.77654V24.7074H1.83584L6.82059 30.1394L9.23299 30.1226L3.51383 24.1844L9.09804 18.145Z" fill="white"/>
<path d="M14.1081 21.4599C13.7926 21.5445 13.4913 21.6752 13.214 21.8479C12.9262 22.0275 12.6602 22.2398 12.4211 22.4806C12.3812 22.5202 12.3427 22.5649 12.3031 22.6068V21.3503L10.5823 21.6033V30.1226H12.3031V23.7492C12.4338 23.6592 12.5656 23.5748 12.6995 23.5012C12.8683 23.4082 13.0431 23.3265 13.2227 23.2565C13.3967 23.1891 13.5737 23.13 13.7538 23.0794C13.939 23.0279 14.128 22.9913 14.319 22.9698C14.5234 22.9471 14.7294 22.9414 14.9347 22.9529L15.1372 21.3671C14.7914 21.3423 14.4439 21.3736 14.1081 21.4599Z" fill="white"/>
<path d="M16.7056 30.1226H18.4263V21.3503L16.7056 21.6033V30.1226Z" fill="white"/>
<path d="M17.0095 19.832C17.1897 19.9333 17.3932 19.9856 17.5999 19.9838C17.8039 19.9863 18.0048 19.9339 18.1816 19.832C18.3553 19.7316 18.4982 19.5858 18.5952 19.4102C18.6964 19.23 18.7488 19.0265 18.747 18.8198C18.7494 18.6157 18.697 18.4147 18.5952 18.2378C18.495 18.0647 18.3527 17.9196 18.1816 17.816C18.0066 17.709 17.805 17.6535 17.5999 17.6558C17.3921 17.6542 17.1879 17.7096 17.0095 17.816C16.8336 17.9191 16.6859 18.0639 16.5796 18.2378C16.4724 18.4128 16.4168 18.6146 16.4193 18.8198C16.4175 19.0276 16.4729 19.2319 16.5796 19.4102C16.6827 19.5867 16.8311 19.7323 17.0095 19.832Z" fill="white"/>
<path d="M25.4446 22.936C25.7199 22.9297 25.994 22.9725 26.2543 23.0625C26.469 23.1399 26.6606 23.2705 26.811 23.4421C26.9659 23.6282 27.0756 23.8476 27.1315 24.0832C27.2036 24.3813 27.2376 24.6874 27.2327 24.9941V30.1226H28.9535V24.6399C28.9759 24.0003 28.8669 23.363 28.633 22.7673C28.4425 22.3098 28.1038 21.9296 27.6714 21.6877C27.1702 21.4345 26.613 21.3126 26.0518 21.3334C25.5622 21.3343 25.0757 21.4112 24.6095 21.5611C24.1291 21.7142 23.6721 21.9327 23.2515 22.2106C23.0887 22.3177 22.9321 22.4355 22.7791 22.5564V21.3503L21.0584 21.6033V30.1226H22.7791V23.7154C22.9457 23.6179 23.1175 23.5294 23.2937 23.4505C23.5306 23.3455 23.7727 23.2526 24.019 23.1722C24.2559 23.0946 24.4985 23.0354 24.7445 22.9951C24.9759 22.9566 25.21 22.9368 25.4446 22.936Z" fill="white"/>
<path d="M37.8454 33.37C38.4598 33.0836 38.2974 32.6193 38.6449 32.0373C38.9844 31.4388 39.1563 30.7599 39.1425 30.072V21.3334L37.4924 21.758C37.3019 21.6773 37.1064 21.6088 36.9073 21.5527C36.6496 21.4822 36.3876 21.4286 36.1228 21.3925C35.8209 21.3517 35.5165 21.332 35.2119 21.3334C34.6615 21.331 34.1164 21.4401 33.6093 21.6539C33.1011 21.8691 32.6397 22.1814 32.2512 22.5733C31.8371 22.996 31.5179 23.5021 31.3149 24.0579C31.0796 24.7093 30.9652 25.3982 30.9775 26.0907C30.959 26.8525 31.1057 27.6093 31.4075 28.3091C31.672 28.9075 32.1098 29.4128 32.6645 29.7599C33.2715 30.1179 33.9677 30.2963 34.6721 30.2744C35.2908 30.2721 35.9034 30.1519 36.4771 29.9201C36.8198 29.7803 37.1429 29.5967 37.4384 29.3738V29.8358C37.4453 30.2159 37.3913 30.5946 37.2784 30.9576C37.181 31.2621 37.0134 31.5395 36.7892 31.7674C36.5475 31.9995 36.2517 32.1677 35.9286 32.2566C35.5085 32.372 35.0739 32.426 34.6383 32.4169C34.2916 32.4163 33.9453 32.3966 33.6008 32.3578C33.2392 32.3168 32.8812 32.2491 32.5296 32.1554C32.1673 32.0589 31.8121 31.9377 31.4665 31.7927L32.3287 33.2772C32.6389 33.4031 32.9575 33.5074 33.2821 33.5893C33.6235 33.6755 33.9699 33.7403 34.3193 33.7833C34.6887 33.8287 35.0606 33.8513 35.4327 33.8508C36.2631 33.8768 37.0884 33.7123 37.8454 33.37ZM37.2191 28.3091C37.0102 28.4305 36.7933 28.5376 36.5699 28.6296C36.3729 28.7105 36.1697 28.7754 35.9623 28.8236C35.7603 28.8691 35.5539 28.8918 35.3468 28.8911C34.8401 28.9094 34.3374 28.7961 33.8876 28.5621C33.4955 28.3385 33.1918 27.9872 33.0272 27.5668C32.8239 27.0196 32.7293 26.438 32.7489 25.8545C32.7413 25.3889 32.8066 24.925 32.9426 24.4796C33.0531 24.1136 33.2433 23.7766 33.4996 23.4927C33.749 23.2289 34.0544 23.0242 34.3934 22.8939C34.7784 22.7478 35.1878 22.6762 35.5996 22.683C35.8654 22.6826 36.1308 22.7052 36.3927 22.7505C36.661 22.7978 36.9259 22.8626 37.1856 22.9445C37.2683 22.9703 37.3543 23.0046 37.4387 23.0361V28.1797C37.3644 28.2236 37.2894 28.2691 37.2191 28.3091Z" fill="white"/>
<path d="M43.4778 25.9895H43.5059L46.9527 30.1226H49.1795L45.0875 25.5115L49.0952 21.519H46.9864L44.1 24.6913H43.4778V17.3867L41.7571 17.6398V30.1234H43.4778V25.9895Z" fill="white"/>
<path d="M55.441 29.0269C55.4739 29.2015 55.5357 29.3694 55.6238 29.5237C55.7742 29.7819 56.0054 29.9834 56.2817 30.0973C56.5872 30.2199 56.9141 30.2802 57.2433 30.2744C57.3445 30.2744 57.4429 30.2716 57.5385 30.266C57.6324 30.2603 57.7255 30.2462 57.8168 30.2238C57.9068 30.201 57.9881 30.1816 58.0615 30.1647C58.1276 30.1498 58.1925 30.1301 58.2558 30.1057L58.441 28.9754C58.3479 29.0073 58.2518 29.0299 58.1542 29.0429C58.0759 29.0533 57.9971 29.059 57.9181 29.0598C57.7948 29.0711 57.6705 29.0524 57.556 29.0054C57.4415 28.9584 57.34 28.8845 57.2601 28.7899C57.1038 28.5195 57.0387 28.206 57.0746 27.8957L57.1083 24.4206C57.1121 24.0562 57.0667 23.6931 56.9734 23.3409C56.8914 23.0321 56.7543 22.7406 56.5688 22.4806C56.381 22.2263 56.1425 22.0138 55.8684 21.8564C55.5501 21.6755 55.2058 21.5447 54.8477 21.4684C54.4099 21.3738 53.9629 21.3285 53.515 21.3334C53.1597 21.3332 52.8047 21.3558 52.4522 21.4009C52.1192 21.4428 51.7895 21.5076 51.4653 21.5949C51.1648 21.6765 50.8691 21.775 50.5797 21.8901L50.3773 23.324C50.6584 23.2228 50.9257 23.1385 51.1789 23.071C51.4321 23.0035 51.6766 22.9473 51.9124 22.9023C52.1438 22.8581 52.3776 22.8271 52.6125 22.8095C52.8431 22.7926 53.0708 22.7842 53.2957 22.7842C53.6397 22.7768 53.9832 22.8166 54.3164 22.9023C54.5595 22.9631 54.7831 23.085 54.9659 23.2565C55.1285 23.4235 55.2447 23.6299 55.3033 23.8554C55.375 24.1336 55.4089 24.4201 55.4042 24.7074L55.4022 25.1305L53.4304 25.2641C52.7559 25.2829 52.0915 25.4318 51.4735 25.7027C51.011 25.905 50.6118 26.2285 50.318 26.6389C50.0686 27.0042 49.9362 27.4366 49.9384 27.8789C49.9352 28.2938 50.0368 28.7029 50.2336 29.0682C50.44 29.4434 50.7505 29.751 51.1277 29.9539C51.5879 30.1933 52.1022 30.3095 52.6207 30.2913C53.1064 30.3024 53.59 30.2223 54.0462 30.0551C54.4406 29.9007 54.8014 29.6715 55.1089 29.3803C55.2258 29.2684 55.3367 29.1504 55.441 29.0269ZM53.8611 28.8911C53.6248 28.9366 53.3846 28.9592 53.1439 28.9585C52.869 28.9664 52.5956 28.9146 52.3426 28.8067C52.1368 28.7174 51.9631 28.5673 51.8449 28.3765C51.7281 28.1743 51.6697 27.9436 51.6762 27.7102C51.6599 27.4289 51.737 27.1502 51.8955 26.9173C52.0792 26.7029 52.3281 26.5548 52.6041 26.4956C53.0351 26.394 53.4775 26.3486 53.9202 26.3606H55.3972L55.3895 28.0349C55.3037 28.1314 55.2096 28.2203 55.1084 28.3006C54.9254 28.4452 54.7275 28.5696 54.518 28.6718C54.3095 28.7731 54.0887 28.8468 53.8611 28.8911Z" fill="white"/>
<path d="M65.6362 28.9088C65.8293 28.5518 65.9252 28.1504 65.9143 27.7448C65.9214 27.4487 65.8727 27.154 65.7709 26.876C65.6801 26.6419 65.5456 26.4272 65.3745 26.2434C65.2018 26.0603 65.0028 25.9039 64.784 25.7794C64.5576 25.6498 64.3206 25.5397 64.0755 25.4505C63.8955 25.3942 63.7184 25.3352 63.5441 25.2733C63.3698 25.2115 63.1954 25.1552 63.0211 25.1046C62.8468 25.054 62.6781 25.0006 62.515 24.9444C62.3621 24.8923 62.2128 24.8303 62.068 24.7588C61.9293 24.6852 61.7967 24.6006 61.6715 24.5058C61.5559 24.4187 61.4585 24.3098 61.3847 24.1852C61.3105 24.0573 61.2726 23.9114 61.2751 23.7635C61.2705 23.6008 61.3114 23.4401 61.3934 23.2996C61.4814 23.1615 61.6033 23.0482 61.7474 22.9706C61.9239 22.8737 62.1147 22.8054 62.3126 22.7682C62.5599 22.7207 62.8114 22.6981 63.0633 22.7007C63.187 22.7007 63.3221 22.7063 63.4685 22.7176C63.6148 22.7288 63.7751 22.7485 63.9492 22.7766C64.1232 22.8047 64.2974 22.8413 64.4719 22.8863C64.6464 22.9313 64.8237 22.9819 65.0036 23.0381C65.1704 23.0895 65.3337 23.1514 65.4925 23.2237L65.6109 21.8572C65.397 21.7672 65.1861 21.6885 64.9783 21.621C64.7705 21.5538 64.5593 21.4975 64.3456 21.4523C64.1369 21.4081 63.9257 21.3771 63.713 21.3596C63.5044 21.3427 63.2995 21.3342 63.097 21.3342C62.631 21.3295 62.1663 21.3833 61.7137 21.4945C61.3267 21.5886 60.9587 21.7484 60.6256 21.9669C60.3238 22.1667 60.0772 22.4394 59.9086 22.7597C59.7324 23.1129 59.6456 23.5039 59.6556 23.8984C59.6503 24.1826 59.696 24.4655 59.7905 24.7335C59.8707 24.9584 59.9907 25.1669 60.1448 25.3493C60.2949 25.5213 60.468 25.6718 60.6594 25.7963C60.8587 25.9269 61.0706 26.0371 61.292 26.1253C61.4157 26.1702 61.545 26.2152 61.68 26.2602C61.8152 26.3052 61.9468 26.3474 62.0764 26.3868C62.206 26.4261 62.3323 26.4655 62.456 26.5048C62.5797 26.5442 62.7006 26.5836 62.8187 26.6229C62.9368 26.6623 63.052 26.6988 63.1645 26.7326C63.3154 26.786 63.4621 26.8508 63.6031 26.9266C63.727 26.9921 63.843 27.0713 63.9492 27.1627C64.0424 27.2444 64.1171 27.3451 64.1683 27.458C64.2198 27.5749 64.2457 27.7014 64.2442 27.8291C64.2502 27.9539 64.2283 28.0784 64.1802 28.1937C64.132 28.3089 64.0588 28.412 63.9658 28.4955C63.757 28.6699 63.5074 28.7888 63.2404 28.8413C62.9275 28.9104 62.6077 28.9443 62.2872 28.9425C62.0869 28.9411 61.8869 28.927 61.6884 28.9003C61.4691 28.8726 61.2386 28.8332 60.997 28.7823C60.7554 28.7313 60.5079 28.6694 60.2544 28.5967C60.0014 28.5236 59.7455 28.4421 59.4869 28.3521L59.5546 29.786C59.8468 29.8872 60.1139 29.9688 60.3557 30.0306C60.5975 30.0925 60.828 30.1459 61.0473 30.1909C61.2587 30.2346 61.4729 30.2627 61.6884 30.2752C61.8965 30.2863 62.1073 30.2919 62.321 30.2921C62.7915 30.2945 63.2609 30.2464 63.7212 30.1487C64.1263 30.0663 64.5143 29.9151 64.8684 29.7017C65.1874 29.5067 65.4516 29.2339 65.6362 28.9088Z" fill="white"/>
<path d="M72.4176 28.7645L72.1308 28.8152C72.0387 28.8316 71.9458 28.8428 71.8524 28.8489C71.7624 28.8548 71.6778 28.8573 71.5994 28.8573C71.3409 28.8644 71.0842 28.8125 70.8487 28.7055C70.6461 28.6097 70.4782 28.4535 70.3679 28.2585C70.2496 28.0385 70.1914 27.7912 70.1992 27.5415V22.8686H72.5778L72.7634 21.519H70.1992V18.8535L68.4785 19.4608V21.519H67.1795L66.994 22.8686H68.4785V27.8957C68.471 28.2311 68.5224 28.5651 68.6303 28.8826C68.7171 29.1338 68.8518 29.3658 69.0268 29.5659C69.1873 29.744 69.3824 29.8875 69.6003 29.9876C69.8233 30.09 70.0585 30.1637 70.3001 30.2069C70.5394 30.251 70.7822 30.2736 71.0255 30.2744C71.2055 30.2744 71.3827 30.2688 71.5573 30.2575C71.7313 30.246 71.8918 30.2294 72.038 30.2069C72.1842 30.1844 72.322 30.1588 72.4513 30.131C72.5807 30.1032 72.69 30.0779 72.7803 30.0551L72.8815 28.6549C72.8158 28.6803 72.7481 28.7 72.6791 28.7139C72.6001 28.7308 72.5132 28.7477 72.4176 28.7645Z" fill="white"/>
<path d="M76.1462 17.816C75.9712 17.709 75.7696 17.6535 75.5645 17.6558C75.3567 17.6541 75.1525 17.7095 74.974 17.816C74.7981 17.919 74.6503 18.0639 74.5439 18.2378C74.4367 18.4128 74.3812 18.6146 74.3836 18.8198C74.3819 19.0276 74.4373 19.2319 74.5439 19.4102C74.647 19.5867 74.7956 19.7323 74.974 19.832C75.1542 19.9333 75.3578 19.9857 75.5645 19.9838C75.7685 19.9863 75.9694 19.9339 76.1462 19.832C76.3199 19.7317 76.463 19.5859 76.5599 19.4102C76.6612 19.2301 76.7135 19.0265 76.7116 18.8198C76.7141 18.6157 76.6618 18.4147 76.5599 18.2378C76.4597 18.0646 76.3174 17.9196 76.1462 17.816Z" fill="white"/>
<path d="M74.6694 30.1226H76.3902V21.3503L74.6694 21.6033V30.1226Z" fill="white"/>
<path d="M85.6349 21.6877C85.1338 21.4345 84.5767 21.3126 84.0157 21.3334C83.5259 21.3343 83.0393 21.4112 82.5731 21.5611C82.0928 21.7142 81.6359 21.9327 81.2153 22.2106C81.0522 22.3178 80.8957 22.4356 80.7427 22.5565V21.3503L79.0219 21.6033V30.1226H80.7427V23.7154C80.9093 23.6179 81.081 23.5295 81.2572 23.4506C81.4941 23.3456 81.7363 23.2527 81.9826 23.1722C82.2195 23.0947 82.462 23.0355 82.708 22.9951C82.9395 22.9566 83.1737 22.9368 83.4084 22.936C83.6836 22.9296 83.9577 22.9725 84.2178 23.0625C84.4325 23.1399 84.6241 23.2705 84.7745 23.4421C84.9294 23.6282 85.0392 23.8476 85.0954 24.0832C85.1672 24.3814 85.201 24.6875 85.1963 24.9942V30.1226H86.917V24.6399C86.9395 24.0003 86.8304 23.363 86.5965 22.7673C86.4062 22.3098 86.0675 21.9295 85.6349 21.6877Z" fill="white"/>
<path d="M94.8717 21.5527C94.614 21.4821 94.3519 21.4286 94.0872 21.3925C93.7853 21.3517 93.4809 21.332 93.1763 21.3334C92.6259 21.331 92.0807 21.44 91.5736 21.6539C91.0654 21.869 90.604 22.1813 90.2156 22.5733C89.8014 22.996 89.4821 23.5021 89.279 24.0579C89.0438 24.7093 88.9295 25.3982 88.9416 26.0907C88.9231 26.8525 89.0699 27.6094 89.3718 28.3091C89.6362 28.9075 90.074 29.4129 90.6286 29.7599C91.2356 30.1179 91.9318 30.2963 92.6362 30.2744C93.2549 30.2722 93.8675 30.1519 94.4412 29.9201C94.784 29.7803 95.1072 29.5967 95.4028 29.3738V29.8358C95.4096 30.2159 95.3555 30.5946 95.2426 30.9576C95.1453 31.2622 94.9777 31.5396 94.7533 31.7674C94.5117 31.9995 94.216 32.1676 93.893 32.2566C93.4728 32.372 93.0381 32.426 92.6024 32.4169C92.2557 32.4163 91.9094 32.3966 91.5649 32.3578C91.2033 32.3168 90.8453 32.2491 90.4937 32.1554C90.1315 32.0589 89.7763 31.9377 89.4306 31.7927L89.6165 33.2772C89.9266 33.403 90.2451 33.5073 90.5696 33.5893C90.911 33.6755 91.2575 33.7403 91.6071 33.7833C91.9765 33.8287 92.3484 33.8513 92.7205 33.8508C93.5508 33.8768 94.376 33.7123 95.1329 33.37C95.7473 33.0836 96.2615 32.6193 96.609 32.0373C96.9485 31.4388 97.1204 30.7599 97.1066 30.072V21.3334L95.4568 21.758C95.2662 21.6774 95.0708 21.6088 94.8717 21.5527ZM95.1835 28.3091C94.9746 28.4305 94.7577 28.5376 94.5343 28.6296C94.3374 28.7105 94.1343 28.7753 93.9269 28.8236C93.7249 28.8691 93.5183 28.8918 93.3112 28.8911C92.8045 28.9094 92.3018 28.7961 91.852 28.5621C91.4598 28.3385 91.1562 27.9872 90.9916 27.5668C90.7883 27.0196 90.6937 26.438 90.7133 25.8545C90.7058 25.3889 90.7712 24.925 90.907 24.4796C91.0176 24.1136 91.2078 23.7766 91.464 23.4927C91.7135 23.2288 92.0191 23.0241 92.3581 22.8939C92.7432 22.7478 93.1525 22.6762 93.5643 22.683C93.83 22.6826 94.0953 22.7052 94.3571 22.7505C94.6254 22.7978 94.8902 22.8626 95.15 22.9445C95.2327 22.9703 95.3187 23.0046 95.403 23.0361V28.1797C95.3283 28.2236 95.2532 28.2691 95.1835 28.3091Z" fill="white"/>
<path d="M105.051 26.2425C104.879 26.0594 104.68 25.9031 104.461 25.7786C104.235 25.6489 103.998 25.5388 103.752 25.4496C103.572 25.3934 103.395 25.3344 103.221 25.2725C103.047 25.2106 102.872 25.1544 102.698 25.1038C102.524 25.0532 102.355 24.9998 102.192 24.9435C102.039 24.8915 101.89 24.8295 101.745 24.758C101.606 24.6843 101.474 24.5997 101.348 24.5049C101.233 24.4179 101.135 24.309 101.062 24.1844C100.988 24.0565 100.949 23.9106 100.952 23.7627C100.947 23.6 100.989 23.4393 101.07 23.2987C101.158 23.1605 101.28 23.0473 101.425 22.9698C101.601 22.8728 101.792 22.8045 101.989 22.7673C102.237 22.7199 102.488 22.6973 102.74 22.6998C102.864 22.6998 102.999 22.7055 103.145 22.7167C103.292 22.728 103.452 22.7477 103.626 22.7758C103.8 22.8039 103.975 22.8404 104.149 22.8854C104.323 22.9304 104.5 22.981 104.68 23.0372C104.847 23.0886 105.011 23.1506 105.169 23.2228L105.288 21.8564C105.074 21.7664 104.863 21.6877 104.655 21.6202C104.447 21.5529 104.236 21.4966 104.023 21.4515C103.814 21.4073 103.603 21.3763 103.39 21.3587C103.182 21.3418 102.976 21.3334 102.774 21.3334C102.308 21.3287 101.843 21.3825 101.391 21.4937C101.004 21.5877 100.636 21.7475 100.302 21.966C100.001 22.1658 99.7542 22.4385 99.5858 22.7589C99.4095 23.112 99.3226 23.503 99.3328 23.8976C99.3275 24.1818 99.3733 24.4646 99.468 24.7327C99.5479 24.9575 99.6679 25.1661 99.822 25.3484C99.9721 25.5205 100.145 25.671 100.337 25.7955C100.536 25.9262 100.748 26.0364 100.969 26.1244C101.093 26.1694 101.222 26.2144 101.357 26.2594C101.492 26.3044 101.624 26.3465 101.754 26.3859C101.883 26.4253 102.009 26.4646 102.133 26.504C102.257 26.5434 102.378 26.5827 102.496 26.6221C102.614 26.6614 102.729 26.698 102.842 26.7317C102.993 26.7852 103.139 26.8501 103.28 26.9257C103.404 26.9913 103.52 27.0705 103.626 27.1619C103.72 27.2435 103.794 27.3442 103.845 27.4571C103.897 27.5739 103.923 27.7005 103.922 27.8283C103.928 27.9531 103.906 28.0776 103.857 28.1929C103.809 28.3081 103.736 28.4112 103.643 28.4946C103.434 28.669 103.185 28.788 102.918 28.8405C102.605 28.9095 102.285 28.9435 101.965 28.9417C101.764 28.9403 101.564 28.9262 101.366 28.8995C101.146 28.8718 100.916 28.8324 100.674 28.7814C100.433 28.7304 100.185 28.6686 99.9317 28.5958C99.6788 28.5227 99.4231 28.4412 99.1644 28.3512L99.2318 29.7852C99.5239 29.8864 99.7909 29.9679 100.033 30.0298C100.275 30.0916 100.505 30.1451 100.725 30.19C100.936 30.2337 101.15 30.2619 101.366 30.2744C101.574 30.2854 101.785 30.2911 101.998 30.2913C102.469 30.2936 102.938 30.2456 103.398 30.1479C103.803 30.0655 104.192 29.9143 104.546 29.7008C104.865 29.5059 105.129 29.2331 105.313 28.9079C105.506 28.551 105.602 28.1496 105.591 27.7439C105.599 27.4479 105.55 27.1532 105.448 26.8751C105.357 26.6409 105.223 26.4262 105.051 26.2425Z" fill="white"/>
<path d="M107.379 24.6399L107.261 26.0232H112.035L112.153 24.6399H107.379Z" fill="white"/>
<path d="M6.67408 39.0312C5.97123 38.6577 5.18389 38.4718 4.38819 38.4914C3.58521 38.4731 2.79141 38.665 2.08548 39.0481C1.4337 39.4128 0.900758 39.9575 0.55034 40.617C0.169346 41.3568 -0.0193476 42.1806 0.00174227 43.0125C-0.0196829 43.8379 0.156763 44.6564 0.516293 45.3996C0.839478 46.0483 1.35497 46.5815 1.9924 46.9263C2.67862 47.2858 3.44467 47.4657 4.21919 47.4493C5.03009 47.4655 5.83163 47.2738 6.5475 46.8926C7.21575 46.5279 7.76374 45.977 8.12486 45.3068C8.51655 44.5582 8.71105 43.7222 8.69 42.8776C8.70925 42.0731 8.52949 41.2763 8.16673 40.558C7.83073 39.9129 7.31141 39.3817 6.67408 39.0312ZM6.57283 44.6826C6.38317 45.121 6.06185 45.4894 5.65343 45.737C5.243 45.9719 4.77665 46.0914 4.30383 46.0828C3.84027 46.0945 3.38331 45.9714 2.98828 45.7286C2.59713 45.4688 2.2918 45.099 2.11081 44.6658C1.88143 44.1101 1.77225 43.5122 1.79052 42.9113C1.77064 42.3267 1.88003 41.7449 2.11081 41.2074C2.30002 40.785 2.61526 40.4315 3.01333 40.1953C3.43904 39.9609 3.91958 39.8444 4.40535 39.8579C4.78442 39.8484 5.1611 39.9203 5.51003 40.0687C5.8158 40.2065 6.08255 40.4181 6.28632 40.6845C6.50369 40.9739 6.66135 41.3036 6.75 41.6545C6.85555 42.065 6.90654 42.4875 6.90177 42.9113C6.92141 43.5186 6.8092 44.1229 6.57283 44.6826Z" fill="white"/>
<path d="M14.3072 38.6179C13.9918 38.7025 13.6906 38.8333 13.4134 39.006C13.1255 39.1855 12.8593 39.3978 12.6202 39.6386C12.5806 39.6782 12.5418 39.7229 12.5022 39.7648V38.5083L10.7814 38.7613V47.2806H12.5022V40.9072C12.6302 40.8179 12.7625 40.7352 12.8988 40.6592C13.0676 40.5663 13.2423 40.4845 13.4218 40.4146C13.5958 40.3471 13.7729 40.2881 13.9532 40.2374C14.1383 40.1859 14.3272 40.1493 14.5181 40.1278C14.7226 40.1051 14.9286 40.0994 15.1341 40.1109L15.3362 38.5252C14.9905 38.5003 14.643 38.5316 14.3072 38.6179Z" fill="white"/>
<path d="M24.2436 38.677H22.1349L19.2481 41.8493H18.6259V34.5447L16.9052 34.7978V47.2814H18.6259V43.1483H18.654L22.1008 47.2814H24.3276L20.2356 42.6703L24.2436 38.677Z" fill="white"/>
<path d="M32.2904 39.7651C31.9666 39.3453 31.5394 39.0169 31.0505 38.8119C30.5074 38.5901 29.9248 38.481 29.3382 38.4914C28.7472 38.4814 28.1609 38.5964 27.6175 38.8288C27.1232 39.0452 26.6826 39.3677 26.3269 39.7735C25.9607 40.2 25.6851 40.6964 25.5169 41.2328C25.3246 41.8467 25.2308 42.4873 25.2388 43.1306C25.2149 43.9435 25.3856 44.7503 25.7365 45.4839C26.0569 46.1198 26.5748 46.6348 27.2126 46.9516C27.9607 47.304 28.7815 47.4746 29.6081 47.4493C30.0058 47.4527 30.4033 47.4273 30.7974 47.3734C31.1268 47.3259 31.4514 47.2497 31.7675 47.1456C32.0808 47.0404 32.3854 46.9107 32.6784 46.7576L32.7965 45.4586C32.5826 45.5374 32.366 45.6161 32.1467 45.6948C31.9274 45.7735 31.6998 45.8438 31.4638 45.9057C31.2255 45.9681 30.9831 46.0132 30.7384 46.0406C30.4919 46.0687 30.2441 46.0828 29.9961 46.0828C29.5532 46.09 29.111 46.0418 28.68 45.9394C28.3323 45.8562 28.0108 45.6881 27.744 45.4502C27.4745 45.1934 27.2767 44.8707 27.1704 44.5139C27.0603 44.1525 26.9985 43.7781 26.9865 43.4005H33.0833C33.1662 42.7028 33.1347 41.9963 32.9902 41.3087C32.8716 40.7495 32.6328 40.2228 32.2904 39.7651ZM28.0392 40.17C28.4351 39.9296 28.8922 39.8095 29.3551 39.8241C29.8184 39.801 30.276 39.9347 30.654 40.2037C30.99 40.4718 31.2298 40.8419 31.3373 41.2581C31.4214 41.5658 31.4628 41.8837 31.4602 42.2028H27.0237C27.0548 41.8664 27.1268 41.535 27.2379 41.2159C27.3819 40.7882 27.6637 40.4203 28.0392 40.17Z" fill="white"/>
<path d="M40.5228 43.4005C40.3501 43.2174 40.1511 43.0611 39.9323 42.9366C39.7059 42.8069 39.4687 42.6969 39.2235 42.6077C39.0439 42.5514 38.8669 42.4924 38.6924 42.4305C38.5179 42.3687 38.3435 42.3124 38.1691 42.2618C37.9948 42.2112 37.8261 42.1578 37.663 42.1015C37.5101 42.0495 37.3608 41.9876 37.216 41.916C37.0773 41.8424 36.9447 41.7578 36.8195 41.6629C36.7039 41.5759 36.6065 41.467 36.5328 41.3424C36.4584 41.2145 36.4203 41.0687 36.4229 40.9207C36.4184 40.758 36.4593 40.5974 36.5412 40.4567C36.6293 40.3187 36.7513 40.2055 36.8955 40.1278C37.072 40.0309 37.2627 39.9626 37.4606 39.9253C37.708 39.8779 37.9595 39.8553 38.2114 39.8579C38.3348 39.8579 38.47 39.8635 38.6162 39.8747C38.7624 39.886 38.9224 39.9057 39.097 39.9338C39.2716 39.9619 39.4454 39.9985 39.62 40.0434C39.7946 40.0884 39.9714 40.139 40.1514 40.1953C40.3182 40.2465 40.4815 40.3085 40.6403 40.3808L40.7586 39.0144C40.545 38.9244 40.3341 38.8457 40.126 38.7782C39.9183 38.7109 39.7071 38.6546 39.4934 38.6095C39.2847 38.5652 39.0734 38.5342 38.8608 38.5167C38.6525 38.4998 38.4473 38.4914 38.2451 38.4914C37.7791 38.4867 37.3143 38.5405 36.8618 38.6517C36.4747 38.7458 36.1067 38.9056 35.7736 39.124C35.4717 39.3238 35.2252 39.5965 35.0567 39.9169C34.8805 40.2701 34.7936 40.6611 34.8036 41.0556C34.7984 41.3398 34.8441 41.6226 34.9386 41.8907C35.0186 42.1156 35.1386 42.3242 35.2929 42.5064C35.4428 42.6785 35.616 42.829 35.8074 42.9535C36.0066 43.0842 36.2186 43.1944 36.44 43.2824C36.5634 43.3274 36.6927 43.3724 36.828 43.4174C36.9633 43.4624 37.0955 43.5045 37.2245 43.5439C37.3534 43.5833 37.4799 43.6226 37.604 43.662C37.7281 43.7014 37.849 43.7407 37.9667 43.7801C38.0848 43.8195 38.2001 43.856 38.3125 43.8898C38.4634 43.9432 38.6101 44.0081 38.7512 44.0838C38.8749 44.1494 38.9909 44.2286 39.097 44.3199C39.1904 44.4015 39.2652 44.5022 39.3163 44.6151C39.3678 44.732 39.3937 44.8586 39.3922 44.9863C39.3982 45.111 39.3763 45.2356 39.3282 45.3508C39.28 45.4661 39.2068 45.5692 39.1139 45.6526C38.905 45.827 38.6555 45.946 38.3885 45.9985C38.0755 46.0675 37.7558 46.1015 37.4353 46.0997C37.235 46.0983 37.035 46.0842 36.8364 46.0575C36.6171 46.0298 36.3866 45.9904 36.1448 45.9394C35.903 45.8884 35.6556 45.8266 35.4025 45.7539C35.1495 45.6808 34.8936 45.5992 34.635 45.5093L34.7024 46.9432C34.9945 47.0444 35.2615 47.1259 35.5037 47.1878C35.7459 47.2496 35.9764 47.3031 36.1954 47.3481C36.4067 47.3917 36.621 47.4199 36.8364 47.4324C37.0443 47.4435 37.2552 47.4491 37.4691 47.4493C37.9396 47.4517 38.409 47.4036 38.8692 47.3059C39.2743 47.2235 39.6624 47.0723 40.0164 46.8588C40.3354 46.6639 40.5995 46.3911 40.784 46.066C40.977 45.709 41.0729 45.3076 41.062 44.9019C41.0692 44.6059 41.0207 44.3112 40.9189 44.0331C40.8282 43.799 40.6938 43.5843 40.5228 43.4005Z" fill="white"/>
<path d="M47.5657 45.9226L47.2792 45.9732C47.1871 45.9896 47.0942 46.0008 47.0009 46.0069C46.9106 46.0128 46.8259 46.0154 46.7478 46.0154C46.4893 46.0224 46.2326 45.9705 45.9971 45.8635C45.7946 45.7675 45.6267 45.6114 45.5163 45.4165C45.3981 45.1964 45.3399 44.9492 45.3476 44.6995V40.0266H47.7262L47.9118 38.677H45.3476V36.0116L43.6269 36.6189V38.677H42.3276L42.1421 40.0266H43.6269V45.0538C43.6192 45.3891 43.6706 45.7231 43.7787 46.0406C43.8655 46.2919 44.0001 46.5239 44.1752 46.7239C44.3357 46.902 44.5308 47.0455 44.7487 47.1456C44.9718 47.2481 45.2069 47.3218 45.4486 47.3649C45.6879 47.409 45.9306 47.4316 46.1739 47.4324C46.3539 47.4324 46.5311 47.4268 46.7056 47.4155C46.8801 47.4043 47.0404 47.3874 47.1864 47.3649C47.3323 47.3422 47.4704 47.3168 47.5994 47.289C47.7285 47.2612 47.8384 47.2359 47.9284 47.2131L48.0299 45.8129C47.9642 45.8382 47.8965 45.858 47.8275 45.872C47.7486 45.8894 47.6613 45.9063 47.5657 45.9226Z" fill="white"/>
<path d="M53.3435 38.6179C53.028 38.7025 52.7267 38.8333 52.4494 39.006C52.1616 39.1856 51.8956 39.3978 51.6565 39.6386C51.6169 39.6782 51.5781 39.7229 51.5385 39.7648V38.5083L49.8178 38.7613V47.2806H51.5385V40.9072C51.6692 40.8172 51.801 40.7329 51.9349 40.6592C52.1038 40.5663 52.2786 40.4846 52.4581 40.4146C52.6321 40.3471 52.8091 40.2881 52.9892 40.2374C53.1744 40.186 53.3634 40.1493 53.5544 40.1278C53.7589 40.1051 53.965 40.0994 54.1705 40.1109L54.3726 38.5252C54.0268 38.5003 53.6793 38.5317 53.3435 38.6179Z" fill="white"/>
<path d="M62.4701 39.7651C62.1463 39.3454 61.719 39.0169 61.2302 38.8119C60.687 38.5901 60.1045 38.481 59.5179 38.4914C58.927 38.4814 58.3406 38.5964 57.7972 38.8288C57.3029 39.0452 56.8623 39.3677 56.5066 39.7735C56.1402 40.1998 55.8646 40.6963 55.6966 41.2328C55.5044 41.8467 55.4105 42.4873 55.4185 43.1306C55.3946 43.9435 55.5653 44.7503 55.9162 45.4839C56.2367 46.1198 56.7546 46.6348 57.3923 46.9516C58.1404 47.3041 58.9613 47.4746 59.7878 47.4493C60.1856 47.4527 60.5831 47.4273 60.9771 47.3733C61.3065 47.3259 61.6311 47.2497 61.9471 47.1456C62.2605 47.0404 62.5651 46.9107 62.8581 46.7576L62.9762 45.4586C62.7623 45.5374 62.5457 45.6161 62.3264 45.6948C62.1071 45.7735 61.8795 45.8438 61.6435 45.9057C61.4052 45.968 61.1628 46.0131 60.9181 46.0406C60.6717 46.0687 60.4238 46.0828 60.1758 46.0828C59.7328 46.09 59.2907 46.0418 58.8597 45.9394C58.5121 45.8562 58.1905 45.6881 57.9237 45.4502C57.6542 45.1934 57.4565 44.8706 57.3501 44.5139C57.24 44.1525 57.1782 43.7781 57.1663 43.4005H63.2627C63.3458 42.7028 63.3145 41.9963 63.1699 41.3087C63.0513 40.7495 62.8126 40.2228 62.4701 39.7651ZM58.2189 40.1699C58.6148 39.9296 59.0719 39.8095 59.5347 39.8241C59.9981 39.801 60.4558 39.9347 60.8337 40.2037C61.1697 40.4718 61.4094 40.8418 61.5167 41.258C61.6011 41.5658 61.6426 41.8837 61.6398 42.2028H57.2033C57.2346 41.8664 57.3064 41.535 57.4173 41.2159C57.5615 40.7882 57.8434 40.4204 58.2189 40.1699Z" fill="white"/>
<path d="M69.8334 45.9226L69.5466 45.9732C69.4545 45.9896 69.3616 46.0008 69.2682 46.0069C69.1783 46.0128 69.0936 46.0154 69.0151 46.0154C68.7567 46.0224 68.5001 45.9705 68.2647 45.8635C68.0622 45.7677 67.8942 45.6115 67.7839 45.4165C67.6656 45.1965 67.6074 44.9492 67.6152 44.6995V40.0266H69.9939L70.1795 38.677H67.6152V36.0116L65.8945 36.6189V38.677H64.5955L64.41 40.0266H65.8945V45.0538C65.887 45.3891 65.9384 45.7231 66.0464 46.0406C66.1331 46.2919 66.2677 46.5239 66.4428 46.7239C66.6033 46.902 66.7985 47.0455 67.0164 47.1456C67.2394 47.2481 67.4746 47.3218 67.7162 47.3649C67.9555 47.409 68.1982 47.4316 68.4416 47.4324C68.6215 47.4324 68.7988 47.4268 68.9733 47.4155C69.1478 47.4043 69.308 47.3874 69.454 47.3649C69.6002 47.3422 69.738 47.3169 69.8673 47.289C69.9967 47.2611 70.1064 47.2358 70.1964 47.2131L70.2975 45.8129C70.2318 45.8383 70.1641 45.858 70.0951 45.872C70.016 45.8894 69.9288 45.9063 69.8334 45.9226Z" fill="white"/>
</svg>
