<svg xmlns="http://www.w3.org/2000/svg" viewBox="0 0 69 24"><path fill="#78003D" d="M0 0h69v24H0z"/><path fill="#fff" d="M6.004 18V6.001h3.937v12H6.004Zm9.294-10.09L17.562 18h-4.309L10.55 6.001h2.416a2.276 2.276 0 0 1 1.513.55c.42.345.71.826.82 1.36ZM18.154 18V6.001h3.937v12h-3.937Zm6.91-7.436a2.382 2.382 0 0 1-2.4-2.4 2.303 2.303 0 0 1 .323-1.2 2.411 2.411 0 0 1 3.278-.861c.355.209.652.506.861.861.215.364.326.779.322 1.2a2.4 2.4 0 0 1-1.183 2.079 2.302 2.302 0 0 1-1.2.321ZM28.057 18V6.001h3.937v12h-3.937Zm8.922-5.442c.011.012.096.15.253.414.158.265.364.603.617 1.014a309.436 309.436 0 0 1 1.597 2.62c.247.411.529.876.845 1.394h-4.326c-.27-.44-.516-.837-.735-1.191-.22-.355-.453-.738-.7-1.15-.249-.41-.494-.81-.737-1.2-.242-.389-.45-.73-.625-1.022-.174-.293-.296-.49-.363-.591a1.748 1.748 0 0 1-.287-.845c.017-.29.11-.57.27-.812.068-.113.192-.313.372-.6s.391-.628.633-1.022c.243-.395.488-.797.736-1.209l.7-1.157.736-1.2h4.326l-3.346 5.459a1.079 1.079 0 0 0-.17.54c.012.202.082.396.203.558h.001Z"/><path fill="#FDAFD7" d="M53.022 7.555a3.012 3.012 0 0 0-.788-.82 3.783 3.783 0 0 0-1.142-.541A5.422 5.422 0 0 0 49.568 6h-4.706v12h1.777v-4.31h3.065a4.002 4.002 0 0 0 1.98-.49 3.661 3.661 0 0 0 1.397-1.37 4.03 4.03 0 0 0 .516-2.078 4.936 4.936 0 0 0-.135-1.167 3.36 3.36 0 0 0-.44-1.03Zm-1.575 3.642a1.997 1.997 0 0 1-.956.786 3.95 3.95 0 0 1-1.499.253H46.64V7.47h2.59a3.23 3.23 0 0 1 1.44.279c.359.173.653.458.837.811.196.396.292.834.28 1.276.02.477-.098.949-.339 1.361ZM57.046 16.546c.268-.23.543-.468.835-.727.406-.36.815-.752 1.227-1.174a20.16 20.16 0 0 0 1.177-1.318c.362-.442.693-.908.99-1.395.278-.452.505-.934.677-1.436.16-.462.243-.948.246-1.437a3.114 3.114 0 0 0-.271-1.326 2.868 2.868 0 0 0-.796-1.014 3.633 3.633 0 0 0-1.312-.66 6.49 6.49 0 0 0-1.803-.228 6.674 6.674 0 0 0-1.177.102c-.37.065-.732.164-1.083.296-.335.125-.66.274-.974.447l.22 1.47c.268-.179.555-.329.855-.447.327-.131.664-.233 1.008-.305a5.19 5.19 0 0 1 1.066-.11c.376-.007.75.044 1.11.153.286.087.549.237.77.44.199.184.352.413.448.667.099.268.148.551.144.836a3.738 3.738 0 0 1-.288 1.395 7.418 7.418 0 0 1-.812 1.47c-.38.538-.792 1.052-1.236 1.538a26.88 26.88 0 0 1-1.55 1.572c-.558.524-1.137 1.056-1.735 1.597l.22 1.048h7.331l.203-1.454h-5.49Z"/></svg>