<svg xmlns="http://www.w3.org/2000/svg" viewBox="0 0 68 14"><path fill="#000" d="M0 12.995v-12h3.937v12H0Zm9.294-10.09 2.264 10.09H7.25l-2.704-12h2.417a2.276 2.276 0 0 1 1.513.55c.42.346.71.826.819 1.36Zm2.855 10.09v-12h3.938v12h-3.938Zm6.912-7.436a2.382 2.382 0 0 1-2.4-2.4 2.301 2.301 0 0 1 .321-1.2 2.41 2.41 0 0 1 3.278-.862c.356.21.653.506.862.862.215.363.326.778.321 1.2a2.35 2.35 0 0 1-.321 1.208 2.4 2.4 0 0 1-.862.87 2.302 2.302 0 0 1-1.2.322Zm2.99 7.436v-12h3.938v12h-3.937Zm8.923-5.442c.01.012.095.15.253.414s.364.602.617 1.014a311.524 311.524 0 0 1 1.597 2.62c.247.41.529.876.845 1.394H29.96c-.27-.44-.516-.837-.736-1.192-.22-.355-.453-.738-.7-1.149-.248-.41-.493-.81-.736-1.2-.242-.389-.45-.73-.625-1.022a17.98 17.98 0 0 0-.363-.592 1.747 1.747 0 0 1-.287-.845c.016-.29.11-.57.27-.811.067-.113.191-.313.371-.6s.392-.628.634-1.023c.242-.394.488-.797.736-1.208l.7-1.158.736-1.2h4.326l-3.346 5.46a1.08 1.08 0 0 0-.17.54c.012.202.082.396.203.558ZM55.277.995h-3.708s2.106 3.451 2.13 3.496a.582.582 0 0 1 .013.707L51.57 8.705h3.707s1.787-2.919 2.031-3.324a.886.886 0 0 0-.01-1.074c-.26-.447-.262-.446-2.02-3.312ZM66.885 2.982C66.76 2.77 65.657.995 65.657.995h-7.932l1.733 2.903h4.178L61.911 6.72l1.923 3.226-1.854 3.044h3.387c.544-.89 1.36-2.266 1.53-2.547a.887.887 0 0 0-.01-1.077c-.17-.289-1.077-1.725-1.618-2.61l1.628-2.695a.887.887 0 0 0-.012-1.08Z"/><path fill="#000" d="M59.254 7.115c-.523.851-1.396 2.279-1.558 2.557a.855.855 0 0 0-.01 1.037c.164.272 1.044 1.71 1.568 2.567.525-.857 1.405-2.295 1.568-2.567a.855.855 0 0 0-.01-1.037 437.657 437.657 0 0 0-1.558-2.557ZM48.712.995a1.987 1.987 0 0 0-1.082.33c-.273.167-2.496 2.051-2.665 2.195-.17-.144-2.393-2.028-2.665-2.196a1.987 1.987 0 0 0-1.083-.33h-2.36v10.569l3.28-2.461V4.858l2.828 2.125 2.827-2.125v8.13h3.3V.995h-2.38Z"/></svg>