<svg viewBox="0 0 24 24" xmlns="http://www.w3.org/2000/svg"><path fill="currentColor" fill-rule="evenodd" clip-rule="evenodd" d="M11.4553 23h1.1008l.9942-1.2425c1.3058-1.632 2.8807-3.7245 4.1368-5.8908C18.9042 13.7677 20 11.3053 20 9c0-4.60457-3.3954-8-8-8-4.60457 0-8 3.39543-8 8 0 2.2928 1.06277 4.7548 2.27119 6.8673 1.24523 2.1768 2.81912 4.2761 4.17691 5.9161L11.4553 23zM6 9c0 2.9507 2.38553 6.8456 4.7116 9.9007.411.5398.8304 1.0462 1.2252 1.523.0212.0255.0422.051.0632.0763.4034-.5042.8171-1.0397 1.2471-1.6113C15.5531 15.8233 18 11.9499 18 9c0-3.5-2.5-6-6-6S6 5.5 6 9z"/><circle cx="12" cy="9" r="1"/><path fill="currentColor" fill-rule="evenodd" clip-rule="evenodd" d="M12 11c1.1046 0 2-.8954 2-2 0-1.10457-.8954-2-2-2s-2 .89543-2 2c0 1.1046.8954 2 2 2z"/></svg>