<svg viewBox="0 0 24 24" xmlns="http://www.w3.org/2000/svg"><path fill="currentColor" fill-rule="evenodd" clip-rule="evenodd" d="M22 1h2v10h-2V1zm-2.0059 22L20 10.9815h-2L17.9941 21 6 21.0059V4.99405l10.0004.00594v-2L4 2.99405V23.0059L19.9941 23zm-2.9937-3.9333c-.0002.0007-.0004.0013-.0004.0017v-.0178c.0076.0019.0044.0081.0019.0129l-.0015.0032zM12 9.5c.8284 0 1.5-.67157 1.5-1.5s-.6716-1.5-1.5-1.5-1.5.67157-1.5 1.5.6716 1.5 1.5 1.5zM20 3h-2v6h2V3zm-8 14c-1.1046 0-2-.8954-2-2s.8954-2 2-2 2 .8954 2 2-.8954 2-2 2zm0 2c-2.20914 0-4-1.7909-4-4 0-2.2091 1.79086-4 4-4 2.2091 0 4 1.7909 4 4 0 2.2091-1.7909 4-4 4z"/></svg>