<svg viewBox="0 0 24 24" xmlns="http://www.w3.org/2000/svg"><path fill="currentColor" fill-rule="evenodd" clip-rule="evenodd" d="M12.5561 23h-1.1008l-1.0072-1.2166c-1.35779-1.64-2.93168-3.7393-4.17691-5.9161C5.06277 13.7548 4 11.2928 4 9c0-4.60457 3.39543-8 8-8 4.6046 0 8 3.39543 8 8 0 2.3053-1.0958 4.7677-2.3129 6.8667-1.2561 2.1663-2.831 4.2588-4.1368 5.8908L12.5561 23zM16 9c0 2.2091-1.7909 4-4 4-2.20914 0-4-1.7909-4-4 0-2.20914 1.79086-4 4-4 2.2091 0 4 1.79086 4 4z"/><path fill="currentColor" d="M12 11c-1.1046 0-2-.8954-2-2 0-1.10457.8954-2 2-2s2 .89543 2 2c0 1.1046-.8954 2-2 2z"/></svg>