<svg viewBox="0 0 24 24" xmlns="http://www.w3.org/2000/svg"><path fill="currentColor" fill-rule="evenodd" clip-rule="evenodd" d="M10.553 17.369a4.5087 4.5087 0 0 0 1.49.227v-.001c.801 0 1.495-.157 2.083-.471.588-.314 1.044-.75 1.368-1.307.324-.557.486-1.2.486-1.93 0-.669-.131-1.242-.395-1.718-.263-.487-.648-.856-1.155-1.11-.507-.263-1.13-.395-1.869-.395a5.4078 5.4078 0 0 0-.7.046c-.223.03-.446.076-.668.136-.224.051-.447.117-.67.198a3.7517 3.7517 0 0 0-.3805.1507 6.0054 6.0054 0 0 1 .1215-.5907c.163-.589.386-1.065.67-1.43a2.4675 2.4675 0 0 1 1.018-.79c.406-.172.851-.259 1.338-.259.3207.0036.6408.029.958.076.3629.048.7197.1348 1.064.259l.258-1.596a7.7326 7.7326 0 0 0-1.642-.319c-.254-.031-.491-.046-.714-.046-.892 0-1.667.162-2.326.486a4.49 4.49 0 0 0-1.626 1.323c-.426.567-.745 1.221-.958 1.961-.203.74-.304 1.53-.304 2.371a8.289 8.289 0 0 0 .152 1.628c.0924.4806.2509.946.471 1.383.2024.3914.4695.7457.79 1.048a3.2902 3.2902 0 0 0 1.14.67Zm-.516-4.6648v.0118c0 .456.03.882.091 1.277.06.395.162.745.304 1.049.152.294.37.527.654.7.284.161.638.242 1.064.242.425 0 .77-.08 1.034-.243.263-.172.45-.405.562-.7.121-.293.182-.627.182-1.002 0-.436-.066-.786-.197-1.05a1.1962 1.1962 0 0 0-.608-.592c-.264-.132-.603-.198-1.019-.198-.202 0-.4.016-.593.046-.192.02-.385.06-.577.121-.183.051-.36.112-.532.183a3.175 3.175 0 0 0-.365.1552Z"/></svg>
