<svg xmlns="http://www.w3.org/2000/svg" viewBox="0 0 24 24"><path fill="currentColor" fill-rule="evenodd" d="M3.18 10.19a9.04 9.04 0 0 0 0 3.62l-2.9.95.62 1.9 2.9-.94a9.02 9.02 0 0 0 2.13 2.93l-1.8 2.47 1.63 1.18 1.8-2.47c1.03.59 2.2.98 3.44 1.12V24h2v-3.05a8.94 8.94 0 0 0 3.45-1.12l1.8 2.47 1.61-1.18-1.8-2.47a9.02 9.02 0 0 0 2.14-2.93l2.9.94.62-1.9-2.9-.95a9.04 9.04 0 0 0 0-3.62l2.9-.95-.62-1.9-2.9.94a9.02 9.02 0 0 0-2.13-2.93l1.8-2.47-1.63-1.18-1.8 2.47A8.94 8.94 0 0 0 13 3.05V0h-2v3.05a8.94 8.94 0 0 0-3.45 1.12L5.75 1.7 4.15 2.88l1.8 2.47A9.03 9.03 0 0 0 3.8 8.28L.9 7.34l-.62 1.9 2.9.95zM12 16a4 4 0 1 0 0-8 4 4 0 0 0 0 8zm0-2a2 2 0 1 1 0-4 2 2 0 0 1 0 4z" clip-rule="evenodd"/></svg>