<svg xmlns="http://www.w3.org/2000/svg" viewBox="0 0 24 24" fill="currentColor"><path fill-rule="evenodd" d="M22 3a1 1 0 1 1 2 0v8a1 1 0 1 1-2 0V3Zm-4 2a1 1 0 1 1 2 0v4a1 1 0 1 1-2 0V5ZM9 9.5a.5.5 0 0 1 1 0V12h1.5a.5.5 0 0 1 0 1H9.6a.6.6 0 0 1-.6-.6V9.5Z" clip-rule="evenodd"/><path fill-rule="evenodd" d="M4 9a3 3 0 0 1 3-3h6a3 3 0 0 1 3 3v6a3 3 0 0 1-3 3H7a3 3 0 0 1-3-3V9Zm3-1a1 1 0 0 0-1 1v6a1 1 0 0 0 1 1h6a1 1 0 0 0 1-1V9a1 1 0 0 0-1-1H7Z" clip-rule="evenodd"/><path fill-rule="evenodd" d="M6 5a3 3 0 0 1 3-3h2a3 3 0 0 1 3 3v3H6V5Zm3-1a1 1 0 0 0-1 1v1h4V5a1 1 0 0 0-1-1H9Zm5 15a3 3 0 0 1-3 3H9a3 3 0 0 1-3-3v-3h8v3Zm-3 1a1 1 0 0 0 1-1v-1H8v1a1 1 0 0 0 1 1h2Z" clip-rule="evenodd"/></svg>