<svg viewBox="0 0 24 24" fill="currentColor" xmlns="http://www.w3.org/2000/svg">
<path fill-rule="evenodd" clip-rule="evenodd" d="M12 7C7.89755 7 4.17607 8.6224 1.43878 11.2627L0.050293 9.82323C3.14536 6.83781 7.35911 5 12 5C16.6409 5 20.8547 6.83781 23.9498 9.82323L22.5613 11.2627C19.824 8.6224 16.1025 7 12 7Z"/>
<path fill-rule="evenodd" clip-rule="evenodd" d="M12.0001 12.0263C9.26266 12.0263 6.77916 13.1046 4.94773 14.8617L3.56311 13.4185C5.75199 11.3185 8.72619 10.0263 12.0001 10.0263C15.274 10.0263 18.2482 11.3185 20.4371 13.4185L19.0525 14.8617C17.221 13.1046 14.7375 12.0263 12.0001 12.0263Z"/>
<path fill-rule="evenodd" clip-rule="evenodd" d="M12.0202 17.0223C10.6189 17.0223 9.34905 17.5761 8.41407 18.4789L7.02483 17.0401C8.31764 15.7918 10.0801 15.0223 12.0202 15.0223C13.937 15.0223 15.6806 15.7735 16.969 16.9955L15.5926 18.4466C14.6609 17.5629 13.4048 17.0223 12.0202 17.0223Z"/>
</svg>
