<svg xmlns="http://www.w3.org/2000/svg" viewBox="0 0 40 24" fill="currentColor"><path d="M9.022 17.452c-1.44 0-2.515-.45-3.225-1.35-.71-.91-1.065-2.245-1.065-4.005 0-1.81.37-3.195 1.11-4.155.75-.96 1.855-1.44 3.315-1.44 1.42 0 2.48.46 3.18 1.38.71.91 1.065 2.26 1.065 4.05 0 1.81-.365 3.185-1.095 4.125-.73.93-1.825 1.395-3.285 1.395Zm.015-1.68c.77 0 1.32-.31 1.65-.93.33-.63.495-1.59.495-2.88 0-1.31-.16-2.265-.48-2.865-.32-.61-.86-.915-1.62-.915-.77 0-1.32.315-1.65.945-.32.62-.48 1.59-.48 2.91 0 1.31.16 2.26.48 2.85.32.59.855.885 1.605.885Zm6.712 1.725c-.39 0-.72-.125-.99-.375-.26-.26-.39-.58-.39-.96 0-.36.13-.67.39-.93.27-.26.6-.39.99-.39.38 0 .7.13.96.39.27.26.405.57.405.93 0 .38-.135.7-.405.96-.26.25-.58.375-.96.375Zm6.7-.045a6.11 6.11 0 0 1-2.055-.33c-.61-.23-1.1-.56-1.47-.99-.37-.44-.555-.975-.555-1.605 0-.67.2-1.225.6-1.665.41-.44.925-.79 1.545-1.05-.53-.24-.97-.55-1.32-.93-.34-.38-.51-.875-.51-1.485 0-.5.15-.97.45-1.41.3-.44.74-.795 1.32-1.065.58-.28 1.295-.42 2.145-.42.76 0 1.43.11 2.01.33.58.22 1.035.53 1.365.93.33.39.495.85.495 1.38 0 .67-.195 1.21-.585 1.62a3.5 3.5 0 0 1-1.395.915c.63.28 1.15.625 1.56 1.035.42.41.63.96.63 1.65 0 .59-.175 1.12-.525 1.59-.34.47-.825.84-1.455 1.11-.63.26-1.38.39-2.25.39Zm-1.725-8.085c0 .4.205.745.615 1.035.42.29 1.005.55 1.755.78.43-.22.765-.47 1.005-.75.24-.28.36-.605.36-.975 0-.39-.175-.71-.525-.96-.35-.26-.835-.39-1.455-.39-.64 0-1.095.135-1.365.405-.26.26-.39.545-.39.855Zm-.42 4.83c0 .48.185.87.555 1.17.37.29.9.435 1.59.435.62 0 1.145-.125 1.575-.375.43-.25.645-.63.645-1.14 0-.48-.265-.865-.795-1.155-.52-.3-1.205-.585-2.055-.855-.47.25-.84.525-1.11.825-.27.3-.405.665-.405 1.095Zm7.104 3.105 2.685-3.87-2.475-3.615 2.085-.525 1.65 2.925 1.53-2.67h2.37l-2.655 3.795 2.67 3.96h-2.355l-1.62-2.715-1.59 2.715h-2.295Z"/></svg>