<svg viewBox="0 0 24 24" fill="currentColor" xmlns="http://www.w3.org/2000/svg">
<path clip-rule="evenodd" d="M23.4766 20.0625H20.6484L18.6807 18.0947C16.8737 19.2496 14.7209 20 12 20C6.9043 20 3.79596 17.3392 1.23926 14.3457L1 14.0654V9.89844L1.23926 9.61816C2.61287 8.00988 4.14425 6.51208 6.05371 5.46777L2.58594 2H5.41406L23.4766 20.0625ZM7.54297 6.95703C5.78371 7.78711 4.35252 9.09558 3 10.6426V13.3213C5.34079 16.0008 7.90748 18 12 18C14.0799 18 15.7624 17.4877 17.2227 16.6367L15.1045 14.5186C14.3715 15.4213 13.2547 16 12 16C9.79092 16 8.00009 14.2091 8 12C8.00006 10.7453 8.57894 9.62845 9.48145 8.89551L7.54297 6.95703ZM10.9082 10.3223C10.3604 10.6797 10.0001 11.2991 10 12C10.0001 13.1045 10.8955 14 12 14C12.7013 14 13.3185 13.6378 13.6758 13.0898L10.9082 10.3223Z"/>
<path d="M12 4C17.091 4 20.1992 6.61897 22.7607 9.61816L23 9.89844V14.1016L22.7607 14.3818C22.4313 14.7676 22.0918 15.1462 21.7412 15.5146L20.3232 14.0967C20.5508 13.8562 20.7777 13.6107 21 13.3564V10.6426C18.7076 8.0206 16.1932 6.0752 12.2295 6.00293L10.3271 4.10059C10.8602 4.03527 11.4171 4 12 4Z"/>
</svg>
