<svg viewBox="0 0 24 24" xmlns="http://www.w3.org/2000/svg"><path fill="currentColor" fill-rule="evenodd" clip-rule="evenodd" d="M11 3.05493C6.82838 3.51608 3.51608 6.82838 3.05493 11H0v2h3.05493C3.51608 17.1716 6.82838 20.4839 11 20.9451V24h2v-3.0549c4.1716-.4612 7.4839-3.7735 7.9451-7.9451H24v-2h-3.0549C20.4839 6.82838 17.1716 3.51608 13 3.05493V0h-2v3.05493zM12 16c2.2091 0 4-1.7909 4-4 0-2.20914-1.7909-4-4-4-2.20914 0-4 1.79086-4 4 0 2.2091 1.79086 4 4 4zm0-2c-1.1046 0-2-.8954-2-2s.8954-2 2-2 2 .8954 2 2-.8954 2-2 2z"/></svg>