<svg xmlns="http://www.w3.org/2000/svg" viewBox="0 0 24 24" fill="currentColor"><path d="M12 8c2.2091 0 4 1.7909 4 4 0 2.2091-1.7909 4-4 4-2.2091 0-4-1.7909-4-4 0-2.2091 1.7909-4 4-4Zm0 2c-1.1046 0-2 .8954-2 2s.8954 2 2 2 2-.8954 2-2-.8954-2-2-2Z" clip-rule="evenodd"/><path d="M12 4c5.091 0 8.1992 2.619 10.7607 5.6182L23 9.8984v4.2032l-.2393.2802C20.1992 17.381 17.091 20 12 20c-5.0957 0-8.204-2.6608-10.7607-5.6543L1 14.0654v-4.167l.2393-.2802C3.8008 6.619 6.909 4 12 4Zm0 2c-4.0968 0-6.6637 1.9703-9 4.6426v2.6787C5.3408 16.0008 7.9075 18 12 18c4.0971 0 6.6636-1.971 9-4.6436v-2.7138C18.6637 7.9703 16.0968 6 12 6Z" clip-rule="evenodd"/></svg>