<svg viewBox="0 0 24 24" xmlns="http://www.w3.org/2000/svg"><path fill="currentColor" d="M9.76 17.35H7.72V8.98c-.7.44-1.38.69-2.19.84L5.2 8.19c.5-.14 1-.3 1.5-.5l.7-.3.72-.33.74-.36h.9v10.65Zm4.31-1.44c.53 0 .98-.06 1.34-.18.37-.12.64-.32.82-.59.2-.27.29-.63.29-1.09 0-.21-.03-.4-.1-.57a1.1 1.1 0 0 0-.3-.45 1.54 1.54 0 0 0-.55-.33c-.23-.1-.52-.18-.87-.24-.35-.07-.76-.13-1.24-.17-.55-.04-1.1-.07-1.65-.07l.5-5.52h6.1l-.3 1.65h-4.24l-.23 2.42c.4.02.77.06 1.11.1.61.07 1.22.2 1.81.38.5.14.89.35 1.19.61.3.25.51.55.64.92.14.35.21.75.21 1.2a3.4 3.4 0 0 1-.5 1.87 3.2 3.2 0 0 1-1.5 1.23c-.65.28-1.49.42-2.5.42-.79-.01-1.57-.12-2.34-.3l-.2-1.65.9.2c.53.09 1.07.14 1.61.16Z"/></svg>
