<svg xmlns="http://www.w3.org/2000/svg" viewBox="0 0 24 24" fill="currentColor"><path d="M15.41 22 6.27808 2H8.4767l1.42749 3.12637C10.5912 5.04294 11.2906 5 12 5c4.6409 0 8.8547 1.83781 11.9498 4.82323l-1.3885 1.43947C19.824 8.6224 16.1025 7 12 7c-.4101 0-.8165.01622-1.2184.04804l1.3603 2.97906c3.2179.0368 6.1379 1.3217 8.2951 3.3914l-1.3846 1.4432c-1.5873-1.5228-3.6643-2.5358-5.9719-2.7788l1.5685 3.4352c.8688.3413 1.655.8466 2.32 1.4774l-1.1107 1.171L17.6086 22H15.41ZM7.0249 17.0401c.86156-.8319 1.93169-1.4512 3.124-1.7717l.8469 1.8548c-.9916.1982-1.88074.6789-2.58165 1.3557L7.0249 17.0401ZM8.05367 10.6796c-1.69687.5805-3.22505 1.5246-4.49068 2.7389l1.38462 1.4432c1.10549-1.0606 2.44856-1.8739 3.94166-2.352l-.8356-1.8301ZM.0503 9.82323c1.67741-1.61799 3.68342-2.8989 5.90793-3.73286l.833 1.82437c-2.0178.73513-3.83613 1.88537-5.35245 3.34796L.05029 9.82323Z"/></svg>