<svg viewBox="0 0 24 24" xmlns="http://www.w3.org/2000/svg"><path fill="currentColor" fill-rule="evenodd" clip-rule="evenodd" d="M21 12c0 4.9706-4.0294 9-9 9-4.97056 0-9-4.0294-9-9 0-4.97056 4.02944-9 9-9 4.9706 0 9 4.02944 9 9zm-9 11c6.0751 0 11-4.9249 11-11 0-6.07513-4.9249-11-11-11C5.92487 1 1 5.92487 1 12c0 6.0751 4.92487 11 11 11zm-.806-9h1.666v-.262c0-.2894.0817-.574.245-.854s.3617-.539.595-.777c.2333-.238.4667-.483.7-.735.2333-.252.4317-.5507.595-.896.1633-.3454.245-.71404.245-1.10605 0-.84-.2963-1.48633-.889-1.939-.5927-.45267-1.3277-.679-2.205-.679-1.0174 0-1.8293.266-2.43601.798-.60667.53201-.91 1.32533-.91 2.38H10.522c0-.51333.14-.90766.42-1.183.28-.27533.644-.413 1.092-.413.4107 0 .735.10267.973.308.238.20534.357.50867.357.91 0 .26134-.0747.51805-.224.77005s-.329.4853-.539.7c-.21.2146-.4223.4386-.637.672-.2147.2333-.3967.511-.546.833-.1493.322-.224.665-.224 1.029V14zM12 17.7c.6627 0 1.2-.5373 1.2-1.2s-.5373-1.2-1.2-1.2c-.6628 0-1.2.5373-1.2 1.2s.5372 1.2 1.2 1.2z"/></svg>