<svg xmlns="http://www.w3.org/2000/svg" viewBox="0 0 24 24" fill="currentColor"><path d="M12 8c2.2091 0 4 1.7909 4 4 0 2.2091-1.7909 4-4 4-2.2091 0-4-1.7909-4-4 0-2.2091 1.7909-4 4-4Zm0 2c-1.1046 0-2 .8954-2 2s.8954 2 2 2 2-.8954 2-2-.8954-2-2-2Z" clip-rule="evenodd"/><path d="M12 4c4.3039 0 7.2003 1.8728 9.5518 4.2861l.1787.1944C22.595 9.47 23 10.7433 23 12s-.405 2.53-1.2695 3.5195l-.1787.1944C19.2003 18.1272 16.3039 20 12 20c-4.048 0-6.8492-1.6805-9.1201-3.8887l-.4473-.4482C1.4575 14.6568 1 13.3107 1 11.9814c0-1.3287.4566-2.676 1.4346-3.6816l.4482-.4473C5.1565 5.6522 7.9573 4 12 4Zm0 2C8.3903 6 5.977 7.5274 3.8691 9.6943c-.565.5809-.869 1.4029-.8691 2.2871 0 .884.304 1.707.8691 2.2901l.3995.4014C6.287 16.6383 8.6197 18 12 18c3.6032 0 6.0143-1.5223 8.1191-3.6826l.1045-.1123C20.7298 13.6255 21 12.8404 21 12c0-.8404-.2702-1.6255-.7764-2.205l-.1045-.1134C18.0143 7.5215 15.603 6 12 6Z" clip-rule="evenodd"/></svg>