<svg viewBox="0 0 24 24" xmlns="http://www.w3.org/2000/svg"><path fill="currentColor" fill-rule="evenodd" clip-rule="evenodd" d="M6.08325 8.21245C4.56088 8.97363 4 9.84019 4 10.5c0 .6598.56088 1.5264 2.08325 2.2876C7.54581 13.5188 9.6363 14 12 14h.5793l-2.1-3h2.4414l2.7999 4-2.8 4h-2.4413l2.1-3H12c-2.60686 0-5.01638-.5262-6.81117-1.4236C3.45384 13.7089 2 12.3255 2 10.5c0-1.82547 1.45384-3.20892 3.18883-4.07641C6.98362 5.52619 9.39314 5 12 5c2.6069 0 5.0164.52619 6.8112 1.42359C20.5462 7.29108 22 8.67453 22 10.5c0 1.4413-.9195 2.6129-2.1184 3.4462-.4356.3027-.927.5757-1.4633.8163l-1.1724-1.6749c.5793-.2316 1.0818-.497 1.4942-.7837C19.6673 11.6595 20 11.0181 20 10.5c0-.65981-.5609-1.52637-2.0833-2.28755C16.4542 7.48117 14.3637 7 12 7c-2.3637 0-4.45419.48117-5.91675 1.21245z"/></svg>