<svg viewBox="0 0 24 24" xmlns="http://www.w3.org/2000/svg"><path fill="currentColor" d="M8.91093 20.9777c.467-.7587 1.14757-1.978 1.39747-2.959l.7103-2.7009c.3645.7102 1.4486 1.3084 2.5981 1.3084 3.4206 0 5.8879-3.1496 5.8879-7.06545 0-3.75701-3.0654-6.56075-7-6.56075C7.59813 3 5 6.28972 5 9.86916c0 1.67294.88785 3.73834 2.30841 4.40184.21495.1028.33645.0561.38318-.1495.01552-.066.05843-.2383.10934-.4427.07169-.2878.15923-.6393.20842-.847.02803-.1122.01869-.215-.07477-.3271-.46729-.5701-.84112-1.6169-.84112-2.58881 0-2.50468 1.89719-4.92524 5.13084-4.92524 2.7944 0 4.7477 1.8972 4.7477 4.61683 0 3.06542-1.5514 5.19622-3.5701 5.19622-1.1122 0-1.9533-.9252-1.6823-2.056.1165-.4825.2697-.978.4186-1.4599.2695-.8718.5253-1.69925.5253-2.32518 0-.86916-.4672-1.59813-1.4392-1.59813-1.1402 0-2.05608 1.17757-2.05608 2.75701 0 1 .33645 1.6822.33645 1.6822s-1.12149 4.757-1.3271 5.6449c-.22406.9803-.14036 2.3616-.03771 3.2588.25274.0991.50988.1893.77107.2703z"/></svg>