<svg viewBox="0 0 24 24" xmlns="http://www.w3.org/2000/svg"><path fill="currentColor" d="M9.76 17.3H7.72V8.926a6.4 6.4 0 0 1-2.19.844L5.2 8.14a14.5 14.5 0 0 0 1.5-.5c.48-.203.957-.413 1.43-.63l.73-.36h.9V17.3Zm1.94 0-.28-1.16c.6-.5 1.15-.99 1.66-1.44.881-.78 1.69-1.637 2.42-2.56.29-.4.5-.79.66-1.16.15-.38.22-.75.22-1.1 0-.28-.04-.52-.13-.74-.08-.22-.21-.4-.4-.55-.17-.16-.4-.29-.65-.37a3.12 3.12 0 0 0-.92-.12 4.88 4.88 0 0 0-2.56.74l-.21-1.59a6.8 6.8 0 0 1 3.03-.75c.66 0 1.23.08 1.72.22.5.15.9.35 1.22.62.32.26.56.57.72.93.16.35.24.74.24 1.16 0 .38-.07.78-.2 1.18-.14.416-.324.815-.55 1.19-.23.38-.5.77-.81 1.15-.637.76-1.34 1.463-2.1 2.1-.274.231-.543.446-.807.65h4.747l-.24 1.6H11.7Z"/></svg>
