<svg xmlns="http://www.w3.org/2000/svg" viewBox="0 0 24 24" fill="currentColor"><path d="m2.177.63-1.5 1.5 1.414 1.414 1.5-1.5L2.177.63ZM11 12.414V6h2v5.586l3.707 3.707-1.414 1.414L11 12.414Z"/><path fill-rule="evenodd" d="M1 12C1 5.925 5.925 1 12 1s11 4.925 11 11c0 2.678-.958 5.13-2.549 7.037L23 21.586 21.586 23l-2.549-2.549A10.952 10.952 0 0 1 12 23c-2.678 0-5.13-.958-7.037-2.549L2.414 23 1 21.586l2.549-2.549A10.952 10.952 0 0 1 1 12Zm11-9a9 9 0 1 0 0 18 9 9 0 0 0 0-18Z" clip-rule="evenodd"/><path d="M20.421 2.044 21.835.63l1.5 1.5-1.414 1.414-1.5-1.5Z"/></svg>