<svg xmlns="http://www.w3.org/2000/svg" viewBox="0 0 24 24" fill="currentColor"><path d="M4.293 2.2932c.366-.3661.945-.3887 1.3379-.0684l.0761.0684 16 16 .0684.0762c.3202.3927.2977.9718-.0684 1.3379-.3661.3659-.9451.3886-1.3379.0683l-.0761-.0683-1.6133-1.6133c-1.8111 1.1571-3.9641 1.9062-6.6797 1.9062-4.3177 0-7.2172-1.912-9.5674-4.3369-.975-1.0062-1.4325-2.3524-1.4326-3.6816C1 10.653 1.4567 9.3055 2.4346 8.3l.4482-.4472c.9478-.9172 1.9872-1.7391 3.17-2.3858L4.293 3.7073l-.0684-.0762c-.3203-.3927-.2976-.9718.0684-1.3379ZM7.54 6.9543c-1.2238.5778-2.2865 1.3862-3.2724 2.3418l-.3985.3985c-.5649.5808-.869 1.4029-.8691 2.2871 0 .8839.304 1.707.8691 2.29C5.981 16.4505 8.3945 18.0002 12 18.0002c2.0842 0 3.7678-.5125 5.2256-1.3603l-2.1221-2.1221c-.7329.9028-1.8488 1.4824-3.1035 1.4824-2.209 0-3.9999-1.7909-4-4 0-1.2547.579-2.3715 1.4815-3.1044L7.54 6.9543Zm3.3682 3.3682A2.0006 2.0006 0 0 0 10 12.0002c.0001 1.1045.8955 2 2 2 .7012 0 1.3185-.3623 1.6758-.9101l-2.7676-2.7676Z" clip-rule="evenodd"/><path d="M12 4.0002c4.3039 0 7.2003 1.8728 9.5518 4.2862l.1787.1943C22.5949 9.4703 23 10.7436 23 12.0002c-.0001 1.2531-.4033 2.5225-1.2627 3.5108l-1.4209-1.4209c.4454-.5664.6836-1.3034.6836-2.0899 0-.8403-.2702-1.6255-.7764-2.205l-.1045-.1133c-2.0598-2.114-4.4131-3.6155-7.8896-3.6787l-1.9024-1.9024A13.7356 13.7356 0 0 1 12 4.0002Z"/></svg>