<svg viewBox="0 0 24 24" xmlns="http://www.w3.org/2000/svg"><path fill="currentColor" d="M22.4 6.59352c-.7083.30333-1.4647.50829-2.2621.60289.8137-.47298 1.4399-1.22218 1.7329-2.11264-.761.43767-1.6027.75677-2.5018.92641-.7206-.74541-1.7459-1.21019-2.8766-1.21019-2.1769 0-3.9385 1.71028-3.9385 3.81913 0 .29956.0326.59154.1016.87154C9.38041 9.333 6.47509 7.81128 4.53452 5.49747c-.33786.56379-.53315 1.22218-.53315 1.91966 0 1.32434.6998 2.4948 1.75764 3.18097-.65098-.0158-1.26094-.1892-1.79019-.4774v.0479c0 1.8522 1.35925 3.3935 3.16116 3.7441-.3294.0864-.67897.1337-1.03701.1337-.25258 0-.50061-.0233-.74082-.0706.50061 1.5173 1.9575 2.6209 3.68259 2.6524-1.34687 1.0248-3.04788 1.6359-4.89471 1.6359-.31768 0-.6308-.0196-.94002-.0549 1.73747 1.0954 3.80823 1.7261 6.02938 1.7261 7.25451 0 11.21771-5.8214 11.21771-10.87095 0-.16522-.0046-.33108-.0124-.49252.7688-.53983 1.4361-1.20957 1.9653-1.97831z"/></svg>