<?xml version="1.0" encoding="UTF-8"?>
<svg width="15px" height="15px" viewBox="0 0 15 15" version="1.1" xmlns="http://www.w3.org/2000/svg" xmlns:xlink="http://www.w3.org/1999/xlink">
    <!-- Generator: Sketch 46.2 (44496) - http://www.bohemiancoding.com/sketch -->
    <title>nrk-lock</title>
    <desc>Created with Sketch.</desc>
    <defs></defs>
    <g id="Page-1" stroke="none" stroke-width="1" fill="none" fill-rule="evenodd">
        <g id="nrk-lock" stroke="#000000">
            <path d="M2.5,5.97297227 C2.5,5.38918891 2.95029224,5 3.6257306,5 L11.3742694,5 C12.0497078,5 12.5,5.38918891 12.5,5.97297227 L12.5,12.0270277 C12.5,12.6108111 12.0497078,13 11.3742694,13 L3.6257306,13 C2.95029224,13 2.5,12.6108111 2.5,12.0270277 L2.5,5.97297227 Z" id="nrk-lock--active"></path>
            <path d="M6.83334243,9.34415427 C6.33564127,9.09712354 6,8.58386614 6,8 C6,7.17157288 6.67157288,6.5 7.5,6.5 C8.32842712,6.5 9,7.17157288 9,8 C9,8.58386231 8.66436305,9.09711719 8.16666667,9.34414976 L8.16666667,10.8333379 C8.16666667,11.2015252 7.86819187,11.5 7.50000455,11.5 C7.13181723,11.5 6.83334243,11.2015252 6.83334243,10.8333379 L6.83334243,9.34415427 Z" id="Path"></path>
            <path d="M11,1 L11,1.41711939 C11,3.39588971 9.42906336,5 7.5,5 C6.51711739,5 5.62886159,4.58292594 4.99312394,3.91322475 C4.37858133,3.26585093 4,2.38241399 4,1.41145554 L4,1 L11,1 Z" id="Rectangle-87" stroke-linecap="round" transform="translate(7.500000, 3.000000) scale(-1, -1) rotate(-360.000000) translate(-7.500000, -3.000000) "></path>
        </g>
    </g>
</svg>