<?xml version="1.0" encoding="UTF-8"?>
<svg width="15px" height="15px" viewBox="0 0 15 15" version="1.1" xmlns="http://www.w3.org/2000/svg" xmlns:xlink="http://www.w3.org/1999/xlink">
    <!-- Generator: Sketch 46.2 (44496) - http://www.bohemiancoding.com/sketch -->
    <title>nrk-lock--active</title>
    <desc>Created with Sketch.</desc>
    <defs></defs>
    <g id="Page-1" stroke="none" stroke-width="1" fill="none" fill-rule="evenodd">
        <g id="nrk-lock--active">
            <path d="M7.00002728,8.91465679 L7.00002728,10.9999727 C7.00002728,11.2761076 7.2238788,11.4999591 7.50001364,11.4999591 L7.50001364,11.4999591 C7.77614848,11.4999591 8,11.2761076 8,10.9999727 L8,10.9999727 L8,8.91464715 C8.58259619,8.70872894 9,8.15310941 9,7.5 C9,6.67157288 8.32842712,6 7.5,6 C6.67157288,6 6,6.67157288 6,7.5 C6,8.15311961 6.41741685,8.70874629 7.00002728,8.91465679 Z M3,4 L12,4 C12.5522847,4 13,4.44771525 13,5 L13,12 C13,12.5522847 12.5522847,13 12,13 L3,13 C2.44771525,13 2,12.5522847 2,12 L2,5 L2,5 C2,4.44771525 2.44771525,4 3,4 L3,4 Z" fill="#000000" fill-rule="nonzero"></path>
            <path d="M11,1 L11,1.41711939 C11,3.39588971 9.42906336,5 7.5,5 C5.56700338,5 4,3.38685995 4,1.41145554 L4,1 L11,1 Z" id="Rectangle-87" stroke="#000000" stroke-linecap="round" transform="translate(7.500000, 3.000000) scale(-1, -1) rotate(-360.000000) translate(-7.500000, -3.000000) "></path>
        </g>
    </g>
</svg>