<svg xmlns="http://www.w3.org/2000/svg" viewBox="0 0 24 24"><path fill="currentColor" fill-rule="evenodd" d="M1 15.89a1 1 0 0 1 1.11-.88 5.53 5.53 0 0 1 4.88 4.88 1 1 0 0 1-1.98.22 3.53 3.53 0 0 0-3.12-3.12 1 1 0 0 1-.88-1.1Z" clip-rule="evenodd" opacity=".5"/><path fill="currentColor" d="M4 3a3 3 0 0 0-3 3v2a1 1 0 0 0 2 0V6a1 1 0 0 1 1-1h16a1 1 0 0 1 1 1v12a1 1 0 0 1-1 1h-6a1 1 0 1 0 0 2h6a3 3 0 0 0 3-3V6a3 3 0 0 0-3-3H4Z"/><path fill="currentColor" d="M1 11.95a1 1 0 0 1 1.11-.89 10 10 0 0 1 8.83 8.83 1 1 0 1 1-1.99.22 8 8 0 0 0-7.06-7.06 1 1 0 0 1-.88-1.1ZM3 21a2.27 2.27 0 0 0-2-2v2h2Z"/></svg>