<svg xmlns="http://www.w3.org/2000/svg" viewBox="0 0 24 24" fill="currentColor"><path d="M12 2c-1.934 0-3.5494 1.3736-3.92 3.199-.1098.5412-.6377.8909-1.179.781-.5412-.1099-.8909-.6377-.781-1.179C6.676 2.062 9.096 0 12 0c3.3137 0 6 2.6863 6 6v2c0 .5523-.4477 1-1 1s-1-.4477-1-1V6c0-2.2091-1.7909-4-4-4ZM13 16c0-.5523-.4477-1-1-1s-1 .4477-1 1v2c0 .5523.4477 1 1 1s1-.4477 1-1v-2Z"/><path fill-rule="evenodd" d="M3 14c0-1.6569 1.3431-3 3-3h12c1.6569 0 3 1.3431 3 3v6c0 1.6569-1.3431 3-3 3H6c-1.6569 0-3-1.3431-3-3v-6Zm3-1c-.5523 0-1 .4477-1 1v6c0 .5523.4477 1 1 1h12c.5523 0 1-.4477 1-1v-6c0-.5523-.4477-1-1-1H6Z" clip-rule="evenodd"/></svg>