<svg xmlns="http://www.w3.org/2000/svg" viewBox="0 0 24 24" fill="currentColor"><path d="M10 12a2 2 0 1 1 4 0 2 2 0 0 1-4 0Z"/><path fill-rule="evenodd" d="M13 3a9 9 0 0 1 3.5 1.2l1.2-1.7a1 1 0 1 1 1.6 1.2L18 5.4a9 9 0 0 1 2.1 2.9l2-.7a1 1 0 1 1 .6 2l-2 .6a9 9 0 0 1 0 3.6l2 .6a1 1 0 0 1-.6 2l-2-.7a9 9 0 0 1-2.1 3l1.2 1.6a1 1 0 1 1-1.7 1.2l-1.2-1.7A9 9 0 0 1 13 21V23a1 1 0 1 1-2 0v-2a9 9 0 0 1-3.5-1.2l-1.2 1.7a1 1 0 1 1-1.6-1.2L6 18.6a9 9 0 0 1-2.1-2.9l-2 .7a1 1 0 1 1-.6-2l2-.6a9 9 0 0 1 0-3.6l-2-.6a1 1 0 0 1 .6-2l2 .7a9 9 0 0 1 2.1-3L4.7 3.7a1 1 0 0 1 1.6-1.2l1.3 1.7A9 9 0 0 1 11 3V1a1 1 0 1 1 2 0v2Zm-1 5a4 4 0 1 0 0 8 4 4 0 0 0 0-8Z" clip-rule="evenodd"/></svg>