<svg viewBox="0 0 24 24" fill="currentColor" xmlns="http://www.w3.org/2000/svg">
<path d="M8.08003 5.19893C8.45056 3.37356 10.066 2 12 2C14.2091 2 16 3.79086 16 6V7C16 7.55228 16.4477 8 17 8C17.5523 8 18 7.55228 18 7V6C18 2.68629 15.3137 0 12 0C9.09609 0 6.67602 2.06196 6.12001 4.80107C6.01014 5.34231 6.35984 5.87015 6.90109 5.98001C7.44233 6.08988 7.97016 5.74018 8.08003 5.19893Z"/>
<path fill-rule="evenodd" clip-rule="evenodd" d="M6 10C4.34315 10 3 11.3431 3 13V19C3 20.6569 4.34315 22 6 22H18C19.6569 22 21 20.6569 21 19V13C21 11.3431 19.6569 10 18 10H6ZM12 14C12.5523 14 13 14.4477 13 15V18C13 18.5523 12.5523 19 12 19C11.4477 19 11 18.5523 11 18V15C11 14.4477 11.4477 14 12 14Z"/>
</svg>
