<svg xmlns="http://www.w3.org/2000/svg" viewBox="0 0 24 24"><path fill="currentColor" d="M12 7.9c-.75 0-1.358.608-1.358 1.358a.9.9 0 1 1-1.8 0 3.158 3.158 0 0 1 6.316 0c0 .64-.139 1.166-.39 1.615-.241.433-.56.746-.822.987l-.147.134c-.457.416-.762.694-.936 1.281a.9.9 0 1 1-1.726-.513c.325-1.09.989-1.686 1.447-2.098l.142-.128c.234-.216.375-.37.47-.54.087-.154.162-.372.162-.738 0-.75-.608-1.358-1.358-1.358ZM13.5 16.5a1.5 1.5 0 1 1-3 0 1.5 1.5 0 0 1 3 0Z"/><path fill="currentColor" fill-rule="evenodd" d="M12 1C5.925 1 1 5.925 1 12s4.925 11 11 11 11-4.925 11-11S18.075 1 12 1ZM3 12a9 9 0 1 1 18 0 9 9 0 0 1-18 0Z" clip-rule="evenodd"/></svg>