<svg xmlns="http://www.w3.org/2000/svg" viewBox="0 0 24 24"><path fill="currentColor" d="M1 6a3 3 0 0 1 3-3h16a3 3 0 0 1 3 3v12a3 3 0 0 1-3 3h-6a1 1 0 1 1 0-2h6a1 1 0 0 0 1-1V6a1 1 0 0 0-1-1H4a1 1 0 0 0-1 1v2a1 1 0 0 1-2 0V6Z"/><path fill="currentColor" d="M1 11.95a1 1 0 0 1 1.11-.89 10 10 0 0 1 8.83 8.83 1 1 0 1 1-1.99.22 8 8 0 0 0-7.06-7.06 1 1 0 0 1-.88-1.1Z"/><path fill="currentColor" d="M1 15.89a1 1 0 0 1 1.11-.88 5.53 5.53 0 0 1 4.88 4.88 1 1 0 0 1-1.98.22 3.53 3.53 0 0 0-3.12-3.12 1 1 0 0 1-.88-1.1ZM1 19c1.05.12 1.88.95 2 2H1v-2ZM5 8a1 1 0 0 1 1-1h12a1 1 0 0 1 1 1v8a1 1 0 0 1-1 1h-5.69A12.36 12.36 0 0 0 5 9.69V8Z"/></svg>