<svg xmlns="http://www.w3.org/2000/svg" viewBox="0 0 24 24"><path fill="currentColor" fill-rule="evenodd" d="M12 23C5.925 23 1 18.075 1 12S5.925 1 12 1s11 4.925 11 11v.071C22.962 18.113 18.05 23 12 23Zm-8.756-8.924c.532.16 1.34.377 1.34.377l.232.812 1.567.587-1.115 2.083a9.173 9.173 0 0 0 6.8 3.065 9.004 9.004 0 0 0 8.63-6.682l-.06.005-.676-1.313-.78-.162-.938 1.13-.609-1.102-.626-.452-1.345.97-.618.313-.897-.923-.716.799.812 1.587-.94 3.351-.78 1.1-.887.09-.688-1.788.242-.751-.918-1.833-.675.147-.645.074-.93-.85.013-.94.614-.739.374-.64.572-.117.936-.307.275.417.918.44.806-.402-1.049-3.305-.31 1.6-1.203-.855-1.241.957s-.561-.37-.561-.556c0-.207.456-.66.456-.66l-.063-.942 1.556-.3 1.687-1.18-.718-1.092-1.374 1.237 1.461-2.567 3.79 1.153 2.245-1.253A8.958 8.958 0 0 0 12.068 3C8.172 3.03 4.857 5.458 3.57 8.861l1.2 1.49-1.189.367L3 12c0 .715.085 1.41.244 2.076Z" clip-rule="evenodd"/></svg>