<svg xmlns="http://www.w3.org/2000/svg" viewBox="0 0 24 24" fill="currentColor"><path d="M8.08 5.199C8.4506 3.3735 10.066 2 12 2c2.2091 0 4 1.7909 4 4v2c0 .5523.4477 1 1 1s1-.4477 1-1V6c0-3.3137-2.6863-6-6-6-2.904 0-5.324 2.062-5.88 4.801-.1099.5413.2398 1.0691.781 1.179.5413.1099 1.0692-.2398 1.179-.781Z"/><path fill-rule="evenodd" d="M6 11c-1.6569 0-3 1.3431-3 3v6c0 1.6569 1.3431 3 3 3h12c1.6569 0 3-1.3431 3-3v-6c0-1.6569-1.3431-3-3-3H6Zm6 4c.5523 0 1 .4477 1 1v3c0 .5523-.4477 1-1 1s-1-.4477-1-1v-3c0-.5523.4477-1 1-1Z" clip-rule="evenodd"/></svg>