<svg xmlns="http://www.w3.org/2000/svg" viewBox="0 0 24 24"><path fill="currentColor" d="M11.15.18a1 1 0 0 1 .25 1.4L10.4 3H12a10 10 0 1 1-8 4 1 1 0 0 1 1.6 1.2A8 8 0 1 0 12 5h-1.6l1 1.43a1 1 0 1 1-1.64 1.14L7.26 4 9.76.43a1 1 0 0 1 1.39-.25Z"/><path fill="currentColor" d="M10.06 9.87v6.38H8.75v-4.94c-.38.23-.76.37-1.31.49l-.2-1.04c.83-.2 1.5-.52 2.26-.89h.56ZM13.29 15.33c-.49 0-.97-.08-1.51-.22l.12 1.04c.52.12.91.18 1.42.18 1.82 0 2.73-.81 2.73-2.12 0-1.23-.75-1.79-2.97-1.92l.12-1.38h2.54l.19-1.04h-3.7l-.31 3.34c2.24.04 2.8.31 2.8 1.06 0 .79-.5 1.06-1.43 1.06Z"/></svg>