<svg xmlns="http://www.w3.org/2000/svg" viewBox="0 0 24 24"><path fill="currentColor" fill-rule="evenodd" d="M12 23c6.075 0 11-4.925 11-11S18.075 1 12 1 1 5.925 1 12s4.925 11 11 11ZM7.511 7.453a1 1 0 0 0-1.689-1.07L2.94 10.928a2 2 0 0 0 0 2.142l2.882 4.547a1 1 0 1 0 1.69-1.071L4.628 12 7.51 7.453ZM12 13.5a1.5 1.5 0 1 0 0-3 1.5 1.5 0 0 0 0 3Zm4.798-7.427a1 1 0 0 0-.31 1.38L19.372 12l-2.882 4.547a1 1 0 0 0 1.689 1.07l2.882-4.546a2 2 0 0 0 0-2.142l-2.882-4.547a1 1 0 0 0-1.38-.309Zm-6.83 2.095a1 1 0 0 1 .278 1.387L8.616 12l1.63 2.445a1 1 0 0 1-1.664 1.11l-1.63-2.446a2 2 0 0 1 0-2.218l1.63-2.446a1 1 0 0 1 1.387-.277Zm4.063 0a1 1 0 0 0-.277 1.387L15.384 12l-1.63 2.445a1 1 0 1 0 1.664 1.11l1.63-2.446a2 2 0 0 0 0-2.218l-1.63-2.446a1 1 0 0 0-1.387-.277Z" clip-rule="evenodd"/></svg>