<svg xmlns="http://www.w3.org/2000/svg" viewBox="0 0 24 24"><path fill="currentColor" d="M6 6.092C3.903 6.9 2.081 8.12.698 9.64a1 1 0 1 0 1.48 1.347C3.36 9.684 4.96 8.617 6.831 7.915L6 6.091ZM8.093 10.676c-1.606.555-3.005 1.446-4.055 2.583a1 1 0 1 0 1.469 1.357c.846-.916 2.027-1.66 3.421-2.11l-.835-1.83ZM10.177 15.24c-1.108.3-2.084.871-2.797 1.644a1 1 0 1 0 1.468 1.357c.497-.538 1.258-.965 2.176-1.147l-.847-1.854ZM14.866 20.719l.318.696a1 1 0 1 0 1.82-.83l-.932-2.04a1 1 0 0 0 .548-1.661 5.663 5.663 0 0 0-1.917-1.337l-1.577-3.455c2.241.245 4.15 1.206 5.368 2.524a1 1 0 1 0 1.468-1.357c-1.803-1.952-4.636-3.18-7.777-3.226l-1.364-2.988C11.21 7.015 11.601 7 12 7c4.088 0 7.654 1.602 9.823 3.986a1 1 0 1 0 1.48-1.347C20.712 6.795 16.588 5 12 5c-.698 0-1.384.041-2.057.122L8.785 2.585a1 1 0 0 0-1.87.696l7.9 17.304c.021.044.038.088.051.134Z"/></svg>