<svg xmlns="http://www.w3.org/2000/svg" viewBox="0 0 24 24"><path fill="currentColor" d="M1 6a3 3 0 0 1 3-3h16a3 3 0 0 1 3 3v9a3 3 0 0 1-3 3h-1.5a1 1 0 1 1 0-2H20a1 1 0 0 0 1-1V6a1 1 0 0 0-1-1H4a1 1 0 0 0-1 1v9a1 1 0 0 0 1 1h1.5a1 1 0 1 1 0 2H4a3 3 0 0 1-3-3V6Z"/><path fill="currentColor" d="M6 7a1 1 0 0 0-1 1v5a1 1 0 0 0 1 1h2.72l2-3.32a1.5 1.5 0 0 1 2.57 0L15.28 14H18a1 1 0 0 0 1-1V8a1 1 0 0 0-1-1H6ZM10.93 14.84c.48-.8 1.66-.8 2.14 0l2.56 4.27c.5.83-.1 1.89-1.07 1.89H9.44a1.25 1.25 0 0 1-1.07-1.9l2.56-4.26Z"/></svg>