<svg xmlns="http://www.w3.org/2000/svg" viewBox="0 0 24 24"><path fill="currentColor" d="M12 11a2 2 0 1 0 0-4 2 2 0 0 0 0 4Z"/><path fill="currentColor" fill-rule="evenodd" d="M12 1a8 8 0 0 0-8 8c0 3.246 1.34 6.676 2.893 9.265.78 1.302 1.642 2.434 2.462 3.255.41.41.83.762 1.244 1.018.396.245.882.462 1.401.462.52 0 1.005-.217 1.401-.462a7.101 7.101 0 0 0 1.244-1.018c.82-.821 1.681-1.953 2.463-3.255C18.66 15.675 20 12.245 20 9a8 8 0 0 0-8-8ZM6 9a6 6 0 1 1 12 0c0 2.754-1.16 5.824-2.607 8.235-.72 1.198-1.483 2.191-2.163 2.87-.34.34-.64.582-.881.732-.218.135-.33.158-.348.162h-.002c-.019-.004-.13-.027-.348-.162a5.143 5.143 0 0 1-.881-.732c-.68-.679-1.444-1.672-2.163-2.87C7.161 14.825 6 11.755 6 9Z" clip-rule="evenodd"/></svg>