<svg xmlns="http://www.w3.org/2000/svg" viewBox="0 0 24 24"><path fill="currentColor" d="M5.92 4.06 4.58 8.35h-.01A1 1 0 0 1 3.32 9a1 1 0 0 1-.65-1.25l1.35-4.31a3.1 3.1 0 0 1 1.66-1.85 2.77 2.77 0 0 1 2.22-.03A2.96 2.96 0 0 1 9.85 4l3.04-2.27a3.07 3.07 0 0 1 3.88.08 3 3 0 0 1 .75 3.46c-.3.69-1.26.77-1.71.17-.2-.27-.28-.64-.13-.95a.99.99 0 0 0-.1-1.03 1 1 0 0 0-1.4-.2L7.61 8.2c-.4.3-.95-.1-.79-.57l1-2.95a1 1 0 0 0-.63-1.26.84.84 0 0 0-.69 0c-.27.12-.49.36-.58.64Z"/><path fill="currentColor" fill-rule="evenodd" d="M20 11a3 3 0 0 1 1.22 5.74 2.48 2.48 0 0 1-1.34 3.03A2.5 2.5 0 0 1 17.5 23H9.83a5.9 5.9 0 0 1-5.5-3.89c-1.05-2.76-.1-5.79 2.52-8.11l5.07-3.75A3 3 0 0 1 16.38 11H20Zm0 4 .02.01a1 1 0 0 0 1-1 1 1 0 0 0-1-1H12.4c-.49 0-.7-.63-.3-.92l2.19-1.6a1 1 0 0 0 .22-1.4 1 1 0 0 0-1.4-.22l-4.99 3.68c-1.91 1.7-2.65 3.91-1.91 5.85A3.9 3.9 0 0 0 9.84 21h7.17a1 1 0 0 0 1-1 1 1 0 0 0-1-1h-3.5a.5.5 0 0 1-.5-.5c0-.28.22-.5.5-.5h4.84a1 1 0 0 0 1-1 1 1 0 0 0-1-1h-4.84a.5.5 0 0 1-.5-.5c0-.28.22-.5.5-.5H20Z" clip-rule="evenodd"/></svg>