<svg xmlns="http://www.w3.org/2000/svg" viewBox="0 0 24 24"><path fill="currentColor" fill-rule="evenodd" d="M18 4c2.326 0 4 1.923 4 4.5 0 1.381-.229 2.325-.684 3.135-.468.832-1.224 1.61-2.44 2.584l-.028.022-5.952 5.494a1 1 0 0 1-.678.265h-.436a1 1 0 0 1-.678-.265L5.152 14.24l-.027-.022C2.82 12.376 2 10.548 2 8.5 2 5.923 3.674 4 6 4c2.068 0 3.555 1.486 3.917 3.212C10.102 8.092 10.858 9 12 9c1.142 0 1.898-.908 2.083-1.788C14.445 5.486 15.933 4 18 4Zm6 4.5C24 5.077 21.674 2 18 2c-3.133 0-5.344 2.271-5.875 4.802a.342.342 0 0 1-.092.175A.118.118 0 0 1 12 7h-.002a.118.118 0 0 1-.032-.023.342.342 0 0 1-.092-.175C11.344 4.27 9.133 2 6 2 2.326 2 0 5.077 0 8.5c0 2.743 1.17 5.107 3.847 7.258l5.9 5.446a3 3 0 0 0 2.035.796h.436a3 3 0 0 0 2.035-.796l5.9-5.445c1.269-1.018 2.254-1.984 2.906-3.144.67-1.19.941-2.497.941-4.115Z" clip-rule="evenodd"/></svg>