<svg xmlns="http://www.w3.org/2000/svg" viewBox="0 0 24 24"><path fill="currentColor" d="M20 1H4a1 1 0 0 0-1 1 1 1 0 0 0 1 1h16a1 1 0 0 0 1-1 1 1 0 0 0-1-1ZM16 5a1 1 0 0 1 1 1 1 1 0 0 1-1 1H8a1 1 0 0 1-1-1 1 1 0 0 1 1-1h8ZM11 9a1 1 0 0 0-1 1 1 1 0 0 0 1 1h2a1 1 0 0 0 1-1 1 1 0 0 0-1-1h-2ZM12 20a2 2 0 1 0 0-4 2 2 0 0 0 0 4Z"/><path fill="currentColor" fill-rule="evenodd" d="M12 13c2.8 0 5.26 1.43 6.83 2.62A2.97 2.97 0 0 1 20.01 18c0 .94-.43 1.81-1.18 2.38C17.26 21.58 14.8 23 12 23s-5.26-1.43-6.83-2.62A2.97 2.97 0 0 1 3.99 18c0-.94.43-1.81 1.18-2.38C6.74 14.42 9.2 13 12 13Zm0 8c2.25 0 4.3-1.2 5.62-2.21a.99.99 0 0 0 .39-.79c0-.31-.14-.6-.39-.79C16.3 16.2 14.25 15 12 15s-4.3 1.2-5.62 2.21a.99.99 0 0 0-.39.79c0 .31.14.6.39.79C7.7 19.8 9.75 21 12 21Z" clip-rule="evenodd"/></svg>