<svg xmlns="http://www.w3.org/2000/svg" viewBox="0 0 24 24"><g fill="currentColor" opacity=".5"><path d="M13 4a1 1 0 1 1 0-2h6a3 3 0 0 1 3 3v4a1 1 0 1 1-2 0V5a1 1 0 0 0-1-1h-6ZM4 13a1 1 0 1 0-2 0v6a3 3 0 0 0 3 3h2a1 1 0 1 0 0-2H5a1 1 0 0 1-1-1v-6Z"/></g><path fill="currentColor" d="M10 3a1 1 0 0 0-1-1H4a2 2 0 0 0-2 2v5a1 1 0 0 0 2 0V5.41l4.59 4.6A1 1 0 0 0 10 8.58L5.41 4H9a1 1 0 0 0 1-1Z"/><path fill="currentColor" fill-rule="evenodd" d="M13 12a3 3 0 0 0-3 3v4a3 3 0 0 0 3 3h6a3 3 0 0 0 3-3v-4a3 3 0 0 0-3-3h-6Zm-1 3a1 1 0 0 1 1-1h6a1 1 0 0 1 1 1v4a1 1 0 0 1-1 1h-6a1 1 0 0 1-1-1v-4Z" clip-rule="evenodd"/></svg>