<svg xmlns="http://www.w3.org/2000/svg" viewBox="0 0 24 24" fill="currentColor"><path d="M4.4 7.39998L6.4708 4.44169C6.66457 4.16487 6.98123 4 7.31914 4C8.15877 4 8.64933 4.94675 8.16513 5.6327L7.2 6.99998H13.5C15.2239 6.99998 16.8772 7.68479 18.0962 8.90378C19.3152 10.1228 20 11.7761 20 13.5C20 15.2239 19.3152 16.8772 18.0962 18.0962C16.8772 19.3152 15.2239 20 13.5 20H10.618C9.87465 20 9.39116 19.2177 9.72361 18.5528C9.893 18.214 10.2393 18 10.618 18H13.5C14.6935 18 15.8381 17.5259 16.682 16.682C17.5259 15.838 18 14.6934 18 13.5C18 12.3065 17.5259 11.1619 16.682 10.318C15.8381 9.47408 14.6935 8.99998 13.5 8.99998H7.2L8.16513 10.3672C8.64933 11.0532 8.15877 12 7.31914 12C6.98123 12 6.66458 11.8351 6.4708 11.5583L4.4 8.59998L4 7.99998L4.4 7.39998Z" /></svg>
