<svg xmlns="http://www.w3.org/2000/svg" viewBox="0 0 24 24"><path fill="currentColor" fill-rule="evenodd" d="M12.03 1.6A1.68 1.68 0 0 1 15 2.68v18.64a1.68 1.68 0 0 1-2.97 1.08l-4.2-5.04a1 1 0 0 0-.77-.36H4a3 3 0 0 1-3-3v-4a3 3 0 0 1 3-3h3.06a1 1 0 0 0 .77-.36l4.2-5.04ZM13 3.56 9.37 7.92A3 3 0 0 1 7.07 9H4a1 1 0 0 0-1 1v4a1 1 0 0 0 1 1h3.06a3 3 0 0 1 2.3 1.08L13 20.44V3.56Z" clip-rule="evenodd"/><path fill="currentColor" d="M18 9a1 1 0 0 1 1 1v4a1 1 0 1 1-2 0v-4a1 1 0 0 1 1-1ZM23 8a1 1 0 1 0-2 0v8a1 1 0 1 0 2 0V8Z"/></svg>