<svg xmlns="http://www.w3.org/2000/svg" viewBox="0 0 24 24"><path fill="currentColor" d="M20 1H4a1 1 0 0 0-1 1 1 1 0 0 0 1 1h16a1 1 0 0 0 1-1 1 1 0 0 0-1-1ZM16 5a1 1 0 0 1 1 1 1 1 0 0 1-1 1H8a1 1 0 0 1-1-1 1 1 0 0 1 1-1h8ZM10 10a1 1 0 0 1 1-1h2a1 1 0 0 1 1 1 1 1 0 0 1-1 1h-2a1 1 0 0 1-1-1Z"/><path fill="currentColor" fill-rule="evenodd" d="M7 14h10l-.01.01a3 3 0 0 1 3 3v1a3 3 0 0 1-3 3H9.21l-1.04 1.55c-.19.28-.51.44-.83.44a1 1 0 0 1-.83-1.56l.31-.46A3 3 0 0 1 4 18v-1a3 3 0 0 1 3-3Zm10 5a1 1 0 0 0 1-1v-1a1 1 0 0 0-1-1H7a1 1 0 0 0-1 1v1a1 1 0 0 0 1 1h10Z" clip-rule="evenodd"/></svg>