<svg xmlns="http://www.w3.org/2000/svg" viewBox="0 0 24 24" fill="currentColor"><path d="M15.65 13.84c.232-.232.562-.336.884-.28l4.296.76.01.01.76 4.296a1.003 1.003 0 0 1-1.976.35l-.304-1.716-1.12 1.12c-3.52 3.51-9.22 3.51-12.73 0l-.24-.27a8.976 8.976 0 0 1-2.189-4.194c-.14-.644.434-1.178 1.086-1.086.457.065.808.428.92.877A6.981 6.981 0 0 0 6.89 16.96c.23.23.48.44.73.63 2.74 2.07 6.66 1.87 9.16-.63l1.12-1.12-1.715-.304a1.003 1.003 0 0 1-.534-1.697ZM5.77 8.16l1.724.306a1.002 1.002 0 0 1-.35 1.973L2.85 9.68l-.76-4.296a1 1 0 1 1 1.97-.345l.3 1.721 1.12-1.12a8.98 8.98 0 0 1 12.72 0c.04.04.075.083.11.125.035.043.07.085.11.125.15.16.3.33.44.5.09.11.18.23.27.35.16.22.3.44.44.67.011.019.024.037.037.057.021.032.044.065.063.103a8.669 8.669 0 0 1 .49 1.02l.02.05c.19.476.337.96.445 1.451.14.644-.433 1.181-1.085 1.088-.456-.064-.806-.425-.918-.872a7.141 7.141 0 0 0-.482-1.337l-.06-.12a7.15 7.15 0 0 0-.5-.84c-.019-.019-.033-.041-.05-.065a6.437 6.437 0 0 0-.75-.905 6.995 6.995 0 0 0-9.89 0L5.77 8.16Z"/></svg>