<svg xmlns="http://www.w3.org/2000/svg" fill="none" viewBox="0 0 24 24">
  <g fill="currentColor" clip-path="url(#a)">
    <path d="M12.83.18a1 1 0 0 0-.25 1.4l1 1.42H12a10 10 0 1 0 8 4 .9999.9999 0 1 0-1.6 1.2A8 8 0 1 1 12 5h1.58l-1 1.43a.9996.9996 0 0 0-.1981.764 1 1 0 0 0 1.8381.376L16.72 4 14.21.43a.9997.9997 0 0 0-1.4-.25h.02Z"/>
    <path d="M10 15.11c.54.14 1.02.22 1.51.22.93 0 1.43-.27 1.43-1.06 0-.75-.56-1.02-2.8-1.06l.31-3.34h3.7l-.19 1.04h-2.54l-.12 1.38c2.22.13 2.97.69 2.97 1.92 0 1.31-.91 2.12-2.73 2.12-.51 0-.9-.06-1.42-.18L10 15.11Z"/>
  </g>
  <defs>
    <clipPath id="a">
      <path fill="currentColor" d="M0 0h24v24H0z"/>
    </clipPath>
  </defs>
</svg>
