<svg xmlns="http://www.w3.org/2000/svg" viewBox="0 0 24 24" fill="currentColor"><path d="m15.011 8.248.74 1.715 1.858.172-1.403 1.232.411 1.822-1.606-.953-1.605.953.41-1.822-1.402-1.232 1.859-.172.739-1.715ZM10.992 10.98a1.987 1.987 0 1 1-3.974 0 1.987 1.987 0 0 1 3.974 0Z"/><path fill-rule="evenodd" d="M12 2a9 9 0 0 0-9 9v4H2a1 1 0 1 0 0 2h1v2a3 3 0 0 0 3 3h12a3 3 0 0 0 3-3v-2h1a1 1 0 1 0 0-2h-1v-4a9 9 0 0 0-9-9Zm-7 9a7 7 0 0 1 14 0v8a1 1 0 0 1-1 1H6a1 1 0 0 1-1-1v-8Z" clip-rule="evenodd"/></svg>