<svg xmlns="http://www.w3.org/2000/svg" viewBox="0 0 24 24"><path fill="currentColor" d="M13.03.92a7.05 7.05 0 0 1 7.04 7.04l-.01.01c.01.07.16 3.29-2.89 5.8-2.1 1.72-2.11 3.13-2.11 3.19v1.58c0 2.5-2.04 4.54-4.54 4.54-2.67 0-4.54-1.67-4.54-4.07a1 1 0 0 1 1-1 1 1 0 0 1 1 1c0 1.53 1.31 2.07 2.54 2.07 1.4 0 2.54-1.14 2.54-2.54v-1.55c-.02-.19-.06-2.39 2.83-4.77 2.2-1.8 2.17-4 2.17-4.2v-.01a5.06 5.06 0 0 0-5.04-5.09 5 5 0 0 0-4.97 4.24 1 1 0 0 1-1.14.83 1 1 0 0 1-.83-1.14A7 7 0 0 1 13.03.92Z"/><path fill="currentColor" d="M12 11.3c0 .8-.52 1.48-1.32 1.75h-.01a1 1 0 0 0-.17 1.82 1 1 0 0 1 .37 1.36.98.98 0 0 1-1.36.38 3 3 0 0 1 .48-5.44V8.41c0-1.77 1-3.13 2.5-3.37A2.99 2.99 0 0 1 15.99 8a1 1 0 0 1-1 1 1 1 0 0 1-1-1 1 1 0 0 0-1.17-.98c-.5.08-.82.62-.82 1.39v2.89Z"/></svg>