<svg viewBox="0 0 24 24" fill="currentColor" xmlns="http://www.w3.org/2000/svg"><path d="M8 8C8 5.79086 9.79086 4 12 4C14.2091 4 16 5.79086 16 8C16 8.55228 16.4477 9 17 9C17.5523 9 18 8.55228 18 8C18 4.68629 15.3137 2 12 2C8.68629 2 6 4.68629 6 8C6 8.55228 6.44772 9 7 9C7.55228 9 8 8.55228 8 8Z" /><path fill-rule="evenodd" clip-rule="evenodd" d="M6 11C4.34315 11 3 12.3431 3 14V20C3 21.6569 4.34315 23 6 23H18C19.6569 23 21 21.6569 21 20V14C21 12.3431 19.6569 11 18 11H6ZM12 15C12.5523 15 13 15.4477 13 16V19C13 19.5523 12.5523 20 12 20C11.4477 20 11 19.5523 11 19V16C11 15.4477 11.4477 15 12 15Z" /></svg>