<svg viewBox="0 0 24 24" fill="currentColor" xmlns="http://www.w3.org/2000/svg">
<path d="M1.71709 11.0009C4.42575 8.51559 8.03473 7 12 7C15.9652 7 19.5742 8.51559 22.2829 11.0009C22.6898 11.3742 23.3224 11.347 23.6958 10.9401C24.0692 10.5331 24.042 9.90055 23.635 9.52717C20.5719 6.71671 16.4853 5 12 5C7.51468 5 3.42805 6.71671 0.364955 9.52717C-0.0419909 9.90055 -0.0692005 10.5331 0.304181 10.9401C0.677562 11.347 1.31014 11.3742 1.71709 11.0009Z"/>
<path d="M12 12.0263C9.36811 12.0263 6.97133 13.023 5.1628 14.6611C4.75347 15.0319 4.12108 15.0006 3.75031 14.5913C3.37954 14.182 3.4108 13.5496 3.82013 13.1788C5.98211 11.2205 8.85278 10.0263 12 10.0263C15.1473 10.0263 18.0179 11.2205 20.1799 13.1788C20.5893 13.5496 20.6205 14.182 20.2497 14.5913C19.879 15.0006 19.2466 15.0319 18.8373 14.6611C17.0287 13.023 14.6319 12.0263 12 12.0263Z"/>
<path d="M12.0001 17.0223C10.8259 17.0223 9.74535 17.4108 8.87605 18.0668C8.78136 18.1383 8.68917 18.2129 8.59964 18.2906C8.18246 18.6525 7.55088 18.6077 7.18897 18.1905C6.82707 17.7733 6.87188 17.1417 7.28906 16.7798C7.41284 16.6725 7.54033 16.5692 7.67134 16.4704C8.87566 15.5616 10.3763 15.0223 12.0001 15.0223C13.8011 15.0223 15.4497 15.6856 16.7111 16.7798C17.1283 17.1417 17.1731 17.7733 16.8112 18.1905C16.4493 18.6077 15.8177 18.6525 15.4006 18.2906C14.489 17.4998 13.3016 17.0223 12.0001 17.0223Z"/>
</svg>
