<svg xmlns="http://www.w3.org/2000/svg" viewBox="0 0 24 24"><path fill="currentColor" d="M4 3a3 3 0 0 0-3 3v4a3 3 0 0 0 3 3h1.904c-.226 1.28-.816 2.753-1.426 3.976-.65 1.306.23 3.024 1.826 3.024h.228c.584 0 1.173-.258 1.556-.762 1.929-2.538 2.732-5.734 2.904-7.114l.008-.062V6a3 3 0 0 0-3-3H4ZM16 3a3 3 0 0 0-3 3v4a3 3 0 0 0 3 3h1.904c-.226 1.28-.816 2.753-1.426 3.976-.65 1.306.23 3.024 1.826 3.024h.228c.584 0 1.173-.258 1.556-.762 1.929-2.538 2.732-5.734 2.904-7.114l.008-.062V6a3 3 0 0 0-3-3h-4Z"/></svg>