<svg xmlns="http://www.w3.org/2000/svg" viewBox="0 0 24 24"><path fill="currentColor" fill-rule="evenodd" d="M13.936 1.92a3 3 0 0 0-4.156-.853l-2.505 1.65a3 3 0 0 0 3.302 5.01l2.505-1.65a3 3 0 0 0 .854-4.157Zm-3.056.816a1 1 0 0 1 1.101 1.67L9.476 6.057a1 1 0 1 1-1.1-1.67l2.504-1.65ZM17 13a3 3 0 0 1 6 0v6a3 3 0 0 1-6 0v-6Zm3-1a1 1 0 0 0-1 1v6a1 1 0 1 0 2 0v-6a1 1 0 0 0-1-1Z" clip-rule="evenodd"/><path fill="#000" d="M5.316 11.051a1 1 0 0 1 .633 1.265l-3 9a1 1 0 1 1-1.898-.632l3-9a1 1 0 0 1 1.265-.633Z"/><path fill="#000" fill-rule="evenodd" d="M12.688 8.02c.998-.649 2.318.067 2.318 1.258v4.118a1.5 1.5 0 0 1-2.193 1.33l-3.515-1.83a1.5 1.5 0 0 1-.126-2.589l3.516-2.287Zm.318 2.18-2.025 1.317 2.025 1.055V10.2ZM9.5 15a3.5 3.5 0 1 0 0 7 3.5 3.5 0 0 0 0-7ZM8 18.5a1.5 1.5 0 1 1 3 0 1.5 1.5 0 0 1-3 0Z" clip-rule="evenodd"/></svg>