<svg xmlns="http://www.w3.org/2000/svg" viewBox="0 0 24 24"><path fill="currentColor" d="M19.071 3.515a4 4 0 0 0-5.657 0l-.707.707a1 1 0 0 0 1.414 1.414l.707-.707a2 2 0 0 1 2.829 0l1.414 1.414a2 2 0 0 1 0 2.828l-4.243 4.243a2 2 0 0 1-2.828 0l-.707-.707a1 1 0 0 0-1.414 1.414l.707.707a4 4 0 0 0 5.657 0l4.242-4.242a4 4 0 0 0 0-5.657l-1.414-1.414Z"/><path fill="currentColor" d="M4.929 20.485a4 4 0 0 0 5.657 0l.707-.707a1 1 0 0 0-1.414-1.414l-.707.707a2 2 0 0 1-2.829 0L4.93 17.657a2 2 0 0 1 0-2.829l4.243-4.242a2 2 0 0 1 2.828 0l.707.707a1 1 0 0 0 1.414-1.414l-.707-.708a4 4 0 0 0-5.657 0l-4.242 4.243a4 4 0 0 0 0 5.657l1.414 1.414Z"/></svg>