<svg xmlns="http://www.w3.org/2000/svg" viewBox="0 0 24 24"><path fill="currentColor" fill-rule="evenodd" d="M14 2a3 3 0 0 0-4.2-1L7.3 2.8a3 3 0 0 0 3.3 5L13 6.1a3 3 0 0 0 .8-4.2Zm-3.1.7a1 1 0 0 1 1 1.7L9.6 6.1a1 1 0 1 1-1.1-1.7l2.5-1.7ZM17 13a3 3 0 0 1 6 0v6a3 3 0 1 1-6 0v-6Zm3-1a1 1 0 0 0-1 1v6a1 1 0 1 0 2 0v-6c0-.6-.4-1-1-1Z" clip-rule="evenodd"/><path fill="#000" d="M5.3 11c.5.2.8.8.6 1.3l-3 9a1 1 0 1 1-1.8-.6l3-9a1 1 0 0 1 1.2-.6Z"/><path fill="currentColor" fill-rule="evenodd" d="M12.7 8c1-.6 2.3 0 2.3 1.3v4.1c0 1.1-1.2 1.8-2.2 1.3L9.3 13c-1-.5-1-2-.1-2.6L12.7 8Zm.3 2.2-2 1.3 2 1v-2.3ZM9.5 15a3.5 3.5 0 1 0 0 7 3.5 3.5 0 0 0 0-7ZM8 18.5a1.5 1.5 0 1 1 3 0 1.5 1.5 0 0 1-3 0Z" clip-rule="evenodd"/></svg>