<svg xmlns="http://www.w3.org/2000/svg" viewBox="0 0 24 24"><path fill="currentColor" d="M6.59 8H3a1 1 0 1 0 0 2h5a2 2 0 0 0 2-2V3a1 1 0 0 0-2 0v3.59l-4.6-4.6A1 1 0 1 0 2 3.41L6.58 8ZM13 4a1 1 0 1 1 0-2h6a3 3 0 0 1 3 3v4a1 1 0 1 1-2 0V5a1 1 0 0 0-1-1h-6ZM4 13a1 1 0 1 0-2 0v6a3 3 0 0 0 3 3h2a1 1 0 1 0 0-2H5a1 1 0 0 1-1-1v-6Z"/><path fill="currentColor" fill-rule="evenodd" d="M10 15a3 3 0 0 1 3-3h6a3 3 0 0 1 3 3v4a3 3 0 0 1-3 3h-6a3 3 0 0 1-3-3v-4Zm3-1a1 1 0 0 0-1 1v4a1 1 0 0 0 1 1h6a1 1 0 0 0 1-1v-4a1 1 0 0 0-1-1h-6Z" clip-rule="evenodd" opacity=".5"/></svg>