<svg xmlns="http://www.w3.org/2000/svg" viewBox="0 0 24 24"><path fill="currentColor" d="M12 8a4 4 0 1 0 0 8 4 4 0 0 0 0-8Zm-2 4a2 2 0 1 1 4 0 2 2 0 0 1-4 0Z"/><path fill="currentColor" d="M13 20.945a8.943 8.943 0 0 0 3.444-1.117l1.206 1.663a1 1 0 1 0 1.62-1.175l-1.208-1.664a9.025 9.025 0 0 0 2.139-2.939l1.953.634a1 1 0 1 0 .617-1.902l-1.953-.634a9.046 9.046 0 0 0-.002-3.628l1.954-.635a1 1 0 1 0-.62-1.902l-1.952.635a9.024 9.024 0 0 0-2.13-2.928l1.208-1.663a1 1 0 0 0-1.618-1.176l-1.207 1.662A8.942 8.942 0 0 0 13 3.055V1a1 1 0 1 0-2 0v2.055a8.941 8.941 0 0 0-3.444 1.117L6.35 2.509a1 1 0 1 0-1.62 1.175l1.208 1.664a9.025 9.025 0 0 0-2.139 2.939l-1.953-.634a1 1 0 0 0-.617 1.902l1.953.634a9.04 9.04 0 0 0 .001 3.628l-1.953.635a1 1 0 1 0 .619 1.902l1.953-.635a9.025 9.025 0 0 0 2.13 2.928L4.725 20.31a1 1 0 0 0 1.618 1.176l1.208-1.662A8.942 8.942 0 0 0 11 20.945V23a1 1 0 1 0 2 0v-2.055ZM7.914 6.315A6.968 6.968 0 0 1 12 5a6.968 6.968 0 0 1 4.14 1.354 7.016 7.016 0 0 1 2.536 3.535c.21.666.324 1.375.324 2.111a6.997 6.997 0 0 1-.358 2.217 7.016 7.016 0 0 1-2.556 3.468A6.968 6.968 0 0 1 12 19a6.969 6.969 0 0 1-4.115-1.338l-.011-.007-.013-.01a7.016 7.016 0 0 1-2.537-3.534A6.996 6.996 0 0 1 5 12a6.997 6.997 0 0 1 .358-2.217 7.016 7.016 0 0 1 2.556-3.467Z"/></svg>
