<svg xmlns="http://www.w3.org/2000/svg" viewBox="0 0 24 24"><path fill="currentColor" fill-rule="evenodd" d="M8 1a3 3 0 0 0-3 3v.26a3 3 0 0 0 .72 1.95l5.5 6.43c.02 0 .02.01.03.02L16.68 19H7.32l2.87-3.35a1 1 0 1 0-1.52-1.3l-2.95 3.44A3 3 0 0 0 5 19.74V20a3 3 0 0 0 3 3h8a3 3 0 0 0 3-3v-.26a3 3 0 0 0-.72-1.95l-1.54-1.8L13.32 12l4.96-5.79A3 3 0 0 0 19 4.26V4a3 3 0 0 0-3-3H8Zm6.97 6 1.79-2.09a1 1 0 0 0 .24-.65V4a1 1 0 0 0-1-1H8a1 1 0 0 0-1 1v.26a1 1 0 0 0 .24.65L9.04 7h5.93Z" clip-rule="evenodd"/></svg>