<svg viewBox="0 0 24 24" fill="currentColor" xmlns="http://www.w3.org/2000/svg"><path d="M7.45965 2.09034C7.96204 1.86095 8.55527 2.08226 8.78466 2.58465L9.94308 5.12172C10.6179 5.04132 11.3043 5 12 5C16.4853 5 20.5719 6.71671 23.635 9.52717C24.042 9.90055 24.0692 10.5331 23.6958 10.9401C23.3224 11.347 22.6898 11.3742 22.2829 11.0009C19.5742 8.51559 15.9652 7 12 7C11.6032 7 11.2101 7.01517 10.8212 7.04494L12.1829 10.0271C15.2745 10.0624 18.0915 11.25 20.2209 13.1788C20.6303 13.5496 20.6615 14.182 20.2908 14.5913C19.92 15.0006 19.2876 15.0319 18.8783 14.6611C17.3206 13.2502 15.3264 12.3151 13.1215 12.0829L14.6901 15.5182C15.4574 15.8197 16.1603 16.2491 16.7722 16.7798C17.1894 17.1417 17.2342 17.7733 16.8723 18.1905C16.6629 18.4319 16.3633 18.5486 16.0671 18.534L17.0034 20.5847C17.2328 21.087 17.0115 21.6803 16.5091 21.9097C16.0067 22.1391 15.4135 21.9177 15.1841 21.4153L6.96534 3.41535C6.73595 2.91296 6.95726 2.31973 7.45965 2.09034Z"/><path d="M8.09469 10.6796C6.5112 11.2213 5.07455 12.0797 3.86114 13.1788C3.45181 13.5496 3.42056 14.182 3.79133 14.5913C4.16209 15.0006 4.79449 15.0319 5.20381 14.6611C6.26669 13.6984 7.53274 12.9572 8.93029 12.5097L8.09469 10.6796Z"/><path d="M10.1899 15.2684C9.28861 15.5107 8.45687 15.9237 7.73237 16.4704C7.60137 16.5692 7.47387 16.6725 7.3501 16.7798C6.93291 17.1417 6.8881 17.7733 7.25001 18.1905C7.61192 18.6077 8.24349 18.6525 8.66068 18.2906C8.7502 18.2129 8.84239 18.1383 8.93709 18.0668C9.54663 17.6069 10.26 17.2784 11.0368 17.1231L10.1899 15.2684Z" /><path d="M0.364955 9.52717C1.98511 8.04064 3.89173 6.85983 5.99327 6.07728L6.8264 7.90194C4.91738 8.59214 3.18507 9.65395 1.71709 11.0009C1.31014 11.3742 0.677562 11.347 0.304181 10.9401C-0.0692005 10.5331 -0.0419909 9.90055 0.364955 9.52717Z"/></svg>
