<svg xmlns="http://www.w3.org/2000/svg" viewBox="0 0 24 24"><path fill="currentColor" d="M5.974 2.12a1 1 0 0 1 .406 1.354L3.136 9.5l3.244 6.026a1 1 0 1 1-1.76.948l-3.245-6.026a2 2 0 0 1 0-1.896L4.62 2.526a1 1 0 0 1 1.354-.407ZM18.026 2.12a1 1 0 0 0-.407 1.354L20.864 9.5l-3.245 6.026a1 1 0 0 0 1.762.948l3.244-6.026a2 2 0 0 0 0-1.896l-3.244-6.026a1 1 0 0 0-1.355-.407Z"/><path fill="currentColor" d="M9.454 6.496a1 1 0 0 0-1.737-.992L6.001 8.508a2 2 0 0 0 0 1.984l1.716 3.004a1 1 0 0 0 1.737-.992L7.737 9.5l1.717-3.004ZM14.918 5.132a1 1 0 0 0-.372 1.364L16.263 9.5l-1.717 3.004a1 1 0 0 0 1.737.992l1.716-3.004a2 2 0 0 0 0-1.984l-1.716-3.004a1 1 0 0 0-1.365-.372ZM13 15a1 1 0 0 0-2 0v7h2v-7Z"/></svg>