<svg xmlns="http://www.w3.org/2000/svg" viewBox="0 0 24 24"><path fill="currentColor" d="M8 3a1 1 0 0 0 0 2h12a1 1 0 0 1 1 1v10a1 1 0 1 0 2 0V6a3 3 0 0 0-3-3H8ZM13.5 14a1.5 1.5 0 1 0 0-3 1.5 1.5 0 0 0 0 3Z"/><path fill="currentColor" fill-rule="evenodd" d="M4 7a3 3 0 0 0-3 3v8c0 .107.006.213.017.318-.051.276.014.57.2.804A3.001 3.001 0 0 0 4 21h12a3 3 0 0 0 3-3v-8a3 3 0 0 0-3-3H4Zm0 12a.997.997 0 0 1-.723-.31l4.19-3.809L11.586 19H4Zm4.881-5.533L14.414 19H16a1 1 0 0 0 1-1v-8a1 1 0 0 0-1-1H4a1 1 0 0 0-1 1v6.24l3.122-2.838a2 2 0 0 1 2.76.065Z" clip-rule="evenodd"/></svg>