<svg xmlns="http://www.w3.org/2000/svg" viewBox="0 0 24 24"><path fill="currentColor" d="M5.974 4.62a1 1 0 0 1 .406 1.354L3.136 12l3.244 6.026a1 1 0 1 1-1.76.948l-3.245-6.026a2 2 0 0 1 0-1.896L4.62 5.026a1 1 0 0 1 1.354-.407ZM13.5 12a1.5 1.5 0 1 1-3 0 1.5 1.5 0 0 1 3 0ZM17.62 5.974a1 1 0 0 1 1.76-.948l3.245 6.026a2 2 0 0 1 0 1.896l-3.244 6.026a1 1 0 1 1-1.762-.948L20.864 12 17.62 5.974Z"/><path fill="currentColor" d="M9.082 7.632a1 1 0 0 1 .372 1.364L7.737 12l1.717 3.004a1 1 0 0 1-1.737.992l-1.716-3.004a2 2 0 0 1 0-1.984l1.716-3.004a1 1 0 0 1 1.365-.372ZM14.546 8.996a1 1 0 0 1 1.737-.992l1.716 3.004a2 2 0 0 1 0 1.984l-1.716 3.004a1 1 0 0 1-1.737-.992L16.263 12l-1.717-3.004Z"/></svg>