<svg xmlns="http://www.w3.org/2000/svg" fill="none" viewBox="0 0 24 24">
  <path fill="currentColor" d="M11.15.18a1 1 0 0 1 .25 1.4L10.4 3H12a9.9999 9.9999 0 0 1 9.0575 14.2383 10.0004 10.0004 0 0 1-11.1014 5.5506A10 10 0 0 1 4 7a1 1 0 1 1 1.6 1.2A8 8 0 1 0 12 5h-1.6l1 1.43a.9994.9994 0 0 1 .1981.764.9994.9994 0 0 1-.7881.8284A1 1 0 0 1 9.76 7.57L7.26 4 9.76.43a1.0001 1.0001 0 0 1 1.39-.25Z"/>
  <path fill="currentColor" d="M10 15.11c.54.14 1.02.22 1.51.22.93 0 1.43-.27 1.43-1.06 0-.75-.56-1.02-2.8-1.06l.31-3.34h3.7l-.19 1.04h-2.54l-.12 1.38c2.22.13 2.97.69 2.97 1.92 0 1.31-.91 2.12-2.73 2.12-.51 0-.9-.06-1.42-.18L10 15.11Z"/>
</svg>
