<svg xmlns="http://www.w3.org/2000/svg" viewBox="0 0 155 28"><path fill="#1767CE" d="M0 0h155v28H0z"/><path fill="#fff" d="M6.667 21V7.001h4.593V21H6.667ZM17.509 9.23 20.151 21h-5.027L11.97 7.001h2.82a2.655 2.655 0 0 1 1.764.641c.49.404.828.964.955 1.587ZM20.841 21V7.001h4.593V21h-4.593Zm8.063-8.675a2.78 2.78 0 0 1-2.425-1.39 2.736 2.736 0 0 1-.375-1.41 2.686 2.686 0 0 1 .375-1.4 2.812 2.812 0 0 1 3.825-1.005c.415.244.76.59 1.005 1.005.25.424.38.908.375 1.4.004.495-.125.982-.375 1.41a2.8 2.8 0 0 1-1.006 1.015c-.423.25-.908.38-1.4.375ZM32.394 21V7.001h4.593V21h-4.593Zm10.409-6.349c.013.014.111.175.295.483.184.309.424.703.72 1.183a373.133 373.133 0 0 1 1.863 3.056c.288.48.617 1.022.986 1.627H41.62l-.858-1.39a127.3 127.3 0 0 1-.818-1.34c-.289-.48-.575-.947-.858-1.4a71.148 71.148 0 0 1-.729-1.194 20.758 20.758 0 0 0-.424-.69 2.04 2.04 0 0 1-.335-.985c.02-.338.128-.665.315-.947.079-.132.224-.365.434-.7a206.222 206.222 0 0 0 1.598-2.602c.289-.48.561-.93.817-1.351L41.62 7h5.047l-3.904 6.368c-.12.19-.189.407-.197.632.013.235.095.461.236.65Z"/><path fill="#D9E9FF" d="M52 8.719h4.525v12.29h2.074V8.718h4.505v-1.74H52v1.74ZM72.628 12.206a3.585 3.585 0 0 0-1.453-1.116 5.071 5.071 0 0 0-2.005-.376 4.91 4.91 0 0 0-2.015.395 4.307 4.307 0 0 0-1.512 1.107c-.429.5-.752 1.08-.948 1.709a7.142 7.142 0 0 0-.326 2.223 5.982 5.982 0 0 0 .582 2.756 3.863 3.863 0 0 0 1.73 1.719 6.144 6.144 0 0 0 2.805.583c.466.004.931-.026 1.393-.09a6.668 6.668 0 0 0 1.136-.266 7.367 7.367 0 0 0 1.067-.454l.139-1.522c-.251.093-.505.185-.761.277a9.493 9.493 0 0 1-.8.247 5.98 5.98 0 0 1-.85.158c-.289.033-.579.05-.87.05a6.233 6.233 0 0 1-1.54-.169 2.529 2.529 0 0 1-1.097-.573 2.497 2.497 0 0 1-.672-1.096 5 5 0 0 1-.215-1.304h7.14a7.57 7.57 0 0 0-.109-2.45 4.618 4.618 0 0 0-.82-1.808Zm-4.98.474a2.799 2.799 0 0 1 1.541-.405 2.416 2.416 0 0 1 1.522.445c.394.314.674.747.8 1.234.099.361.147.733.144 1.107H66.46c.037-.394.121-.782.25-1.156.17-.5.5-.932.94-1.225ZM82.358 10.971a7.139 7.139 0 0 0-.919-.188 7.758 7.758 0 0 0-1.067-.069 4.784 4.784 0 0 0-1.877.376 4.964 4.964 0 0 0-1.59 1.076 4.874 4.874 0 0 0-1.097 1.74 6.66 6.66 0 0 0-.395 2.38c-.022.892.15 1.779.504 2.598.31.701.822 1.293 1.472 1.7.71.419 1.526.628 2.35.602a5.696 5.696 0 0 0 2.115-.415 5 5 0 0 0 1.126-.64v.541a4.17 4.17 0 0 1-.187 1.314 2.39 2.39 0 0 1-.573.949 2.36 2.36 0 0 1-1.008.573 5.288 5.288 0 0 1-1.512.187c-.406 0-.811-.023-1.215-.069a8.614 8.614 0 0 1-1.255-.237 9.604 9.604 0 0 1-1.244-.425l.217 1.739a8.5 8.5 0 0 0 1.117.365c.4.101.805.177 1.214.228.433.053.869.08 1.304.079a6.371 6.371 0 0 0 2.826-.563 3.959 3.959 0 0 0 1.729-1.561c.398-.701.6-1.496.583-2.302V10.714l-1.933.497a5.778 5.778 0 0 0-.685-.24Zm.365 7.913a6.244 6.244 0 0 1-.76.376c-.23.094-.469.17-.712.227-.236.053-.478.08-.72.079a3.436 3.436 0 0 1-1.71-.386 2.314 2.314 0 0 1-1.007-1.165 5.251 5.251 0 0 1-.326-2.006 5.224 5.224 0 0 1 .227-1.61c.13-.429.352-.823.652-1.156.292-.309.65-.549 1.047-.701.451-.171.93-.255 1.413-.247.311 0 .622.026.929.079.314.055.624.131.928.227.097.03.198.07.297.107v6.024l-.257.152ZM95.784 11.13a3.888 3.888 0 0 0-1.897-.416 5.553 5.553 0 0 0-1.69.267 6.424 6.424 0 0 0-1.59.76c-.19.126-.374.264-.553.406v-1.413l-2.016.296v9.978h2.016v-7.504c.195-.114.396-.218.602-.31a9.07 9.07 0 0 1 .85-.326c.277-.09.561-.16.85-.208.27-.045.545-.068.82-.069.322-.007.643.043.948.148.251.091.476.244.652.445.181.218.31.475.375.75.085.35.124.709.119 1.068v6.006h2.015v-6.421a5.476 5.476 0 0 0-.375-2.193 2.59 2.59 0 0 0-1.126-1.265ZM106.512 16.464a2.996 2.996 0 0 0-.692-.544 5.36 5.36 0 0 0-.83-.385 17.1 17.1 0 0 1-.622-.207 11.092 11.092 0 0 0-.613-.198c-.204-.06-.402-.122-.593-.188a4.367 4.367 0 0 1-.523-.217 3.378 3.378 0 0 1-.464-.296 1.284 1.284 0 0 1-.336-.376.951.951 0 0 1-.129-.494c-.005-.19.043-.378.139-.543.103-.162.246-.294.415-.385.207-.114.43-.194.662-.237.289-.056.584-.082.879-.08a6.398 6.398 0 0 1 1.037.09c.205.032.408.076.612.128.205.052.412.112.623.178.196.06.387.132.573.217l.138-1.6a9.34 9.34 0 0 0-.74-.277 7.33 7.33 0 0 0-.741-.198 5.95 5.95 0 0 0-.741-.108 8.976 8.976 0 0 0-.722-.03 6.515 6.515 0 0 0-1.62.188c-.453.11-.884.297-1.274.553a2.513 2.513 0 0 0-.84.929 2.824 2.824 0 0 0-.296 1.333c-.006.333.047.665.158.978.094.264.234.508.415.722.176.201.379.377.603.523.233.153.481.282.741.386a16.726 16.726 0 0 0 .918.306 42.687 42.687 0 0 1 .869.276c.139.046.274.09.406.129.176.062.348.138.513.227.145.077.281.17.406.277a1.017 1.017 0 0 1 .345.78.977.977 0 0 1-.326.78 1.895 1.895 0 0 1-.85.405c-.366.081-.74.121-1.116.12a5.549 5.549 0 0 1-.701-.05 10.028 10.028 0 0 1-.81-.139c-.283-.06-.573-.132-.87-.217a17.41 17.41 0 0 1-.898-.286l.079 1.679c.342.119.654.214.938.287.284.072.554.135.81.187.248.052.499.085.751.099.243.013.49.02.741.02a7.712 7.712 0 0 0 1.64-.168 4.243 4.243 0 0 0 1.343-.524c.374-.228.683-.548.899-.928.227-.418.339-.889.326-1.364a2.778 2.778 0 0 0-.168-1.017 2.314 2.314 0 0 0-.464-.741ZM117.132 11.337a4.245 4.245 0 0 0-2.361-.623 6.004 6.004 0 0 0-1.462.188 6.322 6.322 0 0 0-1.759.746v-.914l-2.015.316v14.107h2.015v-4.423l.04.017c.365.152.746.261 1.136.326.46.076.926.113 1.393.109a4.944 4.944 0 0 0 2.539-.652 4.695 4.695 0 0 0 1.778-1.887c.466-.934.694-1.97.662-3.013a6.16 6.16 0 0 0-.504-2.569 3.967 3.967 0 0 0-1.462-1.728Zm-.524 6.609c-.237.524-.635.96-1.136 1.244a3.65 3.65 0 0 1-1.808.415 5.65 5.65 0 0 1-1.818-.296c-.094-.033-.197-.07-.296-.107v-6.235c.026-.012.053-.028.079-.04.29-.132.56-.244.81-.336a4.07 4.07 0 0 1 1.403-.257 3.659 3.659 0 0 1 1.759.386c.476.259.849.674 1.057 1.175.251.641.369 1.327.346 2.016.021.699-.115 1.394-.396 2.035ZM125.676 10.862a3.869 3.869 0 0 0-1.046.454 5.12 5.12 0 0 0-.929.741c-.047.046-.092.099-.138.148v-1.472l-2.016.297v9.978h2.016v-7.465a5.114 5.114 0 0 1 1.077-.577c.203-.08.411-.148.622-.207a4.24 4.24 0 0 1 1.383-.149l.237-1.857a3.765 3.765 0 0 0-1.206.109ZM137.275 19.763a.899.899 0 0 1-.771-.316 1.702 1.702 0 0 1-.217-1.047l.039-4.07a4.693 4.693 0 0 0-.158-1.265 3.094 3.094 0 0 0-.474-1.007 2.676 2.676 0 0 0-.82-.731 4.2 4.2 0 0 0-1.195-.455 7.034 7.034 0 0 0-1.561-.158c-.416 0-.832.026-1.245.08-.39.048-.776.124-1.156.226a9.63 9.63 0 0 0-1.037.346l-.237 1.68a11.626 11.626 0 0 1 1.798-.494c.271-.052.545-.088.82-.109.27-.02.536-.03.8-.03.403-.008.805.038 1.195.139.285.071.547.214.761.415.191.195.327.437.395.701.085.326.124.661.119.998l-.002.496-2.31.156a6.135 6.135 0 0 0-2.292.514 3.285 3.285 0 0 0-1.353 1.096 2.558 2.558 0 0 0-.445 1.452c-.003.486.115.965.346 1.393.242.44.605.8 1.047 1.038.539.28 1.142.416 1.749.395a4.542 4.542 0 0 0 1.669-.277c.462-.18.885-.45 1.245-.79.137-.131.266-.27.389-.414.038.204.11.401.214.582.176.302.447.538.77.672.358.143.741.214 1.126.207.119 0 .234-.003.346-.01.11-.006.219-.023.326-.05l.287-.069c.077-.017.153-.04.227-.069l.217-1.323a1.725 1.725 0 0 1-.336.079 2.272 2.272 0 0 1-.276.02Zm-3.29-.889c-.214.17-.446.315-.691.435a3.135 3.135 0 0 1-.771.257c-.277.053-.558.08-.84.079a2.226 2.226 0 0 1-.938-.178 1.29 1.29 0 0 1-.583-.504 1.482 1.482 0 0 1-.198-.78c-.019-.33.072-.656.257-.929a1.51 1.51 0 0 1 .83-.494 6.015 6.015 0 0 1 1.541-.158h1.73l-.009 1.961c-.1.113-.21.217-.328.311ZM130.962 9.134a2.68 2.68 0 0 0 1.195.256 2.7 2.7 0 0 0 1.225-.266c.345-.168.635-.428.84-.751a2.11 2.11 0 0 0 .306-1.156 2.036 2.036 0 0 0-.652-1.58 2.4 2.4 0 0 0-1.679-.593 2.857 2.857 0 0 0-1.195.247 1.97 1.97 0 0 0-.86.74c-.22.363-.33.782-.316 1.206-.014.41.093.815.306 1.165.204.316.491.57.83.732Zm.316-2.846a1.266 1.266 0 0 1 .919-.316c.245-.01.488.047.701.168.173.106.31.26.396.445.088.199.132.414.128.632.004.219-.043.435-.138.632-.09.182-.231.333-.405.435-.216.114-.458.17-.702.158a1.493 1.493 0 0 1-.672-.138.896.896 0 0 1-.414-.415 1.484 1.484 0 0 1-.139-.672 1.24 1.24 0 0 1 .326-.929ZM145.849 21.008h2.609l-4.793-5.4 4.694-4.677h-2.47l-3.381 3.715h-.729V6.091l-2.015.296v14.621h2.015v-4.84h.033l4.037 4.84Z"/></svg>