<svg xmlns="http://www.w3.org/2000/svg" viewBox="0 0 47 24"><path fill="#0A2343" d="M0 17.997V5.998h3.937v12H0ZM9.294 7.908l2.264 10.09H7.249l-2.704-12h2.417a2.276 2.276 0 0 1 1.512.55c.422.346.71.826.82 1.36Zm2.855 10.09v-12h3.938v12h-3.938Zm6.911-7.437a2.383 2.383 0 0 1-2.4-2.4 2.303 2.303 0 0 1 .322-1.2A2.412 2.412 0 0 1 20.26 6.1c.356.21.653.506.862.862.215.363.326.778.321 1.2a2.4 2.4 0 0 1-1.183 2.079 2.302 2.302 0 0 1-1.2.32Zm2.992 7.436V5.998h3.937v12h-3.937Zm8.922-5.442c.01.012.095.15.253.415.158.264.364.602.617 1.013a315.936 315.936 0 0 1 1.597 2.62c.247.411.529.876.845 1.394H29.96c-.27-.44-.516-.836-.736-1.191-.22-.355-.453-.738-.7-1.15-.248-.41-.493-.81-.736-1.2-.242-.388-.45-.73-.625-1.022-.175-.292-.296-.49-.363-.591a1.75 1.75 0 0 1-.287-.845c.016-.29.11-.57.27-.812.067-.112.191-.312.371-.6a182.106 182.106 0 0 0 1.37-2.23l.7-1.158.736-1.2h4.326l-3.346 5.459a1.08 1.08 0 0 0-.17.54c.012.203.082.396.203.558Z"/><path fill="#AB0058" d="M40.263 16.544c.267-.23.542-.468.833-.726.405-.36.814-.752 1.225-1.175.411-.422.802-.861 1.174-1.317.361-.442.691-.908.989-1.394.277-.453.504-.934.675-1.437.16-.462.243-.947.245-1.436a3.117 3.117 0 0 0-.27-1.326 2.86 2.86 0 0 0-.794-1.014 3.624 3.624 0 0 0-1.31-.659 6.466 6.466 0 0 0-1.799-.228 6.647 6.647 0 0 0-1.174.102 6.11 6.11 0 0 0-1.082.295 7.293 7.293 0 0 0-.97.448l.219 1.47c.267-.18.554-.33.853-.448a5.98 5.98 0 0 1 1.006-.304c.35-.073.706-.11 1.064-.11.374-.007.748.044 1.107.152.285.088.548.238.768.44.199.185.352.413.448.667.098.268.147.551.144.836a3.747 3.747 0 0 1-.287 1.394 7.414 7.414 0 0 1-.811 1.47c-.38.538-.791 1.051-1.234 1.538a26.892 26.892 0 0 1-1.546 1.571c-.557.524-1.135 1.056-1.732 1.597l.22 1.047h7.316l.203-1.453h-5.48Z"/></svg>