<svg xmlns="http://www.w3.org/2000/svg" viewBox="0 0 44 24"><path fill="#0A2343" d="M0 17.997V5.998h3.937v12H0Zm9.294-10.09 2.264 10.09H7.249L4.545 5.998h2.417a2.276 2.276 0 0 1 1.512.55c.422.346.71.826.82 1.36Zm2.855 10.09V5.998h3.938v12h-3.938Zm6.911-7.436a2.382 2.382 0 0 1-2.4-2.4 2.303 2.303 0 0 1 .322-1.2A2.411 2.411 0 0 1 20.26 6.1c.356.209.653.506.862.862.215.363.326.778.321 1.2a2.4 2.4 0 0 1-1.183 2.079 2.302 2.302 0 0 1-1.2.32Zm2.992 7.436V5.998h3.937v12h-3.937Zm8.922-5.442c.01.012.095.15.253.414.158.265.364.603.617 1.014a315.936 315.936 0 0 1 1.597 2.62c.247.411.529.876.845 1.394H29.96c-.27-.44-.516-.836-.736-1.191-.22-.355-.453-.738-.7-1.15-.248-.41-.493-.81-.736-1.2-.242-.388-.45-.73-.625-1.022-.175-.293-.296-.49-.363-.591a1.75 1.75 0 0 1-.287-.845c.016-.29.11-.57.27-.812.067-.112.191-.312.371-.6a182.106 182.106 0 0 0 1.37-2.23l.7-1.158.736-1.2h4.326l-3.346 5.459a1.08 1.08 0 0 0-.17.54c.012.203.082.396.203.558Z"/><path fill="#1767CE" d="M41.094 6c-.27.135-.527.268-.769.397-.242.13-.479.25-.71.363-.23.113-.464.226-.701.338a8.242 8.242 0 0 1-.727.305c-.248.09-.512.18-.794.27l.372 1.437c.338-.102.645-.203.921-.305.27-.098.535-.211.794-.338.254-.124.507-.259.76-.405l.01-.005V18h1.757V6h-.913Z"/></svg>