<svg xmlns="http://www.w3.org/2000/svg" viewBox="0 0 47 24"><path fill="#0A2343" d="M0 17.997V5.998h3.937v12H0Zm9.294-10.09 2.264 10.09H7.249L4.545 5.998h2.417a2.276 2.276 0 0 1 1.512.55c.422.346.71.826.82 1.36Zm2.855 10.09V5.998h3.938v12h-3.938Zm6.911-7.436a2.382 2.382 0 0 1-2.4-2.4 2.303 2.303 0 0 1 .322-1.2A2.412 2.412 0 0 1 20.26 6.1c.356.21.653.506.862.862.215.363.326.778.321 1.2a2.4 2.4 0 0 1-1.183 2.079 2.302 2.302 0 0 1-1.2.32Zm2.992 7.436V5.998h3.937v12h-3.937Zm8.922-5.442c.01.012.095.15.253.414.158.265.364.603.617 1.014a322.716 322.716 0 0 1 1.597 2.62c.247.411.529.876.845 1.394H29.96c-.27-.44-.516-.836-.736-1.191-.22-.355-.453-.738-.7-1.15-.248-.41-.493-.81-.736-1.2-.242-.388-.45-.73-.625-1.022a18.04 18.04 0 0 0-.363-.591 1.75 1.75 0 0 1-.287-.845c.016-.29.11-.57.27-.812.067-.112.191-.312.371-.6a182.106 182.106 0 0 0 1.37-2.23l.7-1.158.736-1.2h4.326l-3.346 5.459a1.08 1.08 0 0 0-.17.54c.012.203.082.396.203.558Z"/><path fill="#0C551F" d="M45.97 13.501a2.658 2.658 0 0 0-.54-.912 2.628 2.628 0 0 0-.888-.626 4.286 4.286 0 0 0-1.208-.32v-.051a4.19 4.19 0 0 0 1.386-.752c.366-.3.667-.671.887-1.09.208-.402.315-.849.313-1.301a2.338 2.338 0 0 0-.254-1.107 2.355 2.355 0 0 0-.743-.828 3.45 3.45 0 0 0-1.192-.515 6.843 6.843 0 0 0-1.596-.17 7.705 7.705 0 0 0-1.056.077c-.362.05-.72.123-1.073.22a4.99 4.99 0 0 0-.98.38l.236 1.334c.248-.1.487-.188.718-.261a6.79 6.79 0 0 1 1.293-.279c.197-.022.394-.034.592-.034.357-.006.714.028 1.064.101.254.051.495.152.71.296.175.123.313.293.397.49.09.223.133.461.127.701.005.33-.074.655-.228.947a2.19 2.19 0 0 1-.642.726c-.3.214-.634.374-.989.473a4.468 4.468 0 0 1-1.267.17h-.321l-.203 1.317h.54c.5-.007.998.036 1.488.127a3.08 3.08 0 0 1 1.039.389c.262.16.475.387.617.659.14.292.21.613.202.938.01.328-.054.654-.186.954a1.628 1.628 0 0 1-.566.66c-.292.19-.62.322-.963.388a6.55 6.55 0 0 1-1.377.127c-.169 0-.335-.006-.498-.017a7.927 7.927 0 0 1-1.081-.144 18.48 18.48 0 0 1-.651-.144l-.22 1.437c.248.045.487.087.718.126.232.04.46.074.684.102.226.028.445.047.66.059.214.012.422.017.625.017a8.32 8.32 0 0 0 1.605-.144c.45-.084.885-.232 1.293-.44a3.32 3.32 0 0 0 .946-.717c.254-.283.45-.613.574-.972.134-.394.2-.808.195-1.225a3.466 3.466 0 0 0-.187-1.166Z"/></svg>