<svg xmlns="http://www.w3.org/2000/svg" viewBox="0 0 142 24"><path fill="#fff" d="M0 18.997v-14h4.593v14H0ZM10.843 7.226l2.641 11.77H8.457L5.303 4.999h2.82a2.655 2.655 0 0 1 1.764.64c.491.404.829.965.956 1.588Zm3.331 11.77V4.999h4.594v13.999h-4.594Zm8.063-8.675a2.736 2.736 0 0 1-1.409-.374 2.778 2.778 0 0 1-1.015-1.016 2.735 2.735 0 0 1-.375-1.41 2.685 2.685 0 0 1 .375-1.4 2.812 2.812 0 0 1 3.824-1.005c.415.245.761.59 1.005 1.006.251.423.38.908.375 1.4.005.495-.125.982-.375 1.41a2.8 2.8 0 0 1-1.005 1.015c-.424.25-.908.38-1.4.374Zm3.49 8.676v-14h4.594v14h-4.594Zm10.409-6.35c.013.014.111.175.296.484.184.308.424.703.72 1.183a384.573 384.573 0 0 1 1.862 3.056c.289.48.617 1.022.986 1.627h-5.047l-.858-1.39c-.256-.414-.529-.861-.817-1.341-.29-.48-.576-.946-.858-1.4a71.148 71.148 0 0 1-.73-1.193 21.119 21.119 0 0 0-.424-.69 2.04 2.04 0 0 1-.334-.986c.019-.338.128-.664.315-.946.078-.132.223-.365.433-.7a216.7 216.7 0 0 0 1.598-2.603l.817-1.35.858-1.4H40l-3.904 6.368c-.12.19-.189.407-.197.631.013.236.095.462.236.65h.001Z"/><path fill="#9FDAF5" d="M45.333 6.715h4.525v12.29h2.075V6.715h4.505V4.977H45.333v1.738ZM65.961 10.203a3.584 3.584 0 0 0-1.452-1.117 5.073 5.073 0 0 0-2.005-.375 4.912 4.912 0 0 0-2.016.395 4.308 4.308 0 0 0-1.511 1.107c-.43.499-.752 1.08-.95 1.709a7.142 7.142 0 0 0-.325 2.222 5.984 5.984 0 0 0 .583 2.757 3.863 3.863 0 0 0 1.729 1.719 6.144 6.144 0 0 0 2.806.582c.465.004.93-.025 1.392-.089a6.668 6.668 0 0 0 1.136-.266 7.372 7.372 0 0 0 1.068-.455l.138-1.521-.761.277a9.484 9.484 0 0 1-.8.247 5.976 5.976 0 0 1-.85.158c-.288.032-.579.049-.869.049a6.233 6.233 0 0 1-1.541-.168 2.528 2.528 0 0 1-1.097-.573 2.497 2.497 0 0 1-.672-1.097 5.004 5.004 0 0 1-.215-1.303h7.14a7.57 7.57 0 0 0-.108-2.45 4.617 4.617 0 0 0-.82-1.808Zm-4.979.474a2.799 2.799 0 0 1 1.54-.405 2.416 2.416 0 0 1 1.522.444c.394.314.675.748.8 1.235.099.36.148.733.145 1.107h-5.197c.037-.394.121-.782.251-1.156.169-.501.5-.932.94-1.225ZM75.692 8.968a7.144 7.144 0 0 0-.92-.188 7.764 7.764 0 0 0-1.066-.07 4.782 4.782 0 0 0-1.877.376 4.964 4.964 0 0 0-1.59 1.077 4.874 4.874 0 0 0-1.098 1.739 6.655 6.655 0 0 0-.395 2.38c-.021.893.15 1.78.504 2.599.31.7.823 1.293 1.472 1.699.711.42 1.526.628 2.351.603a5.697 5.697 0 0 0 2.114-.415c.402-.164.78-.379 1.126-.64v.541a4.17 4.17 0 0 1-.187 1.314c-.114.357-.31.681-.573.948a2.36 2.36 0 0 1-1.008.573 5.283 5.283 0 0 1-1.511.188c-.406 0-.812-.024-1.215-.07a8.616 8.616 0 0 1-1.255-.236 9.607 9.607 0 0 1-1.245-.425l.217 1.739c.364.147.737.27 1.117.365.4.101.805.177 1.215.227.432.054.868.08 1.304.08a6.372 6.372 0 0 0 2.825-.564 3.959 3.959 0 0 0 1.729-1.56c.398-.701.6-1.497.583-2.302V8.71l-1.932.497a5.764 5.764 0 0 0-.685-.24Zm.365 7.913a6.235 6.235 0 0 1-.76.375c-.231.095-.47.171-.712.227-.237.054-.478.08-.721.08a3.436 3.436 0 0 1-1.71-.386 2.313 2.313 0 0 1-1.007-1.165 5.25 5.25 0 0 1-.326-2.006 5.218 5.218 0 0 1 .227-1.61c.13-.429.352-.824.653-1.156.292-.31.65-.549 1.046-.701.451-.171.93-.255 1.413-.248.311 0 .622.027.929.08.314.055.624.13.929.227.096.03.197.07.296.107v6.024c-.087.052-.175.105-.257.152ZM89.117 9.126a3.888 3.888 0 0 0-1.897-.415 5.552 5.552 0 0 0-1.69.267 6.422 6.422 0 0 0-1.59.76c-.19.126-.374.264-.553.405V8.731l-2.015.296v9.978h2.015V11.5a6.24 6.24 0 0 1 .603-.31 9.07 9.07 0 0 1 .85-.327c.277-.09.56-.16.849-.207.27-.045.545-.068.82-.07.322-.007.643.044.948.15.252.09.476.243.652.444.182.218.31.475.376.75.084.35.124.708.118 1.067v6.007h2.016v-6.421a5.476 5.476 0 0 0-.376-2.194 2.59 2.59 0 0 0-1.126-1.264ZM99.845 14.46a2.976 2.976 0 0 0-.691-.543 5.366 5.366 0 0 0-.83-.385c-.211-.066-.419-.135-.623-.208a11.05 11.05 0 0 0-.612-.197c-.204-.06-.402-.122-.593-.188a4.342 4.342 0 0 1-.524-.217 3.455 3.455 0 0 1-.464-.297 1.296 1.296 0 0 1-.336-.375.95.95 0 0 1-.128-.494c-.006-.19.042-.379.138-.543.103-.162.246-.295.415-.386.207-.113.43-.193.662-.237.29-.055.584-.082.88-.079a6.422 6.422 0 0 1 1.037.09c.204.032.408.075.612.128.204.052.412.112.623.178.195.06.386.132.572.217l.139-1.6a9.425 9.425 0 0 0-.741-.277 7.272 7.272 0 0 0-.741-.198 5.934 5.934 0 0 0-.741-.108 8.929 8.929 0 0 0-.721-.03 6.512 6.512 0 0 0-1.62.188c-.454.11-.885.297-1.275.553a2.516 2.516 0 0 0-.84.928 2.821 2.821 0 0 0-.296 1.334c-.006.333.048.664.159.978.093.264.234.508.415.721.175.202.378.378.602.524.234.153.482.282.741.385a17.133 17.133 0 0 0 .919.306 48.42 48.42 0 0 1 .869.277c.138.046.273.089.405.129.177.062.349.138.514.227.145.077.28.17.405.276a1.011 1.011 0 0 1 .346.78.984.984 0 0 1-.327.781 1.892 1.892 0 0 1-.85.405c-.366.081-.74.12-1.115.119a5.54 5.54 0 0 1-.702-.05 10.053 10.053 0 0 1-.81-.138c-.283-.06-.573-.132-.87-.217-.296-.086-.595-.181-.898-.287l.079 1.68c.342.118.655.214.939.286.283.073.553.135.81.188.247.051.498.084.75.099.244.013.49.02.741.02.551.002 1.101-.054 1.64-.168a4.237 4.237 0 0 0 1.343-.524c.374-.228.684-.548.9-.929a2.71 2.71 0 0 0 .325-1.363 2.757 2.757 0 0 0-.167-1.018 2.32 2.32 0 0 0-.465-.74ZM110.465 9.333a4.245 4.245 0 0 0-2.361-.622 6.02 6.02 0 0 0-1.462.188 6.342 6.342 0 0 0-1.758.745v-.913l-2.016.316v14.107h2.016V18.73l.039.018c.365.152.746.261 1.136.326.46.076.926.112 1.393.109.89.015 1.767-.21 2.539-.652a4.695 4.695 0 0 0 1.778-1.887c.467-.934.694-1.97.662-3.013a6.143 6.143 0 0 0-.503-2.569 3.976 3.976 0 0 0-1.463-1.729Zm-.523 6.61c-.238.524-.636.96-1.137 1.244a3.646 3.646 0 0 1-1.807.415 5.614 5.614 0 0 1-1.818-.296c-.095-.033-.198-.07-.296-.107v-6.235c.026-.013.053-.028.079-.04.289-.132.559-.244.81-.336a4.048 4.048 0 0 1 1.402-.257c.61-.02 1.214.112 1.759.385.476.26.849.675 1.057 1.176.251.641.369 1.327.346 2.015.021.7-.114 1.395-.395 2.035ZM119.01 8.858c-.37.1-.722.253-1.047.455-.337.21-.649.459-.929.74-.046.047-.092.1-.138.149V8.73l-2.016.296v9.978h2.016V11.54a5.187 5.187 0 0 1 1.077-.577 6.83 6.83 0 0 1 .622-.208 4.23 4.23 0 0 1 1.383-.148l.237-1.857a3.757 3.757 0 0 0-1.205.108ZM130.608 17.76a.9.9 0 0 1-.77-.316 1.696 1.696 0 0 1-.218-1.047l.04-4.07a4.774 4.774 0 0 0-.158-1.265 3.115 3.115 0 0 0-.474-1.008 2.676 2.676 0 0 0-.82-.73 4.194 4.194 0 0 0-1.196-.455 7.029 7.029 0 0 0-1.561-.158c-.416 0-.832.026-1.244.079a8.54 8.54 0 0 0-1.156.227c-.352.096-.699.211-1.038.346l-.237 1.68a11.643 11.643 0 0 1 1.798-.495c.271-.051.545-.088.82-.108.27-.02.537-.03.8-.03a4.43 4.43 0 0 1 1.196.138c.285.072.546.214.761.415.19.196.326.438.395.702.084.326.124.661.118.998l-.002.495-2.309.157a6.13 6.13 0 0 0-2.292.513 3.282 3.282 0 0 0-1.354 1.097 2.55 2.55 0 0 0-.444 1.452c-.004.486.115.965.345 1.393.242.44.606.8 1.048 1.037a3.52 3.52 0 0 0 1.748.395 4.55 4.55 0 0 0 1.67-.276c.462-.181.884-.45 1.244-.79.137-.132.267-.27.389-.415.038.205.111.402.214.582.176.303.447.539.771.672.357.144.74.214 1.126.208a5.9 5.9 0 0 0 .346-.01c.11-.007.219-.023.326-.05l.286-.069c.077-.017.153-.04.227-.069l.218-1.324a1.742 1.742 0 0 1-.336.08 2.269 2.269 0 0 1-.277.02Zm-3.29-.889c-.214.17-.446.315-.691.435a3.128 3.128 0 0 1-.77.256c-.277.054-.558.08-.84.08a2.23 2.23 0 0 1-.939-.178 1.294 1.294 0 0 1-.583-.504 1.472 1.472 0 0 1-.197-.78c-.019-.33.071-.656.257-.93.215-.25.506-.424.829-.493a6.014 6.014 0 0 1 1.542-.158h1.73l-.009 1.96c-.1.114-.21.218-.329.312ZM124.295 7.13c.374.177.783.265 1.196.257.423.008.843-.083 1.225-.267.344-.167.635-.427.84-.75.211-.348.317-.75.306-1.156a2.037 2.037 0 0 0-.652-1.58 2.402 2.402 0 0 0-1.68-.594 2.86 2.86 0 0 0-1.195.247 1.963 1.963 0 0 0-.859.741c-.22.363-.33.782-.317 1.205-.013.41.093.816.307 1.166.203.316.491.569.829.731Zm.317-2.845a1.261 1.261 0 0 1 .918-.316c.245-.011.488.047.702.168.172.106.31.26.395.444.088.2.132.415.128.633.004.218-.043.435-.138.632-.089.182-.23.333-.405.435-.215.114-.458.169-.701.158a1.487 1.487 0 0 1-.672-.139.898.898 0 0 1-.415-.415 1.483 1.483 0 0 1-.138-.671 1.222 1.222 0 0 1 .326-.929ZM139.183 19.005h2.608l-4.793-5.4 4.694-4.677h-2.47l-3.381 3.715h-.728V4.088l-2.016.296v14.62h2.016v-4.84h.033l4.037 4.84Z"/></svg>