<svg xmlns="http://www.w3.org/2000/svg" viewBox="0 0 57 24"><path fill="#064E42" d="M0 0h57v24H0z"/><path fill="#fff" d="M6.004 18V6.001h3.937V18H6.004Zm9.294-10.09L17.562 18h-4.309L10.55 6.001h2.416a2.276 2.276 0 0 1 1.513.55c.42.345.71.826.82 1.36ZM18.154 18V6.001h3.937V18h-3.937Zm6.91-7.436a2.382 2.382 0 0 1-2.4-2.4 2.303 2.303 0 0 1 .323-1.2 2.411 2.411 0 0 1 3.278-.861c.355.209.652.506.861.861.215.363.326.778.322 1.2a2.4 2.4 0 0 1-1.183 2.079 2.303 2.303 0 0 1-1.2.321ZM28.057 18V6.001h3.937V18h-3.937Zm8.922-5.442c.011.012.096.15.253.414.158.265.364.603.617 1.014a327.152 327.152 0 0 1 1.597 2.62c.247.411.529.876.845 1.394h-4.326c-.27-.44-.516-.837-.735-1.191-.22-.355-.453-.738-.7-1.15-.249-.41-.494-.81-.737-1.2-.242-.389-.45-.73-.625-1.022-.175-.293-.296-.49-.363-.591a1.75 1.75 0 0 1-.287-.845c.017-.29.11-.57.27-.812.068-.113.191-.313.372-.6a182.106 182.106 0 0 0 1.37-2.23c.247-.412.48-.798.7-1.158l.735-1.2h4.326l-3.346 5.458a1.078 1.078 0 0 0-.17.542c.012.201.082.395.203.557h.001Z"/><path fill="#BEF7ED" d="M51.117 13.504a2.661 2.661 0 0 0-.54-.912 2.63 2.63 0 0 0-.888-.626 4.281 4.281 0 0 0-1.208-.32v-.051c.506-.161.976-.416 1.386-.752.366-.3.668-.671.887-1.09.208-.402.315-.849.313-1.301a2.34 2.34 0 0 0-.254-1.107 2.356 2.356 0 0 0-.743-.828A3.45 3.45 0 0 0 48.88 6a6.844 6.844 0 0 0-1.597-.168 7.704 7.704 0 0 0-1.056.076c-.362.05-.72.123-1.073.22a4.99 4.99 0 0 0-.98.38l.236 1.334a9.41 9.41 0 0 1 .719-.262 6.782 6.782 0 0 1 1.293-.279 5.35 5.35 0 0 1 .59-.033 4.81 4.81 0 0 1 1.066.101c.253.051.494.152.709.296.175.123.313.293.397.49.09.223.133.461.127.701a1.96 1.96 0 0 1-.228.946 2.19 2.19 0 0 1-.642.727 3.16 3.16 0 0 1-.989.473 4.471 4.471 0 0 1-1.267.17h-.321l-.203 1.317h.541a7.58 7.58 0 0 1 1.487.127c.367.065.719.197 1.039.388.262.16.475.388.617.66.14.292.21.613.202.937.01.328-.054.654-.185.955a1.628 1.628 0 0 1-.567.659c-.292.19-.62.323-.962.389-.454.09-.915.133-1.378.126-.169 0-.335-.005-.498-.017a7.887 7.887 0 0 1-1.081-.144c-.198-.039-.414-.086-.651-.143l-.22 1.436c.248.046.487.088.718.127.232.04.46.074.684.102a9.71 9.71 0 0 0 1.285.076 8.327 8.327 0 0 0 1.605-.144c.45-.084.885-.232 1.293-.44.356-.18.676-.423.946-.717a2.86 2.86 0 0 0 .574-.972c.135-.394.2-.809.195-1.225a3.468 3.468 0 0 0-.187-1.166Z"/></svg>