<svg xmlns="http://www.w3.org/2000/svg" viewBox="0 0 57 24"><path fill="#78003D" d="M0 0h57v24H0z"/><path fill="#fff" d="M6.004 18V6.001h3.937V18H6.004Zm9.294-10.09L17.562 18h-4.309L10.55 6.001h2.416a2.276 2.276 0 0 1 1.513.55c.42.345.71.826.82 1.36ZM18.154 18V6.001h3.937V18h-3.937Zm6.91-7.436a2.381 2.381 0 0 1-2.4-2.4 2.303 2.303 0 0 1 .323-1.2 2.411 2.411 0 0 1 3.278-.861c.355.209.652.506.861.861.215.364.326.779.322 1.2a2.4 2.4 0 0 1-1.183 2.079 2.303 2.303 0 0 1-1.2.321ZM28.057 18V6.001h3.937V18h-3.937Zm8.922-5.442c.011.012.096.15.253.414.158.265.364.603.617 1.014a327.152 327.152 0 0 1 1.597 2.62c.247.411.529.876.845 1.394h-4.326c-.27-.44-.516-.837-.735-1.191-.22-.355-.453-.738-.7-1.15-.249-.41-.494-.81-.737-1.2-.242-.389-.45-.73-.625-1.022-.175-.293-.296-.49-.363-.591a1.75 1.75 0 0 1-.287-.845c.017-.29.11-.57.27-.812.068-.113.191-.313.372-.6a182.36 182.36 0 0 0 1.37-2.23c.247-.412.48-.798.7-1.158l.735-1.2h4.326l-3.346 5.458a1.079 1.079 0 0 0-.17.542c.012.201.082.395.203.557h.001Z"/><path fill="#FDAFD7" d="M46.263 16.554c.267-.23.542-.468.833-.726.405-.36.814-.752 1.225-1.175a20.05 20.05 0 0 0 1.174-1.318c.361-.44.691-.907.989-1.393.277-.453.504-.934.675-1.437.16-.462.243-.947.245-1.436a3.117 3.117 0 0 0-.27-1.326 2.86 2.86 0 0 0-.794-1.014 3.624 3.624 0 0 0-1.31-.659 6.466 6.466 0 0 0-1.799-.228 6.648 6.648 0 0 0-1.174.102 6.11 6.11 0 0 0-1.082.295 7.291 7.291 0 0 0-.97.448l.219 1.47c.267-.18.554-.33.853-.448a5.98 5.98 0 0 1 1.006-.304c.35-.073.706-.11 1.064-.11.374-.007.748.044 1.107.152.285.088.548.238.768.44.199.185.352.413.448.667.098.268.147.551.144.836a3.748 3.748 0 0 1-.287 1.394 7.414 7.414 0 0 1-.811 1.47c-.38.538-.791 1.051-1.234 1.538a26.86 26.86 0 0 1-1.546 1.571 129.48 129.48 0 0 1-1.732 1.597l.22 1.047h7.316l.203-1.453h-5.48Z"/></svg>