<svg xmlns="http://www.w3.org/2000/svg" viewBox="0 0 76 28"><path fill="#1767CE" d="M0 0h75.333v28H0z"/><path fill="#fff" d="M6.667 21V7.001h4.593V21H6.667ZM17.509 9.23 20.151 21h-5.027L11.97 7.001h2.82a2.655 2.655 0 0 1 1.764.641c.491.404.829.964.956 1.587ZM20.841 21V7.001h4.594V21H20.84Zm8.063-8.675a2.78 2.78 0 0 1-2.425-1.39 2.737 2.737 0 0 1-.374-1.41 2.686 2.686 0 0 1 .374-1.4 2.813 2.813 0 0 1 3.825-1.005c.415.244.76.59 1.005 1.005.25.424.38.908.375 1.4.005.495-.125.982-.375 1.41a2.8 2.8 0 0 1-1.005 1.015c-.424.25-.908.38-1.4.375ZM32.394 21V7.001h4.593V21h-4.593Zm10.409-6.349c.013.014.111.175.296.483.184.309.424.703.719 1.183a373.133 373.133 0 0 1 1.863 3.056c.288.48.617 1.022.986 1.627H41.62l-.858-1.39c-.256-.414-.529-.861-.817-1.34-.29-.48-.576-.947-.859-1.4a71.148 71.148 0 0 1-.729-1.194 20.758 20.758 0 0 0-.424-.69 2.04 2.04 0 0 1-.335-.985c.02-.338.129-.665.315-.947.08-.132.224-.365.434-.7a210.264 210.264 0 0 0 1.598-2.602l.817-1.351.858-1.4h5.047l-3.904 6.368c-.12.19-.189.407-.197.632.013.235.095.461.236.65Z"/><path fill="#D4EEFC" fill-rule="evenodd" d="M66.876 21.542A10.666 10.666 0 1 0 51.792 6.458a10.666 10.666 0 0 0 15.084 15.084ZM63.263 9.294l-3.42 1.852.002-.003a.208.208 0 0 0-.084.28l.013.024a.207.207 0 0 0 .28.084l2.431-1.314a.503.503 0 0 1 .686.182.503.503 0 0 1-.223.673l-2.406 1.301a.23.23 0 0 0-.104.307.23.23 0 0 0 .314.08l.659-.356.06-.033 1.084-.587a.503.503 0 0 1 .686.182.504.504 0 0 1-.223.674l-1.619.875-.26.14a.736.736 0 0 0-.819-.47l-2.949.562c-.086.02-.169.052-.247.092a2.592 2.592 0 0 1-.578-3.085c.002-.003.002-.007.002-.01l1.236-2.754a.503.503 0 0 1 .656-.271.505.505 0 0 1 .233.671l-.4.89.647-.349.014-.006a.077.077 0 0 0 .017-.007l.013-.009a.133.133 0 0 1 .016-.01l2.618-1.417a.503.503 0 0 1 .686.182.503.503 0 0 1-.223.674L59.171 9.9a.207.207 0 0 0-.084.28l.013.024a.207.207 0 0 0 .28.083l3.42-1.85a.503.503 0 0 1 .686.183.503.503 0 0 1-.223.673Zm-3.923 6.912 3.485 1.712a.503.503 0 0 1 .249.663.502.502 0 0 1-.677.21l-3.484-1.713a.207.207 0 0 0-.276.094l-.013.025a.207.207 0 0 0 .095.276l2.479 1.218a.503.503 0 0 1 .248.663.502.502 0 0 1-.677.208l-2.452-1.204a.229.229 0 0 0-.31.093.23.23 0 0 0 .117.302l1.837.903a.502.502 0 0 1 .249.663.503.503 0 0 1-.677.208l-1.65-.81s-1.496-.748-1.533-.781a2.598 2.598 0 0 1-.165-4.293 2.588 2.588 0 0 1 1.142-.475l.005-.002 2.956-.588a.5.5 0 0 1 .6.376.504.504 0 0 1-.411.578l-.956.19.659.324a.077.077 0 0 1 .012.008l.016.01.014.005a.172.172 0 0 1 .02.007l2.666 1.311a.503.503 0 0 1 .248.663.503.503 0 0 1-.677.208l-2.945-1.447a.207.207 0 0 0-.276.095l-.012.024a.207.207 0 0 0 .094.276Z" clip-rule="evenodd"/></svg>