<svg xmlns="http://www.w3.org/2000/svg" viewBox="0 0 56 24"><path fill="#fff" d="M0 18.006v-12h3.937v12H0Zm9.294-10.09 2.264 10.09H7.25l-2.704-12h2.417a2.276 2.276 0 0 1 1.513.55c.42.346.71.826.819 1.36Zm2.855 10.09v-12h3.938v12h-3.938Zm6.912-7.436a2.381 2.381 0 0 1-2.078-1.192 2.345 2.345 0 0 1-.322-1.208 2.301 2.301 0 0 1 .321-1.2 2.41 2.41 0 0 1 3.278-.862c.356.21.653.506.862.862.215.363.326.778.321 1.2a2.35 2.35 0 0 1-.321 1.208 2.4 2.4 0 0 1-.862.87 2.302 2.302 0 0 1-1.2.322Zm2.99 7.436v-12h3.938v12h-3.937Zm8.923-5.442c.01.012.095.15.253.414s.364.603.617 1.014a309.436 309.436 0 0 1 1.597 2.62c.247.411.529.876.845 1.394H29.96c-.27-.44-.516-.837-.736-1.192-.22-.355-.453-.738-.7-1.149-.248-.41-.493-.81-.736-1.2a60.12 60.12 0 0 1-.625-1.022 18.04 18.04 0 0 0-.363-.592 1.747 1.747 0 0 1-.287-.845c.016-.29.11-.57.27-.811.067-.113.191-.313.371-.6s.392-.628.634-1.023c.242-.394.488-.797.736-1.208l.7-1.158.736-1.2h4.326l-3.346 5.46a1.079 1.079 0 0 0-.17.54c.012.202.082.396.203.558Z"/><circle cx="46.143" cy="12.006" r="8.857" fill="#fff"/><path fill="#1767CE" fill-rule="evenodd" d="M52.608 18.47a9.142 9.142 0 1 0-12.93-12.929 9.142 9.142 0 0 0 12.93 12.93ZM49.51 7.973 46.58 9.56l.001-.002a.178.178 0 0 0-.072.24l.012.02a.177.177 0 0 0 .24.072l2.083-1.126a.432.432 0 0 1 .588.156.432.432 0 0 1-.19.577l-2.063 1.116a.196.196 0 0 0-.09.262.197.197 0 0 0 .27.07l.564-.306.052-.029.93-.503a.432.432 0 0 1 .587.156.432.432 0 0 1-.19.578l-1.389.75-.223.12a.631.631 0 0 0-.701-.403l-2.528.482a.926.926 0 0 0-.212.08 2.22 2.22 0 0 1-.495-2.645c.002-.003.002-.006.002-.009l1.06-2.36a.431.431 0 0 1 .56-.233.433.433 0 0 1 .2.575l-.342.764.554-.3a.07.07 0 0 1 .013-.005c.004-.002.01-.003.014-.006l.01-.008a.123.123 0 0 1 .015-.01l2.244-1.213a.431.431 0 0 1 .588.156.432.432 0 0 1-.191.577l-2.478 1.34a.178.178 0 0 0-.071.24l.01.021a.178.178 0 0 0 .241.071l2.931-1.585a.432.432 0 0 1 .588.156.432.432 0 0 1-.19.577Zm-3.363 5.925 2.988 1.467a.43.43 0 0 1 .213.569.43.43 0 0 1-.58.179l-2.987-1.468a.178.178 0 0 0-.236.08l-.01.022a.177.177 0 0 0 .08.236l2.125 1.044a.431.431 0 0 1 .213.569.43.43 0 0 1-.58.179l-2.102-1.033a.196.196 0 0 0-.265.08.196.196 0 0 0 .099.259l1.575.774a.43.43 0 0 1 .213.568.43.43 0 0 1-.58.179l-1.414-.695s-1.282-.641-1.314-.67a2.227 2.227 0 0 1-.142-3.68 2.217 2.217 0 0 1 .979-.406l.004-.002 2.534-.504a.431.431 0 0 1 .514.323.432.432 0 0 1-.352.495l-.82.163.565.277a.066.066 0 0 1 .01.007l.015.009a.19.19 0 0 0 .011.004l.017.006 2.286 1.124a.43.43 0 0 1 .213.568.431.431 0 0 1-.58.179l-2.525-1.24a.177.177 0 0 0-.237.08l-.01.021a.177.177 0 0 0 .08.237Z" clip-rule="evenodd"/></svg>