<svg xmlns="http://www.w3.org/2000/svg" viewBox="0 0 54 24"><path fill="#0A2343" d="M0 0h54v24H0z"/><path fill="#fff" d="M6.004 18V6h3.937V18H6.004Zm9.294-10.09L17.562 18h-4.309L10.55 6h2.416a2.276 2.276 0 0 1 1.513.55c.42.345.71.826.82 1.36ZM18.154 18V6h3.937V18h-3.937Zm6.91-7.436a2.381 2.381 0 0 1-2.4-2.4 2.303 2.303 0 0 1 .323-1.2 2.411 2.411 0 0 1 3.278-.862c.355.21.652.506.861.862.215.363.326.778.322 1.2a2.4 2.4 0 0 1-1.183 2.079 2.303 2.303 0 0 1-1.2.321ZM28.057 18V6h3.937V18h-3.937Zm8.922-5.442c.011.012.096.15.253.414.158.265.364.603.617 1.014a327.152 327.152 0 0 1 1.597 2.62c.247.411.529.876.845 1.394h-4.326c-.27-.44-.516-.837-.735-1.192-.22-.354-.453-.738-.7-1.149-.249-.41-.494-.81-.737-1.2-.242-.389-.45-.73-.625-1.022a18.04 18.04 0 0 0-.363-.591 1.75 1.75 0 0 1-.287-.845c.017-.29.11-.57.27-.812.068-.113.191-.313.372-.6a182.106 182.106 0 0 0 1.37-2.23c.247-.412.48-.798.7-1.158l.735-1.2h4.326l-3.346 5.458a1.079 1.079 0 0 0-.17.542c.012.201.082.395.203.557h.001Z"/><path fill="#8BB5EB" d="M47.094 6c-.27.135-.527.268-.769.397-.242.13-.479.25-.71.363-.23.113-.464.226-.701.338a8.242 8.242 0 0 1-.727.305c-.248.09-.512.18-.794.27l.372 1.437c.338-.102.645-.203.921-.305.27-.098.535-.211.794-.338.254-.124.507-.259.76-.405l.01-.005V18h1.757V6h-.913Z"/></svg>