<svg xmlns="http://www.w3.org/2000/svg" viewBox="0 0 142 24"><path fill="#0A2343" d="M0 18.667v-14h4.593v14H0ZM10.843 6.896l2.641 11.77H8.457L5.303 4.669h2.82a2.655 2.655 0 0 1 1.764.64c.491.404.829.965.956 1.588Zm3.331 11.77V4.669h4.594v13.999h-4.594Zm8.063-8.675a2.737 2.737 0 0 1-1.409-.374A2.778 2.778 0 0 1 19.813 8.6a2.735 2.735 0 0 1-.375-1.41 2.685 2.685 0 0 1 .375-1.4 2.812 2.812 0 0 1 3.824-1.005c.415.245.761.59 1.005 1.006.251.423.38.908.375 1.4.005.495-.125.982-.375 1.41a2.8 2.8 0 0 1-1.005 1.015c-.424.25-.908.38-1.4.374Zm3.49 8.676v-14h4.594v14h-4.594Zm10.409-6.35c.013.014.111.175.296.484.184.308.424.703.72 1.183a384.573 384.573 0 0 1 1.862 3.056c.289.48.617 1.022.986 1.627h-5.047l-.858-1.39c-.256-.414-.529-.861-.817-1.341-.29-.48-.576-.946-.858-1.4a71.148 71.148 0 0 1-.73-1.193 21.119 21.119 0 0 0-.424-.69 2.04 2.04 0 0 1-.334-.986c.019-.338.128-.664.315-.946.078-.132.223-.365.433-.7a216.7 216.7 0 0 0 1.598-2.603l.817-1.35.858-1.4H40l-3.904 6.368c-.12.19-.189.407-.197.631.013.236.095.462.236.65h.001Z"/><path fill="#1767CE" d="M45.333 6.385h4.525v12.29h2.075V6.385h4.505V4.647H45.333v1.738ZM65.961 9.873a3.585 3.585 0 0 0-1.452-1.117 5.073 5.073 0 0 0-2.006-.375 4.912 4.912 0 0 0-2.015.395 4.306 4.306 0 0 0-1.511 1.107 4.84 4.84 0 0 0-.95 1.709 7.14 7.14 0 0 0-.325 2.222 5.982 5.982 0 0 0 .583 2.757 3.863 3.863 0 0 0 1.729 1.719 6.145 6.145 0 0 0 2.805.582 9.65 9.65 0 0 0 1.393-.088 6.668 6.668 0 0 0 1.136-.267 7.352 7.352 0 0 0 1.067-.455l.139-1.521-.761.277a9.493 9.493 0 0 1-.8.247 5.992 5.992 0 0 1-.85.158 7.67 7.67 0 0 1-.869.049 6.234 6.234 0 0 1-1.541-.168 2.528 2.528 0 0 1-1.097-.573 2.496 2.496 0 0 1-.672-1.096 5 5 0 0 1-.215-1.305h7.14a7.57 7.57 0 0 0-.108-2.45 4.618 4.618 0 0 0-.82-1.807Zm-4.979.474a2.8 2.8 0 0 1 1.54-.405 2.416 2.416 0 0 1 1.522.444c.394.314.675.748.8 1.235.099.36.147.733.145 1.107h-5.197c.037-.394.121-.782.251-1.156.169-.501.5-.932.939-1.225ZM75.692 8.638a7.144 7.144 0 0 0-.92-.188 7.76 7.76 0 0 0-1.066-.07 4.782 4.782 0 0 0-1.877.376 4.963 4.963 0 0 0-1.591 1.077 4.874 4.874 0 0 0-1.097 1.739 6.66 6.66 0 0 0-.395 2.38c-.021.893.15 1.78.504 2.599.31.7.822 1.293 1.472 1.699a4.36 4.36 0 0 0 2.351.603 5.698 5.698 0 0 0 2.114-.415 5 5 0 0 0 1.126-.64v.54a4.17 4.17 0 0 1-.187 1.315 2.39 2.39 0 0 1-.573.948 2.36 2.36 0 0 1-1.008.573 5.288 5.288 0 0 1-1.512.188c-.406 0-.811-.024-1.214-.07a8.63 8.63 0 0 1-1.255-.236 9.617 9.617 0 0 1-1.245-.425l.217 1.739a8.5 8.5 0 0 0 1.117.365c.4.101.805.177 1.215.227.432.053.868.08 1.304.08a6.374 6.374 0 0 0 2.825-.564 3.96 3.96 0 0 0 1.729-1.56c.398-.701.6-1.497.583-2.302V8.38l-1.933.497a5.764 5.764 0 0 0-.684-.24Zm.365 7.913a6.23 6.23 0 0 1-.76.375c-.231.095-.47.171-.712.228-.237.053-.478.08-.721.079a3.436 3.436 0 0 1-1.71-.386 2.314 2.314 0 0 1-1.007-1.166 5.253 5.253 0 0 1-.326-2.005 5.224 5.224 0 0 1 .227-1.61c.13-.429.352-.824.652-1.156.293-.31.65-.549 1.047-.701.451-.171.93-.255 1.413-.247.311 0 .622.026.929.079.314.055.624.13.929.227.096.03.197.07.296.107V16.4l-.257.152ZM89.117 8.796a3.888 3.888 0 0 0-1.897-.415 5.55 5.55 0 0 0-1.69.267 6.421 6.421 0 0 0-1.59.76c-.19.126-.374.264-.553.405V8.401l-2.015.296v9.978h2.015V11.17c.195-.114.396-.218.603-.31a9.08 9.08 0 0 1 .85-.327c.277-.09.56-.16.849-.207.27-.045.545-.068.82-.07.322-.007.643.044.948.15.252.09.476.243.652.444.182.218.31.474.376.75.084.35.124.708.118 1.067v6.007h2.015v-6.421a5.474 5.474 0 0 0-.375-2.194 2.59 2.59 0 0 0-1.126-1.264ZM99.845 14.13a2.974 2.974 0 0 0-.691-.543 5.372 5.372 0 0 0-.83-.385c-.211-.066-.419-.135-.623-.208a11.02 11.02 0 0 0-.612-.197c-.205-.06-.402-.122-.593-.188a4.358 4.358 0 0 1-.524-.217 3.455 3.455 0 0 1-.464-.297 1.297 1.297 0 0 1-.336-.375.95.95 0 0 1-.128-.494c-.006-.19.042-.379.138-.543.103-.162.246-.295.415-.386.207-.113.43-.193.662-.237.29-.055.584-.082.88-.079a6.42 6.42 0 0 1 1.037.09c.204.032.408.075.612.128.204.052.411.112.623.177.195.06.386.133.572.218l.139-1.6a9.416 9.416 0 0 0-.741-.277 7.26 7.26 0 0 0-.741-.198 5.935 5.935 0 0 0-.741-.108 8.93 8.93 0 0 0-.721-.03 6.512 6.512 0 0 0-1.62.188c-.454.11-.885.297-1.275.553a2.517 2.517 0 0 0-.84.928 2.822 2.822 0 0 0-.296 1.334c-.006.333.048.664.158.978.094.264.235.508.415.721.176.202.379.378.603.524.233.153.482.282.741.385a17.773 17.773 0 0 0 .919.306 46.344 46.344 0 0 1 .869.277c.138.046.273.089.405.129.177.062.348.138.513.227.146.076.282.17.406.276a1.012 1.012 0 0 1 .346.78.984.984 0 0 1-.327.781 1.892 1.892 0 0 1-.85.405c-.366.081-.74.12-1.115.119a5.58 5.58 0 0 1-.702-.05 10.058 10.058 0 0 1-.81-.138c-.283-.06-.573-.132-.87-.217-.296-.086-.595-.181-.898-.287l.079 1.68c.342.118.655.214.938.286.284.073.554.135.81.188.248.051.499.084.751.099.244.013.49.02.741.02.551.002 1.1-.054 1.64-.169a4.238 4.238 0 0 0 1.343-.523c.374-.228.684-.548.9-.929a2.71 2.71 0 0 0 .325-1.363 2.737 2.737 0 0 0-.168-1.018 2.298 2.298 0 0 0-.464-.74ZM110.465 9.003a4.245 4.245 0 0 0-2.361-.622 6.02 6.02 0 0 0-1.462.188 6.342 6.342 0 0 0-1.759.745v-.913l-2.015.316v14.107h2.015V18.4l.04.018c.365.152.746.261 1.136.326.46.076.926.112 1.393.109.89.015 1.767-.21 2.539-.652a4.695 4.695 0 0 0 1.778-1.887c.467-.934.694-1.97.662-3.013a6.159 6.159 0 0 0-.503-2.569 3.976 3.976 0 0 0-1.463-1.729Zm-.523 6.61c-.238.524-.636.96-1.137 1.244a3.647 3.647 0 0 1-1.807.415 5.599 5.599 0 0 1-1.818-.296c-.095-.033-.198-.07-.297-.107v-6.235c.027-.013.053-.028.079-.04.29-.132.56-.244.811-.336a4.048 4.048 0 0 1 1.402-.257 3.658 3.658 0 0 1 1.759.385c.476.26.849.675 1.057 1.176.251.641.369 1.327.346 2.015.021.7-.114 1.395-.395 2.035ZM119.01 8.528c-.37.1-.722.253-1.047.455a5.16 5.16 0 0 0-.929.74c-.046.047-.092.1-.138.149V8.4l-2.016.296v9.978h2.016V11.21a5.204 5.204 0 0 1 1.077-.577 6.86 6.86 0 0 1 .622-.208 4.23 4.23 0 0 1 1.383-.148l.237-1.857a3.757 3.757 0 0 0-1.205.108ZM130.608 17.43a.9.9 0 0 1-.77-.316 1.695 1.695 0 0 1-.218-1.047l.04-4.07a4.774 4.774 0 0 0-.158-1.265 3.095 3.095 0 0 0-.475-1.008 2.66 2.66 0 0 0-.819-.73 4.206 4.206 0 0 0-1.196-.455 7.029 7.029 0 0 0-1.561-.158c-.416 0-.832.026-1.244.079a8.51 8.51 0 0 0-1.156.227c-.352.096-.699.211-1.038.346l-.237 1.68a11.643 11.643 0 0 1 1.798-.495c.271-.051.545-.088.82-.108.27-.02.537-.03.8-.03.403-.008.805.038 1.196.138.285.072.546.214.76.415.191.196.327.438.396.702.084.325.124.661.118.997l-.002.496-2.31.157a6.13 6.13 0 0 0-2.291.513 3.28 3.28 0 0 0-1.354 1.097 2.55 2.55 0 0 0-.444 1.452c-.004.486.115.965.345 1.393.242.44.606.8 1.048 1.037.539.28 1.141.417 1.748.395a4.55 4.55 0 0 0 1.67-.276 3.85 3.85 0 0 0 1.244-.79c.137-.132.267-.27.389-.415.038.205.111.402.214.582.176.303.447.539.771.672.357.144.74.214 1.126.208.118 0 .234-.004.346-.01.109-.007.219-.023.326-.05l.286-.069c.077-.017.153-.04.227-.069l.218-1.324a1.742 1.742 0 0 1-.336.08 2.289 2.289 0 0 1-.277.02Zm-3.29-.89c-.214.17-.446.316-.691.436a3.142 3.142 0 0 1-.77.257c-.277.053-.559.08-.84.078a2.23 2.23 0 0 1-.939-.177 1.294 1.294 0 0 1-.583-.504 1.473 1.473 0 0 1-.197-.78 1.5 1.5 0 0 1 .256-.93c.216-.25.507-.424.83-.493a6.015 6.015 0 0 1 1.541-.158h1.731l-.009 1.96c-.101.114-.21.218-.329.312ZM124.295 6.8c.374.177.783.265 1.196.257.423.008.843-.083 1.225-.267.344-.167.635-.427.839-.75a2.11 2.11 0 0 0 .307-1.156 2.037 2.037 0 0 0-.652-1.58 2.402 2.402 0 0 0-1.68-.594 2.86 2.86 0 0 0-1.195.247 1.97 1.97 0 0 0-.86.741 2.202 2.202 0 0 0-.316 1.205c-.013.41.093.816.307 1.166.203.316.491.569.829.731Zm.317-2.845a1.262 1.262 0 0 1 .918-.316c.245-.011.488.047.702.168.172.106.31.26.395.444.088.2.132.415.128.633.004.218-.043.435-.138.632-.089.182-.23.333-.405.435-.216.114-.458.169-.701.158a1.487 1.487 0 0 1-.672-.139.898.898 0 0 1-.415-.415 1.483 1.483 0 0 1-.138-.671 1.222 1.222 0 0 1 .326-.929ZM139.183 18.675h2.608l-4.793-5.4 4.694-4.677h-2.47l-3.381 3.715h-.728V3.757l-2.016.297v14.62h2.016v-4.84h.033l4.037 4.84Z"/></svg>