<svg xmlns="http://www.w3.org/2000/svg" viewBox="0 0 54 16"><path fill="#0A2343" d="M0 15V1.001h4.593V15H0ZM10.843 3.23 13.484 15H8.457L5.303 1.001h2.82a2.655 2.655 0 0 1 1.764.641c.491.404.829.964.956 1.587ZM14.174 15V1.001h4.594V15h-4.594Zm8.063-8.675a2.737 2.737 0 0 1-1.409-.375 2.778 2.778 0 0 1-1.015-1.015 2.735 2.735 0 0 1-.375-1.41 2.685 2.685 0 0 1 .375-1.4 2.812 2.812 0 0 1 3.824-1.005c.415.244.761.59 1.005 1.005.251.424.38.908.375 1.4.005.495-.125.982-.375 1.41a2.8 2.8 0 0 1-1.005 1.015c-.424.251-.908.38-1.4.375ZM25.727 15V1.001h4.594V15h-4.594Zm10.409-6.349c.013.014.111.175.296.483.184.309.424.703.72 1.183a377.481 377.481 0 0 1 1.862 3.056c.289.48.617 1.023.986 1.627h-5.047l-.858-1.39c-.256-.414-.529-.861-.817-1.34-.29-.48-.576-.947-.858-1.4a71.104 71.104 0 0 1-.73-1.193 21.1 21.1 0 0 0-.424-.69A2.04 2.04 0 0 1 30.932 8c.019-.338.128-.665.315-.947.078-.131.223-.365.433-.7a216.97 216.97 0 0 0 1.598-2.603l.817-1.35.858-1.4H40l-3.904 6.368c-.12.19-.189.407-.197.632.013.235.095.461.236.65h.001Z"/><path fill="#0C551F" d="M53.632 9.755a3.104 3.104 0 0 0-.63-1.065 3.067 3.067 0 0 0-1.036-.73 4.998 4.998 0 0 0-1.41-.374v-.059a4.887 4.887 0 0 0 1.617-.877c.427-.35.779-.783 1.035-1.272.242-.469.368-.99.365-1.518a2.727 2.727 0 0 0-.296-1.291 2.749 2.749 0 0 0-.867-.966 4.025 4.025 0 0 0-1.39-.601 7.984 7.984 0 0 0-1.863-.197c-.412 0-.824.03-1.232.088-.422.059-.84.144-1.252.257-.395.107-.779.255-1.143.443l.276 1.558c.289-.119.568-.22.838-.306a7.912 7.912 0 0 1 1.508-.325c.23-.026.46-.04.69-.04a5.61 5.61 0 0 1 1.242.119c.296.06.577.176.828.345.204.144.365.341.463.571.105.26.155.538.148.818.006.385-.086.765-.266 1.104-.183.335-.439.625-.749.848-.35.25-.74.437-1.153.552-.48.136-.979.203-1.479.197h-.374l-.237 1.538h.631a8.849 8.849 0 0 1 1.735.148c.428.076.839.23 1.212.453.305.186.554.452.72.769.164.34.245.716.236 1.094.01.383-.063.763-.217 1.114a1.9 1.9 0 0 1-.66.769 3.136 3.136 0 0 1-1.123.453 7.648 7.648 0 0 1-1.607.148c-.197 0-.391-.007-.582-.02a10.9 10.9 0 0 1-.601-.059 9.196 9.196 0 0 1-.66-.108c-.23-.046-.483-.102-.76-.168l-.256 1.676c.289.052.568.102.838.148s.536.085.798.118c.263.032.52.055.77.069.25.014.492.02.729.02a9.708 9.708 0 0 0 1.873-.168 5.588 5.588 0 0 0 1.508-.513c.415-.21.789-.494 1.103-.837.297-.33.525-.715.67-1.134.157-.46.234-.943.228-1.43a4.047 4.047 0 0 0-.218-1.36Z"/></svg>