<svg xmlns="http://www.w3.org/2000/svg" viewBox="0 0 83 41"><path fill="#fff" d="M0 18V6.001h3.937V18H0ZM9.294 7.91 11.558 18H7.25L4.545 6.001h2.417a2.276 2.276 0 0 1 1.513.55c.42.345.71.826.819 1.36ZM12.149 18V6.001h3.938V18h-3.938Zm6.912-7.436a2.382 2.382 0 0 1-2.4-2.4 2.301 2.301 0 0 1 .321-1.2 2.41 2.41 0 0 1 3.278-.861c.356.209.653.506.862.861.215.363.326.778.321 1.2a2.35 2.35 0 0 1-.321 1.209 2.4 2.4 0 0 1-.862.87 2.302 2.302 0 0 1-1.2.321ZM22.05 18V6.001h3.938V18h-3.937Zm8.923-5.442c.01.012.095.15.253.414.158.265.364.603.617 1.014a315.936 315.936 0 0 1 1.597 2.62c.247.411.529.876.845 1.394H29.96c-.27-.44-.516-.837-.736-1.191-.22-.355-.453-.738-.7-1.15-.248-.41-.493-.81-.736-1.2-.242-.389-.45-.73-.625-1.022-.175-.293-.296-.49-.363-.591a1.747 1.747 0 0 1-.287-.845c.016-.29.11-.57.27-.812.067-.113.191-.313.371-.6s.392-.628.634-1.022c.242-.395.488-.797.736-1.209l.7-1.157.736-1.2h4.326l-3.346 5.458a1.08 1.08 0 0 0-.17.542c.012.201.082.395.203.557Z"/><path fill="#9FDAF5" d="M.128 24.486h3.87v10.515h1.776V24.486h3.855v-1.488H.128v1.488ZM16.485 27.47a3.068 3.068 0 0 0-1.243-.955 4.342 4.342 0 0 0-1.716-.322 4.204 4.204 0 0 0-1.724.338c-.495.217-.937.54-1.293.947a4.143 4.143 0 0 0-.812 1.462 6.111 6.111 0 0 0-.278 1.902 5.12 5.12 0 0 0 .498 2.359c.321.637.84 1.153 1.48 1.47.749.354 1.572.525 2.4.5a8.26 8.26 0 0 0 1.192-.077c.33-.047.655-.124.972-.228a6.29 6.29 0 0 0 .913-.389l.118-1.302c-.214.08-.431.158-.651.237-.22.079-.448.15-.685.211a5.109 5.109 0 0 1-.727.136 6.574 6.574 0 0 1-.743.042 5.333 5.333 0 0 1-1.32-.144 2.162 2.162 0 0 1-.937-.49 2.136 2.136 0 0 1-.575-.938 4.28 4.28 0 0 1-.184-1.116h6.11c.082-.7.051-1.407-.094-2.096a3.952 3.952 0 0 0-.701-1.547Zm-4.26.405c.396-.24.854-.36 1.318-.346.465-.023.923.11 1.302.38.337.269.577.64.684 1.057.085.308.126.627.124.947h-4.446c.031-.337.103-.67.214-.99.145-.428.427-.797.804-1.047ZM24.81 26.413a6.123 6.123 0 0 0-.785-.16 6.64 6.64 0 0 0-.914-.06 4.093 4.093 0 0 0-1.606.322c-.509.215-.971.528-1.36.921-.416.424-.735.93-.939 1.488a5.695 5.695 0 0 0-.338 2.037 5.29 5.29 0 0 0 .43 2.223c.266.6.705 1.106 1.26 1.454a3.73 3.73 0 0 0 2.012.515 4.876 4.876 0 0 0 1.809-.355c.343-.14.667-.324.963-.547v.463c.008.38-.047.76-.16 1.124a2.044 2.044 0 0 1-.49.811 2.018 2.018 0 0 1-.863.49c-.42.116-.856.17-1.293.161a9.4 9.4 0 0 1-1.04-.059 7.376 7.376 0 0 1-1.073-.203 8.215 8.215 0 0 1-1.065-.363l.186 1.487c.31.127.63.231.955.313.343.087.69.151 1.04.195.37.045.743.068 1.116.067a5.452 5.452 0 0 0 2.417-.482 3.387 3.387 0 0 0 1.48-1.335c.34-.6.512-1.28.498-1.97v-8.757l-1.653.426c-.191-.08-.387-.15-.586-.206Zm.313 6.77a5.34 5.34 0 0 1-.65.322c-.198.081-.402.146-.61.194a2.74 2.74 0 0 1-.616.068 2.94 2.94 0 0 1-1.463-.33 1.98 1.98 0 0 1-.862-.997 4.493 4.493 0 0 1-.279-1.716 4.47 4.47 0 0 1 .194-1.378c.111-.366.302-.704.559-.989.25-.264.556-.47.895-.6a3.263 3.263 0 0 1 1.21-.211c.265 0 .531.022.794.067.269.048.534.113.794.195.083.026.17.06.254.092v5.154c-.074.044-.15.09-.22.13ZM36.297 26.548a3.328 3.328 0 0 0-1.622-.355c-.491.001-.979.078-1.446.229-.481.153-.94.372-1.36.65-.164.108-.32.226-.474.347V26.21l-1.724.254V35h1.724v-6.42c.167-.098.339-.187.515-.266.238-.105.48-.198.728-.279.237-.078.48-.137.726-.177.232-.039.467-.059.702-.06.276-.006.55.037.811.127.216.078.407.209.558.38.155.187.265.407.322.643.072.299.106.605.1.913v5.14h1.725v-5.495a4.686 4.686 0 0 0-.32-1.877 2.217 2.217 0 0 0-.965-1.082ZM45.477 31.113a2.545 2.545 0 0 0-.592-.465 4.586 4.586 0 0 0-.71-.33c-.18-.056-.358-.115-.533-.177a9.4 9.4 0 0 0-.524-.17 10.94 10.94 0 0 1-.507-.16 3.717 3.717 0 0 1-.448-.186 2.945 2.945 0 0 1-.397-.253 1.108 1.108 0 0 1-.287-.322.812.812 0 0 1-.11-.422.876.876 0 0 1 .118-.465.962.962 0 0 1 .355-.33c.177-.097.368-.165.566-.203.248-.047.5-.07.753-.067a5.527 5.527 0 0 1 .887.076c.175.028.35.065.524.11.175.045.352.096.533.152.167.051.33.113.49.186l.119-1.37a8.02 8.02 0 0 0-.634-.236 6.22 6.22 0 0 0-.634-.17 5.073 5.073 0 0 0-.634-.092 7.644 7.644 0 0 0-.617-.026 5.572 5.572 0 0 0-1.387.161 3.485 3.485 0 0 0-1.09.473c-.303.2-.55.474-.719.795a2.415 2.415 0 0 0-.253 1.141c-.005.285.04.568.135.837.08.225.2.434.355.617.15.172.324.323.516.448.2.13.412.241.634.33a14.685 14.685 0 0 0 .786.262 40.99 40.99 0 0 1 .744.236c.118.04.234.076.347.11.15.054.297.119.439.194.124.066.24.146.347.237a.866.866 0 0 1 .295.668.843.843 0 0 1-.279.668 1.62 1.62 0 0 1-.727.346c-.313.07-.633.103-.955.102a4.762 4.762 0 0 1-.6-.042 8.597 8.597 0 0 1-.693-.119c-.242-.051-.49-.113-.744-.186a14.75 14.75 0 0 1-.769-.245l.068 1.437c.292.101.56.183.803.245.242.062.473.116.693.16.212.045.426.073.642.085.209.011.42.017.634.017.472.003.942-.046 1.403-.144a3.627 3.627 0 0 0 1.15-.448c.32-.195.584-.468.77-.794.193-.358.289-.76.278-1.167a2.37 2.37 0 0 0-.144-.87 1.974 1.974 0 0 0-.397-.634ZM54.563 26.726a3.633 3.633 0 0 0-2.02-.533 5.15 5.15 0 0 0-1.25.161 5.428 5.428 0 0 0-1.505.638v-.782l-1.725.27v12.071h1.725v-3.785l.034.015c.312.13.638.224.971.28.394.064.793.095 1.192.092a4.226 4.226 0 0 0 2.173-.558 4.014 4.014 0 0 0 1.521-1.614c.4-.8.594-1.685.566-2.578a5.261 5.261 0 0 0-.43-2.198 3.398 3.398 0 0 0-1.252-1.48Zm-.448 5.655a2.326 2.326 0 0 1-.972 1.065c-.476.25-1.009.372-1.547.355a4.81 4.81 0 0 1-1.809-.345V28.12c.023-.01.046-.024.068-.034.248-.113.479-.209.693-.288a3.472 3.472 0 0 1 1.2-.22 3.128 3.128 0 0 1 1.505.33c.408.222.727.577.905 1.006a4.33 4.33 0 0 1 .296 1.725 4.031 4.031 0 0 1-.339 1.74ZM61.874 26.32a3.32 3.32 0 0 0-.895.389c-.289.18-.556.392-.795.633-.04.04-.079.085-.118.127v-1.26l-1.725.254v8.538h1.725v-6.387a4.402 4.402 0 0 1 .921-.494c.175-.068.352-.127.533-.177a3.607 3.607 0 0 1 1.183-.127l.203-1.59a3.22 3.22 0 0 0-1.032.094ZM71.798 33.936a.77.77 0 0 1-.66-.27 1.455 1.455 0 0 1-.185-.896l.034-3.483a4.06 4.06 0 0 0-.136-1.082 2.651 2.651 0 0 0-.405-.862 2.284 2.284 0 0 0-.702-.625 3.594 3.594 0 0 0-1.023-.39 6.02 6.02 0 0 0-1.335-.135c-.356 0-.712.023-1.065.068a7.328 7.328 0 0 0-.99.194c-.3.082-.597.18-.887.296l-.203 1.437a9.961 9.961 0 0 1 1.539-.422c.232-.045.466-.076.701-.093.231-.017.46-.026.685-.026.345-.007.689.033 1.023.119.244.06.468.183.65.355.164.167.28.374.339.6.072.279.106.566.101.854l-.002.424-1.976.133a5.245 5.245 0 0 0-1.96.44 2.808 2.808 0 0 0-1.159.938c-.25.366-.382.8-.38 1.243-.003.416.099.825.296 1.191.207.377.518.685.896.888.46.24.976.356 1.496.338a3.89 3.89 0 0 0 1.428-.236 3.3 3.3 0 0 0 1.065-.677c.117-.112.228-.23.333-.354.033.175.095.343.183.498.15.259.382.46.66.575.305.123.633.183.963.177.101 0 .2-.003.296-.008.094-.006.187-.02.279-.043l.245-.059c.066-.014.131-.034.194-.059l.186-1.133c-.093.033-.19.055-.287.068-.079.01-.158.016-.237.017Zm-2.815-.76c-.183.144-.381.269-.591.371-.21.102-.431.176-.66.22a3.745 3.745 0 0 1-.718.068 1.908 1.908 0 0 1-.803-.153c-.206-.09-.38-.24-.499-.43a1.263 1.263 0 0 1-.169-.668 1.28 1.28 0 0 1 .22-.795c.184-.215.433-.363.71-.423a5.145 5.145 0 0 1 1.319-.135h1.48l-.008 1.678c-.085.097-.18.186-.28.266ZM66.397 24.841c.32.151.67.226 1.023.22.362.007.721-.071 1.048-.229.294-.143.543-.365.718-.642.18-.298.272-.64.262-.989a1.74 1.74 0 0 0-.558-1.352 2.055 2.055 0 0 0-1.437-.507 2.447 2.447 0 0 0-1.022.21 1.682 1.682 0 0 0-.736.635c-.188.31-.282.668-.27 1.031a1.8 1.8 0 0 0 .262.997c.174.27.42.487.71.626Zm.27-2.434a1.084 1.084 0 0 1 .786-.27c.21-.01.418.04.6.143.148.09.266.223.339.38.076.17.113.355.11.541.003.187-.038.372-.119.541a.88.88 0 0 1-.346.372 1.166 1.166 0 0 1-.6.135 1.273 1.273 0 0 1-.575-.118.769.769 0 0 1-.355-.355 1.274 1.274 0 0 1-.119-.575 1.058 1.058 0 0 1 .28-.794ZM79.135 35.001h2.231l-4.1-4.62 4.016-4.002h-2.113l-2.893 3.179h-.624v-7.32l-1.724.253v12.51h1.724V30.86h.028l3.455 4.142Z"/></svg>