<svg xmlns="http://www.w3.org/2000/svg" viewBox="0 0 122 24"><path fill="#0A2343" d="M0 18.003V6.004h3.937v11.999H0Zm9.294-10.09 2.264 10.09H7.249L4.545 6.004h2.417a2.276 2.276 0 0 1 1.512.55c.422.345.71.826.82 1.36Zm2.855 10.09V6.004h3.938v11.999h-3.938Zm6.911-7.436a2.382 2.382 0 0 1-2.4-2.4 2.303 2.303 0 0 1 .322-1.2 2.411 2.411 0 0 1 3.278-.862c.356.21.653.506.862.862.215.363.326.778.321 1.2a2.4 2.4 0 0 1-1.183 2.079 2.302 2.302 0 0 1-1.2.321Zm2.992 7.436V6.004h3.937v11.999h-3.937Zm8.922-5.442c.01.012.095.15.253.414s.364.603.617 1.014a309.436 309.436 0 0 1 1.597 2.62c.247.411.529.876.845 1.394H29.96c-.27-.44-.516-.837-.736-1.192-.22-.355-.453-.738-.7-1.149-.248-.41-.493-.81-.736-1.2-.242-.389-.45-.73-.625-1.022a18.04 18.04 0 0 0-.363-.592 1.75 1.75 0 0 1-.287-.845c.016-.29.11-.57.27-.811.067-.113.191-.313.371-.6s.392-.628.634-1.022c.242-.395.488-.798.736-1.209l.7-1.157.736-1.2h4.326l-3.346 5.458a1.079 1.079 0 0 0-.17.541c.012.202.082.396.203.558Z"/><path fill="#1767CE" d="M38.128 7.486h3.87v10.515h1.776V7.486h3.855V5.998h-9.501v1.488ZM54.485 10.47a3.068 3.068 0 0 0-1.243-.955 4.34 4.34 0 0 0-1.715-.322 4.203 4.203 0 0 0-1.725.339c-.495.216-.937.54-1.293.946a4.142 4.142 0 0 0-.812 1.463 6.11 6.11 0 0 0-.279 1.901 5.12 5.12 0 0 0 .499 2.359c.321.637.84 1.153 1.48 1.47.749.354 1.572.524 2.4.5a8.26 8.26 0 0 0 1.192-.077c.33-.047.655-.124.972-.228a6.29 6.29 0 0 0 .913-.389l.118-1.302c-.214.08-.431.158-.651.237-.22.079-.448.15-.685.211a5.109 5.109 0 0 1-.727.136 6.574 6.574 0 0 1-.743.042 5.333 5.333 0 0 1-1.32-.144 2.162 2.162 0 0 1-.937-.49 2.136 2.136 0 0 1-.575-.938 4.28 4.28 0 0 1-.184-1.116h6.11c.082-.7.051-1.407-.094-2.096a3.952 3.952 0 0 0-.701-1.547Zm-4.26.405c.396-.24.854-.36 1.318-.346.465-.023.923.11 1.302.38.337.269.577.64.684 1.057.085.308.126.627.124.947h-4.446c.031-.338.103-.67.215-.99.144-.428.426-.797.803-1.047ZM62.81 9.413a6.117 6.117 0 0 0-.785-.16 6.642 6.642 0 0 0-.914-.06 4.092 4.092 0 0 0-1.606.322c-.509.215-.971.528-1.36.921-.416.424-.735.93-.939 1.488a5.695 5.695 0 0 0-.338 2.037 5.29 5.29 0 0 0 .43 2.223c.266.6.705 1.106 1.26 1.454a3.73 3.73 0 0 0 2.012.515 4.876 4.876 0 0 0 1.809-.355c.343-.14.667-.324.964-.547v.463c.006.38-.048.76-.16 1.124a2.044 2.044 0 0 1-.491.811 2.018 2.018 0 0 1-.862.49c-.422.116-.857.17-1.294.161a9.4 9.4 0 0 1-1.04-.059 7.376 7.376 0 0 1-1.073-.203 8.215 8.215 0 0 1-1.065-.363l.186 1.487c.31.127.63.231.955.313.343.086.69.151 1.04.195.37.045.743.068 1.116.067a5.452 5.452 0 0 0 2.417-.482 3.387 3.387 0 0 0 1.48-1.335c.34-.6.512-1.28.498-1.97V9.193l-1.653.426c-.191-.08-.387-.15-.586-.206Zm.313 6.77a5.34 5.34 0 0 1-.65.322c-.198.081-.402.146-.61.194a2.74 2.74 0 0 1-.616.068 2.94 2.94 0 0 1-1.463-.33 1.98 1.98 0 0 1-.862-.997 4.493 4.493 0 0 1-.279-1.716 4.47 4.47 0 0 1 .194-1.378c.111-.367.302-.704.559-.989.25-.264.556-.47.895-.6a3.263 3.263 0 0 1 1.21-.211c.266 0 .531.022.794.068.269.047.534.112.794.194.083.026.17.06.254.092v5.154c-.074.044-.15.09-.22.13ZM74.297 9.548a3.327 3.327 0 0 0-1.622-.355c-.491.001-.979.078-1.446.229-.481.153-.94.372-1.36.65-.164.108-.32.226-.474.347V9.21l-1.724.254V18h1.724v-6.42c.167-.098.339-.187.516-.266.237-.105.48-.198.727-.279.237-.077.48-.137.726-.177.232-.039.467-.059.702-.06.276-.006.55.037.811.127.216.078.407.209.558.38.156.187.266.407.322.643.072.299.106.606.1.913v5.14h1.725v-5.495a4.686 4.686 0 0 0-.32-1.877 2.217 2.217 0 0 0-.965-1.082ZM83.477 14.113a2.545 2.545 0 0 0-.592-.465 4.586 4.586 0 0 0-.71-.33c-.18-.056-.358-.115-.533-.177a9.4 9.4 0 0 0-.524-.17 10.94 10.94 0 0 1-.507-.16 3.717 3.717 0 0 1-.448-.186 2.945 2.945 0 0 1-.397-.253 1.108 1.108 0 0 1-.287-.322.812.812 0 0 1-.11-.422.876.876 0 0 1 .118-.465.962.962 0 0 1 .355-.33c.177-.097.368-.165.567-.203.247-.047.5-.07.752-.067a5.527 5.527 0 0 1 .887.076c.175.028.35.065.524.11.175.044.352.095.533.152.167.051.33.113.49.186l.118-1.37a8.04 8.04 0 0 0-.633-.236 6.214 6.214 0 0 0-.635-.17 5.075 5.075 0 0 0-.633-.092 7.644 7.644 0 0 0-.617-.026 5.572 5.572 0 0 0-1.387.161 3.486 3.486 0 0 0-1.09.473c-.303.2-.55.474-.719.795a2.415 2.415 0 0 0-.253 1.141c-.005.285.04.568.135.837.08.225.2.434.355.617.15.172.324.323.516.448.2.13.412.241.634.33a14.685 14.685 0 0 0 .786.262 40.99 40.99 0 0 1 .744.236c.118.04.234.076.347.11.15.054.297.119.439.194.124.066.24.146.347.237a.866.866 0 0 1 .295.668.843.843 0 0 1-.279.668 1.62 1.62 0 0 1-.727.346c-.313.07-.633.104-.955.102a4.762 4.762 0 0 1-.6-.043 8.597 8.597 0 0 1-.693-.118c-.242-.051-.49-.113-.744-.186a14.75 14.75 0 0 1-.769-.245l.068 1.437c.292.101.56.183.803.245.242.062.473.116.693.16.212.045.426.073.642.085.209.012.42.017.634.017.472.003.942-.046 1.403-.144a3.627 3.627 0 0 0 1.15-.448c.32-.195.584-.468.77-.794.193-.358.289-.76.278-1.167a2.37 2.37 0 0 0-.144-.87 1.974 1.974 0 0 0-.397-.634ZM92.563 9.726a3.633 3.633 0 0 0-2.02-.533 5.149 5.149 0 0 0-1.25.161 5.425 5.425 0 0 0-1.505.638V9.21l-1.725.27v12.071h1.725v-3.785l.034.015c.312.13.638.224.971.28.394.064.793.095 1.192.092a4.226 4.226 0 0 0 2.173-.558 4.014 4.014 0 0 0 1.521-1.614c.4-.8.594-1.685.567-2.578a5.261 5.261 0 0 0-.431-2.198 3.398 3.398 0 0 0-1.252-1.48Zm-.448 5.655a2.326 2.326 0 0 1-.972 1.065c-.476.25-1.009.372-1.546.355a4.81 4.81 0 0 1-1.809-.345V11.12c.022-.01.045-.024.067-.034.248-.113.479-.209.693-.288a3.472 3.472 0 0 1 1.2-.22 3.128 3.128 0 0 1 1.505.33c.408.222.727.577.905 1.006a4.33 4.33 0 0 1 .296 1.725 4.031 4.031 0 0 1-.339 1.74ZM99.874 9.32a3.319 3.319 0 0 0-.895.388c-.289.18-.555.393-.795.634-.04.04-.079.085-.118.127v-1.26l-1.725.254V18h1.725v-6.386a4.402 4.402 0 0 1 .921-.494c.175-.068.352-.127.533-.177a3.604 3.604 0 0 1 1.183-.127l.203-1.59a3.218 3.218 0 0 0-1.032.094ZM109.798 16.936a.773.773 0 0 1-.659-.27 1.453 1.453 0 0 1-.186-.896l.034-3.483a4.072 4.072 0 0 0-.136-1.082 2.652 2.652 0 0 0-.405-.862 2.283 2.283 0 0 0-.702-.626 3.59 3.59 0 0 0-1.023-.388 6.004 6.004 0 0 0-1.335-.136c-.356 0-.712.023-1.065.068a7.318 7.318 0 0 0-.989.194 8.26 8.26 0 0 0-.888.296l-.203 1.437a10.05 10.05 0 0 1 1.539-.422c.232-.045.466-.076.701-.093a9.38 9.38 0 0 1 .685-.026c.345-.007.689.033 1.023.119.243.06.467.183.651.355.163.167.279.374.338.6.072.278.106.566.101.854l-.002.424-1.976.133a5.248 5.248 0 0 0-1.961.44 2.815 2.815 0 0 0-1.158.938c-.25.366-.382.8-.38 1.243-.003.416.098.825.296 1.192.207.376.518.684.896.887.461.24.976.356 1.496.338.487.011.971-.069 1.428-.237a3.289 3.289 0 0 0 1.065-.676c.117-.112.228-.23.333-.354.033.175.095.343.183.498.151.259.382.46.659.575.306.123.634.183.964.177.101 0 .2-.003.296-.008.094-.006.187-.02.279-.043l.245-.059a1.34 1.34 0 0 0 .194-.059l.186-1.133a1.472 1.472 0 0 1-.287.068c-.079.01-.158.016-.237.017Zm-2.815-.76c-.183.144-.381.269-.591.371a2.676 2.676 0 0 1-.659.22 3.75 3.75 0 0 1-.719.068 1.905 1.905 0 0 1-.803-.152 1.11 1.11 0 0 1-.499-.432 1.27 1.27 0 0 1-.169-.667 1.282 1.282 0 0 1 .22-.795 1.29 1.29 0 0 1 .71-.423 5.147 5.147 0 0 1 1.319-.135h1.48l-.008 1.678c-.085.097-.18.186-.281.266ZM104.397 7.841a2.29 2.29 0 0 0 1.023.22c.362.007.721-.071 1.048-.228.294-.144.543-.366.718-.643.181-.297.272-.64.262-.989a1.73 1.73 0 0 0-.558-1.352 2.053 2.053 0 0 0-1.437-.507 2.442 2.442 0 0 0-1.022.21 1.687 1.687 0 0 0-.736.635 1.87 1.87 0 0 0-.27 1.031c-.012.351.079.698.262.997.174.27.42.487.71.626Zm.27-2.434a1.094 1.094 0 0 1 .786-.27c.21-.01.418.04.601.143.147.09.265.223.338.38.075.17.113.355.11.541.003.187-.038.373-.119.541a.88.88 0 0 1-.346.372 1.168 1.168 0 0 1-.6.135 1.272 1.272 0 0 1-.575-.118.766.766 0 0 1-.355-.355 1.28 1.28 0 0 1-.119-.575 1.064 1.064 0 0 1 .279-.794ZM117.135 18.001h2.231l-4.1-4.62 4.016-4.002h-2.113l-2.893 3.179h-.624v-7.32l-1.724.253v12.51h1.724V13.86h.028l3.455 4.142Z"/></svg>