<svg width="40" height="16" viewBox="0 0 40 16" fill="none" xmlns="http://www.w3.org/2000/svg">
<path d="M-2.09808e-05 1.00103H4.94134V14.9997H-2.09808e-05V1.00103ZM5.2387 1.00103L8.41388 14.9997H13.7915L11.1323 3.24869C11.0212 2.61842 10.687 2.04837 10.19 1.64148C9.68963 1.21789 9.05098 0.990066 8.39369 1.00069L5.2387 1.00103ZM14.0895 14.9997H19.0312V1.00103H14.0895V14.9997ZM25.2225 14.9997H30.1639V1.00103H25.2225V14.9997ZM40 1.00103H34.5625C34.245 1.51388 33.9605 1.97731 33.7092 2.39135C33.4578 2.8054 33.1832 3.2556 32.8856 3.74194C32.5883 4.22828 32.3007 4.69808 32.0227 5.15133C31.7446 5.60459 31.5032 6.00231 31.2983 6.3445C31.093 6.68625 30.9508 6.91627 30.8717 7.03456C30.6732 7.3196 30.5596 7.65443 30.5439 8.00067C30.5737 8.35028 30.686 8.688 30.8717 8.98649C30.9508 9.10457 31.093 9.3346 31.2983 9.67657C31.5036 10.0185 31.7451 10.4162 32.0227 10.8694C32.3001 11.3225 32.5877 11.789 32.8856 12.2689C33.1835 12.7489 33.458 13.1958 33.7092 13.6097C33.9605 14.0237 34.245 14.4872 34.5625 15H40C39.6295 14.3954 39.2988 13.8532 39.0077 13.3734C38.7167 12.8936 38.4058 12.3876 38.075 11.8552C37.7443 11.3225 37.4301 10.813 37.1324 10.3269C36.8347 9.84077 36.5933 9.44315 36.4081 9.13404C36.2228 8.82537 36.1236 8.66447 36.1104 8.65132C35.983 8.45571 35.9047 8.23257 35.8822 8.00067C35.8886 7.77463 35.961 7.55533 36.0906 7.36943L40 1.00103Z" fill="white"/>
<path d="M22.1466 6.28507C21.6527 6.28982 21.1663 6.16055 20.74 5.9111C20.3192 5.6679 19.9697 5.31836 19.7265 4.89755C19.4768 4.47102 19.3475 3.98476 19.3524 3.49049C19.3467 2.99923 19.4761 2.51586 19.7265 2.0932C19.9723 1.67695 20.3214 1.33121 20.74 1.08949C21.1666 0.840265 21.6526 0.711019 22.1466 0.715524C22.6377 0.710235 23.1209 0.839598 23.5437 1.08949C23.9581 1.33333 24.3035 1.67878 24.5473 2.0932C24.7975 2.51598 24.9269 2.99927 24.9215 3.49049C24.9261 3.98472 24.7968 4.4709 24.5473 4.89755C24.3061 5.31651 23.9603 5.66575 23.5437 5.9111C23.121 6.16143 22.6379 6.29082 22.1466 6.28507Z" fill="white"/>
</svg>
