<svg width="40" height="15" viewBox="0 0 40 15" fill="none" xmlns="http://www.w3.org/2000/svg">
<path d="M-2.09808e-05 0.334979H4.94134V14.3336H-2.09808e-05V0.334979ZM5.2387 0.334979L8.41388 14.3336H13.7915L11.1323 2.58264C11.0212 1.95237 10.687 1.38232 10.19 0.975424C9.68963 0.551836 9.05098 0.324014 8.39369 0.334638L5.2387 0.334979ZM14.0895 14.3336H19.0312V0.334979H14.0895V14.3336ZM25.2225 14.3336H30.1639V0.334979H25.2225V14.3336ZM40 0.334979H34.5625C34.245 0.847824 33.9605 1.31125 33.7092 1.7253C33.4578 2.13934 33.1833 2.58955 32.8856 3.07589C32.5883 3.56222 32.3007 4.03202 32.0227 4.48528C31.7446 4.93854 31.5032 5.33626 31.2983 5.67844C31.093 6.0202 30.9508 6.25021 30.8717 6.36851C30.6732 6.65354 30.5596 6.98838 30.5439 7.33461C30.5737 7.68423 30.686 8.02195 30.8717 8.32043C30.9508 8.43851 31.093 8.66855 31.2983 9.01052C31.5036 9.35249 31.7451 9.7501 32.0227 10.2034C32.3001 10.6564 32.5877 11.1229 32.8856 11.6029C33.1835 12.0829 33.458 12.5298 33.7092 12.9436C33.9605 13.3577 34.245 13.8211 34.5625 14.3339H40C39.6295 13.7293 39.2988 13.1871 39.0077 12.7073C38.7167 12.2276 38.4058 11.7215 38.075 11.1892C37.7443 10.6564 37.4301 10.147 37.1324 9.66083C36.8347 9.17471 36.5933 8.7771 36.4081 8.46799C36.2228 8.15932 36.1236 7.99841 36.1104 7.98527C35.983 7.78966 35.9047 7.56651 35.8822 7.33461C35.8886 7.10858 35.961 6.88928 36.0906 6.70337L40 0.334979Z" fill="white"/>
<path d="M22.1463 5.61902C21.6523 5.62377 21.1663 5.4945 20.74 5.24505C20.3192 5.00184 19.9697 4.6523 19.7265 4.23149C19.4768 3.80497 19.3475 3.3187 19.3524 2.82443C19.3467 2.33317 19.4761 1.84981 19.7265 1.42714C19.9723 1.0109 20.3214 0.665162 20.74 0.423439C21.1665 0.174213 21.6526 0.0449664 22.1466 0.0494723C22.6377 0.0441832 23.1209 0.173545 23.5437 0.423439C23.9581 0.667281 24.3035 1.01273 24.5473 1.42714C24.7975 1.84992 24.9269 2.33321 24.9215 2.82443C24.9261 3.31866 24.7968 3.80485 24.5473 4.23149C24.3061 4.65046 23.9603 4.9997 23.5437 5.24505C23.121 5.49538 22.6376 5.62477 22.1463 5.61902Z" fill="white"/>
</svg>
