<svg
  xmlns="http://www.w3.org/2000/svg"
  viewBox="0 0 25 24"
  fill="currentColor"
>
  <path
    d="M11.99 14.97c1.94 0 3.68.78 4.95 2.05l-1.41 1.42A4.97 4.97 0 0 0 12 16.97c-1.38 0-2.62.56-3.53 1.46l-1.41-1.41h-.01c1.27-1.27 3-2.05 4.94-2.05M12 9.97c3.32 0 6.32 1.34 8.49 3.51l-1.42 1.42A9.97 9.97 0 0 0 12 11.97c-2.76 0-5.25 1.12-7.06 2.92l-1.42-1.42c2.17-2.16 5.16-3.5 8.48-3.5"
  />

  <path
    d="M12 5c4.69 0 8.93 1.89 12.01 4.96l-1.41 1.41c-2.7-2.72-6.46-4.4-10.6-4.4S4.11 8.65 1.4 11.35L0 9.95C3.08 6.89 7.31 5 12 5"
  />
</svg>
