<svg xmlns="http://www.w3.org/2000/svg" viewBox="0 0 62 26"><path fill="#fff" d="M31.09 13.56c.03.07 3.3 5.44 3.3 5.44h-4.62s-2.76-4.51-3.14-5.16c-.38-.64-.4-1.04-.02-1.67L29.77 7h4.63l-3.34 5.46c-.24.41-.22.67.03 1.1ZM21.59 19V7h4.21v12h-4.21ZM18.94 6.77a2.4 2.4 0 0 1 0 4.8 2.4 2.4 0 0 1 0-4.8ZM12.06 19V7h4.2v12h-4.2ZM0 19V7h4.2v12H0ZM9.5 8.93 11.77 19H7.2L4.48 7h2.7c1.15 0 2.11.83 2.33 1.93H9.5Z"/><path fill="#00B8F1" d="M37 13a12 12 0 1 0 24 0 12 12 0 0 0-24 0Z"/><path fill="#fff" d="M51.33 19.13h-4.3V10.1h-1.79V6.87h6.09v12.26Z"/></svg>