<svg width="96" height="16" viewBox="0 0 96 16" fill="none" xmlns="http://www.w3.org/2000/svg">
<path d="M0 15.0001V1.00135H4.59339V15.0001H0ZM10.8428 3.22932L13.4844 15.0001H8.45737L5.30307 1.00135H8.12254C8.76907 0.992962 9.39641 1.22087 9.88691 1.6422C10.3782 2.04586 10.7158 2.60623 10.8428 3.22932ZM14.1744 15.0001V1.00135H18.7678V15.0001H14.1744ZM22.2372 6.32486C21.7422 6.32969 21.2552 6.20018 20.828 5.95021C20.4064 5.70655 20.0563 5.35637 19.8127 4.93478C19.5624 4.50747 19.4329 4.0203 19.4378 3.52512C19.4321 3.03295 19.5618 2.54869 19.8127 2.12525C20.0589 1.70824 20.4086 1.36186 20.828 1.11969C21.2553 0.870001 21.7423 0.740515 22.2372 0.745029C22.7292 0.73973 23.2133 0.869332 23.6369 1.11969C24.0521 1.36398 24.3981 1.71007 24.6424 2.12525C24.893 2.54881 25.0226 3.03299 25.0172 3.52512C25.0218 4.02026 24.8923 4.50735 24.6424 4.93478C24.4007 5.35452 24.0542 5.70441 23.6369 5.95021C23.2133 6.20105 22.7289 6.33069 22.2366 6.32486H22.2372ZM25.7269 15.0001V1.00135H30.3207V15.0001H25.7269ZM36.136 8.65135C36.1489 8.66494 36.2475 8.82594 36.4317 9.1344C36.6159 9.44285 36.8558 9.83721 37.1513 10.3174C37.447 10.7974 37.759 11.3067 38.0874 11.8454C38.4157 12.3841 38.7247 12.8935 39.0143 13.3735C39.3028 13.8535 39.6313 14.3957 40 15.0001H34.9531C34.6375 14.4875 34.3515 14.0241 34.0952 13.6101C33.8389 13.196 33.5665 12.7491 33.2778 12.2693C32.9884 11.79 32.7024 11.3234 32.4196 10.8695C32.1368 10.4155 31.8938 10.018 31.6905 9.67665C31.4863 9.33512 31.3449 9.10506 31.2663 8.98654C31.0713 8.69243 30.9559 8.35276 30.9315 8.00072C30.951 7.66284 31.0597 7.33622 31.2466 7.05404C31.3254 6.9226 31.47 6.68925 31.6803 6.35407C31.8906 6.01889 32.137 5.62131 32.4196 5.16126C32.7021 4.70121 32.9882 4.23129 33.2778 3.75152C33.5674 3.27175 33.8398 2.82152 34.0952 2.4009C34.3519 1.98072 34.6379 1.5141 34.9531 1.00103H40L36.0962 7.36949C35.9754 7.55857 35.9073 7.77648 35.8991 8.00072C35.9121 8.23612 35.9942 8.46245 36.1353 8.65135H36.136Z" fill="#0A2343"/>
<path d="M52.197 9.21473C52.4593 9.1746 52.7181 9.11418 52.971 9.03404C53.4836 8.87458 53.957 8.60939 54.3606 8.25552C54.7627 7.8965 55.0791 7.45201 55.2869 6.95466C55.5205 6.38265 55.6346 5.7689 55.622 5.15117C55.6308 4.43059 55.4794 3.71701 55.1786 3.06216C54.8678 2.41528 54.3561 1.88629 53.72 1.55406C52.8712 1.1418 51.9327 0.948611 50.9902 0.992246H45.3333V14.9866H47.3832V9.62536H50.3985L53.8875 14.9866H56.2919L53.02 10.1382L52.197 9.21473ZM52.2319 2.97314C52.6401 3.12875 52.9814 3.42154 53.1974 3.8013C53.4232 4.24264 53.5317 4.73463 53.5127 5.23001C53.5373 5.77831 53.404 6.32217 53.1287 6.79698C52.8681 7.20131 52.4794 7.50661 52.0249 7.6642C51.4767 7.85269 50.8995 7.9428 50.32 7.93031H47.3832V2.70703H50.5562C51.1266 2.68805 51.6954 2.77838 52.2319 2.97314Z" fill="#1767CE"/>
<path d="M66.9157 13.7451C66.7717 13.7584 66.6264 13.7366 66.4926 13.6816C66.3588 13.6266 66.2402 13.5401 66.147 13.4295C65.9642 13.1137 65.8882 12.7473 65.9302 12.3848L65.9696 8.32481C65.974 7.89904 65.9209 7.4746 65.8119 7.063C65.7161 6.70217 65.5558 6.36169 65.3389 6.05783C65.1195 5.76086 64.841 5.51256 64.5209 5.32856C64.149 5.11738 63.7468 4.96455 63.3284 4.87551C62.8169 4.76499 62.2946 4.71211 61.7713 4.71783C61.3561 4.71755 60.9414 4.74378 60.5295 4.79635C60.1404 4.84529 59.7552 4.92101 59.3765 5.023C59.0253 5.1184 58.6799 5.23368 58.3417 5.36826L58.1052 7.04367C58.4337 6.92541 58.7459 6.82681 59.0418 6.74797C59.3377 6.66913 59.6233 6.60347 59.8988 6.55091C60.1692 6.49918 60.4423 6.46306 60.7168 6.4428C60.986 6.42265 61.252 6.41267 61.5151 6.41289C61.917 6.40441 62.3182 6.45089 62.7076 6.55091C62.9916 6.62203 63.2529 6.7645 63.4664 6.96483C63.6565 7.15975 63.7924 7.40092 63.8606 7.66451C63.9447 7.98957 63.9844 8.3245 63.9789 8.66021L63.9766 9.15465L61.6727 9.31064C60.8848 9.33267 60.1084 9.50659 59.3864 9.82281C58.8461 10.0593 58.3796 10.4372 58.0363 10.9168C57.7449 11.3435 57.5902 11.8487 57.5927 12.3654C57.5891 12.8503 57.7077 13.3282 57.9377 13.755C58.1787 14.1935 58.5415 14.5529 58.9823 14.7898C59.52 15.0695 60.121 15.2053 60.7267 15.184C61.2942 15.1971 61.8592 15.1035 62.3922 14.9081C62.8531 14.7278 63.2748 14.4601 63.634 14.1197C63.7703 13.9888 63.8996 13.851 64.0216 13.7067C64.06 13.9107 64.1321 14.107 64.2351 14.2872C64.4107 14.5891 64.6809 14.8245 65.0038 14.9573C65.3607 15.1007 65.7427 15.1711 66.1273 15.1643C66.2455 15.1643 66.3605 15.161 66.4722 15.1544C66.5819 15.1481 66.6908 15.1317 66.7974 15.1052C66.9026 15.0789 66.9975 15.0558 67.0833 15.0361C67.1605 15.0189 67.2362 14.9959 67.3099 14.9672L67.5267 13.6466C67.4179 13.684 67.3057 13.7104 67.1916 13.7254C67.1002 13.7378 67.008 13.7444 66.9157 13.7451ZM63.634 12.8582C63.4203 13.0272 63.189 13.1726 62.9441 13.2918C62.7003 13.4106 62.4419 13.4967 62.1757 13.5481C61.8996 13.6014 61.619 13.6278 61.3377 13.6269C61.0165 13.6361 60.6971 13.5755 60.4015 13.4495C60.1609 13.3452 59.958 13.1698 59.82 12.9469C59.6835 12.7106 59.6152 12.4411 59.6229 12.1683C59.6039 11.8397 59.694 11.5141 59.8791 11.242C60.0938 10.9917 60.3846 10.8186 60.707 10.7492C61.2106 10.6307 61.7275 10.5777 62.2447 10.5915H63.9704L63.9614 12.548C63.8613 12.6605 63.7518 12.7645 63.634 12.8582Z" fill="#1767CE"/>
<path d="M76.2396 5.19613C76.2196 5.18825 76.2009 5.17867 76.1805 5.17079C75.8121 5.03205 75.4331 4.92329 75.0472 4.84557C74.596 4.75672 74.1371 4.71393 73.6773 4.71781C72.8162 4.71253 71.9692 4.93706 71.2237 5.36824C70.4542 5.81571 69.8232 6.46712 69.4005 7.25057C68.9153 8.17619 68.6777 9.21157 68.7106 10.2561C68.688 11.1579 68.8665 12.0533 69.233 12.8776C69.5528 13.5816 70.0742 14.1749 70.7313 14.5825C71.4378 14.9984 72.2471 15.2068 73.0666 15.1837C73.5693 15.1867 74.0701 15.1204 74.5547 14.9866C75.0377 14.848 75.4988 14.6423 75.9246 14.3755C76.0721 14.2845 76.2203 14.1824 76.3674 14.0756L76.6148 14.9866H78.2504V0.125L76.2399 0.400973L76.2396 5.19613ZM75.1851 13.3013C74.7357 13.4784 74.2587 13.5753 73.7758 13.5874C73.2126 13.6038 72.655 13.4712 72.1596 13.2028C71.6987 12.9303 71.3389 12.5151 71.1347 12.0201C70.879 11.385 70.7581 10.7036 70.7799 10.0192C70.7568 9.31825 70.8915 8.6211 71.1741 7.9792C71.4148 7.45835 71.8106 7.02463 72.3074 6.73744C72.8479 6.44323 73.4566 6.29703 74.0718 6.31366C74.3884 6.31293 74.7045 6.33606 75.0176 6.38271C75.3283 6.4308 75.6348 6.50337 75.9341 6.59982C76.0304 6.63037 76.1364 6.67112 76.2396 6.70857V12.7833C75.9043 12.9877 75.551 13.1611 75.1841 13.3013H75.1851Z" fill="#1767CE"/>
<path d="M81.3239 14.9866H83.3344V4.73722L81.3239 5.03284V14.9866Z" fill="#1767CE"/>
<path d="M83.0486 0.607892C82.844 0.482854 82.6083 0.417939 82.3685 0.420622C82.1258 0.41872 81.8872 0.483511 81.6787 0.607892C81.4732 0.728274 81.3005 0.897533 81.1761 1.10065C81.0511 1.30526 80.9862 1.54093 80.9888 1.78068C80.9869 2.02344 81.0517 2.26203 81.1761 2.47049C81.2965 2.67678 81.4701 2.84696 81.6787 2.96325C81.8892 3.08164 82.127 3.14281 82.3685 3.14065C82.607 3.14357 82.8419 3.08229 83.0486 2.96325C83.2514 2.84607 83.4184 2.67568 83.5315 2.47049C83.65 2.26003 83.7111 2.02219 83.7089 1.78068C83.7117 1.54221 83.6504 1.30733 83.5315 1.10065C83.4144 0.89849 83.2483 0.729037 83.0486 0.607892Z" fill="#1767CE"/>
<path d="M95.3179 7.13206C94.9252 6.37851 94.3184 5.75785 93.5738 5.34823C92.7526 4.91208 91.8328 4.69499 90.9031 4.71784C89.9648 4.69632 89.0372 4.92055 88.2123 5.36828C87.4509 5.79435 86.8282 6.43062 86.4187 7.20104C85.9739 8.06553 85.7536 9.028 85.7781 9.9999C85.753 10.9642 85.9591 11.9206 86.3793 12.7889C86.7568 13.547 87.3591 14.17 88.1039 14.573C88.9057 14.9929 89.8008 15.2031 90.7057 15.1837C91.653 15.2026 92.5894 14.9786 93.4257 14.5332C94.2067 14.1073 94.8471 13.4637 95.2689 12.6805C95.7266 11.8059 95.9538 10.8291 95.9292 9.84223C95.9515 8.9023 95.7416 7.97138 95.3179 7.13206ZM93.4552 11.9512C93.2339 12.4634 92.8587 12.894 92.3814 13.1831C91.9019 13.4576 91.357 13.5973 90.8046 13.5875C90.2628 13.6009 89.7288 13.457 89.2671 13.1732C88.8104 12.8697 88.4538 12.4377 88.2422 11.9318C87.974 11.2825 87.8465 10.5838 87.8681 9.88161C87.8447 9.19857 87.9725 8.51879 88.2422 7.89085C88.4634 7.39736 88.8317 6.98435 89.2967 6.70828C89.794 6.43458 90.3553 6.29852 90.9228 6.31409C91.3658 6.30303 91.8061 6.38704 92.2139 6.56047C92.571 6.72162 92.8826 6.96878 93.1209 7.27988C93.3748 7.61812 93.5589 8.00346 93.6625 8.41352C93.7858 8.89298 93.8455 9.38658 93.8399 9.88161C93.863 10.5912 93.7317 11.2973 93.4552 11.9512Z" fill="#1767CE"/>
</svg>
