<svg width="255" height="24" viewBox="0 0 255 24" fill="none" xmlns="http://www.w3.org/2000/svg">
<path d="M6.10352e-05 19.0033V5.00453H4.59345V19.0033H6.10352e-05ZM10.8428 7.2325L13.4845 19.0033H8.45743L5.30313 5.00453H8.1226C8.76913 4.99614 9.39647 5.22405 9.88698 5.64538C10.3783 6.04903 10.7158 6.6094 10.8428 7.2325ZM14.1745 19.0033V5.00453H18.7679V19.0033H14.1745ZM22.2373 10.328C21.7423 10.3329 21.2553 10.2034 20.828 9.95338C20.4065 9.70973 20.0563 9.35954 19.8127 8.93795C19.5625 8.51064 19.4329 8.02348 19.4379 7.52829C19.4322 7.03613 19.5618 6.55186 19.8127 6.12842C20.0589 5.71141 20.4087 5.36503 20.828 5.12286C21.2554 4.87317 21.7423 4.74369 22.2373 4.7482C22.7293 4.7429 23.2134 4.87251 23.637 5.12286C24.0521 5.36715 24.3982 5.71324 24.6424 6.12842C24.893 6.55198 25.0226 7.03616 25.0173 7.52829C25.0219 8.02344 24.8924 8.51052 24.6424 8.93795C24.4007 9.35769 24.0543 9.70758 23.637 9.95338C23.2133 10.2042 22.7289 10.3339 22.2366 10.328H22.2373ZM25.727 19.0033V5.00453H30.3208V19.0033H25.727ZM36.1361 12.6545C36.149 12.6681 36.2475 12.8291 36.4318 13.1376C36.616 13.446 36.8558 13.8404 37.1513 14.3206C37.447 14.8006 37.7591 15.3099 38.0874 15.8486C38.4158 16.3873 38.7248 16.8967 39.0144 17.3767C39.3028 17.8566 39.6314 18.3988 40.0001 19.0033H34.9532C34.6376 18.4906 34.3516 18.0273 34.0953 17.6132C33.839 17.1992 33.5666 16.7523 33.2779 16.2725C32.9885 15.7932 32.7024 15.3265 32.4196 14.8726C32.1368 14.4187 31.8938 14.0211 31.6905 13.6798C31.4864 13.3383 31.345 13.1082 31.2663 12.9897C31.0714 12.6956 30.956 12.3559 30.9315 12.0039C30.9511 11.666 31.0598 11.3394 31.2466 11.0572C31.3255 10.9258 31.4701 10.6924 31.6803 10.3572C31.8906 10.0221 32.1371 9.62448 32.4196 9.16443C32.7022 8.70438 32.9883 8.23446 33.2779 7.75469C33.5675 7.27492 33.8399 6.8247 34.0953 6.40408C34.352 5.9839 34.638 5.51727 34.9532 5.00421H40.0001L36.0963 11.3727C35.9755 11.5617 35.9074 11.7797 35.8991 12.0039C35.9121 12.2393 35.9943 12.4656 36.1354 12.6545H36.1361Z" fill="white"/>
<path d="M55.9595 5.00607H53.4952L48.1394 11.1767H47.4034V5.00607H45.3334V19.0033H47.4034V12.675H47.4728L53.298 19.023L56.1172 19.0033L49.4337 12.0638L55.9595 5.00607Z" fill="white"/>
<path d="M61.8137 8.87993C61.4451 8.97877 61.0931 9.13157 60.7692 9.33337C60.4329 9.54349 60.1219 9.79155 59.8423 10.0727C59.7959 10.1193 59.7506 10.1713 59.7043 10.2202V8.75182L57.6934 9.04751V19.0033H59.7043V11.5555C59.8538 11.451 60.0086 11.3542 60.1679 11.2654C60.3652 11.1568 60.5693 11.0613 60.779 10.9795C60.9825 10.9007 61.1896 10.8317 61.4001 10.7725C61.6164 10.7123 61.837 10.6695 62.0601 10.6444C62.2992 10.6182 62.54 10.6116 62.7801 10.6247L63.0167 8.77152C62.6125 8.74267 62.2062 8.77927 61.8137 8.87993Z" fill="white"/>
<path d="M64.8501 19.0033H66.861V8.75182L64.8501 9.04751V19.0033Z" fill="white"/>
<path d="M66.5751 4.62162C66.3705 4.49656 66.1348 4.43167 65.895 4.43435C65.6522 4.43245 65.4135 4.49722 65.2049 4.62162C64.9994 4.74205 64.8267 4.91134 64.7022 5.11449C64.5772 5.31914 64.5123 5.55486 64.515 5.79466C64.513 6.03747 64.5777 6.27615 64.7022 6.48465C64.8227 6.69094 64.9963 6.86114 65.2049 6.97752C65.4155 7.09591 65.6534 7.15705 65.895 7.15492C66.1335 7.1578 66.3684 7.09655 66.5751 6.97752C66.778 6.86025 66.945 6.68984 67.0581 6.48465C67.1766 6.27411 67.2377 6.03621 67.2356 5.79466C67.2384 5.55614 67.1771 5.32123 67.0581 5.11449C66.941 4.9123 66.7749 4.74282 66.5751 4.62162Z" fill="white"/>
<path d="M77.6645 9.14609C77.0788 8.85034 76.4276 8.70789 75.7719 8.73208C75.1996 8.73316 74.6308 8.82296 74.086 8.99825C73.5247 9.17711 72.9908 9.43249 72.4993 9.75723C72.3087 9.88242 72.126 10.0201 71.947 10.1617V8.75182L69.9361 9.0475V19.0033H71.947V11.5161C72.1416 11.402 72.3424 11.2986 72.5483 11.2063C72.8252 11.0837 73.1081 10.9752 73.3959 10.881C73.6729 10.7907 73.9563 10.7215 74.2437 10.674C74.5142 10.6291 74.7879 10.606 75.0622 10.6049C75.3839 10.5975 75.7044 10.6476 76.0085 10.7528C76.2593 10.8432 76.4831 10.9959 76.6587 11.1964C76.8399 11.4138 76.9681 11.6702 77.0336 11.9455C77.1175 12.294 77.1572 12.6517 77.1516 13.0101V19.0033H79.1624V12.5961C79.1886 11.8488 79.0612 11.104 78.7882 10.4078C78.5654 9.87331 78.1698 9.42904 77.6645 9.14609Z" fill="white"/>
<path d="M88.4575 8.98838C88.1563 8.90591 87.8501 8.84332 87.5407 8.80107C87.1879 8.75364 86.8322 8.7306 86.4762 8.73208C85.833 8.72944 85.196 8.85685 84.6033 9.10666C84.0095 9.35817 83.4704 9.72315 83.0163 10.1811C82.5323 10.675 82.1593 11.2664 81.9222 11.9159C81.6472 12.6772 81.5135 13.4823 81.5278 14.2916C81.5061 15.1819 81.6777 16.0663 82.0305 16.884C82.3394 17.5834 82.8511 18.174 83.4993 18.5794C84.2086 18.9979 85.0222 19.2064 85.8453 19.1808C86.5684 19.1782 87.2843 19.0377 87.9547 18.7667C88.3554 18.6037 88.7331 18.3892 89.0784 18.1287V18.6682C89.0864 19.1123 89.0233 19.5549 88.8915 19.9792C88.7777 20.3351 88.5818 20.6593 88.3195 20.9255C88.0372 21.1968 87.6916 21.3934 87.314 21.4972C86.823 21.6321 86.315 21.6952 85.8059 21.6845C85.4007 21.6839 84.996 21.6608 84.5934 21.6155C84.1708 21.5678 83.7524 21.4888 83.3416 21.3789C82.9183 21.2663 82.5033 21.1246 82.0995 20.955L82.3164 22.6899C82.6789 22.837 83.051 22.9588 83.4303 23.0546C83.8293 23.1553 84.2342 23.2311 84.6427 23.2814C85.0744 23.3344 85.509 23.3608 85.9439 23.3602C86.9142 23.3906 87.8785 23.1984 88.763 22.7984C89.4811 22.4638 90.0821 21.9212 90.488 21.2409C90.885 20.5416 91.0859 19.7481 91.0696 18.9442V8.73208L89.1416 9.22855C88.9188 9.13429 88.6903 9.05409 88.4575 8.98838ZM88.8222 16.884C88.5781 17.0261 88.3245 17.1512 88.0632 17.2586C87.8331 17.3531 87.5957 17.4289 87.3534 17.4853C87.1173 17.5387 86.8759 17.5651 86.6339 17.5642C86.0418 17.5856 85.4542 17.4531 84.9286 17.1797C84.4704 16.9182 84.1156 16.5078 83.9231 16.0166C83.6855 15.3771 83.575 14.6974 83.5978 14.0155C83.5891 13.4714 83.6656 12.9293 83.8245 12.4088C83.9538 11.9811 84.1759 11.5873 84.4751 11.2555C84.7669 10.9474 85.124 10.7082 85.52 10.5557C85.9701 10.3851 86.4484 10.3015 86.9296 10.3093C87.2402 10.309 87.5501 10.3354 87.8562 10.3881C88.1696 10.4435 88.4791 10.5192 88.7828 10.6148C88.8794 10.645 88.9799 10.6851 89.0784 10.7219V16.7332C88.992 16.7841 88.9034 16.8374 88.8222 16.884Z" fill="white"/>
<path d="M102.701 8.94896H100.237L96.8634 12.6552H96.1362V4.1189L94.1254 4.41462V19.0033H96.1362V14.1733H96.1691L100.197 19.0033H102.799L98.0174 13.6147L102.701 8.94896Z" fill="white"/>
<path d="M113.012 17.7613C112.868 17.7746 112.723 17.7529 112.589 17.698C112.455 17.643 112.336 17.5565 112.243 17.4459C112.06 17.1301 111.984 16.7635 112.026 16.401L112.066 12.3398C112.07 11.914 112.017 11.4896 111.907 11.0781C111.812 10.7172 111.652 10.3765 111.435 10.0726C111.215 9.77569 110.937 9.52735 110.617 9.34322C110.244 9.13215 109.842 8.97924 109.424 8.88979C108.912 8.77947 108.39 8.72657 107.866 8.73208C107.451 8.73191 107.036 8.75824 106.624 8.81093C106.235 8.85987 105.85 8.93564 105.471 9.03767C105.12 9.13296 104.774 9.24812 104.436 9.38265L104.199 11.0584C104.528 10.9401 104.84 10.8415 105.136 10.7627C105.432 10.6838 105.718 10.6181 105.993 10.5655C106.264 10.5138 106.537 10.4777 106.812 10.4571C107.081 10.4374 107.347 10.4275 107.61 10.4275C108.012 10.419 108.413 10.4654 108.802 10.5655C109.087 10.6367 109.348 10.7792 109.562 10.9795C109.752 11.1746 109.888 11.4158 109.956 11.6794C110.04 12.0044 110.08 12.3393 110.074 12.675L110.072 13.1698L107.768 13.3255C106.98 13.3478 106.203 13.5218 105.481 13.8381C104.94 14.0747 104.474 14.4527 104.13 14.9323C103.839 15.3592 103.684 15.8645 103.687 16.3813C103.683 16.8662 103.802 17.3443 104.032 17.7712C104.273 18.2098 104.636 18.5692 105.076 18.8062C105.614 19.0859 106.216 19.2217 106.821 19.2004C107.389 19.2135 107.954 19.1199 108.487 18.9245C108.948 18.744 109.37 18.4763 109.729 18.1359C109.866 18.0051 109.995 17.8672 110.117 17.7229C110.155 17.927 110.228 18.1232 110.331 18.3034C110.506 18.6053 110.776 18.8409 111.099 18.9738C111.456 19.1171 111.838 19.1875 112.223 19.1808C112.342 19.1808 112.456 19.1775 112.568 19.1709C112.678 19.1646 112.787 19.1481 112.893 19.1216C112.999 19.0953 113.094 19.0723 113.179 19.0526C113.257 19.0353 113.332 19.0122 113.406 18.9836L113.623 17.6627C113.514 17.7001 113.402 17.7265 113.288 17.7416C113.196 17.7538 113.104 17.7603 113.012 17.7613ZM109.729 16.8742C109.516 17.0431 109.284 17.1884 109.039 17.3079C108.795 17.4265 108.537 17.5126 108.271 17.5642C107.994 17.6175 107.714 17.6439 107.432 17.643C107.111 17.6522 106.792 17.5916 106.496 17.4656C106.256 17.3611 106.053 17.1858 105.914 16.9629C105.778 16.7265 105.71 16.457 105.717 16.1842C105.698 15.8555 105.788 15.5297 105.973 15.2576C106.188 15.0072 106.479 14.8341 106.801 14.7647C107.305 14.6462 107.822 14.5932 108.339 14.607H110.065L110.057 16.564C109.956 16.6764 109.847 16.7801 109.729 16.8742Z" fill="white"/>
<path d="M121.725 14.469C121.523 14.2552 121.29 14.0725 121.035 13.9269C120.77 13.7754 120.493 13.6467 120.207 13.5424C119.997 13.4767 119.79 13.4077 119.586 13.3354C119.382 13.2632 119.178 13.1974 118.974 13.1383C118.771 13.0792 118.574 13.0167 118.383 12.951C118.204 12.8904 118.03 12.8179 117.861 12.7342C117.699 12.6482 117.544 12.5493 117.397 12.4384C117.262 12.3367 117.149 12.2094 117.063 12.0639C116.975 11.9144 116.931 11.7439 116.934 11.571C116.929 11.3809 116.977 11.1932 117.072 11.0288C117.175 10.8674 117.318 10.7351 117.486 10.6444C117.693 10.5312 117.916 10.4514 118.147 10.4078C118.436 10.3524 118.73 10.326 119.024 10.329C119.168 10.329 119.326 10.3359 119.497 10.3487C119.668 10.3615 119.855 10.3852 120.059 10.4177C120.263 10.4502 120.466 10.4936 120.67 10.5458C120.874 10.5981 121.081 10.6576 121.291 10.7233C121.486 10.7833 121.677 10.8557 121.863 10.9401L122.001 9.34325C121.751 9.23855 121.504 9.14656 121.262 9.06726C121.019 8.98876 120.772 8.92296 120.522 8.87013C120.278 8.81862 120.032 8.78238 119.783 8.76167C119.539 8.74196 119.3 8.73211 119.064 8.73211C118.519 8.72654 117.976 8.78945 117.447 8.91938C116.995 9.02955 116.565 9.21626 116.175 9.4714C115.823 9.70482 115.534 10.0235 115.338 10.398C115.131 10.8106 115.03 11.2676 115.042 11.7287C115.036 12.0608 115.089 12.3913 115.2 12.7046C115.293 12.9675 115.433 13.2113 115.614 13.4242C115.789 13.6254 115.991 13.8012 116.215 13.9466C116.448 14.0996 116.696 14.2284 116.954 14.331C117.099 14.384 117.25 14.4366 117.408 14.4887C117.566 14.5416 117.72 14.5909 117.871 14.6366C118.023 14.6823 118.17 14.7286 118.314 14.7746C118.459 14.8206 118.601 14.8666 118.738 14.9126C118.876 14.9586 119.011 15.0013 119.143 15.0407C119.319 15.1032 119.49 15.179 119.655 15.2675C119.8 15.3441 119.935 15.4366 120.059 15.5434C120.169 15.6387 120.256 15.7564 120.315 15.8885C120.376 16.025 120.406 16.1729 120.404 16.3222C120.411 16.468 120.386 16.6135 120.33 16.7482C120.273 16.8829 120.188 17.0034 120.079 17.1009C119.835 17.3048 119.543 17.4438 119.231 17.505C118.865 17.5858 118.492 17.6255 118.118 17.6233C117.883 17.6219 117.65 17.6054 117.418 17.5741C117.161 17.5416 116.892 17.4956 116.609 17.436C116.327 17.3765 116.038 17.3042 115.742 17.2192C115.446 17.1342 115.147 17.0389 114.845 16.9333L114.924 18.6091C115.265 18.7274 115.577 18.8226 115.86 18.8949C116.143 18.9672 116.413 19.0296 116.669 19.0822C116.915 19.1336 117.166 19.1665 117.418 19.1808C117.661 19.1939 117.907 19.2005 118.157 19.2005C118.707 19.2033 119.255 19.1471 119.793 19.0329C120.266 18.9368 120.72 18.7601 121.134 18.5105C121.506 18.2828 121.815 17.9639 122.031 17.5839C122.257 17.1668 122.369 16.6977 122.356 16.2236C122.364 15.8777 122.307 15.5332 122.188 15.2083C122.082 14.9346 121.925 14.6837 121.725 14.469Z" fill="white"/>
<path d="M129.954 17.4163L129.62 17.4754C129.512 17.4946 129.403 17.5078 129.294 17.5149C129.189 17.5218 129.09 17.5247 128.998 17.5247C128.696 17.533 128.396 17.4723 128.121 17.3473C127.884 17.2353 127.688 17.0528 127.559 16.8249C127.421 16.5678 127.353 16.2788 127.362 15.987V10.5261H130.142L130.359 8.94896H127.362V5.83408L125.351 6.54378V8.94896H123.833L123.616 10.5261H125.351V16.401C125.342 16.7929 125.402 17.1832 125.529 17.5543C125.63 17.8479 125.788 18.119 125.992 18.3528C126.18 18.561 126.408 18.7287 126.662 18.8456C126.923 18.9654 127.198 19.0515 127.48 19.1019C127.76 19.1536 128.044 19.18 128.328 19.1808C128.538 19.1808 128.745 19.1742 128.949 19.161C129.154 19.1479 129.34 19.1282 129.511 19.1019C129.682 19.0756 129.843 19.046 129.994 19.0132C130.145 18.9803 130.273 18.9511 130.378 18.9245L130.497 17.2882C130.42 17.3178 130.341 17.3409 130.26 17.3572C130.169 17.3769 130.067 17.3966 129.954 17.4163Z" fill="white"/>
<path d="M132.588 19.0033H134.599V8.75182L132.588 9.04751V19.0033Z" fill="white"/>
<path d="M134.313 4.62162C134.108 4.4966 133.873 4.43171 133.633 4.43435C133.39 4.4325 133.151 4.49726 132.943 4.62162C132.737 4.74202 132.565 4.91132 132.44 5.11448C132.315 5.31904 132.25 5.5548 132.253 5.79465C132.251 6.03752 132.316 6.27623 132.44 6.48465C132.561 6.69092 132.734 6.86112 132.943 6.97751C133.153 7.09585 133.391 7.15699 133.633 7.15492C133.871 7.15776 134.106 7.09651 134.313 6.97751C134.516 6.86016 134.683 6.68978 134.796 6.48465C134.914 6.27405 134.975 6.03619 134.973 5.79465C134.976 5.55616 134.915 5.32128 134.796 5.11448C134.679 4.91235 134.512 4.74289 134.313 4.62162Z" fill="white"/>
<path d="M145.402 9.14609C144.816 8.85034 144.165 8.70789 143.509 8.73208C142.937 8.73316 142.368 8.82296 141.824 8.99825C141.262 9.17716 140.728 9.43254 140.237 9.75723C140.046 9.88242 139.864 10.0201 139.685 10.1617V8.75182L137.674 9.0475V19.0033H139.685V11.5161C139.879 11.4019 140.08 11.2985 140.286 11.2063C140.563 11.0836 140.846 10.975 141.134 10.881C141.411 10.7906 141.694 10.7214 141.982 10.674C142.252 10.6291 142.526 10.606 142.8 10.6049C143.121 10.5975 143.442 10.6476 143.746 10.7528C143.997 10.8431 144.221 10.9958 144.396 11.1964C144.578 11.4137 144.706 11.6702 144.771 11.9455C144.855 12.294 144.895 12.6517 144.889 13.0101V19.0033H146.9V12.5961C146.926 11.8488 146.799 11.1039 146.526 10.4078C146.303 9.87331 145.907 9.42904 145.402 9.14609Z" fill="white"/>
<path d="M156.195 8.98838C155.894 8.90591 155.588 8.84332 155.279 8.80107C154.926 8.75364 154.57 8.7306 154.214 8.73208C153.571 8.72944 152.934 8.85685 152.341 9.10666C151.747 9.35818 151.208 9.72315 150.754 10.1811C150.27 10.675 149.897 11.2664 149.66 11.9159C149.385 12.6772 149.251 13.4823 149.266 14.2916C149.244 15.1819 149.415 16.0663 149.768 16.884C150.077 17.5834 150.589 18.174 151.237 18.5794C151.946 18.9979 152.76 19.2064 153.583 19.1808C154.306 19.1782 155.022 19.0377 155.692 18.7667C156.093 18.6037 156.471 18.3892 156.816 18.1287V18.6682C156.824 19.1123 156.761 19.5549 156.629 19.9792C156.515 20.335 156.319 20.6592 156.057 20.9255C155.775 21.1968 155.429 21.3933 155.052 21.4972C154.561 21.6321 154.053 21.6952 153.543 21.6845C153.138 21.6839 152.734 21.6608 152.331 21.6155C151.909 21.5679 151.49 21.4888 151.079 21.3789C150.656 21.2663 150.241 21.1246 149.837 20.955L150.054 22.6899C150.417 22.837 150.789 22.9589 151.168 23.0546C151.567 23.1554 151.972 23.2311 152.38 23.2814C152.812 23.3344 153.247 23.3608 153.681 23.3602C154.652 23.3906 155.616 23.1984 156.501 22.7984C157.219 22.4639 157.82 21.9212 158.226 21.2409C158.623 20.5416 158.824 19.7481 158.808 18.9442V8.73208L156.879 9.22855C156.656 9.13429 156.428 9.05409 156.195 8.98838ZM156.56 16.884C156.316 17.0261 156.062 17.1512 155.801 17.2586C155.571 17.3531 155.334 17.4289 155.091 17.4853C154.855 17.5387 154.614 17.5651 154.372 17.5642C153.78 17.5856 153.192 17.4531 152.666 17.1797C152.208 16.9183 151.854 16.5078 151.661 16.0166C151.424 15.3771 151.313 14.6974 151.336 14.0155C151.327 13.4714 151.403 12.9293 151.562 12.4088C151.692 11.9811 151.914 11.5873 152.213 11.2555C152.505 10.9473 152.862 10.7082 153.258 10.5557C153.708 10.3851 154.186 10.3015 154.668 10.3093C154.978 10.309 155.288 10.3354 155.594 10.3881C155.908 10.4436 156.217 10.5193 156.521 10.6148C156.617 10.645 156.718 10.6851 156.817 10.7219V16.7332C156.73 16.7841 156.641 16.8374 156.56 16.884Z" fill="white"/>
<path d="M168.093 14.469C167.891 14.2551 167.658 14.0725 167.403 13.9269C167.138 13.7754 166.861 13.6467 166.574 13.5424C166.364 13.4767 166.157 13.4077 165.954 13.3354C165.75 13.2632 165.546 13.1974 165.342 13.1383C165.138 13.0792 164.941 13.0167 164.751 12.951C164.572 12.8904 164.397 12.818 164.228 12.7342C164.066 12.6483 163.911 12.5493 163.765 12.4384C163.63 12.3367 163.516 12.2094 163.43 12.0639C163.343 11.9144 163.298 11.7439 163.301 11.571C163.296 11.3809 163.344 11.1932 163.44 11.0288C163.543 10.8676 163.685 10.7353 163.854 10.6444C164.06 10.5313 164.283 10.4515 164.514 10.4078C164.803 10.3524 165.097 10.326 165.392 10.329C165.536 10.329 165.694 10.3359 165.865 10.3487C166.035 10.3615 166.222 10.3852 166.426 10.4177C166.631 10.4502 166.834 10.4936 167.038 10.5458C167.242 10.5981 167.448 10.6576 167.659 10.7233C167.854 10.7833 168.044 10.8557 168.23 10.9401L168.368 9.34325C168.119 9.23855 167.872 9.14656 167.629 9.06726C167.386 8.98874 167.14 8.92294 166.89 8.87013C166.646 8.81857 166.399 8.78233 166.151 8.76167C165.907 8.74196 165.667 8.73211 165.431 8.73211C164.886 8.72655 164.343 8.78945 163.814 8.91938C163.362 9.02953 162.932 9.21624 162.543 9.4714C162.19 9.70492 161.902 10.0236 161.705 10.398C161.499 10.8106 161.397 11.2676 161.409 11.7287C161.403 12.0608 161.456 12.3913 161.567 12.7046C161.66 12.9675 161.8 13.2113 161.981 13.4242C162.156 13.6254 162.358 13.8012 162.582 13.9466C162.815 14.0996 163.063 14.2284 163.321 14.331C163.466 14.384 163.617 14.4366 163.775 14.4887C163.933 14.5409 164.088 14.5901 164.238 14.6366C164.389 14.6828 164.537 14.7288 164.682 14.7746C164.826 14.8209 164.968 14.8666 165.106 14.9126C165.244 14.9586 165.378 15.0013 165.51 15.0407C165.686 15.1032 165.857 15.179 166.022 15.2675C166.167 15.3441 166.302 15.4367 166.426 15.5434C166.536 15.6387 166.623 15.7564 166.682 15.8885C166.743 16.025 166.773 16.1729 166.772 16.3222C166.779 16.468 166.753 16.6135 166.697 16.7482C166.64 16.8829 166.555 17.0034 166.446 17.1009C166.202 17.3048 165.911 17.4438 165.598 17.505C165.233 17.5857 164.859 17.6254 164.485 17.6233C164.251 17.6219 164.017 17.6054 163.785 17.5741C163.528 17.5416 163.259 17.4956 162.976 17.436C162.694 17.3765 162.405 17.3042 162.109 17.2192C161.813 17.1342 161.514 17.0389 161.212 16.9333L161.291 18.6091C161.632 18.7274 161.945 18.8226 162.227 18.8949C162.51 18.9672 162.78 19.0296 163.036 19.0822C163.283 19.1336 163.533 19.1665 163.785 19.1808C164.028 19.1939 164.274 19.2005 164.524 19.2005C165.074 19.2033 165.623 19.1471 166.16 19.0329C166.634 18.9367 167.087 18.76 167.501 18.5105C167.874 18.2828 168.182 17.9639 168.398 17.5839C168.624 17.1668 168.736 16.6977 168.723 16.2236C168.731 15.8777 168.674 15.5333 168.556 15.2083C168.45 14.9347 168.293 14.6838 168.093 14.469Z" fill="white"/>
<path d="M178.276 9.36459C177.454 8.92822 176.534 8.71093 175.604 8.73372C174.666 8.71236 173.738 8.93662 172.913 9.38429C172.151 9.81069 171.529 10.4471 171.119 11.2177C170.674 12.0824 170.454 13.0451 170.478 14.0172C170.453 14.9817 170.659 15.9382 171.079 16.8068C171.457 17.565 172.059 18.1881 172.805 18.5909C173.606 19.0112 174.502 19.2215 175.407 19.2021C176.354 19.2209 177.291 18.9969 178.128 18.5515C178.909 18.1254 179.549 17.4816 179.971 16.6984C180.429 15.8235 180.656 14.8465 180.631 13.8595C180.654 12.9193 180.444 11.9882 180.02 11.1487C179.627 10.3949 179.02 9.77421 178.276 9.36459ZM178.157 15.9689C177.936 16.4813 177.56 16.9119 177.083 17.2011C176.603 17.4755 176.058 17.6152 175.506 17.6052C174.964 17.6188 174.43 17.475 173.968 17.1912C173.511 16.8876 173.154 16.4554 172.943 15.9492C172.675 15.2999 172.547 14.6011 172.569 13.8989C172.545 13.2157 172.673 12.5358 172.943 11.9078C173.164 11.4141 173.532 11.001 173.998 10.7249C174.495 10.4511 175.056 10.315 175.624 10.3306C176.067 10.3195 176.507 10.4036 176.915 10.577C177.273 10.7382 177.584 10.9854 177.822 11.2966C178.076 11.6348 178.261 12.0201 178.364 12.4302C178.488 12.9099 178.547 13.4037 178.542 13.8989C178.565 14.6087 178.433 15.3149 178.156 15.9689H178.157Z" fill="white"/>
<path d="M187.196 8.87993C186.827 8.97877 186.475 9.13156 186.151 9.33337C185.815 9.5435 185.504 9.79155 185.224 10.0727C185.178 10.1193 185.133 10.1713 185.086 10.2202V8.75182L183.075 9.04751V19.0033H185.086V11.5555C185.236 11.4511 185.39 11.3543 185.549 11.2654C185.747 11.1568 185.951 11.0613 186.161 10.9795C186.364 10.9007 186.571 10.8317 186.782 10.7725C186.998 10.7124 187.219 10.6695 187.442 10.6444C187.681 10.6182 187.922 10.6116 188.162 10.6247L188.398 8.77152C187.994 8.74267 187.588 8.77927 187.196 8.87993Z" fill="white"/>
<path d="M198.807 8.94896H196.343L192.97 12.6552H192.243V4.1189L190.232 4.41462V19.0033H192.243V14.1733H192.275L196.303 19.0033H198.906L194.124 13.6147L198.807 8.94896Z" fill="white"/>
<path d="M208.211 10.2206C207.833 9.73006 207.334 9.34624 206.762 9.10668C206.128 8.84755 205.447 8.72011 204.761 8.7321C204.071 8.72043 203.385 8.85478 202.75 9.12638C202.173 9.37928 201.658 9.75623 201.242 10.2304C200.814 10.7286 200.492 11.3088 200.296 11.9357C200.071 12.6532 199.961 13.4018 199.971 14.1536C199.943 15.1035 200.142 16.0464 200.552 16.9037C200.927 17.6469 201.532 18.2487 202.277 18.6189C203.151 19.0309 204.111 19.2302 205.077 19.2005C205.542 19.2045 206.006 19.1748 206.467 19.1118C206.852 19.0563 207.231 18.9673 207.6 18.8456C207.966 18.7227 208.322 18.5711 208.665 18.3922L208.803 16.8742C208.553 16.9666 208.3 17.0586 208.043 17.1502C207.787 17.2417 207.521 17.3239 207.245 17.3966C206.967 17.4695 206.684 17.5222 206.398 17.5543C206.11 17.5873 205.82 17.6037 205.53 17.6036C205.012 17.6121 204.496 17.5558 203.992 17.436C203.586 17.3389 203.21 17.1425 202.898 16.8643C202.583 16.5643 202.352 16.1871 202.228 15.7702C202.099 15.3479 202.027 14.9103 202.013 14.469H209.138C209.235 13.6537 209.198 12.828 209.029 12.0244C208.891 11.3709 208.612 10.7554 208.211 10.2206ZM203.243 10.6937C203.706 10.4128 204.24 10.2724 204.781 10.2895C205.322 10.2625 205.857 10.4188 206.299 10.7331C206.692 11.0465 206.972 11.4789 207.097 11.9653C207.196 12.3249 207.244 12.6964 207.241 13.0693H202.056C202.093 12.6762 202.177 12.2889 202.306 11.916C202.475 11.4163 202.805 10.9865 203.243 10.6937Z" fill="white"/>
<path d="M217.831 14.469C217.629 14.2551 217.397 14.0724 217.141 13.9269C216.877 13.7754 216.6 13.6467 216.313 13.5424C216.103 13.4767 215.896 13.4077 215.692 13.3354C215.489 13.2632 215.285 13.1974 215.081 13.1383C214.877 13.0792 214.68 13.0167 214.489 12.951C214.311 12.8904 214.136 12.8179 213.967 12.7342C213.805 12.6482 213.65 12.5493 213.504 12.4384C213.369 12.3366 213.255 12.2093 213.169 12.0639C213.082 11.9144 213.037 11.7439 213.04 11.571C213.035 11.3809 213.083 11.1932 213.179 11.0288C213.282 10.8675 213.424 10.7352 213.593 10.6444C213.799 10.5313 214.022 10.4514 214.253 10.4078C214.542 10.3524 214.836 10.326 215.13 10.329C215.275 10.329 215.433 10.3359 215.604 10.3487C215.774 10.3615 215.961 10.3852 216.165 10.4177C216.369 10.4502 216.573 10.4936 216.776 10.5458C216.98 10.5981 217.187 10.6576 217.398 10.7233C217.592 10.7833 217.783 10.8557 217.969 10.9401L218.107 9.34325C217.857 9.23855 217.611 9.14656 217.368 9.06726C217.125 8.98874 216.878 8.92294 216.629 8.87013C216.385 8.81861 216.138 8.78237 215.889 8.76167C215.646 8.74196 215.406 8.73211 215.17 8.73211C214.625 8.72655 214.082 8.78945 213.553 8.91938C213.101 9.02953 212.671 9.21624 212.282 9.4714C211.929 9.70492 211.641 10.0236 211.444 10.398C211.238 10.8106 211.136 11.2676 211.148 11.7287C211.142 12.0608 211.195 12.3913 211.306 12.7046C211.399 12.9675 211.539 13.2113 211.72 13.4242C211.895 13.6254 212.097 13.8012 212.321 13.9466C212.554 14.0996 212.801 14.2284 213.06 14.331C213.205 14.384 213.356 14.4366 213.514 14.4887C213.672 14.5409 213.826 14.5901 213.977 14.6366C214.128 14.6828 214.276 14.7288 214.421 14.7746C214.565 14.8209 214.707 14.8666 214.845 14.9126C214.983 14.9586 215.117 15.0013 215.249 15.0407C215.425 15.1032 215.596 15.179 215.761 15.2675C215.906 15.3441 216.041 15.4367 216.165 15.5434C216.275 15.6388 216.362 15.7564 216.421 15.8885C216.482 16.025 216.512 16.1729 216.51 16.3222C216.517 16.468 216.492 16.6135 216.436 16.7482C216.379 16.8829 216.294 17.0034 216.185 17.1009C215.941 17.3047 215.649 17.4437 215.337 17.505C214.972 17.5857 214.598 17.6255 214.224 17.6233C213.989 17.6219 213.756 17.6054 213.524 17.5741C213.267 17.5416 212.998 17.4956 212.715 17.436C212.433 17.3765 212.144 17.3042 211.848 17.2192C211.552 17.1342 211.253 17.0389 210.951 16.9333L211.03 18.6091C211.371 18.7274 211.683 18.8226 211.966 18.8949C212.249 18.9672 212.518 19.0296 212.775 19.0822C213.021 19.1336 213.272 19.1665 213.524 19.1808C213.767 19.1939 214.013 19.2005 214.263 19.2005C214.813 19.2033 215.361 19.1471 215.899 19.0329C216.373 18.9367 216.826 18.76 217.24 18.5105C217.613 18.2827 217.921 17.9638 218.137 17.5839C218.363 17.1668 218.475 16.6977 218.462 16.2236C218.47 15.8777 218.413 15.5333 218.295 15.2083C218.188 14.9347 218.031 14.6838 217.831 14.469Z" fill="white"/>
<path d="M226.062 17.4163L225.728 17.4754C225.62 17.4947 225.511 17.5078 225.402 17.5149C225.297 17.5218 225.198 17.5247 225.106 17.5247C224.804 17.533 224.504 17.4723 224.229 17.3473C223.992 17.2352 223.796 17.0528 223.667 16.8249C223.529 16.5677 223.461 16.2787 223.47 15.987V10.5261H226.25L226.467 8.94896H223.47V5.83408L221.459 6.54378V8.94896H219.941L219.724 10.5261H221.459V16.401C221.45 16.7929 221.51 17.1832 221.636 17.5543C221.738 17.8478 221.895 18.119 222.1 18.3528C222.287 18.561 222.515 18.7288 222.77 18.8456C223.031 18.9654 223.306 19.0515 223.588 19.1019C223.868 19.1536 224.151 19.18 224.436 19.1808C224.646 19.1808 224.853 19.1742 225.057 19.161C225.261 19.1479 225.448 19.1282 225.619 19.1019C225.789 19.0753 225.95 19.046 226.102 19.0132C226.253 18.9803 226.381 18.9511 226.486 18.9245L226.605 17.2882C226.528 17.3177 226.449 17.3408 226.368 17.3572C226.276 17.3769 226.174 17.3966 226.062 17.4163Z" fill="white"/>
<path d="M232.814 8.87993C232.446 8.97875 232.093 9.13155 231.769 9.33337C231.433 9.54348 231.122 9.79154 230.843 10.0727C230.796 10.1193 230.751 10.1713 230.705 10.2202V8.75182L228.694 9.04751V19.0033H230.705V11.5555C230.854 11.4511 231.009 11.3542 231.168 11.2654C231.365 11.1568 231.57 11.0613 231.78 10.9795C231.983 10.9007 232.19 10.8317 232.4 10.7725C232.617 10.7124 232.838 10.6695 233.061 10.6444C233.3 10.6182 233.54 10.6116 233.78 10.6247L234.017 8.77152C233.613 8.74267 233.207 8.77927 232.814 8.87993Z" fill="white"/>
<path d="M243.48 10.2206C243.101 9.73006 242.602 9.34624 242.031 9.10668C241.396 8.84755 240.715 8.72011 240.03 8.7321C239.339 8.72041 238.654 8.85476 238.019 9.12638C237.441 9.37928 236.926 9.75623 236.511 10.2304C236.083 10.7286 235.76 11.3088 235.564 11.9357C235.34 12.6532 235.23 13.4018 235.239 14.1536C235.211 15.1035 235.41 16.0464 235.82 16.9037C236.195 17.6468 236.8 18.2485 237.545 18.6189C238.42 19.0309 239.379 19.2302 240.345 19.2005C240.81 19.2045 241.274 19.1748 241.735 19.1118C242.12 19.0564 242.499 18.9673 242.869 18.8456C243.235 18.7227 243.591 18.5711 243.933 18.3922L244.071 16.8742C243.821 16.9666 243.568 17.0586 243.312 17.1502C243.056 17.2417 242.79 17.3239 242.514 17.3966C242.235 17.4695 241.952 17.5222 241.666 17.5543C241.378 17.5873 241.088 17.6037 240.799 17.6036C240.281 17.6121 239.764 17.5558 239.261 17.436C238.854 17.339 238.478 17.1426 238.167 16.8643C237.852 16.5644 237.621 16.1872 237.496 15.7702C237.368 15.3479 237.295 14.9103 237.282 14.469H244.406C244.503 13.6537 244.467 12.828 244.298 12.0244C244.159 11.3709 243.88 10.7554 243.48 10.2206ZM238.512 10.6937C238.974 10.4128 239.509 10.2724 240.049 10.2895C240.591 10.2625 241.126 10.4188 241.567 10.7331C241.96 11.0465 242.24 11.4789 242.366 11.9653C242.464 12.3249 242.512 12.6964 242.51 13.0693H237.325C237.361 12.6762 237.445 12.2889 237.575 11.916C237.744 11.4162 238.073 10.9864 238.512 10.6937Z" fill="white"/>
<path d="M252.391 17.3572C252.298 17.3769 252.196 17.3966 252.085 17.4163L251.75 17.4754C251.642 17.4946 251.534 17.5078 251.425 17.5149C251.319 17.5218 251.221 17.5247 251.129 17.5247C250.827 17.533 250.527 17.4723 250.252 17.3473C250.015 17.2352 249.819 17.0528 249.69 16.8249C249.552 16.5677 249.484 16.2787 249.493 15.987V10.5261H252.272L252.489 8.94896H249.493V5.83408L247.482 6.54378V8.94896H245.964L245.747 10.5261H247.482V16.401C247.473 16.7929 247.533 17.1833 247.659 17.5543C247.761 17.8479 247.918 18.119 248.123 18.3528C248.31 18.561 248.538 18.7287 248.793 18.8456C249.053 18.9654 249.328 19.0515 249.611 19.1019C249.89 19.1536 250.174 19.18 250.458 19.1808C250.669 19.1808 250.876 19.1742 251.08 19.161C251.284 19.1479 251.471 19.1282 251.642 19.1019C251.812 19.0753 251.973 19.046 252.125 19.0132C252.276 18.9803 252.404 18.9511 252.509 18.9245L252.627 17.2882C252.551 17.3178 252.471 17.3408 252.391 17.3572Z" fill="white"/>
</svg>
