<svg width="131" height="56" viewBox="0 0 131 56" fill="none" xmlns="http://www.w3.org/2000/svg">
<path d="M0 15.0001V1.00135H4.59339V15.0001H0ZM10.8428 3.22932L13.4844 15.0001H8.45737L5.30307 1.00135H8.12254C8.76907 0.992962 9.39641 1.22087 9.88691 1.6422C10.3782 2.04586 10.7158 2.60623 10.8428 3.22932ZM14.1744 15.0001V1.00135H18.7678V15.0001H14.1744ZM22.2372 6.32486C21.7422 6.32969 21.2552 6.20018 20.828 5.95021C20.4064 5.70655 20.0563 5.35637 19.8127 4.93478C19.5624 4.50747 19.4329 4.0203 19.4378 3.52512C19.4321 3.03295 19.5618 2.54869 19.8127 2.12525C20.0589 1.70824 20.4086 1.36186 20.828 1.11969C21.2553 0.870001 21.7423 0.740515 22.2372 0.745029C22.7292 0.73973 23.2133 0.869332 23.6369 1.11969C24.0521 1.36398 24.3981 1.71007 24.6424 2.12525C24.893 2.54881 25.0226 3.03299 25.0172 3.52512C25.0218 4.02026 24.8923 4.50735 24.6424 4.93478C24.4007 5.35452 24.0542 5.70441 23.6369 5.95021C23.2133 6.20105 22.7289 6.33069 22.2366 6.32486H22.2372ZM25.7269 15.0001V1.00135H30.3207V15.0001H25.7269ZM36.136 8.65135C36.1489 8.66494 36.2475 8.82594 36.4317 9.1344C36.6159 9.44285 36.8558 9.83721 37.1513 10.3174C37.447 10.7974 37.759 11.3067 38.0874 11.8454C38.4157 12.3841 38.7247 12.8935 39.0143 13.3735C39.3028 13.8535 39.6313 14.3957 40 15.0001H34.9531C34.6375 14.4875 34.3515 14.0241 34.0952 13.6101C33.8389 13.196 33.5665 12.7491 33.2778 12.2693C32.9885 11.79 32.7024 11.3234 32.4196 10.8695C32.1368 10.4155 31.8938 10.018 31.6905 9.67665C31.4863 9.33512 31.3449 9.10506 31.2663 8.98654C31.0713 8.69243 30.9559 8.35276 30.9315 8.00072C30.951 7.66284 31.0597 7.33622 31.2466 7.05404C31.3254 6.9226 31.47 6.68925 31.6803 6.35407C31.8906 6.01889 32.137 5.62131 32.4196 5.16126C32.7021 4.70121 32.9882 4.23129 33.2778 3.75152C33.5674 3.27175 33.8398 2.82152 34.0952 2.4009C34.3519 1.98072 34.6379 1.5141 34.9531 1.00103H40L36.0962 7.36949C35.9754 7.55857 35.9073 7.77648 35.8991 8.00072C35.9121 8.23612 35.9942 8.46245 36.1353 8.65135H36.136Z" fill="#0A2343"/>
<path d="M10.6091 21.0019H8.14895L2.80215 27.1621H2.06738V21.0019H0.000810088V34.9757H2.06738V28.6579H2.13657L7.9521 34.9954L10.7666 34.9757L4.09422 28.0478L10.6091 21.0019Z" fill="#015F88"/>
<path d="M16.4542 24.8693C16.0861 24.9679 15.7346 25.1205 15.4111 25.3219C15.0754 25.5315 14.7649 25.7792 14.4861 26.06C14.4395 26.1062 14.3946 26.1584 14.3483 26.2073V24.7413L12.3408 25.0366V34.9757H14.3483V27.54C14.5009 27.4351 14.6547 27.3367 14.8108 27.2507C15.0078 27.1423 15.2117 27.0469 15.4213 26.9653C15.6242 26.8866 15.8307 26.8177 16.0409 26.7587C16.2569 26.6986 16.4774 26.6558 16.7002 26.6308C16.9387 26.6042 17.179 26.5977 17.4186 26.6111L17.6548 24.761C17.2514 24.732 16.8459 24.7686 16.4542 24.8693Z" fill="#015F88"/>
<path d="M19.4846 34.9757H21.4921V24.7413L19.4846 25.0366V34.9757Z" fill="#015F88"/>
<path d="M19.8391 22.97C20.0494 23.0882 20.2868 23.1492 20.5279 23.1471C20.766 23.15 21.0004 23.0889 21.2066 22.97C21.4092 22.8529 21.576 22.6828 21.6892 22.478C21.8072 22.2677 21.8683 22.0303 21.8663 21.7891C21.8691 21.551 21.8079 21.3165 21.6892 21.1101C21.5722 20.9081 21.4063 20.7389 21.2066 20.6181C21.0025 20.4932 20.7672 20.4284 20.5279 20.4311C20.2855 20.4292 20.0473 20.4939 19.8391 20.6181C19.634 20.7383 19.4617 20.9073 19.3376 21.1101C19.2125 21.3143 19.1477 21.5497 19.1506 21.7891C19.1485 22.0315 19.2132 22.2699 19.3376 22.478C19.4579 22.6838 19.631 22.8537 19.8391 22.97Z" fill="#015F88"/>
<path d="M29.6801 26.5914C30.0013 26.5839 30.3211 26.6339 30.6247 26.739C30.8753 26.8292 31.0987 26.9816 31.2742 27.1818C31.4549 27.3989 31.583 27.6549 31.6482 27.9297C31.7323 28.2776 31.7719 28.6347 31.7663 28.9925V34.9757H33.7738V28.5792C33.8 27.8331 33.6728 27.0895 33.3999 26.3946C33.1777 25.8608 32.7825 25.4173 32.278 25.135C31.6933 24.8396 31.0432 24.6974 30.3886 24.7216C29.8173 24.7228 29.2497 24.8124 28.7059 24.9873C28.1454 25.1659 27.6122 25.4209 27.1215 25.7451C26.9315 25.8701 26.7489 26.0075 26.5704 26.1485V24.7413L24.5629 25.0366V34.9757H26.5704V27.5007C26.7648 27.3869 26.9652 27.2837 27.1707 27.1917C27.4471 27.0691 27.7295 26.9607 28.017 26.8669C28.2934 26.7764 28.5763 26.7073 28.8633 26.6603C29.1333 26.6153 29.4064 26.5923 29.6801 26.5914Z" fill="#015F88"/>
<path d="M44.1477 38.7644C44.8645 38.4303 44.6751 37.8886 45.0804 37.2095C45.4765 36.5113 45.6771 35.7192 45.661 34.9166V24.7217L43.7359 25.217C43.5136 25.1229 43.2856 25.0429 43.0533 24.9775C42.7526 24.8952 42.4469 24.8328 42.1381 24.7905C41.7858 24.743 41.4307 24.72 41.0753 24.7217C40.4332 24.7189 39.7972 24.8461 39.2056 25.0956C38.6127 25.3466 38.0745 25.711 37.6212 26.1682C37.1381 26.6613 36.7657 27.2518 36.5288 27.9002C36.2542 28.6602 36.1209 29.4639 36.1352 30.2718C36.1136 31.1606 36.2847 32.0435 36.6368 32.8599C36.9454 33.5581 37.4562 34.1477 38.1034 34.5525C38.8115 34.9702 39.6237 35.1784 40.4455 35.1528C41.1674 35.1502 41.8821 35.0099 42.5514 34.7395C42.9512 34.5763 43.3281 34.3621 43.6729 34.1021V34.6411C43.6809 35.0845 43.6179 35.5264 43.4862 35.9499C43.3726 36.3052 43.1771 36.6288 42.9154 36.8946C42.6335 37.1655 42.2884 37.3616 41.9114 37.4654C41.4213 37.6 40.9143 37.663 40.4061 37.6523C40.0017 37.6517 39.5976 37.6288 39.1957 37.5835C38.7739 37.5356 38.3561 37.4567 37.9459 37.3473C37.5233 37.2347 37.1089 37.0934 36.7057 36.9241L37.7115 38.6561C38.0735 38.803 38.4452 38.9246 38.8239 39.0202C39.2222 39.1208 39.6263 39.1964 40.034 39.2465C40.4649 39.2995 40.8987 39.3258 41.3329 39.3253C42.3017 39.3556 43.2646 39.1637 44.1477 38.7644ZM43.417 32.8599C43.1733 33.0016 42.9203 33.1265 42.6597 33.2339C42.4298 33.3282 42.1927 33.4039 41.9508 33.4602C41.7151 33.5133 41.4743 33.5398 41.2327 33.5389C40.6416 33.5604 40.055 33.4281 39.5303 33.1552C39.0728 32.8942 38.7185 32.4844 38.5265 31.9939C38.2893 31.3555 38.179 30.677 38.2018 29.9963C38.1929 29.4531 38.2692 28.9118 38.4278 28.3922C38.5567 27.9652 38.7786 27.572 39.0776 27.2409C39.3686 26.933 39.7249 26.6943 40.1203 26.5422C40.5696 26.3718 41.0472 26.2883 41.5276 26.2962C41.8377 26.2958 42.1473 26.3221 42.453 26.3749C42.7659 26.4301 43.0749 26.5057 43.378 26.6012C43.4744 26.6314 43.5748 26.6714 43.6732 26.7082V32.709C43.5866 32.7602 43.499 32.8133 43.417 32.8599Z" fill="#015F88"/>
<path d="M50.7188 30.1537H50.7517L54.7729 34.9757H57.3709L52.5968 29.5961L57.2724 24.9381H54.8123L51.4448 28.6392H50.7188V20.1172L48.7114 20.4124V34.9767H50.7188V30.1537Z" fill="#015F88"/>
<path d="M64.676 33.6974C64.7144 33.9011 64.7864 34.097 64.8891 34.277C65.0647 34.5782 65.3344 34.8133 65.6567 34.9461C66.0131 35.0893 66.3946 35.1596 66.7786 35.1528C66.8966 35.1528 67.0115 35.1495 67.123 35.143C67.2325 35.1364 67.3412 35.1199 67.4477 35.0938C67.5527 35.0672 67.6475 35.0445 67.7332 35.0249C67.8103 35.0075 67.886 34.9844 67.9598 34.956L68.1759 33.6373C68.0673 33.6745 67.9552 33.7009 67.8413 33.7161C67.75 33.7283 67.658 33.7348 67.5659 33.7357C67.422 33.7489 67.2771 33.7272 67.1434 33.6723C67.0098 33.6175 66.8914 33.5312 66.7983 33.4208C66.6158 33.1055 66.5399 32.7397 66.5818 32.3777L66.6211 28.3233C66.6255 27.8983 66.5725 27.4746 66.4637 27.0637C66.368 26.7035 66.2081 26.3634 65.9917 26.06C65.7726 25.7634 65.4943 25.5154 65.1746 25.3318C64.8032 25.1208 64.4015 24.9681 63.9838 24.8791C63.473 24.7688 62.9515 24.7159 62.429 24.7216C62.0144 24.7215 61.6002 24.7478 61.189 24.8004C60.8005 24.8493 60.4158 24.9249 60.0377 25.0267C59.687 25.1219 59.342 25.2369 59.0044 25.3711L58.7682 27.0441C59.0963 26.926 59.408 26.8276 59.7035 26.7488C59.9989 26.6701 60.2841 26.6045 60.5592 26.552C60.8292 26.5004 61.1019 26.4643 61.376 26.4438C61.645 26.4241 61.9107 26.4142 62.1731 26.4142C62.5744 26.4056 62.9751 26.452 63.3639 26.552C63.6476 26.6229 63.9084 26.7652 64.1216 26.9653C64.3113 27.1601 64.447 27.4009 64.5152 27.664C64.5989 27.9885 64.6385 28.3228 64.6329 28.6579L64.6307 29.1516L62.3302 29.3074C61.5433 29.3294 60.7681 29.5031 60.0472 29.8191C59.5076 30.0552 59.0419 30.4326 58.6991 30.9115C58.4081 31.3376 58.2537 31.8421 58.2562 32.358C58.2525 32.8421 58.371 33.3194 58.6006 33.7456C58.8414 34.1834 59.2037 34.5422 59.6437 34.7788C60.1806 35.0581 60.7807 35.1938 61.3855 35.1725C61.9523 35.1855 62.5164 35.0921 63.0486 34.897C63.5088 34.7168 63.9297 34.4495 64.2885 34.1097C64.4248 33.9792 64.5542 33.8415 64.676 33.6974ZM62.8327 33.5389C62.557 33.592 62.2768 33.6184 61.996 33.6177C61.6753 33.6268 61.3563 33.5664 61.0611 33.4405C60.821 33.3363 60.6184 33.1612 60.4805 32.9386C60.3442 32.7027 60.276 32.4336 60.2837 32.1612C60.2647 31.8331 60.3546 31.5079 60.5395 31.2362C60.7538 30.9861 61.0442 30.8133 61.3662 30.7442C61.8691 30.6257 62.3852 30.5727 62.9017 30.5867H64.6248L64.6159 32.5401C64.5157 32.6527 64.4059 32.7564 64.2879 32.8501C64.0744 33.0187 63.8435 33.1639 63.5991 33.2831C63.3558 33.4013 63.0982 33.4873 62.8327 33.5389Z" fill="#015F88"/>
<path d="M76.5703 33.5596C76.7956 33.1432 76.9075 32.6748 76.8948 32.2016C76.903 31.8562 76.8463 31.5124 76.7275 31.188C76.6215 30.9148 76.4646 30.6644 76.265 30.4499C76.0635 30.2363 75.8313 30.0539 75.5761 29.9087C75.312 29.7574 75.0355 29.629 74.7495 29.5249C74.5395 29.4593 74.3329 29.3904 74.1295 29.3182C73.9262 29.2461 73.7228 29.1805 73.5194 29.1214C73.316 29.0624 73.1192 29.0001 72.9289 28.9345C72.7505 28.8737 72.5764 28.8014 72.4074 28.718C72.2456 28.632 72.0909 28.5333 71.9448 28.4227C71.81 28.3212 71.6963 28.1941 71.6103 28.0488C71.5236 27.8995 71.4795 27.7294 71.4824 27.5568C71.477 27.367 71.5248 27.1795 71.6204 27.0155C71.723 26.8544 71.8652 26.7223 72.0334 26.6317C72.2394 26.5187 72.4619 26.439 72.6928 26.3955C72.9813 26.3402 73.2747 26.3138 73.5686 26.3168C73.7129 26.3168 73.8705 26.3234 74.0413 26.3365C74.2121 26.3496 74.399 26.3726 74.6022 26.4054C74.8051 26.4382 75.0084 26.4808 75.212 26.5333C75.4155 26.5858 75.6223 26.6448 75.8323 26.7105C76.0268 26.7704 76.2174 26.8427 76.4027 26.927L76.5408 25.3327C76.2913 25.2278 76.0453 25.1359 75.8027 25.0572C75.5603 24.9787 75.314 24.913 75.0647 24.8604C74.8212 24.8088 74.5747 24.7727 74.3266 24.7522C74.0832 24.7325 73.8441 24.7226 73.608 24.7226C73.0643 24.7171 72.5221 24.7799 71.9941 24.9096C71.5426 25.0194 71.1132 25.2058 70.7246 25.4607C70.3725 25.6938 70.0848 26.012 69.8881 26.3857C69.6826 26.7977 69.5813 27.2539 69.5929 27.7142C69.5868 28.0457 69.6401 28.3757 69.7504 28.6884C69.8439 28.9508 69.9839 29.1941 70.1637 29.4068C70.3388 29.6076 70.5408 29.7831 70.764 29.9284C70.9965 30.0808 71.2438 30.2093 71.5021 30.3121C71.6464 30.3646 71.7973 30.4171 71.9547 30.4696C72.1125 30.5221 72.266 30.5713 72.4172 30.6172C72.5684 30.6631 72.7157 30.7091 72.8601 30.755C73.0044 30.8009 73.1454 30.8468 73.2832 30.8928C73.421 30.9387 73.5555 30.9813 73.6867 31.0207C73.8628 31.083 74.0339 31.1587 74.1984 31.247C74.3429 31.3235 74.4783 31.4159 74.6022 31.5226C74.7109 31.6179 74.7981 31.7353 74.8577 31.867C74.9179 32.0033 74.9481 32.151 74.9463 32.3C74.9533 32.4455 74.9278 32.5908 74.8716 32.7253C74.8154 32.8598 74.73 32.9801 74.6216 33.0774C74.3779 33.2809 74.0868 33.4197 73.7752 33.4809C73.4101 33.5615 73.0371 33.6011 72.6632 33.599C72.4295 33.5973 72.1962 33.5809 71.9646 33.5497C71.7087 33.5174 71.4398 33.4715 71.158 33.412C70.8761 33.3525 70.5873 33.2803 70.2916 33.1955C69.9964 33.1102 69.6979 33.0151 69.3961 32.9101L69.4751 34.583C69.8161 34.7011 70.1276 34.7962 70.4097 34.8684C70.6918 34.9406 70.9608 35.0029 71.2167 35.0554C71.4632 35.1063 71.7132 35.1392 71.9646 35.1538C72.2073 35.1667 72.4533 35.1732 72.7026 35.1735C73.2515 35.1762 73.7992 35.1202 74.3362 35.0062C74.8088 34.9101 75.2615 34.7337 75.6745 34.4846C76.0467 34.2571 76.3549 33.9388 76.5703 33.5596Z" fill="#015F88"/>
<path d="M84.4819 33.3913L84.1473 33.4504C84.0399 33.4695 83.9315 33.4827 83.8226 33.4897C83.7176 33.4966 83.6189 33.4996 83.5274 33.4996C83.2258 33.5079 82.9263 33.4473 82.6516 33.3224C82.4153 33.2106 82.2193 33.0285 82.0907 32.8009C81.9527 32.5442 81.8848 32.2557 81.8938 31.9644V26.5127H84.6689L84.8854 24.9381H81.8938V21.8285L79.8863 22.537V24.9381H78.3709L78.1544 26.5127H79.8863V32.3777C79.8776 32.7689 79.9375 33.1586 80.0634 33.5291C80.1647 33.8222 80.3218 34.0928 80.526 34.3262C80.7133 34.534 80.9409 34.7015 81.1951 34.8182C81.4553 34.9377 81.7297 35.0237 82.0116 35.0741C82.2907 35.1255 82.574 35.1518 82.8579 35.1528C83.0678 35.1528 83.2746 35.1462 83.4782 35.1331C83.6813 35.1197 83.8686 35.1003 84.0391 35.0741C84.2097 35.0478 84.3704 35.018 84.5213 34.9855C84.6722 34.953 84.7998 34.9235 84.9051 34.897L85.0232 33.2634C84.9466 33.293 84.8676 33.316 84.787 33.3323C84.6949 33.352 84.5934 33.3716 84.4819 33.3913Z" fill="#015F88"/>
<path d="M88.832 20.6181C88.6278 20.4932 88.3927 20.4284 88.1534 20.4311C87.9109 20.4291 87.6726 20.4938 87.4645 20.6181C87.2592 20.7382 87.0868 20.9072 86.9626 21.1101C86.8376 21.3143 86.7728 21.5497 86.7757 21.7891C86.7736 22.0315 86.8383 22.2698 86.9626 22.478C87.0829 22.6838 87.2563 22.8537 87.4645 22.97C87.6747 23.0882 87.9122 23.1493 88.1534 23.1471C88.3914 23.15 88.6258 23.0889 88.832 22.97C89.0346 22.853 89.2015 22.6829 89.3146 22.478C89.4328 22.2678 89.4938 22.0303 89.4916 21.7891C89.4946 21.551 89.4335 21.3165 89.3146 21.1101C89.1977 20.9081 89.0317 20.7388 88.832 20.6181Z" fill="#015F88"/>
<path d="M87.1091 34.9757H89.1166V24.7413L87.1091 25.0366V34.9757Z" fill="#015F88"/>
<path d="M99.9022 25.135C99.3176 24.8396 98.6676 24.6974 98.0131 24.7217C97.4417 24.7227 96.8739 24.8124 96.33 24.9873C95.7697 25.1659 95.2366 25.4209 94.7459 25.7451C94.5557 25.8701 94.373 26.0075 94.1946 26.1485V24.7413L92.187 25.0366V34.9757H94.1946V27.5007C94.3889 27.3869 94.5893 27.2837 94.7948 27.1917C95.0712 27.0692 95.3537 26.9608 95.6411 26.8669C95.9175 26.7765 96.2005 26.7074 96.4874 26.6603C96.7575 26.6153 97.0308 26.5923 97.3045 26.5914C97.6256 26.5839 97.9454 26.6339 98.2489 26.739C98.4994 26.8292 98.7229 26.9816 98.8984 27.1818C99.0791 27.399 99.2072 27.6549 99.2727 27.9297C99.3564 28.2776 99.396 28.6347 99.3904 28.9925V34.9757H101.398V28.5792C101.424 27.8331 101.297 27.0895 101.024 26.3946C100.802 25.8608 100.407 25.4171 99.9022 25.135Z" fill="#015F88"/>
<path d="M110.678 24.9775C110.378 24.8952 110.072 24.8327 109.763 24.7905C109.411 24.743 109.056 24.72 108.7 24.7217C108.058 24.7188 107.422 24.846 106.831 25.0956C106.238 25.3465 105.699 25.7109 105.246 26.1682C104.763 26.6613 104.391 27.2518 104.154 27.9002C103.879 28.6602 103.746 29.4639 103.76 30.2718C103.738 31.1606 103.91 32.0436 104.262 32.8599C104.57 33.5581 105.081 34.1477 105.728 34.5525C106.436 34.9702 107.249 35.1784 108.07 35.1528C108.792 35.1502 109.507 35.01 110.176 34.7395C110.576 34.5763 110.953 34.3621 111.298 34.1021V34.6411C111.306 35.0845 111.243 35.5264 111.111 35.9499C110.998 36.3052 110.802 36.6289 110.54 36.8946C110.258 37.1654 109.913 37.3616 109.537 37.4654C109.046 37.6 108.539 37.663 108.031 37.6523C107.626 37.6517 107.222 37.6287 106.82 37.5835C106.399 37.5356 105.981 37.4567 105.571 37.3473C105.148 37.2347 104.734 37.0933 104.33 36.9241L104.547 38.6561C104.909 38.8029 105.281 38.9246 105.659 39.0202C106.058 39.1208 106.462 39.1964 106.87 39.2465C107.301 39.2995 107.735 39.3258 108.169 39.3253C109.137 39.3556 110.1 39.1637 110.983 38.7644C111.7 38.4303 112.3 37.8886 112.705 37.2095C113.101 36.5113 113.302 35.7192 113.286 34.9166V24.7217L111.361 25.217C111.139 25.123 110.911 25.043 110.678 24.9775ZM111.042 32.8599C110.798 33.0016 110.545 33.1266 110.285 33.2339C110.055 33.3282 109.818 33.4039 109.576 33.4602C109.34 33.5134 109.099 33.5398 108.858 33.5389C108.267 33.5603 107.68 33.4281 107.155 33.1552C106.698 32.8942 106.344 32.4844 106.152 31.9939C105.914 31.3555 105.804 30.677 105.827 29.9963C105.818 29.4531 105.894 28.9119 106.053 28.3922C106.182 27.9652 106.404 27.5721 106.703 27.2409C106.994 26.9329 107.35 26.6942 107.746 26.5422C108.195 26.3717 108.673 26.2882 109.153 26.2962C109.463 26.2958 109.773 26.3221 110.078 26.3749C110.391 26.4301 110.7 26.5057 111.003 26.6012C111.1 26.6314 111.2 26.6714 111.298 26.7082V32.709C111.211 32.7602 111.123 32.8133 111.042 32.8599Z" fill="#015F88"/>
<path d="M122.555 30.449C122.353 30.2353 122.121 30.0529 121.866 29.9077C121.602 29.7564 121.325 29.628 121.039 29.5239C120.829 29.4583 120.623 29.3894 120.419 29.3173C120.216 29.2451 120.012 29.1795 119.809 29.1204C119.606 29.0614 119.409 28.9991 119.219 28.9335C119.04 28.8727 118.866 28.8004 118.697 28.717C118.535 28.6311 118.381 28.5323 118.235 28.4217C118.1 28.3203 117.986 28.1932 117.9 28.0478C117.814 27.8986 117.769 27.7284 117.772 27.5558C117.767 27.366 117.815 27.1786 117.91 27.0145C118.013 26.8533 118.155 26.7212 118.323 26.6307C118.529 26.5177 118.752 26.4379 118.982 26.3946C119.271 26.3392 119.565 26.3129 119.858 26.3158C120.003 26.3158 120.16 26.3224 120.331 26.3355C120.502 26.3486 120.689 26.3716 120.892 26.4044C121.095 26.4372 121.298 26.4799 121.502 26.5323C121.705 26.5848 121.912 26.6439 122.122 26.7095C122.317 26.7694 122.507 26.8417 122.692 26.926L122.831 25.3318C122.581 25.2268 122.335 25.135 122.093 25.0562C121.85 24.9777 121.604 24.912 121.354 24.8594C121.111 24.8078 120.864 24.7717 120.616 24.7512C120.373 24.7315 120.134 24.7216 119.898 24.7216C119.354 24.7161 118.812 24.7789 118.284 24.9086C117.832 25.0184 117.403 25.2048 117.014 25.4597C116.662 25.6927 116.375 26.0109 116.178 26.3847C115.973 26.7967 115.871 27.2529 115.883 27.7132C115.877 28.0448 115.93 28.3748 116.041 28.6874C116.134 28.9498 116.274 29.1932 116.454 29.4058C116.629 29.6066 116.831 29.7822 117.054 29.9274C117.287 30.0799 117.534 30.2085 117.792 30.3112C117.936 30.3636 118.087 30.4161 118.245 30.4686C118.403 30.5211 118.556 30.5703 118.708 30.6162C118.859 30.6621 119.006 30.7081 119.15 30.754C119.294 30.7999 119.435 30.8459 119.573 30.8918C119.711 30.9377 119.845 30.9803 119.977 31.0197C120.153 31.0821 120.324 31.1577 120.488 31.246C120.633 31.3225 120.768 31.4149 120.892 31.5216C121.001 31.6167 121.088 31.7342 121.148 31.866C121.208 32.0023 121.238 32.15 121.237 32.299C121.244 32.4446 121.218 32.5899 121.162 32.7244C121.106 32.8588 121.02 32.9791 120.912 33.0764C120.668 33.2799 120.377 33.4187 120.065 33.4799C119.7 33.5605 119.327 33.6001 118.954 33.598C118.72 33.5964 118.487 33.5799 118.255 33.5488C117.999 33.5164 117.73 33.4705 117.448 33.411C117.166 33.3515 116.878 33.2794 116.582 33.1945C116.287 33.1092 115.988 33.0141 115.687 32.9091L115.765 34.582C116.106 34.7001 116.417 34.7953 116.7 34.8674C116.982 34.9396 117.251 35.0019 117.507 35.0544C117.753 35.1054 118.003 35.1382 118.255 35.1528C118.497 35.1657 118.743 35.1723 118.993 35.1725C119.542 35.1753 120.089 35.1192 120.626 35.0052C121.099 34.9091 121.552 34.7327 121.965 34.4836C122.337 34.2563 122.645 33.9379 122.86 33.5586C123.086 33.1422 123.198 32.6739 123.185 32.2006C123.193 31.8552 123.136 31.5114 123.017 31.187C122.912 30.9138 122.755 30.6633 122.555 30.449Z" fill="#015F88"/>
<path d="M125.271 28.5792L125.133 30.1931H130.702L130.84 28.5792H125.271Z" fill="#015F88"/>
<path d="M7.78704 45.3779C6.96705 44.9421 6.04848 44.7252 5.12017 44.7481C4.18336 44.7267 3.25725 44.9506 2.43367 45.3976C1.67327 45.823 1.0515 46.4585 0.642674 47.228C0.198181 48.0911 -0.0219618 49.0522 0.002643 50.0227C-0.0223531 50.9856 0.1835 51.9405 0.602952 52.8076C0.980001 53.5644 1.5814 54.1865 2.32508 54.5888C3.12567 55.0082 4.0194 55.2181 4.923 55.1989C5.86905 55.2178 6.80418 54.9942 7.63937 54.5494C8.41899 54.124 9.05831 53.4813 9.47962 52.6994C9.93659 51.826 10.1635 50.8506 10.1389 49.8653C10.1614 48.9267 9.95169 47.9971 9.52847 47.1591C9.13646 46.4065 8.53058 45.7868 7.78704 45.3779ZM7.66892 51.9712C7.44764 52.4826 7.07277 52.9125 6.59627 53.2013C6.11744 53.4753 5.57337 53.6147 5.02174 53.6047C4.48093 53.6183 3.9478 53.4747 3.48693 53.1914C3.03059 52.8884 2.67438 52.4569 2.46322 51.9515C2.19562 51.3032 2.06823 50.6056 2.08955 49.9046C2.06635 49.2226 2.19398 48.5439 2.46322 47.9168C2.68396 47.424 3.05175 47.0115 3.51617 46.7359C4.01283 46.4625 4.57345 46.3266 5.14019 46.3423C5.58243 46.3312 6.02189 46.4151 6.42898 46.5883C6.78572 46.749 7.09692 46.9959 7.33465 47.3067C7.58825 47.6443 7.77219 48.029 7.87561 48.4384C7.99875 48.9172 8.05824 49.4102 8.05268 49.9046C8.07559 50.6131 7.94468 51.3182 7.66892 51.9712Z" fill="#015F88"/>
<path d="M16.6923 44.8957C16.3243 44.9944 15.9729 45.1469 15.6496 45.3484C15.3137 45.5579 15.0032 45.8056 14.7242 46.0864C14.678 46.1327 14.6327 46.1848 14.5865 46.2337V44.7678L12.5789 45.063V55.0021H14.5865V47.5665C14.7358 47.4623 14.8902 47.3658 15.0493 47.2772C15.2462 47.1688 15.45 47.0734 15.6594 46.9918C15.8624 46.913 16.069 46.8442 16.2794 46.7851C16.4953 46.725 16.7156 46.6822 16.9384 46.6572C17.177 46.6307 17.4173 46.6241 17.657 46.6375L17.8929 44.7875C17.4895 44.7585 17.0841 44.795 16.6923 44.8957Z" fill="#015F88"/>
<path d="M28.2848 44.9646H25.8246L22.4568 48.6657H21.7308V40.1436L19.7234 40.4388V55.0031H21.7308V50.1811H21.7637L25.7849 55.0031H28.3828L23.6088 49.6235L28.2848 44.9646Z" fill="#015F88"/>
<path d="M37.6727 46.234C37.295 45.7443 36.7965 45.3612 36.2262 45.122C35.5926 44.8632 34.9128 44.7359 34.2285 44.7481C33.5391 44.7364 32.855 44.8705 32.221 45.1417C31.6444 45.3942 31.1303 45.7705 30.7154 46.2439C30.2881 46.7414 29.9666 47.3206 29.7703 47.9463C29.546 48.6626 29.4365 49.4099 29.4459 50.1605C29.418 51.1088 29.6171 52.0501 30.0265 52.906C30.4004 53.6479 31.0046 54.2487 31.7486 54.6183C32.6214 55.0295 33.579 55.2284 34.5434 55.1989C35.0074 55.2029 35.4711 55.1733 35.9309 55.1104C36.3152 55.055 36.6939 54.9661 37.0627 54.8447C37.4283 54.7219 37.7836 54.5705 38.1255 54.392L38.2632 52.8765C38.0137 52.9684 37.761 53.0602 37.5051 53.1521C37.2493 53.2439 36.9837 53.3259 36.7084 53.3981C36.4304 53.4708 36.1476 53.5235 35.862 53.5555C35.5745 53.5883 35.2855 53.6047 34.9961 53.6047C34.4793 53.6131 33.9634 53.5569 33.4606 53.4374C33.055 53.3404 32.6798 53.1443 32.3686 52.8667C32.0542 52.5671 31.8235 52.1906 31.6994 51.7744C31.571 51.3527 31.4988 50.9159 31.4849 50.4754H38.5978C38.6945 49.6614 38.6578 48.8371 38.4892 48.0349C38.3508 47.3825 38.0722 46.768 37.6727 46.234ZM32.7131 46.7064C33.1749 46.426 33.7082 46.2858 34.2482 46.3029C34.7888 46.2759 35.3226 46.4319 35.7636 46.7457C36.1556 47.0586 36.4354 47.4903 36.5608 47.9758C36.6589 48.3349 36.7072 48.7058 36.7041 49.078H31.5282C31.5646 48.6855 31.6485 48.2989 31.7782 47.9266C31.9461 47.4276 32.2749 46.9984 32.7131 46.7064Z" fill="#015F88"/>
<path d="M47.2772 50.4754C47.0757 50.2618 46.8435 50.0794 46.5883 49.9341C46.3241 49.7829 46.0475 49.6545 45.7614 49.5504C45.5519 49.4848 45.3454 49.4159 45.1418 49.3437C44.9382 49.2715 44.7347 49.2059 44.5313 49.1469C44.3279 49.0878 44.1311 49.0255 43.9408 48.9599C43.7624 48.8992 43.5882 48.8269 43.4193 48.7434C43.2575 48.6576 43.1027 48.5589 42.9567 48.4482C42.8218 48.3466 42.7082 48.2196 42.6222 48.0743C42.5354 47.925 42.491 47.7549 42.4939 47.5822C42.4887 47.3925 42.5365 47.205 42.632 47.041C42.7348 46.8799 42.8771 46.7478 43.0453 46.6572C43.2513 46.5442 43.4738 46.4644 43.7047 46.421C43.9932 46.3657 44.2867 46.3393 44.5805 46.3423C44.7245 46.3423 44.8823 46.3488 45.0529 46.362C45.2234 46.3751 45.4101 46.3981 45.6138 46.4309C45.8175 46.4637 46.0202 46.5063 46.2239 46.5588C46.4276 46.6113 46.6339 46.6703 46.8439 46.7359C47.0385 46.7957 47.229 46.868 47.4143 46.9524L47.5524 45.3582C47.3031 45.2532 47.057 45.1614 46.8143 45.0827C46.5719 45.0041 46.3256 44.9384 46.0763 44.8859C45.8328 44.8342 45.5863 44.7981 45.3382 44.7776C45.0953 44.7579 44.8558 44.7481 44.6199 44.7481C44.0762 44.7426 43.534 44.8054 43.006 44.9351C42.5545 45.0449 42.1251 45.2313 41.7365 45.4861C41.3843 45.7192 41.0966 46.0373 40.9001 46.4112C40.6945 46.8232 40.5931 47.2794 40.6048 47.7397C40.5987 48.0712 40.652 48.4012 40.7623 48.7139C40.8557 48.9763 40.9957 49.2196 41.1756 49.4323C41.3506 49.6331 41.5526 49.8086 41.7759 49.9538C42.0083 50.1064 42.2556 50.2349 42.514 50.3376C42.6579 50.3901 42.8087 50.4426 42.9666 50.4951C43.1245 50.5476 43.2787 50.5967 43.4292 50.6427C43.5796 50.6886 43.7272 50.7345 43.8719 50.7805C44.0167 50.8264 44.1578 50.8723 44.2951 50.9182C44.4329 50.9641 44.5674 51.0068 44.6986 51.0462C44.8746 51.1085 45.0457 51.1842 45.2103 51.2725C45.3546 51.3491 45.4899 51.4415 45.6138 51.548C45.7228 51.6432 45.81 51.7606 45.8696 51.8924C45.9297 52.0288 45.96 52.1764 45.9582 52.3254C45.9652 52.471 45.9397 52.6163 45.8835 52.7508C45.8273 52.8852 45.7419 53.0055 45.6335 53.1028C45.3897 53.3063 45.0987 53.4451 44.7871 53.5063C44.422 53.5869 44.0491 53.6265 43.6752 53.6244C43.4415 53.6228 43.2081 53.6064 42.9765 53.5752C42.7206 53.5428 42.4516 53.4969 42.1695 53.4374C41.8874 53.378 41.5988 53.3058 41.3036 53.2209C41.0084 53.1357 40.7099 53.0405 40.4081 52.9356L40.4868 54.6085C40.8275 54.7266 41.1391 54.8217 41.4216 54.8939C41.7042 54.966 41.9731 55.0284 42.2285 55.0808C42.4751 55.1318 42.7251 55.1647 42.9765 55.1792C43.219 55.1921 43.465 55.1987 43.7145 55.1989C44.2634 55.2017 44.8111 55.1456 45.3481 55.0316C45.8207 54.9355 46.2734 54.7591 46.6864 54.5101C47.0586 54.2827 47.3667 53.9644 47.5819 53.5851C47.8071 53.1686 47.919 52.7003 47.9063 52.227C47.9147 51.8817 47.8581 51.5379 47.7394 51.2134C47.6336 50.9403 47.4767 50.6898 47.2772 50.4754Z" fill="#015F88"/>
<path d="M55.494 53.4178L55.1597 53.4768C55.0523 53.496 54.9439 53.5091 54.835 53.5162C54.7297 53.5231 54.6309 53.526 54.5397 53.526C54.2381 53.5342 53.9386 53.4737 53.6639 53.3489C53.4277 53.2369 53.2318 53.0548 53.103 52.8273C52.9651 52.5706 52.8972 52.2821 52.9061 51.9909V46.5391H55.6812L55.8978 44.9646H52.9061V41.8549L50.8987 42.5634V44.9646H49.3828L49.1664 46.5391H50.8987V52.4042C50.8897 52.7954 50.9497 53.1851 51.0758 53.5555C51.177 53.8486 51.3341 54.1193 51.5383 54.3526C51.7255 54.5605 51.9533 54.7279 52.2075 54.8447C52.4677 54.9642 52.742 55.0502 53.0239 55.1005C53.3031 55.152 53.5863 55.1783 53.8702 55.1792C54.0801 55.1792 54.2869 55.1727 54.4905 55.1596C54.6941 55.1464 54.8811 55.1268 55.0514 55.1005C55.2217 55.074 55.3827 55.0444 55.5333 55.012C55.6839 54.9795 55.8121 54.95 55.9171 54.9234L56.0355 53.2898C55.9589 53.3194 55.8799 53.3424 55.7993 53.3587C55.7073 53.3791 55.6055 53.3987 55.494 53.4178Z" fill="#015F88"/>
<path d="M62.2347 44.8957C61.8666 44.9944 61.5151 45.1469 61.1916 45.3484C60.8559 45.5579 60.5454 45.8056 60.2666 46.0864C60.2203 46.1327 60.1751 46.1848 60.1288 46.2337V44.7678L58.1214 45.063V55.0021H60.1288V47.5665C60.2814 47.4615 60.4352 47.3631 60.5913 47.2772C60.7883 47.1688 60.9923 47.0735 61.2018 46.9918C61.4047 46.913 61.6112 46.8442 61.8214 46.7851C62.0374 46.7251 62.2579 46.6823 62.4807 46.6572C62.7193 46.6307 62.9598 46.6241 63.1995 46.6375L63.4353 44.7875C63.0319 44.7585 62.6264 44.795 62.2347 44.8957Z" fill="#015F88"/>
<path d="M72.8824 46.234C72.5047 45.7444 72.0062 45.3612 71.4358 45.122C70.8022 44.8632 70.1226 44.736 69.4382 44.7481C68.7488 44.7364 68.0646 44.8706 67.4306 45.1417C66.854 45.3942 66.3399 45.7705 65.925 46.2439C65.4975 46.7412 65.176 47.3205 64.98 47.9463C64.7557 48.6626 64.6462 49.4099 64.6556 50.1605C64.6277 51.1088 64.8268 52.0502 65.2362 52.906C65.6101 53.6479 66.2143 54.2487 66.9583 54.6183C67.8311 55.0295 68.7887 55.2285 69.7531 55.1989C70.2171 55.2029 70.6808 55.1733 71.1406 55.1103C71.5249 55.055 71.9035 54.9661 72.2723 54.8446C72.6379 54.7219 72.9933 54.5705 73.3351 54.392L73.4728 52.8765C73.2233 52.9683 72.9706 53.0602 72.7147 53.1521C72.4589 53.2439 72.1933 53.3259 71.918 53.3981C71.64 53.4708 71.3573 53.5234 71.0717 53.5555C70.7842 53.5882 70.4951 53.6047 70.2057 53.6047C69.6889 53.6131 69.1731 53.5569 68.6703 53.4374C68.2647 53.3403 67.8895 53.1442 67.5782 52.8667C67.2638 52.5671 67.0332 52.1905 66.9091 51.7743C66.7806 51.3527 66.7085 50.9159 66.6946 50.4754H73.8071C73.9041 49.6614 73.8675 48.8371 73.6988 48.0349C73.5605 47.3825 73.2819 46.768 72.8824 46.234ZM67.9227 46.7064C68.3845 46.426 68.9178 46.2858 69.4578 46.3029C69.9984 46.2759 70.5323 46.4319 70.9733 46.7457C71.3653 47.0585 71.6449 47.4902 71.7701 47.9758C71.8686 48.3348 71.9169 48.7057 71.9137 49.078H66.7378C66.7743 48.6856 66.8581 48.299 66.9875 47.9266C67.1557 47.4277 67.4846 46.9985 67.9227 46.7064Z" fill="#015F88"/>
<path d="M81.4729 53.4178L81.1383 53.4768C81.0309 53.496 80.9224 53.5091 80.8135 53.5162C80.7086 53.5231 80.6098 53.526 80.5183 53.526C80.2168 53.5343 79.9174 53.4737 79.6428 53.3489C79.4065 53.2371 79.2105 53.0549 79.0819 52.8273C78.9439 52.5707 78.876 52.2821 78.885 51.9909V46.5391H81.6601L81.8767 44.9646H78.885V41.8549L76.8776 42.5634V44.9646H75.3621L75.1456 46.5391H76.8776V52.4042C76.8688 52.7954 76.9288 53.1851 77.0547 53.5555C77.156 53.8486 77.313 54.1193 77.5172 54.3526C77.7044 54.5605 77.9322 54.7279 78.1864 54.8447C78.4466 54.9642 78.721 55.0502 79.0028 55.1005C79.282 55.152 79.5652 55.1783 79.8491 55.1792C80.059 55.1792 80.2658 55.1727 80.4694 55.1596C80.673 55.1464 80.86 55.1268 81.0303 55.1005C81.2009 55.0741 81.3616 55.0445 81.5125 55.012C81.6634 54.9794 81.7914 54.9499 81.8964 54.9234L82.0144 53.2898C81.9378 53.3194 81.8588 53.3425 81.7782 53.3587C81.686 53.3791 81.5842 53.3987 81.4729 53.4178Z" fill="#015F88"/>
</svg>
