<svg width="131" height="55" viewBox="0 0 131 55" fill="none" xmlns="http://www.w3.org/2000/svg">
<path d="M0 14.3333V0.334605H4.59339V14.3333H0ZM10.8428 2.56258L13.4844 14.3333H8.45737L5.30307 0.334605H8.12254C8.76907 0.326214 9.39641 0.554123 9.88691 0.975455C10.3782 1.37911 10.7158 1.93948 10.8428 2.56258ZM14.1744 14.3333V0.334605H18.7678V14.3333H14.1744ZM22.2372 5.65812C21.7422 5.66294 21.2552 5.53343 20.828 5.28346C20.4064 5.03981 20.0563 4.68962 19.8127 4.26803C19.5624 3.84072 19.4329 3.35355 19.4378 2.85837C19.4321 2.3662 19.5618 1.88194 19.8127 1.4585C20.0589 1.04149 20.4086 0.695109 20.828 0.452939C21.2553 0.203253 21.7423 0.073767 22.2372 0.0782812C22.7292 0.0729823 23.2133 0.202584 23.6369 0.452939C24.0521 0.697232 24.3981 1.04332 24.6424 1.4585C24.893 1.88206 25.0226 2.36624 25.0172 2.85837C25.0218 3.35352 24.8923 3.8406 24.6424 4.26803C24.4007 4.68777 24.0542 5.03766 23.6369 5.28346C23.2133 5.53431 22.7289 5.66394 22.2366 5.65812H22.2372ZM25.7269 14.3333V0.334605H30.3207V14.3333H25.7269ZM36.136 7.98461C36.1489 7.99819 36.2475 8.1592 36.4317 8.46765C36.6159 8.7761 36.8558 9.17046 37.1513 9.65067C37.447 10.1307 37.759 10.64 38.0874 11.1787C38.4157 11.7174 38.7247 12.2268 39.0143 12.7067C39.3028 13.1867 39.6313 13.7289 40 14.3333H34.9531C34.6375 13.8207 34.3515 13.3574 34.0952 12.9433C33.8389 12.5293 33.5665 12.0823 33.2778 11.6026C32.9884 11.1233 32.7024 10.6566 32.4196 10.2027C32.1368 9.74879 31.8938 9.35121 31.6905 9.0099C31.4863 8.66837 31.3449 8.43831 31.2663 8.31979C31.0713 8.02568 30.9559 7.68601 30.9315 7.33397C30.951 6.99609 31.0597 6.66947 31.2466 6.3873C31.3254 6.25585 31.47 6.0225 31.6803 5.68732C31.8906 5.35214 32.137 4.95456 32.4196 4.49451C32.7021 4.03446 32.9882 3.56454 33.2778 3.08477C33.5674 2.605 33.8398 2.15477 34.0952 1.73416C34.3519 1.31398 34.6379 0.84735 34.9531 0.334284H40L36.0962 6.70275C35.9754 6.89183 35.9073 7.10974 35.8991 7.33397C35.9121 7.56938 35.9942 7.7957 36.1353 7.98461H36.136Z" fill="white"/>
<path d="M10.6091 20.3949H8.14895L2.80215 26.5552H2.06738V20.3949H0.00081195V34.3687H2.06738V28.051H2.13657L7.9521 34.3884L10.7666 34.3687L4.09422 27.4409L10.6091 20.3949Z" fill="white"/>
<path d="M16.4542 24.2623C16.0861 24.361 15.7346 24.5135 15.4111 24.715C15.0754 24.9246 14.7649 25.1722 14.4861 25.4531C14.4395 25.4993 14.3946 25.5515 14.3483 25.6003V24.1344L12.3408 24.4296V34.3687H14.3483V26.9331C14.5009 26.8281 14.6547 26.7297 14.8108 26.6438C15.0078 26.5353 15.2117 26.44 15.4213 26.3584C15.6242 26.2797 15.8308 26.2108 16.0409 26.1518C16.2569 26.0917 16.4774 26.0489 16.7002 26.0238C16.9387 25.9973 17.179 25.9907 17.4186 26.0041L17.6548 24.1541C17.2514 24.1251 16.8459 24.1617 16.4542 24.2623Z" fill="white"/>
<path d="M19.4846 34.3687H21.4921V24.1344L19.4846 24.4296V34.3687Z" fill="white"/>
<path d="M19.8391 22.3631C20.0494 22.4812 20.2868 22.5423 20.5279 22.5402C20.766 22.5431 21.0004 22.4819 21.2067 22.3631C21.4092 22.246 21.576 22.0758 21.6892 21.871C21.8072 21.6608 21.8683 21.4233 21.8663 21.1822C21.8691 20.9441 21.8079 20.7096 21.6892 20.5032C21.5722 20.3012 21.4063 20.132 21.2067 20.0111C21.0025 19.8863 20.7672 19.8215 20.5279 19.8242C20.2855 19.8223 20.0473 19.887 19.8391 20.0111C19.634 20.1313 19.4617 20.3004 19.3376 20.5032C19.2125 20.7074 19.1477 20.9428 19.1506 21.1822C19.1485 21.4246 19.2132 21.6629 19.3376 21.871C19.4579 22.0768 19.6311 22.2467 19.8391 22.3631Z" fill="white"/>
<path d="M29.6801 25.9845C30.0013 25.977 30.3211 26.027 30.6247 26.132C30.8753 26.2223 31.0987 26.3747 31.2742 26.5749C31.4549 26.792 31.583 27.0479 31.6482 27.3228C31.7323 27.6706 31.7719 28.0278 31.7663 28.3856V34.3687H33.7738V27.9723C33.8 27.2261 33.6728 26.4826 33.3999 25.7876C33.1777 25.2539 32.7825 24.8103 32.278 24.528C31.6933 24.2327 31.0432 24.0905 30.3886 24.1147C29.8173 24.1158 29.2497 24.2054 28.7059 24.3804C28.1454 24.5589 27.6122 24.8139 27.1215 25.1381C26.9316 25.2631 26.7489 25.4006 26.5704 25.5416V24.1344L24.5629 24.4296V34.3687H26.5704V26.8937C26.7648 26.7799 26.9652 26.6768 27.1707 26.5847C27.4471 26.4622 27.7295 26.3538 28.017 26.26C28.2934 26.1695 28.5763 26.1004 28.8633 26.0533C29.1333 26.0084 29.4064 25.9854 29.6801 25.9845Z" fill="white"/>
<path d="M44.1477 38.1574C44.8645 37.8233 44.6751 37.2816 45.0804 36.6026C45.4765 35.9044 45.6771 35.1123 45.661 34.3097V24.1147L43.7359 24.61C43.5136 24.516 43.2856 24.436 43.0533 24.3706C42.7526 24.2883 42.4469 24.2258 42.1381 24.1836C41.7858 24.1361 41.4307 24.1131 41.0753 24.1147C40.4332 24.112 39.7972 24.2392 39.2056 24.4887C38.6127 24.7397 38.0745 25.1041 37.6212 25.5613C37.1381 26.0544 36.7657 26.6449 36.5288 27.2933C36.2542 28.0532 36.1209 28.857 36.1352 29.6649C36.1136 30.5537 36.2848 31.4366 36.6368 32.253C36.9454 32.9512 37.4562 33.5407 38.1034 33.9456C38.8115 34.3633 39.6237 34.5715 40.4455 34.5459C41.1674 34.5433 41.8821 34.403 42.5514 34.1326C42.9512 33.9694 43.3281 33.7552 43.6729 33.4952V34.0342C43.6809 34.4776 43.6179 34.9195 43.4862 35.343C43.3726 35.6982 43.1771 36.0218 42.9154 36.2877C42.6335 36.5585 42.2884 36.7547 41.9114 36.8584C41.4213 36.9931 40.9143 37.0561 40.4061 37.0454C40.0017 37.0448 39.5976 37.0218 39.1957 36.9765C38.7739 36.9287 38.3561 36.8497 37.9459 36.7404C37.5233 36.6278 37.1089 36.4864 36.7057 36.3172L37.7115 38.0492C38.0735 38.196 38.4452 38.3177 38.8239 38.4133C39.2222 38.5138 39.6263 38.5894 40.034 38.6396C40.4649 38.6926 40.8987 38.7189 41.3329 38.7183C42.3017 38.7487 43.2646 38.5568 44.1477 38.1574ZM43.417 32.253C43.1733 32.3946 42.9203 32.5196 42.6597 32.6269C42.4298 32.7213 42.1927 32.797 41.9508 32.8533C41.7151 32.9064 41.4743 32.9328 41.2327 32.932C40.6416 32.9534 40.055 32.8212 39.5303 32.5482C39.0728 32.2873 38.7185 31.8774 38.5265 31.387C38.2893 30.7486 38.179 30.07 38.2018 29.3893C38.1929 28.8462 38.2692 28.3049 38.4278 27.7853C38.5567 27.3583 38.7786 26.9651 39.0776 26.6339C39.3686 26.3261 39.7249 26.0873 40.1203 25.9352C40.5696 25.7649 41.0472 25.6814 41.5276 25.6892C41.8377 25.6888 42.1473 25.7152 42.453 25.768C42.7659 25.8232 43.0749 25.8988 43.378 25.9943C43.4745 26.0245 43.5748 26.0645 43.6732 26.1012V32.1021C43.5866 32.1533 43.499 32.2064 43.417 32.253Z" fill="white"/>
<path d="M50.7188 29.5468H50.7517L54.7729 34.3687H57.3709L52.5968 28.9891L57.2724 24.3312H54.8123L51.4448 28.0323H50.7188V19.5103L48.7114 19.8055V34.3697H50.7188V29.5468Z" fill="white"/>
<path d="M64.676 33.0904C64.7144 33.2941 64.7864 33.49 64.8891 33.67C65.0647 33.9713 65.3344 34.2064 65.6567 34.3392C66.0131 34.4823 66.3946 34.5526 66.7786 34.5459C66.8967 34.5459 67.0115 34.5426 67.123 34.536C67.2325 34.5295 67.3412 34.513 67.4477 34.4868C67.5527 34.4603 67.6475 34.4376 67.7332 34.4179C67.8103 34.4005 67.886 34.3775 67.9598 34.3491L68.1759 33.0304C68.0673 33.0676 67.9552 33.0939 67.8414 33.1091C67.75 33.1213 67.658 33.1279 67.5659 33.1288C67.422 33.142 67.2771 33.1202 67.1434 33.0654C67.0098 33.0106 66.8914 32.9243 66.7983 32.8139C66.6158 32.4985 66.5399 32.1327 66.5818 31.7708L66.6211 27.7164C66.6255 27.2914 66.5725 26.8677 66.4637 26.4568C66.368 26.0965 66.2081 25.7565 65.9917 25.4531C65.7726 25.1564 65.4943 24.9085 65.1746 24.7248C64.8032 24.5139 64.4015 24.3612 63.9838 24.2722C63.473 24.1618 62.9515 24.109 62.429 24.1147C62.0144 24.1145 61.6002 24.1408 61.189 24.1934C60.8005 24.2423 60.4158 24.318 60.0377 24.4198C59.687 24.515 59.342 24.6299 59.0044 24.7642L58.7682 26.4371C59.0963 26.319 59.408 26.2206 59.7035 26.1419C59.9989 26.0632 60.2841 25.9976 60.5592 25.9451C60.8292 25.8935 61.1019 25.8574 61.376 25.8368C61.645 25.8172 61.9107 25.8073 62.1731 25.8073C62.5744 25.7987 62.9751 25.8451 63.3639 25.9451C63.6476 26.016 63.9084 26.1582 64.1216 26.3584C64.3113 26.5531 64.447 26.7939 64.5152 27.0571C64.5989 27.3816 64.6385 27.7159 64.6329 28.051L64.6307 28.5447L62.3302 28.7005C61.5433 28.7224 60.7681 28.8962 60.0472 29.2122C59.5076 29.4482 59.0419 29.8256 58.6991 30.3045C58.4081 30.7306 58.2537 31.2351 58.2562 31.7511C58.2526 32.2352 58.371 32.7124 58.6006 33.1387C58.8414 33.5764 59.2037 33.9353 59.6437 34.1719C60.1806 34.4512 60.7807 34.5868 61.3855 34.5655C61.9523 34.5786 62.5164 34.4851 63.0487 34.29C63.5088 34.1099 63.9297 33.8425 64.2885 33.5028C64.4248 33.3722 64.5542 33.2346 64.676 33.0904ZM62.8327 32.932C62.557 32.9851 62.2768 33.0115 61.996 33.0107C61.6753 33.0198 61.3563 32.9594 61.0611 32.8336C60.821 32.7293 60.6184 32.5542 60.4805 32.3317C60.3442 32.0958 60.276 31.8267 60.2837 31.5543C60.2647 31.2262 60.3546 30.901 60.5395 30.6293C60.7538 30.3792 61.0442 30.2063 61.3662 30.1372C61.8691 30.0187 62.3852 29.9658 62.9017 29.9798H64.6248L64.6159 31.9332C64.5157 32.0458 64.4059 32.1495 64.2879 32.2431C64.0744 32.4118 63.8436 32.5569 63.5991 32.6761C63.3558 32.7943 63.0982 32.8804 62.8327 32.932Z" fill="white"/>
<path d="M76.5703 32.9527C76.7956 32.5362 76.9075 32.0679 76.8948 31.5946C76.903 31.2493 76.8463 30.9054 76.7275 30.5811C76.6215 30.3079 76.4646 30.0574 76.265 29.843C76.0635 29.6294 75.8313 29.447 75.5761 29.3018C75.312 29.1505 75.0355 29.0221 74.7495 28.918C74.5395 28.8524 74.3329 28.7835 74.1295 28.7113C73.9262 28.6391 73.7228 28.5735 73.5194 28.5145C73.316 28.4554 73.1192 28.3931 72.9289 28.3275C72.7505 28.2668 72.5764 28.1945 72.4074 28.111C72.2456 28.0251 72.0909 27.9264 71.9449 27.8158C71.81 27.7142 71.6963 27.5872 71.6103 27.4419C71.5236 27.2925 71.4794 27.1224 71.4824 26.9498C71.477 26.7601 71.5248 26.5726 71.6204 26.4086C71.723 26.2474 71.8652 26.1153 72.0334 26.0248C72.2394 25.9118 72.4619 25.832 72.6928 25.7886C72.9813 25.7333 73.2747 25.7069 73.5686 25.7099C73.7129 25.7099 73.8705 25.7164 74.0413 25.7296C74.2121 25.7427 74.399 25.7657 74.6022 25.7985C74.8051 25.8313 75.0084 25.8739 75.212 25.9264C75.4156 25.9789 75.6224 26.0379 75.8323 26.1035C76.0269 26.1634 76.2174 26.2358 76.4027 26.32L76.5408 24.7258C76.2913 24.6208 76.0453 24.529 75.8027 24.4503C75.5603 24.3718 75.314 24.3061 75.0647 24.2535C74.8212 24.2019 74.5747 24.1657 74.3266 24.1452C74.0832 24.1255 73.8441 24.1157 73.608 24.1157C73.0643 24.1102 72.5221 24.173 71.9941 24.3027C71.5426 24.4125 71.1132 24.5989 70.7246 24.8537C70.3725 25.0869 70.0848 25.405 69.8881 25.7788C69.6826 26.1908 69.5813 26.647 69.5929 27.1073C69.5868 27.4388 69.6401 27.7688 69.7504 28.0815C69.8439 28.3438 69.9839 28.5872 70.1637 28.7999C70.3388 29.0006 70.5408 29.1761 70.764 29.3214C70.9965 29.4738 71.2438 29.6024 71.5021 29.7052C71.6464 29.7577 71.7972 29.8102 71.9547 29.8627C72.1125 29.9152 72.266 29.9644 72.4172 30.0103C72.5684 30.0562 72.7157 30.1021 72.8601 30.1481C73.0044 30.194 73.1454 30.2399 73.2832 30.2858C73.421 30.3317 73.5555 30.3744 73.6867 30.4138C73.8628 30.4761 74.0339 30.5517 74.1984 30.6401C74.3429 30.7166 74.4783 30.809 74.6022 30.9156C74.7109 31.0109 74.7981 31.1284 74.8577 31.2601C74.9178 31.3964 74.9481 31.544 74.9463 31.693C74.9533 31.8386 74.9278 31.9839 74.8716 32.1184C74.8154 32.2529 74.73 32.3731 74.6216 32.4705C74.3779 32.674 74.0868 32.8127 73.7753 32.8739C73.4101 32.9545 73.0371 32.9941 72.6632 32.992C72.4295 32.9904 72.1962 32.9739 71.9646 32.9428C71.7087 32.9104 71.4398 32.8645 71.158 32.805C70.8761 32.7456 70.5873 32.6734 70.2916 32.5886C69.9964 32.5033 69.6979 32.4081 69.3961 32.3032L69.4751 33.9761C69.8161 34.0942 70.1276 34.1893 70.4097 34.2615C70.6918 34.3336 70.9608 34.396 71.2167 34.4484C71.4632 34.4994 71.7132 34.5323 71.9646 34.5468C72.2073 34.5597 72.4533 34.5663 72.7026 34.5665C73.2515 34.5693 73.7992 34.5132 74.3362 34.3992C74.8088 34.3031 75.2615 34.1267 75.6745 33.8777C76.0467 33.6502 76.3549 33.3319 76.5703 32.9527Z" fill="white"/>
<path d="M84.4819 32.7844L84.1473 32.8434C84.0399 32.8626 83.9315 32.8757 83.8226 32.8828C83.7176 32.8897 83.6189 32.8926 83.5274 32.8926C83.2258 32.9009 82.9263 32.8403 82.6516 32.7155C82.4153 32.6037 82.2193 32.4215 82.0907 32.1939C81.9527 31.9373 81.8848 31.6488 81.8938 31.3575V25.9057H84.6689L84.8854 24.3312H81.8938V21.2215L79.8863 21.9301V24.3312H78.3709L78.1544 25.9057H79.8863V31.7708C79.8776 32.162 79.9375 32.5517 80.0634 32.9221C80.1647 33.2152 80.3218 33.4859 80.526 33.7192C80.7132 33.9271 80.9409 34.0945 81.1951 34.2113C81.4553 34.3308 81.7297 34.4168 82.0116 34.4671C82.2907 34.5186 82.574 34.5449 82.8579 34.5459C83.0678 34.5459 83.2746 34.5393 83.4782 34.5262C83.6813 34.5127 83.8686 34.4934 84.0391 34.4671C84.2097 34.4409 84.3704 34.411 84.5213 34.3786C84.6722 34.3461 84.7998 34.3166 84.9051 34.29L85.0232 32.6565C84.9466 32.6861 84.8676 32.7091 84.787 32.7253C84.6949 32.745 84.5934 32.7647 84.4819 32.7844Z" fill="white"/>
<path d="M88.832 20.0111C88.6278 19.8863 88.3927 19.8215 88.1534 19.8242C87.9109 19.8222 87.6726 19.8869 87.4645 20.0111C87.2592 20.1313 87.0868 20.3003 86.9626 20.5032C86.8376 20.7074 86.7728 20.9428 86.7757 21.1822C86.7736 21.4246 86.8383 21.6629 86.9626 21.871C87.083 22.0769 87.2563 22.2468 87.4645 22.3631C87.6747 22.4813 87.9122 22.5424 88.1534 22.5402C88.3914 22.5431 88.6257 22.4819 88.832 22.3631C89.0346 22.2461 89.2016 22.0759 89.3146 21.871C89.4328 21.6608 89.4938 21.4233 89.4917 21.1822C89.4946 20.9441 89.4335 20.7095 89.3146 20.5032C89.1978 20.3011 89.0317 20.1319 88.832 20.0111Z" fill="white"/>
<path d="M87.1091 34.3687H89.1166V24.1344L87.1091 24.4296V34.3687Z" fill="white"/>
<path d="M99.9022 24.528C99.3176 24.2326 98.6676 24.0904 98.0131 24.1147C97.4417 24.1158 96.8739 24.2054 96.33 24.3804C95.7697 24.559 95.2366 24.814 94.7459 25.1381C94.5557 25.2631 94.373 25.4006 94.1946 25.5416V24.1344L92.187 24.4296V34.3687H94.1946V26.8937C94.3889 26.7799 94.5893 26.6768 94.7948 26.5847C95.0712 26.4623 95.3537 26.3539 95.6411 26.26C95.9175 26.1695 96.2005 26.1004 96.4874 26.0533C96.7575 26.0084 97.0308 25.9854 97.3046 25.9845C97.6256 25.977 97.9454 26.027 98.2489 26.1321C98.4994 26.2223 98.7229 26.3747 98.8984 26.5749C99.0791 26.792 99.2072 27.048 99.2727 27.3228C99.3565 27.6707 99.396 28.0278 99.3904 28.3856V34.3687H101.398V27.9723C101.424 27.2261 101.297 26.4826 101.024 25.7876C100.802 25.2538 100.407 24.8102 99.9022 24.528Z" fill="white"/>
<path d="M110.678 24.3706C110.378 24.2882 110.072 24.2258 109.763 24.1836C109.411 24.1361 109.056 24.1131 108.7 24.1147C108.058 24.1119 107.422 24.2391 106.831 24.4887C106.238 24.7396 105.699 25.1039 105.246 25.5613C104.763 26.0544 104.391 26.6448 104.154 27.2933C103.879 28.0533 103.746 28.857 103.76 29.6649C103.738 30.5537 103.91 31.4367 104.262 32.253C104.57 32.9512 105.081 33.5408 105.728 33.9456C106.436 34.3633 107.249 34.5715 108.07 34.5459C108.792 34.5433 109.507 34.403 110.176 34.1326C110.576 33.9694 110.953 33.7552 111.298 33.4952V34.0342C111.306 34.4776 111.243 34.9195 111.111 35.343C110.998 35.6983 110.802 36.0219 110.54 36.2877C110.258 36.5585 109.913 36.7546 109.537 36.8584C109.046 36.9931 108.539 37.0561 108.031 37.0454C107.626 37.0448 107.222 37.0218 106.82 36.9765C106.399 36.9287 105.981 36.8497 105.571 36.7404C105.148 36.6278 104.734 36.4864 104.33 36.3172L104.547 38.0492C104.909 38.196 105.281 38.3176 105.659 38.4133C106.058 38.5139 106.462 38.5895 106.87 38.6396C107.301 38.6926 107.735 38.7189 108.169 38.7183C109.137 38.7486 110.1 38.5567 110.983 38.1574C111.7 37.8233 112.3 37.2816 112.705 36.6026C113.101 35.9044 113.302 35.1123 113.286 34.3097V24.1147L111.361 24.61C111.139 24.516 110.911 24.436 110.678 24.3706ZM111.042 32.253C110.798 32.3947 110.545 32.5196 110.285 32.6269C110.055 32.7213 109.818 32.797 109.576 32.8533C109.34 32.9064 109.099 32.9328 108.858 32.932C108.267 32.9534 107.68 32.8212 107.155 32.5482C106.698 32.2873 106.344 31.8774 106.152 31.387C105.914 30.7486 105.804 30.07 105.827 29.3893C105.818 28.8462 105.894 28.3049 106.053 27.7853C106.182 27.3583 106.404 26.9651 106.703 26.6339C106.994 26.326 107.35 26.0873 107.746 25.9352C108.195 25.7648 108.673 25.6813 109.153 25.6892C109.463 25.6888 109.773 25.7152 110.078 25.768C110.391 25.8232 110.7 25.8988 111.003 25.9943C111.1 26.0245 111.2 26.0645 111.298 26.1012V32.1021C111.211 32.1533 111.123 32.2064 111.041 32.253H111.042Z" fill="white"/>
<path d="M122.555 29.842C122.353 29.6284 122.121 29.446 121.866 29.3008C121.602 29.1494 121.325 29.021 121.039 28.917C120.829 28.8514 120.623 28.7825 120.419 28.7103C120.216 28.6382 120.012 28.5725 119.809 28.5135C119.606 28.4545 119.409 28.3921 119.219 28.3265C119.04 28.2658 118.866 28.1935 118.697 28.11C118.535 28.0241 118.381 27.9254 118.235 27.8148C118.1 27.7133 117.986 27.5863 117.9 27.4409C117.814 27.2916 117.769 27.1215 117.772 26.9488C117.767 26.7591 117.815 26.5716 117.91 26.4076C118.013 26.2464 118.155 26.1142 118.323 26.0238C118.529 25.9107 118.752 25.831 118.982 25.7876C119.271 25.7323 119.565 25.7059 119.858 25.7089C120.003 25.7089 120.16 25.7155 120.331 25.7286C120.502 25.7417 120.689 25.7647 120.892 25.7975C121.095 25.8303 121.298 25.8729 121.502 25.9254C121.705 25.9779 121.912 26.0369 122.122 26.1025C122.317 26.1625 122.507 26.2348 122.692 26.319L122.831 24.7248C122.581 24.6199 122.335 24.528 122.093 24.4493C121.85 24.3708 121.604 24.3051 121.354 24.2525C121.111 24.2009 120.864 24.1647 120.616 24.1442C120.373 24.1245 120.134 24.1147 119.898 24.1147C119.354 24.1092 118.812 24.172 118.284 24.3017C117.832 24.4114 117.403 24.5978 117.014 24.8528C116.662 25.0858 116.375 25.404 116.178 25.7778C115.973 26.1898 115.871 26.646 115.883 27.1063C115.877 27.4379 115.93 27.7678 116.041 28.0805C116.134 28.3429 116.274 28.5862 116.454 28.7989C116.629 28.9997 116.831 29.1752 117.054 29.3204C117.287 29.473 117.534 29.6016 117.792 29.7042C117.936 29.7567 118.087 29.8092 118.245 29.8617C118.403 29.9142 118.556 29.9634 118.708 30.0093C118.859 30.0552 119.006 30.1012 119.15 30.1471C119.294 30.193 119.435 30.2389 119.573 30.2848C119.711 30.3308 119.845 30.3734 119.977 30.4128C120.153 30.4752 120.324 30.5508 120.488 30.6391C120.633 30.7156 120.768 30.808 120.892 30.9146C121.001 31.0098 121.088 31.1273 121.148 31.2591C121.208 31.3953 121.238 31.543 121.237 31.6921C121.244 31.8376 121.218 31.983 121.162 32.1174C121.106 32.2519 121.02 32.3721 120.912 32.4695C120.668 32.673 120.377 32.8117 120.065 32.873C119.7 32.9536 119.327 32.9932 118.954 32.991C118.72 32.9894 118.487 32.973 118.255 32.9418C117.999 32.9095 117.73 32.8635 117.448 32.8041C117.166 32.7446 116.878 32.6724 116.582 32.5876C116.287 32.5023 115.988 32.4072 115.687 32.3022L115.765 33.9751C116.106 34.0932 116.417 34.1883 116.7 34.2605C116.982 34.3327 117.251 34.395 117.507 34.4475C117.753 34.4984 118.003 34.5313 118.255 34.5459C118.497 34.5588 118.743 34.5653 118.993 34.5655C119.542 34.5683 120.089 34.5122 120.626 34.3983C121.099 34.3022 121.552 34.1258 121.965 33.8767C122.337 33.6493 122.645 33.331 122.86 32.9517C123.086 32.5353 123.198 32.0669 123.185 31.5937C123.193 31.2483 123.136 30.9045 123.017 30.5801C122.912 30.3068 122.755 30.0563 122.555 29.842Z" fill="white"/>
<path d="M125.271 27.9723L125.133 29.5862H130.702L130.84 27.9723H125.271Z" fill="white"/>
<path d="M7.78704 44.4259C6.96705 43.9902 6.04848 43.7732 5.12017 43.7961C4.18336 43.7748 3.25725 43.9987 2.43367 44.4456C1.67327 44.8711 1.0515 45.5065 0.642676 46.276C0.198183 47.1391 -0.02196 48.1002 0.00264486 49.0708C-0.0223512 50.0337 0.183502 50.9886 0.602954 51.8557C0.980003 52.6125 1.58141 53.2345 2.32508 53.6369C3.12567 54.0563 4.0194 54.2662 4.923 54.247C5.86905 54.2659 6.80418 54.0423 7.63937 53.5975C8.41899 53.172 9.05831 52.5293 9.47962 51.7474C9.93659 50.8741 10.1635 49.8987 10.1389 48.9133C10.1614 47.9747 9.95169 47.0451 9.52847 46.2071C9.13646 45.4545 8.53059 44.8348 7.78704 44.4259ZM7.66892 51.0192C7.44764 51.5306 7.07277 51.9605 6.59628 52.2493C6.11744 52.5234 5.57337 52.6628 5.02174 52.6528C4.48093 52.6664 3.9478 52.5228 3.48694 52.2395C3.0306 51.9365 2.67438 51.505 2.46322 50.9995C2.19562 50.3513 2.06823 49.6537 2.08955 48.9527C2.06635 48.2706 2.19398 47.5919 2.46322 46.9648C2.68396 46.472 3.05175 46.0595 3.51617 45.784C4.01283 45.5105 4.57345 45.3746 5.14019 45.3903C5.58244 45.3793 6.0219 45.4632 6.42898 45.6364C6.78572 45.7971 7.09693 46.0439 7.33465 46.3547C7.58826 46.6923 7.77219 47.077 7.87562 47.4864C7.99875 47.9653 8.05824 48.4583 8.05268 48.9527C8.07559 49.6612 7.94468 50.3662 7.66892 51.0192Z" fill="white"/>
<path d="M16.6923 43.9438C16.3243 44.0424 15.9729 44.1949 15.6496 44.3964C15.3137 44.606 15.0032 44.8536 14.7242 45.1345C14.678 45.1807 14.6327 45.2329 14.5865 45.2818V43.8158L12.5789 44.1111V54.0502H14.5865V46.6145C14.7358 46.5104 14.8902 46.4138 15.0493 46.3252C15.2462 46.2168 15.45 46.1215 15.6594 46.0398C15.8624 45.9611 16.069 45.8922 16.2794 45.8332C16.4953 45.7731 16.7156 45.7303 16.9384 45.7052C17.177 45.6787 17.4173 45.6721 17.657 45.6856L17.8929 43.8355C17.4895 43.8065 17.0841 43.8431 16.6923 43.9438Z" fill="white"/>
<path d="M28.2848 44.0126H25.8246L22.4568 47.7137H21.7308V39.1917L19.7234 39.4869V54.0511H21.7308V49.2292H21.7637L25.7849 54.0511H28.3828L23.6088 48.6716L28.2848 44.0126Z" fill="white"/>
<path d="M37.6727 45.2821C37.295 44.7924 36.7965 44.4092 36.2262 44.1701C35.5926 43.9112 34.9129 43.784 34.2285 43.7961C33.5391 43.7844 32.855 43.9186 32.221 44.1898C31.6444 44.4422 31.1303 44.8185 30.7154 45.2919C30.2882 45.7894 29.9666 46.3687 29.7703 46.9944C29.546 47.7107 29.4365 48.458 29.4459 49.2085C29.418 50.1569 29.6171 51.0982 30.0265 51.9541C30.4004 52.696 31.0046 53.2967 31.7486 53.6664C32.6214 54.0775 33.579 54.2765 34.5434 54.247C35.0074 54.251 35.4711 54.2214 35.9309 54.1584C36.3152 54.1031 36.6939 54.0142 37.0627 53.8927C37.4283 53.7699 37.7836 53.6186 38.1255 53.44L38.2632 51.9246C38.0137 52.0164 37.761 52.1083 37.5051 52.2001C37.2493 52.292 36.9837 52.374 36.7084 52.4461C36.4304 52.5189 36.1476 52.5715 35.862 52.6036C35.5745 52.6363 35.2855 52.6527 34.9961 52.6528C34.4793 52.6611 33.9634 52.6049 33.4606 52.4855C33.055 52.3884 32.6798 52.1923 32.3686 51.9147C32.0542 51.6152 31.8235 51.2386 31.6994 50.8224C31.571 50.4008 31.4988 49.964 31.4849 49.5234H38.5978C38.6945 48.7094 38.6578 47.8851 38.4892 47.0829C38.3508 46.4306 38.0722 45.8161 37.6727 45.2821ZM32.7131 45.7544C33.1749 45.474 33.7082 45.3339 34.2482 45.351C34.7888 45.3239 35.3226 45.4799 35.7636 45.7938C36.1556 46.1066 36.4354 46.5383 36.5608 47.0239C36.6589 47.3829 36.7072 47.7538 36.7041 48.1261H31.5282C31.5646 47.7336 31.6485 47.3469 31.7782 46.9747C31.9461 46.4757 32.2749 46.0465 32.7131 45.7544Z" fill="white"/>
<path d="M47.2772 49.5234C47.0757 49.3098 46.8435 49.1274 46.5883 48.9822C46.3241 48.8309 46.0475 48.7025 45.7614 48.5984C45.5519 48.5328 45.3454 48.4639 45.1418 48.3918C44.9382 48.3196 44.7347 48.254 44.5313 48.1949C44.3279 48.1359 44.1311 48.0736 43.9408 48.008C43.7624 47.9473 43.5882 47.875 43.4193 47.7915C43.2575 47.7056 43.1027 47.6069 42.9567 47.4962C42.8218 47.3947 42.7082 47.2676 42.6222 47.1223C42.5354 46.9731 42.491 46.8029 42.4939 46.6303C42.4887 46.4405 42.5365 46.2531 42.632 46.089C42.7348 45.928 42.8771 45.7959 43.0453 45.7052C43.2513 45.5922 43.4738 45.5125 43.7047 45.4691C43.9932 45.4137 44.2867 45.3873 44.5805 45.3903C44.7245 45.3903 44.8823 45.3969 45.0529 45.41C45.2234 45.4231 45.4101 45.4461 45.6138 45.4789C45.8175 45.5117 46.0202 45.5544 46.2239 45.6068C46.4276 45.6593 46.6339 45.7184 46.8439 45.784C47.0385 45.8438 47.229 45.9161 47.4143 46.0005L47.5524 44.4063C47.3031 44.3013 47.057 44.2095 46.8143 44.1307C46.5719 44.0522 46.3256 43.9865 46.0763 43.9339C45.8328 43.8823 45.5863 43.8461 45.3382 43.8257C45.0952 43.806 44.8558 43.7961 44.6199 43.7961C44.0762 43.7906 43.534 43.8534 43.006 43.9831C42.5545 44.0929 42.1251 44.2793 41.7365 44.5342C41.3843 44.7672 41.0966 45.0854 40.9001 45.4592C40.6945 45.8712 40.5931 46.3274 40.6048 46.7877C40.5987 47.1193 40.652 47.4492 40.7623 47.7619C40.8557 48.0243 40.9957 48.2677 41.1756 48.4803C41.3506 48.6811 41.5527 48.8566 41.7759 49.0019C42.0083 49.1544 42.2556 49.283 42.514 49.3857C42.6579 49.4381 42.8087 49.4906 42.9666 49.5431C43.1245 49.5956 43.2787 49.6448 43.4292 49.6907C43.5796 49.7366 43.7272 49.7826 43.8719 49.8285C44.0167 49.8744 44.1578 49.9203 44.2951 49.9663C44.4329 50.0122 44.5674 50.0548 44.6986 50.0942C44.8746 50.1566 45.0457 50.2322 45.2103 50.3205C45.3546 50.3971 45.4899 50.4895 45.6138 50.5961C45.7228 50.6912 45.81 50.8087 45.8696 50.9405C45.9297 51.0768 45.9599 51.2245 45.9582 51.3735C45.9652 51.519 45.9397 51.6643 45.8835 51.7988C45.8273 51.9333 45.7419 52.0535 45.6335 52.1509C45.3897 52.3543 45.0987 52.4931 44.7871 52.5544C44.422 52.635 44.0491 52.6746 43.6752 52.6725C43.4415 52.6708 43.2081 52.6544 42.9765 52.6232C42.7206 52.5909 42.4516 52.545 42.1695 52.4855C41.8874 52.426 41.5988 52.3538 41.3036 52.269C41.0084 52.1837 40.7099 52.0886 40.4081 51.9836L40.4868 53.6565C40.8275 53.7746 41.1391 53.8697 41.4216 53.9419C41.7042 54.0141 41.9731 54.0764 42.2285 54.1289C42.4751 54.1798 42.7251 54.2127 42.9765 54.2273C43.219 54.2402 43.465 54.2467 43.7145 54.247C44.2634 54.2498 44.8111 54.1937 45.3481 54.0797C45.8207 53.9835 46.2734 53.8071 46.6864 53.5581C47.0586 53.3308 47.3667 53.0124 47.5819 52.6331C47.8072 52.2167 47.919 51.7484 47.9063 51.2751C47.9147 50.9297 47.8581 50.5859 47.7394 50.2615C47.6336 49.9884 47.4767 49.7379 47.2772 49.5234Z" fill="white"/>
<path d="M55.494 52.4658L55.1597 52.5248C55.0523 52.544 54.9439 52.5571 54.835 52.5642C54.7297 52.5711 54.6309 52.5741 54.5397 52.5741C54.2381 52.5823 53.9386 52.5217 53.6639 52.3969C53.4277 52.2849 53.2318 52.1028 53.103 51.8754C52.9651 51.6186 52.8972 51.3302 52.9061 51.0389V45.5872H55.6812L55.8978 44.0126H52.9061V40.903L50.8987 41.6115V44.0126H49.3828L49.1664 45.5872H50.8987V51.4522C50.8897 51.8434 50.9497 52.2331 51.0758 52.6036C51.177 52.8967 51.3341 53.1673 51.5383 53.4007C51.7255 53.6085 51.9533 53.776 52.2075 53.8927C52.4677 54.0122 52.7421 54.0982 53.0239 54.1486C53.3031 54.2 53.5863 54.2264 53.8702 54.2273C54.0801 54.2273 54.2869 54.2207 54.4905 54.2076C54.6941 54.1945 54.8811 54.1748 55.0514 54.1486C55.2217 54.122 55.3827 54.0925 55.5333 54.06C55.6839 54.0275 55.8121 53.998 55.9171 53.9714L56.0355 52.3379C55.9589 52.3674 55.8799 52.3905 55.7993 52.4068C55.7073 52.4271 55.6055 52.4468 55.494 52.4658Z" fill="white"/>
<path d="M62.2347 43.9438C61.8666 44.0424 61.5151 44.195 61.1916 44.3964C60.8559 44.606 60.5454 44.8536 60.2666 45.1345C60.2203 45.1807 60.1751 45.2329 60.1288 45.2818V43.8158L58.1214 44.1111V54.0502H60.1288V46.6145C60.2814 46.5095 60.4352 46.4112 60.5913 46.3252C60.7883 46.2169 60.9923 46.1215 61.2018 46.0398C61.4047 45.9611 61.6112 45.8922 61.8214 45.8332C62.0374 45.7731 62.2579 45.7303 62.4807 45.7052C62.7193 45.6787 62.9598 45.6722 63.1995 45.6856L63.4353 43.8355C63.0319 43.8065 62.6264 43.8431 62.2347 43.9438Z" fill="white"/>
<path d="M72.8824 45.2821C72.5047 44.7924 72.0062 44.4092 71.4358 44.1701C70.8022 43.9112 70.1226 43.784 69.4382 43.7961C68.7488 43.7845 68.0646 43.9186 67.4306 44.1898C66.854 44.4422 66.3399 44.8185 65.925 45.2919C65.4975 45.7892 65.176 46.3685 64.98 46.9944C64.7557 47.7107 64.6462 48.458 64.6556 49.2085C64.6277 50.1569 64.8268 51.0982 65.2362 51.9541C65.6101 52.696 66.2143 53.2967 66.9583 53.6664C67.8311 54.0775 68.7887 54.2765 69.7531 54.247C70.2171 54.251 70.6808 54.2214 71.1406 54.1584C71.5249 54.1031 71.9035 54.0142 72.2723 53.8927C72.6379 53.77 72.9933 53.6186 73.3351 53.44L73.4728 51.9245C73.2233 52.0164 72.9706 52.1083 72.7148 52.2001C72.4589 52.2919 72.1933 52.374 71.918 52.4461C71.64 52.5189 71.3573 52.5715 71.0717 52.6036C70.7842 52.6363 70.4951 52.6527 70.2057 52.6528C69.6889 52.6611 69.1731 52.6049 68.6703 52.4855C68.2647 52.3884 67.8895 52.1923 67.5782 51.9147C67.2639 51.6151 67.0332 51.2386 66.9091 50.8224C66.7806 50.4008 66.7085 49.964 66.6946 49.5234H73.8071C73.9041 48.7095 73.8675 47.8851 73.6988 47.0829C73.5605 46.4306 73.2819 45.8161 72.8824 45.2821ZM67.9227 45.7544C68.3845 45.474 68.9178 45.3339 69.4578 45.351C69.9984 45.324 70.5323 45.48 70.9733 45.7938C71.3653 46.1066 71.6449 46.5383 71.7701 47.0239C71.8686 47.3829 71.9169 47.7538 71.9137 48.1261H66.7378C66.7743 47.7336 66.8581 47.347 66.9875 46.9747C67.1557 46.4757 67.4846 46.0466 67.9227 45.7544Z" fill="white"/>
<path d="M81.4729 52.4658L81.1383 52.5248C81.0309 52.544 80.9224 52.5571 80.8135 52.5642C80.7086 52.5711 80.6098 52.5741 80.5183 52.5741C80.2168 52.5823 79.9174 52.5217 79.6428 52.3969C79.4065 52.2851 79.2106 52.1029 79.0819 51.8754C78.9439 51.6187 78.876 51.3302 78.885 51.0389V45.5872H81.6601L81.8767 44.0126H78.885V40.903L76.8776 41.6115V44.0126H75.3621L75.1456 45.5872H76.8776V51.4522C76.8688 51.8434 76.9288 52.2331 77.0547 52.6036C77.156 52.8967 77.313 53.1673 77.5172 53.4007C77.7044 53.6085 77.9322 53.776 78.1864 53.8927C78.4466 54.0122 78.721 54.0982 79.0028 54.1486C79.282 54.2 79.5652 54.2263 79.8491 54.2273C80.059 54.2273 80.2658 54.2207 80.4694 54.2076C80.673 54.1945 80.86 54.1748 81.0303 54.1486C81.2009 54.1221 81.3616 54.0926 81.5125 54.06C81.6634 54.0274 81.7914 53.9979 81.8964 53.9714L82.0144 52.3379C81.9378 52.3675 81.8588 52.3905 81.7782 52.4068C81.686 52.4271 81.5842 52.4468 81.4729 52.4658Z" fill="white"/>
</svg>
