<svg viewBox="0 0 35 14" fill="currentColor" xmlns="http://www.w3.org/2000/svg">
<path d="M0 0.998791H4.23545V12.9976H0V0.998791ZM4.49033 0.998791L7.21191 12.9976H11.8213L9.54198 2.92535C9.44679 2.38512 9.16032 1.89651 8.7343 1.54774C8.30541 1.18467 7.758 0.989392 7.19461 0.998499L4.49033 0.998791ZM12.0768 12.9976H16.3125V0.998791H12.0768V12.9976ZM21.6193 12.9976H25.8548V0.998791H21.6193V12.9976ZM34.2857 0.998791H29.625C29.3528 1.43837 29.109 1.8356 28.8936 2.19049C28.6781 2.54539 28.4428 2.93128 28.1876 3.34814C27.9329 3.765 27.6864 4.16769 27.448 4.55619C27.2097 4.9447 27.0027 5.2856 26.8272 5.5789C26.6512 5.87183 26.5293 6.06899 26.4614 6.17039C26.2913 6.4147 26.194 6.7017 26.1805 6.99848C26.2061 7.29815 26.3023 7.58762 26.4614 7.84347C26.5293 7.94468 26.6512 8.14185 26.8272 8.43497C27.0031 8.72809 27.2101 9.0689 27.448 9.45741C27.6858 9.84572 27.9323 10.2456 28.1876 10.657C28.443 11.0684 28.6783 11.4515 28.8936 11.8062C29.109 12.1611 29.3528 12.5583 29.625 12.9979H34.2857C33.9682 12.4796 33.6847 12.0149 33.4352 11.6037C33.1857 11.1924 32.9193 10.7587 32.6358 10.3024C32.3523 9.84572 32.0829 9.40905 31.8278 8.99238C31.5726 8.57571 31.3657 8.23489 31.2069 7.96994C31.0482 7.70537 30.9631 7.56745 30.9518 7.55618C30.8426 7.38851 30.7755 7.19725 30.7562 6.99848C30.7617 6.80473 30.8237 6.61676 30.9348 6.45742L34.2857 0.998791Z"/>
<path d="M18.9828 5.52796C18.5595 5.53204 18.1426 5.42124 17.7771 5.20742C17.4165 4.99896 17.1169 4.69935 16.9085 4.33866C16.6944 3.97307 16.5836 3.55627 16.5878 3.13261C16.5829 2.71153 16.6938 2.29721 16.9085 1.93493C17.1191 1.57815 17.4184 1.28181 17.7771 1.07461C18.1428 0.860992 18.5594 0.750209 18.9828 0.754071C19.4038 0.749538 19.8179 0.86042 20.1804 1.07461C20.5355 1.28362 20.8316 1.57972 21.0406 1.93493C21.255 2.29732 21.3659 2.71156 21.3613 3.13261C21.3652 3.55623 21.2544 3.97296 21.0406 4.33866C20.8338 4.69777 20.5374 4.99712 20.1804 5.20742C19.818 5.42199 19.4039 5.5329 18.9828 5.52796Z"/>
</svg>
