<svg width="101" height="23" viewBox="0 0 101 23" fill="none" xmlns="http://www.w3.org/2000/svg">
<path d="M0 18.3333V4.3346H4.59339V18.3333H0ZM10.8428 6.56258L13.4844 18.3333H8.45737L5.30307 4.3346H8.12254C8.76907 4.32621 9.39641 4.55412 9.88691 4.97545C10.3782 5.37911 10.7158 5.93948 10.8428 6.56258ZM14.1744 18.3333V4.3346H18.7678V18.3333H14.1744ZM22.2372 9.65812C21.7422 9.66294 21.2552 9.53343 20.828 9.28346C20.4064 9.03981 20.0563 8.68962 19.8127 8.26803C19.5624 7.84072 19.4329 7.35355 19.4378 6.85837C19.4321 6.3662 19.5618 5.88194 19.8127 5.4585C20.0589 5.04149 20.4086 4.69511 20.828 4.45294C21.2553 4.20325 21.7423 4.07377 22.2372 4.07828C22.7292 4.07298 23.2133 4.20258 23.6369 4.45294C24.0521 4.69723 24.3981 5.04332 24.6424 5.4585C24.893 5.88206 25.0226 6.36624 25.0172 6.85837C25.0218 7.35352 24.8923 7.8406 24.6424 8.26803C24.4007 8.68777 24.0542 9.03766 23.6369 9.28346C23.2133 9.53431 22.7289 9.66394 22.2366 9.65812H22.2372ZM25.7269 18.3333V4.3346H30.3207V18.3333H25.7269ZM36.136 11.9846C36.1489 11.9982 36.2475 12.1592 36.4317 12.4676C36.6159 12.7761 36.8558 13.1705 37.1513 13.6507C37.447 14.1307 37.759 14.64 38.0874 15.1787C38.4157 15.7174 38.7247 16.2268 39.0143 16.7067C39.3028 17.1867 39.6313 17.7289 40 18.3333H34.9531C34.6375 17.8207 34.3515 17.3574 34.0952 16.9433C33.8389 16.5293 33.5665 16.0823 33.2778 15.6026C32.9884 15.1233 32.7024 14.6566 32.4196 14.2027C32.1368 13.7488 31.8938 13.3512 31.6905 13.0099C31.4863 12.6684 31.3449 12.4383 31.2663 12.3198C31.0713 12.0257 30.9559 11.686 30.9315 11.334C30.951 10.9961 31.0597 10.6695 31.2466 10.3873C31.3254 10.2559 31.47 10.0225 31.6803 9.68732C31.8906 9.35214 32.137 8.95456 32.4196 8.49451C32.7021 8.03446 32.9882 7.56454 33.2778 7.08477C33.5674 6.605 33.8398 6.15477 34.0952 5.73416C34.3519 5.31398 34.6379 4.84735 34.9531 4.33428H40L36.0962 10.7027C35.9754 10.8918 35.9073 11.1097 35.8991 11.334C35.9121 11.5694 35.9942 11.7957 36.1353 11.9846H36.136Z" fill="#0A2343"/>
<path d="M53.8392 11.7702C53.5548 11.4767 53.2248 11.2324 52.8625 11.0472C52.4826 10.8522 52.0873 10.6899 51.6807 10.5619C51.2635 10.4298 50.8338 10.3175 50.3915 10.2248C50.0525 10.1458 49.7367 10.0667 49.4442 9.98743C49.1753 9.91706 48.9136 9.82078 48.6628 9.69989C48.4472 9.5964 48.2468 9.46308 48.0674 9.30374C47.8983 9.15263 47.7675 8.96249 47.6861 8.74941C47.596 8.49882 47.5529 8.23333 47.5592 7.96665C47.5548 7.69052 47.5977 7.41573 47.6861 7.15452C47.7663 6.92409 47.9003 6.71676 48.0768 6.55034C48.2597 6.38053 48.4674 6.24036 48.6924 6.13472C48.9497 6.01583 49.2226 5.93572 49.5027 5.89699C49.836 5.84884 50.1724 5.82568 50.5091 5.82767C50.8156 5.82828 51.1219 5.84471 51.4267 5.87688C51.7353 5.90954 52.0419 5.95922 52.3451 6.02575C52.6395 6.09054 52.9298 6.17323 53.2144 6.27336C53.4808 6.36627 53.739 6.48216 53.986 6.6197L54.2595 4.87687C53.9817 4.72992 53.6906 4.61053 53.3902 4.52033C53.0839 4.42811 52.7747 4.34875 52.4624 4.28228C52.1461 4.216 51.8266 4.16653 51.5052 4.13405C51.1796 4.10104 50.8476 4.08453 50.5091 4.08453C49.8183 4.07696 49.1293 4.15669 48.458 4.32189C47.8865 4.46184 47.3464 4.71069 46.8664 5.05516C46.4241 5.37687 46.0681 5.80575 45.8311 6.30274C45.5782 6.86129 45.4547 7.47109 45.4698 8.0855C45.4586 8.56099 45.5348 9.03444 45.6944 9.48166C45.8344 9.85663 46.0506 10.1976 46.3289 10.4823C46.6044 10.7609 46.9207 10.9948 47.2665 11.1756C47.6333 11.3673 48.0157 11.5265 48.4096 11.6514C48.8198 11.7834 49.2397 11.8957 49.6694 11.9881C50.021 12.0671 50.3466 12.1496 50.6461 12.2357C50.9246 12.3135 51.1958 12.4162 51.4564 12.5427C51.6806 12.6501 51.888 12.7902 52.0721 12.9587C52.2465 13.1249 52.383 13.3277 52.4722 13.553C52.5759 13.8243 52.6258 14.1138 52.619 14.4047C52.6241 14.7141 52.5779 15.0221 52.4823 15.3159C52.3965 15.57 52.2639 15.8053 52.0915 16.0092C51.9183 16.2102 51.7053 16.3721 51.4665 16.4843C51.1966 16.6104 50.9105 16.6972 50.6167 16.7421C50.2582 16.7979 49.8958 16.8244 49.533 16.8214C49.1803 16.8205 48.8281 16.7973 48.4782 16.752C48.1136 16.7058 47.7488 16.643 47.384 16.5635C47.0247 16.4859 46.6695 16.39 46.3198 16.2763C45.9742 16.1647 45.6454 16.0492 45.3333 15.93L45.5873 17.891C45.9202 18.017 46.2593 18.126 46.603 18.2175C46.915 18.3006 47.2311 18.3667 47.55 18.4156C47.8561 18.4616 48.1622 18.4979 48.4685 18.5245C48.7747 18.5512 49.0838 18.5644 49.3959 18.5641C50.0952 18.5685 50.7929 18.4955 51.4766 18.3462C52.0817 18.2175 52.6578 17.9757 53.1756 17.6332C53.659 17.3089 54.0498 16.8614 54.3089 16.3357C54.5941 15.713 54.7311 15.0311 54.709 14.3449C54.7197 13.8337 54.6438 13.3244 54.4847 12.8392C54.3481 12.4398 54.1279 12.0751 53.8392 11.7702Z" fill="#114F9D"/>
<path d="M65.5298 17.0986C65.387 17.1119 65.2431 17.09 65.1105 17.0348C64.9778 16.9797 64.8602 16.8928 64.7677 16.7817C64.5866 16.4643 64.5113 16.0961 64.5531 15.7318L64.5919 11.6513C64.5962 11.2235 64.5436 10.7971 64.4356 10.3836C64.3409 10.0208 64.1821 9.67836 63.9668 9.37303C63.7495 9.07466 63.4736 8.82513 63.1565 8.64013C62.7878 8.42814 62.3893 8.2746 61.9748 8.18485C61.4678 8.07384 60.9502 8.0207 60.4316 8.02639C60.0201 8.02608 59.609 8.05244 59.2007 8.1053C58.8151 8.15476 58.4333 8.23095 58.058 8.3334C57.71 8.42904 57.3675 8.5448 57.0325 8.68006L56.7981 10.3638C57.1236 10.2452 57.4333 10.1462 57.7259 10.0666C58.0186 9.98707 58.3021 9.92138 58.5756 9.86856C58.8437 9.81671 59.1145 9.78045 59.3866 9.75995C59.6531 9.74014 59.9167 9.73011 60.1774 9.72989C60.5757 9.72133 60.9733 9.768 61.3591 9.86856C61.6408 9.94009 61.8997 10.0834 62.1115 10.2849C62.3 10.4807 62.4346 10.7231 62.5021 10.9881C62.5855 11.3146 62.6249 11.6511 62.6194 11.9884L62.6171 12.4853L60.3343 12.6421C59.5534 12.6642 58.784 12.8389 58.0684 13.1567C57.5329 13.3944 57.0705 13.7742 56.73 14.2561C56.4412 14.685 56.288 15.1927 56.2906 15.712C56.2869 16.1994 56.4046 16.6799 56.6327 17.1089C56.8715 17.5494 57.231 17.9104 57.6677 18.1485C58.2006 18.4296 58.796 18.5661 59.3963 18.5447C59.9587 18.5577 60.5186 18.4638 61.0469 18.2677C61.5036 18.0865 61.9215 17.8174 62.2775 17.4753C62.4129 17.344 62.5412 17.2055 62.662 17.0603C62.6999 17.2655 62.7715 17.4628 62.8736 17.644C63.0476 17.9473 63.3152 18.184 63.6351 18.3175C63.9888 18.4616 64.3674 18.5323 64.7485 18.5255C64.866 18.5255 64.9796 18.5219 65.0903 18.5156C65.199 18.509 65.3069 18.4923 65.4126 18.4657C65.5168 18.4393 65.6112 18.4166 65.6958 18.3964C65.7724 18.3793 65.8475 18.3561 65.9205 18.3271L66.1354 17.0003C66.0276 17.0377 65.9165 17.0642 65.8036 17.0795C65.7128 17.0915 65.6214 17.0979 65.5298 17.0986ZM62.2772 16.2072C62.0654 16.3771 61.8362 16.5233 61.5935 16.6434C61.3517 16.7624 61.0957 16.849 60.8318 16.9009C60.5582 16.9542 60.2802 16.9806 60.0016 16.9798C59.6833 16.9892 59.3668 16.9284 59.074 16.8015C58.8356 16.6968 58.6344 16.5206 58.4975 16.2967C58.3622 16.0593 58.2946 15.7884 58.3022 15.5143C58.2833 15.1839 58.3727 14.8565 58.5564 14.583C58.769 14.3313 59.0571 14.1573 59.3765 14.0878C59.8756 13.9688 60.3876 13.9156 60.9001 13.9296H62.6105L62.6021 15.8956C62.5027 16.0085 62.394 16.113 62.2772 16.2072Z" fill="#114F9D"/>
<path d="M63.5176 3.31201H61.4083L59.748 6.85771H61.2719L63.5176 3.31201Z" fill="#114F9D"/>
<path d="M75.5012 8.65033C74.8001 8.21506 73.9885 7.9981 73.167 8.02636C72.6794 8.02883 72.194 8.0919 71.7215 8.2142C71.211 8.34604 70.7188 8.54247 70.2565 8.79888C70.1647 8.84939 70.0739 8.90551 69.9827 8.9623V8.04615L67.9907 8.36311V22.506H69.9827V18.0712C69.9961 18.0768 70.0085 18.0831 70.0222 18.089C70.3831 18.2408 70.7599 18.3505 71.1453 18.4159C71.6004 18.492 72.0611 18.5284 72.5224 18.5248C73.4018 18.5402 74.2689 18.3142 75.0321 17.8708C75.7817 17.4203 76.3909 16.7648 76.7901 15.9794C77.2511 15.0428 77.4758 14.0049 77.4441 12.9586C77.4626 12.074 77.2928 11.1957 76.9464 10.3836C76.6408 9.6758 76.1386 9.07355 75.5012 8.65033ZM74.9836 15.2762C74.7489 15.8022 74.3557 16.2391 73.8605 16.5238C73.31 16.8163 72.6943 16.9597 72.0732 16.9401C71.7756 16.9404 71.4784 16.917 71.1843 16.8705C70.8758 16.8207 70.572 16.7446 70.2761 16.643C70.1823 16.61 70.0807 16.5724 69.9831 16.5361V10.2848C70.0091 10.2726 70.0358 10.2568 70.0615 10.2449C70.348 10.1128 70.615 10.0005 70.8624 9.90782C71.0967 9.81906 71.3387 9.75275 71.5852 9.70975C71.8044 9.67147 72.0264 9.65157 72.2489 9.6503C72.8512 9.63002 73.4489 9.76282 73.9877 10.0366C74.4586 10.2966 74.8273 10.7125 75.0324 11.2148C75.2809 11.8577 75.3973 12.5452 75.3746 13.2353C75.3953 13.9366 75.2618 14.6338 74.9836 15.2762Z" fill="#114F9D"/>
<path d="M93.3638 8.44237C92.8312 8.14911 92.231 8.00549 91.6253 8.02639C91.0996 8.02496 90.5776 8.1154 90.0822 8.29378C89.5791 8.47653 89.1052 8.73341 88.6758 9.05611C88.4325 9.23905 88.201 9.43751 87.9827 9.65033C87.7826 9.15441 87.4295 8.73748 86.9764 8.46184C86.4372 8.16737 85.8304 8.02389 85.2184 8.04618C84.6961 8.04628 84.1775 8.13663 83.6851 8.31329C83.1797 8.49373 82.7027 8.74734 82.2689 9.0663C82.1286 9.16864 81.9925 9.2799 81.8587 9.39644V8.04751L79.8663 8.34464V18.3479H81.8587V10.8111C82.0933 10.6551 82.3381 10.5153 82.5912 10.3925C82.901 10.2438 83.225 10.1275 83.5581 10.0455C83.8649 9.96889 84.1797 9.9291 84.4957 9.92699C84.7859 9.91798 85.0749 9.96849 85.3454 10.0755C85.5691 10.1717 85.7668 10.3211 85.9216 10.511C86.0913 10.732 86.2083 10.9897 86.2634 11.2641C86.3396 11.6185 86.3757 11.9806 86.3709 12.3433V18.3456H88.3633V11.9273C88.3646 11.5484 88.3394 11.1699 88.2878 10.7946C88.5137 10.6444 88.7476 10.5068 88.9884 10.3826C89.2929 10.2269 89.614 10.1073 89.9455 10.0261C90.2588 9.94807 90.58 9.90803 90.9026 9.90685C91.1895 9.89989 91.475 9.9505 91.7426 10.0558C91.9704 10.1498 92.1716 10.2995 92.3285 10.4915C92.4984 10.7122 92.6155 10.9699 92.6703 11.2443C92.7465 11.5988 92.7826 11.961 92.7778 12.3238V18.3456H94.7702V11.9078C94.7953 11.1587 94.6759 10.4118 94.4186 9.70909C94.2158 9.17957 93.8446 8.73382 93.3638 8.44237Z" fill="#114F9D"/>
<path d="M97.7197 18.3466H99.7121V8.0462L97.7197 8.34333V18.3466Z" fill="#114F9D"/>
<path d="M99.9074 4.39124C99.7914 4.18806 99.6268 4.01776 99.4288 3.89603C99.2261 3.77045 98.9926 3.70532 98.755 3.70815C98.5145 3.70611 98.2779 3.77112 98.0713 3.89603C97.8676 4.01696 97.6965 4.18707 97.5732 4.39124C97.4493 4.59697 97.385 4.83388 97.3876 5.07494C97.3856 5.31892 97.4498 5.55874 97.5732 5.76822C97.6924 5.97559 97.8645 6.14664 98.0713 6.26343C98.2799 6.38252 98.5157 6.444 98.755 6.44172C98.9914 6.4448 99.2241 6.3832 99.4288 6.26343C99.6299 6.14574 99.7954 5.97448 99.9074 5.76822C100.025 5.55671 100.085 5.31765 100.083 5.07494C100.086 4.83517 100.025 4.59905 99.9074 4.39124Z" fill="#114F9D"/>
</svg>
