<svg width="35" height="35" viewBox="0 0 35 35" fill="none" xmlns="http://www.w3.org/2000/svg">
<path fill-rule="evenodd" clip-rule="evenodd" d="M0 0H34.6667V34.6667H0V0ZM11.1955 15.407H7.99994V27.0174H11.1955V15.407ZM15.2472 15.407H11.6587C11.6587 15.407 13.6975 18.7494 13.7205 18.7915C13.8767 19.0566 13.8862 19.2192 13.7337 19.4749L11.6587 22.872H15.2472C15.2472 22.872 16.9775 20.0461 17.2142 19.6538C17.449 19.2614 17.4384 19.0174 17.2047 18.6146C16.9659 18.2083 16.9505 18.1832 15.5465 15.8949L15.5462 15.8944L15.2472 15.407ZM25.297 15.407C25.297 15.407 26.3649 17.1253 26.4856 17.3306C26.72 17.7348 26.7306 17.9793 26.4949 18.373C26.3304 18.6459 24.9186 20.9823 24.9186 20.9823C25.1774 21.4047 25.5222 21.9572 25.8249 22.4422C26.1358 22.9403 26.4022 23.3671 26.4855 23.5089C26.7199 23.913 26.7305 24.1576 26.4949 24.5513C26.45 24.6258 26.3586 24.7792 26.2388 24.9804L26.2382 24.9813C25.919 25.5173 25.3982 26.3915 25.0151 27.0174H21.7363L23.5316 24.0708L21.6695 20.9497L23.3393 18.2173H19.2943L17.6166 15.407H25.297ZM19.0973 21.369C18.592 22.1936 17.7465 23.5751 17.5883 23.8446C17.3625 24.2338 17.3523 24.4693 17.5792 24.8485C17.7376 25.1113 18.5897 26.5039 19.0974 27.3333C19.6052 26.5038 20.4572 25.1112 20.6156 24.8485C20.8425 24.4692 20.8322 24.2338 20.6065 23.8446C20.448 23.5751 19.6026 22.1936 19.0973 21.369ZM7.99994 7.1561V13.6874H10.1435V7.1561H7.99994ZM14.2927 13.6874L13.0599 8.19559C13.0006 7.90488 12.8431 7.64343 12.6138 7.4551C12.3849 7.25852 12.0922 7.15219 11.7905 7.1561H10.4747L11.9467 13.6874H14.2927ZM14.6147 7.1561V13.6874H16.7583V7.1561H14.6147ZM17.7197 9.46506C17.919 9.58167 18.1462 9.64209 18.3771 9.63987C18.3771 9.63987 18.3771 9.63986 18.377 9.63986H18.3773C18.3772 9.63986 18.3772 9.63987 18.3771 9.63987C18.6068 9.64256 18.8328 9.58208 19.0305 9.46506C19.2252 9.35038 19.3869 9.18714 19.4997 8.9913C19.6164 8.79187 19.6768 8.56462 19.6746 8.3336C19.6771 8.10399 19.6167 7.87809 19.4997 7.68047C19.3857 7.48676 19.2242 7.32529 19.0305 7.21131C18.8328 7.09451 18.6069 7.03404 18.3773 7.03651C18.1463 7.0344 17.9191 7.09482 17.7197 7.21131C17.524 7.3243 17.3607 7.48591 17.2458 7.68047C17.1288 7.87804 17.0683 8.10398 17.0709 8.3336C17.0686 8.56464 17.1291 8.79193 17.2458 8.9913C17.3595 9.188 17.5229 9.35138 17.7197 9.46506ZM20.0058 7.1561V13.6874H22.1496V7.1561H20.0058ZM25.0014 10.9507C24.9154 10.8068 24.8694 10.7317 24.8634 10.7253H24.8631C24.7973 10.6372 24.7589 10.5316 24.7528 10.4218C24.7567 10.3171 24.7885 10.2155 24.8448 10.1273L26.6666 7.15595H24.3114C24.1643 7.39533 24.0308 7.61304 23.911 7.80908C23.7919 8.00533 23.6647 8.21539 23.5296 8.43923C23.3944 8.66308 23.2609 8.88232 23.1291 9.09697C22.9972 9.31161 22.8822 9.49711 22.7841 9.65349C22.6859 9.80987 22.6185 9.91875 22.5817 9.98007C22.4945 10.1117 22.4437 10.2641 22.4346 10.4218C22.446 10.586 22.4999 10.7445 22.5909 10.8817C22.6276 10.937 22.6936 11.0443 22.7888 11.2037C22.8837 11.3629 22.9971 11.5484 23.1291 11.7602C23.261 11.972 23.3945 12.1897 23.5296 12.4133C23.6643 12.6372 23.7914 12.8457 23.911 13.0389C24.0306 13.2321 24.1641 13.4482 24.3114 13.6874H26.6666C26.4946 13.4054 26.3412 13.1524 26.2066 12.9285C26.0715 12.7046 25.9273 12.4669 25.774 12.2156C25.6208 11.9642 25.4752 11.7266 25.3372 11.5026C25.1993 11.2786 25.0874 11.0946 25.0014 10.9507Z" fill="white"/>
</svg>
