<svg xmlns="http://www.w3.org/2000/svg" viewBox="0 0 15 15">
  <path d="M6 8a1.5 1.5 0 1 1 0-3 1.5 1.5 0 0 1 0 3zm.5-.5a.5.5 0 1 0 0-1 .5.5 0 0 0 0 1zm3 .5a1.5 1.5 0 1 1 0-3 1.5 1.5 0 0 1 0 3zM9 7.5a.5.5 0 1 0 0-1 .5.5 0 0 0 0 1zM7.5 10a.5.5 0 1 1 0-1 .5.5 0 0 1 0 1zm0-8C4.41 2 2.92 4 3 8v2.73c0 2.2 2.05 2.2 2.15.78.26 1.4.77 1.78 1.33 1.78.83 0 1.13-.28 1.32-1.28.08 1.52 1.9 1.92 2.23-.2.24 1.2 1.97 1.45 1.97-1.08V7.99C12.08 4 10.59 2 7.5 2zm.83 12.22a2 2 0 0 1-.65-.3 2 2 0 0 1-1.2.33c-.63 0-1.17-.2-1.54-.63-1.29.3-2.94-.84-2.94-2.9v-2.7C1.9 3.5 3.8 1 7.5 1s5.6 2.5 5.5 7v2.73c0 1.57-.72 2.67-1.88 2.87-.3.06-.6.04-.87-.04-.47.6-1.15.87-1.92.66z"/>
</svg>
