<svg xmlns="http://www.w3.org/2000/svg" viewBox="0 0 15 15"><path fill="currentColor" d="M5.064 12.267l1.738-1.217-.837-.586-.901 1.803zm2.436-.729l-3.27 2.29c-.34.238-.773-.136-.588-.507l3.5-7a.4.4 0 0 1 .716 0l3.5 7c.185.371-.247.745-.587.507L7.5 11.538zm2.436.73l-.901-1.804-.837.586 1.738 1.217zM7.5 7.393L6.327 9.741l1.173.82 1.173-.82L7.5 7.394zm-1.642.198a3.5 3.5 0 1 1 3.284 0l-.35-.664a2.75 2.75 0 1 0-2.584 0l-.35.664zm.701-1.327a2 2 0 1 1 1.882 0l-.35-.663a1.25 1.25 0 1 0-1.182 0l-.35.663zM7.5 5a.5.5 0 1 1 0-1 .5.5 0 0 1 0 1z"/></svg>