<svg xmlns="http://www.w3.org/2000/svg" viewBox="0 0 24 24" fill="currentColor"><path d="m18.99 5.85-1.21 1.62A8 8 0 1 1 12 5h1.58l-2.1 3h2.44l2.8-4-2.8-4h-2.44l2.1 3H12a10 10 0 1 0 6.99 2.85Z"/><path d="M8.36 15.34c-.4 0-.69-.04-1.24-.17l-.14 1c.47.11 1.11.18 1.64.18 1.64 0 2.57-.69 2.57-1.91 0-.93-.55-1.52-1.53-1.64v-.03c.87-.23 1.4-.86 1.4-1.58 0-.89-.81-1.41-2.15-1.41-.63 0-1.31.13-1.85.37l.15.94c.52-.22.98-.31 1.37-.31.85 0 1.17.22 1.17.72 0 .61-.56.97-1.53.97h-.2l-.13.9h.34c1.14 0 1.64.31 1.64.99s-.48.97-1.51.97ZM15.12 9.79c-1.75 0-2.65 1.19-2.65 3.35s.85 3.21 2.57 3.21 2.62-1.13 2.62-3.31-.84-3.25-2.54-3.25Zm-.07 5.55c-.89 0-1.25-.67-1.25-2.24s.36-2.31 1.28-2.31 1.26.69 1.26 2.27-.36 2.28-1.29 2.28Z"/></svg>
