<svg viewBox="0 0 24 24" xmlns="http://www.w3.org/2000/svg"><path fill="currentColor" d="M8.91 20.978c.468-.759 1.149-1.978 1.398-2.96l.71-2.7c.365.71 1.45 1.308 2.599 1.308 3.42 0 5.888-3.15 5.888-7.065 0-3.757-3.066-6.561-7-6.561C7.598 3 5 6.29 5 9.87c0 1.672.888 3.738 2.308 4.401.215.103.337.056.384-.15.015-.066.058-.238.109-.442.072-.288.16-.64.208-.847a.338.338 0 00-.074-.327c-.468-.57-.842-1.617-.842-2.59 0-2.504 1.898-4.924 5.131-4.924 2.795 0 4.748 1.897 4.748 4.616 0 3.066-1.551 5.197-3.57 5.197-1.112 0-1.953-.925-1.682-2.056.116-.483.27-.978.418-1.46.27-.872.526-1.7.526-2.325 0-.87-.468-1.599-1.44-1.599-1.14 0-2.056 1.178-2.056 2.757 0 1 .337 1.683.337 1.683s-1.122 4.757-1.327 5.645c-.224.98-.14 2.361-.038 3.258.253.1.51.19.77.27z"/></svg>
