<svg viewBox="0 0 24 24" xmlns="http://www.w3.org/2000/svg"><path fill="currentColor" fill-rule="evenodd" clip-rule="evenodd" d="M6.89381 18.2101c0 2.6411 2.1487 4.7899 4.78959 4.7899 1.3258 0 2.6098-.5483 3.5242-1.5047.871-.9117 1.3207-2.0916 1.2653-3.3214-.0051-.1133-.0106-.211-.0237-.4284l-.006-.0998c-.1411-2.3096.0967-3.5117 1.4433-5.1681 1.2121-1.4913 1.4695-2.4434 1.4477-4.05573l-.0022-.25635C19.332 4.21469 16.1174 1 12.166 1 8.2146 1 5 4.21469 5 8.1663c0 .44158.35785.79947.79941.79947.44158 0 .79947-.3579.79947-.79947 0-3.06993 2.49728-5.56736 5.56712-5.56736 3.0698 0 5.5671 2.49744 5.5671 5.56736l.0023.27664c.0013.10198.0013.10198.0021.20271.0056 1.0607-.2143 1.74415-1.0914 2.82335-1.6372 2.0138-1.9611 3.6111-1.8021 6.2271l.0048.0795c.015.2408.0211.3468.0265.4705.036.7896-.2563 1.5508-.8238 2.1447-.6137.6419-1.477 1.0103-2.3681 1.0103-1.75933 0-3.19071-1.4316-3.19071-3.191 0-.4416-.3579-.7995-.79947-.7995-.44153 0-.79941.3579-.79941.7995zm5.20389-.8662c-.095.2423-.3284.4008-.5869.4008-.0784 0-.1555-.0145-.2302-.0437-1.48256-.5807-2.15531-2.0169-1.6402-3.4989.04281-.1234.0899-.2447.14384-.371.05218-.1221.09107-.2066.19382-.4219.10194-.2131.13724-.2939.17304-.3987.1983-.581-.0085-1.1527-.87069-2.46-.53072-.80558-.68993-1.30862-.68993-2.10894 0-1.97241 1.60482-3.57719 3.57722-3.57719 1.9724 0 3.5771 1.60478 3.5771 3.57719 0 .3481-.2821.63023-.6301.63023-.3481 0-.6303-.28212-.6303-.63023 0-1.27747-1.0393-2.31677-2.3167-2.31677-1.2775 0-2.3168 1.0393-2.3168 2.31677.00001.11777.00071.16309.00368.22217.01868.37226.14417.686.47852 1.1931 1.2813 1.94337 1.4252 2.75177.7823 4.09637l-.0272.0568-.0273.0573c-.1051.2219-.1708.3778-.23.5484-.2979.8572.0704 1.5829.9098 1.9116.3241.1271.4839.4927.357.8166z"/></svg>