<svg viewBox="0 0 24 24" xmlns="http://www.w3.org/2000/svg"><path fill="currentColor" d="M21.41 11h-4.79l.32-1.99-1.67-2.25-2.26-.34L4 13.02v5.99L8.07 23h10.34L20 21.41v-1.6l1.4-1.4V17l1.62-1.59v-2.8l-1.62-1.62.01.01Zm-.38 2.45v1.13l-.44.43H13v1h5.94l.44.45v1.14l-.4.42h-5.99v1h4.59l.44.45v1.13l-.44.43H8.89L6 18.2v-4.13l7.54-5.51.62.09.67.91-.1.6-3.87 2.86h9.72l.44.45.01-.02Z"/><path fill="currentColor" d="m6.01 3.72.56-.29 1.08.33.28.54-1.41 4.61 7.82-5.78.62.09.67.91-.1.6 1.19 1.61.66-.49.36-2.24-1.67-2.25-2.26-.33-3.85 2.85-.92-1.79-2.68-.82-2.01 1.07L2.27 9h2.09l1.65-5.28Z"/></svg>