<svg xmlns="http://www.w3.org/2000/svg" viewBox="0 0 26 26"><path fill="#000" d="M13.152.5C6.237.5.5 5.94.5 12.995.5 19.931 5.924 25.5 12.839 25.5c6.841 0 12.661-5.366 12.661-12.301C25.5 6.207 20.104.5 13.152.5"/><path fill="#FFF" d="M6.135 17.087h-.93l-1.298-2.53h-.01v1.93l.332.092v.508H2.802v-.508l.34-.093V13.55l-.34-.102v-.49h1.234l1.354 2.753V13.55l-.341-.102v-.49h1.436v.49l-.35.102v3.537zm3.527-2.577l-.23.065-.82 2.512c-.267.822-.58 1.21-1.243 1.21-.377 0-.7-.12-.884-.204l.185-.628c.1.028.313.12.506.12.203 0 .304-.064.387-.25l.055-.147-.829-2.604-.23-.083v-.508h1.5v.508l-.285.074.452 1.754h.018l.488-1.754-.267-.084v-.498h1.197v.517zm3.38 2.577h-1.253v-1.93c0-.352-.101-.48-.322-.48a.714.714 0 0 0-.47.184v1.634l.36.093v.499H9.753v-.5l.34-.092v-2.964l-.34-.092v-.48h1.216v1.338h.027c.23-.23.451-.369.829-.369.57 0 .865.323.865.997v1.57l.35.093v.499zm1.814-.665c.239 0 .533-.065.846-.194l.176.618a2.311 2.311 0 0 1-1.151.305c-.903 0-1.474-.498-1.474-1.607 0-1.034.553-1.616 1.409-1.616.81 0 1.225.462 1.225 1.413 0 .12-.019.314-.037.453h-1.658c.019.369.194.628.664.628zm-.222-1.82c-.331 0-.423.287-.432.628h.856c0-.415-.101-.628-.424-.628zm2.827 2.55c-.653 0-.911-.296-.911-.943v-1.533h-.415v-.683h.452l.156-.74h.71v.74h.68v.683h-.68v1.404c0 .277.082.379.303.379a.99.99 0 0 0 .378-.093l.165.582c-.202.139-.617.203-.838.203zm2.57-.73c.239 0 .534-.065.847-.194l.175.618a2.31 2.31 0 0 1-1.152.305c-.902 0-1.473-.498-1.473-1.607 0-1.034.553-1.616 1.41-1.616.81 0 1.224.462 1.224 1.413 0 .12-.019.314-.037.453h-1.658c.019.369.194.628.663.628zm-.222-1.82c-.331 0-.423.287-.432.628h.856c0-.415-.101-.628-.424-.628zm3.37.277c-.248 0-.441.074-.552.277v1.33l.488.102v.499h-1.713v-.5l.323-.082v-1.921l-.323-.083v-.508h.995l.12.517h.027c.11-.379.369-.582.682-.582.147 0 .276.028.276.028v.942a4.514 4.514 0 0 0-.323-.019zm-7.08-3.592c0 .055-.037.055-.037.055h-1.409s-.037 0-.037-.055v-4.12c0-.045.037-.045.037-.045h1.409s.037 0 .037.046v4.119zM12.903 7.85c0-.563.415-.831.82-.831.488 0 .81.37.81.859a.787.787 0 0 1-.801.785c-.57 0-.829-.425-.829-.813zm-3.278 3.436l-.93-4.12c0-.045 0-.045.046-.045h.884c.405 0 .7.268.783.692l.792 3.473s0 .055-.046.055H9.67s-.037 0-.046-.055zM7.13 7.167c0-.045 0-.045.046-.045h1.436v4.22H7.176c-.046 0-.046 0-.046-.055v-4.12zm4.208 0c0-.045 0-.045.037-.045h1.353c.037 0 .037 0 .037.046v4.119c0 .055 0 .055-.037.055h-1.353c-.037 0-.037 0-.037-.055v-4.12zm5.064 1.691l1.013-1.69s.019-.046.083-.046h1.529c.027 0 .037.018.027.046l-1.16 1.893c-.064.148-.055.185.046.351l1.114 1.875c.037.046-.009.055-.009.055h-1.547c-.046 0-.064-.009-.073-.027l-1.05-1.783c-.148-.277-.166-.36.027-.674z"/></svg>
