<svg xmlns="http://www.w3.org/2000/svg" viewBox="0 0 15 15"><path d="M3 6v4c0 .556.447 1 .998 1h7.004A.998.998 0 0 0 12 10V6c0-.556-.447-1-.998-1H3.998A.998.998 0 0 0 3 6zm4.09-3.354l-.842.857-.706-.003H4.63l.685-.685.072.072.967-.976.122.122.779-.778-.236-.236.694-.693.98.98L8 2l-.255-.255-.778.779.122.122zM2 6c0-1.104.894-2 1.998-2h7.004C12.107 4 13 4.893 13 6v4c0 1.104-.894 2-1.998 2H3.998A1.996 1.996 0 0 1 2 10V6zm3 2.5a.5.5 0 1 1 0-1 .5.5 0 0 1 0 1zM9 10a2 2 0 1 1 0-4 2 2 0 0 1 0 4zm0-.75a1.25 1.25 0 1 0 0-2.5 1.25 1.25 0 0 0 0 2.5zm0-.75a.5.5 0 1 1 0-1 .5.5 0 0 1 0 1z"/></svg>