<svg viewBox="0 0 24 24" xmlns="http://www.w3.org/2000/svg"><path d="M22.4 6.594a8.174 8.174 0 01-2.262.602 3.854 3.854 0 001.733-2.112 7.982 7.982 0 01-2.502.926 3.994 3.994 0 00-2.877-1.21c-2.177 0-3.938 1.71-3.938 3.82 0 .299.032.59.101.87-3.275-.157-6.18-1.679-8.12-3.993A3.729 3.729 0 004 7.417c0 1.324.7 2.495 1.758 3.181a3.938 3.938 0 01-1.79-.477v.048c0 1.852 1.36 3.393 3.161 3.744-.33.086-.679.133-1.037.133-.253 0-.5-.023-.74-.07.5 1.517 1.957 2.62 3.682 2.652a8.062 8.062 0 01-4.895 1.636c-.318 0-.63-.02-.94-.055a11.271 11.271 0 006.03 1.726c7.254 0 11.217-5.821 11.217-10.87 0-.166-.005-.332-.012-.493A7.886 7.886 0 0022.4 6.594z"/></svg>
