<svg xmlns="http://www.w3.org/2000/svg" viewBox="0 0 15 15"><path d="M4 9V6a2 2 0 0 1 1.083-1.778c.057-.366.141-.838.254-1.414A1 1 0 0 1 6.32 2H8.68a1 1 0 0 1 .982.808c.113.576.197 1.048.254 1.414A2 2 0 0 1 11 6v3a2 2 0 0 1-1.083 1.778c-.057.366-.141.838-.254 1.414A1 1 0 0 1 8.68 13H6.32a1 1 0 0 1-.982-.808 36.15 36.15 0 0 1-.254-1.414A2 2 0 0 1 4 9zm3.5-3.2a.3.3 0 0 1 .3.3v1.6a.3.3 0 0 1-.6 0V6.1a.3.3 0 0 1 .3-.3zm-.21 1.72a.3.3 0 0 1 .424 0l.608.607a.3.3 0 1 1-.425.425l-.608-.608a.3.3 0 0 1 0-.425zM8.875 11H6.124c.035.22.08.47.13.754A.3.3 0 0 0 6.55 12h1.9a.3.3 0 0 0 .295-.246c.052-.284.096-.535.131-.754zM6.124 4h2.752c-.035-.22-.08-.47-.13-.754A.3.3 0 0 0 8.45 3h-1.9a.3.3 0 0 0-.295.246c-.052.284-.096.535-.131.754zM6 5a1 1 0 0 0-1 1v3a1 1 0 0 0 1 1h3a1 1 0 0 0 1-1V6a1 1 0 0 0-1-1H6zm6.75-.375a.375.375 0 1 1-.75 0C12 3.728 11.272 3 10.375 3a.375.375 0 1 1 0-.75 2.375 2.375 0 0 1 2.375 2.375zm1.5 0a.375.375 0 1 1-.75 0c0-1.726-1.4-3.125-3.125-3.125a.375.375 0 1 1 0-.75 3.875 3.875 0 0 1 3.875 3.875z"/></svg>