<svg viewBox="0 0 24 24" xmlns="http://www.w3.org/2000/svg"><path fill="currentColor" d="M15.438 22L6.318 2h2.194L9.95 5.151A16.923 16.923 0 0124 10.007l-1.412 1.414a14.926 14.926 0 00-11.762-4.348l1.348 2.956a11.93 11.93 0 018.297 3.513l-1.412 1.414a9.933 9.933 0 00-5.946-2.867l1.587 3.48a6.967 6.967 0 012.241 1.509l-1.066 1.068L17.633 22h-2.195zm-4.411-4.877l-.855-1.853a6.953 6.953 0 00-3.113 1.808l1.412 1.414a4.965 4.965 0 012.556-1.37zm-2.124-4.605l-.842-1.826a11.928 11.928 0 00-4.532 2.85l1.412 1.414a9.938 9.938 0 013.962-2.438zM6.8 7.958l-.84-1.822A16.907 16.907 0 000 10.006l1.412 1.415a14.916 14.916 0 015.387-3.464z"/></svg>
