<svg xmlns="http://www.w3.org/2000/svg" viewBox="0 0 15 15">
  <path fill="currentColor" d="M1.5 6h2a.5.5 0 0 1 .5.5v7a.5.5 0 0 1-.5.5h-2a.5.5 0 0 1-.5-.5v-7a.5.5 0 0 1 .5-.5zm.7 1a.2.2 0 0 0-.2.2v5.6c0 .11.09.2.2.2h.6a.2.2 0 0 0 .2-.2V7.2a.2.2 0 0 0-.2-.2h-.6zm10.314-.486c0-.46-.456-.516-.675-.514l-3.29-.002c.459-1.054.688-1.961.688-2.723 0-.756-.148-1.151-.237-1.277-.089-.125-.248-.198-.45-.198-.204 0-.332.12-.368.198-.228.492-.055.845-.182 1.502-.084.438-.73 1.605-1.939 3.5h-.489a.072.072 0 0 0-.072.072v4.649c0 .255-.015.279.206.279h.29c.553.067.82.39 1.783.676.962.286 1.482.332 1.8.332.318 0 1.225-.012 1.452-.168.27-.185.303-.558.101-1.12a1 1 0 0 0 .553-.616c.09-.28.038-.683-.157-1.21.356-.343.558-.645.606-.905.048-.26-.015-.637-.189-1.133.211-.29.342-.489.392-.594.177-.372.177-.593.177-.748zM4.5 6.5A.5.5 0 0 1 5 6h.51c.936-1.49 1.464-2.457 1.508-2.689a2.33 2.33 0 0 0 .035-.518c0-.219.002-.318.017-.462.026-.261.09-.506.205-.754C7.487 1.121 7.985.8 8.55.8c.493 0 .952.198 1.245.59.033.036.08.095.127.166.241.366.316.833.316 1.719a6.34 6.34 0 0 1-.263 1.724L11.83 5c.87-.01 1.685.402 1.685 1.514 0 .403-.059.726-.274 1.178-.045.095-.11.205-.197.338.108.427.137.8.075 1.141-.063.34-.223.659-.47.975.108.466.112.883-.01 1.265a1.996 1.996 0 0 1-.388.694c.074.638-.11 1.187-.652 1.56-.307.21-.644.274-1.183.315-.272.02-.555.028-.836.028-.539 0-1.18-.105-2.085-.374a6.968 6.968 0 0 1-.389-.128 14.855 14.855 0 0 1-1.05-.463A.742.742 0 0 0 5.92 13H5a.5.5 0 0 1-.5-.5v-6z"/>
</svg>
