<svg viewBox="0 0 22 22" xmlns="http://www.w3.org/2000/svg"><path fill="currentColor" fill-rule="evenodd" clip-rule="evenodd" d="M17.4438 4.22924c.1633-.24508.0971-.57621-.1479-.73961C15.6765 2.40994 13.4036 1.80005 11 1.80005c-2.40358 0-4.67646.60989-6.29586 1.68958-.24507.1634-.31128.49453-.14789.73961.1634.24508.49453.31129.73961.14789C6.72925 3.42145 8.79659 2.86672 11 2.86672c2.2034 0 4.2708.55473 5.7041 1.51041.2451.1634.5763.09719.7397-.14789zm.03 11.78426C16.1777 13.5062 13.6539 11.8 11 11.8c-2.65389 0-5.17773 1.7062-6.47378 4.2135l-.12659.2449.12659.2449C5.74283 18.8568 8.17809 20.2 11 20.2c2.8219 0 5.2572-1.3432 6.4738-3.6967l.1266-.2449-.1266-.2449zm-11.8665.2435C6.76145 14.2241 8.85167 12.8667 11 12.8667c2.1483 0 4.2386 1.3574 5.3927 3.3903-1.0639 1.8318-3.0551 2.8764-5.3927 2.8764-2.33763 0-4.32884-1.0446-5.3927-2.8764zM10.9998 18C9.89552 18 9 17.1046 9 16c0-1.1045.89552-2 1.9998-2C12.1045 14 13 14.8955 13 16c0 1.1046-.8955 2-2.0002 2zm3.6292-8.55589c.2451.16328.3115.49438.1482.73949-.1633.2452-.4944.3116-.7395.1483-.755-.50288-1.858-.79852-3.0377-.79852-1.17973 0-2.28266.29564-3.03769.79852-.24516.1633-.57626.0969-.73953-.1483-.16328-.24511-.09691-.57621.14825-.73949.94096-.6267 2.24926-.97739 3.62897-.97739 1.3797 0 2.688.35069 3.629.97739zm1.488-2.30779c.1578-.24873.0841-.57827-.1647-.73605-1.2782-.8108-3.0648-1.26689-4.9523-1.26689-1.88749 0-3.67409.45609-4.95234 1.26689-.24873.15778-.32247.48732-.1647.73605.15778.24873.48731.32247.73605.1647C7.71515 6.60573 9.30428 6.20005 11 6.20005c1.6957 0 3.2849.40568 4.381 1.10097.2487.15777.5783.08403.736-.1647z"/></svg>