<svg viewBox="0 0 24 24" xmlns="http://www.w3.org/2000/svg"><path d="M20.336 7.021a.587.587 0 00-.163-.814c-2.099-1.399-5.05-2.19-8.173-2.19s-6.074.791-8.173 2.19a.587.587 0 00.65.977C6.373 5.92 9.098 5.19 12 5.19c2.903 0 5.628.73 7.522 1.994.27.18.634.107.814-.163zm-1.003 12.312a.733.733 0 00-.733-.733H5.4a.733.733 0 100 1.467h13.2a.733.733 0 00.733-.734zm-2.648-5.337a.587.587 0 01-.65.976c-1.007-.67-2.471-1.063-4.035-1.063s-3.028.393-4.035 1.063a.587.587 0 01-.65-.976c1.211-.807 2.901-1.26 4.685-1.26 1.784 0 3.474.453 4.685 1.26zm1.914-3.17a.587.587 0 00-.181-.81c-1.653-1.049-3.97-1.64-6.418-1.64-2.449 0-4.765.591-6.418 1.64a.587.587 0 00.629.99C7.663 10.087 9.762 9.55 12 9.55c2.238 0 4.337.536 5.79 1.458a.587.587 0 00.81-.182z"/></svg>
