<svg viewBox="0 0 24 24" xmlns="http://www.w3.org/2000/svg"><path fill="currentColor" fill-rule="evenodd" clip-rule="evenodd" d="M6.60637 10.4178c-.00012.007-.00025.0142-.00087.0217-.04371.0364-.08691.0724-.12949.1078-.16736.1394-.32517.2709-.46711.3904-.12046.1021-.232.2108-.34159.3176-.06802.0663-.13528.1319-.20347.1947-.0203-.4092.00157-.8231.06404-1.2338.25864-1.65102.84441-4.98988.96077-5.65312l.00284-.01615.02342-.13119c.05467-.26862.16243-.51695.30924-.72466.09214-.13587.20303-.26082.33109-.3717.06247-.05466.13119-.10776.22177-.16867.32485-.20928.69967-.32017 1.08231-.32017.13587 0 .27175.01406.40606.04217.85585.17804 1.46802.88396 1.56802 1.70702l2.6097-2.20054c.4076-.34983.8699-.53568 1.3384-.53568.5264 0 1.0246.24051 1.4025.67624.1109.12807.2015.26394.2733.40606.1047-.02186.2171-.03436.3358-.03436.3639 0 .8996.1187 1.3884.68874.4248.49352.4826.9886.4576 1.31814-.0109.14993-.0421.29673-.0937.44042.1203.08746.2343.19366.3374.31391.784.91051.4404 2.04123-.2905 2.67531l-.0469.04217c.0516.04842.1015.10152.1499.15618.3046.35452.4264.77776.4061 1.21037-.1577-.02343-.317-.04529-.4857-.04529l-.581-.00937c.0016-.14369-.0422-.29518-.1687-.44198-.1686-.19679-.3498-.26394-.5216-.26394-.2889 0-.5482.19366-.6606.28736l-.4654.39201-.2031-.00313.0094-.06247c.0203-.14836.0188-.29361.0156-.44042l1.8211-1.63361c.0624-.05466.6653-.60284.1921-1.15102-.1734-.20147-.3483-.27175-.5107-.27175-.2741 0-.5087.19887-.623.29577l-.0049.00409-1.3868 1.15571c-.0124-.01753-.0232-.03644-.0339-.05543-.0123-.0216-.0246-.04332-.0395-.06326-.0532-.07057-.1142-.13172-.1752-.19296-.0214-.02143-.0427-.04287-.0638-.06474l1.9788-1.76167c.0018-.00162.0042-.00364.007-.00605.0895-.0765.6383-.5459.1507-1.11218-.1983-.22958-.3889-.30767-.5591-.30767-.2624 0-.4763.18429-.5841.278l-2.4754 2.09277c-.0259-.00589-.0514-.01311-.0768-.02032-.042-.01192-.084-.02382-.1278-.02966-.1702-.02186-.3014-.02186-.4357-.02186L14.7751 4.397c.0578-.04998.6794-.59191.1843-1.1604-.1952-.22333-.3951-.29986-.5779-.29986-.2795 0-.5169.17805-.6262.27175L9.11682 7.11916c-.02186.02031-.04997.02968-.07809.02968-.02186 0-.04216-.00469-.06247-.01718-.04373-.02655-.06715-.07809-.05778-.12963l.41699-2.00375c.09995-.48102-.21084-.9558-.69342-1.05576-.06091-.01249-.12182-.01874-.18273-.01874-.1718 0-.34203.04998-.4904.14681-.03436.02186-.06715.04685-.09683.0734-.05466.04842-.10464.10152-.14524.16086-.07028.09996-.11713.21084-.14212.3311-.00025.0014-.00151.0086-.00373.02128-.05506.31372-.69768 3.97586-.97238 5.72917-.00188.0103-.00206.0207-.00225.0314zm5.57313-3.36657c-.2765.06872-.5482.19834-.7919.3842l-.1108.08902C10.0023 8.5599 7.68156 10.4481 6.46182 11.4742c-2.00063 1.6898-2.7862 4.3589-1.95534 6.6453 1.04639 2.869 3.19538 3.2453 4.95081 3.2547l6.52351-.0812c.8793 0 2.2083-.6622 2.2162-2.085 0-.0562-.0016-.1124-.0047-.1671 1.0776-.0015 2.1927-.7043 2.1989-2.0459 0-.1515-.014-.3061-.0453-.4607.5826-.3498.9387-.9667.9434-1.7304.0046-.7841-.3343-1.4306-.934-1.7914.0359-.1562.0562-.3202.0562-.492 0-1.2447-.9073-2.1193-2.2067-2.1271l-3.5718-.0531c.153-.2546.2546-.54192.2952-.8449.0796-.58723-.0734-1.16977-.4311-1.63986-.3576-.46697-.8746-.76995-1.4571-.85429-.1218-.01405-.2171-.0203-.3108-.0203-.1874 0-.3733.02343-.5497.07028zm.6824 1.18698c.2562.03748.4826.1671.6404.37326.3217.4248.2405 1.03389-.1843 1.35561l-1.7633 1.34002c-.0453.0343-.0624.0953-.0453.1468.0188.0547.0688.0906.125.0906l6.5641.0984c.2561.0015.9636.0624.9636.8777 0 .8152-.8902.8168-.9745.8168l-5.5365.114c-.0469 0-.1374.0859-.1343.1983.0031.1125.0328.2109.1327.2218l6.4783.0906c.2561 0 .9167.0016.912.8355-.0046.7747-.7215.8012-.8933.8012-.0125 0-6.5063.075-6.5063.075-.0734 0-.1328.1124-.1328.1858-.0015.0734.0578.2296.1312.2296l5.5521.1125.0175.0004c.2663.0061.9367.0216.9336.7867-.0047.7824-.8855.8028-.973.8028l-6.2408.0983c-.075 0-.1343.1281-.1343.2015-.0016.0734.0578.228.1312.228l4.0387.0625c.2546.0062.9871.0703.9839.8199-.0047.7497-.9027.8418-.9823.8418l-6.50167.0812c-1.74137-.0093-3.0517-.4263-3.78417-2.4316-.65125-1.7976-.01561-3.9107 1.58676-5.2632C8.604 11.3053 11.3134 9.10441 11.9897 8.55509l.1554-.12635c.1062-.08121.2233-.13743.3514-.16867.075-.0203.1546-.02967.2327-.02967.0437 0 .089.00312.1327.00781z"/></svg>