<svg viewBox="0 0 24 24" xmlns="http://www.w3.org/2000/svg"><path fill="currentColor" opacity=".5" fill-rule="evenodd" d="M9.723 8.799l5.941 3.1-.731.379-5.21-3.48z"/><path fill="currentColor" fill-rule="evenodd" d="M21.906 5.516c.66.657.874 2.15.874 2.15S23 9.418 23 11.17v1.642c0 1.753-.22 3.505-.22 3.505s-.215 1.492-.874 2.15c-.755.777-1.59.857-2.063.902l-.142.015c-3.078.219-7.701.226-7.701.226s-5.72-.052-7.48-.218c-.084-.015-.185-.027-.3-.04-.558-.067-1.432-.17-2.126-.885-.66-.657-.874-2.15-.874-2.15S1 14.566 1 12.813V11.17c0-1.752.22-3.504.22-3.504s.215-1.493.874-2.15c.755-.777 1.591-.857 2.063-.903.052-.004.1-.009.142-.014 3.078-.219 7.696-.219 7.696-.219h.01s4.618 0 7.696.22l.142.014c.472.045 1.308.125 2.063.902zM15.664 11.9l-5.94 3.078V8.799l5.94 3.1z"/></svg>
