<svg xmlns="http://www.w3.org/2000/svg" viewBox="0 0 62 26">
  <path d="M31.09 13.56c.03.07 3.3 5.44 3.3 5.44h-4.62s-2.76-4.51-3.14-5.16c-.38-.64-.4-1.04-.02-1.67L29.77 7h4.63l-3.34 5.46c-.24.41-.22.67.03 1.1zM21.59 19V7h4.21v12h-4.2zM18.94 6.77a2.4 2.4 0 0 1 2.39 2.4 2.4 2.4 0 0 1-2.39 2.4 2.4 2.4 0 0 1-2.38-2.4 2.4 2.4 0 0 1 2.38-2.4zM12.06 19V7h4.2v12h-4.2zM0 19V7h4.2v12H0zM9.5 8.93L11.77 19H7.2L4.48 7h2.7c1.15 0 2.11.83 2.33 1.93zM49 1a12 12 0 1 0 0 24 12 12 0 0 0 0-24zm2.25 18H47v-8.85h-1.7V7h5.95v12z"/>
</svg>
