<svg viewBox="0 0 15 15" xmlns="http://www.w3.org/2000/svg">
    <path fill="currentColor" fill-rule="nonzero" d="M7.5 0c4.36 0 6.52 2.44 6.5 7.33v5.27c0 .78-.6 1.4-1.34 1.4-.74 0-1.34-.62-1.34-1.4-.02-.35-.14-.53-.38-.53s-.36.18-.38.53c0 .78-.6 1.4-1.34 1.4-.74 0-1.34-.62-1.34-1.4 0-.35-.13-.53-.38-.53s-.37.18-.38.53c0 .78-.6 1.4-1.34 1.4-.74 0-1.34-.62-1.34-1.4-.01-.35-.14-.53-.38-.53-.23 0-.36.18-.37.53 0 .78-.6 1.4-1.35 1.4C1.6 14 1 13.38 1 12.6V7.33C.98 2.44 3.14 0 7.5 0zm0 10.95c.58 0 1.05-.3 1.05-1.05S8.08 8.54 7.5 8.54c-.58 0-1.05.61-1.05 1.36 0 .76.47 1.05 1.05 1.05zm2.3-3.7c.9 0 1.62-.75 1.62-1.68 0-.94-.73-1.7-1.63-1.7-.9 0-1.62.76-1.62 1.7 0 .93.73 1.69 1.62 1.69zm-4.6 0c.9 0 1.63-.75 1.63-1.68 0-.94-.73-1.7-1.62-1.7-.9 0-1.63.76-1.63 1.7 0 .93.73 1.69 1.63 1.69zm4.57-1.23a.59.59 0 0 1-.57-.6c0-.33.26-.6.57-.6.32 0 .58.27.58.6 0 .33-.26.6-.58.6zm-4.6 0a.59.59 0 0 1-.57-.6c0-.33.26-.6.57-.6.32 0 .58.27.58.6 0 .33-.26.6-.58.6z"/>
</svg>
