<svg viewBox="0 0 15 15" xmlns="http://www.w3.org/2000/svg"><path fill="currentColor" d="M12.5 5c.3 0 .5.2.5.5v5a.5.5 0 0 1-1 0v-5c0-.3.2-.5.5-.5zm-10-.5c.3 0 .5.2.5.5v5a.5.5 0 0 1-1 0V5c0-.3.2-.5.5-.5zm6-3.5c.3 0 .5.2.5.5v12a.5.5 0 0 1-1 0v-12c0-.3.2-.5.5-.5zm-2 3c.3 0 .5.2.5.5v6a.5.5 0 0 1-1 0v-6c0-.3.2-.5.5-.5zm-2-2.5c.3 0 .5.2.5.5v11a.5.5 0 0 1-1 0V2c0-.3.2-.5.5-.5zm6 1.5c.3 0 .5.2.5.5v9a.5.5 0 0 1-1 0v-9c0-.3.2-.5.5-.5zm4 3c.3 0 .5.2.5.5v2a.5.5 0 0 1-1 0v-2c0-.3.2-.5.5-.5zM.5 6c.3 0 .5.2.5.5v2a.5.5 0 0 1-1 0v-2c0-.3.2-.5.5-.5z"/></svg>
