<svg viewBox="0 0 24 24" xmlns="http://www.w3.org/2000/svg"><path fill-rule="evenodd" d="M3.183 10.187a9.04 9.04 0 000 3.626l-2.905.944.618 1.902 2.904-.943a9.024 9.024 0 002.134 2.932L4.138 21.12l1.618 1.176 1.795-2.47A8.941 8.941 0 0011 20.945V24h2v-3.055a8.94 8.94 0 003.45-1.12l1.794 2.471 1.619-1.176-1.797-2.472a9.024 9.024 0 002.134-2.932l2.904.943.618-1.902-2.905-.944a9.035 9.035 0 000-3.626l2.905-.944-.618-1.902-2.904.943a9.025 9.025 0 00-2.134-2.932l1.797-2.472-1.619-1.176-1.795 2.47A8.941 8.941 0 0013 3.055V0h-2v3.055a8.942 8.942 0 00-3.45 1.12L5.757 1.704 4.138 2.88l1.796 2.472A9.025 9.025 0 003.8 8.284L.896 7.341.278 9.243l2.905.944zM12 16a4 4 0 100-8 4 4 0 000 8zm0-2a2 2 0 110-4 2 2 0 010 4z"/></svg>
