<svg viewBox="0 0 24 24" xmlns="http://www.w3.org/2000/svg"><path d="M21 12a9 9 0 11-18 0 9 9 0 0118 0zm-9 11c6.075 0 11-4.925 11-11S18.075 1 12 1 1 5.925 1 12s4.925 11 11 11zm-.806-9h1.666v-.262c0-.29.082-.574.245-.854.163-.28.362-.539.595-.777.233-.238.467-.483.7-.735.233-.252.432-.55.595-.896.163-.345.245-.714.245-1.106 0-.84-.296-1.486-.889-1.939-.593-.453-1.328-.68-2.205-.68-1.017 0-1.83.267-2.436.799-.607.532-.91 1.325-.91 2.38h1.722c0-.513.14-.908.42-1.183.28-.275.644-.413 1.092-.413.41 0 .735.103.973.308.238.205.357.509.357.91 0 .261-.075.518-.224.77-.15.252-.329.485-.539.7-.21.215-.422.439-.637.672a3.217 3.217 0 00-.546.833c-.15.322-.224.665-.224 1.029V14zM12 17.7a1.2 1.2 0 100-2.4 1.2 1.2 0 000 2.4z"/></svg>
