<svg xmlns="http://www.w3.org/2000/svg" viewBox="0 0 15 15">
  <path d="M5.75 5H3.998C3.446 5 3 5.448 3 6v4c0 .556.447 1 .998 1h7.005c.551 0 .997-.448.997-1V6c0-.556-.447-1-.998-1H9.25c0-.556-.445-1-.994-1H6.744c-.536 0-.994.448-.994 1zm.994-2h1.513c.74 0 1.384.402 1.728 1h1.018C12.107 4 13 4.893 13 6v4c0 1.104-.894 2-1.998 2H3.998C2.893 12 2 11.107 2 10V6c0-1.104.894-2 1.998-2H5.02c.346-.597.992-1 1.724-1zm.756 7.25c-1.243 0-2.25-1.007-2.25-2.25S6.257 5.75 7.5 5.75 9.75 6.757 9.75 8s-1.007 2.25-2.25 2.25zm.025-.85c.759 0 1.375-.616 1.375-1.375S8.284 6.65 7.525 6.65 6.15 7.266 6.15 8.025 6.766 9.4 7.525 9.4z"/>
</svg>
