<svg xmlns="http://www.w3.org/2000/svg" style="width:2.6em;height:2.6em" viewBox="0 0 26 26">
  <path fill="currentColor" d="M13 25.5C6.09628378 25.5.5 19.9037162.5 13 .5 6.09628378 6.09628378.5 13 .5 19.9037162.5 25.5 6.09628378 25.5 13c0 6.9037162-5.5962838 12.5-12.5 12.5zm7.5506757-8.597973c-.4307433-.464527-1.1148649-1.3969594-1.1148649-1.3969594.6030406-.168919 1.1486487-.4780406 1.5777027-.9121622.6925676-.6875 1.0692568-1.6638513 1.0641892-2.714527.0101351-1.0912162-.4679054-2.07094597-1.2246622-2.68581083-.7550675-.62162162-1.7263513-.91216216-2.7364864-.91216216h-1.7837838c-1.6722973.00506757-3.0236487 1.3581081-3.0287162 3.0320946v7.4797297h2.0202702v-2.1233108c0-.5489865.4611487-1.0101351 1.0101352-1.0101351h.8057432l2.3277027 2.847973c.1638514.1587837.3800676.2618243.6199324.2820946h.043919l.0439189.0033783.0422297-.0033783h1.195946l.0033783-1.633446s-.4932432.1402027-.8614865-.2533784h-.0050675zm-8.5574325-8.2939189H9.99324324v3.2601351c-.03716216 1.2162163-1.17567567 1.6097973-2.08445946 1.6216217-1.03716216-.0135135-2.12837837-.5912163-2.12837837-2.168919l-.00337837-2.71959455h-1.9695946v2.71959455c0 1.2331082.42736487 2.2871622 1.2331081 3.0472973.73141893.6891892 1.73310812 1.0743244 2.8277027 1.0929054h.0810811c.7347973-.0135135 1.81418918-.4932432 2.02364864-.9172297v.9003379c0 1.1925675-1.5168919 1.9695946-1.92567567 2.1739864l.0304054.0337838-.0287162.0168919 1.26689188 1.5337838c.73479732-.4290541 2.66891892-1.2837838 2.67567572-3.9797297V8.6081081h.0016891zm6.3057433 5.0304054h-1.964527c-.3547298 0-.6925676.1452703-1.0101352.2567568v-2.5844595c0-.5472973.4611487-1.0084459 1.0101352-1.0101351h1.7820946c.6283783 0 1.1317567.1858108 1.4459459.4476351.3091216.2668919.4847973.5810811.4949324 1.1317568-.0050675.5912162-.1942567.9966216-.4763513 1.2837838-.2871622.2837837-.6925676.4729729-1.2837838.4729729l.0016892.0016892z"/>
</svg>
