<svg viewBox="0 0 24 24" xmlns="http://www.w3.org/2000/svg"><path fill="currentColor" fill-rule="evenodd" clip-rule="evenodd" d="M7.79634 14.3329v-2.6182h7.21086c.0655.3818.12.7636.12 1.2654 0 4.3637-2.9236 7.4618-7.33086 7.4618-4.22182 0-7.636367-3.4145-7.636367-7.6363 0-4.22183 3.414547-7.63638 7.636367-7.63638 2.06182 0 3.78546.75273 5.11636 1.99636L10.84 9.16195c-.5673-.54546-1.56003-1.17818-3.04366-1.17818-2.60728 0-4.73455 2.16003-4.73455 4.82183 0 2.6618 2.12727 4.8218 4.73455 4.8218 3.02186 0 4.15636-2.1709 4.33086-3.2945H7.79634zm13.27026-2.5996H23.2v2.1334h-2.1334V16h-2.1333v-2.1333H16.8v-2.1334h2.1333V9.59999h2.1333v2.13331z"/></svg>