<svg viewBox="0 0 24 24" xmlns="http://www.w3.org/2000/svg"><path d="M10.08 0l-2.8 4 2.8 4h2.44l-2.1-3H12a8 8 0 11-5.776 2.465L5.01 5.848A9.971 9.971 0 002 13c0 5.523 4.477 10 10 10s10-4.477 10-10S17.523 3 12 3h-1.58l2.1-3h-2.44zM8.674 16.2v-5.05h-.079l-1.555 1.073v-1.235l1.639-1.13h1.322V16.2H8.675zm3.12-1.802c.04 1.134.98 1.965 2.36 1.965 1.455 0 2.426-.919 2.426-2.264 0-1.243-.852-2.127-2.057-2.127-.628 0-1.076.233-1.344.62h-.08l.141-1.63H16.2V9.859h-3.986l-.316 3.678h1.186c.22-.356.593-.571 1.085-.571.673 0 1.147.465 1.147 1.164 0 .69-.47 1.147-1.15 1.147-.603 0-1.069-.351-1.143-.879h-1.227z"/></svg>
