<svg viewBox="0 0 24 24" xmlns="http://www.w3.org/2000/svg"><path fill="currentColor" d="M10.46 15.93v-1.2c0-.77.15-1.45.44-2.03.3-.6.67-1.14 1.1-1.62.44-.49.88-.95 1.3-1.4a9.1 9.1 0 0 0 1.08-1.3c.31-.44.47-.9.47-1.4a3 3 0 0 0-.82-2.19c-.53-.55-1.45-.82-2.75-.82-.58 0-1.2.07-1.87.22-.65.14-1.35.38-2.1.71L7 3.1a8.6 8.6 0 0 1 2.15-.83A10.2 10.2 0 0 1 11.46 2c1.75 0 3.1.41 4.08 1.23.97.8 1.46 1.88 1.46 3.23 0 .86-.15 1.59-.46 2.19a6.9 6.9 0 0 1-1.16 1.59l-1.35 1.36c-.47.44-.85.93-1.16 1.48-.3.53-.46 1.17-.46 1.92v.73l-1.95.2Zm1 6.07c-.48 0-.88-.17-1.2-.52a1.77 1.77 0 0 1-.5-1.26c0-.5.17-.91.5-1.26.32-.34.72-.52 1.2-.52.46 0 .86.18 1.18.52.33.35.49.77.49 1.26 0 .5-.16.91-.49 1.26-.32.35-.72.52-1.18.52Z"/></svg>
