<svg viewBox="0 0 24 24" xmlns="http://www.w3.org/2000/svg"><path fill="currentColor" fill-rule="evenodd" clip-rule="evenodd" d="M1 12a11 11 0 1 0 22 0 11 11 0 0 0-22 0zm3.58 2.45s-.8-.21-1.34-.37A8.9 8.9 0 0 1 3 12l.58-1.28 1.2-.37-1.2-1.49A9.14 9.14 0 0 1 12.13 3a9.2 9.2 0 0 1 5.19 1.6L14.96 5.9l-3.79-1.15-1.46 2.57 1.38-1.24.71 1.1-1.68 1.17-1.56.3.06.94s-.45.46-.45.66c0 .19.56.56.56.56l1.24-.96 1.2.86.31-1.6 1.05 3.3-.8.4-.92-.44-.28-.41-.93.3-.58.12-.37.64-.61.74-.02.94.93.85.65-.07.67-.15.43.85.5.98-.25.75.69 1.8.88-.1.79-1.1.93-3.35-.8-1.59.7-.8.9.93.62-.32 1.35-.97.63.46.6 1.1.94-1.13.78.16.68 1.31s.27 0 .36-.13A9.12 9.12 0 0 1 12.14 21a9.17 9.17 0 0 1-6.87-3.07l1.11-2.08-1.56-.59-.24-.8z"/><path fill="currentColor" fill-rule="evenodd" clip-rule="evenodd" d="M12 21a9 9 0 1 0 0-18 9 9 0 0 0 0 18zm11-9a11 11 0 1 1-22 0 11 11 0 0 1 22 0z"/></svg>
