<svg viewBox="0 0 40 15" xmlns="http://www.w3.org/2000/svg">
<path d="M.5 7.5C.5 3.9 3.4 1 7 1h26a6.5 6.5 0 0 1 0 13H7A6.5 6.5 0 0 1 .5 7.5zm7.3-2v3.96h1.29c.72 0 1.26-.16 1.6-.5.35-.32.53-.84.53-1.55 0-.28-.05-.54-.13-.77a1.6 1.6 0 0 0-1-1c-.24-.1-.53-.14-.85-.14H7.8zm1.44.86c.64 0 .96.37.96 1.12 0 .38-.08.66-.24.85-.15.18-.4.28-.72.28h-.47V6.36h.47zm2.8 3.1h.98V5.5h-.98v3.96zm1.92-3.96v3.96h.97V8.13h.27c.1 0 .21 0 .3-.02l.67 1.35h1.06l-.82-1.58c.4-.23.6-.6.6-1.1 0-.39-.13-.7-.39-.93-.26-.23-.63-.35-1.12-.35h-1.54zm1.5.84c.19 0 .33.04.42.12.1.08.14.2.14.37 0 .17-.05.3-.15.4-.1.08-.25.13-.45.13h-.5V6.34h.53zm2.48 3.12h2.77v-.85h-1.8v-.76h1.61v-.8h-1.6v-.7h1.76V5.5h-2.74v3.96zm3.59 0h.97V7.84h.41l.92 1.62h1.13l-1.2-2.04 1.08-1.92h-1.08l-.83 1.54h-.43V5.5h-.97v3.96zm5 0h.97v-3.1h1.14V5.5h-3.26v.86h1.15v3.1zm2.83 0h2.76v-.85h-1.79v-.76h1.6v-.8h-1.6v-.7h1.77V5.5h-2.74v3.96z" fill="currentColor" fill-rule="nonzero"/>
</svg>
