<svg xmlns="http://www.w3.org/2000/svg" viewBox="0 0 15 15"><path fill="currentColor" d="M7.5 2.24c1.7 0 1.92 0 2.6.04.62.03.96.13 1.18.22.3.12.52.25.74.48.23.22.37.44.48.74.1.22.2.56.22 1.2.03.66.04.87.04 2.58s0 1.92-.04 2.6c-.03.62-.13.96-.22 1.18-.1.3-.25.52-.48.74-.22.23-.44.37-.74.48-.22.1-.56.2-1.2.22-.66.03-.87.04-2.58.04s-1.92 0-2.6-.04c-.62-.03-.96-.13-1.18-.22-.3-.1-.52-.25-.74-.48-.23-.22-.36-.44-.48-.74-.1-.22-.2-.56-.22-1.2-.03-.66-.04-.87-.04-2.58s0-1.92.04-2.6c.03-.62.13-.96.22-1.18.12-.3.25-.52.48-.74.22-.23.44-.36.74-.48.22-.1.56-.2 1.2-.22.66-.03.87-.04 2.58-.04m0-1.16c-1.74 0-1.96 0-2.65.04-.68.03-1.14.14-1.55.3-.42.17-.78.38-1.14.74-.35.36-.57.72-.74 1.14-.16.4-.26.87-.3 1.56-.03.68-.03.9-.03 2.64 0 1.74 0 1.96.02 2.65.04.68.14 1.14.3 1.55.17.43.4.78.74 1.14.36.35.72.57 1.14.74.4.16.87.26 1.56.3.68.03.9.03 2.64.03 1.74 0 1.96 0 2.65-.02.68-.04 1.15-.14 1.55-.3.43-.17.78-.4 1.14-.74.36-.36.57-.72.74-1.14.16-.4.27-.87.3-1.56.03-.68.04-.9.04-2.64 0-1.74 0-1.96-.04-2.65-.03-.68-.14-1.15-.3-1.55-.17-.43-.38-.78-.74-1.14-.36-.36-.72-.58-1.14-.74-.4-.16-.87-.27-1.56-.3-.68-.03-.9-.04-2.64-.04m0 3.13c-1.82 0-3.3 1.48-3.3 3.3 0 1.82 1.48 3.3 3.3 3.3 1.82 0 3.3-1.48 3.3-3.3 0-1.82-1.48-3.3-3.3-3.3zm0 5.44c-1.18 0-2.14-.96-2.14-2.14 0-1.18.96-2.14 2.14-2.14 1.18 0 2.14.96 2.14 2.14 0 1.18-.96 2.14-2.14 2.14zm4.2-5.57c0 .43-.35.77-.77.77-.43 0-.77-.34-.77-.76 0-.43.34-.77.77-.77.42 0 .77.35.77.78"/></svg>
