<svg viewBox="0 0 15 15" xmlns="http://www.w3.org/2000/svg">
  <path fill="currentColor" d="M4.5 6C3.67 6 3 6.67 3 7.5v4c0 .83.67 1.5 1.5 1.5h6c.83 0 1.5-.67 1.5-1.5v-4c0-.83-.67-1.5-1.5-1.5h-6zm0-1h6A2.5 2.5 0 0 1 13 7.5v4a2.5 2.5 0 0 1-2.5 2.5h-6A2.5 2.5 0 0 1 2 11.5v-4A2.5 2.5 0 0 1 4.5 5z" fill-rule="nonzero"/>
  <path fill="currentColor" d="M7.83 10.46v1.21a.33.33 0 0 1-.66 0v-1.2a1.5 1.5 0 1 1 .66 0zm-.33-.58a.88.88 0 1 0 0-1.76.88.88 0 0 0 0 1.76z"/>
  <path fill="currentColor" d="M5.5 3.5a2 2 0 1 1 4 0V6h1V3.5a3 3 0 1 0-6 0c-.01.33.15.5.5.5s.51-.17.5-.5z" fill-rule="nonzero"/>
</svg>
