<svg viewBox="0 0 24 24" xmlns="http://www.w3.org/2000/svg"><path fill="currentColor" d="M6.13 9.88A5.968 5.968 0 0 0 8.33 9v8.45h2.05V6.76h-.9l-.74.36-.72.33-.72.3c-.49.194-.991.36-1.5.5l.33 1.63Z"/><path fill="currentColor" fill-rule="evenodd" clip-rule="evenodd" d="M13.38 17.1c.757.33 1.574.5 2.4.5a5.703 5.703 0 0 0 2.22-.39c.63-.27 1.12-.64 1.46-1.1.35-.47.53-1 .53-1.6 0-.38-.06-.7-.18-.98-.12-.29-.3-.55-.52-.75a3.001 3.001 0 0 0-.77-.57c-.26-.136-.526-.263-.795-.382.16-.061.315-.13.465-.208.3-.16.57-.34.8-.56a2.43 2.43 0 0 0 .77-1.82c0-.54-.16-.99-.48-1.39-.32-.39-.78-.7-1.36-.92-.57-.22-1.23-.33-1.97-.33-.5 0-.97.05-1.37.15a4.1 4.1 0 0 0-1.07.42c-.31.18-.58.4-.8.65a2.59 2.59 0 0 0-.5 2.57c.106.259.259.496.45.7a3.55 3.55 0 0 0 1.217.845 5.977 5.977 0 0 0-.457.225c-.34.17-.63.38-.88.62a2.54 2.54 0 0 0-.8 1.88c0 .37.07.72.19 1.02a2.78 2.78 0 0 0 1.45 1.42Zm3.062-5.763c.242-.12.456-.248.638-.387.25-.19.44-.4.57-.63.13-.23.2-.49.2-.78 0-.2-.05-.38-.14-.54a1.33 1.33 0 0 0-.4-.46 1.85 1.85 0 0 0-.64-.3 3.2 3.2 0 0 0-1.91.1c-.27.12-.47.29-.59.49s-.18.41-.18.63c0 .2.05.4.16.58.12.17.28.33.49.5.2.14.47.28.78.41.3.136.638.262 1.022.387ZM14.71 12.63c.136-.085.277-.166.428-.245l.932.305c.284.1.56.216.83.35.227.104.44.239.63.4.169.126.308.286.41.47a1 1 0 0 1 .15.54c0 .35-.11.65-.32.89a1.8 1.8 0 0 1-.83.51 3.7 3.7 0 0 1-2.1.05 2 2 0 0 1-.7-.35c-.19-.15-.33-.33-.42-.53-.09-.2-.14-.42-.14-.67a1.65 1.65 0 0 1 .53-1.24c.17-.18.37-.33.6-.48Z"/></svg>
