<svg viewBox="0 0 15 15" xmlns="http://www.w3.org/2000/svg">
  <path fill="currentColor" d="M7.5 12.42l.41-.13A7.6 7.6 0 0 1 10 12h2.8c.1 0 .2-.1.2-.2V3.2a.2.2 0 0 0-.2-.2H10a5.6 5.6 0 0 0-2.05.4l-.45.22-.45-.23A5.6 5.6 0 0 0 5 3l-2.51.01h-.3c-.1 0-.19.1-.19.2v8.6c0 .11.09.2.2.2H5a7.6 7.6 0 0 1 2.5.42zM1 3.2C1 2.54 1.54 2 2.2 2H5c1.5 0 2.5.5 2.5.5S8.5 2 10 2h2.8c.66 0 1.2.53 1.2 1.2v8.6c0 .66-.54 1.2-1.2 1.2H10c-1.5 0-2.5.5-2.5.5S6.5 13 5 13H2.2A1.2 1.2 0 0 1 1 11.8V3.2z M7.25 13h.5V3h-.5zM9 5.5A.25.25 0 1 1 9 5h3a.25.25 0 1 1 0 .5H9zM9 6.5A.25.25 0 1 1 9 6h3a.25.25 0 1 1 0 .5H9zM9 7.5A.25.25 0 1 1 9 7h3a.25.25 0 1 1 0 .5H9z"/>
</svg>
