<svg viewBox="0 0 24 24" xmlns="http://www.w3.org/2000/svg"><path fill="currentColor" fill-rule="evenodd" d="M11.455 23h1.101l.994-1.242c1.306-1.633 2.881-3.725 4.137-5.891C18.904 13.767 20 11.305 20 9c0-4.605-3.395-8-8-8S4 4.395 4 9c0 2.293 1.063 4.755 2.271 6.867 1.245 2.177 2.82 4.276 4.177 5.916L11.455 23zM6 9c0 2.95 2.386 6.846 4.712 9.9.41.54.83 1.047 1.225 1.524L12 20.5c.403-.504.817-1.04 1.247-1.611C15.553 15.823 18 11.949 18 9c0-3.5-2.5-6-6-6S6 5.5 6 9z"/><circle cx="12" cy="9" r="1"/><path fill="currentColor" fill-rule="evenodd" d="M12 11a2 2 0 100-4 2 2 0 000 4z"/></svg>
