<svg viewBox="0 0 24 24" xmlns="http://www.w3.org/2000/svg"><path fill-rule="evenodd" d="M12 1.734c-2.788 0-3.138.012-4.233.062-1.092.05-1.839.223-2.492.477a5.032 5.032 0 00-1.818 1.184 5.032 5.032 0 00-1.184 1.818c-.254.653-.427 1.4-.477 2.492-.05 1.095-.062 1.445-.062 4.233 0 2.788.012 3.138.062 4.233.05 1.092.223 1.839.477 2.492a5.033 5.033 0 001.184 1.818c.57.57 1.143.922 1.818 1.184.653.254 1.4.427 2.492.477 1.095.05 1.445.062 4.233.062 2.788 0 3.138-.012 4.233-.062 1.092-.05 1.839-.223 2.492-.477a5.033 5.033 0 001.818-1.184c.57-.57.922-1.143 1.184-1.818.254-.653.427-1.4.477-2.492.05-1.095.062-1.445.062-4.233 0-2.788-.012-3.138-.062-4.233-.05-1.092-.223-1.839-.477-2.492a5.033 5.033 0 00-1.184-1.818 5.032 5.032 0 00-1.818-1.184c-.653-.254-1.4-.427-2.492-.477-1.095-.05-1.445-.062-4.233-.062zm0 1.85c2.741 0 3.066.01 4.148.06 1.001.045 1.545.213 1.907.353.479.186.82.409 1.18.768.36.36.582.701.768 1.18.14.362.308.906.353 1.907.05 1.082.06 1.407.06 4.148 0 2.741-.01 3.066-.06 4.148-.045 1.001-.213 1.545-.353 1.907-.186.479-.409.82-.768 1.18-.36.36-.701.582-1.18.768-.362.14-.906.308-1.907.353-1.082.05-1.407.06-4.148.06-2.741 0-3.066-.01-4.148-.06-1.001-.045-1.545-.213-1.907-.353a3.18 3.18 0 01-1.18-.768 3.18 3.18 0 01-.768-1.18c-.14-.362-.308-.906-.353-1.907-.05-1.082-.06-1.407-.06-4.148 0-2.741.01-3.066.06-4.148.045-1.001.213-1.545.353-1.907a3.18 3.18 0 01.768-1.18c.36-.36.701-.582 1.18-.768.362-.14.906-.308 1.907-.353 1.082-.05 1.407-.06 4.148-.06zM6.728 12a5.272 5.272 0 1110.544 0 5.272 5.272 0 01-10.544 0zM12 15.422a3.422 3.422 0 110-6.844 3.422 3.422 0 010 6.844zm5.48-7.67a1.232 1.232 0 100-2.464 1.232 1.232 0 000 2.464z"/></svg>
