<svg viewBox="0 0 24 24" xmlns="http://www.w3.org/2000/svg"><path fill="currentColor" fill-rule="evenodd" clip-rule="evenodd" d="M10.1 17.4148c.2269.0183.4369.0352.63.0352v.01c.88 0 1.64-.15 2.28-.47.65-.32 1.19-.75 1.61-1.3.43-.56.74-1.21.94-1.94a8.4298 8.4298 0 0 0 .16-3.94c-.09-.51-.25-.96-.46-1.36a3.2499 3.2499 0 0 0-1.89-1.7c-.43-.16-.92-.24-1.47-.24a4.2401 4.2401 0 0 0-2.05.48c-.58.31-1.04.74-1.37 1.29C8.16 8.83 8 9.47 8 10.2a3.4504 3.4504 0 0 0 .39 1.68c.258.4726.6563.8534 1.14 1.09a5.0409 5.0409 0 0 0 3.21.2 8.5207 8.5207 0 0 0 1.0321-.3526 5.8212 5.8212 0 0 1-.1321.6126c-.15.57-.37 1.03-.66 1.39-.28.37-.61.63-1.01.79-.38.16-.82.24-1.3.24a5.9416 5.9416 0 0 1-2.01-.33l-.25 1.57a8.301 8.301 0 0 0 1.63.32l.06.0048Zm3.78-6.0817V11.33c0-.45-.03-.87-.09-1.26a3.6021 3.6021 0 0 0-.3-1.02c-.14-.3-.35-.54-.62-.7a1.94 1.94 0 0 0-1.04-.26c-.43 0-.77.09-1.04.26-.26.17-.45.4-.58.69-.13.29-.19.62-.19 1 0 .42.07.77.2 1.04.14.26.34.45.6.58.27.12.6.18 1 .18.21 0 .41-.01.6-.03a4.9715 4.9715 0 0 0 1.46-.4769Z"/></svg>
