<svg xmlns="http://www.w3.org/2000/svg" viewBox="0 0 15 15">
  <path d="M4.5 3h5.7c1.5 0 2.8 1.1 3 2.6l.5 4.1c.1 1-.6 1.9-1.5 2H12c-.9.1-1.8-.4-2.1-1.3l-.4-.6c-.7.1-1.5.2-2.2.2-.7 0-1.4-.1-2.1-.2l-.3.7c-.3.9-1.2 1.4-2.1 1.3h-.2c-1-.1-1.7-1-1.5-2l.5-4.1C1.7 4.1 3 3 4.5 3zm5.7 1H4.5c-1 0-1.9.8-2 1.8L2 9.9c-.1.4.3.8.7.9h.2c.5.1.9-.2 1.1-.6l.5-1.4.8.1c.7.1 1.3.1 2 .1s1.4-.1 2.1-.2l.8-.1.6 1.4c.2.4.6.7 1.1.6h.2c.4-.1.7-.5.7-.9l-.5-4.1c-.2-.9-1.1-1.7-2.1-1.7zm-.7 3.9c-.8 0-1.4-.6-1.4-1.4s.6-1.4 1.4-1.4c.8 0 1.4.6 1.4 1.4s-.6 1.4-1.4 1.4zm0-.8c.3 0 .6-.3.6-.6s-.3-.6-.6-.6-.6.3-.6.6.3.6.6.6zm-5.1-1h2.2c.2 0 .4.2.4.4s-.2.4-.4.4H4.4c-.2 0-.4-.2-.4-.4s.2-.4.4-.4zM5.5 5c.2 0 .4.2.4.4v2.2c0 .2-.2.4-.4.4s-.4-.2-.4-.4V5.4c0-.2.2-.4.4-.4z"/>
</svg>
