<svg viewBox="0 0 24 24" xmlns="http://www.w3.org/2000/svg"><path fill="currentColor" opacity=".5" fill-rule="evenodd" clip-rule="evenodd" d="M9.72302 8.79895l5.94128 3.09985-.7315.379-5.20978-3.47885z"/><path fill="currentColor" fill-rule="evenodd" clip-rule="evenodd" d="M21.9057 5.51632c.6597.65714.8746 2.14941.8746 2.14941S23 9.41815 23 11.1705v1.6429c0 1.7524-.2197 3.5048-.2197 3.5048s-.2149 1.4923-.8746 2.1494c-.7542.7776-1.5906.8576-2.0631.9028-.0516.005-.0989.0095-.1412.0145-3.0786.219-7.7014.2259-7.7014.2259s-5.71989-.0514-7.47991-.2176c-.08369-.0154-.18519-.0274-.30015-.041-.5576-.066-1.43182-.1695-2.12566-.8846-.65962-.6571-.87427-2.1494-.87427-2.1494S1 14.5658 1 12.8134v-1.6429c0-1.75235.22001-3.50477.22001-3.50477s.21465-1.49227.87427-2.14941c.75451-.7776 1.59071-.85762 2.06316-.90283.05158-.00493.09882-.00945.14115-.01442C7.37728 4.38 11.9952 4.38 11.9952 4.38h.0096s4.618 0 7.6966.21907c.0423.00497.0896.00949.1412.01443.4725.04521 1.3089.12524 2.0631.90282zm-6.2413 6.38238L9.72307 14.977V8.79894l5.94133 3.09976z"/></svg>