<svg xmlns="http://www.w3.org/2000/svg" viewBox="0 0 15 15">
  <path d="M8.8143 2.3146l4.6544 8.4625c.3992.7259.1344 1.638-.5915 2.0372a1.5 1.5 0 0 1-.7228.1857H2.8456c-.8284 0-1.5-.6716-1.5-1.5a1.5 1.5 0 0 1 .1857-.7229l4.6544-8.4625c.3992-.7258 1.3113-.9906 2.0372-.5914a1.5 1.5 0 0 1 .5914.5914zm-.8762.482a.5.5 0 0 0-.8762 0L2.4075 11.259a.5.5 0 0 0 .4381.741h9.3088a.5.5 0 0 0 .438-.741L7.9382 2.7966zM7.5 11.25a.75.75 0 1 1 0-1.5.75.75 0 0 1 0 1.5zm0-2a.6615.6615 0 0 1-.6615-.6615v-2.677a.6615.6615 0 0 1 1.323 0v2.677A.6615.6615 0 0 1 7.5 9.25z"/>
</svg>
