<svg xmlns="http://www.w3.org/2000/svg" style="width:2.6em;height:2.6em" viewBox="0 0 26 26">
  <path fill="currentColor" d="M0 0h26v26H0V0zm6.177 5.668v4.867h1.7V5.668h-1.7zm4.852 0v4.867h1.7V5.668h-1.7zm3.833 0v4.867h1.702V5.668h-1.702zm-1.067 1.838c.53 0 .96-.433.96-.97a.966.966 0 0 0-.96-.97.963.963 0 0 0-.959.97c0 .537.429.97.959.97zm4.366 3.03h1.87s-1.325-2.18-1.34-2.209c-.101-.174-.107-.278-.008-.446l1.348-2.216h-1.87s-1.125 1.844-1.278 2.099c-.153.257-.145.415.005.678.154.264 1.273 2.093 1.273 2.093zm-7.239 0v-.004l-.909-4.083a.963.963 0 0 0-.943-.781H7.977l1.098 4.87h1.847v-.003zm3.746 1.34h-2.676s1.52 2.493 1.538 2.527c.117.197.125.32.01.509l-1.545 2.535h2.675s1.291-2.11 1.465-2.403c.174-.293.166-.475-.008-.776-.19-.323-.192-.323-1.46-2.393zm8.376 1.436c-.09-.154-.886-1.437-.886-1.437h-5.724l1.25 2.099h3.015l-1.244 2.039 1.387 2.33-1.338 2.2h2.444c.392-.642.98-1.637 1.104-1.842.177-.293.169-.475-.008-.779-.122-.208-.776-1.247-1.169-1.886 0 0 1.052-1.742 1.174-1.948.177-.293.17-.475-.005-.776zm-5.506 3.013c-.377.615-1.008 1.646-1.125 1.846-.169.291-.177.468-.008.748.117.198.753 1.237 1.133 1.855.379-.618 1.013-1.66 1.132-1.855.169-.283.161-.46-.008-.748-.12-.2-.748-1.23-1.124-1.846zm-7.608-4.45c-.244 0-.486.057-.782.24-.197.121-1.8 1.482-1.922 1.586-.122-.104-1.727-1.465-1.922-1.587-.296-.179-.538-.239-.782-.239H2.818v7.637l2.366-1.78v-3.064l2.042 1.535 2.042-1.535v5.875h2.381v-8.668H9.93z"/>
</svg>
