<svg viewBox="0 0 68 22" xmlns="http://www.w3.org/2000/svg">
  <path fill="#0A2343" d="M67.73 0H0v21.58h67.73V0Z"/>
  <path fill="#8BB5EB" d="M42.39 6.2h3.87v10.51h1.77V6.21h3.85V4.7h-9.5v1.5ZM61.2 4.72l-2.5 7.47a65.9 65.9 0 0 0-.76 2.5l-.18.64a79.97 79.97 0 0 0-.96-3.21l-2.47-7.4h-1.89l4.16 12h2.2l4.17-12H61.2Z"/>
  <path fill="#fff" d="M24.82 4.79a2.3 2.3 0 0 0-1.2-.32c-.41-.01-.83.1-1.19.32a2.43 2.43 0 0 0-.85 3.27c.2.36.5.65.85.87.36.21.78.32 1.2.32.42 0 .83-.11 1.2-.32.35-.21.65-.51.86-.87.21-.36.32-.77.32-1.2a2.41 2.41 0 0 0-1.18-2.08ZM13.46 5.27a2.3 2.3 0 0 0-1.53-.55H9.25l2.7 12h4.58L14.27 6.64a2.3 2.3 0 0 0-.8-1.38M9 4.72H4.78v12h4.2v-12ZM20.99 4.72h-4.2v12h4.2v-12ZM30.47 4.72h-4.2v12h4.2v-12ZM39.03 4.72H34.4a158.66 158.66 0 0 0-1.42 2.35l-.74 1.2a133.2 133.2 0 0 0-.98 1.62c-.17.24-.26.53-.28.83.03.3.12.58.28.84l.36.6a153.15 153.15 0 0 0 2.06 3.36l.72 1.2h4.63a350.46 350.46 0 0 1-1.64-2.7 222.45 222.45 0 0 1-1.67-2.75c-.1-.16-.17-.36-.2-.55a1 1 0 0 1 .18-.54l3.33-5.46Z"/>
</svg>
