<svg viewBox="0 0 24 24" xmlns="http://www.w3.org/2000/svg"><mask id="a"><path fill-rule="evenodd" d="M14 4v3h7.694a2 2 0 011.98 2.283l-1.429 10A2 2 0 0120.265 21H8V4a2 2 0 012-2h2a2 2 0 012 2zm6.265 15H10V4h2v5h9.694l-1.429 10zM1 6h5v17H1v-2h3V8H1V6z"/></mask><path fill-rule="evenodd" d="M14 4v3h7.694a2 2 0 011.98 2.283l-1.429 10A2 2 0 0120.265 21H8V4a2 2 0 012-2h2a2 2 0 012 2zm6.265 15H10V4h2v5h9.694l-1.429 10zM1 6h5v17H1v-2h3V8H1V6z"/><path d="M14 7h-2v2h2V7zm9.674 2.283L21.694 9l1.98.283zm-1.429 10L20.265 19l1.98.283zM8 21H6v2h2v-2zm2-2H8v2h2v-2zm10.265 0v2H22l.245-1.717-1.98-.283zM10 4V2H8v2h2zm2 0h2V2h-2v2zm0 5h-2v2h2V9zm9.694 0l1.98.283L24 7h-2.306v2zM6 6h2V4H6v2zM1 6V4h-2v2h2zm5 17v2h2v-2H6zm-5 0h-2v2h2v-2zm0-2v-2h-2v2h2zm3 0v2h2v-2H4zM4 8h2V6H4v2zM1 8h-2v2h2V8zm15-1V4h-4v3h4zm5.694-2H14v4h7.694V5zm3.96 4.566A4 4 0 0021.694 5v4l3.96.566zm-1.429 10l1.429-10L21.694 9l-1.429 10 3.96.566zM20.265 23a4 4 0 003.96-3.434L20.265 19v4zM8 23h12.265v-4H8v4zM6 4v17h4V4H6zm4-4a4 4 0 00-4 4h4V0zm2 0h-2v4h2V0zm4 4a4 4 0 00-4-4v4h4zm-6 17h10.265v-4H10v4zM8 4v15h4V4H8zm4-2h-2v4h2V2zm2 7V4h-4v5h4zm7.694-2H12v4h9.694V7zm.551 12.283l1.429-10-3.96-.566-1.428 10 3.96.566zM6 4H1v4h5V4zm2 19V6H4v17h4zm-7 2h5v-4H1v4zm-2-4v2h4v-2h-4zm5-2H1v4h3v-4zM2 8v13h4V8H2zm-1 2h3V6H1v4zm-2-4v2h4V6h-4z" mask="url(#a)"/></svg>
