<svg viewBox="0 0 40 24" xmlns="http://www.w3.org/2000/svg"><path fill="currentColor" fill-rule="evenodd" clip-rule="evenodd" d="M40 3H0v18h40V3zM2 19V5h36v14H2z"/><path fill="currentColor" d="M5 9.22453v5.81757h2.28015c1.79429 0 2.62964-1.1209 2.62964-2.9322 0-1.7943-.81404-2.88537-2.62964-2.88537H5zm1.40219 1.12517h.65634c.98878 0 1.41497.6095 1.41497 1.7943s-.42193 1.773-1.41497 1.773h-.65634v-3.5673zM10.971 15.0421h1.3596v-4.5518H10.971v4.5518zm-.1321-5.85166c0 .41341.3282.68618.8098.68618.4901 0 .8097-.27277.8097-.68618S12.1345 8.5 11.6487 8.5c-.4859 0-.8098.27277-.8098.69044zM13.6433 15.0421h1.3979v-2.4549c0-.6094.3154-1.0058 1.0143-1.0058.2004 0 .4049.0171.4987.0511v-1.1677c-.0852-.0256-.2174-.0427-.4092-.0427-.6606 0-.9973.4774-1.0782.7885h-.064v-.7203h-1.3595v4.5518zM19.2691 15.1274c1.3936 0 1.9647-.8823 1.9946-1.5003h-1.2445c-.0341.2856-.3452.4817-.7544.4817-.4816 0-.8353-.3325-.8353-.8524v-.2089h2.864v-.5029c0-1.3297-.8524-2.1395-2.0841-2.1395-1.1593 0-2.1011.7117-2.1011 2.1395v.4305c0 1.4235.8694 2.1523 2.1608 2.1523zm-.8396-2.8513v-.0256c0-.5157.3239-.8609.7927-.8609.4688 0 .7714.3452.7714.8609v.0256h-1.5641zM23.6632 13.5249l.2685-.3154 1.1592 1.8326h1.577l-1.6921-2.5955 1.5812-1.9563h-1.5215l-1.3084 1.7943h-.0639V8.91767h-1.3596v6.12443h1.3596v-1.5172zM27.712 10.5585h-.7245v1.0314h.6947v2.1566c0 .9504.4646 1.3084 1.6281 1.3084.3196 0 .635-.0298.7373-.0511v-.9888c-.0852.0085-.2429.017-.4092.017-.4176 0-.6137-.1363-.6137-.5327v-1.9094h.9973v-1.0314h-.9973V9.43337H27.712v1.12513zM32.9756 15.1274c1.3936 0 1.9647-.8823 1.9946-1.5003h-1.2445c-.0341.2856-.3452.4817-.7544.4817-.4816 0-.8353-.3325-.8353-.8524v-.2089H35v-.5029c0-1.3297-.8524-2.1395-2.0841-2.1395-1.1593 0-2.1012.7117-2.1012 2.1395v.4305c0 1.4235.8695 2.1523 2.1609 2.1523zm-.8396-2.8513v-.0256c0-.5157.3239-.8609.7927-.8609.4688 0 .7714.3452.7714.8609v.0256H32.136z"/></svg>