<svg xmlns="http://www.w3.org/2000/svg" style="width:2.6em;height:2.6em" viewBox="0 0 26 26">
  <path fill="currentColor" d="M8.831 11.094a1.92 1.92 0 0 0-1.919 1.919 1.918 1.918 0 1 0 1.92-1.919zm9.123.715a.254.254 0 0 1-.209-.149l-.604-1.57c-.029-.076-.08-.076-.11 0l-.602 1.57a.256.256 0 0 1-.208.149l-1.677.091c-.085.002-.101.051-.035.105l1.303 1.055a.261.261 0 0 1 .081.25l-.433 1.617c-.022.086.018.113.088.065l1.41-.91a.25.25 0 0 1 .257 0l1.41.91c.07.048.11.02.089-.065l-.434-1.617a.262.262 0 0 1 .082-.25l1.301-1.055c.067-.054.052-.103-.032-.105l-1.677-.091zM13 .5C6.11.5.5 6.106.5 13S6.109 25.5 13 25.5c6.892 0 12.5-5.606 12.5-12.5S19.892.5 13 .5zm0 22.544C7.461 23.044 2.955 18.537 2.955 13 2.955 7.46 7.461 2.955 13 2.955c5.54 0 10.046 4.506 10.046 10.046 0 5.536-4.507 10.043-10.046 10.043z"/>
</svg>
