<svg xmlns="http://www.w3.org/2000/svg" viewBox="0 0 15 15"><path fill="currentColor" d="M7.62 4.13c-.19.04-.37.13-.54.26l-.07.06c-.87.7-2.45 2-3.29 2.7a4.15 4.15 0 0 0-1.33 4.52c.71 1.96 2.18 2.22 3.38 2.22l4.44-.05c.6 0 1.51-.46 1.52-1.43a2 2 0 0 0 0-.1c.73-.01 1.49-.49 1.5-1.4 0-.1-.02-.21-.04-.32.4-.24.64-.66.64-1.18 0-.53-.22-.97-.63-1.22.02-.1.04-.22.04-.34 0-.84-.62-1.44-1.5-1.45L9.3 6.37a1.5 1.5 0 0 0-.1-1.7 1.52 1.52 0 0 0-1.58-.54zm.47.8c.17.03.33.12.43.26.22.29.17.7-.12.92l-1.2.92c-.03.02-.05.06-.03.1 0 .03.04.06.08.06l4.48.07c.17 0 .65.04.65.6 0 .55-.6.55-.66.55l-3.78.08c-.03 0-.09.06-.09.13 0 .08.02.15.1.16l4.41.06c.17 0 .62 0 .62.57 0 .53-.49.54-.6.54L7.93 10c-.05 0-.1.08-.1.13s.05.16.1.16l3.78.07c.17 0 .65 0 .65.54 0 .53-.6.55-.66.55l-4.26.07c-.05 0-.1.08-.1.13s.05.16.1.16l2.75.04c.18 0 .68.05.67.56 0 .51-.61.57-.67.57l-4.43.06c-1.19 0-2.08-.3-2.58-1.66A3.3 3.3 0 0 1 4.27 7.8c1.04-.87 3.3-2.7 3.33-2.73a.64.64 0 0 1 .4-.13h.09zm-4.27 1.5l-.4.35c-.14.1-.26.23-.38.34-.01-.27 0-.56.05-.84.18-1.13.58-3.44.65-3.86l.02-.1a1.31 1.31 0 0 1 .44-.74l.15-.11a1.36 1.36 0 0 1 2.08.97L8.21.94c.28-.24.6-.36.91-.36a1.36 1.36 0 0 1 1.14.74c.08-.02.15-.03.24-.03.24 0 .6.08.94.47a1.21 1.21 0 0 1 .25 1.2c.08.06.16.13.23.21.53.62.3 1.4-.2 1.83l-.03.03.1.1c.21.24.3.53.28.83-.1-.02-.22-.03-.33-.03l-.4-.01c0-.1-.03-.2-.11-.3a.46.46 0 0 0-.36-.18c-.2 0-.37.13-.45.2l-.32.26h-.14l.01-.04c.02-.1.01-.2.01-.3l1.24-1.12c.05-.03.46-.4.13-.78-.11-.14-.23-.19-.34-.19-.2 0-.35.14-.43.2l-.95.8-.05-.09-.16-.17L10.77 3c.04-.04.45-.37.1-.77-.13-.15-.26-.2-.37-.2-.18 0-.33.12-.4.18L8.4 3.65c-.04 0-.08-.03-.13-.03-.12-.02-.2-.02-.3-.02L9.4 2.32c.04-.04.47-.4.13-.8-.14-.15-.27-.2-.4-.2a.7.7 0 0 0-.42.19L5.53 4.17a.08.08 0 0 1-.05.02h-.04a.09.09 0 0 1-.04-.1l.28-1.36a.61.61 0 0 0-1.19-.25c0 .02-.47 2.68-.67 3.92v.04z"/></svg>
