<svg viewBox="0 0 24 24" xmlns="http://www.w3.org/2000/svg"><path fill="currentColor" d="M6.083 8.212C4.561 8.974 4 9.84 4 10.5c0 .66.56 1.526 2.083 2.288C7.546 13.518 9.636 14 12 14h.58l-2.1-3h2.44l2.8 4-2.8 4h-2.44l2.1-3H12c-2.607 0-5.016-.526-6.811-1.424C3.454 13.71 2 12.326 2 10.5c0-1.825 1.454-3.209 3.189-4.076C6.984 5.526 9.393 5 12 5s5.016.526 6.811 1.424C20.546 7.29 22 8.674 22 10.5c0 1.441-.92 2.613-2.118 3.446a9.074 9.074 0 01-1.464.816l-1.172-1.674a7.514 7.514 0 001.494-.784c.927-.645 1.26-1.286 1.26-1.804 0-.66-.56-1.526-2.083-2.288C16.454 7.482 14.364 7 12 7s-4.454.481-5.917 1.212z"/></svg>
