<svg viewBox="0 0 40 15" xmlns="http://www.w3.org/2000/svg">
  <g fill-rule="evenodd">
    <path d="M1.5 7.5A5.5 5.5 0 0 0 7 13h26a5.5 5.5 0 1 0 0-11H7a5.5 5.5 0 0 0-5.5 5.5zm-1 0C.5 3.9 3.4 1 7 1h26a6.5 6.5 0 0 1 0 13H7A6.5 6.5 0 0 1 .5 7.5z" fill-rule="nonzero"/>
    <path d="M9.24 6.36h-.47V8.6h.47c.33 0 .57-.1.72-.28.16-.19.24-.47.24-.85 0-.75-.32-1.12-.96-1.12zM7.8 5.5h1.44c.32 0 .6.05.86.14a1.6 1.6 0 0 1 1 1c.07.23.12.49.12.77 0 .71-.18 1.23-.52 1.56-.35.33-.89.49-1.61.49H7.8V5.5zm4.24 3.96V5.5h.98v3.96h-.98zm1.92-3.96h1.54c.49 0 .86.12 1.12.35.26.23.4.54.4.94 0 .5-.2.86-.61 1.1l.82 1.57h-1.06l-.66-1.35-.31.02h-.27v1.33h-.97V5.5zm1.5.84h-.53v1.02h.5c.2 0 .34-.05.44-.14.1-.09.15-.22.15-.39s-.04-.3-.14-.37c-.1-.08-.23-.12-.43-.12zm2.48 3.12V5.5h2.74v.86h-1.77v.7h1.61v.8h-1.6v.75h1.79v.85h-2.77zm3.59 0V5.5h.97v1.54h.43l.83-1.54h1.08l-1.08 1.92 1.2 2.04h-1.13l-.92-1.62h-.4v1.62h-.98zm5 0v-3.1h-1.15V5.5h3.26v.86H27.5v3.1h-.97zm2.83 0V5.5h2.74v.86h-1.77v.7h1.6v.8h-1.6v.75h1.8v.85h-2.77z"/>
  </g>
</svg>
