<svg xmlns="http://www.w3.org/2000/svg" viewBox="0 0 15 15">
  <path d="M5.08 10.78A2 2 0 0 1 4 9V6a2 2 0 0 1 1.08-1.78c.06-.36.14-.84.26-1.41A1 1 0 0 1 6.32 2h2.36a1 1 0 0 1 .98.8c.12.58.2 1.06.26 1.42A2 2 0 0 1 11 6v3a2 2 0 0 1-1.08 1.78c-.06.36-.14.84-.26 1.41a1 1 0 0 1-.98.81H6.32a1 1 0 0 1-.98-.8c-.12-.58-.2-1.06-.26-1.42zM7.5 5.8c.17 0 .3.13.3.3v1.6a.3.3 0 1 1-.6 0V6.1c0-.17.13-.3.3-.3zm-.21 1.72a.3.3 0 0 1 .42 0l.61.6a.3.3 0 0 1-.42.43l-.61-.6a.3.3 0 0 1 0-.43zM8.88 11H6.12l.13.75a.3.3 0 0 0 .3.25h1.9a.3.3 0 0 0 .3-.25l.13-.75zM6.12 4h2.76l-.13-.75a.3.3 0 0 0-.3-.25h-1.9a.3.3 0 0 0-.3.25L6.13 4zM6 5a1 1 0 0 0-1 1v3a1 1 0 0 0 1 1h3a1 1 0 0 0 1-1V6a1 1 0 0 0-1-1H6z"/>
</svg>
