<svg viewBox="0 0 15 15" xmlns="http://www.w3.org/2000/svg">
<path fill="currentColor" d="M7.5 1A6.5 6.5 0 0 0 1 7.5v3.31c0 .8.65 1.45 1.45 1.45h2.33v.93a.56.56 0 0 0 1.12 0v-.38a.16.16 0 0 1 .32 0v.38a.56.56 0 1 0 1.12 0v-.38a.16.16 0 1 1 .32 0v.38a.56.56 0 0 0 1.12 0v-.38a.16.16 0 0 1 .32 0v.38a.56.56 0 0 0 1.12 0v-.93h2.33c.8 0 1.45-.65 1.45-1.45V7.5A6.5 6.5 0 0 0 7.5 1zm-.8 10.45l.67-1.26a.18.18 0 0 1 .32 0l.66 1.26c.07.13-.02.3-.16.3H6.87c-.15 0-.24-.17-.16-.3zM2.8 8.72a1.75 1.75 0 1 1 3.5 0 1.75 1.75 0 0 1-3.5 0zm7.65 1.75a1.75 1.75 0 1 1 0-3.5 1.75 1.75 0 0 1 0 3.5z"/>
</svg>
