<svg viewBox="0 0 24 24" xmlns="http://www.w3.org/2000/svg"><path fill="currentColor" fill-rule="evenodd" clip-rule="evenodd" d="M23 12c0 6.0751-4.9249 11-11 11-6.07513 0-11-4.9249-11-11C1 5.92487 5.92487 1 12 1c6.0751 0 11 4.92487 11 11zM8.19973 9.78846c.3537-.46178.87934-.70741 1.50815-.70741.97762 0 1.66042.52073 1.66042 2.10745v3.3062H9.60963v-3.3111c0-.5944-.26528-.6927-.71232-.6927-.3144 0-.52073.113-.64845.2997v3.7041H6.5V9.17931h1.64078l.05895.60915zm6.36667 4.51464l.7614-5.12379H17.17l-1.5229 7.35899h-1.4148l.3046-2.0436h-1.4394l-1.2183-5.31539h1.852l.8352 5.12379z"/></svg>