<svg xmlns="http://www.w3.org/2000/svg" viewBox="0 0 15 15">
  <path d="M8.09727 7.64496c.24402.36177.14858.85276-.213 1.09681-.36177.24402-.85295.14854-1.09697-.21323-.2962-.43913-3.01632-5.51426-3.01632-5.51426-.04533-.11568-.00329-.25018.1014-.3208.10418-.0711.24313-.0602.33541.02616 0 0 3.44694 4.26898 3.88948 4.92532zM1.89021 4.40528c.12977-.22115.41425-.29523.6354-.16546.22116.12977.29524.41426.16546.63541-.49684.8467-.7625 1.81103-.7625 2.8153 0 3.077 2.49441 5.57142 5.57143 5.57142 3.07701 0 5.57143-2.49441 5.57143-5.57143 0-2.57651-1.7637-4.79965-4.23021-5.40904-.24894-.0615-.40088-.31316-.33938-.5621.0615-.24893.31316-.40087.5621-.33937C11.94268 2.09125 14 4.6845 14 7.69052c0 3.58985-2.91015 6.5-6.5 6.5s-6.5-2.91015-6.5-6.5c0-1.17062.3103-2.297.8902-3.28524zM6.44708 2.3721c-.41203 0-.74605-.33401-.74605-.74605 0-.41203.33402-.74605.74605-.74605s.74605.33402.74605.74605c0 .41204-.33402.74605-.74605.74605z"/>
</svg>
