<svg viewBox="0 0 15 15" xmlns="http://www.w3.org/2000/svg">
  <path fill="currentColor" d="M6.4 1.9c-.4 0-.8-.4-.8-.8s.4-.8.8-.8.8.4.8.8c0 .5-.4.8-.8.8zM1.5 4.1c.1-.1.2-.2.4-.2s.3.1.4.3c.1.2.1.3 0 .5-1.3 2.2-1 5 .7 7s4.5 2.6 6.8 1.6c2.4-1 3.8-3.4 3.6-6s-2-4.7-4.5-5.4c-.2 0-.3-.2-.4-.3 0-.3.1-.5.2-.6.1-.1.3-.2.5-.1 2.9.7 5.1 3.2 5.3 6.2a7.07 7.07 0 0 1-12.3 5.2c-2-2.2-2.3-5.6-.7-8.2zm6.6 3.5c.2.2.3.6.1.9-.1.3-.4.5-.7.5s-.6-.2-.8-.4c-.3-.5-3.2-6-3.2-6 0-.1 0-.3.1-.3.1-.1.2-.1.3 0 0 0 3.8 4.6 4.2 5.3z"/>
</svg>
