<svg viewBox="0 0 24 24" fill="currentColor" xmlns="http://www.w3.org/2000/svg"><path d="M8.18 6.84c0 .64-.57 1.12-.94 1.3C4.3 7.76 2.61 9.7 2.61 11.8c0 .7.25 1.4.9 2.08A4.42 4.42 0 0 0 1 17.93C1 20.38 2.76 22 4.84 22h13.6c2.93 0 4.56-1.64 4.56-4.4 0-1.69-.86-3.1-2.45-3.95.63-.69.96-1.43.96-2.37 0-2.2-1.71-4.07-4.1-4.07-.1 0-.2 0-.3.02l.01-.41C17.12 3.08 13.16 1 8.2 1a7.6 7.6 0 0 0-1.67.17.84.84 0 0 0-.63 1.06c.12.47.55.72 1.08.64.26-.04.82-.1 1.22-.1 3.45 0 7.13.95 7.13 4.05 0 .72-.25.91-.25 1.47 0 .48.37.9.84.9.5 0 .7-.23 1.4-.23a2.25 2.25 0 0 1 2.35 2.28c0 .87-.38 1.52-.94 2.02-.42.41-.3 1.26.25 1.45 1.37.52 2.2 1.64 2.2 2.89 0 1.62-1.04 2.66-2.73 2.66H4.84c-1.19 0-2.02-.96-2.02-2.33a2.9 2.9 0 0 1 2.2-2.9c.7-.15.88-1.23.3-1.6a1.92 1.92 0 0 1-.87-1.63c0-1.25 1.08-2.43 3-2 1.33-.39 2.49-1.45 2.49-3 0-.71-.3-1.62-1.35-2.66a.88.88 0 0 0-1.24.02.9.9 0 0 0 .02 1.26c.5.54.81.86.81 1.42Z" fill="currentColor"/><path d="m15.37 13.18 1.18.06c.06 0 .06.02.02.07l-.94.76c-.08.07-.1.13-.08.21l.35 1.25c.02.06-.02.1-.1.04l-1.04-.7a.15.15 0 0 0-.19 0l-1.04.7c-.06.04-.08.02-.06-.04l.3-1.25c.03-.08 0-.14-.06-.2l-.93-.77c-.05-.05-.02-.07.02-.07l1.16-.06c.12 0 .16-.02.2-.12l.47-1.23c.02-.04.04-.04.06 0l.5 1.25c.03.08.08.1.18.1Zm-7.51.79c.02-.9.67-1.47 1.47-1.47.8 0 1.43.58 1.45 1.47a1.4 1.4 0 0 1-1.45 1.48c-.8 0-1.5-.59-1.47-1.48Zm3.26 4.61c.1-.31.3-.85 1.15-.85.81 0 1.02.5 1.14.85.14.38.4.52.73.44.4-.1.5-.44.43-.8-.12-.78-.98-1.65-2.3-1.65-1.33 0-2.19.87-2.31 1.66-.06.41.08.7.43.79.26.06.57 0 .73-.44Z"/></svg>
