<svg viewBox="0 0 24 24" xmlns="http://www.w3.org/2000/svg"><path fill-rule="evenodd" d="M9.592 8.277l-.898-1.384 3.46-2.247.898 1.384-3.46 2.247zm-.485 2.282l-.899-1.384-.898-1.384-.9-1.383 1.385-.9 3.46-2.246 1.383-.899.9 1.384.898 1.384.899 1.384-1.384.899-3.46 2.247-1.384.898zm4.47 4.063l1.697.865-.1-1.902-.188-3.61-.1-1.903-1.598 1.038-3.032 1.968-1.598 1.038 1.698.865 3.22 1.641zm-.1-1.903l-.09-1.707-1.433.931 1.523.776zm4.258-.755h2.475v8.251h-2.475v-8.25zm4.125-1.65v11.551h-5.775v-11.55h5.775zm-13.652.698l-3.76 10.922-1.56-.537 3.76-10.922 1.56.537zm2.514 9.203a2.063 2.063 0 100-4.125 2.063 2.063 0 000 4.125zm3.712-2.063a3.713 3.713 0 11-7.425 0 3.713 3.713 0 017.425 0z"/></svg>
