<svg xmlns="http://www.w3.org/2000/svg" viewBox="0 0 15 15">
  <path d="M2.15 8.77l.8.23c.1.03 0 .41.14.5.2.11.82.08.95.35.13.3-.3.84-.67 1.28a5.49 5.49 0 0 0 9.47-2.29c-.06.07-.13.11-.22.08-.15-.05-.13-.2-.4-.8-.14-.28-.27-.23-.48-.1-.33.2-.26.72-.56.69-.3-.04-.29-.52-.37-.67-.08-.16-.14-.25-.38-.28-.24-.03-.57.43-.8.6-.25.15-.22.2-.38.18-.16 0-.25-.45-.54-.56-.3-.11-.52.14-.43.49.09.34.25.68.49.97.35.42-.34 1.64-.57 2.05-.14.26-.28.53-.47.67-.18.13-.3.26-.53.05-.24-.2-.4-.82-.41-1.1-.03-.26.29-.36.14-.45-.15-.09-.35-.4-.3-.6.03-.08.18-.56-.25-.52-.07 0-.28.07-.4.1-.14.01-.28.06-.4.04-.12-.03-.52-.41-.56-.52a.92.92 0 0 1 .01-.58c.07-.18.27-.3.37-.45.1-.15.12-.3.23-.4.1-.08.17-.03.34-.06.17-.04.41-.24.56-.19.16.05.13.05.17.25.04.21.33.39.55.27.28-.13.33-.18.49-.24 1.24-.52-.33-2.55-.92-1.95-.18.18.52.57.29.88-.21.28-.84-.5-.91-.5-.26.02-.52.59-.75.59-.21 0-.34-.23-.34-.34 0-.13-.03-.23.28-.4.17-.1-.12-.41-.04-.58.07-.17.61-.1.93-.18.63-.17.79-.5 1.02-.72.3-.28-.23-.69-.43-.67-.67.06-.44.84-.83.75-.61-.13-.14-1.64.88-1.56 1.6.1 1.94.79 2.28.7.17-.05.9-.26 1.42-.8a5.5 5.5 0 0 0-8.28 2.6c.4 0 .84.61.73.91-.1.27-.5.07-.72.23-.19.13-.22.36-.34.53a5.6 5.6 0 0 0 .14 1.52zM7.5 14a6.5 6.5 0 1 1 0-13 6.5 6.5 0 0 1 0 13z"/>
</svg>
