<svg xmlns="http://www.w3.org/2000/svg" viewBox="0 0 15 15">
  <rect fill="currentColor" width="3" height="8" x="1" y="6" rx=".5"/>
  <path fill="currentColor" d="M7.45 3c.17-.6-.13-1.62.5-2 .64-.38 1 0 1 0 .33.3.59 1.29.5 2-.07.62-.42 1.74-.5 2h2.93c.85 0 1.63.42 1.63 1.51a2.49 2.49 0 0 1-.47 1.52c.11.43.14.8.08 1.14-.07.34-.22.66-.47.98.1.46.11.88-.01 1.26a2 2 0 0 1-.39.7c.07.63-.11 1.18-.65 1.55-.3.21-.65.28-1.18.32l-.84.03a7.35 7.35 0 0 1-2.47-.5A14.85 14.85 0 0 1 5.92 13H5a.5.5 0 0 1-.5-.5v-6c0-.28.22-.5.5-.5h.51l1.94-3z"/>
</svg>
