<svg viewBox="0 0 24 24" xmlns="http://www.w3.org/2000/svg"><path d="M12 23c6.075 0 11-4.925 11-11S18.075 1 12 1 1 5.925 1 12s4.925 11 11 11zm0-20.945c5.493 0 9.945 4.452 9.945 9.945 0 5.492-4.452 9.945-9.945 9.945S2.055 17.492 2.055 12c0-5.493 4.452-9.945 9.945-9.945zM6.955 8.242a.64.64 0 00-.214 1.263L9.87 9.5c.067.017.136.067.148.2.006.067-.007.75-.016 1.211l-.008.412-.16 2.988v5.079a.667.667 0 001.332.055l.609-6.708a.242.242 0 01.225-.221c.119.011.217.1.225.221l.61 6.708a.667.667 0 001.331-.055v-5.08l-.16-2.987-.008-.431a47.752 47.752 0 01-.016-1.192c.012-.133.082-.183.148-.2l3.128.006a.64.64 0 10-.212-1.263H6.955zM13.535 6a1.535 1.535 0 11-3.07 0 1.535 1.535 0 013.07 0z"/></svg>
