<svg viewBox="0 0 24 24" xmlns="http://www.w3.org/2000/svg"><path fill="currentColor" fill-rule="evenodd" clip-rule="evenodd" d="M5.93365 5.35167c-.89569.81775-1.62554 1.81407-2.13324 2.93265L.896354 7.34074.27832 9.24285l2.90447.94375c-.11984.5857-.18277 1.1922-.18277 1.8134s.06293 1.2277.18276 1.8134l-2.90446.9437.618034 1.9022 2.904056-.9436c.5077 1.1186 1.23755 2.1149 2.13324 2.9326l-1.79607 2.4721 1.61803 1.1756 1.79519-2.4709c1.03817.5916 2.2055.9825 3.4492 1.12V24h2v-3.0549c1.2437-.1375 2.4111-.5284 3.4492-1.12l1.7952 2.4709 1.6181-1.1756-1.7961-2.4721c.8957-.8177 1.6255-1.814 2.1332-2.9326l2.9041.9436.618-1.9022-2.9045-.9437C20.9371 13.2277 21 12.6212 21 12s-.0629-1.2277-.1828-1.8134l2.9045-.94375-.618-1.90211-2.9041.94359c-.5077-1.11858-1.2375-2.11491-2.1332-2.93266l1.7961-2.47209-1.6181-1.17557-1.7952 2.47087C15.4111 3.58333 14.2437 3.19241 13 3.05493V0h-2v3.05493c-1.2437.13748-2.41103.5284-3.4492 1.11995L5.75561 1.70401 4.13758 2.87958l1.79607 2.47209zM12 19c-3.86598 0-6.99998-3.134-6.99998-7 0-3.86599 3.134-7 6.99998-7 3.866 0 7 3.13401 7 7 0 3.866-3.134 7-7 7zm4-7c0 2.2091-1.7908 4-4 4-2.20912 0-3.99998-1.7909-3.99998-4 0-2.20914 1.79086-4 3.99998-4 2.2092 0 4 1.79086 4 4zm-6 0c0 1.1046.8954 2 2 2s2-.8954 2-2-.8954-2-2-2-2 .8954-2 2z"/></svg>