<svg xmlns="http://www.w3.org/2000/svg" viewBox="0 0 15 15">
  <path d="M4.47 3h5.74a3 3 0 0 1 2.98 2.65l.49 4.1c.11.97-.57 1.86-1.55 2l-.18.03a2 2 0 0 1-2.14-1.26l-.27-.69a15.35 15.35 0 0 1-4.4.02l-.26.67a2 2 0 0 1-2.15 1.25l-.17-.02a1.81 1.81 0 0 1-1.55-2l.49-4.1A3 3 0 0 1 4.46 3zm5.75 1H4.46A2 2 0 0 0 2.5 5.77L2 9.87c-.06.43.25.83.69.89l.18.03a1 1 0 0 0 1.07-.63l.55-1.41.79.1a14.22 14.22 0 0 0 4.1 0l.8-.12.55 1.43a1 1 0 0 0 1.07.63l.18-.03a.81.81 0 0 0 .7-.9l-.49-4.1A2 2 0 0 0 10.22 4zM9.5 7.9a1.4 1.4 0 1 1 0-2.8 1.4 1.4 0 0 1 0 2.8zm0-.8a.6.6 0 1 0 0-1.2.6.6 0 0 0 0 1.2zm-5.1-1h2.2a.4.4 0 1 1 0 .8H4.4a.4.4 0 1 1 0-.8zM5.5 5c.22 0 .4.18.4.4v2.2a.4.4 0 1 1-.8 0V5.4c0-.22.18-.4.4-.4z"/>
</svg>
