<svg viewBox="0 0 24 24" xmlns="http://www.w3.org/2000/svg"><path fill="currentColor" fill-rule="evenodd" clip-rule="evenodd" d="M10.0793 0L7.27934 4l2.79996 4h2.4414l-2.1-3H12c4.4183 0 8 3.58172 8 8 0 4.4183-3.5817 8-8 8-4.41828 0-8-3.5817-8-8 0-2.0951.80822-4.05899 2.22376-5.53499L5.01091 5.84788C3.10002 7.71514 2 10.2709 2 13c0 5.5228 4.47715 10 10 10 5.5228 0 10-4.4772 10-10 0-5.52285-4.4772-10-10-10h-1.5793l2.1-3h-2.4414zM8.67529 16.2v-5.0493h-.0791l-1.55566 1.0722v-1.2348l1.63916-1.12941h1.32271V16.2H8.67529zm3.12011-1.8018c.0396 1.1338.98 1.9644 2.3599 1.9644 1.4546 0 2.4258-.9185 2.4258-2.2632 0-1.2436-.8526-2.1269-2.0567-2.1269-.6284 0-1.0766.2329-1.3447.6196h-.0791l.1406-1.6304h2.9575V9.85869h-3.9858l-.3164 3.67821h1.1865c.2197-.3559.5933-.5713 1.0855-.5713.6723 0 1.1469.4658 1.1469 1.1646 0 .6899-.4702 1.1469-1.1513 1.1469-.6021 0-1.0679-.3515-1.1426-.8789h-1.2261z"/></svg>