<svg viewBox="0 0 24 24" xmlns="http://www.w3.org/2000/svg"><path fill="currentColor" fill-rule="evenodd" clip-rule="evenodd" d="M20.3357 7.02104c.1798-.26959.1069-.63383-.1627-.81357C18.0743 4.8082 15.1229 4.01624 12 4.01624c-3.1229 0-6.0743.79196-8.17303 2.19123-.26958.17974-.34241.54398-.16267.81357.17973.26958.54398.34241.81356.16268C6.37198 5.92086 9.09728 5.18957 12 5.18957c2.9027 0 5.628.73129 7.5222 1.99415.2695.17973.6338.1069.8135-.16268zM19.3333 19.3333c0-.405-.3283-.7333-.7333-.7333H5.40001c-.40501 0-.73334.3283-.73334.7333 0 .405.32833.7334.73334.7334H18.6c.405 0 .7333-.3284.7333-.7334zm-2.6483-5.3377c.2696.1796.3427.5438.1631.8135-.1796.2696-.5439.3426-.8135.163-1.0069-.6706-2.4708-1.063-4.0346-1.063s-3.0277.3924-4.03456 1.063c-.26967.1796-.63388.1066-.81349-.163-.17961-.2697-.10659-.6339.16308-.8135C8.52641 13.1888 10.2162 12.7358 12 12.7358c1.7838 0 3.4736.453 4.685 1.2598zm1.9141-3.1702c.1736-.2736.0924-.6361-.1812-.8097C16.765 8.96729 14.4488 8.37599 12 8.37599c-2.44876 0-4.76498.5913-6.41791 1.63971-.27361.1736-.35472.5361-.18117.8097.17355.2736.53604.3547.80965.1812C7.66318 10.0852 9.76218 9.54932 12 9.54932c2.2378 0 4.3368.53588 5.7895 1.45728.2736.1735.6361.0924.8096-.1812z"/></svg>