<svg xmlns="http://www.w3.org/2000/svg" viewBox="0 0 26 26"><path fill="#00B8F1" d="M13 25.5C6.096 25.5.5 19.904.5 13S6.096.5 13 .5 25.5 6.096 25.5 13 19.904 25.5 13 25.5z"/><path fill="#FFF" d="M20.55 16.902h.006c.368.394.861.253.861.253l-.003 1.634h-1.196l-.042.003-.044-.003h-.044a1.01 1.01 0 0 1-.62-.282l-2.328-2.848h-.806c-.549 0-1.01.46-1.01 1.01v2.123h-2.02v-7.48a3.038 3.038 0 0 1 3.029-3.032h1.784c1.01 0 1.981.29 2.736.913.757.614 1.235 1.594 1.225 2.685.005 1.051-.372 2.027-1.064 2.715-.43.434-.975.743-1.578.912 0 0 .684.932 1.115 1.397zm-8.557-8.294h-.001v6.615c-.007 2.696-1.941 3.55-2.676 3.98l-1.267-1.534.029-.017-.03-.034c.408-.204 1.925-.981 1.925-2.174v-.9c-.21.424-1.289.904-2.024.917h-.08c-1.095-.018-2.097-.404-2.828-1.093-.806-.76-1.234-1.814-1.234-3.047V8.6h1.97l.003 2.72c0 1.578 1.092 2.155 2.129 2.169.909-.012 2.047-.406 2.084-1.622v-3.26h2zm6.306 5.03l-.002-.001c.592 0 .997-.19 1.284-.473.282-.287.471-.693.476-1.284-.01-.55-.185-.865-.495-1.132-.314-.262-.817-.447-1.445-.447h-1.783a1.024 1.024 0 0 0-1.01 1.01v2.584c.318-.111.656-.256 1.01-.256H18.3z"/></svg>
