<svg xmlns="http://www.w3.org/2000/svg" viewBox="0 0 60 14">
    <path fill="currentColor" d="M37.63 2.494h3.87v10.508h1.774V2.494h3.851V1.008h-9.493v1.486Zm18.819-1.486-2.517 7.466a59.725 59.725 0 0 0-.752 2.5l-.177.64a92.678 92.678 0 0 0-.567-1.983 24.978 24.978 0 0 0-.397-1.224l-2.466-7.399h-1.892L51.837 13h2.196l4.172-11.993H56.45Zm-36.195.102a2.309 2.309 0 0 0-1.2-.322 2.353 2.353 0 0 0-1.207.321c-.36.208-.659.505-.87.862a2.309 2.309 0 0 0-.321 1.2 2.383 2.383 0 0 0 2.399 2.399c.421.004.836-.107 1.2-.322a2.406 2.406 0 0 0 1.181-2.078 2.309 2.309 0 0 0-.32-1.2 2.436 2.436 0 0 0-.862-.86Zm-4.172-.102h-3.936v11.994h3.936V1.008Zm-7.61.549a2.275 2.275 0 0 0-1.512-.55H4.544l2.703 11.995h4.308L9.29 2.916a2.37 2.37 0 0 0-.82-1.36Zm-4.536-.549H0v11.994h3.936V1.008Zm22.044 0h-3.935v11.994h3.936V1.008Zm8.295 0H29.95a321.822 321.822 0 0 0-1.436 2.356 164.579 164.579 0 0 1-1.368 2.23c-.18.287-.304.487-.372.6-.16.242-.253.521-.27.81.021.302.12.594.288.845.067.102.188.299.363.592.174.292.383.633.625 1.022.242.388.487.788.735 1.199.248.41.481.794.7 1.149l.736 1.19h4.324c-.315-.517-.597-.982-.845-1.393a277.024 277.024 0 0 0-1.596-2.618 80.36 80.36 0 0 1-.616-1.014 9.14 9.14 0 0 0-.254-.414 1.028 1.028 0 0 1-.203-.557c.007-.192.066-.379.17-.54l3.344-5.457Z"/>
</svg>