<svg viewBox="0 0 24 24" xmlns="http://www.w3.org/2000/svg"><path d="M6.894 18.21a4.795 4.795 0 004.79 4.79c1.325 0 2.61-.548 3.524-1.505a4.485 4.485 0 001.265-3.321c-.005-.113-.01-.211-.024-.428l-.006-.1c-.14-2.31.097-3.512 1.444-5.168 1.212-1.492 1.469-2.444 1.447-4.056l-.002-.256C19.332 4.215 16.117 1 12.166 1 8.215 1 5 4.215 5 8.166a.8.8 0 101.599 0A5.573 5.573 0 0112.166 2.6a5.573 5.573 0 015.567 5.567l.002.277.003.203c.005 1.06-.215 1.744-1.092 2.823-1.637 2.014-1.961 3.611-1.802 6.227l.005.08c.015.24.02.346.026.47.036.79-.256 1.55-.823 2.145a3.29 3.29 0 01-2.369 1.01 3.195 3.195 0 01-3.19-3.19.8.8 0 10-1.6 0zm5.204-.866a.63.63 0 01-.817.357c-1.483-.58-2.156-2.017-1.64-3.499.042-.123.09-.245.143-.37.052-.123.091-.208.194-.423.102-.213.137-.294.173-.399.198-.58-.008-1.152-.87-2.46-.531-.805-.69-1.308-.69-2.108a3.581 3.581 0 013.577-3.578 3.581 3.581 0 013.577 3.578.63.63 0 11-1.26 0 2.32 2.32 0 00-2.317-2.317A2.32 2.32 0 009.85 8.442c0 .117 0 .163.004.222.018.372.144.686.478 1.193 1.281 1.943 1.425 2.752.782 4.096l-.027.057-.027.057c-.105.222-.17.378-.23.549-.298.857.07 1.583.91 1.911a.63.63 0 01.357.817z"/></svg>
