<svg xmlns="http://www.w3.org/2000/svg" style="width:6.5em;height:2.6em" viewBox="0 0 65 26">
  <path d="M31.0878023 13.55918018c-.2517074-.42642875-.2661333-.68861697-.02338-1.10029556L34.399462 7h-4.6267395s-2.7797248 4.54205453-3.1597731 5.17316245c-.3764003.63027925-.3601505 1.02273292.0154208 1.67041405C27.0084185 14.49042897 29.7727225 19 29.7727225 19h4.6267395s-3.2751804-5.37353258-3.3116597-5.44081982M21.5941377 19h4.2077247V7h-4.2077247zM18.9405537 6.77010873c-1.3163763 0-2.3817762 1.07539896-2.3817762 2.40310754 0 1.32687533 1.0653999 2.40560731 2.3817762 2.40560731 1.3185428 0 2.3884423-1.07873198 2.3884423-2.40560731 0-1.32770858-1.0698995-2.40310754-2.3884423-2.40310754M12.0635332 19h4.2052375V7h-4.2052375zM0 19h4.19744416V7H0zM9.50872938 8.92796177C9.29333553 7.82832914 8.33144197 7 7.17852938 7H4.47507953l2.71654925 12h4.56969912L9.50872938 8.92796177z"/>
  <path d="M39 0h26v26H39V0zm14.6706438 8.54387273h-2.6756152s1.5187671 2.49465577 1.5381556 2.52696997c.1163311.200348.1227939.316679.0129257.5105642l-1.5510813 2.5398956h2.6756152s1.2925677-2.1133482 1.4670644-2.404176c.1744966-.2908277.1680338-.47825-.0064629-.7755406-.1874223-.323142-.1938851-.323142-1.4606015-2.39771317zm8.3823018 1.43475019c-.0904798-.15510813-.8854089-1.43475019-.8854089-1.43475019h-5.7325379l1.2537907 2.10042257h3.0181456l-1.2473278 2.042257 1.3895103 2.3330848-1.3378076 2.203828h2.4494158c.3942332-.6462839.9823515-1.641561 1.1051454-1.841909.1744967-.2972906.1680338-.4782501-.0064628-.7820035-.1227939-.2068109-.7755406-1.2473279-1.1697738-1.8871489 0 0 1.0534427-1.7449665 1.1762366-1.9517773.1744967-.2972906.161571-.4782501-.0129256-.78200348zm-5.5128014 3.01814568c-.3748447.6139697-1.0082029 1.6480238-1.124534 1.8483718-.1680338.2908278-.1744966.4653244-.0064628.7496893.1163311.1938852.7561521 1.2344022 1.1309968 1.8548347.3813075-.6204325 1.0146656-1.6609495 1.1309967-1.8548347.1680338-.2843649.161571-.4588615-.0064628-.7496893-.1163311-.200348-.7432264-1.2279393-1.1245339-1.8483718zm-7.613224-4.45289587c-.2455879 0-.4847129.05816555-.7820035.23912503-.1938851.12279394-1.803132 1.48645294-1.9259259 1.58985834-.1227939-.1034054-1.7255779-1.4670644-1.9259259-1.58985834-.2972906-.18095948-.5364156-.23912503-.7820035-.23912503H41.804872v7.64553817l2.3718618-1.7837435V11.335819l2.042257 1.5381556 2.042257-1.5381556v5.8811832h2.3847875V8.54387273h-1.7191151z"/>
</svg>
