<svg viewBox="0 0 24 24" xmlns="http://www.w3.org/2000/svg"><path fill="currentColor" fill-rule="evenodd" clip-rule="evenodd" d="M23 12c0 6.075-4.925 11-11 11S1 18.075 1 12 5.925 1 12 1s11 4.925 11 11ZM6 9.264v5.382h1.74V10.91c.191-.091.386-.162.583-.21.198-.057.386-.085.563-.085.58 0 .87.32.87.96v3.071h1.75v-3.525c0-.717-.15-1.249-.45-1.593-.3-.345-.743-.517-1.33-.517-.39 0-.748.077-1.075.232a3.057 3.057 0 0 0-.911.644V9L6 9.264Zm7.026 4.78c.307.346.754.518 1.34.518.383 0 .727-.07 1.034-.211.307-.148.59-.359.85-.633v.527c0 .472-.116.824-.348 1.056-.232.239-.625.359-1.177.359-.341 0-.693-.043-1.054-.127a6.255 6.255 0 0 1-.983-.317l.164 1.383c.197.098.48.19.85.274.368.085.79.127 1.268.127.614 0 1.147-.113 1.597-.338a2.494 2.494 0 0 0 1.054-.939c.253-.394.379-.855.379-1.383V9l-1.74.264v3.451a2.785 2.785 0 0 1-.532.211 2.337 2.337 0 0 1-.543.063c-.566 0-.85-.316-.85-.95V9l-1.76.264v3.187c0 .718.15 1.25.45 1.594Z"/></svg>