<svg viewBox="0 0 24 24" xmlns="http://www.w3.org/2000/svg"><path fill="currentColor" fill-rule="evenodd" clip-rule="evenodd" d="M6.40551 5.97005c-.31194.69956-.4048 1.61424-.37136 2.86295.00849.31687.02314.61753.04943 1.05095-.05798-.02192-.1196-.04802-.18459-.07849-.18843-.08828-.3948-.13049-.60995-.13049-.74101 0-1.50007.48713-1.64061 1.22763-.14489.7613.35321 1.4205 1.40334 1.8353.08856.035.16057.059.32609.1113.16939.0538.24999.0809.34284.1171.07166.028.13015.0547.17454.075.04908.0225.0809.037.09419.0366-.00642.0054-.01465.0231-.02899.0538-.008.0172-.0179.0384-.03046.0639 0 0-.01294.0269-.02701.0591-.52144 1.2136-1.62801 2.5174-3.28641 2.7904-.56346.093-.96601.5952-.93488 1.1648.00837.146.04192.2871.09859.4208.3043.7115 1.15502 1.1099 2.62594 1.3806.04755.2174.07387.3267.11687.4729.14464.4928.54934.8559 1.15657.8559.1682 0 .28419-.0179.57237-.0745.03894-.0076.05881-.0115.0787-.0153.02072-.0039.04146-.0078.08381-.0157.26002-.0474.47944-.0715.72208-.0715.19891 0 .4065.0175.61598.0522.26145.0436.48538.1691 1.07733.5876 1.18348.8368 1.88848 1.1631 3.05128 1.1631.0341-.0004.0519-.0005.0698-.0011.0197-.0007.0394-.0018.0808-.0043-.0028.0011-.0049.0019-.0048.0025.0001.0018.0187.002.0918.0029 1.163 0 1.8681-.3264 3.0511-1.163.3154-.2228.4441-.3095.5953-.3964.1874-.1075.3394-.1674.483-.1913.2088-.0347.4164-.0522.6154-.0522.3007 0 .5492.0297.8854.0953.2227.0436.411.0669.5935.067.5435 0 .983-.3292 1.1352-.8509.0421-.1429.0719-.2652.1158-.465 1.471-.2705 2.3213-.6678 2.6247-1.3757.0577-.134.0919-.2773.1001-.4232.0319-.5704-.3712-1.0729-.9347-1.1656-1.6592-.2735-2.7666-1.5785-3.2888-2.7959-.0042-.0097-.0068-.0157-.0095-.0217-.0044-.0097-.0091-.0193-.0215-.0445-.0076-.0153-.0141-.0291-.0197-.041-.0172-.0362-.0267-.0564-.0355-.0581.0534-.0271.2615-.1228.614-.2346.1669-.053.2378-.0766.3255-.1113.8992-.3551 1.44-.8779 1.426-1.6214-.0121-.6132-.4412-1.1086-1.051-1.33055-.1889-.0783-.4238-.12309-.655-.12309-.2248 0-.4519.03905-.6727.14239a2.895415 2.895415 0 01-.0767.03459c.1171-2.01396.0727-2.9818-.3242-3.87159-1.1369-2.54908-3.2659-3.48827-5.4096-3.48827-.0266-.00001-.0266-.00001-.0624.00049l-.1581.00148-.1586.00139c-2.13839 0-4.26386.93886-5.40029 3.48671zM18.6681 11.1029c.0462 0 .0944.0092.1452.0299.0089.0031.0171.0062.0247.0089.0297.0109.0504.0185.0644.0195-.0564.0361-.1958.1239-.4831.2373-.0453.0179-.0994.036-.2323.0782-.8766.278-1.2746.4793-1.5179 1.0526-.1713.4044-.1146.8454.1061 1.2962.6266 1.4549 1.8093 2.92 3.6842 3.4813-.3288.1177-.842.248-1.5394.3562-.1872.0291-.3554.1307-.4681.283h-.0001c-.0457.0668-.0457.0668-.0737.1187-.0609.1169-.0985.2395-.1412.4156-.0141.06-.0203.0865-.0263.1131-.0047.0211-.0093.0423-.0176.0803-.0168.0769-.0308.1391-.0438.1935-.0374-.0059-.0788-.0132-.124-.022-.4199-.082-.7554-.1221-1.1615-.1221-.279 0-.5654.0242-.8515.0717-.3309.055-.6385.1762-.9639.363-.2043.1173-.3556.2192-.7095.4692-.9581.6775-1.4364.899-2.22.899-.0299-.0004-.0442-.0005-.0585-.0009-.013-.0003-.026-.0009-.0509-.0018-.1025.0024-.1027.0024-.1281.0027h-.0001c-.7834 0-1.2618-.2214-2.21996-.8989-.77459-.5477-1.11747-.7397-1.67247-.8323-.28709-.0476-.57341-.0717-.85216-.0717-.34014 0-.64175.0332-.98032.0949-.05241.0097-.07664.0143-.10084.0189-.0208.004-.04159.008-.08025.0156-.04854.0095-.08921.0173-.12348.0236-.01254-.0535-.02662-.1167-.04447-.1987-.00837-.0383-.01303-.0596-.01783-.0809-.00603-.0268-.01229-.0535-.0264-.1137-.04275-.1762-.08034-.2988-.14105-.4158-.01178-.0218-.01859-.0345-.02596-.0468-.0101-.0169-.02124-.0332-.04766-.0718-.11275-.1526-.28118-.2545-.46867-.2836-.69869-.1085-1.21228-.2391-1.54089-.3571 1.87649-.5606 3.05924-2.0269 3.68744-3.485.21889-.4441.27712-.8874.10469-1.2936-.18798-.4428-.55864-.6984-1.08721-.9044-.13055-.0509-.23183-.085-.43088-.1482-.13199-.0417-.18614-.0598-.23172-.0778-.26557-.1049-.39533-.1692-.45862-.2005-.03187-.0158-.04688-.0233-.05389-.0233.0077-.001.02296-.0072.0432-.0155.04444-.0181.11286-.046.17765-.0493.4219.1976.81813.3034 1.1869.3034.28175 0 .52517-.0625.72206-.1714.2421-.134.38602-.3948.37026-.671-.00658-.113-.00658-.113-.01354-.2263l-.00692-.1107-.00848-.1347-.00907-.14472c-.0316-.50674-.04809-.82702-.05702-1.16024-.02803-1.0467.04747-1.79037.24702-2.23788.86038-1.92896 2.45474-2.63322 4.08514-2.63322.0181-.00012.0305-.0002.0429-.00029.0269-.0002.0538-.00046.1392-.00126l.1978-.00181c1.6349 0 3.233.70493 4.0937 2.63482.2815.6312.3053 1.57172.1808 3.5456l-.0034.057c-.0132.2096-.0132.2098-.0251.4128l-.0001.0007c-.0157.2765.1286.5375.3711.6713.176.0971.3905.1576.6369.169.4098-.0153.7773-.1195 1.1665-.3019.0038-.0018.031-.0064.062-.0064zm-13.60102.0721c.00046-.0001.00096-.0001.00152-.0001-.00055 0-.00105.0001-.00152.0001zm13.83532-.0138c.012.0008.0192-.0033.0229-.0145-.0044.0026-.0106.0065-.0186.0117a.30012.30012 0 00-.0043.0028z"/></svg>