<svg viewBox="0 0 24 24" xmlns="http://www.w3.org/2000/svg"><path fill="currentColor" d="M6.406 5.97c-.312.7-.405 1.614-.372 2.863.009.317.023.618.05 1.051a2.614 2.614 0 01-.185-.079 1.428 1.428 0 00-.61-.13c-.741 0-1.5.487-1.64 1.228-.145.76.353 1.42 1.403 1.835.088.035.16.059.326.111.17.054.25.081.343.117.071.028.13.055.174.075a.37.37 0 00.094.037c-.006.005-.014.023-.029.054a3.035 3.035 0 01-.03.064l-.027.059c-.521 1.213-1.628 2.517-3.286 2.79a1.119 1.119 0 00-.935 1.165c.008.146.042.287.098.42.305.712 1.155 1.11 2.626 1.381.048.218.074.327.117.473.145.493.55.856 1.157.856.168 0 .284-.018.572-.074l.079-.016.084-.015c.26-.048.479-.072.722-.072.199 0 .406.018.616.052.261.044.485.17 1.077.588 1.183.837 1.888 1.163 3.051 1.163l.07-.001.08-.004-.004.002c0 .002.019.002.092.003 1.163 0 1.868-.326 3.05-1.163.316-.223.445-.31.596-.396.188-.108.34-.168.483-.192.209-.034.417-.052.616-.052.3 0 .549.03.885.095.223.044.411.067.594.067.543 0 .983-.329 1.135-.85a6.33 6.33 0 00.115-.466c1.471-.27 2.322-.667 2.625-1.375.058-.134.092-.277.1-.423a1.118 1.118 0 00-.934-1.166c-1.66-.274-2.767-1.579-3.29-2.796a1.677 1.677 0 00-.05-.107c-.017-.036-.027-.056-.035-.058.053-.027.261-.123.614-.235.166-.053.237-.076.325-.111.9-.355 1.44-.878 1.426-1.621-.012-.614-.441-1.11-1.05-1.331a1.761 1.761 0 00-.656-.123c-.225 0-.452.039-.673.142a2.895 2.895 0 01-.076.035c.117-2.014.072-2.982-.325-3.872-1.136-2.549-3.265-3.488-5.41-3.488h-.061l-.159.002-.158.001c-2.139 0-4.264.94-5.4 3.487zm12.262 5.133c.046 0 .095.01.145.03l.025.009c.03.01.05.018.064.02a2.65 2.65 0 01-.483.236c-.045.018-.1.037-.232.079-.877.278-1.275.479-1.518 1.052-.171.405-.114.846.106 1.296.627 1.455 1.81 2.92 3.684 3.482-.328.117-.842.248-1.539.356a.72.72 0 00-.468.283c-.046.067-.046.067-.074.119-.06.117-.098.24-.141.415l-.026.113-.018.08c-.017.078-.03.14-.044.194a3.533 3.533 0 01-.124-.022 5.69 5.69 0 00-1.161-.122c-.28 0-.566.024-.852.072-.33.055-.638.176-.964.363-.204.117-.355.219-.71.469-.957.678-1.436.899-2.22.899h-.058l-.05-.003-.129.003c-.783 0-1.262-.221-2.22-.899-.774-.548-1.117-.74-1.672-.832a5.224 5.224 0 00-.852-.072 5.264 5.264 0 00-1.082.114 17.215 17.215 0 00-.203.04 13.104 13.104 0 01-.063-.28l-.026-.114a1.777 1.777 0 00-.141-.416l-.026-.047a.72.72 0 00-.516-.355c-.699-.109-1.213-.24-1.541-.357 1.876-.56 3.059-2.027 3.687-3.485.22-.444.277-.888.105-1.294-.188-.443-.559-.698-1.087-.904a6.418 6.418 0 00-.431-.149 3.658 3.658 0 01-.232-.077c-.265-.105-.395-.17-.459-.2-.031-.017-.046-.024-.053-.024a.252.252 0 00.043-.016c.044-.018.113-.046.177-.049.422.198.819.304 1.187.304.282 0 .526-.063.722-.172a.72.72 0 00.37-.67l-.013-.227-.007-.11-.008-.136-.01-.144a31.443 31.443 0 01-.056-1.16c-.028-1.047.047-1.79.247-2.238.86-1.93 2.454-2.634 4.085-2.634h.043l.139-.001.198-.002c1.635 0 3.233.705 4.093 2.635.282.631.306 1.572.181 3.545l-.003.057-.025.413a.72.72 0 00.37.672c.177.097.391.158.638.17a2.93 2.93 0 001.166-.303.254.254 0 01.062-.006zm-13.6.072zm13.834-.014c.012.001.02-.003.023-.014a.554.554 0 00-.023.014z"/></svg>
