<svg xmlns="http://www.w3.org/2000/svg" viewBox="0 0 15 15"><path fill="currentColor" d="M7.5 1c3.77 0 5.6 2.44 5.5 7.32v3.35c0 3.1-2.57 2.61-2.57 1.36-.44 2.92-2.93 1.77-2.68-.24 0 .91-.48 2.01-1.5 2.01-.68 0-1.35-.42-1.35-1.77-.4 1.52-2.9 1.33-2.9-1.36V8.32C1.9 3.44 3.73 1 7.5 1zm1.75 7a1.5 1.5 0 1 0 0-3 1.5 1.5 0 0 0 0 3zM6 8a1.5 1.5 0 1 0 0-3 1.5 1.5 0 0 0 0 3zm1 3a1 1 0 1 0 0-2 1 1 0 0 0 0 2zm.59-1.43a.77.77 0 0 1-.6.25.7.7 0 0 1-.53-.18.8.8 0 0 1 .57-.27c.24 0 .52.07.56.2zM9.12 7.5a.25.25 0 1 1 0-.5.25.25 0 0 1 0 .5zm-2.87 0a.25.25 0 1 1 0-.5.25.25 0 0 1 0 .5z"/></svg>
