<svg viewBox="0 0 24 24" xmlns="http://www.w3.org/2000/svg"><path fill="currentColor" fill-rule="evenodd" clip-rule="evenodd" d="M12.9122 1l-.3951 1.47444L.915953 5.2833.522461 7.03277C3.19263 9.19214 6.68726 10.8444 11 12c4.3127 1.1556 8.1653 1.472 11.5574.937l.534-1.7118-8.6425-8.23312L14.9827 1h-2.0705zm3.2281 9.9909l-1.0809-4.65506 5.0743 4.83406c-1.2609.0546-2.5921-.0048-3.9934-.179zm-2.1329-.3432l-1.228-5.28844L9.07169 9.3252c.77952.26721 1.59481.51489 2.44591.7429.8512.2281 1.6811.4213 2.4898.5796zM7.05294 8.55597c-1.3007-.54981-2.48322-1.16392-3.5479-1.84176l6.81156-1.6492-3.26366 3.49096zm4.39536 5.63473L9.08783 23H7.01728l2.49916-9.327 1.93186.5177z"/></svg>