<svg xmlns="http://www.w3.org/2000/svg" style="width:14.6em;height:1.6em" viewBox="0 0 146 16">
    <path d="M136.9349497 1.9997237h1.2796193v5.2502895h2.327328l3.091303-5.2502895h1.429439l-3.40736 5.750415 4.006123 6.2505406H144.1981l-3.656203-5.6505957h-2.327328v5.6505957h-1.2796193V1.9997237m-10.1394727 0h1.2796196v5.2502895h2.3273277l3.0918157-5.2502895h1.4289258l-3.4073595 5.750415 4.006123 6.2505406h-1.463302l-3.656203-5.6505957h-2.3273277v5.6505957h-1.2796197V1.9997237m-4.2010933 12.0009556h1.2801328V1.9997237h-1.2801328m-9.8018667 9.4504696c1.080545.964076 2.2108587 1.5289762 3.47406 1.5289762 1.496139 0 2.6259397-.7803936 2.6259397-2.2103455 0-1.2626882-.581832-1.8281015-2.775759-2.4935654-2.609008-.7973252-3.6397844-1.5951635-3.6397844-3.3734963 0-2.0610394 1.6454453-3.2077716 3.8229537-3.2077716 1.5284632 0 2.8255277.5649002 3.8224407 1.7121455l-.7480696.7809067c-.8635122-.9804947-2.0107575-1.396602-3.0579523-1.396602-1.4130204 0-2.4930523.6649507-2.4930523 2.011271 0 1.37967 1.0307763 1.728564 3.0748842 2.426865 2.4432835.8311882 3.3237276 1.644932 3.3237276 3.423778 0 2.110295-1.5951634 3.424291-3.9886783 3.424291-1.695727 0-3.1744216-.731651-4.1718477-1.7957775l.731138-.8306753M102.7654086 1.909997v7.3796194c0 2.4761206 1.2129194 3.6397844 3.2077717 3.6397844 2.2601142 0 3.0913027-1.2801328 3.0913027-3.6397844V1.909997h1.2632012v7.5289255c0 3.0753972-1.4961392 4.6377236-4.4047857 4.6377236-2.6587768 0-4.4376227-1.4458572-4.4376227-4.6377234V1.909997h1.2801328m-4.639776 12.0906823l-1.0143577-9.851239-3.4566154 9.851239h-1.0636133l-3.4242912-9.851239-.996913 9.851239h-1.230364l1.197014-12.0009556h1.5125578L93.139015 12.133441l3.5238286-10.1337173h1.462789l1.2129195 12.0009556h-1.2129193M77.3366862 1.9997237h7.4796698v1.14998h-6.199537v4.133754h5.6505422V8.433438H78.616819v4.4337262h6.3319114v1.133515h-7.6120442V1.9997238m-10.3867772 0h1.280133V7.250013h2.3273276l3.0913027-5.2502895h1.4289258l-3.4068463 5.750415 4.005097 6.2505406h-1.462276l-3.656203-5.6505957H68.230042v5.6505957h-1.280133V1.9997237m-7.1528382 0v10.850461h5.584355v1.1504946H58.516938V1.9997237h1.2801328m-8.2882828 10.929677c2.4099335 0 3.9886784-1.645445 3.9886784-5.1687606 0-3.1749344-1.6126082-4.88708-3.9886783-4.88708-2.4771466 0-4.0558916 1.7454958-4.0558916 4.88708 0 3.4899655 1.6126082 5.168761 4.0558918 5.168761zm.0492557-11.23541c3.0584656 0 5.2857428 2.077458 5.2857428 6.0666494 0 4.3878543-2.2939775 6.316006-5.3688617 6.316006-3.1077212 0-5.384767-1.960989-5.384767-6.316006 0-3.9891912 2.2939774-6.0666492 5.467886-6.0666492zm-13.2179487.305733h7.1138444v1.14998H39.620228v4.2001288h5.152342V8.483862h-5.152342v5.5168173h-1.280133V1.9997237M31.0878023 8.5591802c-.2517074-.4264288-.2661333-.688617-.02338-1.1002956L34.399462 2h-4.6267395s-2.7797248 4.5420545-3.159773 5.1731625c-.3764004.6302792-.3601506 1.022733.0154207 1.670414C27.0084185 9.490429 29.7727225 14 29.7727225 14h4.6267395s-3.2751804-5.3735326-3.3116597-5.4408198M21.5941377 14h4.2077247V2h-4.2077247m-2.653584-.2298913c-1.3163763 0-2.3817762 1.075399-2.3817762 2.4031076 0 1.3268753 1.0654 2.4056073 2.3817762 2.4056073 1.3185428 0 2.3884423-1.078732 2.3884423-2.4056073 0-1.3277086-1.0698995-2.4031076-2.3884423-2.4031076M12.0635332 14h4.2052375V2h-4.2052375M0 14h4.1974442V2H0m9.5087294 1.9279618C9.2933354 2.828329 8.331442 2 7.1785294 2h-2.70345L7.191629 14h4.569699L9.5087295 3.9279618z"/>
</svg>
