<svg xmlns="http://www.w3.org/2000/svg" viewBox="0 0 15 15">
<path fill="none" stroke="currentColor" stroke-width=".8" d="M7.5 8.5c1.9056893 0 3.6326402 1.2657944 4.5 2.9437362C11.1326402 13.1216782 9.4056893 14 7.5 14c-1.9056893 0-3.6326402-.878322-4.5-2.5562638C3.8673598 9.7657944 5.5943107 8.5 7.5 8.5z"/>
<path fill="currentColor" d="M7.4998662 12.75C6.6716338 12.75 6 12.078426 6 11.25s.6716338-1.5 1.4998662-1.5C8.3283662 9.75 9 10.421574 9 11.25s-.6716338 1.5-1.5001338 1.5z"/>
<path fill="none" stroke="currentColor" stroke-width=".8" d="M12 2.2C10.8646203 1.443014 9.241604 1 7.5 1 5.758396 1 4.1353797 1.443014 3 2.2m7 4.465962C9.3692335 6.2458588 8.4675578 6 7.5 6s-1.8692335.2458588-2.5.665962m6-2.2780126C10.116927 3.8278117 8.854581 3.5 7.5 3.5s-2.616927.3278117-3.5.8879494" stroke-linecap="round"/>
</svg>
