<svg viewBox="0 0 15 15" xmlns="http://www.w3.org/2000/svg">
  <g fill="currentColor" fill-rule="evenodd">
    <path d="M2 7.25a5.6 5.6 0 0 0 .15 1.52l.8.23c.1.03 0 .41.14.5.2.11.82.08.95.35.13.3-.3.84-.67 1.28a5.49 5.49 0 0 0 6.65 1.26l.55.55a6.25 6.25 0 0 1-9.32-5.3 6.37 6.37 0 0 1 .8-3.21l.56.55-.27.6c.4 0 .84.61.73.91-.1.27-.5.07-.72.23-.19.13-.22.36-.34.53zM12.62 8.92c-.15-.05-.13-.2-.4-.8-.14-.28-.27-.23-.48-.1-.33.2-.26.72-.56.69-.3-.04-.29-.52-.37-.67-.08-.16-.14-.25-.38-.28-.07-.01-.14.02-.22.08L7.1 4.75l.19-.2c.3-.27-.23-.68-.43-.66-.2.02-.33.1-.4.2l-.5-.5c.2-.3.52-.54.95-.51 1.6.1 1.94.79 2.28.7.17-.05.9-.26 1.42-.8a5.47 5.47 0 0 0-5.64-.37l-.55-.55a6.25 6.25 0 0 1 8.52 8.52l-.56-.56c.2-.37.34-.77.45-1.18-.06.07-.13.11-.22.08z"/>
    <path d="M5.52 7.9l3 2.99c-.12.25-.24.46-.32.6-.14.26-.28.53-.47.67-.18.13-.3.26-.53.05-.24-.2-.4-.82-.41-1.1-.03-.26.29-.36.14-.45-.15-.09-.35-.4-.3-.6.03-.08.18-.56-.25-.52-.07 0-.28.07-.4.1-.14.01-.28.06-.4.04-.12-.03-.52-.41-.56-.52a.92.92 0 0 1 .01-.58c.07-.18.27-.3.37-.45.06-.08.09-.16.12-.24z"/>
    <path d="M2.23 2.9a.47.47 0 1 1 .67-.67l9.87 9.87a.48.48 0 0 1-.67.67L2.23 2.9z" fill-rule="nonzero"/>
  </g>
</svg>
