<svg xmlns="http://www.w3.org/2000/svg" style="width:13.3em;height:2.0em" viewBox="0 0 133 20">
    <path d="M31.0878023 10.55918018c-.2517074-.42642875-.2661333-.68861697-.02338-1.10029556L34.399462 4h-4.6267395s-2.7797248 4.54205453-3.1597731 5.17316245c-.3764003.63027925-.3601505 1.02273292.0154208 1.67041405C27.0084185 11.49042897 29.7727225 16 29.7727225 16h4.6267395s-3.2751804-5.37353258-3.3116597-5.44081982M21.5941377 16h4.2077247V4h-4.2077247m-2.653584-.22989127c-1.3163763 0-2.3817762 1.07539896-2.3817762 2.40310754 0 1.32687533 1.0653999 2.4056073 2.3817762 2.4056073 1.3185428 0 2.3884423-1.07873197 2.3884423-2.4056073 0-1.32770858-1.0698995-2.40310754-2.3884423-2.40310754M12.0635332 16h4.2052375V4h-4.2052375M0 16h4.19744416V4H0m9.50872938 1.92796177C9.29333553 4.82832914 8.33144198 4 7.17852938 4H4.47507953l2.71654925 12h4.56969912L9.50872938 5.92796177zM123.1285725 4.0012659h1.2847938v5.24996787h2.3353806l3.1033743-5.24996786h1.4345836l-3.4199402 5.7498179 4.0211578 6.2501821h-1.4685565l-3.670619-5.6495393h-2.3353806v5.6495393h-1.2847938v-12m-6.757007-.5025131c.4843714 0 .7679938-.31677302.7679938-.79964615 0-.44996165-.2836224-.71685318-.7679938-.71685318-.4673849 0-.7510073.29928877-.7510073.7662204 0 .48390162.3006088.75027892.7510073.75027892zm2.0527877 7.9008123l-2.0527877-5.88395564-2.0522729 5.88395564h4.1050606zm-2.0527877-10.1511348c.900797 0 1.5684163.58366453 1.5684163 1.45067635 0 .66594325-.350024 1.14933062-.8838106 1.3663407l4.3701523 11.93298295h-1.3671525l-1.2688369-3.4325646h-4.8375372l-1.234864 3.4325646h-1.3841389l4.3207371-11.93298296c-.5178296-.2000401-.8343954-.66645748-.8343954-1.30000348 0-.88346756.6676193-1.51701357 1.5514298-1.51701357zm-13.4095214 3.8857261v4.9846154h2.2195638c2.0018283 0 3.052415-.90096422 3.052415-2.56713092 0-1.59982858-.8673389-2.41748447-2.8187225-2.41748447h-2.4532563zm2.4861997-1.1328905c2.8202667 0 4.0875594 1.33344762 4.0875594 3.45009643 0 1.50006428-.6171746 2.66740947-2.0183 3.33336187l2.702391 5.2165417h-1.4016402l-2.5515718-4.9162203c-.3850263.0833084-.7844655.1162203-1.2847939.1162203h-2.0198442v4.8h-1.2837644v-12h3.7699641zM92.4698307 5.1341564v5.00055712h2.268979c2.0018283 0 2.9700563-.89993572 2.9700563-2.5331905 0-1.633769-.8503523-2.4673666-2.8192372-2.4673666h-2.4197981zm-1.2837644-1.1328905h3.7864358c2.720407 0 4.0211578 1.34990358 4.0211578 3.56683095 0 2.2164131-1.3352385 3.66659525-4.2213921 3.66659525h-2.3024371v4.7665738h-1.2837644v-12zm-9.0911132 9.568904c1.0845596.9664229 2.2185343 1.5326984 3.4863417 1.5326984 1.5009852 0 2.6359894-.783322 2.6359894-2.2157264 0-1.2678193-.5837165-1.8346091-2.7857791-2.50169287-2.6190029-.7992662-3.6541473-1.59956105-3.6541473-3.38325164 0-2.06759983 1.6528338-3.21815226 3.8373952-3.21815226 1.5349581 0 2.8372531.56730412 3.8373952 1.71734223l-.7499779.78332202c-.8678535-.98339574-2.0188147-1.40000168-3.0704309-1.40000168-1.4175971 0-2.5021566.6665695-2.5021566 2.01719564 0 1.3840575 1.0341149 1.73380074 3.0863878 2.4343159 2.4517121.83269754 3.3365521 1.64945093 3.3365521 3.43314153 0 2.116461-1.6013597 3.4346844-4.0041713 3.4346844-1.702249 0-3.1862477-.7334322-4.1874192-1.8011777l.7340209-.8326976m-11.6120454-9.568904h1.2014058l6.4404412 9.6838226V4.0012659h1.2847939v12h-1.1689772l-6.4893415-9.69925005v9.69925005h-1.2683222v-12m-6.4064682 5.86831183h3.9202685v4.44996857c-1.3511955 1.5841312-3.1527895 1.8844989-4.4041252 1.8844989-3.9202685 0-5.4387548-2.7012523-5.4387548-6.26863344 0-3.6332152 1.9189549-6.1513666 5.4217684-6.1513666 3.2536787 0 4.3212518 1.75077356 4.3716965 3.5684098h-1.3182521c-.0329434-1.28427778-.9013117-2.3839117-3.1028596-2.3839117-2.686434 0-4.004686 2.19926785-4.004686 4.94989566 0 3.26804208 1.4350983 5.15151238 4.0880741 5.15151238 1.334209 0 2.4187686-.4670101 3.2526493-1.333139v-2.7676006h-2.7857791V9.86957773M49.1443138 4.0012659h7.5074995v1.14986073h-6.2227056V9.2851742h5.6729621v1.14986072h-5.6729621v4.43436898h6.3565383v1.131862h-7.6413322v-12m-6.65817663 1.14986073H38.6991866V4.0012659h8.85920976v1.14986073h-3.7709936V16.0012659h-1.3012656V5.15112663"/>
</svg>
