<svg viewBox="0 0 24 24" xmlns="http://www.w3.org/2000/svg"><path fill="currentColor" fill-rule="evenodd" clip-rule="evenodd" d="M12 1.73404c-2.78809 0-3.13765.01182-4.23262.06178-1.09273.04988-1.83896.22339-2.49199.47719-.67508.26235-1.24758.61338-1.8183 1.18409-.57071.57072-.92174 1.14322-1.18409 1.8183-.2538.65303-.42731 1.39926-.47719 2.49199C1.74585 8.86232 1.73407 9.21192 1.73407 12c0 2.7881.01178 3.1377.06174 4.2326.04988 1.0927.22339 1.839.47719 2.492.26235.675.61338 1.2476 1.18409 1.8183.57072.5707 1.14322.9217 1.8183 1.1841.65303.2538 1.39926.4273 2.49199.4772 1.09497.0499 1.44453.0617 4.23262.0617 2.7881 0 3.1377-.0118 4.2326-.0617 1.0927-.0499 1.839-.2234 2.492-.4772.6751-.2624 1.2476-.6134 1.8183-1.1841s.9217-1.1432 1.1841-1.8183c.2538-.653.4273-1.3993.4772-2.492.0499-1.0949.0618-1.4445.0618-4.2326 0-2.78808-.0119-3.13768-.0618-4.23261-.0499-1.09273-.2234-1.83896-.4772-2.49199-.2624-.67508-.6134-1.24758-1.1841-1.8183-.5707-.57071-1.1432-.92174-1.8183-1.18409-.653-.2538-1.3993-.42731-2.492-.47719-1.0949-.04996-1.4445-.06178-4.2326-.06178zm0 1.84977c2.7411 0 3.0658.01044 4.1483.05983 1.0009.04568 1.5445.21292 1.9063.35347.4791.18623.8211.40873 1.1804.76794.3592.35922.5817.70124.7679 1.18039.1406.36179.3078.90536.3535 1.90624.0494 1.08254.0598 1.4072.0598 4.14832 0 2.7412-.0104 3.0658-.0598 4.1483-.0457 1.0009-.2129 1.5445-.3535 1.9063-.1862.4791-.4087.8212-.7679 1.1804-.3593.3592-.7013.5817-1.1804.7679-.3618.1406-.9054.3078-1.9063.3535-1.0823.0494-1.407.0598-4.1483.0598-2.74131 0-3.06597-.0104-4.14831-.0598-1.00092-.0457-1.54449-.2129-1.90624-.3535-.47918-.1862-.8212-.4087-1.18042-.7679s-.58172-.7013-.76791-1.1804c-.14059-.3618-.30783-.9054-.35351-1.9062-.04939-1.0826-.05982-1.4072-.05982-4.1484 0-2.74112.01043-3.06578.05982-4.14828.04568-1.00092.21292-1.54449.35351-1.90628.18619-.47915.40869-.82117.76791-1.18039.35922-.35921.70124-.58171 1.18042-.76794.36175-.14055.90532-.30779 1.9062-.35347C8.93419 3.59425 9.25885 3.58381 12 3.58381zM6.72827 12c0-2.91148 2.36024-5.27172 5.27173-5.27172 2.9115 0 5.2717 2.36024 5.2717 5.27172 0 2.9115-2.3602 5.2717-5.2717 5.2717-2.91149 0-5.27173-2.3602-5.27173-5.2717zM12 15.422c-1.8899 0-3.42201-1.5321-3.42201-3.422 0-1.8899 1.53211-3.42201 3.42201-3.42201 1.8899 0 3.422 1.53211 3.422 3.42201 0 1.8899-1.5321 3.422-3.422 3.422zm5.48-7.67005c.6804 0 1.2319-.55156 1.2319-1.23193 0-.68037-.5515-1.23189-1.2319-1.23189s-1.232.55152-1.232 1.23189c0 .68037.5516 1.23193 1.232 1.23193z"/></svg>