<svg viewBox="0 0 24 24" xmlns="http://www.w3.org/2000/svg"><path fill="currentColor" fill-rule="evenodd" clip-rule="evenodd" d="M9.59224 8.2767l-.89873-1.38393 3.45979-2.24683.8988 1.38393L9.59224 8.2767zm-.48519 2.2827l-.89873-1.38397-.89874-1.38393-.89873-1.38392 1.38393-.89874 3.45982-2.24683 1.3839-.89873.8988 1.38393.8987 1.38392.8987 1.38393-1.3839.89873-3.4598 2.24683-1.38395.89878zm4.46955 4.0629l1.6978.865-.0997-1.9028-.1892-3.60985-.0997-1.90281-1.5981 1.03776-3.0316 1.9687-1.59798 1.0378 1.69778.865 3.2207 1.6412zm-.0997-1.9029l-.0894-1.707-1.4336.931 1.523.776zm4.2577-.755h2.4753v8.2507h-2.4753v-8.2507zm4.1254-1.6501v11.551h-5.7755v-11.551H21.86zm-13.65169.6981L4.44767 21.9341l-1.56024-.5372 3.76064-10.9217 1.56024.5372zm2.51319 9.2027c1.1392 0 2.0627-.9235 2.0627-2.0627 0-1.1391-.9235-2.0626-2.0627-2.0626-1.13915 0-2.06264.9235-2.06264 2.0626 0 1.1392.92349 2.0627 2.06264 2.0627zm3.7129-2.0627c0 2.0506-1.6623 3.7129-3.7129 3.7129-2.0505 0-3.71278-1.6623-3.71278-3.7129 0-2.0505 1.66228-3.7128 3.71278-3.7128 2.0506 0 3.7129 1.6623 3.7129 3.7128z"/></svg>