<svg viewBox="0 0 24 24" xmlns="http://www.w3.org/2000/svg"><path fill="currentColor" fill-rule="evenodd" clip-rule="evenodd" d="M10.0793 0L7.27934 4l2.79996 4h2.4414l-2.1-3H12c4.4183 0 8 3.58172 8 8 0 4.4183-3.5817 8-8 8-4.41828 0-8-3.5817-8-8 0-2.0951.80822-4.05899 2.22376-5.53499L5.01091 5.84788C3.10002 7.71514 2 10.2709 2 13c0 5.5228 4.47715 10 10 10 5.5228 0 10-4.4772 10-10 0-5.52285-4.4772-10-10-10h-1.5793l2.1-3h-2.4414z"/><path fill="currentColor" d="M8.11963 13.449h.78662c.71191 0 1.14695.3428 1.14695.8965 0 .5405-.4614.9141-1.12498.9141-.68115 0-1.13379-.3384-1.17334-.8745H6.48486c.05713 1.1953 1.01514 1.9775 2.43018 1.9775 1.44576 0 2.49166-.8042 2.49166-1.916 0-.835-.5449-1.4151-1.415-1.5117v-.0791c.7075-.1451 1.1689-.7163 1.1689-1.4502 0-.9976-.936-1.70951-2.23677-1.70951-1.38428 0-2.27637.75591-2.32031 1.95561h1.22607c.03516-.5494.44385-.8965 1.05908-.8965.61963 0 1.01514.3252 1.01514.8349 0 .5186-.40869.8702-1.01074.8702h-.77344v.9887zm6.86867 2.9136c1.5688 0 2.518-1.2437 2.518-3.3398 0-2.105-.9624-3.32671-2.518-3.32671-1.5601 0-2.5181 1.22171-2.5181 3.32231 0 2.1049.9492 3.3442 2.5181 3.3442zm0-1.0811c-.7251 0-1.1734-.7822-1.1734-2.2631 0-1.4722.4527-2.2369 1.1734-2.2369.7251 0 1.1733.7603 1.1733 2.2369 0 1.4853-.4438 2.2631-1.1733 2.2631z"/></svg>