<svg viewBox="0 0 24 24"  xmlns="http://www.w3.org/2000/svg"><path fill-rule="evenodd" clip-rule="evenodd" d="M1 12C1 18.0751 5.92487 23 12 23C18.0751 23 23 18.0751 23 12C23 5.92487 18.0751 1 12 1C5.92487 1 1 5.92487 1 12ZM4.58311 14.4531C4.58311 14.4531 3.77632 14.2368 3.24435 14.0764C3.08456 13.4098 3 12.7146 3 12L3.58248 10.7177L4.77139 10.3502L3.57104 8.86112C4.86424 5.43828 8.21137 3 12.1366 3C14.0646 3 15.8531 3.58825 17.3273 4.59247L14.9622 5.9119L11.1733 4.75945L9.71169 7.32577L11.0858 6.08876L11.8043 7.18142L10.1169 8.36078L8.56059 8.66069L8.62355 9.6034C8.62355 9.6034 8.16763 10.0555 8.16763 10.2626C8.16763 10.4495 8.72864 10.8187 8.72864 10.8187L9.97039 9.86172L11.1733 10.7177L11.4835 9.11735L12.5317 12.4216L11.7255 12.8242L10.8082 12.3843L10.5332 11.9673L9.59726 12.2742L9.02476 12.3917L8.65075 13.0314L8.03651 13.7704L8.02423 14.7109L8.95395 15.5596L9.59903 15.4863L10.2744 15.3394L10.7021 16.1945L11.1918 17.1715L10.9503 17.9226L11.6384 19.7119L12.5246 19.6203L13.3056 18.5212L14.245 15.1704L13.4332 13.5827L14.1487 12.7844L15.0463 13.7067L15.6636 13.3946L17.0088 12.4237L17.6353 12.8758L18.2438 13.9772L19.1824 12.8476L19.9621 13.0097L20.6379 14.323C20.6379 14.323 20.9103 14.3124 21 14.1934C20.0059 18.1038 16.4146 21 12.1366 21C9.39877 21 6.94217 19.8138 5.26763 17.9346L6.38311 15.8517L4.81588 15.2649L4.58311 14.4531Z" /><mask id="path-2-inside-1" ><path fill-rule="evenodd" clip-rule="evenodd" d="M12 21C16.9706 21 21 16.9706 21 12C21 7.02944 16.9706 3 12 3C7.02944 3 3 7.02944 3 12C3 16.9706 7.02944 21 12 21ZM23 12C23 18.0751 18.0751 23 12 23C5.92487 23 1 18.0751 1 12C1 5.92487 5.92487 1 12 1C18.0751 1 23 5.92487 23 12Z"/></mask><path fill-rule="evenodd" clip-rule="evenodd" d="M12 21C16.9706 21 21 16.9706 21 12C21 7.02944 16.9706 3 12 3C7.02944 3 3 7.02944 3 12C3 16.9706 7.02944 21 12 21ZM23 12C23 18.0751 18.0751 23 12 23C5.92487 23 1 18.0751 1 12C1 5.92487 5.92487 1 12 1C18.0751 1 23 5.92487 23 12Z" /><path d="M19 12C19 15.866 15.866 19 12 19V23C18.0751 23 23 18.0751 23 12H19ZM12 5C15.866 5 19 8.13401 19 12H23C23 5.92487 18.0751 1 12 1V5ZM5 12C5 8.13401 8.13401 5 12 5V1C5.92487 1 1 5.92487 1 12H5ZM12 19C8.13401 19 5 15.866 5 12H1C1 18.0751 5.92487 23 12 23V19ZM12 25C19.1797 25 25 19.1797 25 12H21C21 16.9706 16.9706 21 12 21V25ZM-1 12C-1 19.1797 4.8203 25 12 25V21C7.02944 21 3 16.9706 3 12H-1ZM12 -1C4.8203 -1 -1 4.8203 -1 12H3C3 7.02944 7.02944 3 12 3V-1ZM25 12C25 4.8203 19.1797 -1 12 -1V3C16.9706 3 21 7.02944 21 12H25Z"  mask="url(#path-2-inside-1)"/></svg>
