<svg viewBox="0 0 15 15" xmlns="http://www.w3.org/2000/svg">
  <path fill="currentColor" d="M11.39 8.77v-.8c.21 0 .4-.2.4-.47 0-.27-.19-.47-.4-.47v-.8c.67 0 1.2.57 1.2 1.27 0 .7-.53 1.27-1.2 1.27zM5.3 9H6a.5.5 0 0 1 .38.17l2.62 3V2.83l-2.62 3A.5.5 0 0 1 6 6h-.7v3zm-.6 0V6H3.5a.7.7 0 0 0-.28.07c-.15.08-.22.19-.22.43v2c0 .24.07.35.22.43.1.05.23.07.28.07h1.2zM10 6.29a1.4 1.4 0 0 1 0 2.42v4.79a.5.5 0 0 1-.88.33L5.77 10H3.5c-.2 0-.45-.04-.72-.18A1.4 1.4 0 0 1 2 8.5v-2c0-.63.3-1.08.78-1.32.27-.14.52-.18.72-.18h2.27l3.35-3.83a.5.5 0 0 1 .88.33v4.79z"/>
</svg>
