<svg viewBox="0 0 24 24" xmlns="http://www.w3.org/2000/svg"><mask id="a"><path fill-rule="evenodd" d="M6.047 4l1.528-3H9.82L8.291 4H23v16H1V4h5.047zM8.5 12a1.5 1.5 0 1 1-3 0 1.5 1.5 0 0 1 3 0zm4.5 0a2 2 0 1 0 4 0 2 2 0 0 0-4 0zm-2 0a4 4 0 1 0 8 0 4 4 0 0 0-8 0zM3 6h18v12H3V6z"/></mask><path fill-rule="evenodd" d="M6.047 4l1.528-3H9.82L8.291 4H23v16H1V4h5.047zM8.5 12a1.5 1.5 0 1 1-3 0 1.5 1.5 0 0 1 3 0zm4.5 0a2 2 0 1 0 4 0 2 2 0 0 0-4 0zm-2 0a4 4 0 1 0 8 0 4 4 0 0 0-8 0zM3 6h18v12H3V6z"/><path d="M6.047 4v2h1.225l.557-1.092L6.047 4zm1.528-3v-2H6.35L5.793.092 7.575 1zM9.82 1l1.782.908L13.084-1H9.82v2zM8.291 4L6.51 3.092 5.028 6H8.29V4zM23 4h2V2h-2v2zm0 16v2h2v-2h-2zM1 20h-2v2h2v-2zM1 4V2h-2v2h2zm20 2h2V4h-2v2zM3 6V4H1v2h2zm18 12v2h2v-2h-2zM3 18H1v2h2v-2zM7.829 4.908l1.528-3L5.793.092l-1.528 3 3.564 1.816zM7.575 3H9.82v-4H7.575v4zM8.038.092l-1.529 3 3.564 1.816 1.53-3L8.037.092zM23 2H8.291v4H23V2zm2 18V4h-4v16h4zM1 22h22v-4H1v4zM-1 4v16h4V4h-4zm7.047-2H1v4h5.047V2zM7 15.5a3.5 3.5 0 0 0 3.5-3.5h-4a.5.5 0 0 1 .5-.5v4zM3.5 12A3.5 3.5 0 0 0 7 15.5v-4a.5.5 0 0 1 .5.5h-4zM7 8.5A3.5 3.5 0 0 0 3.5 12h4a.5.5 0 0 1-.5.5v-4zm3.5 3.5A3.5 3.5 0 0 0 7 8.5v4a.5.5 0 0 1-.5-.5h4zm4.5 0h-4a4 4 0 0 0 4 4v-4zm0 0v4a4 4 0 0 0 4-4h-4zm0 0h4a4 4 0 0 0-4-4v4zm0 0V8a4 4 0 0 0-4 4h4zm0 2a2 2 0 0 1-2-2H9a6 6 0 0 0 6 6v-4zm2-2a2 2 0 0 1-2 2v4a6 6 0 0 0 6-6h-4zm-2-2a2 2 0 0 1 2 2h4a6 6 0 0 0-6-6v4zm-2 2a2 2 0 0 1 2-2V6a6 6 0 0 0-6 6h4zm8-8H3v4h18V4zm2 14V6h-4v12h4zM3 20h18v-4H3v4zM1 6v12h4V6H1z" mask="url(#a)"/></svg>
