<svg viewBox="0 0 24 24" xmlns="http://www.w3.org/2000/svg"><path fill="currentColor" fill-rule="evenodd" clip-rule="evenodd" d="M13 1h-2v1.05475C7.86324 2.40036 5 4.38211 5 8v8.5L3 18v2h18v-2l-2-1.5V8c0-3.61788-2.8632-5.59963-6-5.94525V1zm1 20H9.99999c0 1.1046.89541 2 2.00001 2s2-.8954 2-2zM11.9974 4h.0052c1.3984.00051 2.6978.40515 3.5978 1.09086C16.4454 5.73464 17 6.65971 17 8v9.5l.6667.5H6.33333L7 17.5V8c0-1.34029.55463-2.26536 1.39959-2.90914.9-.68571 2.19941-1.09035 3.59781-1.09086z"/></svg>