<svg xmlns="http://www.w3.org/2000/svg" viewBox="0 0 15 15"><path fill="currentColor" d="M11.5 5.99a.5.5 0 0 1 .5.5v4.52A1.99 1.99 0 0 1 9.997 13H5.003A2.004 2.004 0 0 1 3 11.003V3.997C3 2.893 3.893 2 5 2h2.5a.5.5 0 0 1 0 1H5c-.556 0-1 .446-1 .997v7.006c0 .544.449.997 1.003.997h4.994A.99.99 0 0 0 11 11.01V6.49a.5.5 0 0 1 .5-.5zM10 11.035c0-.002.005-.007 0-.009v.01zM7.5 5.5a.5.5 0 1 1 0-1 .5.5 0 0 1 0 1zm0 5a2 2 0 1 1 0-4 2 2 0 0 1 0 4zm0-.75a1.25 1.25 0 1 0 0-2.5 1.25 1.25 0 0 0 0 2.5zm0-.75a.5.5 0 1 1 0-1 .5.5 0 0 1 0 1zm4.25-4.375a.375.375 0 1 1-.75 0C11 3.728 10.272 3 9.375 3a.375.375 0 0 1 0-.75 2.375 2.375 0 0 1 2.375 2.375zm1.5 0a.375.375 0 1 1-.75 0c0-1.726-1.4-3.125-3.125-3.125a.375.375 0 0 1 0-.75 3.875 3.875 0 0 1 3.875 3.875z"/></svg>
