<svg viewBox="0 0 15 15" xmlns="http://www.w3.org/2000/svg">
<path fill="currentColor" d="M9.4 2l-.65-.65a.5.5 0 0 1 .7-.7l1.5 1.5c.2.2.2.5 0 .7l-1.5 1.5a.5.5 0 1 1-.7-.7L9.39 3H7.61a5.1 5.1 0 0 0-5.26 5.06 5.26 5.26 0 0 0 9.13 3.57.5.5 0 0 1 .74.67A6.25 6.25 0 0 1 1.35 8.06 6.1 6.1 0 0 1 7.61 2h1.43zm1.75-.65a.5.5 0 0 1 .7-.7l1.5 1.5c.2.2.2.5 0 .7l-1.5 1.5a.5.5 0 0 1-.7-.7l1.14-1.15-1.14-1.15zm-5.3 8.02l.33-1.91c-.23.1-.48.16-.76.18l-.01-.55c.19-.05.38-.13.58-.25.2-.11.38-.24.52-.39h.64l-.49 2.92h.61l-.1.63H5.05l.1-.63h.7zm1.94-.64l.53-2.28h1.9l-.18.75H8.82l-.18.68a.95.95 0 0 1 .6-.19c.25 0 .45.07.59.22.14.15.2.36.2.64 0 .24-.04.46-.12.65a1.35 1.35 0 0 1-.8.76 1.69 1.69 0 0 1-1.15 0 1.2 1.2 0 0 1-.48-.31l.35-.54c.15.09.28.15.4.19a1.08 1.08 0 0 0 .6.02.62.62 0 0 0 .22-.11.5.5 0 0 0 .15-.22c.03-.09.05-.2.05-.33 0-.24-.11-.37-.33-.37a.64.64 0 0 0-.41.17l-.07.27h-.65z"/>
</svg>
