<svg viewBox="0 0 24 24" xmlns="http://www.w3.org/2000/svg"><path fill-rule="evenodd" d="M12.912 1l-.395 1.474L.916 5.284.522 7.032C3.192 9.193 6.687 10.844 11 12c4.313 1.156 8.165 1.472 11.557.937l.534-1.712-8.642-8.233L14.983 1h-2.07zm3.228 9.99l-1.08-4.654 5.074 4.834a23.985 23.985 0 01-3.994-.18zm-2.133-.342L12.78 5.359 9.072 9.325c.78.267 1.595.515 2.446.743.85.228 1.68.421 2.49.58zM7.053 8.556a23.976 23.976 0 01-3.548-1.842l6.812-1.649-3.264 3.491zm4.395 5.635L9.088 23h-2.07l2.498-9.327 1.932.518z"/></svg>
