<svg viewBox="0 0 24 24" xmlns="http://www.w3.org/2000/svg"><path fill="currentColor" fill-rule="evenodd" clip-rule="evenodd" d="M5.62576 15.1651c-.40214.5294-.73985 1.1103-1.00144 1.7312L.477295 14.5021 1.47729 12.77l4.14847 2.3951zm1.64515-1.6184c.53564-.3931 1.12204-.7213 1.74754-.9726L2.87416 1.51434l-1.74832.97129L7.27091 13.5467zM11 12.0619c.3276-.0409.6613-.0619 1-.0619s.6724.021 1 .0619V3.99999h-2v8.06191zm3.9816.5122c.6254.2513 1.2118.5794 1.7475.9726l6.1451-11.06107-1.7484-.97129-6.1442 11.05976zm3.3926 2.591c.4022.5294.7399 1.1103 1.0015 1.7312l4.147-2.3942-1-1.7321-4.1485 2.3951zM6.08296 19H.999999v2H23v-2h-5.083c-.476-2.8377-2.944-5-5.917-5s-5.44097 2.1623-5.91704 5z"/></svg>