<svg viewBox="0 0 24 24" xmlns="http://www.w3.org/2000/svg"><path fill="currentColor" fill-rule="evenodd" clip-rule="evenodd" d="M12 23c6.0751 0 11-4.9249 11-11 0-6.07511-4.9249-11-11-11C5.92488 1 1 5.92489 1 12c0 6.0751 4.92488 11 11 11zm0-20.94535c5.4926 0 9.9452 4.45264 9.9452 9.94525 0 5.4925-4.4526 9.9452-9.9452 9.9452-5.49255 0-9.94519-4.4527-9.94519-9.9452 0-5.49261 4.45264-9.94525 9.94519-9.94525zM6.95467 8.24191c-.34912-.05863-.67959.17643-.73822.52502-.05863.34912.17589.67958.52448.73821L9.87 9.49928c.06662.01706.1359.06663.1476.19988.0066.06663-.0069.75034-.016 1.21114-.00417.2102-.00741.374-.00741.4119l-.16097 2.9873v5.0792c0 .3683.29898.6668.66728.6668.3476 0 .6365-.2654.6652-.6113l.6093-6.7081c.0085-.121.106-.21.2249-.2212.1189.0112.2169.1002.2249.2212l.6093 6.7081c.0293.3459.3182.6113.6646.6113.3689 0 .6674-.2985.6674-.6668v-5.0792l-.1605-2.9873c0-.0391-.0034-.212-.0077-.4316-.009-.4604-.022-1.12576-.0163-1.19144.0128-.13325.0821-.18282.1487-.19988l3.128.00586c.3492-.05863.5842-.38909.5256-.73821-.0592-.34859-.3896-.58365-.7382-.52502H6.95467zm6.57973-2.24227c0 .84748-.687 1.53453-1.5345 1.53453-.8475 0-1.5345-.68705-1.5345-1.53453 0-.84749.687-1.53401 1.5345-1.53401.8475 0 1.5345.68652 1.5345 1.53401z"/></svg>