<svg xmlns="http://www.w3.org/2000/svg" viewBox="0 0 15 15"><path d="M6.95 14a2.83 2.83 0 0 1-2.83-2.83.47.47 0 1 1 .94 0c0 1.04.85 1.89 1.89 1.89.53 0 1.04-.22 1.4-.6.33-.35.5-.8.49-1.27l-.02-.28v-.04c-.1-1.55.1-2.5 1.06-3.68.52-.64.65-1.05.65-1.67V5.23a3.3 3.3 0 0 0-6.59 0 .47.47 0 1 1-.94 0 4.24 4.24 0 0 1 8.47 0v.16c.01.95-.14 1.51-.86 2.4-.8.97-.93 1.68-.85 3.05v.06l.02.25c.03.72-.23 1.42-.75 1.96a2.9 2.9 0 0 1-2.08.89zm-.1-3.1a.37.37 0 0 0 .13-.72c-.5-.2-.71-.63-.53-1.13l.13-.33.02-.03.01-.04c.38-.79.3-1.27-.46-2.42-.2-.3-.27-.48-.28-.7V5.4a1.37 1.37 0 0 1 2.73 0 .37.37 0 1 0 .75 0 2.12 2.12 0 1 0-3.82 1.24c.5.78.63 1.11.51 1.46l-.1.23a5.83 5.83 0 0 0-.2.47c-.3.88.1 1.73.97 2.07.05.02.1.02.14.02z"/></svg>
