<svg viewBox="0 0 24 24"  xmlns="http://www.w3.org/2000/svg"><mask id="path-1-inside-1" ><path d="M23 21H17L16 17H8L7 21H1V3H23V21ZM6.43845 15L5.43845 19H3V5H21V19H18.5616L17.5616 15H6.43845ZM9 9V7H7V9H5V11H7V13H9V11H11V9H9ZM15 10C15 10.5523 15.4477 11 16 11C16.5523 11 17 10.5523 17 10C17 9.44771 16.5523 9 16 9C15.4477 9 15 9.44771 15 10ZM13 10C13 11.6569 14.3431 13 16 13C17.6569 13 19 11.6569 19 10C19 8.34315 17.6569 7 16 7C14.3431 7 13 8.34315 13 10Z"/></mask><path fill-rule="evenodd" d="M23 21H17L16 17H8L7 21H1V3H23V21ZM6.43845 15L5.43845 19H3V5H21V19H18.5616L17.5616 15H6.43845ZM9 9V7H7V9H5V11H7V13H9V11H11V9H9ZM15 10C15 10.5523 15.4477 11 16 11C16.5523 11 17 10.5523 17 10C17 9.44771 16.5523 9 16 9C15.4477 9 15 9.44771 15 10ZM13 10C13 11.6569 14.3431 13 16 13C17.6569 13 19 11.6569 19 10C19 8.34315 17.6569 7 16 7C14.3431 7 13 8.34315 13 10Z" /><path d="M17 21L15.0597 21.4851L15.4384 23H17V21ZM23 21V23H25V21H23ZM16 17L17.9403 16.5149L17.5616 15H16V17ZM8 17V15H6.43845L6.05971 16.5149L8 17ZM7 21V23H8.56155L8.94029 21.4851L7 21ZM1 21H-1V23H1V21ZM1 3V1H-1V3H1ZM23 3H25V1H23V3ZM5.43845 19V21H7L7.37873 19.4851L5.43845 19ZM6.43845 15V13H4.87689L4.49816 14.5149L6.43845 15ZM3 19H1V21H3V19ZM3 5V3H1V5H3ZM21 5H23V3H21V5ZM21 19V21H23V19H21ZM18.5616 19L16.6213 19.4851L17 21H18.5616V19ZM17.5616 15L19.5018 14.5149L19.1231 13H17.5616V15ZM9 7H11V5H9V7ZM9 9H7V11H9V9ZM7 7V5H5V7H7ZM7 9V11H9V9H7ZM5 9V7H3V9H5ZM5 11H3V13H5V11ZM7 11H9V9H7V11ZM7 13H5V15H7V13ZM9 13V15H11V13H9ZM9 11V9H7V11H9ZM11 11V13H13V11H11ZM11 9H13V7H11V9ZM17 23H23V19H17V23ZM14.0597 17.4851L15.0597 21.4851L18.9403 20.5149L17.9403 16.5149L14.0597 17.4851ZM8 19H16V15H8V19ZM8.94029 21.4851L9.94028 17.4851L6.05971 16.5149L5.05971 20.5149L8.94029 21.4851ZM1 23H7V19H1V23ZM-1 3V21H3V3H-1ZM23 1H1V5H23V1ZM25 21V3H21V21H25ZM7.37873 19.4851L8.37873 15.4851L4.49816 14.5149L3.49816 18.5149L7.37873 19.4851ZM3 21H5.43845V17H3V21ZM1 5V19H5V5H1ZM21 3H3V7H21V3ZM23 19V5H19V19H23ZM18.5616 21H21V17H18.5616V21ZM15.6213 15.4851L16.6213 19.4851L20.5018 18.5149L19.5018 14.5149L15.6213 15.4851ZM6.43845 17H17.5616V13H6.43845V17ZM7 7V9H11V7H7ZM7 9H9V5H7V9ZM9 9V7H5V9H9ZM5 11H7V7H5V11ZM7 11V9H3V11H7ZM7 9H5V13H7V9ZM9 13V11H5V13H9ZM9 11H7V15H9V11ZM7 11V13H11V11H7ZM11 9H9V13H11V9ZM9 9V11H13V9H9ZM9 11H11V7H9V11ZM16 9C16.5523 9 17 9.44772 17 10H13C13 11.6569 14.3431 13 16 13V9ZM15 10C15 9.44771 15.4477 9 16 9V13C17.6569 13 19 11.6569 19 10H15ZM16 11C15.4477 11 15 10.5523 15 10H19C19 8.34314 17.6569 7 16 7V11ZM17 10C17 10.5523 16.5523 11 16 11V7C14.3431 7 13 8.34315 13 10H17ZM16 11C15.4477 11 15 10.5523 15 10H11C11 12.7614 13.2386 15 16 15V11ZM17 10C17 10.5523 16.5523 11 16 11V15C18.7614 15 21 12.7614 21 10H17ZM16 9C16.5523 9 17 9.44771 17 10H21C21 7.23858 18.7614 5 16 5V9ZM15 10C15 9.44771 15.4477 9 16 9V5C13.2386 5 11 7.23858 11 10H15Z"  mask="url(#path-1-inside-1)"/></svg>
