<svg xmlns="http://www.w3.org/2000/svg" viewBox="0 0 15 15">
  <path d="M11.5 6c.3 0 .5.2.5.5V11a2 2 0 0 1-2 2H5a2 2 0 0 1-2-2V4c0-1.1.9-2 2-2h2.5c.3 0 .5.2.5.5s-.2.5-.5.5H5c-.6 0-1 .4-1 1v7c-.1.5.3.9.8 1H10c.5.1.9-.3 1-.8V6.5c0-.3.2-.5.5-.5zm.3-1.4c0 .2-.2.4-.4.4a.4.4 0 0 1-.4-.4c0-.9-.7-1.6-1.6-1.6-.2 0-.4-.2-.4-.4s.2-.4.4-.4c1.3 0 2.4 1.1 2.4 2.4zm1.4 0c0 .2-.1.4-.3.4a.4.4 0 0 1-.4-.4c0-1.7-1.4-3.1-3.1-3.1a.4.4 0 0 1-.4-.4c0-.2.2-.3.4-.3 2.1 0 3.8 1.7 3.8 3.8z"/>
  <circle cx="7.5" cy="5" r=".5"/>
  <circle cx="7.5" cy="8.5" r=".5"/>
  <path d="M7.5 6.5c-1.1 0-2 .9-2 2s.9 2 2 2 2-.9 2-2-.9-2-2-2zm0 3.2c-.7 0-1.2-.5-1.2-1.2s.5-1.2 1.2-1.2 1.2.6 1.2 1.2-.5 1.2-1.2 1.2z"/>
</svg>
