<svg viewBox="0 0 40 24" xmlns="http://www.w3.org/2000/svg"><path d="M40 3H0v18h40V3zM2 19V5h36v14H2z"/><path d="M5 9.225v5.817h2.28c1.794 0 2.63-1.12 2.63-2.932 0-1.794-.814-2.885-2.63-2.885H5zm1.402 1.125h.657c.988 0 1.414.61 1.414 1.794 0 1.185-.421 1.773-1.414 1.773h-.657V10.35zM10.971 15.042h1.36V10.49h-1.36v4.552zm-.132-5.852c0 .414.328.687.81.687.49 0 .81-.273.81-.687 0-.413-.325-.69-.81-.69-.486 0-.81.273-.81.69zM13.643 15.042h1.398v-2.455c0-.61.316-1.006 1.014-1.006.2 0 .405.018.5.052v-1.168a1.497 1.497 0 00-.41-.043c-.66 0-.997.477-1.078.789h-.064v-.72h-1.36v4.551zM19.27 15.127c1.393 0 1.964-.882 1.994-1.5h-1.245c-.034.286-.345.482-.754.482-.482 0-.835-.333-.835-.853v-.209h2.864v-.502c0-1.33-.853-2.14-2.085-2.14-1.159 0-2.1.712-2.1 2.14v.43c0 1.424.869 2.152 2.16 2.152zm-.84-2.85v-.026c0-.516.323-.861.792-.861.469 0 .772.345.772.86v.026H18.43zM23.663 13.525l.269-.316 1.159 1.833h1.577l-1.692-2.595 1.581-1.957h-1.521l-1.309 1.795h-.064V8.918h-1.36v6.124h1.36v-1.517zM27.712 10.559h-.724v1.03h.694v2.157c0 .95.465 1.309 1.628 1.309.32 0 .635-.03.738-.051v-.989a4.614 4.614 0 01-.41.017c-.417 0-.613-.136-.613-.533v-1.91h.997v-1.03h-.997V9.433h-1.313v1.126zM32.976 15.127c1.393 0 1.964-.882 1.994-1.5h-1.244c-.034.286-.346.482-.755.482-.481 0-.835-.333-.835-.853v-.209H35v-.502c0-1.33-.852-2.14-2.084-2.14-1.16 0-2.101.712-2.101 2.14v.43c0 1.424.87 2.152 2.16 2.152zm-.84-2.85v-.026c0-.516.324-.861.793-.861.468 0 .771.345.771.86v.026h-1.564z"/></svg>
