<svg xmlns="http://www.w3.org/2000/svg" viewBox="0 0 15 15">
    <path stroke="currentColor" fill="currentColor" d="M3 5.72269437C3 3.05278203 4.78946682 1.12205403 7.4999999 1.0015452 10.319598 1.0015452 12 2.97575428 12 5.72269438 12 8.25263788 7.4999999 13.6 7.4999999 13.6S3 8.46963446 3 5.72269437zM7.5 8.5c1.65685425 0 3-1.34314575 3-3s-1.34314575-3-3-3-3 1.34314575-3 3 1.34314575 3 3 3z"/>
    <path fill="currentColor" d="M6.5 5.5c0-.55228475.44771525-1 1-1s1 .44771525 1 1-.44771525 1-1 1-1-.44771525-1-1z"/>
</svg>
