<svg xmlns="http://www.w3.org/2000/svg" viewBox="0 0 24 24" fill="currentColor"><path d="M12 3h-1.58l2.1-3h-2.44l-2.8 4 2.8 4h2.44l-2.1-3H12a8 8 0 1 1-5.78 2.47L5.01 5.85A10 10 0 1 0 12 3Z"/><path d="M10.06 16.25V9.87H9.5c-.76.37-1.43.69-2.26.89l.2 1.04c.55-.12.93-.26 1.31-.49v4.94h1.3ZM13.29 15.33c-.49 0-.97-.08-1.51-.22l.12 1.04c.52.12.91.18 1.42.18 1.82 0 2.73-.81 2.73-2.12 0-1.23-.75-1.79-2.97-1.92l.12-1.38h2.54l.19-1.04h-3.7l-.31 3.34c2.24.04 2.8.31 2.8 1.06 0 .79-.5 1.06-1.43 1.06Z"/></svg>
