<svg viewBox="0 0 24 24" xmlns="http://www.w3.org/2000/svg"><path fill="currentColor" d="M19.03 4.614a.582.582 0 00-.162-.807C17.102 2.629 14.622 1.964 12 1.964s-5.102.665-6.868 1.843a.582.582 0 10.645.968C7.341 3.733 9.597 3.127 12 3.127c2.404 0 4.659.606 6.223 1.648a.582.582 0 00.806-.161zm.032 12.855c-1.414-2.735-4.167-4.596-7.062-4.596-2.895 0-5.648 1.861-7.062 4.596l-.138.267.138.268C6.265 20.57 8.922 22.036 12 22.036c3.078 0 5.735-1.465 7.062-4.032l.138-.268-.138-.267zm-12.945.266c1.26-2.218 3.54-3.698 5.883-3.698 2.344 0 4.624 1.48 5.883 3.698-1.16 1.998-3.333 3.138-5.883 3.138s-4.722-1.14-5.883-3.138zM12 19.637a2.182 2.182 0 110-4.364 2.182 2.182 0 010 4.364zm3.959-9.334a.582.582 0 01-.645.968c-.824-.548-2.027-.87-3.314-.87s-2.49.322-3.314.87a.582.582 0 01-.645-.968C9.068 9.619 10.495 9.236 12 9.236s2.932.383 3.959 1.067zm1.623-2.518a.582.582 0 00-.18-.803C16.009 6.098 14.06 5.6 12 5.6c-2.06 0-4.008.498-5.403 1.382a.582.582 0 00.624.983C8.417 7.206 10.15 6.764 12 6.764c1.85 0 3.584.442 4.78 1.2.27.173.63.092.802-.179z"/></svg>
