<svg xmlns="http://www.w3.org/2000/svg"  viewBox="0 0 15 15"><path d="M14.1 7.5a6.6 6.6 0 1 0-13.2 0 6.6 6.6 0 0 0 13.2 0zm.7 0a7.3 7.3 0 1 1-14.6 0 7.3 7.3 0 0 1 14.6 0zM4.152 5.006a.425.425 0 0 0-.142.838l2.076-.004c.045.012.09.045.098.133.007.064-.015.997-.015 1.077l-.107 1.983v3.37a.443.443 0 0 0 .884.037l.405-4.452a.16.16 0 0 1 .149-.146.16.16 0 0 1 .15.146l.404 4.452a.443.443 0 0 0 .883-.037v-3.37L8.831 7.05c0-.08-.022-1.013-.016-1.077.009-.088.055-.121.099-.133l2.076.004a.425.425 0 1 0-.142-.838H4.152zm3.348-.47a1.018 1.018 0 1 0 0-2.036 1.018 1.018 0 0 0 0 2.036z"/>
  </defs></svg>
