<svg viewBox="0 0 24 24" xmlns="http://www.w3.org/2000/svg"><path fill="currentColor" fill-rule="evenodd" clip-rule="evenodd" d="M15.4379 22L6.31752 2H8.5125l1.43701 3.15122C14.9479 4.54526 20.1638 6.16372 24 10.0066l-1.4118 1.4142c-3.2226-3.22826-7.5488-4.67743-11.7622-4.34749l1.3477 2.95529c3.0076.0435 6.002 1.2146 8.2969 3.5135l-1.4118 1.4142c-1.6656-1.6685-3.7733-2.6241-5.9454-2.8669l1.5869 3.4798c.8146.3414 1.5778.8443 2.2409 1.5085l-1.0661 1.0679L17.6328 22h-2.1949zm-4.411-4.8772l-.8547-1.8529c-1.14042.3084-2.21814.911-3.11338 1.8078l1.41177 1.4142c.72585-.7271 1.61961-1.1835 2.55631-1.3691zm-2.12369-4.6043l-.8425-1.8266c-1.65509.5758-3.20926 1.5259-4.5313 2.8502l1.41177 1.4142c1.15107-1.153 2.51331-1.9657 3.96203-2.4378zM6.79943 7.95727l-.83991-1.82101C3.78699 6.9635 1.74995 8.25362 0 10.0066l1.41176 1.4142C2.9905 9.83934 4.83405 8.68483 6.79943 7.95727z"/></svg>