<svg xmlns="http://www.w3.org/2000/svg" viewBox="0 0 15 15">
<path d="M7.5 6C8.32875 6 9 6.67125 9 7.5S8.32875 9 7.5 9 6 8.32875 6 7.5 6.67125 6 7.5 6m4-4c.82875 0 1.5.67125 1.5 1.5S12.32875 5 11.5 5 10 4.32875 10 3.5 10.67125 2 11.5 2m0 8c.82875 0 1.5.67125 1.5 1.5s-.67125 1.5-1.5 1.5-1.5-.67125-1.5-1.5.67125-1.5 1.5-1.5m-8-8C4.32875 2 5 2.67125 5 3.5S4.32875 5 3.5 5 2 4.32875 2 3.5 2.67125 2 3.5 2M5 11.5c0 .82875-.67125 1.5-1.5 1.5S2 12.32875 2 11.5 2.67125 10 3.5 10s1.5.67125 1.5 1.5z"/>
</svg>
