<svg xmlns="http://www.w3.org/2000/svg" style="width:6.2em;height:2.6em" viewBox="0 0 62 26">
    <path d="M44.998 11.17a1.843 1.843 0 0 0-1.842 1.842 1.841 1.841 0 1 0 1.842-1.842zm8.758.687a.244.244 0 0 1-.2-.143l-.58-1.508c-.028-.073-.077-.073-.107 0l-.577 1.508a.246.246 0 0 1-.2.143l-1.61.087c-.082.002-.097.05-.033.101l1.25 1.013c.065.053.1.159.079.24l-.416 1.552c-.022.082.017.108.084.063l1.353-.875a.24.24 0 0 1 .248 0l1.353.875c.068.045.106.02.085-.063l-.416-1.553a.252.252 0 0 1 .078-.239l1.25-1.013c.064-.052.05-.1-.032-.1l-1.609-.088zM49 1C42.385 1 37 6.382 37 13s5.385 12 12 12c6.616 0 12-5.382 12-12S55.616 1 49 1zm0 21.642c-5.317 0-9.642-4.326-9.642-9.641 0-5.319 4.325-9.644 9.642-9.644 5.318 0 9.644 4.325 9.644 9.644 0 5.315-4.326 9.64-9.644 9.64zM31.088 13.56c-.252-.427-.266-.69-.024-1.101L34.4 7h-4.626s-2.78 4.542-3.16 5.173c-.376.63-.36 1.023.015 1.67.38.647 3.145 5.157 3.145 5.157h4.626s-3.275-5.374-3.311-5.44M21.594 19h4.208V7h-4.208zM18.94 6.77a2.392 2.392 0 0 0-2.381 2.403c0 1.327 1.065 2.406 2.382 2.406a2.399 2.399 0 0 0 2.388-2.406 2.396 2.396 0 0 0-2.388-2.403M12.064 19h4.205V7h-4.205zM0 19h4.197V7H0zM9.509 8.928A2.381 2.381 0 0 0 7.179 7H4.475l2.717 12h4.57L9.508 8.928z"/>
</svg>
