<svg xmlns="http://www.w3.org/2000/svg" viewBox="0 0 15 15">
  <path d="M5.1 10.8C4.4 10.5 4 9.8 4 9V6c0-.8.4-1.5 1.1-1.8.1-.4.1-.8.3-1.4 0-.5.4-.8.9-.8h2.4c.5 0 .9.3 1 .8.1.6.2 1 .3 1.4.6.4 1 1 1 1.8v3c0 .8-.4 1.5-1.1 1.8-.1.4-.1.8-.3 1.4-.1.5-.5.8-1 .8H6.2c-.5 0-.9-.3-1-.8 0-.6-.1-1.1-.1-1.4zm2.4-5c.2 0 .3.1.3.3v1.6c0 .2-.1.3-.3.3s-.3-.1-.3-.3V6.1c0-.2.1-.3.3-.3zm-.2 1.7c.1-.1.3-.1.4 0l.6.6c.1.1.1.3 0 .4-.1.2-.3.2-.4.1l-.6-.7c-.1-.1-.1-.3 0-.4zM8.9 11H6.1c0 .2.1.5.1.8 0 .1.2.2.3.2h1.9c.1 0 .3-.1.3-.2.1-.3.1-.6.2-.8zM6.1 4h2.8c0-.2-.1-.5-.1-.8-.1-.1-.2-.2-.3-.2h-2c-.1 0-.2.1-.2.2-.1.3-.1.6-.2.8zM6 5c-.6 0-1 .4-1 1v3c0 .6.4 1 1 1h3c.6 0 1-.4 1-1V6c0-.6-.4-1-1-1H6z"/>
</svg>
