<svg xmlns="http://www.w3.org/2000/svg" fill="none" viewBox="0 0 36 31">
    <path fill="currentColor" d="M4.667 1.006H.458v12.001h4.209v-12Zm7.539 12.002L9.94 2.934a2.353 2.353 0 0 0-2.332-1.927H4.921l2.704 12h4.58Zm4.462-12.001h-4.209v12h4.209v-12Zm3.837.068a2.308 2.308 0 0 0-1.2-.322 2.264 2.264 0 0 0-1.192.322 2.432 2.432 0 0 0-.854.87 2.35 2.35 0 0 0-.32 1.209c-.006.421.105.836.32 1.2.208.354.502.65.854.862.36.215.772.326 1.192.32a2.3 2.3 0 0 0 1.2-.32c.356-.21.652-.507.862-.862.214-.364.325-.779.321-1.2a2.357 2.357 0 0 0-.321-1.209 2.414 2.414 0 0 0-.863-.87Zm5.645-.068h-4.208v12h4.208v-12Zm6.93 9.305a240.961 240.961 0 0 1-1.673-2.747 1.245 1.245 0 0 1-.195-.558 1 1 0 0 1 .178-.54l3.33-5.46h-4.631c-.27.44-.513.837-.727 1.192l-.702 1.157-.735 1.209c-.237.389-.443.73-.617 1.022-.174.293-.295.49-.363.592a1.581 1.581 0 0 0-.28.828c.026.3.122.59.28.845.067.102.188.299.363.592s.38.634.617 1.023l.735 1.2c.254.411.488.794.702 1.149.214.355.456.752.727 1.192h4.63a383.25 383.25 0 0 1-.845-1.395 138.68 138.68 0 0 0-.794-1.301ZM.51 19.397h3.87V29.91h1.775V19.397h3.853v-1.488H.51v1.488Zm16.31 5.983a67.598 67.598 0 0 0-.752 2.502c-.062.22-.12.434-.177.64a93.131 93.131 0 0 0-.567-1.984c-.13-.434-.262-.842-.397-1.226l-2.468-7.403h-1.893l4.158 12.001h2.197l4.175-12h-1.758l-2.518 7.47Z"/>
</svg>