<svg xmlns="http://www.w3.org/2000/svg" viewBox="0 0 15 15"><path fill="currentColor" d="M6.004 8a1.5 1.5 0 1 1 0-3 1.5 1.5 0 0 1 0 3zm.5-.5a.5.5 0 1 0 0-1 .5.5 0 0 0 0 1zM9.5 8a1.5 1.5 0 1 1 0-3 1.5 1.5 0 0 1 0 3zM9 7.5a.5.5 0 1 0 0-1 .5.5 0 0 0 0 1zM7.5 10a.5.5 0 1 1 0-1 .5.5 0 0 1 0 1zm0-8C4.414 2 2.915 3.997 3.004 7.992l.001 2.734c0 2.205 2.04 2.204 2.142.786.26 1.407.777 1.779 1.33 1.779.833 0 1.136-.28 1.327-1.285.072 1.52 1.898 1.929 2.23-.197.232 1.198 1.962 1.451 1.962-1.083V7.992C12.085 3.997 10.586 2 7.5 2zm.827 12.223a2.007 2.007 0 0 1-.649-.31c-.329.238-.731.337-1.2.337-.631 0-1.164-.2-1.536-.635-1.291.305-2.937-.838-2.937-2.888l-.001-2.713C1.904 3.508 3.786 1 7.5 1c3.713 0 5.596 2.508 5.496 6.992v2.734c0 1.574-.716 2.677-1.88 2.879-.294.05-.588.033-.861-.043-.475.6-1.158.869-1.928.66z"/></svg>