<svg viewBox="0 0 24 24" xmlns="http://www.w3.org/2000/svg"><path fill="currentColor" fill-rule="evenodd" clip-rule="evenodd" d="M23 12c0 6.0751-4.9249 11-11 11-6.07513 0-11-4.9249-11-11C1 5.92487 5.92487 1 12 1c6.0751 0 11 4.92487 11 11zM2 12l3.47241-6H7.5l-3.47241 6L7.5 18H5.47241L2 12zm11.5 0c0 .8284-.6716 1.5-1.5 1.5s-1.5-.6716-1.5-1.5.6716-1.5 1.5-1.5 1.5.6716 1.5 1.5zm5.0276-6L22 12l-3.4724 6H16.5l3.4724-6L16.5 6h2.0276zM6 12l2.31494-4h2.02756l-2.31491 4 2.31491 4H8.31494L6 12zm10.0276-4l2.3149 4-2.3149 4H14l2.3149-4L14 8h2.0276z"/></svg>