<svg xmlns="http://www.w3.org/2000/svg" viewBox="0 0 15 15"><path d="M4.474 3h5.741a3 3 0 0 1 2.979 2.65l.482 4.094a1.812 1.812 0 0 1-1.544 2.006l-.178.026a2 2 0 0 1-2.147-1.256l-.268-.687a15.175 15.175 0 0 1-4.396.014l-.262.673a2 2 0 0 1-2.146 1.256l-.179-.026a1.812 1.812 0 0 1-1.543-2.006l.481-4.095A3 3 0 0 1 4.474 3zm5.74 1h-5.74a2 2 0 0 0-1.987 1.766l-.481 4.095a.812.812 0 0 0 .691.9l.179.025a1 1 0 0 0 1.073-.628l.55-1.413.786.112a14.175 14.175 0 0 0 4.108-.014l.79-.117.556 1.432a1 1 0 0 0 1.073.628l.179-.026a.812.812 0 0 0 .692-.899L12.2 5.766A2 2 0 0 0 10.215 4zM9.5 7.9a1.4 1.4 0 1 1 0-2.8 1.4 1.4 0 0 1 0 2.8zm0-.8a.6.6 0 1 0 0-1.2.6.6 0 0 0 0 1.2zm-5.1-1h2.2a.4.4 0 1 1 0 .8H4.4a.4.4 0 1 1 0-.8zM5.5 5c.22 0 .4.18.4.4v2.2a.4.4 0 1 1-.8 0V5.4c0-.22.18-.4.4-.4z"/></svg>