<svg xmlns="http://www.w3.org/2000/svg" viewBox="0 0 36 31">
    <path fill="currentColor" d="M4.048 1.003H.106v12.012h3.942V1.003Zm12.164 0H12.27v12.012h3.942V1.003Zm-4.534 12.012-2.267-10.1a2.374 2.374 0 0 0-.82-1.363 2.277 2.277 0 0 0-1.515-.55H4.657l2.707 12.013h4.314ZM26.126 1.003h-3.942v12.012h3.942V1.003Zm6.666 9.305c-.282-.463-.55-.9-.803-1.311-.254-.412-.46-.75-.618-1.016a8.359 8.359 0 0 0-.254-.414c-.135-.203-.203-.39-.203-.558 0-.17.057-.35.17-.542l3.35-5.464h-4.332a317.34 317.34 0 0 0-1.438 2.36 166.654 166.654 0 0 1-1.37 2.233c-.18.288-.305.488-.372.6-.18.305-.271.576-.271.813s.096.518.288.846c.067.101.188.298.363.592.175.293.384.634.626 1.023.243.39.488.79.736 1.201.248.412.482.796.702 1.15l.736 1.194h4.331l-.846-1.396a296.28 296.28 0 0 0-.795-1.311ZM20.391 1.104A2.308 2.308 0 0 0 19.19.783a2.412 2.412 0 0 0-2.081 1.184c-.214.36-.322.761-.322 1.201A2.391 2.391 0 0 0 19.19 5.57c.44 0 .841-.107 1.202-.32a2.412 2.412 0 0 0 1.184-2.082c0-.44-.107-.84-.321-1.201a2.433 2.433 0 0 0-.863-.863ZM.106 19.41H3.98v10.523h1.777V19.41h3.857v-1.49H.106v1.489Zm16.326 5.989a67.75 67.75 0 0 0-.753 2.504l-.177.64-.186-.674c-.125-.44-.251-.877-.381-1.311a26.39 26.39 0 0 0-.398-1.227l-2.47-7.41h-1.895l4.162 12.012h2.2l4.179-12.012h-1.76l-2.52 7.478Z"/>
</svg>