<svg xmlns="http://www.w3.org/2000/svg" viewBox="0 0 15 15"><path d="M14 4.12c-.44.2-.92.32-1.4.38.5-.3.9-.77 1.07-1.32-.48.27-1 .47-1.56.58C11.67 3.3 11 3 10.3 3 8.96 3 7.86 4.07 7.86 5.4c0 .17.02.36.06.53-2.04-.1-3.85-1.05-5.07-2.5-.2.36-.33.77-.33 1.2 0 .83.44 1.57 1.1 2-.4-.02-.8-.12-1.12-.3v.02c0 1.16.85 2.13 1.98 2.34-.2.05-.43.08-.65.08-.15 0-.3-.02-.45-.05.3.95 1.22 1.64 2.3 1.66-.84.63-1.9 1-3.06 1-.2 0-.4 0-.6-.02 1.1.7 2.38 1.08 3.77 1.08 4.53 0 7-3.64 7-6.8v-.3c.48-.34.9-.76 1.23-1.24"/></svg>