<svg xmlns="http://www.w3.org/2000/svg" viewBox="0 0 68 22">
    <path fill="#0A2343" d="M67.73 0H0v21.581h67.73V0Z"/>
    <path fill="#8BB5EB" d="M42.39 6.205h3.868v10.508h1.774V6.205h3.852V4.718H42.39v1.487Zm18.82-1.487-2.518 7.467a65.899 65.899 0 0 0-.752 2.5c-.06.222-.12.435-.176.64a79.968 79.968 0 0 0-.567-1.982c-.13-.434-.262-.842-.397-1.225l-2.467-7.4h-1.892l4.155 11.995h2.196l4.173-11.995h-1.756Z"/>
    <path fill="#fff" d="M24.824 4.787a2.309 2.309 0 0 0-1.2-.321 2.263 2.263 0 0 0-1.19.32 2.433 2.433 0 0 0-.853.87 2.351 2.351 0 0 0-.321 1.208 2.31 2.31 0 0 0 .32 1.2c.208.354.502.65.854.861.36.216.772.327 1.19.321.423.005.837-.106 1.2-.32.356-.21.652-.506.862-.862a2.31 2.31 0 0 0 .32-1.2 2.412 2.412 0 0 0-1.182-2.078Zm-11.361.48a2.3 2.3 0 0 0-1.529-.549H9.248l2.703 11.995h4.577L14.266 6.645a2.3 2.3 0 0 0-.803-1.377m-4.468-.55H4.788v11.996h4.207V4.718Zm11.995 0h-4.207v11.995h4.207V4.718Zm9.478 0H26.26v11.995h4.207V4.718Zm8.565 0h-4.63c-.27.44-.512.836-.726 1.191l-.7 1.157-.736 1.208c-.236.389-.442.73-.616 1.022-.175.293-.296.49-.363.592a1.578 1.578 0 0 0-.28.828c.026.3.122.589.28.844.067.102.188.299.363.592a153.15 153.15 0 0 0 1.351 2.221c.254.411.488.794.701 1.15.214.354.456.751.727 1.19h4.629c-.316-.518-.597-.982-.845-1.394-.248-.41-.512-.844-.794-1.3a222.45 222.45 0 0 1-1.419-2.332 8.948 8.948 0 0 0-.253-.413 1.246 1.246 0 0 1-.195-.558.995.995 0 0 1 .178-.54l3.328-5.458Z"/>
</svg>