<svg viewBox="0 0 24 24" xmlns="http://www.w3.org/2000/svg"><path d="M11.48 0h2.44l2.8 4-2.8 4h-2.44l2.1-3H12a8 8 0 105.776 2.465l1.213-1.617A9.971 9.971 0 0122 13c0 5.523-4.477 10-10 10S2 18.523 2 13 6.477 3 12 3h1.58l-2.1-3zM8.674 16.2v-5.05h-.079l-1.555 1.073v-1.235l1.639-1.13h1.322V16.2H8.675zm3.12-1.802c.04 1.134.98 1.965 2.36 1.965 1.455 0 2.426-.919 2.426-2.264 0-1.243-.852-2.127-2.057-2.127-.628 0-1.076.233-1.344.62h-.08l.141-1.63H16.2V9.859h-3.986l-.316 3.678h1.186c.22-.356.593-.571 1.085-.571.673 0 1.147.465 1.147 1.164 0 .69-.47 1.147-1.15 1.147-.603 0-1.069-.351-1.143-.879h-1.227z"/></svg>
