<svg xmlns="http://www.w3.org/2000/svg" viewBox="0 0 26 26"><path fill="currentColor" d="M13.152.5C20.104.5 25.5 6.207 25.5 13.199c0 6.935-5.82 12.301-12.661 12.301C5.924 25.5.5 19.931.5 12.995.5 5.94 6.237.5 13.152.5zM6.135 17.087V13.55l.35-.102v-.49H5.05v.49l.34.102v2.16l-1.353-2.752H2.802v.49l.34.102v2.936l-.34.093v.508H4.23v-.508l-.331-.093v-1.93h.009l1.298 2.53h.93zm3.527-2.577v-.517H8.465v.498l.267.084-.488 1.754h-.018l-.452-1.754.286-.074v-.508H6.559v.508l.23.083.829 2.604-.055.148c-.083.185-.184.25-.387.25-.193 0-.405-.093-.506-.12l-.185.627c.185.083.507.203.884.203.663 0 .976-.387 1.243-1.21l.82-2.511.23-.065zm3.38 2.577v-.5l-.35-.092v-1.57c0-.674-.295-.997-.866-.997-.378 0-.598.139-.829.37h-.027v-1.34H9.754v.48l.34.093v2.964l-.34.093v.499h1.602v-.5l-.359-.092v-1.634a.714.714 0 0 1 .47-.185c.22 0 .322.13.322.48v1.93h1.252zm1.814-.665c-.47 0-.645-.26-.664-.628h1.658c.018-.139.037-.333.037-.453 0-.951-.415-1.413-1.225-1.413-.856 0-1.409.582-1.409 1.616 0 1.109.571 1.607 1.474 1.607.488 0 .874-.148 1.15-.305l-.175-.618c-.313.129-.607.194-.846.194zm-.222-1.82c.323 0 .424.213.424.628h-.856c.009-.341.101-.628.432-.628zm2.827 2.55c.221 0 .636-.065.838-.204l-.165-.582a.99.99 0 0 1-.378.093c-.221 0-.304-.102-.304-.38v-1.403h.682v-.683h-.682v-.74h-.709l-.156.74h-.452v.683h.415v1.533c0 .647.258.942.911.942zm2.57-.73c-.47 0-.645-.26-.664-.628h1.658c.018-.139.037-.333.037-.453 0-.951-.415-1.413-1.225-1.413-.856 0-1.409.582-1.409 1.616 0 1.109.571 1.607 1.473 1.607a2.31 2.31 0 0 0 1.152-.305l-.175-.618c-.313.129-.608.194-.848.194zm-.222-1.82c.323 0 .424.213.424.628h-.856c.009-.341.1-.628.432-.628zm3.37.277c.056 0 .24.01.323.019v-.942s-.13-.028-.276-.028c-.313 0-.571.203-.682.582h-.027l-.12-.517h-.995v.508l.323.083v1.92l-.323.084v.499h1.713v-.5l-.488-.1v-1.33c.11-.204.304-.278.552-.278zm-7.08-3.592v-4.12c0-.045-.037-.045-.037-.045h-1.409s-.037 0-.037.046v4.119c0 .055.037.055.037.055h1.409s.037 0 .037-.055zM12.903 7.85c0 .388.258.813.829.813a.787.787 0 0 0 .801-.785c0-.49-.322-.859-.81-.859-.405 0-.82.268-.82.831zm-3.278 3.436c.01.055.046.055.046.055h1.483c.046 0 .046-.055.046-.055l-.792-3.473c-.083-.424-.378-.692-.783-.692h-.884c-.046 0-.046 0-.046.046l.93 4.119zM7.13 7.167v4.12c0 .055 0 .055.046.055h1.436V7.122H7.176c-.046 0-.046 0-.046.046zm4.208 0v4.12c0 .055 0 .055.037.055h1.353c.037 0 .037 0 .037-.055v-4.12c0-.045 0-.045-.037-.045h-1.353c-.037 0-.037 0-.037.046zm5.064 1.691c-.193.314-.175.397-.027.674l1.05 1.783c.009.018.027.027.073.027h1.547s.046-.009.01-.055L17.94 9.412c-.101-.166-.11-.203-.046-.35l1.16-1.894c.01-.028 0-.046-.027-.046h-1.529c-.064 0-.083.046-.083.046l-1.013 1.69z"/></svg>
