<svg xmlns="http://www.w3.org/2000/svg" viewBox="0 0 15 15">
<path fill="currentColor" d="M7.49935308 14.75C3.49623003 14.75.25 11.5040596.25 7.5S3.49623003.25 7.49935308.25C11.50377.25 14.75 3.4959404 14.75 7.5s-3.24623 7.25-7.25064692 7.25zm.00053538-6C8.19030516 8.75 8.75 8.1903551 8.75 7.5s-.55969483-1.25-1.25011154-1.25C6.80969483 6.25 6.25 6.8096449 6.25 7.5s.55969483 1.25 1.24988846 1.25zm3.56397414-4.6629243c1.9267755 1.9267755 1.9269149 5.05054508.0003365 6.9771234-.1562097.1562097-.1562097.4094757 0 .5656854.1562097.1562098.4094757.1562098.5656854 0 2.2390091-2.23900903 2.2388472-5.8693106-.0003365-8.10849422-.1562097-.15620972-.4094757-.15620972-.5656854 0s-.1562097.4094757 0 .56568542zm-6.9767869 6.9767869c-1.92619873-1.92619872-1.92614556-5.0499683.0003365-6.9764504.15620973-.1562097.15620973-.4094757 0-.5656854-.1562097-.15620973-.4094757-.15620973-.5656854 0-2.2388972 2.2388972-2.238959 5.86919876-.00033652 8.1078212.15620972.1562098.4094757.1562098.56568542 0 .15620972-.1562097.15620972-.4094757 0-.5656854zm5.45548213-5.6225241c1.13263467 1.13263468 1.13271657 2.96890653.0002019 4.10142123-.1171573.1171573-.1171573.30710678 0 .42426407.1171573.1171573.30710678.1171573.42426407 0 1.3668377-1.36683775 1.3667389-3.5830086-.0002019-4.94994937-.1171573-.1171573-.3071068-.1171573-.42426407 0-.1171573.1171573-.1171573.30710678 0 .42426407zM5.4413385 9.54255783C4.30905104 8.41027037 4.3090823 6.5739985 5.4415404 5.4415404c.1171573-.1171573.1171573-.30710678 0-.42426407-.1171573-.1171573-.30710678-.1171573-.42426407 0-1.36676945 1.36676946-1.36680717 3.5829403-.0002019 4.94954557.1171573.1171573.30710678.1171573.42426407 0 .11715728-.1171573.11715728-.3071068 0-.42426407z"/>
</svg>
