<svg viewBox="0 0 24 24" xmlns="http://www.w3.org/2000/svg"><mask id="a"><path d="M8 5V3h8v2h7v16H1V5h7zm6 2h7v12H3V7h7V5h4v2zm0 6a2 2 0 11-4 0 2 2 0 014 0zm2 0a4 4 0 11-8 0 4 4 0 018 0z"/></mask><path fill-rule="evenodd" d="M8 5V3h8v2h7v16H1V5h7zm6 2h7v12H3V7h7V5h4v2zm0 6a2 2 0 11-4 0 2 2 0 014 0zm2 0a4 4 0 11-8 0 4 4 0 018 0z"/><path d="M8 3V1H6v2h2zm0 2v2h2V5H8zm8-2h2V1h-2v2zm0 2h-2v2h2V5zm7 0h2V3h-2v2zm0 16v2h2v-2h-2zM1 21h-2v2h2v-2zM1 5V3h-2v2h2zm20 2h2V5h-2v2zm-7 0h-2v2h2V7zm7 12v2h2v-2h-2zM3 19H1v2h2v-2zM3 7V5H1v2h2zm7 0v2h2V7h-2zm0-2V3H8v2h2zm4 0h2V3h-2v2zM6 3v2h4V3H6zm10-2H8v4h8V1zm2 4V3h-4v2h4zm5-2h-7v4h7V3zm2 18V5h-4v16h4zM1 23h22v-4H1v4zM-1 5v16h4V5h-4zm9-2H1v4h7V3zm13 2h-7v4h7V5zm2 14V7h-4v12h4zM3 21h18v-4H3v4zM1 7v12h4V7H1zm9-2H3v4h7V5zM8 5v2h4V5H8zm6-2h-4v4h4V3zm2 4V5h-4v2h4zm-4 10a4 4 0 004-4h-4v4zm-4-4a4 4 0 004 4v-4H8zm4-4a4 4 0 00-4 4h4V9zm4 4a4 4 0 00-4-4v4h4zm-4 6a6 6 0 006-6h-4a2 2 0 01-2 2v4zm-6-6a6 6 0 006 6v-4a2 2 0 01-2-2H6zm6-6a6 6 0 00-6 6h4a2 2 0 012-2V7zm6 6a6 6 0 00-6-6v4a2 2 0 012 2h4z" mask="url(#a)"/></svg>
