<svg xmlns="http://www.w3.org/2000/svg" viewBox="0 0 62 26">
  <path fill="currentColor" d="M31.09 13.56c.03.07 3.3 5.44 3.3 5.44h-4.62s-2.76-4.51-3.14-5.16c-.38-.64-.4-1.04-.02-1.67L29.77 7h4.63l-3.34 5.46c-.24.41-.22.67.03 1.1zM21.59 19V7h4.21v12h-4.2zM18.94 6.77a2.4 2.4 0 0 1 2.39 2.4 2.4 2.4 0 0 1-2.39 2.4 2.4 2.4 0 0 1-2.38-2.4 2.4 2.4 0 0 1 2.38-2.4zM12.06 19V7h4.2v12h-4.2zM0 19V7h4.2v12H0zM9.5 8.93L11.77 19H7.2L4.48 7h2.7c1.15 0 2.11.83 2.33 1.93zM49 1a12 12 0 1 1 0 24 12 12 0 0 1 0-24zm3.57 16.35l-2.99-1.47-.1-.04-.77-.38a.23.23 0 0 1-.1-.31v-.03c.06-.11.2-.16.31-.1l.78.38.1.05 2.38 1.17c.29.14.62.04.75-.23.14-.27.01-.6-.27-.73L49.7 14.2l-.03-.01-.03-.02-.73-.36 1.05-.21c.31-.06.52-.35.46-.64-.06-.3-.36-.48-.66-.42l-3.28.66h-.01a2.87 2.87 0 0 0-1.08 5.28c.04.04 1.7.87 1.7.87l1.83.9c.28.13.62.03.75-.24.13-.26 0-.6-.28-.73l-1.22-.6-.07-.04-.74-.36c-.13-.07-.19-.22-.13-.34.06-.12.21-.16.34-.1l.82.4 1.9.93c.28.14.62.04.75-.23.13-.26 0-.6-.28-.73l-1.87-.92-.87-.43a.23.23 0 0 1-.1-.3v-.03c.06-.12.2-.16.31-.1l.88.42 2.98 1.47c.29.14.62.03.75-.23.13-.27.01-.6-.27-.74zm-3.3-7.5l.85-.47 2.93-1.58c.28-.15.4-.49.25-.75-.14-.26-.48-.35-.76-.2l-2.93 1.58-.1.06-.76.4a.23.23 0 0 1-.3-.08l-.02-.03a.23.23 0 0 1 .09-.31l.76-.41.1-.05 2.34-1.27c.28-.15.39-.49.25-.75s-.48-.35-.76-.2l-2.9 1.57-.03.02-.04.01-.72.4.45-1c.13-.28.01-.62-.26-.74s-.6.01-.73.3L45.61 9.4v.01a2.87 2.87 0 0 0 .64 3.42c.09-.04.18-.08.28-.1l3.26-.62c.39-.08.75.14.91.52l.29-.16 1.8-.97c.27-.15.38-.48.24-.74s-.48-.35-.76-.2l-1.2.65-.07.03-.73.4c-.13.07-.28.03-.35-.1-.06-.11 0-.26.12-.33l.8-.43 1.87-1.01c.27-.15.38-.49.24-.75s-.48-.35-.76-.2l-1.84 1-.85.46a.23.23 0 0 1-.31-.1l-.02-.02a.23.23 0 0 1 .1-.31z"/>
</svg>
