<svg xmlns="http://www.w3.org/2000/svg" viewBox="0 0 15 15"><path fill="currentColor" d="M5.75 5H3.998A.998.998 0 0 0 3 6v4c0 .556.447 1 .998 1h7.004A.998.998 0 0 0 12 10V6c0-.556-.447-1-.998-1H9.25c0-.556-.445-1-.994-1H6.744c-.536 0-.994.448-.994 1zm.994-2h1.512c.74 0 1.384.402 1.728 1h1.018C12.107 4 13 4.893 13 6v4c0 1.104-.894 2-1.998 2H3.998A1.996 1.996 0 0 1 2 10V6c0-1.104.894-2 1.998-2H5.02a2 2 0 0 1 1.724-1zm.756 7.25a2.25 2.25 0 1 1 0-4.5 2.25 2.25 0 0 1 0 4.5zm.025-.85a1.375 1.375 0 1 0 0-2.75 1.375 1.375 0 0 0 0 2.75z"/></svg>
