<svg xmlns="http://www.w3.org/2000/svg" style="width:8.6em;height:1.5em" viewBox="0 0 86 15">
    <path d="M80.0499013 13.130207c2.3753748 0 3.9278402-1.6676535 3.9278402-5.2343994 0-3.2150445-1.5872395-4.9460567-3.9278402-4.9460567-2.4409554 0-3.9976218 1.7647237-3.9976218 4.9460565 0 3.5337515 1.5891066 5.2343993 3.9976218 5.2343993m.0473768-11.376863c3.012978 0 5.2084144 2.104232 5.2084144 6.1424636 0 4.4442065-2.2605503 6.3956598-5.2900983 6.3956598-3.0626884 0-5.3066684-1.9870777-5.3066684-6.3956598 0-4.0382317 2.2614838-6.1424635 5.3883526-6.1424635M71.454776 14.0002526h1.3621865V2.0003387H71.454776M61.40707 3.165586v9.6694195h2.0947752c3.0673244 0 4.3500995-1.6673455 4.3500995-4.81896 0-3.115852-1.282775-4.8504596-4.3500995-4.8504596h-2.094775zm2.0133438-1.1652472c3.7155365 0 5.7459993 1.8980265 5.7459993 6.0157067 0 4.2524415-2.043649 5.9842072-5.9248242 5.9842072H60.156914V2.0003387h3.2634998zm-7.6710955 7.399647l-1.995296-5.951643-1.9918306 5.9516428h3.9871266zM54.40418 2.0003387l4.2599896 11.999914h-1.328041l-1.2300783-3.4338588h-4.7012837l-1.201198 3.4338587h-1.344445l4.2329574-11.999914h1.312099zM40.8062234 3.132406v4.9839385h2.1338468c1.9223598 0 2.9361256-.8992594 2.9361256-2.567756 0-1.5995782-.835888-2.4161824-2.712521-2.4161824h-2.3574514zm2.389689-1.1320672c2.711835 0 3.9318292 1.3319554 3.9318292 3.449016 0 1.49845-.5946786 2.6669897-1.9438514 3.3329674l2.6002614 5.2179305H46.437951L43.9831013 9.082628c-.369245.0838392-.7531224.116996-1.2369132.116996h-1.9399645v4.8006287H39.569996V2.0003387h3.6259163zM31.0878023 8.5591802c-.2517074-.4264288-.2661333-.688617-.02338-1.1002956L34.399462 2h-4.6267395s-2.7797248 4.5420545-3.159773 5.1731625c-.3764004.6302792-.3601506 1.022733.0154207 1.670414C27.0084185 9.490429 29.7727225 14 29.7727225 14h4.6267395s-3.2751804-5.3735326-3.3116597-5.4408198M21.5941377 14h4.2077247V2h-4.2077247m-2.653584-.2298913c-1.3163763 0-2.3817762 1.075399-2.3817762 2.4031076 0 1.3268753 1.0654 2.4056073 2.3817762 2.4056073 1.3185428 0 2.3884423-1.078732 2.3884423-2.4056073 0-1.3277086-1.0698995-2.4031076-2.3884423-2.4031076M12.0635332 14h4.2052375V2h-4.2052375M0 14h4.1974442V2H0m9.5087294 1.9279618C9.2933354 2.828329 8.331442 2 7.1785294 2h-2.70345L7.191629 14h4.569699L9.5087295 3.9279618z"/>
</svg>
