<svg viewBox="0 0 24 24" xmlns="http://www.w3.org/2000/svg"><mask id="a"><path fill-rule="evenodd" d="M20 23.018V.994H4v22.012l16 .012zM6 3h12v18H6V3zm6 5.5a1.5 1.5 0 1 0 0-3 1.5 1.5 0 0 0 0 3zm0 8.5a2 2 0 1 1 0-4 2 2 0 0 1 0 4zm0 2a4 4 0 1 1 0-8 4 4 0 0 1 0 8z"/></mask><path fill-rule="evenodd" d="M20 23.018V.994H4v22.012l16 .012zM6 3h12v18H6V3zm6 5.5a1.5 1.5 0 1 0 0-3 1.5 1.5 0 0 0 0 3zm0 8.5a2 2 0 1 1 0-4 2 2 0 0 1 0 4zm0 2a4 4 0 1 1 0-8 4 4 0 0 1 0 8z"/><path d="M20 .994h2v-2h-2v2zm0 22.024l-.002 2L22 25.02v-2.002h-2zM4 .994v-2H2v2h2zm0 22.012H2v1.998l1.998.002.002-2zM18 3h2V1h-2v2zM6 3V1H4v2h2zm12 18v2h2v-2h-2zM6 21H4v2h2v-2zM18 .994v22.024h4V.994h-4zm-14 2h16v-4H4v4zm2 20.012V.994H2v22.012h4zm14.002-1.988l-16-.012-.004 4 16 .012.004-4zM18 1H6v4h12V1zm2 20V3h-4v18h4zM6 23h12v-4H6v4zM4 3v18h4V3H4zm7.5 4a.5.5 0 0 1 .5-.5v4A3.5 3.5 0 0 0 15.5 7h-4zm.5.5a.5.5 0 0 1-.5-.5h4A3.5 3.5 0 0 0 12 3.5v4zm.5-.5a.5.5 0 0 1-.5.5v-4A3.5 3.5 0 0 0 8.5 7h4zm-.5-.5a.5.5 0 0 1 .5.5h-4a3.5 3.5 0 0 0 3.5 3.5v-4zM8 15a4 4 0 0 0 4 4v-4H8zm4-4a4 4 0 0 0-4 4h4v-4zm4 4a4 4 0 0 0-4-4v4h4zm-4 4a4 4 0 0 0 4-4h-4v4zm-6-4a6 6 0 0 0 6 6v-4a2 2 0 0 1-2-2H6zm6-6a6 6 0 0 0-6 6h4a2 2 0 0 1 2-2V9zm6 6a6 6 0 0 0-6-6v4a2 2 0 0 1 2 2h4zm-6 6a6 6 0 0 0 6-6h-4a2 2 0 0 1-2 2v4z" mask="url(#a)"/></svg>
