<svg viewBox="0 0 15 15" xmlns="http://www.w3.org/2000/svg">
<path d="M12.22 6.86a1.47 1.47 0 0 1-.93-2.25l.51-.78c-.2-.23-.4-.44-.63-.63l-.78.51c-.87.58-2.05.09-2.25-.93l-.19-.92a5.71 5.71 0 0 0-.9 0l-.19.92a1.47 1.47 0 0 1-2.25.93l-.78-.51c-.23.2-.44.4-.63.63l.51.78c.58.87.09 2.05-.93 2.25l-.92.19a5.71 5.71 0 0 0 0 .9l.92.19c1.02.2 1.5 1.38.93 2.25l-.51.78c.2.23.4.44.63.63l.78-.51a1.47 1.47 0 0 1 2.25.93l.19.92a5.72 5.72 0 0 0 .9 0l.19-.92a1.47 1.47 0 0 1 2.25-.93l.78.51c.23-.2.44-.4.63-.63l-.51-.78a1.47 1.47 0 0 1 .93-2.25l.92-.19a5.71 5.71 0 0 0 0-.9l-.92-.19zm1.75-.01a6.57 6.57 0 0 1 0 1.3.69.69 0 0 1-.55.6l-1.03.21a.63.63 0 0 0-.4.96l.58.88c.17.25.15.58-.04.81-.27.34-.58.65-.92.92-.23.2-.56.21-.81.04L9.92 12a.63.63 0 0 0-.96.4l-.2 1.02c-.06.3-.31.52-.61.55a6.57 6.57 0 0 1-1.3 0 .69.69 0 0 1-.6-.55l-.21-1.03a.63.63 0 0 0-.96-.4l-.88.58a.69.69 0 0 1-.81-.04 6.53 6.53 0 0 1-.92-.92.69.69 0 0 1-.04-.81L3 9.92a.63.63 0 0 0-.4-.96l-1.02-.2a.69.69 0 0 1-.55-.61 6.57 6.57 0 0 1 0-1.3c.03-.3.25-.55.55-.6l1.03-.21a.63.63 0 0 0 .4-.96l-.58-.88a.69.69 0 0 1 .04-.81c.27-.34.58-.65.92-.92.23-.2.56-.21.81-.04l.88.57c.37.25.87.04.96-.4l.2-1.02c.06-.3.31-.52.61-.55a6.56 6.56 0 0 1 1.3 0c.3.03.55.25.6.55l.21 1.03c.1.43.6.64.96.4l.88-.58a.69.69 0 0 1 .81.04c.34.27.65.58.92.92.2.23.21.56.04.81l-.57.88a.63.63 0 0 0 .4.96l1.02.2c.3.06.52.31.55.61zM7.5 9.5a2 2 0 1 0 0-4 2 2 0 0 0 0 4zm0-.84a1.16 1.16 0 1 1 0-2.32 1.16 1.16 0 0 1 0 2.32z" />
</svg>
