<svg xmlns="http://www.w3.org/2000/svg" viewBox="0 0 15 15">
  <path d="M7.5 13.5a6 6 0 1 1 0-12 6 6 0 0 1 0 12zm0-1a5 5 0 1 0 0-10 5 5 0 0 0 0 10zm0-1.25a.75.75 0 1 1 0-1.5.75.75 0 0 1 0 1.5zM5.2 5.81c0-.3.1-.62.3-.93.19-.31.47-.57.85-.77.37-.2.8-.31 1.3-.31.47 0 .88.09 1.24.26a2 2 0 0 1 .82.7 1.71 1.71 0 0 1 .12 1.67c-.1.2-.24.38-.39.53-.15.15-.42.4-.82.75l-.26.26a1.06 1.06 0 0 0-.22.4l-.08.33c-.06.33-.25.5-.57.5a.58.58 0 0 1-.42-.17c-.11-.1-.17-.27-.17-.48 0-.27.04-.5.12-.7.09-.2.2-.37.34-.52.13-.15.32-.33.55-.53l.45-.4c.09-.1.16-.2.23-.31a.85.85 0 0 0-.2-1.01 1.04 1.04 0 0 0-.73-.27c-.35 0-.61.1-.78.27-.17.18-.3.44-.42.78-.11.37-.32.55-.62.55a.6.6 0 0 1-.46-.2.58.58 0 0 1-.18-.4z"/>
</svg>
