<svg xmlns="http://www.w3.org/2000/svg" viewBox="0 0 15 15"><path fill="currentColor" d="M6.88 8.87c-.5.13-.98.4-1.37.83a.49.49 0 0 1-.74 0 .61.61 0 0 1 0-.8c.35-.4.76-.7 1.19-.9l.92.87zM8.54 6.1L7.23 4.84c1.8-.07 3.61.64 4.98 2.13.2.23.2.59 0 .81a.5.5 0 0 1-.37.17.5.5 0 0 1-.37-.17 5.45 5.45 0 0 0-2.93-1.7zm-3.85.7c-.42.27-.81.6-1.17 1a.49.49 0 0 1-.74 0 .61.61 0 0 1 0-.82c.34-.36.7-.68 1.08-.96l.83.79zm.98-3.43l-.95-.9C5.61 2.16 6.54 2 7.5 2a9.04 9.04 0 0 1 6.85 3.27c.2.22.2.58 0 .8a.47.47 0 0 1-.35.17.46.46 0 0 1-.35-.16A8.11 8.11 0 0 0 7.5 3.14c-.62 0-1.24.08-1.83.22zM2.64 4.85a9.2 9.2 0 0 0-1.3 1.23c-.19.22-.5.22-.7 0a.63.63 0 0 1 0-.81c.38-.43.78-.82 1.2-1.17l.8.75zm4.86 8.09c-.6 0-1.09-.48-1.09-1.06 0-.58.49-1.05 1.09-1.05.6 0 1.08.47 1.08 1.05 0 .58-.48 1.06-1.08 1.06zm3.08-2.02L2.27 3.04a.51.51 0 1 1 .7-.75l8.31 7.88a.51.51 0 1 1-.7.75z"/></svg>
