<svg xmlns="http://www.w3.org/2000/svg" viewBox="0 0 15 15">
<path fill="currentColor" d="M13 3.5c0 .82875-.67125 1.5-1.5 1.5S10 4.32875 10 3.5 10.67125 2 11.5 2s1.5.67125 1.5 1.5m0 4c0 .82875-.67125 1.5-1.5 1.5S10 8.32875 10 7.5 10.67125 6 11.5 6s1.5.67125 1.5 1.5m0 4c0 .82875-.67125 1.5-1.5 1.5s-1.5-.67125-1.5-1.5.67125-1.5 1.5-1.5 1.5.67125 1.5 1.5m-8-8C5 4.32875 4.32875 5 3.5 5S2 4.32875 2 3.5 2.67125 2 3.5 2 5 2.67125 5 3.5m0 4C5 8.32875 4.32875 9 3.5 9S2 8.32875 2 7.5 2.67125 6 3.5 6 5 6.67125 5 7.5M3.5 13c-.82875 0-1.5-.67125-1.5-1.5S2.67125 10 3.5 10s1.5.67125 1.5 1.5S4.32875 13 3.5 13z"/>
</svg>
