<svg xmlns="http://www.w3.org/2000/svg" viewBox="0 0 15 15"><path fill="none" stroke="currentColor" d="M7.62 2h-.25c-.5 0-2.18.14-2.97 1.9-.26.6-.2 1.63-.14 2.44v.3c-.03.02-.1.04-.23.04-.15 0-.34-.05-.55-.14-.05-.03-.12-.04-.2-.04-.23 0-.53.16-.57.4-.02.17.06.42.6.64l.2.06c.22.07.56.18.66.4.05.12.03.27-.06.45-.04.08-.77 1.75-2.4 2.02-.13.02-.22.13-.2.26 0 .04 0 .08.02.1.12.3.64.5 1.58.65.03.05.06.2.08.3l.07.27c.03.1.1.2.3.2.06 0 .15 0 .26-.03.17-.03.38-.07.65-.07.15 0 .3 0 .46.04.3.04.57.22.87.43.42.3.9.64 1.64.64h.17c.73 0 1.2-.35 1.64-.65.3-.2.57-.4.87-.45.16-.02.3-.04.46-.04.26 0 .46.04.64.07l.27.03h.02c.14 0 .24-.07.28-.2l.06-.28c.02-.1.06-.24.1-.3.93-.13 1.45-.34 1.57-.63l.02-.1c0-.13-.1-.25-.22-.27-1.63-.27-2.36-1.94-2.4-2v-.02c-.1-.18-.1-.33-.06-.44.1-.23.45-.34.67-.42l.17-.06c.4-.16.6-.36.6-.6 0-.17-.14-.33-.36-.4-.06-.04-.15-.06-.24-.06-.06 0-.15 0-.23.05-.2.1-.37.15-.52.15-.1 0-.15-.03-.2-.05l.03-.25V6.3c.05-.8.12-1.82-.15-2.4C9.78 2.13 8.1 2 7.62 2z"/></svg>