<svg viewBox="0 0 24 24" xmlns="http://www.w3.org/2000/svg"><path d="M6.606 10.418v.022l-.13.107-.467.39a6.69 6.69 0 00-.342.318c-.068.067-.135.132-.203.195-.02-.41.001-.823.064-1.234.259-1.65.844-4.99.96-5.653l.003-.016.024-.131c.055-.269.162-.517.31-.725a1.91 1.91 0 01.33-.372 1.997 1.997 0 011.71-.447 1.99 1.99 0 011.568 1.708l2.61-2.2c.408-.35.87-.536 1.339-.536.526 0 1.024.24 1.402.676.11.128.201.264.273.406.105-.022.217-.035.336-.035.364 0 .9.12 1.389.69.424.493.482.988.457 1.317-.01.15-.042.297-.094.44.12.088.235.194.338.315.784.91.44 2.04-.29 2.675l-.048.042a1.694 1.694 0 01.556 1.367 3.261 3.261 0 00-.485-.046l-.581-.009a.648.648 0 00-.169-.442c-.169-.197-.35-.264-.522-.264-.288 0-.548.194-.66.287l-.466.392-.203-.003.01-.062c.02-.148.018-.294.015-.44l1.821-1.634c.063-.055.666-.603.193-1.151-.174-.202-.349-.272-.511-.272-.274 0-.509.199-.623.296l-.005.004-1.387 1.156a.637.637 0 01-.034-.056c-.012-.021-.024-.043-.04-.063-.053-.07-.114-.132-.175-.193a5.27 5.27 0 01-.063-.065l1.978-1.761.008-.006c.089-.077.638-.546.15-1.113-.198-.23-.389-.307-.559-.307-.262 0-.476.184-.584.278l-2.475 2.092a1.499 1.499 0 01-.077-.02.908.908 0 00-.128-.03c-.17-.021-.301-.021-.436-.021l2.082-1.887c.058-.05.68-.592.184-1.16-.195-.224-.395-.3-.577-.3-.28 0-.517.178-.627.271L9.117 7.12a.114.114 0 01-.078.03.115.115 0 01-.063-.017.125.125 0 01-.058-.13l.417-2.004a.895.895 0 00-1.75-.362l-.004.021c-.055.314-.698 3.976-.972 5.73l-.003.03zM12.18 7.05a2.179 2.179 0 00-.792.384l-.111.09a470.09 470.09 0 00-4.815 3.95c-2 1.689-2.786 4.358-1.956 6.644 1.047 2.87 3.196 3.246 4.951 3.255l6.524-.081c.88 0 2.208-.662 2.216-2.085 0-.056-.002-.112-.005-.167 1.078-.002 2.193-.704 2.2-2.046 0-.152-.015-.306-.046-.46.582-.35.939-.967.943-1.731.005-.784-.334-1.43-.934-1.792a2.19 2.19 0 00.056-.492c0-1.244-.907-2.119-2.206-2.127l-3.572-.053a2.21 2.21 0 00.295-.845 2.202 2.202 0 00-.43-1.64 2.226 2.226 0 00-1.769-.874c-.187 0-.373.023-.55.07zm.682 1.187a.97.97 0 01.456 1.729l-1.763 1.34a.132.132 0 00.08.237l6.563.099c.257.001.964.062.964.878 0 .815-.89.816-.974.816l-5.537.114c-.047 0-.137.086-.134.199.003.112.033.21.133.221l6.478.091c.256 0 .916.002.912.836-.005.774-.722.8-.893.8l-6.507.076c-.073 0-.133.112-.133.186-.001.073.058.23.132.23l5.552.112h.017c.267.006.937.022.934.787-.005.782-.886.803-.973.803l-6.241.098c-.075 0-.134.128-.134.201-.002.074.057.228.13.228l4.04.063c.254.006.987.07.984.82-.005.75-.903.842-.983.842l-6.501.08c-1.742-.008-3.052-.425-3.785-2.43-.65-1.798-.015-3.911 1.587-5.264a486.995 486.995 0 014.724-3.875l.155-.126a.939.939 0 01.351-.169.897.897 0 01.233-.03c.044 0 .09.004.133.008z"/></svg>
