<svg xmlns="http://www.w3.org/2000/svg" viewBox="0 0 60 14">
    <path fill="currentColor" d="M20.05 1.07a2.31 2.31 0 0 0-1.2-.32c-.42 0-.84.1-1.2.32a2.43 2.43 0 0 0-.85 3.28c.2.35.5.65.85.86a2.4 2.4 0 0 0 3.58-2.06 2.41 2.41 0 0 0-1.18-2.08Zm-11.37.48A2.3 2.3 0 0 0 7.15 1H4.46l2.7 12h4.59L9.48 2.93a2.3 2.3 0 0 0-.8-1.38ZM4.2 1H0v12h4.2V1Zm12.01 0h-4.2v12h4.2V1Zm9.49 0h-4.22v12h4.21V1Zm8.56 0h-4.63a156.32 156.32 0 0 0-1.43 2.35l-.73 1.2a131 131 0 0 0-.98 1.62c-.17.25-.27.53-.28.83.02.3.12.59.28.85l.36.59a146.34 146.34 0 0 0 2.05 3.37l.73 1.2h4.63a366.19 366.19 0 0 1-1.64-2.7 234.8 234.8 0 0 1-1.67-2.75 1.26 1.26 0 0 1-.2-.56 1 1 0 0 1 .18-.54L34.26 1Zm3.36 1.49h3.87V13h1.77V2.49h3.86V1h-9.5v1.49ZM56.45 1l-2.52 7.47a65.94 65.94 0 0 0-.93 3.14 78.92 78.92 0 0 0-.96-3.2L49.57 1h-1.9l4.16 12h2.2l4.18-12h-1.76Z"/>
</svg>