<svg viewBox="0 0 24 24" xmlns="http://www.w3.org/2000/svg"><path fill="currentColor" d="M10.08 0l-2.8 4 2.8 4h2.44l-2.1-3H12a8 8 0 11-5.776 2.465L5.01 5.848A9.971 9.971 0 002 13c0 5.523 4.477 10 10 10s10-4.477 10-10S17.523 3 12 3h-1.58l2.1-3h-2.44z"/><path fill="currentColor" d="M8.12 13.449h.786c.712 0 1.147.343 1.147.896 0 .541-.461.915-1.125.915-.68 0-1.134-.339-1.173-.875h-1.27c.057 1.195 1.015 1.978 2.43 1.978 1.446 0 2.492-.805 2.492-1.916 0-.835-.545-1.415-1.415-1.512v-.08c.707-.144 1.169-.716 1.169-1.45 0-.997-.936-1.709-2.237-1.709-1.384 0-2.277.756-2.32 1.956H7.83c.035-.55.443-.897 1.059-.897.62 0 1.015.325 1.015.835 0 .519-.409.87-1.01.87H8.12v.989zm6.868 2.914c1.57 0 2.518-1.244 2.518-3.34 0-2.105-.962-3.327-2.518-3.327-1.56 0-2.518 1.222-2.518 3.322 0 2.105.95 3.345 2.518 3.345zm0-1.082c-.725 0-1.173-.782-1.173-2.263 0-1.472.453-2.237 1.173-2.237.725 0 1.174.76 1.174 2.237 0 1.486-.444 2.263-1.174 2.263z"/></svg>
