<svg xmlns="http://www.w3.org/2000/svg" viewBox="0 0 24 24" fill="currentColor"><path fill-rule="evenodd" clip-rule="evenodd" d="M1 6.78v9.87h3.19V9.8a5.61 5.61 0 0 1 2.1-.54c1.06 0 1.6.59 1.6 1.76v5.63h3.2V10.2c0-1.32-.27-2.3-.82-2.92-.55-.63-1.36-.95-2.44-.95-.71 0-1.37.14-1.97.42a5.6 5.6 0 0 0-1.67 1.19V6.3L1 6.78Zm12.88 8.77c.56.63 1.38.95 2.46.95a4.5 4.5 0 0 0 3.45-1.55v.97c0 .86-.21 1.5-.64 1.93-.42.44-1.14.66-2.15.66-.63 0-1.27-.08-1.94-.23-.65-.16-1.25-.35-1.8-.58l.3 2.53a10.12 10.12 0 0 0 3.89.74c1.12 0 2.1-.21 2.92-.62A4.57 4.57 0 0 0 23 16.09V6.3l-3.19.48v6.33a4.06 4.06 0 0 1-1.97.5c-1.04 0-1.56-.58-1.56-1.74V6.3l-3.23.48v5.85c0 1.31.28 2.29.83 2.92Z"/></svg>