<svg xmlns="http://www.w3.org/2000/svg" style="width:6.2em;height:2.6em" viewBox="0 0 62 26">
    <path d="M49.000785 1c-6.62700228 0-12.00078456 5.37221314-12.00078456 12.0002615C37.00000044 19.6277869 42.37378272 25 49.000785 25c6.6264792 0 11.9992154-5.3722131 11.9992154-11.9997385C61.0000004 6.37221314 55.6272642 1 49.000785 1zm2.2508705 18h-4.2516551v-8.84822114l-1.7094404-.0020476V7h5.9610955v12zM31.0878023 13.55918018c-.2517074-.42642875-.2661333-.68861697-.02338-1.10029556L34.399462 7h-4.6267395s-2.7797248 4.54205453-3.1597731 5.17316245c-.3764003.63027925-.3601505 1.02273292.0154208 1.67041405C27.0084185 14.49042897 29.7727225 19 29.7727225 19h4.6267395s-3.2751804-5.37353258-3.3116597-5.44081982M21.5941377 19h4.2077247V7h-4.2077247M18.9405537 6.77010873c-1.3163763 0-2.3817762 1.07539896-2.3817762 2.40310754 0 1.32687533 1.0653999 2.4056073 2.3817762 2.4056073 1.3185428 0 2.3884423-1.07873197 2.3884423-2.4056073 0-1.32770858-1.0698995-2.40310754-2.3884423-2.40310754M12.0635332 19h4.2052375V7h-4.2052375M0 19h4.19744416V7H0M9.50872938 8.92796177C9.29333553 7.82832914 8.33144198 7 7.17852938 7H4.47507953l2.71654925 12h4.56969912L9.50872938 8.92796177z"/>
</svg>
