<svg xmlns="http://www.w3.org/2000/svg" viewBox="0 0 69 24" fill="none"><path fill="#073B84" d="M0 0h69v24H0z"/><path fill="#fff" d="M6 5.997h4.236v12H6v-12Zm4.49 0 2.722 12h4.61l-2.28-10.073a2.296 2.296 0 0 0-.808-1.378 2.325 2.325 0 0 0-1.54-.549H10.49Zm7.587 12h4.235v-12h-4.235v12Zm9.542 0h4.236v-12h-4.236v12Zm12.667-12h-4.661c-.272.44-.516.837-.731 1.192l-.706 1.158-.74 1.208c-.238.388-.445.73-.62 1.023-.177.293-.299.49-.367.591-.17.244-.267.531-.28.828.025.3.121.59.28.845.068.101.19.298.366.592a243.264 243.264 0 0 0 1.36 2.222c.256.411.491.794.707 1.149.215.355.459.752.731 1.192h4.66l-.85-1.395c-.25-.41-.516-.845-.8-1.301a244.664 244.664 0 0 1-1.428-2.332 8.412 8.412 0 0 0-.255-.414 1.241 1.241 0 0 1-.196-.558.995.995 0 0 1 .179-.54l3.35-5.46ZM24.983 10.527a2.378 2.378 0 0 1-2.395-2.395 2.297 2.297 0 0 1 .32-1.198 2.406 2.406 0 0 1 3.272-.86c.355.208.652.504.86.86.215.362.326.776.321 1.197a2.396 2.396 0 0 1-1.18 2.075 2.296 2.296 0 0 1-1.198.32Z"/><path fill="#B2CFF5" d="M43.096 7.487h3.91V18h1.792V7.487h3.892V6h-9.594v1.487ZM62.114 6l-2.543 7.47a59.795 59.795 0 0 0-.76 2.502l-.179.64a95.445 95.445 0 0 0-.573-1.984 25.23 25.23 0 0 0-.4-1.225L55.165 6h-1.913l4.2 12h2.22l4.216-12h-1.775Z"/></svg>