<svg xmlns="http://www.w3.org/2000/svg" viewBox="0 0 55 24"><path fill="#fff" d="M0 5.997h4.235v12H0zm4.49 0 2.722 12h4.61L9.541 7.923a2.3 2.3 0 0 0-.808-1.378 2.33 2.33 0 0 0-1.54-.549zm7.587 12h4.236v-12h-4.236zm9.542 0h4.236v-12h-4.236zm12.667-12h-4.661q-.408.66-.731 1.192l-.706 1.158-.74 1.208q-.357.583-.62 1.023-.265.44-.367.591c-.17.244-.267.531-.28.828.025.3.121.59.28.845q.102.151.366.592t.621 1.022.74 1.2.706 1.149.731 1.192h4.66l-.85-1.395q-.375-.616-.8-1.301a245 245 0 0 1-1.428-2.332 8 8 0 0 0-.255-.414 1.24 1.24 0 0 1-.196-.558 1 1 0 0 1 .179-.54zM18.983 10.527a2.378 2.378 0 0 1-2.395-2.395 2.3 2.3 0 0 1 .32-1.198 2.406 2.406 0 0 1 3.272-.86c.355.208.652.504.86.86.215.362.326.776.321 1.197a2.396 2.396 0 0 1-1.18 2.075 2.3 2.3 0 0 1-1.198.32"/><path fill="#00B3C7" d="M49.296 3.833a8.91 8.91 0 0 1 4.73 4.73 8.7 8.7 0 0 1 .688 3.447 8.6 8.6 0 0 1-.688 3.43 8.92 8.92 0 0 1-4.73 4.731 8.7 8.7 0 0 1-3.447.688 8.7 8.7 0 0 1-3.447-.688 8.8 8.8 0 0 1-2.817-1.906 9 9 0 0 1-1.897-2.825A8.6 8.6 0 0 1 37 12.01a8.7 8.7 0 0 1 .688-3.447 9 9 0 0 1 1.897-2.825 8.8 8.8 0 0 1 2.817-1.905 8.7 8.7 0 0 1 3.447-.688 8.7 8.7 0 0 1 3.447.688m-.663 14.722a7.1 7.1 0 0 0 2.27-1.516 7.023 7.023 0 0 0 2.071-5.03 7 7 0 0 0-.547-2.766 7.1 7.1 0 0 0-1.524-2.27 7.2 7.2 0 0 0-2.27-1.533 7 7 0 0 0-2.784-.555 6.9 6.9 0 0 0-2.767.555 7.2 7.2 0 0 0-3.804 3.803 6.9 6.9 0 0 0-.554 2.767c-.007.95.182 1.893.554 2.767.36.846.88 1.615 1.533 2.262a7.1 7.1 0 0 0 2.27 1.516 7 7 0 0 0 2.768.547 7.1 7.1 0 0 0 2.784-.547m-6.654-5.55a1.3 1.3 0 0 1-.389-.945 1.34 1.34 0 0 1 .39-.978 1.28 1.28 0 0 1 .952-.398 1.36 1.36 0 0 1 .986.398 1.32 1.32 0 0 1 .406.978 1.28 1.28 0 0 1-.406.944 1.36 1.36 0 0 1-.986.398 1.28 1.28 0 0 1-.953-.398m6.736-2.9q.017-.051.067 0l.398 1.077a.13.13 0 0 0 .132.1l1.176.032q.033 0 .034.025a.1.1 0 0 1-.034.058l-.845.73a.125.125 0 0 0-.083.165l.299 1.077q0 .083-.05.083l-.978-.646a.3.3 0 0 0-.198 0l-.928.646q-.067 0-.05-.083l.298-1.077a.18.18 0 0 0-.083-.166l-.877-.729a.13.13 0 0 1-.017-.058q0-.025.017-.025l1.176-.033a.14.14 0 0 0 .149-.1z"/></svg>