<svg width="36" height="36" viewBox="0 0 36 36" fill="none" xmlns="http://www.w3.org/2000/svg">
<rect x="3.46155" y="3.46155" width="29.0769" height="29.0769" fill="white"/>
<path fill-rule="evenodd" clip-rule="evenodd" d="M0 0H36V36H0V0ZM12.5812 16.5992C12.9026 16.3864 13.2789 16.2718 13.6642 16.2692H16.0447V28.2772H12.7447V20.1357L9.91673 22.2637L7.08874 20.1357V24.3857L3.80773 26.8517V16.2692H6.16823C6.55361 16.2718 6.9299 16.3864 7.25123 16.5992C7.52373 16.7682 9.74673 18.6552 9.91623 18.7992C10.0852 18.6537 12.3087 16.7667 12.5812 16.5992ZM16.5222 16.2692H20.2292L20.4518 16.6324L20.452 16.6328L20.4527 16.634C21.9883 19.1401 21.9999 19.159 22.2512 19.5862C22.3703 19.7396 22.4358 19.9278 22.4376 20.122C22.4394 20.3162 22.3775 20.5056 22.2612 20.6612C22.0167 21.0672 20.2292 23.9902 20.2292 23.9902H16.5222L18.6657 20.4762C18.7413 20.3732 18.781 20.2482 18.7785 20.1204C18.7761 19.9927 18.7317 19.8692 18.6522 19.7692C18.6282 19.7267 16.5222 16.2692 16.5222 16.2692ZM31.8392 18.2592C31.7147 18.0467 30.6112 16.2692 30.6112 16.2692H22.6772L24.4102 19.1752H28.5887L26.8637 22.0017L28.7872 25.2302L26.9327 28.2802H30.3197C30.6978 27.6616 31.2058 26.8081 31.5379 26.2502C31.6841 26.0045 31.7962 25.8161 31.8482 25.7302C31.965 25.5742 32.0273 25.3842 32.0256 25.1893C32.0239 24.9945 31.9582 24.8056 31.8387 24.6517C31.7524 24.5048 31.4765 24.062 31.1548 23.5457C30.8425 23.0446 30.4872 22.4743 30.2202 22.0382C30.2202 22.0382 31.6787 19.6212 31.8487 19.3382C31.9656 19.1821 32.028 18.992 32.0263 18.7971C32.0246 18.6021 31.9588 18.4131 31.8392 18.2592ZM24.2067 22.4378C23.6847 23.2908 22.8112 24.7197 22.6477 24.9987C22.5326 25.1469 22.4693 25.3288 22.4676 25.5164C22.4659 25.704 22.5259 25.887 22.6383 26.0372C22.8017 26.3092 23.6822 27.7497 24.2067 28.6077C24.7312 27.7497 25.6112 26.3077 25.7752 26.0372C25.8876 25.887 25.9476 25.704 25.9458 25.5164C25.9441 25.3288 25.8808 25.1469 25.7657 24.9987C25.6022 24.7197 24.7307 23.2908 24.2067 22.4378ZM8.30775 7.77747V14.56H10.5338V7.77747H8.30775ZM14.8425 14.56L13.5623 8.85694C13.5008 8.55505 13.3372 8.28354 13.0991 8.08797C12.8614 7.88383 12.5574 7.7734 12.2441 7.77747H10.8777L12.4063 14.56H14.8425ZM15.1769 7.77747V14.56H17.4029V7.77747H15.1769ZM18.4013 10.1752C18.6083 10.2963 18.8443 10.3591 19.0841 10.3568C19.084 10.3568 19.084 10.3568 19.0839 10.3568H19.0842C19.0842 10.3568 19.0841 10.3568 19.0841 10.3568C19.3226 10.3596 19.5573 10.2968 19.7626 10.1752C19.9648 10.0561 20.1327 9.88662 20.2498 9.68325C20.371 9.47616 20.4337 9.24016 20.4315 9.00026C20.4341 8.76182 20.3713 8.52723 20.2498 8.32201C20.1314 8.12085 19.9637 7.95317 19.7626 7.8348C19.5573 7.7135 19.3227 7.65071 19.0842 7.65328C18.8444 7.65109 18.6084 7.71383 18.4013 7.8348C18.1981 7.95214 18.0286 8.11996 17.9093 8.32201C17.7877 8.52717 17.7249 8.7618 17.7276 9.00026C17.7252 9.24018 17.788 9.47622 17.9093 9.68325C18.0273 9.88752 18.197 10.0572 18.4013 10.1752ZM20.7754 7.77747V14.56H23.0016V7.77747H20.7754ZM25.9631 11.718C25.8738 11.5686 25.8261 11.4905 25.8198 11.484H25.8195C25.7511 11.3924 25.7113 11.2828 25.705 11.1687C25.709 11.0601 25.742 10.9545 25.8005 10.8629L27.6924 7.77731H25.2466C25.0938 8.0259 24.9552 8.25198 24.8308 8.45557C24.707 8.65936 24.575 8.8775 24.4347 9.10995C24.2944 9.3424 24.1557 9.57008 24.0188 9.79298C23.8818 10.0159 23.7624 10.2085 23.6605 10.3709C23.5586 10.5333 23.4885 10.6464 23.4503 10.7101C23.3598 10.8468 23.3071 11.005 23.2976 11.1687C23.3095 11.3393 23.3654 11.5039 23.4599 11.6464C23.498 11.7038 23.5665 11.8153 23.6654 11.9807C23.764 12.1461 23.8817 12.3387 24.0188 12.5587C24.1558 12.7786 24.2945 13.0047 24.4347 13.2369C24.5746 13.4694 24.7066 13.6859 24.8308 13.8865C24.955 14.0871 25.0936 14.3116 25.2466 14.56H27.6924C27.5137 14.2671 27.3545 14.0044 27.2147 13.7719C27.0743 13.5393 26.9246 13.2925 26.7655 13.0315C26.6064 12.7705 26.4551 12.5238 26.3118 12.2912C26.1686 12.0585 26.0524 11.8675 25.9631 11.718Z" fill="black"/>
</svg>
