<svg xmlns="http://www.w3.org/2000/svg" viewBox="0 0 178 24">
  <title>NRK Tegnspråk</title>
  <path id="nrk-tv-tegnspraak__nrk" d="M43.2742596 12.74557357c-.3356098-.56857166-.3548444-.91815595-.0311732-1.46706074L47.6898059 4h-6.168986s-3.7062998 6.0560727-4.2130308 6.89754993c-.5018671.84037234-.4802006 1.3636439.0205611 2.22721877C37.8350812 13.9872386 41.5208199 20 41.5208199 20h6.168986s-4.3669072-7.1647101-4.4155463-7.25442643  M30.6477692 20h5.6102996V4h-5.6102996z  M27.1274035 3.69c-1.746365 0-3.1597731 1.42667336-3.1597731 3.1880722 0 1.7602934 1.4134081 3.1913885 3.1597731 3.1913885 1.749239 0 3.1686165-1.4310951 3.1686165-3.1913885C30.29602 5.11667336 28.8766425 3.69 27.1274035 3.69  M18.004034 20h5.6069833V4H18.004034z  M2 20h5.59659222V4H2z  M14.648378 6.5706157C14.3611862 5.10443885 13.0786614 4 11.54144467 4h-3.6045998l3.62206566 16h6.09293217L14.648378 6.5706157z"/>
  <path id="nrk-tv-tegnspraak__tegnspraak" d="M164.44769 4.30470366h1.712551v7.00457754h3.112917l4.136604-7.00457754h1.912211l-4.558567 7.67148414 5.359953 8.3390769h-1.957495l-4.892706-7.5376912h-3.112917v7.5376912h-1.712551V4.30470366  M155.441021 3.63779707c.645637 0 1.023688-.42264863 1.023688-1.06691333 0-.60035315-.378051-.95644834-1.023688-.95644834-.622995 0-1.001046.3993206-1.001046 1.02231566 0 .64563694.400693 1.001046 1.001046 1.001046zm2.736238 10.54151533l-2.736238-7.85056096-2.735552 7.85056096h5.47179zM155.441021.63534517c1.200706 0 2.090601.7787438 2.090601 1.93553857 0 .88852267-.46656 1.5334735-1.178064 1.82301524l5.825141 15.92136572h-1.82233l-1.69128-4.579837h-6.448136l-1.6459969 4.579837h-1.8449711l5.759274-15.92136572c-.690235-.26689986-1.112197-.8892088-1.112197-1.73450603 0-1.17875054.889894-2.02404778 2.067959-2.02404778z  M137.5669636 5.81622137v6.65054073h2.9585404c2.6683125 0 4.0686791-1.2020785 4.0686791-3.4251005 0-2.13451278-1.1561087-3.22544023-3.7571816-3.22544023h-3.2700379zm3.3139495-1.5115177c3.7592399 0 5.4484621 1.77910368 5.4484621 4.60316493 0 2.0014059-.8226553 3.5588935-2.6902682 4.4474162l3.6021189 6.9599799h-1.868299l-3.4010864-6.5592871c-.5132162.1111511-1.0456437.1550627-1.7125502.1550627h-2.6923267v6.4042244h-1.711178V4.30470366h5.0251275z  M123.5814964 5.81622137v6.67181043h3.0244077c2.6683125 0 3.9589002-1.2007064 3.9589002-3.37981678 0-2.17979654-1.1334667-3.29199365-3.7578677-3.29199365h-3.2254402zm-1.711178-1.5115177h5.0470832c3.6261331 0 5.359953 1.80105945 5.359953 4.7589137 0 2.95716813-1.7797898 4.89202053-5.6268529 4.89202053h-3.0690053v6.3596268h-1.711178V4.30470366z  M109.7524304 17.069927c1.4456504 1.2892156 2.9571681 2.0446314 4.6470765 2.0446314 2.0007198 0 3.5136097-1.0449576 3.5136097-2.9557959 0-1.6912806-.7780577-2.4473825-3.71327-3.3372774-3.4909679-1.0662273-4.8707509-2.1338267-4.8707509-4.51328354 0-2.75819393 2.2031245-4.29303965 5.1150089-4.29303965 2.0460035 0 3.7818818.75678806 5.1150088 2.29094767l-.9996737 1.04495755c-1.1567948-1.3118574-2.6909544-1.8676129-4.0926933-1.8676129-1.8895686 0-3.335219.8892088-3.335219 2.69095438 0 1.84634323 1.3784108 2.31290343 4.1139629 3.24739603 3.2679795 1.1108248 4.4474161 2.20038 4.4474161 4.5798369 0 2.8233751-2.1345127 4.5818953-5.3373111 4.5818953-2.2689918 0-4.2470697-.9784041-5.581569-2.4027849l.9784041-1.1108249  M94.2742969 4.30470366h1.6013991l8.5847071 12.92028604V4.30470366h1.7125503V20.3152647h-1.5581738L95.9648914 7.3743951v12.9408696h-1.6905945V4.30470366  M85.7348736 12.1333088h5.2254739v5.936292c-1.8010595 2.1132431-4.2024721 2.513936-5.8704247 2.513936-5.2254739 0-7.2495217-3.6034912-7.2495217-8.3624049 0-4.8467368 2.5578475-8.20597 7.2268798-8.20597 4.3369512 0 5.7599597 2.3355453 5.8271992 4.76028594h-1.7571479c-.0439115-1.71323637-1.2013924-3.18015643-4.1359186-3.18015643-3.5808493 0-5.3379972 2.93384014-5.3379972 6.6031986 0 4.3595931 1.9128966 6.8721568 5.4491483 6.8721568 1.7784175 0 3.2240679-.622995 4.3355789-1.7784176v-3.6920003h-3.71327v-1.4669201  M65.8312796 4.30470366h10.0070295v1.5341596h-8.2944792V11.354565h7.5617053v1.5341596h-7.5617053v5.9163946h8.4728699v1.5101455H65.8312796V4.30470366  M56.9563447 5.83886326h-5.04776933v-1.5341596H63.7173504v1.5341596h-5.02649966V20.3152647H56.9563447V5.83886326"/>
</svg>
