<svg xmlns="http://www.w3.org/2000/svg" viewBox="0 0 15 15"><title>Yr</title><path d="M7.5 14.9C3.413 14.9.1 11.587.1 7.5S3.413.1 7.5.1s7.4 3.313 7.4 7.4-3.313 7.4-7.4 7.4zm4.47-5.09c-.255-.275-.66-.827-.66-.827.357-.1.68-.283.934-.54.41-.407.633-.985.63-1.607.006-.646-.277-1.226-.725-1.59-.447-.368-1.022-.54-1.62-.54H9.473c-.99.003-1.79.804-1.793 1.795v4.428h1.196V9.672c0-.325.273-.598.598-.598h.477l1.378 1.686c.097.094.225.155.367.167h.026l.026.002.025-.002h.708l.002-.967s-.292.083-.51-.15zM6.904 4.9H5.72V6.83c-.022.72-.696.953-1.234.96-.614-.008-1.26-.35-1.26-1.284l-.002-1.61H2.058v1.61c0 .73.253 1.354.73 1.804.433.408 1.026.636 1.674.647h.048c.435-.008 1.074-.292 1.198-.543v.533c0 .706-.898 1.166-1.14 1.287l.018.02-.017.01.75.908c.435-.254 1.58-.76 1.584-2.356V4.9zm3.733 2.978H9.474c-.21 0-.41.086-.598.152V6.5c0-.324.273-.597.598-.598h1.055c.372 0 .67.11.856.265.183.158.287.344.293.67-.003.35-.115.59-.282.76-.17.168-.41.28-.76.28z"/></svg>