<svg viewBox="0 0 90 40" style="width:9.0em;height:4.0em" xmlns="http://www.w3.org/2000/svg">
    <path fill="currentColor" fill-rule="evenodd" d="M41.27 20.75c-.33-.57-.35-.92-.03-1.47L45.7 12h-6.17l-4.21 6.9c-.5.84-.48 1.36.02 2.22.5.87 4.2 6.88 4.2 6.88h6.16l-4.42-7.25M28.65 28h5.6V12h-5.6zM25.13 11.69a3.17 3.17 0 0 0-3.16 3.19c0 1.76 1.41 3.19 3.16 3.19a3.18 3.18 0 0 0 3.17-3.2 3.18 3.18 0 0 0-3.17-3.18M16 28h5.61V12h-5.6zM0 28h5.6V12H0zM12.65 14.57A3.17 3.17 0 0 0 9.55 12H5.93l3.62 16h6.1l-3.01-13.43zM70.9 35.05c-8.36 0-15.17-6.8-15.17-15.17 0-8.37 6.8-15.17 15.17-15.17 8.37 0 15.18 6.8 15.18 15.17 0 8.36-6.8 15.17-15.18 15.17zM70.9 1A18.9 18.9 0 0 1 89.8 19.88 18.9 18.9 0 0 1 70.9 38.76a18.9 18.9 0 0 1-18.87-18.88A18.9 18.9 0 0 1 70.9 1zm7.49 17.08a.38.38 0 0 1-.32-.22l-.91-2.38c-.04-.11-.12-.11-.17 0l-.9 2.38a.39.39 0 0 1-.32.22l-2.53.14c-.13 0-.16.08-.06.16l1.97 1.6c.1.07.16.24.13.37l-.66 2.44c-.03.13.03.17.13.1l2.13-1.38c.11-.07.29-.07.4 0l2.12 1.38c.1.07.17.03.14-.1l-.66-2.44a.4.4 0 0 1 .12-.38l1.97-1.6c.1-.07.08-.15-.05-.15l-2.53-.14zM64.6 17a2.9 2.9 0 1 0 0 5.8 2.9 2.9 0 0 0 0-5.8z"/>
</svg>
