<svg xmlns="http://www.w3.org/2000/svg" viewBox="0 0 196 18">
  <title>NRK Folkemusikk</title>
  <path id="nrk-radio-folkemusikk__nrk" d="M42.2742596 9.74557357c-.3356098-.56857166-.3548444-.91815595-.0311732-1.46706074L46.6898059 1h-6.168986s-3.7062998 6.0560727-4.2130308 6.89754993c-.5018671.84037234-.4802006 1.3636439.0205611 2.22721877C36.8350812 10.9872386 40.5208199 17 40.5208199 17h6.168986s-4.3669072-7.1647101-4.4155463-7.25442643  M29.6477692 17h5.6102996V1h-5.6102996z  M26.1274035.69c-1.746365 0-3.1597731 1.42667336-3.1597731 3.1880722 0 1.7602934 1.4134081 3.1913885 3.1597731 3.1913885 1.749239 0 3.1686165-1.4310951 3.1686165-3.1913885C29.29602 2.11667336 27.8766425.69 26.1274035.69  M17.004034 17h5.6069833V1H17.004034z  M1 17h5.59659222V1H1z  M13.648378 3.5706157C13.3611862 2.10443885 12.0786614 1 10.54144467 1h-3.6045998l3.62206566 16h6.09293217L13.648378 3.5706157z"/>
  <path id="nrk-radio-folkemusikk__folkemusikk" d="M183.70735 1h1.706024v6.9998285h3.102857L192.637639 1h1.905767l-4.542784 7.6666095L195.341694 17h-1.950914l-4.874549-7.5335277h-3.102857V17h-1.706024V1  M170.18913 1h1.706023v6.9998285h3.102857L179.120103 1h1.905082l-4.542784 7.6666095L181.823473 17h-1.950914l-4.874549-7.5335277h-3.102857V17h-1.706023V1  M164.588118 17h1.706708V1h-1.706708z  M151.5200032 13.5996227c1.4406118 1.2853323 2.9475768 2.0384727 4.6317108 2.0384727 1.994694 0 3.500974-1.0404419 3.500974-2.9468927 0-1.6834501-.775714-2.4372746-3.700717-3.32448906-3.4784-1.06301562-4.8526593-2.1267153-4.8526593-4.4976369 0-2.74783384 2.1937523-4.27668837 5.0968653-4.27668837 2.037789 0 3.767071.75314042 5.096182 2.282679l-.997346 1.041126c-1.151259-1.30722194-2.680797-1.8619875-4.076946-1.8619875-1.883877 0-3.323805.88653042-3.323805 2.68148087 0 1.8394138 1.374259 2.30456863 4.099519 3.23556237 3.257452 1.10816303 4.431284 2.1930683 4.431284 4.5646739 0 2.8135028-2.126715 4.565358-5.317814 4.565358-2.26079 0-4.2322252-.975457-5.5620208-2.3941793l.974773-1.107479  M138.1515898.88037395v9.83870895c0 3.3012313 1.6170971 4.8526596 4.2766883 4.8526596 3.0132458 0 4.1214088-1.7067079 4.1214088-4.8526596V.88037395h1.6841341V10.9181419c0 4.1002031-1.9946934 6.1831391-5.8725799 6.1831391-3.5447535 0-5.9163592-1.9276564-5.9163592-6.1831391V.88037395h1.7067079  M131.9657144 17l-1.3523693-13.1339393L126.0048919 17h-1.4180382l-4.565358-13.1339393L118.6923841 17h-1.6403548l1.5958915-16h2.0165831l4.6529165 13.5105471L130.0154843 1h1.9502301l1.6170971 16h-1.6170971  M104.2493262 1h9.972099v1.5331847h-8.2653911v5.51123307h7.5334563v1.5331847h-7.5334563v5.91116443h8.4418763V17h-10.1485842V1  M90.4013929 1h1.7067078v6.9998285h3.1028565L99.3323659 1h1.9050827l-4.5421002 7.6666095L102.0350524 17h-1.9495461l-4.8745491-7.5335277h-3.1028565V17h-1.7067078V1  M80.8650346 1v14.4661293h7.4452137V17h-9.1519216V1h1.7067079  M69.8148708 15.5717425c3.2129887 0 5.3178144-2.1937524 5.3178144-6.89113225 0-4.23290908-2.1499731-6.51558807-5.3178144-6.51558807-3.3025994 0-5.4074251 2.32714232-5.4074251 6.51558807 0 4.65291655 2.1499731 6.89113225 5.4074251 6.89113225zM69.8805397.59238838c4.0776295 0 7.0470959 2.76972347 7.0470959 8.08822187 0 5.85000625-3.0583931 8.42067075-7.1579122 8.42067075-4.1432983 0-7.1791178-2.6144438-7.1791178-8.42067075 0-5.3184984 3.0583931-8.08822188 7.2899341-8.08822188z  M52.25801165 1h9.48437046v1.5331847h-7.7776626v5.5997256h6.86924257v1.51191906H53.9647195V17h-1.70670785V1"/>
</svg>
