<svg xmlns="http://www.w3.org/2000/svg" viewBox="0 0 83 34">
  <title>NRK 2</title>
  <path id="nrk-tv-2__nrk" d="M42.2742596 17.74557357c-.3356098-.56857166-.3548444-.91815595-.0311732-1.46706074L46.6898059 9h-6.168986s-3.7062998 6.0560727-4.2130308 6.89754993c-.5018671.84037234-.4802006 1.3636439.0205611 2.22721877C36.8350812 18.9872386 40.5208199 25 40.5208199 25h6.168986s-4.3669072-7.1647101-4.4155463-7.25442643  M29.6477692 25h5.6102996V9h-5.6102996z  M26.1274035 8.69c-1.746365 0-3.1597731 1.42667336-3.1597731 3.1880722 0 1.7602934 1.4134081 3.1913885 3.1597731 3.1913885 1.749239 0 3.1686165-1.4310951 3.1686165-3.1913885 0-1.76139884-1.4193775-3.1880722-3.1686165-3.1880722  M17.004034 25h5.6069833V9H17.004034z  M1 25h5.59659222V9H1z  M16.6505162 24.9896141L13.648378 11.5706157C13.3611862 10.10443885 12.0786614 9 10.54144467 9h-3.6045998l3.62206566 16h6.09293217l-.0013265-.0103859"/>
  <path id="nrk-tv-2__2" d="M66.0014675 1C57.16258528 1 50 8.1623595 50 16.9992098c0 8.8354958 7.16258528 15.9987583 16.0014675 15.9987583C74.8358344 32.9979681 82 25.8347056 82 16.9992098 82 8.1623595 74.8358344 1 66.0014675 1m5.6645236 24.1720749H60.4107225l.0027895-.8375357-.0027895.0027895c0-2.489594 1.1207148-4.715584 2.8767571-6.2107351l.0041843-.0083684 3.4841888-2.9777497c.3786858-.3291564.4958483-.626234.4958483-.9463247 0-.5627737-.3626458-1.0941661-1.1248992-1.0941661h-5.7360793V8.8265304l6.0192219-.00278947c2.9513785 0 5.1677019 1.97842526 5.1677019 4.92758297 0 1.6932029-.5788384 2.955434-2.1305438 4.2741517l-3.1738476 2.8194478h5.3727362v4.3271515z"/>
</svg>
