<svg xmlns="http://www.w3.org/2000/svg" viewBox="0 0 15 15"><path d="M4 9.47l.4-.42c.27.24.56.36.9.36.22 0 .4-.04.56-.16.15-.12.23-.3.23-.5 0-.34-.24-.5-.66-.5-.17 0-.28 0-.35.02l.1-.58c.27 0 .5-.07.7-.2.2-.13.3-.3.3-.52 0-.12-.04-.2-.1-.27-.1-.08-.2-.1-.36-.1-.26 0-.55.1-.87.24l-.2-.44c.44-.27.87-.4 1.3-.4.28 0 .52.07.7.2.17.15.26.34.26.6 0 .24-.1.46-.25.65-.17.2-.4.33-.68.4v.03c.25.03.44.1.57.25.1.14.18.32.18.54 0 .4-.15.73-.46.97-.3.25-.68.37-1.1.37-.5 0-.9-.15-1.2-.5zM8.13 8c-.04.2-.06.43-.06.63 0 .27.04.46.12.58.06.14.2.2.37.2.46 0 .77-.46.93-1.4.05-.2.07-.42.07-.6 0-.53-.18-.78-.52-.78-.47 0-.78.47-.94 1.4zM7.4 8c.1-.67.3-1.17.6-1.5.32-.33.7-.5 1.18-.5.37 0 .65.12.85.36.2.23.3.57.3 1 0 .22-.03.42-.06.6-.2 1.36-.8 2.04-1.78 2.04-.8 0-1.17-.46-1.17-1.37 0-.2.02-.4.05-.62zM9 .5c0-.28-.18-.37-.4-.2L6.1 2.2c-.22.16-.22.43 0 .6l2.5 1.9c.22.16.4.08.4-.2v-4zm-3 0c0-.28-.18-.37-.4-.2L3.1 2.2c-.22.16-.22.43 0 .6l2.5 1.9c.22.16.4.08.4-.2v-4z"/><path fill="none" stroke="currentColor" stroke-linecap="round" d="M3.15 11.96C4.2 13.1 5.7 13.82 7.4 13.82c3.17 0 5.75-2.58 5.75-5.76 0-3.18-2.58-5.76-5.76-5.76"/></svg>