<svg xmlns="http://www.w3.org/2000/svg" style="width:10.5em;height:2.6em" viewBox="0 0 105 26">
    <path d="M65.293966 11.8405315c-1.7179568-.4605017-1.7108173-.8835207-1.7108173-1.0218497 0-.7264504.4533622-1.0878907 1.3458074-1.0878907.402493 0 1.115557.103524 1.368119.793384.085675.252562.266841.455147.506017.566703.238283.113341.513156.12405.755901.033021.256132-.08032.472996-.268626.591691-.521188.111556-.238282.121373-.510478.023204-.746084-.475673-1.329743-1.689398-2.126697-3.24493-2.126697-2.002647 0-3.348454 1.234252-3.348454 3.070012 0 .4962.155286 1.439514 1.195877 2.154363.506909.355194 1.070042.510479 2.000862.766611l.025881.005355c1.649239.453362 1.649239.688968 1.649239 1.115557 0 1.129836-1.160178 1.251209-1.65727 1.251209-.694322 0-1.487706-.2855825-1.619788-1.0852134-.04016-.257024-.184736-.4845976-.4042772-.641668-.2195414-.1535005-.497092-.215972-.7550085-.16421-.544391.1035238-.9058313.6140024-.804985 1.13876.246315 1.6465615 1.687614 2.755871 3.58406 2.755871 2.1436533 0 3.642961-1.3377753 3.642961-3.2547475 0-.7808893-.182951-1.244961-.696107-1.775966-.4997696-.519403-1.300293-.920111-2.447977-1.225327zM77.1161874 7.837915c-.5568858 0-1.0111404.453362-1.0111404 1.0093554v5.6357913c0 1.359194-1.377043 1.5091247-1.968734 1.5091247-.5863366 0-1.95267-.1499307-1.95267-1.5091247V8.8472704c0-.5559933-.4515774-1.0093555-1.0084632-1.0093555-.5586707 0-1.0120328.453362-1.0120328 1.009355v5.635791c0 1.085213.4462226 2.037452 1.2565628 2.677335.73002.557778 1.66798.852285 2.716603.852285 1.0593325 0 2.004432-.294507 2.7335597-.8505.8103402-.655948 1.2574552-1.607294 1.2574552-2.679121V8.84727c0-.5559933-.4542546-1.0093555-1.0111404-1.0093555zm9.1306066 6.5523324c0 1.1798125-1.0611174 1.601939-1.9678417 1.601939-.9433146 0-1.95267-.4221265-1.95267-1.601939v-3.019142c0-1.3645487 1.3645486-1.5126946 1.95267-1.5126946.5907987 0 1.9678416.148146 1.9678416 1.5126945v3.019142zM84.2789522 7.837915c-.805878 0-1.553747.178489-2.181136.509586-.1972304-.2373903-.479243-.3819664-.7808896-.3819664-.5586706 0-1.0111403.456932-1.0111403 1.0129252v11.7249447c0 .5568858.4524697 1.0093555 1.0111403 1.0093555.5559934 0 1.0093555-.4524697 1.0093555-1.0093555v-3.123558c.581875.28112 1.237822.4328358 1.95267.4328358 1.066472 0 2.04727-.3275274 2.754979-.9272505.796954-.6621943 1.233359-1.619788 1.233359-2.6951844v-3.019142c0-1.0771814-.44533-2.024958-1.253885-2.6817978-.73002-.5577782-1.676012-.8513927-2.734452-.8513927zm19.4454877 0c-.619357 0-1.199446.158855-1.694753.4462225-.181167-.2695185-.488168-.4462226-.826404-.4462226-.555994 0-1.010248.453362-1.010248 1.009355v8.154271c0 .557778.454254 1.01114 1.010248 1.01114.55867 0 1.012925-.453362 1.012925-1.011141v-5.246685c0-.315033.07318-1.896446 1.508232-1.896446.567595 0 1.012033-.433729 1.012033-.989722 0-.568488-.455147-1.030774-1.012033-1.030774zm-7.588462 3.969596c-.206155 0-3.934791.0169565-3.934791.0169565.024096 0 .015171-.3641176.015171-.3641176 0-1.179813 1.048623-1.60194 1.9491-1.60194.907616 0 1.970518.422126 1.970518 1.601939v.347161zm-1.970519-3.969596c-1.033452 0-2.002647.3284197-2.73713.926358-.797846.6639792-1.235144 1.6224653-1.235144 2.696077v3.0227117c0 1.0852133.446222 2.0374523 1.256562 2.6773355.728235.5577782 1.668872.852285 2.71571.852285 1.758117 0 3.151224-.804093 3.722388-2.147223.00357-.014279.0490843-.310571.0490843-.310571 0-.559563-.454255-1.01471-1.0129256-1.01471-.395353 0-.755901.2338206-.921896.5925835-.373042.771965-1.4082783.8594247-1.836652.8594247-.585444 0-1.9491003-.1499307-1.9491003-1.5091247v-.8335438c.208832 0 5.0949695-.00357 5.0949695-.00357.497092-.084783.8451455-.501554.8451455-.993292V11.46035c0-1.0736117-.439083-2.0320978-1.235144-2.696077-.7326977-.5979383-1.71171-.926358-2.755871-.926358zm-68.198964 5.693994c-.210242-.3484373-.222292-.5626727-.019529-.8990574l2.785636-4.4604833h-3.864545s-2.321802 3.7113366-2.639242 4.2270182c-.314394.5150045-.300821.8356804.01288 1.364904.31744.5285466 2.626361 4.2133408 2.626361 4.2133408h3.864545s-2.735638-4.3907417-2.766108-4.4457224m-7.929708 4.445722h3.514557V8.172368h-3.514557m-2.216441-.1878452c-1.099521 0-1.98941.878714-1.98941 1.9635916 0 1.0841968.889889 1.9656344 1.98941 1.9656344 1.10133 0 1.994978-.8814374 1.994978-1.9656342 0-1.0848776-.893648-1.9635917-1.994978-1.9635917m-5.744122 9.993108h3.5124793V8.172368h-3.512479M0 17.9776313h3.5059704v-9.805263H0M7.9422912 9.747716c-.1799105-.8985156-.9833448-1.5753477-1.9463302-1.5753477H3.737869l2.2690335 9.805263h3.8169012L7.9422912 9.747716zm37.1190504 12.8922945c-5.316296 0-9.6410852-4.3256817-9.6410852-9.6401927 0-5.3180808 4.3247893-9.64287 9.6410852-9.64287 5.3171884 0 9.64287 4.3247892 9.64287 9.64287 0 5.314511-4.3256816 9.6401927-9.64287 9.6401927zm0-21.6400105c-6.613911 0-11.998033 5.3814444-11.998033 11.9998178 0 6.6165885 5.384122 11.9971404 11.998033 11.9971404 6.6165885 0 11.9998178-5.380552 11.9998178-11.9971404C57.0611594 6.3814444 51.67793 1 45.0613416 1z"/>
    <path d="M49.8180744 11.855703c-.082105-.0017848-.172242-.0696106-.2008002-.1427912l-.5800893-1.50734c-.027666-.0731803-.076751-.0731803-.106201 0l-.577412 1.50734c-.029451.0731806-.119588.1410064-.199908.1427913l-1.609079.08746c-.082105.001785-.097277.049085-.033913.100847l1.251208 1.012926c.064256.052654.099061.158855.077642.239176l-.41588 1.552855c-.021419.082105.016956.107986.084782.062471l1.352947-.874596c.067825-.045515.179381-.045515.247207 0l1.352947.874596c.067825.045515.106201.019634.085674-.062471l-.416771-1.552855c-.021419-.08032.014279-.186521.078535-.239175l1.249424-1.012925c.064256-.0517614.049977-.099061-.031236-.100846l-1.609079-.087459zm-8.7575644-.6862903c-1.0156027 0-1.842007.8246194-1.842007 1.842007 0 1.01471.8264043 1.8375445 1.842007 1.8375445 1.016495 0 1.838437-.8228345 1.838437-1.8375446 0-1.0173875-.821942-1.842007-1.838437-1.842007z"/>
</svg>
