<svg xmlns="http://www.w3.org/2000/svg" style="width:12.8em;height:8.7em" viewBox="0 0 128 87">
    <path fill="currentColor" fill-rule="evenodd" d="M62 .27c15.39 0 28 12.58 28 28a28.1 28.1 0 0 1-28 28c-15.42 0-28-12.61-28-28 0-15.42 12.58-28 28-28zm0 51.17c12.7 0 22.87-10.59 22.87-23.26A22.88 22.88 0 0 0 62 5.1c-12.58 0-22.87 10.35-22.87 23.17 0 12.67 10.29 23.17 22.87 23.17zM77.45 25.9c.2 0 .24.15.09.27l-3.47 2.56c-.21.15-.24.3-.15.55l1.24 4c.06.25-.03.25-.19.16l-3.44-2.5c-.15-.13-.36-.16-.57 0l-3.47 2.53c-.15.09-.27.06-.21-.18l1.27-4.01c.06-.22.06-.4-.15-.55l-3.5-2.62c-.1-.06-.1-.21.09-.21h4.28c.21 0 .3-.12.36-.28l1.45-4.19c.1-.27.21-.21.27 0l1.27 4.04c.1.3.24.43.57.43h4.26zm-24.71-2.34a4.52 4.52 0 0 1 4.67 4.66 4.52 4.52 0 0 1-4.67 4.66 4.58 4.58 0 0 1-4.65-4.66 4.58 4.58 0 0 1 4.65-4.66zM66.77 76.84c0 3.5 2.03 5.69 5.6 5.69 2.76 0 4.07-1.04 5.04-2.5l.33 2.01h2.86V65.99h-3.59v9.4c0 2.58-1.03 4.19-3.55 4.19-2.44 0-3.1-1.31-3.1-3.65v-9.94h-3.6v10.85zM84.55 86.9h3.6v-6.29a6.54 6.54 0 0 0 4.73 1.86c4.02 0 6.48-3.29 6.48-8.52 0-5.71-2.68-8.39-6.57-8.39-1.6 0-3.62.76-4.92 2.52l-.43-2.1h-2.89V86.9zm3.6-9.18v-5.74c0-1.95 1.57-3.29 3.85-3.29 2.28 0 3.65 1.58 3.65 5.38 0 3.77-1.52 5.26-3.7 5.26-1.71 0-3.26-.94-3.8-1.6zm30.4 4.32h3.58v-9.7c0-2.04.91-3.28 3.07-3.28.95 0 1.77.15 2.31.3l.3-3.37a5.43 5.43 0 0 0-2.03-.37 4.64 4.64 0 0 0-4.1 2.68l-.37-2.31h-2.77v16.05zM0 82.04h5.62V65.96H0v16.08zm16.02 0h5.54V65.96h-5.54v16.08zm12.56 0h5.65V65.96h-5.65v16.08zm-3.5-16.36c-1.7 0-3.1 1.4-3.1 3.1a3.17 3.17 0 1 0 3.1-3.1zm20.56.28h-6.05s-3.84 6.05-4.23 6.9c-.58.85-.58 1.43 0 2.25.4.85 4.23 6.93 4.23 6.93h6.05s-4.35-7.2-4.35-7.36c-.3-.55-.46-.82 0-1.4l4.35-7.32zm-36.06 0H5.9l3.68 16.08h6.08l-2.98-13.53a3.14 3.14 0 0 0-3.1-2.55zm41.47 14.53c1.7 1.34 4.1 2.04 6.47 2.04 3.87 0 6.48-1.86 6.48-5.5 0-2.56-1.3-3.78-4.83-4.69-2.95-.76-3.9-1.06-3.9-2.25 0-1.22 1.04-1.76 2.68-1.76 1.49 0 2.98.45 4.56 1.24l1.1-2.55a10.34 10.34 0 0 0-5.63-1.52c-3.95 0-6.38 1.85-6.38 5.05 0 3.16 2.4 4.01 5.01 4.65 2.89.7 3.71.97 3.71 2.31 0 1.4-.94 2.07-2.77 2.07A11.2 11.2 0 0 1 52.26 78l-1.21 2.49zm59.16-1.07c-2.95 0-4.4-1.4-4.68-4.04.97.15 2.16.27 3.53.27 3.31 0 6.41-1.09 6.41-5.04 0-2.8-1.73-5.05-5.62-5.05-5.14 0-8.06 3.68-8.06 8.85 0 4.95 2.7 8.12 7.88 8.12 2.28 0 4.31-.67 5.6-1.52l-.77-2.62a9.24 9.24 0 0 1-4.29 1.03zm-.54-11c1.46 0 2.34.67 2.34 2.04 0 1.67-1.1 2.46-3.16 2.46-1.04 0-2.25-.06-3.26-.21.43-2.98 2.07-4.3 4.08-4.3z"/>
</svg>
