<svg xmlns="http://www.w3.org/2000/svg" viewBox="0 0 15 15"><path fill="currentColor" d="M7.07 9.04c0-.3.04-.57.13-.8.1-.24.2-.44.35-.63l.46-.52c.17-.16.33-.33.47-.5.14-.16.26-.33.35-.5.1-.2.14-.4.14-.62 0-.42-.12-.74-.36-.97-.24-.24-.6-.35-1.07-.35-.5 0-.87.14-1.15.42-.27.28-.4.68-.4 1.2H5.2c0-.76.2-1.34.62-1.75.4-.4 1-.6 1.76-.6.33 0 .62.03.9.12.27.08.5.2.7.37.2.18.34.38.45.62.1.24.16.5.16.82 0 .3-.06.54-.16.76-.1.23-.22.43-.37.62s-.3.37-.48.54c-.18.17-.34.35-.5.53-.14.17-.26.36-.36.56-.1.2-.15.43-.15.7v.24h-.75v-.28zm-.25 2.03c0-.2.06-.33.17-.44.1-.1.26-.15.44-.15.17 0 .3.05.43.15.12.1.17.24.17.42s-.05.33-.17.43c-.12.1-.26.16-.43.16-.18 0-.33-.05-.45-.15-.12-.1-.18-.25-.18-.4z"/></svg>