<svg xmlns="http://www.w3.org/2000/svg" viewBox="0 0 72 34">
  <title>
    NRK P3 Pyro
  </title>
      <path id="nrk-radio-p3-pyro__p3" d="M33 17.0105851c0 2.3922256-.5276813 4.6592802-1.4676072 6.6977795-.0147891-.0008221-.0291673-.0008221-.0441618-.0014387l.0121188.0199369-.1620632.0988625-.0757939-.1257876c-.087091-.002672-.1745929-.0065771-.2614785-.0080159l.1495336.2474645-.1616524.0984515-.2101277-.3463271c-.085037 0-.1702794 0-.2553164.0012333l.2772946.4593714-.1616525.0980404-.3354237-.5528901c-.0833938.0018499-.1667876.0063716-.2503868.0100713l.3984826.6566853-.1624741.0982459-.4520928-.7465043c-.081956.0047273-.1637065.0121266-.2454571.0187037l.5100166.8412561-.1624741.098657-.559108-.9238813c-.0811343.0078103-.1620633.014593-.2427868.0226089l.6145669 1.0147279-.1622686.0982458-.6599611-1.0897482c-.079902.008838-.1602147.0170594-.2395004.0273362l.7119282 1.1762786-.1624741.098657-.7538305-1.2453386c.0217728-.0026719.0429293-.0059605.0647021-.0094546-.1004423.014182-.2002683.0283639-.3000944.0441901l.8018949 1.3240586-.1624741.0984514-.8411269-1.3892133c-.1172853.019937-.2343653.0417237-.3514452.0641271.0404645-.0069882.0805181-.0143875.1207772-.0215812l.884467 1.460534-.1616525.0982458-.922672-1.5228112c-.119134.0238421-.2370355.0507673-.3551425.0770758.0429293-.0090436.0854478-.0187037.1283772-.0275418l.9612878 1.5871438-.1616524.0984514-.9953849-1.6430493c-.0749722.0168539-.1495336.034941-.2243005.0530281l1.0315359 1.7036823-.1616525.0982459-1.0623464-1.7536274.155285-.0398739c-.1263231.0310359-.25203.0624828-.3775314.0966016l1.0970595 1.8107662-.1624741.0980404-1.1235566-1.8551619c-.0727128.0205536-.1448093.0427514-.2175222.0647437l1.1539563 1.9044903-.1624741.0980403-1.17881-1.9445697c-.071275.0224034-.1427554.0443957-.2142358.0682378l1.2055125 1.9901985-.1624741.0980403-1.2283122-2.028017c-.0706588.0248698-.1413176.049534-.2115655.0746093l1.252139 2.0674798-.1620632.0982459-1.2708308-2.0991322c.0560751-.0211702.1121502-.0421348.1688416-.0626883-.1267339.0454233-.2532624.0920798-.3787639.1403806l1.2934252 2.135512-.1624741.0978348-1.3090358-2.1614094c-.0688102.0273362-.1372095.0554945-.2056088.0838584l1.3273167 2.1914176-.1620633.0984514-1.3431328-2.2175206c-.0875018.0380241-.174182.0789256-.2608623.1181828.0197187-.008838.0394375-.017676.0593616-.026514l1.3568948 2.2397184-.1616525.098657-1.369219-2.2600665c-.0665507.0306248-.132896.0624828-.1994467.0939297l1.3805162 2.2791812-.1620632.099068-1.3893486-2.2945963c.0412861-.0207591.0825722-.0411071.1244745-.0614551-.1080422.0515894-.2154682.1044119-.322278.1586733l1.3996188 2.3112447-.1622687.0980403-1.4049592-2.3200827c-.0647021.0343244-.1296096.0678267-.1943116.1029732l1.4119429 2.3309761-.1622687.0982459-1.4168726-2.3394031c-.063675.0355576-.1259123.0741983-.1891765.1107836l1.4187212 2.3426916-.1624741.0980403-1.4199536-2.3449525c-.0630589.0374075-.1269393.0727595-.1895874.1109891l1.4218023 2.3474189-.1620632.0988625-1.4201591-2.3447469c-.0618264.0384351-.1234474.0770757-.1848631.1169496l1.4176943 2.3414584-.1624741.0982458-1.4137916-2.3342646c-.0610048.0402849-.1207772.0820086-.1813712.1231156l1.4078349 2.3248101-.1624741.0982459-1.4024944-2.3157665c-.0601832.0419292-.1191339.0852971-.1789063.128254l1.3940728 2.3011735-.1620633.0980403-1.3856513-2.286786c-.0591561.043368-.1181069.0869415-.1766469.1313371l1.3747649 2.2697266-.1624741.0984514-1.3632623-2.2510229c-.0581291.0450123-.1156421.0910522-.173155.1370921l1.3492949 2.2273863-.1626795.0988625-1.3363545-2.2074494c-.0571022.0470676-.1123557.0972182-.1686362.1453135l1.3176628 2.1753859-.1620633.0978348-1.3010251-2.1480497c-.0562805.0489174-.1135881.095985-.1692524.1457246l1.2825388 2.1163972-.1620633.0982459-1.2624092-2.0843338c-.055459.0503562-.1109179.1000958-.164939.1514796l1.2396095 2.0465152-.1620633.0988625-1.2168097-2.0097244c-.0540211.052206-.1078367.1040009-.1612416.157029l1.1903126 1.9657398-.1620632.0984514-1.1675129-1.9273047c-.0531995.0542613-.1045504.1095503-.1567228.1650449l1.136497 1.876743-.1616525.0982459-1.1099999-1.8325529c-.0517617.0559056-.1041396.1107835-.1554904.1675112l1.077957 1.7782917-.1624741.0984514-1.0461195-1.7271133c-.05094.0577554-.100853.1165385-.1507661.175116l1.0093523 1.6658638-.1620633.0984515-.9777201-1.6138634c-.0497076.0589886-.0979774.1200326-.1472743.1806656l.9374611 1.5466533-.1624741.0988625-.9017208-1.489309c-.0486807.0614551-.0944856.1257876-.1423446.1882704l.8565321 1.4151107-.162474.0978348-.8170947-1.349956c-.0472428.0635104-.0961288.1249654-.1427554.1890925l.7727276 1.2749356-.1624741.0978348-.7289767-1.2034093c-.0460103.0649491-.0922261.1305149-.1376202.1962862l.679269 1.1211952-.1620633.0984514-.6326424-1.044325c-.0445726.0676212-.0895559.1350367-.1333068.2032745l.5782105.954506-.1616525.0988625-.5293245-.8735251c-.0431347.0694709-.0864748.1391474-.1289933.2094405l.4701683.7773346-.1616524.0986569-.4184067-.6903931c-.0423131.0717318-.0831884.1449024-.1244745.2174563l.3549371.5865979-.1618579.0978348-.2988619-.4926682c-.0408753.0737872-.081956.1475744-.1215989.2228003l.2329275.38394-.1624741.0984514-.1708956-.2819945-.1142043.2341048.0973612.1613452-.1620633.0984514-.0318375-.0680322s-.0396428.0828308-.0579238.122088C7.73990153 32.5883127 1 25.5877796 1 17.0105851 1 8.1680444 8.16303252 1 17.0005135 1 25.8369675 1 33 8.1680444 33 17.0105851zm-7.9195221.0355062v-.3494803c0-2.9062369-2.0989605-5.3303533-4.8613305-5.8390851l2.8257795-1.91247403v-2.9476091h-9.6916838V8.5918294h5.9575883l-3.5765073 2.16777548v3.1365904h3.4064449c1.5434511 0 2.8012474 1.2563409 2.8012474 2.8004157v.3494803c0 1.545738-1.2577963 2.8012473-2.8012474 2.8012473h-6.2459459v3.137422h6.2459459c3.2752598 0 5.9397089-2.6619542 5.9397089-5.9386693zm-6.2268191 8.8521828c-.0476091-.0827443-.0488565-.1328482-.0029106-.2118503l.6424116-1.0503118h-.8908523s-.5351352.8746361-.6079002.9943866c-.0727651.120998-.0706861.1989605.0024948.3228691.0738045.1243243.6054054.9929313.6054054.9929313h.8908523s-.6305613-1.0340956-.639501-1.0480249zm-1.8224532 1.0480249h.8106029v-2.310187h-.8106029v2.310187zm-.5066528-1.4370062c.2525988 0 .456341-.2072765.456341-.4613305 0-.2536383-.2037422-.4592516-.456341-.4592516-.2521829 0-.4569646.2056133-.4569646.4592516 0 .254054.2047817.4613305.4569646.4613305zm-1.3168399 1.4370062h.8099792v-2.310187h-.8099792v2.310187zm-.0511434 0v-.0012474l-.4336799-1.9392931c-.0417879-.2110187-.2266112-.3696465-.4490644-.3696465h-.518711l.5214137 2.310187h.8800416zm-2.2617464 0h.8128898v-2.310187h-.8128898v2.310187zm-.8800415-10.249688c0-1.5430353 1.2546777-2.8004157 2.7985446-2.8004157h.0382537v-3.1365904h-.0382537c-3.2740124 0-5.93638244 2.6625779-5.93638244 5.9370061v10.249688h3.13783784V16.696611z"/>
      <path id="nrk-radio-p3-pyro__pyro" d="M44.9169531 14.8445313h-1.335l-.495 2.9999999h1.275c.600003 0 1.0574984-.1624983 1.3725-.4875.3150016-.3250016.4725-.7624972.4725-1.3125 0-.3800018-.1074989-.6749989-.3225-.8849999-.215001-.2100011-.5374978-.3150001-.9675-.315zm-5.34 8.5499999l1.8-10.7999999h4.14c1.0600053 0 1.8774971.2599974 2.4525.78.5750029.5200025.8625 1.2549952.8625 2.205 0 1.3400066-.399996 2.407496-1.2 3.2024999-.800004.795004-1.9599924 1.1925-3.48 1.1925h-1.425l-.57 3.42h-2.58zm15.3-7.9349999h2.505l-3.885 7.5149999c-.200001.390002-.3649993.7024989-.495.9375-.1300006.2350012-.2824991.4924986-.4575.7725-.1750008.2800014-.3299993.4999992-.465.66-.1350007.1600009-.2924991.3199993-.4725.48-.1800009.1600008-.362499.2799996-.5475.36-.1850009.0800004-.3974988.1449998-.6375.195-.2400012.0500003-.4949986.075-.765.075-.5400027 0-1.0699974-.0649993-1.59-.195l.48-1.77c.4500023.0600003.8049987.09 1.065.09.2800014 0 .5049992-.0574994.675-.1725.1700009-.1150005.3349992-.3574981.495-.7275l.09-.21-1.455-8.0099999h2.55l.54 5.4599999 2.37-5.4599999zm5.25 0l.09 1.0649999c.2500013-.3600018.5424984-.6574988.8775-.8924999.3350017-.2350012.6674984-.3525001.9975-.3525001.2800014 0 .5449988.0599995.795.1800001l-.57 2.2799999c-.2200011-.0800003-.4799985-.1199999-.78-.1199999-.2200011 0-.4599987.0724992-.72.2175-.2600013.1450007-.4649992.3074991-.615.4874999l-.855 5.07h-2.49l1.335-7.9349999h1.935zm5.175 3.8999999c-.0500002.3000016-.075.5649989-.075.795 0 .4700024.1099989.8174989.33 1.0425001.2200011.2250011.5249981.3375.915.3375.9600048 0 1.544999-.6899932 1.755-2.07.0400002-.2200012.06-.4699986.06-.75 0-.9200046-.394996-1.38-1.185-1.38-.4600023 0-.8474984.1649983-1.1625.495-.3150015.3300016-.5274994.8399965-.6375 1.5299999zm-2.595.1200001c.0800004-.5800029.222499-1.1074977.4275-1.5825.2050011-.4750024.4549986-.8724985.75-1.1925.2950015-.3200017.6374981-.589999 1.0275-.8100001.390002-.220001.789998-.3774995 1.2-.4725.4100021-.0950004.8399978-.1425 1.29-.1425 1.0600053 0 1.9024969.2974971 2.5275.8925.6250032.595003.9375 1.4224947.9375 2.4825 0 .2800015-.0199998.5499988-.06.8100001-.0800004.600003-.2249989 1.1349976-.435 1.6049999-.210001.4700024-.4599985.8599985-.75 1.17-.2900014.3100016-.6249981.569999-1.005.78-.3800019.2100011-.7749979.3574996-1.185.4425-.410002.0850005-.8499976.1275001-1.32.1275001-1.1200056 0-1.974997-.2874972-2.565-.8625001-.5900029-.5750028-.885-1.3924947-.885-2.4525 0-.2600012.0149999-.5249986.045-.7949999z"/>
</svg>
