<svg xmlns="http://www.w3.org/2000/svg" style="width:12.7em;height:2.5em" viewBox="0 0 127 25">
    <path d="M114.000478.50293927c6.674037 0 11.854152 5.47908182 11.854152 12.19059603 0 6.6582007-5.586763 11.809404-12.154708 11.809404-6.6386 0-11.845292-5.3462422-11.845292-12.0044428 0-6.77349133 5.507249-11.99555723 12.145848-11.99555723zm-6.735832 15.92321363v-3.3956313l.335773-.0975194v-.4700481h-1.378972v.4700481l.327135.0975194v2.074565l-1.299458-2.6421325h-1.184507v.4700481l.327135.0975194v2.8191781l-.327135.0886339v.4878193h1.370112v-.4878193l-.318275-.0886339v-1.8528693h.008859l1.246523 2.4293225h.89281zm3.385635-2.4737505v-.4964828h-1.149291v.4787116l.256481.0799704-.468664 1.6844872h-.017498l-.433226-1.6844872.273978-.0710848v-.4875972h-1.440766v.4875972l.220821.0799704.795578 2.5001851-.052935.1417253c-.079514.1772677-.176746.2394669-.371211.2394669-.185605 0-.388929-.0886339-.486162-.1152907l-.176967.6028879c.176967.0797482.486162.1950388.848734.1950388.63633 0 .936886-.3723065 1.193367-1.1613476l.786718-2.4115513.221043-.0621992zm3.244105 2.4737505v-.4789337l-.335994-.0886339v-1.5072195c0-.6470937-.282838-.9574232-.830794-.9574232-.362572 0-.574535.1330618-.795578.3545354h-.026578v-1.2855239h-1.166788v.4611625l.326913.0886338v2.8458349l-.326913.0886339v.4789337h1.537999v-.4789337l-.344633-.0886339v-1.5691966c.088373-.0797482.2474-.1772676.450724-.1772676.212184 0 .309416.123954.309416.4609403v1.8530915h1.202226zm1.529361-2.3851166c.309416 0 .406648.2039244.406648.6028878h-.822156c.00886-.3278786.097233-.6028878.415508-.6028878zm.212184 1.7466864c-.450946 0-.618832-.2483525-.636551-.6028878h1.591155c.017719-.1330619.035438-.3192151.035438-.4345058 0-.9132173-.397789-1.3563865-1.175869-1.3563865-.821935 0-1.352394.5584598-1.352394 1.5514254 0 1.0640503.548178 1.5427619 1.41441 1.5427619.468443 0 .839653-.1419474 1.104994-.2925583l-.168108-.5940022c-.300557.1239541-.583394.1861533-.813075.1861533zm2.501462.7004072c.212184 0 .609973-.061977.804437-.1950388l-.159026-.5584599c-.106092.0442059-.229903.0886339-.362352.0886339-.212183 0-.291697-.0975195-.291697-.3636431v-1.3475009h.654049v-.6562015h-.654049v-.7092928h-.680848l-.150167.7092928h-.433227v.6562015h.397789v1.4716771c0 .620659.247622.9043317.875091.9043317zm2.254285-2.4470936c.309416 0 .406648.2039244.406648.6028878h-.822156c.008859-.3278786.097232-.6028878.415508-.6028878zm.212183 1.7466864c-.450945 0-.618832-.2483525-.63655-.6028878h1.591155c.017719-.1330619.035438-.3192151.035438-.4345058 0-.9132173-.397789-1.3563865-1.175648-1.3563865-.822156 0-1.352615.5584598-1.352615 1.5514254 0 1.0640503.548178 1.5427619 1.41441 1.5427619.468443 0 .839875-.1419474 1.104993-.2925583l-.167886-.5940022c-.300557.1239541-.583616.1861533-.813297.1861533zm3.023063-1.4805628c.053156 0 .229902.0088856.309415.0177712v-.9043317s-.12381-.0266568-.265118-.0266568c-.300557 0-.548178.1950389-.65427.5584598h-.026357l-.114951-.4964828h-.954826v.4875972l.309416.0799704v1.8439837l-.309416.0797483v.4789337h1.644312v-.4789337l-.468443-.0975195v-1.2766383c.106092-.1950388.291697-.2659015.530238-.2659015zm-6.797627-3.4489448V6.904124c0-.04442798-.035438-.04442798-.035438-.04442798h-1.352393s-.035438 0-.035438.044428v3.95409108c0 .0533136.035438.0533136.035438.0533136h1.352393s.035438 0 .035438-.0533136zm-3.067581-3.29811182c0 .3725287.247622.78037764.795578.78037764.459805 0 .769221-.3636431.769221-.75372085 0-.469826-.309416-.82458348-.777859-.82458348-.389151 0-.78694.257238-.78694.7979266zm-3.146873 3.29811182c.00886.0533136.044298.0533136.044298.0533136h1.423047c.044297 0 .044297-.0533136.044297-.0533136l-.760361-3.33343207c-.079514-.40784895-.362351-.665087-.751281-.665087h-.848512c-.044298 0-.044298 0-.044298.04442798l.89281 3.9540911zm-2.395592-3.9540911v3.9540911c0 .0533136 0 .0533136.044297.0533136h1.378972V6.85969602h-1.378972c-.044297 0-.044297 0-.044297.044428zm4.039904 0v3.9540911c0 .0533136 0 .0533136.035217.0533136h1.299458c.035438 0 .035438 0 .035438-.0533136V6.904124c0-.04442798 0-.04442798-.035438-.04442798h-1.299458c-.035217 0-.035217 0-.035217.044428zm4.861839 1.6225102c-.185605.3014439-.168108.38119215-.026578.64709366l1.007761 1.71114404c.00886.0177712.026578.0266568.070654.0266568h1.485064s.044297-.0088856.008859-.0533136l-1.069556-1.79977787c-.097232-.15949648-.106092-.19503887-.044297-.33676416l1.113853-1.81754906c.00886-.0266567 0-.0444279-.026578-.0444279h-1.467345c-.061794 0-.079513.044428-.079513.044428l-.972324 1.62251017zM6.24056016 12.56351924l-.50067395-2.01912588C5.5063124 9.609876 5.3060428 8.7752714 5.1057733 7.8576282c-.20026957.90099108-.41719128 1.8188563-.634113 2.67011303l-.46736968 2.035778h2.2362696zm4.57267404 3.93856106v1.2349217H6.09024696v-1.2349217l1.01800002-.4338434-.40031713-1.60215667H3.57044713L3.1865601 16.0682369l1.01800002.4338434v1.2349217H-.000879v-1.2349217l.9678216-.4338434 2.52002187-8.66132627-.83438257-.41719128V5.72149337h4.15548274L9.82853842 16.0682369l.98469578.4338434zm3.554674-.3670129l.9345173.4338434v1.1680912h-4.322226v-1.1680912l.9345174-.4338434V7.35695425l-.9345174-.41719128v-1.2182696h3.3877087V16.1350674m4.8395521 0l.9345174.4338434v1.1680912h-4.3222261v-1.1680912l.9345174-.4338434V7.35695425l-.9345174-.41719128v-1.2182696h3.3877087V16.1350674m4.6730308-7.22613493h1.8188563v1.7522478h-1.8188563v4.77294363c0 .4837998.2169217.6507651.7675521.6507651.3505827 0 .6509871-.0668305.9511695-.1334391l.2504479 1.6354609c-.6842914.2002696-1.3517086.3503608-2.0693043.3503608-1.5688523 0-2.3364044-.7342478-2.3364044-2.0859564v-5.19013493h-1.1014826v-1.3184044l1.1347869-.41719127.4504955-2.4867176h1.9527394v2.47006547m6.0076433-2.28644802c0 .8346046-.6174608 1.268448-1.4853697 1.268448-.8175084 0-1.4851477-.4338434-1.4851477-1.268448 0-.83438257.6507652-1.2848781 1.4851477-1.2848781.8512567 0 1.4853697.45049553 1.4853697 1.2848781zm-.133439 9.49570875l.9345174.4171913v1.2016175h-4.3222261v-1.2016175l.9345174-.4171913v-5.57379984l-.9345174-.4171913v-1.2182696h3.3877087v7.20926074zm3.9552132-2.80355203c0 1.63546093.3670128 2.67011303 1.5017998 2.67011303.6509871 0 1.1683132-.4005392 1.4518434-.7342478v-3.7882478c-.2835302-.3505828-.8343826-.80107833-1.4851477-.80107833-.9178652 0-1.4684955.7844262-1.4684955 2.6534609zm5.3735303 2.82042623l.9345173.4338434v1.1680912H36.947304l-.1667433-1.018c-.383887.5675045-1.1849653 1.2182696-2.4534133 1.2182696-2.1026086 0-3.2040912-1.5353261-3.2040912-4.58932617 0-3.27092177 1.4518434-4.63928253 3.3544044-4.63928253.884561 0 1.6188087.40053915 2.1694391.93451735V7.40691063l-.9345174-.46714766v-1.2182696h3.3710566V16.1350674zm12.700022-4.4558871v4.4725392l.9345174.4171913v1.1680912h-3.3877087v-5.59067404c0-1.03465215-.3004044-1.45184343-1.0848306-1.45184343-.6842914 0-1.2682259.50067394-1.5353261.8010783v4.63950457l.9345174.4338434v1.1680912h-4.3055739v-1.1680912l.9345174-.4338434v-5.59067404l-.9345174-.4171913v-1.2182696h2.9705174l.1669653.98447375h.0333043c.6507651-.6840693 1.5353261-1.1847433 2.6368087-1.1847433 1.8523826 0 2.6368088 1.1181348 2.6368088 2.9705174"/>
    <path d="M61.1459527 10.1438542l-.6842914.41719128-2.5533261 7.34292182c-.8010783 2.3028781-1.4018871 3.2875739-3.2040912 3.2875739-.7175957 0-1.3017523-.1167869-1.7355957-.2335738l.2502259-1.7857741c.250226.0501784.6509872.1167869 1.0679564.1167869.4673697 0 .8010784-.2502259 1.0346522-1.0679564l.1170089-.4171913-2.4365392-7.24278702-.6842914-.41719128V8.90893247h4.055348v1.2182696l-.7508999.4171913 1.2848781 4.87307833h.0335263l1.3517086-4.87307834-.7511219-.4171913v-1.2182696h3.6048524v1.23492174"/>
    <path d="M64.3671401 9.69335866h.0333043c.6174608-.5841566 1.401887-.98469576 2.3863608-.98469576 1.8526046 0 2.6201566 1.1181348 2.6201566 2.9705174v4.4725392l.9345174.4171913v1.1680912h-3.3710566v-5.59067404c0-1.03465215-.3004044-1.45184343-1.0846085-1.45184343-.6842914 0-1.2517959.50067394-1.518674.8010783v4.63950457l.9009911.4338434v1.1680912h-4.2720476v-1.1680912l.9345173-.4338434V7.35695425l-.9345173-.41719128v-1.2182696h3.3710565v3.9718653m8.9450785 2.80355206h2.670113c-.0166521-1.28510013-.250448-2.0693043-1.2349217-2.0693043-1.1014827 0-1.4351913 1.03465216-1.4351913 2.0693043zm4.9729911.30040437c0 .3170565 0 .8510347-.0499563 1.1680912h-4.9732132c.0501784 1.2851001.6008087 2.1028306 1.8690347 2.1028306.7178177 0 1.4351913-.2169217 2.3364044-.634113l.5173261 1.5353261c-.9345174.6174608-2.0024738.9678216-3.3208782.9678216-2.4867176 0-3.9885174-1.4018871-3.9885174-4.57267405 0-3.00382165 1.518674-4.65593465 4.0218217-4.65593465 2.3865828 0 3.5879782 1.36836076 3.5879782 4.0886522zm4.05557-3.88838263h1.8190783v1.7522478h-1.8190783v4.77294363c0 .4837998.2169217.6507651.767552.6507651.3505828 0 .6509872-.0668305.9513916-.1334391l.2502259 1.6354609c-.6842914.2002696-1.3517086.3503608-2.0693043.3503608-1.5688524 0-2.3364044-.7342478-2.3364044-2.0859564v-5.19013493h-1.1014827v-1.3184044l1.134787-.41719127.4507175-2.4867176h1.9525174v2.47006547m4.7893737 3.58797826h2.6703351c-.0168742-1.28510013-.250448-2.0693043-1.2351438-2.0693043-1.1012606 0-1.4351913 1.03465216-1.4351913 2.0693043zm4.9732132.30040437c0 .3170565 0 .8510347-.0501784 1.1680912H87.080197c.0499564 1.2851001.6008088 2.1028306 1.8690347 2.1028306.7175957 0 1.4351913-.2169217 2.3364045-.634113l.517326 1.5353261c-.9345173.6174608-2.0024737.9678216-3.3208781.9678216-2.4867176 0-3.9887395-1.4018871-3.9887395-4.57267405 0-3.00382165 1.518674-4.65593465 4.0220437-4.65593465 2.3863608 0 3.5879783 1.36836076 3.5879783 4.0886522zm6.8089436-3.90503475l-.1667433 2.25292174c-.250448-.0501785-.5339782-.0834827-.7844262-.0834827-.7508999 0-1.4351913.2668781-1.8856868.9678216v4.10552632l1.3683608.4338434v1.1680912h-4.7394173v-1.1680912l.9345173-.4507176V10.5443933l-.9345173-.40053915v-1.2349217h2.8368563l.2837522 1.30175225h.0335263c.4837998-1.0013479 1.3517086-1.4853697 2.1860912-1.4853697.3004044 0 .6008087.04995638.8676868.16696533"/>
</svg>
