<svg xmlns="http://www.w3.org/2000/svg" viewBox="0 0 15 15">
  <path stroke="currentColor" fill="none" stroke-linecap="round" d="M11.85 11.965c-1.053 1.143-2.562 1.86-4.238 1.86-3.182 0-5.762-2.58-5.762-5.763C1.85 4.88 4.43 2.5 7.612 2.5"/>
  <path d="M7 1.082c0-.554.358-.735.8-.404l2.035 1.526c.218.164.222.427 0 .593L7.8 4.323c-.442.33-.8.152-.8-.405V1.082z"/>
  <path d="M10 1.09c0-.55.357-.73.796-.402l2.028 1.517c.218.163.222.424 0 .59l-2.028 1.517c-.44.33-.796.15-.796-.402V1.09z"/>
  <path d="M6.387 9.5l.375-2.24c-.264.133-.534.217-.81.25l-.01-.44c.183-.047.376-.126.58-.238.203-.11.376-.24.52-.382h.49l-.51 3.05h.63l-.085.5H5.582l.085-.5h.72zm1.745-.8l.545-2.25h1.8l-.13.56H9.072l-.245.945c.183-.147.406-.22.67-.22.25 0 .443.075.58.225.136.15.205.363.205.64 0 .46-.14.82-.418 1.078-.278.258-.617.387-1.017.387-.187 0-.37-.032-.553-.098-.18-.065-.336-.16-.462-.282l.28-.42c.276.17.528.255.755.255.223 0 .41-.07.565-.21.153-.14.23-.345.23-.615 0-.31-.145-.465-.435-.465-.19 0-.362.07-.515.21l-.065.26h-.515z"/>
</svg>
