<svg xmlns="http://www.w3.org/2000/svg" style="width:6.2em;height:2.6em" viewBox="0 0 62 26">
    <path d="M49.0011006 1C42.37193896 1 37 6.37176964 37 12.9994074c0 6.6266218 5.37193896 11.9990687 12.0011006 11.9990687C55.6268758 24.9984761 61 19.6260292 61 12.9994074 61 6.37176964 55.6268758 1 49.0011006 1m.4955539 18.1437008h-5.2981714v-3.209798h5.2981714c.7333435 0 1.3291198-.5957242 1.3291198-1.3279578 0-.7332795-.5957763-1.3290038-1.3291198-1.3290038h-3.32672228l2.22304558-3.2118901h-4.1944947V6.85316103h9.6009415l-2.4934725 3.59997384c1.6026851.69980603 2.7267615 2.29869023 2.7267615 4.15594833 0 2.5005775-2.0352636 4.5346176-4.5360591 4.5346176zM31.0878023 13.55918018c-.2517074-.42642875-.2661333-.68861697-.02338-1.10029556L34.399462 7h-4.6267395s-2.7797248 4.54205453-3.1597731 5.17316245c-.3764003.63027925-.3601505 1.02273292.0154208 1.67041405C27.0084185 14.49042897 29.7727225 19 29.7727225 19h4.6267395s-3.2751804-5.37353258-3.3116597-5.44081982M21.5941377 19h4.2077247V7h-4.2077247M18.9405537 6.77010873c-1.3163763 0-2.3817762 1.07539896-2.3817762 2.40310754 0 1.32687533 1.0653999 2.4056073 2.3817762 2.4056073 1.3185428 0 2.3884423-1.07873197 2.3884423-2.4056073 0-1.32770858-1.0698995-2.40310754-2.3884423-2.40310754M12.0635332 19h4.2052375V7h-4.2052375M0 19h4.19744416V7H0M9.50872938 8.92796177C9.29333553 7.82832914 8.33144198 7 7.17852938 7H4.47507953l2.71654925 12h4.56969912L9.50872938 8.92796177z"/>
</svg>
