<svg xmlns="http://www.w3.org/2000/svg" style="width:2.6em;height:2.6em" viewBox="0 0 26 26">
  <path d="M8.831164 11.094087c-1.058014 0-1.918929.8590554-1.918929 1.918929 0 1.0570844.860915 1.9142804 1.918929 1.9142804 1.058944 0 1.91521-.857196 1.91521-1.9142804 0-1.0598736-.856266-1.918929-1.91521-1.918929zm9.12328.7149498c-.0855336-.0018594-.1794347-.0725176-.2091855-.1487542l-.604314-1.5702863c-.028821-.0762365-.0799553-.0762365-.1106358 0l-.6015248 1.5702863c-.0306806.0762366-.1245817.1468948-.208256.1487542l-1.6762736.091112c-.0855337.0018594-.1013388.0511342-.035329.1050576l1.3034584 1.055225c.0669394.054853.1031982.165489.080885.2491632l-.4332465 1.6177018c-.022313.0855336.0176646.1124953.0883228.06508l1.409446-.9111194c.0706582-.0474154.1868724-.0474154.2575307 0l1.409446.9111193c.070658.0474154.1106358.0204537.0892524-.06508l-.4341762-1.6177017c-.022313-.0836742.0148754-.19431.0818148-.2491632l1.301599-1.055225c.0669395-.0539234.052064-.1031982-.03254-.1050576l-1.6762736-.091112zM12.9990703.5C6.1089623.5.5 6.1061733.5 13.0009297c0 6.892897 5.6089624 12.4981406 12.4990703 12.4981406 6.892897 0 12.5009297-5.6052436 12.5009297-12.4981406C25.5 6.1061733 19.8919673.5 12.9990703.5zm0 22.5436965c-5.5383042 0-10.0436966-4.506322-10.0436966-10.0427668 0-5.5401636 4.5053924-10.045556 10.0436966-10.045556 5.539234 0 10.045556 4.5053924 10.045556 10.045556 0 5.5364448-4.506322 10.0427668-10.045556 10.0427668z"/>
</svg>
