<svg xmlns="http://www.w3.org/2000/svg" viewBox="0 0 100 18">
  <title>
NRK Jazz
  </title>
        <path id="nrk-radio-jazz__nrk" d="M42.2742596 9.74557357c-.3356098-.56857166-.3548444-.91815595-.0311732-1.46706074L46.6898059 1h-6.168986s-3.7062998 6.0560727-4.2130308 6.89754993c-.5018671.84037234-.4802006 1.3636439.0205611 2.22721877C36.8350812 10.9872386 40.5208199 17 40.5208199 17h6.168986s-4.3669072-7.1647101-4.4155463-7.25442643  M29.6477692 17h5.6102996V1h-5.6102996z  M26.1274035.69c-1.746365 0-3.1597731 1.42667336-3.1597731 3.1880722 0 1.7602934 1.4134081 3.1913885 3.1597731 3.1913885 1.749239 0 3.1686165-1.4310951 3.1686165-3.1913885C29.29602 2.11667336 27.8766425.69 26.1274035.69  M17.004034 17h5.6069833V1H17.004034z  M1 17h5.59659222V1H1z  M13.648378 3.5706157C13.3611862 2.10443885 12.0786614 1 10.54144467 1h-3.6045998l3.62206566 16h6.09293217L13.648378 3.5706157z"/>
        <path id="nrk-radio-jazz__jazz" d="M87.546107 15.8673294l8.7370473-13.33424747h-8.1174082V1h10.6382746v.7555708l-9.0236644 13.7113473h9.0018269V17H87.546107v-1.1326706  M74.325548 15.8673294l8.7363649-13.33424747h-8.1174082V1h10.638957v.7555708l-9.0236644 13.7113473h9.0011445V17H74.325548v-1.1326706  M68.7569855 10.86698663l-2.7201335-7.9334933-2.7214985 7.9334933h5.441632zM66.9219531 1l5.8169641 16h-1.8138774l-1.680805-4.5779911h-6.4147657L61.1930215 17h-1.83571486L65.1299133 1h1.7920398z  M57.3441621 13.4077945c0 2.5884262-1.10552343 3.7826645-3.44964257 3.7826645-.973816 0-2.23493164-.1774297-3.09683047-.5971192l.39785196-1.3941878c.75134648.331657 1.5040578.5090867 2.41099648.5090867 1.4597004 0 2.0342996-.5971192 2.0342996-2.6539387V1h1.703325v12.4077945"/>
</svg>
