<svg xmlns="http://www.w3.org/2000/svg" style="width:6.5em;height:2.6em" viewBox="0 0 65 26">
    <path fill-rule="evenodd" d="M31.0878023 13.5591802c-.2517074-.4264288-.2661333-.688617-.02338-1.1002956L34.399462 7h-4.6267395s-2.7797248 4.5420545-3.159773 5.1731624c-.3764004.6302793-.3601506 1.022733.0154207 1.670414C27.0084185 14.490429 29.7727225 19 29.7727225 19h4.6267395s-3.2751804-5.3735326-3.3116597-5.4408198M21.5941377 19h4.2077247V7h-4.2077247M18.9405537 6.7701087c-1.3163763 0-2.3817762 1.075399-2.3817762 2.4031076 0 1.3268753 1.0654 2.4056073 2.3817762 2.4056073 1.3185428 0 2.3884423-1.078732 2.3884423-2.4056073 0-1.3277086-1.0698995-2.4031076-2.3884423-2.4031076M12.0635332 19h4.2052375V7h-4.2052375M0 19h4.1974442V7H0M9.5087294 8.9279618C9.2933354 7.828329 8.331442 7 7.1785294 7h-2.70345L7.191629 19h4.569699L9.5087295 8.9279618zM61.5610627 15.3436352c.2419644.4177944.2529462.6706187.0097005 1.0776144-.16979.2821088-.9834154 1.6589148-1.527683 2.5493514H56.658201l1.8533527-3.0460924-1.9222937-3.226437 1.723829-2.8247494h-4.176053l-1.7319435-2.905099h7.928882s1.1025063 1.7762365 1.2270882 1.9884892c.2419644.4177335.2529462.6706187.0097005 1.0776144-.16979.282109-1.6273118 2.6973-1.6273118 2.6973.541583.8850678 1.4478213 2.3227614 1.6176113 2.6120084zm-6.0591177 1.3856524c-.163567.2716762-1.043205 1.711383-1.5674613 2.5689355-.5241953-.8575523-1.4038942-2.2972592-1.5674002-2.5689354-.2342773-.3920484-.2236616-.635599.0093955-1.038019.163506-.2785094 1.0363108-1.7068076 1.5580047-2.559296.521755.8524884 1.3946208 2.2807866 1.5580658 2.559296.233118.40242.2436118.6459706.0093955 1.038019zm-3.5123286-5.3708672c-.2442828.4055315-2.030586 3.326798-2.030586 3.326798h-3.704692l2.1422946-3.5117794c.157466-.264294.1475215-.4324368-.0137272-.7064924-.0237327-.043439-2.1285675-3.4987234-2.1285675-3.4987234h3.7046922c1.7573235 2.868127 1.7578726 2.867944 2.0208244 3.3158163.2412323.4165133.252214.6686054.0097614 1.074381zm-9.5123888 7.6121806h3.2989167V6.9682232h-3.2989167V18.970601zm-3.6577757 6.9705416h25.9410815V0H38.819452v25.9411426z"/>
</svg>
