<svg xmlns="http://www.w3.org/2000/svg" viewBox="0 0 15 15"><path d="M6.947 14.192v-.52c0-1.135-1.48-1.543-2.05-.565l-.27.468c-.103.18-.334.28-.524.28-.093 0-.188-.026-.275-.076-.263-.155-.353-.496-.2-.763l.22-.388c.563-.99-.528-2.095-1.504-1.525l-.383.224c-.086.05-.18.074-.274.074-.19 0-.376-.1-.477-.28-.154-.266-.064-.607.2-.76l.383-.225c.975-.57.576-2.082-.55-2.082H.8c-.304 0-.55-.25-.55-.558 0-.308.246-.558.55-.558h.443c1.127 0 1.526-1.51.55-2.08l-.382-.225c-.263-.154-.352-.495-.2-.762.152-.266.49-.36.753-.204l.396.232c.974.57 2.065-.535 1.503-1.523l-.225-.397c-.152-.267-.05-.608.213-.762.265-.154.623-.062.776.205l.272.468c.57.978 2.05.57 2.05-.566v-.52c0-.308.246-.557.55-.557.308 0 .554.25.554.557v.52c0 1.135 1.48 1.544 2.05.566l.272-.468c.152-.267.51-.36.775-.204.262.155.364.496.212.763l-.225.396c-.562.987.53 2.092 1.504 1.522l.397-.23c.264-.156.6-.063.753.203.152.267.063.608-.2.762l-.384.224c-.975.57-.576 2.082.55 2.082h.443c.304 0 .55.25.55.558 0 .308-.246.558-.55.558h-.443c-1.126 0-1.526 1.51-.55 2.08l.383.225c.263.154.354.495.2.762-.1.18-.286.28-.476.28-.093 0-.188-.025-.275-.076l-.384-.225c-.976-.57-2.067.535-1.504 1.524l.22.387c.153.267.063.608-.2.762-.087.05-.182.074-.275.074-.19 0-.42-.1-.523-.28l-.272-.467c-.57-.978-2.05-.57-2.05.566v.52c0 .307-.246.557-.55.557-.308 0-.555-.25-.555-.558zM7.5 9C8.328 9 9 8.328 9 7.5S8.328 6 7.5 6 6 6.672 6 7.5 6.672 9 7.5 9z"/></svg>