<svg xmlns="http://www.w3.org/2000/svg" style="width:6.2em;height:2.6em" viewBox="0 0 62 26">
    <path d="M31.0878023 13.5591802c-.2517074-.4264288-.2661333-.688617-.02338-1.1002956L34.399462 7h-4.6267395s-2.7797248 4.5420545-3.159773 5.1731624c-.3764004.6302793-.3601506 1.022733.0154207 1.670414C27.0084185 14.490429 29.7727225 19 29.7727225 19h4.6267395s-3.2751804-5.3735326-3.3116597-5.4408198M21.5941377 19h4.2077247V7h-4.2077247M18.9405537 6.7701087c-1.3163763 0-2.3817762 1.075399-2.3817762 2.4031076 0 1.3268753 1.0654 2.4056073 2.3817762 2.4056073 1.3185428 0 2.3884423-1.078732 2.3884423-2.4056073 0-1.3277086-1.0698995-2.4031076-2.3884423-2.4031076M12.0635332 19h4.2052375V7h-4.2052375M0 19h4.1974442V7H0M9.5087294 8.9279618C9.2933354 7.828329 8.331442 7 7.1785294 7h-2.70345L7.191629 19h4.569699L9.5087295 8.9279618zM49.0011006 1C55.6268758 1 61 6.3717696 61 12.9994074c0 6.6266218-5.3731242 11.9990687-11.9988994 11.9990687C42.371939 24.998476 37 19.6260293 37 12.9994075 37 6.3717696 42.371939 1 49.0011006 1zm6.643481 12.6409388c1.1523605-1.220721 1.6609442-1.796077 1.6609442-3.0554233 0-2.1903772-1.6488734-3.661358-3.842543-3.661358h-3.7226395c.839324.5278794 1.4991953 1.4299414 1.8420065 2.5315676h1.6633584c.5109978 0 1.1410944.3926908 1.1410944 1.0927746 0 .4948868-.1102468.6815758-.4780043 1.0694384-.4949035.5198323-.9881974 1.059782-2.4069206 2.6128415-1.4187232 1.5530596-1.978809 2.3730428-1.978809 4.2246438v.6228332h7.516899v-2.6096228h-4.049356l2.6539698-2.827695zM44.449912 9.4565884h1.551924c1.2088582 0 1.7532592.6468466 1.7532592 1.6696093 0 1.0398652-.5963858 1.670964-1.8233624 1.670964h-.5516823v2.453784h.7230458c3.1170557 0 4.6342667-1.6186406 4.6342667-4.260044 0-2.589757-1.6526762-4.1237318-4.4818683-4.1237318H41.434286v12.2623154h3.015626v-9.672897z"/>
</svg>
