<svg viewBox="0 0 15 15" xmlns="http://www.w3.org/2000/svg">
<path fill="currentColor" fill-rule="nonzero" d="M5.7 3l.65.65a.5.5 0 1 1-.7.7l-1.5-1.5a.5.5 0 0 1 0-.7l1.5-1.5a.5.5 0 0 1 .7.7L5.71 2H7.5a6 6 0 0 1 6.15 6.06A6.26 6.26 0 0 1 2.8 12.3a.5.5 0 0 1 .73-.67 5.25 5.25 0 0 0 9.13-3.57A5 5 0 0 0 7.5 3H5.7zM3.86 1.35L2.71 2.5l1.14 1.15a.5.5 0 1 1-.7.7l-1.5-1.5a.5.5 0 0 1 0-.7l1.5-1.5a.5.5 0 0 1 .7.7zM4.9 9.58l.4-.52c.25.2.5.31.77.31.18 0 .32-.04.44-.12.1-.08.17-.2.17-.37 0-.23-.17-.35-.49-.36-.15 0-.26 0-.33.03l.08-.66c.24 0 .43-.05.6-.15.16-.1.25-.23.25-.4s-.12-.26-.35-.26c-.2 0-.45.07-.72.21l-.21-.51c.2-.13.4-.22.58-.29.19-.06.4-.09.62-.09.27 0 .48.06.64.2.16.13.24.3.24.54 0 .22-.08.41-.22.59-.15.18-.34.3-.58.39l-.01.02c.21.02.38.09.49.2.1.13.17.29.17.49 0 .16-.03.3-.08.44s-.12.25-.2.35a1.3 1.3 0 0 1-.7.4c-.14.03-.29.04-.44.04-.22 0-.43-.04-.63-.12-.2-.08-.36-.2-.49-.36zm3.82-1.34c-.04.25-.06.44-.06.58 0 .19.03.32.1.4.05.1.14.13.27.13.34 0 .57-.37.7-1.12.03-.2.04-.37.04-.54 0-.39-.12-.58-.36-.58-.35 0-.58.38-.69 1.13zm-.81 0c.1-.61.28-1.07.56-1.38.28-.3.64-.46 1.07-.46.35 0 .61.1.79.31.17.22.25.52.25.93 0 .17-.01.35-.04.56-.1.64-.27 1.11-.54 1.42-.28.3-.63.45-1.07.45-.71 0-1.06-.42-1.06-1.25 0-.17.01-.36.04-.58z"/>
</svg>
