<svg xmlns="http://www.w3.org/2000/svg" style="width:3.2em;height:3.2em" viewBox="0 0 32 32">
  <path fill="currentColor" d="M0 32V0h32v32H0zm24.585-9.92c-.15-.257-.957-1.536-1.44-2.323l1.45-2.4c.215-.36.205-.586-.01-.957-.11-.19-1.09-1.77-1.09-1.77H16.44l1.542 2.585h3.714l-1.533 2.512 1.71 2.87-1.65 2.71h3.012c.484-.792 1.208-2.017 1.36-2.268.215-.363.205-.588-.01-.96zm-5.39 1.232c.208-.348.2-.565-.01-.923-.144-.25-.92-1.52-1.384-2.277-.463.758-1.24 2.028-1.385 2.276-.207.357-.217.574-.008.922.145.242.927 1.522 1.394 2.285.467-.763 1.25-2.043 1.395-2.285zm-3.123-4.776c.215-.36.205-.585-.01-.956-.233-.398-.234-.398-1.797-2.95H10.97s1.872 3.074 1.893 3.113c.144.244.153.393.013.628l-1.906 3.125h3.295s1.59-2.6 1.807-2.96zm-8.46 6.77h2.933V14.632H7.61v10.677zM7.6 6.977v5.99h2.094v-5.99H7.602zm5.972 0v5.99h2.094v-5.99h-2.094zm4.718 0v5.99h2.094v-5.99h-2.094zm-1.314 2.263c.652 0 1.183-.535 1.183-1.197 0-.658-.53-1.192-1.182-1.192-.652 0-1.18.535-1.18 1.193 0 .662.528 1.196 1.18 1.196zm5.374 3.726h2.302s-1.63-2.682-1.65-2.717c-.124-.215-.13-.343-.01-.55l1.66-2.728h-2.302s-1.384 2.27-1.573 2.583c-.19.317-.18.512.006.835.188.326 1.566 2.576 1.566 2.576zm-8.91 0v-.003l-1.118-5.025c-.11-.55-.585-.963-1.16-.963H9.816l1.353 5.994h2.273v-.004z"/>
</svg>
