<svg xmlns="http://www.w3.org/2000/svg" style="width:3.7em;height:2.6em" viewBox="0 0 37 26">
  <path fill="currentColor" d="M22.361 7.919H21.13c-.096 0-.14-.035-.166-.123l-.367-1.17c-.018-.062-.052-.08-.079 0l-.42 1.214c-.017.044-.043.079-.104.079h-1.24c-.053 0-.053.043-.027.06l1.014.761c.06.044.06.096.043.157l-.367 1.163c-.017.07.018.078.061.052l1.005-.734c.062-.044.123-.035.166 0l.997.725c.043.027.07.027.052-.043l-.358-1.163c-.027-.07-.018-.113.043-.157l1.005-.743c.044-.035.035-.078-.026-.078zm-7.157-.677c-.716 0-1.345.543-1.345 1.35 0 .806.629 1.35 1.345 1.35.76 0 1.355-.544 1.355-1.35 0-.807-.594-1.35-1.355-1.35zM17.887.5c-4.465 0-8.109 3.644-8.109 8.11 0 4.456 3.644 8.108 8.11 8.108 4.456 0 8.108-3.652 8.108-8.109C25.996 4.144 22.344.5 17.887.5zm0 14.82c-3.644 0-6.623-3.04-6.623-6.71 0-3.715 2.98-6.712 6.623-6.712 3.679 0 6.624 2.971 6.624 6.685 0 3.67-2.945 6.737-6.624 6.737zm1.302 7.288c0 1.005.586 1.634 1.608 1.634.795 0 1.17-.297 1.45-.717l.097.577h.821v-4.614h-1.031v2.7c0 .743-.297 1.206-1.023 1.206-.699 0-.89-.376-.89-1.048v-2.858h-1.032v3.12zm5.112 2.892h1.031v-1.809c.192.21.664.533 1.363.533 1.154 0 1.861-.944 1.861-2.446 0-1.643-.769-2.412-1.887-2.412-.463 0-1.04.218-1.416.725l-.122-.603h-.83V25.5zm1.031-2.639V21.21c0-.56.454-.944 1.11-.944.655 0 1.048.454 1.048 1.546 0 1.084-.437 1.512-1.066 1.512-.489 0-.935-.27-1.092-.463zm8.738 1.24h1.031v-2.787c0-.585.263-.943.883-.943.27 0 .507.043.664.087l.087-.97a1.56 1.56 0 0 0-.585-.105c-.498 0-.953.306-1.18.77l-.105-.665h-.795v4.614zm-34.07 0h1.617V19.48H0v4.623zm4.605 0h1.59V19.48h-1.59v4.623zm3.609 0h1.625V19.48H8.214v4.623zm-1.005-4.7a.895.895 0 0 0-.891.891c0 .524.402.926.891.926a.91.91 0 0 0 .926-.926c0-.49-.402-.891-.926-.891zm5.907.078h-1.739s-1.1 1.74-1.214 1.984c-.166.245-.166.41 0 .647.113.244 1.214 1.992 1.214 1.992h1.739s-1.25-2.071-1.25-2.115c-.087-.157-.13-.236 0-.402l1.25-2.106zm-10.363 0H1.695l1.058 4.623H4.5l-.856-3.889a.903.903 0 0 0-.891-.734zm11.918 4.177c.49.385 1.18.586 1.862.586 1.11 0 1.86-.533 1.86-1.582 0-.734-.375-1.083-1.388-1.346-.848-.218-1.119-.305-1.119-.646 0-.35.297-.507.769-.507.428 0 .856.131 1.31.358l.315-.734c-.393-.262-.97-.437-1.616-.437-1.136 0-1.835.533-1.835 1.45 0 .91.69 1.154 1.442 1.338.83.2 1.066.28 1.066.664 0 .402-.271.594-.796.594-.506 0-1.03-.183-1.52-.454l-.35.716zm17.005-.306c-.848 0-1.267-.402-1.346-1.162.28.044.62.079 1.014.079.952 0 1.844-.315 1.844-1.45 0-.805-.498-1.451-1.617-1.451-1.477 0-2.315 1.057-2.315 2.543 0 1.424.777 2.333 2.263 2.333.655 0 1.24-.193 1.608-.437l-.219-.752c-.463.219-.804.297-1.232.297zm-.157-3.163c.42 0 .673.192.673.586 0 .48-.315.707-.91.707-.296 0-.646-.017-.934-.06.122-.857.594-1.233 1.17-1.233z"/>
</svg>
