<svg xmlns="http://www.w3.org/2000/svg" style="width:8.6em;height:3.6em" viewBox="0 0 86 36">
  <path fill="currentColor" d="M41.27 18.75c-.33-.57-.35-.92-.03-1.47L45.7 10h-6.2l-4.2 6.9c-.5.84-.5 1.36 0 2.23.5.86 4.2 6.87 4.2 6.87h6.17l-4.43-7.25M28.64 26h5.6V10h-5.6m-3.5-.3c-1.76 0-3.17 1.42-3.17 3.18 0 1.76 1.4 3.2 3.16 3.2 1.75 0 3.17-1.44 3.17-3.2s-1.42-3.2-3.17-3.2M16 26h5.6V10H16M0 26h5.6V10H0m12.65 2.57c-.3-1.46-1.57-2.57-3.1-2.57h-3.6l3.6 16h6.1l-3-13.43zm68.23 8.6c.16.28.24.5.25.72 0 .2-.07.4-.24.7-.3.3-1.4 2.2-2.1 3.4h-4.5l2.42-4.1-1.28-2.2-1.3-2.18 2.3-3.76H70.9L68.68 10h10.57l.48.77.35.57.8 1.3c.33.57.35.9.02 1.45l-1.1 1.7-.3.5-.8 1.3 2.1 3.46zm-8.08 1.85l-.57.94-.45.73-1.07 1.7c-.2-.4-.4-.8-.7-1.3l-.1-.26-1.2-1.9c-.3-.53-.3-.85 0-1.4l2.1-3.4.54.86 1.5 2.47.05.1.03.1c.26.46.25.8-.04 1.27zm-4.58-7.36l-.1.2-.54.88-.06.1-.22.35-.1.1-.63 1-.08.1-.2.3-.3.5-.2.26-.1.2-.2.2-.2.32h-4.9l.5-.8 2.4-3.9c.1-.17.12-.3.12-.46 0-.16-.06-.3-.17-.5l-.44-.74-.1-.16-.22-.37-2.06-3.3h4.94l.75 1.15.17.27.16.24c.1.1.14.2.22.4l.12.2c.96 1.5 1.02 1.7 1.28 2.1.2.24.28.5.28.7 0 .15-.04.3-.13.5zM59.82 26h-4.38V10h4.4v16zM51 35h34V1H51v34z"/>
</svg>
