<svg xmlns="http://www.w3.org/2000/svg" viewBox="0 0 113 58"><path fill="#0A2343" d="M0 17.857V5.858h3.937v12H0ZM9.294 7.768l2.264 10.09H7.25l-2.704-12h2.417a2.276 2.276 0 0 1 1.513.55c.42.346.71.826.819 1.36Zm2.855 10.09v-12h3.938v12h-3.938Zm6.912-7.437a2.381 2.381 0 0 1-2.078-1.192 2.345 2.345 0 0 1-.322-1.208 2.301 2.301 0 0 1 .321-1.2 2.41 2.41 0 0 1 3.278-.861c.356.21.653.506.862.862.215.363.326.778.321 1.2a2.35 2.35 0 0 1-.321 1.208 2.4 2.4 0 0 1-.862.87 2.301 2.301 0 0 1-1.2.321Zm2.99 7.436V5.858h3.938v12h-3.937Zm8.923-5.442c.01.012.095.15.253.414.158.265.364.603.617 1.014a309.436 309.436 0 0 1 1.597 2.62c.247.411.529.876.845 1.394H29.96c-.27-.44-.516-.836-.736-1.191-.22-.355-.453-.738-.7-1.15-.248-.41-.493-.81-.736-1.2a60.12 60.12 0 0 1-.625-1.022 18.04 18.04 0 0 0-.363-.591 1.747 1.747 0 0 1-.287-.845c.016-.29.11-.57.27-.812.067-.112.191-.312.371-.6a182.106 182.106 0 0 0 1.37-2.23l.7-1.158.736-1.2h4.326l-3.346 5.459a1.079 1.079 0 0 0-.17.54c.012.203.082.397.203.558Z"/><path fill="#015F88" d="M9.106 23.005h-2.11L2.407 28.29h-.63v-5.285H.005v11.988h1.773v-5.42h.06l4.988 5.437 2.415-.017-5.724-5.943 5.589-6.045ZM14.12 26.323a3.317 3.317 0 0 0-.895.388c-.288.18-.554.393-.793.633-.04.04-.079.085-.119.127v-1.258l-1.722.253v8.527h1.722v-6.379a4.381 4.381 0 0 1 .92-.493 5.82 5.82 0 0 1 .532-.177 3.625 3.625 0 0 1 1.182-.127l.203-1.587a3.214 3.214 0 0 0-1.03.093ZM16.72 34.993h1.722v-8.78l-1.723.253v8.527ZM17.024 24.694c.18.101.384.153.59.152.205.002.406-.05.583-.152.174-.1.317-.247.414-.422.101-.18.153-.384.152-.591a1.142 1.142 0 0 0-.152-.583 1.191 1.191 0 0 0-.414-.422 1.092 1.092 0 0 0-.582-.16 1.137 1.137 0 0 0-.591.16 1.238 1.238 0 0 0-.43.422 1.09 1.09 0 0 0-.161.583c-.002.208.054.412.16.59.104.177.252.323.43.423ZM25.466 27.8c.275-.006.55.037.81.127.215.077.407.208.557.38.155.186.265.406.321.641.072.299.106.605.101.912v5.133h1.723v-5.488a4.678 4.678 0 0 0-.321-1.874 2.213 2.213 0 0 0-.963-1.08 3.322 3.322 0 0 0-1.62-.355c-.49.001-.978.078-1.444.228-.48.153-.938.372-1.36.65-.162.107-.319.225-.472.346v-1.207l-1.722.253v8.527h1.722V28.58c.167-.097.339-.186.515-.265.237-.105.48-.198.726-.278.237-.078.48-.137.726-.178.232-.038.466-.058.7-.059ZM43.514 30.856h.028l3.45 4.137h2.228l-4.095-4.615 4.011-3.996h-2.11l-2.89 3.175h-.622v-7.31l-1.722.253v12.494h1.722v-4.138ZM55.487 33.896c.033.175.095.343.183.497.15.259.382.46.658.574.306.123.633.184.963.178.101 0 .2-.003.295-.009a1.57 1.57 0 0 0 .279-.042c.09-.023.171-.042.245-.059.066-.015.13-.035.194-.06l.186-1.13c-.094.032-.19.054-.287.067-.079.01-.158.016-.237.017a.77.77 0 0 1-.658-.27 1.453 1.453 0 0 1-.186-.895l.034-3.478a4.058 4.058 0 0 0-.135-1.08c-.082-.31-.22-.601-.405-.862a2.288 2.288 0 0 0-.701-.624 3.575 3.575 0 0 0-1.022-.389 6.002 6.002 0 0 0-1.334-.135c-.355 0-.71.023-1.063.068a7.31 7.31 0 0 0-.988.194c-.3.082-.597.18-.886.296l-.203 1.435a9.945 9.945 0 0 1 1.537-.422c.231-.045.465-.076.7-.093.231-.017.459-.026.684-.026.344-.007.688.033 1.021.119.244.06.468.182.65.354.163.167.28.374.338.6.072.278.106.565.101.852l-.002.424-1.973.133a5.242 5.242 0 0 0-1.959.44 2.804 2.804 0 0 0-1.156.936c-.25.366-.382.799-.38 1.241a2.47 2.47 0 0 0 .295 1.19c.207.376.518.684.895.887.46.24.976.356 1.494.338.487.01.97-.07 1.427-.237a3.29 3.29 0 0 0 1.064-.675c.117-.112.228-.23.332-.354Zm-1.581-.136a3.75 3.75 0 0 1-.718.068 1.907 1.907 0 0 1-.802-.152c-.206-.09-.38-.24-.498-.43a1.262 1.262 0 0 1-.169-.668c-.016-.281.061-.56.22-.793a1.29 1.29 0 0 1 .709-.422 5.14 5.14 0 0 1 1.317-.135h1.478l-.007 1.675c-.086.097-.18.186-.282.266-.183.145-.381.27-.59.372a2.67 2.67 0 0 1-.658.22ZM65.69 33.778c.194-.357.29-.759.28-1.165a2.364 2.364 0 0 0-.144-.87 1.98 1.98 0 0 0-.397-.633 2.539 2.539 0 0 0-.591-.464 4.581 4.581 0 0 0-.71-.33c-.18-.055-.357-.115-.531-.176a9.35 9.35 0 0 0-.523-.17c-.175-.05-.344-.103-.507-.16a3.718 3.718 0 0 1-.447-.185 2.944 2.944 0 0 1-.397-.254 1.108 1.108 0 0 1-.287-.32.814.814 0 0 1-.11-.423.872.872 0 0 1 .118-.464.958.958 0 0 1 .355-.33c.176-.096.367-.165.565-.202.248-.047.5-.07.752-.067a5.351 5.351 0 0 1 .886.076c.175.028.349.064.523.11.175.044.352.095.533.151.166.052.33.114.489.186l.118-1.367a8.021 8.021 0 0 0-.633-.237 6.263 6.263 0 0 0-.633-.169 5.079 5.079 0 0 0-.633-.093 7.634 7.634 0 0 0-.616-.025 5.572 5.572 0 0 0-1.385.16 3.492 3.492 0 0 0-1.089.473c-.302.2-.549.473-.718.794a2.416 2.416 0 0 0-.253 1.14c-.005.284.04.567.135.835.08.225.2.434.355.616.15.173.323.323.515.448.2.13.411.24.633.33a15.052 15.052 0 0 0 .785.26 28.562 28.562 0 0 1 .743.237c.118.04.233.076.346.11.151.053.298.118.439.194.124.066.24.145.346.237a.87.87 0 0 1 .296.666.842.842 0 0 1-.279.667 1.62 1.62 0 0 1-.726.346c-.313.07-.633.104-.954.102-.2-.002-.4-.016-.6-.042a8.504 8.504 0 0 1-.691-.119 10.71 10.71 0 0 1-.744-.185 14.98 14.98 0 0 1-.768-.245l.068 1.435c.293.101.56.183.802.245s.473.115.692.16c.212.044.426.072.642.085.208.01.419.016.633.016.47.003.94-.045 1.401-.143a3.619 3.619 0 0 0 1.148-.447c.32-.196.584-.469.769-.794ZM72.478 33.634l-.287.05a2.505 2.505 0 0 1-.279.034c-.09.006-.175.008-.253.008a1.703 1.703 0 0 1-.751-.151 1.087 1.087 0 0 1-.482-.448 1.421 1.421 0 0 1-.168-.717v-4.677h2.38l.186-1.351h-2.566v-2.668l-1.723.608v2.06h-1.3l-.185 1.35h1.485v5.032c-.007.336.044.67.152.988.087.251.222.483.397.684.16.178.356.322.574.422a2.9 2.9 0 0 0 .7.22c.24.043.483.066.727.067.18 0 .357-.006.532-.017a5.625 5.625 0 0 0 .895-.127c.129-.028.238-.053.329-.076l.101-1.401a1.25 1.25 0 0 1-.202.059c-.08.017-.167.034-.262.05ZM76.21 22.676a1.092 1.092 0 0 0-.583-.16 1.135 1.135 0 0 0-.59.16 1.24 1.24 0 0 0-.431.422 1.09 1.09 0 0 0-.16.583c-.002.208.053.412.16.59.103.177.252.323.43.423.18.101.385.154.591.152.205.002.406-.05.583-.152.173-.1.317-.247.414-.422.1-.18.153-.384.151-.591a1.139 1.139 0 0 0-.151-.583 1.189 1.189 0 0 0-.414-.422ZM74.731 34.993h1.723v-8.78l-1.722.253v8.527ZM85.706 26.55a3.32 3.32 0 0 0-1.62-.354c-.49.001-.978.078-1.444.228-.481.153-.938.372-1.36.65-.162.107-.32.225-.472.346v-1.207l-1.722.253v8.527h1.722V28.58c.166-.097.338-.186.515-.265.237-.105.48-.198.726-.278a4.88 4.88 0 0 1 .726-.178c.231-.038.466-.058.7-.059.276-.006.55.037.81.127.216.077.407.208.558.38.155.186.265.406.321.641.072.299.106.605.101.912v5.133h1.722v-5.488a4.68 4.68 0 0 0-.32-1.874 2.21 2.21 0 0 0-.963-1.08ZM94.95 26.416a6.1 6.1 0 0 0-.785-.16 6.587 6.587 0 0 0-.911-.06 4.08 4.08 0 0 0-1.604.321c-.509.215-.97.528-1.36.92-.414.423-.734.93-.937 1.486a5.696 5.696 0 0 0-.337 2.035c-.019.762.128 1.52.43 2.22a3.273 3.273 0 0 0 1.258 1.452 3.726 3.726 0 0 0 2.01.515 4.868 4.868 0 0 0 1.806-.355c.343-.14.666-.324.962-.547v.463c.007.38-.047.76-.16 1.122a2.037 2.037 0 0 1-.49.81c-.242.233-.538.401-.861.49a4.52 4.52 0 0 1-1.292.161c-.347 0-.693-.02-1.038-.06a7.41 7.41 0 0 1-1.072-.202 8.233 8.233 0 0 1-1.064-.363l.186 1.486c.31.126.63.23.954.312a8.47 8.47 0 0 0 1.038.195c.37.045.742.068 1.115.067a5.446 5.446 0 0 0 2.414-.481 3.387 3.387 0 0 0 1.477-1.334c.34-.599.512-1.278.498-1.967v-8.746l-1.65.425c-.192-.08-.387-.15-.587-.205Zm.313 6.762c-.21.121-.427.229-.65.32-.197.082-.4.146-.608.195a2.759 2.759 0 0 1-.616.067 2.935 2.935 0 0 1-1.46-.329 1.976 1.976 0 0 1-.862-.996 4.486 4.486 0 0 1-.278-1.714 4.47 4.47 0 0 1 .194-1.376c.11-.366.3-.703.557-.988.25-.264.555-.468.895-.599a3.25 3.25 0 0 1 1.207-.211c.266 0 .532.022.794.067.268.048.533.113.793.195.083.026.169.06.253.091v5.148c-.075.044-.15.09-.22.13ZM105.139 31.11a2.541 2.541 0 0 0-.591-.465 4.595 4.595 0 0 0-.709-.329 14.54 14.54 0 0 1-.532-.177 9.48 9.48 0 0 0-.524-.17c-.174-.05-.343-.103-.506-.16a3.723 3.723 0 0 1-.448-.185 2.967 2.967 0 0 1-.396-.254 1.105 1.105 0 0 1-.287-.32.803.803 0 0 1-.11-.422.87.87 0 0 1 .118-.465.954.954 0 0 1 .355-.329c.176-.097.367-.165.565-.203.248-.047.5-.07.752-.067a5.293 5.293 0 0 1 .886.076c.175.028.349.065.523.11.175.045.352.095.533.152.166.051.33.113.489.185l.118-1.367a8.02 8.02 0 0 0-.633-.237 6.225 6.225 0 0 0-.633-.169 5.059 5.059 0 0 0-.633-.092 7.641 7.641 0 0 0-.617-.026 5.56 5.56 0 0 0-1.384.16 3.487 3.487 0 0 0-1.089.473c-.302.2-.549.473-.717.794a2.412 2.412 0 0 0-.254 1.14c-.005.284.04.567.136.835.08.226.2.434.354.617.15.172.324.323.515.447.2.13.412.241.633.33a15.55 15.55 0 0 0 .785.261 29.62 29.62 0 0 1 .743.236c.118.04.234.076.346.11.151.054.298.119.439.194.124.066.24.145.347.237a.87.87 0 0 1 .295.667.845.845 0 0 1-.279.666 1.622 1.622 0 0 1-.726.347 4.31 4.31 0 0 1-.953.1 4.757 4.757 0 0 1-.6-.041 8.57 8.57 0 0 1-.692-.118 10.72 10.72 0 0 1-.743-.186c-.253-.073-.51-.155-.768-.245l.067 1.435c.293.101.56.183.802.245s.473.115.692.16c.212.044.426.072.642.085.208.01.419.016.633.017.471.002.941-.046 1.401-.144a3.612 3.612 0 0 0 1.148-.447c.32-.195.584-.468.769-.794.193-.357.289-.759.278-1.165a2.364 2.364 0 0 0-.143-.87 1.985 1.985 0 0 0-.397-.633ZM107.469 29.506l-.119 1.384h4.778l.119-1.384h-4.778ZM6.68 43.743a4.633 4.633 0 0 0-2.288-.54 4.61 4.61 0 0 0-2.305.557 3.892 3.892 0 0 0-1.536 1.57A4.962 4.962 0 0 0 0 47.728a5.177 5.177 0 0 0 .516 2.389c.323.649.84 1.183 1.477 1.528.687.36 1.454.54 2.229.523a4.756 4.756 0 0 0 2.33-.557 3.934 3.934 0 0 0 1.579-1.587c.392-.75.586-1.586.565-2.431a4.89 4.89 0 0 0-.523-2.322 3.688 3.688 0 0 0-1.494-1.528ZM6.578 49.4c-.19.439-.511.808-.92 1.055-.41.236-.877.355-1.35.346a2.399 2.399 0 0 1-1.317-.354 2.377 2.377 0 0 1-.878-1.064 4.262 4.262 0 0 1-.321-1.756 3.98 3.98 0 0 1 .32-1.705c.19-.423.505-.776.904-1.013a2.731 2.731 0 0 1 1.393-.338c.38-.01.756.063 1.106.211.306.138.573.35.777.617.217.29.375.62.464.97.105.411.156.834.152 1.258a4.208 4.208 0 0 1-.33 1.773ZM14.32 43.33a3.317 3.317 0 0 0-.896.388c-.288.18-.554.392-.793.633-.04.04-.079.084-.119.126V43.22l-1.722.253v8.526h1.723v-6.378a4.385 4.385 0 0 1 .92-.493c.174-.068.351-.127.532-.178a3.612 3.612 0 0 1 1.182-.126l.202-1.587a3.213 3.213 0 0 0-1.03.092ZM24.264 43.389h-2.11l-2.89 3.174h-.623v-7.31l-1.722.253V52h1.722v-4.136h.029L22.12 52h2.228l-4.096-4.615 4.012-3.996ZM32.317 44.477a3.064 3.064 0 0 0-1.24-.953 4.328 4.328 0 0 0-1.714-.321 4.198 4.198 0 0 0-1.723.337c-.494.217-.935.54-1.291.946a4.148 4.148 0 0 0-.81 1.46 6.103 6.103 0 0 0-.28 1.9 5.111 5.111 0 0 0 .499 2.355c.32.637.839 1.152 1.477 1.469.749.353 1.57.523 2.398.498.398.004.796-.022 1.19-.076.33-.047.655-.124.97-.228.315-.105.62-.235.913-.388l.118-1.3c-.214.079-.431.157-.65.236-.22.079-.448.15-.684.211a5.11 5.11 0 0 1-.726.135 6.56 6.56 0 0 1-.743.042 5.324 5.324 0 0 1-1.317-.143 2.165 2.165 0 0 1-.937-.49 2.137 2.137 0 0 1-.574-.937 4.286 4.286 0 0 1-.184-1.114h6.102a6.466 6.466 0 0 0-.093-2.094 3.945 3.945 0 0 0-.7-1.544Zm-4.255.406c.397-.24.854-.361 1.317-.346.464-.024.922.11 1.3.38.337.268.577.638.684 1.055.085.308.126.626.123.945h-4.44c.031-.336.103-.668.215-.988.144-.428.426-.796.802-1.046ZM40.556 48.116a2.541 2.541 0 0 0-.59-.464 4.574 4.574 0 0 0-.71-.33 15.11 15.11 0 0 1-.531-.177 9.553 9.553 0 0 0-.524-.169c-.175-.05-.343-.104-.507-.16a3.675 3.675 0 0 1-.447-.186 2.92 2.92 0 0 1-.397-.253 1.107 1.107 0 0 1-.287-.32.812.812 0 0 1-.11-.423.875.875 0 0 1 .119-.464.962.962 0 0 1 .354-.33c.177-.096.368-.165.566-.202.247-.048.5-.07.751-.068a5.292 5.292 0 0 1 .886.076c.175.029.35.065.524.11.175.045.352.096.532.152.167.051.33.113.49.186l.117-1.368a8.003 8.003 0 0 0-.633-.236 6.229 6.229 0 0 0-.633-.169 5.06 5.06 0 0 0-.633-.093 7.622 7.622 0 0 0-.616-.025 5.572 5.572 0 0 0-1.385.16 3.487 3.487 0 0 0-1.089.473c-.302.2-.548.473-.717.794a2.414 2.414 0 0 0-.253 1.14c-.006.284.04.567.135.835.08.225.2.434.354.616.15.172.324.323.515.448.2.13.412.24.633.329a14.403 14.403 0 0 0 .785.262 36.244 36.244 0 0 1 .743.236c.119.04.234.076.346.11.151.053.298.118.44.194.123.066.24.145.346.236a.866.866 0 0 1 .295.667.841.841 0 0 1-.279.667c-.209.175-.458.294-.726.346-.313.07-.633.103-.953.101a4.75 4.75 0 0 1-.6-.042 8.613 8.613 0 0 1-.692-.118c-.242-.051-.49-.113-.743-.186s-.51-.154-.768-.244l.067 1.435c.293.1.56.182.802.244.243.062.473.116.692.16.212.044.426.073.642.085.208.011.42.017.633.017.471.002.94-.046 1.401-.143a3.624 3.624 0 0 0 1.149-.448c.319-.195.583-.468.768-.793.193-.358.29-.76.278-1.165a2.361 2.361 0 0 0-.143-.87 1.978 1.978 0 0 0-.397-.633ZM47.605 50.64l-.286.05a2.504 2.504 0 0 1-.28.035c-.09.005-.174.008-.252.008a1.703 1.703 0 0 1-.752-.152 1.089 1.089 0 0 1-.48-.447 1.424 1.424 0 0 1-.17-.718V44.74h2.38l.187-1.35h-2.567V40.72l-1.722.608v2.06h-1.3l-.186 1.35h1.486v5.032c-.007.335.044.67.152.987.087.252.222.484.397.684.16.178.356.322.574.422.223.103.459.177.7.22.24.044.483.066.726.067.18 0 .358-.005.532-.017a5.516 5.516 0 0 0 .895-.126c.13-.028.24-.053.33-.076l.1-1.402a1.26 1.26 0 0 1-.202.06 5.572 5.572 0 0 1-.262.05ZM53.388 43.33a3.317 3.317 0 0 0-.895.388c-.288.18-.554.392-.794.633-.04.04-.078.084-.118.126V43.22l-1.722.253v8.526h1.722v-6.378a4.389 4.389 0 0 1 .92-.493c.175-.068.352-.127.532-.178a3.639 3.639 0 0 1 1.182-.126l.203-1.587a3.213 3.213 0 0 0-1.03.092ZM62.522 44.477a3.065 3.065 0 0 0-1.24-.953 4.33 4.33 0 0 0-1.715-.321 4.2 4.2 0 0 0-1.722.337 3.68 3.68 0 0 0-1.291.946 4.135 4.135 0 0 0-.811 1.46 6.103 6.103 0 0 0-.278 1.9 5.11 5.11 0 0 0 .498 2.355c.32.637.839 1.152 1.477 1.469.749.353 1.57.523 2.398.498.398.004.795-.022 1.19-.076a5.69 5.69 0 0 0 .97-.228c.314-.105.62-.235.912-.388l.119-1.3-.65.236c-.22.079-.448.15-.684.211a5.126 5.126 0 0 1-.726.135 6.566 6.566 0 0 1-.743.042 5.324 5.324 0 0 1-1.317-.143 2.165 2.165 0 0 1-.937-.49 2.138 2.138 0 0 1-.574-.937 4.286 4.286 0 0 1-.184-1.114h6.101a6.46 6.46 0 0 0-.093-2.094 3.946 3.946 0 0 0-.7-1.544Zm-4.255.406c.396-.24.854-.361 1.317-.346.464-.023.922.11 1.3.38.337.268.577.638.684 1.055.084.308.126.626.123.945h-4.44c.031-.336.103-.668.214-.988.144-.428.426-.796.802-1.046ZM69.891 50.64l-.287.05a2.51 2.51 0 0 1-.278.035c-.09.005-.175.008-.253.008a1.702 1.702 0 0 1-.751-.152 1.086 1.086 0 0 1-.482-.447 1.421 1.421 0 0 1-.169-.718V44.74h2.381l.186-1.35H67.67V40.72l-1.722.608v2.06h-1.3l-.186 1.35h1.486v5.032c-.007.335.044.67.152.987.087.252.222.484.397.684.16.178.356.322.574.422.223.103.459.177.7.22.24.044.483.066.727.067.18 0 .357-.005.532-.017a5.518 5.518 0 0 0 .894-.126c.13-.028.24-.053.33-.076l.101-1.402a1.243 1.243 0 0 1-.203.06 5.68 5.68 0 0 1-.262.05ZM36.941 26.416a6.104 6.104 0 0 0-.785-.16 6.588 6.588 0 0 0-.912-.06 4.081 4.081 0 0 0-1.604.321c-.508.215-.97.528-1.359.92-.414.423-.734.93-.937 1.486a5.696 5.696 0 0 0-.338 2.035c-.018.762.129 1.52.43 2.22a3.272 3.272 0 0 0 1.259 1.452 3.726 3.726 0 0 0 2.009.515 4.868 4.868 0 0 0 1.806-.355c.343-.14.667-.324.963-.547v.463c.007.38-.047.76-.16 1.122a2.038 2.038 0 0 1-.49.81c-.242.233-.538.401-.861.49-.42.116-.856.17-1.292.161a9.43 9.43 0 0 1-1.038-.06 7.408 7.408 0 0 1-1.072-.202 8.228 8.228 0 0 1-1.064-.363l.186 1.486c.31.126.629.23.954.312a8.47 8.47 0 0 0 1.038.195c.37.045.742.068 1.114.067a5.445 5.445 0 0 0 2.415-.481 3.387 3.387 0 0 0 1.477-1.334c.34-.599.512-1.278.498-1.967v-8.746l-1.651.425c-.19-.08-.386-.15-.586-.205Zm.312 6.762c-.209.121-.426.229-.65.32-.197.082-.4.146-.607.195a2.76 2.76 0 0 1-.617.067 2.935 2.935 0 0 1-1.46-.329 1.976 1.976 0 0 1-.861-.996 4.49 4.49 0 0 1-.279-1.714c-.007-.466.058-.93.194-1.376.111-.366.301-.703.558-.988.25-.264.555-.468.895-.599a3.25 3.25 0 0 1 1.207-.211c.266 0 .531.022.793.067.269.048.534.113.794.195.083.026.169.06.253.091v5.148c-.075.044-.15.09-.22.13Z"/></svg>