<svg xmlns="http://www.w3.org/2000/svg" viewBox="0 0 51 36"><path fill="#fff" d="M0 15.004v-14h4.593v14H0ZM10.843 3.232l2.641 11.77H8.457L5.303 1.006h2.82a2.655 2.655 0 0 1 1.764.64c.491.404.829.965.956 1.588Zm3.331 11.77V1.006h4.594v13.998h-4.594Zm8.063-8.675a2.737 2.737 0 0 1-1.409-.374 2.778 2.778 0 0 1-1.015-1.016 2.735 2.735 0 0 1-.375-1.41 2.685 2.685 0 0 1 .375-1.4 2.812 2.812 0 0 1 3.824-1.005c.415.244.761.59 1.005 1.006.251.423.38.907.375 1.4.005.495-.125.982-.375 1.41a2.8 2.8 0 0 1-1.005 1.015c-.424.25-.908.38-1.4.374Zm3.49 8.675V1.006h4.594v13.998h-4.594Zm10.409-6.348c.013.013.111.174.296.483.184.308.424.703.72 1.183a384.573 384.573 0 0 1 1.862 3.056c.289.48.617 1.022.986 1.627h-5.047l-.858-1.39c-.256-.415-.529-.862-.817-1.341-.29-.48-.576-.946-.858-1.4a71.017 71.017 0 0 1-.73-1.193 21.1 21.1 0 0 0-.424-.69 2.04 2.04 0 0 1-.334-.986c.019-.338.128-.664.315-.947.078-.131.223-.364.433-.7a216.97 216.97 0 0 0 1.598-2.603l.817-1.35.858-1.4H40l-3.904 6.369c-.12.189-.189.407-.197.631.013.236.095.462.236.65h.001ZM6.864 29.218c.262-.04.52-.1.774-.18.512-.16.986-.425 1.39-.779a3.61 3.61 0 0 0 .926-1.3 4.527 4.527 0 0 0 .335-1.804 4.862 4.862 0 0 0-.444-2.09 3.327 3.327 0 0 0-1.458-1.507 5.65 5.65 0 0 0-2.73-.562H0V34.99h2.05V29.63h3.015l3.49 5.361h2.404l-3.272-4.848-.823-.924Zm.035-6.241c.408.155.75.448.965.828.226.441.334.933.315 1.428a2.868 2.868 0 0 1-.384 1.567c-.26.405-.649.71-1.103.868a4.917 4.917 0 0 1-1.705.266H2.05V22.71h3.173c.57-.02 1.14.07 1.676.266ZM21.582 33.749a.899.899 0 0 1-.768-.316 1.695 1.695 0 0 1-.217-1.045l.04-4.06a4.742 4.742 0 0 0-.158-1.261 3.1 3.1 0 0 0-.473-1.006 2.673 2.673 0 0 0-.818-.729 4.177 4.177 0 0 0-1.193-.453 7.006 7.006 0 0 0-1.557-.158c-.415 0-.83.026-1.242.079-.389.049-.774.124-1.153.226-.351.096-.696.211-1.035.346l-.236 1.675a11.538 11.538 0 0 1 1.793-.492 7.15 7.15 0 0 1 .819-.109c.269-.02.535-.03.798-.03.402-.008.803.038 1.192.139.284.07.546.213.76.413.19.195.325.436.393.7.084.325.124.66.118.996l-.002.494-2.304.156a6.126 6.126 0 0 0-2.286.512 3.277 3.277 0 0 0-1.35 1.094 2.548 2.548 0 0 0-.444 1.449c-.003.485.115.963.345 1.39.241.438.604.797 1.045 1.034.538.28 1.139.416 1.744.395a4.537 4.537 0 0 0 1.666-.276c.46-.18.883-.448 1.242-.789.136-.13.265-.268.387-.413.039.204.11.4.214.58.175.303.446.538.768.67.357.144.74.215 1.124.208.118 0 .233-.004.345-.01.11-.006.219-.023.325-.05.105-.026.2-.049.286-.068.077-.017.153-.04.227-.07l.216-1.32a1.72 1.72 0 0 1-.335.079 2.196 2.196 0 0 1-.276.02Zm-3.281-.887a3.783 3.783 0 0 1-.69.433 3.092 3.092 0 0 1-.769.257 4.34 4.34 0 0 1-.838.078c-.32.01-.64-.05-.936-.177a1.286 1.286 0 0 1-.581-.503 1.473 1.473 0 0 1-.197-.778 1.494 1.494 0 0 1 .256-.926 1.51 1.51 0 0 1 .828-.493 6.006 6.006 0 0 1 1.537-.158h1.726l-.009 1.957c-.1.112-.21.216-.327.31ZM30.906 25.2c-.02-.008-.038-.018-.059-.026a6.795 6.795 0 0 0-2.503-.453 4.841 4.841 0 0 0-2.454.65 4.831 4.831 0 0 0-1.823 1.883 6.063 6.063 0 0 0-.69 3.006 6.077 6.077 0 0 0 .523 2.621c.32.704.84 1.297 1.498 1.705a4.36 4.36 0 0 0 2.335.601 5.465 5.465 0 0 0 1.488-.197 5.37 5.37 0 0 0 1.37-.611c.148-.091.296-.193.443-.3l.248.911h1.635V20.128l-2.01.276V25.2Zm-1.054 8.105c-.45.177-.927.274-1.41.286a3.198 3.198 0 0 1-1.616-.385 2.466 2.466 0 0 1-1.025-1.182 4.937 4.937 0 0 1-.354-2.001 4.68 4.68 0 0 1 .394-2.04c.24-.521.636-.955 1.133-1.242.54-.294 1.15-.44 1.764-.424a5.945 5.945 0 0 1 1.862.286c.097.03.203.072.306.11v6.074a6.445 6.445 0 0 1-1.055.518ZM35.99 34.99h2.011V24.74l-2.01.296v9.954ZM37.715 20.611a1.277 1.277 0 0 0-.68-.187 1.327 1.327 0 0 0-.69.187c-.205.12-.378.29-.502.493-.125.205-.19.44-.188.68-.001.243.063.482.188.69.12.206.294.377.502.493.21.118.449.18.69.177a1.33 1.33 0 0 0 .68-.177c.203-.117.37-.288.483-.493.119-.21.18-.448.178-.69a1.33 1.33 0 0 0-.178-.68 1.392 1.392 0 0 0-.483-.493ZM49.985 27.136a4.31 4.31 0 0 0-1.745-1.784 5.41 5.41 0 0 0-2.67-.63 5.382 5.382 0 0 0-2.691.65 4.545 4.545 0 0 0-1.794 1.833 5.797 5.797 0 0 0-.64 2.798c-.025.965.18 1.921.601 2.79.377.758.98 1.38 1.725 1.784a5.36 5.36 0 0 0 2.601.61 5.552 5.552 0 0 0 2.72-.65 4.589 4.589 0 0 0 1.844-1.853 5.809 5.809 0 0 0 .66-2.838 5.713 5.713 0 0 0-.611-2.71Zm-1.863 4.819a2.685 2.685 0 0 1-1.074 1.232 3.063 3.063 0 0 1-1.577.404 2.803 2.803 0 0 1-1.537-.414 2.777 2.777 0 0 1-1.025-1.242 4.97 4.97 0 0 1-.374-2.05 4.64 4.64 0 0 1 .374-1.99c.221-.494.59-.907 1.054-1.183a3.192 3.192 0 0 1 1.627-.394c.442-.011.883.073 1.29.246.358.161.67.408.907.72.255.338.439.723.542 1.133.123.48.183.973.178 1.468a4.907 4.907 0 0 1-.385 2.07Z"/></svg>