<svg xmlns="http://www.w3.org/2000/svg" viewBox="0 0 133 24"><path fill="#114F9D" d="M0 0h133v24H0z"/><path fill="#fff" d="M6.004 18V6.001h3.937V18H6.004Zm9.294-10.09L17.562 18h-4.309L10.55 6.001h2.416a2.276 2.276 0 0 1 1.513.55c.42.345.71.826.82 1.36ZM18.154 18V6.001h3.937V18h-3.937Zm6.91-7.436a2.383 2.383 0 0 1-2.4-2.4 2.303 2.303 0 0 1 .323-1.2 2.411 2.411 0 0 1 3.278-.861c.355.209.652.506.861.861.215.363.326.778.322 1.2a2.4 2.4 0 0 1-1.183 2.079 2.302 2.302 0 0 1-1.2.321ZM28.057 18V6.001h3.937V18h-3.937Zm8.922-5.442c.011.012.096.15.253.414.158.265.364.603.617 1.014a315.936 315.936 0 0 1 1.597 2.62c.247.411.529.876.845 1.394h-4.326c-.27-.44-.516-.837-.735-1.191-.22-.355-.453-.738-.7-1.15-.249-.41-.494-.81-.737-1.2-.242-.389-.45-.73-.625-1.022-.175-.293-.296-.49-.363-.591a1.75 1.75 0 0 1-.287-.845c.017-.29.11-.57.27-.812.068-.113.192-.313.372-.6s.391-.628.633-1.022c.243-.395.488-.797.736-1.209l.7-1.157.736-1.2h4.326l-3.346 5.458a1.08 1.08 0 0 0-.17.542c.012.201.082.395.203.557h.001Z"/><path fill="#9FDAF5" d="M52.292 12.432a3.23 3.23 0 0 0-.854-.623 6.677 6.677 0 0 0-1.032-.419c-.364-.114-.74-.21-1.126-.29a24.116 24.116 0 0 1-.827-.205 3.794 3.794 0 0 1-.683-.247 2.26 2.26 0 0 1-.52-.342 1.224 1.224 0 0 1-.333-.477 1.835 1.835 0 0 1-.11-.675 2.044 2.044 0 0 1 .11-.7c.07-.198.187-.377.341-.52a2.13 2.13 0 0 1 .538-.359c.225-.102.463-.171.708-.205.291-.04.585-.06.879-.059a7.818 7.818 0 0 1 1.603.17c.258.056.511.128.76.214.232.08.458.18.673.298l.24-1.501a4.24 4.24 0 0 0-.76-.307 10 10 0 0 0-.81-.206 8.081 8.081 0 0 0-.836-.127 8.797 8.797 0 0 0-.87-.043 7.242 7.242 0 0 0-1.792.205c-.5.12-.971.334-1.39.631a2.855 2.855 0 0 0-.905 1.075 3.48 3.48 0 0 0-.315 1.537c-.01.41.057.817.196 1.203.123.323.312.617.555.862.24.24.516.442.819.598.32.165.654.302.997.41.359.113.726.21 1.1.29.308.068.593.139.854.213.243.067.48.155.708.264.196.093.377.214.537.359.153.143.272.318.35.512.09.234.134.483.128.734.005.267-.036.532-.12.785-.074.22-.19.422-.34.597a1.648 1.648 0 0 1-.546.41 2.763 2.763 0 0 1-.742.222c-.314.048-.63.07-.947.068-.309 0-.616-.02-.922-.06-.319-.04-.637-.094-.955-.162a9.686 9.686 0 0 1-.93-.248 17.824 17.824 0 0 1-.861-.298l.221 1.69c.29.108.587.202.887.281.273.072.55.129.828.17.267.04.534.072.802.095.267.022.538.034.81.034.61.004 1.22-.06 1.817-.188a4.347 4.347 0 0 0 1.485-.614c.421-.28.763-.666.989-1.118.25-.537.369-1.124.35-1.716.01-.44-.057-.88-.197-1.297a2.514 2.514 0 0 0-.562-.921ZM62.503 17.023a.776.776 0 0 1-.666-.273 1.469 1.469 0 0 1-.188-.905l.035-3.516a4.105 4.105 0 0 0-.137-1.093 2.68 2.68 0 0 0-.41-.87 2.308 2.308 0 0 0-.707-.632 3.623 3.623 0 0 0-1.032-.392 6.068 6.068 0 0 0-1.348-.137c-.36 0-.719.023-1.075.069-.337.042-.67.108-.998.196a8.307 8.307 0 0 0-.896.299l-.205 1.45a10.021 10.021 0 0 1 1.553-.426c.234-.045.47-.076.708-.094.233-.017.463-.026.69-.026.349-.007.696.033 1.033.12.246.061.472.185.657.358.164.169.282.378.341.606.073.282.107.572.103.862l-.002.427-1.995.135c-.682.019-1.354.17-1.979.444a2.837 2.837 0 0 0-1.168.947c-.253.37-.386.807-.384 1.255-.004.42.1.833.298 1.203.209.38.523.69.904.896.466.242.986.36 1.51.341.492.012.98-.07 1.442-.239a3.32 3.32 0 0 0 1.075-.682c.118-.114.23-.233.335-.358.034.177.096.347.185.503.152.261.386.465.666.58.309.124.64.185.972.18.102 0 .202-.004.299-.01.095-.005.189-.02.281-.042.091-.023.173-.043.248-.06.066-.015.132-.035.196-.06l.188-1.143a1.498 1.498 0 0 1-.29.069c-.08.01-.16.016-.24.016m-2.84-.768a3.272 3.272 0 0 1-.597.376 2.697 2.697 0 0 1-.665.222 3.79 3.79 0 0 1-.726.068 1.927 1.927 0 0 1-.81-.154 1.114 1.114 0 0 1-.503-.435 1.277 1.277 0 0 1-.171-.674 1.293 1.293 0 0 1 .222-.802c.185-.217.437-.367.716-.427a5.207 5.207 0 0 1 1.331-.136h1.494l-.008 1.693a2.272 2.272 0 0 1-.284.27M60.745 5.143h-1.843l-1.45 3.055h1.331l1.962-3.055ZM76.44 9.564a2.968 2.968 0 0 0-1.518-.359 3.994 3.994 0 0 0-1.348.23 4.75 4.75 0 0 0-1.228.658 6.113 6.113 0 0 0-.605.512 2.139 2.139 0 0 0-.88-1.024c-.47-.254-1-.378-1.535-.359-.456 0-.909.079-1.339.23a4.849 4.849 0 0 0-1.595.934V9.222l-1.74.256v8.62h1.74v-6.492a5.55 5.55 0 0 1 .64-.361c.27-.128.553-.228.844-.299.268-.066.543-.1.82-.102.253-.008.505.036.741.128.196.083.368.212.504.375.148.19.25.413.298.649.067.306.098.618.094.93v5.172h1.74v-5.53a6.927 6.927 0 0 0-.066-.976 6.36 6.36 0 0 1 .612-.356c.266-.134.547-.237.836-.307a3.57 3.57 0 0 1 .836-.102c.25-.006.5.037.734.128.199.081.374.21.512.375.148.19.25.413.298.649.067.306.098.618.094.93v5.189h1.74v-5.547a4.96 4.96 0 0 0-.307-1.895 2.2 2.2 0 0 0-.921-1.092ZM80.246 18.098h1.74V9.223l-1.74.256v8.62ZM81.738 5.647a1.104 1.104 0 0 0-.588-.163 1.148 1.148 0 0 0-.597.163 1.25 1.25 0 0 0-.435.426 1.105 1.105 0 0 0-.162.59A1.174 1.174 0 0 0 81.15 7.84c.206.002.41-.05.588-.154.176-.101.32-.249.418-.426.103-.183.156-.389.154-.598.002-.206-.05-.41-.154-.589a1.207 1.207 0 0 0-.418-.426ZM92.239 9.333a3.35 3.35 0 0 0-.904.393 4.45 4.45 0 0 0-.802.64c-.04.04-.08.085-.12.128V9.222l-1.74.256v8.62h1.74V11.65a4.412 4.412 0 0 1 .93-.498c.177-.07.356-.129.538-.18a3.678 3.678 0 0 1 1.194-.128l.205-1.604a3.245 3.245 0 0 0-1.041.093ZM102.032 17.023a.777.777 0 0 1-.665-.273 1.472 1.472 0 0 1-.188-.905l.034-3.516a4.108 4.108 0 0 0-.136-1.093 2.681 2.681 0 0 0-.41-.87 2.293 2.293 0 0 0-.708-.632 3.624 3.624 0 0 0-1.032-.392 6.068 6.068 0 0 0-1.348-.137c-.359 0-.718.023-1.075.069-.336.042-.67.108-.998.196a8.307 8.307 0 0 0-.895.299l-.205 1.45a10.009 10.009 0 0 1 1.552-.426c.235-.045.471-.076.709-.094.233-.017.463-.026.69-.026.348-.007.696.033 1.033.12.246.061.472.185.657.358.164.169.282.378.34.606.074.282.108.572.103.862l-.002.427-1.994.135c-.682.019-1.354.17-1.98.444a2.838 2.838 0 0 0-1.168.947c-.252.37-.386.807-.384 1.255-.003.42.1.833.299 1.203.209.38.523.69.904.896.466.242.986.36 1.51.341.491.012.98-.07 1.442-.239a3.32 3.32 0 0 0 1.075-.682c.118-.114.23-.233.335-.358.033.177.096.347.185.503.152.261.386.465.665.58.309.124.64.185.973.18.102 0 .202-.004.298-.01.095-.005.19-.02.282-.042l.247-.06c.067-.015.133-.035.196-.06l.188-1.143a1.489 1.489 0 0 1-.29.069c-.079.01-.159.016-.239.016m-2.84-.768a3.272 3.272 0 0 1-.597.376 2.697 2.697 0 0 1-.666.222 3.79 3.79 0 0 1-.725.068 1.927 1.927 0 0 1-.81-.154 1.113 1.113 0 0 1-.504-.435 1.277 1.277 0 0 1-.17-.674 1.293 1.293 0 0 1 .222-.802c.185-.217.437-.367.716-.427a5.207 5.207 0 0 1 1.331-.136h1.494l-.008 1.693a2.266 2.266 0 0 1-.284.27M110.103 9.62l-.051-.022a5.902 5.902 0 0 0-2.167-.393 4.17 4.17 0 0 0-3.702 2.194 5.246 5.246 0 0 0-.597 2.603c-.02.78.135 1.556.452 2.27.277.61.728 1.123 1.297 1.476.611.36 1.312.54 2.021.52.436.003.869-.054 1.289-.17.418-.12.817-.298 1.185-.53.128-.078.256-.166.383-.26l.215.79h1.416V5.228l-1.741.24V9.62Zm-.913 7.019a3.575 3.575 0 0 1-1.22.247c-.487.015-.97-.1-1.399-.333a2.135 2.135 0 0 1-.887-1.024 4.279 4.279 0 0 1-.307-1.732c-.02-.607.097-1.211.341-1.767.209-.451.551-.827.981-1.075a3.021 3.021 0 0 1 1.527-.367 5.188 5.188 0 0 1 1.613.248c.083.026.175.061.264.094v5.26c-.29.177-.596.327-.913.449ZM115.996 5.647a1.102 1.102 0 0 0-.588-.163 1.147 1.147 0 0 0-.597.163c-.178.104-.327.25-.435.426a1.11 1.11 0 0 0-.162.59 1.177 1.177 0 0 0 1.194 1.177c.206.002.41-.05.588-.154.176-.101.321-.249.419-.426a1.2 1.2 0 0 0 .153-.598c.003-.206-.05-.41-.153-.589a1.213 1.213 0 0 0-.419-.426ZM114.504 18.098h1.74V9.223l-1.74.256v8.62ZM126.617 11.296a3.727 3.727 0 0 0-1.51-1.544 5.131 5.131 0 0 0-4.641.017c-.659.369-1.198.92-1.552 1.587a5.026 5.026 0 0 0-.555 2.424 5.24 5.24 0 0 0 .521 2.415 3.558 3.558 0 0 0 1.492 1.545 4.637 4.637 0 0 0 2.253.529c.82.016 1.63-.178 2.354-.564a3.972 3.972 0 0 0 1.595-1.604 5.038 5.038 0 0 0 .572-2.458 4.962 4.962 0 0 0-.529-2.347Zm-1.613 4.174a2.32 2.32 0 0 1-.929 1.066 2.652 2.652 0 0 1-1.365.35 2.428 2.428 0 0 1-1.331-.358 2.406 2.406 0 0 1-.887-1.076 4.3 4.3 0 0 1-.323-1.775c-.02-.591.091-1.18.324-1.724.192-.427.51-.785.913-1.024a2.762 2.762 0 0 1 1.408-.341c.383-.01.764.063 1.117.213.309.14.579.354.785.623.22.293.38.627.469.982.107.415.158.842.154 1.271a4.254 4.254 0 0 1-.333 1.793"/></svg>