<svg xmlns="http://www.w3.org/2000/svg" viewBox="0 0 100 24"><path fill="#1767CE" d="M0 0h100v24H0z"/><path fill="#fff" d="M6.004 18V6.001h3.937V18H6.004Zm9.294-10.09L17.562 18h-4.309L10.55 6.001h2.416a2.276 2.276 0 0 1 1.513.55c.42.345.71.826.82 1.36ZM18.154 18V6.001h3.937V18h-3.937Zm6.91-7.436a2.383 2.383 0 0 1-2.4-2.4 2.303 2.303 0 0 1 .323-1.2 2.411 2.411 0 0 1 3.278-.861c.355.209.652.506.861.861.215.363.326.778.322 1.2a2.4 2.4 0 0 1-1.183 2.079 2.302 2.302 0 0 1-1.2.321ZM28.057 18V6.001h3.937V18h-3.937Zm8.922-5.442c.011.012.096.15.253.414.158.265.364.603.617 1.014a315.936 315.936 0 0 1 1.597 2.62c.247.411.529.876.845 1.394h-4.326c-.27-.44-.516-.837-.735-1.191-.22-.355-.453-.738-.7-1.15-.249-.41-.494-.81-.737-1.2-.242-.389-.45-.73-.625-1.022-.175-.293-.296-.49-.363-.591a1.748 1.748 0 0 1-.287-.845c.017-.29.11-.57.27-.812.068-.113.192-.313.372-.6s.391-.628.633-1.022c.243-.395.488-.797.736-1.209l.7-1.157.736-1.2h4.326l-3.346 5.458a1.08 1.08 0 0 0-.17.542c.012.201.082.395.203.557h.001Z"/><path fill="#D9E9FF" d="M52.667 6.004h-9.553v1.487h3.892v10.51h1.785V7.49h3.876V6.004ZM56.152 9.325a3.371 3.371 0 0 0-.9.388c-.29.18-.559.393-.8.634-.04.04-.08.084-.119.126V9.215l-1.734.253v8.533h1.734v-6.384a4.388 4.388 0 0 1 .926-.493 5.86 5.86 0 0 1 .536-.177 3.639 3.639 0 0 1 1.19-.127l.204-1.588a3.261 3.261 0 0 0-1.037.093ZM65.91 16.936a.779.779 0 0 1-.663-.27 1.446 1.446 0 0 1-.187-.896l.034-3.48a4.04 4.04 0 0 0-.136-1.082 2.642 2.642 0 0 0-.408-.861 2.298 2.298 0 0 0-.706-.626 3.614 3.614 0 0 0-1.028-.388 6.103 6.103 0 0 0-1.343-.135c-.358 0-.716.022-1.07.067a7.39 7.39 0 0 0-.995.195c-.303.081-.601.18-.893.295l-.204 1.436a10.076 10.076 0 0 1 1.547-.422c.233-.044.469-.075.705-.093.232-.017.462-.025.69-.025.346-.008.692.032 1.028.118.244.061.47.183.654.355.164.167.28.374.34.6.072.278.107.565.102.853l-.002.422-1.987.134c-.68.02-1.35.168-1.972.44a2.823 2.823 0 0 0-1.164.937 2.175 2.175 0 0 0-.383 1.242c-.003.416.1.825.297 1.191.209.376.521.684.901.887.464.24.983.356 1.505.338.49.011.977-.069 1.437-.236.397-.155.76-.384 1.07-.676.118-.112.23-.23.334-.354.034.175.096.343.185.497.151.26.384.461.663.575.308.123.637.183.969.177.102 0 .2-.003.297-.008.095-.006.189-.02.28-.043l.247-.059c.067-.014.132-.034.195-.059l.188-1.132c-.094.032-.191.055-.29.068-.078.01-.158.017-.237.018Zm-2.548-1.027a2.264 2.264 0 0 1-.284.267c-.184.144-.383.269-.595.371-.21.102-.433.176-.662.22-.238.046-.48.068-.723.067a1.929 1.929 0 0 1-.807-.152 1.105 1.105 0 0 1-.502-.43 1.255 1.255 0 0 1-.17-.668c-.016-.281.062-.56.221-.794a1.3 1.3 0 0 1 .714-.422c.435-.102.88-.147 1.326-.135h1.489l-.007 1.676ZM72.31 5.38a5.563 5.563 0 0 0-1.114-.102 3.443 3.443 0 0 0-1.088.169 2.36 2.36 0 0 0-1.487 1.436c-.15.411-.222.847-.213 1.284v1.217h-1.275V10.7h1.275v7.3h1.734v-7.3h2.38V9.384h-2.38V7.98a1.578 1.578 0 0 1 .094-.566c.055-.153.145-.292.263-.405.123-.113.272-.194.434-.237a2.12 2.12 0 0 1 .586-.076c.136 0 .266.006.391.017.125.011.246.028.366.05l.34.068c.096.02.19.048.28.085l-.068-1.402a4.103 4.103 0 0 0-.519-.136ZM74.205 18h1.733V9.216l-1.733.253v8.533ZM75.692 5.675a1.107 1.107 0 0 0-.586-.16 1.149 1.149 0 0 0-.596.16 1.245 1.245 0 0 0-.433.422 1.087 1.087 0 0 0-.161.583 1.15 1.15 0 0 0 .595 1.014c.181.101.386.154.595.152.205.002.408-.05.586-.152.175-.1.319-.247.417-.422.102-.18.154-.385.153-.592a1.135 1.135 0 0 0-.153-.583 1.197 1.197 0 0 0-.417-.422ZM85.985 9.384H83.86L80.95 12.56h-.627V5.244l-1.734.254V18h1.734v-4.139h.029l3.473 4.14h2.244l-4.124-4.619 4.039-3.998ZM94.908 9.384h-2.124l-2.91 3.176h-.626V5.244l-1.734.254V18h1.734v-4.139h.028l3.473 4.14h2.244l-4.123-4.619 4.038-3.998Z"/></svg>