<svg xmlns="http://www.w3.org/2000/svg" viewBox="0 0 87 28"><path fill="#015F88" d="M0 0h87v28H0z"/><path fill="#fff" d="M6.667 21V7.001h4.593V21H6.667ZM17.509 9.23 20.151 21h-5.027L11.97 7.001h2.82a2.655 2.655 0 0 1 1.764.641c.49.404.828.964.955 1.587ZM20.841 21V7.001h4.593V21h-4.593Zm8.063-8.675a2.779 2.779 0 0 1-2.425-1.39 2.736 2.736 0 0 1-.375-1.41 2.686 2.686 0 0 1 .375-1.4 2.812 2.812 0 0 1 3.825-1.005c.415.244.76.59 1.005 1.005.25.424.38.908.375 1.4.004.495-.125.982-.375 1.41a2.8 2.8 0 0 1-1.006 1.015c-.423.25-.908.38-1.4.375ZM32.394 21V7.001h4.593V21h-4.593Zm10.409-6.349c.013.014.111.175.295.483.185.309.424.703.72 1.183a373.133 373.133 0 0 1 1.863 3.056c.288.48.617 1.022.986 1.627H41.62l-.858-1.39a127.3 127.3 0 0 1-.818-1.34c-.289-.48-.575-.947-.858-1.4a71.148 71.148 0 0 1-.729-1.194 20.758 20.758 0 0 0-.424-.69 2.04 2.04 0 0 1-.335-.985c.02-.338.128-.665.315-.947.079-.132.224-.365.434-.7a206.222 206.222 0 0 0 1.598-2.602c.289-.48.561-.93.817-1.351L41.62 7h5.047l-3.904 6.368c-.12.19-.189.407-.197.632.013.235.095.461.236.65Z"/><path fill="#85E6D6" d="M61.49 8.814a3.519 3.519 0 0 0-.915-.956 4.39 4.39 0 0 0-1.33-.63A6.285 6.285 0 0 0 57.475 7H52v13.998h2.067v-5.027h3.564a4.642 4.642 0 0 0 2.304-.572 4.262 4.262 0 0 0 1.624-1.597c.415-.74.623-1.577.601-2.425a5.768 5.768 0 0 0-.157-1.36 3.933 3.933 0 0 0-.513-1.204Zm-1.83 4.25a2.331 2.331 0 0 1-1.113.916 4.588 4.588 0 0 1-1.743.296h-2.737v-5.56h3.013a3.74 3.74 0 0 1 1.674.325c.418.203.76.535.974.947.228.462.34.973.325 1.488a2.919 2.919 0 0 1-.394 1.587ZM66.363 7.464c-.282.151-.557.292-.826.424l-.817.394c-.276.131-.558.25-.847.355-.289.105-.598.21-.926.315l.434 1.676c.394-.118.751-.236 1.073-.355.315-.115.624-.247.925-.394.296-.144.591-.302.886-.473l.01-.006V21h2.047V7.001H67.26a33.13 33.13 0 0 0-.896.463ZM76.336 13.23V9.249h-1.732v3.983h-3.997v1.557h3.997v3.964h1.732v-3.964h3.997v-1.557h-3.997Z"/></svg>