<svg xmlns="http://www.w3.org/2000/svg" viewBox="0 0 268 28"><path fill="#01405C" d="M0 0h267.667v28H0z"/><path fill="#fff" d="M6.667 21V7h4.593V21H6.667ZM17.509 9.23 20.151 21h-5.027L11.97 7h2.82a2.655 2.655 0 0 1 1.764.641c.49.404.828.964.955 1.587ZM20.841 21V7h4.593V21h-4.593Zm8.063-8.675a2.78 2.78 0 0 1-2.425-1.39 2.735 2.735 0 0 1-.375-1.41 2.686 2.686 0 0 1 .375-1.4 2.812 2.812 0 0 1 3.825-1.006c.415.245.76.59 1.005 1.006.25.424.38.908.375 1.4.004.495-.125.982-.375 1.41a2.8 2.8 0 0 1-1.006 1.015c-.423.25-.908.38-1.4.375ZM32.394 21V7h4.593V21h-4.593Zm10.409-6.349c.013.014.111.175.295.483.184.309.424.703.72 1.183a373.133 373.133 0 0 1 1.863 3.056c.288.48.617 1.022.986 1.627H41.62a744.12 744.12 0 0 0-.858-1.39c-.256-.414-.529-.861-.818-1.34-.289-.48-.575-.947-.858-1.4a71.148 71.148 0 0 1-.729-1.194 20.758 20.758 0 0 0-.424-.69 2.04 2.04 0 0 1-.335-.986c.02-.337.128-.664.315-.946.079-.132.224-.365.434-.7a207.957 207.957 0 0 0 1.598-2.603c.289-.48.561-.93.817-1.35L41.62 7h5.047l-3.904 6.368c-.12.19-.189.407-.197.632.013.235.095.461.236.65Z"/><path fill="#85E6D6" d="M62.704 7.003h-2.482l-5.395 6.166h-.742V7.003H52V20.99h2.085v-6.324h.07l5.868 6.344 2.84-.02-6.733-6.934 6.574-7.053ZM68.601 10.874a3.916 3.916 0 0 0-1.052.453c-.339.21-.652.458-.934.739-.046.046-.092.098-.139.147v-1.467l-2.025.295v9.95h2.025v-7.444a5.19 5.19 0 0 1 1.083-.576c.205-.078.413-.147.625-.206a4.29 4.29 0 0 1 1.39-.148l.239-1.852a3.822 3.822 0 0 0-1.212.109ZM71.66 20.99h2.025V10.746l-2.025.295v9.95ZM73.397 6.618a1.294 1.294 0 0 0-.685-.187 1.344 1.344 0 0 0-.695.187c-.207.12-.38.29-.506.493a1.27 1.27 0 0 0-.189.68c-.002.242.063.48.189.69.121.205.296.375.506.492.212.118.452.179.695.177.24.003.477-.058.685-.177.205-.118.373-.288.487-.493.12-.21.18-.448.179-.69a1.323 1.323 0 0 0-.18-.68 1.398 1.398 0 0 0-.486-.492ZM84.568 11.14a3.936 3.936 0 0 0-1.906-.414 5.62 5.62 0 0 0-1.699.266 6.476 6.476 0 0 0-1.598.758 7.853 7.853 0 0 0-.556.405v-1.41l-2.026.296v9.95h2.025v-7.483c.197-.114.399-.217.606-.31.28-.122.564-.23.854-.325.28-.09.565-.159.854-.207.273-.044.548-.067.825-.068.324-.008.647.042.953.147.252.09.478.243.655.444.182.217.311.473.377.748.085.349.125.706.12 1.064v5.99h2.025v-6.404a5.428 5.428 0 0 0-.377-2.186 2.592 2.592 0 0 0-1.132-1.261ZM95.44 10.982a7.215 7.215 0 0 0-.924-.187 7.863 7.863 0 0 0-1.072-.069 4.84 4.84 0 0 0-1.886.374 4.996 4.996 0 0 0-1.6 1.074 4.852 4.852 0 0 0-1.101 1.734 6.592 6.592 0 0 0-.397 2.374c-.022.89.15 1.773.506 2.59.311.7.827 1.29 1.48 1.695a4.41 4.41 0 0 0 2.363.6 5.767 5.767 0 0 0 2.125-.413 5.04 5.04 0 0 0 1.132-.638v.54c.007.443-.056.885-.189 1.31-.114.355-.312.679-.576.945a2.37 2.37 0 0 1-1.013.571 5.354 5.354 0 0 1-1.52.188c-.407-.001-.815-.024-1.22-.07a8.678 8.678 0 0 1-1.261-.236 9.655 9.655 0 0 1-1.252-.424l.219 1.734c.365.147.74.269 1.122.365.402.1.81.176 1.221.226.435.053.873.08 1.311.08a6.45 6.45 0 0 0 2.84-.562 3.97 3.97 0 0 0 1.737-1.557c.4-.699.603-1.492.586-2.295V10.726l-1.942.496a5.876 5.876 0 0 0-.689-.24Zm.367 7.89a6.238 6.238 0 0 1-.764.375 4.68 4.68 0 0 1-.715.226c-.238.054-.481.08-.725.079a3.475 3.475 0 0 1-1.718-.384 2.313 2.313 0 0 1-1.013-1.162 5.201 5.201 0 0 1-.327-2 5.173 5.173 0 0 1 .228-1.606c.13-.427.354-.82.656-1.152a2.872 2.872 0 0 1 1.052-.7 3.86 3.86 0 0 1 1.42-.246c.313 0 .625.026.933.079.316.055.628.13.934.226.097.03.198.07.297.107v6.008c-.087.05-.176.104-.258.15ZM109.788 10.943h-2.482l-3.398 3.704h-.733V6.115l-2.026.295v14.58h2.026v-4.828h.033l4.058 4.827h2.621l-4.817-5.385 4.718-4.662ZM120.174 19.749a.91.91 0 0 1-.774-.315 1.68 1.68 0 0 1-.219-1.044l.04-4.059a4.707 4.707 0 0 0-.159-1.26 3.085 3.085 0 0 0-.476-1.005 2.698 2.698 0 0 0-.825-.73 4.24 4.24 0 0 0-1.201-.452 7.141 7.141 0 0 0-1.569-.158c-.418 0-.836.026-1.251.079-.392.049-.78.124-1.162.226-.354.096-.702.21-1.043.345l-.238 1.675a11.749 11.749 0 0 1 1.807-.493c.273-.051.548-.088.825-.108.271-.02.539-.03.804-.03.405-.008.809.038 1.201.138.286.071.55.214.765.414.191.195.328.436.397.7.085.324.125.659.119.994l-.002.495-2.321.155a6.221 6.221 0 0 0-2.304.512 3.307 3.307 0 0 0-1.361 1.094 2.532 2.532 0 0 0-.446 1.448c-.004.485.116.962.348 1.389.242.438.608.797 1.052 1.034.542.28 1.147.415 1.758.394.571.013 1.14-.08 1.677-.276.465-.18.89-.448 1.252-.788a5.53 5.53 0 0 0 .39-.412c.039.204.112.4.215.58.177.301.449.537.775.67.359.143.744.213 1.132.207.119 0 .235-.004.347-.01a1.79 1.79 0 0 0 .328-.05l.288-.069c.078-.017.154-.04.228-.069l.219-1.32c-.11.038-.223.064-.338.08a2.305 2.305 0 0 1-.278.019Zm-3.306-.886a3.886 3.886 0 0 1-.695.433 3.148 3.148 0 0 1-.775.256 4.41 4.41 0 0 1-.844.079 2.255 2.255 0 0 1-.943-.178 1.29 1.29 0 0 1-.586-.502 1.466 1.466 0 0 1-.199-.778 1.488 1.488 0 0 1 .258-.926c.217-.25.509-.423.834-.492a6.094 6.094 0 0 1 1.549-.158h1.739l-.009 1.955a2.732 2.732 0 0 1-.329.31ZM128.951 16.459a2.974 2.974 0 0 0-.695-.542 5.416 5.416 0 0 0-.834-.384c-.212-.066-.42-.135-.625-.207a11.366 11.366 0 0 0-.616-.197c-.206-.059-.404-.121-.596-.187a4.291 4.291 0 0 1-.526-.217 3.394 3.394 0 0 1-.467-.295 1.286 1.286 0 0 1-.337-.374.938.938 0 0 1-.13-.493 1.02 1.02 0 0 1 .139-.542 1.13 1.13 0 0 1 .418-.384c.207-.113.432-.193.665-.236.291-.056.587-.082.884-.08a6.471 6.471 0 0 1 1.042.09c.206.032.41.075.615.128.206.052.414.111.626.177.197.06.389.132.576.216l.139-1.595a9.88 9.88 0 0 0-.745-.276 7.445 7.445 0 0 0-.744-.197 6.109 6.109 0 0 0-.745-.108 9.05 9.05 0 0 0-.725-.03 6.592 6.592 0 0 0-1.628.187c-.456.11-.889.297-1.281.552a2.52 2.52 0 0 0-.844.926 2.79 2.79 0 0 0-.298 1.33c-.006.331.048.662.159.975.094.263.236.506.417.719.177.2.381.377.606.522.234.153.484.282.745.384a16.488 16.488 0 0 0 .923.305 32.348 32.348 0 0 1 .874.276c.138.046.275.089.407.128.178.063.35.139.516.227.146.076.282.169.407.276a1.007 1.007 0 0 1 .348.778.986.986 0 0 1-.328.778 1.908 1.908 0 0 1-.854.404c-.368.08-.744.12-1.122.118a5.574 5.574 0 0 1-.705-.05 10.226 10.226 0 0 1-.814-.137c-.284-.06-.576-.132-.874-.217a16.77 16.77 0 0 1-.903-.285l.079 1.674c.344.118.658.214.944.286.285.072.556.134.814.187.248.051.501.084.754.099.245.013.493.02.745.02a7.805 7.805 0 0 0 1.648-.168 4.261 4.261 0 0 0 1.35-.522c.376-.228.687-.547.904-.926.228-.417.341-.886.328-1.36a2.743 2.743 0 0 0-.169-1.014 2.298 2.298 0 0 0-.467-.739ZM137.241 19.404l-.337.06c-.109.019-.218.032-.328.039-.106.007-.206.01-.298.01a2.02 2.02 0 0 1-.884-.178 1.277 1.277 0 0 1-.566-.522 1.642 1.642 0 0 1-.198-.837v-5.457h2.8l.218-1.576h-3.018V7.83l-2.026.71v2.403h-1.529l-.219 1.576h1.748v5.87c-.009.392.052.782.179 1.153.102.293.261.564.467.798.189.208.418.376.675.493.262.12.539.205.824.256.281.051.567.078.854.079.211 0 .42-.007.626-.02.205-.013.393-.033.565-.06.172-.026.334-.055.487-.088.152-.033.281-.062.387-.089l.119-1.635c-.077.03-.157.053-.238.07-.092.019-.195.039-.308.058ZM139.893 20.99h2.026V10.746l-2.026.295v9.95ZM141.631 6.618a1.293 1.293 0 0 0-.685-.187 1.346 1.346 0 0 0-.695.187c-.207.12-.381.29-.506.493-.126.204-.191.44-.189.68a1.32 1.32 0 0 0 .189.69c.121.205.296.375.506.492.212.118.452.179.695.177.24.003.477-.058.685-.177a1.29 1.29 0 0 0 .487-.493c.119-.21.181-.448.179-.69a1.33 1.33 0 0 0-.179-.68 1.402 1.402 0 0 0-.487-.492ZM152.802 11.14a3.937 3.937 0 0 0-1.907-.414 5.622 5.622 0 0 0-1.698.266 6.486 6.486 0 0 0-1.598.758 8.004 8.004 0 0 0-.557.405v-1.41l-2.025.296v9.95h2.025v-7.483a6.28 6.28 0 0 1 .606-.31 9.09 9.09 0 0 1 .854-.325c.279-.09.565-.16.854-.207a5.2 5.2 0 0 1 .824-.068 2.75 2.75 0 0 1 .954.147c.252.09.478.243.655.444.182.217.311.473.377.748.085.349.125.706.119 1.064v5.99h2.026v-6.404a5.433 5.433 0 0 0-.377-2.186 2.595 2.595 0 0 0-1.132-1.261ZM163.674 10.982a7.221 7.221 0 0 0-.923-.187 7.875 7.875 0 0 0-1.073-.069 4.836 4.836 0 0 0-1.886.374 4.996 4.996 0 0 0-1.599 1.074 4.86 4.86 0 0 0-1.102 1.734 6.581 6.581 0 0 0-.397 2.374c-.022.89.15 1.773.506 2.59.311.7.827 1.29 1.48 1.695a4.407 4.407 0 0 0 2.363.6 5.763 5.763 0 0 0 2.124-.413 5.033 5.033 0 0 0 1.132-.638v.54c.008.443-.055.885-.188 1.31-.115.355-.312.679-.576.945a2.374 2.374 0 0 1-1.013.571 5.353 5.353 0 0 1-1.519.188c-.408-.001-.816-.024-1.221-.07a8.673 8.673 0 0 1-1.262-.236 9.69 9.69 0 0 1-1.251-.424l.219 1.734c.365.147.74.269 1.122.365.402.1.81.176 1.221.226.435.053.873.08 1.311.08a6.451 6.451 0 0 0 2.84-.562 3.97 3.97 0 0 0 1.737-1.557c.4-.699.603-1.491.586-2.295V10.726l-1.942.496a5.817 5.817 0 0 0-.689-.24Zm.368 7.89a6.25 6.25 0 0 1-.765.375 4.69 4.69 0 0 1-.715.226c-.238.053-.481.08-.725.079a3.478 3.478 0 0 1-1.718-.384 2.314 2.314 0 0 1-1.012-1.162 5.188 5.188 0 0 1-.328-2 5.17 5.17 0 0 1 .228-1.606c.13-.427.354-.82.656-1.152a2.87 2.87 0 0 1 1.052-.7c.454-.17.935-.254 1.42-.246a5.5 5.5 0 0 1 .933.079c.316.055.628.131.934.226.097.03.199.07.298.107v6.008l-.258.15ZM175.659 16.459a3.01 3.01 0 0 0-.695-.542 5.427 5.427 0 0 0-.835-.384c-.211-.066-.42-.135-.625-.207a11.091 11.091 0 0 0-.616-.197c-.205-.059-.404-.121-.596-.187a4.26 4.26 0 0 1-.526-.217 3.498 3.498 0 0 1-.467-.295 1.3 1.3 0 0 1-.337-.374.938.938 0 0 1-.13-.493c-.005-.19.043-.378.14-.542.103-.161.247-.293.417-.384.208-.113.432-.193.665-.236.291-.056.587-.082.884-.08a6.471 6.471 0 0 1 1.042.09c.206.032.41.075.616.128.205.052.414.111.625.177.197.06.389.132.576.216l.139-1.595a9.702 9.702 0 0 0-.744-.276 7.536 7.536 0 0 0-.745-.197 6.042 6.042 0 0 0-.745-.108 9.05 9.05 0 0 0-.725-.03 6.596 6.596 0 0 0-1.628.187 4.12 4.12 0 0 0-1.281.552 2.521 2.521 0 0 0-.844.926 2.79 2.79 0 0 0-.298 1.33c-.006.331.048.662.159.975.094.263.235.506.417.719.176.2.38.377.606.522.234.153.484.282.744.384.146.053.298.106.457.158.16.052.315.101.467.147a56.497 56.497 0 0 1 .874.276c.139.046.274.089.407.128.177.063.35.139.516.227.146.076.282.169.407.276a1.007 1.007 0 0 1 .348.778.972.972 0 0 1-.328.778c-.246.204-.54.343-.854.404a5.11 5.11 0 0 1-1.122.118 5.561 5.561 0 0 1-.705-.05 10.226 10.226 0 0 1-.814-.137 12.56 12.56 0 0 1-.874-.217 16.77 16.77 0 0 1-.903-.285l.079 1.674c.344.118.658.214.943.286.285.072.557.134.815.187.248.051.5.084.754.099.245.013.493.02.745.02a7.805 7.805 0 0 0 1.648-.168 4.278 4.278 0 0 0 1.351-.522c.375-.228.686-.547.903-.926.227-.417.34-.886.327-1.36a2.743 2.743 0 0 0-.168-1.014 2.316 2.316 0 0 0-.466-.739ZM185.916 11.358a5.484 5.484 0 0 0-2.691-.63 5.462 5.462 0 0 0-2.711.65 4.566 4.566 0 0 0-1.807 1.832 5.755 5.755 0 0 0-.645 2.797c-.026.964.182 1.92.605 2.788.381.758.987 1.38 1.738 1.783.808.42 1.71.63 2.621.61a5.632 5.632 0 0 0 2.741-.65 4.605 4.605 0 0 0 1.857-1.851c.461-.874.69-1.85.665-2.837a5.665 5.665 0 0 0-.616-2.709 4.318 4.318 0 0 0-1.757-1.783Zm-.119 6.6a2.69 2.69 0 0 1-1.082 1.231 3.106 3.106 0 0 1-1.589.404 2.84 2.84 0 0 1-1.549-.414 2.781 2.781 0 0 1-1.033-1.24 4.947 4.947 0 0 1-.377-2.05 4.611 4.611 0 0 1 .377-1.99 2.628 2.628 0 0 1 1.063-1.182 3.233 3.233 0 0 1 1.638-.394 3.15 3.15 0 0 1 1.301.247c.36.16.674.408.914.719.256.338.441.723.545 1.133.125.479.185.972.179 1.467a4.866 4.866 0 0 1-.388 2.069h.001ZM194.902 10.874a3.908 3.908 0 0 0-1.053.453c-.339.21-.652.458-.933.739-.047.046-.093.098-.139.147v-1.467l-2.026.295v9.95h2.026v-7.444c.15-.104.306-.2.466-.29a5.24 5.24 0 0 1 .616-.285c.205-.079.414-.148.625-.207a4.302 4.302 0 0 1 1.391-.148l.238-1.852a3.816 3.816 0 0 0-1.211.109ZM206.598 10.943h-2.482l-3.398 3.704h-.733V6.115l-2.025.295v14.58h2.025v-4.828h.034l4.057 4.827h2.621l-4.817-5.385 4.718-4.662ZM216.071 12.213a3.6 3.6 0 0 0-1.459-1.113 5.139 5.139 0 0 0-2.016-.374 4.975 4.975 0 0 0-2.026.394c-.582.253-1.1.63-1.519 1.103a4.826 4.826 0 0 0-.954 1.704 7.09 7.09 0 0 0-.327 2.217c-.028.95.173 1.891.586 2.748a3.86 3.86 0 0 0 1.738 1.714 6.21 6.21 0 0 0 2.82.581c.468.004.936-.025 1.4-.088a6.787 6.787 0 0 0 2.214-.72l.139-1.517c-.252.093-.507.185-.765.276a9.892 9.892 0 0 1-.804.247c-.28.072-.566.125-.854.157-.29.033-.582.05-.874.05a6.298 6.298 0 0 1-1.549-.168 2.552 2.552 0 0 1-1.102-.571 2.49 2.49 0 0 1-.675-1.094 4.907 4.907 0 0 1-.216-1.3h7.176a7.48 7.48 0 0 0-.109-2.443 4.593 4.593 0 0 0-.824-1.803Zm-5.004.473a2.831 2.831 0 0 1 1.549-.404 2.443 2.443 0 0 1 1.529.444c.395.313.677.745.804 1.23.099.36.148.732.145 1.104h-5.223c.037-.393.122-.78.252-1.152.17-.5.502-.93.944-1.222ZM225.762 16.459a3.01 3.01 0 0 0-.695-.542 5.427 5.427 0 0 0-.835-.384c-.211-.066-.42-.135-.625-.207a11.091 11.091 0 0 0-.616-.197c-.205-.059-.404-.121-.596-.187a4.357 4.357 0 0 1-.526-.217 3.508 3.508 0 0 1-.467-.295 1.303 1.303 0 0 1-.337-.374.937.937 0 0 1-.129-.493 1.01 1.01 0 0 1 .139-.542c.104-.161.247-.293.417-.384.208-.113.432-.193.665-.236.291-.056.587-.082.884-.08a6.52 6.52 0 0 1 1.043.09c.205.032.41.075.615.128.205.052.414.111.626.177.196.06.388.132.575.216l.14-1.595a9.88 9.88 0 0 0-.745-.276 7.464 7.464 0 0 0-.745-.197 6.045 6.045 0 0 0-.744-.108 9.07 9.07 0 0 0-.725-.03 6.599 6.599 0 0 0-1.629.187c-.455.11-.889.297-1.281.552a2.53 2.53 0 0 0-.844.926c-.207.412-.31.869-.298 1.33-.006.331.048.662.159.975.094.263.236.506.417.719.177.2.381.377.606.522.234.153.484.281.745.384.145.053.297.106.457.158a24 24 0 0 0 .466.147 56.497 56.497 0 0 1 .874.276c.139.046.275.089.407.128.178.063.35.139.516.227.146.076.283.169.408.276a1.017 1.017 0 0 1 .347.778.986.986 0 0 1-.328.778 1.91 1.91 0 0 1-.854.404c-.368.08-.744.12-1.122.118a5.574 5.574 0 0 1-.705-.05 10.226 10.226 0 0 1-.814-.137c-.284-.06-.576-.132-.874-.217-.297-.085-.598-.18-.903-.285l.079 1.674c.344.118.659.214.944.286.284.072.556.134.814.187.249.051.501.084.754.099.245.013.493.02.745.02a7.799 7.799 0 0 0 1.648-.168 4.28 4.28 0 0 0 1.351-.522c.375-.228.686-.547.903-.926.228-.417.341-.886.328-1.36a2.744 2.744 0 0 0-.169-1.014 2.314 2.314 0 0 0-.466-.739ZM234.053 19.404l-.337.06c-.109.019-.218.032-.328.039-.106.007-.206.01-.298.01a2.02 2.02 0 0 1-.884-.178 1.278 1.278 0 0 1-.566-.522 1.652 1.652 0 0 1-.198-.837v-5.457h2.8l.218-1.576h-3.018V7.83l-2.026.71v2.403h-1.529l-.219 1.576h1.748v5.87a3.32 3.32 0 0 0 .178 1.153c.103.293.261.564.467.798.189.208.419.376.676.493.262.12.539.205.823.256.282.051.568.078.854.079.212 0 .421-.007.626-.02a6.51 6.51 0 0 0 .566-.06c.172-.026.334-.055.486-.088.153-.033.282-.062.388-.089l.119-1.635c-.077.03-.157.053-.238.07-.093.019-.195.039-.308.058ZM240.854 10.874a3.915 3.915 0 0 0-1.052.453c-.339.21-.652.458-.934.739-.047.046-.092.098-.139.147v-1.467l-2.025.295v9.95h2.025v-7.444a5.24 5.24 0 0 1 1.083-.576c.205-.078.413-.147.625-.206a4.302 4.302 0 0 1 1.39-.148l.239-1.852a3.825 3.825 0 0 0-1.212.109ZM251.598 12.213a3.597 3.597 0 0 0-1.46-1.113 5.13 5.13 0 0 0-2.015-.374 4.975 4.975 0 0 0-2.026.394c-.582.253-1.1.63-1.519 1.103a4.827 4.827 0 0 0-.954 1.704 7.09 7.09 0 0 0-.327 2.217c-.028.949.173 1.891.585 2.748a3.867 3.867 0 0 0 1.738 1.714c.881.412 1.847.61 2.82.581.469.004.936-.025 1.4-.088.388-.056.77-.145 1.142-.266a7.456 7.456 0 0 0 1.073-.453l.139-1.517c-.252.092-.507.184-.765.275a9.892 9.892 0 0 1-.804.247 6.095 6.095 0 0 1-.854.157 7.71 7.71 0 0 1-.874.05 6.298 6.298 0 0 1-1.549-.168 2.55 2.55 0 0 1-1.102-.571 2.49 2.49 0 0 1-.675-1.094 4.95 4.95 0 0 1-.217-1.3h7.177a7.48 7.48 0 0 0-.109-2.443 4.593 4.593 0 0 0-.824-1.803Zm-5.004.473a2.831 2.831 0 0 1 1.549-.404 2.443 2.443 0 0 1 1.529.444c.395.313.677.745.804 1.23.099.36.148.732.145 1.104h-5.223c.037-.393.121-.78.252-1.152.17-.5.502-.93.944-1.222ZM260.574 19.345c-.093.02-.196.04-.308.06l-.337.058c-.109.02-.218.033-.328.04a4.58 4.58 0 0 1-.298.01 2.016 2.016 0 0 1-.883-.178 1.268 1.268 0 0 1-.566-.522 1.643 1.643 0 0 1-.199-.837v-5.457h2.8l.218-1.576h-3.018V7.83l-2.026.71v2.403H254.1l-.219 1.576h1.748v5.87c-.009.392.052.782.179 1.153.102.293.261.564.467.798.189.208.418.376.675.493.263.12.539.205.824.256.281.051.567.078.854.079.212 0 .42-.007.626-.02a6.552 6.552 0 0 0 1.052-.148c.152-.033.281-.062.387-.089l.12-1.635c-.078.03-.157.053-.239.07Z"/></svg>