<svg xmlns="http://www.w3.org/2000/svg" viewBox="0 0 83 41"><path fill="#fff" d="M0 17.997v-12h3.937v12H0Zm9.294-10.09 2.264 10.09H7.25l-2.704-12h2.417a2.276 2.276 0 0 1 1.513.55c.42.346.71.826.819 1.36Zm2.855 10.09v-12h3.938v12h-3.938Zm6.912-7.436a2.381 2.381 0 0 1-2.078-1.192 2.345 2.345 0 0 1-.322-1.208 2.301 2.301 0 0 1 .321-1.2 2.41 2.41 0 0 1 3.278-.862c.356.21.653.506.862.862.215.363.326.778.321 1.2a2.35 2.35 0 0 1-.321 1.208c-.207.36-.504.66-.862.87a2.301 2.301 0 0 1-1.2.322Zm2.99 7.436v-12h3.938v12h-3.937Zm8.923-5.442c.01.011.095.15.253.414s.364.602.617 1.014a309.436 309.436 0 0 1 1.597 2.62c.247.41.529.875.845 1.394H29.96c-.27-.44-.516-.837-.736-1.192-.22-.355-.453-.738-.7-1.15-.248-.41-.493-.81-.736-1.199a60.12 60.12 0 0 1-.625-1.022 18.04 18.04 0 0 0-.363-.592 1.747 1.747 0 0 1-.287-.845c.016-.29.11-.57.27-.811.067-.113.191-.313.371-.6a182.106 182.106 0 0 0 1.37-2.23l.7-1.159.736-1.2h4.326l-3.346 5.46a1.079 1.079 0 0 0-.17.54c.012.202.082.396.203.558Z"/><path fill="#9FDAF5" d="M8.032 30.24c.14.419.206.86.197 1.301a3.79 3.79 0 0 1-.352 1.722 2.9 2.9 0 0 1-.994 1.122c-.454.296-.96.505-1.491.616-.6.13-1.212.193-1.826.189-.274 0-.546-.012-.814-.034a12.994 12.994 0 0 1-.806-.095 7.98 7.98 0 0 1-.831-.17c-.302-.08-.6-.174-.892-.284L0 32.912c.274.102.563.202.866.3.303.097.614.18.934.248.32.068.64.123.96.163.307.039.616.059.926.06.318.002.636-.02.951-.07.258-.038.509-.113.746-.222.21-.097.396-.237.548-.41.152-.177.268-.38.343-.6.085-.254.125-.52.12-.788a1.907 1.907 0 0 0-.128-.737 1.445 1.445 0 0 0-.351-.514 2.235 2.235 0 0 0-.54-.36 4.336 4.336 0 0 0-.712-.265 16.408 16.408 0 0 0-.857-.214c-.378-.08-.746-.177-1.106-.291a6.322 6.322 0 0 1-1.003-.411 3.304 3.304 0 0 1-.822-.6 2.476 2.476 0 0 1-.558-.865A3.32 3.32 0 0 1 .12 26.13a3.482 3.482 0 0 1 .317-1.542c.208-.43.52-.801.909-1.08a4.074 4.074 0 0 1 1.397-.633 7.285 7.285 0 0 1 1.8-.206c.297 0 .588.014.874.043.282.028.562.07.84.128a9.9 9.9 0 0 1 .814.206c.264.078.52.181.763.308l-.24 1.508a4.318 4.318 0 0 0-.677-.3 6.57 6.57 0 0 0-.763-.214 7.828 7.828 0 0 0-1.611-.171 6.008 6.008 0 0 0-.883.06 2.544 2.544 0 0 0-.711.205c-.198.092-.38.213-.54.36a1.305 1.305 0 0 0-.343.522 2.051 2.051 0 0 0-.112.703c-.005.23.032.46.112.676.071.185.186.349.334.48.158.137.334.252.523.342.22.104.45.188.686.248.257.069.534.137.83.206.39.08.766.177 1.132.291.357.11.704.251 1.038.42.318.16.607.371.857.625.253.264.446.58.565.925m9.935 3.666c.099-.013.197-.036.291-.068l-.188 1.147c-.064.025-.13.045-.198.06l-.248.06a1.587 1.587 0 0 1-.283.043 5.416 5.416 0 0 1-.3.009 2.504 2.504 0 0 1-.977-.18 1.382 1.382 0 0 1-.669-.583 1.62 1.62 0 0 1-.185-.504 4.574 4.574 0 0 1-.338.359 3.343 3.343 0 0 1-1.08.685c-.463.17-.954.25-1.448.24a3.06 3.06 0 0 1-1.517-.343 2.254 2.254 0 0 1-.909-.9 2.505 2.505 0 0 1-.3-1.207c-.002-.449.133-.888.386-1.259a2.853 2.853 0 0 1 1.174-.95 5.326 5.326 0 0 1 1.989-.446l2.004-.136.001-.43a3.235 3.235 0 0 0-.102-.864 1.363 1.363 0 0 0-.343-.608 1.5 1.5 0 0 0-.66-.36 3.85 3.85 0 0 0-1.037-.12c-.229 0-.46.009-.695.026-.239.017-.476.049-.711.094a9.881 9.881 0 0 0-1.56.428l.206-1.456c.294-.117.594-.217.9-.3.329-.088.664-.154 1.003-.197a8.419 8.419 0 0 1 1.08-.068c.455-.005.909.04 1.354.137.364.077.713.21 1.037.394.278.16.52.375.712.633.188.265.327.56.41.874.096.358.142.727.138 1.097l-.034 3.528c-.037.315.03.634.188.908a.781.781 0 0 0 .669.274c.08 0 .16-.006.24-.017Zm-2.81-1.023.008-1.7h-1.5a5.22 5.22 0 0 0-1.338.137c-.28.06-.534.21-.72.428-.161.236-.24.52-.223.805-.007.237.052.471.171.676.12.194.297.346.506.437.257.11.535.162.814.154.245.001.489-.022.729-.068.232-.045.456-.12.668-.223.213-.103.415-.23.6-.377.103-.081.199-.171.286-.27M15.96 22H14.11l-1.458 3.066h1.338L15.96 22Zm15.772 4.437a2.987 2.987 0 0 0-1.526-.36 4.014 4.014 0 0 0-1.354.231c-.442.158-.858.38-1.235.66-.213.157-.416.329-.608.513a2.147 2.147 0 0 0-.883-1.028 3.025 3.025 0 0 0-1.543-.36c-.458 0-.913.079-1.345.232a4.867 4.867 0 0 0-1.603.936v-1.167l-1.749.257V35h1.749v-6.515c.206-.135.42-.256.642-.362.272-.129.557-.23.85-.3.268-.066.544-.1.822-.103.254-.007.508.036.745.129.197.083.37.212.506.377.149.19.252.413.3.65.067.307.098.62.094.934v5.19h1.749v-5.55a6.902 6.902 0 0 0-.066-.98c.198-.13.403-.248.614-.356.268-.134.55-.238.84-.308.275-.067.557-.102.84-.103.252-.006.503.038.738.129.2.081.376.21.514.377.149.19.252.413.3.65.067.307.098.62.094.934v5.207h1.749v-5.567a4.968 4.968 0 0 0-.309-1.901 2.207 2.207 0 0 0-.925-1.096Zm5.322-3.932a1.11 1.11 0 0 0-.591-.162 1.154 1.154 0 0 0-.6.162c-.179.105-.33.252-.437.429a1.176 1.176 0 0 0 .437 1.619 1.2 1.2 0 0 0 .6.153c.207.003.412-.05.591-.154.177-.101.322-.25.42-.428.103-.183.157-.39.155-.6a1.156 1.156 0 0 0-.155-.59 1.207 1.207 0 0 0-.42-.429Zm-1.5 12.496h1.749v-8.907l-1.749.257V35Zm12.052-8.796c-.32.086-.627.219-.91.394a4.475 4.475 0 0 0-.805.642c-.04.04-.08.086-.12.129v-1.276l-1.748.257V35h1.748V28.53a4.425 4.425 0 0 1 .934-.5c.178-.069.358-.129.54-.18a3.67 3.67 0 0 1 1.2-.129l.206-1.61a3.281 3.281 0 0 0-1.045.094m10.08 7.7a1.5 1.5 0 0 0 .29-.068l-.188 1.147a1.35 1.35 0 0 1-.197.06l-.248.06a1.593 1.593 0 0 1-.283.043 5.377 5.377 0 0 1-.3.009 2.504 2.504 0 0 1-.977-.18 1.38 1.38 0 0 1-.669-.583 1.611 1.611 0 0 1-.185-.504 4.686 4.686 0 0 1-.338.359c-.312.295-.679.528-1.08.685-.463.17-.955.25-1.448.24-.527.018-1.05-.1-1.517-.343a2.252 2.252 0 0 1-.909-.9c-.2-.37-.303-.785-.3-1.207-.003-.449.132-.888.386-1.259a2.846 2.846 0 0 1 1.174-.95 5.323 5.323 0 0 1 1.989-.446l2.003-.136.002-.43a3.236 3.236 0 0 0-.103-.864 1.355 1.355 0 0 0-.343-.608 1.502 1.502 0 0 0-.66-.36 3.844 3.844 0 0 0-1.037-.12c-.228 0-.46.009-.694.026-.239.017-.476.049-.711.094a9.719 9.719 0 0 0-1.56.428l.205-1.456c.294-.117.595-.217.9-.3a7.4 7.4 0 0 1 1.003-.197 8.404 8.404 0 0 1 1.08-.068c.455-.005.91.04 1.354.137.364.077.714.21 1.038.394.278.16.52.375.71.633.19.265.33.56.413.874.094.358.14.727.137 1.097l-.034 3.528c-.037.315.029.634.188.908a.783.783 0 0 0 .669.274c.08 0 .16-.006.24-.017Zm-2.81-1.023.008-1.7h-1.501a5.216 5.216 0 0 0-1.337.137 1.123 1.123 0 0 0-.943 1.233c-.007.237.053.471.171.676.12.194.297.346.506.437.257.11.535.163.815.154.244.001.488-.022.728-.068.231-.045.456-.12.668-.223.213-.103.415-.23.6-.377a2.3 2.3 0 0 0 .286-.27m10.677-10.555 1.748-.24V35H65.88l-.215-.792a6.46 6.46 0 0 1-.386.261c-.37.232-.77.411-1.191.531a4.77 4.77 0 0 1-1.294.172 3.8 3.8 0 0 1-2.032-.523 3.398 3.398 0 0 1-1.302-1.481 5.274 5.274 0 0 1-.455-2.279 5.268 5.268 0 0 1 .6-2.612 4.186 4.186 0 0 1 3.72-2.201 5.91 5.91 0 0 1 2.177.394l.052.022v-4.167Zm0 10.76v-5.279c-.09-.033-.182-.068-.266-.095a5.206 5.206 0 0 0-1.62-.248 3.036 3.036 0 0 0-1.534.368 2.42 2.42 0 0 0-.986 1.08 4.07 4.07 0 0 0-.343 1.772c-.019.595.086 1.187.309 1.739.177.43.49.79.89 1.028.432.233.917.348 1.407.334.42-.011.835-.095 1.226-.249.318-.122.625-.272.917-.45m5.922-10.58a1.11 1.11 0 0 0-.59-.163 1.155 1.155 0 0 0-.6.162 1.255 1.255 0 0 0-.438.429 1.107 1.107 0 0 0-.163.59c-.002.211.055.419.163.6a1.2 1.2 0 0 0 1.037.582c.208.003.412-.05.592-.154.176-.101.322-.25.42-.428.103-.183.156-.39.154-.6a1.158 1.158 0 0 0-.154-.59 1.205 1.205 0 0 0-.42-.429m-1.5 12.496h1.749v-8.907l-1.75.257V35Zm12.703-4.47a5.05 5.05 0 0 1-.574 2.467 3.993 3.993 0 0 1-1.603 1.61 4.831 4.831 0 0 1-2.366.565 4.662 4.662 0 0 1-2.263-.531 3.575 3.575 0 0 1-1.5-1.55 5.245 5.245 0 0 1-.523-2.424 5.033 5.033 0 0 1 .558-2.433 3.952 3.952 0 0 1 1.56-1.593 5.16 5.16 0 0 1 4.662-.017 3.743 3.743 0 0 1 1.518 1.55c.368.73.55 1.539.531 2.356Zm-1.817.034c.005-.43-.047-.86-.154-1.276a2.769 2.769 0 0 0-.472-.985 2.066 2.066 0 0 0-.788-.625 2.703 2.703 0 0 0-1.123-.215 2.774 2.774 0 0 0-1.415.343 2.28 2.28 0 0 0-.917 1.028 4.029 4.029 0 0 0-.325 1.73c-.02.61.092 1.217.325 1.781a2.288 2.288 0 0 0 2.229 1.44c.48.008.954-.114 1.371-.352.415-.251.742-.625.934-1.07.24-.569.355-1.182.335-1.8Z"/></svg>