<svg xmlns="http://www.w3.org/2000/svg" viewBox="0 0 55 24"><path fill="#fff" d="M0 17.998v-12h4v12zm9.244-10.09 2.264 10.09H7.2l-2.704-12h2.417a2.28 2.28 0 0 1 1.513.55c.42.346.66.826.819 1.36M12 17.998v-12h4v12zm7.01-7.436a2.381 2.381 0 0 1-2.078-1.192 2.35 2.35 0 0 1-.321-1.208 2.3 2.3 0 0 1 .321-1.2A2.41 2.41 0 0 1 20.21 6.1c.356.21.653.506.862.862.215.363.326.778.321 1.2a2.35 2.35 0 0 1-.321 1.208 2.4 2.4 0 0 1-.862.87 2.3 2.3 0 0 1-1.2.322M22 17.998v-12h4v12zm8.974-5.442q.015.017.253.414.237.396.617 1.014a316 316 0 0 1 1.597 2.62q.37.616.845 1.394H29.96q-.405-.66-.736-1.192t-.7-1.15q-.372-.615-.736-1.199-.363-.585-.625-1.022a18 18 0 0 0-.363-.592 1.75 1.75 0 0 1-.287-.845c.016-.29.11-.57.27-.811q.1-.17.371-.6.27-.431.634-1.023.363-.591.736-1.208l.7-1.158.736-1.2h4.326l-3.346 5.46a1.1 1.1 0 0 0-.17.54c.012.202.083.396.204.558"/><path fill="#00B3C7" d="M49.296 3.833a8.91 8.91 0 0 1 4.73 4.73 8.7 8.7 0 0 1 .688 3.447 8.6 8.6 0 0 1-.688 3.43 8.92 8.92 0 0 1-4.73 4.731 8.7 8.7 0 0 1-3.447.688 8.7 8.7 0 0 1-3.447-.688 8.8 8.8 0 0 1-2.817-1.906 9 9 0 0 1-1.897-2.825A8.6 8.6 0 0 1 37 12.01a8.7 8.7 0 0 1 .688-3.447 9 9 0 0 1 1.897-2.825 8.8 8.8 0 0 1 2.817-1.905 8.7 8.7 0 0 1 3.447-.688 8.7 8.7 0 0 1 3.447.688m-.663 14.722a7.1 7.1 0 0 0 2.27-1.516 7.023 7.023 0 0 0 2.071-5.03 7 7 0 0 0-.547-2.766 7.1 7.1 0 0 0-1.524-2.27 7.2 7.2 0 0 0-2.27-1.533 7 7 0 0 0-2.784-.555 6.9 6.9 0 0 0-2.767.555 7.2 7.2 0 0 0-3.804 3.803 6.9 6.9 0 0 0-.554 2.767c-.007.95.182 1.893.554 2.767.36.846.88 1.615 1.533 2.262a7.1 7.1 0 0 0 2.27 1.516 7 7 0 0 0 2.768.547 7.1 7.1 0 0 0 2.784-.547m-6.654-5.55a1.3 1.3 0 0 1-.389-.945 1.34 1.34 0 0 1 .39-.978 1.28 1.28 0 0 1 .952-.398 1.36 1.36 0 0 1 .986.398 1.32 1.32 0 0 1 .406.978 1.28 1.28 0 0 1-.406.944 1.36 1.36 0 0 1-.986.398 1.28 1.28 0 0 1-.953-.398m6.736-2.9q.017-.051.067 0l.398 1.077a.13.13 0 0 0 .132.1l1.176.032q.033 0 .034.025a.1.1 0 0 1-.034.058l-.845.73a.125.125 0 0 0-.083.165l.299 1.077q0 .083-.05.083l-.978-.646a.3.3 0 0 0-.198 0l-.928.646q-.067 0-.05-.083l.298-1.077a.18.18 0 0 0-.083-.166l-.877-.729a.13.13 0 0 1-.017-.058q0-.025.017-.025l1.176-.033a.14.14 0 0 0 .149-.1z"/></svg>