<svg xmlns="http://www.w3.org/2000/svg" style="width:6.6em;height:2.6em" viewBox="0 0 66 26">
    <path fill="currentColor" fill-rule="evenodd" d="M31 9.682h.936v4.52c0 .692.163 1.214.49 1.567.325.353.78.53 1.363.53.638 0 1.096-.174 1.374-.52.278-.346.418-.872.418-1.577v-4.52h.936v4.601c0 .943-.234 1.654-.702 2.132-.469.479-1.154.718-2.056.718-.87 0-1.546-.237-2.031-.712-.485-.475-.728-1.188-.728-2.138V9.682zm7.329 0h2.382c.841 0 1.476.193 1.903.58.428.387.642.923.642 1.609 0 .936-.404 1.601-1.212 1.995l1.629 3.145h-1.038L41.138 14.1c-.23.04-.481.06-.753.06h-1.11v2.851h-.946V9.682zm2.351.825h-1.404v2.86h1.333c1.127 0 1.69-.492 1.69-1.476 0-.462-.13-.808-.392-1.038-.261-.231-.67-.346-1.227-.346zm3.97 2.768c0-.597.083-1.131.25-1.603.166-.472.4-.862.702-1.17a3.04 3.04 0 0 1 1.074-.708 3.694 3.694 0 0 1 1.364-.244c.244 0 .471.02.682.06l.193-.61h.764l-.245.814a2.853 2.853 0 0 1 1.4 1.263c.336.59.504 1.323.504 2.198 0 .516-.054.986-.163 1.41-.109.424-.26.787-.453 1.09a2.8 2.8 0 0 1-.707.758 2.944 2.944 0 0 1-.927.453c-.339.098-.702.147-1.089.147-.23 0-.488-.024-.773-.071l-.235.763h-.753l.295-.977c-.597-.258-1.06-.687-1.39-1.288-.328-.6-.493-1.362-.493-2.285zm5.7 0c0-.624-.105-1.155-.315-1.593-.21-.438-.502-.765-.875-.982l-1.69 5.558c.136.034.312.05.53.05.732 0 1.307-.257 1.724-.773.418-.516.626-1.269.626-2.26zm-4.702 0c0 .672.098 1.237.295 1.695.197.458.478.8.845 1.023l1.68-5.537a2.1 2.1 0 0 0-.449-.041c-.732 0-1.31.253-1.735.758-.424.506-.636 1.206-.636 2.102zm7.298-3.593h2.382c.842 0 1.476.193 1.904.58.427.387.64.923.64 1.609 0 .936-.403 1.601-1.21 1.995l1.628 3.145h-1.038L55.756 14.1c-.231.04-.482.06-.754.06h-1.11v2.851h-.946V9.682zm2.352.825h-1.405v2.86h1.333c1.127 0 1.69-.492 1.69-1.476 0-.462-.13-.808-.392-1.038-.261-.231-.67-.346-1.226-.346zm6.015 6.504v-6.474h-2.28v-.855h5.497v.855h-2.27v6.474h-.947zM0 26h26V0H0v26zm19.975-8.06c.175.302.183.485.007.78-.122.203-.71 1.198-1.104 1.842h-2.446l1.34-2.202-1.39-2.332 1.246-2.04H14.61l-1.252-2.1h5.73s.797 1.283.887 1.437c.175.301.183.484.007.778l-1.176 1.95c.392.64 1.047 1.678 1.17 1.887zm-4.38 1.001c-.117.197-.753 1.237-1.132 1.857-.379-.62-1.014-1.66-1.133-1.857-.169-.283-.161-.459.007-.75.118-.201.75-1.233 1.126-1.85.377.617 1.008 1.649 1.126 1.85.168.291.176.467.007.75zm-2.537-3.88c-.176.292-1.467 2.404-1.467 2.404H8.913l1.548-2.538c.114-.191.107-.313-.01-.511-.017-.031-1.538-2.528-1.538-2.528h2.678c1.27 2.072 1.27 2.072 1.46 2.396.174.3.182.483.007.776zm-6.874 5.5h2.384v-8.673H6.184v8.674zm0-10.015h1.702V5.673H6.184v4.873zm2.895-4.874c.467 0 .856.337.943.784l.912 4.087v.003h-1.85L7.987 5.672h1.093zm1.962 4.874h1.701V5.673h-1.701v4.873zm2.77-4.974c.53 0 .962.435.962.971a.968.968 0 0 1-.963.972.966.966 0 0 1-.96-.972c0-.536.43-.97.96-.97zm1.068 4.974h1.703V5.673h-1.703v4.873zM16.9 7.773c.154-.256 1.279-2.1 1.279-2.1h1.872L18.702 7.89c-.099.167-.092.273.009.446.015.028 1.34 2.21 1.34 2.21H18.18s-1.119-1.83-1.272-2.094c-.153-.263-.16-.422-.007-.679z"/>
</svg>
