<svg xmlns="http://www.w3.org/2000/svg" viewBox="0 0 86 28"><path fill="#FFA90A" d="M0 0h86v28H0z"/><path fill="#0A2343" d="M6.667 21V7.001h4.593V21H6.667ZM17.509 9.23 20.151 21h-5.027L11.97 7.001h2.82a2.655 2.655 0 0 1 1.764.641c.49.404.828.964.955 1.587ZM20.841 21V7.001h4.593V21h-4.593Zm8.063-8.675a2.738 2.738 0 0 1-1.41-.375 2.777 2.777 0 0 1-1.015-1.015 2.735 2.735 0 0 1-.375-1.41 2.686 2.686 0 0 1 .375-1.4 2.812 2.812 0 0 1 3.825-1.005c.415.244.76.59 1.005 1.005.25.424.38.908.375 1.4.004.495-.125.982-.375 1.41a2.8 2.8 0 0 1-1.006 1.015c-.423.251-.908.38-1.4.375ZM32.394 21V7.001h4.593V21h-4.593Zm10.409-6.349c.013.014.111.175.295.483.185.309.424.703.72 1.183a366.453 366.453 0 0 1 1.863 3.056c.288.48.617 1.023.986 1.627H41.62a744.12 744.12 0 0 0-.858-1.39c-.256-.414-.529-.861-.818-1.34-.289-.48-.575-.947-.858-1.4a71.148 71.148 0 0 1-.729-1.193 20.758 20.758 0 0 0-.424-.69 2.04 2.04 0 0 1-.335-.986c.02-.338.128-.665.315-.947.079-.132.224-.365.434-.7a210.216 210.216 0 0 0 1.598-2.603c.289-.48.561-.93.817-1.35L41.62 7h5.047l-3.904 6.368c-.12.19-.189.407-.197.632.013.235.095.461.236.65ZM61.502 8.813a3.524 3.524 0 0 0-.916-.956 4.395 4.395 0 0 0-1.331-.63A6.302 6.302 0 0 0 57.48 7H52v13.997h2.07V15.97h3.568c.806.012 1.6-.185 2.307-.572A4.264 4.264 0 0 0 61.57 13.8c.416-.74.623-1.577.602-2.425a5.759 5.759 0 0 0-.158-1.36 3.925 3.925 0 0 0-.513-1.203Zm-1.833 4.249a2.333 2.333 0 0 1-1.114.917 4.59 4.59 0 0 1-1.745.295h-2.74V8.715h3.016a3.75 3.75 0 0 1 1.676.326c.419.202.76.534.976.946.228.462.34.973.325 1.488a2.915 2.915 0 0 1-.394 1.587ZM66.381 7.463c-.282.151-.558.293-.827.424-.27.131-.542.263-.819.394-.276.132-.558.25-.848.355-.289.105-.598.21-.926.316l.434 1.675a18.81 18.81 0 0 0 1.074-.355c.315-.115.625-.247.927-.394.296-.144.591-.302.887-.473l.01-.006v11.599h2.05V7h-1.064c-.316.157-.615.312-.898.463ZM79.087 15.753a3.104 3.104 0 0 0-.63-1.065 3.068 3.068 0 0 0-1.036-.729 4.978 4.978 0 0 0-1.41-.375v-.059a4.883 4.883 0 0 0 1.617-.877 4.11 4.11 0 0 0 1.035-1.272c.242-.469.368-.99.365-1.518a2.734 2.734 0 0 0-.296-1.291 2.75 2.75 0 0 0-.867-.966A4.022 4.022 0 0 0 76.475 7a7.984 7.984 0 0 0-1.863-.197 9.735 9.735 0 0 0-2.484.345 5.804 5.804 0 0 0-1.143.444l.275 1.557c.29-.118.569-.22.838-.306a8.012 8.012 0 0 1 1.509-.325c.229-.026.459-.039.69-.04.417-.006.833.034 1.242.119a2.3 2.3 0 0 1 .828.345c.204.144.364.342.463.571.104.26.154.539.148.819.005.384-.086.764-.266 1.104-.184.335-.44.624-.75.848-.349.25-.74.436-1.153.552a5.23 5.23 0 0 1-1.478.197h-.375l-.237 1.538h.631a8.823 8.823 0 0 1 1.735.148c.428.076.84.23 1.213.453.305.186.554.452.72.769.164.34.245.716.236 1.094.01.383-.064.763-.217 1.114a1.903 1.903 0 0 1-.66.768 3.138 3.138 0 0 1-1.124.454 7.629 7.629 0 0 1-1.607.148c-.197 0-.391-.006-.582-.02-.19-.013-.39-.032-.6-.06a9.187 9.187 0 0 1-.661-.107 20.88 20.88 0 0 1-.76-.168l-.256 1.676c.29.052.569.102.838.148.27.046.536.085.799.118.262.032.519.055.768.068.25.014.493.02.73.02a9.684 9.684 0 0 0 1.873-.167 5.574 5.574 0 0 0 1.508-.513c.415-.21.79-.494 1.104-.837.296-.33.524-.716.67-1.134.157-.46.233-.944.227-1.43a4.05 4.05 0 0 0-.217-1.36Z"/></svg>