<svg xmlns="http://www.w3.org/2000/svg" style="width:7.5em;height:1.5em" viewBox="0 0 75 15">
    <path fill="currentColor" d="M31.0878023 8.5591802c-.2517074-.4264288-.2661333-.688617-.02338-1.1002956L34.399462 2h-4.6267395s-2.7797248 4.5420545-3.159773 5.1731625c-.3764004.6302792-.3601506 1.022733.0154207 1.670414C27.0084185 9.490429 29.7727225 14 29.7727225 14h4.6267395s-3.2751804-5.3735326-3.3116597-5.4408198M21.5941377 14h4.2077247V2h-4.2077247m-2.653584-.2298913c-1.3163763 0-2.3817762 1.075399-2.3817762 2.4031076 0 1.3268753 1.0654 2.4056073 2.3817762 2.4056073 1.3185428 0 2.3884423-1.078732 2.3884423-2.4056073 0-1.3277086-1.0698995-2.4031076-2.3884423-2.4031076M12.0635332 14h4.2052375V2h-4.2052375M0 14h4.1974442V2H0m9.5087294 1.9279618C9.2933354 2.828329 8.331442 2 7.1785294 2h-2.70345L7.191629 14h4.569699L9.5087295 3.9279618zM65.5415216 13.1444645l6.5509104-9.997824h-6.086314V1.997158h7.9764228v.566516L67.216729 12.8442417h6.7494384v1.1494825h-8.4246458v-.8492598m-9.912582 0l6.5503987-9.997824h-6.086314V1.997158h7.9769345v.566516L57.304147 12.8442417h6.7489267v1.1494825h-8.424134v-.8492598m-4.175227-3.749184L49.4141964 3.446863l-2.0405397 5.9484174h4.0800562zM50.0778324 1.997158l4.3614747 11.9965663h-1.3600188l-1.260243-3.432511h-4.8096976l-1.2269846 3.432511h-1.3763922L48.734187 1.997158h1.3436453zm-7.1812878 9.303183c0 1.9407642-.8289053 2.8361867-2.5864916 2.8361867-.7301533 0-1.6757193-.1330342-2.3219585-.4477113l.2983036-1.0453417c.5633487.2486716 1.1277207.3817058 1.80773.3817058 1.094462 0 1.525288-.4477112 1.525288-1.9898844V1.997158h1.2771284v9.303183"/>
</svg>
