<svg xmlns="http://www.w3.org/2000/svg" viewBox="0 0 54 36"><path fill="#fff" fill-rule="evenodd" d="M0 0h36v36H0V0Zm11.626 16H8.308v12.056h3.318V16Zm4.208 0h-3.727s2.117 3.47 2.141 3.514c.162.275.172.444.014.71l-2.155 3.528h3.727s1.797-2.935 2.042-3.342c.244-.408.233-.661-.01-1.08-.247-.421-.264-.447-1.72-2.822l-.002-.003-.31-.505Zm10.436 0s1.109 1.784 1.234 1.997c.244.42.255.674.01 1.083l-1.637 2.71c.269.438.627 1.011.94 1.515h.001c.323.518.6.96.686 1.108.244.42.255.674.01 1.082l-.266.446-.001.002v.001h-.001c-.332.558-.872 1.464-1.269 2.112h-3.405l1.865-3.06-1.934-3.24 1.734-2.838h-4.2L18.293 16h7.976Zm-6.438 6.19c-.525.857-1.403 2.292-1.567 2.572-.235.404-.245.648-.01 1.042.165.273 1.05 1.72 1.577 2.58.527-.86 1.412-2.307 1.576-2.58.236-.394.226-.638-.009-1.042-.165-.28-1.043-1.715-1.567-2.571ZM18.358 9.81c.207.121.443.184.682.182a1.3 1.3 0 0 0 .677-.182 1.355 1.355 0 0 0 .668-1.172 1.302 1.302 0 0 0-.181-.677 1.372 1.372 0 0 0-.487-.487 1.303 1.303 0 0 0-.677-.18 1.36 1.36 0 0 0-1.173.667 1.3 1.3 0 0 0-.18.677 1.344 1.344 0 0 0 .672 1.173Zm-7.656-2.379H8.308v6.783h2.394V7.43Zm1.683 6.783L10.846 7.43h1.53c.318-.005.627.106.87.31.24.198.403.474.457.78l1.288 5.693h-2.606Zm5.146 0h-2.395V7.43h2.395v6.783Zm5.395 0H20.53V7.43h2.395v6.783Zm2.131-6.783h2.635l-1.894 3.086a.563.563 0 0 0-.101.306c.01.112.049.22.11.315.007.007.055.084.145.234l.35.578.457.74c.16.258.311.504.452.736l.481.788h-2.635a90.625 90.625 0 0 1-.413-.674c-.122-.2-.255-.417-.4-.65a136.475 136.475 0 0 1-.769-1.255 9.532 9.532 0 0 0-.207-.335 1.076 1.076 0 0 1-.158-.477.89.89 0 0 1 .159-.468c.038-.058.107-.169.206-.335l.351-.578a406.076 406.076 0 0 0 .818-1.337c.121-.2.26-.425.413-.674Z" clip-rule="evenodd"/><path fill="#fff" d="m53.541 25.007-4.834-7.305 4.416-6.699h-2.209l-3.209 5.333-3.52-5.333h-2.428l4.536 6.797-4.755 7.206h2.25l3.54-5.755 3.805 5.755h2.408Z"/></svg>