<svg xmlns="http://www.w3.org/2000/svg" viewBox="0 0 58 24"><path fill="#fff" d="M0 17.998v-12h3.937v12H0Zm9.294-10.09 2.264 10.09H7.25l-2.704-12h2.417a2.276 2.276 0 0 1 1.513.55c.42.346.71.826.819 1.36Zm2.855 10.09v-12h3.938v12h-3.938Zm6.912-7.436a2.381 2.381 0 0 1-2.078-1.192 2.345 2.345 0 0 1-.322-1.208 2.301 2.301 0 0 1 .321-1.2A2.41 2.41 0 0 1 20.26 6.1c.356.21.653.506.862.862.215.363.326.778.321 1.2a2.35 2.35 0 0 1-.321 1.208c-.207.36-.504.66-.862.87a2.3 2.3 0 0 1-1.2.322Zm2.99 7.436v-12h3.938v12h-3.937Zm8.923-5.442c.01.012.095.15.253.414s.364.602.617 1.014a309.436 309.436 0 0 1 1.597 2.62c.247.41.529.876.845 1.394H29.96c-.27-.44-.516-.837-.736-1.192-.22-.355-.453-.738-.7-1.149-.248-.41-.493-.81-.736-1.2a60.12 60.12 0 0 1-.625-1.022 18.04 18.04 0 0 0-.363-.592 1.747 1.747 0 0 1-.287-.845c.016-.29.11-.57.27-.811.067-.113.191-.313.371-.6s.392-.628.634-1.023c.242-.394.488-.797.736-1.208l.7-1.158.736-1.2h4.326l-3.346 5.46a1.079 1.079 0 0 0-.17.54c.012.202.083.396.204.558Z"/><path fill="#8BB5EB" d="M37.096 7.487h3.91V18h1.792V7.487h3.892V6h-9.594v1.487ZM56.114 6l-2.543 7.47a59.795 59.795 0 0 0-.76 2.502l-.179.64a95.445 95.445 0 0 0-.573-1.984 25.23 25.23 0 0 0-.4-1.225L49.165 6h-1.913l4.2 12h2.22l4.216-12h-1.775Z"/></svg>