<svg xmlns="http://www.w3.org/2000/svg" viewBox="0 0 83 14"><path fill="#fff" d="M0 13V1.001h3.937V13H0ZM9.294 2.91 11.558 13H7.25L4.545 1.001h2.417a2.276 2.276 0 0 1 1.513.55c.42.345.71.826.819 1.36ZM12.149 13V1.001h3.938V13h-3.938Zm6.912-7.436a2.382 2.382 0 0 1-2.4-2.4 2.301 2.301 0 0 1 .321-1.2 2.41 2.41 0 0 1 3.278-.861c.356.209.653.506.862.861.215.363.326.778.321 1.2a2.35 2.35 0 0 1-.321 1.209 2.4 2.4 0 0 1-.862.87 2.302 2.302 0 0 1-1.2.321ZM22.05 13V1.001h3.938V13h-3.937Zm8.923-5.442c.01.012.095.15.253.414.158.265.364.603.617 1.014a314.643 314.643 0 0 1 1.597 2.62c.247.411.529.876.845 1.394H29.96c-.27-.44-.516-.836-.736-1.191-.22-.355-.453-.738-.7-1.15-.248-.41-.493-.81-.736-1.2-.242-.389-.45-.73-.625-1.022a17.98 17.98 0 0 0-.363-.591A1.747 1.747 0 0 1 26.513 7c.016-.29.11-.57.27-.812.067-.113.191-.313.371-.6s.392-.628.634-1.022c.242-.395.488-.797.736-1.209a516 516 0 0 1 .7-1.157L29.96 1h4.326L30.94 6.46a1.08 1.08 0 0 0-.17.54c.012.202.082.396.203.558Z"/><path fill="#8BB5EB" d="M44.74 8.041a4.4 4.4 0 0 0 .664-.155 3.29 3.29 0 0 0 1.19-.667c.346-.308.617-.689.795-1.115.2-.49.298-1.016.287-1.546a4.169 4.169 0 0 0-.38-1.79 2.851 2.851 0 0 0-1.25-1.293 4.843 4.843 0 0 0-2.34-.482h-4.849v11.995h1.757V8.393H43.2l2.99 4.595h2.061l-2.804-4.155-.706-.792Zm.03-5.35c.35.134.643.385.828.71.193.378.286.8.27 1.225.021.47-.093.936-.329 1.343a1.845 1.845 0 0 1-.946.743c-.47.162-.965.239-1.462.228h-2.517V2.463h2.72c.489-.016.976.061 1.436.228ZM57.356 11.924a.77.77 0 0 1-.659-.27 1.453 1.453 0 0 1-.185-.896l.033-3.48a4.061 4.061 0 0 0-.135-1.081 2.656 2.656 0 0 0-.405-.862 2.29 2.29 0 0 0-.701-.625 3.58 3.58 0 0 0-1.022-.388 6.01 6.01 0 0 0-1.335-.135c-.356 0-.712.022-1.065.067a7.307 7.307 0 0 0-.988.194c-.3.082-.597.18-.887.296l-.203 1.436a9.923 9.923 0 0 1 1.538-.422c.232-.044.466-.075.701-.093.23-.017.459-.026.684-.025.345-.008.689.032 1.022.118.244.06.468.183.65.355.164.167.28.373.339.6.072.278.106.565.101.853l-.002.424-1.975.133a5.252 5.252 0 0 0-1.96.44 2.808 2.808 0 0 0-1.157.937c-.25.366-.382.799-.38 1.242-.003.415.099.825.296 1.19.206.377.517.685.895.888.461.24.976.356 1.495.338.487.01.971-.07 1.428-.237a3.288 3.288 0 0 0 1.065-.676c.116-.112.227-.23.332-.353.033.174.094.343.183.497.15.259.382.46.659.574.305.123.633.184.963.178.1 0 .2-.003.295-.009.094-.005.188-.02.279-.042l.245-.059c.066-.015.131-.035.194-.06l.186-1.131c-.093.032-.19.055-.287.068a1.89 1.89 0 0 1-.237.016Zm-2.813-.76a3.25 3.25 0 0 1-.59.372c-.21.102-.431.175-.66.22a3.723 3.723 0 0 1-.718.067 1.91 1.91 0 0 1-.802-.152c-.206-.09-.38-.24-.499-.43a1.263 1.263 0 0 1-.169-.668 1.28 1.28 0 0 1 .22-.794c.184-.215.433-.363.71-.423a5.15 5.15 0 0 1 1.318-.135h1.479l-.008 1.677c-.086.097-.18.186-.28.266ZM65.348 4.597l-.05-.022a5.822 5.822 0 0 0-2.146-.388 4.15 4.15 0 0 0-2.103.557 4.14 4.14 0 0 0-1.563 1.614 5.195 5.195 0 0 0-.591 2.576 5.21 5.21 0 0 0 .448 2.247 3.35 3.35 0 0 0 1.284 1.461c.605.357 1.3.535 2.002.515.43.003.86-.054 1.275-.168.414-.12.81-.296 1.174-.524.127-.078.254-.166.38-.257l.212.78h1.402V.25l-1.723.237v4.11Zm-.904 6.947a3.537 3.537 0 0 1-1.208.245 2.74 2.74 0 0 1-1.385-.33 2.114 2.114 0 0 1-.878-1.013 4.233 4.233 0 0 1-.304-1.715c-.02-.601.095-1.199.337-1.749.207-.446.546-.818.972-1.064a2.994 2.994 0 0 1 1.512-.363 5.107 5.107 0 0 1 1.596.245c.083.026.174.061.262.093V11.1c-.287.175-.59.324-.904.444ZM69.706 12.989h1.724V4.203l-1.724.254v8.532ZM71.184.664a1.094 1.094 0 0 0-.582-.16 1.137 1.137 0 0 0-.592.16 1.24 1.24 0 0 0-.43.422 1.094 1.094 0 0 0-.16.583c-.003.208.053.413.16.591.103.177.252.323.43.423.18.101.385.154.592.152.204.002.405-.05.582-.152.174-.1.317-.247.414-.423.102-.18.154-.384.153-.59a1.14 1.14 0 0 0-.153-.584 1.192 1.192 0 0 0-.413-.422ZM81.701 6.256a3.693 3.693 0 0 0-1.495-1.529 4.638 4.638 0 0 0-2.289-.54 4.613 4.613 0 0 0-2.306.557 3.896 3.896 0 0 0-1.538 1.571 4.97 4.97 0 0 0-.549 2.4 5.18 5.18 0 0 0 .515 2.39c.324.65.84 1.184 1.479 1.529.687.36 1.454.54 2.23.524a4.76 4.76 0 0 0 2.331-.558 3.933 3.933 0 0 0 1.58-1.588c.392-.75.587-1.587.566-2.433a4.897 4.897 0 0 0-.524-2.323Zm-1.596 4.13c-.19.44-.512.809-.92 1.057a2.626 2.626 0 0 1-1.353.346 2.403 2.403 0 0 1-1.317-.355 2.38 2.38 0 0 1-.879-1.064 4.263 4.263 0 0 1-.32-1.757 3.98 3.98 0 0 1 .32-1.707c.19-.423.505-.777.904-1.013a2.735 2.735 0 0 1 1.394-.338c.38-.01.757.062 1.106.211.307.138.574.35.778.617.218.29.375.62.464.971.106.411.157.834.152 1.259a4.205 4.205 0 0 1-.33 1.774Z"/></svg>