<svg xmlns="http://www.w3.org/2000/svg" viewBox="0 0 122 24" fill="currentColor"><path d="M0 17.998v-12h4v12zm9.244-10.09 2.264 10.09H7.2l-2.704-12h2.417a2.28 2.28 0 0 1 1.513.55c.42.346.66.826.819 1.36M12 17.998v-12h4v12zm7.01-7.436a2.382 2.382 0 0 1-2.4-2.4 2.3 2.3 0 0 1 .322-1.2A2.41 2.41 0 0 1 20.21 6.1c.356.21.653.506.862.862.215.363.326.778.321 1.2a2.35 2.35 0 0 1-.321 1.208 2.4 2.4 0 0 1-.862.87 2.3 2.3 0 0 1-1.2.322M22 17.997V6h4v11.999zm8.974-5.441q.015.017.253.414.237.396.617 1.014a316 316 0 0 1 1.597 2.62q.37.616.845 1.393H29.96q-.405-.659-.736-1.19-.33-.534-.7-1.15-.372-.616-.736-1.2-.363-.585-.625-1.022-.262-.44-.363-.592a1.75 1.75 0 0 1-.287-.845c.016-.29.11-.57.27-.811q.1-.17.371-.6.27-.431.634-1.023.363-.591.736-1.208l.7-1.158.736-1.2h4.326l-3.346 5.459a1.1 1.1 0 0 0-.17.541c.012.202.083.396.204.558M38.128 7.486h3.87v10.515h1.776V7.486h3.855V5.998h-9.501zM54.485 10.47a3.07 3.07 0 0 0-1.243-.955 4.3 4.3 0 0 0-1.715-.322 4.2 4.2 0 0 0-1.725.339c-.495.216-.937.54-1.293.946a4.1 4.1 0 0 0-.812 1.463 6.1 6.1 0 0 0-.279 1.901 5.1 5.1 0 0 0 .499 2.359c.321.637.84 1.153 1.48 1.47.749.354 1.572.524 2.4.5a8 8 0 0 0 1.192-.077q.496-.071.972-.228a6 6 0 0 0 .913-.389l.118-1.302q-.321.12-.651.237-.33.119-.685.211a5 5 0 0 1-.727.136 7 7 0 0 1-.743.042 5.3 5.3 0 0 1-1.32-.144 2.16 2.16 0 0 1-.937-.49 2.14 2.14 0 0 1-.575-.938 4.3 4.3 0 0 1-.184-1.116h6.11c.082-.7.051-1.407-.094-2.096a3.95 3.95 0 0 0-.701-1.547m-4.26.406c.396-.241.854-.362 1.318-.347.465-.023.923.11 1.302.38.337.269.577.64.684 1.057.085.308.126.627.124.947h-4.446q.047-.508.215-.99c.144-.428.426-.797.803-1.047M62.81 9.413a6 6 0 0 0-.785-.16 7 7 0 0 0-.914-.06 4.1 4.1 0 0 0-1.606.322c-.509.215-.971.528-1.36.921-.416.424-.735.93-.939 1.488a5.7 5.7 0 0 0-.338 2.037 5.3 5.3 0 0 0 .43 2.223c.266.6.705 1.106 1.26 1.454a3.73 3.73 0 0 0 2.012.515 4.9 4.9 0 0 0 1.809-.355q.517-.211.964-.547v.463c.006.38-.048.76-.16 1.124a2.04 2.04 0 0 1-.491.811 2 2 0 0 1-.862.49c-.422.116-.857.17-1.294.161a9 9 0 0 1-1.04-.059 7.4 7.4 0 0 1-1.073-.203 8 8 0 0 1-1.065-.363l.186 1.487q.466.19.955.313.515.129 1.04.195.556.068 1.116.067a5.45 5.45 0 0 0 2.417-.482 3.4 3.4 0 0 0 1.48-1.335c.34-.6.512-1.28.498-1.97V9.193l-1.653.426q-.287-.121-.586-.206m.313 6.77a5 5 0 0 1-.65.322q-.297.122-.61.194a2.7 2.7 0 0 1-.616.068 2.94 2.94 0 0 1-1.463-.33 1.98 1.98 0 0 1-.862-.997 4.5 4.5 0 0 1-.279-1.716 4.5 4.5 0 0 1 .194-1.378c.111-.367.302-.704.559-.989.25-.264.556-.47.895-.6a3.3 3.3 0 0 1 1.21-.211q.4 0 .794.068.404.07.794.194c.083.026.17.06.254.092v5.154c-.074.044-.15.09-.22.13M74.298 9.548a3.3 3.3 0 0 0-1.623-.355 4.8 4.8 0 0 0-1.446.229c-.481.153-.94.372-1.36.65q-.244.164-.474.347V9.21l-1.724.254V18h1.724v-6.42q.25-.147.516-.266.356-.158.727-.279.356-.116.726-.177.349-.058.702-.06c.276-.006.55.037.811.127.216.078.407.209.558.38.156.187.266.407.322.643q.108.45.1.913v5.14h1.725v-5.495a4.7 4.7 0 0 0-.32-1.877 2.2 2.2 0 0 0-.965-1.082M83.477 14.113a2.6 2.6 0 0 0-.592-.465 4.6 4.6 0 0 0-.71-.33q-.27-.084-.533-.177a10 10 0 0 0-.524-.17 11 11 0 0 1-.507-.16 4 4 0 0 1-.448-.186 3 3 0 0 1-.397-.253 1.1 1.1 0 0 1-.287-.322.8.8 0 0 1-.11-.422.9.9 0 0 1 .118-.465.96.96 0 0 1 .355-.33q.267-.146.567-.203.372-.071.752-.067a5.5 5.5 0 0 1 .887.076q.263.042.524.11.262.066.533.152.25.076.49.186l.118-1.37a8 8 0 0 0-.633-.236 6 6 0 0 0-.635-.17 5 5 0 0 0-.633-.092 8 8 0 0 0-.617-.026 5.6 5.6 0 0 0-1.387.161 3.5 3.5 0 0 0-1.09.473c-.303.2-.55.474-.719.795a2.4 2.4 0 0 0-.253 1.141c-.005.285.04.568.135.837.08.225.2.434.355.617q.226.26.516.448.3.196.634.33a15 15 0 0 0 .786.262 41 41 0 0 1 .744.236q.177.06.347.11.225.081.439.194.186.1.347.237a.87.87 0 0 1 .295.668.84.84 0 0 1-.279.668 1.6 1.6 0 0 1-.727.346q-.47.105-.955.102a5 5 0 0 1-.6-.043 9 9 0 0 1-.693-.118q-.363-.076-.744-.186a15 15 0 0 1-.769-.245l.068 1.437q.438.152.803.245.363.093.693.16.318.067.642.085.313.018.634.017.71.004 1.403-.144a3.6 3.6 0 0 0 1.15-.448c.32-.195.584-.468.77-.794.193-.358.289-.76.278-1.167a2.4 2.4 0 0 0-.144-.87 2 2 0 0 0-.397-.634M92.563 9.726a3.63 3.63 0 0 0-2.02-.533 5.2 5.2 0 0 0-1.25.161 5.4 5.4 0 0 0-1.505.638V9.21l-1.725.27v12.071h1.725v-3.785l.034.015q.47.195.971.28.592.096 1.192.092a4.2 4.2 0 0 0 2.173-.558 4 4 0 0 0 1.521-1.614c.4-.8.594-1.685.567-2.578a5.3 5.3 0 0 0-.431-2.198 3.4 3.4 0 0 0-1.252-1.48m-.448 5.655a2.33 2.33 0 0 1-.972 1.065c-.476.25-1.009.372-1.546.355a4.81 4.81 0 0 1-1.809-.345V11.12c.022-.01.045-.024.067-.034q.372-.17.693-.288a3.5 3.5 0 0 1 1.2-.22 3.1 3.1 0 0 1 1.505.33c.408.222.727.577.905 1.006a4.3 4.3 0 0 1 .296 1.725 4 4 0 0 1-.339 1.74M99.874 9.32a3.3 3.3 0 0 0-.895.388q-.434.271-.795.634c-.04.04-.079.085-.118.127v-1.26l-1.725.254v8.538h1.725v-6.387q.192-.135.397-.249.254-.14.524-.245.262-.102.533-.177a3.6 3.6 0 0 1 1.183-.127l.203-1.59a3.2 3.2 0 0 0-1.032.094M109.798 16.936a.77.77 0 0 1-.659-.27 1.45 1.45 0 0 1-.186-.896l.034-3.483a4 4 0 0 0-.136-1.082 2.7 2.7 0 0 0-.405-.862 2.3 2.3 0 0 0-.702-.626 3.6 3.6 0 0 0-1.023-.388 6 6 0 0 0-1.335-.136 8 8 0 0 0-1.065.068 7 7 0 0 0-.989.194q-.452.123-.888.296l-.203 1.437a10 10 0 0 1 1.539-.422q.348-.067.701-.093a9 9 0 0 1 .685-.026c.345-.007.689.033 1.023.119.243.06.467.183.651.355.163.167.279.374.338.6.072.278.106.566.101.854l-.002.424-1.976.133a5.3 5.3 0 0 0-1.961.44 2.8 2.8 0 0 0-1.158.938c-.25.366-.382.8-.38 1.243-.003.416.098.825.296 1.192.207.375.518.684.896.887.461.24.976.356 1.496.338.487.011.971-.069 1.428-.237a3.3 3.3 0 0 0 1.065-.676q.175-.168.333-.354.05.264.183.498c.151.259.382.46.659.575.306.123.634.183.964.177q.152 0 .296-.008.141-.009.279-.043l.245-.059q.1-.021.194-.059l.186-1.133a1.5 1.5 0 0 1-.287.068q-.119.015-.237.017m-2.815-.76q-.275.217-.591.371a2.7 2.7 0 0 1-.659.22 3.8 3.8 0 0 1-.719.068 1.9 1.9 0 0 1-.803-.152 1.1 1.1 0 0 1-.499-.432 1.27 1.27 0 0 1-.169-.667 1.3 1.3 0 0 1 .22-.795 1.3 1.3 0 0 1 .71-.423 5.2 5.2 0 0 1 1.319-.135h1.48l-.008 1.678q-.129.146-.281.266M104.397 7.841a2.3 2.3 0 0 0 1.023.22c.362.007.721-.071 1.048-.228.294-.144.543-.366.718-.643.181-.297.272-.64.262-.989a1.73 1.73 0 0 0-.558-1.352 2.05 2.05 0 0 0-1.437-.507 2.44 2.44 0 0 0-1.022.21 1.7 1.7 0 0 0-.736.635 1.87 1.87 0 0 0-.27 1.031c-.012.351.079.698.262.997.174.27.42.487.71.626m.27-2.434a1.1 1.1 0 0 1 .786-.27c.21-.01.418.04.601.143.147.09.265.223.338.38.075.17.113.355.11.541.003.187-.038.373-.119.541a.9.9 0 0 1-.346.372 1.17 1.17 0 0 1-.6.135 1.3 1.3 0 0 1-.575-.118.77.77 0 0 1-.355-.355 1.3 1.3 0 0 1-.119-.575 1.06 1.06 0 0 1 .279-.794M117.135 18.001h2.231l-4.1-4.62 4.016-4.002h-2.113l-2.893 3.179h-.624v-7.32l-1.724.253v12.51h1.724V13.86h.028z"/></svg>