<svg xmlns="http://www.w3.org/2000/svg" viewBox="0 0 114 24"><path fill="#FFE100" d="M0 0h114v24H0z"/><path fill="#000" d="M77.05 13.249a5.699 5.699 0 0 1-.178 1.495c-.1.398-.287.767-.549 1.082a2.298 2.298 0 0 1-.971.65 4.216 4.216 0 0 1-1.445.22 4.326 4.326 0 0 1-1.673-.296 2.118 2.118 0 0 1-1.082-.997 4.088 4.088 0 0 1-.372-1.9V6h-1.774v7.79c-.019.702.11 1.399.38 2.046.23.533.591 1.001 1.048 1.36.46.351.986.607 1.546.752.607.16 1.232.24 1.86.236a5.56 5.56 0 0 0 2.72-.591 3.71 3.71 0 0 0 1.58-1.656c.359-.784.535-1.64.515-2.501V6h-1.606v7.248ZM84.705 9.32a3.306 3.306 0 0 0-.896.39 4.4 4.4 0 0 0-.794.633c-.04.04-.08.084-.118.126V9.21l-1.724.254v8.533h1.724v-6.383c.128-.09.26-.173.397-.25.169-.092.344-.174.523-.244.175-.068.352-.127.533-.178a3.61 3.61 0 0 1 1.183-.126l.202-1.588a3.207 3.207 0 0 0-1.03.092ZM94.556 8.99l-.946 1a3.928 3.928 0 0 0-.389-.256 4.622 4.622 0 0 0-2.298-.54 4.619 4.619 0 0 0-2.306.557 3.897 3.897 0 0 0-1.538 1.572 4.964 4.964 0 0 0-.55 2.4 5.109 5.109 0 0 0 .524 2.39c.097.184.209.36.334.526l-.942 1.004.777.71.902-.975c.13.097.266.186.407.265.69.362 1.46.542 2.24.523.809.017 1.61-.175 2.323-.557a4.007 4.007 0 0 0 1.58-1.589 4.924 4.924 0 0 0 .574-2.433 4.83 4.83 0 0 0-.532-2.324c-.1-.184-.215-.36-.343-.525L95.35 9.7l-.794-.71Zm-5.897 2.924c.19-.423.505-.777.904-1.014.42-.233.896-.35 1.377-.338.382-.008.762.064 1.115.212.19.085.365.2.52.34l-3.931 4.246a4.374 4.374 0 0 1-.306-1.739c-.02-.586.09-1.168.32-1.707Zm4.46 3.481a2.366 2.366 0 0 1-.92 1.056 2.58 2.58 0 0 1-1.344.347 2.444 2.444 0 0 1-1.326-.355 2.065 2.065 0 0 1-.314-.248l3.933-4.247c.059.135.109.273.15.414.11.41.165.834.16 1.259.02.61-.096 1.216-.338 1.775v-.001ZM100.943 9.32a3.299 3.299 0 0 0-.895.39c-.289.179-.555.392-.795.633-.04.04-.078.084-.118.126V9.21l-1.723.254v8.533h1.723v-6.383c.128-.09.26-.173.397-.25.17-.092.344-.174.524-.244.175-.068.352-.127.532-.178a3.65 3.65 0 0 1 1.183-.126l.203-1.588a3.211 3.211 0 0 0-1.031.092ZM108.277 16.587a7.373 7.373 0 0 1-.262.05l-.287.05a2.518 2.518 0 0 1-.279.034c-.09.006-.175.009-.254.009a1.698 1.698 0 0 1-.751-.152 1.085 1.085 0 0 1-.482-.448 1.425 1.425 0 0 1-.169-.718v-4.68h2.383l.186-1.353h-2.569V6.71l-1.724.608V9.38h-1.301l-.186 1.352h1.487v5.036c-.007.336.044.67.152.988.087.252.222.484.398.685.161.178.356.322.574.422.224.103.459.177.701.22.24.044.483.066.727.067.18 0 .357-.005.533-.016.175-.011.334-.028.481-.051a7.679 7.679 0 0 0 .743-.152l.102-1.403a1.332 1.332 0 0 1-.203.06ZM52.476 6.005h-3.701s2.103 3.452 2.127 3.496a.582.582 0 0 1 .014.705l-2.141 3.51h3.702s1.785-2.92 2.029-3.325a.886.886 0 0 0-.01-1.072c-.263-.448-.264-.448-2.02-3.314ZM48.297 6.005H45v11.993h3.297V6.005ZM64.07 7.992c-.125-.212-1.227-1.987-1.227-1.987h-7.922l1.73 2.903h4.173l-1.721 2.822 1.919 3.224-1.852 3.043h3.382c.544-.89 1.357-2.265 1.527-2.547a.888.888 0 0 0-.01-1.077c-.17-.289-1.075-1.725-1.617-2.61l1.627-2.695a.89.89 0 0 0-.01-1.076Z"/><path fill="#000" d="M56.449 12.12c-.522.851-1.394 2.278-1.557 2.557a.856.856 0 0 0-.01 1.037c.164.271 1.043 1.71 1.567 2.568.523-.857 1.402-2.296 1.566-2.568a.857.857 0 0 0-.01-1.037 387.962 387.962 0 0 0-1.556-2.558ZM6.004 18V6.001h3.937V18H6.004Zm9.294-10.09L17.562 18h-4.309L10.55 6.001h2.416a2.276 2.276 0 0 1 1.513.55c.42.345.71.826.82 1.36ZM18.154 18V6.001h3.937V18h-3.937Zm6.91-7.436a2.383 2.383 0 0 1-2.4-2.4 2.303 2.303 0 0 1 .323-1.2 2.411 2.411 0 0 1 3.278-.861c.355.209.652.506.861.861.215.363.326.778.322 1.2a2.4 2.4 0 0 1-1.183 2.079 2.302 2.302 0 0 1-1.2.321ZM28.057 18V6.001h3.937V18h-3.937Zm8.922-5.442c.011.012.096.15.253.414.158.265.364.603.617 1.014a315.936 315.936 0 0 1 1.597 2.62c.247.411.529.876.845 1.394h-4.326c-.27-.44-.516-.837-.735-1.191-.22-.355-.453-.738-.7-1.15-.249-.41-.494-.81-.737-1.2-.242-.389-.45-.73-.625-1.022-.175-.293-.296-.49-.363-.591a1.748 1.748 0 0 1-.287-.845c.017-.29.11-.57.27-.812.068-.113.192-.313.372-.6s.391-.628.633-1.022c.243-.395.488-.797.736-1.209l.7-1.157.736-1.2h4.326l-3.346 5.458a1.08 1.08 0 0 0-.17.542c.012.201.082.395.203.557h.001Z"/></svg>