<svg xmlns="http://www.w3.org/2000/svg" viewBox="0 0 105 24"><path fill="#0A2343" d="M0 17.997V5.998h4v12H0ZM9.244 7.908l2.264 10.09H7.2l-2.704-12h2.417a2.276 2.276 0 0 1 1.513.55c.42.346.66.826.819 1.36ZM12 17.998v-12h4v12h-4Zm7.01-7.437a2.382 2.382 0 0 1-2.4-2.4 2.301 2.301 0 0 1 .322-1.2A2.41 2.41 0 0 1 20.21 6.1c.356.21.653.506.862.862.215.363.326.778.321 1.2a2.35 2.35 0 0 1-.321 1.208 2.4 2.4 0 0 1-.862.87 2.3 2.3 0 0 1-1.2.321ZM22 17.997V5.998h4v12h-4Zm8.974-5.441c.01.011.095.15.253.414s.364.602.617 1.014a315.936 315.936 0 0 1 1.597 2.62c.247.41.529.875.845 1.393H29.96c-.27-.44-.516-.836-.736-1.191-.22-.355-.453-.738-.7-1.15-.248-.41-.493-.81-.736-1.2-.242-.388-.45-.73-.625-1.022-.175-.292-.296-.49-.363-.591a1.747 1.747 0 0 1-.287-.845c.016-.29.11-.57.27-.812.067-.112.191-.312.371-.6a182.106 182.106 0 0 0 1.37-2.23l.7-1.158.736-1.2h4.326l-3.346 5.459a1.08 1.08 0 0 0-.17.54c.012.203.083.397.204.559Z"/><path fill="#1767CE" d="M46.165 6.01h1.757L43.75 18.001h-2.195L37.4 6.01h1.892l2.465 7.397c.135.383.268.791.397 1.225.13.433.256.87.38 1.309l.186.672a90.108 90.108 0 0 1 .549-1.922c.13-.428.256-.833.38-1.216l2.516-7.465Zm9.652 6.012c.141.608.172 1.306.093 2.095h-6.102c.022.43.081.802.183 1.114.13.394.32.707.574.938.253.23.566.394.937.49.372.095.81.143 1.317.143.248 0 .496-.014.744-.042.247-.028.49-.073.726-.135.236-.062.464-.133.684-.211l.65-.237-.118 1.3a6.331 6.331 0 0 1-.912.389 5.701 5.701 0 0 1-.971.228 8.24 8.24 0 0 1-1.191.076c-.946 0-1.745-.166-2.398-.498a3.303 3.303 0 0 1-1.478-1.47c-.332-.647-.498-1.432-.498-2.356 0-.698.093-1.331.279-1.9a4.14 4.14 0 0 1 .81-1.46c.355-.406.785-.721 1.292-.946.507-.225 1.081-.338 1.723-.338.642 0 1.213.107 1.714.32a3.06 3.06 0 0 1 1.241.955c.327.422.56.937.701 1.545Zm-5.759-.092c-.104.275-.172.61-.214.988h4.442c0-.338-.04-.656-.124-.946-.13-.45-.357-.802-.684-1.056-.326-.253-.76-.38-1.3-.38s-.957.116-1.318.346c-.36.231-.627.58-.802 1.048Zm13.3 2.187a2.537 2.537 0 0 0-.591-.465 4.517 4.517 0 0 0-.71-.33c-.18-.055-.357-.114-.531-.176a9.301 9.301 0 0 0-.524-.17c-.174-.05-.343-.104-.507-.16a3.684 3.684 0 0 1-.447-.186 2.994 2.994 0 0 1-.397-.253 1.113 1.113 0 0 1-.287-.32.814.814 0 0 1-.11-.423c0-.18.04-.335.118-.464a.961.961 0 0 1 .355-.33c.158-.09.346-.157.566-.202.22-.046.47-.068.751-.068a5.293 5.293 0 0 1 .887.076c.175.028.35.065.524.11.174.045.351.095.532.152.18.056.343.118.49.186l.118-1.368a7.977 7.977 0 0 0-.634-.237 6.179 6.179 0 0 0-.633-.169 5.057 5.057 0 0 0-.633-.093 7.626 7.626 0 0 0-.617-.025c-.507 0-.968.053-1.385.16-.416.107-.78.265-1.09.473-.309.209-.548.473-.717.794-.169.321-.253.701-.253 1.14 0 .315.045.594.135.836.09.242.208.448.355.617.146.168.318.318.515.447.197.13.408.24.633.33a15.182 15.182 0 0 0 .785.261 31.179 31.179 0 0 1 .744.237c.118.04.233.076.346.11.157.056.304.12.439.194.135.073.25.152.346.236a.865.865 0 0 1 .296.667c0 .282-.093.504-.28.667a1.62 1.62 0 0 1-.725.347 4.317 4.317 0 0 1-.955.1c-.18 0-.38-.013-.6-.041a8.932 8.932 0 0 1-.692-.119c-.242-.05-.49-.112-.743-.185s-.51-.155-.768-.245l.068 1.435c.292.102.56.183.802.245s.473.116.692.16c.22.046.434.074.642.085.208.011.42.017.633.017.496 0 .963-.048 1.402-.144.44-.095.822-.244 1.148-.447.327-.203.583-.467.769-.794.186-.326.279-.715.279-1.165 0-.338-.048-.628-.144-.87a1.978 1.978 0 0 0-.397-.633Zm7.018 2.525-.288.05a2.491 2.491 0 0 1-.278.034c-.09.006-.175.008-.254.008-.292 0-.543-.05-.751-.152a1.09 1.09 0 0 1-.482-.447 1.425 1.425 0 0 1-.168-.718V10.74h2.38l.187-1.351h-2.567V6.719l-1.723.608v2.06h-1.3l-.186 1.352h1.486v5.033c0 .383.05.712.152.988.101.276.233.504.397.684.163.18.355.32.574.422.22.101.453.175.7.22.249.045.49.067.727.067.18 0 .358-.005.532-.017a5.503 5.503 0 0 0 .895-.126c.13-.029.24-.054.33-.076l.1-1.402a1.266 1.266 0 0 1-.202.059 7.353 7.353 0 0 1-.261.05Zm4.914.118c-.05.005-.11.008-.177.008a.914.914 0 0 1-.372-.067.61.61 0 0 1-.253-.211.927.927 0 0 1-.144-.364 2.815 2.815 0 0 1-.042-.523V5.25l-1.723.253v10.86c0 .326.046.605.136.836.09.23.22.42.388.566.169.146.369.25.6.312.23.062.48.093.751.093.135 0 .265-.006.389-.017a3.716 3.716 0 0 0 .658-.118l.17-1.334-.204.033c-.067.012-.126.02-.177.026Zm9.652.16a1.5 1.5 0 0 0 .287-.067l-.186 1.131a1.336 1.336 0 0 1-.194.06c-.073.016-.155.036-.245.058-.09.023-.183.037-.278.043a5.061 5.061 0 0 1-.296.008c-.36 0-.681-.059-.963-.177a1.364 1.364 0 0 1-.658-.574 1.58 1.58 0 0 1-.183-.499 4.97 4.97 0 0 1-.332.355c-.31.293-.665.518-1.064.676-.4.157-.876.236-1.427.236-.597 0-1.095-.113-1.495-.338-.4-.225-.698-.52-.895-.886a2.473 2.473 0 0 1-.296-1.191c0-.45.127-.864.38-1.241.254-.378.64-.69 1.157-.938.518-.248 1.171-.394 1.96-.439l1.972-.132v-.422c0-.327-.03-.611-.098-.853a1.338 1.338 0 0 0-.338-.6c-.157-.158-.374-.276-.65-.355a3.774 3.774 0 0 0-1.022-.118c-.225 0-.453.009-.684.026a6.13 6.13 0 0 0-.7.092 9.905 9.905 0 0 0-1.537.422l.202-1.435c.282-.112.577-.211.887-.295.31-.085.639-.15.988-.195a8.305 8.305 0 0 1 1.064-.067c.495 0 .94.045 1.334.135.394.09.735.22 1.022.388.287.17.52.378.7.625.18.248.316.535.406.862.09.326.135.686.135 1.08l-.034 3.48c-.011.416.05.715.186.895.135.18.355.27.659.27.067 0 .146-.006.236-.017v-.003Zm-2.767-1.01.009-1.675h-1.478c-.552 0-.991.045-1.318.135-.326.09-.563.23-.709.422-.146.192-.22.456-.22.794 0 .259.057.481.17.667.112.186.278.33.498.43.22.102.487.153.802.153.248 0 .487-.023.718-.068.23-.045.45-.118.658-.22a2.757 2.757 0 0 0 .873-.636l-.003-.002Zm11.28-6.356c-.429-.237-.97-.355-1.622-.355-.484 0-.966.076-1.444.228a5.487 5.487 0 0 0-1.36.65c-.163.107-.32.226-.473.347V9.216l-1.722.253V18h1.722v-6.416a5.22 5.22 0 0 1 .516-.264c.242-.107.484-.2.726-.279.242-.079.484-.138.726-.177.242-.04.476-.06.7-.06.316 0 .586.043.811.127.226.085.411.211.558.38.146.17.253.383.32.642.068.259.102.563.102.912v5.134h1.723V12.51c0-.765-.107-1.39-.321-1.874-.214-.484-.535-.845-.963-1.081Zm11.467-4.287V18h-1.402l-.211-.78c-.127.093-.254.18-.38.257a4.61 4.61 0 0 1-1.174.523c-.4.113-.825.169-1.275.169-.777 0-1.444-.172-2.001-.515a3.353 3.353 0 0 1-1.284-1.461c-.298-.63-.447-1.38-.447-2.246 0-1.014.197-1.872.59-2.576.395-.704.915-1.241 1.563-1.613a4.152 4.152 0 0 1 2.102-.557 5.815 5.815 0 0 1 2.145.388c.017.006.034.015.051.023v-4.11l1.723-.236Zm-1.723 10.845v-5.204c-.087-.031-.18-.068-.262-.093a5.083 5.083 0 0 0-1.596-.245c-.585 0-1.089.121-1.511.363a2.382 2.382 0 0 0-.971 1.064c-.226.467-.338 1.05-.338 1.748s.101 1.258.304 1.714c.203.456.495.794.878 1.014.383.22.844.329 1.385.329.36 0 .763-.082 1.207-.245.285-.104.586-.256.904-.445Z"/></svg>