<svg xmlns="http://www.w3.org/2000/svg" viewBox="0 0 66 24"><path fill="#1767CE" d="M0 0h66v24H0z"/><path d="M6 17.997V6h4v11.998H6Zm9.244-10.089 2.264 10.09H13.2l-2.704-12h2.417a2.276 2.276 0 0 1 1.512.55c.422.346.66.826.82 1.36ZM18 17.998v-12h4v12h-4Zm7.01-7.436a2.382 2.382 0 0 1-2.4-2.4 2.301 2.301 0 0 1 .322-1.2A2.41 2.41 0 0 1 26.21 6.1c.356.21.653.506.862.862a2.3 2.3 0 0 1 .321 1.2 2.35 2.35 0 0 1-.321 1.208 2.4 2.4 0 0 1-.862.87 2.3 2.3 0 0 1-1.2.322ZM28 17.997V6h4v11.998h-4Zm8.974-5.441c.01.011.095.15.253.414s.364.602.617 1.014a315.936 315.936 0 0 1 1.597 2.62c.247.41.529.876.845 1.393H35.96c-.27-.439-.516-.836-.736-1.19-.22-.356-.453-.739-.7-1.15-.248-.411-.493-.81-.736-1.2-.242-.39-.45-.73-.625-1.022-.175-.293-.296-.49-.363-.592a1.747 1.747 0 0 1-.287-.845c.016-.29.11-.57.27-.811.067-.113.191-.313.371-.6a182.106 182.106 0 0 0 1.37-2.23l.7-1.159.736-1.2h4.326l-3.346 5.459a1.08 1.08 0 0 0-.17.541c.012.202.083.396.204.558Z" fill="#fff"/><path fill-rule="evenodd" clip-rule="evenodd" d="M58.612 18.465a9.143 9.143 0 1 0-12.93-12.93 9.143 9.143 0 0 0 12.93 12.93ZM55.516 7.966l-2.932 1.587.002-.002a.178.178 0 0 0-.072.24l.011.021a.177.177 0 0 0 .24.072l2.084-1.127a.432.432 0 0 1 .587.156.432.432 0 0 1-.19.578l-2.063 1.115a.196.196 0 0 0-.089.262.197.197 0 0 0 .269.07l.565-.306.051-.028.93-.503a.432.432 0 0 1 .588.156.432.432 0 0 1-.191.577l-1.388.75-.223.12a.631.631 0 0 0-.702-.403l-2.528.482a.922.922 0 0 0-.212.08 2.22 2.22 0 0 1-.495-2.645c.002-.003.002-.006.002-.009l1.06-2.36a.431.431 0 0 1 .561-.233.433.433 0 0 1 .2.575l-.343.764.555-.3a.07.07 0 0 1 .012-.005.035.035 0 0 0 .014-.006.152.152 0 0 0 .011-.007l.015-.01 2.244-1.214a.431.431 0 0 1 .587.156.432.432 0 0 1-.19.578l-2.478 1.34a.178.178 0 0 0-.072.24l.011.02a.178.178 0 0 0 .24.072l2.932-1.586a.432.432 0 0 1 .587.156.432.432 0 0 1-.19.577Zm-3.363 5.925 2.987 1.468a.43.43 0 0 1 .213.568.43.43 0 0 1-.58.179l-2.986-1.468a.177.177 0 0 0-.237.08l-.01.022a.177.177 0 0 0 .08.237l2.125 1.044a.431.431 0 0 1 .213.568.43.43 0 0 1-.58.179l-2.102-1.033a.196.196 0 0 0-.265.08.197.197 0 0 0 .1.259l1.575.774a.431.431 0 0 1 .212.568.43.43 0 0 1-.58.179l-1.414-.695s-1.282-.64-1.314-.67a2.227 2.227 0 0 1-.142-3.68 2.217 2.217 0 0 1 .979-.406l.005-.001 2.533-.505a.43.43 0 0 1 .515.323.432.432 0 0 1-.353.495l-.82.163.566.278a.066.066 0 0 1 .01.006c.004.003.008.007.014.009a.355.355 0 0 0 .029.01l2.285 1.124a.43.43 0 0 1 .213.568.43.43 0 0 1-.58.179l-2.525-1.24a.177.177 0 0 0-.237.08l-.01.022a.177.177 0 0 0 .08.236Z" fill="#fff"/></svg>