<svg xmlns="http://www.w3.org/2000/svg" viewBox="0 0 120 28"><path fill="#1767CE" d="M0 0h119.333v28H0z"/><path fill="#fff" d="M6.667 21V7h4.593V21H6.667ZM17.509 9.23 20.151 21h-5.027L11.97 7h2.82a2.655 2.655 0 0 1 1.764.641c.49.404.828.964.955 1.587ZM20.841 21V7h4.593V21h-4.593Zm8.063-8.675a2.778 2.778 0 0 1-2.425-1.39 2.735 2.735 0 0 1-.375-1.41 2.686 2.686 0 0 1 .375-1.4 2.812 2.812 0 0 1 3.825-1.006c.415.245.76.59 1.005 1.006.25.424.38.908.375 1.4.004.495-.125.982-.375 1.41a2.8 2.8 0 0 1-1.006 1.015c-.423.25-.908.38-1.4.375ZM32.394 21V7h4.593V21h-4.593Zm10.409-6.349c.013.014.111.175.295.483.185.309.424.703.72 1.183a373.133 373.133 0 0 1 1.863 3.056c.288.48.617 1.022.986 1.627H41.62a744.12 744.12 0 0 0-.858-1.39c-.256-.414-.529-.861-.818-1.34-.289-.48-.575-.947-.858-1.4a71.148 71.148 0 0 1-.729-1.194 20.758 20.758 0 0 0-.424-.69 2.04 2.04 0 0 1-.335-.986c.02-.337.128-.664.315-.946.079-.132.224-.365.434-.7a207.957 207.957 0 0 0 1.598-2.603c.289-.48.561-.93.817-1.35L41.62 7h5.047l-3.904 6.368c-.12.19-.189.407-.197.632.013.235.095.461.236.65Z"/><path fill="#D4EEFC" d="M63.138 7.063H52v1.733h4.538v12.252h2.08V8.796h4.52V7.063ZM67.2 10.933c-.37.1-.724.252-1.05.453-.338.21-.65.458-.931.74-.047.046-.093.098-.14.147v-1.468l-2.02.296v9.947h2.02v-7.442a5.131 5.131 0 0 1 1.08-.575c.206-.079.413-.148.625-.206a4.23 4.23 0 0 1 1.387-.148l.238-1.852a3.804 3.804 0 0 0-1.209.108ZM78.576 19.807a.906.906 0 0 1-.773-.315 1.687 1.687 0 0 1-.218-1.044l.04-4.058a4.707 4.707 0 0 0-.159-1.26 3.08 3.08 0 0 0-.476-1.005 2.68 2.68 0 0 0-.822-.729 4.214 4.214 0 0 0-1.199-.453 7.112 7.112 0 0 0-1.566-.157c-.417 0-.834.026-1.248.078a8.612 8.612 0 0 0-1.16.227c-.353.095-.7.21-1.04.344l-.238 1.675a11.715 11.715 0 0 1 1.804-.493 7.2 7.2 0 0 1 .822-.108c.27-.02.538-.03.803-.03a4.46 4.46 0 0 1 1.199.138c.285.071.548.214.763.414.19.195.328.436.396.7.085.324.125.659.12.994l-.003.493-2.317.155a6.193 6.193 0 0 0-2.299.513 3.29 3.29 0 0 0-1.357 1.093 2.535 2.535 0 0 0-.446 1.448c-.004.484.116.962.347 1.388.242.438.607.798 1.05 1.034a3.55 3.55 0 0 0 1.754.394c.57.013 1.139-.08 1.675-.275a3.86 3.86 0 0 0 1.248-.788c.137-.131.267-.269.39-.413.038.204.111.4.215.58.176.302.448.537.772.67a2.91 2.91 0 0 0 1.13.207c.119 0 .235-.004.347-.01.11-.006.22-.023.327-.05.106-.026.201-.049.287-.068.078-.018.154-.04.228-.07l.219-1.319c-.11.037-.223.064-.338.079-.092.013-.184.02-.277.02Zm-2.97-1.197c-.101.113-.212.217-.33.31a3.816 3.816 0 0 1-.694.434 3.13 3.13 0 0 1-.773.256 4.39 4.39 0 0 1-.842.079 2.25 2.25 0 0 1-.942-.178 1.29 1.29 0 0 1-.584-.502 1.464 1.464 0 0 1-.198-.778c-.02-.328.071-.654.257-.926.216-.25.508-.423.832-.492a6.08 6.08 0 0 1 1.546-.158h1.736l-.008 1.955ZM86.037 6.334a6.491 6.491 0 0 0-1.298-.118 4.014 4.014 0 0 0-1.268.197 2.75 2.75 0 0 0-1.04.62 2.888 2.888 0 0 0-.694 1.054 4.09 4.09 0 0 0-.248 1.497v1.418h-1.486v1.537h1.486v8.509h2.021v-8.51h2.775v-1.536H83.51V9.367a1.837 1.837 0 0 1 .11-.66c.064-.178.17-.34.306-.472a1.21 1.21 0 0 1 .506-.276c.222-.061.453-.091.683-.089.16 0 .31.007.457.02.145.013.287.033.426.06.139.025.27.052.396.078.112.022.221.055.327.098l-.08-1.635a4.789 4.789 0 0 0-.604-.157ZM88.246 21.048h2.022V10.805l-2.022.296v9.947ZM89.98 6.678a1.29 1.29 0 0 0-.683-.187 1.339 1.339 0 0 0-.694.187c-.206.12-.38.29-.505.493-.126.204-.191.44-.189.68-.002.242.063.48.189.689.121.206.296.376.505.492.212.119.451.18.694.178.24.002.476-.059.684-.178.203-.117.371-.287.485-.492.12-.21.18-.448.178-.69a1.323 1.323 0 0 0-.178-.68 1.396 1.396 0 0 0-.485-.492ZM101.98 11.002h-2.477l-3.391 3.703h-.731V6.176l-2.022.296v14.576h2.022v-4.826h.033l4.049 4.826h2.616l-4.807-5.384 4.708-4.662ZM107.676 15.612l4.708-4.662h-2.477l-3.391 3.704h-.731v-8.53l-2.021.296v14.576h2.021v-4.825h.033l4.049 4.825h2.616l-4.807-5.384Z"/></svg>