<svg xmlns="http://www.w3.org/2000/svg" viewBox="0 0 79 16"><path fill="#fff" d="M0 15V1.001h4.593V15H0ZM10.843 3.23 13.484 15H8.457L5.303 1.001h2.82a2.655 2.655 0 0 1 1.764.641c.491.404.829.964.956 1.587ZM14.174 15V1.001h4.594V15h-4.594Zm8.063-8.675a2.737 2.737 0 0 1-1.409-.375 2.778 2.778 0 0 1-1.015-1.015 2.735 2.735 0 0 1-.375-1.41 2.685 2.685 0 0 1 .375-1.4 2.812 2.812 0 0 1 3.824-1.005c.415.244.761.59 1.005 1.005.251.424.38.908.375 1.4.005.495-.125.982-.375 1.41a2.8 2.8 0 0 1-1.005 1.015c-.424.25-.908.38-1.4.375ZM25.727 15V1.001h4.594V15h-4.594Zm10.409-6.349c.013.014.111.175.296.483.184.309.424.703.72 1.183a384.573 384.573 0 0 1 1.862 3.056c.289.48.617 1.023.986 1.627h-5.047l-.858-1.39c-.256-.414-.529-.861-.817-1.34a118.3 118.3 0 0 0-.858-1.4 71.28 71.28 0 0 1-.73-1.193 21.1 21.1 0 0 0-.424-.69A2.04 2.04 0 0 1 30.932 8c.019-.338.128-.665.315-.947.078-.132.223-.365.433-.7a216.97 216.97 0 0 0 1.598-2.603l.817-1.35.858-1.4H40l-3.904 6.368c-.12.19-.189.407-.197.632.013.235.095.461.236.65h.001Z"/><path fill="#03FCA3" d="M64.49 1h-4.326s2.457 4.027 2.485 4.079a.679.679 0 0 1 .015.825l-2.5 4.092h4.324s2.085-3.406 2.37-3.879a1.034 1.034 0 0 0-.01-1.252c-.306-.522-.307-.521-2.358-3.865ZM78.032 3.318C77.887 3.071 76.6 1 76.6 1h-9.254l2.022 3.387h4.874L72.23 7.68l2.244 3.763-2.163 3.551h3.95c.636-1.038 1.587-2.643 1.785-2.97a1.036 1.036 0 0 0-.011-1.257c-.199-.337-1.256-2.014-1.888-3.045l1.9-3.145a1.035 1.035 0 0 0-.015-1.259Z"/><path fill="#03FCA3" d="M69.13 8.14c-.61.994-1.629 2.659-1.819 2.983a.998.998 0 0 0-.01 1.21c.19.317 1.217 1.995 1.83 2.995.61-1 1.638-2.678 1.828-2.995a.997.997 0 0 0-.01-1.21c-.192-.324-1.211-1.99-1.82-2.983ZM56.831 1c-.45.003-.888.137-1.263.385-.318.195-2.911 2.394-3.109 2.56-.198-.166-2.791-2.365-3.109-2.56A2.319 2.319 0 0 0 48.087 1h-2.754v12.33l3.827-2.872V5.507l3.299 2.48 3.299-2.48v9.485h3.85V1H56.83Z"/></svg>