<svg xmlns="http://www.w3.org/2000/svg" viewBox="0 0 115 24"><path fill="#0A2343" d="M0 17.998v-12h4v12H0Zm9.244-10.09 2.264 10.09H7.2l-2.704-12h2.417a2.276 2.276 0 0 1 1.513.55c.42.346.66.826.819 1.36ZM12 17.998v-12h4v12h-4Zm7.01-7.436a2.381 2.381 0 0 1-2.078-1.192 2.345 2.345 0 0 1-.321-1.208 2.301 2.301 0 0 1 .321-1.2A2.41 2.41 0 0 1 20.21 6.1c.356.21.653.506.862.862.215.363.326.778.321 1.2a2.35 2.35 0 0 1-.321 1.208 2.4 2.4 0 0 1-.862.87 2.301 2.301 0 0 1-1.2.322ZM22 17.998v-12h4v12h-4Zm8.974-5.442c.01.011.095.15.253.414s.364.602.617 1.014a316.22 316.22 0 0 1 1.597 2.62c.247.41.529.876.845 1.394H29.96c-.27-.44-.516-.837-.736-1.192-.22-.355-.453-.738-.7-1.15-.248-.41-.493-.81-.736-1.199-.242-.39-.45-.73-.625-1.022a18.04 18.04 0 0 0-.363-.592 1.747 1.747 0 0 1-.287-.845c.016-.29.11-.57.27-.811.067-.113.191-.313.371-.6a182.106 182.106 0 0 0 1.37-2.23l.7-1.159.736-1.2h4.326l-3.346 5.46a1.079 1.079 0 0 0-.17.54c.012.202.083.396.204.558Z"/><path fill="#1767CE" d="M42.773 7.487v10.509h-1.774V7.486h-3.87V6h9.496v1.487h-3.852Zm7.316 1.833a3.322 3.322 0 0 0-.896.388 4.407 4.407 0 0 0-.794.634c-.04.04-.079.084-.118.127v-1.26l-1.723.254v8.533h1.723v-6.384a4.223 4.223 0 0 1 .92-.493c.175-.067.353-.127.533-.177a3.59 3.59 0 0 1 1.183-.127l.202-1.588a3.215 3.215 0 0 0-1.03.093Zm10.644.38-.977 1.036c.124.163.242.338.343.527.355.659.533 1.433.533 2.323 0 .935-.192 1.746-.575 2.433a4.006 4.006 0 0 1-1.58 1.588c-.67.372-1.444.558-2.323.558-.878 0-1.602-.175-2.238-.524a3.631 3.631 0 0 1-.409-.265l-.9.974-.778-.71.94-1.002a3.977 3.977 0 0 1-.332-.526c-.349-.67-.524-1.467-.524-2.391 0-.924.184-1.723.55-2.4.366-.675.878-1.199 1.537-1.57.659-.372 1.428-.558 2.306-.558.879 0 1.656.18 2.298.54.138.077.265.164.389.257l.946-1 .794.71Zm-7.012 3.92c0 .69.102 1.267.307 1.737l3.931-4.246a1.967 1.967 0 0 0-.518-.341c-.315-.14-.687-.211-1.115-.211-.53 0-.988.112-1.377.338-.389.225-.69.563-.904 1.013-.214.451-.32 1.02-.32 1.707l-.004.003Zm5.12 0c0-.462-.054-.882-.16-1.259a3.395 3.395 0 0 0-.15-.414l-3.934 4.246c.099.093.2.178.315.248.378.237.82.355 1.327.355a2.58 2.58 0 0 0 1.343-.346c.389-.231.695-.583.92-1.056.226-.473.339-1.065.339-1.774Zm10.576-4.072c-.428-.237-.969-.355-1.622-.355-.484 0-.966.076-1.444.228a5.49 5.49 0 0 0-1.36.65 6.35 6.35 0 0 0-.474.347V9.21l-1.723.253v8.533h1.724v-6.418a4.94 4.94 0 0 1 .515-.265c.242-.107.484-.2.726-.278.242-.08.485-.138.727-.178.242-.04.476-.059.701-.059.315 0 .586.042.81.127.226.084.412.211.558.38.147.169.254.383.321.642.068.26.102.563.102.912v5.137H70.7v-5.491c0-.766-.107-1.392-.32-1.876-.215-.484-.536-.845-.964-1.081Zm9.749-4.055 1.723-.237v12.74h-1.402l-.211-.78a4.98 4.98 0 0 1-.38.256 4.606 4.606 0 0 1-1.175.524c-.4.112-.825.169-1.275.169-.778 0-1.445-.172-2.002-.516a3.355 3.355 0 0 1-1.285-1.461c-.298-.631-.447-1.38-.447-2.247 0-1.014.197-1.873.591-2.577.394-.704.915-1.242 1.563-1.613a4.154 4.154 0 0 1 2.103-.558 5.82 5.82 0 0 1 2.197.411V5.493Zm0 10.613V10.9c-.087-.03-.18-.067-.262-.092a5.108 5.108 0 0 0-1.597-.245c-.585 0-1.09.12-1.512.363a2.383 2.383 0 0 0-.971 1.064c-.226.468-.338 1.05-.338 1.749 0 .698.101 1.259.304 1.715.203.456.495.794.878 1.014.383.22.845.329 1.386.329.36 0 .763-.082 1.208-.245.284-.104.586-.256.904-.445Zm11.599-4.091c.14.608.171 1.306.093 2.095h-6.105c.022.43.081.802.183 1.115.13.394.32.707.574.937.253.231.566.395.938.49a5.33 5.33 0 0 0 1.318.144c.247 0 .495-.014.743-.042.248-.028.49-.073.727-.135.236-.062.464-.133.684-.212.22-.078.436-.157.65-.236l-.118 1.3a6.325 6.325 0 0 1-.912.39 5.696 5.696 0 0 1-.972.227c-.343.051-.74.077-1.19.077-.947 0-1.747-.167-2.4-.499a3.303 3.303 0 0 1-1.478-1.47C83.167 15.55 83 14.763 83 13.84a6.1 6.1 0 0 1 .279-1.9 4.143 4.143 0 0 1 .81-1.462 3.68 3.68 0 0 1 1.293-.946c.507-.225 1.082-.338 1.724-.338.642 0 1.213.107 1.715.321.5.214.915.532 1.242.955.326.422.56.937.7 1.546Zm-5.762-.093a4.157 4.157 0 0 0-.214.988h4.444c0-.338-.04-.656-.124-.946-.13-.45-.358-.803-.684-1.056-.327-.253-.76-.38-1.301-.38-.541 0-.958.115-1.318.346-.36.231-.628.58-.803 1.048Zm10.627 4.832c-.05.005-.11.008-.177.008a.913.913 0 0 1-.372-.067.61.61 0 0 1-.253-.212.926.926 0 0 1-.144-.363 2.809 2.809 0 0 1-.042-.524V5.24l-1.723.254v10.864c0 .326.045.605.135.836.09.231.22.42.389.566.169.146.368.25.6.313.23.062.48.093.751.093a3.775 3.775 0 0 0 1.047-.135l.17-1.335-.203.033c-.068.012-.127.02-.178.026Zm9.656.16c.09-.011.186-.034.288-.067l-.186 1.132a1.343 1.343 0 0 1-.195.059c-.073.017-.155.036-.245.059-.09.022-.183.037-.278.042a5.091 5.091 0 0 1-.296.009c-.361 0-.682-.06-.963-.178a1.364 1.364 0 0 1-.659-.574 1.557 1.557 0 0 1-.183-.499 5.088 5.088 0 0 1-.332.355c-.31.293-.665.518-1.065.676-.4.158-.876.237-1.427.237-.597 0-1.096-.113-1.496-.338-.4-.226-.698-.521-.895-.887a2.472 2.472 0 0 1-.296-1.192c0-.45.127-.864.38-1.241.254-.378.64-.69 1.158-.938.518-.248 1.171-.394 1.96-.44l1.974-.132v-.422c0-.327-.031-.611-.099-.853a1.34 1.34 0 0 0-.338-.6 1.472 1.472 0 0 0-.65-.355 3.782 3.782 0 0 0-1.023-.118c-.225 0-.453.008-.684.025-.23.017-.465.048-.701.093a9.978 9.978 0 0 0-1.537.422l.202-1.436a8.19 8.19 0 0 1 .887-.295c.31-.085.64-.15.989-.195.349-.045.704-.067 1.064-.067.496 0 .941.045 1.335.135.394.09.735.22 1.022.389.287.169.521.377.701.625.18.248.315.535.406.861.09.327.135.688.135 1.082l-.034 3.48c-.011.417.051.715.186.896.135.18.355.27.659.27.067 0 .146-.006.236-.017v-.003Zm-2.768-1.01.009-1.676h-1.479c-.552 0-.991.045-1.317.135-.327.09-.564.231-.71.423-.147.19-.22.456-.22.793 0 .26.057.482.17.668.112.186.278.33.498.43.22.102.487.153.802.153.248 0 .487-.023.718-.068.231-.045.451-.118.659-.22.209-.1.406-.225.591-.371.099-.079.192-.17.282-.265l-.003-.003Zm12.247-6.711v8.752c0 .743-.166 1.4-.499 1.968-.332.57-.825 1.014-1.478 1.335-.653.321-1.459.482-2.416.482a8.97 8.97 0 0 1-1.115-.068 8.44 8.44 0 0 1-1.039-.194 7.251 7.251 0 0 1-.955-.313l-.186-1.487c.349.147.704.268 1.065.364.36.095.718.163 1.072.202.355.04.702.06 1.04.06.506 0 .937-.054 1.292-.161.355-.107.642-.27.862-.49.219-.22.383-.49.49-.811.107-.321.16-.696.16-1.124v-.461c-.318.233-.639.42-.963.546a4.87 4.87 0 0 1-1.808.355c-.788 0-1.458-.172-2.01-.516a3.274 3.274 0 0 1-1.259-1.453c-.287-.625-.431-1.365-.431-2.221 0-.766.113-1.445.338-2.036a4.16 4.16 0 0 1 .938-1.487c.4-.4.853-.707 1.36-.92a4.085 4.085 0 0 1 1.605-.322c.327 0 .631.02.912.06.282.039.544.092.786.16.206.056.4.126.586.205l1.653-.425Zm-1.707 6.857V10.9c-.084-.032-.172-.065-.253-.093a6.276 6.276 0 0 0-.794-.195 4.623 4.623 0 0 0-.794-.067c-.451 0-.854.07-1.208.21-.355.142-.654.342-.896.6a2.586 2.586 0 0 0-.557.99c-.13.399-.195.858-.195 1.376 0 .698.093 1.27.279 1.715.186.445.473.777.862.997.388.22.875.33 1.461.33.214 0 .42-.023.617-.068.197-.045.4-.11.608-.195a6.384 6.384 0 0 0 .87-.45Z"/></svg>