<svg xmlns="http://www.w3.org/2000/svg" viewBox="0 0 63 24"><path fill="#fff" d="M0 18V6.001h3.937v12H0ZM9.294 7.91 11.558 18H7.25L4.545 6.001h2.417a2.276 2.276 0 0 1 1.513.55c.42.345.71.826.819 1.36ZM12.149 18V6.001h3.938v12h-3.938Zm6.912-7.436a2.382 2.382 0 0 1-2.4-2.4 2.301 2.301 0 0 1 .321-1.2 2.41 2.41 0 0 1 3.278-.861c.356.209.653.506.862.862.215.363.326.778.321 1.2a2.35 2.35 0 0 1-.321 1.208 2.4 2.4 0 0 1-.862.87 2.302 2.302 0 0 1-1.2.321ZM22.05 18V6.001h3.938v12h-3.937Zm8.923-5.442c.01.012.095.15.253.414.158.265.364.603.617 1.014a315.936 315.936 0 0 1 1.597 2.62c.247.411.529.876.845 1.394H29.96c-.27-.44-.516-.836-.736-1.191-.22-.355-.453-.738-.7-1.15-.248-.41-.493-.81-.736-1.2-.242-.389-.45-.73-.625-1.022-.175-.293-.296-.49-.363-.591a1.747 1.747 0 0 1-.287-.845c.016-.29.11-.57.27-.812.067-.112.191-.313.371-.6s.392-.628.634-1.022c.242-.395.488-.797.736-1.209l.7-1.157.736-1.2h4.326L30.94 11.46a1.08 1.08 0 0 0-.17.54c.012.202.082.396.203.558Z"/><path fill="#FFA90A" d="M47.145 7.554a3.021 3.021 0 0 0-.786-.82 3.767 3.767 0 0 0-1.14-.54 5.401 5.401 0 0 0-1.521-.195H39v11.998h1.774v-4.309h3.059c.69.01 1.372-.158 1.977-.49a3.655 3.655 0 0 0 1.394-1.369 4.034 4.034 0 0 0 .515-2.078 4.928 4.928 0 0 0-.135-1.166 3.361 3.361 0 0 0-.44-1.031Zm-1.572 3.642a2 2 0 0 1-.954.785c-.478.181-.986.267-1.496.254h-2.349V7.47h2.586c.493-.019.985.077 1.436.279.359.173.652.458.837.81.195.397.29.835.278 1.277.02.476-.098.948-.338 1.36ZM51.327 6.397c-.242.13-.479.25-.71.363-.23.113-.464.225-.701.338a8.18 8.18 0 0 1-.727.304c-.248.09-.512.18-.794.27l.372 1.437c.338-.102.645-.203.92-.304.271-.1.536-.212.795-.338.254-.124.507-.26.76-.406l.01-.005v9.942h1.756V6h-.912c-.27.134-.527.267-.77.397ZM62.218 13.502a2.66 2.66 0 0 0-.541-.913 2.63 2.63 0 0 0-.887-.625 4.264 4.264 0 0 0-1.209-.32v-.052c.506-.16.976-.415 1.386-.752.366-.3.668-.67.887-1.09a2.81 2.81 0 0 0 .313-1.3 2.344 2.344 0 0 0-.254-1.107 2.357 2.357 0 0 0-.743-.828 3.448 3.448 0 0 0-1.191-.516 6.845 6.845 0 0 0-1.597-.168 8.343 8.343 0 0 0-2.13.296c-.339.091-.667.219-.98.38l.237 1.335c.248-.102.487-.19.718-.263a6.864 6.864 0 0 1 1.293-.278c.196-.022.394-.034.591-.034.358-.006.715.028 1.065.101.254.051.495.152.71.296.175.124.312.293.397.49.089.223.132.461.127.701a1.96 1.96 0 0 1-.229.947 2.192 2.192 0 0 1-.642.726c-.3.214-.634.374-.988.474a4.48 4.48 0 0 1-1.268.168h-.32l-.203 1.319h.54a7.56 7.56 0 0 1 1.487.127c.367.065.72.197 1.04.388.261.16.474.388.616.66.142.291.211.613.203.937.009.328-.055.654-.186.955a1.632 1.632 0 0 1-.566.659c-.293.19-.62.323-.963.388a6.53 6.53 0 0 1-1.377.127 7.28 7.28 0 0 1-1.014-.068 7.871 7.871 0 0 1-.566-.092c-.197-.04-.414-.087-.65-.144l-.22 1.436c.247.045.486.088.718.127.23.04.459.073.684.101.225.028.445.048.659.06.214.01.422.016.625.016a8.289 8.289 0 0 0 1.606-.144c.45-.083.885-.231 1.292-.439.356-.18.677-.424.947-.718a2.87 2.87 0 0 0 .574-.971c.134-.395.2-.81.194-1.226a3.471 3.471 0 0 0-.185-1.166Z"/></svg>