<svg xmlns="http://www.w3.org/2000/svg" fill="none" viewBox="0 0 56 24">
  <path fill="#fff" d="M0 5.997h4.235v12H0v-12Zm4.49 0 2.722 12h4.61L9.541 7.923a2.296 2.296 0 0 0-.808-1.378 2.325 2.325 0 0 0-1.54-.549H4.49Zm7.587 12h4.236v-12h-4.236v12Zm9.542 0h4.236v-12h-4.236v12Zm12.667-12h-4.661c-.272.44-.516.837-.731 1.192l-.706 1.158-.74 1.208c-.238.388-.445.73-.62 1.023-.177.293-.299.49-.367.591-.17.244-.267.531-.28.828.025.3.121.59.28.845.068.101.19.298.366.592a238.66 238.66 0 0 0 1.36 2.222c.256.411.491.794.707 1.149.215.355.459.752.731 1.192h4.66l-.85-1.395c-.25-.41-.516-.845-.8-1.301a248.71 248.71 0 0 1-1.428-2.332 8.412 8.412 0 0 0-.255-.414 1.242 1.242 0 0 1-.196-.558.996.996 0 0 1 .179-.541l3.35-5.459ZM18.983 10.527a2.377 2.377 0 0 1-2.395-2.395 2.297 2.297 0 0 1 .32-1.198 2.406 2.406 0 0 1 3.272-.86c.355.208.652.504.86.86.215.362.326.776.321 1.197a2.396 2.396 0 0 1-1.18 2.075 2.298 2.298 0 0 1-1.198.32Z"/>
  <circle cx="46.143" cy="12.006" r="8.857" fill="white"/>
  <path fill="#1767CE" d="M46.143 2.863a9.143 9.143 0 1 1 0 18.286 9.143 9.143 0 0 1 0-18.286Z"/>
  <path fill="white" d="M47.128 11.64a.431.431 0 0 1 .347.327.432.432 0 0 1-.352.495l-.82.163.566.277.01.007c.004.003.008.007.013.009l.013.004a.166.166 0 0 1 .016.006l2.285 1.124a.432.432 0 0 1 .213.568.43.43 0 0 1-.58.179l-2.524-1.24a.178.178 0 0 0-.237.08l-.01.021a.178.178 0 0 0 .08.237l2.987 1.467a.433.433 0 0 1 .214.568.432.432 0 0 1-.58.18l-2.986-1.468a.177.177 0 0 0-.237.08l-.011.022a.178.178 0 0 0 .08.236l2.126 1.044a.431.431 0 0 1 .213.569.431.431 0 0 1-.58.178l-2.102-1.032a.198.198 0 0 0-.266.08.197.197 0 0 0-.003.15.197.197 0 0 0 .103.109l1.575.773a.432.432 0 0 1 .213.569.431.431 0 0 1-.58.178l-1.414-.694s-1.283-.641-1.315-.67a2.227 2.227 0 0 1-.141-3.68c.287-.21.622-.35.974-.404l.004-.002.005-.002 2.534-.504a.427.427 0 0 1 .167-.005Z"/>
  <path fill="white" d="M48.41 6.376c.11.03.204.1.261.199a.432.432 0 0 1-.19.577l-2.478 1.34a.178.178 0 0 0-.07.24l.01.02c.022.042.06.073.105.087a.178.178 0 0 0 .135-.015l2.932-1.585a.431.431 0 0 1 .587.156.431.431 0 0 1-.19.577L46.58 9.56l-.052.042a.179.179 0 0 0-.018.195l.011.022a.177.177 0 0 0 .24.071l2.083-1.126a.432.432 0 0 1 .588.157.432.432 0 0 1-.191.577l-2.062 1.114a.198.198 0 0 0-.09.263.2.2 0 0 0 .12.09.2.2 0 0 0 .15-.02l.564-.307.052-.028.93-.503a.433.433 0 0 1 .588.156.433.433 0 0 1-.192.578l-1.387.75-.224.12a.631.631 0 0 0-.701-.404l-2.529.483a.922.922 0 0 0-.21.079 2.225 2.225 0 0 1-.495-2.645v-.008l1.06-2.36a.433.433 0 0 1 .562-.233.434.434 0 0 1 .2.575l-.343.764.555-.3a.074.074 0 0 1 .011-.005l.015-.006.01-.008.015-.01 2.244-1.213a.432.432 0 0 1 .327-.043Z"/>
</svg>
