<svg xmlns="http://www.w3.org/2000/svg" viewBox="0 0 98 24"><path fill="#1767CE" d="M0 0h98v24H0z"/><path fill="#fff" d="M6.004 18V6h3.937V18H6.004Zm9.294-10.09L17.562 18h-4.309L10.55 6h2.416a2.276 2.276 0 0 1 1.513.55c.42.345.71.826.82 1.36ZM18.154 18V6h3.937V18h-3.937Zm6.91-7.436a2.382 2.382 0 0 1-2.4-2.4 2.303 2.303 0 0 1 .323-1.2 2.411 2.411 0 0 1 3.278-.862c.355.21.652.506.861.862.215.363.326.778.322 1.2.003.425-.108.842-.322 1.208a2.4 2.4 0 0 1-.861.87 2.301 2.301 0 0 1-1.2.322ZM28.057 18V6h3.937V18h-3.937Zm8.922-5.442c.011.012.096.15.253.414.158.264.364.603.617 1.014a309.436 309.436 0 0 1 1.597 2.62c.247.411.529.876.845 1.394h-4.326c-.27-.44-.516-.837-.735-1.192-.22-.355-.453-.738-.7-1.149-.249-.41-.494-.81-.737-1.2-.242-.389-.45-.73-.625-1.022a18.04 18.04 0 0 0-.363-.592 1.748 1.748 0 0 1-.287-.845c.017-.29.11-.57.27-.811.068-.113.192-.313.372-.6s.391-.628.633-1.022c.243-.395.488-.798.736-1.209l.7-1.157.736-1.2h4.326l-3.346 5.458a1.079 1.079 0 0 0-.17.541c.012.202.082.396.203.558h.001Z"/><path fill="#D4EEFC" d="M51.656 12.36a3.185 3.185 0 0 0-.837-.62 6.475 6.475 0 0 0-1.013-.416c-.357-.113-.726-.21-1.105-.289-.29-.068-.561-.135-.812-.203a3.703 3.703 0 0 1-.67-.247 2.209 2.209 0 0 1-.51-.34 1.222 1.222 0 0 1-.327-.474 1.853 1.853 0 0 1-.108-.671 2.068 2.068 0 0 1 .108-.696c.07-.198.184-.376.335-.518.157-.146.335-.266.528-.357.22-.101.454-.17.695-.203a5.79 5.79 0 0 1 .862-.06 7.216 7.216 0 0 1 1.574.17c.252.056.5.126.745.212.228.08.45.18.661.297l.235-1.494a4.135 4.135 0 0 0-.745-.305 9.914 9.914 0 0 0-.796-.204 7.847 7.847 0 0 0-.82-.127 8.46 8.46 0 0 0-.854-.043 7.034 7.034 0 0 0-1.758.204 3.95 3.95 0 0 0-1.364.628c-.38.276-.684.643-.888 1.07a3.499 3.499 0 0 0-.31 1.528c-.009.407.056.813.193 1.196.12.322.305.614.544.858.236.239.507.44.804.594.314.165.642.3.98.408.351.113.711.21 1.08.289.3.067.58.138.837.212.238.067.47.155.694.263.192.092.37.212.528.357.15.142.266.316.343.509.089.232.131.48.126.73.004.265-.036.53-.118.781-.073.218-.187.42-.335.594a1.613 1.613 0 0 1-.535.408 2.676 2.676 0 0 1-.729.22 5.72 5.72 0 0 1-.929.068c-.302 0-.604-.02-.904-.059-.312-.04-.625-.093-.938-.162a9.294 9.294 0 0 1-.912-.246 17.007 17.007 0 0 1-.845-.297l.217 1.681c.286.108.576.202.871.28.267.071.538.128.812.17.262.04.524.07.787.093.262.023.527.034.795.034.6.004 1.197-.059 1.783-.186a4.24 4.24 0 0 0 1.457-.612c.414-.278.749-.661.971-1.112a3.806 3.806 0 0 0 .343-1.706 3.884 3.884 0 0 0-.192-1.29 2.515 2.515 0 0 0-.554-.917ZM61.677 16.927a.754.754 0 0 1-.653-.272 1.477 1.477 0 0 1-.184-.9l.033-3.497a4.13 4.13 0 0 0-.134-1.087 2.676 2.676 0 0 0-.402-.866 2.285 2.285 0 0 0-.694-.628 3.532 3.532 0 0 0-1.013-.39 5.881 5.881 0 0 0-1.323-.136c-.353 0-.705.022-1.055.068-.33.042-.658.107-.98.195a8.034 8.034 0 0 0-.878.297l-.201 1.443a10.062 10.062 0 0 1 1.523-.424 6.05 6.05 0 0 1 .695-.093 9.24 9.24 0 0 1 .678-.026c.342-.007.682.033 1.013.119.242.061.464.184.645.357.161.168.277.375.335.603.071.28.105.568.1.857l-.002.426-1.956.134a5.141 5.141 0 0 0-1.942.441c-.46.204-.856.53-1.148.943a2.214 2.214 0 0 0-.376 1.248c-.004.417.097.83.293 1.197.205.378.513.687.887.89.457.242.967.359 1.482.34a3.81 3.81 0 0 0 1.414-.237c.392-.155.75-.386 1.055-.679.116-.113.226-.231.33-.356.032.176.094.345.181.5.15.26.379.463.653.578.303.123.628.184.954.178.101 0 .198-.003.293-.008.093-.006.186-.02.277-.043l.242-.06c.066-.014.13-.034.193-.059l.184-1.137a1.472 1.472 0 0 1-.284.068 1.9 1.9 0 0 1-.235.016Zm-2.788-.764a3.22 3.22 0 0 1-.586.374 2.628 2.628 0 0 1-.653.22 3.663 3.663 0 0 1-.712.068 1.861 1.861 0 0 1-.795-.153 1.096 1.096 0 0 1-.494-.432 1.283 1.283 0 0 1-.167-.67c-.016-.284.06-.565.218-.8.182-.215.429-.364.703-.424a5.041 5.041 0 0 1 1.306-.135h1.466l-.008 1.685a2.275 2.275 0 0 1-.278.267ZM59.952 5.11h-1.808l-1.423 3.04h1.306l1.925-3.04ZM70.224 9.686a3.56 3.56 0 0 0-2-.535 5.046 5.046 0 0 0-1.24.16 5.343 5.343 0 0 0-1.49.642v-.785l-1.708.272v12.122h1.708v-3.801l.034.015c.309.13.632.224.962.28.39.065.785.097 1.18.093a4.136 4.136 0 0 0 2.152-.56 4.008 4.008 0 0 0 1.507-1.621 5.489 5.489 0 0 0 .56-2.59 5.344 5.344 0 0 0-.426-2.207 3.399 3.399 0 0 0-1.24-1.485Zm-.444 5.679c-.2.45-.538.825-.963 1.07-.471.25-.999.373-1.531.356a4.714 4.714 0 0 1-1.791-.346v-5.358c.021-.01.044-.024.066-.034.246-.114.475-.21.687-.29a3.398 3.398 0 0 1 1.188-.22 3.061 3.061 0 0 1 1.49.33c.404.224.72.58.896 1.01.213.552.313 1.141.293 1.733a4.099 4.099 0 0 1-.335 1.749ZM85.535 9.507a2.882 2.882 0 0 0-1.49-.356 3.872 3.872 0 0 0-1.323.23 4.648 4.648 0 0 0-1.206.652 6.123 6.123 0 0 0-.594.51 2.12 2.12 0 0 0-.862-1.019 2.92 2.92 0 0 0-1.507-.356c-.448 0-.892.077-1.314.229a4.74 4.74 0 0 0-1.566.928V9.17l-1.708.255v8.574h1.708v-6.46c.201-.134.411-.254.628-.359a4.27 4.27 0 0 1 .829-.297c.263-.066.532-.1.803-.102.25-.008.497.036.729.127.191.083.36.21.494.374.145.189.245.41.293.645.065.304.096.614.092.925v5.145h1.708v-5.501c0-.325-.021-.65-.065-.971.193-.13.394-.247.6-.353.261-.134.537-.236.82-.306.27-.067.545-.101.821-.102.246-.006.49.037.72.127.195.08.368.21.502.374.146.189.246.41.293.645.066.304.097.614.092.925v5.162h1.708v-5.518a4.995 4.995 0 0 0-.301-1.885 2.18 2.18 0 0 0-.904-1.086ZM89.268 17.997h1.708v-8.83l-1.708.256v8.574ZM91.144 6.035c-.1-.174-.241-.32-.41-.424a1.073 1.073 0 0 0-.578-.161 1.114 1.114 0 0 0-.586.16c-.175.104-.322.25-.427.425-.106.176-.162.38-.16.586-.001.21.054.415.16.594a1.159 1.159 0 0 0 1.013.577 1.1 1.1 0 0 0 .988-.577c.1-.181.152-.386.15-.594a1.16 1.16 0 0 0-.15-.586Z"/></svg>