<svg xmlns="http://www.w3.org/2000/svg" viewBox="0 0 129 24">
  <path fill="#FFE100" d="M0 0h129v24H0z"/>
  <path fill="#000" d="m81.547 6.005 1.013 11.99h-1.756l-.608-7.97c-.011-.226-.028-.45-.05-.676-.02-.194-.037-.386-.051-.574-.079.202-.158.408-.237.616-.078.208-.157.414-.236.617l-3.107 7.987H74.96l-3.124-8.021c-.079-.214-.16-.425-.245-.634-.082-.202-.16-.408-.24-.616-.016.222-.033.44-.047.65-.017.22-.037.442-.059.667l-.642 7.954H69l1.115-11.99h1.958l3.31 8.494c.08.17.152.341.22.515l.203.533.061.163c.031-.074.06-.152.09-.223.068-.163.133-.332.195-.506.062-.175.126-.352.194-.532l3.276-8.444h1.925Zm8.984 9.888a4.24 4.24 0 0 1-.38.21 6.291 6.291 0 0 1-.616.262c-.203.074-.408.13-.617.17-.208.039-.425.058-.65.058-.416 0-.76-.076-1.03-.227a1.373 1.373 0 0 1-.6-.693c-.129-.31-.194-.69-.194-1.14v-5.32l-1.722.254v5.37c0 .755.11 1.38.33 1.875.219.495.55.86.995 1.097.445.237.983.355 1.613.355.372 0 .72-.042 1.047-.127.327-.084.64-.208.937-.371a5.66 5.66 0 0 0 .862-.583c.05-.04.098-.087.149-.13l.25 1.042h1.334l.017-8.781-1.722.253v6.426h-.003Zm9.693-1.782a2.535 2.535 0 0 0-.59-.464 4.507 4.507 0 0 0-.71-.33c-.18-.056-.358-.115-.532-.177a9.298 9.298 0 0 0-.524-.169c-.174-.05-.343-.104-.506-.16a3.705 3.705 0 0 1-.448-.186 3.001 3.001 0 0 1-.397-.253 1.11 1.11 0 0 1-.287-.321.813.813 0 0 1-.11-.422c0-.18.04-.335.119-.465a.959.959 0 0 1 .354-.329 1.91 1.91 0 0 1 .566-.203c.22-.045.47-.067.752-.067a5.289 5.289 0 0 1 .886.076c.175.028.35.065.524.11.174.045.352.095.532.152.18.056.343.118.489.185l.119-1.368a7.925 7.925 0 0 0-.634-.236 6.176 6.176 0 0 0-.633-.169 5.055 5.055 0 0 0-.633-.093 7.624 7.624 0 0 0-.617-.025c-.506 0-.968.053-1.384.16-.417.107-.78.265-1.09.473-.31.209-.548.473-.717.794-.17.32-.254.7-.254 1.14 0 .315.046.594.136.836.09.242.208.447.354.616.146.169.318.318.515.448.197.129.408.239.633.329a15.187 15.187 0 0 0 .786.262 31.179 31.179 0 0 1 .743.236c.118.04.233.076.346.11.158.056.304.12.439.194.135.073.25.152.346.236a.862.862 0 0 1 .296.667c0 .282-.093.504-.279.668a1.621 1.621 0 0 1-.726.346 4.315 4.315 0 0 1-.954.101c-.18 0-.38-.014-.6-.042a8.984 8.984 0 0 1-.692-.118c-.242-.051-.49-.113-.743-.186s-.51-.155-.768-.245l.067 1.435c.293.102.56.183.802.245s.473.116.693.16c.22.046.433.074.641.085.209.011.42.017.634.017a6.57 6.57 0 0 0 1.401-.144c.44-.095.822-.244 1.148-.447a2.21 2.21 0 0 0 .769-.794c.186-.326.279-.715.279-1.165 0-.338-.048-.628-.144-.87a1.983 1.983 0 0 0-.397-.633Zm2.584 3.884h1.722V9.214l-1.722.253v8.528Zm1.477-12.319a1.09 1.09 0 0 0-.582-.16c-.214 0-.411.053-.591.16a1.24 1.24 0 0 0-.431.422c-.107.175-.16.369-.16.583a1.15 1.15 0 0 0 .591 1.013c.18.101.377.152.591.152.214 0 .408-.05.582-.152a1.1 1.1 0 0 0 .414-.422c.102-.18.152-.377.152-.591 0-.214-.05-.408-.152-.583a1.183 1.183 0 0 0-.414-.422Zm10.226 3.707H112.4l-2.891 3.175h-.622V5.244l-1.722.254v12.496h1.722v-4.137h.028l3.451 4.137h2.229L110.5 13.38l4.011-3.996Zm6.721 8.612h2.229l-4.095-4.616 4.01-3.996h-2.111l-2.89 3.175h-.622V5.244l-1.723.254v12.496h1.723v-4.137h.028l3.451 4.137ZM52.48 6.001h-3.703s2.105 3.455 2.129 3.499a.582.582 0 0 1 .013.706l-2.142 3.511h3.704s1.787-2.92 2.031-3.326a.886.886 0 0 0-.01-1.073c-.263-.449-.264-.449-2.021-3.317ZM48.299 6.002H45v12h3.299v-12ZM64.082 7.99C63.958 7.777 62.855 6 62.855 6h-7.928l1.732 2.905h4.176l-1.723 2.824 1.92 3.226-1.853 3.046h3.385c.544-.89 1.357-2.267 1.527-2.55a.889.889 0 0 0-.01-1.077c-.169-.289-1.075-1.726-1.617-2.611l1.627-2.697a.888.888 0 0 0-.009-1.077Z"/>
  <path fill="#000" d="M56.456 12.12c-.522.852-1.394 2.28-1.558 2.559a.856.856 0 0 0-.01 1.038l1.568 2.57a912.85 912.85 0 0 0 1.567-2.57.857.857 0 0 0-.009-1.038 393.4 393.4 0 0 0-1.558-2.559ZM6 17.999v-12h4v12H6Zm9.244-10.09L17.508 18H13.2l-2.704-12h2.417a2.276 2.276 0 0 1 1.512.55c.422.346.66.826.82 1.36ZM18 18v-12h4v12h-4Zm7.01-7.436a2.381 2.381 0 0 1-2.078-1.192 2.345 2.345 0 0 1-.321-1.208 2.301 2.301 0 0 1 .321-1.2 2.41 2.41 0 0 1 3.278-.862c.356.21.653.506.862.862.215.363.326.778.321 1.2a2.35 2.35 0 0 1-.321 1.208c-.207.36-.504.66-.862.87a2.3 2.3 0 0 1-1.2.322ZM28 17.999v-12h4v12h-4Zm8.974-5.442c.01.012.095.15.253.414s.364.602.617 1.014a309.436 309.436 0 0 1 1.597 2.62c.247.411.529.876.845 1.394H35.96c-.27-.44-.516-.837-.736-1.192-.22-.355-.453-.738-.7-1.149-.248-.41-.493-.81-.736-1.2a60.12 60.12 0 0 1-.625-1.022 18.04 18.04 0 0 0-.363-.592 1.747 1.747 0 0 1-.287-.845c.016-.29.11-.57.27-.811.067-.113.191-.313.371-.6s.392-.628.634-1.022c.242-.395.488-.798.736-1.209l.7-1.158.736-1.2h4.326l-3.346 5.46a1.079 1.079 0 0 0-.17.54c.012.202.083.396.204.558Z"/>
</svg>
