<svg xmlns="http://www.w3.org/2000/svg" viewBox="0 0 48 41" fill="currentColor"><path d="M0 34.994v-5.99h1.977v5.99H0Zm4.668-5.037 1.137 5.037H3.64l-1.358-5.99h1.214c.278-.004.548.094.76.274.21.173.356.413.41.68Zm1.434 5.037v-5.99h1.977v5.99H6.102Zm3.47-3.712a1.193 1.193 0 1 1 0-2.388c.212-.002.42.053.603.16.179.105.328.253.433.43.108.182.164.39.161.6a1.202 1.202 0 0 1-.594 1.038c-.182.107-.39.162-.603.16Zm1.503 3.712v-5.99h1.977v5.99h-1.977Zm4.48-2.717c.006.006.049.075.128.207l.31.506a157.214 157.214 0 0 1 .802 1.308c.124.205.265.437.424.696h-2.173c-.135-.22-.259-.418-.369-.595-.11-.177-.227-.368-.352-.574a49.447 49.447 0 0 0-.37-.599 30.668 30.668 0 0 1-.313-.51 8.656 8.656 0 0 0-.183-.295.87.87 0 0 1-.144-.422.816.816 0 0 1 .136-.405l.186-.3a61.387 61.387 0 0 0 .688-1.113 294.566 294.566 0 0 1 .721-1.177h2.173l-1.68 2.725a.537.537 0 0 0-.085.27.51.51 0 0 0 .101.278ZM23.8 32.71c.075.197.11.407.105.619.009.285-.06.567-.198.817-.133.226-.32.416-.544.554-.25.152-.525.259-.813.316-.33.068-.667.1-1.005.099-.156 0-.31-.004-.462-.012a3.193 3.193 0 0 1-.462-.058 7.417 7.417 0 0 1-.49-.117 10.608 10.608 0 0 1-.574-.176l-.047-1.063c.18.063.361.121.544.176a6.133 6.133 0 0 0 1.03.216c.145.018.291.028.438.03.214 0 .427-.021.637-.065.176-.032.34-.108.48-.222a.55.55 0 0 0 .18-.438.507.507 0 0 0-.058-.24.659.659 0 0 0-.164-.197 1.261 1.261 0 0 0-.246-.158 3.286 3.286 0 0 0-.292-.129 9.325 9.325 0 0 1-.24-.075 7.063 7.063 0 0 0-.526-.158 3.034 3.034 0 0 1-.532-.187 2.628 2.628 0 0 1-.444-.228 1.55 1.55 0 0 1-.362-.315 1.356 1.356 0 0 1-.24-.432 1.742 1.742 0 0 1-.088-.578 1.705 1.705 0 0 1 .176-.794c.117-.226.29-.42.502-.56.24-.157.505-.27.784-.333a4.19 4.19 0 0 1 .993-.111c.148 0 .298.006.45.017.152.012.302.031.45.059a3.525 3.525 0 0 1 .888.286l-.092 1.028a2.447 2.447 0 0 0-.345-.14 5.644 5.644 0 0 0-.369-.106 4.453 4.453 0 0 0-.707-.117 3.898 3.898 0 0 0-.286-.011 2.467 2.467 0 0 0-.503.046c-.133.026-.26.071-.38.135a.603.603 0 0 0-.234.216.56.56 0 0 0-.076.292c-.002.1.024.2.076.286.05.081.116.153.193.21.084.062.174.115.269.158.099.048.2.091.304.128.109.039.224.074.345.105.12.031.242.068.362.111.121.043.24.084.357.123.175.06.345.134.509.221.157.084.299.192.42.322.123.13.22.283.287.45Zm5.065-3.62 1.333-.199-.012 6.107h-1.04l-.186-.759-.089.082a3.286 3.286 0 0 1-.602.431c-.208.117-.43.207-.66.27a2.836 2.836 0 0 1-.743.093 2.31 2.31 0 0 1-1.116-.252 1.589 1.589 0 0 1-.696-.759c-.156-.338-.234-.772-.234-1.301V29.09l1.333-.199v3.667c-.008.26.036.52.128.764a.908.908 0 0 0 .398.462c.217.11.458.162.701.152.147 0 .294-.014.439-.041a3.055 3.055 0 0 0 .83-.286c.07-.037.142-.076.216-.119v-4.4Zm7.31.158a2.522 2.522 0 0 0-1.392-.368c-.296.001-.59.04-.877.117a3.81 3.81 0 0 0-.877.356c-.05.028-.101.06-.152.092v-.553l-1.332.21v8.338h1.332v-2.624c.213.09.434.156.661.2.28.053.564.078.848.076a2.964 2.964 0 0 0 1.508-.385 2.76 2.76 0 0 0 1.058-1.121c.261-.49.392-1.086.392-1.787a3.669 3.669 0 0 0-.298-1.524 2.332 2.332 0 0 0-.871-1.027Zm-.421 3.876a1.533 1.533 0 0 1-.655.713c-.325.168-.687.25-1.052.239-.168 0-.336-.012-.503-.035a3.05 3.05 0 0 1-.514-.123 7.626 7.626 0 0 1-.152-.051v-3.621l.011-.005a5.66 5.66 0 0 1 .462-.188 2.69 2.69 0 0 1 .415-.11c.128-.023.257-.035.386-.035a2.08 2.08 0 0 1 1.011.222 1.4 1.4 0 0 1 .608.677c.148.367.218.76.205 1.156.012.399-.064.795-.222 1.161Zm6.672-.863c.23-.068.447-.179.637-.327.162-.13.292-.296.38-.485.086-.19.13-.398.128-.607a1.718 1.718 0 0 0-.158-.712 1.838 1.838 0 0 0-.467-.625 2.237 2.237 0 0 0-.778-.432 3.416 3.416 0 0 0-1.087-.157c-.64 0-1.181.134-1.625.402a2.54 2.54 0 0 0-1.006 1.133 3.994 3.994 0 0 0-.339 1.699c0 .646.119 1.191.357 1.635.238.444.613.8 1.07 1.016.475.233 1.06.35 1.753.35a5.19 5.19 0 0 0 .772-.053 3.6 3.6 0 0 0 .667-.163c.21-.074.425-.161.643-.263l.082-.968a7.718 7.718 0 0 1-.93.297 4.403 4.403 0 0 1-1.081.123 3.222 3.222 0 0 1-.866-.105 1.334 1.334 0 0 1-.988-.981 2.834 2.834 0 0 1-.097-.512l2.032-.107c.306-.017.608-.07.9-.158Zm-3.052-.602c.015-.285.072-.566.168-.834.096-.284.28-.529.526-.701.254-.158.549-.238.848-.227.242-.01.483.04.701.146.164.083.302.21.398.368a.88.88 0 0 1 .128.443.658.658 0 0 1-.087.345.606.606 0 0 1-.293.233 1.714 1.714 0 0 1-.544.111l-1.845.116Zm8.532-2.74-.164 1.204a3.4 3.4 0 0 0-.45.006c-.136.01-.271.031-.404.064-.125.031-.248.07-.368.117a2.377 2.377 0 0 0-.356.175 8.947 8.947 0 0 0-.258.163v4.344h-1.333v-5.909l1.333-.198v.938l.065-.074c.161-.182.344-.344.543-.484.194-.136.41-.237.637-.298.246-.064.502-.08.755-.047Z"/><path fill-rule="evenodd" d="M23.913 5C18.289 5 13.7 9.584 13.7 15.2c0 5.606 4.589 10.2 10.213 10.2 5.612 0 10.212-4.594 10.212-10.2 0-5.616-4.6-10.2-10.212-10.2Zm-8.21 10.2c0 4.528 3.709 8.276 8.21 8.276 4.544 0 8.21-3.748 8.21-8.276 0-4.583-3.665-8.276-8.21-8.276-4.502 0-8.21 3.693-8.21 8.276Zm6.405.033a1.55 1.55 0 0 1-1.574 1.566 1.57 1.57 0 0 1-1.568-1.566 1.565 1.565 0 0 1 1.568-1.566 1.555 1.555 0 0 1 1.574 1.566Zm7.142-.726-1.034.824c-.078.055-.078.11-.055.198l.34 1.264c.023.067-.01.077-.054.044l-1.112-.725a.165.165 0 0 0-.198 0l-1.123.737c-.044.032-.077.01-.055-.055l.341-1.264a.168.168 0 0 0-.044-.198l-1.045-.847c-.033-.032-.033-.076.022-.076l1.31-.055a.132.132 0 0 0 .132-.1l.506-1.263c.033-.077.077-.067.1 0l.44 1.22a.182.182 0 0 0 .198.143l1.298.055c.077 0 .088.054.033.098Z" clip-rule="evenodd"/></svg>