<svg xmlns="http://www.w3.org/2000/svg" viewBox="0 0 66 16"><path fill="#fff" d="M0 15V1.001h4.593V15H0ZM10.843 3.23 13.484 15H8.457L5.303 1.001h2.82a2.655 2.655 0 0 1 1.764.641c.491.404.829.964.956 1.587ZM14.174 15V1.001h4.594V15h-4.594Zm8.063-8.675a2.737 2.737 0 0 1-1.409-.375 2.778 2.778 0 0 1-1.015-1.015 2.735 2.735 0 0 1-.375-1.41 2.685 2.685 0 0 1 .375-1.4 2.812 2.812 0 0 1 3.824-1.005c.415.244.761.59 1.005 1.005.251.424.38.908.375 1.4.005.495-.125.982-.375 1.41a2.8 2.8 0 0 1-1.005 1.015c-.424.251-.908.38-1.4.375ZM25.727 15V1.001h4.594V15h-4.594Zm10.409-6.349c.013.014.111.175.296.483.184.309.424.703.72 1.183a377.481 377.481 0 0 1 1.862 3.056c.289.48.617 1.023.986 1.627h-5.047l-.858-1.39c-.256-.414-.529-.861-.817-1.34-.29-.48-.576-.947-.858-1.4a71.104 71.104 0 0 1-.73-1.193 21.1 21.1 0 0 0-.424-.69A2.04 2.04 0 0 1 30.932 8c.019-.338.128-.665.315-.947.078-.131.223-.365.433-.7a216.97 216.97 0 0 0 1.598-2.603l.817-1.35.858-1.4H40l-3.904 6.368c-.12.19-.189.407-.197.632.013.235.095.461.236.65h.001Z"/><path fill="#FB84C1" d="M54.853 2.814a3.513 3.513 0 0 0-.918-.957 4.413 4.413 0 0 0-1.333-.63A6.326 6.326 0 0 0 50.824 1h-5.49v14h2.073V9.972h3.576a4.669 4.669 0 0 0 2.31-.572 4.271 4.271 0 0 0 1.63-1.598c.416-.74.624-1.577.602-2.425a5.762 5.762 0 0 0-.157-1.36 3.916 3.916 0 0 0-.515-1.203Zm-1.836 4.25a2.33 2.33 0 0 1-1.116.916 4.609 4.609 0 0 1-1.748.296h-2.746v-5.56h3.022a3.77 3.77 0 0 1 1.68.324c.419.203.761.534.977.947.228.462.34.973.326 1.488a2.911 2.911 0 0 1-.395 1.588ZM59.549 13.304c.312-.268.634-.547.973-.848.474-.42.952-.877 1.432-1.37.481-.494.939-1.006 1.373-1.538.422-.515.808-1.059 1.156-1.627.324-.528.589-1.09.79-1.676a5.22 5.22 0 0 0 .286-1.676 3.633 3.633 0 0 0-.316-1.547 3.345 3.345 0 0 0-.928-1.184 4.238 4.238 0 0 0-1.531-.769A7.571 7.571 0 0 0 60.68.803c-.46-.001-.92.038-1.372.118a7.154 7.154 0 0 0-1.265.346c-.39.146-.77.32-1.135.522l.256 1.715c.313-.209.648-.384.998-.522.38-.153.774-.272 1.175-.355.41-.086.826-.128 1.245-.128a4.19 4.19 0 0 1 1.293.177c.334.102.641.277.9.513.231.216.41.482.523.779.114.312.171.643.167.976a4.362 4.362 0 0 1-.335 1.626 8.652 8.652 0 0 1-.949 1.716 18.327 18.327 0 0 1-1.441 1.794 31.404 31.404 0 0 1-1.808 1.834c-.651.611-1.326 1.232-2.024 1.864L57.164 15h8.553l.237-1.696H59.55Z"/></svg>