<svg xmlns="http://www.w3.org/2000/svg" viewBox="0 0 89 35"><path fill="#fff" d="M3.333 3.333h28v28h-28z"/><path fill="#000" fill-rule="evenodd" d="M0 0h34.667v34.667H0V0Zm11.196 15.407H8v11.61h3.196v-11.61Zm4.051 0H11.66s2.039 3.343 2.062 3.384c.156.266.165.428.013.684l-2.075 3.397h3.588s1.73-2.826 1.967-3.218c.235-.393.225-.637-.01-1.04-.238-.406-.253-.43-1.658-2.72l-.299-.487Zm10.05 0s1.068 1.718 1.189 1.924c.234.404.245.648.009 1.042l-1.576 2.61c.258.422.603.974.906 1.46.311.497.577.924.66 1.066.235.404.246.649.01 1.042l-.256.43c-.32.536-.84 1.41-1.224 2.036h-3.279l1.796-2.946-1.862-3.121 1.67-2.733h-4.046l-1.677-2.81h7.68Zm-6.2 5.962c-.505.825-1.35 2.206-1.509 2.476-.225.389-.236.624-.009 1.004.159.262 1.01 1.655 1.518 2.484.508-.83 1.36-2.222 1.519-2.484.227-.38.216-.615-.01-1.004-.158-.27-1.003-1.651-1.509-2.476ZM8 7.156v6.531h2.144v-6.53H8Zm6.293 6.531L13.06 8.196a1.292 1.292 0 0 0-.446-.74 1.239 1.239 0 0 0-.823-.3h-1.316l1.472 6.531h2.346Zm.322-6.53v6.53h2.143v-6.53h-2.143Zm3.105 2.308c.2.117.426.177.657.175.23.003.456-.058.654-.175a1.307 1.307 0 0 0 .644-1.131 1.255 1.255 0 0 0-.175-.654 1.323 1.323 0 0 0-.47-.469 1.258 1.258 0 0 0-.653-.174 1.313 1.313 0 0 0-1.132.644 1.254 1.254 0 0 0-.174.653 1.296 1.296 0 0 0 .649 1.131Zm2.286-2.309v6.531h2.144v-6.53h-2.144ZM25 10.951a5.197 5.197 0 0 0-.138-.226.56.56 0 0 1-.11-.303.588.588 0 0 1 .092-.295l1.822-2.971H24.31a313.335 313.335 0 0 0-.781 1.283 105.098 105.098 0 0 1-.948 1.541.893.893 0 0 0-.147.442.951.951 0 0 0 .156.46c.037.055.103.162.198.322.095.159.208.344.34.556.132.212.266.43.4.653.135.224.262.433.382.626l.4.648h2.356a136.34 136.34 0 0 1-.46-.758 183.366 183.366 0 0 0-.87-1.426c-.138-.224-.25-.408-.335-.552Z" clip-rule="evenodd"/><path fill="#000" d="M52.053 18.796a6.646 6.646 0 0 1-.207 1.745 3.187 3.187 0 0 1-.64 1.262 2.68 2.68 0 0 1-1.134.759 4.917 4.917 0 0 1-1.686.256 5.047 5.047 0 0 1-1.952-.345 2.47 2.47 0 0 1-1.261-1.163 4.769 4.769 0 0 1-.434-2.218v-8.753h-2.07v9.09c-.022.817.129 1.63.444 2.385a4.066 4.066 0 0 0 1.222 1.587c.537.41 1.15.708 1.804.878.707.186 1.437.28 2.168.275a6.486 6.486 0 0 0 3.174-.69 4.33 4.33 0 0 0 1.844-1.932 6.63 6.63 0 0 0 .6-2.917V10.34h-1.872v8.456ZM60.984 14.213c-.369.099-.721.252-1.045.454-.337.21-.647.457-.927.739-.046.046-.092.098-.138.147v-1.468l-2.01.295v9.956h2.01v-7.448a5.177 5.177 0 0 1 1.075-.576c.203-.078.41-.147.62-.207a4.226 4.226 0 0 1 1.38-.148l.237-1.852c-.404-.03-.81.007-1.202.108ZM72.477 13.828l-1.104 1.165a4.56 4.56 0 0 0-.453-.297 5.392 5.392 0 0 0-2.681-.63 5.389 5.389 0 0 0-2.691.65 4.547 4.547 0 0 0-1.794 1.833 5.792 5.792 0 0 0-.641 2.8 5.961 5.961 0 0 0 .611 2.789c.113.214.243.42.389.614l-1.099 1.17.907.828 1.052-1.136c.151.113.31.216.475.308a5.347 5.347 0 0 0 2.613.611 5.493 5.493 0 0 0 2.71-.65 4.675 4.675 0 0 0 1.844-1.853c.464-.873.694-1.851.67-2.84a5.635 5.635 0 0 0-.621-2.71 4.615 4.615 0 0 0-.4-.613l1.14-1.21-.927-.829Zm-6.88 3.411a2.62 2.62 0 0 1 1.055-1.183 3.147 3.147 0 0 1 1.606-.394c.447-.01.89.074 1.302.246.221.1.426.234.606.397l-4.587 4.954a5.103 5.103 0 0 1-.357-2.029 4.64 4.64 0 0 1 .375-1.99Zm5.205 4.061c-.226.51-.6.94-1.075 1.232a3.01 3.01 0 0 1-1.567.405 2.852 2.852 0 0 1-1.548-.414 2.414 2.414 0 0 1-.366-.29l4.589-4.954c.068.157.126.318.174.483.13.478.192.972.187 1.468a4.81 4.81 0 0 1-.394 2.071V21.3ZM79.929 14.213c-.369.099-.721.252-1.045.454-.336.21-.647.457-.927.739-.046.046-.092.098-.138.147v-1.468l-2.01.295v9.956h2.01v-7.448a5.177 5.177 0 0 1 1.075-.576 6.91 6.91 0 0 1 .62-.207 4.237 4.237 0 0 1 1.38-.148l.237-1.852c-.404-.03-.81.007-1.202.108ZM88.485 22.69c-.092.02-.194.04-.306.059l-.335.06c-.107.018-.216.031-.325.039-.105.007-.204.01-.296.01a1.985 1.985 0 0 1-.877-.178 1.27 1.27 0 0 1-.562-.522 1.661 1.661 0 0 1-.197-.838V15.86h2.78l.217-1.577h-2.997v-3.115l-2.011.71v2.405h-1.518l-.217 1.577h1.735v5.875c-.009.392.051.782.177 1.153.102.294.26.565.464.799.188.208.416.375.67.492.261.12.536.206.818.257.28.051.564.078.848.079.21 0 .417-.007.621-.02.205-.013.39-.033.562-.06a8.8 8.8 0 0 0 .867-.177l.119-1.636c-.077.03-.156.053-.237.07Z"/></svg>