<svg xmlns="http://www.w3.org/2000/svg" viewBox="0 0 91 14"><path fill="#fff" d="M0 12.997v-12h3.937v12H0Zm9.294-10.09 2.264 10.09H7.25l-2.704-12h2.417a2.276 2.276 0 0 1 1.513.55c.42.346.71.827.819 1.36Zm2.855 10.09v-12h3.938v12h-3.938Zm6.912-7.436a2.381 2.381 0 0 1-2.4-2.4 2.301 2.301 0 0 1 .321-1.2A2.41 2.41 0 0 1 20.26 1.1c.356.21.653.506.862.862.215.363.326.778.321 1.2a2.35 2.35 0 0 1-.321 1.208 2.4 2.4 0 0 1-.862.87 2.302 2.302 0 0 1-1.2.322Zm2.99 7.436v-12h3.938v12h-3.937Zm8.923-5.442c.01.012.095.15.253.414s.364.603.617 1.014a315.218 315.218 0 0 1 1.597 2.62c.247.411.529.876.845 1.394H29.96c-.27-.44-.516-.837-.736-1.192-.22-.354-.453-.738-.7-1.149-.248-.41-.493-.81-.736-1.2-.242-.389-.45-.73-.625-1.022-.175-.293-.296-.49-.363-.592a1.747 1.747 0 0 1-.287-.845c.016-.29.11-.57.27-.811.067-.113.191-.313.371-.6s.392-.628.634-1.022c.242-.395.488-.798.736-1.209l.7-1.157.736-1.2h4.326L30.94 6.456a1.08 1.08 0 0 0-.17.541c.012.202.082.396.203.558Z"/><path fill="#9FDAF5" d="M48.404 1.05h-9.547v1.486h3.89v10.502h1.783V2.536h3.873V1.051ZM51.886 4.368a3.366 3.366 0 0 0-.9.389 4.44 4.44 0 0 0-.799.633c-.04.04-.079.084-.119.126V4.26l-1.732.253v8.526h1.732V6.66a4.385 4.385 0 0 1 .925-.493c.177-.068.355-.127.536-.177a3.63 3.63 0 0 1 1.19-.127l.203-1.587a3.26 3.26 0 0 0-1.036.092ZM61.636 11.974a.777.777 0 0 1-.662-.27 1.446 1.446 0 0 1-.187-.895l.034-3.478a4.038 4.038 0 0 0-.136-1.08c-.082-.31-.22-.601-.407-.861a2.297 2.297 0 0 0-.705-.625 3.61 3.61 0 0 0-1.028-.388 6.098 6.098 0 0 0-1.342-.135 8.45 8.45 0 0 0-1.07.067 7.382 7.382 0 0 0-.994.194c-.303.082-.6.18-.892.296l-.204 1.435a10.033 10.033 0 0 1 1.546-.422c.233-.045.468-.076.705-.093.232-.017.462-.025.688-.025.347-.008.693.032 1.028.118.245.06.47.183.654.354.164.167.28.374.34.6.072.278.107.565.102.853l-.002.422-1.986.133a5.307 5.307 0 0 0-1.97.44 2.82 2.82 0 0 0-1.164.936 2.174 2.174 0 0 0-.382 1.241c-.003.416.099.825.297 1.19.208.376.52.684.9.887.464.24.982.356 1.504.338.489.01.976-.07 1.435-.237.397-.154.76-.383 1.07-.675a4.61 4.61 0 0 0 .334-.354c.033.175.095.343.184.498.152.258.384.46.663.573.307.123.637.184.968.178.102 0 .201-.003.297-.009a1.53 1.53 0 0 0 .28-.042l.247-.059c.066-.015.132-.035.195-.059l.187-1.131c-.094.032-.19.054-.289.067a1.891 1.891 0 0 1-.238.018ZM59.09 10.95a2.26 2.26 0 0 1-.283.265c-.184.145-.383.27-.594.372-.21.102-.433.175-.662.22-.238.045-.48.068-.722.067a1.928 1.928 0 0 1-.807-.152 1.104 1.104 0 0 1-.501-.43 1.254 1.254 0 0 1-.17-.667c-.017-.282.061-.56.22-.794a1.3 1.3 0 0 1 .714-.422c.434-.102.88-.147 1.325-.135h1.487l-.007 1.676ZM68.032.426a5.566 5.566 0 0 0-1.113-.101 3.441 3.441 0 0 0-1.087.169c-.333.109-.638.29-.892.531a2.474 2.474 0 0 0-.594.904c-.15.41-.222.846-.212 1.283v1.216h-1.275v1.316h1.275v7.294h1.732V5.744h2.378V4.428h-2.378V3.026a1.573 1.573 0 0 1 .094-.565c.055-.154.145-.292.263-.406.123-.112.272-.193.433-.236.19-.053.388-.078.586-.076.136 0 .266.006.39.017.126.01.247.028.366.05l.34.068c.096.02.19.047.28.085L68.55.56a4.11 4.11 0 0 0-.518-.135ZM69.925 13.038h1.733v-8.78l-1.733.254v8.526ZM71.412.721a1.106 1.106 0 0 0-.586-.16 1.147 1.147 0 0 0-.595.16 1.245 1.245 0 0 0-.433.422 1.086 1.086 0 0 0-.161.583 1.15 1.15 0 0 0 .595 1.013c.18.101.386.154.594.152.205.002.408-.05.586-.152.175-.1.319-.246.416-.422a1.18 1.18 0 0 0 .153-.591 1.136 1.136 0 0 0-.153-.583 1.198 1.198 0 0 0-.416-.422ZM81.697 4.427h-2.123l-2.907 3.175h-.626V.29l-1.733.253v12.494h1.733V8.902h.028l3.47 4.136h2.243l-4.12-4.615 4.035-3.996ZM86.58 8.379l4.035-3.996h-2.123l-2.907 3.174h-.626V.247L83.226.5v12.494h1.733V8.857h.028l3.47 4.137H90.7l-4.12-4.615Z"/></svg>