<svg xmlns="http://www.w3.org/2000/svg" viewBox="0 0 301 68"><path fill="#fff" d="M0 55V13.004h13.78V55H0Zm32.528-35.312L40.453 55h-15.08l-9.464-41.996h8.459a7.965 7.965 0 0 1 5.293 1.922 8.31 8.31 0 0 1 2.867 4.762ZM42.523 55V13.004h13.78V55h-13.78Zm24.189-26.026a8.213 8.213 0 0 1-4.228-1.124 8.336 8.336 0 0 1-3.046-3.046 8.206 8.206 0 0 1-1.125-4.229 8.056 8.056 0 0 1 1.125-4.2 8.437 8.437 0 0 1 3.046-3.016 8.233 8.233 0 0 1 4.228-1.124 8.083 8.083 0 0 1 4.199 1.124 8.504 8.504 0 0 1 3.016 3.016 8.075 8.075 0 0 1 1.125 4.2 8.226 8.226 0 0 1-1.125 4.23 8.4 8.4 0 0 1-3.016 3.045 8.059 8.059 0 0 1-4.201 1.124h.002ZM77.18 55V13.004h13.781V55H77.181Zm31.227-19.046c.039.04.334.524.887 1.449.553.925 1.272 2.108 2.159 3.549a1143.28 1143.28 0 0 1 5.589 9.168A854.89 854.89 0 0 0 120 55h-15.141c-.947-1.538-1.804-2.928-2.573-4.17a382.214 382.214 0 0 1-2.453-4.022 351.934 351.934 0 0 0-2.574-4.2 213.445 213.445 0 0 1-2.188-3.578 62.753 62.753 0 0 0-1.272-2.07 6.119 6.119 0 0 1-1.005-2.958 5.744 5.744 0 0 1 .946-2.84c.236-.394.67-1.095 1.3-2.1.632-1.006 1.371-2.198 2.219-3.579a636.03 636.03 0 0 0 2.574-4.229c.869-1.439 1.686-2.79 2.453-4.052.77-1.26 1.628-2.66 2.573-4.2H120l-11.711 19.106a3.773 3.773 0 0 0-.592 1.894c.039.706.286 1.385.709 1.952h.002ZM161.518 35.31a11.156 11.156 0 0 0-2.93-2.169 22.692 22.692 0 0 0-3.546-1.455 39.889 39.889 0 0 0-3.867-1.012 82.353 82.353 0 0 1-2.842-.712 12.97 12.97 0 0 1-2.345-.862 7.754 7.754 0 0 1-1.786-1.189 4.287 4.287 0 0 1-1.144-1.663 6.493 6.493 0 0 1-.38-2.348 7.226 7.226 0 0 1 .38-2.436 4.552 4.552 0 0 1 1.172-1.813 7.239 7.239 0 0 1 1.847-1.247 8.604 8.604 0 0 1 2.431-.713c1-.144 2.009-.214 3.019-.208.92.002 1.839.051 2.753.148.926.098 1.846.247 2.756.446a22.29 22.29 0 0 1 2.607.743c.799.279 1.574.627 2.315 1.04l.82-5.23a14.476 14.476 0 0 0-2.607-1.069 34.717 34.717 0 0 0-2.784-.714 27.467 27.467 0 0 0-2.871-.445 29.6 29.6 0 0 0-2.989-.148 24.62 24.62 0 0 0-6.153.712 13.829 13.829 0 0 0-4.775 2.2 9.889 9.889 0 0 0-3.106 3.742 12.255 12.255 0 0 0-1.084 5.348 11.657 11.657 0 0 0 .674 4.189 8.596 8.596 0 0 0 1.904 3.002 11.341 11.341 0 0 0 2.813 2.08c1.1.575 2.247 1.052 3.429 1.427 1.23.396 2.49.733 3.779 1.01 1.055.237 2.032.485 2.93.743a14.5 14.5 0 0 1 2.431.921 7.583 7.583 0 0 1 1.847 1.248 5.02 5.02 0 0 1 1.201 1.783 6.73 6.73 0 0 1 .44 2.555 8.392 8.392 0 0 1-.41 2.734 6.38 6.38 0 0 1-1.172 2.08 5.653 5.653 0 0 1-1.875 1.425 9.362 9.362 0 0 1-2.55.773 20.024 20.024 0 0 1-3.251.238 25.147 25.147 0 0 1-3.164-.208 37.734 37.734 0 0 1-3.283-.566 32.588 32.588 0 0 1-3.193-.861 59.775 59.775 0 0 1-2.959-1.04l.762 5.884a31.57 31.57 0 0 0 3.047.98c.936.249 1.884.447 2.841.594.918.138 1.837.247 2.755.327.919.08 1.847.12 2.783.118a28.428 28.428 0 0 0 6.242-.653 14.827 14.827 0 0 0 5.097-2.14 10.023 10.023 0 0 0 3.4-3.892 13.329 13.329 0 0 0 1.2-5.972 13.573 13.573 0 0 0-.673-4.517 8.812 8.812 0 0 0-1.936-3.207ZM196.589 51.296a2.642 2.642 0 0 1-1.258-.191 2.677 2.677 0 0 1-1.028-.76 5.175 5.175 0 0 1-.644-3.15l.117-12.241a14.473 14.473 0 0 0-.469-3.803 9.362 9.362 0 0 0-1.407-3.032 7.99 7.99 0 0 0-2.43-2.199 12.367 12.367 0 0 0-3.546-1.365 20.569 20.569 0 0 0-4.629-.476 28.575 28.575 0 0 0-3.693.237 25.19 25.19 0 0 0-3.428.684 28.199 28.199 0 0 0-3.077 1.04l-.703 5.051a35.08 35.08 0 0 1 2.784-.891 34.986 34.986 0 0 1 2.549-.594 21.192 21.192 0 0 1 2.433-.326c.799-.06 1.59-.09 2.372-.09a12.946 12.946 0 0 1 3.545.416 5.1 5.1 0 0 1 2.258 1.249 4.72 4.72 0 0 1 1.171 2.11c.25.979.369 1.988.352 3l-.007 1.49-6.848.471a18 18 0 0 0-6.798 1.544 9.782 9.782 0 0 0-4.015 3.298 7.753 7.753 0 0 0-1.318 4.368 8.791 8.791 0 0 0 1.026 4.19 7.765 7.765 0 0 0 3.105 3.12 10.323 10.323 0 0 0 5.186 1.188c1.687.04 3.367-.243 4.952-.831a11.397 11.397 0 0 0 3.692-2.377c.406-.394.791-.81 1.153-1.245.114.616.328 1.207.635 1.751a4.746 4.746 0 0 0 2.284 2.02 8.45 8.45 0 0 0 3.341.625c.352 0 .693-.011 1.025-.03.326-.02.65-.07.967-.15.312-.079.596-.147.85-.208.229-.051.455-.12.673-.208l.645-3.98a5.128 5.128 0 0 1-.995.238 6.677 6.677 0 0 1-.822.057Zm-9.757-2.674c-.636.51-1.323.948-2.051 1.308a9.186 9.186 0 0 1-2.286.773c-.82.16-1.654.239-2.49.236a6.513 6.513 0 0 1-2.783-.535 3.842 3.842 0 0 1-1.73-1.514 4.497 4.497 0 0 1-.585-2.347 4.545 4.545 0 0 1 .762-2.794 4.466 4.466 0 0 1 2.461-1.486 17.627 17.627 0 0 1 4.57-.474h5.132l-.026 5.898a7.973 7.973 0 0 1-.974.935ZM190.553 9.936h-6.328l-4.981 10.637h4.572l6.737-10.637ZM226.504 25.951a12.461 12.461 0 0 0-7.003-1.872 17.651 17.651 0 0 0-4.336.564 18.68 18.68 0 0 0-4.395 1.754c-.276.151-.548.32-.822.49v-2.748l-5.976.95v42.429h5.976V54.214c.04.016.078.035.119.053a15.27 15.27 0 0 0 3.369.98 23.89 23.89 0 0 0 4.131.327c2.638.047 5.24-.631 7.529-1.962a14.024 14.024 0 0 0 5.274-5.674 19.211 19.211 0 0 0 1.962-9.062 18.678 18.678 0 0 0-1.493-7.725 11.893 11.893 0 0 0-4.335-5.2Zm-1.553 19.878a8.136 8.136 0 0 1-3.37 3.742 10.704 10.704 0 0 1-5.361 1.25 16.473 16.473 0 0 1-5.392-.891 56.271 56.271 0 0 1-.879-.322V30.855c.078-.037.158-.085.236-.12a35.52 35.52 0 0 1 2.402-1.011 11.89 11.89 0 0 1 4.16-.773c1.807-.06 3.6.337 5.216 1.159a7.093 7.093 0 0 1 3.134 3.535 15.403 15.403 0 0 1 1.027 6.06 14.357 14.357 0 0 1-1.173 6.124ZM280.092 25.327a10.09 10.09 0 0 0-5.216-1.248 13.55 13.55 0 0 0-4.629.802 16.274 16.274 0 0 0-4.22 2.287 21.525 21.525 0 0 0-2.079 1.783 7.413 7.413 0 0 0-3.019-3.566 10.223 10.223 0 0 0-5.274-1.247c-1.567 0-3.122.272-4.6.802a16.58 16.58 0 0 0-4.248 2.259c-.421.307-.829.64-1.231.99v-4.047l-5.977.892v30.01h5.977v-22.61a18.73 18.73 0 0 1 2.198-1.256 14.955 14.955 0 0 1 2.9-1.041 11.94 11.94 0 0 1 2.813-.356 6.383 6.383 0 0 1 2.549.446 4.554 4.554 0 0 1 1.729 1.306c.509.663.86 1.436 1.025 2.26.229 1.063.337 2.149.323 3.237v18.007h5.977V35.782a24.287 24.287 0 0 0-.227-3.398 22.11 22.11 0 0 1 2.102-1.236 13.225 13.225 0 0 1 2.872-1.07 12.059 12.059 0 0 1 2.871-.357 6.456 6.456 0 0 1 2.52.446 4.48 4.48 0 0 1 1.758 1.308c.509.661.86 1.435 1.025 2.258.229 1.063.337 2.15.322 3.238v18.066h5.978V35.724a17.49 17.49 0 0 0-1.055-6.597 7.63 7.63 0 0 0-3.164-3.8ZM293.159 55.04h5.977V24.139l-5.977.891v30.01ZM299.722 13.174a4.167 4.167 0 0 0-1.435-1.486 3.756 3.756 0 0 0-2.022-.564 3.898 3.898 0 0 0-2.051.564 4.32 4.32 0 0 0-1.494 1.486 3.891 3.891 0 0 0-.557 2.05 4.036 4.036 0 0 0 .557 2.08 4.06 4.06 0 0 0 3.545 2.02 3.906 3.906 0 0 0 2.022-.534 3.847 3.847 0 0 0 1.435-1.485 4.207 4.207 0 0 0 .528-2.08 4.063 4.063 0 0 0-.528-2.051Z"/></svg>