<svg xmlns="http://www.w3.org/2000/svg" style="width:9.8em;height:1.8em" viewBox="0 0 98 18">
    <path fill="currentColor" d="M85.395608 8.6610956c.052744-1.0197176.369208-1.881203 1.459251-1.881203.9493923 0 1.2658564.6680907 1.2834377 1.881203H85.395608zm1.5999018 5.5557028c1.5295764 0 2.6723633-.369208 3.481105-.8966482l-.4922776-1.7405525c-.931811.4043708-1.775715.5626028-2.49655.5626028-1.4416697 0-2.0570165-.7559975-2.1097605-1.881203h5.1337506c.052744-.3164642.0703254-.8966484.0703254-1.248275 0-2.7426888-1.195531-4.149196-3.6569183-4.149196-2.5844567 0-4.219521 1.70539-4.219521 4.7469614 0 3.182222 1.722971 4.6063104 4.2898464 4.6063104zM50.7779538 17.52209c1.9515284 0 2.865758-1.1779497 3.6569182-3.5690117l2.3558993-7.2435112.7208348-.210976V5.0745028H53.854688V6.445847l.7911602.26372-1.353763 4.8524494h-.0351627L51.9734847 6.709567l.8439042-.2461386V5.0745027h-4.412916v1.3889257l.7032536.26372 2.5317127 7.647882-.1406507.369208c-.2285574.5977656-.5801842.7559977-1.1603683.7559977-.562603 0-1.2131124-.2461387-1.511995-.3516267l-.509859 1.7932965c.509859.26372 1.3889258.580184 2.4613874.580184zm19.673517-8.8609944c.052744-1.0197176.369208-1.881203 1.459251-1.881203.9493923 0 1.2658564.6680907 1.2834377 1.881203h-2.7426887zm26.0379614 5.3447267v-1.353763l-1.4416697-.3516267V8.309469c.369208-.5274403.879067-.7911603 1.617483-.7911603.1933948 0 .6856723.0351626.9493924.0879066V4.9690148c-.2637202-.0703254-.4746963-.105488-.8087417-.105488-.9142296 0-1.6350644.7559975-2.0042725 1.511995h-.0351627l-.2461386-1.301019h-3.02399v1.3889257l.9142294.26372v5.6260282l-.9142295.2988827v1.353763h4.9931zm-16.3154815.210976c.6505095 0 1.7581338-.210976 2.391062-.5977654l-.4746962-1.6350645c-.2813014.105488-.6856722.2461387-1.0548803.2461387-.6856722 0-.8966482-.26372-.8966482-1.0724616V7.00845h1.9515285V5.0745026H80.138788V2.911998h-2.0570165l-.4746962 2.1625047h-1.2834376V7.00845h1.1779496v4.5008224c0 1.9163658.7559975 2.707526 2.6723634 2.707526zm-8.122578 0c1.5295763 0 2.6723632-.369208 3.4811048-.896648L75.0402 11.5795976c-.931811.4043708-1.775715.5626028-2.49655.5626028-1.4416697 0-2.0570165-.7559975-2.1097605-1.881203H75.56764c.052744-.3164642.0703255-.8966484.0703255-1.248275 0-2.7426888-1.195531-4.149196-3.6569183-4.149196-2.5844567 0-4.219521 1.70539-4.219521 4.7469614 0 3.182222 1.722971 4.6063104 4.2898464 4.6063104zm-4.7645427-.210976v-1.353763l-1.037299-.316464v-4.518404c0-1.9691097-.931811-2.9536647-2.602038-2.9536647-1.1076242 0-1.828459.369208-2.5317126 1.142787h-.0351627v-4.008545h-3.533849v1.3889257l.9493923.26372v8.685181l-.9493922.316464v1.353763h4.6590545v-1.353763l-1.0724616-.316464V7.641378c.2813014-.2461387.879067-.6505095 1.459251-.6505095.7032536 0 1.0197177.369208 1.0197177 1.3713444v5.6436093H67.28683zm-19.8669118 0V3.7031583l1.0197176-.2988827v-1.406507h-4.166777v1.406507l1.0197175.2988827v6.030399h-.0351627l-4.571148-7.7357887h-3.5162674v1.406507l1.0197176.2988827v8.5972743l-1.0197176.316464v1.3889257h4.1316144v-1.3889257l-1.0021363-.316464V6.6919858h.0351627l4.4129158 7.3138365h2.6723634zM31.0878023 8.5591802c-.2517074-.4264288-.2661333-.688617-.02338-1.1002956L34.399462 2h-4.6267395s-2.7797248 4.5420545-3.159773 5.1731625c-.3764004.6302792-.3601506 1.022733.0154207 1.670414C27.0084185 9.490429 29.7727225 14 29.7727225 14h4.6267395s-3.2751804-5.3735326-3.3116597-5.4408198M21.5941377 14h4.2077247V2h-4.2077247M18.9405537 1.7701087c-1.3163763 0-2.3817762 1.075399-2.3817762 2.4031076 0 1.3268753 1.0654 2.4056073 2.3817762 2.4056073 1.3185428 0 2.3884423-1.078732 2.3884423-2.4056073 0-1.3277086-1.0698995-2.4031076-2.3884423-2.4031076M12.0635332 14h4.2052375V2h-4.2052375M0 14h4.1974442V2H0M9.5087294 3.9279618C9.2933354 2.828329 8.331442 2 7.1785294 2h-2.70345L7.191629 14h4.569699L9.5087295 3.9279618z"/>
</svg>
