<svg xmlns="http://www.w3.org/2000/svg" viewBox="0 0 98 24"><path fill="#114F9D" d="M0 0h98v24H0z"/><path fill="#fff" d="M6.004 18V6h3.937V18H6.004Zm9.294-10.09L17.562 18h-4.309L10.55 6h2.416a2.276 2.276 0 0 1 1.513.55c.42.345.71.826.82 1.36ZM18.154 18V6h3.937V18h-3.937Zm6.91-7.436a2.382 2.382 0 0 1-2.4-2.4 2.303 2.303 0 0 1 .323-1.2 2.411 2.411 0 0 1 3.278-.862c.355.21.652.506.861.862.215.363.326.778.322 1.2.003.425-.108.842-.322 1.208a2.4 2.4 0 0 1-.861.87 2.301 2.301 0 0 1-1.2.322ZM28.057 18V6h3.937V18h-3.937Zm8.922-5.442c.011.012.096.15.253.414.158.264.364.603.617 1.014a309.436 309.436 0 0 1 1.597 2.62c.247.411.529.876.845 1.394h-4.326c-.27-.44-.516-.837-.735-1.192-.22-.355-.453-.738-.7-1.149-.249-.41-.494-.81-.737-1.2-.242-.389-.45-.73-.625-1.022a18.04 18.04 0 0 0-.363-.592 1.748 1.748 0 0 1-.287-.845c.017-.29.11-.57.27-.811.068-.113.192-.313.372-.6s.391-.628.633-1.022c.243-.395.488-.798.736-1.209l.7-1.157.736-1.2h4.326l-3.346 5.458a1.079 1.079 0 0 0-.17.541c.012.202.082.396.203.558h.001Z"/><path fill="#9FDAF5" d="M52.152 12.36a3.184 3.184 0 0 0-.837-.62 6.48 6.48 0 0 0-1.013-.416c-.358-.113-.726-.21-1.105-.289-.29-.068-.561-.135-.812-.203a3.7 3.7 0 0 1-.67-.247 2.209 2.209 0 0 1-.51-.34 1.223 1.223 0 0 1-.327-.474 1.853 1.853 0 0 1-.109-.671 2.068 2.068 0 0 1 .11-.696c.068-.198.183-.376.334-.518.157-.146.335-.266.528-.357.22-.101.454-.17.694-.203.286-.042.574-.061.863-.06a7.216 7.216 0 0 1 1.574.17c.252.056.5.126.745.212.228.08.45.18.66.297l.235-1.494a4.141 4.141 0 0 0-.745-.305 9.917 9.917 0 0 0-.795-.204 7.85 7.85 0 0 0-.82-.127 8.463 8.463 0 0 0-.854-.043 7.034 7.034 0 0 0-1.758.204c-.49.12-.953.333-1.364.628-.38.276-.685.643-.888 1.07a3.496 3.496 0 0 0-.31 1.528c-.01.407.056.813.193 1.196.12.322.305.614.544.858.236.239.507.44.803.594.315.165.643.3.98.408.352.113.712.21 1.08.289.301.067.58.138.837.212.239.067.471.155.695.263.192.092.37.212.528.357.149.142.266.316.342.509.09.232.132.48.126.73.005.265-.035.53-.117.781-.073.218-.187.42-.335.594a1.613 1.613 0 0 1-.536.408 2.675 2.675 0 0 1-.728.22 5.72 5.72 0 0 1-.929.068c-.302 0-.604-.02-.904-.059-.313-.04-.625-.093-.938-.162a9.294 9.294 0 0 1-.912-.246 17.007 17.007 0 0 1-.846-.297l.218 1.681c.285.108.576.202.87.28.268.071.54.128.812.17.263.04.525.07.788.093a9.1 9.1 0 0 0 .795.034 8.12 8.12 0 0 0 1.783-.186 4.239 4.239 0 0 0 1.456-.612c.415-.278.75-.661.972-1.112a3.805 3.805 0 0 0 .343-1.706 3.882 3.882 0 0 0-.193-1.29 2.515 2.515 0 0 0-.553-.917ZM62.173 16.927a.754.754 0 0 1-.654-.272 1.477 1.477 0 0 1-.183-.9l.033-3.497a4.135 4.135 0 0 0-.134-1.087 2.678 2.678 0 0 0-.402-.866 2.284 2.284 0 0 0-.695-.628 3.531 3.531 0 0 0-1.012-.39 5.88 5.88 0 0 0-1.323-.136c-.353 0-.705.022-1.055.068-.33.042-.658.107-.98.195a8.034 8.034 0 0 0-.879.297l-.2 1.443a10.062 10.062 0 0 1 1.523-.424 6.05 6.05 0 0 1 .695-.093c.229-.017.455-.026.678-.026.341-.007.682.033 1.013.119.241.061.463.184.645.357.161.168.277.375.334.603.072.28.106.568.101.857l-.002.426-1.957.134a5.142 5.142 0 0 0-1.942.441c-.459.204-.855.53-1.147.943a2.215 2.215 0 0 0-.377 1.248c-.003.417.098.83.294 1.197.204.378.512.687.887.89.457.242.967.359 1.481.34a3.81 3.81 0 0 0 1.415-.237c.392-.155.75-.386 1.055-.679.116-.113.226-.231.33-.356.032.176.093.345.18.5.15.26.38.463.654.578.303.123.627.184.954.178.1 0 .198-.003.293-.008.093-.006.186-.02.276-.043l.243-.06c.066-.014.13-.034.193-.059l.184-1.137a1.471 1.471 0 0 1-.285.068 1.9 1.9 0 0 1-.234.016Zm-2.788-.764a3.22 3.22 0 0 1-.586.374 2.627 2.627 0 0 1-.653.22 3.664 3.664 0 0 1-.712.068 1.861 1.861 0 0 1-.795-.153 1.096 1.096 0 0 1-.494-.432 1.283 1.283 0 0 1-.167-.67c-.017-.284.06-.565.218-.8.182-.215.429-.364.702-.424a5.041 5.041 0 0 1 1.306-.135h1.466l-.007 1.685a2.275 2.275 0 0 1-.278.267ZM60.448 5.11H58.64l-1.423 3.04h1.306l1.925-3.04ZM70.72 9.686a3.56 3.56 0 0 0-2.001-.535 5.045 5.045 0 0 0-1.24.16 5.34 5.34 0 0 0-1.49.642v-.785l-1.707.272v12.122h1.708v-3.801l.033.015c.31.13.633.224.963.28.39.065.785.097 1.18.093a4.136 4.136 0 0 0 2.151-.56 4.008 4.008 0 0 0 1.507-1.621 5.488 5.488 0 0 0 .56-2.59 5.342 5.342 0 0 0-.426-2.207 3.4 3.4 0 0 0-1.238-1.485Zm-.444 5.679c-.201.45-.538.825-.963 1.07-.472.25-1 .373-1.532.356a4.717 4.717 0 0 1-1.792-.346v-5.358c.023-.01.046-.024.068-.034a10.2 10.2 0 0 1 .686-.29 3.397 3.397 0 0 1 1.189-.22 3.061 3.061 0 0 1 1.49.33c.404.224.72.58.896 1.01.213.552.313 1.141.293 1.733a4.099 4.099 0 0 1-.335 1.749ZM86.03 9.507a2.882 2.882 0 0 0-1.49-.356 3.873 3.873 0 0 0-1.322.23 4.646 4.646 0 0 0-1.206.652 6.136 6.136 0 0 0-.594.51 2.12 2.12 0 0 0-.863-1.019 2.921 2.921 0 0 0-1.506-.356c-.448 0-.893.077-1.315.229a4.741 4.741 0 0 0-1.565.928V9.17l-1.708.255v8.574h1.708v-6.46c.201-.134.41-.254.628-.359a4.27 4.27 0 0 1 .829-.297c.262-.066.532-.1.803-.102.249-.008.497.036.728.127.192.083.362.21.494.374.146.189.246.41.293.645.066.304.097.614.093.925v5.145h1.707v-5.501c.001-.325-.02-.65-.064-.971.193-.13.394-.247.6-.353.261-.134.536-.236.82-.306.269-.067.544-.101.82-.102.247-.006.491.037.72.127.196.08.368.21.503.374.146.189.246.41.293.645.065.304.096.614.092.925v5.162h1.708v-5.518a4.993 4.993 0 0 0-.302-1.885 2.18 2.18 0 0 0-.904-1.086ZM89.764 17.997h1.708v-8.83l-1.708.256v8.574ZM91.64 6.035c-.1-.174-.241-.32-.411-.424a1.073 1.073 0 0 0-.578-.161 1.114 1.114 0 0 0-.586.16c-.174.104-.32.25-.427.425-.106.176-.16.38-.159.586-.001.21.054.415.16.594a1.16 1.16 0 0 0 1.013.577 1.099 1.099 0 0 0 .988-.577c.1-.181.152-.386.15-.594a1.159 1.159 0 0 0-.15-.586Z"/></svg>