<svg xmlns="http://www.w3.org/2000/svg" viewBox="0 0 46 24" fill="none"><path fill="#1767CE" d="M0 0h46v24H0z"/><path fill="#fff" d="M6 18V6h4v12H6ZM15.24 7.9 17.51 18H13.2L10.5 6h2.41c.56 0 1.1.19 1.51.55.43.35.66.83.82 1.36ZM18 18V6h4v12h-4Zm7.01-7.44a2.35 2.35 0 0 1-2.08-1.19 2.34 2.34 0 0 1-.32-1.2c0-.43.1-.84.32-1.2a2.41 2.41 0 0 1 4.14 0c.22.36.33.77.32 1.2a2.4 2.4 0 0 1-2.38 2.4ZM28 18V6h4v12h-4Zm8.97-5.44.26.41a92.26 92.26 0 0 0 1.42 2.32 320.8 320.8 0 0 1 1.64 2.7h-4.33a614.17 614.17 0 0 0-2.17-3.53 60.12 60.12 0 0 1-.99-1.62 1.75 1.75 0 0 1-.29-.84c.02-.29.11-.57.27-.81l.37-.6a127.07 127.07 0 0 0 2.07-3.4L35.96 6h4.33l-3.35 5.46c-.1.16-.16.35-.17.54.01.2.08.4.2.56Z"/></svg>