<svg xmlns="http://www.w3.org/2000/svg" viewBox="0 0 35 31" fill="currentColor"><path d="M0 13V1.003h3.937V13H0ZM9.294 2.912l2.264 10.09H7.25L4.545 1h2.417a2.276 2.276 0 0 1 1.513.55c.42.346.71.826.819 1.36Zm2.855 10.09V1h3.938v12h-3.938Zm6.912-7.436a2.382 2.382 0 0 1-2.4-2.4 2.301 2.301 0 0 1 .321-1.2 2.41 2.41 0 0 1 3.278-.862c.356.21.653.506.862.862.215.363.326.778.321 1.2a2.35 2.35 0 0 1-.321 1.208 2.4 2.4 0 0 1-.862.87 2.302 2.302 0 0 1-1.2.322ZM22.05 13V1h3.938v12h-3.937Zm8.923-5.442c.01.011.095.15.253.414s.364.602.617 1.014a315.274 315.274 0 0 1 1.597 2.62c.247.41.529.876.845 1.394H29.96c-.27-.44-.516-.837-.736-1.192-.22-.355-.453-.738-.7-1.149-.248-.41-.493-.81-.736-1.2-.242-.389-.45-.73-.625-1.022a17.98 17.98 0 0 0-.363-.592 1.747 1.747 0 0 1-.287-.845c.016-.29.11-.57.27-.811.067-.113.191-.313.371-.6a182.36 182.36 0 0 0 1.37-2.23l.7-1.159.736-1.2h4.326l-3.346 5.46a1.08 1.08 0 0 0-.17.54c.012.202.082.396.203.558ZM8.16 19.698a3.01 3.01 0 0 0-.787-.82 3.782 3.782 0 0 0-1.143-.54 5.423 5.423 0 0 0-1.523-.195H0v12h1.778v-4.31h3.064a4.002 4.002 0 0 0 1.98-.49 3.661 3.661 0 0 0 1.398-1.37 4.03 4.03 0 0 0 .516-2.078 4.94 4.94 0 0 0-.135-1.166 3.358 3.358 0 0 0-.44-1.03ZM6.586 23.34a1.997 1.997 0 0 1-.957.786 3.95 3.95 0 0 1-1.498.254H1.777v-4.766h2.591a3.23 3.23 0 0 1 1.44.278c.359.174.652.458.837.811.196.397.292.835.28 1.277.019.476-.099.948-.34 1.36ZM12.184 28.69c.269-.23.544-.469.835-.727.406-.36.816-.752 1.228-1.175.412-.423.804-.862 1.176-1.318.362-.441.693-.907.99-1.394a7.2 7.2 0 0 0 .678-1.437c.16-.462.243-.947.245-1.436a3.115 3.115 0 0 0-.27-1.327 2.868 2.868 0 0 0-.796-1.014 3.63 3.63 0 0 0-1.312-.66 6.488 6.488 0 0 0-1.803-.228 6.678 6.678 0 0 0-1.177.102c-.37.065-.732.164-1.084.296a7.31 7.31 0 0 0-.973.448l.22 1.47c.268-.18.555-.33.855-.448.326-.13.663-.233 1.007-.304.351-.073.708-.11 1.067-.11.375-.007.75.044 1.109.152.286.088.55.238.77.44.2.185.353.413.449.667.098.268.147.551.144.837a3.737 3.737 0 0 1-.288 1.394 7.421 7.421 0 0 1-.813 1.47c-.379.539-.792 1.052-1.236 1.539-.474.524-.99 1.047-1.549 1.571-.558.524-1.137 1.057-1.735 1.598l.22 1.047h7.33l.204-1.453h-5.49Z"/></svg>