<svg xmlns="http://www.w3.org/2000/svg" viewBox="0 0 255 24"><path fill="#0A2343" d="M0 19.003V5.005h4.593v13.998H0Zm10.843-11.77 2.641 11.77H8.457L5.303 5.005h2.82a2.655 2.655 0 0 1 1.764.64c.491.404.829.964.956 1.588Zm3.331 11.77V5.005h4.594v13.998h-4.594Zm8.063-8.675a2.736 2.736 0 0 1-1.409-.375 2.778 2.778 0 0 1-1.015-1.015 2.735 2.735 0 0 1-.375-1.41 2.685 2.685 0 0 1 .375-1.4 2.812 2.812 0 0 1 3.824-1.005c.415.244.761.59 1.005 1.005.251.424.38.908.375 1.4.005.495-.125.983-.375 1.41a2.8 2.8 0 0 1-1.005 1.015c-.424.251-.908.38-1.4.375Zm3.49 8.675V5.005h4.594v13.998h-4.594Zm10.409-6.348c.013.013.111.174.296.483.184.308.424.702.72 1.183a384.573 384.573 0 0 1 1.862 3.056c.289.48.617 1.022.986 1.626h-5.047l-.858-1.39c-.256-.414-.529-.86-.817-1.34-.29-.48-.576-.947-.858-1.4a71.148 71.148 0 0 1-.73-1.193 21.119 21.119 0 0 0-.424-.69 2.04 2.04 0 0 1-.334-.986c.019-.338.128-.665.315-.947.078-.131.223-.365.433-.7a216.7 216.7 0 0 0 1.598-2.603l.817-1.35.858-1.4H40l-3.904 6.369c-.12.189-.189.407-.197.63.013.236.095.463.236.652h.001Z"/><path fill="#015F88" d="M55.952 4.996H53.49l-5.353 6.166h-.735V4.996h-2.069v13.988h2.069V12.66h.07l5.82 6.343 2.818-.02-6.68-6.934 6.522-7.053ZM61.802 8.867c-.368.099-.72.252-1.044.453-.336.21-.646.458-.926.739-.046.047-.091.099-.138.148V8.739l-2.01.296v9.949h2.01V11.54a5.105 5.105 0 0 1 1.074-.576 6.83 6.83 0 0 1 .621-.207 4.226 4.226 0 0 1 1.379-.147l.236-1.852a3.761 3.761 0 0 0-1.202.108ZM64.837 18.984h2.01V8.739l-2.01.296v9.949ZM66.56 4.612a1.276 1.276 0 0 0-.68-.187 1.326 1.326 0 0 0-.689.187c-.205.12-.378.29-.502.492-.125.205-.19.44-.187.68-.002.243.062.481.187.69.12.206.294.376.502.492.21.118.448.18.69.177a1.33 1.33 0 0 0 .68-.177c.202-.117.369-.287.482-.492.118-.21.18-.449.177-.69a1.33 1.33 0 0 0-.177-.68 1.392 1.392 0 0 0-.483-.492ZM77.642 9.133a3.879 3.879 0 0 0-1.891-.414c-.572.001-1.14.091-1.685.266a6.405 6.405 0 0 0-1.585.759c-.19.125-.373.263-.552.404V8.739l-2.01.296v9.949h2.01V11.5c.194-.114.395-.217.6-.31.277-.122.56-.23.848-.324.276-.09.56-.16.847-.207.27-.045.544-.068.818-.069.321-.007.641.043.945.148.251.09.475.243.65.443.181.217.31.473.375.749.084.348.123.705.118 1.064v5.989h2.01V12.58a5.465 5.465 0 0 0-.375-2.187 2.585 2.585 0 0 0-1.123-1.26ZM88.428 8.976a7.116 7.116 0 0 0-.916-.188 7.746 7.746 0 0 0-1.064-.069 4.769 4.769 0 0 0-1.872.375 4.955 4.955 0 0 0-1.586 1.073 4.856 4.856 0 0 0-1.093 1.734 6.64 6.64 0 0 0-.394 2.374 6.16 6.16 0 0 0 .502 2.59c.309.7.82 1.29 1.468 1.695a4.348 4.348 0 0 0 2.344.6 5.682 5.682 0 0 0 2.108-.413c.4-.163.778-.377 1.123-.637v.539c.008.444-.055.886-.186 1.31a2.38 2.38 0 0 1-.572.945 2.348 2.348 0 0 1-1.005.572c-.49.134-.998.198-1.507.187-.405 0-.81-.024-1.212-.07a8.546 8.546 0 0 1-1.25-.235 9.528 9.528 0 0 1-1.242-.424l.217 1.734c.362.147.734.268 1.113.364.399.1.803.176 1.212.227.431.053.865.079 1.3.078.97.03 1.933-.161 2.817-.561a3.95 3.95 0 0 0 1.724-1.556 4.466 4.466 0 0 0 .581-2.296V8.72l-1.927.497a5.795 5.795 0 0 0-.683-.24Zm.364 7.89a6.179 6.179 0 0 1-.758.374 4.62 4.62 0 0 1-.71.227c-.236.053-.477.08-.719.078a3.425 3.425 0 0 1-1.704-.384A2.307 2.307 0 0 1 83.897 16a5.239 5.239 0 0 1-.326-2 5.21 5.21 0 0 1 .227-1.605c.13-.428.351-.821.65-1.153a2.85 2.85 0 0 1 1.044-.7c.45-.17.928-.253 1.409-.245.31 0 .62.026.926.078.313.056.622.131.926.227.096.03.197.07.295.107v6.007c-.086.05-.175.104-.256.15ZM102.662 8.936h-2.463l-3.371 3.704H96.1V4.11l-2.01.295v14.579h2.01v-4.827h.033l4.025 4.827h2.601l-4.779-5.385 4.681-4.663ZM112.965 17.742a.898.898 0 0 1-.768-.315 1.693 1.693 0 0 1-.217-1.044l.04-4.058a4.748 4.748 0 0 0-.158-1.261 3.099 3.099 0 0 0-.473-1.005 2.68 2.68 0 0 0-.817-.729 4.196 4.196 0 0 0-1.192-.453 7.043 7.043 0 0 0-1.557-.158 9.75 9.75 0 0 0-1.241.08 8.49 8.49 0 0 0-1.152.226 9.61 9.61 0 0 0-1.035.345l-.236 1.674a11.488 11.488 0 0 1 1.792-.492c.271-.052.544-.088.818-.109.269-.02.535-.03.798-.03.402-.008.803.039 1.192.139.284.07.545.213.759.413.19.195.325.436.394.7.083.325.123.66.118.995l-.002.494-2.303.156a6.12 6.12 0 0 0-2.285.512 3.27 3.27 0 0 0-1.35 1.093 2.544 2.544 0 0 0-.443 1.448c-.004.485.114.963.344 1.39.241.438.604.797 1.044 1.034.538.28 1.139.415 1.744.394a4.538 4.538 0 0 0 1.665-.276c.46-.18.882-.448 1.241-.788.136-.131.266-.269.388-.413.038.204.11.4.213.58.175.302.445.537.768.67a2.88 2.88 0 0 0 1.123.207c.118 0 .233-.003.345-.01.109-.006.218-.023.325-.05.105-.025.2-.049.286-.068.077-.017.153-.04.226-.07l.217-1.32a1.732 1.732 0 0 1-.335.08 2.258 2.258 0 0 1-.276.02Zm-3.28-.886a3.833 3.833 0 0 1-.689.433 3.119 3.119 0 0 1-.769.256c-.276.054-.556.08-.837.08a2.223 2.223 0 0 1-.936-.178 1.288 1.288 0 0 1-.581-.502 1.464 1.464 0 0 1-.197-.779c-.02-.328.071-.654.256-.926.214-.25.505-.423.827-.492a6.002 6.002 0 0 1 1.537-.158h1.725l-.009 1.956c-.1.112-.209.216-.327.31ZM121.672 14.452a2.963 2.963 0 0 0-.689-.541 5.396 5.396 0 0 0-.828-.385c-.21-.065-.416-.134-.62-.206a11.298 11.298 0 0 0-.611-.197c-.204-.06-.401-.122-.591-.188a4.235 4.235 0 0 1-.522-.216 3.413 3.413 0 0 1-.463-.296 1.293 1.293 0 0 1-.335-.374.946.946 0 0 1-.128-.493 1.02 1.02 0 0 1 .138-.541c.103-.162.245-.294.414-.385a2.23 2.23 0 0 1 .66-.236 4.41 4.41 0 0 1 .876-.079 6.372 6.372 0 0 1 1.035.089c.204.032.407.076.61.128.204.052.411.112.621.177.195.06.385.133.571.217l.138-1.596a9.72 9.72 0 0 0-.739-.276 7.32 7.32 0 0 0-.738-.197 6.002 6.002 0 0 0-.739-.108 8.921 8.921 0 0 0-.719-.03 6.5 6.5 0 0 0-1.616.188c-.452.11-.881.296-1.27.551a2.512 2.512 0 0 0-.838.926c-.206.412-.307.87-.295 1.33-.006.332.047.662.158.975.093.263.233.506.413.72.176.2.378.376.601.521.233.153.48.282.739.385a16.307 16.307 0 0 0 .916.305 26.917 26.917 0 0 1 .867.276c.137.046.273.088.404.128.176.062.347.138.512.226.144.077.28.17.404.276a1.015 1.015 0 0 1 .345.778.986.986 0 0 1-.325.778 1.891 1.891 0 0 1-.848.404c-.365.081-.738.12-1.113.119a5.499 5.499 0 0 1-.699-.05 10.097 10.097 0 0 1-.808-.138c-.282-.06-.571-.131-.867-.216-.295-.085-.594-.18-.896-.286l.079 1.675c.341.118.653.213.936.285.283.073.552.135.807.187.247.052.497.085.749.099.243.013.489.02.739.02a7.69 7.69 0 0 0 1.635-.168 4.21 4.21 0 0 0 1.339-.522c.373-.227.682-.546.897-.926.226-.417.338-.886.325-1.36a2.763 2.763 0 0 0-.168-1.014 2.304 2.304 0 0 0-.463-.739ZM129.896 17.398l-.334.059a2.99 2.99 0 0 1-.326.04c-.105.006-.204.009-.295.009a1.989 1.989 0 0 1-.877-.177 1.265 1.265 0 0 1-.561-.522 1.65 1.65 0 0 1-.197-.838v-5.457h2.777l.217-1.576h-2.994V5.823l-2.01.71v2.403h-1.517l-.217 1.576h1.734v5.871c-.009.392.051.782.177 1.153.102.293.259.564.464.797.187.209.415.376.669.493a3.4 3.4 0 0 0 .818.256c.279.052.563.078.847.079.21 0 .417-.007.621-.02.204-.013.39-.033.561-.059.171-.026.332-.056.483-.089.151-.032.279-.062.384-.088l.118-1.635c-.077.03-.156.052-.236.069a7.74 7.74 0 0 1-.306.059ZM132.528 18.984h2.009V8.739l-2.009.296v9.949ZM134.251 4.612a1.272 1.272 0 0 0-.679-.187 1.323 1.323 0 0 0-.689.187c-.206.12-.378.29-.502.492-.126.205-.191.44-.188.68-.002.243.063.481.188.69.12.206.293.376.502.492.21.118.448.18.689.177.238.003.473-.058.679-.177.203-.117.37-.288.483-.492.119-.211.18-.449.178-.69a1.34 1.34 0 0 0-.178-.68 1.391 1.391 0 0 0-.483-.492ZM145.333 9.133a3.877 3.877 0 0 0-1.891-.414 5.54 5.54 0 0 0-1.685.266 6.398 6.398 0 0 0-1.585.759 7.681 7.681 0 0 0-.552.404V8.739l-2.01.296v9.949h2.01V11.5c.194-.114.395-.217.601-.31a8.96 8.96 0 0 1 .847-.324c.277-.09.56-.16.847-.207.27-.045.544-.068.818-.069a2.7 2.7 0 0 1 .945.148c.251.09.475.242.65.443.181.217.309.473.375.749.084.348.123.705.118 1.064v5.989h2.009V12.58a5.465 5.465 0 0 0-.374-2.187 2.581 2.581 0 0 0-1.123-1.26ZM156.119 8.976a7.118 7.118 0 0 0-.916-.188 7.747 7.747 0 0 0-1.064-.069 4.764 4.764 0 0 0-1.871.375 4.94 4.94 0 0 0-1.586 1.073 4.854 4.854 0 0 0-1.094 1.734 6.644 6.644 0 0 0-.394 2.374c-.022.89.15 1.774.502 2.59.309.7.82 1.29 1.468 1.695a4.347 4.347 0 0 0 2.344.6 5.68 5.68 0 0 0 2.108-.413 4.973 4.973 0 0 0 1.123-.637v.539c.008.444-.055.886-.186 1.31-.114.355-.31.68-.572.945a2.346 2.346 0 0 1-1.005.572 5.27 5.27 0 0 1-1.507.187c-.405 0-.809-.024-1.211-.07a8.541 8.541 0 0 1-1.252-.235 9.551 9.551 0 0 1-1.241-.424l.217 1.734c.362.147.734.268 1.113.364.399.1.804.177 1.212.227.431.053.865.079 1.3.078.97.03 1.933-.161 2.817-.561a3.949 3.949 0 0 0 1.724-1.556 4.456 4.456 0 0 0 .581-2.296V8.72l-1.927.497a5.723 5.723 0 0 0-.683-.24Zm.365 7.89a6.171 6.171 0 0 1-.759.374 4.62 4.62 0 0 1-.709.227c-.236.053-.477.08-.719.078a3.423 3.423 0 0 1-1.704-.384A2.305 2.305 0 0 1 151.588 16a5.243 5.243 0 0 1-.325-2 5.228 5.228 0 0 1 .226-1.605 3.03 3.03 0 0 1 .651-1.153 2.84 2.84 0 0 1 1.044-.7c.449-.17.927-.253 1.408-.245.311 0 .62.026.926.078.314.056.623.131.927.227.096.03.197.07.295.107v6.007c-.087.05-.175.104-.256.15ZM168.008 14.452a2.96 2.96 0 0 0-.689-.541 5.396 5.396 0 0 0-.828-.385 16.8 16.8 0 0 1-.62-.206 11.298 11.298 0 0 0-.611-.197c-.204-.06-.401-.122-.591-.188a4.205 4.205 0 0 1-.522-.216 3.394 3.394 0 0 1-.463-.296 1.293 1.293 0 0 1-.335-.374.947.947 0 0 1-.129-.493 1.02 1.02 0 0 1 .139-.541c.103-.162.245-.294.413-.385.207-.113.429-.192.66-.236a4.42 4.42 0 0 1 .877-.079 6.394 6.394 0 0 1 1.034.089c.204.032.407.076.611.128.204.052.41.112.621.177.194.06.385.133.571.217l.138-1.596a9.72 9.72 0 0 0-.739-.276 7.328 7.328 0 0 0-.739-.197 5.951 5.951 0 0 0-.739-.108 8.884 8.884 0 0 0-.719-.03 6.488 6.488 0 0 0-1.615.188 4.08 4.08 0 0 0-1.271.551 2.52 2.52 0 0 0-.837.926c-.206.412-.308.87-.296 1.33a2.79 2.79 0 0 0 .158.975c.093.263.233.507.414.72.175.2.377.376.601.521.232.153.48.282.738.385a26.195 26.195 0 0 0 .916.305 51.51 51.51 0 0 1 .867.276c.138.046.273.088.404.128.176.062.348.138.512.226.145.077.28.17.404.276a1.015 1.015 0 0 1 .345.778.972.972 0 0 1-.325.778 1.888 1.888 0 0 1-.847.404c-.366.081-.739.12-1.113.119a5.501 5.501 0 0 1-.7-.05 10 10 0 0 1-.807-.138c-.283-.06-.572-.131-.867-.216-.296-.085-.595-.18-.897-.286l.079 1.675c.341.118.653.213.936.285.283.073.552.135.808.187.246.052.497.085.748.099.243.013.489.02.739.02a7.678 7.678 0 0 0 1.635-.168 4.218 4.218 0 0 0 1.34-.522c.372-.227.681-.546.896-.926.226-.417.338-.886.325-1.36a2.762 2.762 0 0 0-.167-1.014 2.307 2.307 0 0 0-.463-.739ZM178.184 9.351a5.407 5.407 0 0 0-2.669-.63 5.385 5.385 0 0 0-2.69.65 4.55 4.55 0 0 0-1.793 1.832 5.808 5.808 0 0 0-.64 2.798 6.04 6.04 0 0 0 .601 2.787c.377.758.979 1.38 1.724 1.784.801.42 1.696.63 2.6.61a5.551 5.551 0 0 0 2.719-.65 4.59 4.59 0 0 0 1.843-1.852c.457-.874.684-1.85.659-2.837a5.696 5.696 0 0 0-.611-2.709 4.303 4.303 0 0 0-1.743-1.783Zm-.118 6.6a2.685 2.685 0 0 1-1.074 1.232 3.06 3.06 0 0 1-1.576.403 2.798 2.798 0 0 1-1.536-.413 2.77 2.77 0 0 1-1.025-1.241 4.976 4.976 0 0 1-.374-2.05 4.639 4.639 0 0 1 .374-1.99 2.62 2.62 0 0 1 1.054-1.181 3.188 3.188 0 0 1 1.625-.394c.443-.011.883.073 1.291.246.357.161.668.408.906.72.254.337.438.722.542 1.132.123.48.183.973.177 1.468a4.894 4.894 0 0 1-.385 2.068h.001ZM187.098 8.867c-.368.099-.72.252-1.044.453a5.16 5.16 0 0 0-.926.739c-.046.047-.092.099-.138.148V8.739l-2.009.296v9.949h2.009V11.54a5.097 5.097 0 0 1 1.074-.576c.204-.079.41-.147.62-.207a4.25 4.25 0 0 1 1.38-.147l.236-1.852a3.76 3.76 0 0 0-1.202.108ZM198.702 8.936h-2.463l-3.371 3.704h-.726V4.11l-2.01.295v14.579h2.01v-4.827h.032l4.026 4.827h2.6l-4.779-5.385 4.681-4.663ZM208.099 10.207a3.573 3.573 0 0 0-1.448-1.113 5.052 5.052 0 0 0-1.999-.375 4.904 4.904 0 0 0-2.01.394 4.293 4.293 0 0 0-1.507 1.104 4.824 4.824 0 0 0-.946 1.704 7.147 7.147 0 0 0-.325 2.216 5.96 5.96 0 0 0 .582 2.748 3.847 3.847 0 0 0 1.723 1.714c.874.412 1.833.611 2.798.582.464.004.929-.026 1.389-.09a6.655 6.655 0 0 0 2.196-.718l.138-1.517c-.249.092-.502.184-.758.276a9.746 9.746 0 0 1-.798.246 5.973 5.973 0 0 1-.847.158c-.288.032-.577.049-.867.049a6.203 6.203 0 0 1-1.537-.168 2.52 2.52 0 0 1-1.093-.571 2.49 2.49 0 0 1-.67-1.093 4.99 4.99 0 0 1-.215-1.3h7.12c.097-.815.06-1.64-.108-2.444a4.611 4.611 0 0 0-.818-1.802Zm-4.964.473a2.79 2.79 0 0 1 1.536-.404 2.409 2.409 0 0 1 1.517.443c.393.313.673.745.798 1.231.099.36.147.731.144 1.104h-5.181c.036-.393.12-.78.25-1.153.168-.5.497-.929.936-1.221ZM217.713 14.452a2.963 2.963 0 0 0-.69-.541 5.31 5.31 0 0 0-.828-.385 18.156 18.156 0 0 1-.62-.206 10.756 10.756 0 0 0-.611-.197c-.203-.06-.4-.122-.591-.188a4.3 4.3 0 0 1-.522-.216 3.403 3.403 0 0 1-.463-.296 1.31 1.31 0 0 1-.335-.374.946.946 0 0 1-.128-.493c-.005-.19.043-.377.138-.541.103-.162.246-.294.414-.385a2.23 2.23 0 0 1 .66-.236 4.42 4.42 0 0 1 .877-.079 6.347 6.347 0 0 1 1.034.089c.204.032.407.076.61.128.204.052.411.112.621.177.195.06.386.133.571.217l.139-1.596a9.72 9.72 0 0 0-.739-.276 7.328 7.328 0 0 0-.739-.197 5.996 5.996 0 0 0-.739-.108 8.902 8.902 0 0 0-.719-.03 6.488 6.488 0 0 0-1.615.188 4.08 4.08 0 0 0-1.271.551 2.502 2.502 0 0 0-.837.926c-.206.412-.308.87-.296 1.33-.006.332.047.662.158.975a2.3 2.3 0 0 0 .413.72c.176.2.378.376.601.521.233.153.48.282.739.385a23.832 23.832 0 0 0 .916.305 42.21 42.21 0 0 1 .867.276c.138.046.273.088.404.128.176.062.347.138.512.226.145.077.28.17.404.276a1.015 1.015 0 0 1 .345.778.986.986 0 0 1-.325.778 1.892 1.892 0 0 1-.847.404c-.366.081-.739.12-1.114.119a5.499 5.499 0 0 1-.699-.05 10.097 10.097 0 0 1-.808-.138c-.282-.06-.571-.131-.867-.216-.295-.085-.594-.18-.896-.286l.079 1.675c.341.118.653.213.936.285.282.073.552.135.807.187.247.052.497.085.749.099.243.013.489.02.739.02a7.684 7.684 0 0 0 1.635-.168 4.23 4.23 0 0 0 1.34-.522c.372-.227.681-.546.896-.926.226-.417.338-.886.325-1.36a2.783 2.783 0 0 0-.167-1.014 2.324 2.324 0 0 0-.463-.739ZM225.938 17.398l-.334.059c-.108.019-.217.032-.326.04-.105.006-.204.009-.295.009a1.989 1.989 0 0 1-.877-.177 1.266 1.266 0 0 1-.561-.522 1.65 1.65 0 0 1-.197-.838v-5.457h2.777l.217-1.576h-2.994V5.823l-2.01.71v2.403h-1.517l-.217 1.576h1.734v5.871c-.009.392.051.782.177 1.153.102.293.259.564.463.797.188.209.416.376.67.493.261.12.535.206.817.256.28.052.563.078.848.079.21 0 .417-.007.62-.02a6.451 6.451 0 0 0 1.044-.148c.151-.032.279-.062.384-.088l.119-1.635c-.077.03-.156.052-.236.069-.092.02-.194.039-.306.059ZM232.685 8.867c-.368.099-.72.252-1.044.453-.336.21-.646.458-.926.739-.046.047-.091.099-.138.148V8.739l-2.009.296v9.949h2.009V11.54a5.53 5.53 0 0 1 .463-.29 5.23 5.23 0 0 1 .611-.286c.204-.079.41-.147.621-.207a4.228 4.228 0 0 1 1.379-.147l.236-1.852a3.762 3.762 0 0 0-1.202.108ZM243.344 10.207a3.58 3.58 0 0 0-1.448-1.113 5.06 5.06 0 0 0-2-.375 4.895 4.895 0 0 0-2.009.394 4.297 4.297 0 0 0-1.508 1.104 4.84 4.84 0 0 0-.946 1.704 7.117 7.117 0 0 0-.324 2.216c-.028.95.171 1.892.58 2.748.375.743.98 1.344 1.724 1.714.874.412 1.833.611 2.798.582a9.61 9.61 0 0 0 1.389-.09 6.632 6.632 0 0 0 1.133-.265 7.35 7.35 0 0 0 1.064-.453l.138-1.517c-.25.092-.503.184-.759.276a9.746 9.746 0 0 1-.798.246 5.973 5.973 0 0 1-.847.158c-.288.032-.577.049-.867.049a6.203 6.203 0 0 1-1.537-.168 2.523 2.523 0 0 1-1.093-.571 2.489 2.489 0 0 1-.67-1.093 4.989 4.989 0 0 1-.214-1.3h7.119a7.536 7.536 0 0 0-.108-2.444 4.61 4.61 0 0 0-.817-1.802Zm-4.965.473a2.79 2.79 0 0 1 1.537-.404 2.41 2.41 0 0 1 1.517.443c.392.313.672.745.797 1.231.099.36.147.731.144 1.104h-5.181c.036-.393.12-.78.25-1.153.168-.5.498-.929.936-1.221ZM252.248 17.339c-.092.02-.194.039-.305.059l-.335.059c-.107.019-.216.032-.325.04-.105.006-.204.009-.295.009a1.99 1.99 0 0 1-.877-.177 1.268 1.268 0 0 1-.562-.522 1.661 1.661 0 0 1-.197-.838v-5.457h2.778l.217-1.576h-2.995V5.823l-2.009.71v2.403h-1.517l-.217 1.576h1.734v5.871c-.009.392.051.782.177 1.153.102.293.259.564.463.797.188.209.416.376.67.493.26.12.535.206.817.256.28.052.563.078.847.079.211 0 .418-.007.621-.02a6.451 6.451 0 0 0 1.044-.148c.152-.032.279-.062.384-.088l.119-1.635c-.077.03-.156.052-.237.069Z"/></svg>