<svg xmlns="http://www.w3.org/2000/svg" viewBox="0 0 235 48"><path fill="#fff" d="M0 45V3.004h13.78V45H0ZM32.528 9.688 40.453 45h-15.08L15.908 3.004h8.459a7.965 7.965 0 0 1 5.293 1.922 8.31 8.31 0 0 1 2.867 4.762ZM42.523 45V3.004h13.78V45h-13.78Zm24.189-26.026a8.213 8.213 0 0 1-4.228-1.124 8.336 8.336 0 0 1-3.046-3.046 8.206 8.206 0 0 1-1.125-4.229 8.056 8.056 0 0 1 1.125-4.2 8.437 8.437 0 0 1 3.046-3.016 8.232 8.232 0 0 1 4.228-1.124 8.083 8.083 0 0 1 4.199 1.124 8.503 8.503 0 0 1 3.016 3.016 8.075 8.075 0 0 1 1.125 4.2 8.226 8.226 0 0 1-1.125 4.23 8.4 8.4 0 0 1-3.016 3.045 8.059 8.059 0 0 1-4.201 1.124h.002ZM77.18 45V3.004h13.781V45H77.181Zm31.227-19.046c.039.04.334.524.887 1.449.553.925 1.272 2.108 2.159 3.549a1143.28 1143.28 0 0 1 5.589 9.168A854.89 854.89 0 0 0 120 45h-15.141c-.947-1.538-1.804-2.928-2.573-4.17a382.214 382.214 0 0 1-2.453-4.022 351.934 351.934 0 0 0-2.574-4.2 213.445 213.445 0 0 1-2.188-3.578 62.753 62.753 0 0 0-1.272-2.07 6.119 6.119 0 0 1-1.005-2.958 5.744 5.744 0 0 1 .946-2.84c.236-.394.67-1.095 1.3-2.1.632-1.006 1.371-2.198 2.219-3.579a636.03 636.03 0 0 0 2.574-4.229c.869-1.439 1.686-2.79 2.453-4.052.77-1.26 1.628-2.66 2.573-4.2H120l-11.711 19.106a3.773 3.773 0 0 0-.592 1.894c.039.706.286 1.385.709 1.952h.002Z"/><path fill="#03FCA3" d="M193.469 3h-12.977s7.37 12.08 7.454 12.236a2.038 2.038 0 0 1 .047 2.476l-7.501 12.276h12.973s6.255-10.218 7.111-11.636a3.096 3.096 0 0 0-.035-3.758c-.914-1.564-.919-1.563-7.072-11.594ZM234.096 9.954C233.66 9.213 229.799 3 229.799 3h-27.761l6.065 10.16h14.623l-6.036 9.88 6.731 11.289-6.489 10.653h11.853c1.905-3.114 4.759-7.93 5.354-8.912a3.104 3.104 0 0 0-.035-3.77c-.595-1.01-3.768-6.04-5.664-9.134 0 0 5.104-8.447 5.699-9.434a3.106 3.106 0 0 0-.043-3.778Z"/><path fill="#03FCA3" d="M207.387 24.42c-1.827 2.98-4.883 7.976-5.453 8.95a2.998 2.998 0 0 0-.033 3.63c.574.95 3.653 5.985 5.489 8.984 1.835-3 4.916-8.033 5.488-8.984a2.993 2.993 0 0 0-.033-3.63c-.575-.974-3.632-5.97-5.458-8.95ZM170.494 3a6.953 6.953 0 0 0-3.79 1.154c-.954.586-8.734 7.182-9.327 7.684-.595-.502-8.373-7.098-9.327-7.684A6.953 6.953 0 0 0 144.26 3H136v36.989l11.481-8.615V16.52l9.896 7.439 9.896-7.439v28.457h11.548V3h-8.327Z"/></svg>