<svg xmlns="http://www.w3.org/2000/svg" viewBox="0 0 54 24"><path fill="#fff" d="M0 18.002v-12h3.937v12H0Zm9.294-10.09 2.264 10.09H7.25l-2.704-12h2.417a2.276 2.276 0 0 1 1.513.55c.42.346.71.827.819 1.36Zm2.855 10.09v-12h3.938v12h-3.938Zm6.912-7.436a2.381 2.381 0 0 1-2.078-1.191 2.345 2.345 0 0 1-.322-1.209 2.301 2.301 0 0 1 .321-1.2 2.41 2.41 0 0 1 3.278-.862c.356.21.653.506.862.862.215.363.326.778.321 1.2a2.35 2.35 0 0 1-.321 1.208 2.4 2.4 0 0 1-.862.87 2.302 2.302 0 0 1-1.2.322Zm2.99 7.436v-12h3.938v12h-3.937Zm8.923-5.442c.01.012.095.15.253.414s.364.602.617 1.014a315.936 315.936 0 0 1 1.597 2.62c.247.411.529.876.845 1.394H29.96c-.27-.44-.516-.837-.736-1.192-.22-.354-.453-.738-.7-1.149-.248-.41-.493-.81-.736-1.2-.242-.389-.45-.73-.625-1.022-.175-.293-.296-.49-.363-.592a1.747 1.747 0 0 1-.287-.845c.016-.29.11-.57.27-.811.067-.113.191-.313.371-.6s.392-.628.634-1.022c.242-.395.488-.798.736-1.209l.7-1.157.736-1.2h4.326L30.94 11.46a1.08 1.08 0 0 0-.17.541c.012.202.082.396.203.558Z"/><path fill="#00B3C7" d="M48.295 3.833a8.914 8.914 0 0 1 4.731 4.73 8.67 8.67 0 0 1 .688 3.447 8.63 8.63 0 0 1-.688 3.43 8.918 8.918 0 0 1-4.73 4.731 8.676 8.676 0 0 1-3.447.688 8.67 8.67 0 0 1-3.447-.688 8.82 8.82 0 0 1-2.817-1.906 8.98 8.98 0 0 1-1.897-2.825A8.624 8.624 0 0 1 36 12.01a8.664 8.664 0 0 1 .688-3.447 8.976 8.976 0 0 1 1.897-2.825 8.816 8.816 0 0 1 2.817-1.905 8.668 8.668 0 0 1 3.447-.688 8.672 8.672 0 0 1 3.447.688Zm-.662 14.722a7.142 7.142 0 0 0 2.27-1.516 7.023 7.023 0 0 0 2.071-5.03 7.025 7.025 0 0 0-.547-2.766 7.077 7.077 0 0 0-1.524-2.27 7.197 7.197 0 0 0-2.27-1.533 6.985 6.985 0 0 0-2.784-.555 6.941 6.941 0 0 0-2.767.555 7.195 7.195 0 0 0-3.804 3.803 6.938 6.938 0 0 0-.554 2.767c-.007.95.182 1.893.554 2.767.36.846.88 1.615 1.533 2.262a7.14 7.14 0 0 0 2.27 1.516 7.025 7.025 0 0 0 2.768.547 7.07 7.07 0 0 0 2.784-.547Zm-6.654-5.55a1.303 1.303 0 0 1-.389-.945 1.344 1.344 0 0 1 .39-.978 1.282 1.282 0 0 1 .952-.398 1.356 1.356 0 0 1 .986.398 1.315 1.315 0 0 1 .406.978 1.28 1.28 0 0 1-.406.944 1.356 1.356 0 0 1-.986.398 1.283 1.283 0 0 1-.953-.398Zm6.736-2.9c.011-.034.034-.034.067 0l.398 1.077a.13.13 0 0 0 .132.1l1.176.032c.022 0 .034.009.034.025a.09.09 0 0 1-.034.058l-.845.73a.125.125 0 0 0-.083.165l.299 1.077c0 .055-.017.083-.05.083l-.978-.646a.298.298 0 0 0-.198 0l-.928.646c-.045 0-.061-.028-.05-.083l.298-1.077a.178.178 0 0 0-.083-.166l-.877-.729a.13.13 0 0 1-.017-.058c0-.016.005-.025.017-.025l1.176-.033a.141.141 0 0 0 .149-.1l.397-1.076Z"/></svg>