<svg xmlns="http://www.w3.org/2000/svg" viewBox="0 0 89 36"><path fill="#fff" d="M3.462 3.462h29.077v29.077H3.462z"/><path fill="#000" fill-rule="evenodd" d="M0 0h36v36H0V0Zm11.626 16H8.308v12.056h3.318V16Zm4.208 0h-3.727s2.117 3.47 2.141 3.514c.163.276.172.444.014.71l-2.155 3.528h3.727s1.797-2.935 2.042-3.342c.244-.408.233-.661-.01-1.08-.247-.421-.264-.447-1.72-2.82v-.002l-.001-.002h-.001l-.31-.506Zm10.436 0s1.109 1.784 1.234 1.997c.244.42.255.674.01 1.083l-1.637 2.71c.269.438.627 1.011.94 1.515h.001c.323.518.6.96.686 1.108.244.42.255.674.01 1.083l-.265.443-.001.002c-.332.557-.873 1.465-1.27 2.116h-3.406l1.865-3.06-1.934-3.241 1.734-2.838h-4.2L18.294 16h7.976Zm-6.438 6.191a373.19 373.19 0 0 0-1.567 2.57c-.235.405-.245.65-.01 1.043.165.273 1.05 1.72 1.577 2.58.527-.86 1.412-2.307 1.577-2.58.235-.394.225-.638-.01-1.042-.164-.28-1.042-1.715-1.567-2.571ZM8.308 7.431v6.783h2.226V7.43H8.308Zm6.534 6.783-1.28-5.703a1.342 1.342 0 0 0-.463-.77 1.287 1.287 0 0 0-.855-.31h-1.366l1.528 6.783h2.436Zm.335-6.783v6.783h2.226V7.43h-2.226ZM18.4 9.83c.207.121.443.184.683.182.239.002.473-.06.678-.182a1.356 1.356 0 0 0 .67-1.175 1.304 1.304 0 0 0-.182-.678 1.374 1.374 0 0 0-.488-.487 1.305 1.305 0 0 0-.678-.182 1.363 1.363 0 0 0-1.175.669 1.3 1.3 0 0 0-.181.678 1.346 1.346 0 0 0 .674 1.175Zm2.374-2.398v6.783h2.227V7.43h-2.227Zm5.188 3.94a5.124 5.124 0 0 0-.143-.233.58.58 0 0 1-.115-.315.61.61 0 0 1 .096-.306l1.891-3.086h-2.445a305.985 305.985 0 0 0-.812 1.333 107.797 107.797 0 0 1-.985 1.6.928.928 0 0 0-.152.459c.011.17.067.335.162.477.038.058.107.17.205.335.099.165.217.358.354.578.137.22.275.446.416.678.14.232.272.449.396.65l.416.673h2.445a150.16 150.16 0 0 1-.477-.788 198.775 198.775 0 0 0-.903-1.48c-.143-.234-.26-.425-.349-.574Z" clip-rule="evenodd"/><path fill="#000" d="M52.053 18.466a6.647 6.647 0 0 1-.207 1.745 3.186 3.186 0 0 1-.64 1.262 2.68 2.68 0 0 1-1.134.759 4.92 4.92 0 0 1-1.686.256 5.049 5.049 0 0 1-1.952-.345 2.47 2.47 0 0 1-1.261-1.163 4.769 4.769 0 0 1-.434-2.218V10.01h-2.07v9.09c-.022.817.129 1.63.444 2.385a4.066 4.066 0 0 0 1.222 1.587c.537.41 1.15.708 1.804.878.707.186 1.437.28 2.168.275a6.487 6.487 0 0 0 3.174-.69 4.33 4.33 0 0 0 1.844-1.932 6.631 6.631 0 0 0 .6-2.918V10.01h-1.872v8.456ZM60.984 13.883a3.86 3.86 0 0 0-1.045.454c-.337.21-.647.457-.927.739-.046.046-.092.098-.138.147v-1.468l-2.01.295v9.956h2.01v-7.448a5.192 5.192 0 0 1 1.075-.576c.203-.079.41-.148.62-.207a4.215 4.215 0 0 1 1.38-.148l.237-1.852c-.404-.03-.81.007-1.202.108ZM72.477 13.498l-1.104 1.166a4.578 4.578 0 0 0-.453-.298 5.392 5.392 0 0 0-2.681-.63 5.389 5.389 0 0 0-2.691.65 4.548 4.548 0 0 0-1.794 1.833 5.793 5.793 0 0 0-.641 2.8 5.961 5.961 0 0 0 .611 2.789c.113.215.243.42.389.614l-1.099 1.17.907.828 1.052-1.136c.151.113.31.216.475.308a5.345 5.345 0 0 0 2.613.611 5.493 5.493 0 0 0 2.71-.65 4.675 4.675 0 0 0 1.844-1.853c.464-.873.694-1.851.67-2.84a5.636 5.636 0 0 0-.621-2.71 4.608 4.608 0 0 0-.4-.613l1.14-1.21-.927-.829Zm-6.88 3.411c.221-.493.59-.907 1.055-1.183a3.147 3.147 0 0 1 1.606-.394c.447-.01.89.074 1.302.247.221.1.426.233.606.396l-4.587 4.954a5.103 5.103 0 0 1-.357-2.029 4.639 4.639 0 0 1 .375-1.99Zm5.205 4.061c-.226.51-.6.94-1.075 1.232a3.01 3.01 0 0 1-1.567.405 2.852 2.852 0 0 1-1.548-.414 2.408 2.408 0 0 1-.366-.29l4.589-4.954c.068.157.126.318.174.483.13.478.192.972.187 1.468a4.81 4.81 0 0 1-.394 2.071ZM79.929 13.883c-.369.099-.721.252-1.045.454-.336.21-.647.457-.927.739-.046.046-.092.098-.138.147v-1.468l-2.01.295v9.956h2.01v-7.448a5.192 5.192 0 0 1 1.075-.576c.204-.079.41-.148.62-.207a4.238 4.238 0 0 1 1.38-.148l.237-1.852c-.404-.03-.81.007-1.202.108ZM88.485 22.36c-.092.02-.194.04-.306.06l-.335.058c-.107.02-.216.033-.325.04-.105.007-.204.01-.296.01a1.984 1.984 0 0 1-.877-.178 1.27 1.27 0 0 1-.562-.522 1.662 1.662 0 0 1-.197-.838V15.53h2.78l.217-1.577h-2.997v-3.115l-2.011.71v2.405h-1.518l-.217 1.577h1.735v5.875c-.009.392.051.782.177 1.153.102.294.26.565.464.799.188.208.416.375.67.492.261.12.536.206.818.257.28.051.564.078.848.078.21 0 .417-.006.621-.019.205-.013.39-.033.562-.06a8.897 8.897 0 0 0 .867-.177l.119-1.636c-.077.03-.156.053-.237.07Z"/></svg>