<svg xmlns="http://www.w3.org/2000/svg" viewBox="0 0 61 36"><path fill="#0A2343" d="M0 15.003V1.005h4.593v13.998H0Zm10.843-11.77 2.641 11.77H8.457L5.303 1.005h2.82a2.655 2.655 0 0 1 1.764.64c.491.404.829.964.956 1.587Zm3.331 11.77V1.005h4.594v13.998h-4.594Zm8.063-8.675a2.737 2.737 0 0 1-1.409-.375 2.778 2.778 0 0 1-1.015-1.015 2.735 2.735 0 0 1-.375-1.41 2.685 2.685 0 0 1 .375-1.4 2.812 2.812 0 0 1 3.824-1.005c.415.244.761.59 1.005 1.005.251.424.38.908.375 1.4.005.495-.125.983-.375 1.41a2.8 2.8 0 0 1-1.005 1.015c-.424.251-.908.38-1.4.375Zm3.49 8.675V1.005h4.594v13.998h-4.594Zm10.409-6.348c.013.013.111.174.296.483.184.308.424.702.72 1.183a384.573 384.573 0 0 1 1.862 3.056c.289.48.617 1.022.986 1.626h-5.047l-.858-1.39c-.256-.414-.529-.86-.817-1.34-.29-.48-.576-.947-.858-1.4a71.236 71.236 0 0 1-.73-1.193 21.112 21.112 0 0 0-.424-.69 2.04 2.04 0 0 1-.334-.986c.019-.338.128-.665.315-.947.078-.131.223-.365.433-.7a216.7 216.7 0 0 0 1.598-2.603l.817-1.35.858-1.4H40l-3.904 6.369c-.12.189-.189.407-.197.63.013.236.095.463.236.652h.001Z"/><path fill="#1767CE" d="M11.138 21.016H0v1.733h4.538v12.252h2.08V22.75h4.52v-1.733ZM15.2 24.887c-.37.099-.724.251-1.05.453-.338.21-.65.457-.931.738-.047.047-.093.099-.14.148v-1.467l-2.02.295v9.947h2.02V27.56a5.116 5.116 0 0 1 1.08-.575c.206-.08.413-.148.625-.207a4.23 4.23 0 0 1 1.387-.148l.238-1.852a3.804 3.804 0 0 0-1.209.109ZM26.576 33.76a.908.908 0 0 1-.773-.315 1.687 1.687 0 0 1-.218-1.044l.04-4.058a4.706 4.706 0 0 0-.159-1.26 3.08 3.08 0 0 0-.476-1.005 2.68 2.68 0 0 0-.822-.729 4.21 4.21 0 0 0-1.199-.453 7.112 7.112 0 0 0-1.566-.157c-.417 0-.834.026-1.248.078a8.627 8.627 0 0 0-1.16.227c-.353.095-.7.21-1.04.345l-.238 1.674a11.715 11.715 0 0 1 1.804-.492c.271-.052.546-.088.822-.108.27-.02.538-.03.803-.03.404-.009.808.038 1.199.138.286.07.548.213.763.413.19.195.328.436.396.7.085.324.125.659.12.994l-.003.493-2.317.156a6.19 6.19 0 0 0-2.298.512 3.29 3.29 0 0 0-1.358 1.093 2.535 2.535 0 0 0-.446 1.448c-.004.484.116.962.347 1.389.242.438.607.797 1.05 1.034a3.55 3.55 0 0 0 1.754.394 4.59 4.59 0 0 0 1.675-.276c.463-.18.887-.448 1.248-.788.137-.13.267-.268.39-.413.038.204.111.4.215.58.176.302.448.538.773.67.358.144.742.214 1.13.207.118 0 .234-.003.346-.01.11-.006.22-.023.327-.049.106-.026.201-.05.287-.069.078-.017.154-.04.228-.069l.218-1.32c-.11.038-.222.064-.337.08-.092.012-.184.019-.277.02Zm-2.97-1.197c-.101.113-.212.217-.33.31a3.821 3.821 0 0 1-.694.434 3.13 3.13 0 0 1-.773.256 4.39 4.39 0 0 1-.842.079 2.25 2.25 0 0 1-.942-.177 1.29 1.29 0 0 1-.584-.503 1.463 1.463 0 0 1-.198-.778c-.02-.328.071-.653.257-.925.216-.25.508-.424.832-.493a6.08 6.08 0 0 1 1.546-.157h1.736l-.009 1.954ZM34.037 20.287a6.488 6.488 0 0 0-1.298-.118 4.012 4.012 0 0 0-1.268.197 2.75 2.75 0 0 0-1.04.62 2.888 2.888 0 0 0-.694 1.054 4.09 4.09 0 0 0-.248 1.497v1.419h-1.486v1.536h1.486v8.51h2.021v-8.51h2.775v-1.536H31.51V23.32a1.837 1.837 0 0 1 .108-.66c.065-.179.17-.34.307-.473a1.21 1.21 0 0 1 .506-.276c.222-.061.453-.09.683-.088.16 0 .31.007.456.02.147.012.288.032.427.058.139.027.27.053.396.08.112.021.221.054.327.098l-.08-1.635a4.777 4.777 0 0 0-.604-.158ZM36.246 35.001h2.022V24.76l-2.022.295v9.947ZM37.98 20.632a1.29 1.29 0 0 0-.683-.187 1.339 1.339 0 0 0-.694.187c-.206.12-.38.29-.505.492-.126.205-.191.44-.188.68-.003.243.063.481.188.69.121.205.296.375.505.492.212.118.451.18.694.177.24.003.476-.058.684-.177.203-.118.371-.288.485-.493.12-.21.18-.448.178-.69a1.323 1.323 0 0 0-.178-.679 1.396 1.396 0 0 0-.486-.492ZM49.98 24.956h-2.477l-3.391 3.703h-.731v-8.53l-2.022.296v14.576h2.022v-4.826h.033l4.049 4.826h2.616l-4.807-5.384 4.708-4.662ZM55.676 29.565l4.708-4.661h-2.477l-3.39 3.703h-.732v-8.529l-2.021.296V34.95h2.021v-4.826h.033l4.05 4.826h2.615l-4.807-5.385Z"/></svg>