<svg xmlns="http://www.w3.org/2000/svg" viewBox="0 0 91 24"><path fill="#E81502" d="M0 0h91v24H0z"/><path d="M6 17.998v-12h4v12H6Zm9.244-10.09 2.264 10.09H13.2l-2.704-12h2.417a2.276 2.276 0 0 1 1.512.55c.422.346.66.826.82 1.36ZM18 17.998v-12h4v12h-4Zm7.01-7.436a2.381 2.381 0 0 1-2.078-1.192 2.345 2.345 0 0 1-.321-1.208 2.301 2.301 0 0 1 .321-1.2A2.41 2.41 0 0 1 26.21 6.1c.356.21.653.506.862.862a2.3 2.3 0 0 1 .321 1.2 2.35 2.35 0 0 1-.321 1.208 2.4 2.4 0 0 1-.862.87 2.301 2.301 0 0 1-1.2.322ZM28 17.998v-12h4v12h-4Zm8.974-5.442c.01.011.095.15.253.414s.364.602.617 1.014a316.22 316.22 0 0 1 1.597 2.62c.247.41.529.876.845 1.394H35.96c-.27-.44-.516-.837-.736-1.192-.22-.355-.453-.738-.7-1.15-.248-.41-.493-.81-.736-1.199-.242-.39-.45-.73-.625-1.022a18.04 18.04 0 0 0-.363-.592 1.747 1.747 0 0 1-.287-.845c.016-.29.11-.57.27-.811.067-.113.191-.313.371-.6a182.106 182.106 0 0 0 1.37-2.23l.7-1.159.736-1.2h4.326l-3.346 5.46a1.079 1.079 0 0 0-.17.54c.012.202.083.396.204.558Zm14.396-.171a3.201 3.201 0 0 0-.846-.618 6.593 6.593 0 0 0-1.023-.414 11.61 11.61 0 0 0-1.116-.288 24.232 24.232 0 0 1-.82-.203 3.775 3.775 0 0 1-.677-.245 2.235 2.235 0 0 1-.516-.339 1.215 1.215 0 0 1-.33-.473 1.83 1.83 0 0 1-.11-.668c-.003-.236.034-.47.11-.694a1.29 1.29 0 0 1 .339-.515c.158-.145.338-.265.532-.355a2.5 2.5 0 0 1 .702-.203c.289-.041.58-.061.871-.06a7.81 7.81 0 0 1 1.59.17c.255.055.507.126.753.211.23.08.454.178.668.296l.237-1.488a4.213 4.213 0 0 0-.753-.305 10.097 10.097 0 0 0-.803-.203 8.026 8.026 0 0 0-.83-.127 8.663 8.663 0 0 0-.862-.042 7.197 7.197 0 0 0-1.776.203c-.495.12-.962.332-1.378.626a2.825 2.825 0 0 0-.896 1.065 3.443 3.443 0 0 0-.313 1.522c-.01.406.056.81.194 1.193.121.32.309.61.55.854.238.238.512.438.811.592.318.163.65.3.99.406.355.113.719.209 1.091.288.304.067.586.138.846.211.241.066.476.154.702.262.194.092.373.211.532.355.151.142.27.316.347.508.09.232.133.479.127.727.005.264-.036.527-.118.778a1.808 1.808 0 0 1-.339.592 1.63 1.63 0 0 1-.54.406 2.73 2.73 0 0 1-.737.22c-.31.047-.624.07-.938.068a7.357 7.357 0 0 1-.914-.06c-.315-.04-.631-.093-.947-.16a9.493 9.493 0 0 1-.922-.246 17.606 17.606 0 0 1-.854-.296l.22 1.675c.289.107.582.2.88.279.27.07.544.127.82.169.265.04.53.07.795.093.265.022.533.034.803.034A8.315 8.315 0 0 0 49.324 18a4.314 4.314 0 0 0 1.471-.61c.419-.276.757-.658.981-1.107a3.742 3.742 0 0 0 .347-1.7 3.817 3.817 0 0 0-.195-1.286 2.497 2.497 0 0 0-.558-.912Zm9.303-2.665a3.635 3.635 0 0 0-2.022-.532 5.162 5.162 0 0 0-1.251.16 5.443 5.443 0 0 0-1.505.639v-.782l-1.726.27v12.076h1.726v-3.786l.033.015c.313.13.64.223.973.279a7 7 0 0 0 1.192.093 4.225 4.225 0 0 0 2.173-.558 4.015 4.015 0 0 0 1.523-1.615 5.4 5.4 0 0 0 .566-2.58 5.254 5.254 0 0 0-.431-2.198 3.395 3.395 0 0 0-1.251-1.48Zm-.449 5.658c-.203.45-.543.822-.972 1.066-.477.25-1.01.372-1.548.355a4.822 4.822 0 0 1-1.81-.345v-5.338c.023-.01.046-.024.068-.034.248-.113.48-.209.694-.288a3.467 3.467 0 0 1 1.2-.22 3.128 3.128 0 0 1 1.505.33c.408.222.728.577.905 1.006.215.55.316 1.136.296 1.726a4.038 4.038 0 0 1-.338 1.742ZM70.6 9.73a4.64 4.64 0 0 0-2.29-.542 4.618 4.618 0 0 0-2.31.558 3.9 3.9 0 0 0-1.54 1.573 4.975 4.975 0 0 0-.549 2.401 5.186 5.186 0 0 0 .516 2.394c.324.65.841 1.185 1.48 1.53a4.6 4.6 0 0 0 2.233.525 4.768 4.768 0 0 0 2.334-.558 3.939 3.939 0 0 0 1.581-1.59c.393-.75.588-1.589.567-2.436a4.902 4.902 0 0 0-.525-2.325 3.696 3.696 0 0 0-1.496-1.53Zm-.1 5.665c-.191.44-.513.809-.922 1.057-.412.236-.88.355-1.353.347a2.405 2.405 0 0 1-1.32-.355 2.382 2.382 0 0 1-.88-1.066 4.265 4.265 0 0 1-.32-1.759c-.02-.586.089-1.17.32-1.708a2.25 2.25 0 0 1 .906-1.015 2.734 2.734 0 0 1 1.395-.338c.38-.01.758.062 1.108.211.306.138.573.35.778.618.218.29.376.62.465.972.105.412.156.835.152 1.26a4.21 4.21 0 0 1-.33 1.776Zm7.754-6.081a3.34 3.34 0 0 0-.897.39c-.288.18-.555.393-.795.634-.04.04-.078.084-.118.126v-1.26l-1.725.254V18h1.725v-6.39a4.328 4.328 0 0 1 .922-.494 5.85 5.85 0 0 1 .532-.178 3.63 3.63 0 0 1 1.184-.126l.203-1.59a3.233 3.233 0 0 0-1.031.092Zm7.34 7.274a7.426 7.426 0 0 1-.262.05l-.287.05a2.47 2.47 0 0 1-.28.035c-.09.006-.175.008-.253.008a1.71 1.71 0 0 1-.753-.152 1.093 1.093 0 0 1-.482-.448 1.43 1.43 0 0 1-.17-.72v-4.684h2.386l.186-1.353h-2.571V6.702l-1.725.609v2.063H80.08l-.186 1.353h1.489v5.04a2.87 2.87 0 0 0 .152.99c.087.252.222.484.397.684.161.18.357.323.575.423.224.103.46.177.702.22.24.045.483.067.727.068a8.5 8.5 0 0 0 .533-.017 5.742 5.742 0 0 0 .897-.127c.13-.028.24-.053.33-.076l.101-1.404a1.256 1.256 0 0 1-.203.06Z" fill="#fff"/></svg>