<svg xmlns="http://www.w3.org/2000/svg" viewBox="0 0 147 24"><path fill="#7B0A02" d="M0 0h147v24H0z"/><path fill="#fff" d="M6.004 18V6.001h3.937V18H6.004Zm9.294-10.09L17.562 18h-4.309L10.55 6.001h2.416a2.276 2.276 0 0 1 1.513.55c.42.345.71.826.82 1.36ZM18.154 18V6.001h3.937V18h-3.937Zm6.91-7.436a2.383 2.383 0 0 1-2.4-2.4 2.303 2.303 0 0 1 .323-1.2 2.411 2.411 0 0 1 3.278-.861c.355.209.652.506.861.861.215.363.326.778.322 1.2a2.4 2.4 0 0 1-1.183 2.079 2.302 2.302 0 0 1-1.2.321ZM28.057 18V6.001h3.937V18h-3.937Zm8.922-5.442c.011.012.096.15.253.414.158.265.364.603.617 1.014a315.936 315.936 0 0 1 1.597 2.62c.247.411.529.876.845 1.394h-4.326c-.27-.44-.516-.837-.735-1.191-.22-.355-.453-.738-.7-1.15-.249-.41-.494-.81-.737-1.2-.242-.389-.45-.73-.625-1.022-.174-.293-.296-.49-.363-.591a1.748 1.748 0 0 1-.287-.845c.017-.29.11-.57.27-.812.068-.113.192-.313.372-.6s.391-.628.633-1.022c.243-.395.488-.797.736-1.209l.7-1.157.736-1.2h4.326l-3.346 5.458a1.08 1.08 0 0 0-.17.542c.012.201.082.395.203.557h.001Z"/><path fill="#FFC7BD" d="M45 18.002h1.775V13.05h4.529l.186-1.47h-4.715V7.49h6.134V6.002H45v12ZM59.948 9.738a4.637 4.637 0 0 0-2.29-.54 4.617 4.617 0 0 0-2.307.557 3.897 3.897 0 0 0-1.538 1.572 4.967 4.967 0 0 0-.55 2.4 5.182 5.182 0 0 0 .516 2.39c.324.65.84 1.185 1.48 1.53.687.36 1.454.54 2.23.524a4.764 4.764 0 0 0 2.332-.557 3.94 3.94 0 0 0 1.58-1.59c.393-.75.588-1.587.567-2.433a4.895 4.895 0 0 0-.524-2.324 3.694 3.694 0 0 0-1.496-1.529Zm-.102 5.662c-.189.439-.51.808-.92 1.056a2.622 2.622 0 0 1-1.352.346 2.405 2.405 0 0 1-1.319-.354 2.382 2.382 0 0 1-.879-1.065 4.267 4.267 0 0 1-.32-1.757c-.02-.586.09-1.17.32-1.708.19-.423.506-.777.905-1.014a2.735 2.735 0 0 1 1.394-.338c.38-.01.757.063 1.107.212.306.138.574.35.778.617.217.29.375.62.464.971.106.412.157.835.152 1.26a4.203 4.203 0 0 1-.33 1.774ZM66.725 16.76a1.46 1.46 0 0 1-.178.008.908.908 0 0 1-.371-.068.612.612 0 0 1-.254-.211.917.917 0 0 1-.143-.364 2.777 2.777 0 0 1-.043-.523V5.242l-1.724.254v10.867c-.007.284.04.568.136.836a1.41 1.41 0 0 0 .989.879c.245.064.498.095.751.093.136 0 .265-.006.39-.017a3.66 3.66 0 0 0 .659-.118l.168-1.335-.203.033c-.067.012-.126.02-.177.025ZM76.18 9.382h-2.112l-2.892 3.178h-.623V5.242l-1.724.254v12.506h1.724v-4.14h.028l3.453 4.14h2.231l-4.1-4.62 4.016-4ZM83.735 10.473a3.067 3.067 0 0 0-1.242-.955 4.338 4.338 0 0 0-1.716-.321 4.203 4.203 0 0 0-1.724.338c-.495.216-.936.54-1.292.946a4.136 4.136 0 0 0-.812 1.462 6.109 6.109 0 0 0-.278 1.901 5.118 5.118 0 0 0 .498 2.358c.321.637.84 1.152 1.479 1.47.75.353 1.572.524 2.4.498.398.004.796-.022 1.19-.076.331-.047.656-.123.973-.228.314-.105.619-.235.913-.388l.118-1.302c-.214.08-.431.158-.651.237-.22.079-.448.15-.684.211a5.094 5.094 0 0 1-.727.135 6.482 6.482 0 0 1-.744.043 5.33 5.33 0 0 1-1.318-.144 2.168 2.168 0 0 1-.938-.49 2.14 2.14 0 0 1-.574-.938 4.276 4.276 0 0 1-.184-1.115h6.107c.083-.7.052-1.407-.093-2.096a3.949 3.949 0 0 0-.701-1.546Zm-4.259.405a2.39 2.39 0 0 1 1.318-.346c.464-.024.923.11 1.302.38.336.268.576.64.684 1.056.084.309.126.627.123.947H78.46c.03-.337.103-.67.214-.99.144-.428.427-.796.803-1.047ZM98.32 9.551a2.94 2.94 0 0 0-1.505-.354 3.953 3.953 0 0 0-1.335.228 4.704 4.704 0 0 0-1.216.65 6.13 6.13 0 0 0-.6.507 2.118 2.118 0 0 0-.871-1.014 2.977 2.977 0 0 0-1.52-.355c-.453 0-.902.078-1.328.229a4.81 4.81 0 0 0-1.58.924V9.214l-1.724.254v8.534h1.724v-6.428c.203-.133.415-.252.634-.357.268-.127.548-.226.836-.296.266-.065.538-.1.812-.101.25-.008.5.035.735.127.193.082.364.21.498.371.147.189.248.409.296.643.066.302.097.611.093.92v5.121h1.724v-5.476a6.805 6.805 0 0 0-.065-.966c.195-.128.397-.246.606-.352.263-.132.54-.234.828-.304.27-.066.549-.1.828-.101.248-.007.495.037.727.126.197.08.371.208.507.372.147.189.248.408.295.642.066.303.097.612.093.921v5.138h1.724V12.51a4.92 4.92 0 0 0-.304-1.877 2.178 2.178 0 0 0-.913-1.082ZM107.783 15.898a4.39 4.39 0 0 1-.38.21 6.332 6.332 0 0 1-.617.263 4.04 4.04 0 0 1-.617.169c-.214.04-.432.06-.65.06a2.084 2.084 0 0 1-1.031-.229 1.372 1.372 0 0 1-.6-.693 2.96 2.96 0 0 1-.195-1.14V9.213l-1.723.253v5.374c-.021.642.091 1.28.329 1.876.196.47.548.859.997 1.099.501.25 1.055.372 1.614.355.354.003.706-.04 1.048-.127.327-.084.642-.21.938-.371.305-.168.593-.363.862-.584.049-.04.098-.087.148-.13l.249 1.042h1.335l.017-8.788-1.724.254v6.431ZM117.484 14.115a2.536 2.536 0 0 0-.592-.465 4.574 4.574 0 0 0-.71-.33c-.18-.056-.357-.115-.532-.177a9.399 9.399 0 0 0-.524-.17 10.41 10.41 0 0 1-.507-.16 3.708 3.708 0 0 1-.448-.186 2.926 2.926 0 0 1-.397-.253 1.094 1.094 0 0 1-.287-.321.804.804 0 0 1-.11-.423.871.871 0 0 1 .118-.465.963.963 0 0 1 .355-.33c.177-.096.368-.165.566-.202.248-.047.5-.07.752-.067a5.477 5.477 0 0 1 .887.076c.175.028.35.065.524.11.175.044.352.095.533.151.167.052.33.114.49.187l.118-1.37a8.107 8.107 0 0 0-.634-.236 6.276 6.276 0 0 0-.633-.17 5.121 5.121 0 0 0-.634-.092 7.642 7.642 0 0 0-.617-.026 5.572 5.572 0 0 0-1.386.16 3.507 3.507 0 0 0-1.09.474 2.16 2.16 0 0 0-.718.794 2.413 2.413 0 0 0-.254 1.141c-.005.285.041.568.136.837.08.225.2.434.355.617.15.172.323.323.515.447a3.5 3.5 0 0 0 .634.33c.123.045.253.09.388.135.136.045.268.087.398.127a38.039 38.039 0 0 1 .743.237c.118.039.234.075.347.11.151.053.298.118.439.194.124.065.24.145.346.236a.86.86 0 0 1 .296.668.847.847 0 0 1-.279.668 1.62 1.62 0 0 1-.726.346c-.314.069-.634.103-.955.101a4.701 4.701 0 0 1-.6-.042 8.913 8.913 0 0 1-.693-.118c-.242-.051-.49-.113-.744-.186a15.636 15.636 0 0 1-.769-.245l.068 1.437c.293.101.56.183.803.245.242.062.473.115.693.16.211.044.426.072.642.085.208.01.419.016.634.016.471.003.941-.046 1.402-.144a3.623 3.623 0 0 0 1.15-.447c.319-.195.584-.469.769-.795.193-.357.289-.759.278-1.165a2.368 2.368 0 0 0-.143-.87 1.985 1.985 0 0 0-.397-.634ZM121.547 5.673a1.092 1.092 0 0 0-.583-.16 1.135 1.135 0 0 0-.591.16 1.248 1.248 0 0 0-.431.422 1.1 1.1 0 0 0-.161.583 1.14 1.14 0 0 0 .161.592c.103.177.252.323.431.422.18.102.384.154.591.153.205.002.406-.05.583-.153.174-.1.317-.246.414-.422.102-.18.154-.384.152-.592a1.136 1.136 0 0 0-.152-.583 1.194 1.194 0 0 0-.414-.422ZM120.069 18.002h1.724V9.213l-1.724.254v8.534ZM131.781 9.382h-2.112l-2.892 3.178h-.624V5.242l-1.723.254v12.506h1.723v-4.14h.029l3.452 4.14h2.231l-4.099-4.62 4.015-4ZM138.507 18.002h2.231l-4.099-4.62 4.015-4h-2.113l-2.892 3.178h-.623V5.242l-1.724.254v12.506h1.724v-4.14h.028l3.453 4.14Z"/></svg>