<svg xmlns="http://www.w3.org/2000/svg" viewBox="0 0 52 36" fill="#00B3C7"><path d="M25.886 30.554c.081.214.12.441.114.67.01.308-.065.613-.215.883-.144.245-.346.45-.589.6-.271.163-.57.279-.88.34-.359.074-.724.11-1.09.107-.169 0-.335-.004-.5-.012a3.468 3.468 0 0 1-.5-.064 8.151 8.151 0 0 1-.532-.126c-.186-.05-.393-.114-.62-.19l-.052-1.148c.195.067.391.13.59.19a6.697 6.697 0 0 0 1.114.233c.158.02.316.03.475.031.232.002.463-.022.69-.069.191-.035.37-.117.52-.24a.594.594 0 0 0 .196-.473.547.547 0 0 0-.064-.259.71.71 0 0 0-.177-.214 1.363 1.363 0 0 0-.266-.17 3.596 3.596 0 0 0-.317-.14 9.93 9.93 0 0 1-.26-.081 7.558 7.558 0 0 0-.57-.17 3.327 3.327 0 0 1-.576-.202 2.853 2.853 0 0 1-.48-.247 1.682 1.682 0 0 1-.394-.34 1.465 1.465 0 0 1-.26-.468 1.876 1.876 0 0 1-.095-.624 1.838 1.838 0 0 1 .19-.858c.128-.245.316-.453.546-.606.258-.17.546-.291.848-.36a4.55 4.55 0 0 1 1.076-.12c.16 0 .323.007.488.02.164.012.327.033.488.063a3.804 3.804 0 0 1 .962.31l-.1 1.11c-.121-.06-.246-.111-.375-.152a6.154 6.154 0 0 0-.399-.114 4.824 4.824 0 0 0-.766-.126 4.249 4.249 0 0 0-.31-.013 2.668 2.668 0 0 0-.545.05 1.49 1.49 0 0 0-.412.146.651.651 0 0 0-.252.233.603.603 0 0 0-.083.316.57.57 0 0 0 .082.309.82.82 0 0 0 .21.227c.09.067.188.124.29.17.108.053.218.1.33.14.118.041.242.08.374.113.13.034.262.074.392.12l.387.133c.19.065.374.145.55.239.17.09.324.208.457.347.132.142.238.307.31.486Zm5.487-3.912 1.444-.214-.013 6.6h-1.127l-.201-.82-.096.088c-.2.18-.418.336-.652.467a3.2 3.2 0 0 1-.716.29 3.088 3.088 0 0 1-.804.1 2.507 2.507 0 0 1-1.21-.27 1.718 1.718 0 0 1-.754-.82c-.169-.366-.253-.836-.253-1.408v-4.013l1.444-.214v3.962c-.008.282.039.563.14.827.08.21.233.387.43.499.235.118.496.175.76.164.159 0 .318-.015.474-.044a3.292 3.292 0 0 0 .9-.31c.076-.039.154-.082.234-.127v-4.757Zm7.919.171a2.737 2.737 0 0 0-1.508-.398c-.32.002-.64.044-.95.127-.331.088-.65.218-.95.385-.055.03-.11.065-.164.099v-.598l-1.444.228v9.01h1.444v-2.835c.23.097.47.17.715.217.303.057.61.084.919.081a3.216 3.216 0 0 0 1.634-.415c.49-.288.887-.708 1.146-1.212.283-.53.424-1.174.424-1.931a3.959 3.959 0 0 0-.322-1.647 2.522 2.522 0 0 0-.944-1.111Zm-.456 4.19a1.658 1.658 0 0 1-.71.77c-.351.181-.744.27-1.14.258-.182 0-.364-.012-.544-.038a3.298 3.298 0 0 1-.557-.132 8.005 8.005 0 0 1-.165-.056v-3.913l.013-.006c.177-.08.344-.147.5-.202a2.91 2.91 0 0 1 .45-.12 2.42 2.42 0 0 1 .417-.038c.38-.013.757.07 1.096.24.295.164.527.422.659.732.16.396.236.822.222 1.25.013.43-.07.859-.241 1.255Zm7.227-.933c.25-.074.485-.194.69-.354.177-.14.318-.32.413-.523.093-.207.14-.43.139-.657a1.854 1.854 0 0 0-.172-.77 1.987 1.987 0 0 0-.506-.674 2.427 2.427 0 0 0-.842-.468 3.71 3.71 0 0 0-1.178-.17c-.693 0-1.28.145-1.76.435-.48.288-.86.716-1.09 1.225a4.307 4.307 0 0 0-.367 1.836c0 .698.128 1.288.386 1.767.258.48.664.865 1.159 1.098.515.252 1.148.379 1.9.379.28.001.56-.018.836-.057.246-.036.488-.095.722-.177.228-.08.46-.174.697-.284l.088-1.047a8.377 8.377 0 0 1-1.007.322 4.784 4.784 0 0 1-1.171.132 3.5 3.5 0 0 1-.938-.114 1.447 1.447 0 0 1-1.07-1.06 3.049 3.049 0 0 1-.105-.553l2.202-.116c.33-.018.657-.075.974-.17Zm-3.305-.651c.016-.308.077-.611.181-.902.105-.306.305-.571.57-.757.275-.171.595-.257.919-.246.262-.01.524.044.76.158.178.09.327.228.43.398.089.145.137.31.14.48a.71.71 0 0 1-.095.372.655.655 0 0 1-.317.252 1.857 1.857 0 0 1-.59.12l-1.998.125ZM52 26.459l-.177 1.3a3.693 3.693 0 0 0-.488.006 2.722 2.722 0 0 0-.437.07 3.475 3.475 0 0 0-.399.126 2.56 2.56 0 0 0-.386.189 9.413 9.413 0 0 0-.278.176v4.696H48.39v-6.387l1.444-.214v1.014l.07-.08c.175-.197.373-.372.589-.524a2.21 2.21 0 0 1 .69-.322c.267-.068.544-.085.817-.05ZM0 33.06V26.54h2.158v6.522H0Zm5.094-5.483 1.24 5.484h-2.36L2.49 26.539h1.325c.304-.004.598.102.829.298.23.189.39.45.449.74Zm1.565 5.484v-6.522h2.158v6.522H6.659Zm3.788-4.042a1.295 1.295 0 0 1-.662-.174 1.3 1.3 0 0 1-.477-1.783 1.317 1.317 0 0 1 1.139-.643c.231-.002.458.058.657.175.196.114.358.275.473.468.117.198.178.423.176.653a1.31 1.31 0 0 1-.649 1.13 1.27 1.27 0 0 1-.657.174Zm1.64 4.042v-6.522h2.157v6.522h-2.158Zm4.89-2.958a51.501 51.501 0 0 0 .477.776 164.864 164.864 0 0 1 .875 1.424c.135.224.29.476.463.758H16.42l-.403-.648a59.74 59.74 0 0 1-.384-.624c-.136-.224-.27-.441-.404-.653a33.164 33.164 0 0 1-.342-.555 9.618 9.618 0 0 0-.2-.322.945.945 0 0 1-.157-.46c.01-.157.06-.309.148-.44.037-.061.105-.17.204-.326a68.026 68.026 0 0 0 .75-1.213 283.186 283.186 0 0 1 .788-1.281h2.37l-1.833 2.967a.584.584 0 0 0-.093.294c.006.11.045.215.111.303Z"/><path fill-rule="evenodd" d="M26.167 0c-6.284 0-11.411 5.11-11.411 11.37 0 6.25 5.127 11.372 11.411 11.372 6.271 0 11.412-5.122 11.412-11.371C37.579 5.11 32.439 0 26.167 0Zm-9.173 11.37c0 5.049 4.143 9.227 9.173 9.227 5.078 0 9.174-4.178 9.173-9.226 0-5.11-4.095-9.227-9.173-9.227-5.03 0-9.173 4.117-9.173 9.227Zm7.156.038a1.724 1.724 0 0 1-1.083 1.619c-.214.087-.444.13-.675.127-.465 0-.91-.184-1.24-.512a1.743 1.743 0 0 1 0-2.47 1.756 1.756 0 0 1 1.24-.51 1.742 1.742 0 0 1 1.63 1.073c.087.213.13.442.128.673Zm7.98-.81-1.155.92c-.086.06-.086.122-.061.22l.38 1.41c.026.073-.011.085-.06.048l-1.243-.808a.183.183 0 0 0-.221 0l-1.254.82c-.05.037-.087.013-.062-.06l.381-1.41a.186.186 0 0 0-.05-.22l-1.167-.944c-.037-.036-.037-.085.024-.085l1.464-.062a.148.148 0 0 0 .148-.11l.565-1.41c.037-.085.087-.073.111 0l.492 1.361a.204.204 0 0 0 .221.16l1.451.06c.086 0 .098.062.037.11Z" clip-rule="evenodd"/></svg>