<svg xmlns="http://www.w3.org/2000/svg" viewBox="0 0 204 48"><path fill="#fff" d="M162.166 3.017h-12.954s7.361 12.084 7.444 12.236a2.04 2.04 0 0 1 .048 2.47l-7.492 12.281h12.956s6.248-10.216 7.102-11.635a3.098 3.098 0 0 0-.034-3.753c-.922-1.57-.924-1.568-7.07-11.599ZM147.538 3.017H136v41.977h11.538V3.017ZM202.743 9.971c-.436-.742-4.292-6.954-4.292-6.954h-27.729l6.057 10.16h14.606l-6.025 9.877 6.716 11.284-6.482 10.653h11.838c1.903-3.113 4.749-7.93 5.343-8.916a3.111 3.111 0 0 0-.034-3.769c-.593-1.011-3.763-6.04-5.658-9.135 0 0 5.098-8.446 5.692-9.433a3.105 3.105 0 0 0-.032-3.767Z"/><path fill="#fff" d="M176.07 24.418c-1.825 2.98-4.877 7.976-5.449 8.95a2.998 2.998 0 0 0-.033 3.63c.572.95 3.648 5.986 5.482 8.988 1.833-3 4.91-8.034 5.482-8.987a3 3 0 0 0-.033-3.631c-.572-.974-3.625-5.97-5.449-8.95ZM0 45V3.004h13.78V45H0ZM32.528 9.688 40.453 45h-15.08L15.908 3.004h8.459a7.965 7.965 0 0 1 5.293 1.922 8.31 8.31 0 0 1 2.867 4.762ZM42.523 45V3.004h13.78V45h-13.78Zm24.189-26.026a8.213 8.213 0 0 1-4.228-1.124 8.336 8.336 0 0 1-3.046-3.046 8.206 8.206 0 0 1-1.125-4.229 8.056 8.056 0 0 1 1.125-4.2 8.437 8.437 0 0 1 3.046-3.016 8.232 8.232 0 0 1 4.228-1.124 8.083 8.083 0 0 1 4.199 1.124 8.503 8.503 0 0 1 3.016 3.016 8.075 8.075 0 0 1 1.125 4.2 8.226 8.226 0 0 1-1.125 4.23 8.4 8.4 0 0 1-3.016 3.045 8.059 8.059 0 0 1-4.201 1.124h.002ZM77.18 45V3.004h13.781V45H77.181Zm31.227-19.046c.039.04.334.524.887 1.449.553.925 1.272 2.108 2.159 3.549a1143.28 1143.28 0 0 1 5.589 9.168A854.89 854.89 0 0 0 120 45h-15.141c-.947-1.538-1.804-2.928-2.573-4.17a382.214 382.214 0 0 1-2.453-4.022 351.934 351.934 0 0 0-2.574-4.2 213.445 213.445 0 0 1-2.188-3.578 62.753 62.753 0 0 0-1.272-2.07 6.119 6.119 0 0 1-1.005-2.958 5.744 5.744 0 0 1 .946-2.84c.236-.394.67-1.095 1.3-2.1.632-1.006 1.371-2.198 2.219-3.579a636.03 636.03 0 0 0 2.574-4.229c.869-1.439 1.686-2.79 2.453-4.052.77-1.26 1.628-2.66 2.573-4.2H120l-11.711 19.106a3.773 3.773 0 0 0-.592 1.894c.039.706.286 1.385.709 1.952h.002Z"/></svg>