<svg xmlns="http://www.w3.org/2000/svg" viewBox="0 0 68 24"><path fill="#78003D" d="M0 0h68v24H0z"/><path fill="#fff" d="M6.004 18V6.001h3.937V18H6.004Zm9.294-10.09L17.562 18h-4.309L10.55 6.001h2.416a2.276 2.276 0 0 1 1.513.55c.42.345.71.826.82 1.36ZM18.154 18V6.001h3.937V18h-3.937Zm6.91-7.436a2.382 2.382 0 0 1-2.4-2.4 2.303 2.303 0 0 1 .323-1.2 2.412 2.412 0 0 1 3.278-.861c.355.209.652.506.861.861.215.364.326.779.322 1.2a2.4 2.4 0 0 1-1.183 2.079 2.302 2.302 0 0 1-1.2.321ZM28.057 18V6.001h3.937V18h-3.937Zm8.922-5.442c.011.012.096.15.253.414.158.265.364.603.617 1.014a315.936 315.936 0 0 1 1.597 2.62c.247.411.529.876.845 1.394h-4.326c-.27-.44-.516-.837-.735-1.191-.22-.355-.453-.738-.7-1.15-.249-.41-.494-.81-.737-1.2-.242-.389-.45-.73-.625-1.022-.174-.293-.296-.49-.363-.591a1.748 1.748 0 0 1-.287-.845c.017-.29.11-.57.27-.812.068-.113.192-.313.372-.6s.391-.628.633-1.022c.243-.395.488-.797.736-1.209l.7-1.157.736-1.2h4.326l-3.346 5.458a1.08 1.08 0 0 0-.17.542c.012.201.082.395.203.557h.001Z"/><path fill="#FDAFD7" d="M53.16 7.555a3.013 3.013 0 0 0-.787-.82 3.785 3.785 0 0 0-1.143-.541A5.422 5.422 0 0 0 49.707 6H45v12h1.778v-4.31h3.064a4.003 4.003 0 0 0 1.98-.49 3.661 3.661 0 0 0 1.398-1.37 4.03 4.03 0 0 0 .516-2.078 4.94 4.94 0 0 0-.135-1.167 3.357 3.357 0 0 0-.44-1.03Zm-1.574 3.642a1.998 1.998 0 0 1-.957.786 3.95 3.95 0 0 1-1.498.253h-2.354V7.47h2.591a3.23 3.23 0 0 1 1.44.279c.358.173.652.458.837.811.196.396.292.834.28 1.276.019.477-.099.949-.34 1.361ZM57.184 16.546c.269-.23.544-.468.835-.727.406-.36.816-.752 1.228-1.174a20.18 20.18 0 0 0 1.176-1.318c.362-.442.693-.908.99-1.395.279-.452.506-.934.678-1.436.16-.463.243-.948.245-1.437a3.115 3.115 0 0 0-.27-1.326 2.868 2.868 0 0 0-.796-1.014 3.632 3.632 0 0 0-1.312-.66 6.49 6.49 0 0 0-1.803-.228 6.676 6.676 0 0 0-1.177.101c-.37.066-.732.165-1.084.297-.335.125-.66.274-.973.447l.22 1.47c.268-.179.555-.329.855-.447.326-.131.663-.233 1.007-.305.351-.073.709-.11 1.067-.11.375-.007.75.044 1.109.153.286.087.55.237.77.44.2.184.352.413.449.667.098.268.147.551.144.836a3.737 3.737 0 0 1-.288 1.395 7.421 7.421 0 0 1-.813 1.47c-.379.538-.792 1.052-1.236 1.538-.474.524-.99 1.048-1.549 1.572-.558.524-1.137 1.056-1.735 1.597L55.14 18h7.33l.204-1.454h-5.49Z"/></svg>