<svg xmlns="http://www.w3.org/2000/svg" viewBox="0 0 35 41"><path fill="#fff" d="M0 18V6h3.937v12H0ZM9.294 7.91 11.558 18H7.25L4.545 6h2.417a2.276 2.276 0 0 1 1.513.55c.42.346.71.826.819 1.36ZM12.149 18V6h3.938v12h-3.938Zm6.912-7.436a2.381 2.381 0 0 1-2.078-1.192 2.345 2.345 0 0 1-.322-1.208 2.301 2.301 0 0 1 .321-1.2 2.41 2.41 0 0 1 3.278-.862c.356.21.653.506.862.862.215.363.326.778.321 1.2a2.35 2.35 0 0 1-.321 1.208 2.4 2.4 0 0 1-.862.87 2.303 2.303 0 0 1-1.2.322ZM22.05 18V6h3.938v12h-3.937Zm8.923-5.442c.01.011.095.15.253.414s.364.602.617 1.014a316.22 316.22 0 0 1 1.597 2.62c.247.41.529.875.845 1.393H29.96c-.27-.439-.516-.836-.736-1.191-.22-.355-.453-.738-.7-1.15-.248-.41-.493-.81-.736-1.2-.242-.388-.45-.729-.625-1.021a18.04 18.04 0 0 0-.363-.592 1.747 1.747 0 0 1-.287-.845c.016-.29.11-.57.27-.811.067-.113.191-.313.371-.6a182.36 182.36 0 0 0 1.37-2.23l.7-1.159.736-1.2h4.326L30.94 11.46a1.08 1.08 0 0 0-.17.541c.012.202.082.396.203.558Z"/><path fill="#FFA90A" d="M8.145 24.554a3.02 3.02 0 0 0-.786-.82 3.767 3.767 0 0 0-1.14-.54A5.399 5.399 0 0 0 4.697 23H0v11.997h1.774v-4.309h3.059c.69.01 1.371-.158 1.977-.49a3.655 3.655 0 0 0 1.394-1.369 4.034 4.034 0 0 0 .515-2.078 4.931 4.931 0 0 0-.135-1.166 3.361 3.361 0 0 0-.44-1.031Zm-1.572 3.642a2 2 0 0 1-.954.785c-.478.181-.986.267-1.496.254H1.774V24.47H4.36c.494-.019.985.077 1.436.279.359.173.652.457.836.81.196.397.291.835.28 1.277.019.476-.099.948-.339 1.36ZM12.327 23.397a21.8 21.8 0 0 1-.71.363c-.23.112-.464.225-.701.338a8.159 8.159 0 0 1-.727.304c-.248.09-.512.18-.794.27l.372 1.437c.338-.102.645-.203.92-.305.271-.099.536-.211.795-.337.254-.124.507-.26.76-.406l.01-.005v9.942h1.756V23h-.912c-.27.134-.527.267-.77.397ZM23.218 30.502a2.66 2.66 0 0 0-.541-.913 2.63 2.63 0 0 0-.887-.624 4.264 4.264 0 0 0-1.209-.322v-.05c.506-.161.976-.416 1.386-.753.366-.3.668-.67.887-1.09.208-.401.315-.848.313-1.3a2.343 2.343 0 0 0-.254-1.107 2.356 2.356 0 0 0-.743-.828A3.447 3.447 0 0 0 20.979 23a6.846 6.846 0 0 0-1.597-.17 8.358 8.358 0 0 0-2.13.296c-.339.092-.667.22-.98.38l.237 1.336a9.54 9.54 0 0 1 .718-.263 6.875 6.875 0 0 1 1.293-.278c.196-.022.394-.034.591-.034a4.83 4.83 0 0 1 1.065.101c.254.051.495.152.71.296.175.124.312.293.397.49.089.223.132.461.127.701a1.96 1.96 0 0 1-.229.947 2.192 2.192 0 0 1-.642.726c-.3.214-.634.375-.988.474a4.48 4.48 0 0 1-1.268.169h-.32l-.204 1.318h.541a7.56 7.56 0 0 1 1.487.127c.367.065.72.197 1.04.388.261.16.474.388.616.66.141.291.211.613.203.937.009.328-.055.654-.186.955a1.631 1.631 0 0 1-.566.659c-.293.19-.62.322-.963.388a6.53 6.53 0 0 1-1.377.127 7.28 7.28 0 0 1-1.014-.068 7.871 7.871 0 0 1-.566-.092 18.01 18.01 0 0 1-.65-.144l-.22 1.436c.247.045.486.087.718.127.23.04.459.073.684.101.225.028.445.048.659.06.214.01.422.016.625.016a8.289 8.289 0 0 0 1.606-.144c.45-.083.885-.231 1.292-.439.356-.18.677-.424.947-.718a2.87 2.87 0 0 0 .574-.971c.134-.395.2-.81.194-1.226a3.471 3.471 0 0 0-.185-1.166Z"/></svg>