<svg xmlns="http://www.w3.org/2000/svg" viewBox="0 0 91 24"><path fill="#fff" d="M0 17.997V5.998h3.937v11.999H0Zm9.294-10.09 2.264 10.09H7.25L4.545 5.998h2.417a2.276 2.276 0 0 1 1.513.55c.42.345.71.826.819 1.36Zm2.855 10.09V5.998h3.938v11.999h-3.938Zm6.912-7.436a2.381 2.381 0 0 1-2.078-1.191 2.345 2.345 0 0 1-.322-1.209 2.301 2.301 0 0 1 .321-1.2A2.41 2.41 0 0 1 20.26 6.1c.356.21.653.507.862.862.215.363.326.778.321 1.2a2.35 2.35 0 0 1-.321 1.209 2.4 2.4 0 0 1-.862.87 2.302 2.302 0 0 1-1.2.321Zm2.99 7.436V5.998h3.938v11.999h-3.937Zm8.923-5.442c.01.012.095.15.253.414.158.265.364.603.617 1.014a322.716 322.716 0 0 1 1.597 2.62c.247.411.529.876.845 1.394H29.96c-.27-.44-.516-.837-.736-1.192-.22-.354-.453-.738-.7-1.149-.248-.41-.493-.81-.736-1.2-.242-.389-.45-.73-.625-1.022a18.04 18.04 0 0 0-.363-.591 1.747 1.747 0 0 1-.287-.845c.016-.29.11-.57.27-.812.067-.113.191-.313.371-.6s.392-.628.634-1.022c.242-.395.488-.797.736-1.209l.7-1.157.736-1.2h4.326l-3.346 5.458a1.08 1.08 0 0 0-.17.542c.012.201.082.395.203.557Z"/><path fill="#9FDAF5" d="M46.667 6.004h-9.553v1.487h3.892v10.51h1.785V7.49h3.876V6.004ZM50.152 9.325a3.37 3.37 0 0 0-.9.388 4.44 4.44 0 0 0-.8.634c-.04.04-.08.084-.119.126V9.215l-1.734.253v8.533h1.734v-6.384a4.388 4.388 0 0 1 .926-.493c.176-.068.355-.127.536-.177a3.635 3.635 0 0 1 1.19-.127l.204-1.588a3.262 3.262 0 0 0-1.037.093ZM59.91 16.936a.78.78 0 0 1-.663-.27 1.447 1.447 0 0 1-.187-.896l.034-3.48a4.037 4.037 0 0 0-.136-1.082 2.644 2.644 0 0 0-.408-.861 2.3 2.3 0 0 0-.706-.626 3.613 3.613 0 0 0-1.028-.388 6.103 6.103 0 0 0-1.343-.135 8.46 8.46 0 0 0-1.07.067 7.394 7.394 0 0 0-.995.195c-.303.081-.601.18-.893.295l-.204 1.436a10.074 10.074 0 0 1 1.547-.422c.233-.044.469-.075.705-.093.232-.017.462-.025.69-.025.346-.008.692.032 1.028.118.244.061.47.183.654.355.164.167.28.374.34.6.072.278.107.565.102.853l-.002.422-1.987.134c-.68.02-1.35.168-1.972.44a2.822 2.822 0 0 0-1.164.937 2.174 2.174 0 0 0-.383 1.242c-.003.416.1.825.298 1.191.208.376.52.684.9.887.464.24.983.356 1.505.338.49.011.977-.069 1.437-.236a3.312 3.312 0 0 0 1.07-.676c.118-.112.23-.23.335-.354.033.175.095.343.184.497.151.26.384.461.663.575.307.123.637.183.969.177.102 0 .2-.003.297-.008.095-.006.189-.02.28-.043l.247-.059c.067-.014.132-.034.195-.059l.188-1.132c-.094.032-.191.055-.29.068-.078.01-.158.017-.237.018Zm-2.548-1.027a2.265 2.265 0 0 1-.284.267c-.184.144-.383.269-.595.371-.21.102-.433.176-.662.22-.238.046-.48.068-.723.067a1.929 1.929 0 0 1-.807-.152 1.105 1.105 0 0 1-.502-.43 1.254 1.254 0 0 1-.17-.668c-.016-.281.062-.56.221-.794a1.3 1.3 0 0 1 .714-.422c.435-.102.88-.147 1.326-.135h1.489l-.007 1.676ZM66.31 5.38a5.565 5.565 0 0 0-1.114-.102 3.443 3.443 0 0 0-1.088.169c-.333.109-.638.29-.892.532a2.477 2.477 0 0 0-.595.904c-.15.411-.222.847-.213 1.284v1.217h-1.275V10.7h1.275v7.3h1.734v-7.3h2.38V9.384h-2.38V7.98a1.578 1.578 0 0 1 .094-.566c.055-.153.145-.292.263-.405.123-.113.272-.194.434-.237a2.12 2.12 0 0 1 .586-.076c.136 0 .266.006.391.017.125.011.246.028.366.05l.34.068c.096.02.19.048.28.085l-.068-1.402a4.102 4.102 0 0 0-.519-.136ZM68.205 18h1.734V9.216l-1.734.253v8.533ZM69.692 5.675a1.107 1.107 0 0 0-.586-.16 1.148 1.148 0 0 0-.595.16 1.244 1.244 0 0 0-.434.422 1.086 1.086 0 0 0-.161.583 1.15 1.15 0 0 0 .595 1.014c.181.101.386.154.595.152.205.002.408-.05.586-.152.175-.1.319-.247.417-.422.102-.18.154-.385.153-.592a1.135 1.135 0 0 0-.153-.583 1.198 1.198 0 0 0-.417-.422ZM79.985 9.384H77.86l-2.909 3.176h-.627V5.244l-1.734.254V18h1.734v-4.139h.029l3.473 4.14h2.244l-4.124-4.619 4.039-3.998ZM88.909 9.384h-2.125l-2.91 3.176h-.626V5.244l-1.734.254V18h1.734v-4.139h.028l3.473 4.14h2.244l-4.123-4.619 4.038-3.998Z"/></svg>