<svg xmlns="http://www.w3.org/2000/svg" viewBox="0 0 63 22"><path fill="#fff" d="M0 18V4.001h4.593V18H0ZM10.843 6.23 13.484 18H8.457L5.303 4.001h2.82a2.655 2.655 0 0 1 1.764.641c.491.404.829.964.956 1.587ZM14.174 18V4.001h4.594V18h-4.594Zm8.063-8.675a2.737 2.737 0 0 1-1.409-.375 2.778 2.778 0 0 1-1.015-1.015 2.735 2.735 0 0 1-.375-1.41 2.685 2.685 0 0 1 .375-1.4 2.812 2.812 0 0 1 3.824-1.005c.415.244.761.59 1.005 1.005.251.424.38.908.375 1.4.005.495-.125.982-.375 1.41a2.8 2.8 0 0 1-1.005 1.015c-.424.251-.907.38-1.4.375ZM25.727 18V4.001h4.594V18h-4.594Zm10.409-6.349c.013.014.111.175.296.483.184.309.424.703.72 1.183a384.573 384.573 0 0 1 1.862 3.056c.289.48.617 1.023.986 1.627h-5.047l-.858-1.39c-.256-.414-.529-.861-.817-1.34-.29-.48-.576-.947-.858-1.4a71.148 71.148 0 0 1-.73-1.193 21.006 21.006 0 0 0-.424-.69 2.04 2.04 0 0 1-.334-.986c.019-.338.128-.665.315-.947.078-.131.223-.365.433-.7a216.97 216.97 0 0 0 1.598-2.603l.817-1.35.858-1.4H40l-3.904 6.368c-.12.19-.189.407-.197.632a1.2 1.2 0 0 0 .237.65ZM56.366 1.476A10.4 10.4 0 0 1 59.66 3.7a10.396 10.396 0 0 1 2.224 3.297c.539 1.271.812 2.64.802 4.02a10.065 10.065 0 0 1-.802 4.002 10.404 10.404 0 0 1-5.52 5.52c-1.27.539-2.64.812-4.02.802-1.381.01-2.75-.263-4.021-.802a10.288 10.288 0 0 1-3.287-2.223 10.48 10.48 0 0 1-2.213-3.297 10.06 10.06 0 0 1-.803-4.002c-.01-1.38.263-2.749.803-4.02a10.471 10.471 0 0 1 2.213-3.297 10.286 10.286 0 0 1 3.287-2.223c1.271-.539 2.64-.812 4.02-.802 1.382-.01 2.75.263 4.022.802Zm-.774 17.177a8.33 8.33 0 0 0 2.649-1.77 8.193 8.193 0 0 0 2.416-5.867 8.197 8.197 0 0 0-.638-3.228 8.256 8.256 0 0 0-1.778-2.648 8.396 8.396 0 0 0-2.649-1.789 8.148 8.148 0 0 0-3.247-.647 8.097 8.097 0 0 0-3.229.647 8.395 8.395 0 0 0-4.437 4.437 8.096 8.096 0 0 0-.647 3.228 8.094 8.094 0 0 0 .647 3.23 8.273 8.273 0 0 0 1.788 2.638 8.331 8.331 0 0 0 2.65 1.769 8.199 8.199 0 0 0 3.228.638 8.248 8.248 0 0 0 3.247-.638Zm-7.762-6.476a1.52 1.52 0 0 1-.454-1.102 1.567 1.567 0 0 1 .454-1.14 1.496 1.496 0 0 1 1.112-.465 1.583 1.583 0 0 1 1.15.464 1.535 1.535 0 0 1 .474 1.14 1.49 1.49 0 0 1-.474 1.103 1.584 1.584 0 0 1-1.15.464 1.496 1.496 0 0 1-1.112-.464Zm7.859-3.383c.013-.04.039-.04.077 0l.464 1.256a.152.152 0 0 0 .155.116l1.372.039c.026 0 .039.01.039.03a.106.106 0 0 1-.039.067l-.986.85a.145.145 0 0 0-.09.076.146.146 0 0 0-.006.118l.348 1.256c0 .065-.02.097-.058.097l-1.14-.754a.348.348 0 0 0-.233 0l-1.082.754c-.052 0-.071-.032-.058-.097l.348-1.256a.209.209 0 0 0-.097-.194l-1.024-.85a.152.152 0 0 1-.02-.068c0-.02.007-.03.02-.03l1.372-.038a.164.164 0 0 0 .174-.116l.464-1.257Z"/></svg>