<svg xmlns="http://www.w3.org/2000/svg" viewBox="0 0 131 56"><path fill="#fff" d="M0 15V1.001h4.593v14H0ZM10.843 3.23 13.484 15H8.457L5.303 1.001h2.82a2.655 2.655 0 0 1 1.764.641c.491.404.829.964.956 1.587ZM14.174 15V1.001h4.594v14h-4.594Zm8.063-8.675a2.737 2.737 0 0 1-1.409-.375 2.778 2.778 0 0 1-1.015-1.015 2.735 2.735 0 0 1-.375-1.41 2.685 2.685 0 0 1 .375-1.4 2.812 2.812 0 0 1 3.824-1.005c.415.244.761.59 1.005 1.005.251.424.38.908.375 1.4.005.495-.125.982-.375 1.41a2.8 2.8 0 0 1-1.005 1.015c-.424.251-.908.38-1.4.375ZM25.727 15V1.001h4.594v14h-4.594Zm10.409-6.349c.013.014.111.175.296.483.184.309.424.703.72 1.183a384.573 384.573 0 0 1 1.862 3.056c.289.48.617 1.023.986 1.627h-5.047l-.858-1.39c-.256-.414-.529-.86-.817-1.34-.29-.48-.576-.947-.858-1.4a71.337 71.337 0 0 1-.73-1.193 21.112 21.112 0 0 0-.424-.69A2.04 2.04 0 0 1 30.932 8c.019-.338.128-.665.315-.947.078-.131.223-.365.433-.7a216.7 216.7 0 0 0 1.598-2.603l.817-1.35.858-1.4H40l-3.904 6.368c-.12.19-.189.407-.197.632.013.235.095.461.236.65h.001Z"/><path fill="#85E6D6" d="M10.61 21.002H8.148l-5.347 6.16h-.735v-6.16H.001v13.974h2.066v-6.318h.07l5.815 6.337 2.815-.02-6.673-6.927 6.515-7.046ZM16.454 24.87c-.368.098-.72.25-1.043.452-.336.21-.646.457-.925.738-.046.046-.091.098-.138.147v-1.466l-2.007.296v9.939h2.007V27.54a5.118 5.118 0 0 1 1.073-.575c.203-.078.41-.147.62-.206a4.212 4.212 0 0 1 1.378-.148l.236-1.85a3.744 3.744 0 0 0-1.2.108ZM19.485 34.976h2.007V24.74l-2.007.296v9.939ZM19.84 22.97c.21.118.447.18.688.177.238.003.472-.058.679-.177.202-.117.369-.287.482-.492.118-.21.18-.448.177-.689a1.33 1.33 0 0 0-.177-.679 1.388 1.388 0 0 0-.482-.492 1.273 1.273 0 0 0-.68-.187 1.324 1.324 0 0 0-.688.187c-.205.12-.377.29-.501.492a1.27 1.27 0 0 0-.187.68c-.003.242.062.48.187.688.12.206.293.376.501.492ZM29.68 26.591c.321-.007.641.043.945.148.25.09.474.243.65.443.18.217.308.473.373.748.084.348.124.705.118 1.063v5.983h2.008v-6.397a5.453 5.453 0 0 0-.374-2.184 2.58 2.58 0 0 0-1.122-1.26 3.873 3.873 0 0 0-1.89-.413 5.534 5.534 0 0 0-1.682.265 6.398 6.398 0 0 0-1.584.758c-.19.125-.373.262-.552.403v-1.407l-2.007.296v9.939h2.007V27.5c.195-.114.395-.217.6-.31a8.88 8.88 0 0 1 .847-.324c.276-.09.56-.16.846-.207a5.07 5.07 0 0 1 .817-.069ZM44.148 38.764c.716-.334.527-.875.932-1.555.397-.698.597-1.49.581-2.292V24.722l-1.925.495a5.745 5.745 0 0 0-.683-.24 7.134 7.134 0 0 0-.915-.186 7.679 7.679 0 0 0-1.063-.07 4.758 4.758 0 0 0-1.87.375 4.947 4.947 0 0 0-1.584 1.072A4.856 4.856 0 0 0 36.53 27.9a6.633 6.633 0 0 0-.394 2.372c-.021.889.15 1.772.502 2.588.308.698.82 1.288 1.466 1.693.709.417 1.52.625 2.343.6a5.676 5.676 0 0 0 2.105-.413c.4-.164.777-.378 1.122-.638v.54c.008.442-.055.884-.187 1.308a2.38 2.38 0 0 1-.57.945c-.282.27-.628.467-1.005.57-.49.135-.997.198-1.505.187-.404 0-.808-.023-1.21-.069a8.628 8.628 0 0 1-1.25-.236 9.563 9.563 0 0 1-1.24-.423l1.005 1.732c.363.147.734.269 1.113.364.398.1.802.176 1.21.226.43.053.865.08 1.299.08a6.35 6.35 0 0 0 2.815-.562Zm-.731-5.904a6.226 6.226 0 0 1-.757.374 4.64 4.64 0 0 1-.71.226c-.235.053-.476.08-.717.079a3.42 3.42 0 0 1-1.703-.384 2.304 2.304 0 0 1-1.004-1.161 5.232 5.232 0 0 1-.324-1.998 5.203 5.203 0 0 1 .226-1.604c.129-.427.35-.82.65-1.151a2.835 2.835 0 0 1 1.042-.699c.45-.17.927-.254 1.408-.246.31 0 .62.026.925.079.313.055.622.13.925.226.096.03.197.07.295.107v6.001c-.086.051-.174.104-.256.15ZM50.719 30.154h.033l4.02 4.822h2.599l-4.774-5.38 4.675-4.658h-2.46l-3.367 3.701h-.726v-8.522l-2.008.295v14.565h2.008v-4.823ZM64.676 33.697c.038.204.11.4.213.58.176.301.445.536.768.67.356.142.738.213 1.122.206.118 0 .233-.003.344-.01.11-.007.218-.023.325-.05.105-.026.2-.049.285-.068a1.63 1.63 0 0 0 .227-.069l.216-1.319c-.109.038-.22.064-.335.08a2.245 2.245 0 0 1-.275.019.896.896 0 0 1-.768-.315 1.693 1.693 0 0 1-.216-1.043l.04-4.055a4.73 4.73 0 0 0-.158-1.26c-.096-.36-.256-.7-.472-1.003a2.668 2.668 0 0 0-.817-.728 4.17 4.17 0 0 0-1.191-.453 7.004 7.004 0 0 0-1.555-.157c-.415 0-.829.026-1.24.078a8.522 8.522 0 0 0-1.151.227 9.62 9.62 0 0 0-1.034.344l-.236 1.673a11.585 11.585 0 0 1 1.791-.492 7.22 7.22 0 0 1 .817-.108c.269-.02.535-.03.797-.03.401-.008.802.038 1.19.138.285.07.545.213.759.413.19.195.325.436.393.699.084.324.123.659.118.994l-.002.494-2.3.155a6.112 6.112 0 0 0-2.284.512 3.27 3.27 0 0 0-1.348 1.093c-.29.426-.445.93-.443 1.446a2.88 2.88 0 0 0 .345 1.388c.24.437.603.796 1.043 1.033.537.28 1.137.415 1.742.393a4.53 4.53 0 0 0 1.663-.275c.46-.18.88-.447 1.24-.787.136-.13.265-.268.387-.413Zm-1.843-.158c-.276.053-.556.08-.837.079-.32.009-.64-.052-.935-.178a1.285 1.285 0 0 1-.58-.501 1.47 1.47 0 0 1-.197-.778 1.49 1.49 0 0 1 .255-.925c.215-.25.505-.423.827-.492a5.988 5.988 0 0 1 1.536-.157h1.723l-.01 1.953c-.1.113-.21.216-.327.31a3.798 3.798 0 0 1-.689.433c-.243.118-.5.204-.766.256ZM76.57 33.56c.226-.417.338-.885.325-1.358a2.757 2.757 0 0 0-.167-1.014 2.31 2.31 0 0 0-.463-.738 2.958 2.958 0 0 0-.689-.541 5.33 5.33 0 0 0-.826-.384c-.21-.066-.417-.135-.62-.207a11.047 11.047 0 0 0-.61-.197c-.204-.059-.4-.12-.591-.186a4.347 4.347 0 0 1-.522-.217 3.446 3.446 0 0 1-.462-.295 1.292 1.292 0 0 1-.335-.374.948.948 0 0 1-.128-.492c-.005-.19.043-.377.138-.541.103-.162.245-.294.413-.384.206-.113.429-.193.66-.237.288-.055.582-.081.876-.078a6.216 6.216 0 0 1 1.033.088c.203.033.406.076.61.128.203.053.41.112.62.177.195.06.385.133.57.217l.139-1.594a9.35 9.35 0 0 0-.738-.276 7.26 7.26 0 0 0-.738-.197 5.906 5.906 0 0 0-.738-.108 8.899 8.899 0 0 0-.719-.03 6.49 6.49 0 0 0-1.614.188c-.451.11-.88.296-1.27.55-.352.234-.64.552-.836.926a2.817 2.817 0 0 0-.295 1.328c-.006.332.047.662.157.974.094.263.234.506.414.719.175.2.377.376.6.521.233.153.48.281.738.384a17.774 17.774 0 0 0 .915.305 35.497 35.497 0 0 1 .866.276c.138.046.272.088.404.128.176.062.347.138.511.226.145.076.28.169.404.276a1.014 1.014 0 0 1 .344.777.98.98 0 0 1-.324.777 1.888 1.888 0 0 1-.847.404c-.365.08-.738.12-1.112.118a5.534 5.534 0 0 1-.698-.05 9.937 9.937 0 0 1-.807-.137 12.54 12.54 0 0 1-.866-.216c-.296-.086-.594-.18-.896-.286l.08 1.673c.34.118.652.213.934.285.282.073.55.135.807.187.246.051.496.084.748.099.242.013.488.02.738.02a7.685 7.685 0 0 0 1.633-.168 4.219 4.219 0 0 0 1.338-.521c.373-.228.68-.546.896-.925ZM84.482 33.391l-.335.06c-.107.018-.216.032-.324.039-.105.007-.204.01-.296.01a1.984 1.984 0 0 1-.875-.178 1.266 1.266 0 0 1-.561-.521 1.658 1.658 0 0 1-.197-.837v-5.451h2.775l.216-1.575h-2.991v-3.11l-2.008.709v2.401h-1.515l-.217 1.575h1.732v5.865c-.008.39.052.78.177 1.151.102.293.259.564.463.797.187.208.415.376.67.492.26.12.534.206.816.256.279.052.562.078.846.079.21 0 .417-.007.62-.02a6.561 6.561 0 0 0 1.043-.148c.151-.032.279-.062.384-.088l.118-1.634c-.076.03-.155.053-.236.07-.092.019-.194.039-.305.058ZM88.832 20.618a1.273 1.273 0 0 0-.679-.187 1.322 1.322 0 0 0-.689.187c-.205.12-.377.29-.501.492-.125.204-.19.44-.187.68-.002.242.062.48.187.688.12.206.293.376.502.492.21.118.447.18.688.177.238.003.473-.058.679-.177.203-.117.37-.287.483-.492.118-.21.179-.448.177-.689a1.327 1.327 0 0 0-.177-.679 1.386 1.386 0 0 0-.483-.492ZM87.11 34.976h2.007V24.74l-2.008.296v9.939ZM99.902 25.135a3.87 3.87 0 0 0-1.889-.413 5.53 5.53 0 0 0-1.683.265 6.4 6.4 0 0 0-1.584.758c-.19.125-.373.262-.551.403v-1.407l-2.008.296v9.939h2.008V27.5c.194-.114.394-.217.6-.31.276-.122.559-.23.846-.324.276-.09.56-.16.846-.207.27-.045.544-.068.818-.069.32-.007.64.043.944.148.25.09.474.243.65.443.18.217.308.473.374.748.083.348.123.705.117 1.063v5.983h2.008v-6.397a5.455 5.455 0 0 0-.374-2.184 2.576 2.576 0 0 0-1.122-1.26ZM110.678 24.977a7.083 7.083 0 0 0-.915-.186 7.673 7.673 0 0 0-1.063-.07 4.75 4.75 0 0 0-1.869.375 4.942 4.942 0 0 0-1.585 1.072 4.858 4.858 0 0 0-1.092 1.732 6.632 6.632 0 0 0-.394 2.372c-.022.889.15 1.772.502 2.588a3.812 3.812 0 0 0 1.466 1.693 4.345 4.345 0 0 0 2.342.6 5.673 5.673 0 0 0 2.106-.413c.4-.164.777-.378 1.122-.638v.54c.008.442-.055.884-.187 1.308a2.369 2.369 0 0 1-.571.945c-.282.27-.627.467-1.003.57a5.275 5.275 0 0 1-1.506.187c-.405 0-.809-.023-1.211-.069a8.633 8.633 0 0 1-1.249-.236 9.61 9.61 0 0 1-1.241-.423l.217 1.732c.362.147.734.269 1.112.364.399.1.803.176 1.211.226.431.053.865.08 1.299.08a6.349 6.349 0 0 0 2.814-.562 3.945 3.945 0 0 0 1.722-1.555c.396-.698.597-1.49.581-2.292V24.722l-1.925.495a5.724 5.724 0 0 0-.683-.24Zm.364 7.883a6.273 6.273 0 0 1-.757.374 4.64 4.64 0 0 1-.709.226c-.236.053-.477.08-.718.079a3.425 3.425 0 0 1-1.703-.384 2.305 2.305 0 0 1-1.003-1.161 5.213 5.213 0 0 1-.325-1.998 5.188 5.188 0 0 1 .226-1.604c.129-.427.351-.82.65-1.151a2.829 2.829 0 0 1 1.043-.699c.449-.17.927-.254 1.407-.246.31 0 .62.026.925.079.313.055.622.13.925.226.097.03.197.07.295.107v6.001c-.087.051-.175.104-.256.15ZM122.555 30.449a2.971 2.971 0 0 0-.689-.541 5.33 5.33 0 0 0-.827-.384c-.21-.066-.416-.135-.62-.207a10.988 10.988 0 0 0-.61-.197c-.203-.059-.4-.12-.59-.187a4.313 4.313 0 0 1-.522-.216 3.41 3.41 0 0 1-.462-.295 1.288 1.288 0 0 1-.335-.374.953.953 0 0 1-.128-.492c-.005-.19.043-.377.138-.541.103-.162.245-.294.413-.384a2.23 2.23 0 0 1 .659-.236c.289-.056.583-.082.876-.08a6.213 6.213 0 0 1 1.034.09c.203.032.406.075.61.127.203.053.41.112.62.177.195.06.385.133.57.217l.139-1.594a9.515 9.515 0 0 0-.738-.276 7.271 7.271 0 0 0-.739-.197 5.894 5.894 0 0 0-.738-.108 8.878 8.878 0 0 0-.718-.03 6.49 6.49 0 0 0-1.614.188c-.452.11-.881.296-1.27.55a2.514 2.514 0 0 0-.836.926 2.818 2.818 0 0 0-.295 1.328c-.006.332.047.662.158.974.093.263.233.506.413.719.175.2.377.376.6.521.233.153.48.282.738.384a17.027 17.027 0 0 0 .916.305 34.29 34.29 0 0 1 .865.276c.138.046.272.088.404.128.176.062.347.138.511.226.145.077.28.169.404.276a1.014 1.014 0 0 1 .345.777.984.984 0 0 1-.325.777 1.89 1.89 0 0 1-.847.404c-.365.08-.738.12-1.111.118a5.541 5.541 0 0 1-.699-.05 9.998 9.998 0 0 1-.807-.137c-.282-.06-.57-.132-.866-.217a17.36 17.36 0 0 1-.895-.285l.078 1.673c.341.118.652.213.935.285.282.073.551.135.807.187.246.051.496.084.748.099.242.013.488.02.738.02a7.672 7.672 0 0 0 1.633-.168 4.22 4.22 0 0 0 1.339-.521c.372-.228.68-.546.895-.925.226-.417.338-.885.325-1.358a2.758 2.758 0 0 0-.168-1.014 2.282 2.282 0 0 0-.462-.738ZM125.271 28.58l-.138 1.613h5.569l.138-1.614h-5.569ZM7.787 45.373a5.399 5.399 0 0 0-2.667-.63 5.374 5.374 0 0 0-2.686.65 4.536 4.536 0 0 0-1.791 1.83 5.784 5.784 0 0 0-.64 2.794c-.025.963.18 1.918.6 2.785a4.108 4.108 0 0 0 1.722 1.782c.8.419 1.694.629 2.598.61a5.543 5.543 0 0 0 2.716-.65 4.586 4.586 0 0 0 1.84-1.85 5.801 5.801 0 0 0 .66-2.834 5.7 5.7 0 0 0-.61-2.706 4.3 4.3 0 0 0-1.742-1.781Zm-.118 6.593a2.686 2.686 0 0 1-1.073 1.23 3.058 3.058 0 0 1-1.574.404 2.797 2.797 0 0 1-1.535-.414 2.77 2.77 0 0 1-1.024-1.24A4.969 4.969 0 0 1 2.09 49.9a4.638 4.638 0 0 1 .373-1.987c.221-.493.589-.906 1.053-1.181a3.185 3.185 0 0 1 1.624-.394c.442-.011.882.073 1.289.246.357.16.668.408.906.718.253.338.437.723.54 1.132.124.479.183.972.178 1.466a4.905 4.905 0 0 1-.384 2.067ZM16.692 44.89a3.86 3.86 0 0 0-1.042.453c-.336.21-.647.457-.926.738-.046.046-.091.099-.138.147v-1.465l-2.007.295v9.939h2.007V47.56a5.135 5.135 0 0 1 1.073-.575c.203-.078.41-.147.62-.206a4.206 4.206 0 0 1 1.378-.148l.236-1.85a3.744 3.744 0 0 0-1.2.109ZM28.285 44.96h-2.46l-3.368 3.7h-.726v-8.522l-2.008.296v14.564h2.008v-4.822h.033l4.02 4.822h2.599l-4.774-5.38 4.676-4.659ZM37.673 46.229a3.57 3.57 0 0 0-1.447-1.112 5.046 5.046 0 0 0-1.998-.374 4.893 4.893 0 0 0-2.007.393 4.29 4.29 0 0 0-1.506 1.103 4.833 4.833 0 0 0-.945 1.702 7.112 7.112 0 0 0-.324 2.214c-.028.949.171 1.89.58 2.746a3.844 3.844 0 0 0 1.723 1.712c.872.411 1.83.61 2.794.58a9.61 9.61 0 0 0 1.388-.088 6.639 6.639 0 0 0 1.132-.266c.365-.122.72-.274 1.063-.452l.137-1.516c-.25.092-.502.184-.758.276a9.397 9.397 0 0 1-.797.246c-.278.073-.56.125-.846.157-.288.033-.577.05-.866.05a6.214 6.214 0 0 1-1.535-.168 2.524 2.524 0 0 1-1.092-.57 2.493 2.493 0 0 1-.67-1.093 5 5 0 0 1-.214-1.299h7.113a7.54 7.54 0 0 0-.109-2.44 4.6 4.6 0 0 0-.816-1.801Zm-4.96.472c.462-.28.995-.42 1.535-.403a2.407 2.407 0 0 1 1.516.442c.392.313.671.745.797 1.23.098.36.146.73.143 1.103h-5.176c.037-.393.12-.78.25-1.152.168-.499.497-.928.935-1.22ZM47.277 50.47a2.959 2.959 0 0 0-.689-.541 5.343 5.343 0 0 0-.827-.384c-.21-.066-.416-.134-.62-.206a10.972 10.972 0 0 0-.61-.197c-.203-.06-.4-.122-.59-.187a4.307 4.307 0 0 1-.522-.217 3.42 3.42 0 0 1-.462-.295 1.29 1.29 0 0 1-.335-.374.947.947 0 0 1-.128-.492 1.02 1.02 0 0 1 .138-.541 1.12 1.12 0 0 1 .413-.384c.206-.113.429-.193.66-.236.288-.056.582-.082.876-.079a6.208 6.208 0 0 1 1.033.089c.204.032.406.075.61.128.204.052.41.111.62.177.194.06.385.132.57.216l.138-1.594a9.267 9.267 0 0 0-.738-.276 7.234 7.234 0 0 0-.738-.196 5.888 5.888 0 0 0-.738-.109 8.885 8.885 0 0 0-.718-.03 6.49 6.49 0 0 0-1.614.188c-.452.11-.88.296-1.27.55a2.51 2.51 0 0 0-.836.926 2.815 2.815 0 0 0-.295 1.328c-.006.332.047.662.157.975.094.262.234.505.414.718.175.2.377.376.6.522.232.152.48.28.738.383a16.303 16.303 0 0 0 .915.305 44.822 44.822 0 0 1 .866.276c.138.046.272.089.404.128.176.062.347.138.511.226.145.077.28.17.404.276a1.008 1.008 0 0 1 .344.777.98.98 0 0 1-.325.778 1.89 1.89 0 0 1-.846.403c-.365.08-.738.12-1.112.118a5.535 5.535 0 0 1-.698-.049 10.013 10.013 0 0 1-.807-.138c-.283-.06-.571-.131-.866-.216-.296-.086-.594-.18-.896-.286l.079 1.673c.34.118.652.213.935.286.282.072.551.134.806.187.247.05.497.084.748.098.243.013.489.02.739.02a7.678 7.678 0 0 0 1.633-.168 4.221 4.221 0 0 0 1.338-.521 2.57 2.57 0 0 0 .896-.925c.225-.417.337-.885.324-1.358a2.755 2.755 0 0 0-.167-1.014 2.307 2.307 0 0 0-.462-.738ZM55.494 53.413l-.334.059c-.108.019-.216.032-.325.039-.105.007-.204.01-.295.01a1.987 1.987 0 0 1-.876-.177 1.27 1.27 0 0 1-.561-.522 1.66 1.66 0 0 1-.197-.836v-5.452h2.775l.217-1.575h-2.992v-3.11l-2.007.71v2.4h-1.516l-.217 1.575H50.9v5.865c-.01.391.05.78.177 1.151a2.4 2.4 0 0 0 .462.797c.188.208.415.376.67.492.26.12.534.206.816.256.28.052.562.078.846.079.21 0 .417-.007.62-.02.204-.013.391-.033.561-.059a8.54 8.54 0 0 0 .482-.088c.15-.033.28-.062.384-.089l.118-1.633c-.076.03-.155.052-.236.069-.092.02-.194.04-.305.059ZM62.235 44.89c-.368.1-.72.252-1.043.453-.336.21-.647.457-.925.738-.047.046-.092.099-.138.147v-1.465l-2.008.295v9.939h2.008V47.56c.152-.105.306-.203.462-.29.197-.107.401-.203.61-.285.204-.078.41-.147.62-.206a4.223 4.223 0 0 1 1.379-.148l.235-1.85a3.744 3.744 0 0 0-1.2.109ZM72.882 46.229a3.57 3.57 0 0 0-1.446-1.112 5.045 5.045 0 0 0-1.998-.374 4.894 4.894 0 0 0-2.007.393 4.292 4.292 0 0 0-1.506 1.103 4.824 4.824 0 0 0-.945 1.702 7.112 7.112 0 0 0-.324 2.214c-.028.949.17 1.89.58 2.746a3.844 3.844 0 0 0 1.722 1.712c.873.411 1.83.61 2.795.58a9.61 9.61 0 0 0 1.388-.088 6.638 6.638 0 0 0 1.131-.266 7.333 7.333 0 0 0 1.063-.452l.138-1.516c-.25.092-.502.184-.758.276a9.397 9.397 0 0 1-.797.246c-.278.073-.56.125-.846.157-.288.033-.577.05-.866.05a6.214 6.214 0 0 1-1.536-.168 2.524 2.524 0 0 1-1.092-.57 2.492 2.492 0 0 1-.669-1.093 4.996 4.996 0 0 1-.214-1.299h7.112a7.53 7.53 0 0 0-.108-2.44 4.598 4.598 0 0 0-.817-1.801Zm-4.96.472c.463-.28.996-.42 1.536-.403a2.407 2.407 0 0 1 1.515.442c.392.313.672.745.797 1.23.099.36.147.73.144 1.103h-5.176c.036-.393.12-.78.25-1.152a2.38 2.38 0 0 1 .935-1.22ZM81.473 53.413l-.335.059c-.107.019-.216.032-.325.039-.104.007-.203.01-.295.01-.301.008-.6-.053-.875-.177a1.266 1.266 0 0 1-.561-.522 1.658 1.658 0 0 1-.197-.836v-5.452h2.775l.217-1.575h-2.992v-3.11l-2.007.71v2.4h-1.516l-.216 1.575h1.732v5.865c-.01.391.05.78.177 1.151a2.4 2.4 0 0 0 .462.797c.187.208.415.376.67.492.26.12.534.206.816.256.279.052.562.078.846.079.21 0 .417-.007.62-.02.204-.013.391-.033.561-.059.17-.026.332-.056.483-.088.15-.033.278-.062.383-.089l.118-1.633c-.076.03-.155.052-.236.069-.092.02-.194.04-.305.059Z"/></svg>