<svg xmlns="http://www.w3.org/2000/svg" viewBox="0 0 73 16"><path fill="#0A2343" d="M0 15V1.001h4.593V15H0ZM10.843 3.23 13.484 15H8.457L5.303 1.001h2.82a2.655 2.655 0 0 1 1.764.641c.491.404.829.964.956 1.587ZM14.174 15V1.001h4.594V15h-4.594Zm8.063-8.675a2.737 2.737 0 0 1-1.409-.375 2.778 2.778 0 0 1-1.015-1.015 2.735 2.735 0 0 1-.375-1.41 2.685 2.685 0 0 1 .375-1.4 2.812 2.812 0 0 1 3.824-1.005c.415.244.761.59 1.005 1.005.251.424.38.908.375 1.4.005.495-.125.982-.375 1.41a2.8 2.8 0 0 1-1.005 1.015c-.424.251-.908.38-1.4.375ZM25.727 15V1.001h4.594V15h-4.594Zm10.409-6.349c.013.014.111.175.296.483.184.309.424.703.72 1.183a377.481 377.481 0 0 1 1.862 3.056c.289.48.617 1.023.986 1.627h-5.047l-.858-1.39c-.256-.414-.529-.861-.817-1.34-.29-.48-.576-.947-.858-1.4a71.104 71.104 0 0 1-.73-1.193 21.1 21.1 0 0 0-.424-.69A2.04 2.04 0 0 1 30.932 8c.019-.338.128-.665.315-.947.078-.131.223-.365.433-.7a216.97 216.97 0 0 0 1.598-2.603l.817-1.35.858-1.4H40l-3.904 6.368c-.12.19-.189.407-.197.632.013.235.095.461.236.65h.001ZM54.836 2.813a3.525 3.525 0 0 0-.917-.956 4.396 4.396 0 0 0-1.33-.63A6.301 6.301 0 0 0 50.813 1h-5.48v13.997h2.07V9.97h3.568c.805.012 1.6-.185 2.306-.572A4.265 4.265 0 0 0 54.905 7.8c.415-.74.623-1.577.6-2.425a5.754 5.754 0 0 0-.157-1.36 3.923 3.923 0 0 0-.512-1.203Zm-1.834 4.249a2.333 2.333 0 0 1-1.114.917c-.557.21-1.15.31-1.744.295h-2.74V2.715h3.016a3.75 3.75 0 0 1 1.675.326c.419.202.761.534.976.946.228.462.34.973.326 1.488a2.915 2.915 0 0 1-.395 1.587ZM59.715 1.463c-.283.151-.559.293-.828.424-.27.131-.542.263-.819.394-.275.132-.558.25-.847.355-.29.105-.598.21-.926.316l.433 1.675c.394-.118.752-.236 1.074-.355.316-.115.625-.247.927-.394.296-.144.592-.302.887-.473l.01-.006v11.599h2.05V1h-1.064c-.316.157-.615.312-.897.463ZM72.42 9.753a3.104 3.104 0 0 0-.63-1.065 3.068 3.068 0 0 0-1.036-.729 4.978 4.978 0 0 0-1.409-.375v-.059a4.881 4.881 0 0 0 1.617-.877c.426-.35.778-.783 1.035-1.272.242-.469.367-.99.364-1.518a2.734 2.734 0 0 0-.296-1.291 2.75 2.75 0 0 0-.867-.966A4.022 4.022 0 0 0 69.808 1a7.984 7.984 0 0 0-1.863-.197 9.737 9.737 0 0 0-2.484.345 5.807 5.807 0 0 0-1.143.444l.276 1.557c.289-.118.568-.22.838-.306a8.02 8.02 0 0 1 1.508-.325c.229-.026.46-.039.69-.04.417-.006.834.034 1.242.119a2.3 2.3 0 0 1 .828.345c.204.144.364.342.463.571.104.26.155.539.148.819.006.384-.086.764-.266 1.104a2.56 2.56 0 0 1-.75.848c-.349.25-.739.436-1.153.552a5.23 5.23 0 0 1-1.478.197h-.375l-.236 1.538h.63a8.822 8.822 0 0 1 1.735.148c.429.076.84.23 1.213.453.305.186.554.452.72.769.164.34.245.716.236 1.094.01.383-.064.763-.217 1.114a1.903 1.903 0 0 1-.66.769 3.138 3.138 0 0 1-1.124.453 7.629 7.629 0 0 1-1.607.148c-.197 0-.391-.007-.581-.02-.19-.013-.392-.033-.602-.06a9.187 9.187 0 0 1-.66-.107 20.88 20.88 0 0 1-.759-.168l-.256 1.676.838.148c.27.046.535.085.798.118.263.032.52.055.769.068.25.014.493.02.73.02a9.684 9.684 0 0 0 1.872-.167 5.574 5.574 0 0 0 1.508-.513 3.89 3.89 0 0 0 1.104-.837 3.35 3.35 0 0 0 .67-1.134c.157-.46.234-.943.227-1.43a4.05 4.05 0 0 0-.217-1.36Z"/></svg>