<svg xmlns="http://www.w3.org/2000/svg" viewBox="0 0 255 24"><path fill="#fff" d="M0 19.003V5.005h4.593v13.998H0Zm10.843-11.77 2.642 11.77H8.457L5.303 5.005h2.82a2.655 2.655 0 0 1 1.764.64c.491.404.829.964.956 1.588Zm3.332 11.77V5.005h4.593v13.998h-4.594Zm8.062-8.675a2.779 2.779 0 0 1-2.425-1.39 2.735 2.735 0 0 1-.374-1.41 2.685 2.685 0 0 1 .375-1.4 2.813 2.813 0 0 1 3.824-1.005c.415.244.761.59 1.005 1.005.251.424.38.908.375 1.4.005.495-.125.983-.375 1.41a2.8 2.8 0 0 1-1.005 1.015c-.424.251-.908.38-1.4.375Zm3.49 8.675V5.005h4.594v13.998h-4.594Zm10.41-6.348c.012.013.11.174.295.483.184.308.424.702.72 1.183a373.133 373.133 0 0 1 1.862 3.056c.289.48.617 1.022.986 1.626h-5.047c-.315-.512-.601-.976-.858-1.39-.256-.414-.528-.86-.817-1.34-.29-.48-.576-.947-.858-1.4a71.148 71.148 0 0 1-.73-1.193 20.758 20.758 0 0 0-.424-.69 2.041 2.041 0 0 1-.334-.986c.02-.338.128-.665.315-.947.079-.131.223-.365.433-.7a212.331 212.331 0 0 0 1.598-2.603l.817-1.35.858-1.4H40l-3.904 6.369c-.12.189-.189.407-.197.63.013.236.095.463.236.652h.001ZM55.96 5.006h-2.465l-5.356 6.17h-.736v-6.17h-2.07v13.997h2.07v-6.328h.07l5.825 6.348 2.82-.02-6.684-6.94 6.526-7.057ZM61.814 8.88c-.369.099-.72.252-1.045.453-.336.21-.647.459-.927.74-.046.046-.091.098-.138.147V8.752l-2.01.296v9.955h2.01v-7.447a5.144 5.144 0 0 1 1.075-.576 6.87 6.87 0 0 1 .621-.207 4.22 4.22 0 0 1 1.38-.148l.237-1.853a3.764 3.764 0 0 0-1.203.108ZM64.85 19.003h2.011V8.752l-2.01.296v9.955ZM66.575 4.622a1.277 1.277 0 0 0-.68-.188 1.327 1.327 0 0 0-.69.188c-.206.12-.378.29-.503.492-.125.205-.19.44-.187.68-.002.243.063.482.187.69.12.207.294.377.503.494.21.118.448.18.69.177a1.33 1.33 0 0 0 .68-.177c.203-.118.37-.288.483-.493.119-.21.18-.449.178-.69a1.332 1.332 0 0 0-.178-.68 1.393 1.393 0 0 0-.483-.493ZM77.665 9.146a3.882 3.882 0 0 0-1.893-.414 5.539 5.539 0 0 0-1.686.266 6.407 6.407 0 0 0-1.587.76c-.19.124-.373.262-.552.404v-1.41l-2.01.295v9.956h2.01v-7.487c.195-.114.395-.217.601-.31.277-.122.56-.23.848-.325.277-.09.56-.16.848-.207.27-.045.544-.068.818-.07.322-.006.642.044.947.149.25.09.474.243.65.443.18.218.31.474.375.75.084.348.123.706.118 1.064v5.993h2.01v-6.407a5.47 5.47 0 0 0-.374-2.188 2.587 2.587 0 0 0-1.123-1.262ZM88.457 8.988a7.118 7.118 0 0 0-.916-.187 7.748 7.748 0 0 0-1.065-.069 4.772 4.772 0 0 0-1.873.375 4.958 4.958 0 0 0-1.587 1.074 4.86 4.86 0 0 0-1.094 1.735 6.647 6.647 0 0 0-.394 2.376c-.022.89.15 1.774.502 2.592.31.7.821 1.29 1.47 1.695a4.35 4.35 0 0 0 2.345.602 5.683 5.683 0 0 0 2.11-.414c.4-.163.778-.378 1.123-.638v.54c.008.443-.055.886-.187 1.31-.113.356-.31.68-.572.947a2.35 2.35 0 0 1-1.005.571 5.274 5.274 0 0 1-1.508.188c-.405-.001-.81-.024-1.213-.07a8.557 8.557 0 0 1-1.251-.236 9.542 9.542 0 0 1-1.242-.424l.216 1.735c.363.147.735.269 1.114.365.4.1.804.176 1.213.226.431.053.866.08 1.3.08.971.03 1.936-.163 2.82-.563a3.953 3.953 0 0 0 1.725-1.557c.397-.7.598-1.493.582-2.297V8.732l-1.928.497a5.798 5.798 0 0 0-.684-.24Zm.365 7.896a6.173 6.173 0 0 1-.759.375c-.23.094-.467.17-.71.226-.236.054-.477.08-.72.08a3.427 3.427 0 0 1-1.704-.385 2.31 2.31 0 0 1-1.006-1.163 5.242 5.242 0 0 1-.325-2.002 5.217 5.217 0 0 1 .227-1.606c.129-.428.35-.822.65-1.154a2.85 2.85 0 0 1 1.045-.7c.45-.17.928-.253 1.41-.246.31 0 .62.026.926.08.314.055.623.13.927.226.096.03.197.07.295.107v6.011l-.256.151ZM102.701 8.949h-2.464l-3.374 3.706h-.727V4.12l-2.01.296v14.588h2.01v-4.83h.033l4.028 4.83h2.602l-4.782-5.388 4.684-4.666ZM113.012 17.761a.898.898 0 0 1-.769-.315 1.695 1.695 0 0 1-.217-1.045l.04-4.061a4.713 4.713 0 0 0-.159-1.262 3.08 3.08 0 0 0-.472-1.005 2.685 2.685 0 0 0-.818-.73 4.211 4.211 0 0 0-1.193-.453 7.041 7.041 0 0 0-1.558-.158c-.415 0-.83.026-1.242.079a8.53 8.53 0 0 0-1.153.227c-.351.095-.697.21-1.035.345l-.237 1.675a11.594 11.594 0 0 1 1.794-.492c.271-.052.544-.088.819-.109.269-.02.535-.03.798-.03.402-.008.803.038 1.192.139.285.07.546.213.76.413.19.196.326.437.394.7.084.325.124.66.118.996l-.002.495-2.304.155a6.133 6.133 0 0 0-2.287.513 3.28 3.28 0 0 0-1.351 1.094 2.547 2.547 0 0 0-.443 1.45 2.88 2.88 0 0 0 .345 1.39c.241.438.604.797 1.044 1.034.538.28 1.14.416 1.745.394a4.536 4.536 0 0 0 1.666-.276 3.84 3.84 0 0 0 1.242-.788c.137-.13.266-.269.388-.413.038.204.111.4.214.58.175.302.445.538.768.67.357.144.739.215 1.124.208.119 0 .233-.004.345-.01.11-.006.219-.023.325-.05.106-.026.201-.049.286-.068a1.57 1.57 0 0 0 .227-.07l.217-1.32a1.732 1.732 0 0 1-.335.079 2.287 2.287 0 0 1-.276.02Zm-3.283-.887a3.773 3.773 0 0 1-.69.434 3.112 3.112 0 0 1-.768.256 4.36 4.36 0 0 1-.839.079c-.321.01-.64-.051-.936-.177a1.296 1.296 0 0 1-.582-.503 1.485 1.485 0 0 1-.197-.779 1.495 1.495 0 0 1 .256-.926c.215-.25.506-.424.828-.493a6.019 6.019 0 0 1 1.538-.158h1.726l-.008 1.957c-.101.112-.21.216-.328.31ZM121.725 14.469a2.988 2.988 0 0 0-.69-.542 5.388 5.388 0 0 0-.828-.385c-.21-.065-.417-.134-.621-.207a11.053 11.053 0 0 0-.612-.197c-.203-.059-.4-.121-.591-.187a4.236 4.236 0 0 1-.522-.217 3.479 3.479 0 0 1-.464-.296 1.29 1.29 0 0 1-.334-.374.939.939 0 0 1-.129-.493 1.03 1.03 0 0 1 .138-.542c.103-.162.246-.294.414-.385.207-.113.43-.193.661-.236a4.42 4.42 0 0 1 .877-.079 6.394 6.394 0 0 1 1.035.089c.204.032.407.076.611.128.204.052.411.112.621.177.195.06.386.133.572.217l.138-1.597a9.881 9.881 0 0 0-.739-.276 7.352 7.352 0 0 0-.74-.197 5.966 5.966 0 0 0-.739-.108 8.917 8.917 0 0 0-.719-.03 6.5 6.5 0 0 0-1.617.187c-.452.11-.882.297-1.272.552a2.51 2.51 0 0 0-.837.927c-.207.413-.308.87-.296 1.33-.006.333.047.663.158.977.093.262.233.506.414.72.175.2.377.376.601.522.233.153.481.281.739.384a16.652 16.652 0 0 0 .917.306 26.917 26.917 0 0 1 .867.276c.138.046.273.088.405.128.176.062.347.138.512.226.145.077.28.17.404.276a.99.99 0 0 1 .256.346c.061.136.091.284.089.433a.986.986 0 0 1-.325.779 1.89 1.89 0 0 1-.848.404c-.366.08-.739.12-1.113.118a5.47 5.47 0 0 1-.7-.049 10.047 10.047 0 0 1-.809-.138c-.282-.06-.571-.132-.867-.217-.296-.085-.595-.18-.897-.286l.079 1.676c.341.118.653.214.936.286.283.072.553.135.809.187.246.052.497.084.749.099.243.013.489.02.739.02a7.687 7.687 0 0 0 1.636-.168 4.23 4.23 0 0 0 1.341-.523c.372-.227.681-.546.897-.926a2.7 2.7 0 0 0 .325-1.36 2.767 2.767 0 0 0-.168-1.016 2.306 2.306 0 0 0-.463-.739ZM129.954 17.416l-.334.06c-.108.019-.217.032-.326.039-.105.007-.204.01-.296.01a1.988 1.988 0 0 1-.877-.178 1.268 1.268 0 0 1-.562-.522 1.663 1.663 0 0 1-.197-.838v-5.46h2.78l.217-1.578h-2.997V5.834l-2.011.71v2.405h-1.518l-.217 1.577h1.735v5.875c-.009.392.051.782.178 1.153.101.294.259.565.463.799.188.208.416.376.67.493.261.12.536.206.818.256.28.052.564.078.848.079.21 0 .417-.007.621-.02.205-.013.391-.033.562-.06a8.03 8.03 0 0 0 .483-.088c.151-.033.279-.062.384-.089l.119-1.636c-.077.03-.156.053-.237.07a7.74 7.74 0 0 1-.306.058ZM132.588 19.003h2.011V8.752l-2.011.296v9.955ZM134.313 4.622a1.278 1.278 0 0 0-.68-.188 1.326 1.326 0 0 0-.69.188 1.45 1.45 0 0 0-.503.492c-.125.205-.19.44-.187.68-.002.244.063.482.187.69.121.207.294.377.503.494.21.118.448.179.69.177.238.003.473-.058.68-.177.203-.118.37-.288.483-.493.118-.211.179-.449.177-.69a1.33 1.33 0 0 0-.177-.68 1.4 1.4 0 0 0-.483-.493ZM145.402 9.146a3.883 3.883 0 0 0-1.893-.414 5.53 5.53 0 0 0-1.685.266 6.392 6.392 0 0 0-1.587.76 7.682 7.682 0 0 0-.552.404v-1.41l-2.011.295v9.956h2.011v-7.487c.194-.114.395-.217.601-.31.277-.122.56-.231.848-.325.277-.09.56-.16.848-.207.27-.045.544-.068.818-.07.321-.006.642.044.946.149.251.09.475.243.65.443.182.218.31.474.375.75.084.348.124.706.118 1.064v5.993h2.011v-6.407a5.473 5.473 0 0 0-.374-2.188 2.59 2.59 0 0 0-1.124-1.262ZM156.195 8.988a7.113 7.113 0 0 0-.916-.187 7.757 7.757 0 0 0-1.065-.069 4.774 4.774 0 0 0-1.873.375 4.955 4.955 0 0 0-1.587 1.074 4.858 4.858 0 0 0-1.094 1.735 6.631 6.631 0 0 0-.394 2.376c-.022.89.149 1.774.502 2.592.309.7.821 1.29 1.469 1.695a4.35 4.35 0 0 0 2.346.602 5.68 5.68 0 0 0 2.109-.414 4.973 4.973 0 0 0 1.124-.638v.54a4.16 4.16 0 0 1-.187 1.31c-.114.356-.31.68-.572.947a2.351 2.351 0 0 1-1.005.571 5.277 5.277 0 0 1-1.509.188c-.405-.001-.809-.024-1.212-.07a8.567 8.567 0 0 1-1.252-.236 9.566 9.566 0 0 1-1.242-.424l.217 1.735c.363.147.735.269 1.114.365.399.1.804.176 1.212.226.432.053.867.08 1.301.08a6.362 6.362 0 0 0 2.82-.563 3.953 3.953 0 0 0 1.725-1.557c.397-.7.598-1.493.582-2.297V8.732l-1.929.497a5.797 5.797 0 0 0-.684-.24Zm.365 7.896a6.187 6.187 0 0 1-.759.375c-.23.094-.467.17-.71.226-.236.054-.477.08-.719.08a3.431 3.431 0 0 1-1.706-.385 2.311 2.311 0 0 1-1.005-1.163 5.25 5.25 0 0 1-.325-2.002 5.204 5.204 0 0 1 .226-1.606c.13-.428.352-.822.651-1.154a2.851 2.851 0 0 1 1.045-.7c.45-.17.928-.253 1.41-.246.31 0 .62.026.926.08.314.055.623.13.927.226.096.03.197.07.296.107v6.011l-.257.151ZM168.093 14.469a2.985 2.985 0 0 0-.69-.542 5.355 5.355 0 0 0-.829-.385c-.21-.065-.417-.134-.62-.207a11.053 11.053 0 0 0-.612-.197c-.204-.059-.401-.121-.591-.187a4.234 4.234 0 0 1-.523-.217 3.396 3.396 0 0 1-.463-.296 1.293 1.293 0 0 1-.335-.374.948.948 0 0 1-.129-.493c-.005-.19.043-.378.139-.542.103-.161.245-.294.414-.385.206-.113.429-.193.66-.236.289-.056.583-.082.878-.079a6.394 6.394 0 0 1 1.034.089c.205.032.408.076.612.128.204.052.41.112.621.177.195.06.385.133.571.217l.138-1.597a9.563 9.563 0 0 0-.739-.276 7.323 7.323 0 0 0-.739-.197 5.975 5.975 0 0 0-.739-.108 8.941 8.941 0 0 0-.72-.03 6.5 6.5 0 0 0-1.617.187c-.452.11-.882.297-1.271.552a2.515 2.515 0 0 0-.838.927c-.206.413-.308.87-.296 1.33-.006.333.047.663.158.977.093.262.233.506.414.72.175.2.377.376.601.522.233.153.481.281.739.384.145.053.296.106.454.158.158.052.313.101.463.148a51.51 51.51 0 0 1 .868.276c.138.046.272.088.404.128.176.062.347.138.512.226.145.077.28.17.404.276a.99.99 0 0 1 .256.346c.061.136.091.284.09.433a.987.987 0 0 1-.326.779 1.885 1.885 0 0 1-.848.404 5.03 5.03 0 0 1-1.113.118 5.483 5.483 0 0 1-.7-.049 10.047 10.047 0 0 1-.809-.138c-.282-.06-.571-.132-.867-.217-.296-.085-.595-.18-.897-.286l.079 1.676c.341.118.654.214.936.286.283.072.553.135.809.187.247.052.497.084.749.099.243.013.489.02.739.02a7.68 7.68 0 0 0 1.636-.168 4.225 4.225 0 0 0 1.341-.523c.373-.227.681-.546.897-.926a2.7 2.7 0 0 0 .325-1.36 2.787 2.787 0 0 0-.167-1.016 2.308 2.308 0 0 0-.463-.739ZM178.276 9.365a5.415 5.415 0 0 0-2.672-.631 5.386 5.386 0 0 0-2.691.65 4.547 4.547 0 0 0-1.794 1.834 5.804 5.804 0 0 0-.641 2.8 6.048 6.048 0 0 0 .601 2.789 4.11 4.11 0 0 0 1.726 1.784c.801.42 1.697.63 2.602.611a5.559 5.559 0 0 0 2.721-.65 4.591 4.591 0 0 0 1.843-1.854 5.804 5.804 0 0 0 .66-2.838 5.703 5.703 0 0 0-.611-2.711 4.313 4.313 0 0 0-1.744-1.784Zm-.119 6.604a2.686 2.686 0 0 1-1.074 1.232 3.066 3.066 0 0 1-1.577.404 2.803 2.803 0 0 1-1.538-.414 2.772 2.772 0 0 1-1.025-1.242 4.967 4.967 0 0 1-.374-2.05 4.63 4.63 0 0 1 .374-1.991 2.617 2.617 0 0 1 1.055-1.183 3.187 3.187 0 0 1 1.626-.394c.443-.011.883.073 1.291.246.358.161.669.408.907.72.254.338.439.723.542 1.133.124.48.183.974.178 1.469a4.9 4.9 0 0 1-.386 2.07h.001ZM187.196 8.88a3.87 3.87 0 0 0-1.045.453c-.336.21-.647.459-.927.74-.046.046-.091.098-.138.147V8.752l-2.011.296v9.955h2.011v-7.447c.15-.105.304-.202.463-.29.198-.11.402-.205.612-.287.203-.078.41-.147.621-.206a4.228 4.228 0 0 1 1.38-.148l.236-1.853a3.757 3.757 0 0 0-1.202.108ZM198.807 8.949h-2.464l-3.373 3.706h-.727V4.12l-2.011.296v14.588h2.011v-4.83h.032l4.028 4.83h2.603l-4.782-5.388 4.683-4.666ZM208.211 10.22a3.57 3.57 0 0 0-1.449-1.113 5.056 5.056 0 0 0-2.001-.375 4.905 4.905 0 0 0-2.011.394 4.306 4.306 0 0 0-1.508 1.104 4.828 4.828 0 0 0-.946 1.706 7.097 7.097 0 0 0-.325 2.218c-.028.95.171 1.892.581 2.75.375.743.98 1.345 1.725 1.715a6.127 6.127 0 0 0 2.8.582c.465.003.929-.026 1.39-.09a6.643 6.643 0 0 0 1.133-.265 7.389 7.389 0 0 0 1.065-.454l.138-1.518c-.25.093-.503.185-.76.276a9.746 9.746 0 0 1-.798.247 5.96 5.96 0 0 1-.847.157c-.288.033-.578.05-.868.05a6.206 6.206 0 0 1-1.538-.168 2.527 2.527 0 0 1-1.094-.572 2.492 2.492 0 0 1-.67-1.094 4.996 4.996 0 0 1-.215-1.301h7.125a7.546 7.546 0 0 0-.109-2.445 4.586 4.586 0 0 0-.818-1.803Zm-4.968.474c.463-.281.997-.422 1.538-.405a2.413 2.413 0 0 1 1.518.444c.393.313.673.746.798 1.232.099.36.147.731.144 1.104h-5.185c.037-.393.121-.78.25-1.153.169-.5.499-.93.937-1.222ZM217.831 14.469a2.961 2.961 0 0 0-.69-.542 5.302 5.302 0 0 0-.828-.385c-.21-.065-.417-.134-.621-.207a10.757 10.757 0 0 0-.611-.197c-.204-.059-.401-.121-.592-.187a4.301 4.301 0 0 1-.522-.217 3.405 3.405 0 0 1-.463-.296 1.295 1.295 0 0 1-.335-.374.948.948 0 0 1-.129-.493c-.005-.19.043-.378.139-.542a1.12 1.12 0 0 1 .414-.385c.206-.113.429-.193.66-.236a4.42 4.42 0 0 1 .877-.079 6.398 6.398 0 0 1 1.035.089c.204.032.408.076.611.128.204.052.411.112.622.177.194.06.385.133.571.217l.138-1.597a9.72 9.72 0 0 0-.739-.276 7.394 7.394 0 0 0-.739-.197 5.978 5.978 0 0 0-.74-.108 8.898 8.898 0 0 0-.719-.03 6.5 6.5 0 0 0-1.617.187c-.452.11-.882.297-1.271.552a2.515 2.515 0 0 0-.838.927c-.206.413-.308.87-.296 1.33-.006.333.047.663.158.977.093.262.233.506.414.72.175.2.377.376.601.522.233.153.48.281.739.384.145.053.296.106.454.158.158.052.312.101.463.148a51.51 51.51 0 0 1 .868.276c.138.046.272.088.404.128.176.062.347.138.512.226.145.077.28.17.404.276.11.096.197.213.256.346.061.136.091.284.089.433a.986.986 0 0 1-.325.779 1.892 1.892 0 0 1-.848.404c-.365.08-.739.12-1.113.118a5.47 5.47 0 0 1-.7-.049 10.047 10.047 0 0 1-.809-.138c-.282-.06-.571-.132-.867-.217-.296-.085-.595-.18-.897-.286l.079 1.676c.341.118.653.214.936.286.283.072.552.135.809.187.246.052.497.084.749.099.243.013.489.02.739.02a7.687 7.687 0 0 0 1.636-.168 4.225 4.225 0 0 0 1.341-.523c.373-.227.681-.546.897-.926a2.7 2.7 0 0 0 .325-1.36 2.787 2.787 0 0 0-.167-1.016 2.329 2.329 0 0 0-.464-.739ZM226.062 17.416l-.334.06c-.108.019-.217.032-.326.039-.105.007-.204.01-.296.01a1.988 1.988 0 0 1-.877-.178 1.27 1.27 0 0 1-.562-.522 1.664 1.664 0 0 1-.197-.838v-5.46h2.78l.217-1.578h-2.997V5.834l-2.011.71v2.405h-1.518l-.217 1.577h1.735v5.875c-.009.392.051.782.177 1.153.102.294.259.565.464.799.187.208.415.376.67.493.261.12.536.206.818.256.28.052.563.078.848.079.21 0 .417-.007.621-.02.204-.013.391-.033.562-.06a8.594 8.594 0 0 0 .867-.177l.119-1.636c-.077.03-.156.053-.237.07-.092.019-.194.039-.306.058ZM232.814 8.88a3.883 3.883 0 0 0-1.045.453c-.336.21-.647.459-.926.74-.047.046-.092.098-.138.147V8.752l-2.011.296v9.955h2.011v-7.447a5.112 5.112 0 0 1 1.075-.576c.203-.08.41-.148.62-.207a4.263 4.263 0 0 1 1.38-.148l.237-1.853a3.766 3.766 0 0 0-1.203.108ZM243.48 10.22a3.583 3.583 0 0 0-1.449-1.113 5.063 5.063 0 0 0-2.001-.375 4.901 4.901 0 0 0-2.011.394 4.288 4.288 0 0 0-1.508 1.104 4.83 4.83 0 0 0-.947 1.706 7.156 7.156 0 0 0-.325 2.218c-.028.95.171 1.892.581 2.75.375.743.98 1.345 1.725 1.715a6.13 6.13 0 0 0 2.8.582c.465.003.929-.026 1.39-.09a6.666 6.666 0 0 0 2.198-.719l.138-1.518c-.25.093-.503.185-.759.276a9.746 9.746 0 0 1-.798.247 5.999 5.999 0 0 1-.848.157 7.6 7.6 0 0 1-.867.05 6.2 6.2 0 0 1-1.538-.168 2.514 2.514 0 0 1-1.094-.572 2.502 2.502 0 0 1-.671-1.094 4.995 4.995 0 0 1-.214-1.301h7.124a7.546 7.546 0 0 0-.108-2.445 4.614 4.614 0 0 0-.818-1.803Zm-4.968.474a2.79 2.79 0 0 1 1.537-.405 2.41 2.41 0 0 1 1.518.444c.393.313.673.746.799 1.232.098.36.146.731.144 1.104h-5.185c.036-.393.12-.78.25-1.153.169-.5.498-.93.937-1.222ZM252.391 17.357c-.093.02-.195.04-.306.06l-.335.058c-.108.02-.216.033-.325.04a4.54 4.54 0 0 1-.296.01 1.988 1.988 0 0 1-.877-.178 1.27 1.27 0 0 1-.562-.522 1.664 1.664 0 0 1-.197-.838v-5.46h2.779l.217-1.578h-2.996V5.834l-2.011.71v2.405h-1.518l-.217 1.577h1.735v5.875c-.009.392.051.782.177 1.153.102.294.259.565.464.799.187.208.415.376.67.493.26.12.535.206.818.256.279.052.563.078.847.079.211 0 .418-.007.622-.02.204-.013.391-.033.562-.06a8.594 8.594 0 0 0 .867-.177l.118-1.636c-.076.03-.156.053-.236.07Z"/></svg>