<svg xmlns="http://www.w3.org/2000/svg" viewBox="0 0 79 24"><path fill="#03FCA3" d="M0 0h79v24H0z"/><path fill="#000" d="M6.004 18V6h3.937V18H6.004Zm9.294-10.09L17.562 18h-4.309L10.55 6h2.416a2.276 2.276 0 0 1 1.513.55c.42.345.71.826.82 1.36ZM18.154 18V6h3.937V18h-3.937Zm6.91-7.436a2.382 2.382 0 0 1-2.4-2.4 2.303 2.303 0 0 1 .323-1.2 2.411 2.411 0 0 1 3.278-.862c.355.21.652.506.861.862.215.363.326.778.322 1.2a2.4 2.4 0 0 1-1.183 2.079 2.302 2.302 0 0 1-1.2.321ZM28.057 18V6h3.937V18h-3.937Zm8.922-5.442c.011.012.096.15.253.414.158.265.364.603.617 1.014a315.936 315.936 0 0 1 1.597 2.62c.247.411.529.876.845 1.394h-4.326c-.27-.44-.516-.837-.735-1.192-.22-.354-.453-.738-.7-1.149-.249-.41-.494-.81-.737-1.2-.242-.389-.45-.73-.625-1.022-.174-.293-.296-.49-.363-.591a1.748 1.748 0 0 1-.287-.845c.017-.29.11-.57.27-.812.068-.113.192-.313.372-.6s.391-.628.633-1.022c.243-.395.488-.797.736-1.209l.7-1.157.736-1.2h4.326l-3.346 5.458a1.08 1.08 0 0 0-.17.542c.012.201.082.395.203.557h.001ZM61.43 6h-3.709s2.107 3.453 2.13 3.497a.582.582 0 0 1 .014.708l-2.144 3.509h3.708s1.788-2.92 2.032-3.326a.885.885 0 0 0-.01-1.074c-.26-.447-.262-.447-2.02-3.314ZM73.042 7.988A338.086 338.086 0 0 0 71.814 6H63.88l1.733 2.904h4.18l-1.726 2.824 1.924 3.226L68.136 18h3.388c.545-.89 1.36-2.267 1.53-2.548a.888.888 0 0 0-.01-1.077c-.17-.29-1.076-1.727-1.618-2.611l1.629-2.697a.888.888 0 0 0-.013-1.08Z"/><path fill="#000" d="M65.408 12.122c-.522.852-1.395 2.28-1.558 2.558a.855.855 0 0 0-.01 1.038c.164.272 1.044 1.71 1.57 2.568.524-.857 1.404-2.296 1.568-2.568a.855.855 0 0 0-.01-1.038 434.902 434.902 0 0 0-1.56-2.558ZM54.863 6a1.988 1.988 0 0 0-1.083.33c-.273.167-2.496 2.052-2.666 2.196-.17-.144-2.393-2.029-2.665-2.196A1.988 1.988 0 0 0 47.364 6h-2.36v10.572l3.28-2.462V9.864l2.83 2.127 2.828-2.127v8.134h3.3V6h-2.38Z"/></svg>