<svg xmlns="http://www.w3.org/2000/svg" fill="none"><path fill="#064E42" d="M.087.844h57v24h-57z"/><path fill="#fff" d="M6.087 18.841V6.842h4v11.999h-4Zm9.243-10.09 2.265 10.09h-4.31L10.583 6.842H13a2.276 2.276 0 0 1 1.512.55c.421.345.66.826.82 1.36Zm2.757 10.09V6.842h4v11.999h-4Zm7.01-7.436a2.381 2.381 0 0 1-2.4-2.4 2.303 2.303 0 0 1 .322-1.2 2.41 2.41 0 0 1 3.278-.861c.356.209.652.506.862.861.214.364.326.779.32 1.2a2.4 2.4 0 0 1-1.183 2.079 2.3 2.3 0 0 1-1.199.321Zm2.99 7.436V6.842h4v11.999h-4Zm8.973-5.442c.011.012.096.15.254.414.158.265.363.603.617 1.014a339.194 339.194 0 0 1 1.596 2.62l.845 1.394h-4.326c-.27-.44-.515-.837-.735-1.191-.22-.355-.453-.738-.7-1.15-.249-.41-.494-.81-.736-1.2-.243-.389-.451-.73-.625-1.022a18.04 18.04 0 0 0-.364-.591 1.75 1.75 0 0 1-.287-.845c.017-.29.11-.57.27-.812.068-.112.192-.313.372-.6a128.84 128.84 0 0 0 1.369-2.231l.701-1.157.735-1.2h4.326L37.026 12.3a1.079 1.079 0 0 0-.169.542c.011.201.082.395.203.557Z"/><path fill="#AAE4B9" d="M51.204 14.348a2.66 2.66 0 0 0-.54-.913 2.63 2.63 0 0 0-.888-.625 4.283 4.283 0 0 0-1.208-.321v-.05a4.19 4.19 0 0 0 1.386-.753c.365-.3.667-.67.886-1.09a2.79 2.79 0 0 0 .313-1.3 2.337 2.337 0 0 0-.253-1.108 2.355 2.355 0 0 0-.743-.828 3.45 3.45 0 0 0-1.192-.515 6.843 6.843 0 0 0-1.597-.169 7.705 7.705 0 0 0-1.056.076c-.362.05-.72.123-1.072.22a4.96 4.96 0 0 0-.98.38l.236 1.335a9.09 9.09 0 0 1 .718-.262 6.788 6.788 0 0 1 1.293-.279 5.56 5.56 0 0 1 .591-.034 4.81 4.81 0 0 1 1.065.102c.254.05.495.151.71.295.175.124.312.293.397.49.089.223.132.462.127.702a1.97 1.97 0 0 1-.228.946 2.19 2.19 0 0 1-.643.726 3.142 3.142 0 0 1-.988.474 4.472 4.472 0 0 1-1.267.169h-.322l-.202 1.318h.54c.5-.007.997.035 1.488.126.367.066.718.198 1.038.389.262.16.475.387.617.659.141.292.21.614.203.938a2.24 2.24 0 0 1-.186.955 1.627 1.627 0 0 1-.566.659 2.69 2.69 0 0 1-.963.388c-.453.09-.915.133-1.377.127-.169 0-.335-.006-.499-.017a7.869 7.869 0 0 1-1.081-.144c-.197-.04-.414-.087-.65-.143l-.22 1.436c.247.045.487.087.718.127.231.04.46.073.684.101a9.71 9.71 0 0 0 1.285.076 8.328 8.328 0 0 0 1.605-.143c.45-.084.885-.232 1.292-.44.356-.18.677-.424.946-.718a2.86 2.86 0 0 0 .575-.972c.134-.394.2-.808.195-1.225a3.47 3.47 0 0 0-.187-1.165Z"/></svg>