<svg xmlns="http://www.w3.org/2000/svg" viewBox="0 0 62 26"><path fill="#909194" d="M31.09 13.56c.03.07 3.3 5.44 3.3 5.44h-4.62s-2.76-4.51-3.14-5.16c-.38-.64-.4-1.04-.02-1.67L29.77 7h4.63l-3.34 5.46c-.24.41-.22.67.03 1.1ZM21.59 19V7h4.21v12h-4.21ZM18.94 6.77a2.4 2.4 0 0 1 0 4.8 2.4 2.4 0 0 1 0-4.8ZM12.06 19V7h4.2v12h-4.2ZM0 19V7h4.2v12H0ZM9.5 8.93 11.77 19H7.2L4.48 7h2.7c1.15 0 2.11.83 2.33 1.93H9.5Z"/><path fill="#DC1351" d="M49 1a12 12 0 1 0 0 24 12 12 0 0 0 0-24Z"/><path fill="#fff" d="M53.25 19.13H44.8v-.63a6.1 6.1 0 0 1 2.16-4.66l2.61-2.23c.29-.25.37-.47.37-.71 0-.43-.27-.83-.84-.83h-4.3v-3.2h4.51c2.22 0 3.88 1.48 3.88 3.7 0 1.26-.44 2.21-1.6 3.2l-2.38 2.11h4.03v3.25h.01Z"/></svg>