<svg xmlns="http://www.w3.org/2000/svg" viewBox="0 0 40 36"><path fill="#0A2343" d="M0 15.003V1.005h4.593v13.998H0Zm10.843-11.77 2.641 11.77H8.457L5.303 1.005h2.82a2.655 2.655 0 0 1 1.764.64c.491.404.829.964.956 1.588Zm3.331 11.77V1.005h4.594v13.998h-4.594Zm8.063-8.675a2.737 2.737 0 0 1-1.409-.375 2.778 2.778 0 0 1-1.015-1.015 2.735 2.735 0 0 1-.375-1.41 2.685 2.685 0 0 1 .375-1.4 2.812 2.812 0 0 1 3.824-1.005c.415.244.761.59 1.005 1.005.251.424.38.908.375 1.4.005.496-.125.983-.375 1.41a2.8 2.8 0 0 1-1.005 1.015c-.424.251-.908.38-1.4.375Zm3.49 8.675V1.005h4.594v13.998h-4.594Zm10.409-6.348c.013.013.111.174.296.483.184.308.424.702.72 1.183a377.185 377.185 0 0 1 1.862 3.056c.289.48.617 1.022.986 1.626h-5.047l-.858-1.39c-.256-.414-.529-.86-.817-1.34-.29-.48-.576-.946-.858-1.4a71.06 71.06 0 0 1-.73-1.193 21.112 21.112 0 0 0-.424-.69 2.04 2.04 0 0 1-.334-.986c.019-.338.128-.665.315-.947.078-.131.223-.365.433-.7a216.7 216.7 0 0 0 1.598-2.603l.817-1.35.858-1.4H40l-3.904 6.369c-.12.189-.189.407-.197.63.013.236.095.463.236.652h.001ZM9.502 22.817a3.525 3.525 0 0 0-.916-.957 4.397 4.397 0 0 0-1.331-.63 6.307 6.307 0 0 0-1.774-.227H0V35h2.07v-5.027h3.568c.806.013 1.6-.184 2.307-.572a4.264 4.264 0 0 0 1.626-1.596c.415-.74.623-1.578.602-2.425a5.759 5.759 0 0 0-.158-1.36 3.923 3.923 0 0 0-.513-1.203ZM7.67 27.065a2.333 2.333 0 0 1-1.114.917c-.557.21-1.15.311-1.745.296H2.07v-5.56h3.016a3.75 3.75 0 0 1 1.676.326c.419.202.76.534.976.946.228.463.34.973.325 1.489a2.915 2.915 0 0 1-.394 1.586ZM14.381 21.466c-.282.152-.558.293-.827.424-.27.132-.542.263-.819.395-.276.131-.558.25-.848.354-.289.105-.598.21-.926.316l.434 1.676a18.81 18.81 0 0 0 1.074-.355c.315-.116.625-.247.927-.395.295-.144.591-.302.887-.473l.01-.006v11.599h2.05V21.004h-1.064c-.316.157-.615.31-.898.462ZM27.087 29.756a3.104 3.104 0 0 0-.63-1.065 3.068 3.068 0 0 0-1.036-.729 4.978 4.978 0 0 0-1.41-.374v-.06a4.883 4.883 0 0 0 1.617-.877 4.11 4.11 0 0 0 1.035-1.271c.242-.47.367-.99.365-1.518a2.734 2.734 0 0 0-.296-1.292 2.75 2.75 0 0 0-.867-.966 4.023 4.023 0 0 0-1.39-.6 7.99 7.99 0 0 0-1.863-.198 9.738 9.738 0 0 0-2.484.345 5.806 5.806 0 0 0-1.143.444l.276 1.557c.288-.118.568-.22.837-.306a7.833 7.833 0 0 1 1.508-.325c.23-.025.46-.039.69-.039.418-.007.834.033 1.242.118a2.3 2.3 0 0 1 .828.345c.205.144.365.342.464.572.104.26.154.538.148.818.005.384-.086.764-.267 1.104-.183.335-.439.625-.749.848-.349.25-.74.436-1.153.552a5.23 5.23 0 0 1-1.479.197h-.374l-.237 1.538h.631a8.823 8.823 0 0 1 1.735.148c.428.077.84.23 1.212.453.306.186.555.452.72.77.165.34.246.715.237 1.093.01.383-.064.763-.217 1.114a1.903 1.903 0 0 1-.66.769 3.138 3.138 0 0 1-1.124.453 7.629 7.629 0 0 1-1.607.148c-.197 0-.391-.006-.582-.02-.19-.013-.39-.032-.6-.059a9.187 9.187 0 0 1-.661-.108 20.88 20.88 0 0 1-.76-.168l-.256 1.676c.29.052.569.102.838.148.27.046.536.085.799.118.262.032.519.055.768.069.25.013.493.02.73.02a9.684 9.684 0 0 0 1.873-.168 5.574 5.574 0 0 0 1.508-.512c.415-.211.79-.495 1.104-.838.296-.33.524-.715.67-1.134.157-.46.233-.943.227-1.43a4.05 4.05 0 0 0-.217-1.36Z"/></svg>