<svg xmlns="http://www.w3.org/2000/svg" viewBox="0 0 255 23"><path fill="#0A2343" d="M0 18.333V4.335h4.593v13.998H0Zm10.843-11.77 2.641 11.77H8.457L5.303 4.335h2.82a2.655 2.655 0 0 1 1.764.64c.491.404.829.964.956 1.588Zm3.331 11.77V4.335h4.594v13.998h-4.594Zm8.063-8.675a2.738 2.738 0 0 1-1.409-.375 2.778 2.778 0 0 1-1.015-1.015 2.735 2.735 0 0 1-.375-1.41 2.685 2.685 0 0 1 .375-1.4 2.812 2.812 0 0 1 3.824-1.005c.415.244.761.59 1.005 1.005.251.424.38.908.375 1.4.005.496-.125.983-.375 1.41a2.8 2.8 0 0 1-1.005 1.015c-.424.251-.908.38-1.4.375Zm3.49 8.675V4.335h4.594v13.998h-4.594Zm10.409-6.348c.013.013.111.174.296.483.184.308.424.703.72 1.183a384.573 384.573 0 0 1 1.862 3.056c.289.48.617 1.022.986 1.626h-5.047l-.858-1.39c-.256-.414-.529-.86-.817-1.34-.29-.48-.576-.946-.858-1.4a71.148 71.148 0 0 1-.73-1.193 21.119 21.119 0 0 0-.424-.69 2.04 2.04 0 0 1-.334-.986c.019-.338.128-.665.315-.947.078-.131.223-.364.433-.7a216.7 216.7 0 0 0 1.598-2.603l.817-1.35.858-1.4H40l-3.904 6.369c-.12.189-.189.407-.197.631.013.235.095.462.236.65h.001Z"/><path fill="#015F88" d="M56.037 4.248h-2.482l-5.395 6.216h-.741V4.248h-2.086v14.1h2.086v-6.375h.07l5.867 6.395 2.84-.02-6.732-6.99 6.573-7.11ZM61.934 8.15a3.9 3.9 0 0 0-1.052.457 5.21 5.21 0 0 0-.933.745c-.047.047-.093.099-.14.148V8.021l-2.025.298v10.029h2.026v-7.503a5.173 5.173 0 0 1 1.083-.58c.204-.08.413-.149.625-.208a4.26 4.26 0 0 1 1.39-.15l.238-1.866a3.792 3.792 0 0 0-1.212.11ZM64.993 18.348h2.026V8.02l-2.026.298v10.029ZM66.73 3.86a1.286 1.286 0 0 0-.684-.188 1.336 1.336 0 0 0-.696.189 1.458 1.458 0 0 0-.506.496 1.287 1.287 0 0 0-.189.685c-.002.245.064.485.189.695.121.208.296.38.506.497.213.12.452.18.696.179.24.002.476-.06.685-.18.204-.117.372-.289.486-.496.12-.212.181-.451.179-.695a1.342 1.342 0 0 0-.179-.685 1.404 1.404 0 0 0-.486-.496ZM77.901 8.418a3.91 3.91 0 0 0-1.906-.417 5.58 5.58 0 0 0-1.699.268 6.454 6.454 0 0 0-1.598.765 7.85 7.85 0 0 0-.556.407v-1.42l-2.026.298v10.029h2.026v-7.542c.196-.115.398-.22.606-.313.278-.123.563-.232.853-.327a5.81 5.81 0 0 1 .854-.209c.273-.045.549-.068.825-.07.324-.007.647.044.953.15.253.09.478.245.655.447.183.219.312.477.378.754.084.351.124.712.119 1.073v6.037h2.025v-6.454a5.511 5.511 0 0 0-.377-2.205 2.606 2.606 0 0 0-1.132-1.27ZM88.773 8.26a7.168 7.168 0 0 0-.923-.19 7.809 7.809 0 0 0-1.072-.069 4.806 4.806 0 0 0-1.887.378 4.994 4.994 0 0 0-1.599 1.082 4.896 4.896 0 0 0-1.102 1.747 6.693 6.693 0 0 0-.397 2.393c-.022.897.15 1.788.506 2.612.311.704.827 1.3 1.48 1.708a4.383 4.383 0 0 0 2.363.605 5.726 5.726 0 0 0 2.125-.417c.404-.164.784-.38 1.132-.642v.543c.008.447-.056.893-.189 1.32a2.398 2.398 0 0 1-.576.954 2.365 2.365 0 0 1-1.013.576c-.494.136-1.006.2-1.519.189-.408-.001-.816-.024-1.221-.07a8.615 8.615 0 0 1-1.261-.238 9.6 9.6 0 0 1-1.251-.427l.218 1.747c.365.148.74.271 1.122.368.402.101.81.178 1.222.228.434.054.872.08 1.31.08a6.406 6.406 0 0 0 2.84-.566 3.983 3.983 0 0 0 1.738-1.57c.4-.704.602-1.503.586-2.313V8.001l-1.943.5a5.84 5.84 0 0 0-.689-.242Zm.368 7.953c-.246.143-.502.269-.765.377-.232.095-.47.172-.715.229-.238.053-.48.08-.725.079a3.45 3.45 0 0 1-1.717-.387 2.326 2.326 0 0 1-1.013-1.172 5.281 5.281 0 0 1-.328-2.016 5.253 5.253 0 0 1 .228-1.618c.13-.43.354-.828.656-1.162a2.87 2.87 0 0 1 1.052-.705 3.832 3.832 0 0 1 1.42-.248c.313 0 .625.026.934.08.315.055.627.131.933.228.097.03.198.07.298.108v6.055l-.258.152ZM103.121 8.22h-2.482l-3.398 3.733h-.733V3.354l-2.025.298v14.696h2.025v-4.866h.033l4.058 4.866h2.621l-4.817-5.428 4.718-4.7ZM113.508 17.097a.906.906 0 0 1-.775-.318 1.705 1.705 0 0 1-.218-1.053l.039-4.09a4.741 4.741 0 0 0-.159-1.272 3.12 3.12 0 0 0-.476-1.012 2.7 2.7 0 0 0-.824-.735 4.225 4.225 0 0 0-1.202-.457 7.084 7.084 0 0 0-1.569-.159c-.418 0-.836.027-1.251.08-.392.049-.78.125-1.161.228a9.616 9.616 0 0 0-1.043.348l-.239 1.688a11.648 11.648 0 0 1 1.807-.497c.273-.052.548-.088.825-.11.271-.019.539-.029.804-.029.405-.008.809.038 1.201.14.287.07.55.214.765.416.192.197.329.44.397.705.085.328.125.665.119 1.003l-.002.498-2.321.157a6.171 6.171 0 0 0-2.303.517 3.3 3.3 0 0 0-1.361 1.102c-.294.43-.449.939-.447 1.46-.004.488.116.97.348 1.4.243.441.608.803 1.052 1.042a3.54 3.54 0 0 0 1.758.397 4.567 4.567 0 0 0 1.678-.278 3.875 3.875 0 0 0 1.251-.794c.137-.132.268-.27.391-.416.038.206.111.403.215.585a1.6 1.6 0 0 0 .774.675c.36.144.744.215 1.132.208.119 0 .235-.003.347-.01a1.77 1.77 0 0 0 .328-.05l.288-.069a1.61 1.61 0 0 0 .229-.07l.218-1.33c-.11.038-.223.065-.337.08a2.32 2.32 0 0 1-.278.02Zm-3.307-.894c-.215.17-.448.317-.695.437-.246.12-.506.206-.774.258-.279.054-.561.08-.845.08a2.242 2.242 0 0 1-.943-.18 1.298 1.298 0 0 1-.586-.506 1.497 1.497 0 0 1-.199-.784c-.019-.331.072-.66.259-.933a1.52 1.52 0 0 1 .833-.497 6.063 6.063 0 0 1 1.55-.159h1.738l-.008 1.971a2.753 2.753 0 0 1-.33.313ZM122.285 13.78a3.002 3.002 0 0 0-.696-.546 5.342 5.342 0 0 0-.834-.387c-.211-.066-.42-.136-.625-.209a11.395 11.395 0 0 0-.616-.198c-.205-.06-.404-.123-.596-.189a4.254 4.254 0 0 1-.526-.218 3.505 3.505 0 0 1-.467-.298 1.306 1.306 0 0 1-.337-.378.951.951 0 0 1-.13-.496c-.005-.192.043-.38.14-.546.103-.163.247-.296.417-.387.208-.114.432-.195.665-.239a4.45 4.45 0 0 1 .884-.08 6.417 6.417 0 0 1 1.042.09c.206.033.411.077.616.13.205.052.413.112.626.178.196.06.388.133.575.218l.14-1.608a9.95 9.95 0 0 0-.745-.278 7.401 7.401 0 0 0-.745-.199 6.021 6.021 0 0 0-.745-.109 8.972 8.972 0 0 0-.724-.03 6.548 6.548 0 0 0-1.629.189c-.455.11-.889.299-1.281.556a2.541 2.541 0 0 0-.844.933c-.207.416-.31.876-.298 1.34-.006.335.048.668.16.984.094.265.235.51.417.725.176.202.38.38.605.526.235.154.484.284.745.387a16.871 16.871 0 0 0 .923.308 30.882 30.882 0 0 1 .874.278c.139.046.275.09.407.13.178.062.35.138.516.228.146.077.283.17.408.277a1.016 1.016 0 0 1 .347.785.986.986 0 0 1-.327.784c-.246.206-.54.346-.855.407a5.054 5.054 0 0 1-1.121.12 5.494 5.494 0 0 1-.705-.05 10.18 10.18 0 0 1-.815-.139c-.284-.06-.576-.133-.874-.218a17.225 17.225 0 0 1-.903-.288l.08 1.688c.343.119.658.215.943.287.285.073.556.136.814.19.249.05.501.084.755.098.244.014.493.02.744.02a7.741 7.741 0 0 0 1.648-.168 4.256 4.256 0 0 0 1.351-.527c.375-.23.686-.55.904-.933.227-.42.34-.893.327-1.37a2.785 2.785 0 0 0-.169-1.023 2.334 2.334 0 0 0-.466-.745ZM130.574 16.75l-.337.059c-.109.019-.218.032-.328.04-.106.006-.206.01-.298.01a2.01 2.01 0 0 1-.884-.18 1.28 1.28 0 0 1-.566-.526 1.676 1.676 0 0 1-.198-.844v-5.5h2.8l.219-1.59h-3.019V5.083l-2.026.715V8.22h-1.529l-.218 1.588h1.747v5.918c-.009.395.052.788.179 1.162.102.296.261.569.467.804.189.21.419.38.675.497.263.12.54.207.824.258.282.052.567.079.854.08.212 0 .42-.007.626-.02.206-.014.393-.034.565-.06a7.87 7.87 0 0 0 .487-.09c.152-.032.281-.062.387-.089l.119-1.648a1.44 1.44 0 0 1-.238.07c-.092.02-.194.04-.308.06ZM133.227 18.348h2.025V8.02l-2.025.298v10.029ZM134.964 3.86a1.284 1.284 0 0 0-.684-.188 1.336 1.336 0 0 0-.695.189 1.454 1.454 0 0 0-.506.496 1.275 1.275 0 0 0-.189.685c-.002.245.063.485.189.695.121.208.295.38.506.497.212.119.451.18.695.179.24.002.476-.06.684-.18.205-.117.373-.289.487-.496.119-.212.181-.451.179-.695a1.34 1.34 0 0 0-.179-.685 1.4 1.4 0 0 0-.487-.496ZM146.135 8.418a3.91 3.91 0 0 0-1.906-.417 5.582 5.582 0 0 0-1.699.268 6.46 6.46 0 0 0-1.598.765 7.751 7.751 0 0 0-.556.407v-1.42l-2.026.298v10.029h2.026v-7.542c.196-.115.398-.22.606-.313.279-.123.564-.232.854-.327a5.77 5.77 0 0 1 .854-.209c.272-.045.548-.068.824-.07.324-.007.647.044.953.15.253.09.478.244.655.447.183.219.312.477.378.754.084.351.124.712.118 1.073v6.037h2.026v-6.454a5.516 5.516 0 0 0-.377-2.205 2.603 2.603 0 0 0-1.132-1.27ZM157.007 8.26a7.138 7.138 0 0 0-.923-.19 7.8 7.8 0 0 0-1.072-.069 4.808 4.808 0 0 0-1.887.378 5.004 5.004 0 0 0-1.599 1.082 4.905 4.905 0 0 0-1.102 1.747 6.704 6.704 0 0 0-.397 2.393 6.214 6.214 0 0 0 .506 2.612c.311.704.827 1.3 1.48 1.708a4.38 4.38 0 0 0 2.363.605 5.73 5.73 0 0 0 2.125-.417 5.04 5.04 0 0 0 1.132-.642v.543c.008.447-.056.893-.189 1.32a2.394 2.394 0 0 1-.576.954 2.361 2.361 0 0 1-1.013.576c-.494.136-1.006.2-1.519.189-.408-.001-.815-.024-1.221-.07a8.611 8.611 0 0 1-1.261-.238 9.528 9.528 0 0 1-1.251-.427l.218 1.747c.365.148.74.271 1.122.368.402.101.81.178 1.221.228.435.054.873.08 1.311.08a6.405 6.405 0 0 0 2.84-.566 3.985 3.985 0 0 0 1.738-1.57c.4-.704.602-1.503.586-2.313V8.001l-1.943.5a5.782 5.782 0 0 0-.689-.242Zm.368 7.953a6.24 6.24 0 0 1-.765.377 4.64 4.64 0 0 1-.715.229c-.237.053-.48.08-.724.079a3.45 3.45 0 0 1-1.718-.387 2.324 2.324 0 0 1-1.013-1.172 5.287 5.287 0 0 1-.328-2.016 5.22 5.22 0 0 1 .229-1.618c.13-.43.354-.828.655-1.162.294-.31.654-.551 1.052-.705a3.838 3.838 0 0 1 1.42-.248c.313 0 .625.026.934.08.316.055.627.132.933.228.097.03.199.07.298.108v6.055c-.087.051-.176.105-.258.152ZM168.992 13.78a2.991 2.991 0 0 0-.695-.546 5.405 5.405 0 0 0-.835-.387c-.211-.066-.42-.136-.625-.209-.205-.072-.41-.139-.616-.198a12.59 12.59 0 0 1-.595-.189 4.252 4.252 0 0 1-.527-.218 3.412 3.412 0 0 1-.466-.298 1.31 1.31 0 0 1-.338-.378.94.94 0 0 1-.129-.496c-.006-.192.043-.38.139-.546.104-.163.247-.296.417-.387.208-.114.432-.195.665-.239a4.45 4.45 0 0 1 .884-.08 6.465 6.465 0 0 1 1.043.09c.205.033.41.077.615.13.206.052.414.112.626.178.196.06.388.133.575.218l.14-1.608a9.788 9.788 0 0 0-.745-.278 7.393 7.393 0 0 0-.745-.199 5.987 5.987 0 0 0-.744-.109 9 9 0 0 0-.725-.03 6.549 6.549 0 0 0-1.629.189 4.126 4.126 0 0 0-1.281.556 2.542 2.542 0 0 0-.844.933c-.207.416-.31.876-.298 1.34a2.81 2.81 0 0 0 .159.984c.094.265.236.51.417.725.177.202.381.38.606.526.234.154.484.284.745.387.145.054.297.107.457.16.159.052.314.101.466.148.152.046.301.093.447.139l.427.139c.139.046.275.09.407.13.178.062.35.138.516.228.146.077.283.17.408.277a1.026 1.026 0 0 1 .347.785.988.988 0 0 1-.328.784 1.896 1.896 0 0 1-.854.407 5.068 5.068 0 0 1-1.122.12 5.52 5.52 0 0 1-.705-.05 10.16 10.16 0 0 1-.814-.139c-.284-.06-.576-.133-.874-.218a16.93 16.93 0 0 1-.903-.288l.079 1.688c.344.119.659.215.944.287.284.073.556.136.814.19.249.05.501.084.754.098.245.014.493.02.745.02a7.741 7.741 0 0 0 1.648-.168 4.261 4.261 0 0 0 1.351-.527c.375-.23.686-.55.903-.933.228-.42.341-.893.328-1.37a2.786 2.786 0 0 0-.169-1.023 2.337 2.337 0 0 0-.466-.745ZM179.249 8.638a5.448 5.448 0 0 0-2.69-.635 5.43 5.43 0 0 0-2.712.655 4.584 4.584 0 0 0-1.807 1.847 5.84 5.84 0 0 0-.645 2.82 6.084 6.084 0 0 0 .606 2.81c.38.764.987 1.391 1.737 1.797.808.424 1.71.636 2.622.616a5.591 5.591 0 0 0 2.74-.655 4.624 4.624 0 0 0 1.857-1.867c.461-.881.69-1.866.666-2.86a5.76 5.76 0 0 0-.616-2.73 4.339 4.339 0 0 0-1.758-1.798Zm-.119 6.653c-.223.516-.601.95-1.082 1.241a3.086 3.086 0 0 1-1.589.407 2.823 2.823 0 0 1-1.549-.417 2.796 2.796 0 0 1-1.032-1.25 4.99 4.99 0 0 1-.377-2.066 4.666 4.666 0 0 1 .377-2.006 2.634 2.634 0 0 1 1.062-1.191 3.216 3.216 0 0 1 1.638-.398c.447-.01.89.074 1.301.249.36.162.674.411.914.725.256.34.441.728.546 1.141.124.484.184.981.179 1.48a4.955 4.955 0 0 1-.389 2.085h.001ZM188.235 8.15c-.372.1-.726.254-1.053.457a5.248 5.248 0 0 0-.933.745c-.047.047-.092.099-.139.148V8.021l-2.026.298v10.029h2.026v-7.503a5.078 5.078 0 0 1 1.083-.58c.205-.08.413-.149.625-.208a4.265 4.265 0 0 1 1.39-.15l.238-1.866a3.786 3.786 0 0 0-1.211.11ZM199.932 8.22h-2.483l-3.398 3.733h-.732V3.354l-2.026.298v14.696h2.026v-4.866h.033l4.057 4.866h2.622l-4.817-5.428 4.718-4.7ZM209.404 9.5a3.604 3.604 0 0 0-1.459-1.121A5.1 5.1 0 0 0 205.929 8a4.936 4.936 0 0 0-2.025.397 4.334 4.334 0 0 0-1.52 1.113 4.873 4.873 0 0 0-.953 1.717 7.2 7.2 0 0 0-.328 2.234 6.014 6.014 0 0 0 .586 2.77 3.876 3.876 0 0 0 1.738 1.729 6.17 6.17 0 0 0 2.82.585c.468.004.936-.026 1.4-.09a6.7 6.7 0 0 0 1.142-.267 7.407 7.407 0 0 0 1.072-.457l.139-1.529c-.252.093-.506.186-.765.278a9.815 9.815 0 0 1-.804.248c-.28.074-.565.127-.854.16-.29.032-.581.049-.873.049a6.255 6.255 0 0 1-1.55-.17 2.544 2.544 0 0 1-1.102-.575 2.513 2.513 0 0 1-.675-1.102 5.025 5.025 0 0 1-.216-1.31h7.176a7.6 7.6 0 0 0-.109-2.463 4.62 4.62 0 0 0-.824-1.817Zm-5.004.477a2.813 2.813 0 0 1 1.549-.407 2.429 2.429 0 0 1 1.529.447c.396.316.678.751.804 1.241.099.362.148.737.145 1.112h-5.223c.037-.396.122-.786.252-1.162.17-.503.502-.936.944-1.23ZM219.095 13.78a2.991 2.991 0 0 0-.695-.546 5.405 5.405 0 0 0-.835-.387c-.211-.066-.42-.136-.625-.209-.205-.072-.41-.139-.616-.198a12.23 12.23 0 0 1-.595-.189 4.254 4.254 0 0 1-.526-.218 3.38 3.38 0 0 1-.467-.298 1.312 1.312 0 0 1-.338-.378.96.96 0 0 1-.129-.496c-.005-.192.043-.38.139-.546a1.14 1.14 0 0 1 .417-.387c.208-.114.433-.195.666-.239.291-.056.587-.082.883-.08a6.42 6.42 0 0 1 1.043.09c.205.033.41.077.615.13.205.052.414.112.626.178.196.06.389.133.576.218l.139-1.608a9.788 9.788 0 0 0-.745-.278 7.375 7.375 0 0 0-.744-.199 6.047 6.047 0 0 0-.745-.109 8.982 8.982 0 0 0-.725-.03 6.535 6.535 0 0 0-1.628.189 4.106 4.106 0 0 0-1.281.556 2.525 2.525 0 0 0-.844.933c-.208.416-.31.876-.298 1.34-.006.335.047.668.159.984.094.265.235.51.417.725.176.202.38.38.605.526.235.154.484.284.745.387.145.054.298.107.457.16.159.052.314.101.466.148a52.182 52.182 0 0 1 .874.278c.139.046.275.09.407.13a3.7 3.7 0 0 1 .517.228c.145.077.282.17.407.277a1.016 1.016 0 0 1 .347.785.986.986 0 0 1-.327.784c-.246.206-.54.346-.854.407a5.07 5.07 0 0 1-1.122.12 5.494 5.494 0 0 1-.705-.05c-.258-.033-.53-.079-.814-.139a12.7 12.7 0 0 1-.875-.218 17.225 17.225 0 0 1-.903-.288l.08 1.688c.344.119.658.215.943.287.285.073.556.136.814.19.249.05.501.084.755.098.244.014.493.02.744.02a7.757 7.757 0 0 0 1.649-.168 4.256 4.256 0 0 0 1.35-.527c.376-.23.687-.55.904-.933.227-.42.34-.893.327-1.37a2.806 2.806 0 0 0-.168-1.023 2.34 2.34 0 0 0-.467-.745ZM227.386 16.75l-.337.059c-.108.019-.218.032-.328.04a4.58 4.58 0 0 1-.298.01 2.002 2.002 0 0 1-.883-.18 1.28 1.28 0 0 1-.567-.526 1.676 1.676 0 0 1-.198-.844v-5.5h2.8l.218-1.59h-3.018V5.083l-2.026.715V8.22h-1.529l-.219 1.588h1.748v5.918c-.009.395.052.788.179 1.162.102.296.261.569.467.804.189.21.418.38.675.497.262.12.539.207.824.258.281.052.567.079.854.08.211 0 .42-.007.626-.02a6.503 6.503 0 0 0 1.052-.15c.152-.032.281-.062.387-.089l.119-1.648c-.077.03-.157.053-.238.07-.093.02-.195.04-.308.06ZM234.188 8.15c-.372.1-.726.254-1.053.457a5.21 5.21 0 0 0-.933.745c-.047.047-.093.099-.139.148V8.021l-2.026.298v10.029h2.026v-7.503c.15-.105.306-.202.466-.292.199-.11.405-.206.616-.288.205-.08.414-.149.626-.208a4.265 4.265 0 0 1 1.39-.15l.238-1.866a3.786 3.786 0 0 0-1.211.11ZM244.931 9.5a3.604 3.604 0 0 0-1.459-1.121A5.1 5.1 0 0 0 241.456 8a4.94 4.94 0 0 0-2.026.397c-.581.255-1.1.635-1.519 1.113a4.86 4.86 0 0 0-.953 1.717 7.17 7.17 0 0 0-.328 2.234 6.014 6.014 0 0 0 .586 2.77 3.88 3.88 0 0 0 1.737 1.729 6.176 6.176 0 0 0 2.821.585c.468.004.936-.026 1.399-.09a6.692 6.692 0 0 0 1.143-.267 7.407 7.407 0 0 0 1.072-.457l.139-1.529c-.252.093-.507.186-.765.278a9.815 9.815 0 0 1-.804.248c-.28.074-.566.127-.854.16-.29.032-.582.049-.873.049a6.255 6.255 0 0 1-1.55-.17 2.542 2.542 0 0 1-1.102-.575 2.513 2.513 0 0 1-.675-1.102 5.025 5.025 0 0 1-.216-1.31h7.176a7.6 7.6 0 0 0-.109-2.463 4.633 4.633 0 0 0-.824-1.817Zm-5.004.477a2.813 2.813 0 0 1 1.549-.407 2.43 2.43 0 0 1 1.529.447c.395.316.678.751.804 1.241.099.362.148.737.145 1.112h-5.223c.037-.396.122-.786.252-1.162.17-.503.502-.936.944-1.23ZM253.908 16.69c-.094.02-.196.04-.309.06l-.337.059c-.108.019-.218.032-.328.04-.106.006-.205.01-.297.01a2.003 2.003 0 0 1-.884-.18 1.277 1.277 0 0 1-.566-.526 1.677 1.677 0 0 1-.199-.844v-5.5h2.8l.219-1.59h-3.019V5.083l-2.025.715V8.22h-1.529l-.219 1.588h1.748v5.918c-.009.395.051.788.178 1.162.103.296.261.569.467.804.189.21.419.379.675.497.263.12.54.207.824.258.282.052.568.079.854.08.212 0 .421-.007.626-.02a6.503 6.503 0 0 0 1.052-.15c.153-.032.281-.062.387-.089l.12-1.648c-.077.03-.157.053-.238.07Z"/></svg>