<svg xmlns="http://www.w3.org/2000/svg" width="48" height="25" fill="none"><path fill="#0A2343" d="M.087 18.841V6.842h4v11.999h-4ZM9.33 8.751l2.265 10.09h-4.31L4.583 6.842H7a2.276 2.276 0 0 1 1.512.55c.421.345.66.826.82 1.36Zm2.756 10.09V6.842h4v11.999h-4Zm7.011-7.436a2.381 2.381 0 0 1-2.4-2.4 2.303 2.303 0 0 1 .322-1.2 2.41 2.41 0 0 1 3.278-.861c.356.209.652.506.862.861.214.364.326.779.32 1.2a2.4 2.4 0 0 1-1.183 2.079 2.3 2.3 0 0 1-1.199.321Zm2.99 7.436V6.842h4v11.999h-4Zm8.973-5.442c.011.012.096.15.254.414.158.265.363.603.616 1.014a339.194 339.194 0 0 1 1.597 2.62l.845 1.394h-4.326c-.27-.44-.515-.837-.735-1.191-.22-.355-.453-.738-.7-1.15-.249-.41-.494-.81-.736-1.2-.243-.389-.451-.73-.625-1.022a18.04 18.04 0 0 0-.364-.591 1.75 1.75 0 0 1-.287-.845c.017-.29.11-.57.27-.812.068-.112.192-.313.372-.6a128.84 128.84 0 0 0 1.369-2.231l.701-1.157.735-1.2h4.326L31.026 12.3a1.079 1.079 0 0 0-.169.542c.011.201.082.395.203.557Z"/><path fill="#0A705F" d="M46.057 14.345a2.662 2.662 0 0 0-.54-.913 2.629 2.629 0 0 0-.888-.625 4.285 4.285 0 0 0-1.208-.321v-.05a4.19 4.19 0 0 0 1.386-.753c.365-.3.667-.67.886-1.09a2.79 2.79 0 0 0 .313-1.3 2.337 2.337 0 0 0-.253-1.107 2.356 2.356 0 0 0-.743-.828 3.45 3.45 0 0 0-1.192-.516 6.844 6.844 0 0 0-1.597-.169 7.706 7.706 0 0 0-1.056.076 8.49 8.49 0 0 0-1.072.22c-.34.092-.668.22-.98.38l.236 1.335c.248-.101.487-.189.718-.262a6.779 6.779 0 0 1 1.293-.279 5.35 5.35 0 0 1 .591-.034 4.81 4.81 0 0 1 1.065.102c.254.05.495.151.71.296.175.123.312.293.397.49.089.222.132.46.127.7a1.96 1.96 0 0 1-.229.947 2.192 2.192 0 0 1-.642.727c-.3.214-.634.374-.988.473a4.469 4.469 0 0 1-1.267.169h-.322L40.6 13.33h.54c.499-.007.997.036 1.487.127.367.065.72.197 1.04.388.261.16.474.387.616.66.141.291.21.613.203.937a2.24 2.24 0 0 1-.186.955 1.628 1.628 0 0 1-.566.659c-.293.19-.62.323-.963.388a6.55 6.55 0 0 1-1.377.127c-.17 0-.335-.006-.499-.017a7.946 7.946 0 0 1-1.081-.144 17.917 17.917 0 0 1-.65-.143l-.22 1.436c.247.045.486.087.718.127.231.04.46.073.684.101a9.742 9.742 0 0 0 1.284.076 8.318 8.318 0 0 0 1.606-.143c.45-.084.885-.232 1.292-.44.356-.18.677-.424.946-.718.254-.282.45-.613.575-.971.134-.395.2-.809.194-1.225a3.468 3.468 0 0 0-.186-1.166Z"/></svg>