<svg xmlns="http://www.w3.org/2000/svg" viewBox="0 0 147 24"><path fill="#7B0A02" d="M0 0h147v24H0z"/><path fill="#fff" d="M6.004 18V6.001h3.937V18H6.004Zm9.294-10.09L17.562 18h-4.309L10.55 6.001h2.416a2.276 2.276 0 0 1 1.513.55c.42.345.71.826.82 1.36ZM18.154 18V6.001h3.937V18h-3.937Zm6.91-7.436a2.383 2.383 0 0 1-2.4-2.4 2.303 2.303 0 0 1 .323-1.2 2.411 2.411 0 0 1 3.278-.861c.355.209.652.506.861.861.215.363.326.778.322 1.2a2.4 2.4 0 0 1-1.183 2.079 2.302 2.302 0 0 1-1.2.321ZM28.057 18V6.001h3.937V18h-3.937Zm8.922-5.442c.011.012.096.15.253.414.158.265.364.603.617 1.014a315.936 315.936 0 0 1 1.597 2.62c.247.411.529.876.845 1.394h-4.326c-.27-.44-.516-.837-.735-1.191-.22-.355-.453-.738-.7-1.15-.249-.41-.494-.81-.737-1.2-.242-.389-.45-.73-.625-1.022-.174-.293-.296-.49-.363-.591a1.748 1.748 0 0 1-.287-.845c.017-.29.11-.57.27-.812.068-.113.192-.313.372-.6s.391-.628.633-1.022c.243-.395.488-.797.736-1.209l.7-1.157.736-1.2h4.326l-3.346 5.458a1.08 1.08 0 0 0-.17.542c.012.201.082.395.203.557h.001Z"/><path fill="#FFC7BD" d="M44.861 18.002h1.775V13.05h4.53l.185-1.47h-4.715V7.49h6.135V6.002h-7.91v12ZM59.81 9.738a4.637 4.637 0 0 0-2.29-.54 4.617 4.617 0 0 0-2.308.557 3.898 3.898 0 0 0-1.537 1.572 4.969 4.969 0 0 0-.55 2.4 5.184 5.184 0 0 0 .516 2.39c.324.65.84 1.185 1.479 1.53.687.36 1.455.54 2.23.524a4.764 4.764 0 0 0 2.333-.557 3.94 3.94 0 0 0 1.58-1.59c.393-.75.587-1.587.566-2.433a4.892 4.892 0 0 0-.524-2.324 3.694 3.694 0 0 0-1.495-1.529Zm-.102 5.662a2.3 2.3 0 0 1-.92 1.056 2.622 2.622 0 0 1-1.353.346 2.404 2.404 0 0 1-1.318-.354 2.382 2.382 0 0 1-.88-1.065 4.27 4.27 0 0 1-.32-1.757c-.02-.586.09-1.17.32-1.708.19-.423.506-.777.905-1.014a2.736 2.736 0 0 1 1.394-.338c.38-.01.758.063 1.108.212.306.138.573.35.777.617.218.29.376.62.464.971.106.412.157.835.153 1.26a4.205 4.205 0 0 1-.33 1.774ZM66.586 16.76a1.46 1.46 0 0 1-.177.008.908.908 0 0 1-.372-.068.612.612 0 0 1-.253-.211.918.918 0 0 1-.144-.364 2.777 2.777 0 0 1-.042-.523V5.242l-1.724.254v10.867c-.007.284.039.568.135.836a1.408 1.408 0 0 0 .989.879c.245.064.498.095.752.093.135 0 .264-.006.389-.017a3.67 3.67 0 0 0 .659-.118l.168-1.335-.203.033c-.067.012-.126.02-.177.025ZM76.042 9.382H73.93l-2.892 3.178h-.623V5.242l-1.724.254v12.506h1.724v-4.14h.028l3.453 4.14h2.23l-4.099-4.62 4.015-4ZM83.596 10.473a3.066 3.066 0 0 0-1.242-.955 4.338 4.338 0 0 0-1.715-.321 4.203 4.203 0 0 0-1.724.338c-.495.216-.937.54-1.293.946a4.138 4.138 0 0 0-.811 1.462 6.109 6.109 0 0 0-.279 1.901 5.12 5.12 0 0 0 .498 2.358c.322.637.84 1.152 1.48 1.47.749.353 1.571.524 2.4.498.398.004.796-.022 1.19-.076.33-.047.656-.123.972-.228a6.31 6.31 0 0 0 .913-.388l.118-1.302c-.214.08-.43.158-.65.237-.22.079-.448.15-.685.211a5.094 5.094 0 0 1-.727.135 6.485 6.485 0 0 1-.743.043 5.33 5.33 0 0 1-1.319-.144 2.168 2.168 0 0 1-.937-.49 2.14 2.14 0 0 1-.575-.938 4.28 4.28 0 0 1-.184-1.115h6.107a6.47 6.47 0 0 0-.093-2.096 3.95 3.95 0 0 0-.7-1.546Zm-4.259.405a2.391 2.391 0 0 1 1.319-.346c.464-.024.922.11 1.301.38.337.268.577.64.684 1.056.085.309.126.627.123.947H78.32c.031-.337.103-.67.214-.99.145-.428.427-.796.803-1.047ZM98.18 9.551a2.94 2.94 0 0 0-1.503-.354 3.953 3.953 0 0 0-1.335.228 4.703 4.703 0 0 0-1.217.65 6.13 6.13 0 0 0-.6.507 2.119 2.119 0 0 0-.87-1.014 2.977 2.977 0 0 0-1.522-.355c-.451 0-.9.078-1.326.229a4.809 4.809 0 0 0-1.58.924V9.214l-1.725.254v8.534h1.724v-6.428c.204-.133.415-.252.634-.357.268-.127.549-.226.837-.296.265-.065.538-.1.811-.101.251-.008.501.035.735.127.194.082.365.21.499.371.146.189.248.409.296.643.065.302.097.611.093.92v5.121h1.723v-5.476a6.805 6.805 0 0 0-.065-.966c.195-.128.398-.246.606-.352.264-.132.541-.234.828-.304.271-.066.55-.1.828-.101.249-.007.496.037.727.126.197.08.371.208.507.372.147.189.248.408.296.642.066.303.097.612.093.921v5.138h1.724V12.51a4.917 4.917 0 0 0-.305-1.877 2.177 2.177 0 0 0-.912-1.082ZM107.645 15.898c-.128.078-.254.15-.381.21-.2.099-.406.186-.616.263a4.04 4.04 0 0 1-.617.169c-.215.04-.433.06-.651.06a2.089 2.089 0 0 1-1.031-.229 1.377 1.377 0 0 1-.6-.693 2.96 2.96 0 0 1-.194-1.14V9.213l-1.724.253v5.374c-.021.642.091 1.28.33 1.876.196.47.548.859.997 1.099.5.25 1.055.372 1.614.355.353.003.705-.04 1.047-.127a4.08 4.08 0 0 0 .939-.371c.304-.168.593-.363.861-.584.05-.04.099-.087.148-.13l.249 1.042h1.336l.016-8.788-1.723.254v6.431ZM117.345 14.115a2.531 2.531 0 0 0-.591-.465 4.585 4.585 0 0 0-.711-.33c-.18-.056-.357-.115-.532-.177a9.138 9.138 0 0 0-.524-.17c-.174-.05-.343-.103-.507-.16a3.694 3.694 0 0 1-.447-.186 3 3 0 0 1-.398-.253 1.109 1.109 0 0 1-.287-.321.813.813 0 0 1-.11-.423.872.872 0 0 1 .119-.465.956.956 0 0 1 .355-.33c.176-.096.367-.165.566-.202.248-.047.499-.07.752-.067a5.451 5.451 0 0 1 .887.076c.175.028.349.065.524.11.174.044.352.095.532.151.167.052.331.114.49.187l.119-1.37a8.419 8.419 0 0 0-.634-.236 6.295 6.295 0 0 0-.634-.17 5.121 5.121 0 0 0-.634-.092 7.617 7.617 0 0 0-.616-.026 5.567 5.567 0 0 0-1.386.16 3.487 3.487 0 0 0-1.09.474c-.303.2-.55.473-.719.794a2.424 2.424 0 0 0-.253 1.141c-.005.285.04.568.135.837.08.225.2.434.355.617.15.172.324.323.515.447.2.131.412.242.634.33.124.045.253.09.389.135.135.045.268.087.397.127a38.039 38.039 0 0 1 .744.237c.118.039.233.075.346.11.151.053.298.118.439.194.125.065.241.145.347.236a.87.87 0 0 1 .296.668.842.842 0 0 1-.279.668 1.618 1.618 0 0 1-.727.346c-.313.069-.634.103-.955.101a4.714 4.714 0 0 1-.6-.042 9.077 9.077 0 0 1-.693-.118c-.242-.051-.49-.113-.743-.186-.254-.073-.51-.155-.769-.245l.067 1.437c.293.101.561.183.803.245.243.062.474.115.693.16.212.044.427.072.642.085.209.01.42.016.634.016.472.003.942-.046 1.403-.144a3.617 3.617 0 0 0 1.149-.447c.32-.195.584-.469.769-.795.193-.357.289-.759.279-1.165a2.369 2.369 0 0 0-.144-.87 1.968 1.968 0 0 0-.397-.634ZM121.408 5.673a1.091 1.091 0 0 0-.582-.16 1.138 1.138 0 0 0-.592.16 1.248 1.248 0 0 0-.431.422 1.09 1.09 0 0 0-.16.583c-.002.209.054.413.16.592.104.177.252.323.431.422.181.102.385.154.592.153.204.002.405-.05.582-.153.174-.1.318-.246.415-.422.101-.18.154-.384.152-.592a1.146 1.146 0 0 0-.152-.583 1.197 1.197 0 0 0-.415-.422ZM119.931 18.002h1.724V9.213l-1.724.254v8.534ZM131.643 9.382h-2.113l-2.892 3.178h-.623V5.242l-1.724.254v12.506h1.724v-4.14h.028l3.453 4.14h2.231l-4.1-4.62 4.016-4ZM138.369 18.002h2.231l-4.1-4.62 4.015-4h-2.112l-2.892 3.178h-.624V5.242l-1.723.254v12.506h1.723v-4.14h.029l3.453 4.14Z"/></svg>