<svg xmlns="http://www.w3.org/2000/svg" viewBox="0 0 472 48"><path fill="#fff" d="M0 45V3.004h13.78V45H0ZM32.528 9.688 40.453 45h-15.08L15.908 3.004h8.459a7.965 7.965 0 0 1 5.293 1.922 8.31 8.31 0 0 1 2.867 4.762ZM42.523 45V3.004h13.78V45h-13.78Zm24.189-26.026a8.213 8.213 0 0 1-4.228-1.124 8.336 8.336 0 0 1-3.046-3.046 8.206 8.206 0 0 1-1.125-4.229 8.056 8.056 0 0 1 1.125-4.2 8.437 8.437 0 0 1 3.046-3.016 8.232 8.232 0 0 1 4.228-1.124 8.083 8.083 0 0 1 4.199 1.124 8.503 8.503 0 0 1 3.016 3.016 8.075 8.075 0 0 1 1.125 4.2 8.226 8.226 0 0 1-1.125 4.23 8.4 8.4 0 0 1-3.016 3.045 8.059 8.059 0 0 1-4.201 1.124h.002ZM77.18 45V3.004h13.781V45H77.181Zm31.227-19.046c.039.04.334.524.887 1.449.553.925 1.272 2.108 2.159 3.549a1143.28 1143.28 0 0 1 5.589 9.168A854.89 854.89 0 0 0 120 45h-15.141c-.947-1.538-1.804-2.928-2.573-4.17a382.214 382.214 0 0 1-2.453-4.022 351.934 351.934 0 0 0-2.574-4.2 213.445 213.445 0 0 1-2.188-3.578 62.753 62.753 0 0 0-1.272-2.07 6.119 6.119 0 0 1-1.005-2.958 5.744 5.744 0 0 1 .946-2.84c.236-.394.67-1.095 1.3-2.1.632-1.006 1.371-2.198 2.219-3.579a636.03 636.03 0 0 0 2.574-4.229c.869-1.439 1.686-2.79 2.453-4.052.77-1.26 1.628-2.66 2.573-4.2H120l-11.711 19.106a3.773 3.773 0 0 0-.592 1.894c.039.706.286 1.385.709 1.952h.002ZM136 45.005h6.211v-17.33h15.852l.651-5.146h-16.503V8.214h21.472V3.008H136v41.997ZM188.319 16.083a16.228 16.228 0 0 0-8.015-1.893c-2.816-.064-5.6.609-8.075 1.952a13.642 13.642 0 0 0-5.382 5.501 17.382 17.382 0 0 0-1.923 8.4 18.124 18.124 0 0 0 1.804 8.37 12.341 12.341 0 0 0 5.175 5.352 16.093 16.093 0 0 0 7.808 1.834 16.677 16.677 0 0 0 8.164-1.951 13.795 13.795 0 0 0 5.531-5.561 17.418 17.418 0 0 0 1.981-8.519 17.114 17.114 0 0 0-1.835-8.133 12.924 12.924 0 0 0-5.233-5.352Zm-.356 19.815a8.048 8.048 0 0 1-3.223 3.697 9.178 9.178 0 0 1-4.732 1.214 8.413 8.413 0 0 1-4.615-1.242 8.347 8.347 0 0 1-3.076-3.726 14.937 14.937 0 0 1-1.122-6.151c-.07-2.05.313-4.09 1.122-5.976a7.868 7.868 0 0 1 3.166-3.549 9.575 9.575 0 0 1 4.879-1.183 9.306 9.306 0 0 1 3.875.74 7.097 7.097 0 0 1 2.721 2.16 9.546 9.546 0 0 1 1.626 3.4c.37 1.44.549 2.921.532 4.408a14.708 14.708 0 0 1-1.153 6.208ZM212.037 40.657a5.177 5.177 0 0 1-.621.032 3.183 3.183 0 0 1-1.301-.238 2.142 2.142 0 0 1-.887-.74 3.225 3.225 0 0 1-.503-1.272 9.79 9.79 0 0 1-.148-1.833V.348l-6.034.887V39.27c-.025.997.136 1.99.474 2.928a4.931 4.931 0 0 0 1.361 1.981 5.203 5.203 0 0 0 2.1 1.095c.859.223 1.744.332 2.632.325.473 0 .926-.02 1.36-.058a12.53 12.53 0 0 0 1.272-.179c.414-.08.758-.157 1.034-.235l.592-4.674-.711.118c-.235.04-.442.068-.62.087ZM245.133 14.838h-7.394l-10.122 11.12h-2.181V.349l-6.033.887v43.771h6.033V30.515h.098l12.085 14.491h7.808L231.08 28.84l14.053-14ZM271.572 18.654a10.73 10.73 0 0 0-4.348-3.342 15.179 15.179 0 0 0-6.003-1.124 14.714 14.714 0 0 0-6.034 1.183 12.894 12.894 0 0 0-4.525 3.312 14.486 14.486 0 0 0-2.84 5.117 21.384 21.384 0 0 0-.975 6.654 17.907 17.907 0 0 0 1.744 8.252 11.559 11.559 0 0 0 5.176 5.146 18.395 18.395 0 0 0 8.4 1.745 29.033 29.033 0 0 0 4.169-.266 19.955 19.955 0 0 0 3.402-.799 22.037 22.037 0 0 0 3.194-1.36l.414-4.555c-.75.276-1.509.552-2.278.828-.769.276-1.567.523-2.395.74a17.83 17.83 0 0 1-2.543.472c-.864.1-1.733.149-2.603.149a18.656 18.656 0 0 1-4.614-.503 7.587 7.587 0 0 1-3.282-1.716 7.491 7.491 0 0 1-2.011-3.283 14.94 14.94 0 0 1-.645-3.902h21.376a22.655 22.655 0 0 0-.325-7.337 13.83 13.83 0 0 0-2.454-5.411Zm-14.906 1.42a8.37 8.37 0 0 1 4.614-1.213 7.231 7.231 0 0 1 4.554 1.33 6.955 6.955 0 0 1 2.395 3.698 12.15 12.15 0 0 1 .432 3.312h-15.556c.11-1.18.362-2.341.75-3.46a7.153 7.153 0 0 1 2.811-3.667ZM322.618 15.43a10.294 10.294 0 0 0-5.265-1.242 13.832 13.832 0 0 0-4.672.798 16.444 16.444 0 0 0-4.258 2.278 21.426 21.426 0 0 0-2.099 1.774 7.42 7.42 0 0 0-3.048-3.549 10.423 10.423 0 0 0-5.324-1.242c-1.582 0-3.152.27-4.643.799a16.833 16.833 0 0 0-4.29 2.247c-.424.307-.836.64-1.242.986V14.25l-6.033.887v29.871h6.033V22.51a19.24 19.24 0 0 1 2.218-1.25c.939-.444 1.92-.79 2.928-1.036a12.22 12.22 0 0 1 2.84-.355 6.527 6.527 0 0 1 2.573.445 4.565 4.565 0 0 1 1.745 1.3c.514.66.868 1.43 1.036 2.248.23 1.059.339 2.14.325 3.224v17.922h6.033V25.843a23.919 23.919 0 0 0-.228-3.383c.684-.45 1.392-.86 2.121-1.231a13.557 13.557 0 0 1 2.897-1.065c.95-.232 1.923-.351 2.9-.355a6.58 6.58 0 0 1 2.543.444c.69.28 1.3.728 1.775 1.302a5.393 5.393 0 0 1 1.034 2.247c.231 1.058.34 2.14.326 3.223v17.982h6.034V25.783a17.232 17.232 0 0 0-1.065-6.566 7.623 7.623 0 0 0-3.194-3.787ZM355.742 37.643a15.75 15.75 0 0 1-1.332.737c-.703.344-1.423.65-2.158.918a14.13 14.13 0 0 1-2.16.592c-.75.14-1.513.21-2.276.207a7.301 7.301 0 0 1-3.608-.798 4.801 4.801 0 0 1-2.1-2.426 10.324 10.324 0 0 1-.681-3.992V14.25l-6.034.887v18.81c-.073 2.244.32 4.48 1.154 6.565a7.738 7.738 0 0 0 3.49 3.845c1.752.873 3.693 1.3 5.649 1.243 1.236.008 2.468-.14 3.667-.444a14.267 14.267 0 0 0 3.284-1.301 19.7 19.7 0 0 0 3.015-2.042c.174-.14.345-.306.518-.455l.872 3.647h4.673l.059-30.758-6.032.887v22.51ZM389.692 31.402a8.811 8.811 0 0 0-2.07-1.628 16.034 16.034 0 0 0-2.485-1.153 52.2 52.2 0 0 1-1.862-.621 32.965 32.965 0 0 0-1.835-.592 37.405 37.405 0 0 1-1.774-.562c-.536-.182-1.06-.4-1.567-.65a10.304 10.304 0 0 1-1.391-.888 3.896 3.896 0 0 1-1.005-1.123 2.842 2.842 0 0 1-.385-1.48 3.064 3.064 0 0 1 .415-1.626 3.362 3.362 0 0 1 1.242-1.153 6.725 6.725 0 0 1 1.982-.711 13.316 13.316 0 0 1 2.632-.236 19.081 19.081 0 0 1 3.105.268c.612.098 1.222.226 1.833.382s1.232.336 1.864.533c.585.18 1.158.398 1.715.652l.415-4.792a29.06 29.06 0 0 0-2.218-.83 22.042 22.042 0 0 0-2.219-.591 17.876 17.876 0 0 0-2.218-.325c-.73-.06-1.45-.089-2.159-.089a19.495 19.495 0 0 0-4.85.562c-1.357.33-2.647.89-3.815 1.656a7.532 7.532 0 0 0-2.514 2.78 8.462 8.462 0 0 0-.888 3.993 8.338 8.338 0 0 0 .474 2.928c.28.789.701 1.52 1.242 2.159a8.633 8.633 0 0 0 1.804 1.567c.698.46 1.441.846 2.218 1.154.432.158.886.316 1.361.472.474.157.937.305 1.39.446.452.138.895.275 1.331.413.432.139.857.276 1.271.414.414.138.819.266 1.213.384.529.188 1.043.415 1.538.68.434.23.84.508 1.212.828.327.287.589.64.768 1.036.182.409.273.852.267 1.3a2.96 2.96 0 0 1-.976 2.339 5.67 5.67 0 0 1-2.543 1.211 15.115 15.115 0 0 1-3.342.355 16.431 16.431 0 0 1-2.1-.148 31.322 31.322 0 0 1-2.425-.414 35.976 35.976 0 0 1-2.604-.65 54.152 54.152 0 0 1-2.69-.857l.237 5.027c1.024.355 1.961.641 2.809.858.849.217 1.657.404 2.425.562.741.154 1.493.253 2.248.296a41.72 41.72 0 0 0 2.218.058c1.65.009 3.296-.16 4.91-.504a12.66 12.66 0 0 0 4.022-1.566 7.72 7.72 0 0 0 2.691-2.78 8.108 8.108 0 0 0 .975-4.08 8.28 8.28 0 0 0-.502-3.047 6.882 6.882 0 0 0-1.39-2.217ZM403.914 1.855a3.825 3.825 0 0 0-2.04-.562 3.985 3.985 0 0 0-2.07.562 4.35 4.35 0 0 0-1.507 1.479 3.825 3.825 0 0 0-.562 2.04 3.97 3.97 0 0 0 .562 2.07c.361.62.882 1.13 1.507 1.48a4.163 4.163 0 0 0 2.07.532 3.996 3.996 0 0 0 2.04-.533 3.857 3.857 0 0 0 1.45-1.478 4.156 4.156 0 0 0 .533-2.07 4.002 4.002 0 0 0-.533-2.041 4.187 4.187 0 0 0-1.45-1.479ZM398.742 45.005h6.034V14.247l-6.034.887v29.871ZM439.734 14.838h-7.394l-10.122 11.12h-2.181V.349l-6.034.887v43.771h6.034V30.515h.098l12.086 14.491h7.808L425.681 28.84l14.053-14ZM463.276 45.005h7.808l-14.348-16.167 14.052-14h-7.394l-10.122 11.12h-2.181V.349l-6.034.887v43.771h6.034V30.515h.098l12.087 14.49Z"/></svg>