<svg xmlns="http://www.w3.org/2000/svg" viewBox="0 0 35 31" fill="currentColor"><path d="M0 13V1h3.937v12H0ZM9.294 2.91 11.558 13H7.25L4.545 1h2.417a2.276 2.276 0 0 1 1.513.55c.42.346.71.826.819 1.36ZM12.149 13V1h3.938v12h-3.938Zm6.912-7.436a2.382 2.382 0 0 1-2.4-2.4 2.301 2.301 0 0 1 .321-1.2 2.41 2.41 0 0 1 3.278-.862c.356.21.653.506.862.862.215.363.326.778.321 1.2a2.35 2.35 0 0 1-.321 1.208 2.4 2.4 0 0 1-.862.87 2.302 2.302 0 0 1-1.2.322Zm2.99 7.435V1.002h3.938v11.998h-3.937Zm8.923-5.441c.01.011.095.15.253.414s.364.602.617 1.014a311.524 311.524 0 0 1 1.597 2.62c.247.41.529.875.845 1.393H29.96c-.27-.439-.516-.836-.736-1.191-.22-.355-.453-.738-.7-1.15-.248-.41-.493-.81-.736-1.2-.242-.388-.45-.729-.625-1.021a17.98 17.98 0 0 0-.363-.592A1.747 1.747 0 0 1 26.513 7c.016-.29.11-.57.27-.811.067-.113.191-.313.371-.6a182.36 182.36 0 0 0 1.37-2.23l.7-1.159.736-1.2h4.326L30.94 6.46a1.08 1.08 0 0 0-.17.541c.012.202.082.396.203.558ZM8.145 19.697a3.02 3.02 0 0 0-.786-.82 3.77 3.77 0 0 0-1.14-.54 5.402 5.402 0 0 0-1.521-.195H0V30.14h1.774v-4.31h3.059c.69.012 1.371-.157 1.977-.49a3.655 3.655 0 0 0 1.394-1.368 4.034 4.034 0 0 0 .515-2.078 4.932 4.932 0 0 0-.135-1.166 3.362 3.362 0 0 0-.44-1.032Zm-1.572 3.641a2 2 0 0 1-.954.786c-.478.18-.986.267-1.496.254H1.774v-4.765H4.36c.494-.02.985.076 1.436.278.359.174.652.458.836.812.196.396.291.834.28 1.275.019.477-.099.948-.339 1.36ZM12.327 18.54c-.242.129-.479.25-.71.363-.23.112-.464.225-.701.338a8.188 8.188 0 0 1-.727.304c-.248.09-.512.18-.794.27l.372 1.436c.338-.101.645-.202.92-.304.271-.099.536-.212.795-.338.254-.124.507-.259.76-.405l.01-.005v9.941h1.756V18.143h-.912c-.27.134-.527.266-.77.396ZM23.218 25.645a2.661 2.661 0 0 0-.541-.913 2.63 2.63 0 0 0-.887-.625 4.271 4.271 0 0 0-1.209-.32v-.052c.506-.16.976-.416 1.386-.752.366-.3.668-.67.887-1.09.208-.402.315-.848.313-1.3a2.343 2.343 0 0 0-.254-1.108 2.357 2.357 0 0 0-.743-.827 3.447 3.447 0 0 0-1.191-.516 6.846 6.846 0 0 0-1.597-.169 8.358 8.358 0 0 0-2.13.296c-.339.092-.667.22-.98.38l.237 1.335c.248-.101.487-.188.718-.262a6.848 6.848 0 0 1 1.293-.278c.196-.023.394-.034.591-.034a4.83 4.83 0 0 1 1.065.1c.254.052.495.153.71.297.175.123.312.293.397.49.089.223.132.461.127.701.004.33-.074.655-.229.947a2.193 2.193 0 0 1-.642.726c-.3.214-.634.374-.988.473a4.48 4.48 0 0 1-1.268.17h-.32l-.204 1.318h.541c.499-.007.997.035 1.487.126.367.066.72.198 1.04.389.261.16.474.387.616.659.141.292.211.613.203.938.009.328-.055.654-.186.955a1.632 1.632 0 0 1-.566.658 2.69 2.69 0 0 1-.963.389c-.453.09-.915.133-1.377.127a7.28 7.28 0 0 1-1.014-.068 7.816 7.816 0 0 1-.566-.093c-.197-.04-.414-.087-.65-.143l-.22 1.436c.247.045.486.087.718.127.23.039.459.073.684.101.225.028.445.047.659.059.214.011.422.017.625.017a8.289 8.289 0 0 0 1.606-.144c.45-.084.885-.232 1.292-.439.356-.18.677-.424.947-.718.253-.283.449-.613.574-.972.134-.394.2-.808.194-1.225a3.471 3.471 0 0 0-.185-1.166Z"/></svg>