<svg xmlns="http://www.w3.org/2000/svg" style="width:5em;height:2.6em" viewBox="0 0 50 26">
  <path fill="currentColor" d="M0 26V0h26v26H0zm19.975-8.06c-.122-.209-.777-1.248-1.169-1.887l1.176-1.95c.176-.294.168-.477-.007-.778-.09-.154-.886-1.437-.886-1.437h-5.73l1.251 2.1h3.018l-1.246 2.04 1.39 2.332-1.34 2.202h2.446c.394-.644.982-1.639 1.104-1.843.176-.294.168-.477-.007-.779zm-4.38 1.001c.17-.283.162-.459-.006-.75-.118-.201-.749-1.233-1.126-1.85-.377.617-1.008 1.649-1.126 1.85-.168.291-.176.467-.007.75.119.197.754 1.237 1.133 1.857.379-.62 1.015-1.66 1.133-1.857zm-2.537-3.88c.175-.294.167-.476-.007-.777-.19-.324-.19-.324-1.46-2.396H8.913l1.539 2.528c.116.198.123.32.01.51l-1.549 2.539h2.678s1.29-2.112 1.467-2.405zm-6.874 5.5h2.384v-8.673H6.184v8.674zm0-10.015h1.702V5.673H6.184v4.873zm2.895-4.874H7.986l1.099 4.874h1.85l-.001-.003-.912-4.087a.965.965 0 0 0-.943-.784zm1.962 4.874h1.701V5.673h-1.701v4.873zm2.77-4.974c-.531 0-.96.435-.96.971s.429.972.96.972a.968.968 0 0 0 .962-.972.967.967 0 0 0-.963-.97zm1.068 4.974h1.702V5.673H14.88v4.873zM16.9 7.773c-.152.257-.146.416.006.679.154.263 1.273 2.094 1.273 2.094h1.872s-1.325-2.182-1.34-2.21c-.101-.173-.108-.279-.009-.446l1.35-2.218h-1.873S17.054 7.517 16.9 7.773zm18.096 5.368l-4.747-7.357h5.08l2.499 4.414 2.61-4.414h4.996l-4.747 7.357 4.858 7.329h-5.024l-2.666-4.359-2.72 4.359H30.11l4.886-7.33z"/>
</svg>
