<svg xmlns="http://www.w3.org/2000/svg" viewBox="0 0 63 21"><path fill="#0A2343" d="M0 17.334v-14h4.593v14H0ZM10.843 5.563l2.641 11.77H8.457L5.303 3.336h2.82a2.655 2.655 0 0 1 1.764.64c.491.404.829.965.956 1.588Zm3.331 11.77V3.336h4.594v13.998h-4.594Zm8.063-8.675a2.737 2.737 0 0 1-1.409-.374 2.778 2.778 0 0 1-1.015-1.016 2.735 2.735 0 0 1-.375-1.41 2.685 2.685 0 0 1 .375-1.4 2.812 2.812 0 0 1 3.824-1.005c.415.244.761.59 1.005 1.006.251.423.38.907.375 1.4.005.495-.125.982-.375 1.41a2.8 2.8 0 0 1-1.005 1.015c-.424.25-.908.38-1.4.374Zm3.49 8.676v-14h4.594v14h-4.594Zm10.409-6.35c.013.014.111.175.296.484.184.308.424.703.72 1.183a384.573 384.573 0 0 1 1.862 3.056c.289.48.617 1.022.986 1.627h-5.047l-.858-1.39c-.256-.415-.529-.862-.817-1.341-.29-.48-.576-.946-.858-1.4a71.148 71.148 0 0 1-.73-1.193 21.119 21.119 0 0 0-.424-.69 2.04 2.04 0 0 1-.334-.986c.019-.338.128-.664.315-.947.078-.131.223-.364.433-.7a216.7 216.7 0 0 0 1.598-2.603l.817-1.35.858-1.4H40l-3.904 6.369c-.12.189-.189.407-.197.631.013.236.095.462.236.65h.001Z"/><path fill="#00B3C7" d="M56.345.803a10.4 10.4 0 0 1 3.296 2.223 10.398 10.398 0 0 1 2.223 3.296c.539 1.271.812 2.64.802 4.02a10.065 10.065 0 0 1-.802 4.003 10.406 10.406 0 0 1-5.52 5.52c-1.27.538-2.64.811-4.02.802-1.381.01-2.75-.264-4.021-.803a10.292 10.292 0 0 1-3.287-2.223 10.48 10.48 0 0 1-2.213-3.296A10.059 10.059 0 0 1 42 10.343c-.01-1.381.264-2.75.803-4.021a10.471 10.471 0 0 1 2.213-3.296A10.286 10.286 0 0 1 48.303.803c1.271-.54 2.64-.813 4.02-.803 1.382-.01 2.75.264 4.022.803Zm-.773 17.176a8.333 8.333 0 0 0 2.648-1.769 8.193 8.193 0 0 0 2.416-5.867 8.195 8.195 0 0 0-.638-3.229 8.254 8.254 0 0 0-1.778-2.648 8.396 8.396 0 0 0-2.648-1.788 8.148 8.148 0 0 0-3.248-.648 8.098 8.098 0 0 0-3.229.648 8.395 8.395 0 0 0-4.437 4.436 8.096 8.096 0 0 0-.647 3.229 8.092 8.092 0 0 0 .647 3.229 8.272 8.272 0 0 0 1.788 2.638 8.331 8.331 0 0 0 2.65 1.77 8.197 8.197 0 0 0 3.228.637 8.248 8.248 0 0 0 3.248-.638Zm-7.763-6.476a1.52 1.52 0 0 1-.454-1.102 1.565 1.565 0 0 1 .454-1.14 1.496 1.496 0 0 1 1.112-.465 1.583 1.583 0 0 1 1.15.464 1.535 1.535 0 0 1 .474 1.141 1.491 1.491 0 0 1-.474 1.102 1.584 1.584 0 0 1-1.15.464 1.496 1.496 0 0 1-1.112-.464Zm7.859-3.383c.013-.04.039-.04.078 0l.463 1.256a.151.151 0 0 0 .155.117l1.372.038c.026 0 .039.01.039.03a.106.106 0 0 1-.039.067l-.986.85a.146.146 0 0 0-.096.194l.348 1.257c0 .064-.02.096-.058.096l-1.14-.754a.347.347 0 0 0-.233 0l-1.082.754c-.052 0-.071-.032-.058-.096l.348-1.257a.208.208 0 0 0-.097-.193l-1.024-.85a.15.15 0 0 1-.02-.069c0-.019.007-.029.02-.029l1.372-.038a.164.164 0 0 0 .174-.117l.464-1.256Z"/></svg>