<svg xmlns="http://www.w3.org/2000/svg" viewBox="0 0 44 31"><path fill="#fff" d="M0 12.997v-12h3.937v12H0Zm9.294-10.09 2.264 10.09H7.25l-2.704-12h2.417a2.276 2.276 0 0 1 1.513.55c.42.346.71.827.819 1.36Zm2.855 10.09v-12h3.938v12h-3.938Zm6.912-7.436a2.381 2.381 0 0 1-2.4-2.4 2.301 2.301 0 0 1 .321-1.2A2.41 2.41 0 0 1 20.26 1.1c.356.21.653.506.862.862.215.363.326.778.321 1.2a2.35 2.35 0 0 1-.321 1.208 2.4 2.4 0 0 1-.862.87 2.302 2.302 0 0 1-1.2.322Zm2.99 7.436v-12h3.938v12h-3.937Zm8.923-5.442c.01.012.095.15.253.414s.364.603.617 1.014a315.218 315.218 0 0 1 1.597 2.62c.247.411.529.876.845 1.394H29.96c-.27-.44-.516-.837-.736-1.192-.22-.354-.453-.738-.7-1.149-.248-.41-.493-.81-.736-1.2-.242-.389-.45-.73-.625-1.022-.175-.293-.296-.49-.363-.592a1.747 1.747 0 0 1-.287-.845c.016-.29.11-.57.27-.811.067-.113.191-.313.371-.6s.392-.628.634-1.022c.242-.395.488-.798.736-1.209l.7-1.157.736-1.2h4.326L30.94 6.456a1.08 1.08 0 0 0-.17.541c.012.202.082.396.203.558Z"/><path fill="#8BB5EB" d="M5.883 25.181a4.4 4.4 0 0 0 .664-.155c.439-.137.845-.364 1.19-.667.345-.308.617-.689.795-1.115.2-.49.298-1.017.287-1.546a4.168 4.168 0 0 0-.38-1.79 2.852 2.852 0 0 0-1.25-1.293 4.843 4.843 0 0 0-2.34-.482H0v11.995h1.757v-4.595h2.585l2.99 4.595h2.061L6.59 25.973l-.706-.792Zm.03-5.35c.35.133.643.384.828.71.193.378.286.8.27 1.224.021.47-.093.937-.33 1.344a1.844 1.844 0 0 1-.945.743c-.47.162-.965.239-1.462.228H1.757v-4.477h2.72c.489-.016.976.061 1.436.228ZM18.5 29.064a.77.77 0 0 1-.66-.27 1.453 1.453 0 0 1-.186-.896l.034-3.48a4.065 4.065 0 0 0-.135-1.081 2.657 2.657 0 0 0-.405-.862 2.291 2.291 0 0 0-.701-.625 3.582 3.582 0 0 0-1.023-.388 6.011 6.011 0 0 0-1.334-.136c-.356 0-.712.023-1.065.068a7.287 7.287 0 0 0-.988.194c-.301.082-.597.18-.887.296l-.203 1.436a9.906 9.906 0 0 1 1.538-.422c.232-.045.466-.076.7-.093.232-.017.46-.026.685-.026.345-.007.689.033 1.022.119.244.06.468.183.65.355.164.167.28.373.339.6.072.278.106.565.1.853l-.001.424-1.975.133a5.25 5.25 0 0 0-1.96.44 2.809 2.809 0 0 0-1.157.937c-.25.366-.382.799-.38 1.242a2.47 2.47 0 0 0 .296 1.19c.206.377.517.684.895.888.461.24.976.356 1.495.337.487.012.971-.069 1.428-.236a3.288 3.288 0 0 0 1.064-.676 4.65 4.65 0 0 0 .332-.354 1.6 1.6 0 0 0 .183.498c.151.259.383.46.66.574.305.123.633.183.962.178.102 0 .2-.003.296-.009.094-.005.187-.02.279-.042l.245-.06c.066-.014.13-.034.194-.058l.186-1.132a1.48 1.48 0 0 1-.287.067 1.91 1.91 0 0 1-.237.017Zm-2.814-.76c-.183.145-.381.27-.591.372a2.65 2.65 0 0 1-.659.22 3.723 3.723 0 0 1-.718.067 1.907 1.907 0 0 1-.802-.152c-.207-.09-.38-.24-.499-.431a1.263 1.263 0 0 1-.169-.667 1.28 1.28 0 0 1 .22-.794c.184-.215.433-.363.71-.423a5.15 5.15 0 0 1 1.317-.135h1.48l-.008 1.677a2.26 2.26 0 0 1-.28.266ZM26.491 21.736c-.017-.006-.033-.015-.05-.021a5.813 5.813 0 0 0-2.146-.388 4.148 4.148 0 0 0-2.103.557 4.14 4.14 0 0 0-1.563 1.613 5.197 5.197 0 0 0-.591 2.577 5.21 5.21 0 0 0 .447 2.247 3.351 3.351 0 0 0 1.285 1.46c.605.357 1.299.536 2.001.516.431.003.86-.054 1.276-.169.414-.119.81-.295 1.174-.523.127-.079.253-.166.38-.258l.212.781h1.402V17.39l-1.724.236v4.11Zm-.904 6.948a3.537 3.537 0 0 1-1.208.245 2.74 2.74 0 0 1-1.385-.33 2.114 2.114 0 0 1-.878-1.013 4.231 4.231 0 0 1-.305-1.715c-.02-.601.096-1.199.338-1.75.207-.445.546-.817.972-1.063a2.994 2.994 0 0 1 1.512-.364 5.106 5.106 0 0 1 1.596.245c.083.027.174.062.262.094v5.207c-.287.175-.59.324-.905.444h.001ZM30.85 30.128h1.722v-8.785l-1.723.253v8.532ZM32.327 17.804a1.094 1.094 0 0 0-.582-.16 1.136 1.136 0 0 0-.592.16 1.24 1.24 0 0 0-.43.422 1.095 1.095 0 0 0-.161.583c-.002.208.054.412.16.591.104.177.252.323.431.423.18.101.385.154.591.152.205.002.406-.05.583-.152.174-.1.317-.247.414-.423.102-.18.154-.384.152-.591a1.14 1.14 0 0 0-.152-.583 1.194 1.194 0 0 0-.414-.422ZM42.844 23.396a3.693 3.693 0 0 0-1.495-1.53 4.638 4.638 0 0 0-2.29-.54 4.612 4.612 0 0 0-2.306.558 3.896 3.896 0 0 0-1.537 1.57 4.97 4.97 0 0 0-.549 2.4 5.177 5.177 0 0 0 .515 2.39c.324.65.84 1.184 1.478 1.53.688.36 1.455.54 2.23.523a4.759 4.759 0 0 0 2.332-.557 3.933 3.933 0 0 0 1.58-1.588 4.98 4.98 0 0 0 .566-2.433 4.896 4.896 0 0 0-.524-2.323Zm-1.597 4.13c-.19.44-.511.809-.92 1.056a2.625 2.625 0 0 1-1.352.347 2.403 2.403 0 0 1-1.318-.355 2.38 2.38 0 0 1-.878-1.064 4.26 4.26 0 0 1-.32-1.757c-.02-.586.089-1.169.32-1.707.19-.423.505-.777.904-1.013a2.736 2.736 0 0 1 1.394-.338c.38-.01.757.062 1.106.21.306.139.574.35.778.617.217.29.375.62.464.972.106.411.157.834.152 1.259a4.207 4.207 0 0 1-.33 1.773Z"/></svg>