<svg xmlns="http://www.w3.org/2000/svg" viewBox="0 0 230 24"><path fill="#01405C" d="M0 0h230v24H0z"/><path fill="#fff" d="M6.004 18V6.001h3.937v12H6.004Zm9.294-10.089 2.264 10.09h-4.309L10.55 6h2.416a2.276 2.276 0 0 1 1.513.55c.42.346.71.826.82 1.36Zm2.856 10.09V6h3.937v12h-3.937Zm6.91-7.437a2.382 2.382 0 0 1-2.4-2.4 2.303 2.303 0 0 1 .323-1.2 2.412 2.412 0 0 1 3.278-.861c.355.21.652.506.861.862.215.363.326.778.322 1.2a2.4 2.4 0 0 1-1.183 2.079 2.302 2.302 0 0 1-1.2.32ZM28.057 18V6.001h3.937v12h-3.937Zm8.922-5.441c.011.011.096.15.253.414.158.264.364.602.617 1.013a322.716 322.716 0 0 1 1.597 2.62c.247.411.529.876.845 1.394h-4.326c-.27-.44-.516-.836-.735-1.191-.22-.355-.453-.738-.7-1.15-.249-.41-.494-.81-.737-1.2-.242-.388-.45-.73-.625-1.022a18.04 18.04 0 0 0-.363-.591 1.748 1.748 0 0 1-.287-.845c.017-.29.11-.57.27-.812.068-.112.192-.312.372-.6a182.106 182.106 0 0 0 1.37-2.23c.247-.412.48-.798.7-1.158l.735-1.2h4.326l-3.346 5.459a1.08 1.08 0 0 0-.17.54c.012.203.082.397.203.559h.001Z"/><path fill="#85E6D6" d="M54.036 6.002h-2.128l-4.624 5.285h-.635V6.002H44.86v11.99h1.788V12.57h.06l5.03 5.437 2.433-.017-5.77-5.944 5.634-6.045ZM59.09 9.32a3.357 3.357 0 0 0-.901.389c-.29.18-.559.392-.8.633-.04.04-.08.084-.12.126V9.211l-1.736.253v8.527h1.737v-6.379a4.437 4.437 0 0 1 .928-.493c.175-.068.354-.127.536-.178a3.666 3.666 0 0 1 1.191-.126l.205-1.588c-.35-.024-.7.007-1.04.093ZM61.713 17.991h1.736v-8.78l-1.736.253v8.527ZM63.202 5.673a1.11 1.11 0 0 0-.587-.16 1.152 1.152 0 0 0-.596.16 1.246 1.246 0 0 0-.434.422 1.089 1.089 0 0 0-.162.583c-.002.208.054.412.162.59.104.177.254.323.434.423.182.101.387.154.596.152.206.002.408-.05.587-.152.175-.1.32-.247.417-.422.102-.18.155-.385.153-.591a1.135 1.135 0 0 0-.153-.583 1.199 1.199 0 0 0-.417-.422ZM72.777 9.548a3.374 3.374 0 0 0-1.634-.354c-.494 0-.986.077-1.456.228a5.55 5.55 0 0 0-1.37.65 6.736 6.736 0 0 0-.477.346V9.211l-1.736.253v8.527h1.736v-6.413c.168-.097.342-.186.52-.265.239-.105.483-.198.731-.279a5.01 5.01 0 0 1 .732-.177c.234-.038.47-.058.707-.06.278-.006.554.037.817.127.217.078.41.209.561.38.157.187.268.406.324.642.073.299.107.605.102.912v5.133h1.736v-5.488a4.652 4.652 0 0 0-.323-1.874 2.222 2.222 0 0 0-.97-1.08ZM82.096 9.413a6.187 6.187 0 0 0-.792-.16 6.745 6.745 0 0 0-.919-.06 4.149 4.149 0 0 0-1.617.321 4.157 4.157 0 0 0-2.315 2.406 5.65 5.65 0 0 0-.34 2.036c-.02.762.129 1.52.434 2.22a3.28 3.28 0 0 0 1.268 1.452 3.78 3.78 0 0 0 2.025.515 4.943 4.943 0 0 0 1.822-.354 4.32 4.32 0 0 0 .97-.547v.462c.007.38-.048.76-.162 1.123a2.039 2.039 0 0 1-.493.81c-.244.233-.543.402-.868.49a4.59 4.59 0 0 1-1.303.161c-.35 0-.699-.02-1.047-.06a7.441 7.441 0 0 1-1.08-.202 8.279 8.279 0 0 1-1.073-.363l.187 1.486c.313.126.635.23.962.313.345.086.694.15 1.047.194a9.19 9.19 0 0 0 1.123.067 5.529 5.529 0 0 0 2.434-.48 3.403 3.403 0 0 0 1.49-1.335 3.804 3.804 0 0 0 .502-1.967V9.194l-1.665.425c-.192-.08-.39-.15-.59-.206Zm.315 6.763c-.211.122-.43.229-.656.321a4.006 4.006 0 0 1-.612.194 2.786 2.786 0 0 1-.622.068 2.979 2.979 0 0 1-1.472-.33 1.982 1.982 0 0 1-.868-.996 4.457 4.457 0 0 1-.281-1.714c-.008-.466.058-.93.196-1.376a2.59 2.59 0 0 1 .561-.988c.252-.264.56-.469.903-.6a3.307 3.307 0 0 1 1.217-.21c.268 0 .535.022.8.067.27.048.537.112.8.194.083.026.17.06.255.092v5.149c-.075.044-.151.09-.221.13ZM94.394 9.38h-2.128l-2.912 3.174h-.628V5.242l-1.736.253v12.496h1.736v-4.137h.028l3.478 4.137h2.247l-4.13-4.615 4.045-3.997ZM103.297 16.928a.783.783 0 0 1-.664-.27 1.445 1.445 0 0 1-.188-.896l.034-3.478a4.024 4.024 0 0 0-.136-1.08c-.083-.31-.221-.602-.408-.862a2.306 2.306 0 0 0-.707-.625 3.634 3.634 0 0 0-1.029-.388 6.13 6.13 0 0 0-1.345-.135c-.359 0-.717.022-1.073.067a7.404 7.404 0 0 0-.995.194 8.34 8.34 0 0 0-.894.296l-.205 1.435a10.042 10.042 0 0 1 1.55-.422c.233-.044.469-.075.706-.093a9.49 9.49 0 0 1 .69-.025c.346-.007.693.032 1.029.118.245.061.471.183.656.355.164.167.281.373.34.6.072.278.107.564.102.852l-.002.424-1.99.133a5.33 5.33 0 0 0-1.974.44c-.466.202-.87.526-1.166.936a2.171 2.171 0 0 0-.383 1.242c-.003.415.1.824.298 1.19.208.376.521.684.902.887.464.24.983.356 1.507.337.49.012.978-.069 1.438-.236a3.318 3.318 0 0 0 1.072-.675c.118-.113.23-.23.335-.354.033.175.096.343.185.497.151.259.384.46.663.574.308.123.638.183.97.177.103 0 .202-.002.298-.008.095-.005.189-.02.281-.042l.247-.06c.067-.014.132-.034.196-.058l.187-1.132a1.509 1.509 0 0 1-.289.068c-.079.01-.159.016-.238.017Zm-2.835-.76c-.184.144-.384.269-.595.371-.211.102-.434.176-.664.22a3.78 3.78 0 0 1-.724.067 1.932 1.932 0 0 1-.808-.152 1.11 1.11 0 0 1-.503-.43 1.259 1.259 0 0 1-.17-.667 1.27 1.27 0 0 1 .221-.794c.186-.214.437-.363.715-.422a5.237 5.237 0 0 1 1.328-.135h1.49l-.007 1.676a2.325 2.325 0 0 1-.283.266ZM110.82 14.108a2.595 2.595 0 0 0-.596-.465 4.67 4.67 0 0 0-.715-.329c-.182-.056-.36-.115-.536-.177a9.52 9.52 0 0 0-.528-.17c-.176-.05-.346-.103-.511-.16a3.718 3.718 0 0 1-.451-.185 2.937 2.937 0 0 1-.4-.254 1.1 1.1 0 0 1-.289-.32.804.804 0 0 1-.111-.423.87.87 0 0 1 .119-.464.964.964 0 0 1 .358-.33c.178-.096.37-.165.57-.202.25-.047.504-.07.758-.067a5.55 5.55 0 0 1 .893.075c.176.028.352.066.528.11.176.045.354.096.536.152.168.052.333.114.493.186l.12-1.368a8.587 8.587 0 0 0-.638-.236 6.395 6.395 0 0 0-.639-.17 5.2 5.2 0 0 0-.638-.092 7.745 7.745 0 0 0-.621-.025 5.652 5.652 0 0 0-1.396.16 3.534 3.534 0 0 0-1.098.473c-.305.2-.553.473-.723.793a2.4 2.4 0 0 0-.256 1.14c-.005.285.041.568.137.836.08.226.201.434.357.617.151.172.326.323.519.447.201.131.415.242.639.33.124.045.255.09.391.134.136.046.269.088.4.127a26.045 26.045 0 0 1 .749.237c.119.039.236.075.349.11.152.053.3.118.442.193.125.066.242.145.35.237a.876.876 0 0 1 .221.295.88.88 0 0 1 .076.372.83.83 0 0 1-.28.667 1.64 1.64 0 0 1-.733.346 4.37 4.37 0 0 1-.961.102 4.782 4.782 0 0 1-.604-.043 8.655 8.655 0 0 1-.698-.118 10.723 10.723 0 0 1-.749-.186 14.328 14.328 0 0 1-.775-.245l.068 1.436c.295.101.565.183.809.245.244.062.477.115.698.16.213.044.429.072.647.084.209.012.422.017.638.017a6.68 6.68 0 0 0 1.412-.143 3.66 3.66 0 0 0 1.158-.448c.322-.195.589-.468.775-.793a2.3 2.3 0 0 0 .28-1.165 2.365 2.365 0 0 0-.144-.87 1.995 1.995 0 0 0-.4-.633ZM117.925 16.632l-.289.05a2.583 2.583 0 0 1-.281.035 3.94 3.94 0 0 1-.255.008 1.732 1.732 0 0 1-.758-.152 1.092 1.092 0 0 1-.485-.448 1.414 1.414 0 0 1-.17-.717V10.73h2.4l.187-1.35h-2.587V6.71l-1.736.608v2.06h-1.311l-.187 1.351h1.498v5.032c-.008.336.044.67.153.988.087.252.223.484.4.684.162.179.359.322.579.422.225.103.462.177.706.22.241.044.486.067.732.067.181 0 .36-.005.536-.016a5.553 5.553 0 0 0 .902-.127c.131-.028.241-.053.332-.076l.102-1.402a1.259 1.259 0 0 1-.204.06 7.08 7.08 0 0 1-.264.05ZM120.199 17.991h1.736v-8.78l-1.736.253v8.527ZM121.688 5.673a1.107 1.107 0 0 0-.587-.16 1.156 1.156 0 0 0-.596.16 1.242 1.242 0 0 0-.433.422 1.072 1.072 0 0 0-.162.583 1.12 1.12 0 0 0 .162.59c.104.177.253.323.433.423.182.101.388.153.596.152.206.002.409-.05.587-.152.175-.1.32-.247.417-.422.103-.18.155-.385.154-.591a1.136 1.136 0 0 0-.154-.583 1.194 1.194 0 0 0-.417-.422ZM131.263 9.548a3.374 3.374 0 0 0-1.634-.354c-.494 0-.985.077-1.456.228a5.577 5.577 0 0 0-1.847.996V9.211l-1.736.253v8.527h1.736v-6.413a5.34 5.34 0 0 1 .52-.265c.239-.105.483-.198.732-.279.239-.077.483-.136.732-.177.233-.038.469-.058.706-.06.278-.006.555.037.817.127.217.078.41.209.562.38.156.187.267.406.323.642.073.299.107.605.102.912v5.133h1.736v-5.488a4.64 4.64 0 0 0-.323-1.874 2.22 2.22 0 0 0-.97-1.08ZM140.582 9.413a6.183 6.183 0 0 0-.791-.16 6.754 6.754 0 0 0-.92-.06 4.15 4.15 0 0 0-1.617.321 4.161 4.161 0 0 0-2.315 2.406 5.669 5.669 0 0 0-.34 2.036c-.019.762.129 1.52.434 2.22.266.6.708 1.105 1.268 1.452a3.778 3.778 0 0 0 2.025.515 4.945 4.945 0 0 0 1.822-.354c.346-.14.672-.324.97-.547v.462c.007.38-.047.76-.161 1.123a2.052 2.052 0 0 1-.494.81c-.244.233-.542.402-.868.49-.424.116-.863.17-1.303.161-.349 0-.699-.02-1.046-.06a7.407 7.407 0 0 1-1.081-.202 8.272 8.272 0 0 1-1.073-.363l.188 1.486c.313.126.634.23.962.313a8.56 8.56 0 0 0 1.046.194c.373.045.748.068 1.124.067a5.531 5.531 0 0 0 2.434-.48 3.4 3.4 0 0 0 1.489-1.335 3.803 3.803 0 0 0 .503-1.967V9.194l-1.665.425c-.193-.08-.39-.15-.591-.206Zm.315 6.763c-.211.122-.43.23-.655.321a4.026 4.026 0 0 1-.613.194 2.784 2.784 0 0 1-.621.068 2.982 2.982 0 0 1-1.473-.33 1.984 1.984 0 0 1-.868-.996 4.474 4.474 0 0 1-.281-1.714c-.007-.466.059-.93.196-1.376.112-.366.303-.704.562-.988.252-.264.56-.469.902-.6a3.303 3.303 0 0 1 1.217-.21c.268 0 .536.022.8.067.271.048.538.113.8.194.083.026.171.06.256.092v5.149l-.222.13ZM150.855 14.108a2.592 2.592 0 0 0-.596-.465 4.67 4.67 0 0 0-.715-.329c-.182-.056-.36-.115-.536-.177a9.52 9.52 0 0 0-.528-.17c-.176-.05-.346-.103-.511-.16a3.702 3.702 0 0 1-.451-.185 2.927 2.927 0 0 1-.4-.254 1.1 1.1 0 0 1-.289-.32.794.794 0 0 1-.111-.423.87.87 0 0 1 .119-.464.967.967 0 0 1 .358-.33c.178-.096.37-.165.57-.202.249-.047.503-.07.757-.067a5.554 5.554 0 0 1 .894.075c.176.028.351.066.528.11.176.045.354.096.536.152.168.052.333.114.493.186l.12-1.368a8.445 8.445 0 0 0-.639-.236 6.295 6.295 0 0 0-.638-.17 5.21 5.21 0 0 0-.638-.092 7.774 7.774 0 0 0-.622-.025c-.47-.005-.939.049-1.395.16a3.533 3.533 0 0 0-1.098.473c-.305.2-.554.473-.724.793a2.398 2.398 0 0 0-.255 1.14c-.005.285.041.568.136.836.081.226.202.434.357.617.152.172.326.323.52.447.201.131.414.242.638.33a20.464 20.464 0 0 0 .791.262 45.435 45.435 0 0 1 1.098.345c.153.054.301.119.443.194.125.066.242.146.349.237a.876.876 0 0 1 .221.295.896.896 0 0 1 .077.372.831.831 0 0 1-.281.667 1.641 1.641 0 0 1-.732.346c-.316.07-.638.103-.962.102a4.782 4.782 0 0 1-.604-.043 8.73 8.73 0 0 1-.698-.118 10.723 10.723 0 0 1-.749-.186 14.583 14.583 0 0 1-.774-.245l.068 1.436c.295.101.564.183.808.245.244.062.477.115.698.16.213.044.43.072.647.084.21.012.422.017.638.017a6.69 6.69 0 0 0 1.413-.143c.409-.082.8-.234 1.158-.448.321-.195.588-.468.774-.793.195-.358.292-.76.281-1.165a2.346 2.346 0 0 0-.145-.87 1.976 1.976 0 0 0-.399-.633ZM159.647 9.735a4.706 4.706 0 0 0-2.307-.54 4.684 4.684 0 0 0-2.324.557 3.916 3.916 0 0 0-1.549 1.57 4.938 4.938 0 0 0-.553 2.399 5.16 5.16 0 0 0 .519 2.389c.326.65.847 1.183 1.49 1.528.692.36 1.465.54 2.247.524a4.827 4.827 0 0 0 2.349-.557 3.956 3.956 0 0 0 1.592-1.588 4.95 4.95 0 0 0 .57-2.431 4.864 4.864 0 0 0-.528-2.322 3.704 3.704 0 0 0-1.506-1.529Zm-.103 5.657a2.306 2.306 0 0 1-.927 1.056 2.663 2.663 0 0 1-1.362.346 2.436 2.436 0 0 1-1.328-.355 2.387 2.387 0 0 1-.885-1.063 4.231 4.231 0 0 1-.323-1.757 3.95 3.95 0 0 1 .323-1.705c.191-.423.509-.777.911-1.014a2.773 2.773 0 0 1 1.404-.337c.383-.01.763.062 1.115.21.309.139.578.35.783.617.22.29.379.62.468.971.107.411.158.834.153 1.258a4.168 4.168 0 0 1-.332 1.773ZM167.348 9.32a3.366 3.366 0 0 0-.902.389c-.29.18-.558.392-.8.633-.04.04-.079.084-.119.126V9.211l-1.736.253v8.527h1.736v-6.379a4.508 4.508 0 0 1 .928-.493c.176-.068.354-.127.536-.178a3.712 3.712 0 0 1 1.192-.126l.204-1.588c-.349-.024-.7.007-1.039.093ZM177.374 9.38h-2.127l-2.913 3.174h-.628V5.242l-1.736.253v12.496h1.736v-4.137h.028l3.478 4.137h2.247l-4.129-4.615 4.044-3.997ZM185.494 10.469a3.09 3.09 0 0 0-1.251-.954 4.4 4.4 0 0 0-1.728-.321 4.262 4.262 0 0 0-1.736.337c-.499.217-.944.54-1.302.946-.37.427-.648.924-.818 1.46a6.06 6.06 0 0 0-.28 1.9 5.079 5.079 0 0 0 .502 2.356 3.31 3.31 0 0 0 1.489 1.47 5.324 5.324 0 0 0 2.417.497c.402.004.803-.022 1.2-.076a5.778 5.778 0 0 0 1.898-.616l.119-1.3c-.215.079-.434.158-.655.236a8.499 8.499 0 0 1-.689.211 5.237 5.237 0 0 1-.732.135 6.631 6.631 0 0 1-.749.043 5.396 5.396 0 0 1-1.328-.144 2.19 2.19 0 0 1-.945-.49 2.13 2.13 0 0 1-.578-.937 4.22 4.22 0 0 1-.186-1.114h6.152a6.432 6.432 0 0 0-.094-2.094 3.943 3.943 0 0 0-.706-1.545Zm-4.29.405c.4-.24.861-.361 1.328-.346.468-.024.929.11 1.311.38.339.268.581.638.689 1.055.085.308.127.626.124.946h-4.476c.031-.337.104-.669.215-.988.146-.428.431-.796.809-1.047ZM193.8 14.108a2.547 2.547 0 0 0-.596-.465 4.626 4.626 0 0 0-.715-.329c-.181-.056-.36-.115-.536-.177a9.52 9.52 0 0 0-.528-.17c-.176-.05-.346-.103-.511-.16a3.704 3.704 0 0 1-.45-.185 3 3 0 0 1-.401-.254 1.13 1.13 0 0 1-.289-.32.813.813 0 0 1-.111-.423.871.871 0 0 1 .12-.464.97.97 0 0 1 .357-.33c.178-.096.371-.165.57-.202.25-.047.504-.07.758-.067a5.529 5.529 0 0 1 .894.075c.176.028.351.066.527.11.176.045.355.096.537.152.168.052.333.114.493.186l.119-1.368a8.425 8.425 0 0 0-.638-.236 6.438 6.438 0 0 0-.638-.17 5.214 5.214 0 0 0-.639-.092 7.75 7.75 0 0 0-.621-.025c-.47-.005-.939.049-1.396.16-.39.094-.762.254-1.098.473-.304.2-.553.473-.723.793a2.387 2.387 0 0 0-.255 1.14c-.006.285.04.568.136.836.08.226.201.434.357.617.151.172.326.323.519.447.201.131.415.242.639.33a22.941 22.941 0 0 0 .791.262 45.083 45.083 0 0 1 .749.236c.119.039.236.075.349.11.152.053.3.118.443.193.124.066.242.146.349.237a.876.876 0 0 1 .221.295.88.88 0 0 1 .076.372.83.83 0 0 1-.28.667 1.642 1.642 0 0 1-.732.346c-.316.07-.639.103-.962.102a4.782 4.782 0 0 1-.604-.043 8.655 8.655 0 0 1-.698-.118 10.723 10.723 0 0 1-.749-.186 14.614 14.614 0 0 1-.775-.245l.068 1.436c.295.101.565.183.809.245.244.062.477.115.698.16.213.044.429.072.647.084.209.012.422.017.638.017.475.003.948-.045 1.413-.143.409-.083.8-.234 1.157-.448.322-.195.589-.468.775-.793a2.3 2.3 0 0 0 .28-1.165 2.365 2.365 0 0 0-.144-.87 1.978 1.978 0 0 0-.4-.633ZM200.907 16.632l-.289.05a2.558 2.558 0 0 1-.281.035 3.97 3.97 0 0 1-.256.008 1.725 1.725 0 0 1-.757-.152 1.093 1.093 0 0 1-.485-.448 1.404 1.404 0 0 1-.17-.717V10.73h2.4l.187-1.35h-2.587V6.71l-1.737.608v2.06h-1.311l-.187 1.351h1.498v5.032c-.008.336.044.67.153.988.088.252.224.484.4.684.162.179.359.322.579.422.225.103.463.177.706.22.242.044.487.067.732.067.182 0 .361-.005.537-.016a5.595 5.595 0 0 0 .902-.127c.13-.028.241-.053.332-.076l.102-1.402a1.289 1.289 0 0 1-.204.06c-.08.016-.168.033-.264.05ZM206.737 9.32a3.358 3.358 0 0 0-.903.389c-.29.18-.558.392-.8.633-.04.04-.079.084-.119.126V9.211l-1.736.253v8.527h1.736v-6.379a4.508 4.508 0 0 1 .928-.493c.176-.068.354-.127.536-.178a3.712 3.712 0 0 1 1.192-.126l.204-1.588c-.349-.024-.7.007-1.038.093ZM215.945 10.469a3.076 3.076 0 0 0-1.251-.954 4.399 4.399 0 0 0-1.727-.321 4.266 4.266 0 0 0-1.737.337c-.498.217-.943.54-1.302.946a4.133 4.133 0 0 0-.817 1.46 6.06 6.06 0 0 0-.281 1.9 5.08 5.08 0 0 0 .502 2.356 3.313 3.313 0 0 0 1.49 1.47 5.323 5.323 0 0 0 2.417.497c.401.004.802-.022 1.2-.076a5.791 5.791 0 0 0 1.898-.616l.119-1.3c-.216.079-.434.158-.656.236-.221.079-.45.149-.689.211a5.21 5.21 0 0 1-.732.135 6.605 6.605 0 0 1-.749.043 5.4 5.4 0 0 1-1.328-.144 2.185 2.185 0 0 1-.944-.49 2.131 2.131 0 0 1-.579-.937 4.26 4.26 0 0 1-.185-1.114h6.151a6.431 6.431 0 0 0-.093-2.094 3.93 3.93 0 0 0-.707-1.545Zm-4.289.405c.399-.24.861-.361 1.328-.346.467-.024.929.11 1.31.38.339.268.581.639.689 1.055.085.308.127.626.125.946h-4.477c.032-.337.104-.669.216-.988.146-.428.43-.796.809-1.047ZM223.639 16.581a7.498 7.498 0 0 1-.264.051l-.289.05a2.583 2.583 0 0 1-.281.035 3.94 3.94 0 0 1-.255.008 1.732 1.732 0 0 1-.758-.152 1.098 1.098 0 0 1-.485-.448 1.414 1.414 0 0 1-.17-.717V10.73h2.4l.187-1.35h-2.587V6.71l-1.736.608v2.06h-1.311l-.187 1.351h1.498v5.032c-.008.336.044.67.153.988.088.252.224.484.4.684.162.179.359.322.579.422.225.103.462.177.706.22.241.044.486.067.732.067.181 0 .36-.005.536-.016a5.62 5.62 0 0 0 .903-.127c.13-.028.24-.053.331-.076l.103-1.402a1.3 1.3 0 0 1-.205.06Z"/></svg>