<svg xmlns="http://www.w3.org/2000/svg" viewBox="0 0 56 24" fill="currentColor"><path d="M0 17.998v-12h4v12zm9.244-10.09 2.264 10.09H7.2l-2.704-12h2.417a2.28 2.28 0 0 1 1.513.55c.42.346.66.826.819 1.36M12 17.998v-12h4v12zm7.01-7.436a2.382 2.382 0 0 1-2.4-2.4 2.3 2.3 0 0 1 .322-1.2A2.41 2.41 0 0 1 20.21 6.1c.356.21.653.506.862.862.215.363.326.778.321 1.2a2.35 2.35 0 0 1-.321 1.208 2.4 2.4 0 0 1-.862.87 2.3 2.3 0 0 1-1.2.322M22 17.997V6h4v11.999zm8.974-5.441q.015.017.253.414.237.396.617 1.014a316 316 0 0 1 1.597 2.62q.37.616.845 1.393H29.96q-.405-.659-.736-1.19-.33-.534-.7-1.15-.372-.616-.736-1.2-.363-.585-.625-1.022-.262-.44-.363-.592a1.75 1.75 0 0 1-.287-.845c.016-.29.11-.57.27-.811q.1-.17.371-.6.27-.431.634-1.023.363-.591.736-1.208l.7-1.158.736-1.2h4.326l-3.346 5.459a1.1 1.1 0 0 0-.17.541c.012.202.083.396.204.558"/><path fill-rule="evenodd" d="M52.608 18.47a9.142 9.142 0 1 0-12.93-12.929 9.142 9.142 0 0 0 12.93 12.93M49.51 7.973 46.58 9.56l.001-.002a.18.18 0 0 0-.072.24l.012.02a.177.177 0 0 0 .24.072l2.083-1.126a.43.43 0 0 1 .588.156.43.43 0 0 1-.19.577l-2.063 1.116a.196.196 0 0 0-.09.262.197.197 0 0 0 .27.07l.564-.306.052-.029.93-.503a.43.43 0 0 1 .587.156.43.43 0 0 1-.19.578l-1.389.75-.223.12a.63.63 0 0 0-.701-.403l-2.528.482a1 1 0 0 0-.212.08 2.22 2.22 0 0 1-.495-2.645q.003-.005.002-.009l1.06-2.36a.43.43 0 0 1 .56-.233.433.433 0 0 1 .2.575l-.342.764.554-.3.013-.005q.007-.002.014-.006l.01-.008.015-.01 2.244-1.213a.43.43 0 0 1 .588.156.43.43 0 0 1-.191.577l-2.478 1.34a.18.18 0 0 0-.071.24l.01.021a.18.18 0 0 0 .241.071l2.932-1.585a.43.43 0 0 1 .587.156.43.43 0 0 1-.19.577m-3.363 5.925 2.988 1.467a.43.43 0 0 1 .213.569.43.43 0 0 1-.58.179l-2.987-1.468a.18.18 0 0 0-.236.08l-.01.022a.18.18 0 0 0 .08.236l2.125 1.044a.43.43 0 0 1 .213.569.43.43 0 0 1-.58.179l-2.102-1.033a.196.196 0 0 0-.265.08.196.196 0 0 0 .099.259l1.575.774a.43.43 0 0 1 .213.568.43.43 0 0 1-.58.179l-1.414-.695s-1.282-.641-1.314-.67a2.227 2.227 0 0 1-.142-3.68 2.2 2.2 0 0 1 .979-.406l.004-.002 2.534-.504a.43.43 0 0 1 .514.323.43.43 0 0 1-.352.495l-.82.163.565.277.01.007.015.009.011.004.017.006 2.286 1.124a.43.43 0 0 1 .213.568.43.43 0 0 1-.58.179l-2.525-1.24a.177.177 0 0 0-.237.08l-.01.021a.177.177 0 0 0 .08.237" clip-rule="evenodd"/></svg>