<svg xmlns="http://www.w3.org/2000/svg" viewBox="0 0 393 163"><path fill="#fff" d="M0 43V1.004h13.78V43H0ZM32.528 7.688 40.453 43h-15.08L15.908 1.004h8.459a7.965 7.965 0 0 1 5.293 1.922 8.31 8.31 0 0 1 2.867 4.762ZM42.523 43V1.004h13.78V43h-13.78Zm24.189-26.026a8.213 8.213 0 0 1-4.228-1.124 8.336 8.336 0 0 1-3.046-3.046 8.206 8.206 0 0 1-1.125-4.229 8.056 8.056 0 0 1 1.125-4.2 8.437 8.437 0 0 1 3.046-3.016A8.232 8.232 0 0 1 66.712.235a8.083 8.083 0 0 1 4.199 1.124 8.503 8.503 0 0 1 3.016 3.016 8.075 8.075 0 0 1 1.125 4.2 8.226 8.226 0 0 1-1.125 4.23 8.4 8.4 0 0 1-3.016 3.045 8.059 8.059 0 0 1-4.201 1.124h.002ZM77.18 43V1.004h13.781V43H77.181Zm31.227-19.046c.039.04.334.524.887 1.449.553.925 1.272 2.108 2.159 3.549a1143.28 1143.28 0 0 1 5.589 9.168A854.89 854.89 0 0 0 120 43h-15.141c-.947-1.538-1.804-2.928-2.573-4.17a382.214 382.214 0 0 1-2.453-4.022 351.934 351.934 0 0 0-2.574-4.2 213.445 213.445 0 0 1-2.188-3.578 62.753 62.753 0 0 0-1.272-2.07 6.119 6.119 0 0 1-1.005-2.958 5.744 5.744 0 0 1 .946-2.84c.236-.394.67-1.095 1.3-2.1.632-1.006 1.371-2.198 2.219-3.579.847-1.38 1.706-2.79 2.574-4.229.869-1.439 1.686-2.79 2.453-4.052.77-1.26 1.628-2.66 2.573-4.2H120l-11.711 19.106a3.773 3.773 0 0 0-.592 1.894c.039.706.286 1.385.709 1.952h.002ZM31.827 61.185h-7.38L8.407 79.666H6.201v-18.48h-6.2v41.921h6.2V84.153h.208l17.446 19.013 8.444-.059-20.017-20.784 19.544-21.138ZM49.362 72.787a11.601 11.601 0 0 0-3.129 1.358 15.407 15.407 0 0 0-2.775 2.215c-.14.138-.274.295-.413.442v-4.398l-6.023.885v29.818h6.023V80.8c.457-.315.919-.61 1.387-.868a15.29 15.29 0 0 1 1.832-.856 20.38 20.38 0 0 1 1.859-.62 12.683 12.683 0 0 1 4.133-.443l.708-5.55a11.238 11.238 0 0 0-3.602.325ZM58.454 103.107h6.022V72.404l-6.022.885v29.818ZM59.517 67.09c.63.354 1.343.537 2.067.531a3.981 3.981 0 0 0 2.036-.531 3.86 3.86 0 0 0 1.447-1.476 4.15 4.15 0 0 0 .532-2.067 3.991 3.991 0 0 0-.532-2.037 4.163 4.163 0 0 0-1.447-1.476 3.82 3.82 0 0 0-2.036-.561 3.974 3.974 0 0 0-2.067.56 4.33 4.33 0 0 0-1.504 1.477 3.812 3.812 0 0 0-.561 2.037 3.96 3.96 0 0 0 .56 2.067c.361.617.881 1.127 1.505 1.476ZM89.04 77.954a8.093 8.093 0 0 1 2.834.443c.752.27 1.422.727 1.949 1.328.542.651.926 1.42 1.122 2.244.252 1.043.37 2.115.354 3.188v17.95h6.022v-19.19a16.364 16.364 0 0 0-1.121-6.554 7.741 7.741 0 0 0-3.366-3.778 11.618 11.618 0 0 0-5.668-1.24 16.587 16.587 0 0 0-5.049.797c-1.68.535-3.28 1.3-4.753 2.273-.57.375-1.118.787-1.653 1.21v-4.221l-6.022.885v29.818h6.022V80.682a18.66 18.66 0 0 1 1.801-.927c.83-.368 1.677-.693 2.539-.975.829-.271 1.678-.478 2.539-.62a15.24 15.24 0 0 1 2.45-.206ZM132.443 114.473c2.151-1.003 1.582-2.628 2.798-4.665a13.4 13.4 0 0 0 1.742-6.878V72.345l-5.775 1.486a17.256 17.256 0 0 0-2.048-.719 21.35 21.35 0 0 0-2.746-.56 23.05 23.05 0 0 0-3.188-.207 14.27 14.27 0 0 0-5.609 1.121 14.843 14.843 0 0 0-4.754 3.218 14.576 14.576 0 0 0-3.277 5.196 19.893 19.893 0 0 0-1.18 7.115 18.473 18.473 0 0 0 1.504 7.764 11.45 11.45 0 0 0 4.4 5.078 13.03 13.03 0 0 0 7.026 1.801 17.038 17.038 0 0 0 6.318-1.24 15.01 15.01 0 0 0 3.365-1.912v1.617a12.437 12.437 0 0 1-.561 3.926 7.135 7.135 0 0 1-1.712 2.835 7.05 7.05 0 0 1-3.012 1.712 15.79 15.79 0 0 1-4.516.561 32.884 32.884 0 0 1-3.631-.207 25.78 25.78 0 0 1-3.749-.708 28.721 28.721 0 0 1-3.721-1.27l3.018 5.196c1.085.441 2.2.806 3.337 1.092 1.194.302 2.407.529 3.63.679 1.293.159 2.594.238 3.897.237 2.906.09 5.795-.485 8.444-1.683Zm-2.192-17.713c-.731.424-1.49.8-2.272 1.121-.69.283-1.401.51-2.127.68a9.639 9.639 0 0 1-2.154.235 10.26 10.26 0 0 1-5.107-1.15 6.91 6.91 0 0 1-3.012-3.484 15.717 15.717 0 0 1-.974-5.994c-.026-1.63.202-3.253.678-4.812a9.066 9.066 0 0 1 1.95-3.454 8.51 8.51 0 0 1 3.128-2.096 11.379 11.379 0 0 1 4.222-.738c.93-.001 1.859.078 2.776.236.939.166 1.866.393 2.775.68.289.09.59.21.885.32v18.003c-.259.153-.522.313-.768.453ZM152.156 88.64h.099l12.064 14.467h7.793l-14.322-16.14 14.027-13.973h-7.38l-10.103 11.103h-2.178V58.531l-6.022.886v43.693h6.022V88.64ZM194.028 99.272c.115.61.331 1.199.639 1.739a4.77 4.77 0 0 0 2.303 2.007 8.62 8.62 0 0 0 3.366.62c.354 0 .698-.01 1.033-.029.328-.02.654-.07.974-.148.315-.08.6-.148.856-.207.232-.052.459-.121.68-.206l.649-3.956a5.26 5.26 0 0 1-1.004.236 6.74 6.74 0 0 1-.827.059 2.692 2.692 0 0 1-2.302-.945 5.083 5.083 0 0 1-.65-3.13l.118-12.162a14.214 14.214 0 0 0-.472-3.78 9.299 9.299 0 0 0-1.416-3.01 8 8 0 0 0-2.451-2.185 12.53 12.53 0 0 0-3.573-1.358 20.998 20.998 0 0 0-4.664-.472c-1.244 0-2.486.078-3.72.236-1.166.147-2.32.373-3.454.679-1.052.285-2.087.63-3.1 1.033l-.708 5.019a34.68 34.68 0 0 1 5.373-1.476c.81-.155 1.628-.263 2.45-.325a32.786 32.786 0 0 1 2.391-.089 13.198 13.198 0 0 1 3.572.414c.852.212 1.634.64 2.274 1.24a4.696 4.696 0 0 1 1.181 2.096c.251.973.369 1.976.353 2.981l-.007 1.481-6.901.468a18.337 18.337 0 0 0-6.85 1.535 9.808 9.808 0 0 0-4.044 3.277 7.633 7.633 0 0 0-1.329 4.34 8.649 8.649 0 0 0 1.034 4.162 7.77 7.77 0 0 0 3.129 3.1 10.52 10.52 0 0 0 5.226 1.181c1.7.039 3.392-.241 4.989-.826a11.528 11.528 0 0 0 3.719-2.362c.409-.392.797-.805 1.163-1.237Zm-5.53-.476c-.827.16-1.668.239-2.51.237a6.672 6.672 0 0 1-2.805-.532 3.86 3.86 0 0 1-1.742-1.505 4.412 4.412 0 0 1-.59-2.333 4.477 4.477 0 0 1 .767-2.775 4.512 4.512 0 0 1 2.48-1.476 17.974 17.974 0 0 1 4.607-.472h5.169l-.026 5.86c-.301.338-.63.649-.985.93a11.34 11.34 0 0 1-2.066 1.299 9.35 9.35 0 0 1-2.299.767ZM229.711 98.859a8.105 8.105 0 0 0 .973-4.075 8.25 8.25 0 0 0-.502-3.04 6.923 6.923 0 0 0-1.387-2.215 8.882 8.882 0 0 0-2.067-1.623 15.999 15.999 0 0 0-2.48-1.152 51.175 51.175 0 0 1-1.859-.62 33.264 33.264 0 0 0-1.831-.59 37.28 37.28 0 0 1-1.771-.56c-.535-.183-1.058-.4-1.565-.65a10.388 10.388 0 0 1-1.388-.886 3.884 3.884 0 0 1-1.003-1.122 2.842 2.842 0 0 1-.384-1.476 3.052 3.052 0 0 1 .414-1.624c.308-.483.735-.88 1.239-1.151a6.684 6.684 0 0 1 1.978-.709 13.232 13.232 0 0 1 2.628-.236c.433 0 .905.02 1.418.06.512.039 1.073.108 1.682.206.609.098 1.219.226 1.83.384.611.157 1.231.334 1.861.531.583.18 1.155.397 1.711.65l.414-4.783a27.863 27.863 0 0 0-2.214-.827 21.786 21.786 0 0 0-2.214-.59 17.736 17.736 0 0 0-2.214-.325c-.73-.059-1.448-.088-2.156-.088a19.468 19.468 0 0 0-4.842.56c-1.354.33-2.643.89-3.808 1.654a7.535 7.535 0 0 0-2.51 2.775 8.456 8.456 0 0 0-.885 3.985 8.308 8.308 0 0 0 .472 2.923 6.972 6.972 0 0 0 1.24 2.155 8.638 8.638 0 0 0 1.801 1.565c.697.457 1.439.843 2.214 1.151a53.369 53.369 0 0 0 2.745.915 101.968 101.968 0 0 1 2.599.827c.413.138.816.266 1.21.384a11.03 11.03 0 0 1 1.535.679c.434.23.84.506 1.211.826.327.286.588.639.767 1.034.18.409.271.852.266 1.299a2.951 2.951 0 0 1-.974 2.332 5.668 5.668 0 0 1-2.539 1.21c-1.096.242-2.215.36-3.337.355a16.56 16.56 0 0 1-2.095-.148 29.854 29.854 0 0 1-2.42-.413 37.443 37.443 0 0 1-2.599-.65 52.873 52.873 0 0 1-2.687-.856l.237 5.019c1.023.354 1.958.639 2.804.856.846.216 1.653.403 2.421.561.74.153 1.489.251 2.244.295.728.039 1.466.058 2.214.059 1.647.008 3.289-.16 4.9-.502a12.654 12.654 0 0 0 4.015-1.564 7.724 7.724 0 0 0 2.688-2.775ZM253.446 98.354l-1.004.177a8.793 8.793 0 0 1-.974.118c-.315.02-.611.03-.886.03a5.952 5.952 0 0 1-2.627-.532 3.8 3.8 0 0 1-1.683-1.565 4.975 4.975 0 0 1-.591-2.509V77.718h8.326l.649-4.724h-8.975v-9.329l-6.022 2.126v7.203h-4.547l-.649 4.724h5.196v17.595a10.036 10.036 0 0 0 .531 3.454 7.2 7.2 0 0 0 1.388 2.391 6.162 6.162 0 0 0 2.007 1.476c.781.359 1.604.617 2.45.768.837.154 1.687.233 2.539.236.629 0 1.25-.02 1.861-.059.609-.04 1.171-.098 1.682-.177.512-.079.994-.168 1.447-.266.452-.097.835-.186 1.151-.265l.354-4.901a4.302 4.302 0 0 1-.708.207c-.277.059-.581.118-.915.177ZM266.496 60.034a3.82 3.82 0 0 0-2.036-.561 3.972 3.972 0 0 0-2.067.56 4.322 4.322 0 0 0-1.505 1.477 3.811 3.811 0 0 0-.561 2.037 3.966 3.966 0 0 0 .561 2.067 4.01 4.01 0 0 0 1.505 1.476 4.142 4.142 0 0 0 2.067.531 3.982 3.982 0 0 0 2.036-.531 3.855 3.855 0 0 0 1.448-1.476c.354-.631.537-1.344.531-2.067a3.986 3.986 0 0 0-.531-2.037 4.163 4.163 0 0 0-1.448-1.476ZM261.327 103.107h6.023V72.404l-6.023.885v29.818ZM299.706 73.585a11.608 11.608 0 0 0-5.667-1.24 16.594 16.594 0 0 0-5.049.797 19.19 19.19 0 0 0-4.752 2.273 23.32 23.32 0 0 0-1.654 1.21v-4.221l-6.023.885v29.818h6.023V80.682a18.69 18.69 0 0 1 1.8-.927c.83-.368 1.677-.693 2.539-.975a17.032 17.032 0 0 1 2.539-.62c.81-.134 1.63-.203 2.452-.206a8.085 8.085 0 0 1 2.833.443c.751.27 1.422.727 1.948 1.328a5.51 5.51 0 0 1 1.123 2.244c.251 1.044.37 2.115.353 3.188v17.95h6.023v-19.19a16.365 16.365 0 0 0-1.122-6.554 7.732 7.732 0 0 0-3.366-3.778ZM332.035 73.112a21.316 21.316 0 0 0-2.746-.56 23.04 23.04 0 0 0-3.188-.207 14.27 14.27 0 0 0-5.609 1.121 14.813 14.813 0 0 0-4.753 3.218 14.563 14.563 0 0 0-3.278 5.196 19.894 19.894 0 0 0-1.181 7.115 18.459 18.459 0 0 0 1.506 7.764 11.44 11.44 0 0 0 4.398 5.078 13.033 13.033 0 0 0 7.027 1.801 17.013 17.013 0 0 0 6.317-1.24 14.995 14.995 0 0 0 3.366-1.912v1.617a12.437 12.437 0 0 1-.561 3.926 7.135 7.135 0 0 1-1.712 2.835 7.06 7.06 0 0 1-3.012 1.712c-1.47.404-2.992.593-4.516.561a32.888 32.888 0 0 1-3.632-.207 25.831 25.831 0 0 1-3.749-.708 28.721 28.721 0 0 1-3.721-1.27l.651 5.196c1.085.44 2.2.805 3.336 1.092 1.195.302 2.407.529 3.631.679 1.293.159 2.594.238 3.897.237 2.906.09 5.794-.485 8.443-1.683a11.854 11.854 0 0 0 5.167-4.665 13.39 13.39 0 0 0 1.741-6.878V72.345l-5.774 1.486a17.327 17.327 0 0 0-2.048-.719Zm1.091 23.648c-.731.425-1.49.8-2.272 1.121-.689.283-1.4.51-2.126.68-.707.159-1.43.238-2.155.235a10.262 10.262 0 0 1-5.107-1.15 6.912 6.912 0 0 1-3.011-3.484 15.679 15.679 0 0 1-.974-5.994c-.027-1.629.202-3.253.678-4.812a9.08 9.08 0 0 1 1.949-3.454 8.507 8.507 0 0 1 3.129-2.096 11.376 11.376 0 0 1 4.222-.738c.93-.001 1.859.078 2.775.236.939.166 1.866.393 2.775.68.29.09.591.21.886.32v18.003c-.262.153-.528.313-.772.453h.003ZM367.664 89.526a8.86 8.86 0 0 0-2.067-1.623 15.953 15.953 0 0 0-2.48-1.152 52.03 52.03 0 0 1-1.859-.62 33.18 33.18 0 0 0-1.831-.59c-.61-.177-1.2-.364-1.771-.56-.535-.183-1.058-.4-1.565-.65a10.304 10.304 0 0 1-1.387-.886 3.846 3.846 0 0 1-1.003-1.122 2.833 2.833 0 0 1-.385-1.476 3.053 3.053 0 0 1 .415-1.624c.307-.483.734-.88 1.239-1.151a6.67 6.67 0 0 1 1.977-.709 13.24 13.24 0 0 1 2.628-.236c.433 0 .905.02 1.418.06.512.039 1.073.108 1.683.206.609.098 1.219.226 1.829.384.61.157 1.23.334 1.861.531.584.18 1.155.397 1.711.65l.415-4.783c-.75-.315-1.488-.59-2.215-.827a21.734 21.734 0 0 0-2.214-.59c-.73-.155-1.47-.263-2.214-.325a26.682 26.682 0 0 0-2.156-.088 19.46 19.46 0 0 0-4.841.56c-1.355.33-2.643.889-3.809 1.654a7.516 7.516 0 0 0-2.508 2.775 8.42 8.42 0 0 0-.886 3.985 8.307 8.307 0 0 0 .473 2.923c.28.787.7 1.517 1.239 2.155a8.634 8.634 0 0 0 1.802 1.565c.697.457 1.439.843 2.214 1.151a54.9 54.9 0 0 0 2.746.915 106.55 106.55 0 0 1 2.597.827c.413.138.816.266 1.211.384.528.187 1.041.414 1.534.679.434.23.84.506 1.212.826a3.026 3.026 0 0 1 1.033 2.333 2.938 2.938 0 0 1-.975 2.332 5.669 5.669 0 0 1-2.539 1.21c-1.095.242-2.214.361-3.335.355a16.576 16.576 0 0 1-2.096-.148 29.844 29.844 0 0 1-2.421-.413 37.73 37.73 0 0 1-2.599-.65 53.06 53.06 0 0 1-2.686-.856l.237 5.019c1.022.354 1.956.639 2.803.856.847.216 1.654.403 2.421.561.74.153 1.49.251 2.245.295.727.039 1.465.058 2.214.059 1.646.008 3.289-.16 4.899-.502a12.669 12.669 0 0 0 4.016-1.564 7.72 7.72 0 0 0 2.687-2.775 8.104 8.104 0 0 0 .973-4.075 8.25 8.25 0 0 0-.502-3.04 6.903 6.903 0 0 0-1.388-2.215ZM375.812 83.917l-.413 4.842h16.708l.414-4.842h-16.709ZM23.361 133.278a16.198 16.198 0 0 0-8-1.889 16.125 16.125 0 0 0-8.06 1.948 13.615 13.615 0 0 0-5.373 5.491 17.356 17.356 0 0 0-1.92 8.385 18.109 18.109 0 0 0 1.8 8.355 12.325 12.325 0 0 0 5.167 5.343 16.058 16.058 0 0 0 7.794 1.83 16.63 16.63 0 0 0 8.149-1.948 13.759 13.759 0 0 0 5.52-5.55 17.404 17.404 0 0 0 1.979-8.503 17.102 17.102 0 0 0-1.832-8.118 12.9 12.9 0 0 0-5.224-5.344Zm-.354 19.78a8.054 8.054 0 0 1-3.218 3.69 9.167 9.167 0 0 1-4.724 1.211 8.387 8.387 0 0 1-4.604-1.24 8.312 8.312 0 0 1-3.071-3.72 14.905 14.905 0 0 1-1.121-6.141 13.914 13.914 0 0 1 1.12-5.963 7.85 7.85 0 0 1 3.16-3.543 9.557 9.557 0 0 1 4.871-1.181 9.28 9.28 0 0 1 3.867.739 7.076 7.076 0 0 1 2.717 2.155 9.541 9.541 0 0 1 1.623 3.395c.37 1.436.548 2.915.53 4.398a14.713 14.713 0 0 1-1.15 6.2ZM50.077 131.832a11.575 11.575 0 0 0-3.128 1.358 15.361 15.361 0 0 0-2.776 2.214c-.14.139-.275.295-.414.442v-4.398l-6.022.886v29.817h6.022v-22.307c.448-.312.912-.602 1.389-.868.59-.325 1.202-.611 1.83-.856a20.349 20.349 0 0 1 1.86-.62 12.661 12.661 0 0 1 4.133-.443l.708-5.55a11.234 11.234 0 0 0-3.602.325ZM84.854 132.038h-7.38L67.37 143.142h-2.178v-25.566l-6.022.885v43.693h6.022v-14.466h.099l12.064 14.466h7.793l-14.322-16.139 14.028-13.977ZM113.018 135.847a10.709 10.709 0 0 0-4.34-3.336 15.116 15.116 0 0 0-5.993-1.122 14.673 14.673 0 0 0-6.022 1.181 12.867 12.867 0 0 0-4.517 3.306 14.5 14.5 0 0 0-2.835 5.108 21.34 21.34 0 0 0-.974 6.642 17.875 17.875 0 0 0 1.742 8.237A11.535 11.535 0 0 0 95.246 161a18.356 18.356 0 0 0 8.384 1.741 28.844 28.844 0 0 0 4.163-.265 19.98 19.98 0 0 0 3.395-.797 22.155 22.155 0 0 0 3.188-1.358l.413-4.547c-.748.276-1.506.551-2.274.827-.767.275-1.564.521-2.39.738a17.93 17.93 0 0 1-2.539.472c-.863.098-1.73.148-2.598.148a18.644 18.644 0 0 1-4.606-.502 7.572 7.572 0 0 1-3.276-1.712 7.479 7.479 0 0 1-2.008-3.277 15.003 15.003 0 0 1-.643-3.897h21.338c.29-2.442.18-4.915-.326-7.322a13.787 13.787 0 0 0-2.449-5.402Zm-14.879 1.417a8.367 8.367 0 0 1 4.605-1.211 7.218 7.218 0 0 1 4.547 1.329 6.937 6.937 0 0 1 2.391 3.69c.295 1.077.439 2.19.43 3.307H94.585c.109-1.178.36-2.338.75-3.454a7.13 7.13 0 0 1 2.804-3.661ZM141.831 148.571a8.88 8.88 0 0 0-2.066-1.624 15.995 15.995 0 0 0-2.481-1.151 53.973 53.973 0 0 1-1.859-.62 32.686 32.686 0 0 0-1.831-.591 37.342 37.342 0 0 1-1.772-.561 13.01 13.01 0 0 1-1.564-.649c-.486-.258-.95-.554-1.388-.886a3.858 3.858 0 0 1-1.003-1.122 2.83 2.83 0 0 1-.385-1.476 3.05 3.05 0 0 1 .414-1.623c.308-.484.735-.88 1.24-1.152a6.667 6.667 0 0 1 1.978-.708 13.237 13.237 0 0 1 2.627-.237c.432 0 .906.02 1.417.06.512.039 1.072.108 1.683.206.611.099 1.22.227 1.831.384s1.23.335 1.859.531c.584.18 1.156.397 1.712.65l.414-4.783a27.777 27.777 0 0 0-2.214-.826 21.684 21.684 0 0 0-2.214-.591 17.781 17.781 0 0 0-2.215-.325 26.682 26.682 0 0 0-2.155-.088 19.446 19.446 0 0 0-4.841.561 12.206 12.206 0 0 0-3.809 1.653 7.539 7.539 0 0 0-2.509 2.775 8.446 8.446 0 0 0-.886 3.986 8.33 8.33 0 0 0 .473 2.922c.28.787.7 1.518 1.24 2.155a8.622 8.622 0 0 0 1.801 1.565c.697.458 1.439.843 2.214 1.151.431.158.884.315 1.358.473.473.157.936.305 1.387.443a107.596 107.596 0 0 1 2.598.826c.414.138.817.266 1.211.384.528.187 1.041.414 1.535.679.433.23.839.507 1.21.827.327.285.589.638.768 1.033.18.409.271.852.266 1.299a2.953 2.953 0 0 1-.975 2.332 5.663 5.663 0 0 1-2.539 1.211c-1.095.241-2.214.36-3.336.354a16.515 16.515 0 0 1-2.096-.148 30.271 30.271 0 0 1-2.421-.413 36.629 36.629 0 0 1-2.597-.65 51.577 51.577 0 0 1-2.687-.856l.236 5.019c1.022.354 1.957.64 2.805.856.847.217 1.654.404 2.421.561.739.153 1.489.252 2.243.295a41.38 41.38 0 0 0 2.214.059 23.06 23.06 0 0 0 4.901-.501 12.68 12.68 0 0 0 4.015-1.565 7.71 7.71 0 0 0 2.687-2.775 8.116 8.116 0 0 0 .973-4.074 8.271 8.271 0 0 0-.501-3.041 6.907 6.907 0 0 0-1.387-2.214ZM166.482 157.398l-1.003.177a8.866 8.866 0 0 1-.974.118c-.316.021-.612.03-.886.03a5.958 5.958 0 0 1-2.627-.532 3.806 3.806 0 0 1-1.683-1.564 4.99 4.99 0 0 1-.591-2.51v-16.355h8.325l.65-4.724h-8.975v-9.329l-6.022 2.126v7.203h-4.548l-.649 4.724h5.197v17.595a10.009 10.009 0 0 0 .531 3.454 7.192 7.192 0 0 0 1.388 2.391 6.17 6.17 0 0 0 2.007 1.477c.781.358 1.604.616 2.45.767.837.155 1.687.234 2.538.236.63 0 1.251-.019 1.861-.059a18.977 18.977 0 0 0 1.683-.177c.511-.08.994-.168 1.446-.266.451-.097.836-.185 1.151-.265l.355-4.901a4.38 4.38 0 0 1-.708.207c-.276.061-.582.12-.916.177ZM186.704 131.832a11.578 11.578 0 0 0-3.129 1.358 15.309 15.309 0 0 0-2.775 2.214c-.139.139-.275.295-.414.442v-4.398l-6.022.886v29.817h6.022v-22.307c.458-.315.919-.61 1.388-.868a15.466 15.466 0 0 1 1.831-.856 20.456 20.456 0 0 1 1.859-.62 12.681 12.681 0 0 1 4.134-.443l.708-5.55a11.236 11.236 0 0 0-3.602.325ZM218.647 135.847a10.709 10.709 0 0 0-4.34-3.336 15.134 15.134 0 0 0-5.993-1.122 14.673 14.673 0 0 0-6.022 1.181 12.868 12.868 0 0 0-4.517 3.306 14.459 14.459 0 0 0-2.835 5.108 21.333 21.333 0 0 0-.973 6.642 17.87 17.87 0 0 0 1.741 8.237 11.537 11.537 0 0 0 5.167 5.137 18.353 18.353 0 0 0 8.384 1.741 28.844 28.844 0 0 0 4.163-.265 19.958 19.958 0 0 0 3.395-.797 22.155 22.155 0 0 0 3.188-1.358l.413-4.547c-.748.276-1.506.551-2.274.827-.767.275-1.564.521-2.39.738a17.93 17.93 0 0 1-2.539.472c-.862.098-1.73.148-2.598.148a18.644 18.644 0 0 1-4.606-.502 7.568 7.568 0 0 1-3.276-1.712 7.474 7.474 0 0 1-2.008-3.277 14.985 14.985 0 0 1-.643-3.897h21.337a22.594 22.594 0 0 0-.325-7.322 13.787 13.787 0 0 0-2.449-5.402Zm-14.879 1.417a8.366 8.366 0 0 1 4.605-1.211 7.218 7.218 0 0 1 4.547 1.329 6.93 6.93 0 0 1 2.39 3.69c.296 1.077.441 2.19.431 3.307h-15.528c.11-1.178.361-2.337.749-3.454a7.145 7.145 0 0 1 2.806-3.661ZM244.419 157.398l-1.004.177a8.895 8.895 0 0 1-.974.118c-.315.021-.612.03-.886.03a5.958 5.958 0 0 1-2.627-.532 3.798 3.798 0 0 1-1.682-1.564 4.977 4.977 0 0 1-.591-2.51v-16.355h8.325l.65-4.724h-8.975v-9.329l-6.022 2.126v7.203h-4.547l-.649 4.724h5.196v17.595a10.009 10.009 0 0 0 .531 3.454 7.206 7.206 0 0 0 1.387 2.391 6.173 6.173 0 0 0 2.008 1.477c.781.358 1.604.616 2.449.767.838.155 1.687.234 2.539.236.63 0 1.25-.019 1.861-.059a18.977 18.977 0 0 0 1.683-.177c.512-.079.994-.168 1.446-.266.453-.097.837-.186 1.152-.265l.354-4.901a4.38 4.38 0 0 1-.708.207c-.277.061-.583.12-.916.177Z"/></svg>