<svg xmlns="http://www.w3.org/2000/svg" viewBox="0 0 106 16"><path fill="#fff" d="M0 15V1h4.593V15H0ZM10.843 3.23 13.484 15H8.457L5.303 1h2.82a2.655 2.655 0 0 1 1.764.641c.491.404.829.964.956 1.587ZM14.174 15V1h4.594V15h-4.594Zm8.063-8.675a2.737 2.737 0 0 1-1.409-.375 2.778 2.778 0 0 1-1.015-1.015 2.735 2.735 0 0 1-.375-1.41 2.685 2.685 0 0 1 .375-1.4 2.812 2.812 0 0 1 3.824-1.006c.415.245.761.59 1.005 1.006.251.424.38.908.375 1.4.005.495-.125.982-.375 1.41a2.8 2.8 0 0 1-1.005 1.015c-.424.25-.908.38-1.4.375ZM25.727 15V1h4.594V15h-4.594ZM36.136 8.65c.013.014.111.175.296.483.184.309.424.703.72 1.183a384.573 384.573 0 0 1 1.862 3.056c.289.48.617 1.022.986 1.627h-5.047l-.858-1.39c-.256-.414-.529-.861-.817-1.34-.29-.48-.576-.947-.858-1.4a71.148 71.148 0 0 1-.73-1.194 21.096 21.096 0 0 0-.424-.69A2.04 2.04 0 0 1 30.932 8c.019-.337.128-.664.315-.946.078-.132.223-.365.433-.7a216.7 216.7 0 0 0 1.598-2.603l.817-1.35.858-1.4H40l-3.904 6.368c-.12.19-.189.407-.197.631.013.236.095.462.236.651h.001Z"/><path fill="#9FDAF5" d="M56.471 1.063H45.333v1.733h4.538v12.252h2.081V2.796h4.519V1.063ZM60.534 4.933c-.37.1-.725.252-1.05.453-.339.21-.651.458-.932.739-.047.047-.093.099-.139.147V4.805l-2.021.296v9.947h2.021V7.606a5.12 5.12 0 0 1 1.08-.575c.205-.079.413-.148.625-.206a4.235 4.235 0 0 1 1.387-.148l.238-1.852a3.802 3.802 0 0 0-1.21.108ZM71.91 13.807a.907.907 0 0 1-.774-.315 1.686 1.686 0 0 1-.218-1.044l.04-4.058a4.706 4.706 0 0 0-.159-1.26 3.08 3.08 0 0 0-.475-1.005 2.68 2.68 0 0 0-.823-.729 4.212 4.212 0 0 0-1.199-.453 7.116 7.116 0 0 0-1.565-.157c-.418 0-.834.026-1.248.078a8.616 8.616 0 0 0-1.16.227c-.353.095-.7.21-1.04.344L63.05 7.11a11.707 11.707 0 0 1 1.803-.493c.272-.052.546-.088.823-.108.27-.02.538-.03.802-.03a4.46 4.46 0 0 1 1.2.138c.285.071.547.214.762.414.191.195.328.436.396.7.085.324.125.659.12.994l-.003.493-2.316.156a6.192 6.192 0 0 0-2.3.512 3.29 3.29 0 0 0-1.357 1.093 2.535 2.535 0 0 0-.446 1.448c-.003.484.116.962.347 1.388.243.439.607.798 1.05 1.035a3.55 3.55 0 0 0 1.754.393c.571.013 1.14-.08 1.675-.275.464-.18.888-.448 1.248-.788.138-.131.268-.269.39-.413.039.204.111.4.215.58.177.302.448.537.773.67a2.91 2.91 0 0 0 1.13.207c.118 0 .234-.004.347-.01.11-.007.22-.023.326-.05.106-.026.201-.049.288-.068.077-.018.153-.04.228-.07l.218-1.319c-.11.037-.223.064-.337.079a2.22 2.22 0 0 1-.278.02Zm-2.971-1.197a2.648 2.648 0 0 1-.33.31 3.813 3.813 0 0 1-.694.434 3.128 3.128 0 0 1-.773.256 4.39 4.39 0 0 1-.842.079 2.25 2.25 0 0 1-.942-.178 1.29 1.29 0 0 1-.584-.502 1.464 1.464 0 0 1-.198-.778c-.02-.328.071-.654.258-.926.215-.25.508-.423.832-.492a6.08 6.08 0 0 1 1.546-.158h1.735l-.008 1.955ZM79.37.334a6.491 6.491 0 0 0-1.298-.118 4.014 4.014 0 0 0-1.268.197 2.75 2.75 0 0 0-1.04.62 2.886 2.886 0 0 0-.694 1.054c-.175.48-.26.987-.247 1.497v1.418h-1.487V6.54h1.487v8.509h2.02v-8.51h2.775V5.003h-2.774V3.367a1.837 1.837 0 0 1 .109-.66c.065-.178.17-.34.307-.472a1.21 1.21 0 0 1 .505-.276c.223-.061.453-.091.684-.089.159 0 .31.007.456.02.146.013.287.033.426.06.14.025.27.052.396.078.112.022.222.055.327.098L79.975.491a4.788 4.788 0 0 0-.605-.157ZM81.58 15.048H83.6V4.805l-2.021.296v9.947ZM83.314.678a1.29 1.29 0 0 0-.684-.187 1.339 1.339 0 0 0-.694.187c-.206.12-.38.29-.505.493-.126.204-.19.44-.188.68-.002.242.063.48.188.689.121.206.296.376.505.492.212.119.451.18.694.178.24.002.476-.059.684-.178.204-.117.372-.287.485-.492.12-.21.181-.448.179-.69a1.323 1.323 0 0 0-.179-.68 1.396 1.396 0 0 0-.485-.492ZM95.314 5.002h-2.478l-3.39 3.703h-.732V.176l-2.021.296v14.576h2.021v-4.826h.033l4.05 4.826h2.615l-4.807-5.384 4.709-4.662ZM101.009 9.612l4.709-4.662h-2.477L99.85 8.653h-.731V.125L97.096.42v14.576h2.022v-4.825h.032l4.05 4.825h2.616l-4.808-5.384Z"/></svg>