<svg xmlns="http://www.w3.org/2000/svg" viewBox="0 0 54 20"><path fill="#0A2343" d="M0 15.982V3.984h3.937v11.998H0ZM9.294 5.893l2.264 10.09H7.249l-2.704-12h2.417a2.276 2.276 0 0 1 1.512.55c.422.346.71.826.82 1.36Zm2.855 10.09v-12h3.938v12h-3.938Zm6.911-7.436a2.382 2.382 0 0 1-2.4-2.4 2.302 2.302 0 0 1 .322-1.2 2.41 2.41 0 0 1 3.278-.862c.356.21.653.506.862.862.215.363.326.778.321 1.2a2.4 2.4 0 0 1-1.183 2.079 2.303 2.303 0 0 1-1.2.32Zm2.992 7.435V3.984h3.937v11.998h-3.937Zm8.922-5.441c.01.011.095.15.253.414s.364.602.617 1.014a339.194 339.194 0 0 1 1.597 2.62c.247.41.529.875.845 1.393H29.96c-.27-.439-.516-.836-.736-1.191-.22-.355-.453-.738-.7-1.15-.248-.41-.494-.81-.736-1.2-.242-.388-.45-.729-.625-1.022-.175-.292-.296-.49-.363-.591a1.75 1.75 0 0 1-.287-.845c.016-.29.11-.57.27-.811.067-.113.191-.313.371-.6a182.067 182.067 0 0 0 1.37-2.23l.7-1.159.736-1.2h4.326L30.94 9.442a1.078 1.078 0 0 0-.17.541c.012.202.082.396.203.558Z"/><circle cx="44.857" cy="9.982" r="8.571" fill="#fff"/><path fill="#00B8F1" d="M48.49 8.127h-1.25a.719.719 0 0 0-.71.71v1.814c.224-.1.464-.16.71-.18h1.379a1.232 1.232 0 0 0 .903-.332 1.233 1.233 0 0 0 .332-.903.968.968 0 0 0-.348-.795 1.587 1.587 0 0 0-1.016-.314Z"/><path fill="#00B8F1" d="M44.857 1.125a8.857 8.857 0 1 0 0 17.714 8.857 8.857 0 0 0 0-17.714Zm-.667 10.462c-.006 1.892-1.363 2.494-1.88 2.795l-.892-1.079.021-.01-.02-.024c.286-.144 1.35-.69 1.35-1.527v-.632c-.146.297-.904.634-1.42.643h-.057a2.94 2.94 0 0 1-1.985-.768 2.853 2.853 0 0 1-.867-2.14V6.937h1.384v1.908c0 1.11.768 1.514 1.496 1.524.638-.009 1.438-.285 1.466-1.14V6.936h1.403l.001 4.651Zm6.01 1.175a.637.637 0 0 0 .604.18l-.002 1.147h-.839l-.028.002c-.008 0-.02 0-.03-.002h-.03v-.002a.712.712 0 0 1-.436-.197l-1.633-2h-.566a.72.72 0 0 0-.709.709v1.49h-1.418V8.837a2.132 2.132 0 0 1 2.127-2.13h1.252a2.99 2.99 0 0 1 1.921.64 2.399 2.399 0 0 1 .861 1.887 2.656 2.656 0 0 1-.748 1.908 2.52 2.52 0 0 1-1.108.64s.479.655.782.979Z"/></svg>