<svg xmlns="http://www.w3.org/2000/svg" viewBox="0 0 96 16"><path fill="#fff" d="M0 15V1.001h4.593v14H0ZM10.843 3.23 13.485 15H8.457L5.303 1.001h2.82a2.655 2.655 0 0 1 1.764.641c.491.404.829.964.956 1.587ZM14.175 15V1.001h4.593v14h-4.594Zm8.062-8.675a2.779 2.779 0 0 1-2.425-1.39 2.735 2.735 0 0 1-.374-1.41 2.685 2.685 0 0 1 .375-1.4 2.813 2.813 0 0 1 3.824-1.005c.415.244.761.59 1.005 1.005.251.424.38.908.375 1.4.005.495-.125.982-.375 1.41a2.8 2.8 0 0 1-1.005 1.015c-.424.251-.908.38-1.4.375ZM25.727 15V1.001h4.594v14h-4.594Zm10.41-6.349c.012.014.11.175.295.483.184.309.424.703.72 1.183a373.133 373.133 0 0 1 1.862 3.056c.289.48.617 1.023.986 1.627h-5.047c-.315-.512-.601-.976-.858-1.39-.256-.414-.528-.86-.817-1.34-.29-.48-.576-.947-.858-1.4a71.337 71.337 0 0 1-.73-1.193 20.751 20.751 0 0 0-.424-.69A2.041 2.041 0 0 1 30.932 8c.02-.338.128-.665.315-.947.079-.131.223-.365.433-.7a212.331 212.331 0 0 0 1.598-2.603l.817-1.35.858-1.4H40l-3.904 6.368c-.12.19-.189.407-.197.632.013.235.095.461.236.65h.001ZM52.197 9.215c.262-.04.521-.1.774-.181.513-.16.986-.425 1.39-.778.402-.36.718-.804.926-1.301a4.526 4.526 0 0 0 .335-1.804 4.862 4.862 0 0 0-.443-2.089 3.327 3.327 0 0 0-1.459-1.508 5.65 5.65 0 0 0-2.73-.562h-5.657v13.995h2.05V9.625H50.4l3.489 5.362h2.404l-3.272-4.849-.823-.923Zm.035-6.242c.408.156.75.449.965.828.226.442.335.934.316 1.429a2.868 2.868 0 0 1-.384 1.567c-.26.404-.65.71-1.104.867a4.918 4.918 0 0 1-1.705.266h-2.937V2.707h3.173c.57-.019 1.14.071 1.676.266ZM66.916 13.745a.896.896 0 0 1-.769-.315 1.696 1.696 0 0 1-.217-1.045l.04-4.06a4.738 4.738 0 0 0-.158-1.262 3.099 3.099 0 0 0-.473-1.005 2.674 2.674 0 0 0-.818-.73 4.175 4.175 0 0 0-1.193-.452 7.01 7.01 0 0 0-1.557-.158c-.415 0-.83.026-1.241.078-.39.05-.775.125-1.153.227-.352.095-.697.21-1.035.345l-.237 1.676A11.57 11.57 0 0 1 59.9 6.55c.27-.052.543-.088.818-.108.27-.02.535-.03.798-.03.402-.009.803.038 1.193.138.284.071.545.213.759.414.19.195.325.436.394.7.084.325.123.66.118.995l-.002.495-2.304.156a6.126 6.126 0 0 0-2.287.512 3.276 3.276 0 0 0-1.35 1.094 2.547 2.547 0 0 0-.443 1.448c-.004.485.115.963.345 1.39.24.438.604.798 1.044 1.035.538.28 1.14.415 1.745.394a4.535 4.535 0 0 0 1.665-.276c.461-.18.883-.448 1.242-.788a5.46 5.46 0 0 0 .388-.413c.038.204.11.4.213.58.176.302.446.537.769.67.357.144.739.214 1.123.207.119 0 .234-.003.345-.01.11-.006.219-.022.326-.049.105-.026.2-.05.285-.069.078-.017.153-.04.227-.069l.217-1.32a1.72 1.72 0 0 1-.335.078 2.176 2.176 0 0 1-.276.02Zm-3.282-.887a3.777 3.777 0 0 1-.69.434 3.093 3.093 0 0 1-.768.256c-.276.053-.557.08-.838.079-.321.01-.64-.052-.936-.178a1.285 1.285 0 0 1-.582-.502 1.473 1.473 0 0 1-.197-.779 1.494 1.494 0 0 1 .256-.926 1.51 1.51 0 0 1 .828-.493 6.014 6.014 0 0 1 1.538-.158h1.725l-.008 1.957c-.1.113-.21.216-.328.31ZM76.24 5.196l-.06-.025a6.793 6.793 0 0 0-2.503-.453 4.841 4.841 0 0 0-2.453.65A4.831 4.831 0 0 0 69.4 7.251a6.063 6.063 0 0 0-.69 3.005 6.078 6.078 0 0 0 .522 2.622c.32.704.841 1.297 1.498 1.704a4.361 4.361 0 0 0 2.336.602 5.469 5.469 0 0 0 1.488-.197 5.37 5.37 0 0 0 1.37-.611c.147-.091.295-.194.443-.3l.247.91h1.636V.126L76.24.401v4.795Zm-1.055 8.105c-.45.177-.926.274-1.41.286a3.197 3.197 0 0 1-1.615-.384 2.467 2.467 0 0 1-1.025-1.183 4.937 4.937 0 0 1-.355-2 4.68 4.68 0 0 1 .394-2.04c.24-.522.637-.955 1.133-1.243.541-.294 1.15-.44 1.765-.423a5.96 5.96 0 0 1 1.862.286c.097.03.203.071.306.109v6.074a6.453 6.453 0 0 1-1.056.518h.001ZM81.324 14.987h2.01V4.737l-2.01.296v9.954ZM83.049.608a1.277 1.277 0 0 0-.68-.187 1.326 1.326 0 0 0-.69.187c-.206.12-.378.29-.503.493-.125.204-.19.44-.187.68-.002.242.063.481.187.69.12.206.294.376.503.492.21.119.448.18.69.178a1.33 1.33 0 0 0 .68-.178c.202-.117.37-.287.483-.493.118-.21.18-.448.177-.69a1.332 1.332 0 0 0-.177-.68 1.393 1.393 0 0 0-.483-.492ZM95.318 7.132a4.309 4.309 0 0 0-1.744-1.784 5.41 5.41 0 0 0-2.67-.63 5.382 5.382 0 0 0-2.692.65 4.544 4.544 0 0 0-1.793 1.833 5.798 5.798 0 0 0-.64 2.799c-.026.964.18 1.92.6 2.789.378.758.98 1.381 1.725 1.784a5.36 5.36 0 0 0 2.602.61 5.55 5.55 0 0 0 2.72-.65 4.589 4.589 0 0 0 1.843-1.852 5.809 5.809 0 0 0 .66-2.839 5.713 5.713 0 0 0-.611-2.71Zm-1.863 4.82a2.686 2.686 0 0 1-1.073 1.231 3.065 3.065 0 0 1-1.577.405 2.804 2.804 0 0 1-1.538-.415 2.777 2.777 0 0 1-1.025-1.241 4.97 4.97 0 0 1-.374-2.05 4.642 4.642 0 0 1 .374-1.991c.221-.494.59-.907 1.055-1.183a3.19 3.19 0 0 1 1.626-.394c.443-.011.883.073 1.291.246.357.162.669.409.907.72.254.338.438.723.542 1.134.123.479.183.973.177 1.468a4.904 4.904 0 0 1-.385 2.07Z"/></svg>