<svg xmlns="http://www.w3.org/2000/svg" viewBox="0 0 219 24"><path fill="#fff" d="M0 17.999v-12h3.937v12H0Zm9.294-10.09L11.558 18H7.25l-2.704-12h2.417a2.276 2.276 0 0 1 1.513.55c.42.346.71.826.819 1.36ZM12.149 18v-12h3.938v12h-3.938Zm6.912-7.436a2.381 2.381 0 0 1-2.078-1.192 2.345 2.345 0 0 1-.322-1.208 2.301 2.301 0 0 1 .321-1.2 2.41 2.41 0 0 1 3.278-.862c.356.21.653.506.862.862.215.363.326.778.321 1.2a2.35 2.35 0 0 1-.321 1.208c-.207.36-.504.66-.862.87a2.301 2.301 0 0 1-1.2.322Zm2.99 7.436v-12h3.938v12h-3.937Zm8.923-5.442c.01.012.095.15.253.414s.364.602.617 1.014a309.436 309.436 0 0 1 1.597 2.62c.247.411.529.876.845 1.394H29.96c-.27-.44-.516-.837-.736-1.192-.22-.355-.453-.738-.7-1.149-.248-.41-.493-.81-.736-1.2a60.12 60.12 0 0 1-.625-1.022 18.04 18.04 0 0 0-.363-.592 1.747 1.747 0 0 1-.287-.845c.016-.29.11-.57.27-.811.067-.113.191-.313.371-.6s.392-.628.634-1.022c.242-.395.488-.798.736-1.209l.7-1.158.736-1.2h4.326l-3.346 5.46a1.079 1.079 0 0 0-.17.54c.012.202.082.396.203.558Z"/><path fill="#85E6D6" d="M48.102 5.992H45.99l-4.587 5.285h-.63V5.992H39v11.99h1.773V12.56h.06l4.99 5.437 2.414-.017-5.725-5.944 5.59-6.045ZM53.116 9.31a3.315 3.315 0 0 0-.894.389 4.43 4.43 0 0 0-.794.633c-.04.04-.079.084-.119.126V9.201l-1.722.253v8.527h1.722v-6.379a4.385 4.385 0 0 1 .92-.493c.175-.068.353-.127.533-.178a3.612 3.612 0 0 1 1.182-.126l.203-1.588a3.224 3.224 0 0 0-1.03.093ZM55.717 17.982h1.723V9.2l-1.723.253v8.527ZM57.195 5.663a1.094 1.094 0 0 0-.583-.16 1.136 1.136 0 0 0-.591.16 1.24 1.24 0 0 0-.43.422 1.095 1.095 0 0 0-.161.583c-.002.208.054.412.16.59.104.177.252.323.431.423.18.101.384.154.591.152.204.002.406-.05.583-.152.173-.1.316-.247.413-.422.102-.18.154-.385.152-.591a1.141 1.141 0 0 0-.152-.583 1.193 1.193 0 0 0-.413-.422ZM66.693 9.538a3.325 3.325 0 0 0-1.62-.354c-.491 0-.978.077-1.445.228a5.49 5.49 0 0 0-1.359.65 6.68 6.68 0 0 0-.473.346V9.201l-1.722.253v8.527h1.722v-6.413c.167-.098.339-.186.515-.265.237-.105.48-.198.726-.279.237-.077.48-.136.726-.177.232-.038.466-.058.701-.06.276-.006.55.037.81.127.216.078.407.209.558.38.155.187.265.406.32.642.073.299.107.605.102.912v5.133h1.722v-5.488a4.686 4.686 0 0 0-.32-1.874 2.216 2.216 0 0 0-.963-1.08ZM75.938 9.403a6.097 6.097 0 0 0-.785-.16 6.64 6.64 0 0 0-.912-.06 4.087 4.087 0 0 0-1.604.321c-.509.216-.97.529-1.36.92-.414.424-.734.93-.937 1.487a5.69 5.69 0 0 0-.338 2.035c-.018.762.129 1.52.431 2.22.265.6.703 1.105 1.258 1.452a3.728 3.728 0 0 0 2.01.516 4.87 4.87 0 0 0 1.806-.355c.344-.14.667-.324.963-.547v.462c.007.38-.047.76-.16 1.123a2.04 2.04 0 0 1-.49.81c-.242.233-.538.402-.861.49a4.52 4.52 0 0 1-1.292.161 9.41 9.41 0 0 1-1.039-.06 7.33 7.33 0 0 1-1.072-.202 8.175 8.175 0 0 1-1.064-.363l.186 1.486c.31.126.63.23.954.313.342.086.689.15 1.038.194.37.045.743.068 1.115.067a5.447 5.447 0 0 0 2.415-.48 3.386 3.386 0 0 0 1.477-1.335c.34-.599.512-1.279.498-1.967V9.184l-1.65.425c-.192-.08-.388-.15-.587-.206Zm.313 6.763c-.21.122-.427.229-.65.321a3.95 3.95 0 0 1-.609.194 2.742 2.742 0 0 1-.616.068 2.936 2.936 0 0 1-1.46-.33 1.978 1.978 0 0 1-.862-.996 4.49 4.49 0 0 1-.278-1.714c-.008-.466.058-.93.194-1.376.11-.366.3-.704.557-.988.25-.264.556-.469.895-.6a3.258 3.258 0 0 1 1.207-.21c.266 0 .532.022.794.067.269.048.534.112.794.194.082.026.169.06.253.092v5.149c-.074.044-.15.09-.22.13ZM88.139 9.37h-2.111l-2.89 3.174h-.623V5.232l-1.722.253v12.497h1.722v-4.138h.028l3.45 4.138h2.23l-4.096-4.616 4.012-3.997ZM96.97 16.918a.77.77 0 0 1-.658-.27 1.45 1.45 0 0 1-.186-.896l.034-3.478a4.047 4.047 0 0 0-.136-1.08 2.648 2.648 0 0 0-.405-.862 2.293 2.293 0 0 0-.7-.625 3.592 3.592 0 0 0-1.022-.388 6.027 6.027 0 0 0-1.334-.135 8.36 8.36 0 0 0-1.064.067 7.294 7.294 0 0 0-.988.194 8.23 8.23 0 0 0-.887.296l-.202 1.435a9.936 9.936 0 0 1 1.536-.422c.232-.044.466-.075.701-.093.23-.017.459-.025.684-.025a3.78 3.78 0 0 1 1.022.118c.243.061.467.183.65.355.163.167.28.373.338.6.072.278.106.564.1.852v.424l-1.975.133a5.252 5.252 0 0 0-1.958.44 2.809 2.809 0 0 0-1.157.936c-.25.366-.382.799-.38 1.242-.003.415.098.825.295 1.19.207.376.518.684.895.887.461.24.976.356 1.495.337.486.012.97-.069 1.426-.236a3.293 3.293 0 0 0 1.065-.676c.116-.112.227-.23.332-.353.032.174.094.343.183.497.15.259.381.46.658.574.306.123.633.183.963.178.101 0 .2-.003.295-.009.094-.005.187-.02.279-.042l.245-.06c.066-.014.13-.034.194-.058l.185-1.132c-.093.032-.189.055-.286.068-.079.01-.158.016-.237.017Zm-2.811-.76a3.25 3.25 0 0 1-.591.371c-.21.102-.43.176-.659.22a3.721 3.721 0 0 1-.718.067 1.905 1.905 0 0 1-.802-.152c-.206-.09-.38-.24-.498-.43a1.265 1.265 0 0 1-.169-.667c-.016-.282.06-.56.22-.794.183-.214.432-.363.708-.422a5.146 5.146 0 0 1 1.318-.135h1.478l-.007 1.676c-.086.096-.18.185-.28.266ZM104.434 14.098a2.552 2.552 0 0 0-.592-.465 4.562 4.562 0 0 0-.709-.329 15 15 0 0 1-.532-.177 9.364 9.364 0 0 0-.523-.17 10.52 10.52 0 0 1-.507-.16 3.646 3.646 0 0 1-.447-.185 2.905 2.905 0 0 1-.397-.254 1.109 1.109 0 0 1-.287-.32.803.803 0 0 1-.11-.423.87.87 0 0 1 .118-.464.963.963 0 0 1 .355-.33c.177-.096.368-.165.566-.202.247-.047.499-.07.751-.068a5.433 5.433 0 0 1 .887.076c.174.028.348.066.523.11.174.045.352.096.532.152.167.052.33.114.489.186l.119-1.368a8.325 8.325 0 0 0-.633-.236 6.302 6.302 0 0 0-.634-.17 5.12 5.12 0 0 0-.633-.092 7.622 7.622 0 0 0-.616-.025 5.565 5.565 0 0 0-1.385.16 3.497 3.497 0 0 0-1.09.473c-.301.2-.548.473-.717.793a2.412 2.412 0 0 0-.253 1.14c-.005.285.04.568.135.836.08.226.2.434.355.617.15.172.323.323.515.447.2.131.412.242.633.33.124.045.253.09.389.134.135.046.267.088.396.127a26.738 26.738 0 0 1 .743.237c.118.039.234.075.347.11.151.053.297.118.438.194.124.065.241.144.347.236a.87.87 0 0 1 .295.667.845.845 0 0 1-.278.667 1.618 1.618 0 0 1-.727.346c-.313.07-.633.103-.953.101a4.701 4.701 0 0 1-.6-.042 8.556 8.556 0 0 1-.692-.118c-.242-.051-.49-.113-.744-.186-.253-.072-.509-.154-.768-.245l.068 1.436c.292.101.56.183.802.245.243.062.473.115.692.16.212.044.426.072.642.085.208.01.419.016.633.016.471.003.941-.045 1.402-.143a3.614 3.614 0 0 0 1.148-.448c.319-.195.584-.468.769-.793a2.32 2.32 0 0 0 .278-1.165 2.366 2.366 0 0 0-.144-.87 1.966 1.966 0 0 0-.396-.633ZM111.482 16.622l-.286.05a2.577 2.577 0 0 1-.279.035 3.88 3.88 0 0 1-.253.008 1.706 1.706 0 0 1-.752-.152 1.082 1.082 0 0 1-.481-.447 1.414 1.414 0 0 1-.169-.718V10.72h2.381l.186-1.35h-2.567V6.7l-1.723.608v2.06h-1.3l-.186 1.351h1.486v5.032c-.007.336.044.67.152.988.087.252.222.484.398.684.16.179.356.322.574.422.223.103.458.177.7.22.24.044.483.067.726.068.18 0 .358-.006.533-.017a5.495 5.495 0 0 0 .894-.127c.13-.028.24-.053.33-.076l.101-1.402a1.266 1.266 0 0 1-.202.06 6.817 6.817 0 0 1-.263.05ZM113.738 17.982h1.722V9.2l-1.722.253v8.527ZM115.216 5.663a1.096 1.096 0 0 0-.583-.16 1.138 1.138 0 0 0-.591.16 1.234 1.234 0 0 0-.43.422 1.098 1.098 0 0 0-.161.583c-.001.208.054.412.161.59.103.177.252.323.43.423.181.101.384.153.591.152a1.117 1.117 0 0 0 .997-.574c.101-.18.153-.385.152-.591a1.154 1.154 0 0 0-.566-1.005ZM124.714 9.538a3.322 3.322 0 0 0-1.621-.354c-.49 0-.977.077-1.444.228a5.488 5.488 0 0 0-1.359.65c-.163.107-.32.225-.473.346V9.201l-1.723.253v8.527h1.723v-6.413c.167-.098.339-.186.515-.265a7.7 7.7 0 0 1 .726-.279 4.94 4.94 0 0 1 .726-.177 4.38 4.38 0 0 1 .701-.06c.276-.006.55.037.811.127.215.078.406.209.557.38.155.187.265.406.321.642.072.299.106.605.101.912v5.133h1.722v-5.488a4.672 4.672 0 0 0-.32-1.874 2.216 2.216 0 0 0-.963-1.08ZM133.959 9.403a6.094 6.094 0 0 0-.785-.16 6.637 6.637 0 0 0-.912-.06 4.087 4.087 0 0 0-1.604.321c-.509.216-.97.529-1.359.92-.415.424-.734.93-.938 1.487a5.688 5.688 0 0 0-.337 2.035c-.019.762.128 1.52.43 2.22.265.6.703 1.105 1.258 1.452a3.73 3.73 0 0 0 2.01.516 4.866 4.866 0 0 0 1.806-.355c.344-.14.667-.324.963-.547v.462c.007.38-.047.76-.16 1.123a2.043 2.043 0 0 1-.49.81c-.242.233-.538.402-.861.49-.421.116-.856.17-1.292.161-.347 0-.694-.02-1.038-.06a7.301 7.301 0 0 1-1.073-.202 8.163 8.163 0 0 1-1.064-.363l.186 1.486c.31.126.629.23.954.313.342.086.689.15 1.038.194.37.045.742.068 1.115.067a5.45 5.45 0 0 0 2.415-.48 3.38 3.38 0 0 0 1.477-1.335c.34-.599.513-1.279.499-1.967V9.184l-1.652.425a4.942 4.942 0 0 0-.586-.206Zm.313 6.763a5.326 5.326 0 0 1-.65.321 4.002 4.002 0 0 1-.608.194 2.746 2.746 0 0 1-.616.068 2.934 2.934 0 0 1-1.461-.33 1.971 1.971 0 0 1-.861-.996 4.472 4.472 0 0 1-.279-1.714c-.008-.466.058-.93.194-1.376.111-.366.301-.704.557-.988.25-.264.556-.469.895-.6a3.26 3.26 0 0 1 1.208-.21c.266 0 .531.022.793.067.269.048.534.112.794.194.083.026.169.06.254.092v5.149l-.22.13ZM144.15 14.098a2.541 2.541 0 0 0-.591-.465 4.573 4.573 0 0 0-.71-.329c-.18-.056-.357-.115-.531-.177a9.394 9.394 0 0 0-.524-.17 11.28 11.28 0 0 1-.507-.16 3.63 3.63 0 0 1-.447-.185 2.896 2.896 0 0 1-.397-.254 1.109 1.109 0 0 1-.287-.32.803.803 0 0 1-.11-.423.88.88 0 0 1 .119-.464.963.963 0 0 1 .354-.33c.177-.096.368-.165.566-.202.247-.047.499-.07.751-.068a5.532 5.532 0 0 1 .887.076c.175.028.349.066.523.11.175.045.352.096.532.152.167.052.331.114.49.186l.118-1.368a8.325 8.325 0 0 0-.633-.236 6.273 6.273 0 0 0-.633-.17 5.12 5.12 0 0 0-.634-.092 7.626 7.626 0 0 0-.616-.025 5.57 5.57 0 0 0-1.385.16 3.504 3.504 0 0 0-1.089.473c-.302.2-.549.473-.717.793a2.41 2.41 0 0 0-.254 1.14c-.005.285.041.568.135.836.08.226.2.434.355.617.15.172.323.323.515.447.199.131.411.242.633.33a19.624 19.624 0 0 0 .785.262 44.003 44.003 0 0 1 .743.236c.119.039.234.075.347.11.151.053.297.118.439.194.123.065.24.145.346.236a.87.87 0 0 1 .295.667.845.845 0 0 1-.278.667 1.62 1.62 0 0 1-.726.346c-.314.07-.634.103-.955.101-.2 0-.4-.015-.599-.042a8.482 8.482 0 0 1-.692-.118 10.58 10.58 0 0 1-.743-.186c-.254-.072-.51-.154-.769-.245l.068 1.436c.292.101.56.183.802.245s.473.115.692.16c.212.044.426.072.642.085.208.01.419.016.633.016.471.003.941-.045 1.402-.143a3.617 3.617 0 0 0 1.148-.448c.319-.195.584-.468.768-.793.194-.358.29-.76.279-1.165a2.386 2.386 0 0 0-.143-.87 1.988 1.988 0 0 0-.397-.633ZM152.872 9.725a4.632 4.632 0 0 0-2.288-.54 4.61 4.61 0 0 0-2.305.557 3.893 3.893 0 0 0-1.537 1.57 4.968 4.968 0 0 0-.549 2.399 5.182 5.182 0 0 0 .515 2.389c.324.65.84 1.183 1.478 1.528a4.59 4.59 0 0 0 2.229.524 4.76 4.76 0 0 0 2.331-.558 3.934 3.934 0 0 0 1.578-1.587c.393-.75.587-1.586.566-2.432a4.896 4.896 0 0 0-.524-2.321 3.687 3.687 0 0 0-1.494-1.529Zm-.101 5.657c-.19.44-.512.808-.92 1.056a2.625 2.625 0 0 1-1.351.346 2.4 2.4 0 0 1-1.317-.355 2.38 2.38 0 0 1-.879-1.063 4.26 4.26 0 0 1-.32-1.757 3.978 3.978 0 0 1 .32-1.705c.19-.423.505-.777.904-1.014a2.735 2.735 0 0 1 1.393-.337c.38-.01.757.062 1.106.21.306.139.573.35.777.617.218.29.375.62.464.971.106.411.157.834.152 1.258a4.197 4.197 0 0 1-.33 1.773h.001ZM160.513 9.31a3.308 3.308 0 0 0-.895.389c-.288.18-.555.392-.794.633-.04.04-.078.084-.118.126V9.201l-1.723.253v8.527h1.723v-6.379a4.438 4.438 0 0 1 .92-.493c.175-.068.352-.127.532-.178a3.628 3.628 0 0 1 1.182-.126l.203-1.588a3.222 3.222 0 0 0-1.03.093ZM170.459 9.37h-2.111l-2.89 3.174h-.622V5.232l-1.723.253v12.497h1.723v-4.138h.028l3.45 4.138h2.229l-4.096-4.616 4.012-3.997ZM178.514 10.459a3.065 3.065 0 0 0-1.241-.955 4.336 4.336 0 0 0-1.714-.32 4.2 4.2 0 0 0-1.723.337 3.68 3.68 0 0 0-1.292.946 4.145 4.145 0 0 0-.81 1.46 6.088 6.088 0 0 0-.279 1.9 5.113 5.113 0 0 0 .498 2.356 3.3 3.3 0 0 0 1.478 1.47c.749.352 1.57.523 2.398.497.398.004.796-.022 1.19-.076a5.69 5.69 0 0 0 .971-.228c.314-.105.619-.235.912-.388l.118-1.3c-.214.079-.431.158-.65.236-.22.079-.447.149-.684.211a5.114 5.114 0 0 1-.726.135 6.49 6.49 0 0 1-.743.043 5.313 5.313 0 0 1-1.317-.144 2.162 2.162 0 0 1-.937-.49 2.13 2.13 0 0 1-.574-.937 4.217 4.217 0 0 1-.184-1.114h6.102a6.46 6.46 0 0 0-.093-2.094 3.931 3.931 0 0 0-.7-1.545Zm-4.256.405c.397-.24.854-.361 1.317-.346.464-.024.922.11 1.301.38.336.268.576.638.683 1.055.085.308.126.626.124.946h-4.441c.031-.337.103-.669.214-.988.144-.428.427-.796.802-1.047ZM186.754 14.098a2.541 2.541 0 0 0-.591-.465 4.573 4.573 0 0 0-.71-.329c-.18-.056-.357-.115-.531-.177a9.394 9.394 0 0 0-.524-.17 10.52 10.52 0 0 1-.507-.16 3.646 3.646 0 0 1-.447-.185 2.896 2.896 0 0 1-.397-.254 1.109 1.109 0 0 1-.287-.32.812.812 0 0 1-.11-.423.88.88 0 0 1 .119-.464.961.961 0 0 1 .354-.33c.177-.096.368-.165.566-.202.248-.047.499-.07.751-.068a5.532 5.532 0 0 1 .887.076c.175.028.349.066.523.11.175.045.352.096.532.152.167.052.331.114.49.186l.118-1.368a8.325 8.325 0 0 0-.633-.236 6.273 6.273 0 0 0-.633-.17 5.135 5.135 0 0 0-.634-.092 7.608 7.608 0 0 0-.616-.025 5.57 5.57 0 0 0-1.385.16 3.504 3.504 0 0 0-1.089.473c-.302.2-.549.473-.717.793a2.41 2.41 0 0 0-.254 1.14c-.005.285.041.568.135.836.08.226.2.434.355.617.15.172.323.323.515.447.199.131.411.242.633.33a19.624 19.624 0 0 0 .785.262 35.265 35.265 0 0 1 .743.236c.119.039.234.075.347.11.151.053.298.118.439.194.124.065.24.145.346.236a.87.87 0 0 1 .295.667.839.839 0 0 1-.278.667 1.62 1.62 0 0 1-.726.346 4.32 4.32 0 0 1-.954.101 4.701 4.701 0 0 1-.6-.042 8.556 8.556 0 0 1-.692-.118c-.242-.051-.49-.113-.744-.186a15.008 15.008 0 0 1-.768-.245l.068 1.436c.292.101.56.183.802.245s.473.115.692.16c.212.044.426.072.642.085.208.01.419.016.633.016.471.003.941-.045 1.402-.143a3.619 3.619 0 0 0 1.148-.448c.32-.195.584-.468.769-.793a2.32 2.32 0 0 0 .278-1.165 2.386 2.386 0 0 0-.143-.87 1.988 1.988 0 0 0-.397-.633ZM193.804 16.622l-.287.05a2.518 2.518 0 0 1-.279.035c-.09.005-.174.008-.253.008a1.699 1.699 0 0 1-.751-.152 1.091 1.091 0 0 1-.482-.447 1.423 1.423 0 0 1-.168-.718V10.72h2.381l.185-1.35h-2.566V6.7l-1.723.608v2.06h-1.3l-.186 1.351h1.486v5.032c-.008.336.044.67.152.988.087.252.222.484.397.684.161.179.356.322.574.422.223.103.459.177.701.22.239.044.482.067.726.068.18 0 .357-.006.532-.017.175-.012.335-.029.481-.051.146-.023.284-.048.414-.076.129-.028.239-.053.329-.076l.102-1.402a1.288 1.288 0 0 1-.203.06 7.13 7.13 0 0 1-.262.05ZM199.588 9.31a3.308 3.308 0 0 0-.895.389c-.288.18-.555.392-.794.633-.04.04-.079.084-.118.126V9.201l-1.723.253v8.527h1.723v-6.379a4.438 4.438 0 0 1 .92-.493c.174-.068.352-.127.532-.178a3.605 3.605 0 0 1 1.182-.126l.203-1.588a3.22 3.22 0 0 0-1.03.093ZM208.723 10.459a3.065 3.065 0 0 0-1.241-.955 4.336 4.336 0 0 0-1.714-.32 4.196 4.196 0 0 0-1.722.337 3.68 3.68 0 0 0-1.292.946 4.132 4.132 0 0 0-.811 1.46 6.117 6.117 0 0 0-.278 1.9 5.113 5.113 0 0 0 .497 2.356c.321.637.84 1.152 1.478 1.47a5.25 5.25 0 0 0 2.398.497c.398.004.796-.022 1.19-.076a5.713 5.713 0 0 0 1.884-.616l.118-1.3c-.214.079-.431.158-.651.236a8.352 8.352 0 0 1-.683.211 5.154 5.154 0 0 1-.727.135 6.473 6.473 0 0 1-.742.043 5.316 5.316 0 0 1-1.318-.144 2.16 2.16 0 0 1-.937-.49 2.13 2.13 0 0 1-.574-.937 4.3 4.3 0 0 1-.184-1.114h6.103a6.487 6.487 0 0 0-.093-2.094 3.947 3.947 0 0 0-.701-1.545Zm-4.255.405c.396-.24.854-.361 1.317-.346.464-.024.922.11 1.3.38.336.268.576.639.684 1.055.084.308.126.626.123.946h-4.441c.031-.337.103-.669.214-.988.145-.428.427-.796.803-1.047ZM216.356 16.572a7.564 7.564 0 0 1-.262.05l-.287.05a2.518 2.518 0 0 1-.279.035c-.09.005-.174.008-.253.008a1.699 1.699 0 0 1-.751-.152 1.091 1.091 0 0 1-.482-.447 1.423 1.423 0 0 1-.168-.718V10.72h2.381l.185-1.35h-2.566V6.7l-1.723.608v2.06h-1.3l-.186 1.351h1.486v5.032c-.008.336.044.67.152.988.087.252.222.484.397.684.161.179.356.322.574.422.223.103.459.177.701.22.239.044.482.067.726.068.18 0 .357-.006.532-.017.175-.012.335-.029.481-.051.146-.023.284-.048.414-.076.129-.028.239-.053.329-.076l.101-1.402a1.236 1.236 0 0 1-.202.06Z"/></svg>