<svg xmlns="http://www.w3.org/2000/svg" viewBox="0 0 40 36"><path fill="#0A2343" d="M0 15.003V1.005h4.593v13.998H0Zm10.843-11.77 2.641 11.77H8.457L5.303 1.005h2.82a2.655 2.655 0 0 1 1.764.64c.491.404.829.965.956 1.588Zm3.331 11.77V1.005h4.594v13.998h-4.594Zm8.063-8.675a2.737 2.737 0 0 1-1.409-.375 2.778 2.778 0 0 1-1.015-1.015 2.735 2.735 0 0 1-.375-1.41 2.685 2.685 0 0 1 .375-1.4 2.812 2.812 0 0 1 3.824-1.005c.415.244.761.59 1.005 1.006.251.423.38.907.375 1.4.005.495-.125.982-.375 1.41a2.8 2.8 0 0 1-1.005 1.014c-.424.251-.908.381-1.4.375Zm3.49 8.675V1.005h4.594v13.998h-4.594Zm10.409-6.348c.013.013.111.174.296.483.184.308.424.703.72 1.183a384.573 384.573 0 0 1 1.862 3.056c.289.48.617 1.022.986 1.626h-5.047l-.858-1.39c-.256-.414-.529-.86-.817-1.34-.29-.48-.576-.946-.858-1.4a71.293 71.293 0 0 1-.73-1.193 21.096 21.096 0 0 0-.424-.69 2.04 2.04 0 0 1-.334-.986c.019-.338.128-.664.315-.947.078-.131.223-.364.433-.7a216.7 216.7 0 0 0 1.598-2.603l.817-1.35.858-1.4H40l-3.904 6.369c-.12.189-.189.407-.197.631.013.235.095.462.236.65h.001Z"/><path fill="#2B0B4F" d="M3.808 31.817c.003.229-.037.456-.118.67-.074.19-.188.36-.334.502-.151.142-.332.25-.53.315a2.16 2.16 0 0 1-.706.108c-.157 0-.305-.006-.442-.02a8.764 8.764 0 0 1-.824-.118A10.32 10.32 0 0 1 0 33.077l.157 1.773c.183.053.36.102.53.148.17.046.34.085.51.118.175.033.352.056.53.069.183.013.386.02.609.02.453.007.906-.05 1.344-.168.358-.097.694-.261.991-.482.269-.203.498-.454.677-.739.179-.286.311-.599.393-.926a4.26 4.26 0 0 0 .128-1.054V21.003H3.808v10.814ZM17.488 33.747a.894.894 0 0 1-.766-.315 1.7 1.7 0 0 1-.216-1.044l.04-4.057a4.753 4.753 0 0 0-.157-1.26 3.102 3.102 0 0 0-.471-1.006 2.666 2.666 0 0 0-.815-.728c-.37-.211-.77-.364-1.187-.453a6.96 6.96 0 0 0-1.55-.158c-.414 0-.827.026-1.237.079-.388.049-.771.125-1.149.227-.35.095-.693.21-1.03.344l-.236 1.674a11.674 11.674 0 0 1 1.787-.492c.269-.052.54-.087.814-.108.268-.02.533-.03.795-.03.4-.008.8.038 1.187.138.283.071.543.214.756.414.19.195.325.436.393.7.083.324.123.659.117.994l-.002.494-2.294.156a6.082 6.082 0 0 0-2.277.512 3.268 3.268 0 0 0-1.344 1.093 2.55 2.55 0 0 0-.442 1.447c-.003.485.115.963.344 1.39.24.437.601.796 1.04 1.033.535.28 1.134.415 1.737.394a4.51 4.51 0 0 0 1.658-.275c.46-.18.88-.448 1.237-.788.136-.13.265-.269.386-.413.038.204.11.4.213.58.175.302.443.537.765.67.355.143.736.214 1.119.207.118 0 .232-.004.343-.01a1.79 1.79 0 0 0 .324-.05l.285-.068a1.52 1.52 0 0 0 .225-.07l.216-1.319c-.108.038-.22.064-.333.08a2.255 2.255 0 0 1-.275.018Zm-3.268-.886a3.775 3.775 0 0 1-.687.434c-.243.118-.5.204-.765.255a4.34 4.34 0 0 1-.835.079c-.32.01-.638-.051-.932-.177a1.28 1.28 0 0 1-.579-.502 1.476 1.476 0 0 1-.196-.778c-.02-.329.07-.654.255-.926a1.5 1.5 0 0 1 .824-.493 5.961 5.961 0 0 1 1.531-.157h1.719l-.009 1.955c-.1.112-.209.216-.326.31ZM27.38 26.341l-.236-1.398h-7.576l-.236 1.575h5.7l-5.876 7.13.236 1.34H27.4l.216-1.596h-6l5.764-7.05ZM31.508 33.393l5.764-7.051-.236-1.399H29.46l-.235 1.576h5.7l-5.877 7.13.236 1.339h8.008l.215-1.595h-5.999Z"/></svg>