<svg xmlns="http://www.w3.org/2000/svg" viewBox="0 0 40 35"><path fill="#fff" d="M0 14.333V.335h4.593v13.998H0Zm10.843-11.77 2.641 11.77H8.457L5.303.335h2.82a2.655 2.655 0 0 1 1.764.64c.491.404.829.964.956 1.588Zm3.331 11.77V.335h4.594v13.998h-4.594Zm8.063-8.675a2.738 2.738 0 0 1-1.409-.375 2.778 2.778 0 0 1-1.015-1.015 2.735 2.735 0 0 1-.375-1.41 2.685 2.685 0 0 1 .375-1.4A2.812 2.812 0 0 1 23.637.453c.415.244.761.59 1.005 1.005.251.424.38.908.375 1.4.005.495-.125.983-.375 1.41a2.8 2.8 0 0 1-1.005 1.015c-.424.251-.908.38-1.4.375Zm3.49 8.675V.335h4.594v13.998h-4.594Zm10.409-6.348c.013.013.111.174.296.483.184.308.424.702.72 1.183a381.583 381.583 0 0 1 1.862 3.056c.289.48.617 1.022.986 1.626h-5.047l-.858-1.39c-.256-.414-.529-.86-.817-1.34-.29-.48-.576-.946-.858-1.4a71.261 71.261 0 0 1-.73-1.193 21.112 21.112 0 0 0-.424-.69 2.04 2.04 0 0 1-.334-.986c.019-.338.128-.665.315-.947.078-.131.223-.365.433-.7a216.7 216.7 0 0 0 1.598-2.603l.817-1.35.858-1.4H40l-3.904 6.369c-.12.189-.189.407-.197.63.013.236.095.463.236.652h.001Z"/><path fill="#85E6D6" d="M9.49 22.148a3.519 3.519 0 0 0-.915-.957 4.39 4.39 0 0 0-1.33-.63 6.284 6.284 0 0 0-1.771-.227H0v13.999h2.067v-5.028h3.564a4.64 4.64 0 0 0 2.304-.572 4.261 4.261 0 0 0 1.624-1.597c.415-.74.623-1.577.601-2.425a5.768 5.768 0 0 0-.158-1.36 3.934 3.934 0 0 0-.511-1.203Zm-1.83 4.248a2.33 2.33 0 0 1-1.113.918 4.59 4.59 0 0 1-1.743.295H2.067v-5.56H5.08a3.739 3.739 0 0 1 1.674.326c.418.202.76.534.974.946.228.462.34.973.325 1.489a2.919 2.919 0 0 1-.394 1.587ZM14.363 20.797c-.282.151-.557.293-.826.424-.27.131-.542.263-.817.394-.276.132-.558.25-.847.355-.289.105-.598.21-.926.316l.434 1.675c.394-.118.751-.236 1.072-.354.316-.116.625-.247.926-.395.296-.144.591-.302.886-.473l.01-.006v11.6h2.047V20.335H15.26c-.315.157-.614.311-.896.462ZM24.336 26.564v-3.982h-1.732v3.982h-3.997v1.558h3.997v3.963h1.732v-3.963h3.997v-1.558h-3.997Z"/></svg>