<svg xmlns="http://www.w3.org/2000/svg" viewBox="0 0 229 24"><path fill="#01405C" d="M0 0h229v24H0z"/><path fill="#fff" d="M6.004 18V6.001h3.937v12H6.004Zm9.294-10.089 2.264 10.09h-4.309L10.55 6h2.416a2.276 2.276 0 0 1 1.513.55c.42.346.71.826.82 1.36Zm2.856 10.09V6h3.937v12h-3.937Zm6.91-7.437a2.382 2.382 0 0 1-2.4-2.4 2.303 2.303 0 0 1 .323-1.2 2.412 2.412 0 0 1 3.278-.861c.355.21.652.506.861.862.215.363.326.778.322 1.2a2.4 2.4 0 0 1-1.183 2.079 2.302 2.302 0 0 1-1.2.32ZM28.057 18V6.001h3.937v12h-3.937Zm8.922-5.441c.011.011.096.15.253.414.158.264.364.602.617 1.013a322.716 322.716 0 0 1 1.597 2.62c.247.411.529.876.845 1.394h-4.326c-.27-.44-.516-.836-.735-1.191-.22-.355-.453-.738-.7-1.15-.249-.41-.494-.81-.737-1.2-.242-.388-.45-.73-.625-1.022a18.04 18.04 0 0 0-.363-.591 1.748 1.748 0 0 1-.287-.845c.017-.29.11-.57.27-.812.068-.112.192-.312.372-.6a182.106 182.106 0 0 0 1.37-2.23c.247-.412.48-.798.7-1.158l.735-1.2h4.326l-3.346 5.459a1.08 1.08 0 0 0-.17.54c.012.203.082.397.203.559h.001Z"/><path fill="#85E6D6" d="M54.175 6.002h-2.128l-4.624 5.285h-.636V6.002H45v11.99h1.787V12.57h.06l5.03 5.437 2.434-.017-5.77-5.944 5.634-6.045ZM59.23 9.32a3.357 3.357 0 0 0-.902.389c-.29.18-.56.392-.8.633-.04.04-.08.084-.12.126V9.211l-1.736.253v8.527h1.736v-6.379a4.443 4.443 0 0 1 .928-.493c.176-.068.355-.127.536-.178a3.669 3.669 0 0 1 1.192-.126l.204-1.588c-.349-.024-.7.007-1.038.093ZM61.851 17.991h1.736v-8.78l-1.736.253v8.527ZM63.34 5.673a1.11 1.11 0 0 0-.587-.16 1.153 1.153 0 0 0-.596.16 1.246 1.246 0 0 0-.434.422 1.088 1.088 0 0 0-.161.583 1.15 1.15 0 0 0 .596 1.013c.181.101.387.154.595.152.206.002.41-.05.588-.152.175-.1.319-.247.417-.422.102-.18.155-.385.153-.591a1.134 1.134 0 0 0-.153-.583 1.198 1.198 0 0 0-.417-.422ZM72.915 9.548a3.374 3.374 0 0 0-1.634-.354c-.494 0-.985.077-1.455.228a5.553 5.553 0 0 0-1.37.65 6.76 6.76 0 0 0-.477.346V9.211l-1.736.253v8.527h1.736v-6.413c.168-.097.341-.186.519-.265.239-.105.483-.198.732-.279.239-.077.484-.136.732-.177.233-.038.47-.058.706-.06a2.35 2.35 0 0 1 .817.127c.217.078.41.209.562.38.156.187.267.406.324.642.072.299.106.605.102.912v5.133h1.736v-5.488a4.65 4.65 0 0 0-.323-1.874 2.222 2.222 0 0 0-.97-1.08ZM82.234 9.413a6.189 6.189 0 0 0-.791-.16 6.743 6.743 0 0 0-.92-.06 4.149 4.149 0 0 0-1.617.321 4.158 4.158 0 0 0-2.315 2.406 5.652 5.652 0 0 0-.34 2.036c-.019.762.13 1.52.434 2.22a3.28 3.28 0 0 0 1.268 1.452 3.78 3.78 0 0 0 2.026.515 4.943 4.943 0 0 0 1.821-.354c.346-.14.672-.324.97-.547v.462c.007.38-.047.76-.16 1.123a2.038 2.038 0 0 1-.495.81c-.244.233-.542.402-.868.49a4.59 4.59 0 0 1-1.302.161c-.35 0-.7-.02-1.047-.06a7.439 7.439 0 0 1-1.08-.202 8.269 8.269 0 0 1-1.073-.363l.187 1.486c.313.126.634.23.962.313a8.62 8.62 0 0 0 1.046.194c.373.045.749.068 1.124.067a5.529 5.529 0 0 0 2.434-.48 3.404 3.404 0 0 0 1.49-1.335 3.803 3.803 0 0 0 .502-1.967V9.194l-1.665.425a5.03 5.03 0 0 0-.59-.206Zm.315 6.763a5.36 5.36 0 0 1-.655.321 4.007 4.007 0 0 1-.613.194 2.785 2.785 0 0 1-.621.068 2.979 2.979 0 0 1-1.473-.33 1.983 1.983 0 0 1-.868-.996 4.459 4.459 0 0 1-.28-1.714c-.008-.466.058-.93.195-1.376.112-.366.303-.704.562-.988.252-.264.56-.469.902-.6a3.307 3.307 0 0 1 1.217-.21c.268 0 .536.022.8.067.27.048.538.112.8.194.084.026.17.06.255.092v5.149c-.074.044-.15.09-.22.13ZM94.533 9.38h-2.128l-2.913 3.174h-.628V5.242l-1.736.253v12.496h1.736v-4.137h.029l3.478 4.137h2.246l-4.129-4.615 4.045-3.997ZM103.435 16.928a.78.78 0 0 1-.664-.27 1.444 1.444 0 0 1-.187-.896l.034-3.478a4.024 4.024 0 0 0-.136-1.08c-.083-.31-.221-.602-.409-.862a2.302 2.302 0 0 0-.706-.625 3.64 3.64 0 0 0-1.03-.388 6.122 6.122 0 0 0-1.345-.135c-.358 0-.717.022-1.072.067a7.407 7.407 0 0 0-.996.194 8.34 8.34 0 0 0-.894.296l-.204 1.435a10.04 10.04 0 0 1 1.549-.422c.234-.044.47-.075.707-.093.232-.017.462-.025.689-.025.347-.007.693.032 1.03.118.245.061.471.183.655.355.164.167.282.373.341.6.072.278.106.564.102.852l-.002.424-1.99.133a5.33 5.33 0 0 0-1.974.44c-.467.202-.87.526-1.167.936a2.172 2.172 0 0 0-.382 1.242c-.004.415.099.824.298 1.19.208.376.52.684.901.887.465.24.984.356 1.507.337.49.012.978-.069 1.438-.236a3.32 3.32 0 0 0 1.073-.675c.118-.113.229-.23.335-.354.033.175.095.343.184.497.152.259.385.46.664.574.308.123.638.183.97.177.102 0 .201-.002.298-.008.095-.005.189-.02.281-.042l.247-.06c.066-.014.132-.034.195-.058l.188-1.132a1.501 1.501 0 0 1-.29.068c-.079.01-.158.016-.238.017Zm-2.834-.76a3.28 3.28 0 0 1-.596.371c-.21.102-.434.176-.664.22-.238.046-.48.068-.723.067a1.933 1.933 0 0 1-.809-.152 1.11 1.11 0 0 1-.502-.43 1.259 1.259 0 0 1-.17-.667 1.27 1.27 0 0 1 .221-.794c.185-.214.436-.363.715-.422a5.235 5.235 0 0 1 1.328-.135h1.49l-.007 1.676a2.4 2.4 0 0 1-.283.266ZM110.958 14.108a2.552 2.552 0 0 0-.596-.465 4.583 4.583 0 0 0-.715-.329c-.181-.056-.36-.115-.536-.177a9.52 9.52 0 0 0-.528-.17 10.77 10.77 0 0 1-.51-.16 3.653 3.653 0 0 1-.451-.185 2.937 2.937 0 0 1-.4-.254 1.1 1.1 0 0 1-.289-.32.794.794 0 0 1-.111-.423.862.862 0 0 1 .119-.464.97.97 0 0 1 .357-.33c.179-.096.371-.165.571-.202.249-.047.503-.07.757-.067a5.554 5.554 0 0 1 .894.075c.176.028.351.066.527.11.176.045.355.096.537.152.168.052.333.114.493.186l.119-1.368a8.425 8.425 0 0 0-.638-.236 6.449 6.449 0 0 0-.638-.17 5.216 5.216 0 0 0-.639-.092 7.745 7.745 0 0 0-.621-.025c-.47-.005-.939.049-1.396.16-.39.094-.761.254-1.098.473-.304.2-.553.473-.723.793a2.387 2.387 0 0 0-.255 1.14c-.005.285.041.568.136.836.081.226.202.434.358.617.151.172.326.323.519.447.201.131.415.242.638.33.125.045.255.09.392.134.136.046.269.088.4.127a25.868 25.868 0 0 1 .748.237c.119.039.236.075.35.11.152.053.3.118.442.193.125.066.242.145.349.237a.863.863 0 0 1 .298.667.831.831 0 0 1-.281.667 1.641 1.641 0 0 1-.732.346c-.316.07-.638.103-.962.102a4.782 4.782 0 0 1-.604-.043 8.73 8.73 0 0 1-.698-.118 10.864 10.864 0 0 1-.749-.186 14.583 14.583 0 0 1-.774-.245l.068 1.436c.295.101.564.183.808.245.245.062.477.115.698.16.214.044.43.072.647.084.21.012.423.017.638.017a6.69 6.69 0 0 0 1.413-.143c.409-.082.8-.234 1.158-.448.322-.195.588-.468.774-.793.195-.358.292-.76.281-1.165a2.345 2.345 0 0 0-.145-.87 1.96 1.96 0 0 0-.4-.633ZM118.064 16.632l-.289.05a2.571 2.571 0 0 1-.282.035c-.09.006-.176.008-.255.008a1.725 1.725 0 0 1-.757-.152 1.094 1.094 0 0 1-.486-.448 1.425 1.425 0 0 1-.17-.717V10.73h2.4l.188-1.35h-2.588V6.71l-1.736.608v2.06h-1.311l-.187 1.351h1.498v5.032c-.008.336.044.67.153.988.088.252.224.484.401.684.161.179.358.322.578.422.225.103.463.177.706.22.242.044.487.067.732.067.182 0 .36-.005.537-.016a5.637 5.637 0 0 0 .902-.127c.13-.028.241-.053.332-.076l.102-1.402a1.289 1.289 0 0 1-.204.06 7.08 7.08 0 0 1-.264.05ZM120.337 17.991h1.736v-8.78l-1.736.253v8.527ZM121.827 5.673a1.11 1.11 0 0 0-.587-.16 1.153 1.153 0 0 0-.596.16 1.245 1.245 0 0 0-.434.422 1.09 1.09 0 0 0-.162.583 1.13 1.13 0 0 0 .162.59c.104.177.254.323.434.423.182.101.387.153.596.152.206.002.408-.05.587-.152.175-.1.319-.247.417-.422.102-.18.155-.385.153-.591a1.126 1.126 0 0 0-.153-.583 1.202 1.202 0 0 0-.417-.422ZM131.402 9.548a3.376 3.376 0 0 0-1.635-.354c-.494 0-.985.077-1.455.228a5.543 5.543 0 0 0-1.37.65 6.516 6.516 0 0 0-.477.346V9.211l-1.736.253v8.527h1.736v-6.413c.168-.098.341-.186.519-.265.239-.105.484-.198.732-.279.239-.077.484-.136.732-.177.234-.038.47-.058.707-.06.277-.006.554.037.817.127.216.078.409.209.561.38.157.187.267.406.324.642.072.299.106.605.102.912v5.133h1.736v-5.488a4.64 4.64 0 0 0-.323-1.874 2.226 2.226 0 0 0-.97-1.08ZM140.721 9.413a6.198 6.198 0 0 0-.792-.16 6.75 6.75 0 0 0-.919-.06 4.15 4.15 0 0 0-1.617.321 4.161 4.161 0 0 0-2.315 2.406 5.648 5.648 0 0 0-.341 2.036c-.018.762.13 1.52.434 2.22.267.6.709 1.105 1.269 1.452a3.775 3.775 0 0 0 2.025.515 4.943 4.943 0 0 0 1.821-.354c.346-.14.672-.324.971-.547v.462c.007.38-.048.76-.162 1.123a2.038 2.038 0 0 1-.493.81c-.244.233-.543.402-.869.49-.424.116-.862.17-1.302.161-.35 0-.699-.02-1.047-.06a7.432 7.432 0 0 1-1.081-.202 8.258 8.258 0 0 1-1.072-.363l.187 1.486c.313.126.635.23.962.313.345.086.694.15 1.047.194a9.18 9.18 0 0 0 1.123.067 5.526 5.526 0 0 0 2.434-.48 3.407 3.407 0 0 0 1.49-1.335 3.812 3.812 0 0 0 .502-1.967V9.194l-1.665.425a5.002 5.002 0 0 0-.59-.206Zm.315 6.763c-.211.122-.43.23-.656.321a3.957 3.957 0 0 1-.613.194 2.778 2.778 0 0 1-.621.068 2.978 2.978 0 0 1-1.472-.33 1.98 1.98 0 0 1-.868-.996 4.455 4.455 0 0 1-.281-1.714c-.008-.466.058-.93.196-1.376.111-.366.303-.704.561-.988.252-.264.56-.469.902-.6a3.312 3.312 0 0 1 1.218-.21 4.7 4.7 0 0 1 .799.067c.271.048.539.113.801.194.083.026.17.06.255.092v5.149c-.075.044-.151.09-.221.13ZM150.993 14.108a2.55 2.55 0 0 0-.596-.465 4.583 4.583 0 0 0-.715-.329c-.181-.056-.36-.115-.536-.177a9.52 9.52 0 0 0-.528-.17 10.77 10.77 0 0 1-.51-.16 3.637 3.637 0 0 1-.451-.185 2.927 2.927 0 0 1-.4-.254 1.118 1.118 0 0 1-.29-.32.813.813 0 0 1-.111-.423.871.871 0 0 1 .12-.464.972.972 0 0 1 .357-.33c.178-.096.371-.165.57-.202.25-.047.504-.07.758-.067a5.529 5.529 0 0 1 .893.075c.177.028.352.066.528.11.176.045.355.096.536.152.169.052.333.114.494.186l.119-1.368a8.268 8.268 0 0 0-.638-.236 6.438 6.438 0 0 0-.638-.17 5.199 5.199 0 0 0-.639-.092 7.75 7.75 0 0 0-.621-.025c-.47-.005-.939.049-1.396.16-.39.094-.762.254-1.098.473-.304.2-.553.473-.723.793a2.4 2.4 0 0 0-.256 1.14c-.005.285.041.568.137.836.08.226.201.434.357.617.151.172.326.323.519.447.201.131.415.242.639.33a22.941 22.941 0 0 0 .791.262 45.083 45.083 0 0 1 .749.236c.119.039.235.075.349.11.152.053.3.118.443.193.124.066.241.146.348.237a.85.85 0 0 1 .298.667.845.845 0 0 1-.281.667c-.21.175-.462.294-.731.346-.316.07-.639.103-.962.102a4.782 4.782 0 0 1-.604-.043 8.655 8.655 0 0 1-.698-.118 10.723 10.723 0 0 1-.749-.186 14.328 14.328 0 0 1-.775-.245l.068 1.436c.295.101.565.183.809.245.244.062.477.115.698.16.213.044.429.072.647.084.209.012.422.017.638.017.475.003.948-.045 1.413-.143.409-.082.8-.234 1.157-.448.322-.195.589-.468.775-.793a2.3 2.3 0 0 0 .28-1.165 2.365 2.365 0 0 0-.144-.87 1.978 1.978 0 0 0-.4-.633ZM159.785 9.735a4.7 4.7 0 0 0-2.306-.54 4.679 4.679 0 0 0-2.324.557 3.91 3.91 0 0 0-1.549 1.57 4.938 4.938 0 0 0-.553 2.399 5.136 5.136 0 0 0 .519 2.389c.326.65.846 1.183 1.489 1.528a4.66 4.66 0 0 0 2.247.524 4.833 4.833 0 0 0 2.35-.557 3.948 3.948 0 0 0 1.591-1.588 4.94 4.94 0 0 0 .57-2.431 4.853 4.853 0 0 0-.528-2.322 3.704 3.704 0 0 0-1.506-1.529Zm-.102 5.657a2.303 2.303 0 0 1-.928 1.056 2.66 2.66 0 0 1-1.361.346 2.436 2.436 0 0 1-1.328-.355 2.375 2.375 0 0 1-.885-1.063 4.215 4.215 0 0 1-.323-1.757 3.95 3.95 0 0 1 .323-1.705c.191-.423.509-.777.91-1.014.43-.234.915-.35 1.405-.337a2.7 2.7 0 0 1 1.115.21c.308.139.577.35.783.617.219.29.378.62.468.971.106.411.158.834.153 1.258a4.169 4.169 0 0 1-.333 1.773h.001ZM167.487 9.32a3.366 3.366 0 0 0-.902.389c-.29.18-.559.392-.8.633-.04.04-.079.084-.119.126V9.211l-1.737.253v8.527h1.737v-6.379a4.362 4.362 0 0 1 .928-.493c.175-.068.354-.127.536-.178a3.666 3.666 0 0 1 1.191-.126l.204-1.588a3.271 3.271 0 0 0-1.038.093ZM177.513 9.38h-2.128l-2.913 3.174h-.627V5.242l-1.737.253v12.496h1.737v-4.137h.028l3.478 4.137h2.247l-4.129-4.615 4.044-3.997ZM185.632 10.469a3.076 3.076 0 0 0-1.251-.954 4.399 4.399 0 0 0-1.727-.321 4.266 4.266 0 0 0-1.737.337c-.498.217-.943.54-1.302.946-.37.427-.648.924-.817 1.46a6.06 6.06 0 0 0-.281 1.9 5.079 5.079 0 0 0 .502 2.356 3.312 3.312 0 0 0 1.49 1.47 5.324 5.324 0 0 0 2.417.497c.401.004.802-.022 1.2-.076a5.8 5.8 0 0 0 1.898-.616l.119-1.3c-.216.079-.434.158-.656.236a8.499 8.499 0 0 1-.689.211 5.21 5.21 0 0 1-.732.135 6.605 6.605 0 0 1-.749.043 5.396 5.396 0 0 1-1.328-.144 2.186 2.186 0 0 1-.944-.49 2.131 2.131 0 0 1-.579-.937 4.26 4.26 0 0 1-.185-1.114h6.151a6.431 6.431 0 0 0-.093-2.094 3.93 3.93 0 0 0-.707-1.545Zm-4.289.405c.399-.24.861-.361 1.328-.346.467-.024.929.11 1.31.38.339.268.581.638.689 1.055.086.308.127.626.125.946h-4.477c.032-.337.104-.669.216-.988.146-.428.43-.796.809-1.047ZM193.938 14.108a2.563 2.563 0 0 0-.595-.465 4.67 4.67 0 0 0-.715-.329c-.182-.056-.36-.115-.536-.177a9.52 9.52 0 0 0-.528-.17c-.176-.05-.346-.103-.511-.16a3.718 3.718 0 0 1-.451-.185 2.927 2.927 0 0 1-.4-.254 1.101 1.101 0 0 1-.289-.32.804.804 0 0 1-.111-.423.87.87 0 0 1 .119-.464.965.965 0 0 1 .358-.33c.178-.096.37-.165.57-.202.25-.047.503-.07.757-.067a5.554 5.554 0 0 1 .894.075c.176.028.352.066.528.11.175.045.354.096.536.152.168.052.333.114.493.186l.12-1.368a8.445 8.445 0 0 0-.639-.236 6.295 6.295 0 0 0-.638-.17 5.198 5.198 0 0 0-.638-.092 7.75 7.75 0 0 0-.621-.025c-.471-.005-.94.049-1.396.16a3.533 3.533 0 0 0-1.098.473c-.305.2-.554.473-.724.793a2.398 2.398 0 0 0-.255 1.14c-.005.285.041.568.136.836.081.226.202.434.358.617.151.172.326.323.519.447.201.131.415.242.638.33a18.56 18.56 0 0 0 .792.262l.383.117.366.119c.119.039.235.075.349.11.152.053.3.118.442.193.125.066.242.146.349.237a.863.863 0 0 1 .298.667.831.831 0 0 1-.281.667 1.637 1.637 0 0 1-.732.346c-.316.07-.638.103-.962.102a4.795 4.795 0 0 1-.604-.043 8.73 8.73 0 0 1-.698-.118 10.864 10.864 0 0 1-.749-.186 14.583 14.583 0 0 1-.774-.245l.068 1.436c.295.101.564.183.809.245.244.062.476.115.697.16.214.044.43.072.647.084.21.012.423.017.639.017.474.003.948-.045 1.412-.143a3.664 3.664 0 0 0 1.158-.448 2.21 2.21 0 0 0 .774-.793c.195-.358.292-.76.281-1.165a2.365 2.365 0 0 0-.144-.87 1.981 1.981 0 0 0-.401-.633ZM201.045 16.632l-.289.05a2.558 2.558 0 0 1-.281.035 3.94 3.94 0 0 1-.255.008 1.732 1.732 0 0 1-.758-.152 1.098 1.098 0 0 1-.485-.448 1.414 1.414 0 0 1-.17-.717V10.73h2.4l.187-1.35h-2.587V6.71l-1.736.608v2.06h-1.311l-.187 1.351h1.498v5.032c-.008.336.044.67.153.988.088.252.223.484.4.684.162.179.359.322.579.422.225.103.462.177.706.22.241.044.486.067.732.067.181 0 .36-.005.536-.016a5.595 5.595 0 0 0 .902-.127c.131-.028.241-.053.332-.076l.103-1.402a1.3 1.3 0 0 1-.205.06 7.08 7.08 0 0 1-.264.05ZM206.875 9.32a3.365 3.365 0 0 0-.902.389c-.29.18-.559.392-.8.633-.04.04-.079.084-.119.126V9.211l-1.736.253v8.527h1.736v-6.379a4.434 4.434 0 0 1 .928-.493c.175-.068.354-.127.536-.178a3.689 3.689 0 0 1 1.191-.126l.204-1.588a3.274 3.274 0 0 0-1.038.093ZM216.084 10.469a3.09 3.09 0 0 0-1.251-.954 4.4 4.4 0 0 0-1.728-.321 4.26 4.26 0 0 0-1.736.337c-.499.217-.943.54-1.302.946-.37.427-.648.924-.818 1.46a6.06 6.06 0 0 0-.28 1.9 5.08 5.08 0 0 0 .502 2.356 3.311 3.311 0 0 0 1.489 1.47 5.327 5.327 0 0 0 2.418.497c.401.004.802-.022 1.199-.076.333-.047.66-.123.979-.228.317-.105.624-.235.92-.388l.119-1.3c-.216.079-.435.158-.656.236a8.499 8.499 0 0 1-.689.211 5.237 5.237 0 0 1-.732.135 6.631 6.631 0 0 1-.749.043 5.396 5.396 0 0 1-1.328-.144 2.18 2.18 0 0 1-.944-.49 2.131 2.131 0 0 1-.579-.937 4.26 4.26 0 0 1-.186-1.114h6.152a6.404 6.404 0 0 0-.094-2.094 3.929 3.929 0 0 0-.706-1.545Zm-4.289.405c.399-.24.86-.361 1.327-.346.468-.024.929.11 1.311.38.339.268.581.639.689 1.055.085.308.127.626.124.946h-4.476a4.13 4.13 0 0 1 .216-.988c.145-.428.43-.796.809-1.047ZM223.778 16.581c-.08.017-.168.034-.264.051l-.289.05a2.583 2.583 0 0 1-.281.035 3.947 3.947 0 0 1-.256.008 1.73 1.73 0 0 1-.757-.152 1.093 1.093 0 0 1-.485-.448 1.414 1.414 0 0 1-.17-.717V10.73h2.4l.187-1.35h-2.587V6.71l-1.737.608v2.06h-1.31l-.188 1.351h1.498v5.032c-.007.336.045.67.154.988.087.252.223.484.4.684.162.179.359.322.578.422.225.103.463.177.707.22.241.044.486.067.731.067.182 0 .361-.005.537-.016a5.595 5.595 0 0 0 .902-.127c.131-.028.241-.053.332-.076l.102-1.402a1.259 1.259 0 0 1-.204.06Z"/></svg>