<svg xmlns="http://www.w3.org/2000/svg" style="width:9.9em;height:2.6em" viewBox="0 0 99 26">
    <path fill="currentColor" d="M31.5059044 4.7448595h2.2474728c.793983 0 1.3926628.1824853 1.7960574.5474613.4033945.364976.6050888.8708124.6050888 1.5175244 0 .8836262-.380978 1.5111195-1.1429456 1.8824986l1.5367336 2.9678166h-.9796677l-1.411874-2.7469112c-.217705.0384186-.4546156.0576275-.7107392.0576275h-1.0468997v2.6892837h-.8932264v-6.915301zm2.218659.7779713H32.399131V8.221719h1.2582006c1.0629127 0 1.594361-.4642168 1.594361-1.3926646 0-.43541-.1232576-.7619627-.3697765-.9796677-.246519-.217705-.6322993-.326556-1.1573525-.326556zm5.993261-.7779713h.9508538l2.5067966 6.915301h-.950854L41.5523 9.8064754h-2.6988883l-.6627164 1.853685h-.9508538l2.4779828-6.915301zm-.6146935 4.2452264h2.1994498l-1.1045273-3.2079314L39.103131 8.990086zm7.2898797-3.4384414H45.230856V10.86298h1.1621547c.8452076 0 1.4614956-.2193026 1.8488825-.657914.3873868-.4386117.5810774-1.1029222.5810774-1.9929514 0-.8836263-.1936906-1.5479367-.5810774-1.9929514-.387387-.4450146-1.003675-.6675186-1.8488825-.6675186zm-2.0553812-.806785h2.0169628c1.1205405 0 1.968937.2881345 2.545215.8644125.576278.576278.8644126 1.4438835.8644126 2.6028426 0 1.1973775-.2945378 2.071386-.883622 2.6220516-.589084.5506656-1.4758985.8259942-2.66047.8259942h-1.8824985v-6.915301zm6.9345102 6.9153008v-6.915301h.8932263v6.915301h-.8932263zm3.352-3.5248825c0 .9348508.1984928 1.645583.5954843 2.1322177.3969915.4866347.9380443.7299484 1.6231748.7299484.6915335 0 1.234187-.2433136 1.627977-.7299483.39379-.4866348.590682-1.197367.590682-2.1322178 0-.851611-.1984927-1.5143206-.5954842-1.988149-.3969915-.4738287-.9316414-.7107394-1.6039657-.7107394-.6915336 0-1.2373887.2385114-1.6375817.7155415-.400193.4770302-.6002866 1.1381392-.6002866 1.983347zm-.9412493 0c0-.563472.0784367-1.0677076.2353124-1.5127222.1568756-.4450147.377779-.8131867.6627163-1.1045272.2849375-.2913406.6226954-.5138446 1.0132838-.6675187.3905884-.1536742.819589-.23051 1.2870143-.23051.4610225 0 .8820192.0768358 1.263003.23051.3809838.153674.709137.376178.98447.6675186.2753327.2913405.4882322.6611133.6387048 1.1093295.1504726.4482163.2257077.9508512.2257077 1.50792 0 .4866346-.051224.9300418-.1536733 1.330235-.1024494.400193-.244916.742753-.427404 1.0276904s-.404992.523449-.6675187.7155416c-.2625266.1920926-.5538627.3345592-.8740172.427404-.3201544.0928448-.6627145.1392665-1.0276905.1392665-.4610224 0-.882019-.0736345-1.263003-.2209055-.3809837-.147271-.7139393-.3681743-.9988767-.6627163-.2849373-.294542-.5058406-.677121-.6627162-1.147748-.1568757-.470627-.2353124-1.0068775-.2353124-1.6087678zm7.3859256 1.3254326v-.835599h2.564424v.835599h-2.564424zM31.5059044 14.349444h2.2474728c.793983 0 1.3926628.1824854 1.7960574.5474615.4033945.364976.6050888.8708124.6050888 1.5175243 0 .8836263-.380978 1.5111195-1.1429456 1.8824986l1.5367336 2.9678167h-.9796677l-1.411874-2.746911c-.217705.0384184-.4546156.0576274-.7107392.0576274h-1.0468997v2.6892837h-.8932264v-6.915301zm2.218659.7779715H32.399131v2.6988883h1.2582006c1.0629127 0 1.594361-.464217 1.594361-1.3926648 0-.43541-.1232576-.7619626-.3697765-.9796676-.246519-.217705-.6322993-.326556-1.1573525-.326556zm4.1107623 6.1373296v-6.915301h4.3892952v.8067853h-3.496069v2.1898453h3.1887222v.806785h-3.188722v2.314705h3.5729054v.7971805h-4.466132zm5.484218-.9508538l.4898337-.576275c.6787274.5954872 1.3382356.8932263 1.9785444.8932263.422604 0 .765164-.1040486 1.0276906-.312149.2625266-.2081004.393788-.4978358.393788-.869215 0-.3457667-.1072502-.6130916-.3217536-.8019827-.2145035-.188891-.6322988-.3761787-1.2533983-.5618682-.7619676-.2305112-1.2966174-.4882317-1.6039657-.773169-.3073482-.2849375-.46102-.6835238-.46102-1.195771 0-.6018902.2080972-1.067708.624298-1.397467.4162007-.329759.9572536-.494636 1.6231748-.494636.9092385 0 1.66159.329754 2.2570774.9892722l-.489834.5474613c-.2433172-.2561234-.518646-.4514147-.825994-.5858796-.3073484-.1344648-.614692-.2016963-.9220403-.2016963-.3969914 0-.7203426.0912428-.970063.2737308-.2497205.182488-.3745788.4402085-.3745788.773169 0 .076837.004802.14727.0144068.211301.0096046.0640308.0288136.12646.0576275.1872893.028814.0608295.0560266.115255.081639.163278.0256123.0480232.0688325.094445.1296618.1392666.0608295.0448216.1120534.0832395.1536735.115255.04162.0320154.1072507.0704334.196894.115255.0896432.0448216.1632776.080038.2209054.1056504.0576277.0256124.1472696.0608288.2689283.1056504.1216587.0448217.2177036.080038.2881375.1056505.070434.0256122.179285.0608287.326556.1056503.7043396.2305112 1.1989708.491433 1.4839082.7827737.2849375.2913405.427404.6931283.427404 1.2053753 0 .6146965-.2145002 1.1045254-.643507 1.4695015-.429007.364976-.9988734.5474613-1.7096162.5474613-.4866347 0-.942848-.094444-1.3686533-.283335-.4258054-.1888912-.7923767-.4498132-1.099725-.7827738zm6.2813982.950854v-6.915301h4.389295v.806785h-3.4960687v2.1898454h3.188722v.806785h-3.188722v2.314705h3.5729055v.7971805h-4.466132zm8.1350832-6.1373297h-1.3062236v2.727702h1.229387c1.0693156 0 1.6039655-.4610154 1.6039655-1.38306 0-.4482163-.1232575-.7843734-.3697764-1.0084815-.246519-.224108-.6322992-.3361605-1.1573524-.3361605zm-2.19945 6.1373296v-6.915301h2.2570775c.7747737 0 1.3606475.1824854 1.757639.5474615.3969914.364976.5954842.880417.5954842 1.546338 0 .6787275-.204896 1.208575-.6146935 1.589559-.4097977.3809836-1.024485.5714726-1.8440803.5714726h-1.2582006v2.66047h-.8932263zm5.55145-.9508538l.4898338-.576275c.6787274.5954872 1.3382356.8932263 1.9785445.8932263.4226038 0 .765164-.1040486 1.0276905-.312149.2625266-.2081004.393788-.4978358.393788-.869215 0-.3457667-.10725-.6130916-.3217536-.8019827-.2145035-.188891-.6322987-.3761787-1.2533983-.5618682-.7619674-.2305112-1.2966173-.4882317-1.6039655-.773169-.3073483-.2849375-.46102-.6835238-.46102-1.195771 0-.6018902.2080972-1.067708.624298-1.397467.4162007-.329759.9572535-.494636 1.6231747-.494636.9092386 0 1.6615902.329754 2.2570774.9892722l-.4898338.5474613c-.2433174-.2561234-.518646-.4514147-.8259943-.5858796-.3073482-.1344648-.614692-.2016963-.92204-.2016963-.3969916 0-.7203427.0912428-.9700632.2737308-.2497204.182488-.3745788.4402085-.3745788.773169 0 .076837.0048023.14727.014407.211301.0096045.0640308.0288135.12646.0576274.1872893.0288138.0608295.0560265.115255.081639.163278.0256122.0480232.0688324.094445.1296618.1392666.0608293.0448216.1120533.0832395.1536733.115255.0416202.0320154.107251.0704334.196894.115255.0896434.0448216.1632778.080038.2209056.1056504.0576278.0256124.1472697.0608288.2689283.1056504.1216586.0448217.2177035.080038.2881375.1056505.070434.0256122.1792848.0608287.326556.1056503.7043396.2305112 1.1989708.491433 1.4839082.7827737.2849374.2913405.427404.6931283.427404 1.2053753 0 .6146965-.2145002 1.1045254-.6435072 1.4695015-.429007.364976-.9988732.5474613-1.709616.5474613-.4866348 0-.942848-.094444-1.3686533-.283335-.4258054-.1888912-.7923767-.4498132-1.099725-.7827738zm8.605708-5.964447v5.3209398c0 .5890842-.1232577 1.0212862-.3697766 1.296619-.246519.2753328-.6322992.412997-1.1573525.412997-.576278 0-1.0436963-.0832388-1.4022693-.249719l.1824872-.7299485c.3201543.1344648.646707.2016963.9796675.2016963.3393637 0 .5714722-.076836.6963324-.23051.12486-.1536742.1872893-.441809.1872893-.8644127v-5.157662h.8836218zm2.4107506 3.3904183c0 .934851.1984928 1.645583.5954843 2.1322178.3969916.4866347.9380444.7299485 1.623175.7299485.6915334 0 1.234187-.2433138 1.627977-.7299485.39379-.4866347.590682-1.197367.590682-2.1322178 0-.8516107-.1984928-1.5143204-.5954843-1.988149-.3969915-.4738285-.9316414-.7107393-1.6039656-.7107393-.6915335 0-1.2373886.2385115-1.6375816.7155416-.400193.47703-.6002866 1.138139-.6002866 1.9833467zm-.9412493 0c0-.5634718.0784367-1.0677074.2353124-1.512722.1568755-.4450147.3777788-.8131868.6627162-1.1045273.2849374-.2913405.6226953-.5138445 1.0132837-.6675186.3905883-.153674.8195888-.23051 1.2870142-.23051.4610224 0 .882019.076836 1.263003.23051.3809837.153674.709137.376178.9844698.6675186.2753328.2913405.4882323.6611133.638705 1.1093295.1504725.4482162.2257077.950851.2257077 1.5079198 0 .4866348-.051224.930042-.1536734 1.330235s-.244916.742753-.427404 1.0276906c-.182488.2849375-.404992.523449-.6675187.7155416-.2625266.1920927-.5538627.3345593-.8740172.427404-.3201544.0928448-.6627145.1392665-1.0276905.1392665-.4610225 0-.8820192-.0736343-1.263003-.2209053-.3809838-.147271-.7139394-.3681743-.9988768-.6627164-.2849374-.294542-.5058407-.6771208-.6627163-1.1477478-.1568758-.470627-.2353125-1.0068777-.2353125-1.608768zm7.8277365 3.5248826v-6.915301h.8067852l3.5536963 5.272917v-5.272917h.8836218v6.915301h-.7971806l-3.5729055-5.2825215v5.2825216h-.8740172zm7.0017423 0v-6.915301h4.3892952v.8067853h-3.496069v2.1898453h3.1887222v.806785h-3.188722v2.314705h3.5729054v.7971805h-4.4661317zm5.9356333 0v-6.915301h.806785l3.5536964 5.272917v-5.272917h.8836218v6.915301h-.7971805l-3.5729055-5.2825215v5.2825216h-.8740172zM13.000546 1C19.627599 1 25 6.3728858 25 13.0004095 25 19.6265682 19.627599 25 13.000546 25 6.371309 25 1 19.6265682 1 13.0004095 1 6.3728858 6.371309 1 13.000546 1zm7.369853 10.221641l1.7422085-2.5166465h-6.093362v1.8197163h2.586014l-1.2642067 1.859572-.291005.430224h1.8071796c.7346103 0 1.3297238.5945608 1.3297238 1.3288898 0 .734056-.5951135 1.3302547-1.3297238 1.3302547h-2.8379818v1.822992h3.0883116c1.7473953 0 3.169662-1.4214315 3.169662-3.1693528 0-1.2988614-.785659-2.41728-1.9068202-2.9056496zm-7.4427408 6.0750024h2.0976387v-8.591103h-3.350926v1.8205353h1.2532872v6.7705677zM7.789754 8.715095H4.416716v8.5815484h2.108012v-6.7692027h1.0854c.8479 0 1.2284452.4526087 1.2284452 1.1697396 0 .7264124-.4193094 1.1678287-1.2756723 1.1678287h-.385732v1.716801h.5055736c2.17817 0 3.2425497-1.1326136 3.2425497-2.9809933 0-1.8134377-1.1569225-2.8857218-3.1355384-2.8857218z"/>
</svg>
