<svg xmlns="http://www.w3.org/2000/svg" viewBox="0 0 79 16"><path fill="#fff" d="M0 15V1.001h4.593V15H0ZM10.843 3.23 13.485 15H8.457L5.303 1.001h2.82a2.655 2.655 0 0 1 1.764.641c.491.404.829.964.956 1.587ZM14.175 15V1.001h4.593V15h-4.594Zm8.062-8.675a2.779 2.779 0 0 1-2.425-1.39 2.735 2.735 0 0 1-.374-1.41 2.685 2.685 0 0 1 .375-1.4 2.813 2.813 0 0 1 3.824-1.005c.415.244.761.59 1.005 1.005.251.424.38.908.375 1.4.005.495-.125.982-.375 1.41a2.8 2.8 0 0 1-1.005 1.015c-.424.25-.908.38-1.4.375ZM25.727 15V1.001h4.594V15h-4.594Zm10.41-6.349c.012.014.11.175.295.483.184.309.424.703.72 1.183a373.133 373.133 0 0 1 1.862 3.056c.289.48.617 1.023.986 1.627h-5.047c-.315-.513-.601-.976-.858-1.39-.256-.414-.528-.861-.817-1.34-.29-.48-.576-.947-.858-1.4a71.28 71.28 0 0 1-.73-1.193 20.74 20.74 0 0 0-.424-.69A2.041 2.041 0 0 1 30.932 8c.02-.338.128-.665.315-.947.079-.132.223-.365.433-.7a212.59 212.59 0 0 0 1.598-2.603l.817-1.35.858-1.4H40l-3.904 6.368c-.12.19-.189.407-.197.632.013.235.095.461.236.65h.001ZM64.49 1h-4.326s2.457 4.027 2.485 4.079a.679.679 0 0 1 .015.825l-2.5 4.092h4.324s2.085-3.406 2.37-3.879a1.033 1.033 0 0 0-.01-1.252c-.306-.522-.307-.521-2.358-3.865ZM78.032 3.318A393.325 393.325 0 0 0 76.6 1h-9.254l2.022 3.387h4.874L72.23 7.68l2.244 3.763-2.163 3.551h3.95c.636-1.038 1.587-2.643 1.785-2.97a1.037 1.037 0 0 0-.011-1.257c-.198-.337-1.256-2.014-1.888-3.045l1.9-3.145a1.035 1.035 0 0 0-.015-1.259Z"/><path fill="#fff" d="M69.13 8.14c-.61.994-1.629 2.659-1.819 2.983a.997.997 0 0 0-.01 1.21c.19.317 1.217 1.995 1.83 2.995.61-1 1.638-2.678 1.828-2.995a.998.998 0 0 0-.01-1.21c-.192-.324-1.211-1.99-1.82-2.983ZM56.831 1c-.45.003-.888.137-1.263.385-.318.195-2.911 2.394-3.109 2.56-.198-.166-2.79-2.365-3.109-2.56A2.318 2.318 0 0 0 48.087 1h-2.754v12.33l3.828-2.872V5.507l3.298 2.48 3.299-2.48v9.485h3.85V1H56.83Z"/></svg>