<svg xmlns="http://www.w3.org/2000/svg" viewBox="0 0 261 84"><path fill="#015F88" d="M0 0h261v84H0z"/><path fill="#fff" d="M20 63V21.004h13.78V63H20Zm32.528-35.312L60.453 63h-15.08l-9.464-41.996h8.459a7.965 7.965 0 0 1 5.293 1.922 8.31 8.31 0 0 1 2.867 4.762ZM62.523 63V21.004h13.78V63h-13.78Zm24.189-26.026a8.213 8.213 0 0 1-4.228-1.124 8.336 8.336 0 0 1-3.046-3.046 8.206 8.206 0 0 1-1.125-4.229 8.056 8.056 0 0 1 1.125-4.2 8.437 8.437 0 0 1 3.046-3.016 8.233 8.233 0 0 1 4.228-1.124 8.083 8.083 0 0 1 4.199 1.124 8.504 8.504 0 0 1 3.016 3.016 8.075 8.075 0 0 1 1.125 4.2 8.226 8.226 0 0 1-1.125 4.23 8.4 8.4 0 0 1-3.016 3.045 8.059 8.059 0 0 1-4.201 1.124h.002ZM97.18 63V21.004h13.781V63H97.181Zm31.227-19.046c.039.04.334.524.887 1.449.553.925 1.272 2.108 2.159 3.549a1143.28 1143.28 0 0 1 5.589 9.168A854.89 854.89 0 0 0 140 63h-15.141c-.947-1.538-1.804-2.928-2.573-4.17a388.795 388.795 0 0 1-2.453-4.022 355.984 355.984 0 0 0-2.574-4.2 210.645 210.645 0 0 1-2.188-3.578 62.13 62.13 0 0 0-1.272-2.07 6.127 6.127 0 0 1-1.005-2.958 5.745 5.745 0 0 1 .946-2.84c.236-.394.67-1.094 1.301-2.1.631-1.006 1.37-2.198 2.218-3.578.847-1.38 1.706-2.79 2.574-4.23.869-1.439 1.686-2.79 2.453-4.052.77-1.26 1.628-2.66 2.573-4.2H140l-11.711 19.106a3.773 3.773 0 0 0-.592 1.894c.039.706.286 1.385.709 1.952h.002Z"/><path fill="#85E6D6" d="M184.472 26.443a10.566 10.566 0 0 0-2.747-2.869 13.186 13.186 0 0 0-3.987-1.893 18.858 18.858 0 0 0-5.317-.679H156v41.996h6.202V47.915h10.692a13.92 13.92 0 0 0 6.911-1.715 12.779 12.779 0 0 0 4.873-4.791 14.144 14.144 0 0 0 1.802-7.275 17.32 17.32 0 0 0-.472-4.082 11.84 11.84 0 0 0-1.536-3.61Zm-5.494 12.747a6.99 6.99 0 0 1-3.337 2.751 13.768 13.768 0 0 1-5.229.887h-8.21v-16.68h9.038a11.223 11.223 0 0 1 5.021.976 6.487 6.487 0 0 1 2.924 2.84 9.523 9.523 0 0 1 .974 4.465 8.755 8.755 0 0 1-1.181 4.76ZM199.09 22.392c-.846.454-1.673.877-2.48 1.27-.806.395-1.624.789-2.451 1.184-.827.394-1.674.75-2.54 1.065-.866.314-1.793.631-2.777.946l1.3 5.028a56.132 56.132 0 0 0 3.219-1.065c.945-.346 1.871-.74 2.776-1.183a41.902 41.902 0 0 0 2.658-1.419l.029-.017V63h6.143V21.004h-3.189c-.946.471-1.842.934-2.688 1.388ZM229.009 39.692V27.745h-5.198v11.947H211.82v4.673h11.991v11.89h5.198v-11.89H241v-4.673h-11.991Z"/></svg>