<svg xmlns="http://www.w3.org/2000/svg" viewBox="0 0 176 24"><path fill="#0A2343" d="M0 17.997V6h4v11.998H0ZM9.244 7.908l2.264 10.09H7.2l-2.704-12h2.417a2.276 2.276 0 0 1 1.513.55c.42.346.66.826.819 1.36ZM12 17.998v-12h4v12h-4Zm7.01-7.436a2.381 2.381 0 0 1-2.078-1.192 2.345 2.345 0 0 1-.321-1.208 2.301 2.301 0 0 1 .321-1.2A2.41 2.41 0 0 1 20.21 6.1c.356.21.653.506.862.862.215.363.326.778.321 1.2a2.35 2.35 0 0 1-.321 1.208 2.4 2.4 0 0 1-.862.87 2.3 2.3 0 0 1-1.2.322ZM22 17.997V6h4v11.998h-4Zm8.974-5.441c.01.011.095.15.253.414s.364.602.617 1.014a309.436 309.436 0 0 1 1.597 2.62c.247.41.529.875.845 1.393H29.96c-.27-.439-.516-.836-.736-1.191-.22-.355-.453-.738-.7-1.15-.248-.41-.493-.81-.736-1.2a60.12 60.12 0 0 1-.625-1.021 18.04 18.04 0 0 0-.363-.592 1.747 1.747 0 0 1-.287-.845c.016-.29.11-.57.27-.811.067-.113.191-.313.371-.6a182.106 182.106 0 0 0 1.37-2.23l.7-1.159.736-1.2h4.326l-3.346 5.459a1.079 1.079 0 0 0-.17.541c.012.202.083.396.204.558Z"/><path fill="#1767CE" d="m51.053 6 1.014 11.996H50.31l-.608-7.975c-.012-.225-.029-.45-.051-.675-.02-.195-.037-.383-.05-.575-.08.203-.158.408-.237.617l-.237.617-3.108 7.991h-1.555l-3.126-8.025c-.078-.214-.16-.425-.245-.634-.081-.203-.16-.408-.239-.617-.017.223-.034.44-.048.65-.017.22-.036.443-.059.668l-.642 7.958H38.5L39.615 6h1.96l3.311 8.499c.08.169.153.34.22.515.068.175.135.352.203.532.02.057.042.11.062.164.03-.074.059-.153.09-.223.068-.163.132-.332.194-.507.062-.174.127-.352.194-.532L49.127 6h1.926Zm11.641 3.7-.977 1.037c.124.163.242.338.344.526.355.66.532 1.434.532 2.323 0 .935-.192 1.746-.575 2.433a4.005 4.005 0 0 1-1.58 1.589c-.67.371-1.444.557-2.322.557-.879 0-1.603-.174-2.239-.524a3.63 3.63 0 0 1-.408-.264l-.901.974-.778-.71.94-1.002a3.961 3.961 0 0 1-.331-.527c-.35-.67-.524-1.467-.524-2.39 0-.924.183-1.724.549-2.4.366-.675.879-1.2 1.538-1.57.658-.373 1.427-.558 2.306-.558.878 0 1.655.18 2.297.54.139.076.265.164.39.256l.945-1 .794.71Zm-7.011 3.92c0 .69.101 1.267.307 1.738l3.93-4.247a1.968 1.968 0 0 0-.517-.34c-.316-.141-.688-.212-1.116-.212-.529 0-.988.113-1.377.338-.388.225-.69.563-.903 1.014-.215.45-.322 1.02-.322 1.706l-.002.003Zm5.119 0c0-.462-.053-.881-.16-1.259a3.4 3.4 0 0 0-.15-.414l-3.933 4.247c.098.093.2.177.312.248.377.236.82.355 1.326.355.507 0 .955-.116 1.343-.347.39-.23.696-.583.921-1.056.226-.473.338-1.064.338-1.774h.003Zm7.485-4.3a3.323 3.323 0 0 0-.896.389 4.406 4.406 0 0 0-.794.633c-.04.04-.079.085-.118.127V9.21l-1.723.254v8.532h1.723v-6.384a4.224 4.224 0 0 1 .92-.492c.175-.068.353-.127.533-.178a3.593 3.593 0 0 1 1.183-.127l.202-1.588a3.215 3.215 0 0 0-1.03.093Zm9.537 2.695c.141.608.172 1.307.093 2.095h-6.105c.023.431.082.803.183 1.115.13.395.321.707.575.938.253.23.566.394.938.49.371.096.81.144 1.317.144.248 0 .496-.015.744-.043.248-.028.49-.073.726-.135.237-.062.465-.132.684-.211.22-.079.437-.158.651-.237l-.118 1.301a6.337 6.337 0 0 1-.913.389 5.694 5.694 0 0 1-.971.228c-.344.05-.74.076-1.191.076-.946 0-1.746-.166-2.4-.498a3.304 3.304 0 0 1-1.478-1.47c-.332-.648-.498-1.434-.498-2.357a6.1 6.1 0 0 1 .278-1.9 4.142 4.142 0 0 1 .811-1.462 3.68 3.68 0 0 1 1.293-.947c.507-.225 1.081-.337 1.723-.337.642 0 1.214.107 1.715.32.501.215.915.533 1.242.955.327.423.56.938.701 1.546Zm-5.761-.093a4.152 4.152 0 0 0-.214.989h4.443c0-.338-.039-.657-.124-.947-.129-.45-.357-.802-.684-1.056-.326-.253-.76-.38-1.3-.38-.541 0-.958.116-1.319.347-.36.23-.627.58-.802 1.047Zm19.59-.659c.35.66.524 1.434.524 2.323 0 .935-.189 1.746-.566 2.433a3.935 3.935 0 0 1-1.58 1.589c-.676.371-1.453.557-2.331.557-.879 0-1.588-.174-2.23-.524a3.526 3.526 0 0 1-1.479-1.529c-.343-.67-.515-1.467-.515-2.39 0-.924.183-1.724.549-2.4.366-.675.878-1.2 1.537-1.57.66-.373 1.428-.558 2.307-.558.878 0 1.641.18 2.289.54.648.36 1.146.87 1.495 1.53Zm-1.267 2.357c0-.462-.05-.881-.152-1.259a2.735 2.735 0 0 0-.465-.971 2.026 2.026 0 0 0-.777-.617c-.31-.14-.678-.21-1.107-.21-.54 0-1.005.112-1.393.337-.389.225-.69.563-.904 1.014-.214.45-.321 1.02-.321 1.706 0 .687.107 1.284.32 1.757.215.473.508.828.88 1.065.371.236.81.355 1.317.355.507 0 .958-.116 1.352-.347.394-.23.7-.583.92-1.056.22-.473.33-1.064.33-1.774Zm9.887-4.001 1.653-.425v8.751c0 .744-.166 1.4-.499 1.969-.332.569-.825 1.013-1.478 1.334-.653.322-1.459.482-2.416.482-.383 0-.755-.023-1.115-.068a8.469 8.469 0 0 1-1.04-.194 7.285 7.285 0 0 1-.954-.313l-.186-1.486c.35.146.704.267 1.065.363.36.096.718.163 1.073.203.354.04.7.059 1.039.059.506 0 .937-.054 1.292-.16.355-.108.642-.271.862-.49.22-.22.383-.49.49-.812.107-.32.16-.695.16-1.123v-.462c-.318.234-.639.42-.963.546-.597.237-1.2.355-1.808.355-.788 0-1.458-.172-2.01-.515a3.275 3.275 0 0 1-1.259-1.453c-.287-.625-.43-1.366-.43-2.222 0-.766.112-1.444.337-2.036a4.164 4.164 0 0 1 .938-1.487c.4-.4.853-.706 1.36-.92a4.085 4.085 0 0 1 1.605-.321c.327 0 .63.02.912.059.282.04.544.093.786.16.206.056.4.127.586.206Zm-.054 6.431V10.9c-.084-.031-.172-.065-.253-.093a6.244 6.244 0 0 0-.794-.194 4.622 4.622 0 0 0-.794-.068c-.45 0-.854.07-1.208.211-.355.141-.654.341-.896.6a2.593 2.593 0 0 0-.557.989c-.13.4-.195.858-.195 1.377 0 .698.093 1.27.28 1.714.185.445.472.778.86.997.39.22.876.33 1.462.33.214 0 .42-.023.617-.068.197-.045.4-.11.608-.194.209-.085.425-.192.65-.321.071-.04.147-.085.22-.13Zm15.037-2.21 2.805 4.156H116l-2.991-4.595h-2.585v4.595h-1.757V6h4.849c.98 0 1.76.16 2.34.482.58.32.997.752 1.25 1.292.254.541.38 1.138.38 1.791 0 .586-.095 1.101-.287 1.546a3.09 3.09 0 0 1-.794 1.115c-.338.299-.735.521-1.191.668a4.48 4.48 0 0 1-.665.155l.704.79h.003Zm-2.112-6.37h-2.72v4.478h2.518c.563 0 1.05-.077 1.461-.229.411-.152.726-.4.946-.743.22-.344.33-.791.33-1.343 0-.496-.091-.904-.271-1.225a1.612 1.612 0 0 0-.828-.71c-.371-.152-.85-.228-1.436-.228Zm14.057 3.793c.349.66.524 1.434.524 2.323 0 .935-.189 1.746-.566 2.433a3.932 3.932 0 0 1-1.58 1.589c-.675.371-1.453.557-2.331.557-.879 0-1.588-.174-2.23-.524a3.53 3.53 0 0 1-1.479-1.529c-.343-.67-.515-1.467-.515-2.39 0-.924.183-1.724.549-2.4a3.9 3.9 0 0 1 1.537-1.57c.659-.373 1.428-.558 2.307-.558.878 0 1.641.18 2.289.54.648.36 1.146.87 1.495 1.53Zm-1.267 2.357c0-.462-.051-.881-.152-1.259a2.717 2.717 0 0 0-.465-.971 2.02 2.02 0 0 0-.777-.617c-.309-.14-.678-.21-1.106-.21-.541 0-1.006.112-1.394.337-.389.225-.69.563-.904 1.014-.214.45-.321 1.02-.321 1.706 0 .687.107 1.284.321 1.757.214.473.507.828.878 1.065.372.236.811.355 1.318.355s.958-.116 1.352-.347c.394-.23.701-.583.921-1.056.219-.473.329-1.064.329-1.774Zm15.561-4.072c-.406-.236-.907-.354-1.504-.354-.462 0-.907.076-1.335.228a4.705 4.705 0 0 0-1.216.65 6.053 6.053 0 0 0-.6.507c-.197-.448-.484-.788-.87-1.014-.405-.236-.912-.355-1.521-.355-.45 0-.892.076-1.326.229a4.822 4.822 0 0 0-1.58.923V9.21l-1.723.254v8.532h1.723V11.57c.206-.132.417-.256.634-.357.276-.13.555-.228.836-.296.282-.068.552-.101.811-.101.293 0 .538.042.735.126.197.085.364.209.499.372s.233.377.295.642c.062.265.093.572.093.92v5.12h1.724v-5.474c0-.352-.023-.673-.065-.966.2-.13.4-.248.605-.352.271-.135.547-.236.828-.304.282-.068.558-.101.828-.101.27 0 .524.042.727.126.202.085.371.209.506.372.136.163.234.377.296.642.062.265.093.572.093.92v5.137h1.723v-5.49c0-.767-.101-1.392-.304-1.876-.202-.485-.507-.845-.912-1.082Zm9.107 4.562a2.549 2.549 0 0 0-.592-.464 4.536 4.536 0 0 0-.709-.33 14.404 14.404 0 0 1-.533-.177 9.449 9.449 0 0 0-.523-.17 10.52 10.52 0 0 1-.507-.16 3.638 3.638 0 0 1-.448-.186 3.01 3.01 0 0 1-.397-.253 1.113 1.113 0 0 1-.287-.321.817.817 0 0 1-.11-.422c0-.18.039-.336.118-.465a.959.959 0 0 1 .355-.33c.158-.09.346-.157.566-.202.22-.045.47-.068.752-.068a5.273 5.273 0 0 1 .887.076c.174.028.349.065.524.11.174.045.352.096.532.152.18.056.343.118.49.186l.118-1.369a8.011 8.011 0 0 0-.633-.236 6.23 6.23 0 0 0-.634-.17 5.048 5.048 0 0 0-.634-.092 7.617 7.617 0 0 0-.616-.025c-.507 0-.969.053-1.386.16-.417.107-.78.265-1.09.473a2.163 2.163 0 0 0-.718.794c-.169.321-.253.701-.253 1.14 0 .316.045.595.135.837.09.242.209.448.355.617.146.169.318.318.515.447.197.13.409.24.634.33a15.55 15.55 0 0 0 .786.262 37.961 37.961 0 0 1 .743.236c.118.04.234.076.346.11.158.056.304.121.44.194.135.074.25.152.346.237a.866.866 0 0 1 .296.667c0 .282-.093.504-.279.668a1.622 1.622 0 0 1-.727.346 4.305 4.305 0 0 1-.954.101 4.76 4.76 0 0 1-.6-.042 8.913 8.913 0 0 1-.693-.118c-.242-.05-.49-.113-.743-.186-.254-.073-.51-.155-.769-.245l.068 1.436c.292.101.56.183.802.245s.473.116.693.16c.22.046.434.074.642.085.208.011.419.017.633.017.496 0 .964-.048 1.403-.144a3.632 3.632 0 0 0 1.149-.447c.326-.203.583-.468.768-.794.186-.327.279-.716.279-1.166 0-.338-.048-.628-.143-.87a1.984 1.984 0 0 0-.397-.634Zm8.498-8.617 1.723-.236v12.74h-1.402l-.211-.78c-.127.092-.254.18-.38.255a4.615 4.615 0 0 1-1.175.524 4.68 4.68 0 0 1-1.275.169c-.777 0-1.445-.172-2.002-.515a3.349 3.349 0 0 1-1.284-1.462c-.299-.63-.448-1.38-.448-2.247 0-1.014.197-1.872.591-2.576.394-.704.915-1.242 1.563-1.614a4.156 4.156 0 0 1 2.104-.557 5.82 5.82 0 0 1 2.196.41v-4.11Zm0 10.614V10.9c-.087-.031-.18-.068-.262-.093a5.095 5.095 0 0 0-1.597-.245c-.585 0-1.089.121-1.512.363a2.382 2.382 0 0 0-.971 1.065c-.225.467-.338 1.05-.338 1.748 0 .699.101 1.26.304 1.715.203.457.496.794.879 1.014.383.22.844.33 1.385.33.36 0 .763-.082 1.208-.245.284-.105.586-.257.904-.445Zm11.911.808c.09-.011.186-.034.288-.068l-.186 1.132a1.343 1.343 0 0 1-.195.06 16.08 16.08 0 0 0-.245.058c-.09.023-.183.037-.278.043a5.093 5.093 0 0 1-.296.008c-.36 0-.681-.059-.963-.177a1.363 1.363 0 0 1-.659-.575 1.581 1.581 0 0 1-.183-.498 5.088 5.088 0 0 1-.332.355c-.31.293-.665.518-1.065.675-.4.158-.875.237-1.427.237-.597 0-1.096-.113-1.496-.338-.4-.225-.698-.52-.895-.887a2.475 2.475 0 0 1-.296-1.191c0-.45.127-.865.38-1.242.254-.377.64-.69 1.158-.938.518-.247 1.171-.394 1.96-.439l1.974-.132v-.423c0-.326-.031-.61-.099-.853a1.34 1.34 0 0 0-.338-.6 1.471 1.471 0 0 0-.65-.354 3.782 3.782 0 0 0-1.023-.119c-.225 0-.453.009-.684.026a6.162 6.162 0 0 0-.701.093 10.336 10.336 0 0 0-1.537.422l.202-1.436c.282-.113.578-.211.887-.296.31-.084.639-.149.989-.194a8.307 8.307 0 0 1 1.064-.068c.496 0 .941.045 1.335.136.394.09.735.22 1.022.388.287.17.521.377.701.625.18.248.316.535.406.862.09.327.135.687.135 1.081l-.034 3.48c-.011.418.051.716.186.896.135.18.355.27.659.27.067 0 .146-.005.236-.016v-.003Zm-2.768-1.011.009-1.676h-1.479c-.552 0-.991.045-1.317.136-.327.09-.564.23-.71.422-.147.191-.22.456-.22.794 0 .26.057.482.169.667.113.186.279.33.499.431.219.102.487.152.802.152.248 0 .487-.022.718-.067.231-.045.451-.119.659-.22.209-.101.406-.225.591-.372.099-.078.192-.169.282-.264l-.003-.003Zm7.499.822a1.648 1.648 0 0 1-.355.034.91.91 0 0 1-.371-.068.61.61 0 0 1-.254-.21.948.948 0 0 1-.144-.364 2.83 2.83 0 0 1-.042-.524V5.24l-1.723.253v10.864c0 .327.045.606.135.837a1.412 1.412 0 0 0 .988.878c.231.062.482.093.752.093.135 0 .265-.006.389-.017a3.727 3.727 0 0 0 .659-.118l.169-1.335-.203.034v-.003Z"/></svg>