<svg xmlns="http://www.w3.org/2000/svg" viewBox="0 0 47 24" fill="none"><path fill="#fff" d="M0 17.997V6h4v11.998H0ZM9.244 7.908l2.264 10.09H7.2l-2.704-12h2.417a2.276 2.276 0 0 1 1.513.55c.42.346.66.826.819 1.36ZM12 17.998v-12h4v12h-4Zm7.01-7.436a2.381 2.381 0 0 1-2.078-1.191 2.345 2.345 0 0 1-.321-1.21 2.301 2.301 0 0 1 .321-1.199A2.41 2.41 0 0 1 20.21 6.1c.356.21.653.506.862.862a2.3 2.3 0 0 1 .321 1.2 2.35 2.35 0 0 1-.321 1.208 2.4 2.4 0 0 1-.862.87 2.3 2.3 0 0 1-1.2.322ZM22 17.997V6h4v11.998h-4Zm8.974-5.441c.01.011.095.15.253.414s.364.602.617 1.014a315.936 315.936 0 0 1 1.597 2.62c.247.41.529.876.845 1.393H29.96c-.27-.439-.516-.836-.736-1.19-.22-.356-.453-.739-.7-1.15-.248-.411-.493-.81-.736-1.2-.242-.39-.45-.73-.625-1.022-.175-.293-.296-.49-.363-.592a1.747 1.747 0 0 1-.287-.845c.016-.29.11-.57.27-.811.067-.113.191-.313.371-.6a182.106 182.106 0 0 0 1.37-2.23l.7-1.159.736-1.2h4.326l-3.346 5.459a1.08 1.08 0 0 0-.17.541c.012.202.083.396.204.558Z"/><path fill="#AAE4B9" d="M45.97 13.501a2.66 2.66 0 0 0-.54-.912 2.627 2.627 0 0 0-.888-.626 4.285 4.285 0 0 0-1.208-.32v-.051a4.19 4.19 0 0 0 1.386-.752c.366-.3.667-.671.887-1.09.208-.402.315-.849.313-1.301a2.34 2.34 0 0 0-.254-1.107 2.356 2.356 0 0 0-.743-.828 3.45 3.45 0 0 0-1.192-.515 6.843 6.843 0 0 0-1.596-.17 7.703 7.703 0 0 0-1.056.077c-.362.05-.72.123-1.073.22a4.99 4.99 0 0 0-.98.38l.236 1.334c.248-.1.487-.188.719-.261a6.79 6.79 0 0 1 1.293-.279 5.29 5.29 0 0 1 .59-.034 4.82 4.82 0 0 1 1.065.101c.254.051.495.152.71.296.175.123.313.293.397.49.09.223.133.461.127.701a1.96 1.96 0 0 1-.228.947 2.19 2.19 0 0 1-.642.726c-.3.214-.634.374-.989.473a4.468 4.468 0 0 1-1.267.17h-.321l-.203 1.317h.54c.5-.007.998.036 1.488.127a3.08 3.08 0 0 1 1.039.389c.262.16.475.387.617.659.14.292.21.613.202.938.01.328-.054.654-.186.954a1.628 1.628 0 0 1-.566.66 2.69 2.69 0 0 1-.962.388 6.55 6.55 0 0 1-1.378.127c-.169 0-.335-.006-.498-.017a7.927 7.927 0 0 1-1.081-.144 18.48 18.48 0 0 1-.651-.144l-.22 1.437c.248.045.487.087.718.126.232.04.46.074.684.102a9.786 9.786 0 0 0 1.285.076 8.32 8.32 0 0 0 1.605-.144c.45-.084.885-.232 1.293-.44a3.32 3.32 0 0 0 .946-.717 2.86 2.86 0 0 0 .574-.972c.134-.394.2-.808.195-1.225a3.468 3.468 0 0 0-.187-1.166Z"/></svg>