<svg xmlns="http://www.w3.org/2000/svg" viewBox="0 0 267 104"><path fill="#000" d="M10 10h84v84H10z"/><path fill="#FFE100" fill-rule="evenodd" d="M0 0h104v104H0V0Zm33.587 46.221H24v34.831h9.587v-34.83Zm12.155 0H34.976s6.117 10.027 6.186 10.154c.468.795.497 1.283.04 2.05l-6.226 10.19h10.766s5.19-8.477 5.9-9.653c.705-1.178.673-1.91-.028-3.118-.716-1.22-.762-1.294-4.976-8.161l-.896-1.462Zm30.15 0s3.203 5.155 3.565 5.77c.703 1.213.735 1.947.028 3.128l-4.73 7.828c.777 1.267 1.812 2.924 2.72 4.38v.001c.933 1.494 1.732 2.773 1.982 3.199.703 1.212.735 1.946.028 3.127-.134.222-.405.677-.76 1.273l-.003.006-.002.003-.004.005-.001.003a669.71 669.71 0 0 1-3.67 6.108H65.21l5.386-8.84-5.586-9.363 5.01-8.197H57.882l-5.033-8.43H75.89Zm-18.6 17.886c-1.516 2.474-4.052 6.618-4.527 7.427-.677 1.167-.708 1.874-.027 3.012.475.788 3.031 4.966 4.554 7.454 1.524-2.489 4.08-6.666 4.555-7.454.68-1.138.65-1.845-.027-3.012-.476-.809-3.012-4.953-4.528-7.427ZM24 21.468v19.594h6.43V21.468H24Zm18.878 19.594L39.18 24.587a3.878 3.878 0 0 0-1.338-2.222 3.718 3.718 0 0 0-2.47-.897h-3.948l4.416 19.594h7.038Zm.966-19.594v19.594h6.431V21.468h-6.43Zm9.315 6.927c.598.35 1.28.531 1.973.525a3.76 3.76 0 0 0 1.96-.525 3.92 3.92 0 0 0 1.407-1.421c.35-.598.532-1.28.525-1.973a3.767 3.767 0 0 0-.525-1.96 3.968 3.968 0 0 0-1.407-1.407 3.771 3.771 0 0 0-1.96-.524 3.842 3.842 0 0 0-1.973.524 3.938 3.938 0 0 0-1.421 1.407 3.76 3.76 0 0 0-.525 1.96 3.829 3.829 0 0 0 .525 1.973 3.89 3.89 0 0 0 1.421 1.421Zm6.859-6.927v19.594h6.431V21.468h-6.431Zm14.986 11.384a15.153 15.153 0 0 0-.414-.676 1.676 1.676 0 0 1-.331-.91c.011-.315.107-.62.276-.884L80 21.468h-7.066c-.44.718-.841 1.371-1.2 1.96-.358.588-.74 1.218-1.145 1.89a294.72 294.72 0 0 1-2.237 3.642c-.294.47-.496.796-.607.98a2.68 2.68 0 0 0-.441 1.325c.034.493.196.968.469 1.38.11.166.308.488.594.966.284.478.624 1.034 1.02 1.67.396.635.797 1.288 1.202 1.96.404.67.785 1.296 1.144 1.876.36.58.76 1.228 1.201 1.945H80a412.47 412.47 0 0 1-1.38-2.276 550.863 550.863 0 0 0-2.608-4.278c-.414-.672-.75-1.224-1.008-1.656Z" clip-rule="evenodd"/><path fill="#fff" d="M156.159 56.389a19.907 19.907 0 0 1-.621 5.234 9.565 9.565 0 0 1-1.922 3.785 8.037 8.037 0 0 1-3.4 2.277c-1.628.549-3.34.81-5.057.769a15.144 15.144 0 0 1-5.856-1.035 7.41 7.41 0 0 1-3.785-3.49 14.31 14.31 0 0 1-1.302-6.653V31.018h-6.21v27.267a17.389 17.389 0 0 0 1.332 7.158 12.198 12.198 0 0 0 3.667 4.76 15.195 15.195 0 0 0 5.412 2.632c2.122.561 4.31.84 6.505.828a19.459 19.459 0 0 0 9.522-2.07 12.991 12.991 0 0 0 5.53-5.797 19.89 19.89 0 0 0 1.803-8.753V31.02h-5.619l.001 25.369ZM182.951 42.64a11.567 11.567 0 0 0-3.134 1.36 15.372 15.372 0 0 0-2.78 2.217c-.14.14-.276.296-.414.442v-4.405l-6.033.887v29.867h6.033V50.665c.448-.314.912-.604 1.39-.87a15.568 15.568 0 0 1 1.833-.858 20.584 20.584 0 0 1 1.863-.621 12.661 12.661 0 0 1 4.14-.444l.71-5.558a11.225 11.225 0 0 0-3.608.325ZM217.431 41.485l-3.312 3.495a13.643 13.643 0 0 0-1.36-.893 16.176 16.176 0 0 0-8.043-1.891 16.165 16.165 0 0 0-8.073 1.95 13.638 13.638 0 0 0-5.382 5.5 17.368 17.368 0 0 0-1.922 8.4 17.88 17.88 0 0 0 1.833 8.368c.339.643.729 1.26 1.166 1.84l-3.295 3.513 2.72 2.483 3.155-3.409c.454.34.931.65 1.427.926a16.037 16.037 0 0 0 7.836 1.832c2.834.06 5.635-.612 8.133-1.951a14.022 14.022 0 0 0 5.529-5.559 17.232 17.232 0 0 0 2.011-8.517 16.902 16.902 0 0 0-1.863-8.132 13.88 13.88 0 0 0-1.2-1.839l3.418-3.632-2.778-2.484Zm-20.64 10.233a7.858 7.858 0 0 1 3.164-3.549 9.439 9.439 0 0 1 4.82-1.183 9.525 9.525 0 0 1 3.903.74c.665.298 1.279.7 1.819 1.19l-13.76 14.86a15.314 15.314 0 0 1-1.07-6.085c-.07-2.05.313-4.09 1.124-5.973ZM212.404 63.9a8.276 8.276 0 0 1-3.223 3.696 9.027 9.027 0 0 1-4.702 1.214 8.556 8.556 0 0 1-4.643-1.242 7.306 7.306 0 0 1-1.099-.869l13.767-14.863c.205.471.379.955.521 1.449.39 1.435.579 2.918.562 4.405a14.433 14.433 0 0 1-1.183 6.214V63.9ZM239.786 42.64a11.593 11.593 0 0 0-3.134 1.36 15.428 15.428 0 0 0-2.78 2.217c-.14.14-.276.296-.414.442v-4.405l-6.032.887v29.867h6.032V50.665c.448-.314.912-.604 1.39-.87a15.568 15.568 0 0 1 1.833-.858 20.794 20.794 0 0 1 1.863-.621 12.72 12.72 0 0 1 4.14-.444l.71-5.558a11.228 11.228 0 0 0-3.608.325ZM265.455 68.07c-.277.059-.582.119-.917.177l-1.005.177a8.795 8.795 0 0 1-.977.119c-.315.02-.612.03-.887.03a5.958 5.958 0 0 1-2.632-.533 3.81 3.81 0 0 1-1.685-1.567 4.987 4.987 0 0 1-.592-2.513V47.577h8.34l.651-4.732h-8.991V33.5l-6.032 2.129v7.216h-4.554l-.651 4.732h5.205V65.2a10.02 10.02 0 0 0 .532 3.46c.305.88.777 1.694 1.391 2.395a6.162 6.162 0 0 0 2.011 1.479c.782.36 1.606.617 2.453.769.839.154 1.69.233 2.543.236.631 0 1.251-.02 1.864-.058a18.515 18.515 0 0 0 1.686-.178c.513-.08.995-.169 1.448-.265a31.13 31.13 0 0 0 1.153-.268l.356-4.907a4.638 4.638 0 0 1-.71.207Z"/></svg>