<svg xmlns="http://www.w3.org/2000/svg" viewBox="0 0 424 68"><path fill="#fff" d="M0 55V13.004h13.78V55H0Zm32.528-35.312L40.453 55h-15.08l-9.464-41.996h8.459a7.965 7.965 0 0 1 5.293 1.922 8.31 8.31 0 0 1 2.867 4.762ZM42.523 55V13.004h13.78V55h-13.78Zm24.189-26.026a8.213 8.213 0 0 1-4.228-1.124 8.336 8.336 0 0 1-3.046-3.046 8.206 8.206 0 0 1-1.125-4.229 8.056 8.056 0 0 1 1.125-4.2 8.437 8.437 0 0 1 3.046-3.016 8.233 8.233 0 0 1 4.228-1.124 8.083 8.083 0 0 1 4.199 1.124 8.504 8.504 0 0 1 3.016 3.016 8.075 8.075 0 0 1 1.125 4.2 8.226 8.226 0 0 1-1.125 4.23 8.4 8.4 0 0 1-3.016 3.045 8.059 8.059 0 0 1-4.201 1.124h.002ZM77.18 55V13.004h13.781V55H77.181Zm31.227-19.046c.039.04.334.524.887 1.449.553.925 1.272 2.108 2.159 3.549a1143.28 1143.28 0 0 1 5.589 9.168A854.89 854.89 0 0 0 120 55h-15.141c-.947-1.538-1.804-2.928-2.573-4.17a382.214 382.214 0 0 1-2.453-4.022 351.934 351.934 0 0 0-2.574-4.2 213.445 213.445 0 0 1-2.188-3.578 62.753 62.753 0 0 0-1.272-2.07 6.119 6.119 0 0 1-1.005-2.958 5.744 5.744 0 0 1 .946-2.84c.236-.394.67-1.095 1.3-2.1.632-1.006 1.371-2.198 2.219-3.579a636.03 636.03 0 0 0 2.574-4.229c.869-1.439 1.686-2.79 2.453-4.052.77-1.26 1.628-2.66 2.573-4.2H120l-11.711 19.106a3.773 3.773 0 0 0-.592 1.894c.039.706.286 1.385.709 1.952h.002Z"/><path fill="#9FDAF5" d="M162.005 35.51a11.304 11.304 0 0 0-2.985-2.18 23.42 23.42 0 0 0-3.613-1.465 40.892 40.892 0 0 0-3.941-1.016 85.253 85.253 0 0 1-2.896-.716 13.32 13.32 0 0 1-2.389-.867 7.909 7.909 0 0 1-1.821-1.195 4.28 4.28 0 0 1-1.164-1.672 6.418 6.418 0 0 1-.389-2.36 7.154 7.154 0 0 1 .389-2.449 4.539 4.539 0 0 1 1.194-1.823 7.44 7.44 0 0 1 1.88-1.254 8.892 8.892 0 0 1 2.479-.717 21.048 21.048 0 0 1 3.075-.208c.938.001 1.874.05 2.807.148.943.099 1.88.249 2.806.45.9.194 1.788.443 2.658.746.814.28 1.603.63 2.358 1.045l.836-5.257a14.842 14.842 0 0 0-2.657-1.075 35.127 35.127 0 0 0-2.836-.718c-.967-.2-1.944-.349-2.926-.447-.996-.1-2.011-.15-3.046-.15a25.35 25.35 0 0 0-6.27.717 14.16 14.16 0 0 0-4.866 2.211 9.98 9.98 0 0 0-3.166 3.763 12.168 12.168 0 0 0-1.104 5.376 11.597 11.597 0 0 0 .686 4.212 8.661 8.661 0 0 0 1.941 3.018c.842.84 1.809 1.546 2.867 2.09a22.028 22.028 0 0 0 3.492 1.435c1.255.399 2.539.737 3.851 1.016 1.077.238 2.072.487 2.986.747a14.92 14.92 0 0 1 2.479.926 7.681 7.681 0 0 1 1.88 1.254 5.03 5.03 0 0 1 1.225 1.792 6.67 6.67 0 0 1 .448 2.57 8.298 8.298 0 0 1-.418 2.747 6.388 6.388 0 0 1-1.194 2.091 5.764 5.764 0 0 1-1.911 1.432 9.677 9.677 0 0 1-2.597.777 20.734 20.734 0 0 1-3.315.24 25.97 25.97 0 0 1-3.224-.21 38.873 38.873 0 0 1-3.344-.567 33.914 33.914 0 0 1-3.255-.867A62.078 62.078 0 0 1 136 48.054l.775 5.914c1.018.38 2.055.71 3.106.985.954.25 1.921.45 2.897.597.934.14 1.869.25 2.806.329.937.08 1.882.12 2.836.12 2.138.013 4.27-.208 6.36-.658a15.216 15.216 0 0 0 5.195-2.15 10.104 10.104 0 0 0 3.462-3.913 13.225 13.225 0 0 0 1.226-6.004c.032-1.542-.2-3.078-.688-4.541a8.783 8.783 0 0 0-1.97-3.224ZM197.744 51.579a2.722 2.722 0 0 1-2.329-.956 5.139 5.139 0 0 1-.657-3.165l.12-12.308a14.381 14.381 0 0 0-.478-3.823 9.39 9.39 0 0 0-1.433-3.047 8.077 8.077 0 0 0-2.478-2.21 12.682 12.682 0 0 0-3.613-1.374 21.23 21.23 0 0 0-4.717-.478c-1.258 0-2.515.08-3.762.239a25.856 25.856 0 0 0-3.494.687c-1.064.289-2.11.638-3.135 1.045l-.716 5.078a35.088 35.088 0 0 1 5.434-1.493 21.898 21.898 0 0 1 2.478-.329c.815-.06 1.622-.09 2.418-.09a13.388 13.388 0 0 1 3.613.419 5.2 5.2 0 0 1 2.299 1.254 4.73 4.73 0 0 1 1.194 2.121c.255.985.376 2 .359 3.018l-.007 1.493-6.98.472a18.552 18.552 0 0 0-6.927 1.554 9.926 9.926 0 0 0-4.09 3.315 7.726 7.726 0 0 0-1.344 4.391 8.752 8.752 0 0 0 1.045 4.212 7.867 7.867 0 0 0 3.165 3.136 10.64 10.64 0 0 0 5.285 1.195c1.719.04 3.431-.244 5.046-.837a11.618 11.618 0 0 0 3.762-2.39c.413-.396.805-.813 1.174-1.25.117.618.335 1.213.647 1.76a4.82 4.82 0 0 0 2.329 2.03 8.713 8.713 0 0 0 3.403.628c.359 0 .707-.01 1.045-.03a5.35 5.35 0 0 0 .986-.15c.318-.08.606-.15.866-.21.233-.051.463-.121.686-.208l.657-4.003c-.329.114-.67.194-1.015.24a6.827 6.827 0 0 1-.836.059m-9.942-2.688c-.648.512-1.348.952-2.09 1.314-.739.36-1.522.62-2.328.777-.837.161-1.687.24-2.539.238a6.736 6.736 0 0 1-2.836-.537 3.894 3.894 0 0 1-1.762-1.523 4.47 4.47 0 0 1-.597-2.36 4.525 4.525 0 0 1 .776-2.808 4.563 4.563 0 0 1 2.508-1.494 18.21 18.21 0 0 1 4.659-.477h5.228l-.027 5.929a7.954 7.954 0 0 1-.995.94M191.593 10h-6.45l-5.075 10.693h4.657L191.593 10ZM246.527 25.473a10.39 10.39 0 0 0-5.314-1.255 13.987 13.987 0 0 0-4.718.806 16.618 16.618 0 0 0-4.298 2.3 21.36 21.36 0 0 0-2.12 1.793 7.487 7.487 0 0 0-3.076-3.585 10.521 10.521 0 0 0-5.375-1.254c-1.596 0-3.181.273-4.686.806a16.966 16.966 0 0 0-4.33 2.27c-.429.31-.845.646-1.254.996v-4.072l-6.091.896v30.168h6.091V32.62c.717-.47 1.465-.891 2.239-1.262a15.474 15.474 0 0 1 2.956-1.046 12.278 12.278 0 0 1 2.867-.358 6.607 6.607 0 0 1 2.597.448c.684.29 1.289.741 1.762 1.314a5.474 5.474 0 0 1 1.044 2.27c.233 1.07.344 2.162.33 3.256v18.101h6.09V35.987a24.245 24.245 0 0 0-.23-3.416c.69-.454 1.405-.87 2.141-1.244.931-.469 1.912-.83 2.925-1.075.958-.235 1.94-.355 2.926-.359a6.665 6.665 0 0 1 2.569.448 4.569 4.569 0 0 1 1.791 1.315 5.459 5.459 0 0 1 1.045 2.27c.233 1.069.343 2.161.329 3.255v18.161h6.091V35.927a17.388 17.388 0 0 0-1.075-6.631 7.7 7.7 0 0 0-3.226-3.823ZM259.846 55.343h6.091V24.28l-6.091.896v30.168ZM265.068 11.762a3.864 3.864 0 0 0-2.059-.567 4.02 4.02 0 0 0-2.09.567 4.386 4.386 0 0 0-1.522 1.494 3.87 3.87 0 0 0-.568 2.06 4.103 4.103 0 0 0 2.09 3.585 4.193 4.193 0 0 0 2.09.538 4.029 4.029 0 0 0 2.059-.538 3.903 3.903 0 0 0 1.464-1.493 4.194 4.194 0 0 0 .538-2.091 4.048 4.048 0 0 0-.538-2.061 4.218 4.218 0 0 0-1.464-1.494ZM301.821 24.666a11.73 11.73 0 0 0-3.165 1.374 15.598 15.598 0 0 0-2.806 2.24c-.142.142-.278.299-.418.447v-4.45l-6.091.897v30.168h6.091v-22.57c.462-.318.929-.617 1.403-.877.598-.33 1.216-.62 1.852-.867a20.672 20.672 0 0 1 1.88-.627 12.813 12.813 0 0 1 4.18-.448l.717-5.616a11.36 11.36 0 0 0-3.643.33ZM336.098 51.579a2.72 2.72 0 0 1-2.329-.956 5.139 5.139 0 0 1-.657-3.165l.12-12.308a14.381 14.381 0 0 0-.478-3.823 9.39 9.39 0 0 0-1.433-3.047 8.077 8.077 0 0 0-2.478-2.21 12.682 12.682 0 0 0-3.613-1.374 21.23 21.23 0 0 0-4.717-.478c-1.258 0-2.515.08-3.762.239a25.856 25.856 0 0 0-3.494.687c-1.064.289-2.11.638-3.135 1.045l-.716 5.078a35.088 35.088 0 0 1 5.434-1.493 21.898 21.898 0 0 1 2.478-.329c.815-.06 1.621-.09 2.418-.09a13.388 13.388 0 0 1 3.613.419 5.2 5.2 0 0 1 2.299 1.254 4.73 4.73 0 0 1 1.194 2.121c.255.985.375 2 .359 3.018l-.007 1.493-6.98.472a18.552 18.552 0 0 0-6.927 1.554 9.926 9.926 0 0 0-4.09 3.315 7.726 7.726 0 0 0-1.344 4.391 8.74 8.74 0 0 0 1.045 4.212 7.867 7.867 0 0 0 3.165 3.136 10.64 10.64 0 0 0 5.285 1.195c1.719.04 3.431-.244 5.046-.837a11.629 11.629 0 0 0 3.762-2.39c.413-.395.805-.813 1.174-1.25.116.618.335 1.213.647 1.76a4.82 4.82 0 0 0 2.329 2.03 8.713 8.713 0 0 0 3.403.628c.359 0 .707-.01 1.045-.03a5.35 5.35 0 0 0 .986-.15c.318-.08.606-.15.865-.21.234-.051.464-.121.687-.208l.657-4.003c-.33.114-.67.194-1.015.24a6.84 6.84 0 0 1-.836.059m-9.942-2.688c-.648.512-1.348.952-2.09 1.314-.739.36-1.522.62-2.328.777-.837.161-1.687.24-2.539.238a6.743 6.743 0 0 1-2.837-.537 3.896 3.896 0 0 1-1.761-1.523 4.47 4.47 0 0 1-.597-2.36 4.525 4.525 0 0 1 .776-2.808 4.563 4.563 0 0 1 2.508-1.494 18.21 18.21 0 0 1 4.659-.477h5.228l-.027 5.929a7.954 7.954 0 0 1-.995.94M364.345 25.669c-.06-.024-.117-.053-.179-.076a22.038 22.038 0 0 0-3.433-.987 20.638 20.638 0 0 0-4.15-.387 14.58 14.58 0 0 0-12.957 7.676 18.377 18.377 0 0 0-2.09 9.11 18.428 18.428 0 0 0 1.582 7.946 11.848 11.848 0 0 0 4.538 5.167 13.217 13.217 0 0 0 7.077 1.822 16.59 16.59 0 0 0 4.508-.598 16.322 16.322 0 0 0 4.15-1.852c.447-.276.896-.585 1.341-.91l.75 2.762h4.955V10.3l-6.091.836-.001 14.534Zm-3.194 24.567c-1.362.536-2.807.829-4.27.866a9.682 9.682 0 0 1-4.896-1.166 7.465 7.465 0 0 1-3.105-3.584 14.96 14.96 0 0 1-1.075-6.064 14.197 14.197 0 0 1 1.194-6.184 8.421 8.421 0 0 1 3.434-3.763 10.564 10.564 0 0 1 5.344-1.285c.959-.002 1.917.068 2.866.209.942.146 1.87.366 2.777.658.291.093.613.216.925.33v18.412a19.66 19.66 0 0 1-3.194 1.57ZM384.973 11.762a3.87 3.87 0 0 0-2.06-.567 4.02 4.02 0 0 0-2.09.567 4.374 4.374 0 0 0-1.521 1.494 3.862 3.862 0 0 0-.569 2.06 4.113 4.113 0 0 0 2.09 3.585 4.193 4.193 0 0 0 2.09.538 4.03 4.03 0 0 0 2.06-.538 3.917 3.917 0 0 0 1.464-1.493 4.203 4.203 0 0 0 .537-2.091 4.047 4.047 0 0 0-.537-2.061 4.235 4.235 0 0 0-1.464-1.494ZM379.748 55.343h6.09V24.28l-6.09.896v30.168ZM422.144 31.536a13.052 13.052 0 0 0-5.285-5.406 17.956 17.956 0 0 0-16.241.06 13.78 13.78 0 0 0-5.435 5.555 17.565 17.565 0 0 0-1.94 8.483 18.332 18.332 0 0 0 1.82 8.453 12.466 12.466 0 0 0 5.225 5.407 16.225 16.225 0 0 0 7.883 1.852c2.87.057 5.707-.622 8.241-1.972a13.913 13.913 0 0 0 5.583-5.615 17.627 17.627 0 0 0 2-8.603 17.337 17.337 0 0 0-1.851-8.214ZM416.5 46.142a8.124 8.124 0 0 1-3.253 3.734 9.275 9.275 0 0 1-4.777 1.225 8.494 8.494 0 0 1-4.658-1.255 8.413 8.413 0 0 1-3.104-3.763 15.045 15.045 0 0 1-1.131-6.213c-.071-2.07.317-4.131 1.135-6.034a7.938 7.938 0 0 1 3.194-3.584 9.66 9.66 0 0 1 4.927-1.195 9.395 9.395 0 0 1 3.911.747 7.176 7.176 0 0 1 2.747 2.18 9.654 9.654 0 0 1 1.642 3.435 17.17 17.17 0 0 1 .538 4.45c.069 2.151-.329 4.291-1.166 6.273"/></svg>