<svg xmlns="http://www.w3.org/2000/svg" fill="none"><path fill="#0A2343" d="M.087 18.841V6.842h4v11.999h-4ZM9.33 8.751l2.265 10.09h-4.31L4.583 6.842H7a2.276 2.276 0 0 1 1.512.55c.421.345.66.826.82 1.36Zm2.756 10.09V6.842h4v11.999h-4Zm7.011-7.436a2.381 2.381 0 0 1-2.4-2.4 2.303 2.303 0 0 1 .322-1.2 2.41 2.41 0 0 1 3.278-.861c.356.209.652.506.862.861.214.364.326.779.32 1.2a2.4 2.4 0 0 1-1.183 2.079 2.3 2.3 0 0 1-1.199.321Zm2.99 7.436V6.842h4v11.999h-4Zm8.973-5.442c.011.012.096.15.254.414.158.265.363.603.616 1.014a339.194 339.194 0 0 1 1.597 2.62l.845 1.394h-4.326c-.27-.44-.515-.837-.735-1.191-.22-.355-.453-.738-.7-1.15-.249-.41-.494-.81-.736-1.2-.243-.389-.451-.73-.625-1.022-.175-.293-.296-.49-.364-.591a1.75 1.75 0 0 1-.287-.845c.017-.29.11-.57.27-.812.068-.112.192-.313.372-.6a128.84 128.84 0 0 0 1.369-2.231l.701-1.157.735-1.2h4.326L31.026 12.3a1.079 1.079 0 0 0-.169.542c.011.201.082.395.203.557Z"/><path fill="#AB0058" d="M40.35 17.388c.267-.23.542-.468.832-.727.406-.36.814-.752 1.225-1.174.412-.422.803-.862 1.175-1.318.36-.441.69-.907.988-1.394.277-.452.504-.934.676-1.436a4.47 4.47 0 0 0 .245-1.436 3.119 3.119 0 0 0-.27-1.326 2.863 2.863 0 0 0-.794-1.014 3.625 3.625 0 0 0-1.31-.66 6.466 6.466 0 0 0-1.8-.227 6.648 6.648 0 0 0-1.173.101 6.11 6.11 0 0 0-1.082.296 7.304 7.304 0 0 0-.971.448l.22 1.47c.267-.18.553-.33.853-.448.325-.13.662-.233 1.005-.304.35-.074.707-.11 1.064-.11.375-.008.748.043 1.107.152.286.087.548.237.769.44.198.184.351.413.447.667.099.267.148.55.144.836a3.749 3.749 0 0 1-.287 1.394 7.402 7.402 0 0 1-.811 1.47 15.71 15.71 0 0 1-1.233 1.537 26.92 26.92 0 0 1-1.546 1.572 132.75 132.75 0 0 1-1.732 1.596l.22 1.048h7.315l.203-1.453h-5.48Z"/></svg>