<svg xmlns="http://www.w3.org/2000/svg" viewBox="0 0 40 16"><path fill="#fff" d="M0 15V1.001h4.593V15H0ZM10.843 3.23 13.484 15H8.457L5.303 1.001h2.82a2.655 2.655 0 0 1 1.764.641c.491.404.829.964.956 1.587ZM14.174 15V1.001h4.594V15h-4.594Zm8.063-8.675a2.78 2.78 0 0 1-2.425-1.39 2.736 2.736 0 0 1-.374-1.41 2.686 2.686 0 0 1 .375-1.4 2.813 2.813 0 0 1 1.015-1.005c.427-.25.914-.38 1.41-.375.491-.005.975.124 1.399.375.415.244.761.59 1.005 1.005.25.424.38.908.375 1.4.005.495-.125.982-.375 1.41a2.8 2.8 0 0 1-1.005 1.015c-.424.251-.907.38-1.4.375ZM25.727 15V1.001h4.594V15h-4.594Zm10.409-6.349c.013.014.111.175.296.483.184.309.424.703.72 1.183a384.154 384.154 0 0 1 1.862 3.056c.289.48.617 1.023.986 1.627h-5.047l-.858-1.39c-.256-.414-.529-.861-.817-1.34-.29-.48-.576-.947-.858-1.4a70.946 70.946 0 0 1-.73-1.193 21.1 21.1 0 0 0-.424-.69A2.04 2.04 0 0 1 30.931 8c.02-.338.129-.665.316-.947.078-.131.223-.365.433-.7a212.59 212.59 0 0 0 1.598-2.603l.817-1.35.858-1.4H40l-3.904 6.368c-.12.19-.189.407-.197.632.013.235.096.461.237.65Z"/></svg>