<svg xmlns="http://www.w3.org/2000/svg" viewBox="0 0 47 24" fill="none"><path fill="#0A2343" d="M0 17.997V6h4v11.998H0ZM9.244 7.908l2.264 10.09H7.2l-2.704-12h2.417a2.276 2.276 0 0 1 1.513.55c.42.346.66.826.819 1.36ZM12 17.998v-12h4v12h-4Zm7.01-7.436a2.382 2.382 0 0 1-2.4-2.4 2.301 2.301 0 0 1 .322-1.2A2.41 2.41 0 0 1 20.21 6.1c.356.21.653.506.862.862a2.3 2.3 0 0 1 .321 1.2 2.35 2.35 0 0 1-.321 1.208 2.4 2.4 0 0 1-.862.87 2.3 2.3 0 0 1-1.2.322ZM22 17.997V6h4v11.998h-4Zm8.974-5.441c.01.011.095.15.253.414s.364.602.617 1.014a315.936 315.936 0 0 1 1.597 2.62c.247.41.529.876.845 1.393H29.96c-.27-.439-.516-.836-.736-1.19-.22-.356-.453-.739-.7-1.15-.248-.411-.493-.81-.736-1.2-.242-.39-.45-.73-.625-1.022-.175-.293-.296-.49-.363-.592a1.747 1.747 0 0 1-.287-.845c.016-.29.11-.57.27-.811.067-.113.191-.313.371-.6a182.106 182.106 0 0 0 1.37-2.23l.7-1.159.736-1.2h4.326l-3.346 5.459a1.08 1.08 0 0 0-.17.541c.012.202.083.396.204.558Z"/><path fill="#AB0058" d="M40.263 16.544c.267-.23.542-.468.833-.726.405-.36.814-.752 1.225-1.175.411-.422.802-.861 1.174-1.317.361-.442.691-.908.989-1.394a7.19 7.19 0 0 0 .675-1.437c.16-.462.243-.947.245-1.436a3.117 3.117 0 0 0-.27-1.326 2.86 2.86 0 0 0-.794-1.014 3.624 3.624 0 0 0-1.31-.659 6.466 6.466 0 0 0-1.799-.228 6.647 6.647 0 0 0-1.174.102 6.11 6.11 0 0 0-1.082.295 7.293 7.293 0 0 0-.97.448l.219 1.47c.267-.18.554-.33.853-.448a5.98 5.98 0 0 1 1.006-.304c.35-.073.706-.11 1.064-.11a3.61 3.61 0 0 1 1.107.152c.285.088.548.238.768.44.199.185.352.413.448.667.098.268.147.551.144.836a3.747 3.747 0 0 1-.287 1.394 7.414 7.414 0 0 1-.811 1.47c-.38.538-.791 1.051-1.234 1.538a26.892 26.892 0 0 1-1.546 1.571c-.557.524-1.135 1.056-1.732 1.597l.22 1.047h7.316l.203-1.453h-5.48Z"/></svg>