<svg xmlns="http://www.w3.org/2000/svg" viewBox="0 0 83 14" fill="currentColor"><path d="M0 13V1.001h3.937V13H0ZM9.294 2.91 11.558 13H7.25L4.546 1.001h2.416a2.276 2.276 0 0 1 1.513.55c.42.345.71.826.819 1.36ZM12.15 13V1.001h3.937V13H12.15Zm6.91-7.436a2.383 2.383 0 0 1-2.4-2.4 2.303 2.303 0 0 1 .322-1.2 2.411 2.411 0 0 1 3.278-.861c.356.209.653.506.862.861.215.363.326.778.321 1.2a2.4 2.4 0 0 1-1.183 2.079 2.3 2.3 0 0 1-1.2.321ZM22.053 13V1.001h3.937V13h-3.937Zm8.922-5.442c.01.012.095.15.253.414.158.265.364.603.617 1.014a325.765 325.765 0 0 1 1.597 2.62c.247.411.529.876.845 1.394H29.96c-.27-.44-.516-.836-.736-1.191-.22-.355-.453-.738-.7-1.15-.248-.41-.493-.81-.736-1.2-.242-.389-.45-.73-.625-1.022a17.98 17.98 0 0 0-.363-.591A1.75 1.75 0 0 1 26.513 7c.016-.29.11-.57.27-.812.067-.113.191-.313.372-.6a182.106 182.106 0 0 0 1.37-2.23c.247-.412.48-.798.7-1.158L29.96 1h4.326L30.94 6.46a1.078 1.078 0 0 0-.17.54c.012.202.083.396.204.558ZM44.74 8.041c.225-.034.447-.086.664-.155.44-.136.845-.364 1.19-.667.346-.308.617-.689.795-1.115.2-.49.298-1.016.287-1.546a4.166 4.166 0 0 0-.38-1.79 2.852 2.852 0 0 0-1.25-1.293 4.843 4.843 0 0 0-2.34-.482h-4.849v11.995h1.757V8.393H43.2l2.99 4.595h2.061l-2.804-4.155-.706-.792Zm.03-5.35c.35.134.643.385.828.71.193.378.286.8.27 1.225.021.47-.093.936-.329 1.343a1.844 1.844 0 0 1-.946.743c-.47.162-.965.239-1.462.228h-2.517V2.463h2.72c.489-.016.976.061 1.436.228ZM57.356 11.924a.77.77 0 0 1-.659-.27 1.453 1.453 0 0 1-.185-.896l.033-3.48a4.065 4.065 0 0 0-.135-1.081 2.658 2.658 0 0 0-.405-.862 2.293 2.293 0 0 0-.701-.625 3.58 3.58 0 0 0-1.022-.388 6.009 6.009 0 0 0-1.335-.135c-.356 0-.711.022-1.064.067a7.306 7.306 0 0 0-.989.194c-.3.082-.597.18-.887.296l-.202 1.436a9.923 9.923 0 0 1 1.537-.422c.232-.044.466-.075.701-.093a9.06 9.06 0 0 1 .684-.025c.345-.008.689.032 1.023.118.243.06.467.183.65.355.163.167.28.373.338.6.072.278.106.565.101.853l-.002.424-1.975.133a5.25 5.25 0 0 0-1.96.44 2.808 2.808 0 0 0-1.157.937c-.25.366-.382.799-.38 1.242a2.47 2.47 0 0 0 .296 1.19c.207.377.517.685.895.888.461.24.976.356 1.495.338.487.01.971-.07 1.428-.237a3.288 3.288 0 0 0 1.065-.676c.116-.112.227-.23.332-.353.033.174.095.343.183.497.15.259.382.46.659.574.306.123.633.184.963.178.101 0 .2-.003.295-.009a1.52 1.52 0 0 0 .28-.042l.244-.059c.066-.015.131-.035.194-.06l.186-1.131c-.093.032-.19.055-.287.068-.079.01-.157.016-.237.016Zm-2.813-.76c-.183.145-.38.27-.59.372-.21.102-.431.175-.66.22a3.722 3.722 0 0 1-.718.067 1.909 1.909 0 0 1-.802-.152c-.206-.09-.38-.24-.499-.43a1.264 1.264 0 0 1-.169-.668 1.28 1.28 0 0 1 .22-.794c.184-.215.433-.363.71-.423a5.151 5.151 0 0 1 1.318-.135h1.479l-.008 1.677c-.086.097-.18.186-.28.266ZM65.348 4.597l-.05-.022a5.82 5.82 0 0 0-2.146-.388 4.15 4.15 0 0 0-2.103.557 4.14 4.14 0 0 0-1.563 1.614 5.197 5.197 0 0 0-.591 2.576 5.21 5.21 0 0 0 .448 2.247 3.351 3.351 0 0 0 1.284 1.461c.605.357 1.3.535 2.002.515.43.003.86-.054 1.275-.168.414-.12.81-.296 1.174-.524.127-.078.254-.166.38-.257l.212.78h1.402V.25l-1.723.237v4.11Zm-.903 6.947a3.537 3.537 0 0 1-1.208.245 2.74 2.74 0 0 1-1.386-.33 2.115 2.115 0 0 1-.878-1.013 4.23 4.23 0 0 1-.304-1.715c-.02-.601.095-1.199.338-1.749.206-.446.545-.818.97-1.064a2.994 2.994 0 0 1 1.513-.363 5.113 5.113 0 0 1 1.596.245c.083.026.174.061.262.093V11.1c-.287.175-.59.324-.904.444ZM69.706 12.989h1.724V4.203l-1.724.254v8.532ZM71.185.664a1.094 1.094 0 0 0-.583-.16 1.137 1.137 0 0 0-.592.16 1.241 1.241 0 0 0-.43.422 1.095 1.095 0 0 0-.16.583c-.003.208.053.413.16.591.103.177.252.323.43.423.18.101.385.154.592.152.204.002.405-.05.583-.152.174-.1.317-.247.413-.423.102-.18.154-.384.153-.59a1.141 1.141 0 0 0-.153-.584 1.194 1.194 0 0 0-.413-.422ZM81.701 6.256a3.693 3.693 0 0 0-1.495-1.529 4.637 4.637 0 0 0-2.289-.54 4.614 4.614 0 0 0-2.306.557 3.896 3.896 0 0 0-1.538 1.571 4.97 4.97 0 0 0-.549 2.4 5.18 5.18 0 0 0 .516 2.39c.323.65.84 1.184 1.478 1.529.687.36 1.454.54 2.23.524a4.76 4.76 0 0 0 2.331-.558 3.933 3.933 0 0 0 1.58-1.588c.392-.75.587-1.587.566-2.433a4.896 4.896 0 0 0-.524-2.323Zm-1.596 4.13c-.19.44-.512.809-.92 1.057a2.627 2.627 0 0 1-1.352.346 2.403 2.403 0 0 1-1.318-.355 2.38 2.38 0 0 1-.879-1.064 4.26 4.26 0 0 1-.32-1.757 3.98 3.98 0 0 1 .32-1.707c.19-.423.505-.777.904-1.013a2.735 2.735 0 0 1 1.394-.338c.38-.01.757.062 1.107.211.306.138.573.35.777.617.218.29.376.62.464.971.106.411.157.834.152 1.259a4.205 4.205 0 0 1-.33 1.774Z"/></svg>