<svg xmlns="http://www.w3.org/2000/svg" viewBox="0 0 72 24"><path fill="#0A2343" d="M0 18.002v-12h3.937v12H0Zm9.294-10.09 2.264 10.09H7.25l-2.704-12h2.417a2.276 2.276 0 0 1 1.513.55c.42.346.71.826.819 1.36Zm2.855 10.09v-12h3.938v12h-3.938Zm6.912-7.436a2.381 2.381 0 0 1-2.078-1.192 2.345 2.345 0 0 1-.322-1.208 2.301 2.301 0 0 1 .321-1.2 2.41 2.41 0 0 1 3.278-.862c.356.21.653.506.862.862.215.363.326.778.321 1.2a2.35 2.35 0 0 1-.321 1.208c-.207.36-.504.66-.862.87a2.302 2.302 0 0 1-1.2.322Zm2.99 7.436v-12h3.938v12h-3.937Zm8.923-5.442c.01.012.095.15.253.414s.364.602.617 1.014a309.436 309.436 0 0 1 1.597 2.62c.247.411.529.876.845 1.394H29.96c-.27-.44-.516-.837-.736-1.192-.22-.355-.453-.738-.7-1.149-.248-.41-.493-.81-.736-1.2a60.12 60.12 0 0 1-.625-1.022 18.04 18.04 0 0 0-.363-.592 1.747 1.747 0 0 1-.287-.845c.016-.29.11-.57.27-.811.067-.113.191-.313.371-.6s.392-.628.634-1.023c.242-.394.488-.797.736-1.208a516 516 0 0 1 .7-1.158l.736-1.2h4.326l-3.346 5.46a1.079 1.079 0 0 0-.17.54c.012.202.082.396.203.558Z"/><path fill="#481581" d="M40.508 15.269c.003.196-.031.39-.1.574-.064.162-.162.31-.287.43-.13.122-.285.215-.454.27-.196.065-.4.096-.606.093-.134 0-.26-.005-.378-.017a7.607 7.607 0 0 1-.707-.101 9.058 9.058 0 0 1-.732-.169l.135 1.52c.157.045.308.087.454.126.146.04.292.073.438.101.15.029.301.049.454.06.157.01.33.016.521.017.39.006.777-.043 1.153-.144.306-.084.594-.224.85-.414a2.39 2.39 0 0 0 .58-.633c.152-.245.266-.513.336-.793.074-.296.11-.6.11-.904V6h-1.767v9.269ZM52.234 16.923a.765.765 0 0 1-.656-.27 1.458 1.458 0 0 1-.185-.895l.033-3.477a4.073 4.073 0 0 0-.134-1.08 2.659 2.659 0 0 0-.404-.862 2.285 2.285 0 0 0-.698-.625 3.564 3.564 0 0 0-1.018-.388 5.965 5.965 0 0 0-1.329-.135c-.354 0-.708.022-1.06.067-.332.042-.66.107-.984.195-.3.081-.595.18-.883.295l-.202 1.435a10.067 10.067 0 0 1 1.53-.422c.231-.044.465-.075.699-.092.23-.017.457-.026.681-.026.343-.007.686.032 1.018.118.243.061.466.183.648.355.162.167.278.373.336.6.072.278.106.564.101.852l-.002.423-1.966.134a5.216 5.216 0 0 0-1.952.439c-.46.202-.859.526-1.152.937-.249.365-.38.798-.379 1.24-.003.416.098.825.295 1.19.206.376.515.684.892.887.458.24.971.356 1.488.338.485.01.967-.07 1.422-.236a3.277 3.277 0 0 0 1.06-.676c.116-.112.227-.23.33-.353.033.174.095.343.183.497.15.258.38.46.656.574.305.123.63.183.959.177.1 0 .199-.003.294-.008.094-.006.187-.02.278-.043l.244-.059c.066-.014.13-.034.193-.059l.185-1.13a1.494 1.494 0 0 1-.286.067c-.078.01-.156.016-.235.016Zm-2.801-.76a3.24 3.24 0 0 1-.59.372 2.654 2.654 0 0 1-.655.22 3.723 3.723 0 0 1-.715.067 1.89 1.89 0 0 1-.8-.152 1.098 1.098 0 0 1-.495-.43 1.264 1.264 0 0 1-.169-.667c-.016-.282.06-.56.219-.794.183-.214.431-.363.706-.422.43-.101.871-.147 1.313-.135h1.473l-.008 1.676a2.257 2.257 0 0 1-.28.265ZM60.713 10.575l-.202-1.199h-6.494l-.202 1.351h4.886l-5.037 6.111.202 1.148h6.864l.185-1.367h-5.142l4.94-6.044ZM64.251 16.62l4.94-6.044-.201-1.2h-6.494l-.202 1.351h4.885l-5.036 6.112.201 1.148h6.864l.185-1.368h-5.142Z"/></svg>