<svg xmlns="http://www.w3.org/2000/svg" viewBox="0 0 66 16"><path fill="#fff" d="M0 15V1.001h4.593V15H0ZM10.843 3.23 13.485 15H8.457L5.303 1.001h2.82a2.655 2.655 0 0 1 1.764.641c.491.404.829.964.956 1.587ZM14.175 15V1.001h4.593V15h-4.594Zm8.062-8.675a2.779 2.779 0 0 1-2.425-1.39 2.735 2.735 0 0 1-.374-1.41 2.685 2.685 0 0 1 .375-1.4 2.813 2.813 0 0 1 3.824-1.005c.415.244.761.59 1.005 1.005.251.424.38.908.375 1.4.005.495-.125.982-.375 1.41a2.8 2.8 0 0 1-1.005 1.015c-.424.251-.908.38-1.4.375ZM25.727 15V1.001h4.594V15h-4.594Zm10.41-6.349c.012.014.11.175.295.483.184.309.424.703.72 1.183a366.453 366.453 0 0 1 1.862 3.056c.289.48.617 1.023.986 1.627h-5.047c-.315-.513-.601-.976-.858-1.39-.256-.414-.528-.861-.817-1.34-.29-.48-.576-.947-.858-1.4a71.104 71.104 0 0 1-.73-1.193 20.74 20.74 0 0 0-.424-.69A2.041 2.041 0 0 1 30.932 8c.02-.338.128-.665.315-.947.079-.131.223-.365.433-.7a212.59 212.59 0 0 0 1.598-2.603l.817-1.35.858-1.4H40l-3.904 6.368c-.12.19-.189.407-.197.632.013.235.095.461.236.65h.001ZM54.854 2.814a3.515 3.515 0 0 0-.919-.957 4.415 4.415 0 0 0-1.333-.63A6.326 6.326 0 0 0 50.825 1h-5.492v14h2.074V9.972h3.576a4.67 4.67 0 0 0 2.31-.572 4.272 4.272 0 0 0 1.63-1.598c.416-.74.624-1.577.602-2.425a5.767 5.767 0 0 0-.157-1.36 3.918 3.918 0 0 0-.514-1.203Zm-1.837 4.25a2.33 2.33 0 0 1-1.116.916 4.609 4.609 0 0 1-1.748.296h-2.746v-5.56h3.022a3.769 3.769 0 0 1 1.68.324c.419.203.761.534.977.947.228.462.34.973.326 1.488a2.91 2.91 0 0 1-.395 1.588ZM59.549 13.304c.312-.268.634-.547.973-.848.474-.42.952-.877 1.432-1.37.481-.494.939-1.006 1.373-1.538.422-.515.808-1.059 1.156-1.627.324-.528.589-1.09.79-1.676.186-.54.283-1.105.286-1.676a3.633 3.633 0 0 0-.316-1.547 3.346 3.346 0 0 0-.928-1.184 4.238 4.238 0 0 0-1.531-.769A7.571 7.571 0 0 0 60.68.803c-.46-.001-.92.038-1.372.118a7.155 7.155 0 0 0-1.264.346c-.391.146-.771.32-1.136.522l.256 1.715c.313-.209.648-.384.998-.522.38-.153.774-.272 1.175-.355.41-.086.826-.128 1.245-.128a4.19 4.19 0 0 1 1.293.177c.334.102.641.277.9.513.231.216.41.482.523.779.114.312.171.643.167.976a4.358 4.358 0 0 1-.335 1.626 8.656 8.656 0 0 1-.948 1.716 18.328 18.328 0 0 1-1.442 1.794 31.433 31.433 0 0 1-1.808 1.834c-.651.611-1.326 1.232-2.024 1.864L57.164 15h8.553l.237-1.696H59.55Z"/></svg>