<svg xmlns="http://www.w3.org/2000/svg" viewBox="0 0 296 84"><path fill="#FFE100" d="M0 0h296v84H0z"/><path fill="#000" d="m276 63-14.5-21.908L274.747 21h-6.627l-9.623 15.993L247.939 21h-7.282l13.605 20.384L240 62.999h6.746l10.618-17.261 11.412 17.261L276 63ZM182.166 21.018h-12.954s7.361 12.084 7.444 12.236a2.041 2.041 0 0 1 .048 2.469l-7.492 12.281h12.956s6.248-10.216 7.102-11.634a3.097 3.097 0 0 0-.034-3.753c-.922-1.57-.924-1.569-7.07-11.6ZM167.538 21.018H156v41.976h11.538V21.018ZM222.743 27.972c-.436-.743-4.292-6.954-4.292-6.954h-27.729l6.057 10.16h14.606l-6.025 9.876 6.716 11.284-6.482 10.653h11.838c1.903-3.113 4.749-7.929 5.343-8.916a3.112 3.112 0 0 0-.034-3.769c-.593-1.01-3.763-6.039-5.658-9.134l5.692-9.433a3.105 3.105 0 0 0-.032-3.767Z"/><path fill="#000" d="M196.07 42.418c-1.825 2.98-4.877 7.976-5.449 8.95a2.997 2.997 0 0 0-.033 3.63c.572.951 3.648 5.986 5.482 8.989 1.833-3 4.91-8.035 5.482-8.988a3 3 0 0 0-.033-3.63c-.572-.975-3.625-5.97-5.449-8.95ZM20 63V21.004h13.78V63H20Zm32.528-35.312L60.453 63h-15.08l-9.464-41.996h8.459a7.965 7.965 0 0 1 5.293 1.922 8.31 8.31 0 0 1 2.867 4.762ZM62.523 63V21.004h13.78V63h-13.78Zm24.189-26.026a8.213 8.213 0 0 1-4.228-1.124 8.336 8.336 0 0 1-3.046-3.046 8.206 8.206 0 0 1-1.125-4.229 8.056 8.056 0 0 1 1.125-4.2 8.437 8.437 0 0 1 3.046-3.016 8.233 8.233 0 0 1 4.228-1.124 8.083 8.083 0 0 1 4.199 1.124 8.504 8.504 0 0 1 3.016 3.016 8.075 8.075 0 0 1 1.125 4.2 8.226 8.226 0 0 1-1.125 4.23 8.4 8.4 0 0 1-3.016 3.045 8.059 8.059 0 0 1-4.201 1.124h.002ZM97.18 63V21.004h13.781V63H97.181Zm31.227-19.046c.039.04.334.524.887 1.449.553.925 1.272 2.108 2.159 3.549a1143.28 1143.28 0 0 1 5.589 9.168A854.89 854.89 0 0 0 140 63h-15.141c-.947-1.538-1.804-2.928-2.573-4.17a388.795 388.795 0 0 1-2.453-4.022 355.984 355.984 0 0 0-2.574-4.2 210.645 210.645 0 0 1-2.188-3.578 62.13 62.13 0 0 0-1.272-2.07 6.127 6.127 0 0 1-1.005-2.958 5.745 5.745 0 0 1 .946-2.84c.236-.394.67-1.094 1.301-2.1.631-1.006 1.37-2.198 2.218-3.578.847-1.38 1.706-2.79 2.574-4.23.869-1.439 1.686-2.79 2.453-4.052.77-1.26 1.628-2.66 2.573-4.2H140l-11.711 19.106a3.773 3.773 0 0 0-.592 1.894c.039.706.286 1.385.709 1.952h.002Z"/></svg>