<svg xmlns="http://www.w3.org/2000/svg" viewBox="0 0 212 104"><path fill="#fff" d="M0 43V1.004h13.78V43H0ZM32.528 7.688 40.453 43h-15.08L15.908 1.004h8.459a7.965 7.965 0 0 1 5.293 1.922 8.31 8.31 0 0 1 2.867 4.762ZM42.523 43V1.004h13.78V43h-13.78Zm24.189-26.026a8.213 8.213 0 0 1-4.228-1.124 8.336 8.336 0 0 1-3.046-3.046 8.206 8.206 0 0 1-1.125-4.229 8.056 8.056 0 0 1 1.125-4.2 8.437 8.437 0 0 1 3.046-3.016A8.232 8.232 0 0 1 66.712.235a8.083 8.083 0 0 1 4.199 1.124 8.503 8.503 0 0 1 3.016 3.016 8.075 8.075 0 0 1 1.125 4.2 8.226 8.226 0 0 1-1.125 4.23 8.4 8.4 0 0 1-3.016 3.045 8.059 8.059 0 0 1-4.201 1.124h.002ZM77.18 43V1.004h13.781V43H77.181Zm31.227-19.046c.039.04.334.524.887 1.449.553.925 1.272 2.108 2.159 3.549a1143.28 1143.28 0 0 1 5.589 9.168A854.89 854.89 0 0 0 120 43h-15.141c-.947-1.538-1.804-2.928-2.573-4.17a382.214 382.214 0 0 1-2.453-4.022 351.934 351.934 0 0 0-2.574-4.2 213.445 213.445 0 0 1-2.188-3.578 62.753 62.753 0 0 0-1.272-2.07 6.119 6.119 0 0 1-1.005-2.958 5.744 5.744 0 0 1 .946-2.84c.236-.394.67-1.095 1.3-2.1.632-1.006 1.371-2.198 2.219-3.579.847-1.38 1.706-2.79 2.574-4.229.869-1.439 1.686-2.79 2.453-4.052.77-1.26 1.628-2.66 2.573-4.2H120l-11.711 19.106a3.773 3.773 0 0 0-.592 1.894c.039.706.286 1.385.709 1.952h.002Z"/><path fill="#EFB4ED" d="M31.848 61.035h-7.386L8.41 79.529H6.204V61.035H0v41.952h6.204V84.02h.209l17.46 19.026 8.449-.06-20.03-20.799 19.556-21.152ZM46.354 98.643a5.203 5.203 0 0 1-.62.03 3.166 3.166 0 0 1-1.3-.237 2.114 2.114 0 0 1-.886-.739 3.211 3.211 0 0 1-.502-1.27 9.81 9.81 0 0 1-.148-1.83V58.375l-6.027.886v37.993a8.033 8.033 0 0 0 .473 2.925c.283.761.75 1.441 1.36 1.979.606.52 1.323.894 2.097 1.094.858.222 1.742.331 2.629.325a14.426 14.426 0 0 0 2.63-.237c.413-.078.758-.157 1.033-.236l.591-4.67c-.236.042-.472.081-.709.12-.236.037-.443.067-.621.088ZM79.295 99.264a2.691 2.691 0 0 1-2.304-.946 5.078 5.078 0 0 1-.65-3.13l.118-12.173a14.209 14.209 0 0 0-.473-3.782 9.283 9.283 0 0 0-1.418-3.013 7.99 7.99 0 0 0-2.452-2.186 12.49 12.49 0 0 0-3.575-1.359c-1.533-.331-3.1-.49-4.668-.473-1.244 0-2.487.079-3.721.237a25.64 25.64 0 0 0-3.458.678 28.926 28.926 0 0 0-3.102 1.035l-.709 5.023a33.74 33.74 0 0 1 2.807-.887 37.987 37.987 0 0 1 2.57-.59c.81-.156 1.63-.264 2.452-.326a32.77 32.77 0 0 1 2.394-.088 13.2 13.2 0 0 1 3.574.413c.851.213 1.635.64 2.275 1.241.57.584.977 1.307 1.181 2.097.253.974.372 1.978.356 2.985l-.007 1.483-6.907.467a18.35 18.35 0 0 0-6.854 1.536 9.815 9.815 0 0 0-4.048 3.28 7.63 7.63 0 0 0-1.33 4.342 8.638 8.638 0 0 0 1.035 4.165 7.775 7.775 0 0 0 3.131 3.103 10.534 10.534 0 0 0 5.23 1.182 13.575 13.575 0 0 0 4.992-.829 11.509 11.509 0 0 0 3.723-2.363 16.29 16.29 0 0 0 1.162-1.239c.115.612.331 1.2.64 1.741a4.762 4.762 0 0 0 2.305 2.009 8.63 8.63 0 0 0 3.367.62c.355 0 .7-.009 1.035-.03.328-.019.655-.068.974-.147.316-.08.6-.148.857-.207.231-.052.459-.121.68-.206l.65-3.96a5.179 5.179 0 0 1-1.005.237c-.274.037-.55.057-.827.06Zm-9.838-2.659a11.36 11.36 0 0 1-2.068 1.3 9.283 9.283 0 0 1-2.305.768c-.827.16-1.667.239-2.51.237a6.668 6.668 0 0 1-2.807-.532 3.864 3.864 0 0 1-1.743-1.508 4.417 4.417 0 0 1-.591-2.334 4.474 4.474 0 0 1 .768-2.776 4.512 4.512 0 0 1 2.481-1.477 17.97 17.97 0 0 1 4.61-.473h5.173l-.026 5.865c-.3.338-.628.649-.982.93ZM105.41 89.397a8.864 8.864 0 0 0-2.067-1.626 16.225 16.225 0 0 0-2.482-1.153c-.63-.196-1.25-.403-1.861-.62a32.912 32.912 0 0 0-1.832-.59 36.594 36.594 0 0 1-1.773-.562c-.535-.182-1.058-.4-1.565-.651-.486-.258-.95-.555-1.39-.886a3.872 3.872 0 0 1-1.004-1.124 2.843 2.843 0 0 1-.385-1.477 3.06 3.06 0 0 1 .416-1.624c.308-.484.736-.88 1.24-1.152a6.681 6.681 0 0 1 1.98-.71 13.238 13.238 0 0 1 2.63-.236c.432 0 .906.021 1.417.06.51.038 1.073.108 1.685.206.611.099 1.219.227 1.831.383.613.157 1.231.336 1.862.532.583.18 1.155.398 1.711.65l.416-4.785a28.353 28.353 0 0 0-2.216-.828 22.117 22.117 0 0 0-2.216-.591 17.727 17.727 0 0 0-2.216-.325c-.73-.06-1.447-.089-2.157-.089a19.488 19.488 0 0 0-4.845.562c-1.355.33-2.644.889-3.81 1.654a7.52 7.52 0 0 0-2.513 2.777 8.463 8.463 0 0 0-.886 3.989 8.356 8.356 0 0 0 .473 2.924 6.994 6.994 0 0 0 1.24 2.157 8.66 8.66 0 0 0 1.803 1.566c.698.458 1.44.844 2.216 1.152.432.158.885.315 1.36.472.472.158.934.306 1.388.443.454.137.894.277 1.33.414.435.136.855.276 1.269.413.413.137.817.267 1.211.385.529.187 1.043.414 1.537.679.434.23.84.507 1.212.828.326.286.588.639.768 1.034.179.41.27.852.265 1.299a2.956 2.956 0 0 1-.975 2.334 5.662 5.662 0 0 1-2.54 1.212c-1.097.242-2.216.36-3.338.354A16.59 16.59 0 0 1 92.5 98.7a31.223 31.223 0 0 1-2.421-.414 35.847 35.847 0 0 1-2.6-.65 52.197 52.197 0 0 1-2.689-.856l.235 5.022a35.12 35.12 0 0 0 2.807.857c.848.216 1.656.403 2.424.562.74.154 1.49.252 2.244.296.729.04 1.467.06 2.216.06a23.036 23.036 0 0 0 4.905-.504 12.625 12.625 0 0 0 4.018-1.565 7.72 7.72 0 0 0 2.688-2.777 8.108 8.108 0 0 0 .973-4.078 8.277 8.277 0 0 0-.501-3.041 6.909 6.909 0 0 0-1.389-2.215ZM133.122 89.397a8.909 8.909 0 0 0-2.069-1.626 16.08 16.08 0 0 0-2.482-1.153 51.09 51.09 0 0 1-1.861-.62 33.215 33.215 0 0 0-1.832-.59 37.48 37.48 0 0 1-1.773-.562c-.536-.182-1.058-.4-1.565-.651a10.326 10.326 0 0 1-1.389-.886 3.855 3.855 0 0 1-1.003-1.124 2.828 2.828 0 0 1-.386-1.477 3.063 3.063 0 0 1 .415-1.624 3.34 3.34 0 0 1 1.241-1.152 6.68 6.68 0 0 1 1.979-.71 13.248 13.248 0 0 1 2.629-.236 19.164 19.164 0 0 1 3.103.266c.611.099 1.22.227 1.83.383.611.157 1.231.336 1.863.532.584.18 1.156.398 1.712.65l.415-4.785a28.315 28.315 0 0 0-2.216-.828 22.054 22.054 0 0 0-2.216-.591 17.704 17.704 0 0 0-2.216-.325 26.72 26.72 0 0 0-2.156-.089 19.474 19.474 0 0 0-4.845.562c-1.356.329-2.645.889-3.812 1.654a7.529 7.529 0 0 0-2.511 2.777 8.444 8.444 0 0 0-.886 3.989 8.32 8.32 0 0 0 .474 2.924c.28.788.7 1.519 1.24 2.157a8.627 8.627 0 0 0 1.803 1.566c.697.458 1.44.844 2.215 1.152.432.158.885.315 1.359.472.473.158.935.306 1.389.443.454.137.895.277 1.328.414.434.136.857.276 1.271.413.413.137.817.267 1.212.385a11.01 11.01 0 0 1 1.535.679c.434.23.841.507 1.213.828.326.286.588.638.767 1.034.181.409.272.852.267 1.299a2.943 2.943 0 0 1-.976 2.334 5.661 5.661 0 0 1-2.541 1.212c-1.096.242-2.215.36-3.337.354a16.588 16.588 0 0 1-2.098-.147 31.271 31.271 0 0 1-2.423-.414 35.821 35.821 0 0 1-2.6-.65 52.817 52.817 0 0 1-2.688-.856l.237 5.022c1.022.355 1.958.641 2.806.857.848.216 1.656.403 2.423.562.74.154 1.49.252 2.245.296.728.04 1.467.06 2.216.06a23.023 23.023 0 0 0 4.903-.504 12.625 12.625 0 0 0 4.018-1.565 7.705 7.705 0 0 0 2.689-2.776 8.099 8.099 0 0 0 .974-4.079 8.256 8.256 0 0 0-.502-3.041 6.9 6.9 0 0 0-1.388-2.215ZM147.332 59.882a3.826 3.826 0 0 0-2.038-.56 3.983 3.983 0 0 0-2.068.56 4.322 4.322 0 0 0-1.505 1.478 3.814 3.814 0 0 0-.563 2.037 3.972 3.972 0 0 0 .563 2.068 4.014 4.014 0 0 0 1.505 1.477 4.158 4.158 0 0 0 2.068.532 3.996 3.996 0 0 0 2.038-.532 3.883 3.883 0 0 0 1.449-1.477 4.158 4.158 0 0 0 .531-2.068 3.989 3.989 0 0 0-.531-2.037 4.184 4.184 0 0 0-1.449-1.478ZM142.162 102.986h6.027V72.26l-6.027.887v29.839ZM176.078 89.397a8.885 8.885 0 0 0-2.068-1.626 16.154 16.154 0 0 0-2.483-1.153 51.688 51.688 0 0 1-1.86-.62 32.707 32.707 0 0 0-1.833-.59 37.806 37.806 0 0 1-1.772-.562c-.536-.182-1.059-.4-1.565-.651a10.36 10.36 0 0 1-1.39-.886 3.855 3.855 0 0 1-1.003-1.124 2.836 2.836 0 0 1-.385-1.477 3.062 3.062 0 0 1 .414-1.624 3.349 3.349 0 0 1 1.241-1.152 6.68 6.68 0 0 1 1.98-.71 13.241 13.241 0 0 1 2.629-.236 19.138 19.138 0 0 1 3.102.266c.612.099 1.22.227 1.831.383.61.157 1.231.336 1.862.532.584.18 1.156.398 1.713.65l.414-4.785a28.315 28.315 0 0 0-2.216-.828 21.938 21.938 0 0 0-2.215-.591 17.704 17.704 0 0 0-2.216-.325c-.73-.06-1.448-.089-2.157-.089a19.474 19.474 0 0 0-4.845.562 12.18 12.18 0 0 0-3.811 1.654 7.512 7.512 0 0 0-2.511 2.777 8.444 8.444 0 0 0-.887 3.989 8.344 8.344 0 0 0 .474 2.924c.28.788.701 1.519 1.241 2.157a8.634 8.634 0 0 0 1.802 1.566c.698.458 1.44.844 2.216 1.152.432.158.885.315 1.359.472.474.157.937.304 1.388.443.452.14.895.277 1.329.414.434.136.857.274 1.27.413.414.139.818.267 1.213.385.528.187 1.042.414 1.536.679.433.23.84.507 1.211.828a3.02 3.02 0 0 1 1.034 2.333 2.956 2.956 0 0 1-.975 2.334 5.669 5.669 0 0 1-2.542 1.212c-1.095.242-2.215.36-3.337.354a16.6 16.6 0 0 1-2.098-.147 31.25 31.25 0 0 1-2.422-.414 35.844 35.844 0 0 1-2.601-.65 53.462 53.462 0 0 1-2.688-.856l.237 5.022a35.11 35.11 0 0 0 2.806.857c.848.216 1.656.403 2.423.562.74.154 1.491.252 2.245.296.728.04 1.467.06 2.216.06a23.01 23.01 0 0 0 4.903-.504 12.622 12.622 0 0 0 4.019-1.565 7.716 7.716 0 0 0 2.689-2.776 8.12 8.12 0 0 0 .974-4.079 8.298 8.298 0 0 0-.502-3.041 6.903 6.903 0 0 0-1.389-2.215ZM203.322 102.986h7.8l-14.333-16.15 14.037-13.985h-7.386L193.329 83.96h-2.179V58.375l-6.027.886v43.725h6.027V88.509h.099l12.073 14.477Z"/></svg>