<svg xmlns="http://www.w3.org/2000/svg" viewBox="0 0 101 24"><path fill="#0A2343" d="M0 19.003V5.005h4.593v13.998H0Zm10.843-11.77 2.641 11.77H8.457L5.303 5.005h2.82a2.655 2.655 0 0 1 1.764.64c.491.404.829.964.956 1.588Zm3.331 11.77V5.005h4.594v13.998h-4.594Zm8.063-8.675a2.736 2.736 0 0 1-1.409-.375 2.778 2.778 0 0 1-1.015-1.015 2.735 2.735 0 0 1-.375-1.41 2.685 2.685 0 0 1 .375-1.4 2.812 2.812 0 0 1 3.824-1.005c.415.244.761.59 1.005 1.005.251.424.38.908.375 1.4.005.495-.125.983-.375 1.41a2.8 2.8 0 0 1-1.005 1.015c-.424.251-.908.38-1.4.375Zm3.49 8.675V5.005h4.594v13.998h-4.594Zm10.409-6.348c.013.013.111.174.296.483.184.308.424.702.72 1.183a384.573 384.573 0 0 1 1.862 3.056c.289.48.617 1.022.986 1.626h-5.047l-.858-1.39c-.256-.414-.529-.86-.817-1.34-.29-.48-.576-.947-.858-1.4a71.148 71.148 0 0 1-.73-1.193 21.119 21.119 0 0 0-.424-.69 2.04 2.04 0 0 1-.334-.986c.019-.338.128-.665.315-.947.078-.131.223-.365.433-.7a216.7 216.7 0 0 0 1.598-2.603l.817-1.35.858-1.4H40l-3.904 6.369c-.12.189-.189.407-.197.63.013.236.095.463.236.652h.001Z"/><path fill="#114F9D" d="M53.84 12.44a3.715 3.715 0 0 0-.978-.723 7.557 7.557 0 0 0-1.181-.485 13.318 13.318 0 0 0-1.29-.337 27.629 27.629 0 0 1-.947-.238 4.318 4.318 0 0 1-.781-.287 2.574 2.574 0 0 1-.596-.396c-.169-.151-.3-.342-.38-.555a2.163 2.163 0 0 1-.128-.782c-.004-.277.039-.551.127-.813.08-.23.214-.437.39-.604.184-.17.391-.31.616-.415.258-.12.53-.2.81-.238a6.76 6.76 0 0 1 1.007-.07c.307.001.613.018.918.05.308.032.615.082.918.149.294.064.585.147.87.247.266.093.524.21.771.347l.274-1.743a4.828 4.828 0 0 0-.87-.357 11.575 11.575 0 0 0-.928-.238 9.153 9.153 0 0 0-.957-.148 9.868 9.868 0 0 0-.996-.05 8.206 8.206 0 0 0-2.051.238 4.611 4.611 0 0 0-1.592.733c-.442.322-.798.75-1.035 1.248a4.08 4.08 0 0 0-.361 1.782c-.011.476.065.95.224 1.397.14.375.357.716.635 1 .275.279.592.513.938.694.366.191.749.35 1.143.475.41.132.83.245 1.26.337.351.079.677.162.976.248.279.077.55.18.81.307.225.107.432.247.616.416.174.166.311.369.4.594.104.271.154.56.147.852.005.309-.041.617-.137.91-.085.255-.218.49-.39.694a1.882 1.882 0 0 1-.625.475c-.27.126-.556.213-.85.258-.359.056-.721.082-1.084.08a8.38 8.38 0 0 1-1.055-.07c-.364-.046-.73-.11-1.094-.189-.36-.077-.715-.173-1.064-.287a19.84 19.84 0 0 1-.987-.346l.254 1.96c.333.127.672.236 1.016.327.312.084.628.15.947.198.306.046.612.083.919.11.306.026.615.04.927.04.7.003 1.397-.07 2.08-.219a4.942 4.942 0 0 0 1.7-.713 3.339 3.339 0 0 0 1.133-1.297 4.439 4.439 0 0 0 .4-1.991 4.53 4.53 0 0 0-.224-1.506 2.937 2.937 0 0 0-.646-1.069ZM65.53 17.769a.881.881 0 0 1-.762-.317 1.723 1.723 0 0 1-.215-1.05l.039-4.08a4.826 4.826 0 0 0-.156-1.268 3.123 3.123 0 0 0-.47-1.011 2.664 2.664 0 0 0-.81-.733 4.12 4.12 0 0 0-1.181-.455 6.862 6.862 0 0 0-1.543-.159 9.53 9.53 0 0 0-1.231.08c-.386.049-.768.125-1.143.227-.348.096-.69.212-1.026.347l-.234 1.684a11.662 11.662 0 0 1 1.778-.495c.268-.052.538-.089.81-.11.267-.019.53-.029.791-.03.399-.008.796.039 1.182.14.282.071.54.214.752.416.189.196.324.438.391.703.084.327.123.663.117 1l-.002.497-2.283.157c-.78.022-1.55.197-2.266.515a3.258 3.258 0 0 0-1.338 1.1 2.584 2.584 0 0 0-.44 1.455 2.93 2.93 0 0 0 .343 1.397c.238.44.598.801 1.035 1.04a3.44 3.44 0 0 0 1.728.396 4.447 4.447 0 0 0 1.65-.277c.458-.182.876-.45 1.232-.793.135-.131.263-.27.384-.415.038.205.11.403.212.584.174.303.441.54.761.673.354.145.732.215 1.114.208.117 0 .23-.003.341-.01.109-.006.217-.023.323-.05l.283-.069c.076-.017.151-.04.225-.069l.214-1.327a1.714 1.714 0 0 1-.331.08c-.091.011-.183.018-.274.019Zm-3.253-.892c-.212.17-.44.316-.684.436a3.06 3.06 0 0 1-.761.258 4.27 4.27 0 0 1-.83.079 2.17 2.17 0 0 1-.928-.179 1.279 1.279 0 0 1-.576-.504 1.497 1.497 0 0 1-.196-.783c-.019-.33.07-.658.254-.931.213-.252.501-.426.82-.495A5.88 5.88 0 0 1 60.9 14.6h1.71l-.008 1.966c-.1.112-.208.217-.325.311ZM63.518 3.982h-2.11l-1.66 3.546h1.524l2.246-3.546ZM75.501 9.32a4.153 4.153 0 0 0-2.334-.624 5.886 5.886 0 0 0-1.445.188 6.234 6.234 0 0 0-1.74.748v-.916l-1.991.317v14.143h1.992V18.74l.04.018c.36.152.737.261 1.122.327.455.076.916.112 1.377.109.88.015 1.747-.21 2.51-.654a4.676 4.676 0 0 0 1.758-1.892 6.403 6.403 0 0 0 .654-3.02 6.233 6.233 0 0 0-.498-2.575 3.966 3.966 0 0 0-1.445-1.734Zm-.517 6.626a2.713 2.713 0 0 1-1.123 1.248 3.57 3.57 0 0 1-1.788.416 5.491 5.491 0 0 1-1.797-.297c-.094-.033-.195-.07-.293-.107v-6.251c.026-.012.053-.028.078-.04.287-.132.554-.245.801-.337a3.967 3.967 0 0 1 1.387-.258c.602-.02 1.2.113 1.739.386.47.26.84.676 1.044 1.179.249.643.365 1.33.343 2.02a4.782 4.782 0 0 1-.391 2.041ZM93.364 9.112a3.363 3.363 0 0 0-1.739-.416 4.518 4.518 0 0 0-1.543.268c-.503.182-.977.44-1.406.762a7.129 7.129 0 0 0-.693.594 2.473 2.473 0 0 0-1.007-1.188 3.408 3.408 0 0 0-1.758-.416c-.522 0-1.04.09-1.533.267a5.53 5.53 0 0 0-1.826 1.083V8.717l-1.993.298v10.003h1.993V11.48c.234-.156.48-.296.732-.419.31-.148.634-.265.967-.347a3.98 3.98 0 0 1 .938-.118c.29-.01.579.041.85.149.223.096.42.245.576.435.17.22.286.479.341.753.077.354.113.716.108 1.08v6.002h1.992v-6.419a8.112 8.112 0 0 0-.075-1.133c.226-.15.46-.287.7-.412.305-.155.626-.275.957-.356.314-.078.635-.118.958-.12a2.15 2.15 0 0 1 .84.15c.227.094.429.243.586.435.17.221.287.479.341.753.076.355.113.717.108 1.08v6.021h1.992v-6.437a5.829 5.829 0 0 0-.351-2.199 2.544 2.544 0 0 0-1.055-1.267ZM97.72 19.017h1.992v-10.3l-1.992.296v10.004ZM99.907 5.061a1.39 1.39 0 0 0-.478-.495 1.25 1.25 0 0 0-.674-.188 1.3 1.3 0 0 0-.684.188c-.203.12-.374.291-.498.495a1.298 1.298 0 0 0-.185.684c-.002.244.062.484.185.693a1.353 1.353 0 0 0 1.182.674 1.282 1.282 0 0 0 1.152-.674c.118-.211.178-.45.176-.693a1.355 1.355 0 0 0-.176-.684Z"/></svg>