<svg xmlns="http://www.w3.org/2000/svg" viewBox="0 0 57 24" fill="none"><path fill="#064E42" d="M0 0h57v24H0z"/><path fill="#fff" d="M6 17.997V6h4v11.998H6Zm9.244-10.089 2.264 10.09H13.2l-2.704-12h2.417a2.276 2.276 0 0 1 1.512.55c.422.346.66.826.82 1.36ZM18 17.998v-12h4v12h-4Zm7.01-7.436a2.381 2.381 0 0 1-2.078-1.191 2.345 2.345 0 0 1-.321-1.21 2.301 2.301 0 0 1 .321-1.199A2.41 2.41 0 0 1 26.21 6.1c.356.21.653.506.862.862a2.3 2.3 0 0 1 .321 1.2 2.35 2.35 0 0 1-.321 1.208 2.4 2.4 0 0 1-.862.87 2.3 2.3 0 0 1-1.2.322ZM28 17.997V6h4v11.998h-4Zm8.974-5.441c.01.011.095.15.253.414s.364.602.617 1.014a315.936 315.936 0 0 1 1.597 2.62c.247.41.529.876.845 1.393H35.96c-.27-.439-.516-.836-.736-1.19-.22-.356-.453-.739-.7-1.15-.248-.411-.493-.81-.736-1.2-.242-.39-.45-.73-.625-1.022-.175-.293-.296-.49-.363-.592a1.747 1.747 0 0 1-.287-.845c.016-.29.11-.57.27-.811.067-.113.191-.313.371-.6a182.106 182.106 0 0 0 1.37-2.23l.7-1.159.736-1.2h4.326l-3.346 5.459a1.08 1.08 0 0 0-.17.541c.012.202.083.396.204.558Z"/><path fill="#AAE4B9" d="M51.117 13.504a2.661 2.661 0 0 0-.54-.912 2.629 2.629 0 0 0-.888-.626 4.281 4.281 0 0 0-1.208-.32v-.051a4.19 4.19 0 0 0 1.386-.752c.366-.3.668-.671.887-1.09.208-.402.315-.849.313-1.301a2.34 2.34 0 0 0-.254-1.107 2.356 2.356 0 0 0-.743-.828A3.45 3.45 0 0 0 48.88 6a6.844 6.844 0 0 0-1.597-.168 7.704 7.704 0 0 0-1.056.076c-.362.05-.72.123-1.073.22a4.99 4.99 0 0 0-.98.38l.236 1.334c.248-.101.488-.188.719-.262a6.779 6.779 0 0 1 1.293-.279 5.35 5.35 0 0 1 .59-.033c.358-.006.715.028 1.066.101.253.051.494.152.709.296.175.123.313.293.397.49.09.223.133.461.127.701a1.96 1.96 0 0 1-.228.946 2.19 2.19 0 0 1-.642.727 3.16 3.16 0 0 1-.989.473 4.468 4.468 0 0 1-1.267.17h-.321l-.203 1.317h.541a7.58 7.58 0 0 1 1.487.127c.367.065.719.197 1.039.388.262.16.475.388.617.66.14.292.21.613.202.937.01.328-.054.654-.185.955a1.628 1.628 0 0 1-.567.659 2.71 2.71 0 0 1-.962.389 6.57 6.57 0 0 1-1.378.126c-.169 0-.335-.005-.498-.017a7.887 7.887 0 0 1-1.081-.144 16.038 16.038 0 0 1-.651-.143l-.22 1.436c.248.046.487.088.718.127.232.04.46.074.684.102a9.71 9.71 0 0 0 1.285.076 8.327 8.327 0 0 0 1.605-.144c.45-.084.885-.232 1.293-.44.356-.18.676-.423.946-.717a2.86 2.86 0 0 0 .574-.972c.135-.394.2-.809.195-1.225a3.468 3.468 0 0 0-.187-1.166Z"/></svg>