<svg xmlns="http://www.w3.org/2000/svg" viewBox="0 0 65 24"><path fill="#114F9D" d="M0 0h65v24H0z"/><path fill="#fff" d="M6.004 18V6.001h3.937V18H6.004Zm9.294-10.09L17.562 18h-4.309L10.55 6.001h2.416a2.276 2.276 0 0 1 1.513.55c.42.345.71.826.82 1.36ZM18.154 18V6.001h3.937V18h-3.937Zm6.91-7.436a2.382 2.382 0 0 1-2.4-2.4 2.303 2.303 0 0 1 .323-1.2 2.411 2.411 0 0 1 3.278-.862c.355.21.652.507.861.862.215.363.326.778.322 1.2a2.4 2.4 0 0 1-1.183 2.079 2.302 2.302 0 0 1-1.2.321ZM28.057 18V6.001h3.937V18h-3.937Zm8.922-5.442c.011.012.096.15.253.414.158.265.364.603.617 1.014a309.436 309.436 0 0 1 1.597 2.62c.247.411.529.876.845 1.394h-4.326c-.27-.44-.516-.837-.735-1.192-.22-.354-.453-.737-.7-1.149-.249-.41-.494-.81-.737-1.2-.242-.389-.45-.73-.625-1.022a18.04 18.04 0 0 0-.363-.591 1.748 1.748 0 0 1-.287-.845c.017-.29.11-.57.27-.812.068-.113.192-.313.372-.6s.391-.628.633-1.022c.243-.395.488-.797.736-1.209l.7-1.157.736-1.2h4.326l-3.346 5.458a1.079 1.079 0 0 0-.17.542c.012.201.082.395.203.557h.001Z"/><path fill="#B2CFF5" d="M53.145 7.556a3.016 3.016 0 0 0-.786-.82 3.773 3.773 0 0 0-1.14-.54A5.401 5.401 0 0 0 49.698 6H45V18h1.774v-4.31h3.06a3.99 3.99 0 0 0 1.976-.49 3.662 3.662 0 0 0 1.394-1.369 4.035 4.035 0 0 0 .516-2.078 4.929 4.929 0 0 0-.135-1.166 3.359 3.359 0 0 0-.44-1.03Zm-1.571 3.642a1.997 1.997 0 0 1-.955.786c-.477.18-.986.266-1.496.253h-2.349V7.472h2.586c.494-.019.985.076 1.436.278.36.174.653.458.837.811.195.397.29.835.279 1.276.02.477-.098.949-.338 1.36ZM58.097 6.001c-.27.136-.527.268-.77.398-.242.13-.478.25-.709.363a91.33 91.33 0 0 1-.702.338 8.192 8.192 0 0 1-.726.304c-.248.09-.513.18-.794.27l.371 1.437c.338-.102.645-.203.921-.305.27-.099.536-.211.795-.338.253-.124.507-.259.76-.405l.009-.005V18h1.757V6.002h-.912Z"/></svg>