<svg xmlns="http://www.w3.org/2000/svg" viewBox="0 0 80 28"><path fill="#78003D" d="M0 0h79.333v28H0z"/><path fill="#fff" d="M6.667 21V7.001h4.593V21H6.667ZM17.509 9.23 20.151 21h-5.027L11.97 7.001h2.82a2.655 2.655 0 0 1 1.764.641c.49.404.828.964.955 1.587ZM20.841 21V7.001h4.593V21h-4.593Zm8.063-8.675a2.738 2.738 0 0 1-1.41-.375 2.777 2.777 0 0 1-1.015-1.015 2.735 2.735 0 0 1-.375-1.41 2.686 2.686 0 0 1 .375-1.4 2.812 2.812 0 0 1 3.825-1.005c.415.244.76.59 1.005 1.005.25.424.38.908.375 1.4.004.495-.125.982-.375 1.41a2.8 2.8 0 0 1-1.006 1.015c-.423.251-.908.38-1.4.375ZM32.394 21V7.001h4.593V21h-4.593Zm10.409-6.349c.013.014.111.175.295.483.185.309.424.703.72 1.183a366.453 366.453 0 0 1 1.863 3.056c.288.48.617 1.023.986 1.627H41.62a744.12 744.12 0 0 0-.858-1.39c-.256-.414-.529-.861-.818-1.34-.289-.48-.575-.947-.858-1.4a71.148 71.148 0 0 1-.729-1.193 20.758 20.758 0 0 0-.424-.69 2.04 2.04 0 0 1-.335-.986c.02-.338.128-.665.315-.947.079-.132.224-.365.434-.7a210.216 210.216 0 0 0 1.598-2.603c.289-.48.561-.93.817-1.35L41.62 7h5.047l-3.904 6.368c-.12.19-.189.407-.197.632.013.235.095.461.236.65Z"/><path fill="#FB84C1" d="M61.52 8.814a3.513 3.513 0 0 0-.918-.957 4.415 4.415 0 0 0-1.333-.63A6.326 6.326 0 0 0 57.49 7H52v14h2.074v-5.028h3.575a4.67 4.67 0 0 0 2.311-.572 4.271 4.271 0 0 0 1.63-1.598c.416-.74.624-1.577.602-2.425a5.767 5.767 0 0 0-.158-1.36 3.916 3.916 0 0 0-.514-1.203Zm-1.837 4.25a2.33 2.33 0 0 1-1.115.916 4.609 4.609 0 0 1-1.749.296h-2.745v-5.56h3.022a3.77 3.77 0 0 1 1.679.324c.42.203.762.535.977.947.229.462.34.973.327 1.489a2.911 2.911 0 0 1-.396 1.587ZM66.215 19.304c.313-.268.634-.547.974-.848.474-.42.951-.878 1.432-1.37.48-.494.938-1.006 1.373-1.538.422-.515.808-1.059 1.155-1.627.325-.528.59-1.09.79-1.676.187-.54.284-1.105.287-1.676a3.635 3.635 0 0 0-.316-1.547 3.346 3.346 0 0 0-.929-1.184 4.238 4.238 0 0 0-1.53-.769 7.571 7.571 0 0 0-2.104-.266c-.46-.001-.92.038-1.373.118a7.153 7.153 0 0 0-1.264.346c-.39.146-.77.32-1.136.522l.257 1.715c.313-.209.647-.384.998-.522.38-.153.773-.272 1.175-.355.41-.086.826-.128 1.244-.128a4.19 4.19 0 0 1 1.294.177c.334.102.641.277.899.513.232.216.41.482.523.779.115.312.172.643.168.976a4.358 4.358 0 0 1-.336 1.626 8.657 8.657 0 0 1-.948 1.716 18.328 18.328 0 0 1-1.442 1.794 31.433 31.433 0 0 1-1.807 1.834c-.652.611-1.327 1.232-2.025 1.863L63.831 21h8.553l.237-1.696h-6.406Z"/></svg>