<svg xmlns="http://www.w3.org/2000/svg" viewBox="0 0 113 48" fill="currentColor"><path d="M0 13V1.003h3.937V13H0ZM9.294 2.912l2.264 10.09H7.25L4.545 1h2.417a2.276 2.276 0 0 1 1.513.55c.42.346.71.826.819 1.36Zm2.855 10.09V1h3.938v12h-3.938Zm6.912-7.436a2.382 2.382 0 0 1-2.4-2.4 2.301 2.301 0 0 1 .321-1.2 2.41 2.41 0 0 1 3.278-.862c.356.21.653.506.862.862.215.363.326.778.321 1.2a2.35 2.35 0 0 1-.321 1.208 2.4 2.4 0 0 1-.862.87 2.302 2.302 0 0 1-1.2.322ZM22.05 13V1h3.938v12h-3.937Zm8.923-5.442c.01.011.095.15.253.414s.364.602.617 1.014a313.36 313.36 0 0 1 1.597 2.62c.247.41.529.875.845 1.394H29.96c-.27-.44-.516-.837-.736-1.192-.22-.355-.453-.738-.7-1.15-.248-.41-.493-.81-.736-1.2-.242-.388-.45-.729-.625-1.021-.175-.293-.296-.49-.363-.592a1.747 1.747 0 0 1-.287-.845c.016-.29.11-.57.27-.811.067-.113.191-.313.371-.6a182.106 182.106 0 0 0 1.37-2.23l.7-1.159.736-1.2h4.326L30.94 6.46a1.08 1.08 0 0 0-.17.541c.012.202.082.396.203.558ZM9.098 18.145H6.989l-4.583 5.28h-.63v-5.28H.007v11.978h1.77v-5.416h.06L6.82 30.14l2.412-.016-5.72-5.939 5.585-6.039ZM14.108 21.46a3.316 3.316 0 0 0-.894.388 4.4 4.4 0 0 0-.793.633c-.04.04-.078.084-.118.126V21.35l-1.72.253v8.52h1.72v-6.374a4.381 4.381 0 0 1 .92-.493 5.85 5.85 0 0 1 .53-.177 3.622 3.622 0 0 1 1.182-.126l.202-1.586a3.211 3.211 0 0 0-1.029.093ZM16.706 30.123h1.72V21.35l-1.72.253v8.52ZM17.01 19.832c.18.101.383.154.59.152.204.002.405-.05.582-.152.173-.1.316-.246.413-.422.101-.18.154-.384.152-.59a1.14 1.14 0 0 0-.152-.582 1.19 1.19 0 0 0-.413-.422 1.092 1.092 0 0 0-.582-.16 1.135 1.135 0 0 0-.59.16 1.236 1.236 0 0 0-.43.422 1.089 1.089 0 0 0-.16.582 1.13 1.13 0 0 0 .16.59c.103.177.251.322.43.422ZM25.445 22.936c.275-.006.549.037.81.127.214.077.406.207.556.38.155.185.265.405.32.64.073.298.107.604.102.911v5.129h1.72V24.64a4.676 4.676 0 0 0-.32-1.873 2.21 2.21 0 0 0-.962-1.08 3.319 3.319 0 0 0-1.62-.354c-.489.001-.975.078-1.441.228-.48.153-.938.372-1.358.65-.163.107-.32.225-.473.345V21.35l-1.72.253v8.52h1.72v-6.408c.167-.097.338-.186.515-.264.237-.105.479-.198.725-.279a4.85 4.85 0 0 1 .726-.177c.23-.038.465-.058.7-.059ZM37.845 33.37c.615-.286.452-.75.8-1.333.34-.598.511-1.277.497-1.965v-8.739l-1.65.425c-.19-.08-.386-.15-.585-.205a6.09 6.09 0 0 0-.784-.16 6.576 6.576 0 0 0-.911-.06 4.08 4.08 0 0 0-1.603.32 4.24 4.24 0 0 0-1.358.92 4.162 4.162 0 0 0-.936 1.485 5.686 5.686 0 0 0-.338 2.033 5.278 5.278 0 0 0 .43 2.218 3.272 3.272 0 0 0 1.257 1.45 3.724 3.724 0 0 0 2.008.515 4.866 4.866 0 0 0 1.805-.354c.343-.14.666-.323.961-.546v.462a3.56 3.56 0 0 1-.16 1.122 2.042 2.042 0 0 1-.489.81c-.242.232-.537.4-.86.489-.42.115-.855.169-1.29.16-.347 0-.694-.02-1.038-.06a7.395 7.395 0 0 1-1.071-.202 8.209 8.209 0 0 1-1.064-.362l.863 1.484c.31.126.629.23.953.312.342.087.688.151 1.037.194.37.046.742.068 1.114.068a5.442 5.442 0 0 0 2.412-.481Zm-.626-5.06a5.336 5.336 0 0 1-.65.32c-.196.08-.4.145-.607.194a2.758 2.758 0 0 1-.615.067 2.932 2.932 0 0 1-1.46-.329 1.974 1.974 0 0 1-.86-.995 4.484 4.484 0 0 1-.278-1.712c-.008-.466.058-.93.194-1.375.11-.366.3-.703.557-.987a2.43 2.43 0 0 1 .893-.6 3.249 3.249 0 0 1 1.207-.21c.265 0 .53.022.793.067.268.048.533.113.793.195.082.025.168.06.253.091v5.144c-.075.044-.15.09-.22.13ZM43.478 25.99h.028l3.447 4.133h2.226l-4.092-4.611 4.008-3.993h-2.109L44.1 24.691h-.622v-7.304l-1.72.253v12.483h1.72V25.99ZM55.441 29.027a1.6 1.6 0 0 0 .183.497c.15.258.381.46.658.573.305.123.632.183.961.177.101 0 .2-.002.295-.008.094-.006.188-.02.279-.042l.245-.06a1.39 1.39 0 0 0 .194-.058l.185-1.13c-.093.031-.19.054-.287.067-.078.01-.157.016-.236.017a.77.77 0 0 1-.658-.27 1.453 1.453 0 0 1-.185-.894l.033-3.475a4.051 4.051 0 0 0-.135-1.08c-.082-.309-.219-.6-.404-.86a2.285 2.285 0 0 0-.7-.625 3.572 3.572 0 0 0-1.021-.388 6 6 0 0 0-1.333-.135c-.355 0-.71.023-1.063.068a7.3 7.3 0 0 0-.987.194c-.3.082-.596.18-.885.295l-.203 1.434a9.915 9.915 0 0 1 1.535-.422c.232-.044.466-.075.7-.093.231-.016.459-.025.684-.025.344-.007.687.033 1.02.118.243.061.467.183.65.354.163.168.279.374.337.6.072.278.106.564.101.851l-.002.424-1.972.133a5.237 5.237 0 0 0-1.956.439 2.802 2.802 0 0 0-1.156.936 2.18 2.18 0 0 0-.38 1.24c-.003.415.099.824.296 1.19.206.374.517.682.894.885.46.24.974.355 1.493.337.485.011.969-.069 1.425-.236a3.29 3.29 0 0 0 1.063-.675 4.58 4.58 0 0 0 .332-.353Zm-1.58-.136a3.736 3.736 0 0 1-.717.068 1.903 1.903 0 0 1-.801-.152c-.206-.09-.38-.24-.498-.43a1.262 1.262 0 0 1-.169-.667c-.016-.281.061-.56.22-.793.183-.214.432-.362.708-.421a5.13 5.13 0 0 1 1.316-.135h1.477l-.008 1.674c-.085.096-.18.185-.28.266-.184.144-.382.269-.591.37a2.67 2.67 0 0 1-.657.22ZM65.636 28.909c.193-.357.29-.759.278-1.164a2.362 2.362 0 0 0-.143-.869 1.978 1.978 0 0 0-.397-.633 2.535 2.535 0 0 0-.59-.464 4.577 4.577 0 0 0-.709-.328 14.7 14.7 0 0 1-.53-.178 9.446 9.446 0 0 0-.524-.168c-.174-.051-.343-.104-.506-.16a3.718 3.718 0 0 1-.447-.186 2.939 2.939 0 0 1-.396-.253 1.109 1.109 0 0 1-.287-.32.813.813 0 0 1-.11-.422.871.871 0 0 1 .118-.464.96.96 0 0 1 .354-.33c.177-.096.368-.165.566-.202.247-.047.498-.07.75-.067a5.292 5.292 0 0 1 .886.076c.174.028.348.064.523.11.174.044.352.095.532.151.166.052.33.113.489.186l.118-1.367a8.025 8.025 0 0 0-.633-.236 6.279 6.279 0 0 0-.632-.169 5.052 5.052 0 0 0-.633-.092 7.62 7.62 0 0 0-.616-.026c-.466-.005-.93.05-1.383.16a3.485 3.485 0 0 0-1.088.473c-.302.2-.549.472-.717.793a2.414 2.414 0 0 0-.253 1.138c-.006.285.04.567.135.835.08.225.2.434.354.616.15.172.323.323.514.447.2.13.412.241.633.33a15.548 15.548 0 0 0 .784.26 30.072 30.072 0 0 1 .743.237c.118.04.233.076.345.11.151.053.298.118.44.194.123.065.239.144.345.236a.871.871 0 0 1 .295.666.842.842 0 0 1-.278.666 1.619 1.619 0 0 1-.726.346c-.313.07-.632.103-.953.101a4.74 4.74 0 0 1-.599-.042 8.575 8.575 0 0 1-.691-.118 10.75 10.75 0 0 1-.743-.185 15.02 15.02 0 0 1-.767-.245l.068 1.434c.292.101.559.183.8.245.242.062.473.115.692.16.212.044.426.072.641.084.209.011.42.017.633.017.47.002.94-.046 1.4-.143a3.62 3.62 0 0 0 1.147-.447c.32-.195.584-.468.768-.793ZM72.418 28.765l-.287.05a2.527 2.527 0 0 1-.279.034c-.09.006-.174.008-.253.008a1.702 1.702 0 0 1-.75-.151 1.086 1.086 0 0 1-.481-.447 1.42 1.42 0 0 1-.169-.718V22.87h2.379l.185-1.35H70.2v-2.665l-1.72.607v2.058h-1.3l-.185 1.35h1.484v5.027c-.007.335.044.67.152.987.087.25.222.483.397.683.16.178.355.322.573.422a2.9 2.9 0 0 0 .7.219c.24.044.482.067.725.067.18 0 .358-.005.532-.017a5.616 5.616 0 0 0 .894-.126c.13-.028.239-.053.33-.076l.1-1.4a1.24 1.24 0 0 1-.202.059 7.258 7.258 0 0 1-.261.05ZM76.146 17.816a1.092 1.092 0 0 0-.582-.16 1.134 1.134 0 0 0-.59.16 1.237 1.237 0 0 0-.43.422 1.09 1.09 0 0 0-.16.582c-.002.208.053.412.16.59.103.177.252.322.43.422.18.101.384.154.59.152.205.002.405-.05.582-.152.174-.1.317-.246.414-.422.101-.18.153-.384.152-.59a1.138 1.138 0 0 0-.152-.582 1.189 1.189 0 0 0-.414-.422ZM74.67 30.123h1.72V21.35l-1.72.253v8.52ZM85.635 21.688a3.318 3.318 0 0 0-1.62-.355c-.49.001-.976.078-1.442.228-.48.153-.937.372-1.358.65a6.72 6.72 0 0 0-.472.346V21.35l-1.721.253v8.52h1.72v-6.408c.167-.097.339-.186.515-.264.237-.105.48-.198.726-.279.236-.077.479-.137.725-.177a4.36 4.36 0 0 1 .7-.059c.276-.006.55.037.81.127.215.077.406.207.556.38.155.185.265.405.321.64.072.298.106.605.101.911v5.129h1.721V24.64a4.674 4.674 0 0 0-.32-1.873 2.209 2.209 0 0 0-.962-1.08ZM94.872 21.553a6.077 6.077 0 0 0-.785-.16 6.576 6.576 0 0 0-.91-.06 4.078 4.078 0 0 0-1.603.32c-.509.216-.97.528-1.358.92a4.162 4.162 0 0 0-.937 1.485 5.693 5.693 0 0 0-.337 2.033 5.277 5.277 0 0 0 .43 2.218 3.27 3.27 0 0 0 1.257 1.45 3.724 3.724 0 0 0 2.007.515 4.864 4.864 0 0 0 1.805-.354c.343-.14.666-.323.962-.546v.462c.007.38-.047.759-.16 1.122a2.037 2.037 0 0 1-.49.81c-.241.232-.537.4-.86.489-.42.115-.855.169-1.29.16-.347 0-.694-.02-1.038-.06a7.395 7.395 0 0 1-1.071-.202 8.22 8.22 0 0 1-1.063-.362l.186 1.484c.31.126.628.23.953.312.341.087.688.151 1.037.194.37.046.741.068 1.114.068a5.441 5.441 0 0 0 2.412-.481 3.385 3.385 0 0 0 1.476-1.333c.34-.598.511-1.277.498-1.965v-8.739l-1.65.425c-.19-.08-.386-.15-.585-.205Zm.311 6.756a5.336 5.336 0 0 1-.649.32c-.197.081-.4.146-.607.195a2.76 2.76 0 0 1-.616.067 2.932 2.932 0 0 1-1.459-.329 1.974 1.974 0 0 1-.86-.995 4.484 4.484 0 0 1-.279-1.712c-.007-.466.058-.93.194-1.375.11-.366.3-.703.557-.987a2.43 2.43 0 0 1 .894-.6 3.25 3.25 0 0 1 1.206-.21c.266 0 .531.022.793.067.268.048.533.113.793.195.083.025.169.06.253.091v5.144c-.075.044-.15.09-.22.13ZM105.051 26.242a2.514 2.514 0 0 0-.59-.463 4.518 4.518 0 0 0-.709-.33c-.18-.056-.357-.115-.531-.177a9.362 9.362 0 0 0-.523-.168c-.174-.05-.343-.104-.506-.16a3.708 3.708 0 0 1-.447-.186 2.986 2.986 0 0 1-.397-.253 1.102 1.102 0 0 1-.286-.32.81.81 0 0 1-.11-.422.877.877 0 0 1 .118-.464.953.953 0 0 1 .355-.33 1.9 1.9 0 0 1 .564-.202c.248-.047.499-.07.751-.067a5.324 5.324 0 0 1 .886.076c.174.028.349.064.523.11.174.044.351.095.531.151.167.052.331.114.489.186l.119-1.367a8.017 8.017 0 0 0-.633-.236 6.277 6.277 0 0 0-.632-.169 5.077 5.077 0 0 0-.633-.092 7.617 7.617 0 0 0-.616-.026 5.557 5.557 0 0 0-1.383.16 3.496 3.496 0 0 0-1.089.473c-.301.2-.548.473-.716.793a2.41 2.41 0 0 0-.253 1.139c-.005.284.04.567.135.835.08.224.2.433.354.615.15.172.323.323.515.448.199.13.411.24.632.328a15.558 15.558 0 0 0 .785.262 35.311 35.311 0 0 1 .742.236c.118.04.233.076.346.11.151.053.297.118.438.194.124.065.24.145.346.236a.857.857 0 0 1 .296.666.838.838 0 0 1-.279.666 1.619 1.619 0 0 1-.725.346 4.317 4.317 0 0 1-.953.102 4.728 4.728 0 0 1-.599-.043 8.523 8.523 0 0 1-.692-.118 10.743 10.743 0 0 1-.742-.185 15.077 15.077 0 0 1-.768-.245l.068 1.434c.292.101.559.183.801.245s.472.115.692.16c.211.044.425.072.641.084.208.011.419.017.632.017.471.003.94-.045 1.4-.143a3.623 3.623 0 0 0 1.148-.447c.319-.195.583-.468.767-.793.193-.357.289-.758.278-1.164a2.34 2.34 0 0 0-.143-.869 1.966 1.966 0 0 0-.397-.633ZM107.379 24.64l-.118 1.383h4.774l.118-1.383h-4.774ZM6.674 39.031a4.628 4.628 0 0 0-2.286-.54 4.608 4.608 0 0 0-2.303.557A3.889 3.889 0 0 0 .55 40.617a4.958 4.958 0 0 0-.548 2.396A5.173 5.173 0 0 0 .516 45.4a3.52 3.52 0 0 0 1.476 1.526 4.59 4.59 0 0 0 2.227.523 4.752 4.752 0 0 0 2.329-.556 3.93 3.93 0 0 0 1.577-1.586 4.973 4.973 0 0 0 .565-2.43 4.886 4.886 0 0 0-.523-2.319 3.685 3.685 0 0 0-1.493-1.527Zm-.101 5.652c-.19.438-.511.806-.92 1.054-.41.235-.876.354-1.35.346a2.397 2.397 0 0 1-1.315-.354 2.375 2.375 0 0 1-.877-1.063 4.259 4.259 0 0 1-.32-1.755c-.02-.584.089-1.166.32-1.704.189-.422.504-.776.902-1.012.426-.234.907-.35 1.392-.337.38-.01.756.062 1.105.21.306.139.573.35.776.617.218.289.375.619.464.97.106.41.157.832.152 1.256a4.204 4.204 0 0 1-.33 1.772ZM14.307 38.618a3.314 3.314 0 0 0-.894.388c-.287.18-.554.392-.793.633-.04.04-.078.084-.118.126v-1.257l-1.72.253v8.52h1.72v-6.374a4.385 4.385 0 0 1 .92-.493c.174-.067.35-.126.531-.177a3.618 3.618 0 0 1 1.181-.126l.202-1.586a3.208 3.208 0 0 0-1.029.093ZM24.244 38.677h-2.11l-2.886 3.172h-.622v-7.304l-1.72.253V47.28h1.72v-4.133h.028l3.447 4.133h2.227l-4.092-4.61 4.008-3.994ZM32.29 39.765a3.06 3.06 0 0 0-1.24-.953 4.326 4.326 0 0 0-1.712-.32 4.195 4.195 0 0 0-1.72.337 3.677 3.677 0 0 0-1.291.944 4.143 4.143 0 0 0-.81 1.46 6.096 6.096 0 0 0-.278 1.898c-.024.813.147 1.62.497 2.353.32.636.839 1.15 1.477 1.468a5.245 5.245 0 0 0 2.395.497c.398.004.795-.022 1.19-.076a5.704 5.704 0 0 0 1.88-.615l.119-1.3c-.214.08-.431.158-.65.237a8.12 8.12 0 0 1-.683.21c-.238.063-.48.108-.726.136a6.553 6.553 0 0 1-.742.042 5.32 5.32 0 0 1-1.316-.144 2.162 2.162 0 0 1-.936-.489 2.136 2.136 0 0 1-.574-.936 4.288 4.288 0 0 1-.184-1.114h6.097a6.463 6.463 0 0 0-.093-2.091 3.942 3.942 0 0 0-.7-1.544Zm-4.25.405a2.39 2.39 0 0 1 1.315-.346c.463-.023.921.11 1.299.38.336.268.576.638.683 1.054.084.308.126.626.123.945h-4.436c.03-.337.103-.668.214-.987.144-.428.426-.796.801-1.046ZM40.523 43.4a2.535 2.535 0 0 0-.59-.463 4.567 4.567 0 0 0-.71-.33c-.18-.056-.356-.115-.53-.176a9.482 9.482 0 0 0-.524-.17c-.174-.05-.343-.103-.506-.16a3.685 3.685 0 0 1-.447-.185 2.93 2.93 0 0 1-.397-.253 1.105 1.105 0 0 1-.286-.32.81.81 0 0 1-.11-.422.874.874 0 0 1 .118-.464.961.961 0 0 1 .355-.33c.176-.096.367-.164.565-.202.247-.047.498-.07.75-.067a5.333 5.333 0 0 1 .886.076c.175.028.348.065.523.11.175.044.351.095.531.151.167.051.33.114.49.186l.118-1.367a7.937 7.937 0 0 0-.633-.236 6.217 6.217 0 0 0-.633-.169 5.037 5.037 0 0 0-.632-.092 7.611 7.611 0 0 0-.616-.026c-.466-.004-.93.05-1.383.16a3.487 3.487 0 0 0-1.088.473c-.302.2-.549.472-.717.793a2.414 2.414 0 0 0-.253 1.139c-.006.284.04.567.135.835.08.225.2.433.354.615.15.172.323.323.514.447.2.131.412.241.633.33a14.38 14.38 0 0 0 .785.26 36.916 36.916 0 0 1 .742.237c.118.04.233.076.346.11.15.053.297.118.438.194.124.065.24.145.346.236a.867.867 0 0 1 .295.666.841.841 0 0 1-.278.667 1.62 1.62 0 0 1-.725.346 4.315 4.315 0 0 1-.954.1c-.2 0-.4-.015-.599-.041a8.552 8.552 0 0 1-.691-.119c-.242-.05-.49-.112-.742-.185a15.12 15.12 0 0 1-.768-.245l.067 1.434c.293.101.56.183.802.245s.472.115.691.16c.212.044.426.072.641.084.208.011.42.017.633.017.47.003.94-.045 1.4-.143a3.618 3.618 0 0 0 1.147-.447c.32-.195.584-.468.768-.793.193-.357.289-.758.278-1.164a2.36 2.36 0 0 0-.143-.869 1.978 1.978 0 0 0-.396-.633ZM47.566 45.923l-.287.05a2.528 2.528 0 0 1-.278.034c-.09.006-.175.008-.253.008a1.703 1.703 0 0 1-.75-.151 1.088 1.088 0 0 1-.482-.447 1.423 1.423 0 0 1-.168-.718v-4.672h2.378l.186-1.35h-2.564v-2.665l-1.721.607v2.058h-1.3l-.185 1.35h1.485v5.027c-.008.335.044.67.152.987.086.25.221.483.396.683.16.178.356.322.574.422.223.102.458.176.7.219.239.044.482.067.725.067.18 0 .357-.005.532-.017a5.472 5.472 0 0 0 .893-.126c.13-.028.24-.053.33-.076l.1-1.4a1.261 1.261 0 0 1-.202.059 5.567 5.567 0 0 1-.261.05ZM53.343 38.618a3.316 3.316 0 0 0-.894.388 4.4 4.4 0 0 0-.792.633c-.04.04-.079.084-.118.126v-1.257l-1.721.253v8.52h1.72v-6.374a4.411 4.411 0 0 1 .92-.493c.174-.067.351-.126.531-.177a3.633 3.633 0 0 1 1.181-.126l.203-1.586a3.211 3.211 0 0 0-1.03.093ZM62.47 39.765a3.062 3.062 0 0 0-1.24-.953 4.327 4.327 0 0 0-1.712-.32 4.195 4.195 0 0 0-1.72.337 3.677 3.677 0 0 0-1.291.944 4.134 4.134 0 0 0-.81 1.46 6.098 6.098 0 0 0-.279 1.898c-.023.813.147 1.62.498 2.353.32.636.839 1.15 1.476 1.468a5.244 5.244 0 0 0 2.396.497 8.24 8.24 0 0 0 1.19-.076 5.69 5.69 0 0 0 .97-.227c.313-.106.617-.235.91-.388l.118-1.3c-.214.08-.43.158-.65.237a8.12 8.12 0 0 1-.682.21c-.239.063-.481.108-.726.136a6.552 6.552 0 0 1-.742.042 5.32 5.32 0 0 1-1.316-.144 2.163 2.163 0 0 1-.936-.489 2.137 2.137 0 0 1-.574-.936 4.284 4.284 0 0 1-.184-1.114h6.097a6.455 6.455 0 0 0-.093-2.091 3.94 3.94 0 0 0-.7-1.544Zm-4.251.405a2.39 2.39 0 0 1 1.316-.346c.463-.023.92.11 1.299.38.336.268.575.638.683 1.054.084.308.126.626.123.945h-4.437c.032-.337.103-.668.214-.987.145-.428.426-.796.802-1.046ZM69.833 45.923l-.286.05a2.527 2.527 0 0 1-.279.034c-.09.006-.174.008-.253.008a1.702 1.702 0 0 1-.75-.151 1.086 1.086 0 0 1-.481-.447 1.42 1.42 0 0 1-.169-.718v-4.672h2.379l.186-1.35h-2.565v-2.665l-1.72.607v2.058h-1.3l-.185 1.35h1.484v5.027c-.007.335.044.67.152.987.087.25.222.483.397.683.16.178.356.322.573.422.223.102.459.176.7.219.24.044.482.067.726.067.18 0 .357-.005.531-.017a5.469 5.469 0 0 0 .894-.126c.13-.028.24-.053.33-.076l.1-1.4a1.25 1.25 0 0 1-.202.059c-.079.017-.166.034-.262.05Z"/></svg>