<svg xmlns="http://www.w3.org/2000/svg" viewBox="0 0 75 24"><path fill="#015F88" d="M0 0h75v24H0z"/><path fill="#fff" d="M6.004 18V6.001h3.937V18H6.004Zm9.294-10.09L17.562 18h-4.309L10.55 6.001h2.416a2.276 2.276 0 0 1 1.513.55c.42.345.71.826.82 1.36ZM18.154 18V6.001h3.937V18h-3.937Zm6.91-7.436a2.383 2.383 0 0 1-2.4-2.4 2.303 2.303 0 0 1 .323-1.2 2.411 2.411 0 0 1 3.278-.861c.355.209.652.506.861.861.215.363.326.778.322 1.2a2.4 2.4 0 0 1-1.183 2.079 2.302 2.302 0 0 1-1.2.321ZM28.057 18V6.001h3.937V18h-3.937Zm8.922-5.442c.011.012.096.15.253.414.158.265.364.603.617 1.014a315.936 315.936 0 0 1 1.597 2.62c.247.411.529.876.845 1.394h-4.326c-.27-.44-.516-.837-.735-1.191-.22-.355-.453-.738-.7-1.15-.249-.41-.494-.81-.737-1.2-.242-.389-.45-.73-.625-1.022-.174-.293-.296-.49-.363-.591a1.748 1.748 0 0 1-.287-.845c.017-.29.11-.57.27-.812.068-.113.192-.313.372-.6s.391-.628.633-1.022c.243-.395.488-.797.736-1.209l.7-1.157.736-1.2h4.326l-3.346 5.458a1.08 1.08 0 0 0-.17.542c.012.201.082.395.203.557h.001Z"/><path fill="#85E6D6" d="M52.996 7.555a3.016 3.016 0 0 0-.785-.82 3.763 3.763 0 0 0-1.139-.54A5.387 5.387 0 0 0 49.553 6h-4.691v11.998h1.771V13.69h3.055c.69.01 1.37-.158 1.975-.49a3.653 3.653 0 0 0 1.392-1.369 4.041 4.041 0 0 0 .515-2.078 4.942 4.942 0 0 0-.135-1.167 3.372 3.372 0 0 0-.439-1.03Zm-1.57 3.642c-.226.356-.56.632-.953.786-.477.18-.984.267-1.494.254h-2.346V7.47h2.583c.493-.019.984.077 1.434.279.359.173.651.458.836.811.195.396.29.834.278 1.276a2.5 2.5 0 0 1-.337 1.36ZM57.173 6.398c-.242.13-.478.25-.709.363l-.7.338a8.138 8.138 0 0 1-.726.304c-.247.09-.512.18-.793.27l.371 1.437c.338-.102.644-.203.92-.304a8.28 8.28 0 0 0 .793-.338c.254-.124.507-.259.76-.406l.008-.005V18h1.755V6.001h-.911c-.27.135-.526.267-.768.397ZM65.721 11.34V7.928h-1.485v3.414H60.81v1.335h3.426v3.397h1.485v-3.397h3.426V11.34h-3.426Z"/></svg>