<svg xmlns="http://www.w3.org/2000/svg" viewBox="0 0 358 84"><path fill="#1767CE" d="M0 0h358v84H0z"/><path fill="#fff" d="M20 63V21.004h13.78V63H20Zm32.528-35.312L60.453 63h-15.08l-9.464-41.996h8.459a7.965 7.965 0 0 1 5.293 1.922 8.31 8.31 0 0 1 2.867 4.762ZM62.523 63V21.004h13.78V63h-13.78Zm24.189-26.026a8.213 8.213 0 0 1-4.228-1.124 8.336 8.336 0 0 1-3.046-3.046 8.206 8.206 0 0 1-1.125-4.229 8.056 8.056 0 0 1 1.125-4.2 8.437 8.437 0 0 1 3.046-3.016 8.233 8.233 0 0 1 4.228-1.124 8.083 8.083 0 0 1 4.199 1.124 8.504 8.504 0 0 1 3.016 3.016 8.075 8.075 0 0 1 1.125 4.2 8.226 8.226 0 0 1-1.125 4.23 8.4 8.4 0 0 1-3.016 3.045 8.059 8.059 0 0 1-4.201 1.124h.002ZM97.18 63V21.004h13.781V63H97.181Zm31.227-19.046c.039.04.334.524.887 1.449.553.925 1.272 2.108 2.159 3.549a1143.28 1143.28 0 0 1 5.589 9.168A854.89 854.89 0 0 0 140 63h-15.141c-.947-1.538-1.804-2.928-2.573-4.17a388.795 388.795 0 0 1-2.453-4.022 355.984 355.984 0 0 0-2.574-4.2 210.645 210.645 0 0 1-2.188-3.578 62.13 62.13 0 0 0-1.272-2.07 6.127 6.127 0 0 1-1.005-2.958 5.745 5.745 0 0 1 .946-2.84c.236-.394.67-1.094 1.301-2.1.631-1.006 1.37-2.198 2.218-3.578.847-1.38 1.706-2.79 2.574-4.23.869-1.439 1.686-2.79 2.453-4.052.77-1.26 1.628-2.66 2.573-4.2H140l-11.711 19.106a3.773 3.773 0 0 0-.592 1.894c.039.706.286 1.385.709 1.952h.002Z"/><path fill="#D4EEFC" d="M189.413 21.189H156v5.2h13.614v36.755h6.242V26.39h13.556l.001-5.2ZM201.601 32.8a11.768 11.768 0 0 0-3.151 1.36 15.522 15.522 0 0 0-2.794 2.216c-.141.14-.278.295-.417.442v-4.401l-6.064.886v29.842h6.064V40.82a15.281 15.281 0 0 1 3.24-1.725 20.493 20.493 0 0 1 1.873-.62c.653-.181 1.319-.31 1.992-.385.721-.08 1.446-.1 2.17-.06l.714-5.554a11.408 11.408 0 0 0-3.627.325ZM235.728 59.421a2.709 2.709 0 0 1-2.319-.945 5.052 5.052 0 0 1-.654-3.132l.119-12.173a14.118 14.118 0 0 0-.476-3.782 9.247 9.247 0 0 0-1.427-3.014 8.028 8.028 0 0 0-2.467-2.186 12.642 12.642 0 0 0-3.597-1.36 21.346 21.346 0 0 0-4.697-.471c-1.252-.001-2.503.078-3.744.235a25.84 25.84 0 0 0-3.479.68 29.04 29.04 0 0 0-3.121 1.034l-.714 5.023a35.145 35.145 0 0 1 5.41-1.478 21.585 21.585 0 0 1 2.467-.324c.812-.06 1.615-.09 2.409-.09a13.38 13.38 0 0 1 3.597.414c.857.214 1.644.64 2.288 1.241a4.666 4.666 0 0 1 1.189 2.098c.255.974.375 1.979.358 2.985l-.007 1.477-6.95.468a18.577 18.577 0 0 0-6.897 1.537 9.87 9.87 0 0 0-4.072 3.28 7.6 7.6 0 0 0-1.338 4.343 8.611 8.611 0 0 0 1.04 4.166 7.81 7.81 0 0 0 3.151 3.102 10.651 10.651 0 0 0 5.262 1.182 13.77 13.77 0 0 0 5.025-.827 11.591 11.591 0 0 0 3.745-2.364c.411-.392.801-.805 1.169-1.238.116.612.333 1.2.644 1.74a4.778 4.778 0 0 0 2.318 2.01c1.077.43 2.229.64 3.389.62.357 0 .704-.01 1.042-.03.33-.019.658-.068.98-.148.317-.078.603-.147.862-.206a4.77 4.77 0 0 0 .684-.207l.654-3.96a5.32 5.32 0 0 1-1.011.237c-.276.039-.554.06-.832.063Zm-8.911-3.59a7.96 7.96 0 0 1-.991.931c-.645.506-1.343.942-2.081 1.3a9.4 9.4 0 0 1-2.318.768c-.833.16-1.679.24-2.527.237a6.75 6.75 0 0 1-2.825-.532 3.87 3.87 0 0 1-1.753-1.507 4.385 4.385 0 0 1-.594-2.334 4.45 4.45 0 0 1 .773-2.778 4.545 4.545 0 0 1 2.497-1.477 18.228 18.228 0 0 1 4.637-.473h5.206l-.024 5.865ZM258.111 19.003a19.509 19.509 0 0 0-1.873-.267 21.817 21.817 0 0 0-2.021-.088 12.04 12.04 0 0 0-3.804.59 8.255 8.255 0 0 0-3.122 1.862 8.672 8.672 0 0 0-2.081 3.162 12.3 12.3 0 0 0-.743 4.49v4.255h-4.459v4.61h4.459v25.528h6.064V37.615h8.324v-4.609h-8.324v-4.904a5.498 5.498 0 0 1 .328-1.98 3.743 3.743 0 0 1 .92-1.418 3.63 3.63 0 0 1 1.517-.827 7.412 7.412 0 0 1 2.05-.266c.477 0 .931.02 1.369.059.438.038.861.098 1.278.177.417.079.811.158 1.189.236.336.067.664.166.981.296l-.238-4.905a14.39 14.39 0 0 0-1.814-.473ZM264.739 63.145h6.064V32.417l-6.064.886v29.842ZM269.942 20.036a3.873 3.873 0 0 0-2.052-.561 4.018 4.018 0 0 0-2.081.561c-.62.361-1.14.868-1.516 1.477a3.802 3.802 0 0 0-.564 2.04 3.946 3.946 0 0 0 .564 2.067 4.027 4.027 0 0 0 1.516 1.478 4.19 4.19 0 0 0 2.081.531 4.038 4.038 0 0 0 2.052-.531 3.876 3.876 0 0 0 1.456-1.478 4.12 4.12 0 0 0 .535-2.068 3.967 3.967 0 0 0-.535-2.039 4.188 4.188 0 0 0-1.456-1.477ZM305.94 33.007h-7.431l-10.174 11.11h-2.193V18.529l-6.064.887v43.728h6.064V48.667h.1l12.147 14.477h7.848l-14.422-16.152 14.125-13.985ZM323.028 46.837l14.125-13.985h-7.431l-10.174 11.11h-2.193V18.374l-6.064.886V62.99h6.064V48.512h.099l12.148 14.478h7.848l-14.422-16.153Z"/></svg>