<svg xmlns="http://www.w3.org/2000/svg" viewBox="0 0 69 22">
    <path fill="#0A2343" d="M68.458 0H.73v21.581h67.73V0Z"/>
    <path fill="#8BB5EB" d="M43.229 6.286h3.868v10.508h1.774V6.287h3.852V4.8h-9.495v1.486ZM62.048 4.8l-2.517 7.467a60.934 60.934 0 0 0-.751 2.5l-.177.64a92.8 92.8 0 0 0-.567-1.983c-.13-.433-.262-.842-.397-1.225l-2.467-7.4H53.28l4.156 11.995h2.196L63.806 4.8h-1.758Z"/>
    <path fill="#fff" d="M25.85 4.901a2.309 2.309 0 0 0-1.2-.321 2.354 2.354 0 0 0-1.208.321 2.412 2.412 0 0 0-.87.862 2.31 2.31 0 0 0-.32 1.199 2.383 2.383 0 0 0 2.399 2.399c.421.005.836-.106 1.2-.321a2.405 2.405 0 0 0 1.181-2.078 2.308 2.308 0 0 0-.32-1.2 2.435 2.435 0 0 0-.862-.861ZM21.677 4.8h-3.936v11.994h3.936V4.8Zm-7.611.55a2.275 2.275 0 0 0-1.51-.55h-2.417l2.704 11.994h4.308L14.887 6.71a2.37 2.37 0 0 0-.82-1.36ZM9.53 4.8H5.594v11.994H9.53V4.8Zm22.047 0h-3.936v11.994h3.936V4.8Zm8.295 0h-4.325a321.213 321.213 0 0 0-1.436 2.356 164.828 164.828 0 0 1-1.368 2.23c-.18.288-.304.487-.372.6-.16.242-.253.522-.27.811.02.302.12.593.287.845.068.101.189.298.363.591.175.293.383.634.626 1.022.241.389.486.788.734 1.2.248.41.482.794.702 1.148.22.355.464.752.734 1.191h4.325c-.315-.517-.597-.982-.844-1.393a285.702 285.702 0 0 0-1.597-2.619 81.208 81.208 0 0 1-.616-1.014 9.034 9.034 0 0 0-.254-.414 1.028 1.028 0 0 1-.203-.557c.007-.192.066-.379.17-.54L39.871 4.8Z"/>
</svg>