<svg xmlns="http://www.w3.org/2000/svg" viewBox="0 0 35 35"><path fill="#000" d="M3.333 3.333h28v28h-28z"/><path fill="#FFE100" fill-rule="evenodd" d="M0 0h34.667v34.667H0V0Zm11.195 15.407H8v11.61h3.195v-11.61Zm4.052 0H11.66s2.038 3.342 2.061 3.384c.157.266.166.428.014.684l-2.075 3.397h3.588s1.73-2.826 1.967-3.218c.235-.393.224-.637-.01-1.04-.238-.406-.253-.43-1.659-2.72l-.298-.487Zm10.05 0s1.068 1.718 1.189 1.924c.234.404.245.648.009 1.042a9958.7 9958.7 0 0 1-1.576 2.61c.258.421.603.973.905 1.458v.001h.001c.31.498.577.925.66 1.067.235.404.245.649.01 1.042l-.25.42-.003.004-.003.004v.002c-.32.535-.84 1.41-1.224 2.036h-3.279l1.796-2.946-1.863-3.121 1.67-2.733h-4.045l-1.677-2.81h7.68Zm-6.2 5.962c-.505.825-1.35 2.206-1.509 2.476-.225.389-.236.624-.009 1.004.159.262 1.01 1.655 1.518 2.484.508-.83 1.36-2.222 1.519-2.484.227-.38.216-.615-.01-1.004-.158-.27-1.003-1.651-1.509-2.476ZM8 7.156v6.531h2.143v-6.53H8Zm6.293 6.531L13.06 8.196a1.292 1.292 0 0 0-.446-.74 1.24 1.24 0 0 0-.824-.3h-1.315l1.472 6.531h2.346Zm.322-6.53v6.53h2.143v-6.53h-2.143Zm3.105 2.308c.199.117.426.177.657.175.23.003.456-.058.654-.175a1.306 1.306 0 0 0 .644-1.131 1.255 1.255 0 0 0-.175-.654 1.323 1.323 0 0 0-.47-.469 1.258 1.258 0 0 0-.653-.174 1.312 1.312 0 0 0-1.131.644 1.253 1.253 0 0 0-.175.653 1.297 1.297 0 0 0 .649 1.131Zm2.286-2.309v6.531h2.144v-6.53h-2.144ZM25 10.951a4.962 4.962 0 0 0-.138-.226.558.558 0 0 1-.11-.303.586.586 0 0 1 .092-.295l1.822-2.971H24.31a310.451 310.451 0 0 0-.781 1.283 96.347 96.347 0 0 1-.948 1.541.894.894 0 0 0-.147.442.952.952 0 0 0 .156.46c.037.055.103.162.198.322.095.159.208.344.34.556.132.212.266.43.4.653.135.224.262.433.382.626l.4.648h2.356a146.85 146.85 0 0 1-.46-.758 183.366 183.366 0 0 0-.87-1.426c-.138-.224-.25-.408-.336-.552Z" clip-rule="evenodd"/></svg>