<svg xmlns="http://www.w3.org/2000/svg" viewBox="0 0 131 55"><path fill="#fff" d="M0 14.333V.335h4.593v13.998H0Zm10.843-11.77 2.641 11.77H8.457L5.303.335h2.82a2.655 2.655 0 0 1 1.764.64c.491.404.829.964.956 1.588Zm3.331 11.77V.335h4.594v13.998h-4.594Zm8.063-8.675a2.738 2.738 0 0 1-1.409-.375 2.778 2.778 0 0 1-1.015-1.015 2.735 2.735 0 0 1-.375-1.41 2.685 2.685 0 0 1 .375-1.4A2.812 2.812 0 0 1 23.637.454c.415.244.761.59 1.005 1.005.251.424.38.908.375 1.4.005.496-.125.983-.375 1.41a2.8 2.8 0 0 1-1.005 1.015c-.424.251-.908.38-1.4.375Zm3.49 8.675V.335h4.594v13.998h-4.594Zm10.409-6.348c.013.013.111.174.296.483.184.308.424.702.72 1.183a386.846 386.846 0 0 1 1.862 3.056c.289.48.617 1.022.986 1.626h-5.047l-.858-1.39c-.256-.414-.529-.86-.817-1.34-.29-.48-.576-.946-.858-1.4a71.148 71.148 0 0 1-.73-1.193 21.112 21.112 0 0 0-.424-.69 2.04 2.04 0 0 1-.334-.986c.019-.338.128-.665.315-.947.078-.131.223-.364.433-.7a216.7 216.7 0 0 0 1.598-2.603l.817-1.35.858-1.4H40l-3.904 6.369c-.12.189-.189.407-.197.631.013.235.095.462.236.65h.001ZM10.61 20.395H8.148l-5.347 6.16h-.735v-6.16H.001v13.974h2.066V28.05h.07l5.815 6.337 2.815-.02-6.673-6.927 6.515-7.046ZM16.454 24.262c-.368.099-.72.252-1.043.453-.336.21-.646.457-.925.738-.046.046-.091.099-.138.147v-1.466l-2.007.296v9.939h2.007v-7.436a5.102 5.102 0 0 1 1.073-.575c.203-.078.41-.147.62-.206a4.224 4.224 0 0 1 1.378-.148l.236-1.85a3.747 3.747 0 0 0-1.2.108ZM19.485 34.369h2.007V24.134l-2.007.296v9.939ZM19.84 22.363c.21.118.447.18.688.177.238.003.472-.058.679-.177.202-.117.369-.287.482-.492.118-.21.18-.448.177-.689a1.33 1.33 0 0 0-.177-.679 1.39 1.39 0 0 0-.482-.492 1.274 1.274 0 0 0-.68-.187 1.325 1.325 0 0 0-.688.187c-.205.12-.377.29-.501.492a1.27 1.27 0 0 0-.187.68c-.003.242.062.48.187.688.12.206.293.376.501.492ZM29.68 25.985c.321-.008.641.042.945.147.25.09.474.243.65.443.18.217.308.473.373.748.084.348.124.705.118 1.063v5.983h2.008v-6.397a5.453 5.453 0 0 0-.374-2.184 2.58 2.58 0 0 0-1.122-1.26 3.874 3.874 0 0 0-1.89-.413 5.527 5.527 0 0 0-1.682.265 6.394 6.394 0 0 0-1.584.758 7.92 7.92 0 0 0-.552.404v-1.408l-2.007.296v9.939h2.007v-7.475c.195-.114.395-.217.6-.31.277-.122.56-.23.847-.324.276-.09.56-.16.846-.207a5.08 5.08 0 0 1 .817-.069ZM44.148 38.157c.716-.334.527-.875.932-1.554.397-.699.597-1.49.581-2.293V24.115l-1.925.495a5.762 5.762 0 0 0-.683-.24 7.117 7.117 0 0 0-.915-.186 7.694 7.694 0 0 0-1.063-.07 4.76 4.76 0 0 0-1.87.375 4.947 4.947 0 0 0-1.584 1.072 4.856 4.856 0 0 0-1.092 1.732 6.633 6.633 0 0 0-.394 2.372c-.021.889.15 1.772.502 2.588.308.698.82 1.288 1.466 1.693.709.417 1.52.626 2.343.6a5.676 5.676 0 0 0 2.105-.413c.4-.164.777-.378 1.122-.638v.54c.008.443-.055.885-.187 1.308a2.38 2.38 0 0 1-.57.945c-.282.27-.628.467-1.005.57-.49.135-.997.198-1.505.187-.404 0-.808-.023-1.21-.069a8.628 8.628 0 0 1-1.25-.236 9.578 9.578 0 0 1-1.24-.423l1.005 1.732a8.49 8.49 0 0 0 1.113.364c.398.1.802.176 1.21.227.43.053.865.079 1.299.078a6.348 6.348 0 0 0 2.815-.56Zm-.731-5.904a6.225 6.225 0 0 1-.757.374c-.23.094-.467.17-.71.226-.235.053-.476.08-.717.079a3.42 3.42 0 0 1-1.703-.384 2.304 2.304 0 0 1-1.004-1.161 5.233 5.233 0 0 1-.324-1.998 5.203 5.203 0 0 1 .226-1.604c.129-.427.35-.82.65-1.151a2.836 2.836 0 0 1 1.042-.699c.45-.17.927-.254 1.408-.246.31 0 .62.026.925.079.313.055.622.13.925.226.096.03.197.07.295.107v6.001c-.086.051-.174.104-.256.151ZM50.719 29.547h.033l4.02 4.822h2.599l-4.774-5.38 4.675-4.658h-2.46l-3.367 3.701h-.726V19.51l-2.008.295V34.37h2.008v-4.823ZM64.676 33.09c.038.204.11.4.213.58.176.301.445.536.768.67.356.142.738.213 1.122.206.118 0 .233-.003.344-.01.11-.007.218-.023.325-.05l.285-.068a1.63 1.63 0 0 0 .227-.069l.216-1.319c-.109.038-.22.064-.335.08a2.248 2.248 0 0 1-.275.019.898.898 0 0 1-.768-.315 1.694 1.694 0 0 1-.216-1.043l.04-4.055a4.73 4.73 0 0 0-.158-1.26c-.096-.36-.256-.7-.472-1.003a2.668 2.668 0 0 0-.817-.728 4.173 4.173 0 0 0-1.191-.453 6.998 6.998 0 0 0-1.555-.157c-.415 0-.829.026-1.24.078a8.522 8.522 0 0 0-1.151.227c-.351.095-.696.21-1.034.344l-.236 1.673a11.543 11.543 0 0 1 1.791-.492c.27-.052.543-.088.817-.108.269-.02.535-.03.797-.03.401-.008.802.038 1.19.138.285.071.545.213.759.413.19.195.325.436.393.7.084.324.123.658.118.993l-.002.494-2.3.155a6.11 6.11 0 0 0-2.284.512 3.269 3.269 0 0 0-1.348 1.093c-.29.426-.445.93-.443 1.446-.003.484.115.961.345 1.388.24.437.603.796 1.043 1.033.537.28 1.137.415 1.742.394.566.013 1.13-.08 1.663-.276.46-.18.88-.447 1.24-.787.136-.13.265-.268.387-.413Zm-1.843-.158c-.276.053-.556.08-.837.079-.32.009-.64-.052-.935-.177a1.286 1.286 0 0 1-.58-.502 1.47 1.47 0 0 1-.197-.778 1.49 1.49 0 0 1 .255-.925c.215-.25.505-.423.827-.492a5.987 5.987 0 0 1 1.536-.157h1.723l-.01 1.953c-.1.113-.21.217-.327.31a3.789 3.789 0 0 1-.689.433c-.243.118-.5.204-.766.256ZM76.57 32.953c.226-.417.338-.885.325-1.358a2.757 2.757 0 0 0-.167-1.014 2.309 2.309 0 0 0-.463-.738 2.958 2.958 0 0 0-.689-.541 5.33 5.33 0 0 0-.826-.384c-.21-.066-.417-.134-.62-.207a10.88 10.88 0 0 0-.61-.196c-.204-.06-.4-.122-.591-.188a4.314 4.314 0 0 1-.522-.216 3.428 3.428 0 0 1-.462-.295 1.292 1.292 0 0 1-.335-.374.947.947 0 0 1-.128-.492c-.005-.19.043-.377.138-.541.103-.162.245-.294.413-.384.206-.113.429-.193.66-.236.288-.056.582-.082.876-.08a6.165 6.165 0 0 1 1.033.09c.203.032.406.075.61.127.204.053.41.112.62.178.195.06.385.132.57.216l.139-1.594a9.31 9.31 0 0 0-.738-.276 7.26 7.26 0 0 0-.738-.197 5.907 5.907 0 0 0-.738-.108 8.898 8.898 0 0 0-.719-.03 6.49 6.49 0 0 0-1.614.188c-.451.11-.88.296-1.27.55-.352.234-.64.552-.836.926a2.817 2.817 0 0 0-.295 1.328c-.006.332.047.662.157.974.094.263.234.506.414.719.175.2.377.376.6.521.233.153.48.281.738.384a17.64 17.64 0 0 0 .915.305 33.895 33.895 0 0 1 .866.276c.138.046.272.088.404.128.176.062.347.138.511.226.145.077.28.169.404.276a1.015 1.015 0 0 1 .344.777.981.981 0 0 1-.324.777 1.888 1.888 0 0 1-.847.404 5.03 5.03 0 0 1-1.112.118 5.534 5.534 0 0 1-.698-.05 9.982 9.982 0 0 1-.807-.137c-.282-.06-.57-.132-.866-.216-.296-.086-.594-.18-.896-.286l.08 1.673c.34.118.652.213.934.285.282.073.55.135.807.187.246.051.496.084.748.099.242.013.488.02.738.02a7.678 7.678 0 0 0 1.633-.168 4.221 4.221 0 0 0 1.338-.521c.373-.228.68-.546.896-.925ZM84.482 32.784l-.335.06c-.107.019-.216.032-.324.039-.105.007-.204.01-.296.01a1.985 1.985 0 0 1-.875-.178 1.266 1.266 0 0 1-.561-.521 1.658 1.658 0 0 1-.197-.837v-5.451h2.775l.216-1.575h-2.991v-3.11l-2.008.71v2.4h-1.515l-.217 1.575h1.732v5.865c-.008.391.052.78.177 1.151.102.293.259.564.463.797.187.208.415.375.67.492.26.12.534.206.816.256.279.052.562.078.846.079.21 0 .417-.007.62-.02a6.56 6.56 0 0 0 1.043-.147c.151-.033.279-.062.384-.089l.118-1.633c-.076.03-.155.052-.236.068-.092.02-.194.04-.305.06ZM88.832 20.011a1.274 1.274 0 0 0-.679-.187 1.323 1.323 0 0 0-.689.187c-.205.12-.377.29-.501.492-.125.204-.19.44-.187.68-.002.242.062.48.187.688.12.206.293.376.502.492.21.118.447.18.688.177.238.003.473-.058.679-.177.203-.117.37-.287.483-.492.118-.21.179-.448.177-.689a1.327 1.327 0 0 0-.177-.679 1.386 1.386 0 0 0-.483-.492ZM87.11 34.369h2.007V24.134l-2.008.296v9.939ZM99.902 24.528a3.87 3.87 0 0 0-1.889-.413 5.53 5.53 0 0 0-1.683.265 6.403 6.403 0 0 0-1.584.758 7.83 7.83 0 0 0-.551.404v-1.408l-2.008.296v9.939h2.008v-7.475c.194-.114.394-.217.6-.31.276-.122.559-.23.846-.324.276-.09.56-.16.846-.207.27-.045.544-.068.818-.069.32-.007.64.043.944.148.25.09.474.243.65.443.18.217.308.473.374.748.084.348.123.705.117 1.063v5.983h2.008v-6.397a5.455 5.455 0 0 0-.374-2.184 2.576 2.576 0 0 0-1.122-1.26ZM110.678 24.37a7.066 7.066 0 0 0-.915-.186 7.688 7.688 0 0 0-1.063-.07 4.751 4.751 0 0 0-1.869.375 4.94 4.94 0 0 0-1.585 1.072 4.857 4.857 0 0 0-1.092 1.732 6.632 6.632 0 0 0-.394 2.372c-.022.889.15 1.772.502 2.588a3.812 3.812 0 0 0 1.466 1.693 4.345 4.345 0 0 0 2.342.6 5.675 5.675 0 0 0 2.106-.413c.4-.164.777-.378 1.122-.638v.54c.008.443-.055.885-.187 1.308a2.37 2.37 0 0 1-.571.945c-.282.27-.627.467-1.003.57a5.272 5.272 0 0 1-1.506.187c-.405 0-.809-.023-1.211-.069a8.633 8.633 0 0 1-1.249-.236 9.61 9.61 0 0 1-1.241-.423l.217 1.732c.362.147.734.269 1.112.364.399.1.803.177 1.211.227.431.053.865.079 1.299.078a6.349 6.349 0 0 0 2.814-.56 3.945 3.945 0 0 0 1.722-1.555c.396-.699.597-1.49.581-2.293V24.115l-1.925.495a5.706 5.706 0 0 0-.683-.24Zm.364 7.883a6.272 6.272 0 0 1-.757.374 4.63 4.63 0 0 1-.709.226c-.236.053-.477.08-.718.079a3.424 3.424 0 0 1-1.703-.384 2.304 2.304 0 0 1-1.003-1.161 5.214 5.214 0 0 1-.325-1.998 5.188 5.188 0 0 1 .226-1.604c.129-.427.351-.82.65-1.151a2.831 2.831 0 0 1 1.043-.699c.449-.17.927-.254 1.407-.246.31 0 .62.026.925.079.313.055.622.13.925.226.097.03.197.07.295.107v6.001c-.087.051-.175.104-.257.151h.001ZM122.555 29.842a2.973 2.973 0 0 0-.689-.541 5.312 5.312 0 0 0-.827-.384c-.21-.066-.416-.135-.62-.207a10.986 10.986 0 0 0-.61-.197c-.203-.059-.4-.12-.59-.187a4.281 4.281 0 0 1-.522-.216 3.41 3.41 0 0 1-.462-.295 1.29 1.29 0 0 1-.335-.374.954.954 0 0 1-.128-.492c-.005-.19.043-.377.138-.541a1.12 1.12 0 0 1 .413-.384 2.23 2.23 0 0 1 .659-.236c.289-.056.583-.082.876-.08a6.213 6.213 0 0 1 1.034.09c.203.032.406.075.61.127.203.053.41.112.62.177.195.06.385.133.57.217l.139-1.594a9.513 9.513 0 0 0-.738-.276 7.271 7.271 0 0 0-.739-.197 5.894 5.894 0 0 0-.738-.108 8.878 8.878 0 0 0-.718-.03 6.49 6.49 0 0 0-1.614.188c-.452.11-.881.296-1.27.55a2.514 2.514 0 0 0-.836.926 2.818 2.818 0 0 0-.295 1.328c-.006.332.047.662.158.974.093.263.233.506.413.719.175.2.377.376.6.521.233.153.48.282.738.384a16.67 16.67 0 0 0 .916.305 34.29 34.29 0 0 1 .865.276c.138.046.272.088.404.128.176.062.347.138.511.226.145.077.28.169.404.276a1.015 1.015 0 0 1 .345.777.984.984 0 0 1-.325.777 1.891 1.891 0 0 1-.847.404c-.365.08-.738.12-1.111.118a5.523 5.523 0 0 1-.699-.05 9.996 9.996 0 0 1-.807-.137 12.56 12.56 0 0 1-.866-.216 17.36 17.36 0 0 1-.895-.286l.078 1.673c.341.118.652.213.935.285.282.073.551.135.807.188.246.05.496.083.748.098.242.013.488.02.738.02a7.678 7.678 0 0 0 1.633-.168 4.22 4.22 0 0 0 1.339-.521c.372-.228.68-.546.895-.925.226-.417.338-.885.325-1.358a2.758 2.758 0 0 0-.168-1.014 2.281 2.281 0 0 0-.462-.738ZM125.271 27.972l-.138 1.614h5.569l.138-1.614h-5.569ZM7.787 44.426a5.4 5.4 0 0 0-2.667-.63 5.377 5.377 0 0 0-2.686.65 4.536 4.536 0 0 0-1.791 1.83 5.784 5.784 0 0 0-.64 2.795c-.025.963.18 1.918.6 2.785a4.108 4.108 0 0 0 1.722 1.78c.8.42 1.694.63 2.598.611a5.543 5.543 0 0 0 2.716-.65 4.586 4.586 0 0 0 1.84-1.85 5.8 5.8 0 0 0 .66-2.834 5.7 5.7 0 0 0-.61-2.706 4.3 4.3 0 0 0-1.742-1.781Zm-.118 6.593a2.685 2.685 0 0 1-1.073 1.23 3.058 3.058 0 0 1-1.574.404 2.797 2.797 0 0 1-1.535-.413A2.77 2.77 0 0 1 2.463 51a4.968 4.968 0 0 1-.373-2.047 4.639 4.639 0 0 1 .373-1.988c.221-.493.589-.906 1.053-1.181a3.184 3.184 0 0 1 1.624-.394c.442-.01.882.073 1.289.246.357.161.668.408.906.719.253.337.437.722.54 1.131.124.48.183.972.178 1.467a4.904 4.904 0 0 1-.384 2.066ZM16.692 43.944a3.86 3.86 0 0 0-1.042.452c-.336.21-.647.458-.926.739-.046.046-.091.098-.138.147v-1.466l-2.007.295v9.94h2.007v-7.437a5.135 5.135 0 0 1 1.073-.575c.203-.078.41-.147.62-.206a4.218 4.218 0 0 1 1.378-.147l.236-1.85a3.744 3.744 0 0 0-1.2.108ZM28.285 44.013h-2.46l-3.368 3.7h-.726v-8.521l-2.008.295V54.05h2.008V49.23h.033l4.02 4.822h2.599l-4.774-5.38 4.676-4.658ZM37.673 45.282a3.57 3.57 0 0 0-1.447-1.112 5.046 5.046 0 0 0-1.998-.374 4.893 4.893 0 0 0-2.007.394 4.29 4.29 0 0 0-1.506 1.102 4.835 4.835 0 0 0-.945 1.702 7.111 7.111 0 0 0-.324 2.215c-.028.948.171 1.89.58 2.745a3.844 3.844 0 0 0 1.723 1.712 6.12 6.12 0 0 0 2.794.581 9.61 9.61 0 0 0 1.388-.089 6.639 6.639 0 0 0 1.132-.265c.365-.123.72-.274 1.063-.453l.137-1.515-.758.275a9.397 9.397 0 0 1-.797.246c-.278.073-.56.126-.846.158-.288.032-.577.049-.866.049a6.214 6.214 0 0 1-1.535-.167 2.523 2.523 0 0 1-1.092-.571 2.492 2.492 0 0 1-.67-1.093 5 5 0 0 1-.214-1.299h7.113a7.54 7.54 0 0 0-.109-2.44 4.6 4.6 0 0 0-.816-1.8Zm-4.96.472c.462-.28.995-.42 1.535-.403a2.405 2.405 0 0 1 1.516.443c.392.313.671.744.797 1.23.098.359.146.73.143 1.102h-5.176c.037-.392.12-.78.25-1.151.168-.5.497-.928.935-1.22ZM47.277 49.523a2.958 2.958 0 0 0-.689-.54 5.334 5.334 0 0 0-.827-.385c-.21-.065-.416-.134-.62-.206a11.058 11.058 0 0 0-.61-.197c-.203-.06-.4-.121-.59-.187a4.307 4.307 0 0 1-.522-.217 3.42 3.42 0 0 1-.462-.295 1.29 1.29 0 0 1-.335-.374.947.947 0 0 1-.128-.492 1.02 1.02 0 0 1 .138-.541c.103-.161.245-.293.413-.384.206-.113.429-.192.66-.236.288-.055.582-.082.876-.079a6.21 6.21 0 0 1 1.033.089c.204.033.406.075.61.128.204.052.41.111.62.177.194.06.385.132.57.217l.138-1.595a9.308 9.308 0 0 0-.738-.275 7.26 7.26 0 0 0-.738-.197 5.888 5.888 0 0 0-.738-.108 8.887 8.887 0 0 0-.718-.03 6.49 6.49 0 0 0-1.614.187c-.452.11-.88.296-1.27.551-.352.233-.64.551-.836.925a2.815 2.815 0 0 0-.295 1.329c-.006.331.047.661.157.974.094.262.234.506.414.718.175.201.377.377.6.522.232.152.48.281.738.384a16.987 16.987 0 0 0 .915.305 42.296 42.296 0 0 1 .866.275c.138.046.272.089.404.128.176.063.347.138.511.227a2.2 2.2 0 0 1 .404.275 1.008 1.008 0 0 1 .344.778.98.98 0 0 1-.325.777 1.89 1.89 0 0 1-.846.403c-.365.081-.738.12-1.112.118a5.535 5.535 0 0 1-.698-.049 9.967 9.967 0 0 1-.807-.137 12.43 12.43 0 0 1-.866-.217c-.296-.085-.594-.18-.896-.285l.079 1.672c.34.119.652.214.935.286.282.072.551.134.806.187.247.05.497.084.748.098.243.013.489.02.739.02a7.678 7.678 0 0 0 1.633-.167 4.224 4.224 0 0 0 1.338-.522 2.57 2.57 0 0 0 .896-.925c.225-.416.337-.885.324-1.358a2.755 2.755 0 0 0-.167-1.014 2.308 2.308 0 0 0-.462-.738ZM55.494 52.466l-.334.059c-.108.019-.216.032-.325.04-.105.006-.204.01-.295.01a1.987 1.987 0 0 1-.876-.178 1.27 1.27 0 0 1-.561-.522 1.66 1.66 0 0 1-.197-.836v-5.452h2.775l.217-1.574h-2.992v-3.11l-2.007.709v2.4h-1.516l-.217 1.575H50.9v5.865c-.01.391.05.781.177 1.152a2.4 2.4 0 0 0 .462.797c.188.207.415.375.67.492.26.12.534.205.816.256.28.051.562.077.846.078.21 0 .417-.006.62-.02.204-.013.391-.032.561-.058a8.54 8.54 0 0 0 .482-.089c.15-.032.28-.062.384-.089l.118-1.633c-.076.03-.155.053-.236.069-.092.02-.194.04-.305.059ZM62.235 43.944c-.368.098-.72.251-1.043.452-.336.21-.647.458-.925.739-.047.046-.092.098-.138.147v-1.466l-2.008.295v9.94h2.008v-7.437a5.156 5.156 0 0 1 1.073-.575c.203-.078.41-.147.62-.206a4.224 4.224 0 0 1 1.377-.147l.236-1.85a3.744 3.744 0 0 0-1.2.108ZM72.882 45.282a3.57 3.57 0 0 0-1.446-1.112 5.045 5.045 0 0 0-1.998-.374 4.895 4.895 0 0 0-2.007.394 4.29 4.29 0 0 0-1.506 1.102 4.822 4.822 0 0 0-.945 1.702 7.111 7.111 0 0 0-.324 2.215c-.028.948.17 1.89.58 2.745a3.844 3.844 0 0 0 1.722 1.712 6.12 6.12 0 0 0 2.795.581 9.61 9.61 0 0 0 1.388-.089 6.638 6.638 0 0 0 1.131-.265 7.333 7.333 0 0 0 1.063-.453l.138-1.515-.758.275a9.447 9.447 0 0 1-.797.246c-.278.073-.56.126-.846.158-.288.032-.577.049-.866.049a6.214 6.214 0 0 1-1.536-.167 2.524 2.524 0 0 1-1.092-.571 2.493 2.493 0 0 1-.669-1.093 4.996 4.996 0 0 1-.214-1.299h7.112a7.53 7.53 0 0 0-.108-2.44 4.598 4.598 0 0 0-.817-1.8Zm-4.96.472c.463-.28.996-.42 1.536-.403a2.407 2.407 0 0 1 1.515.443c.392.313.672.744.797 1.23.099.359.147.73.144 1.102h-5.176c.036-.392.12-.779.25-1.151.168-.5.497-.928.935-1.22ZM81.473 52.466l-.335.059c-.107.019-.216.032-.325.04-.104.006-.203.01-.295.01-.301.007-.6-.053-.875-.178a1.267 1.267 0 0 1-.561-.522 1.658 1.658 0 0 1-.197-.836v-5.452h2.775l.217-1.574h-2.992v-3.11l-2.007.709v2.4h-1.516l-.216 1.575h1.732v5.865c-.01.391.05.781.177 1.152.101.293.258.563.462.797.187.207.415.375.67.492.26.12.534.205.816.256.279.051.562.077.846.078.21 0 .417-.006.62-.02.204-.013.391-.032.561-.058.17-.027.332-.056.483-.089.15-.033.278-.062.383-.089l.118-1.633c-.076.03-.155.053-.236.069-.092.02-.194.04-.305.059Z"/></svg>