<svg xmlns="http://www.w3.org/2000/svg" viewBox="0 0 120 16"><path fill="#fff" d="M82.72 9.463a6.648 6.648 0 0 1-.207 1.745 3.186 3.186 0 0 1-.64 1.261 2.68 2.68 0 0 1-1.134.76 4.92 4.92 0 0 1-1.686.256 5.049 5.049 0 0 1-1.952-.345 2.47 2.47 0 0 1-1.262-1.163 4.769 4.769 0 0 1-.433-2.218V1.006h-2.07v9.09c-.023.817.129 1.63.443 2.385a4.066 4.066 0 0 0 1.223 1.587c.537.41 1.15.708 1.804.877.707.187 1.436.28 2.168.276a6.487 6.487 0 0 0 3.174-.69 4.33 4.33 0 0 0 1.843-1.932 6.633 6.633 0 0 0 .601-2.918V1.007H82.72v8.456ZM91.65 4.88c-.368.098-.72.251-1.044.453a5.13 5.13 0 0 0-.927.74c-.047.046-.092.098-.138.147V4.75l-2.01.296v9.956h2.01V7.555a5.183 5.183 0 0 1 1.074-.576 6.83 6.83 0 0 1 .621-.207 4.218 4.218 0 0 1 1.38-.148l.237-1.853c-.404-.029-.81.008-1.203.109ZM103.144 4.495 102.04 5.66a4.553 4.553 0 0 0-.454-.297 5.39 5.39 0 0 0-2.68-.631 5.388 5.388 0 0 0-2.692.65 4.546 4.546 0 0 0-1.794 1.834 5.791 5.791 0 0 0-.64 2.8 5.961 5.961 0 0 0 .61 2.789c.114.214.244.42.39.613L93.68 14.59l.907.828 1.051-1.136c.152.113.31.216.476.308a5.345 5.345 0 0 0 2.612.61 5.494 5.494 0 0 0 2.711-.65 4.676 4.676 0 0 0 1.843-1.852 5.74 5.74 0 0 0 .67-2.84 5.623 5.623 0 0 0-.621-2.71 4.559 4.559 0 0 0-.4-.613l1.14-1.21-.926-.829Zm-6.88 3.411a2.62 2.62 0 0 1 1.054-1.183 3.147 3.147 0 0 1 1.607-.394c.446-.01.89.074 1.301.246.222.1.426.234.606.397l-4.586 4.954a5.103 5.103 0 0 1-.357-2.029 4.64 4.64 0 0 1 .374-1.991Zm5.204 4.06c-.225.51-.6.94-1.074 1.233a3.01 3.01 0 0 1-1.568.404 2.852 2.852 0 0 1-1.547-.414 2.418 2.418 0 0 1-.367-.29l4.589-4.954c.069.157.127.319.174.483.13.479.193.973.187 1.469a4.8 4.8 0 0 1-.394 2.071v-.001ZM110.595 4.88c-.368.099-.72.251-1.044.453a5.11 5.11 0 0 0-.927.74c-.047.046-.092.098-.138.147V4.75l-2.011.296v9.956h2.011V7.555c.149-.104.304-.201.463-.29.198-.109.402-.204.611-.286.204-.079.411-.148.621-.207a4.257 4.257 0 0 1 1.381-.148l.236-1.853c-.404-.029-.81.008-1.203.109ZM119.152 13.357c-.092.02-.194.04-.306.059l-.335.059c-.108.02-.216.032-.325.04-.106.006-.205.01-.296.01a1.982 1.982 0 0 1-.877-.178 1.27 1.27 0 0 1-.562-.523 1.663 1.663 0 0 1-.197-.837V6.526h2.779l.217-1.577h-2.996V1.833l-2.011.71v2.406h-1.518l-.217 1.577h1.735V12.4c-.009.392.051.783.177 1.154.102.293.259.564.464.798.187.208.415.376.67.493.261.12.535.206.818.256.279.052.563.078.847.08.211 0 .417-.007.622-.02.204-.013.39-.033.562-.06a8.871 8.871 0 0 0 .867-.177l.118-1.636c-.076.03-.156.052-.236.069Z"/><path fill="#FFE100" d="M54.055 1.006h-4.318s2.454 4.028 2.482 4.079a.68.68 0 0 1 .016.823L49.737 10h4.319s2.083-3.405 2.367-3.878a1.034 1.034 0 0 0-.011-1.25c-.307-.524-.308-.524-2.357-3.867ZM49.18 1.006h-3.847v13.992h3.846V1.006ZM67.58 3.324c-.144-.248-1.43-2.318-1.43-2.318h-9.243l2.02 3.387h4.868l-2.008 3.292 2.238 3.761-2.16 3.551h3.946c.634-1.038 1.583-2.643 1.78-2.972a1.036 1.036 0 0 0-.01-1.256c-.198-.337-1.255-2.013-1.886-3.045l1.897-3.144a1.036 1.036 0 0 0-.011-1.256Z"/><path fill="#FFE100" d="M58.69 8.14a436.99 436.99 0 0 0-1.816 2.983.998.998 0 0 0-.011 1.21c.19.317 1.216 1.995 1.827 2.996.611-1 1.637-2.678 1.827-2.996a1 1 0 0 0-.01-1.21c-.191-.325-1.209-1.99-1.817-2.984Z"/><path fill="#fff" d="M0 15V1.001h4.593v14H0ZM10.843 3.23 13.484 15H8.457L5.303 1.001h2.82a2.655 2.655 0 0 1 1.764.641c.491.404.829.964.956 1.587ZM14.174 15V1.001h4.594v14h-4.594Zm8.063-8.675a2.737 2.737 0 0 1-1.409-.375 2.778 2.778 0 0 1-1.015-1.015 2.735 2.735 0 0 1-.375-1.41 2.685 2.685 0 0 1 .375-1.4 2.812 2.812 0 0 1 3.824-1.005c.415.244.761.59 1.005 1.005.251.424.38.908.375 1.4.005.495-.125.982-.375 1.41a2.8 2.8 0 0 1-1.005 1.015c-.424.251-.908.38-1.4.375ZM25.727 15V1.001h4.594v14h-4.594Zm10.409-6.349c.013.014.111.175.296.483.184.309.424.703.72 1.183a384.573 384.573 0 0 1 1.862 3.056c.289.48.617 1.023.986 1.627h-5.047l-.858-1.39c-.256-.414-.529-.86-.817-1.34-.29-.48-.576-.947-.858-1.4a71.337 71.337 0 0 1-.73-1.193 21.112 21.112 0 0 0-.424-.69A2.04 2.04 0 0 1 30.932 8c.019-.338.128-.665.315-.947.078-.131.223-.365.433-.7a216.7 216.7 0 0 0 1.598-2.603l.817-1.35.858-1.4H40l-3.904 6.368c-.12.19-.189.407-.197.632.013.235.095.461.236.65h.001Z"/></svg>