<svg xmlns="http://www.w3.org/2000/svg" viewBox="0 0 114 28"><path fill="#114F9D" d="M0 0h113.667v28H0z"/><path fill="#fff" d="M6.667 21V7.001h4.593v14H6.667ZM17.509 9.23 20.151 21h-5.027L11.97 7.001h2.82a2.655 2.655 0 0 1 1.764.641c.49.404.828.964.955 1.587ZM20.841 21V7.001h4.593v14h-4.593Zm8.063-8.675a2.738 2.738 0 0 1-1.41-.375 2.777 2.777 0 0 1-1.015-1.015 2.735 2.735 0 0 1-.375-1.41 2.686 2.686 0 0 1 .375-1.4 2.812 2.812 0 0 1 3.825-1.005c.415.244.76.59 1.005 1.005.25.424.38.908.375 1.4.004.495-.125.982-.375 1.41a2.8 2.8 0 0 1-1.006 1.015c-.423.251-.908.38-1.4.375ZM32.394 21V7.001h4.593v14h-4.593Zm10.409-6.349c.013.014.111.175.295.483.185.309.424.703.72 1.183a373.133 373.133 0 0 1 1.863 3.056c.288.48.617 1.023.986 1.627H41.62a712.71 712.71 0 0 0-.858-1.39 127.3 127.3 0 0 1-.818-1.34c-.289-.48-.575-.947-.858-1.4a71.117 71.117 0 0 1-.729-1.193 20.869 20.869 0 0 0-.424-.69 2.039 2.039 0 0 1-.335-.986c.02-.338.128-.665.315-.947.079-.131.224-.365.434-.7a209.23 209.23 0 0 0 1.598-2.603c.289-.48.561-.93.817-1.35L41.62 7h5.047l-3.904 6.369c-.12.189-.189.407-.197.63.013.236.095.463.236.651Z"/><path fill="#9FDAF5" d="M60.506 14.437a3.715 3.715 0 0 0-.977-.723 7.557 7.557 0 0 0-1.182-.485 13.347 13.347 0 0 0-1.289-.337 27.695 27.695 0 0 1-.947-.238 4.32 4.32 0 0 1-.781-.287 2.575 2.575 0 0 1-.596-.397c-.169-.15-.3-.34-.381-.554a2.161 2.161 0 0 1-.127-.783c-.005-.276.038-.55.127-.812.08-.23.214-.437.39-.604.183-.17.391-.31.616-.416.257-.118.53-.199.81-.237.334-.048.67-.072 1.007-.07.306.001.612.017.917.05.309.032.616.082.919.149.294.064.584.147.869.247.267.093.525.209.772.346l.273-1.742a4.828 4.828 0 0 0-.87-.357 11.575 11.575 0 0 0-.927-.238 9.16 9.16 0 0 0-.957-.148 9.871 9.871 0 0 0-.996-.05 8.206 8.206 0 0 0-2.051.238 4.61 4.61 0 0 0-1.592.733c-.442.322-.798.75-1.035 1.247a4.08 4.08 0 0 0-.361 1.783 3.88 3.88 0 0 0 .224 1.396c.14.375.356.716.635 1.001.275.279.591.513.937.693.367.192.75.351 1.143.476.41.132.83.244 1.26.337.352.079.677.161.977.248.278.077.55.18.81.306.224.108.432.248.616.416.174.167.31.37.4.595.104.271.153.56.147.852a2.79 2.79 0 0 1-.137.91c-.086.255-.218.49-.39.694a1.882 1.882 0 0 1-.626.475c-.27.126-.556.213-.85.258-.358.056-.72.082-1.083.08a8.38 8.38 0 0 1-1.055-.07c-.365-.047-.73-.11-1.094-.189a10.86 10.86 0 0 1-1.065-.287 19.769 19.769 0 0 1-.986-.346l.254 1.96c.333.127.672.236 1.016.327.312.083.628.15.947.198.306.046.612.083.918.11.306.026.616.04.928.039.699.004 1.397-.069 2.08-.218a4.942 4.942 0 0 0 1.7-.713 3.338 3.338 0 0 0 1.133-1.298 4.44 4.44 0 0 0 .4-1.99 4.53 4.53 0 0 0-.225-1.506 2.936 2.936 0 0 0-.645-1.07ZM72.197 19.765a.88.88 0 0 1-.763-.317 1.723 1.723 0 0 1-.214-1.05l.038-4.08a4.822 4.822 0 0 0-.156-1.268 3.123 3.123 0 0 0-.469-1.01 2.665 2.665 0 0 0-.81-.733 4.12 4.12 0 0 0-1.181-.455 6.862 6.862 0 0 0-1.544-.159c-.411 0-.822.026-1.23.079-.386.05-.768.126-1.143.228-.348.096-.69.211-1.026.347l-.234 1.684a11.662 11.662 0 0 1 1.777-.496c.268-.052.54-.088.811-.108.267-.02.53-.03.791-.03.398-.009.796.038 1.182.138.282.072.54.215.752.417.189.195.323.438.39.703.084.326.124.663.118 1l-.002.497-2.283.157c-.78.022-1.55.197-2.266.514a3.258 3.258 0 0 0-1.338 1.1 2.584 2.584 0 0 0-.44 1.456c-.003.487.114.968.342 1.397.24.44.599.801 1.035 1.04a3.44 3.44 0 0 0 1.729.395 4.445 4.445 0 0 0 1.65-.277 3.8 3.8 0 0 0 1.231-.792c.136-.131.264-.27.385-.415.038.205.11.402.211.584.174.303.442.54.762.673.353.144.732.215 1.113.208a6 6 0 0 0 .342-.01c.109-.006.217-.023.322-.05l.284-.069a1.48 1.48 0 0 0 .224-.07l.215-1.326a1.707 1.707 0 0 1-.332.08 2.2 2.2 0 0 1-.273.018Zm-3.253-.891c-.212.17-.441.316-.684.436-.242.12-.498.206-.762.258a4.26 4.26 0 0 1-.83.078 2.17 2.17 0 0 1-.927-.178 1.279 1.279 0 0 1-.577-.505 1.497 1.497 0 0 1-.195-.782c-.019-.33.07-.658.254-.931.213-.252.5-.426.82-.495a5.876 5.876 0 0 1 1.524-.159h1.71l-.008 1.966c-.1.113-.208.218-.325.312ZM70.184 5.979h-2.109l-1.66 3.545h1.523l2.246-3.545ZM82.168 11.317a4.153 4.153 0 0 0-2.334-.624 5.888 5.888 0 0 0-1.446.188 6.233 6.233 0 0 0-1.739.748v-.916l-1.992.317v14.143h1.992v-4.435l.04.018c.36.152.738.261 1.123.327.455.076.916.112 1.377.109.88.015 1.747-.211 2.51-.654a4.675 4.675 0 0 0 1.758-1.892 6.402 6.402 0 0 0 .654-3.02 6.234 6.234 0 0 0-.498-2.576 3.966 3.966 0 0 0-1.445-1.733Zm-.518 6.626a2.712 2.712 0 0 1-1.123 1.248 3.57 3.57 0 0 1-1.787.416 5.5 5.5 0 0 1-1.797-.297c-.094-.033-.196-.07-.293-.107v-6.251c.026-.013.052-.028.078-.04.287-.132.554-.245.801-.337a3.96 3.96 0 0 1 1.387-.258c.602-.02 1.2.113 1.738.386.471.26.84.676 1.045 1.179.249.642.365 1.33.342 2.02a4.784 4.784 0 0 1-.39 2.041ZM100.031 11.11a3.366 3.366 0 0 0-1.739-.417 4.518 4.518 0 0 0-1.543.268c-.503.182-.977.44-1.406.762a7.136 7.136 0 0 0-.694.594 2.473 2.473 0 0 0-1.006-1.188 3.407 3.407 0 0 0-1.758-.416c-.522 0-1.04.09-1.533.267a5.531 5.531 0 0 0-1.827 1.083v-1.349l-1.992.297v10.004h1.992v-7.537c.235-.156.48-.296.733-.419.31-.148.634-.265.967-.347a3.98 3.98 0 0 1 .937-.118c.29-.01.58.041.85.148.224.096.421.246.576.436.17.22.287.478.342.753.076.354.112.716.108 1.079v6.002h1.992v-6.418a8.079 8.079 0 0 0-.076-1.133c.226-.15.46-.287.701-.412.305-.155.626-.275.957-.356.314-.078.635-.118.957-.12.287-.006.573.044.84.15.228.093.43.243.586.435.17.22.287.479.342.753.076.354.112.717.108 1.08v6.021h1.992v-6.437a5.817 5.817 0 0 0-.352-2.2 2.542 2.542 0 0 0-1.054-1.266ZM104.386 21.013h1.993v-10.3l-1.993.297v10.003ZM106.574 7.058a1.388 1.388 0 0 0-.478-.495 1.254 1.254 0 0 0-.674-.188 1.3 1.3 0 0 0-.684.188c-.204.12-.375.29-.498.495a1.303 1.303 0 0 0-.186.684c-.002.244.063.483.186.693a1.353 1.353 0 0 0 1.182.674c.236.003.469-.059.674-.179.201-.118.366-.289.478-.495.118-.212.178-.45.176-.693a1.351 1.351 0 0 0-.176-.684Z"/></svg>