<svg xmlns="http://www.w3.org/2000/svg" viewBox="0 0 50 49">
  <path fill="#fff" d="m10.256 37.348-2.91 7.496c-.06.16-.116.317-.172.471a9.17 9.17 0 0 1-.172.449l-.079.198-.056-.147c-.06-.16-.119-.317-.18-.472a7.269 7.269 0 0 0-.195-.456l-2.937-7.542h-1.74L.824 47.99H2.25l.57-7.06c.02-.2.038-.398.053-.593.016-.188.028-.38.044-.578.068.185.139.367.21.547.076.185.147.373.218.563l2.772 7.121h1.379l2.757-7.09c.071-.18.14-.363.21-.548.072-.185.14-.368.21-.548.014.168.029.337.046.51.02.2.036.4.046.6l.54 7.076h1.559l-.9-10.644h-1.708v.003ZM19.942 46.126a5.064 5.064 0 0 1-.337.188 5.547 5.547 0 0 1-.548.233c-.18.066-.362.114-.547.15a3.06 3.06 0 0 1-.578.053c-.37 0-.674-.069-.915-.203a1.206 1.206 0 0 1-.532-.616c-.114-.273-.172-.61-.172-1.011v-4.721l-1.529.225v4.767c0 .67.1 1.224.292 1.665.195.441.489.765.884.973.396.21.872.315 1.432.315.33 0 .639-.038.93-.112.292-.073.568-.185.832-.33.263-.144.519-.316.765-.516.043-.036.086-.079.132-.117l.22.925h1.184l.015-7.795-1.528.225v5.705-.003ZM28.545 44.542a2.293 2.293 0 0 0-.524-.413c-.2-.114-.41-.212-.631-.291a12.95 12.95 0 0 1-.472-.157 8.155 8.155 0 0 0-.463-.15 9.44 9.44 0 0 1-.449-.142 3.4 3.4 0 0 1-.398-.164 2.626 2.626 0 0 1-.352-.226 1.047 1.047 0 0 1-.256-.284.714.714 0 0 1-.099-.375c0-.16.036-.296.104-.413a.855.855 0 0 1 .314-.291c.14-.082.307-.14.502-.18.195-.04.418-.061.667-.061a4.677 4.677 0 0 1 .788.068c.154.026.309.059.463.097.155.04.312.086.472.134.16.05.304.104.433.165l.104-1.214a7.005 7.005 0 0 0-.563-.21 5.401 5.401 0 0 0-.562-.15 4.425 4.425 0 0 0-.563-.084 6.639 6.639 0 0 0-.547-.023c-.449 0-.86.049-1.23.142-.37.094-.691.236-.967.421s-.487.42-.636.705c-.15.283-.226.62-.226 1.01 0 .28.04.528.12.743.078.216.184.398.313.548.13.15.282.281.457.398.174.114.362.212.562.291.11.04.226.081.345.12.119.04.238.078.352.11l.337.105.322.103c.104.036.208.069.307.1.14.05.268.106.39.172.12.066.223.134.307.21a.78.78 0 0 1 .264.593c0 .25-.084.449-.25.593-.164.144-.38.248-.643.307-.266.06-.547.088-.846.088a4.17 4.17 0 0 1-.532-.038 8.605 8.605 0 0 1-1.275-.269 13.116 13.116 0 0 1-.682-.217l.06 1.274c.26.092.498.163.713.218.215.056.42.102.616.142.195.04.385.066.57.076.185.01.373.016.563.016.44 0 .854-.044 1.244-.127.39-.084.73-.218 1.019-.398.289-.18.517-.416.681-.705.165-.288.249-.633.249-1.034 0-.299-.043-.557-.127-.773a1.78 1.78 0 0 0-.352-.562l.007.002ZM32.152 37.054a.979.979 0 0 0-.517-.142c-.19 0-.365.048-.525.142-.16.096-.286.22-.383.375a.956.956 0 0 0-.142.517 1.025 1.025 0 0 0 .525.9c.16.088.335.134.525.134s.362-.046.517-.135c.154-.09.276-.215.367-.375.089-.16.134-.334.134-.524a1.021 1.021 0 0 0-.501-.892ZM30.839 47.992h1.528v-7.796l-1.528.223v7.573ZM41.23 40.346h-1.876l-2.565 2.818h-.552v-6.49l-1.53.223v11.095h1.53v-3.675h.025l3.062 3.675h1.979l-3.637-4.098 3.563-3.548ZM47.195 47.992h1.98l-3.637-4.098 3.56-3.548h-1.873l-2.564 2.818h-.555v-6.49l-1.529.223v11.095h1.529v-3.675h.025l3.064 3.675Z"/>
  <path fill="#000" d="M12.077 3.077h25.846v25.846H12.077z"/>
  <path fill="#FFE100" d="M41 32H9V0h32v32Zm-15.59-9.626c-.208.357-.217.573-.009.92.146.242.926 1.519 1.392 2.28.466-.761 1.246-2.038 1.392-2.28.208-.347.199-.563-.008-.92-.146-.248-.92-1.514-1.384-2.27-.463.756-1.238 2.022-1.384 2.27Zm-8.793 2.91h2.93V14.638h-2.93v10.646Zm10.357-8.07h3.709L29.15 19.72l1.707 2.862-1.645 2.702h3.006c.483-.79 1.206-2.011 1.357-2.261.216-.361.206-.586-.009-.957-.15-.257-.955-1.531-1.436-2.316l1.445-2.393c.216-.36.206-.585-.009-.956-.11-.189-1.09-1.763-1.09-1.763h-7.041l1.538 2.577Zm-5.112.527c.144.243.153.393.013.627l-1.903 3.114h3.29c.019-.03 1.588-2.592 1.804-2.95.216-.36.206-.584-.008-.953-.234-.397-.235-.397-1.795-2.941h-3.291s1.865 3.057 1.89 3.103ZM16.583 7.005v5.99h1.966v-5.99h-1.966Zm2.27 0 1.35 5.99h2.152l-1.131-5.037a1.184 1.184 0 0 0-.41-.679 1.136 1.136 0 0 0-.754-.274h-1.207Zm3.796 0v5.99h1.967v-5.99H22.65Zm4.946 0v5.99h1.966v-5.99h-1.966Zm3.948 0a259.179 259.179 0 0 0-.717 1.177 95.675 95.675 0 0 1-.869 1.413.82.82 0 0 0-.135.405c.01.15.06.296.143.422.034.05.094.149.181.295s.192.316.313.51c.121.195.243.394.367.6.124.204.24.396.35.573l.367.595h2.16c-.158-.258-.298-.49-.422-.696a166.018 166.018 0 0 0-.797-1.308 49.13 49.13 0 0 1-.308-.506 4.499 4.499 0 0 0-.127-.207.512.512 0 0 1-.1-.278.54.54 0 0 1 .083-.27l1.671-2.725h-2.16Zm-5.442-.11a1.204 1.204 0 0 0-1.038.59 1.15 1.15 0 0 0-.16.6 1.192 1.192 0 0 0 1.04 1.188l.158.01c.21.003.418-.054.6-.16a1.2 1.2 0 0 0 .59-1.038 1.155 1.155 0 0 0-.161-.6 1.213 1.213 0 0 0-.43-.43 1.155 1.155 0 0 0-.6-.16Z"/>
</svg>
