<svg xmlns="http://www.w3.org/2000/svg" viewBox="0 0 224 84"><path fill="#114F9D" d="M0 0h224v84H0z"/><path fill="#fff" d="M20 63V21.004h13.78V63H20Zm32.528-35.312L60.453 63h-15.08l-9.464-41.996h8.459a7.965 7.965 0 0 1 5.293 1.922 8.31 8.31 0 0 1 2.867 4.762ZM62.523 63V21.004h13.78V63h-13.78Zm24.189-26.026a8.213 8.213 0 0 1-4.228-1.124 8.336 8.336 0 0 1-3.046-3.046 8.206 8.206 0 0 1-1.125-4.229 8.056 8.056 0 0 1 1.125-4.2 8.437 8.437 0 0 1 3.046-3.016 8.233 8.233 0 0 1 4.228-1.124 8.083 8.083 0 0 1 4.199 1.124 8.504 8.504 0 0 1 3.016 3.016 8.075 8.075 0 0 1 1.125 4.2 8.226 8.226 0 0 1-1.125 4.23 8.4 8.4 0 0 1-3.016 3.045 8.059 8.059 0 0 1-4.201 1.124h.002ZM97.18 63V21.004h13.781V63H97.181Zm31.227-19.046c.039.04.334.524.887 1.449.553.925 1.272 2.108 2.159 3.549a1143.28 1143.28 0 0 1 5.589 9.168A854.89 854.89 0 0 0 140 63h-15.141c-.947-1.538-1.804-2.928-2.573-4.17a388.795 388.795 0 0 1-2.453-4.022 355.984 355.984 0 0 0-2.574-4.2 210.645 210.645 0 0 1-2.188-3.578 62.13 62.13 0 0 0-1.272-2.07 6.127 6.127 0 0 1-1.005-2.958 5.745 5.745 0 0 1 .946-2.84c.236-.394.67-1.094 1.301-2.1.631-1.006 1.37-2.198 2.218-3.578.847-1.38 1.706-2.79 2.574-4.23.869-1.439 1.686-2.79 2.453-4.052.77-1.26 1.628-2.66 2.573-4.2H140l-11.711 19.106a3.773 3.773 0 0 0-.592 1.894c.039.706.286 1.385.709 1.952h.002Z"/><path fill="#B2CFF5" d="M184.508 26.447a10.563 10.563 0 0 0-2.75-2.87 13.21 13.21 0 0 0-3.992-1.893 18.904 18.904 0 0 0-5.323-.679H156V63h6.21V47.917h10.706c2.416.036 4.8-.555 6.92-1.716a12.815 12.815 0 0 0 4.879-4.791 14.108 14.108 0 0 0 1.804-7.275 17.207 17.207 0 0 0-.473-4.081 11.753 11.753 0 0 0-1.538-3.607Zm-5.5 12.746a6.989 6.989 0 0 1-3.342 2.75 13.777 13.777 0 0 1-5.234.887h-8.222V26.15h9.05a11.265 11.265 0 0 1 5.027.976 6.483 6.483 0 0 1 2.928 2.839 9.523 9.523 0 0 1 .976 4.465 8.745 8.745 0 0 1-1.183 4.763ZM201.838 21.005c-.947.473-1.844.937-2.692 1.39-.848.454-1.675.877-2.483 1.272-.81.394-1.628.788-2.455 1.183a28.75 28.75 0 0 1-2.544 1.064c-.867.317-1.793.632-2.779.946l1.301 5.027a56.662 56.662 0 0 0 3.223-1.064c.946-.347 1.874-.741 2.78-1.183a42.985 42.985 0 0 0 2.661-1.42l.031-.018V63h6.15V21.006h-3.193Z"/></svg>