<svg xmlns="http://www.w3.org/2000/svg" viewBox="0 0 43 24" fill="none"><path fill="#fff" d="M0 17.997V5.998h4v12H0ZM9.244 7.908l2.264 10.09H7.2l-2.704-12h2.417a2.276 2.276 0 0 1 1.513.55c.42.346.66.826.819 1.36ZM12 17.998v-12h4v12h-4Zm7.01-7.437a2.382 2.382 0 0 1-2.4-2.4 2.301 2.301 0 0 1 .322-1.2A2.41 2.41 0 0 1 20.21 6.1c.356.21.653.506.862.862a2.3 2.3 0 0 1 .321 1.2 2.35 2.35 0 0 1-.321 1.208 2.4 2.4 0 0 1-.862.87 2.3 2.3 0 0 1-1.2.321ZM22 17.997V5.998h4v12h-4Zm8.974-5.441c.01.011.095.15.253.414s.364.602.617 1.014a315.936 315.936 0 0 1 1.597 2.62c.247.41.529.875.845 1.393H29.96c-.27-.44-.516-.836-.736-1.191-.22-.355-.453-.738-.7-1.15-.248-.41-.493-.81-.736-1.2-.242-.388-.45-.73-.625-1.022-.175-.292-.296-.49-.363-.591a1.747 1.747 0 0 1-.287-.845c.016-.29.11-.57.27-.812.067-.112.191-.312.371-.6a182.106 182.106 0 0 0 1.37-2.23l.7-1.158.736-1.2h4.326l-3.346 5.459a1.08 1.08 0 0 0-.17.54c.012.203.083.397.204.559Z"/><path fill="#8BB5EB" d="M41.094 6c-.27.135-.527.267-.769.397s-.479.25-.71.363c-.23.113-.464.226-.701.338a8.245 8.245 0 0 1-.727.304c-.248.09-.512.18-.794.27l.372 1.437c.338-.101.645-.202.921-.304a8.26 8.26 0 0 0 .794-.338c.254-.124.507-.259.76-.405l.01-.005V18h1.757V6h-.913Z"/></svg>