<svg xmlns="http://www.w3.org/2000/svg" viewBox="0 0 71 36"><path fill="#fff" d="M0 15.003V1.005h4.593v13.998H0Zm10.843-11.77 2.641 11.77H8.457L5.303 1.005h2.82a2.655 2.655 0 0 1 1.764.64c.491.404.829.964.956 1.588Zm3.331 11.77V1.005h4.594v13.998h-4.594Zm8.063-8.675a2.737 2.737 0 0 1-1.409-.375 2.778 2.778 0 0 1-1.015-1.015 2.735 2.735 0 0 1-.375-1.41 2.685 2.685 0 0 1 .375-1.4 2.812 2.812 0 0 1 3.824-1.005c.415.244.761.59 1.005 1.005.251.424.38.908.375 1.4.005.496-.125.983-.375 1.41a2.8 2.8 0 0 1-1.005 1.015c-.424.251-.908.38-1.4.375Zm3.49 8.675V1.005h4.594v13.998h-4.594Zm10.409-6.348c.013.013.111.174.296.483.184.308.424.702.72 1.183a377.185 377.185 0 0 1 1.862 3.056c.289.48.617 1.022.986 1.626h-5.047l-.858-1.39c-.256-.414-.529-.86-.817-1.34-.29-.48-.576-.946-.858-1.4a71.06 71.06 0 0 1-.73-1.193 21.112 21.112 0 0 0-.424-.69 2.04 2.04 0 0 1-.334-.986c.019-.338.128-.665.315-.947.078-.131.223-.365.433-.7a216.7 216.7 0 0 0 1.598-2.603l.817-1.35.858-1.4H40l-3.904 6.369c-.12.189-.189.407-.197.63.013.236.095.463.236.652h.001Z"/><path fill="#EFB4ED" d="M10.616 21.015H8.154l-5.35 6.165h-.736v-6.165H0v13.984h2.068v-6.322h.07l5.82 6.342 2.816-.02-6.677-6.933 6.519-7.051ZM15.451 33.551a1.74 1.74 0 0 1-.207.01 1.056 1.056 0 0 1-.432-.079.705.705 0 0 1-.296-.246 1.07 1.07 0 0 1-.167-.424 3.276 3.276 0 0 1-.05-.61V20.13l-2.009.295V33.09a2.68 2.68 0 0 0 .158.974c.094.254.25.48.453.66.202.174.441.298.7.365.285.074.58.11.876.108a4.871 4.871 0 0 0 .876-.079c.138-.026.253-.052.345-.079l.197-1.556-.237.04a5.036 5.036 0 0 1-.207.029ZM26.432 33.758a.898.898 0 0 1-.768-.315 1.693 1.693 0 0 1-.217-1.044l.04-4.057a4.735 4.735 0 0 0-.158-1.261c-.096-.36-.256-.7-.473-1.004a2.663 2.663 0 0 0-.817-.729 4.16 4.16 0 0 0-1.192-.453 7.008 7.008 0 0 0-1.556-.157c-.415 0-.829.026-1.24.078a8.54 8.54 0 0 0-1.153.227c-.35.095-.696.21-1.034.345l-.236 1.674c.328-.119.64-.218.935-.296.296-.078.581-.144.857-.197.27-.052.543-.088.817-.108.27-.02.535-.03.798-.03a4.4 4.4 0 0 1 1.192.138c.284.071.544.214.758.414.19.194.326.435.394.699.084.325.124.66.118.995l-.002.494-2.302.156a6.117 6.117 0 0 0-2.285.512 3.272 3.272 0 0 0-1.35 1.093 2.543 2.543 0 0 0-.442 1.447c-.004.485.114.962.344 1.389.241.438.604.797 1.044 1.034a3.51 3.51 0 0 0 1.743.394 4.526 4.526 0 0 0 1.665-.276 3.84 3.84 0 0 0 1.24-.788c.137-.13.266-.269.388-.413.038.204.11.4.213.58.176.302.445.537.768.67.357.143.739.213 1.123.207.118 0 .233-.003.345-.01.11-.007.218-.023.325-.05.105-.026.2-.049.285-.068.077-.018.153-.04.227-.069l.216-1.32a1.72 1.72 0 0 1-.335.08 2.27 2.27 0 0 1-.275.02Zm-3.28-.886a3.784 3.784 0 0 1-.689.433 3.09 3.09 0 0 1-.768.256c-.276.053-.556.08-.837.079-.321.01-.64-.051-.936-.177a1.288 1.288 0 0 1-.58-.503 1.473 1.473 0 0 1-.198-.778 1.491 1.491 0 0 1 .256-.925c.215-.25.505-.424.828-.493a5.99 5.99 0 0 1 1.536-.157h1.724l-.008 1.955c-.1.112-.21.216-.328.31ZM35.137 30.469a2.959 2.959 0 0 0-.69-.542 5.384 5.384 0 0 0-.827-.384c-.21-.066-.417-.135-.62-.207a11.007 11.007 0 0 0-.61-.197c-.205-.059-.402-.121-.592-.187a4.261 4.261 0 0 1-.521-.217 3.473 3.473 0 0 1-.463-.295 1.29 1.29 0 0 1-.335-.375.947.947 0 0 1-.128-.492 1.02 1.02 0 0 1 .138-.542 1.12 1.12 0 0 1 .414-.384 2.23 2.23 0 0 1 .66-.236 4.42 4.42 0 0 1 .876-.079 6.366 6.366 0 0 1 1.034.089c.204.033.406.075.61.128.205.052.41.111.62.177.195.06.386.132.571.216l.139-1.595a9.463 9.463 0 0 0-.739-.276 7.351 7.351 0 0 0-.738-.197 5.912 5.912 0 0 0-.739-.108 8.95 8.95 0 0 0-.72-.03 6.5 6.5 0 0 0-1.614.188c-.452.11-.881.296-1.27.551-.353.233-.641.552-.838.926a2.822 2.822 0 0 0-.295 1.33c-.006.331.047.661.158.974.093.263.233.506.413.72.175.2.378.376.6.521.233.153.481.281.74.384.144.053.295.105.453.157.157.053.311.102.463.148l.443.138c.145.046.285.092.423.138.138.045.272.089.404.128.176.062.347.138.512.226.145.077.28.17.404.276.109.096.196.213.256.345.06.137.09.284.088.433a.982.982 0 0 1-.325.778 1.886 1.886 0 0 1-.847.404c-.365.08-.738.12-1.112.118a5.547 5.547 0 0 1-.7-.049 10.45 10.45 0 0 1-.807-.138c-.282-.059-.571-.131-.866-.217-.296-.085-.595-.18-.897-.285l.079 1.674c.341.118.653.214.935.286.283.072.552.134.808.187.247.051.497.084.748.099.243.013.49.02.739.02a7.672 7.672 0 0 0 1.635-.168 4.21 4.21 0 0 0 1.34-.522c.372-.227.68-.546.896-.925.225-.417.337-.886.324-1.36a2.755 2.755 0 0 0-.167-1.014 2.302 2.302 0 0 0-.463-.738ZM44.374 30.469a2.969 2.969 0 0 0-.69-.542 5.384 5.384 0 0 0-.827-.384c-.21-.066-.417-.135-.62-.207a11.01 11.01 0 0 0-.611-.197c-.204-.059-.4-.121-.59-.187a4.277 4.277 0 0 1-.523-.217 3.47 3.47 0 0 1-.463-.295 1.289 1.289 0 0 1-.334-.375.944.944 0 0 1-.129-.492 1.02 1.02 0 0 1 .139-.542c.102-.161.245-.293.413-.384.206-.113.429-.193.66-.236a4.41 4.41 0 0 1 .876-.079 6.383 6.383 0 0 1 1.035.089c.203.033.406.075.61.128.203.052.41.111.62.177.195.06.386.132.571.216l.139-1.595a9.463 9.463 0 0 0-.739-.276 7.332 7.332 0 0 0-.739-.197 5.899 5.899 0 0 0-.738-.108 8.91 8.91 0 0 0-.72-.03 6.494 6.494 0 0 0-1.614.188c-.452.11-.882.296-1.27.551-.353.233-.641.552-.837.926a2.81 2.81 0 0 0-.296 1.33 2.78 2.78 0 0 0 .158.974c.093.263.233.506.414.72.175.2.377.376.6.521.233.153.48.281.739.384.144.053.295.105.453.157.157.053.311.102.463.148l.443.138.423.138c.138.045.272.089.404.128.176.062.347.138.512.226.145.077.28.17.404.276a1.012 1.012 0 0 1 .345.778.981.981 0 0 1-.326.778 1.886 1.886 0 0 1-.847.404c-.365.08-.738.12-1.112.118a5.544 5.544 0 0 1-.7-.049 10.45 10.45 0 0 1-.807-.138c-.282-.059-.571-.131-.867-.217-.295-.085-.594-.18-.896-.285l.08 1.674c.34.118.652.214.935.286.282.072.552.134.807.187.247.051.497.084.749.099.242.013.489.02.738.02a7.659 7.659 0 0 0 1.635-.168 4.207 4.207 0 0 0 1.339-.522c.373-.227.681-.546.896-.925.226-.417.338-.886.325-1.36a2.755 2.755 0 0 0-.167-1.014 2.3 2.3 0 0 0-.463-.738ZM49.11 20.63a1.276 1.276 0 0 0-.678-.186 1.325 1.325 0 0 0-.69.187c-.205.12-.378.29-.502.492-.125.204-.19.44-.187.68-.002.242.063.48.187.689.12.206.294.376.502.492.21.118.448.18.69.177.238.003.472-.058.679-.177.202-.117.37-.287.483-.492.118-.21.179-.448.177-.69a1.331 1.331 0 0 0-.178-.679 1.391 1.391 0 0 0-.482-.492ZM47.387 34.999h2.01V24.757l-2.01.295V35ZM58.693 30.469a2.959 2.959 0 0 0-.69-.542 5.388 5.388 0 0 0-.827-.384c-.21-.066-.417-.135-.62-.207a10.959 10.959 0 0 0-.611-.197c-.204-.059-.4-.121-.591-.187a4.258 4.258 0 0 1-.522-.217 3.452 3.452 0 0 1-.463-.295 1.29 1.29 0 0 1-.334-.375.944.944 0 0 1-.129-.492 1.02 1.02 0 0 1 .138-.542c.103-.161.245-.293.414-.384.206-.113.429-.193.66-.236.289-.056.582-.082.876-.079a6.378 6.378 0 0 1 1.034.089c.204.033.407.075.61.128.204.052.41.111.621.177.195.06.386.132.571.216l.138-1.595a9.463 9.463 0 0 0-.738-.276 7.298 7.298 0 0 0-.739-.197 5.899 5.899 0 0 0-.738-.108 8.898 8.898 0 0 0-.72-.03 6.495 6.495 0 0 0-1.614.188c-.452.11-.882.296-1.27.551-.353.233-.641.552-.838.926a2.813 2.813 0 0 0-.295 1.33c-.006.331.047.661.158.974.093.263.233.506.413.72.175.2.378.376.601.521.233.153.48.281.739.384a22.29 22.29 0 0 0 .916.305l.442.138c.145.046.286.091.424.138.138.046.272.089.404.128.176.062.347.138.512.226.145.077.28.17.404.276a1.01 1.01 0 0 1 .344.778.982.982 0 0 1-.325.778 1.888 1.888 0 0 1-.847.404c-.365.08-.738.12-1.112.118a5.524 5.524 0 0 1-.7-.049 10.452 10.452 0 0 1-.807-.138c-.282-.059-.571-.131-.867-.217-.295-.085-.594-.18-.896-.285l.079 1.674c.341.118.653.214.935.286.283.072.552.134.808.187.247.051.497.084.748.099.243.013.49.02.739.02a7.66 7.66 0 0 0 1.635-.168 4.213 4.213 0 0 0 1.34-.522c.371-.227.68-.546.895-.925.226-.417.338-.886.325-1.36a2.755 2.755 0 0 0-.167-1.014 2.298 2.298 0 0 0-.463-.738ZM67.774 34.999h2.6l-4.778-5.384 4.68-4.661h-2.463l-3.37 3.703h-.726v-8.529l-2.01.296v14.575h2.01v-4.826h.032L67.775 35Z"/></svg>