<svg xmlns="http://www.w3.org/2000/svg" style="width:6.5em;height:2.6em" viewBox="0 0 65 26">
    <path fill="currentColor" fill-rule="evenodd" d="M31.088 13.56c-.252-.427-.266-.69-.024-1.101L34.4 7h-4.626s-2.78 4.542-3.16 5.173c-.376.63-.36 1.023.015 1.67.38.647 3.145 5.157 3.145 5.157h4.626s-3.275-5.374-3.311-5.44M21.594 19h4.208V7h-4.208zM18.94 6.77a2.392 2.392 0 0 0-2.381 2.403c0 1.327 1.065 2.406 2.382 2.406a2.399 2.399 0 0 0 2.388-2.406 2.396 2.396 0 0 0-2.388-2.403M12.064 19h4.205V7h-4.205zM0 19h4.197V7H0zM9.509 8.928A2.381 2.381 0 0 0 7.179 7H4.475l2.717 12h4.57L9.508 8.928zM61.742 15.344c.242.417.253.67.01 1.077-.17.282-.984 1.66-1.528 2.55h-3.385l1.853-3.046-1.922-3.227 1.724-2.825h-4.176l-1.732-2.905h7.929s1.102 1.776 1.227 1.989c.242.417.253.67.01 1.077l-1.628 2.698c.542.885 1.448 2.322 1.618 2.612zm-6.06 1.385c-.163.272-1.043 1.712-1.567 2.57a1064.24 1064.24 0 0 1-1.567-2.57c-.235-.392-.224-.635.009-1.038.164-.278 1.036-1.707 1.558-2.559.522.852 1.395 2.28 1.558 2.56.233.402.244.645.01 1.037zm-3.512-5.37c-.244.405-2.03 3.326-2.03 3.326h-3.705l2.142-3.512c.158-.264.148-.432-.014-.706a2428.14 2428.14 0 0 0-2.128-3.499h3.705c1.757 2.868 1.757 2.868 2.02 3.316.242.417.253.669.01 1.074zm-9.512 7.612h3.299V6.968h-3.3v12.003zM39 26h26V0H39v26z"/>
</svg>
