<svg xmlns="http://www.w3.org/2000/svg" viewBox="0 0 74 14"><path fill="#000" d="M73.143 13.002 69 6.742l3.785-5.74h-1.893l-2.75 4.57-3.016-4.57h-2.081l3.887 5.824-4.075 6.176h1.928l3.033-4.932L71.078 13h2.065ZM46.333 1.007h-3.701s2.103 3.452 2.127 3.496a.582.582 0 0 1 .014.705l-2.141 3.51h3.702s1.785-2.92 2.029-3.325a.885.885 0 0 0-.01-1.072c-.263-.449-.264-.448-2.02-3.314ZM42.154 1.007h-3.297V13h3.297V1.007ZM57.926 2.994c-.124-.212-1.226-1.987-1.226-1.987h-7.922l1.73 2.903h4.173L52.96 6.732l1.919 3.224-1.852 3.043h3.382c.544-.89 1.357-2.265 1.527-2.547a.888.888 0 0 0-.01-1.077c-.17-.289-1.075-1.725-1.617-2.61l1.627-2.695a.888.888 0 0 0-.01-1.076Z"/><path fill="#000" d="M50.306 7.121a377.05 377.05 0 0 0-1.557 2.557.855.855 0 0 0-.01 1.038c.164.271 1.043 1.71 1.567 2.568a906.39 906.39 0 0 0 1.566-2.568.856.856 0 0 0-.01-1.038 391.068 391.068 0 0 0-1.556-2.557ZM0 13.002v-12h3.937v12H0Zm9.294-10.09 2.264 10.09H7.25l-2.704-12h2.417a2.276 2.276 0 0 1 1.513.55c.42.346.71.827.819 1.36Zm2.855 10.09v-12h3.938v12h-3.938Zm6.912-7.436a2.382 2.382 0 0 1-2.4-2.4 2.301 2.301 0 0 1 .321-1.2 2.41 2.41 0 0 1 3.278-.862c.356.21.653.506.862.862.215.363.326.778.321 1.2a2.35 2.35 0 0 1-.321 1.208 2.4 2.4 0 0 1-.862.87 2.302 2.302 0 0 1-1.2.322Zm2.99 7.436v-12h3.938v12h-3.937Zm8.923-5.442c.01.012.095.15.253.414s.364.603.617 1.014a316.545 316.545 0 0 1 1.597 2.62c.247.411.529.876.845 1.394H29.96c-.27-.44-.516-.837-.736-1.192-.22-.354-.453-.738-.7-1.149a99.5 99.5 0 0 0-.736-1.2c-.242-.389-.45-.73-.625-1.022a17.98 17.98 0 0 0-.363-.592 1.747 1.747 0 0 1-.287-.845c.016-.29.11-.57.27-.811.067-.113.191-.313.371-.6s.392-.628.634-1.022c.242-.395.488-.798.736-1.209l.7-1.157.736-1.2h4.326L30.94 6.46a1.08 1.08 0 0 0-.17.541c.012.202.082.396.203.558Z"/></svg>