<svg xmlns="http://www.w3.org/2000/svg" style="width:8.3em;height:2.0em" viewBox="0 0 83 20">
    <path fill="currentColor" d="M81.6425658 4.30009383c.4720916 0 .8141257.293896.8141257.7499415 0 .4231089-.3420341.71658262-.8141257.71658262-.4560455 0-.8149702-.29347373-.8149702-.71658262 0-.4560455.3589247-.7499415.8149702-.7499415zm-.6029935 11.61395897h1.1895187V7.36235497h-1.1895187m-12.0227108 0V8.6654628c.618195-.79807966 1.4492112-1.49861623 2.6712443-1.49861623 1.2537029 0 1.824182.63550786 2.0847192 1.48257017.683646-.79807964 1.5307083-1.48257017 2.7527413-1.48257017 1.8241821 0 2.2641815 1.30310782 2.2641815 2.83466065v5.91254558h-1.1890964v-5.7335055c0-1.17262812-.3095198-1.889633-1.4010732-1.889633-1.0421484 0-1.8892107.94502764-2.2312448 1.3685588v6.2545797h-1.2216108v-5.70099113c0-1.17262813-.2770055-1.92214737-1.3685588-1.92214737-1.0586168 0-1.8892108.9289816-2.2962736 1.40107315v6.22206535h-1.1895187V7.36235497h1.12449m-9.2868601 6.32003073c.4074851.5540108 1.3195761 1.3360444 2.5086725 1.3360444 1.5475989 0 2.491782-1.1240677 2.491782-3.35573488 0-2.19873053-.830594-3.40429528-2.3456785-3.40429528-1.1561598 0-2.0517825.7820336-2.654776 1.53113057v3.8928552zm-1.1890965 5.4894366V7.36235497h1.1405361V8.6819311c.7655653-.96065142 1.7101706-1.51508453 2.9153131-1.51508453 2.2641815 0 3.4047176 1.72706123 3.4047176 4.46375656 0 2.68729037-1.1565821 4.47895807-3.5512433 4.47895807-1.4821479 0-2.3942389-.7985019-2.720227-1.2380791v4.3003402h-1.1890965zM53.9622925 3.56746516l.7165826.8470623-2.4596899 1.9871761-.5531663-.66802223 2.2962736-2.16621617zm1.1236454 6.2545797C54.6788751 9.2849246 53.7828301 8.274446 52.4961906 8.274446c-1.4331652 0-2.4107072 1.17305038-2.4107072 3.37220317 0 1.6776563.6029935 3.37178093 2.5247186 3.37178093 1.2220331 0 2.0196904-.8635306 2.4757359-1.4171192V9.82204487zm.065451 4.90291154c-.4231089.5210742-1.3356222 1.3846048-2.8338161 1.3846048-2.3946612 0-3.48621457-1.7916677-3.48621457-4.44686598 0-2.720227 1.28706177-4.49584865 3.51830667-4.49584865 1.2870618 0 2.1831067.6515539 2.801724 1.46652412V7.36235495h1.1240677v8.55169783h-1.059039l-.0650287-1.1890964zm-14.98151723-1.18909648c1.05861675.94502768 2.16663843 1.49861618 3.40471754 1.49861618 1.46525735 0 2.57285677-.7655652 2.57285677-2.16621613 0-1.23765684-.56963463-1.79208995-2.71980475-2.44364386-2.55723296-.7816113-3.5672893-1.5636449-3.5672893-3.30632992 0-2.01969044 1.6126276-3.14375817 3.7463294-3.14375817 1.49861622 0 2.76920968.55401085 3.74675167 1.6776563l-.7334732.76598757c-.84664005-.9610737-1.97113004-1.36813653-2.99681017-1.36813653-1.3850271 0-2.44322158.6515539-2.44322158 1.97070777 0 1.3520905 1.0096341 1.69370236 3.0128562 2.37777063 2.3946612.81454795 3.25776955 1.6126276 3.25776955 3.35573487 0 2.0686731-1.56364492 3.3553126-3.90932345 3.3553126-1.66076573 0-3.11082154-.7165826-4.08794127-1.7591533l.71658262-.81454798M31.0878023 10.55918018c-.2517074-.42642875-.2661333-.68861697-.02338-1.10029556L34.399462 4h-4.6267395s-2.7797248 4.54205453-3.1597731 5.17316245c-.3764003.63027925-.3601505 1.02273292.0154208 1.67041405C27.0084185 11.49042897 29.7727225 16 29.7727225 16h4.6267395s-3.2751804-5.37353258-3.3116597-5.44081982M21.5941377 16h4.2077247V4h-4.2077247m-2.653584-.22989127c-1.3163763 0-2.3817762 1.07539896-2.3817762 2.40310754 0 1.32687533 1.0653999 2.4056073 2.3817762 2.4056073 1.3185428 0 2.3884423-1.07873197 2.3884423-2.4056073 0-1.32770858-1.0698995-2.40310754-2.3884423-2.40310754M12.0635332 16h4.2052375V4h-4.2052375M0 16h4.19744416V4H0m9.50872938 1.92796177C9.29333553 4.82832914 8.33144198 4 7.17852938 4H4.47507953l2.71654925 12h4.56969912L9.50872938 5.92796177z"/>
</svg>
