<svg xmlns="http://www.w3.org/2000/svg" viewBox="0 0 74 24"><path fill="#FFA90A" d="M0 0h74v24H0z"/><path fill="#0A2343" d="M6.004 18V6.001h3.937V18H6.004Zm9.294-10.09L17.562 18h-4.309L10.55 6.001h2.416a2.276 2.276 0 0 1 1.513.55c.42.345.71.826.82 1.36ZM18.154 18V6.001h3.937V18h-3.937Zm6.91-7.436a2.382 2.382 0 0 1-2.4-2.4 2.303 2.303 0 0 1 .323-1.2 2.411 2.411 0 0 1 3.278-.861c.355.209.652.506.861.861.215.364.326.779.322 1.2a2.4 2.4 0 0 1-1.183 2.079 2.302 2.302 0 0 1-1.2.321ZM28.057 18V6.001h3.937V18h-3.937Zm8.922-5.442c.011.012.096.15.253.414.158.265.364.603.617 1.014a315.936 315.936 0 0 1 1.597 2.62c.247.411.529.876.845 1.394h-4.326c-.27-.44-.516-.837-.735-1.191-.22-.355-.453-.738-.7-1.15-.249-.41-.494-.81-.737-1.2-.242-.389-.45-.73-.625-1.022-.174-.293-.296-.49-.363-.591a1.748 1.748 0 0 1-.287-.845c.017-.29.11-.57.27-.812.068-.113.192-.313.372-.6s.391-.628.633-1.022c.243-.395.488-.797.736-1.209l.7-1.157.736-1.2h4.326l-3.346 5.458a1.08 1.08 0 0 0-.17.542c.012.201.082.395.203.557h.001ZM53.145 7.554a3.021 3.021 0 0 0-.786-.82 3.767 3.767 0 0 0-1.14-.54A5.402 5.402 0 0 0 49.697 6H45v11.997h1.774v-4.309h3.059c.69.011 1.372-.158 1.977-.49a3.655 3.655 0 0 0 1.394-1.368 4.034 4.034 0 0 0 .515-2.079 4.928 4.928 0 0 0-.135-1.166 3.361 3.361 0 0 0-.44-1.03Zm-1.572 3.642a2 2 0 0 1-.954.786c-.478.18-.986.267-1.496.253h-2.349V7.47h2.586c.493-.018.985.077 1.436.28.359.172.652.457.837.81.195.396.29.834.278 1.276.02.476-.098.948-.338 1.36ZM57.327 6.397c-.242.13-.479.25-.71.363-.23.113-.464.226-.701.338a8.18 8.18 0 0 1-.727.304c-.248.09-.512.18-.794.27l.372 1.437c.338-.101.645-.203.92-.304.271-.1.536-.212.795-.338.254-.124.507-.26.76-.406l.01-.005v9.942h1.756V6h-.912c-.27.135-.527.267-.77.397ZM68.218 13.502a2.66 2.66 0 0 0-.541-.912 2.628 2.628 0 0 0-.887-.625 4.264 4.264 0 0 0-1.209-.321v-.051c.506-.16.976-.416 1.386-.752.366-.3.668-.67.887-1.09a2.81 2.81 0 0 0 .313-1.3 2.344 2.344 0 0 0-.254-1.108 2.357 2.357 0 0 0-.743-.828A3.448 3.448 0 0 0 65.979 6a6.845 6.845 0 0 0-1.597-.17 8.343 8.343 0 0 0-2.13.296c-.339.093-.667.22-.98.381l.237 1.335c.248-.101.487-.189.718-.262A6.864 6.864 0 0 1 63.52 7.3c.196-.022.394-.033.591-.034.358-.005.715.029 1.065.102.254.05.495.151.71.296.175.123.312.293.397.49.089.222.132.46.126.7a1.96 1.96 0 0 1-.228.947 2.191 2.191 0 0 1-.642.727c-.3.214-.634.374-.988.473a4.483 4.483 0 0 1-1.268.169h-.32l-.203 1.318h.54c.499-.007.997.036 1.487.127.367.066.72.197 1.04.389.261.16.474.387.616.659.142.292.211.613.203.938.009.328-.055.653-.186.954a1.632 1.632 0 0 1-.566.659c-.293.19-.62.323-.963.389-.453.09-.915.133-1.377.126-.17 0-.336-.005-.499-.016a9.043 9.043 0 0 1-1.081-.144c-.197-.04-.414-.087-.65-.144l-.22 1.437c.247.045.486.087.718.126.23.04.459.073.684.102.225.027.445.047.659.058.214.012.422.018.625.018a8.305 8.305 0 0 0 1.606-.144c.45-.084.885-.232 1.292-.44.356-.18.677-.423.947-.717a2.87 2.87 0 0 0 .574-.972c.134-.394.2-.809.194-1.225a3.471 3.471 0 0 0-.186-1.167Z"/></svg>