<svg xmlns="http://www.w3.org/2000/svg" viewBox="0 0 104 104"><path fill="#fff" fill-rule="evenodd" d="M0 0h104v104H0V0Zm36.346 47.953A5.737 5.737 0 0 1 39.474 47h6.877v34.69h-9.533V58.17l-8.17 6.147-8.17-6.147v12.278L11 77.572V47h6.82c1.113.008 2.2.339 3.128.953.787.489 7.21 5.94 7.699 6.356.488-.42 6.912-5.872 7.699-6.356ZM47.73 47H58.44l.643 1.05.003.004v.001l.001.002c4.435 7.237 4.468 7.291 5.194 8.525a2.563 2.563 0 0 1 .029 3.106c-.706 1.173-5.87 9.617-5.87 9.617H47.73l6.193-10.151a1.683 1.683 0 0 0-.039-2.043C53.814 56.988 47.731 47 47.731 47Zm44.249 5.749C91.62 52.135 88.432 47 88.432 47h-22.92l5.006 8.395H82.59l-4.984 8.166 5.557 9.326-5.358 8.811h9.785c1.092-1.787 2.56-4.252 3.52-5.864.422-.71.746-1.254.896-1.502a2.57 2.57 0 0 0-.028-3.116c-.249-.424-1.046-1.703-1.975-3.195-.902-1.448-1.93-3.095-2.7-4.355 0 0 4.213-6.982 4.704-7.8a2.57 2.57 0 0 0-.027-3.117ZM69.93 64.82c-1.508 2.465-4.031 6.593-4.503 7.399a2.474 2.474 0 0 0-.028 3c.473.786 3.016 4.947 4.531 7.426 1.516-2.479 4.058-6.645 4.532-7.426a2.473 2.473 0 0 0-.028-3c-.472-.806-2.99-4.934-4.504-7.399ZM24 22.468v19.594h6.43V22.468H24Zm18.878 19.594L39.18 25.587a3.877 3.877 0 0 0-1.338-2.222 3.717 3.717 0 0 0-2.47-.897h-3.948l4.416 19.594h7.038Zm.966-19.594v19.594h6.431V22.468h-6.43Zm9.315 6.927c.598.35 1.28.531 1.973.525a3.761 3.761 0 0 0 1.96-.525 3.92 3.92 0 0 0 1.407-1.421c.35-.598.532-1.28.525-1.973a3.767 3.767 0 0 0-.525-1.96 3.967 3.967 0 0 0-1.407-1.407 3.773 3.773 0 0 0-1.96-.524 3.843 3.843 0 0 0-1.973.524 3.938 3.938 0 0 0-1.421 1.407 3.759 3.759 0 0 0-.525 1.96 3.829 3.829 0 0 0 .525 1.973 3.89 3.89 0 0 0 1.421 1.421Zm6.859-6.927v19.594h6.431V22.468h-6.431Zm14.986 11.384a15.153 15.153 0 0 0-.414-.676 1.676 1.676 0 0 1-.331-.91c.011-.314.107-.62.276-.884L80 22.468h-7.066c-.44.718-.841 1.371-1.2 1.96-.358.588-.74 1.218-1.145 1.89a299.888 299.888 0 0 1-2.237 3.642c-.294.47-.496.796-.607.98a2.68 2.68 0 0 0-.441 1.325c.034.493.196.968.469 1.38.11.166.308.488.594.966.284.478.624 1.034 1.02 1.67.396.635.797 1.288 1.202 1.96.404.67.785 1.296 1.144 1.876.36.58.76 1.228 1.201 1.945H80c-.516-.846-.976-1.605-1.38-2.276a543.162 543.162 0 0 0-2.608-4.278c-.414-.672-.75-1.224-1.008-1.656Z" clip-rule="evenodd"/></svg>