<svg xmlns="http://www.w3.org/2000/svg" viewBox="0 0 61 36"><path fill="#fff" d="M0 15.003V1.005h4.593v13.998H0Zm10.843-11.77 2.641 11.77H8.457L5.303 1.005h2.82a2.655 2.655 0 0 1 1.764.64c.491.404.829.964.956 1.587Zm3.331 11.77V1.005h4.594v13.998h-4.594Zm8.063-8.675a2.737 2.737 0 0 1-1.409-.375 2.778 2.778 0 0 1-1.015-1.015 2.735 2.735 0 0 1-.375-1.41 2.685 2.685 0 0 1 .375-1.4 2.812 2.812 0 0 1 3.824-1.005c.415.244.761.59 1.005 1.005.251.424.38.908.375 1.4.005.495-.125.983-.375 1.41a2.8 2.8 0 0 1-1.005 1.015c-.424.251-.908.38-1.4.375Zm3.49 8.675V1.005h4.594v13.998h-4.594Zm10.409-6.348c.013.013.111.174.296.483.184.308.424.702.72 1.183a384.573 384.573 0 0 1 1.862 3.056c.289.48.617 1.022.986 1.626h-5.047l-.858-1.39c-.256-.414-.529-.86-.817-1.34-.29-.48-.576-.947-.858-1.4a71.236 71.236 0 0 1-.73-1.193 21.112 21.112 0 0 0-.424-.69 2.04 2.04 0 0 1-.334-.986c.019-.338.128-.665.315-.947.078-.131.223-.365.433-.7a216.7 216.7 0 0 0 1.598-2.603l.817-1.35.858-1.4H40l-3.904 6.369c-.12.189-.189.407-.197.63.013.236.095.463.236.652h.001ZM11.138 21.016H0v1.734h4.538v12.252h2.08V22.75h4.52v-1.734ZM15.2 24.887a3.93 3.93 0 0 0-1.05.453c-.338.21-.65.458-.931.739-.047.046-.093.098-.14.147V24.76l-2.02.295v9.948h2.02V27.56a5.115 5.115 0 0 1 1.08-.575c.206-.079.413-.148.625-.207a4.242 4.242 0 0 1 1.387-.148l.238-1.851a3.804 3.804 0 0 0-1.209.108ZM26.576 33.76a.906.906 0 0 1-.773-.315 1.687 1.687 0 0 1-.218-1.044l.04-4.057a4.705 4.705 0 0 0-.159-1.261 3.08 3.08 0 0 0-.476-1.005 2.68 2.68 0 0 0-.822-.728 4.214 4.214 0 0 0-1.199-.454 7.112 7.112 0 0 0-1.566-.157c-.417 0-.834.026-1.248.079a8.612 8.612 0 0 0-1.16.226c-.353.095-.7.21-1.04.345l-.238 1.674a11.755 11.755 0 0 1 1.804-.492 7.2 7.2 0 0 1 .822-.108c.27-.02.538-.03.803-.03a4.46 4.46 0 0 1 1.199.138c.286.071.548.213.763.413.19.195.328.436.396.7.085.325.125.66.12.995l-.003.492-2.317.156a6.193 6.193 0 0 0-2.298.512 3.29 3.29 0 0 0-1.358 1.094 2.535 2.535 0 0 0-.446 1.447c-.004.485.116.962.347 1.389.242.438.607.797 1.05 1.034a3.55 3.55 0 0 0 1.754.394 4.59 4.59 0 0 0 1.675-.276c.463-.18.887-.447 1.248-.788.137-.13.267-.268.39-.412.038.204.111.4.215.58.176.301.448.537.773.67a2.91 2.91 0 0 0 1.13.206c.118 0 .234-.003.346-.01.11-.006.22-.022.327-.049l.287-.069c.078-.017.154-.04.228-.069l.218-1.32c-.11.038-.222.064-.337.08-.092.012-.184.02-.277.02Zm-2.97-1.196c-.101.112-.212.216-.33.31a3.822 3.822 0 0 1-.694.433 3.134 3.134 0 0 1-.773.256 4.39 4.39 0 0 1-.842.08 2.248 2.248 0 0 1-.942-.178 1.29 1.29 0 0 1-.584-.502 1.464 1.464 0 0 1-.198-.778c-.02-.329.071-.654.257-.926.216-.25.508-.424.832-.493a6.08 6.08 0 0 1 1.546-.157h1.736l-.009 1.955ZM34.037 20.288a6.488 6.488 0 0 0-1.298-.119 4.015 4.015 0 0 0-1.268.197c-.39.128-.745.34-1.04.62a2.888 2.888 0 0 0-.694 1.055 4.09 4.09 0 0 0-.248 1.497v1.418h-1.486v1.536h1.486v8.51h2.021v-8.51h2.775v-1.536H31.51V23.32a1.836 1.836 0 0 1 .108-.66c.065-.179.17-.34.307-.473.144-.13.317-.226.506-.275.222-.062.453-.092.683-.09.16 0 .31.008.456.02.147.013.288.033.427.06.139.026.27.052.396.079.112.022.221.055.327.098l-.08-1.635a4.794 4.794 0 0 0-.604-.157ZM36.246 35.002h2.022V24.759l-2.022.295v9.948ZM37.98 20.632a1.29 1.29 0 0 0-.683-.187 1.339 1.339 0 0 0-.694.187c-.206.12-.38.29-.505.492-.126.205-.191.44-.188.68-.003.243.063.481.188.69.121.206.296.375.505.492.212.118.451.18.694.177.24.003.476-.058.684-.177.203-.117.371-.288.485-.492.12-.21.18-.449.178-.69a1.323 1.323 0 0 0-.178-.68 1.395 1.395 0 0 0-.486-.492ZM49.98 24.956h-2.477l-3.391 3.703h-.731v-8.53l-2.022.296v14.576h2.022v-4.825h.033l4.049 4.826h2.616l-4.807-5.385 4.708-4.661ZM55.676 29.566l4.708-4.662h-2.477l-3.39 3.703h-.732v-8.529l-2.021.296V34.95h2.021v-4.826h.033l4.05 4.826h2.615l-4.807-5.384Z"/></svg>