<svg xmlns="http://www.w3.org/2000/svg" viewBox="0 0 59 14"><path fill="#FFE100" d="M46.333 1.01h-3.701s2.103 3.453 2.127 3.497a.582.582 0 0 1 .014.705l-2.141 3.51h3.702s1.785-2.92 2.029-3.325a.886.886 0 0 0-.01-1.072c-.263-.449-.264-.449-2.02-3.314ZM42.154 1.01h-3.297v11.994h3.297V1.01ZM57.926 2.997c-.124-.212-1.226-1.986-1.226-1.986h-7.922l1.73 2.902h4.173L52.96 6.735l1.919 3.224-1.852 3.044h3.382c.544-.89 1.357-2.265 1.527-2.547a.888.888 0 0 0-.01-1.077c-.17-.29-1.075-1.726-1.616-2.61l1.626-2.695a.888.888 0 0 0-.01-1.077Z"/><path fill="#FFE100" d="M50.306 7.125c-.522.852-1.394 2.279-1.557 2.557a.855.855 0 0 0-.01 1.037c.164.272 1.043 1.71 1.567 2.568.524-.857 1.403-2.295 1.566-2.568a.856.856 0 0 0-.01-1.037 389.71 389.71 0 0 0-1.556-2.557Z"/><path fill="#fff" d="M0 13.006v-12h3.937v12H0Zm9.294-10.09 2.264 10.09H7.25l-2.704-12h2.417a2.276 2.276 0 0 1 1.513.55c.42.346.71.826.819 1.36Zm2.855 10.09v-12h3.938v12h-3.938Zm6.912-7.436a2.382 2.382 0 0 1-2.4-2.4 2.301 2.301 0 0 1 .321-1.2 2.41 2.41 0 0 1 3.278-.862c.356.21.653.506.862.862.215.363.326.778.321 1.2a2.35 2.35 0 0 1-.321 1.208 2.4 2.4 0 0 1-.862.87 2.302 2.302 0 0 1-1.2.322Zm2.99 7.436v-12h3.938v12h-3.937Zm8.923-5.442c.01.011.095.15.253.414s.364.602.617 1.014a315.274 315.274 0 0 1 1.597 2.62c.247.41.529.876.845 1.394H29.96c-.27-.44-.516-.837-.736-1.192-.22-.355-.453-.738-.7-1.149-.248-.41-.493-.81-.736-1.2-.242-.389-.45-.73-.625-1.022-.175-.293-.296-.49-.363-.592a1.747 1.747 0 0 1-.287-.845c.016-.29.11-.57.27-.811.067-.113.191-.313.371-.6a182.106 182.106 0 0 0 1.37-2.23l.7-1.159.736-1.2h4.326l-3.346 5.46a1.08 1.08 0 0 0-.17.54c.012.202.082.396.203.558Z"/></svg>