<svg xmlns="http://www.w3.org/2000/svg" viewBox="0 0 110 24"><path fill="#6B046A" d="M0 0h110v24H0z"/><path fill="#fff" d="M6.004 18V6h3.937V18H6.004Zm9.294-10.09L17.562 18h-4.309L10.55 6h2.416a2.276 2.276 0 0 1 1.513.55c.42.345.71.826.82 1.36ZM18.154 18V6h3.937V18h-3.937Zm6.91-7.436a2.382 2.382 0 0 1-2.4-2.4 2.303 2.303 0 0 1 .323-1.2 2.411 2.411 0 0 1 3.278-.862c.355.21.652.506.861.862.215.363.326.778.322 1.2a2.4 2.4 0 0 1-1.183 2.079 2.302 2.302 0 0 1-1.2.321ZM28.057 18V6h3.937V18h-3.937Zm8.922-5.442c.011.012.096.15.253.414.158.265.364.603.617 1.014a315.936 315.936 0 0 1 1.597 2.62c.247.411.529.876.845 1.394h-4.326c-.27-.44-.516-.837-.735-1.192-.22-.354-.453-.738-.7-1.149-.249-.41-.494-.81-.737-1.2-.242-.389-.45-.73-.625-1.022a18.04 18.04 0 0 0-.363-.591 1.748 1.748 0 0 1-.287-.845c.017-.29.11-.57.27-.812.068-.113.192-.313.372-.6s.391-.628.633-1.022c.243-.395.488-.797.736-1.209l.7-1.157.736-1.2h4.326l-3.346 5.458a1.08 1.08 0 0 0-.17.542c.012.201.082.395.203.557h.001Z"/><path fill="#EFB4ED" d="M54.1 6.01h-2.11l-4.587 5.284h-.63V6.01H45v11.986h1.773v-5.419h.06l4.988 5.436 2.414-.017-5.723-5.943 5.587-6.043ZM58.244 16.755c-.059.006-.118.01-.177.009a.904.904 0 0 1-.371-.068.605.605 0 0 1-.254-.211.919.919 0 0 1-.143-.363 2.795 2.795 0 0 1-.042-.523V5.25l-1.722.253V16.36c-.007.284.038.567.135.835.08.218.214.412.388.566.173.148.378.255.6.312.245.064.497.095.75.093a4.198 4.198 0 0 0 .752-.068 3.35 3.35 0 0 0 .295-.067l.17-1.334-.203.034c-.068.01-.127.019-.178.025ZM67.656 16.933a.769.769 0 0 1-.659-.27 1.451 1.451 0 0 1-.185-.895l.033-3.478a4.059 4.059 0 0 0-.135-1.08c-.082-.31-.219-.601-.405-.861a2.284 2.284 0 0 0-.7-.625 3.567 3.567 0 0 0-1.022-.388A6.004 6.004 0 0 0 63.25 9.2c-.355 0-.71.022-1.063.067a7.327 7.327 0 0 0-.988.194c-.3.082-.596.18-.886.296l-.203 1.435a9.643 9.643 0 0 1 1.537-.422c.231-.045.465-.076.7-.093.23-.017.459-.026.684-.026.344-.007.688.033 1.021.119.244.06.468.182.65.354.163.167.28.373.338.6.072.278.106.564.102.852l-.002.424-1.974.133a5.246 5.246 0 0 0-1.958.439 2.804 2.804 0 0 0-1.157.937 2.18 2.18 0 0 0-.38 1.24c-.003.416.099.825.296 1.19.206.376.517.684.895.887.46.24.975.356 1.494.338.486.011.97-.07 1.426-.237a3.292 3.292 0 0 0 1.064-.675c.117-.112.227-.23.332-.354.033.175.094.343.183.497.15.259.382.46.658.575.306.122.633.182.962.177.102 0 .2-.003.296-.009.094-.005.187-.02.278-.042.09-.023.172-.042.245-.059a1.43 1.43 0 0 0 .194-.059l.186-1.131a1.48 1.48 0 0 1-.287.067c-.078.011-.157.017-.236.018Zm-2.811-.76a3.246 3.246 0 0 1-.591.371c-.209.102-.43.176-.659.22a3.735 3.735 0 0 1-.717.067 1.906 1.906 0 0 1-.802-.152c-.206-.09-.38-.24-.498-.43a1.262 1.262 0 0 1-.169-.667c-.016-.282.061-.56.22-.793.184-.215.433-.363.709-.422a5.137 5.137 0 0 1 1.317-.136h1.478l-.008 1.676c-.085.096-.18.186-.28.266ZM75.117 14.113a2.535 2.535 0 0 0-.59-.464 4.626 4.626 0 0 0-.71-.33c-.18-.056-.357-.115-.531-.177a9.458 9.458 0 0 0-.524-.169c-.175-.05-.343-.104-.506-.16a3.647 3.647 0 0 1-.448-.186 2.964 2.964 0 0 1-.396-.253 1.104 1.104 0 0 1-.287-.321.812.812 0 0 1-.11-.422.874.874 0 0 1 .118-.464.959.959 0 0 1 .355-.33 1.91 1.91 0 0 1 .566-.202c.247-.048.499-.07.75-.067a5.443 5.443 0 0 1 .887.075c.175.029.348.065.523.11.175.045.352.096.532.152.167.051.33.113.49.186l.118-1.368a8.083 8.083 0 0 0-.633-.236 6.317 6.317 0 0 0-.633-.17 5.067 5.067 0 0 0-.633-.092 7.637 7.637 0 0 0-.617-.025 5.569 5.569 0 0 0-1.384.16 3.486 3.486 0 0 0-1.089.473c-.302.2-.549.473-.718.793a2.418 2.418 0 0 0-.253 1.14c-.005.284.04.567.135.835.08.225.2.434.355.617.15.172.323.322.515.447.2.13.411.241.633.33a13.454 13.454 0 0 0 .785.26l.38.119c.124.039.245.079.363.118.118.04.233.076.346.11.15.053.298.118.439.194.124.066.24.145.346.237a.873.873 0 0 1 .22.295.897.897 0 0 1 .075.371.84.84 0 0 1-.278.667 1.617 1.617 0 0 1-.726.346c-.313.07-.633.103-.954.101-.2-.001-.4-.015-.6-.042a8.992 8.992 0 0 1-.691-.118c-.242-.05-.49-.112-.743-.185a15.02 15.02 0 0 1-.768-.245l.067 1.435c.292.101.56.183.802.244.242.062.473.116.692.161.212.044.426.072.642.085.208.011.419.017.633.017.47.002.94-.046 1.401-.144a3.608 3.608 0 0 0 1.148-.448c.32-.194.584-.467.768-.793a2.32 2.32 0 0 0 .278-1.165 2.364 2.364 0 0 0-.143-.869 1.972 1.972 0 0 0-.397-.633ZM83.035 14.113a2.543 2.543 0 0 0-.591-.464 4.61 4.61 0 0 0-.71-.33c-.18-.056-.357-.115-.531-.177a9.488 9.488 0 0 0-.524-.169c-.174-.05-.343-.104-.506-.16a3.647 3.647 0 0 1-.447-.186 2.973 2.973 0 0 1-.397-.253 1.105 1.105 0 0 1-.287-.321.81.81 0 0 1-.11-.422.874.874 0 0 1 .118-.464.954.954 0 0 1 .355-.33 1.91 1.91 0 0 1 .566-.202c.247-.048.499-.07.75-.067a5.46 5.46 0 0 1 .887.075c.175.029.349.065.523.11.175.045.352.096.532.152.167.051.33.113.49.186l.118-1.368a8.096 8.096 0 0 0-.633-.236 6.3 6.3 0 0 0-.633-.17 5.063 5.063 0 0 0-.633-.092 7.639 7.639 0 0 0-.616-.025 5.564 5.564 0 0 0-1.385.16 3.483 3.483 0 0 0-1.089.473c-.302.2-.549.473-.717.793a2.41 2.41 0 0 0-.253 1.14c-.005.284.04.567.135.835.08.226.2.434.355.617.15.172.323.322.514.447.2.13.412.241.634.33a13.64 13.64 0 0 0 .785.26l.38.119c.123.039.244.079.362.118.118.04.234.076.346.11.151.053.298.118.44.194.123.066.24.145.346.237a.868.868 0 0 1 .295.666.84.84 0 0 1-.279.667 1.616 1.616 0 0 1-.726.346c-.313.07-.633.103-.953.101-.2-.001-.401-.015-.6-.042a8.982 8.982 0 0 1-.692-.118c-.242-.05-.49-.112-.743-.185a15.231 15.231 0 0 1-.768-.245l.068 1.435c.292.101.56.183.802.244.242.062.473.116.692.161.211.044.426.072.641.085.208.011.42.017.633.017.471.002.94-.046 1.401-.144a3.607 3.607 0 0 0 1.148-.448c.32-.194.584-.467.769-.793.193-.357.289-.759.278-1.165a2.36 2.36 0 0 0-.144-.869 1.968 1.968 0 0 0-.396-.633ZM87.095 5.68a1.094 1.094 0 0 0-.582-.16 1.137 1.137 0 0 0-.591.16 1.236 1.236 0 0 0-.43.423 1.09 1.09 0 0 0-.161.582c-.002.208.054.412.16.59.104.177.252.323.43.423.181.101.385.153.592.152.204.002.405-.05.582-.152.174-.1.317-.247.414-.422.101-.18.153-.384.152-.591a1.14 1.14 0 0 0-.152-.582 1.193 1.193 0 0 0-.414-.422ZM85.618 17.996h1.722V9.217l-1.722.253v8.526ZM95.308 14.113a2.535 2.535 0 0 0-.59-.464 4.62 4.62 0 0 0-.71-.33 14.91 14.91 0 0 1-.532-.177 9.41 9.41 0 0 0-.523-.169c-.175-.05-.344-.104-.507-.16a3.644 3.644 0 0 1-.447-.186 2.955 2.955 0 0 1-.397-.253 1.105 1.105 0 0 1-.287-.321.81.81 0 0 1-.11-.422.874.874 0 0 1 .119-.464.955.955 0 0 1 .354-.33 1.91 1.91 0 0 1 .566-.202c.247-.048.5-.07.751-.067a5.452 5.452 0 0 1 .886.075c.175.029.349.065.523.11.175.045.352.096.533.152.166.051.33.113.489.186l.118-1.368a8.083 8.083 0 0 0-.633-.236 6.28 6.28 0 0 0-.633-.17 5.063 5.063 0 0 0-.633-.092 7.631 7.631 0 0 0-.616-.025 5.564 5.564 0 0 0-1.385.16 3.482 3.482 0 0 0-1.088.473c-.303.2-.55.473-.718.793a2.41 2.41 0 0 0-.253 1.14c-.005.284.04.567.135.835.08.226.2.434.355.617.15.172.323.322.515.447.2.13.411.241.633.33a13.759 13.759 0 0 0 .785.26l.38.119c.123.039.244.078.362.118.118.04.234.076.347.11.15.053.297.118.439.194.123.066.24.145.346.237a.865.865 0 0 1 .295.666.841.841 0 0 1-.278.667c-.21.175-.46.294-.727.346-.313.07-.633.103-.953.101a4.75 4.75 0 0 1-.6-.042 8.988 8.988 0 0 1-.692-.118c-.242-.05-.49-.112-.743-.185a15.3 15.3 0 0 1-.768-.245l.068 1.435a10 10 0 0 0 .802.244c.242.062.473.116.692.161.212.044.426.072.642.085.208.011.419.017.633.017.47.002.94-.046 1.4-.144a3.61 3.61 0 0 0 1.149-.448c.319-.194.583-.467.768-.793.193-.357.29-.759.278-1.165a2.362 2.362 0 0 0-.143-.869 1.972 1.972 0 0 0-.397-.633ZM103.092 17.996h2.228l-4.095-4.615 4.011-3.995h-2.11l-2.889 3.174h-.623V5.25l-1.722.253v12.493h1.722V13.86h.028l3.45 4.136Z"/></svg>