<svg xmlns="http://www.w3.org/2000/svg" viewBox="0 0 115 24"><path fill="#fff" d="M0 17.998v-12h4v12H0Zm9.244-10.09 2.264 10.09H7.2l-2.704-12h2.417a2.276 2.276 0 0 1 1.513.55c.42.346.66.826.819 1.36ZM12 17.998v-12h4v12h-4Zm7.01-7.436a2.381 2.381 0 0 1-2.078-1.192 2.345 2.345 0 0 1-.321-1.208 2.301 2.301 0 0 1 .321-1.2A2.41 2.41 0 0 1 20.21 6.1c.356.21.653.506.862.862.215.363.326.778.321 1.2a2.35 2.35 0 0 1-.321 1.208 2.4 2.4 0 0 1-.862.87 2.301 2.301 0 0 1-1.2.322ZM22 17.998v-12h4v12h-4Zm8.974-5.442c.01.011.095.15.253.414s.364.602.617 1.014a316.22 316.22 0 0 1 1.597 2.62c.247.41.529.876.845 1.394H29.96c-.27-.44-.516-.837-.736-1.192-.22-.355-.453-.738-.7-1.15-.248-.41-.493-.81-.736-1.199-.242-.39-.45-.73-.625-1.022a18.04 18.04 0 0 0-.363-.592 1.747 1.747 0 0 1-.287-.845c.016-.29.11-.57.27-.811.067-.113.191-.313.371-.6a182.106 182.106 0 0 0 1.37-2.23l.7-1.159.736-1.2h4.326l-3.346 5.46a1.079 1.079 0 0 0-.17.54c.012.202.083.396.204.558Z"/><path fill="#9FDAF5" d="M46.291 13.305c.13.36.195.789.195 1.285 0 .676-.116 1.242-.347 1.699a2.863 2.863 0 0 1-.98 1.107 4.308 4.308 0 0 1-1.472.609 8.29 8.29 0 0 1-1.8.186c-.27 0-.538-.011-.803-.034-.265-.022-.53-.053-.795-.093a7.846 7.846 0 0 1-.82-.169 9.192 9.192 0 0 1-.88-.279l-.219-1.674c.27.102.555.2.854.296.299.096.606.178.921.245.316.068.632.122.947.16.316.04.62.06.913.06.35 0 .662-.023.938-.067.277-.046.522-.119.736-.22.214-.102.395-.237.541-.406.147-.17.26-.366.338-.592a2.35 2.35 0 0 0 .118-.778c0-.293-.042-.524-.126-.727a1.423 1.423 0 0 0-.347-.507 2.191 2.191 0 0 0-.533-.355 4.237 4.237 0 0 0-.701-.262c-.26-.073-.541-.144-.846-.211a11.475 11.475 0 0 1-1.09-.288 6.262 6.262 0 0 1-.99-.405 3.265 3.265 0 0 1-.81-.592 2.448 2.448 0 0 1-.55-.854c-.13-.332-.194-.73-.194-1.192 0-.586.104-1.093.312-1.522.209-.428.508-.783.896-1.065.39-.282.848-.49 1.378-.625a7.181 7.181 0 0 1 1.775-.203c.294 0 .581.014.863.042.282.028.558.07.828.127.27.056.539.124.803.203.265.079.516.18.753.304l-.237 1.488a4.267 4.267 0 0 0-.668-.296 6.428 6.428 0 0 0-.752-.211 7.668 7.668 0 0 0-1.59-.17c-.315 0-.605.02-.87.06-.265.04-.499.107-.702.203a2.09 2.09 0 0 0-.532.355c-.153.14-.265.312-.339.515-.073.203-.11.434-.11.694 0 .259.037.481.11.667.074.186.184.344.33.474.147.13.319.242.516.338.197.096.422.178.676.245.254.068.527.135.82.203.383.079.755.175 1.116.287.36.113.702.251 1.023.415.321.163.603.369.845.617s.428.552.558.913Zm10.593-3.601-.978 1.037c.124.163.242.338.343.526.355.66.533 1.435.533 2.325 0 .936-.191 1.747-.575 2.435a4.008 4.008 0 0 1-1.58 1.59c-.671.371-1.446.557-2.325.557-.88 0-1.604-.175-2.24-.524a3.612 3.612 0 0 1-.41-.265l-.9.975-.779-.71.942-1.003a3.966 3.966 0 0 1-.333-.527c-.35-.67-.524-1.468-.524-2.393 0-.924.183-1.724.55-2.4a3.9 3.9 0 0 1 1.538-1.573c.66-.372 1.429-.558 2.308-.558.879 0 1.657.18 2.3.541.137.076.264.164.388.257l.947-1 .794.71Zm-7.017 3.922c0 .69.102 1.268.307 1.739l3.934-4.25a1.967 1.967 0 0 0-.519-.34c-.315-.142-.687-.212-1.115-.212-.53 0-.99.113-1.378.338-.39.226-.69.564-.905 1.014-.214.451-.321 1.02-.321 1.708l-.003.003Zm5.123 0a4.61 4.61 0 0 0-.16-1.26 3.404 3.404 0 0 0-.15-.414l-3.937 4.25c.099.092.2.177.316.247.378.237.82.355 1.327.355s.956-.115 1.344-.346c.39-.231.696-.583.922-1.057.225-.473.338-1.065.338-1.775Zm7.49-4.303a3.325 3.325 0 0 0-.896.389 4.41 4.41 0 0 0-.795.634c-.04.04-.079.085-.118.127v-1.26l-1.725.254v8.538h1.725v-6.388a4.23 4.23 0 0 1 .921-.493c.175-.068.352-.127.533-.178a3.594 3.594 0 0 1 1.183-.127l.203-1.589a3.217 3.217 0 0 0-1.031.093Zm5.266 7.44a1.64 1.64 0 0 1-.177.008.914.914 0 0 1-.372-.068.61.61 0 0 1-.254-.211.927.927 0 0 1-.143-.364 2.812 2.812 0 0 1-.043-.524V5.24l-1.724.254v10.87c0 .328.045.607.135.838.09.23.22.42.389.566.169.147.37.251.6.313.231.062.482.093.752.093a3.79 3.79 0 0 0 1.048-.135l.17-1.336-.203.034c-.068.011-.127.02-.178.025Zm9.663.16c.09-.011.186-.034.287-.068l-.186 1.133a1.321 1.321 0 0 1-.194.06c-.073.016-.155.036-.245.058-.09.023-.183.037-.28.043a4.986 4.986 0 0 1-.295.008c-.36 0-.682-.06-.964-.177a1.365 1.365 0 0 1-.66-.575 1.583 1.583 0 0 1-.182-.499 4.958 4.958 0 0 1-.333.355c-.31.293-.665.518-1.065.676-.4.158-.876.237-1.429.237-.597 0-1.096-.113-1.496-.338a2.228 2.228 0 0 1-.896-.888 2.475 2.475 0 0 1-.296-1.192c0-.45.127-.865.38-1.242.254-.378.64-.69 1.159-.939.518-.248 1.172-.394 1.96-.44l1.976-.132v-.422c0-.327-.03-.612-.098-.854a1.34 1.34 0 0 0-.339-.6c-.157-.158-.374-.277-.65-.356a3.778 3.778 0 0 0-1.023-.118c-.226 0-.454.009-.685.025a6.14 6.14 0 0 0-.702.093 9.979 9.979 0 0 0-1.538.423l.202-1.437c.282-.113.578-.211.888-.296.31-.084.64-.15.99-.194.349-.045.704-.068 1.064-.068.496 0 .942.045 1.336.135.395.09.736.22 1.023.39.287.168.521.377.702.625.18.248.315.535.405.862.09.327.136.688.136 1.082l-.034 3.483c-.011.417.05.716.186.896.135.18.355.27.66.27.067 0 .146-.005.236-.016v-.003Zm-2.77-1.012.008-1.676h-1.479c-.552 0-.992.045-1.319.135-.327.09-.563.231-.71.423-.146.191-.22.456-.22.794 0 .26.057.482.17.668.112.186.278.33.498.431.22.102.488.152.803.152.248 0 .488-.022.719-.067.23-.045.45-.119.66-.22.208-.101.405-.225.59-.372.1-.079.193-.17.283-.265l-.003-.003ZM85.93 9.55c-.428-.237-.97-.356-1.623-.356a4.75 4.75 0 0 0-1.445.229c-.48.152-.933.369-1.362.65a6.41 6.41 0 0 0-.473.347V9.21l-1.725.254v8.538h1.725V11.58c.163-.096.335-.186.516-.265.242-.107.484-.2.727-.279.242-.079.484-.138.727-.177.242-.04.476-.06.701-.06.316 0 .587.043.812.128.225.084.411.21.558.38.146.169.254.383.321.642.068.26.102.564.102.913v5.14h1.724v-5.495c0-.766-.107-1.392-.321-1.876-.214-.485-.536-.846-.964-1.082Zm9.756-4.055 1.724-.237v12.748h-1.403l-.212-.78c-.126.092-.253.18-.38.256a4.616 4.616 0 0 1-1.175.524c-.4.113-.826.169-1.276.169-.778 0-1.446-.172-2.004-.516a3.357 3.357 0 0 1-1.285-1.462c-.299-.631-.448-1.38-.448-2.249 0-1.014.197-1.874.592-2.578.394-.705.916-1.243 1.564-1.615a4.157 4.157 0 0 1 2.105-.558 5.825 5.825 0 0 1 2.198.412V5.494Zm0 10.62v-5.21c-.088-.031-.18-.068-.263-.093a5.126 5.126 0 0 0-1.597-.245c-.586 0-1.09.12-1.513.363a2.384 2.384 0 0 0-.973 1.065c-.225.468-.338 1.052-.338 1.75 0 .7.102 1.26.305 1.716.203.457.496.795.879 1.015.383.22.845.33 1.386.33.36 0 .764-.082 1.209-.246.285-.104.586-.256.905-.445Zm11.606-4.094c.141.608.172 1.307.093 2.096h-6.109c.023.431.082.803.183 1.116.13.395.322.707.575.939.254.23.567.394.939.49.372.096.811.143 1.318.143.248 0 .496-.014.744-.042.248-.028.491-.073.727-.135.237-.062.465-.132.685-.211.22-.08.437-.158.651-.237l-.118 1.302a5.723 5.723 0 0 1-1.886.617c-.343.05-.741.076-1.192.076-.946 0-1.747-.166-2.4-.499a3.309 3.309 0 0 1-1.48-1.47c-.332-.649-.499-1.435-.499-2.36 0-.698.094-1.332.28-1.901.186-.57.456-1.057.811-1.463a3.683 3.683 0 0 1 1.293-.947c.508-.225 1.082-.338 1.725-.338.642 0 1.214.107 1.716.322.502.214.916.532 1.243.955.327.422.56.938.701 1.547Zm-5.765-.093a4.159 4.159 0 0 0-.214.989h4.446c0-.338-.039-.657-.124-.947-.129-.45-.357-.803-.684-1.057-.327-.253-.761-.38-1.302-.38s-.958.116-1.319.347c-.361.23-.628.58-.803 1.048Zm12.689 4.666a7.334 7.334 0 0 1-.262.05l-.288.052a2.454 2.454 0 0 1-.279.033c-.09.006-.174.009-.253.009a1.71 1.71 0 0 1-.753-.152 1.088 1.088 0 0 1-.481-.448 1.424 1.424 0 0 1-.169-.719v-4.683h2.383l.186-1.353h-2.569V6.711l-1.725.609v2.062h-1.302l-.186 1.353h1.488v5.038c0 .383.051.713.152.99.102.275.234.504.397.684.164.18.356.321.575.423.22.101.454.174.702.22.248.045.49.067.727.067.18 0 .358-.006.533-.017a5.534 5.534 0 0 0 .896-.127c.129-.028.239-.053.329-.076l.102-1.403a1.277 1.277 0 0 1-.203.06Z"/></svg>