<svg xmlns="http://www.w3.org/2000/svg" viewBox="0 0 122 24" fill="currentColor"><path d="M0 17.997v-12h3.937v12H0Zm9.294-10.09 2.264 10.09H7.249l-2.704-12h2.417a2.276 2.276 0 0 1 1.512.55c.422.346.71.826.82 1.36Zm2.855 10.09v-12h3.938v12h-3.938Zm6.911-7.436a2.381 2.381 0 0 1-2.4-2.4 2.302 2.302 0 0 1 .322-1.2 2.41 2.41 0 0 1 3.278-.862c.356.21.653.506.862.862.215.363.326.778.321 1.2a2.4 2.4 0 0 1-1.183 2.079 2.302 2.302 0 0 1-1.2.32Zm2.992 7.436v-12h3.937v12h-3.937Zm8.922-5.442c.01.011.095.15.253.414s.364.602.617 1.014a331.712 331.712 0 0 1 1.597 2.62c.247.41.529.875.845 1.394H29.96c-.27-.44-.516-.837-.736-1.192-.22-.355-.453-.738-.7-1.15-.248-.41-.494-.81-.736-1.199s-.45-.73-.625-1.022a18.04 18.04 0 0 0-.363-.592 1.75 1.75 0 0 1-.287-.845c.016-.29.11-.57.27-.811.067-.113.191-.313.371-.6a182.067 182.067 0 0 0 1.37-2.23l.7-1.159.736-1.2h4.326l-3.346 5.46a1.078 1.078 0 0 0-.17.54c.012.202.082.396.203.558ZM45.796 12.334a3.234 3.234 0 0 0-.853-.623 6.686 6.686 0 0 0-1.032-.419 11.68 11.68 0 0 0-1.127-.29 24.41 24.41 0 0 1-.827-.205 3.797 3.797 0 0 1-.682-.247 2.257 2.257 0 0 1-.52-.342 1.224 1.224 0 0 1-.334-.477 1.835 1.835 0 0 1-.11-.675 2.047 2.047 0 0 1 .11-.7c.07-.198.187-.377.342-.52a2.13 2.13 0 0 1 .537-.359c.225-.102.463-.171.708-.205.291-.04.585-.06.879-.059a7.815 7.815 0 0 1 1.604.17c.257.056.51.128.759.214.233.08.458.18.674.298l.239-1.501a4.242 4.242 0 0 0-.76-.308c-.267-.08-.537-.148-.81-.205a8.084 8.084 0 0 0-.836-.127 8.794 8.794 0 0 0-.87-.043 7.243 7.243 0 0 0-1.792.205c-.499.12-.97.334-1.39.631a2.854 2.854 0 0 0-.905 1.075 3.48 3.48 0 0 0-.315 1.537c-.01.41.057.817.196 1.203.123.323.312.617.555.862.24.24.517.442.819.598.32.164.654.302.998.41.358.113.725.21 1.1.29.307.068.592.139.853.213.243.067.48.155.708.264a2.2 2.2 0 0 1 .538.359c.152.143.271.318.35.512.09.234.134.483.127.734.005.267-.035.532-.119.785-.075.219-.19.422-.341.598a1.649 1.649 0 0 1-.546.409 2.762 2.762 0 0 1-.742.222 5.92 5.92 0 0 1-.947.068 7.43 7.43 0 0 1-.922-.06c-.318-.04-.637-.094-.955-.162a9.715 9.715 0 0 1-.93-.248 17.718 17.718 0 0 1-.861-.298l.221 1.69c.291.108.587.202.888.281.272.072.548.129.827.17.267.04.534.072.802.095.268.022.538.034.81.034.611.004 1.22-.06 1.817-.188a4.347 4.347 0 0 0 1.485-.614c.422-.28.763-.665.989-1.119.25-.536.37-1.123.35-1.715.01-.44-.057-.88-.197-1.297a2.515 2.515 0 0 0-.562-.921ZM56.007 16.925a.776.776 0 0 1-.666-.273 1.469 1.469 0 0 1-.187-.905l.034-3.516a4.109 4.109 0 0 0-.137-1.092 2.68 2.68 0 0 0-.41-.871 2.307 2.307 0 0 0-.707-.632 3.623 3.623 0 0 0-1.032-.392 6.067 6.067 0 0 0-1.348-.137c-.36 0-.718.023-1.075.069-.337.042-.67.108-.998.196a8.307 8.307 0 0 0-.896.299l-.205 1.45a10.021 10.021 0 0 1 1.553-.426 6.27 6.27 0 0 1 .708-.094c.233-.017.463-.026.691-.026.348-.007.695.033 1.032.12.246.061.472.185.657.358.165.169.282.378.341.606.073.282.107.572.103.862l-.002.427-1.995.135a5.3 5.3 0 0 0-1.979.444 2.837 2.837 0 0 0-1.168.947c-.252.37-.386.807-.384 1.255-.003.42.1.833.299 1.203.208.38.522.69.904.896.465.242.985.36 1.51.341.49.012.98-.07 1.441-.239a3.32 3.32 0 0 0 1.075-.682c.118-.114.23-.233.336-.358.033.177.095.347.184.503.153.261.386.465.666.58.309.124.64.185.972.18.103 0 .202-.004.299-.01.095-.005.19-.02.281-.042l.248-.06c.067-.015.132-.035.196-.06l.188-1.143a1.504 1.504 0 0 1-.29.069c-.08.01-.16.016-.24.016m-2.84-.768a3.272 3.272 0 0 1-.597.376 2.701 2.701 0 0 1-.665.222 3.79 3.79 0 0 1-.726.068 1.925 1.925 0 0 1-.81-.154 1.114 1.114 0 0 1-.503-.435 1.278 1.278 0 0 1-.17-.674 1.293 1.293 0 0 1 .221-.802c.186-.217.437-.367.717-.427a5.197 5.197 0 0 1 1.33-.136h1.494l-.007 1.693a2.273 2.273 0 0 1-.285.27M54.25 5.045h-1.843L50.957 8.1h1.33l1.962-3.055ZM69.945 9.466a2.968 2.968 0 0 0-1.519-.359 3.994 3.994 0 0 0-1.347.23 4.75 4.75 0 0 0-1.228.658 6.114 6.114 0 0 0-.606.512 2.14 2.14 0 0 0-.88-1.024c-.47-.254-1-.378-1.535-.359-.456 0-.909.079-1.339.23a4.846 4.846 0 0 0-1.595.934V9.124l-1.74.256V18h1.74v-6.492c.205-.135.419-.255.64-.361.27-.128.553-.228.844-.299.268-.066.543-.1.82-.102.253-.008.505.036.741.128.196.083.369.212.504.375.148.19.25.413.298.649.067.306.098.618.094.93V18h1.74v-5.53a6.927 6.927 0 0 0-.066-.976 6.34 6.34 0 0 1 .612-.355c.266-.134.547-.238.836-.308.274-.067.554-.101.836-.102.25-.006.5.037.734.128.199.081.375.21.512.375.148.19.25.413.299.649.066.306.097.617.093.93V18h1.74v-5.547a4.96 4.96 0 0 0-.307-1.895 2.199 2.199 0 0 0-.921-1.092ZM73.75 18h1.74V9.125l-1.74.256V18ZM75.242 5.549a1.104 1.104 0 0 0-.588-.163 1.148 1.148 0 0 0-.597.163 1.25 1.25 0 0 0-.435.426 1.105 1.105 0 0 0-.162.59 1.174 1.174 0 0 0 1.194 1.177c.206.002.41-.05.588-.154.176-.101.32-.249.419-.426.102-.183.155-.389.153-.598.003-.206-.05-.41-.153-.589a1.207 1.207 0 0 0-.419-.426ZM85.743 9.235a3.35 3.35 0 0 0-.904.393c-.291.182-.56.396-.802.64-.04.04-.08.085-.12.128V9.124l-1.74.256V18h1.74v-6.448a4.443 4.443 0 0 1 .93-.498c.177-.07.356-.129.538-.18a3.655 3.655 0 0 1 1.194-.128l.205-1.605a3.245 3.245 0 0 0-1.04.094ZM95.537 16.925a.776.776 0 0 1-.666-.273 1.469 1.469 0 0 1-.188-.905l.035-3.516a4.109 4.109 0 0 0-.137-1.092 2.68 2.68 0 0 0-.41-.871 2.308 2.308 0 0 0-.707-.632 3.623 3.623 0 0 0-1.033-.392 6.067 6.067 0 0 0-1.347-.137c-.36 0-.719.023-1.075.069-.337.042-.67.108-.998.196a8.307 8.307 0 0 0-.896.299l-.205 1.45a10.021 10.021 0 0 1 1.553-.426c.234-.045.47-.076.708-.094.233-.017.463-.026.69-.026.349-.007.696.033 1.033.12.246.061.472.185.657.358.164.169.282.378.341.606.073.282.107.572.102.862l-.002.427-1.994.135a5.3 5.3 0 0 0-1.979.444 2.838 2.838 0 0 0-1.169.947c-.252.37-.386.807-.383 1.255-.004.42.1.833.298 1.203.209.38.523.69.904.896.466.242.986.36 1.51.341.492.012.98-.07 1.442-.239a3.32 3.32 0 0 0 1.075-.682c.118-.114.23-.233.335-.358.034.177.096.347.185.503.152.261.386.465.666.58.308.124.64.185.972.18.102 0 .202-.004.299-.01.095-.005.189-.02.281-.042.091-.023.173-.043.248-.06.066-.015.132-.035.196-.06l.187-1.143a1.504 1.504 0 0 1-.29.069c-.079.01-.159.016-.239.016m-2.84-.768a3.272 3.272 0 0 1-.597.376 2.701 2.701 0 0 1-.665.222 3.79 3.79 0 0 1-.726.068 1.925 1.925 0 0 1-.81-.154 1.114 1.114 0 0 1-.504-.435 1.277 1.277 0 0 1-.17-.674 1.293 1.293 0 0 1 .222-.802c.185-.217.437-.367.716-.427a5.198 5.198 0 0 1 1.331-.136h1.494l-.008 1.693a2.28 2.28 0 0 1-.284.27M103.607 9.522l-.051-.022a5.896 5.896 0 0 0-2.167-.393 4.166 4.166 0 0 0-3.702 2.194 5.252 5.252 0 0 0-.597 2.603c-.02.78.135 1.556.452 2.27.277.61.728 1.123 1.297 1.476.612.36 1.312.54 2.022.52.435.003.868-.054 1.288-.17a4.67 4.67 0 0 0 1.186-.53c.127-.078.255-.166.383-.26l.214.79h1.416V5.13l-1.74.24-.001 4.152Zm-.913 7.019a3.571 3.571 0 0 1-1.219.247c-.488.015-.971-.1-1.399-.333a2.132 2.132 0 0 1-.888-1.024 4.277 4.277 0 0 1-.307-1.732c-.02-.607.097-1.211.341-1.767.209-.451.552-.827.982-1.075a3.017 3.017 0 0 1 1.527-.367 5.172 5.172 0 0 1 1.612.248c.083.026.175.061.264.093v5.261c-.29.177-.595.327-.913.449ZM109.501 5.549a1.105 1.105 0 0 0-.589-.163 1.15 1.15 0 0 0-.597.163c-.178.104-.327.25-.435.426a1.11 1.11 0 0 0-.162.59 1.177 1.177 0 0 0 1.194 1.177c.207.002.41-.05.589-.154.175-.101.32-.249.418-.426.102-.183.155-.389.154-.598a1.158 1.158 0 0 0-.154-.589 1.21 1.21 0 0 0-.418-.426ZM108.008 18h1.74V9.125l-1.74.256V18ZM120.121 11.198a3.727 3.727 0 0 0-1.51-1.544 5.128 5.128 0 0 0-4.64.017 3.94 3.94 0 0 0-1.553 1.587 5.013 5.013 0 0 0-.554 2.424 5.227 5.227 0 0 0 .52 2.415 3.556 3.556 0 0 0 1.493 1.545 4.636 4.636 0 0 0 2.252.529c.82.016 1.63-.178 2.354-.564a3.981 3.981 0 0 0 1.596-1.604 5.037 5.037 0 0 0 .571-2.458 4.95 4.95 0 0 0-.529-2.347Zm-1.612 4.173a2.328 2.328 0 0 1-.93 1.067 2.65 2.65 0 0 1-1.365.35 2.427 2.427 0 0 1-1.331-.358 2.397 2.397 0 0 1-.886-1.076 4.286 4.286 0 0 1-.324-1.775c-.02-.591.091-1.18.325-1.724a2.27 2.27 0 0 1 .912-1.024 2.762 2.762 0 0 1 1.408-.341 2.69 2.69 0 0 1 1.118.213c.309.14.578.354.784.623.22.293.38.627.469.982.107.415.159.842.154 1.271a4.254 4.254 0 0 1-.333 1.792"/></svg>