<svg xmlns="http://www.w3.org/2000/svg" viewBox="0 0 289 84"><path fill="#481581" d="M0 0h289v84H0z"/><path fill="#fff" d="M20 63V21.004h13.78V63H20Zm32.528-35.312L60.453 63h-15.08l-9.464-41.996h8.459a7.965 7.965 0 0 1 5.293 1.922 8.31 8.31 0 0 1 2.867 4.762ZM62.523 63V21.004h13.78V63h-13.78Zm24.189-26.026a8.213 8.213 0 0 1-4.228-1.124 8.336 8.336 0 0 1-3.046-3.046 8.206 8.206 0 0 1-1.125-4.229 8.056 8.056 0 0 1 1.125-4.2 8.437 8.437 0 0 1 3.046-3.016 8.233 8.233 0 0 1 4.228-1.124 8.083 8.083 0 0 1 4.199 1.124 8.504 8.504 0 0 1 3.016 3.016 8.075 8.075 0 0 1 1.125 4.2 8.226 8.226 0 0 1-1.125 4.23 8.4 8.4 0 0 1-3.016 3.045 8.059 8.059 0 0 1-4.201 1.124h.002ZM97.18 63V21.004h13.781V63H97.181Zm31.227-19.046c.039.04.334.524.887 1.449.553.925 1.272 2.108 2.159 3.549a1143.28 1143.28 0 0 1 5.589 9.168A854.89 854.89 0 0 0 140 63h-15.141c-.947-1.538-1.804-2.928-2.573-4.17a388.795 388.795 0 0 1-2.453-4.022 355.984 355.984 0 0 0-2.574-4.2 210.645 210.645 0 0 1-2.188-3.578 62.13 62.13 0 0 0-1.272-2.07 6.127 6.127 0 0 1-1.005-2.958 5.745 5.745 0 0 1 .946-2.84c.236-.394.67-1.094 1.301-2.1.631-1.006 1.37-2.198 2.218-3.578.847-1.38 1.706-2.79 2.574-4.23.869-1.439 1.686-2.79 2.453-4.052.77-1.26 1.628-2.66 2.573-4.2H140l-11.711 19.106a3.773 3.773 0 0 0-.592 1.894c.039.706.286 1.385.709 1.952h.002Z"/><path fill="#DBBFFA" d="M167.423 53.44a5.404 5.404 0 0 1-.353 2.01 4.226 4.226 0 0 1-1.001 1.506c-.455.428-.998.75-1.59.946-.684.225-1.4.335-2.12.325-.471 0-.913-.02-1.325-.06a26.408 26.408 0 0 1-2.473-.355c-.412-.08-.834-.168-1.266-.265a31.505 31.505 0 0 1-1.295-.325l.471 5.318c.55.158 1.08.305 1.59.442.51.14 1.02.256 1.531.356.525.1 1.056.168 1.59.206.549.04 1.158.059 1.825.06a14.568 14.568 0 0 0 4.033-.504 8.907 8.907 0 0 0 2.974-1.446 8.358 8.358 0 0 0 2.031-2.216 9.687 9.687 0 0 0 1.178-2.778c.259-1.034.387-2.096.383-3.161V21h-6.183v32.44ZM208.464 59.231a2.677 2.677 0 0 1-2.297-.945 5.095 5.095 0 0 1-.647-3.132l.117-12.172a14.233 14.233 0 0 0-.471-3.782 9.303 9.303 0 0 0-1.413-3.014 7.984 7.984 0 0 0-2.444-2.187 12.47 12.47 0 0 0-3.562-1.358 20.871 20.871 0 0 0-4.651-.472c-1.241-.001-2.48.078-3.71.235a25.542 25.542 0 0 0-3.445.68c-1.049.286-2.081.631-3.091 1.035l-.707 5.022c.982-.354 1.914-.65 2.797-.886a35.559 35.559 0 0 1 2.562-.591 21.493 21.493 0 0 1 2.443-.324c.804-.06 1.599-.089 2.385-.09a13.149 13.149 0 0 1 3.562.414 5.12 5.12 0 0 1 2.267 1.242 4.69 4.69 0 0 1 1.178 2.097c.251.975.37 1.978.353 2.984l-.007 1.482-6.882.468a18.249 18.249 0 0 0-6.83 1.536 9.804 9.804 0 0 0-4.034 3.28 7.653 7.653 0 0 0-1.324 4.342 8.673 8.673 0 0 0 1.03 4.167 7.759 7.759 0 0 0 3.121 3.1 10.457 10.457 0 0 0 5.211 1.183 13.525 13.525 0 0 0 4.975-.827 11.467 11.467 0 0 0 3.71-2.363c.407-.392.794-.805 1.158-1.238.114.612.33 1.2.638 1.741a4.76 4.76 0 0 0 2.296 2.01c1.066.429 2.208.64 3.356.62.354 0 .697-.011 1.031-.03.328-.02.653-.07.971-.149.314-.078.598-.146.854-.206.231-.052.457-.12.677-.207l.648-3.958c-.325.111-.66.19-1.001.236a6.723 6.723 0 0 1-.824.057Zm-9.804-2.659c-.639.507-1.33.943-2.061 1.301a9.292 9.292 0 0 1-2.296.768c-.825.16-1.663.238-2.503.236a6.613 6.613 0 0 1-2.797-.532 3.849 3.849 0 0 1-1.737-1.506 4.427 4.427 0 0 1-.589-2.334 4.491 4.491 0 0 1 .766-2.778 4.502 4.502 0 0 1 2.473-1.477 17.888 17.888 0 0 1 4.593-.472h5.156l-.027 5.864a7.886 7.886 0 0 1-.978.93ZM238.139 37.014l-.706-4.196h-22.729l-.707 4.727h17.1l-17.628 21.39.706 4.018h24.024l.648-4.787H220.85l17.289-21.152ZM250.525 58.167l17.292-21.152-.708-4.196h-22.728l-.707 4.727h17.098l-17.628 21.39.707 4.018h24.024l.647-4.787h-17.997Z"/></svg>