<svg xmlns="http://www.w3.org/2000/svg" viewBox="0 0 133 28"><path fill="#FFE100" d="M0 0h133v28H0z"/><path fill="#000" d="M89.386 15.463a6.656 6.656 0 0 1-.206 1.745 3.187 3.187 0 0 1-.641 1.262 2.68 2.68 0 0 1-1.134.759 4.92 4.92 0 0 1-1.685.256 5.048 5.048 0 0 1-1.952-.345 2.47 2.47 0 0 1-1.262-1.163 4.77 4.77 0 0 1-.434-2.218V7.006h-2.07v9.09c-.022.817.13 1.63.444 2.385a4.066 4.066 0 0 0 1.222 1.587c.537.41 1.15.708 1.804.877.708.187 1.437.28 2.169.276a6.487 6.487 0 0 0 3.174-.69 4.33 4.33 0 0 0 1.843-1.932 6.633 6.633 0 0 0 .601-2.918V7.007h-1.873v8.456ZM98.317 10.88c-.369.098-.72.251-1.045.453-.336.21-.647.458-.926.74-.047.046-.092.098-.138.147V10.75l-2.011.296v9.956h2.01v-7.448a5.19 5.19 0 0 1 1.074-.576c.204-.079.411-.148.622-.207a4.227 4.227 0 0 1 1.38-.148l.237-1.853c-.404-.029-.81.008-1.203.109ZM109.81 10.495l-1.104 1.165a4.55 4.55 0 0 0-.453-.297 5.392 5.392 0 0 0-2.681-.631 5.39 5.39 0 0 0-2.691.65 4.546 4.546 0 0 0-1.794 1.834 5.793 5.793 0 0 0-.641 2.8 5.972 5.972 0 0 0 .611 2.789c.113.214.243.42.389.613l-1.098 1.171.906.828 1.052-1.136c.151.113.31.216.476.308a5.342 5.342 0 0 0 2.612.61 5.496 5.496 0 0 0 2.711-.65 4.676 4.676 0 0 0 1.843-1.852 5.74 5.74 0 0 0 .67-2.84 5.635 5.635 0 0 0-.621-2.71 4.657 4.657 0 0 0-.4-.613l1.139-1.21-.926-.829Zm-6.88 3.411c.221-.494.59-.907 1.055-1.183a3.147 3.147 0 0 1 1.607-.394c.446-.01.889.074 1.301.246.221.1.426.234.606.397l-4.587 4.954a5.098 5.098 0 0 1-.356-2.029 4.63 4.63 0 0 1 .374-1.991Zm5.205 4.06c-.226.51-.6.94-1.075 1.233a3.005 3.005 0 0 1-1.567.404 2.854 2.854 0 0 1-1.548-.414 2.445 2.445 0 0 1-.366-.29l4.589-4.954c.068.157.126.319.174.483.13.479.193.973.187 1.469a4.815 4.815 0 0 1-.394 2.071v-.001ZM117.262 10.88a3.86 3.86 0 0 0-1.045.453c-.336.21-.647.458-.926.74-.047.046-.092.098-.138.147V10.75l-2.011.296v9.956h2.011v-7.448a5.145 5.145 0 0 1 1.074-.576 6.91 6.91 0 0 1 .621-.207 4.24 4.24 0 0 1 1.38-.148l.237-1.853a3.744 3.744 0 0 0-1.203.109ZM125.818 19.357c-.092.02-.194.04-.305.059l-.335.059c-.108.02-.217.032-.326.04-.105.006-.204.01-.296.01a1.982 1.982 0 0 1-.877-.178 1.27 1.27 0 0 1-.562-.523 1.663 1.663 0 0 1-.197-.837v-5.461h2.78l.217-1.578h-2.997V7.833l-2.011.71v2.405h-1.518l-.217 1.578h1.735V18.4c-.009.391.051.782.178 1.153.101.293.259.565.463.798.188.209.416.376.671.493.26.12.535.206.817.256.28.052.564.078.848.08.21 0 .417-.007.621-.02.205-.013.391-.033.562-.06a8.914 8.914 0 0 0 .867-.177l.119-1.636a1.55 1.55 0 0 1-.237.069ZM60.722 7.006h-4.318s2.454 4.028 2.481 4.079a.679.679 0 0 1 .016.823L56.404 16h4.319s2.082-3.405 2.367-3.878a1.033 1.033 0 0 0-.012-1.25c-.307-.524-.307-.524-2.356-3.867ZM55.846 7.006H52v13.992h3.846V7.006ZM74.248 9.324a381.01 381.01 0 0 0-1.43-2.318h-9.244l2.02 3.386h4.868l-2.009 3.293 2.239 3.761-2.16 3.551h3.945c.635-1.038 1.583-2.643 1.781-2.972a1.037 1.037 0 0 0-.011-1.256c-.198-.337-1.254-2.013-1.886-3.045 0 0 1.7-2.816 1.897-3.145a1.036 1.036 0 0 0-.01-1.255Z"/><path fill="#000" d="M65.357 14.14c-.609.993-1.626 2.658-1.817 2.983a.998.998 0 0 0-.01 1.21c.19.317 1.215 1.995 1.827 2.996.61-1 1.636-2.678 1.827-2.996a.999.999 0 0 0-.011-1.21c-.19-.325-1.208-1.99-1.816-2.984ZM6.667 21V7.001h4.593v14H6.667ZM17.509 9.23 20.151 21h-5.027L11.97 7.001h2.82a2.655 2.655 0 0 1 1.764.641c.49.404.828.964.955 1.587ZM20.841 21V7.001h4.593v14h-4.593Zm8.063-8.675a2.738 2.738 0 0 1-1.41-.375 2.777 2.777 0 0 1-1.015-1.015 2.735 2.735 0 0 1-.375-1.41 2.686 2.686 0 0 1 .375-1.4 2.812 2.812 0 0 1 3.825-1.005c.415.244.76.59 1.005 1.005.25.424.38.908.375 1.4.004.495-.125.982-.375 1.41a2.8 2.8 0 0 1-1.006 1.015c-.423.251-.908.38-1.4.375ZM32.394 21V7.001h4.593v14h-4.593Zm10.409-6.349c.013.014.111.175.295.483.185.309.424.703.72 1.183a373.133 373.133 0 0 1 1.863 3.056c.288.48.617 1.023.986 1.627H41.62a712.71 712.71 0 0 0-.858-1.39 127.3 127.3 0 0 1-.818-1.34c-.289-.48-.575-.947-.858-1.4a71.117 71.117 0 0 1-.729-1.193 20.869 20.869 0 0 0-.424-.69 2.039 2.039 0 0 1-.335-.986c.02-.338.128-.665.315-.947.079-.131.224-.365.434-.7a209.23 209.23 0 0 0 1.598-2.603c.289-.48.561-.93.817-1.35L41.62 7h5.047l-3.904 6.369c-.12.189-.189.407-.197.63.013.236.095.463.236.651Z"/></svg>