<svg xmlns="http://www.w3.org/2000/svg" viewBox="0 0 74 24"><rect width="72.578" height="24" x=".566" fill="#00B3C7" rx="12"/><path fill="#fff" d="M9.999 18V6.001h3.937V18H9.999Zm9.293-10.09L21.557 18h-4.31L14.545 6.001h2.417a2.276 2.276 0 0 1 1.512.55c.421.345.71.826.82 1.36ZM22.148 18V6.001h3.937V18h-3.937Zm6.911-7.436a2.382 2.382 0 0 1-2.4-2.4 2.302 2.302 0 0 1 .322-1.2 2.41 2.41 0 0 1 3.278-.861c.356.209.652.506.862.861.214.363.326.778.32 1.2a2.401 2.401 0 0 1-1.183 2.079 2.3 2.3 0 0 1-1.199.321ZM32.05 18V6.001h3.938V18H32.05Zm8.922-5.442c.011.012.096.15.254.414.158.265.363.603.617 1.014a339.194 339.194 0 0 1 1.596 2.62L44.284 18h-4.326c-.27-.44-.515-.837-.735-1.191-.22-.355-.453-.738-.7-1.15-.249-.41-.494-.81-.736-1.2-.243-.389-.451-.73-.625-1.022-.175-.293-.296-.49-.364-.591a1.75 1.75 0 0 1-.287-.845c.017-.29.11-.57.27-.812.068-.113.192-.313.372-.6s.392-.628.634-1.022c.242-.395.487-.797.735-1.209l.701-1.157.735-1.2h4.326l-3.346 5.458a1.078 1.078 0 0 0-.169.542c.011.201.082.395.203.557ZM59.294 3.688a8.914 8.914 0 0 1 2.825 1.905 8.912 8.912 0 0 1 1.906 2.826 8.669 8.669 0 0 1 .688 3.446 8.628 8.628 0 0 1-.688 3.43 8.919 8.919 0 0 1-4.73 4.731 8.676 8.676 0 0 1-3.448.688 8.672 8.672 0 0 1-3.446-.688 8.82 8.82 0 0 1-2.817-1.905 8.983 8.983 0 0 1-1.897-2.825 8.623 8.623 0 0 1-.688-3.43 8.664 8.664 0 0 1 .688-3.447 8.975 8.975 0 0 1 1.897-2.826A8.817 8.817 0 0 1 52.4 3.688 8.668 8.668 0 0 1 55.847 3a8.672 8.672 0 0 1 3.447.688Zm-.663 14.723a7.144 7.144 0 0 0 2.27-1.517 7.022 7.022 0 0 0 2.071-5.03 7.025 7.025 0 0 0-.546-2.766 7.077 7.077 0 0 0-1.525-2.27 7.197 7.197 0 0 0-2.27-1.533 6.984 6.984 0 0 0-2.784-.555 6.94 6.94 0 0 0-2.767.555 7.196 7.196 0 0 0-3.803 3.803 6.94 6.94 0 0 0-.555 2.767c-.007.95.182 1.893.555 2.768.36.846.88 1.614 1.533 2.261a7.141 7.141 0 0 0 2.27 1.517 7.029 7.029 0 0 0 2.767.547 7.07 7.07 0 0 0 2.784-.547Zm-6.653-5.551a1.305 1.305 0 0 1-.39-.945 1.344 1.344 0 0 1 .39-.977 1.283 1.283 0 0 1 .953-.398 1.358 1.358 0 0 1 .986.398 1.316 1.316 0 0 1 .406.977 1.277 1.277 0 0 1-.406.945 1.357 1.357 0 0 1-.986.397 1.281 1.281 0 0 1-.953-.397Zm6.736-2.9c.01-.034.033-.034.066 0l.398 1.077a.13.13 0 0 0 .133.1l1.176.032c.022 0 .033.009.033.026a.091.091 0 0 1-.033.058l-.845.729a.126.126 0 0 0-.083.165l.299 1.078c0 .055-.017.082-.05.082l-.978-.646a.298.298 0 0 0-.199 0l-.928.646c-.044 0-.06-.027-.05-.082l.299-1.078a.178.178 0 0 0-.083-.165l-.878-.73a.13.13 0 0 1-.017-.057c0-.017.006-.026.017-.026l1.176-.032a.14.14 0 0 0 .15-.1l.397-1.077Z"/></svg>