<svg xmlns="http://www.w3.org/2000/svg" viewBox="0 0 24 24" fill="currentColor"><path fill-rule="evenodd" d="M1 17a1 1 0 0 0 1 1h1a3 3 0 0 0 3-3V4a3 3 0 0 0-3-3H2a1 1 0 0 0 0 2h1a1 1 0 0 1 1 1v11a1 1 0 0 1-1 1H2a1 1 0 0 0-1 1Zm10 3a1 1 0 0 1-1-1V5.5a.5.5 0 0 1 .5-.5h8.03a2 2 0 0 1 1.979 1.711l.876 6A2 2 0 0 1 19.406 15H13.5a1.5 1.5 0 0 0-1.5 1.5V19a1 1 0 0 1-1 1Zm-3-1a3 3 0 1 0 6 0v-2h5.406a4 4 0 0 0 3.958-4.578l-.876-6A4 4 0 0 0 18.53 3H9.998A1.998 1.998 0 0 0 8 5v14Z" clip-rule="evenodd"/></svg>