<svg xmlns="http://www.w3.org/2000/svg" viewBox="0 0 24 24"><path fill="#000" fill-rule="evenodd" d="M23 19a3 3 0 0 1-3 3h-.658a3 3 0 0 1-2.91-2.272L16 18H8l-.432 1.728A3 3 0 0 1 4.658 22H4a3 3 0 0 1-3-3v-6C1 6.925 5.925 2 12 2s11 4.925 11 11v6ZM7.813 16a1.76 1.76 0 0 0-1.708 1.333l-.407 1.63A1.37 1.37 0 0 1 3 18.63V13a9 9 0 0 1 18 0v5.63a1.37 1.37 0 0 1-2.698.333l-.407-1.63A1.76 1.76 0 0 0 16.187 16H7.813ZM9 10V9a1 1 0 0 0-2 0v1H6a1 1 0 1 0 0 2h1v1a1 1 0 1 0 2 0v-1h1a1 1 0 1 0 0-2H9Zm6 1a1 1 0 1 0 2 0 1 1 0 0 0-2 0Zm-2 0a3 3 0 1 0 6 0 3 3 0 0 0-6 0Z" clip-rule="evenodd"/></svg>