<svg xmlns="http://www.w3.org/2000/svg" viewBox="0 0 24 24"><g fill="#000" opacity=".3"><path d="M2 6a1 1 0 0 1 1-1h6a1 1 0 0 1 0 2H3a1 1 0 0 1-1-1ZM2 12a1 1 0 0 1 1-1h6a1 1 0 1 1 0 2H3a1 1 0 0 1-1-1ZM22 18a1 1 0 0 0-1-1H3a1 1 0 1 0 0 2h18a1 1 0 0 0 1-1Z"/></g><path fill="#000" fill-rule="evenodd" d="M21.958 5.25a1.002 1.002 0 0 1-.01 1.426L16.266 12.2a1 1 0 0 1-1.437-.044L12.69 9.805a1.007 1.007 0 0 1 .091-1.434 1.007 1.007 0 0 1 1.39.066l1.458 1.552 4.927-4.753a1.002 1.002 0 0 1 1.403.014Z" clip-rule="evenodd"/></svg>