<svg xmlns="http://www.w3.org/2000/svg" viewBox="0 0 40 24" fill="currentColor"><path d="M11.662 17.228H9.487v-8.25c-.32.19-.65.35-.99.48-.34.13-.74.245-1.2.345l-.33-1.74c.69-.17 1.33-.385 1.92-.645.59-.26 1.205-.54 1.845-.84h.93v10.65Zm3.142.195c-.39 0-.72-.125-.99-.375-.26-.26-.39-.58-.39-.96 0-.36.13-.67.39-.93.27-.26.6-.39.99-.39.38 0 .7.13.96.39.27.26.405.57.405.93 0 .38-.135.7-.405.96-.26.25-.58.375-.96.375Zm5.109-1.725c.77 0 1.36-.13 1.77-.39.41-.26.616-.72.616-1.38 0-.41-.13-.74-.39-.99s-.73-.435-1.41-.555c-.67-.13-1.63-.205-2.88-.225l.524-5.58h6.18l-.314 1.74h-4.245l-.21 2.31c1.23.07 2.205.23 2.925.48.73.24 1.25.585 1.56 1.035.32.45.48 1.015.48 1.695 0 1.1-.38 1.965-1.14 2.595-.76.63-1.9.945-3.42.945-.43 0-.825-.025-1.186-.075-.35-.05-.744-.125-1.184-.225l-.195-1.74c.45.11.88.2 1.29.27.41.06.82.09 1.23.09Zm5.261 1.53 2.684-3.87-2.474-3.615 2.084-.525 1.65 2.925 1.53-2.67h2.37l-2.655 3.795 2.67 3.96h-2.355l-1.62-2.715-1.59 2.715h-2.294Z"/></svg>