<svg width="24" height="24" viewBox="0 0 24 24" fill="none" xmlns="http://www.w3.org/2000/svg">
<path opacity="0.5" fill-rule="evenodd" clip-rule="evenodd" d="M12 3C7.02944 3 3 7.02944 3 12C3 16.9706 7.02944 21 12 21C16.9706 21 21 16.9706 21 12C21 7.02944 16.9706 3 12 3ZM1 12C1 5.92487 5.92487 1 12 1C18.0751 1 23 5.92487 23 12C23 18.0751 18.0751 23 12 23C5.92487 23 1 18.0751 1 12Z" fill="black"/>
<path d="M15.293 7.29297L7.29297 15.293L8.70718 16.7072L16.7072 8.70718L15.293 7.29297Z" fill="black"/>
<path d="M8.70721 7.29297L16.7072 15.293L15.293 16.7072L7.293 8.70718L8.70721 7.29297Z" fill="black"/>
</svg>
