<svg width="24" height="24" viewBox="0 0 24 24" fill="none" xmlns="http://www.w3.org/2000/svg">
<path fill-rule="evenodd" clip-rule="evenodd" d="M1 7C1 6.44772 1.44772 6 2 6H3C4.65685 6 6 7.34315 6 9V20C6 21.6569 4.65685 23 3 23H2C1.44772 23 1 22.5523 1 22C1 21.4477 1.44772 21 2 21H3C3.55228 21 4 20.5523 4 20V9C4 8.44772 3.55228 8 3 8H2C1.44772 8 1 7.55228 1 7Z" fill="black"/>
<path fill-rule="evenodd" clip-rule="evenodd" d="M11 4C10.4477 4 10 4.44772 10 5V18.5C10 18.7761 10.2239 19 10.5 19H18.53C19.5229 19 20.3655 18.2715 20.509 17.289L21.3851 11.289C21.5614 10.0822 20.6257 9 19.4061 9H13.5C12.6716 9 12 8.32843 12 7.5V5C12 4.44772 11.5523 4 11 4ZM8 5C8 3.34315 9.34315 2 11 2C12.6569 2 14 3.34315 14 5V7H19.4061C21.8453 7 23.7166 9.16438 23.3641 11.578L22.488 17.578C22.201 19.543 20.5158 21 18.53 21C17.2558 21 12.6802 21 9.99809 21C8.89352 21 8 20.1046 8 19V5Z" fill="black"/>
</svg>
