<svg xmlns="http://www.w3.org/2000/svg" viewBox="0 0 24 24" fill="currentColor"><path fill-rule="evenodd" d="M11 9.5a.5.5 0 0 1 1 0V12h1.5a.5.5 0 0 1 0 1h-1.9a.6.6 0 0 1-.6-.6V9.5Z" clip-rule="evenodd"/><path fill-rule="evenodd" d="M6 9a3 3 0 0 1 3-3h6a3 3 0 0 1 3 3v6a3 3 0 0 1-3 3H9a3 3 0 0 1-3-3V9Zm3-1a1 1 0 0 0-1 1v6a1 1 0 0 0 1 1h6a1 1 0 0 0 1-1V9a1 1 0 0 0-1-1H9Z" clip-rule="evenodd"/><path fill-rule="evenodd" d="M8 5a3 3 0 0 1 3-3h2a3 3 0 0 1 3 3v3H8V5Zm3-1a1 1 0 0 0-1 1v1h4V5a1 1 0 0 0-1-1h-2Zm5 15a3 3 0 0 1-3 3h-2a3 3 0 0 1-3-3v-3h8v3Zm-3 1a1 1 0 0 0 1-1v-1h-4v1a1 1 0 0 0 1 1h2Z" clip-rule="evenodd"/></svg>