<svg width="24" height="24" viewBox="0 0 24 24" fill="none" xmlns="http://www.w3.org/2000/svg">
<circle opacity="0.3" cx="12" cy="12" r="10" stroke="black" stroke-width="2"/>
<path d="M2.00002 12C1.44773 12 0.995261 12.4492 1.04479 12.9992C1.54967 18.6061 6.26172 23 12 23C18.0751 23 23 18.0751 23 12C23 6.26166 18.6061 1.54961 12.9993 1.04473C12.4492 0.9952 12 1.44767 12 1.99995C12 2.55224 12.4495 2.99412 12.9984 3.05471C17.4991 3.55142 21 7.36685 21 12C21 16.9705 16.9706 21 12 21C7.36691 21 3.55148 17.4991 3.05477 12.9984C2.99418 12.4494 2.5523 12 2.00002 12Z" fill="black"/>
</svg>
