<svg width="24" height="24" viewBox="0 0 24 24" fill="none" xmlns="http://www.w3.org/2000/svg">
<path d="M17 5C17.5523 5 18 5.44772 18 6C18 6.55228 17.5523 7 17 7H14.8C14.3582 7 14 7.35817 14 7.8V14.0336L16.9885 20.5872C17.2901 21.2484 16.8068 22 16.08 22C15.6889 22 15.3338 21.7716 15.1715 21.4158L6.96181 3.41289C6.66026 2.75163 7.14359 2 7.87037 2C8.26151 2 8.61664 2.22837 8.77893 2.58425L12 9.6478V7.57143C12 6.15127 13.1513 5 14.5714 5H17Z" fill="black"/>
<path d="M6 15C6 13.3643 6.98183 11.9579 8.3883 11.338L9.21848 13.1585C8.50226 13.4628 8 14.1727 8 15C8 16.1046 8.89543 17 10 17C10.315 17 10.6129 16.9272 10.878 16.7975L11.7081 18.618C11.1901 18.863 10.6111 19 10 19C7.79086 19 6 17.2091 6 15Z" fill="black"/>
</svg>
