<svg width="24" height="24" viewBox="0 0 24 24" fill="none" xmlns="http://www.w3.org/2000/svg">
<path fill-rule="evenodd" clip-rule="evenodd" d="M11 22C9.34315 22 8 20.6569 8 19L8 5C8 3.89543 8.89352 3 9.99809 3L18.53 3C20.5158 3 22.201 4.45698 22.488 6.42202L23.3641 12.422C23.7166 14.8356 21.8453 17 19.4061 17L14 17L14 19C14 20.6569 12.6569 22 11 22ZM2 18C1.44772 18 1 17.5523 1 17C1 16.4477 1.44772 16 2 16L3 16C3.55229 16 4 15.5523 4 15L4 4C4 3.44772 3.55229 3 3 3L2 3C1.44772 3 1 2.55228 1 2C1 1.44772 1.44772 1 2 1L3 1C4.65686 1 6 2.34315 6 4L6 15C6 16.6569 4.65685 18 3 18L2 18ZM11 20C10.4477 20 10 19.5523 10 19L10 18L12 18L12 19C12 19.5523 11.5523 20 11 20Z" fill="black"/>
</svg>
