<svg width="24" height="24" viewBox="0 0 24 24" fill="none" xmlns="http://www.w3.org/2000/svg">
<path d="M13 11.5858V7C13 6.44772 12.5523 6 12 6C11.4477 6 11 6.44772 11 7V11.5858C11 12.1162 11.2107 12.6249 11.5858 13L14.5858 16C14.9763 16.3905 15.6095 16.3905 16 16C16.3905 15.6095 16.3905 14.9763 16 14.5858L13 11.5858Z" fill="black"/>
<path fill-rule="evenodd" clip-rule="evenodd" d="M12 23C18.0751 23 23 18.0751 23 12C23 5.92487 18.0751 1 12 1C5.92487 1 1 5.92487 1 12C1 18.0751 5.92487 23 12 23ZM12 21C7.02944 21 3 16.9706 3 12C3 7.02944 7.02944 3 12 3C16.9706 3 21 7.02944 21 12C21 16.9706 16.9706 21 12 21Z" fill="black"/>
</svg>
