<svg width="24" height="24" viewBox="0 0 24 24" fill="none" xmlns="http://www.w3.org/2000/svg">
<path d="M7 2L12.5666 5.61826C12.8369 5.79398 13 6.09453 13 6.41696C13 7.17279 12.162 7.62757 11.5283 7.21566L8 4.9223L8 16.0023C8 16.5546 7.55228 17.0023 7 17.0023C6.44771 17.0023 6 16.5546 6 16.0023L6 4.9223L2.47175 7.21566C1.83803 7.62757 1 7.17279 1 6.41696C1 6.09453 1.1631 5.79398 1.43344 5.61826L7 2Z" fill="black"/>
<path d="M16 19.0799V7.99992C16 7.44763 16.4477 6.99991 17 6.99992C17.5523 6.99992 18 7.44763 18 7.99992V19.0799L21.5283 16.7865C22.162 16.3746 23 16.8294 23 17.5852C23 17.9077 22.8369 18.2082 22.5666 18.3839L17 22.0022L11.4334 18.3839C11.1631 18.2082 11 17.9077 11 17.5852C11 16.8294 11.838 16.3746 12.4718 16.7865L16 19.0799Z" fill="black"/>
</svg>
