<svg width="24" height="24" viewBox="0 0 24 24" fill="none" xmlns="http://www.w3.org/2000/svg">
<path opacity="0.5" fill-rule="evenodd" clip-rule="evenodd" d="M12 3C7.02944 3 3 7.02944 3 12C3 16.9706 7.02944 21 12 21C16.9706 21 21 16.9706 21 12C21 7.02944 16.9706 3 12 3ZM1 12C1 5.92487 5.92487 1 12 1C18.0751 1 23 5.92487 23 12C23 18.0751 18.0751 23 12 23C5.92487 23 1 18.0751 1 12Z" fill="black"/>
<path d="M16.0001 8.00008C15.6096 7.60955 14.9764 7.60955 14.5859 8.00008L8.00007 14.5859C7.60955 14.9764 7.60955 15.6096 8.00008 16.0001C8.3906 16.3906 9.02376 16.3906 9.41429 16.0001L16.0001 9.41429C16.3906 9.02376 16.3906 8.3906 16.0001 8.00008Z" fill="black"/>
<path d="M8.00011 8.00008C8.39063 7.60955 9.0238 7.60955 9.41432 8.00008L16.0001 14.5859C16.3906 14.9764 16.3906 15.6096 16.0001 16.0001C15.6096 16.3906 14.9764 16.3906 14.5859 16.0001L8.00011 9.41429C7.60958 9.02376 7.60958 8.3906 8.00011 8.00008Z" fill="black"/>
</svg>
