<svg width="24" height="24" viewBox="0 0 24 24" fill="none" xmlns="http://www.w3.org/2000/svg">
<path d="M11.2786 2.15477C10.9612 1.70277 11.0704 1.07908 11.5224 0.761734C11.9744 0.444387 12.5981 0.553549 12.9154 1.00555L15.2715 4.36139C15.3047 4.40155 15.3348 4.44434 15.3614 4.48941L15.7219 5.00279L12.9154 9.00003C12.5981 9.45203 11.9744 9.5612 11.5224 9.24385C11.0704 8.9265 10.9612 8.30282 11.2786 7.85081L12.5797 5.99762H12C8.41015 5.99762 5.5 8.90777 5.5 12.4976C5.5 16.0875 8.41015 18.9976 12 18.9976C15.5899 18.9976 18.5 16.0875 18.5 12.4976C18.5 11.0332 18.0169 9.68446 17.201 8.5982C16.8693 8.15661 16.9584 7.52974 17.4 7.19805C17.8416 6.86636 18.4684 6.95545 18.8001 7.39704C19.8673 8.81776 20.5 10.5852 20.5 12.4976C20.5 17.192 16.6944 20.9976 12 20.9976C7.30558 20.9976 3.5 17.192 3.5 12.4976C3.5 7.8032 7.30558 3.99762 12 3.99762H12.5724L11.2786 2.15477Z" fill="black"/>
</svg>
