<svg xmlns="http://www.w3.org/2000/svg" viewBox="0 0 40 24" fill="currentColor"><path d="M7.465 17.302H5.29v-8.25c-.32.19-.65.35-.99.48-.34.13-.74.245-1.2.345l-.33-1.74c.69-.17 1.33-.385 1.92-.645.59-.26 1.205-.54 1.845-.84h.93v10.65Zm3.142.195c-.39 0-.72-.125-.99-.375-.26-.26-.39-.58-.39-.96 0-.36.13-.67.39-.93.27-.26.6-.39.99-.39.38 0 .7.13.96.39.27.26.405.57.405.93 0 .38-.135.7-.405.96-.26.25-.58.375-.96.375Zm2.725-.195-.3-1.215c1.04-.85 1.93-1.63 2.67-2.34s1.305-1.375 1.695-1.995c.39-.63.585-1.235.585-1.815 0-.54-.175-.965-.525-1.275-.34-.32-.855-.48-1.545-.48-.47 0-.925.07-1.365.21-.44.13-.835.305-1.185.525l-.225-1.665c.44-.23.915-.41 1.425-.54.51-.14 1.065-.21 1.665-.21.89 0 1.625.13 2.205.39.59.26 1.025.615 1.305 1.065.29.44.435.94.435 1.5 0 .54-.13 1.09-.39 1.65-.25.55-.59 1.095-1.02 1.635-.42.53-.895 1.04-1.425 1.53-.52.49-1.05.935-1.59 1.335h4.695l-.255 1.695h-6.855Zm10.778-1.53c.77 0 1.36-.13 1.77-.39.41-.26.615-.72.615-1.38 0-.41-.13-.74-.39-.99s-.73-.435-1.41-.555c-.67-.13-1.63-.205-2.88-.225l.525-5.58h6.18l-.315 1.74H23.96l-.21 2.31c1.23.07 2.205.23 2.925.48.73.24 1.25.585 1.56 1.035.32.45.48 1.015.48 1.695 0 1.1-.38 1.965-1.14 2.595-.76.63-1.9.945-3.42.945-.43 0-.825-.025-1.185-.075-.35-.05-.745-.125-1.185-.225l-.195-1.74c.45.11.88.2 1.29.27.41.06.82.09 1.23.09Zm5.26 1.53 2.685-3.87-2.475-3.615 2.085-.525 1.65 2.925 1.53-2.67h2.37l-2.655 3.795 2.67 3.96h-2.355l-1.62-2.715-1.59 2.715H29.37Z"/></svg>