<svg xmlns="http://www.w3.org/2000/svg" viewBox="0 0 24 24"><g fill="#000" opacity=".3"><path d="M13 18a1 1 0 0 0 1 1h7a1 1 0 1 0 0-2h-7a1 1 0 0 0-1 1ZM10 12a1 1 0 0 0 1 1h10a1 1 0 1 0 0-2H11a1 1 0 0 0-1 1ZM22 6a1 1 0 0 1-1 1H9a1 1 0 1 1 0-2h12a1 1 0 0 1 1 1Z"/></g><path fill="#000" d="M2 6a1 1 0 0 1 2 0v10a1 1 0 0 0 1 1h2.216l-.284-.523A1 1 0 0 1 7.811 15h.094a1 1 0 0 1 .879.523L10.13 18l-1.346 2.477a1 1 0 0 1-.879.523h-.094a1 1 0 0 1-.879-1.477L7.216 19H4.608A2.608 2.608 0 0 1 2 16.392V6Z"/></svg>