<svg width="24" height="24" viewBox="0 0 24 24" fill="none" xmlns="http://www.w3.org/2000/svg">
<g opacity="0.3">
<path d="M13 6C13 5.44772 13.4477 5 14 5H21C21.5523 5 22 5.44772 22 6C22 6.55228 21.5523 7 21 7H14C13.4477 7 13 6.55228 13 6Z" fill="black"/>
<path d="M11 12C11 11.4477 11.4477 11 12 11H21C21.5523 11 22 11.4477 22 12C22 12.5523 21.5523 13 21 13H12C11.4477 13 11 12.5523 11 12Z" fill="black"/>
<path d="M22 18C22 17.4477 21.5523 17 21 17H9C8.44772 17 8 17.4477 8 18C8 18.5523 8.44772 19 9 19H21C21.5523 19 22 18.5523 22 18Z" fill="black"/>
</g>
<path d="M8.79569 3.54433C8.61346 3.20887 8.2623 3 7.88055 3C7.09082 3 6.58844 3.84461 6.9654 4.53856L7.21606 5H5C3.34315 5 2 6.34315 2 8V18C2 18.5523 2.44772 19 3 19C3.55228 19 4 18.5523 4 18V8C4 7.44772 4.44772 7 5 7H7.21606L6.9654 7.46144C6.58844 8.15539 7.09082 9 7.88055 9C8.2623 9 8.61346 8.79113 8.79569 8.45567L10.1296 6L8.79569 3.54433Z" fill="black"/>
</svg>
