<svg xmlns="http://www.w3.org/2000/svg" viewBox="0 0 24 24"><path fill="#000" d="m5.77 8.16 3.61.64h.01l-1.73 1.73-4.81-.85L2 4.87l1.73-1.72.63 3.61 1.12-1.12a8.98 8.98 0 0 1 12.72 0c.04.04.075.083.11.125.035.043.07.085.11.125.15.16.3.33.44.5.09.11.18.23.27.35.16.22.3.44.44.67.011.019.024.037.037.057.021.032.044.065.063.103a8.669 8.669 0 0 1 .49 1.02l.02.05c.35.88.56 1.79.63 2.72l-2.04-.29a7.16 7.16 0 0 0-.63-2.1l-.06-.12a7.15 7.15 0 0 0-.5-.84c-.019-.019-.033-.041-.05-.065a6.437 6.437 0 0 0-.75-.905 6.995 6.995 0 0 0-9.89 0L5.77 8.16ZM16.02 13.47l4.81.85.01.01.85 4.81-1.73 1.73-.64-3.61-1.12 1.12c-3.52 3.51-9.22 3.51-12.73 0l-.24-.27a8.962 8.962 0 0 1-2.37-5.46l2.04.29c.2 1.47.86 2.89 1.99 4.02.23.23.48.44.73.63 2.74 2.07 6.66 1.87 9.16-.63l1.12-1.12-3.61-.64 1.73-1.73Z"/></svg>