<svg width="24" height="24" viewBox="0 0 24 24" fill="none" xmlns="http://www.w3.org/2000/svg">
<path fill-rule="evenodd" clip-rule="evenodd" d="M10 13C8.89543 13 8 13.8954 8 15C8 16.1046 8.89543 17 10 17C11.1046 17 12 16.1046 12 15C12 13.8954 11.1046 13 10 13ZM6 15C6 12.7909 7.79086 11 10 11C12.2091 11 14 12.7909 14 15C14 17.2091 12.2091 19 10 19C7.79086 19 6 17.2091 6 15Z" fill="black"/>
<path fill-rule="evenodd" clip-rule="evenodd" d="M12 8C12 6.34315 13.3431 5 15 5H17C17.5523 5 18 5.44772 18 6C18 6.55228 17.5523 7 17 7H15C14.4477 7 14 7.44772 14 8V15H12V8Z" fill="black"/>
</svg>
