<svg width="24" height="24" viewBox="0 0 24 24" fill="none" xmlns="http://www.w3.org/2000/svg">
<g opacity="0.3">
<path d="M11 12C11 11.4477 11.4477 11 12 11H21C21.5523 11 22 11.4477 22 12C22 12.5523 21.5523 13 21 13H12C11.4477 13 11 12.5523 11 12Z" fill="black"/>
<path d="M22 18C22 17.4477 21.5523 17 21 17H3C2.44772 17 2 17.4477 2 18C2 18.5523 2.44772 19 3 19H21C21.5523 19 22 18.5523 22 18Z" fill="black"/>
<path d="M11 6C11 5.44772 11.4477 5 12 5H21C21.5523 5 22 5.44772 22 6C22 6.55228 21.5523 7 21 7H12C11.4477 7 11 6.55228 11 6Z" fill="black"/>
</g>
<path d="M3.15411 6.09838C2.63508 5.15469 3.31782 4 4.39482 4C4.91122 4 5.38667 4.28112 5.63553 4.7336L7.98206 9L5.63553 13.2664C5.38667 13.7189 4.91122 14 4.39482 14C3.31782 14 2.63508 12.8453 3.15411 11.9016L4.75 9L3.15411 6.09838Z" fill="black"/>
</svg>
