<svg width="24" height="24" viewBox="0 0 24 24" fill="none" xmlns="http://www.w3.org/2000/svg">
<path d="M18 4C17.4477 4 17 4.44772 17 5V8H14C13.4477 8 13 8.44772 13 9C13 9.55228 13.4477 10 14 10H17V13C17 13.5523 17.4477 14 18 14C18.5523 14 19 13.5523 19 13V10H22C22.5523 10 23 9.55228 23 9C23 8.44772 22.5523 8 22 8H19V5C19 4.44772 18.5523 4 18 4Z" fill="black"/>
<g opacity="0.3">
<path d="M1 6C1 5.44772 1.44772 5 2 5H10C10.5523 5 11 5.44772 11 6C11 6.55228 10.5523 7 10 7H2C1.44772 7 1 6.55228 1 6Z" fill="black"/>
<path d="M1 12C1 11.4477 1.44772 11 2 11H10C10.5523 11 11 11.4477 11 12C11 12.5523 10.5523 13 10 13H6H2C1.44772 13 1 12.5523 1 12Z" fill="black"/>
<path d="M21 18C21 17.4477 20.5523 17 20 17H2C1.44772 17 1 17.4477 1 18C1 18.5523 1.44772 19 2 19H20C20.5523 19 21 18.5523 21 18Z" fill="black"/>
</g>
</svg>
