<svg xmlns="http://www.w3.org/2000/svg" viewBox="0 0 24 24"><path fill="#000" d="M11.586 13A2 2 0 0 1 11 11.586V7a1 1 0 1 1 2 0v4.586l3 3A1 1 0 0 1 14.586 16l-3-3Z"/><path fill="#000" fill-rule="evenodd" d="M1 12C1 5.925 5.925 1 12 1s11 4.925 11 11c0 2.678-.958 5.13-2.549 7.037l1.842 1.842a1 1 0 1 1-1.414 1.414l-1.842-1.841A10.952 10.952 0 0 1 12 23c-2.678 0-5.13-.958-7.037-2.549L3.12 22.293a1 1 0 1 1-1.414-1.414l1.842-1.842A10.952 10.952 0 0 1 1 12Zm11-9a9 9 0 1 0 0 18 9 9 0 0 0 0-18Z" clip-rule="evenodd"/><path fill="#000" d="M3.58 2.078a1.5 1.5 0 1 1-3 0 1.5 1.5 0 0 1 3 0ZM23.42 2.078a1.5 1.5 0 1 1-3 0 1.5 1.5 0 0 1 3 0Z"/></svg>