<svg xmlns="http://www.w3.org/2000/svg" viewBox="0 0 40 24" fill="currentColor"><path d="m12.368 17.4-.3-1.215c1.04-.85 1.93-1.63 2.67-2.34s1.305-1.375 1.695-1.995c.39-.63.585-1.235.585-1.815 0-.54-.175-.965-.525-1.275-.34-.32-.855-.48-1.545-.48-.47 0-.925.07-1.365.21-.44.13-.835.305-1.185.525l-.225-1.665c.44-.23.915-.41 1.425-.54.51-.14 1.065-.21 1.665-.21.89 0 1.625.13 2.205.39.59.26 1.025.615 1.305 1.065.29.44.435.94.435 1.5 0 .54-.13 1.09-.39 1.65-.25.55-.59 1.095-1.02 1.635-.42.53-.895 1.04-1.425 1.53-.52.49-1.05.935-1.59 1.335h4.695l-.255 1.695h-6.855Zm7.704 0 2.685-3.87-2.475-3.615 2.085-.525 1.65 2.925 1.53-2.67h2.37l-2.655 3.795 2.67 3.96h-2.355l-1.62-2.715-1.59 2.715h-2.295Z"/></svg>