<svg width="24" height="24" viewBox="0 0 24 24" fill="none" xmlns="http://www.w3.org/2000/svg">
<path fill-rule="evenodd" clip-rule="evenodd" d="M11 9.5C11 9.22386 11.2239 9 11.5 9C11.7761 9 12 9.22386 12 9.5V12H13.5C13.7761 12 14 12.2239 14 12.5C14 12.7761 13.7761 13 13.5 13H11.6C11.2686 13 11 12.7314 11 12.4V9.5Z" fill="black"/>
<path fill-rule="evenodd" clip-rule="evenodd" d="M6 9C6 7.34315 7.34315 6 9 6H15C16.6569 6 18 7.34315 18 9V15C18 16.6569 16.6569 18 15 18H9C7.34315 18 6 16.6569 6 15V9ZM9 8C8.44772 8 8 8.44772 8 9V15C8 15.5523 8.44772 16 9 16H15C15.5523 16 16 15.5523 16 15V9C16 8.44772 15.5523 8 15 8H9Z" fill="black"/>
<path fill-rule="evenodd" clip-rule="evenodd" d="M8 5C8 3.34315 9.34315 2 11 2H13C14.6569 2 16 3.34315 16 5V8H8V5ZM11 4C10.4477 4 10 4.44772 10 5V6H14V5C14 4.44772 13.5523 4 13 4H11Z" fill="black"/>
<path fill-rule="evenodd" clip-rule="evenodd" d="M16 19C16 20.6569 14.6569 22 13 22H11C9.34315 22 8 20.6569 8 19L8 16L16 16L16 19ZM13 20C13.5523 20 14 19.5523 14 19V18H10V19C10 19.5523 10.4477 20 11 20H13Z" fill="black"/>
</svg>
