<svg xmlns="http://www.w3.org/2000/svg" viewBox="0 0 165 116"><path fill="#0A2343" d="M0 43V1.004h13.78V43H0ZM32.528 7.688 40.453 43h-15.08L15.908 1.004h8.459a7.965 7.965 0 0 1 5.293 1.922 8.31 8.31 0 0 1 2.867 4.762ZM42.523 43V1.004h13.78V43h-13.78Zm24.189-26.026a8.213 8.213 0 0 1-4.228-1.124 8.336 8.336 0 0 1-3.046-3.046 8.206 8.206 0 0 1-1.125-4.229 8.056 8.056 0 0 1 1.125-4.2 8.437 8.437 0 0 1 3.046-3.016A8.232 8.232 0 0 1 66.712.235a8.083 8.083 0 0 1 4.199 1.124 8.503 8.503 0 0 1 3.016 3.016 8.075 8.075 0 0 1 1.125 4.2 8.226 8.226 0 0 1-1.125 4.23 8.4 8.4 0 0 1-3.016 3.045 8.059 8.059 0 0 1-4.201 1.124h.002ZM77.18 43V1.004h13.781V43H77.181Zm31.227-19.046c.039.04.334.524.887 1.449.553.925 1.272 2.108 2.159 3.549a1143.28 1143.28 0 0 1 5.589 9.168A854.89 854.89 0 0 0 120 43h-15.141c-.947-1.538-1.804-2.928-2.573-4.17a382.214 382.214 0 0 1-2.453-4.022 351.934 351.934 0 0 0-2.574-4.2 213.445 213.445 0 0 1-2.188-3.578 62.753 62.753 0 0 0-1.272-2.07 6.119 6.119 0 0 1-1.005-2.958 5.744 5.744 0 0 1 .946-2.84c.236-.394.67-1.095 1.3-2.1.632-1.006 1.371-2.198 2.219-3.579.847-1.38 1.706-2.79 2.574-4.229.869-1.439 1.686-2.79 2.453-4.052.77-1.26 1.628-2.66 2.573-4.2H120l-11.711 19.106a3.773 3.773 0 0 0-.592 1.894c.039.706.286 1.385.709 1.952h.002Z"/><path fill="#114F9D" d="M25.517 83.31a11.14 11.14 0 0 0-2.93-2.169 22.673 22.673 0 0 0-3.545-1.455 39.936 39.936 0 0 0-3.867-1.012 82.71 82.71 0 0 1-2.843-.712c-.806-.21-1.591-.5-2.344-.862a7.725 7.725 0 0 1-1.786-1.189 4.278 4.278 0 0 1-1.144-1.663 6.488 6.488 0 0 1-.38-2.348 7.241 7.241 0 0 1 .38-2.436A4.544 4.544 0 0 1 8.23 67.65a7.232 7.232 0 0 1 1.847-1.247 8.599 8.599 0 0 1 2.431-.713c1-.145 2.01-.214 3.02-.208.919.002 1.838.051 2.752.148.926.098 1.846.247 2.755.446.884.195 1.754.443 2.608.743.8.279 1.574.627 2.315 1.04l.82-5.23a14.487 14.487 0 0 0-2.607-1.069 34.682 34.682 0 0 0-2.784-.714 27.466 27.466 0 0 0-2.871-.445c-.977-.099-1.973-.148-2.989-.148a24.618 24.618 0 0 0-6.153.712 13.83 13.83 0 0 0-4.775 2.2 9.887 9.887 0 0 0-3.106 3.742A12.243 12.243 0 0 0 .41 72.257a11.647 11.647 0 0 0 .674 4.188 8.595 8.595 0 0 0 1.904 3.002 11.36 11.36 0 0 0 2.813 2.08c1.1.575 2.247 1.052 3.429 1.427 1.23.396 2.49.733 3.78 1.01 1.054.237 2.03.485 2.93.743.835.234 1.648.542 2.43.921a7.592 7.592 0 0 1 1.847 1.248 5.008 5.008 0 0 1 1.2 1.783c.312.814.461 1.682.44 2.555a8.378 8.378 0 0 1-.41 2.734 6.38 6.38 0 0 1-1.171 2.08 5.645 5.645 0 0 1-1.875 1.425 9.358 9.358 0 0 1-2.55.773 20.03 20.03 0 0 1-3.25.238 25.16 25.16 0 0 1-3.165-.208 37.703 37.703 0 0 1-3.283-.566 32.548 32.548 0 0 1-3.193-.861A59.692 59.692 0 0 1 0 95.789l.762 5.884a31.66 31.66 0 0 0 3.047.98c.936.249 1.884.447 2.841.594.918.138 1.837.247 2.755.327a32.06 32.06 0 0 0 2.783.118 28.422 28.422 0 0 0 6.242-.653 14.823 14.823 0 0 0 5.097-2.14 10.012 10.012 0 0 0 3.4-3.892 13.318 13.318 0 0 0 1.2-5.972 13.586 13.586 0 0 0-.673-4.517 8.804 8.804 0 0 0-1.937-3.207ZM60.59 99.296a2.64 2.64 0 0 1-1.259-.192 2.674 2.674 0 0 1-1.028-.759 5.17 5.17 0 0 1-.643-3.15l.116-12.241a14.464 14.464 0 0 0-.47-3.803 9.368 9.368 0 0 0-1.405-3.032 7.994 7.994 0 0 0-2.431-2.199 12.358 12.358 0 0 0-3.546-1.365 20.578 20.578 0 0 0-4.629-.476 28.573 28.573 0 0 0-3.693.237 25.194 25.194 0 0 0-3.428.684 28.113 28.113 0 0 0-3.077 1.04l-.703 5.051a35.034 35.034 0 0 1 2.784-.891 35.059 35.059 0 0 1 2.549-.594 21.183 21.183 0 0 1 2.433-.326c.8-.06 1.59-.09 2.372-.09a12.95 12.95 0 0 1 3.545.416 5.093 5.093 0 0 1 2.258 1.249c.565.587.969 1.314 1.172 2.11.25.979.368 1.988.351 3l-.007 1.49-6.848.471c-2.343.067-4.65.59-6.798 1.544a9.774 9.774 0 0 0-4.015 3.298 7.753 7.753 0 0 0-1.318 4.368 8.788 8.788 0 0 0 1.026 4.19 7.762 7.762 0 0 0 3.105 3.119 10.318 10.318 0 0 0 5.186 1.189 13.347 13.347 0 0 0 4.952-.831 11.404 11.404 0 0 0 3.692-2.377c.406-.394.79-.81 1.153-1.245.114.616.328 1.207.635 1.751a4.745 4.745 0 0 0 2.284 2.021 8.465 8.465 0 0 0 3.34.624c.353 0 .694-.011 1.026-.03.326-.02.65-.07.967-.15.312-.079.596-.147.85-.208a4.42 4.42 0 0 0 .673-.208l.645-3.98a5.14 5.14 0 0 1-.995.237 6.677 6.677 0 0 1-.822.058Zm-9.758-2.674c-.636.51-1.323.948-2.051 1.308a9.176 9.176 0 0 1-2.286.773c-.82.16-1.654.239-2.49.236a6.514 6.514 0 0 1-2.783-.534 3.839 3.839 0 0 1-1.73-1.515 4.491 4.491 0 0 1-.585-2.347 4.546 4.546 0 0 1 .762-2.794 4.465 4.465 0 0 1 2.46-1.486 17.631 17.631 0 0 1 4.571-.474h5.132l-.026 5.898a7.98 7.98 0 0 1-.974.935ZM54.553 57.936h-6.328l-4.981 10.637h4.572l6.737-10.637ZM90.504 73.951a12.459 12.459 0 0 0-7.003-1.872 17.658 17.658 0 0 0-4.336.564 18.697 18.697 0 0 0-4.395 1.754c-.276.151-.548.32-.822.49v-2.749l-5.976.951v42.429h5.976v-13.304c.04.016.078.035.119.053 1.082.456 2.213.784 3.369.981 1.365.228 2.747.337 4.131.326 2.639.046 5.24-.631 7.53-1.962a14.025 14.025 0 0 0 5.273-5.674 19.209 19.209 0 0 0 1.962-9.062 18.7 18.7 0 0 0-1.493-7.725 11.897 11.897 0 0 0-4.335-5.2ZM88.95 93.829a8.137 8.137 0 0 1-3.37 3.743 10.707 10.707 0 0 1-5.361 1.248 16.47 16.47 0 0 1-5.391-.891 55.188 55.188 0 0 1-.88-.32V78.854c.078-.037.158-.085.236-.12.859-.397 1.66-.734 2.402-1.011a11.89 11.89 0 0 1 4.16-.773c1.807-.06 3.6.338 5.216 1.159a7.097 7.097 0 0 1 3.134 3.534 15.41 15.41 0 0 1 1.027 6.062 14.348 14.348 0 0 1-1.173 6.123ZM144.092 73.327a10.09 10.09 0 0 0-5.216-1.248 13.55 13.55 0 0 0-4.629.802 16.274 16.274 0 0 0-4.22 2.287 21.525 21.525 0 0 0-2.079 1.783 7.413 7.413 0 0 0-3.019-3.566 10.223 10.223 0 0 0-5.274-1.247c-1.567 0-3.122.272-4.6.802a16.58 16.58 0 0 0-4.248 2.259c-.421.307-.829.64-1.231.99v-4.046l-5.977.89v30.011h5.977v-22.61a18.73 18.73 0 0 1 2.198-1.257 14.955 14.955 0 0 1 2.9-1.04 11.94 11.94 0 0 1 2.813-.356 6.383 6.383 0 0 1 2.549.446 4.554 4.554 0 0 1 1.729 1.306c.509.663.86 1.436 1.025 2.26.229 1.063.337 2.149.323 3.237v18.007h5.977V83.782a24.287 24.287 0 0 0-.227-3.398 22.11 22.11 0 0 1 2.102-1.236 13.225 13.225 0 0 1 2.872-1.07 12.059 12.059 0 0 1 2.871-.358 6.456 6.456 0 0 1 2.52.447 4.48 4.48 0 0 1 1.758 1.308c.509.662.86 1.435 1.025 2.258.229 1.063.337 2.15.322 3.238v18.066h5.978V83.723a17.49 17.49 0 0 0-1.055-6.596 7.63 7.63 0 0 0-3.164-3.8ZM157.159 103.04h5.977V72.139l-5.977.891v30.01ZM163.722 61.174a4.167 4.167 0 0 0-1.435-1.486 3.756 3.756 0 0 0-2.022-.564 3.898 3.898 0 0 0-2.051.564 4.32 4.32 0 0 0-1.494 1.486 3.891 3.891 0 0 0-.557 2.05 4.036 4.036 0 0 0 .557 2.08 4.06 4.06 0 0 0 3.545 2.02 3.906 3.906 0 0 0 2.022-.534 3.847 3.847 0 0 0 1.435-1.485 4.207 4.207 0 0 0 .528-2.08 4.063 4.063 0 0 0-.528-2.051Z"/></svg>