<svg xmlns="http://www.w3.org/2000/svg" viewBox="0 0 120 104"><path fill="#0A2343" d="M0 43V1.004h13.78V43H0ZM32.528 7.688 40.453 43h-15.08L15.908 1.004h8.459a7.965 7.965 0 0 1 5.293 1.922 8.31 8.31 0 0 1 2.867 4.762ZM42.523 43V1.004h13.78V43h-13.78Zm24.189-26.026a8.213 8.213 0 0 1-4.228-1.124 8.336 8.336 0 0 1-3.046-3.046 8.206 8.206 0 0 1-1.125-4.229 8.056 8.056 0 0 1 1.125-4.2 8.437 8.437 0 0 1 3.046-3.016A8.232 8.232 0 0 1 66.712.235a8.083 8.083 0 0 1 4.199 1.124 8.503 8.503 0 0 1 3.016 3.016 8.075 8.075 0 0 1 1.125 4.2 8.226 8.226 0 0 1-1.125 4.23 8.4 8.4 0 0 1-3.016 3.045 8.059 8.059 0 0 1-4.201 1.124h.002ZM77.18 43V1.004h13.781V43H77.181Zm31.227-19.046c.039.04.334.524.887 1.449.553.925 1.272 2.108 2.159 3.549a1143.28 1143.28 0 0 1 5.589 9.168A854.89 854.89 0 0 0 120 43h-15.141c-.947-1.538-1.804-2.928-2.573-4.17a382.214 382.214 0 0 1-2.453-4.022 351.934 351.934 0 0 0-2.574-4.2 213.445 213.445 0 0 1-2.188-3.578 62.753 62.753 0 0 0-1.272-2.07 6.119 6.119 0 0 1-1.005-2.958 5.744 5.744 0 0 1 .946-2.84c.236-.394.67-1.095 1.3-2.1.632-1.006 1.371-2.198 2.219-3.579.847-1.38 1.706-2.79 2.574-4.229.869-1.439 1.686-2.79 2.453-4.052.77-1.26 1.628-2.66 2.573-4.2H120l-11.711 19.106a3.773 3.773 0 0 0-.592 1.894c.039.706.286 1.385.709 1.952h.002ZM28.507 66.44a10.574 10.574 0 0 0-2.75-2.869 13.187 13.187 0 0 0-3.992-1.892 18.905 18.905 0 0 0-5.323-.68H0v41.992h6.21V87.909h10.705a13.94 13.94 0 0 0 6.92-1.716 12.793 12.793 0 0 0 4.879-4.79 14.12 14.12 0 0 0 1.804-7.274 17.262 17.262 0 0 0-.473-4.08c-.307-1.281-.827-2.501-1.538-3.61Zm-5.5 12.746a6.999 6.999 0 0 1-3.342 2.75c-1.67.632-3.448.934-5.234.887H6.21V66.146h9.048a11.25 11.25 0 0 1 5.027.976 6.482 6.482 0 0 1 2.928 2.839 9.509 9.509 0 0 1 .976 4.465 8.746 8.746 0 0 1-1.183 4.76ZM43.144 62.39c-.848.453-1.675.877-2.483 1.27-.808.395-1.626.79-2.456 1.184-.827.394-1.675.749-2.543 1.064-.868.316-1.794.631-2.778.947l1.3 5.027a56.384 56.384 0 0 0 3.223-1.065 29.653 29.653 0 0 0 2.78-1.183 43.212 43.212 0 0 0 2.661-1.42l.03-.017v34.796h6.15V61.001h-3.192c-.947.47-1.844.934-2.692 1.388ZM81.261 87.258a9.313 9.313 0 0 0-1.892-3.194 9.204 9.204 0 0 0-3.105-2.187 14.937 14.937 0 0 0-4.229-1.124v-.178a14.644 14.644 0 0 0 4.85-2.632 12.336 12.336 0 0 0 3.105-3.814 9.832 9.832 0 0 0 1.094-4.554 8.204 8.204 0 0 0-.887-3.875 8.254 8.254 0 0 0-2.603-2.897A12.068 12.068 0 0 0 73.424 61a23.954 23.954 0 0 0-5.588-.591 26.956 26.956 0 0 0-3.696.267c-1.268.174-2.522.43-3.756.769a17.423 17.423 0 0 0-3.43 1.33l.828 4.673c.866-.355 1.704-.66 2.513-.918a23.463 23.463 0 0 1 4.525-.975 18.736 18.736 0 0 1 2.07-.118c1.25-.02 2.5.098 3.725.354a6.9 6.9 0 0 1 2.485 1.036 4.056 4.056 0 0 1 1.39 1.714 6.21 6.21 0 0 1 .443 2.455 6.856 6.856 0 0 1-.798 3.313 7.675 7.675 0 0 1-2.248 2.543 11.077 11.077 0 0 1-3.46 1.656 15.689 15.689 0 0 1-4.435.591h-1.124l-.71 4.614h1.893a26.47 26.47 0 0 1 5.204.444c1.285.23 2.517.69 3.638 1.36a5.894 5.894 0 0 1 2.158 2.307 7.133 7.133 0 0 1 .71 3.282 7.852 7.852 0 0 1-.65 3.342 5.71 5.71 0 0 1-1.982 2.305 9.411 9.411 0 0 1-3.37 1.36 22.886 22.886 0 0 1-4.821.444c-.592 0-1.174-.019-1.745-.058a31.84 31.84 0 0 1-1.804-.178c-.63-.08-1.292-.186-1.98-.325a63.118 63.118 0 0 1-2.278-.503l-.769 5.027c.867.157 1.705.305 2.514.443.809.138 1.607.257 2.395.355.789.097 1.557.166 2.307.206.749.04 1.478.06 2.188.06a29.012 29.012 0 0 0 5.618-.503 16.73 16.73 0 0 0 4.525-1.537 11.67 11.67 0 0 0 3.312-2.514 10.041 10.041 0 0 0 2.01-3.4c.47-1.38.7-2.83.68-4.288a12.147 12.147 0 0 0-.65-4.083Z"/></svg>