<svg xmlns="http://www.w3.org/2000/svg" viewBox="0 0 336 104"><path fill="#0A2343" d="M0 43V1.004h13.78V43H0ZM32.528 7.688 40.453 43h-15.08L15.908 1.004h8.459a7.965 7.965 0 0 1 5.293 1.922 8.31 8.31 0 0 1 2.867 4.762ZM42.523 43V1.004h13.78V43h-13.78Zm24.189-26.026a8.213 8.213 0 0 1-4.228-1.124 8.336 8.336 0 0 1-3.046-3.046 8.206 8.206 0 0 1-1.125-4.229 8.056 8.056 0 0 1 1.125-4.2 8.437 8.437 0 0 1 3.046-3.016A8.232 8.232 0 0 1 66.712.235a8.083 8.083 0 0 1 4.199 1.124 8.503 8.503 0 0 1 3.016 3.016 8.075 8.075 0 0 1 1.125 4.2 8.226 8.226 0 0 1-1.125 4.23 8.4 8.4 0 0 1-3.016 3.045 8.059 8.059 0 0 1-4.201 1.124h.002ZM77.18 43V1.004h13.781V43H77.181Zm31.227-19.046c.039.04.334.524.887 1.449.553.925 1.272 2.108 2.159 3.549a1143.28 1143.28 0 0 1 5.589 9.168A854.89 854.89 0 0 0 120 43h-15.141c-.947-1.538-1.804-2.928-2.573-4.17a382.214 382.214 0 0 1-2.453-4.022 351.934 351.934 0 0 0-2.574-4.2 213.445 213.445 0 0 1-2.188-3.578 62.753 62.753 0 0 0-1.272-2.07 6.119 6.119 0 0 1-1.005-2.958 5.744 5.744 0 0 1 .946-2.84c.236-.394.67-1.095 1.3-2.1.632-1.006 1.371-2.198 2.219-3.579.847-1.38 1.706-2.79 2.574-4.229.869-1.439 1.686-2.79 2.453-4.052.77-1.26 1.628-2.66 2.573-4.2H120l-11.711 19.106a3.773 3.773 0 0 0-.592 1.894c.039.706.286 1.385.709 1.952h.002Z"/><path fill="#7B0A02" d="M0 103.005h6.21v-17.33h15.853l.65-5.146H6.212V66.214h21.471v-5.206H0v41.997ZM52.319 74.083a16.227 16.227 0 0 0-8.015-1.893 16.16 16.16 0 0 0-8.075 1.952 13.643 13.643 0 0 0-5.382 5.501 17.388 17.388 0 0 0-1.923 8.4 18.139 18.139 0 0 0 1.804 8.37 12.342 12.342 0 0 0 5.175 5.352 16.08 16.08 0 0 0 7.808 1.834 16.677 16.677 0 0 0 8.164-1.951 13.789 13.789 0 0 0 5.53-5.561 17.423 17.423 0 0 0 1.982-8.519 17.126 17.126 0 0 0-1.835-8.133 12.928 12.928 0 0 0-5.233-5.352Zm-.356 19.815a8.045 8.045 0 0 1-3.223 3.697 9.177 9.177 0 0 1-4.732 1.214 8.412 8.412 0 0 1-4.615-1.242 8.338 8.338 0 0 1-3.076-3.726 14.935 14.935 0 0 1-1.122-6.151 13.95 13.95 0 0 1 1.122-5.976 7.863 7.863 0 0 1 3.166-3.549 9.576 9.576 0 0 1 4.879-1.183 9.308 9.308 0 0 1 3.875.74 7.1 7.1 0 0 1 2.721 2.16 9.55 9.55 0 0 1 1.626 3.4c.37 1.44.549 2.921.532 4.408a14.715 14.715 0 0 1-1.153 6.208ZM76.037 98.657a5.174 5.174 0 0 1-.621.032 3.18 3.18 0 0 1-1.3-.238 2.14 2.14 0 0 1-.888-.74 3.217 3.217 0 0 1-.503-1.272 9.731 9.731 0 0 1-.148-1.833V58.348l-6.034.887V97.27c-.025.997.136 1.99.474 2.928a4.93 4.93 0 0 0 1.36 1.981 5.216 5.216 0 0 0 2.1 1.095c.86.223 1.745.332 2.633.325.473 0 .926-.02 1.36-.058.435-.039.858-.099 1.272-.179.414-.08.758-.157 1.034-.235l.592-4.674-.711.118c-.235.04-.442.068-.62.087ZM109.133 72.838h-7.394l-10.122 11.12h-2.181v-25.61l-6.033.887v43.771h6.032V88.514h.1l12.084 14.492h7.808L95.08 86.839l14.053-14ZM135.572 76.654a10.73 10.73 0 0 0-4.348-3.342 15.179 15.179 0 0 0-6.003-1.124 14.714 14.714 0 0 0-6.034 1.183 12.894 12.894 0 0 0-4.525 3.312 14.486 14.486 0 0 0-2.84 5.117 21.384 21.384 0 0 0-.975 6.654 17.907 17.907 0 0 0 1.744 8.252 11.562 11.562 0 0 0 5.176 5.146 18.397 18.397 0 0 0 8.4 1.745 29.207 29.207 0 0 0 4.169-.266 20.041 20.041 0 0 0 3.402-.799 22.123 22.123 0 0 0 3.194-1.36l.414-4.555c-.75.276-1.509.552-2.278.828-.769.276-1.567.523-2.395.74a17.83 17.83 0 0 1-2.543.472c-.864.1-1.733.149-2.603.149a18.656 18.656 0 0 1-4.614-.503 7.587 7.587 0 0 1-3.282-1.716 7.491 7.491 0 0 1-2.011-3.282 14.94 14.94 0 0 1-.645-3.903h21.376a22.655 22.655 0 0 0-.325-7.337 13.83 13.83 0 0 0-2.454-5.411Zm-14.906 1.42a8.37 8.37 0 0 1 4.614-1.213 7.231 7.231 0 0 1 4.554 1.33 6.955 6.955 0 0 1 2.395 3.698 12.15 12.15 0 0 1 .432 3.312h-15.556c.11-1.18.362-2.341.75-3.46a7.153 7.153 0 0 1 2.811-3.667ZM186.618 73.43a10.294 10.294 0 0 0-5.265-1.242 13.832 13.832 0 0 0-4.672.799 16.444 16.444 0 0 0-4.258 2.277 21.426 21.426 0 0 0-2.099 1.774 7.42 7.42 0 0 0-3.048-3.549 10.423 10.423 0 0 0-5.324-1.242c-1.582 0-3.152.27-4.643.799a16.833 16.833 0 0 0-4.29 2.247c-.424.307-.836.64-1.242.986V72.25l-6.033.887v29.871h6.033V80.51a19.24 19.24 0 0 1 2.218-1.25c.939-.444 1.92-.79 2.928-1.036a12.22 12.22 0 0 1 2.84-.355 6.527 6.527 0 0 1 2.573.445 4.565 4.565 0 0 1 1.745 1.3c.514.66.868 1.43 1.036 2.248.23 1.059.339 2.14.325 3.224v17.922h6.033V83.843a23.919 23.919 0 0 0-.228-3.383c.684-.45 1.392-.86 2.121-1.231a13.557 13.557 0 0 1 2.897-1.065c.95-.232 1.923-.351 2.9-.355a6.58 6.58 0 0 1 2.543.444c.69.28 1.3.728 1.775 1.302a5.393 5.393 0 0 1 1.034 2.247c.231 1.058.34 2.14.326 3.223v17.982h6.034V83.783a17.232 17.232 0 0 0-1.065-6.566 7.623 7.623 0 0 0-3.194-3.787ZM219.742 95.643a15.75 15.75 0 0 1-1.332.737c-.703.344-1.423.65-2.158.918a14.13 14.13 0 0 1-2.16.592c-.75.14-1.513.21-2.276.207a7.301 7.301 0 0 1-3.608-.798 4.801 4.801 0 0 1-2.1-2.426 10.324 10.324 0 0 1-.681-3.992V72.25l-6.034.887v18.81c-.073 2.244.32 4.48 1.154 6.565a7.74 7.74 0 0 0 3.49 3.845c1.752.873 3.693 1.3 5.649 1.243a14.58 14.58 0 0 0 3.667-.444 14.284 14.284 0 0 0 3.284-1.301 19.73 19.73 0 0 0 3.015-2.042c.174-.14.345-.306.518-.455l.872 3.647h4.673l.059-30.758-6.032.887v22.51ZM253.692 89.402a8.811 8.811 0 0 0-2.07-1.628 16.034 16.034 0 0 0-2.485-1.153 52.2 52.2 0 0 1-1.862-.621 32.965 32.965 0 0 0-1.835-.592 37.405 37.405 0 0 1-1.774-.562c-.536-.182-1.06-.4-1.567-.65a10.304 10.304 0 0 1-1.391-.888 3.896 3.896 0 0 1-1.005-1.123 2.842 2.842 0 0 1-.385-1.48 3.064 3.064 0 0 1 .415-1.626 3.362 3.362 0 0 1 1.242-1.153 6.725 6.725 0 0 1 1.982-.711 13.316 13.316 0 0 1 2.632-.236 19.081 19.081 0 0 1 3.105.267c.612.1 1.222.227 1.833.383s1.232.336 1.864.533c.585.18 1.158.398 1.715.652l.415-4.792a29.06 29.06 0 0 0-2.218-.83 22.042 22.042 0 0 0-2.219-.591 17.876 17.876 0 0 0-2.218-.325c-.73-.06-1.45-.089-2.159-.089a19.495 19.495 0 0 0-4.85.562c-1.357.33-2.647.89-3.815 1.656a7.532 7.532 0 0 0-2.514 2.78 8.462 8.462 0 0 0-.888 3.993 8.338 8.338 0 0 0 .474 2.928c.28.789.701 1.52 1.242 2.159a8.633 8.633 0 0 0 1.804 1.567c.698.46 1.441.846 2.218 1.154.432.158.886.316 1.361.472.474.157.937.305 1.39.446.452.138.895.275 1.331.413.432.139.857.276 1.271.414.414.138.819.266 1.213.384.529.188 1.043.415 1.538.68.434.23.84.508 1.212.829.327.285.589.639.768 1.035.182.409.273.852.267 1.3a2.96 2.96 0 0 1-.976 2.338 5.67 5.67 0 0 1-2.543 1.212 15.115 15.115 0 0 1-3.342.355 16.431 16.431 0 0 1-2.1-.148 31.322 31.322 0 0 1-2.425-.414 35.976 35.976 0 0 1-2.604-.65 54.152 54.152 0 0 1-2.69-.857l.237 5.027c1.024.355 1.961.641 2.809.858.849.217 1.657.404 2.425.562.741.154 1.493.252 2.248.296.729.039 1.468.058 2.218.058 1.65.009 3.296-.161 4.91-.504a12.673 12.673 0 0 0 4.022-1.566 7.727 7.727 0 0 0 2.691-2.78 8.108 8.108 0 0 0 .975-4.08 8.28 8.28 0 0 0-.502-3.047 6.882 6.882 0 0 0-1.39-2.217ZM267.914 59.855a3.824 3.824 0 0 0-2.04-.562 3.985 3.985 0 0 0-2.07.562 4.349 4.349 0 0 0-1.507 1.479 3.825 3.825 0 0 0-.562 2.04 3.969 3.969 0 0 0 .562 2.07c.361.62.882 1.13 1.507 1.48a4.164 4.164 0 0 0 2.07.532 3.997 3.997 0 0 0 2.04-.532 3.856 3.856 0 0 0 1.45-1.48 4.156 4.156 0 0 0 .533-2.07 4.002 4.002 0 0 0-.533-2.04 4.187 4.187 0 0 0-1.45-1.479ZM262.742 103.005h6.034V72.247l-6.034.887v29.871ZM303.734 72.838h-7.394l-10.122 11.12h-2.181v-25.61l-6.034.887v43.771h6.034V88.514h.098l12.086 14.492h7.808l-14.348-16.167 14.053-14ZM327.276 103.005h7.808l-14.348-16.167 14.052-14h-7.394l-10.122 11.12h-2.181v-25.61l-6.034.887v43.771h6.034V88.514h.098l12.087 14.491Z"/></svg>