<svg xmlns="http://www.w3.org/2000/svg" viewBox="0 0 152 104"><path fill="#0A2343" d="M0 43V1.004h13.78V43H0ZM32.528 7.688 40.453 43h-15.08L15.908 1.004h8.459a7.965 7.965 0 0 1 5.293 1.922 8.31 8.31 0 0 1 2.867 4.762ZM42.523 43V1.004h13.78V43h-13.78Zm24.189-26.026a8.213 8.213 0 0 1-4.228-1.124 8.336 8.336 0 0 1-3.046-3.046 8.206 8.206 0 0 1-1.125-4.229 8.056 8.056 0 0 1 1.125-4.2 8.437 8.437 0 0 1 3.046-3.016A8.232 8.232 0 0 1 66.712.235a8.083 8.083 0 0 1 4.199 1.124 8.503 8.503 0 0 1 3.016 3.016 8.075 8.075 0 0 1 1.125 4.2 8.226 8.226 0 0 1-1.125 4.23 8.4 8.4 0 0 1-3.016 3.045 8.059 8.059 0 0 1-4.201 1.124h.002ZM77.18 43V1.004h13.781V43H77.181Zm31.227-19.046c.039.04.334.524.887 1.449.553.925 1.272 2.108 2.159 3.549a1143.28 1143.28 0 0 1 5.589 9.168A854.89 854.89 0 0 0 120 43h-15.141c-.947-1.538-1.804-2.928-2.573-4.17a382.214 382.214 0 0 1-2.453-4.022 351.934 351.934 0 0 0-2.574-4.2 213.445 213.445 0 0 1-2.188-3.578 62.753 62.753 0 0 0-1.272-2.07 6.119 6.119 0 0 1-1.005-2.958 5.744 5.744 0 0 1 .946-2.84c.236-.394.67-1.095 1.3-2.1.632-1.006 1.371-2.198 2.219-3.579.847-1.38 1.706-2.79 2.574-4.229.869-1.439 1.686-2.79 2.453-4.052.77-1.26 1.628-2.66 2.573-4.2H120l-11.711 19.106a3.773 3.773 0 0 0-.592 1.894c.039.706.286 1.385.709 1.952h.002Z"/><path fill="#1767CE" d="M20.591 85.644c.787-.12 1.563-.302 2.322-.542a11.509 11.509 0 0 0 4.169-2.335 10.83 10.83 0 0 0 2.779-3.903 13.582 13.582 0 0 0 1.005-5.41 14.584 14.584 0 0 0-1.33-6.267 9.98 9.98 0 0 0-4.376-4.525 16.95 16.95 0 0 0-8.19-1.685H0v41.983h6.15V86.876h9.046l10.467 16.084h7.213L23.06 88.415l-2.469-2.77Zm.105-18.725a5.645 5.645 0 0 1 2.896 2.485 8.68 8.68 0 0 1 .946 4.286 8.602 8.602 0 0 1-1.152 4.7 6.456 6.456 0 0 1-3.311 2.603 14.751 14.751 0 0 1-5.115.798H6.15V66.12h9.519a13.425 13.425 0 0 1 5.027.798ZM64.747 99.235a2.692 2.692 0 0 1-2.306-.947 5.085 5.085 0 0 1-.65-3.133l.118-12.18a14.226 14.226 0 0 0-.473-3.786 9.303 9.303 0 0 0-1.42-3.015 8.02 8.02 0 0 0-2.453-2.188 12.528 12.528 0 0 0-3.578-1.36 21.032 21.032 0 0 0-4.671-.473c-1.245 0-2.49.078-3.725.236a25.583 25.583 0 0 0-3.46.68 28.82 28.82 0 0 0-3.104 1.036l-.71 5.026a34.705 34.705 0 0 1 5.382-1.478c.81-.156 1.63-.264 2.453-.325.808-.06 1.606-.09 2.395-.09 1.206-.025 2.41.115 3.578.415a5.16 5.16 0 0 1 2.276 1.241 4.69 4.69 0 0 1 1.183 2.1c.252.975.371 1.98.355 2.987l-.007 1.483-6.912.468a18.38 18.38 0 0 0-6.859 1.536 9.83 9.83 0 0 0-4.05 3.282 7.641 7.641 0 0 0-1.33 4.346 8.65 8.65 0 0 0 1.034 4.169 7.77 7.77 0 0 0 3.134 3.104 10.538 10.538 0 0 0 5.233 1.183 13.615 13.615 0 0 0 4.997-.828 11.518 11.518 0 0 0 3.725-2.365 16.34 16.34 0 0 0 1.163-1.239 5.6 5.6 0 0 0 .64 1.742 4.764 4.764 0 0 0 2.306 2.01c1.071.43 2.217.641 3.37.621.356 0 .7-.01 1.036-.03.329-.019.656-.068.975-.147.316-.079.6-.148.858-.208.231-.051.459-.12.68-.207l.65-3.961a5.17 5.17 0 0 1-1.005.236c-.275.037-.55.057-.828.06Zm-9.845-2.66c-.641.507-1.335.943-2.07 1.3a9.273 9.273 0 0 1-2.305.77c-.828.16-1.67.239-2.514.236a6.678 6.678 0 0 1-2.808-.532 3.856 3.856 0 0 1-1.745-1.508 4.42 4.42 0 0 1-.591-2.336 4.48 4.48 0 0 1 .768-2.78 4.528 4.528 0 0 1 2.484-1.477 18.03 18.03 0 0 1 4.613-.473h5.177l-.027 5.87c-.3.336-.629.648-.982.93ZM92.719 73.588c-.06-.023-.116-.052-.177-.076a21.93 21.93 0 0 0-3.4-.975 20.384 20.384 0 0 0-4.11-.384 14.525 14.525 0 0 0-7.36 1.952 14.492 14.492 0 0 0-5.47 5.647 18.188 18.188 0 0 0-2.07 9.016 18.232 18.232 0 0 0 1.567 7.865 11.729 11.729 0 0 0 4.495 5.115 13.091 13.091 0 0 0 7.006 1.803c1.508.009 3.01-.19 4.464-.591a16.094 16.094 0 0 0 4.11-1.834c.442-.272.887-.579 1.328-.899l.742 2.733h4.907V58.375l-6.031.828-.001 14.385Zm-3.164 24.316c-1.348.531-2.779.822-4.228.858a9.593 9.593 0 0 1-4.848-1.154 7.4 7.4 0 0 1-3.075-3.548 14.811 14.811 0 0 1-1.064-6.002 14.046 14.046 0 0 1 1.182-6.12 8.349 8.349 0 0 1 3.4-3.726 10.48 10.48 0 0 1 5.294-1.271 18.96 18.96 0 0 1 2.837.207c.932.144 1.852.362 2.75.651.288.092.606.214.916.327V96.35a19.342 19.342 0 0 1-3.166 1.554h.002ZM107.972 102.96h6.031V72.212l-6.031.886v29.862ZM113.146 59.824a3.83 3.83 0 0 0-2.04-.562 3.98 3.98 0 0 0-2.07.562 4.353 4.353 0 0 0-1.508 1.478 3.831 3.831 0 0 0-.561 2.04 3.976 3.976 0 0 0 .561 2.07c.362.618.882 1.129 1.508 1.478a4.148 4.148 0 0 0 2.07.532 3.99 3.99 0 0 0 2.04-.532 3.857 3.857 0 0 0 1.448-1.478 4.143 4.143 0 0 0 .533-2.07 4 4 0 0 0-.533-2.04 4.176 4.176 0 0 0-1.448-1.478ZM149.954 79.396a12.928 12.928 0 0 0-5.232-5.351 16.236 16.236 0 0 0-8.013-1.892 16.148 16.148 0 0 0-8.072 1.952 13.64 13.64 0 0 0-5.381 5.498A17.405 17.405 0 0 0 121.334 88a18.125 18.125 0 0 0 1.804 8.367 12.334 12.334 0 0 0 5.174 5.352 16.078 16.078 0 0 0 7.805 1.832 16.651 16.651 0 0 0 8.16-1.951 13.773 13.773 0 0 0 5.53-5.559 17.426 17.426 0 0 0 1.981-8.514 17.14 17.14 0 0 0-1.834-8.13Zm-5.588 14.458a8.056 8.056 0 0 1-3.222 3.695 9.188 9.188 0 0 1-4.73 1.213 8.412 8.412 0 0 1-4.613-1.242 8.326 8.326 0 0 1-3.074-3.725 14.917 14.917 0 0 1-1.123-6.15c-.07-2.05.313-4.089 1.123-5.972a7.865 7.865 0 0 1 3.163-3.548 9.574 9.574 0 0 1 4.878-1.183 9.309 9.309 0 0 1 3.874.74 7.116 7.116 0 0 1 2.721 2.158 9.586 9.586 0 0 1 1.625 3.4c.37 1.439.549 2.92.532 4.405a14.725 14.725 0 0 1-1.154 6.209Z"/></svg>