<svg xmlns="http://www.w3.org/2000/svg" viewBox="0 0 288 48"><path fill="#fff" d="M0 45V3.004h13.78V45H0ZM32.528 9.688 40.453 45h-15.08L15.908 3.004h8.459a7.965 7.965 0 0 1 5.293 1.922 8.31 8.31 0 0 1 2.867 4.762ZM42.523 45V3.004h13.78V45h-13.78Zm24.189-26.026a8.213 8.213 0 0 1-4.228-1.124 8.336 8.336 0 0 1-3.046-3.046 8.206 8.206 0 0 1-1.125-4.229 8.056 8.056 0 0 1 1.125-4.2 8.437 8.437 0 0 1 3.046-3.016 8.232 8.232 0 0 1 4.228-1.124 8.083 8.083 0 0 1 4.199 1.124 8.503 8.503 0 0 1 3.016 3.016 8.075 8.075 0 0 1 1.125 4.2 8.226 8.226 0 0 1-1.125 4.23 8.4 8.4 0 0 1-3.016 3.045 8.059 8.059 0 0 1-4.201 1.124h.002ZM77.18 45V3.004h13.781V45H77.181Zm31.227-19.046c.039.04.334.524.887 1.449.553.925 1.272 2.108 2.159 3.549a1143.28 1143.28 0 0 1 5.589 9.168A854.89 854.89 0 0 0 120 45h-15.141c-.947-1.538-1.804-2.928-2.573-4.17a382.214 382.214 0 0 1-2.453-4.022 351.934 351.934 0 0 0-2.574-4.2 213.445 213.445 0 0 1-2.188-3.578 62.753 62.753 0 0 0-1.272-2.07 6.119 6.119 0 0 1-1.005-2.958 5.744 5.744 0 0 1 .946-2.84c.236-.394.67-1.095 1.3-2.1.632-1.006 1.371-2.198 2.219-3.579a636.03 636.03 0 0 0 2.574-4.229c.869-1.439 1.686-2.79 2.453-4.052.77-1.26 1.628-2.66 2.573-4.2H120l-11.711 19.106a3.773 3.773 0 0 0-.592 1.894c.039.706.286 1.385.709 1.952h.002Z"/><path fill="#8BB5EB" d="M156.591 27.644c.787-.12 1.563-.301 2.322-.542a11.508 11.508 0 0 0 4.169-2.335 10.839 10.839 0 0 0 2.779-3.903 13.571 13.571 0 0 0 1.005-5.41 14.584 14.584 0 0 0-1.33-6.268 9.986 9.986 0 0 0-4.376-4.524 16.95 16.95 0 0 0-8.189-1.685H136V44.96h6.15V28.876h9.046l10.467 16.084h7.213l-9.816-14.546-2.469-2.77Zm.105-18.725a5.647 5.647 0 0 1 2.896 2.485 8.673 8.673 0 0 1 .946 4.286 8.6 8.6 0 0 1-1.152 4.7 6.458 6.458 0 0 1-3.311 2.603 14.753 14.753 0 0 1-5.115.798h-8.81V8.12h9.519a13.426 13.426 0 0 1 5.027.798ZM200.747 41.235a2.69 2.69 0 0 1-2.306-.947 5.09 5.09 0 0 1-.65-3.133l.118-12.18a14.222 14.222 0 0 0-.473-3.786 9.303 9.303 0 0 0-1.419-3.015 8.022 8.022 0 0 0-2.454-2.188 12.531 12.531 0 0 0-3.578-1.36 21.025 21.025 0 0 0-4.671-.473c-1.246 0-2.49.078-3.725.236a25.556 25.556 0 0 0-3.459.68c-1.054.286-2.09.632-3.105 1.036l-.709 5.026c.985-.355 1.922-.65 2.81-.887a36.615 36.615 0 0 1 2.571-.591c.811-.155 1.63-.264 2.454-.325.807-.06 1.605-.09 2.394-.09 1.206-.025 2.41.115 3.578.415.852.213 1.636.64 2.276 1.242a4.686 4.686 0 0 1 1.183 2.099c.252.975.371 1.98.355 2.987l-.007 1.483-6.912.468a18.379 18.379 0 0 0-6.859 1.536 9.827 9.827 0 0 0-4.05 3.282 7.647 7.647 0 0 0-1.331 4.346 8.65 8.65 0 0 0 1.035 4.169 7.778 7.778 0 0 0 3.134 3.104 10.537 10.537 0 0 0 5.233 1.183c1.703.04 3.398-.242 4.997-.828a11.52 11.52 0 0 0 3.725-2.365c.409-.392.797-.806 1.163-1.239.115.612.331 1.2.64 1.742a4.765 4.765 0 0 0 2.307 2.01c1.07.43 2.216.641 3.37.62.355 0 .7-.009 1.035-.029.329-.019.655-.068.975-.147.316-.08.601-.149.858-.208.232-.051.459-.12.68-.206l.65-3.962a5.164 5.164 0 0 1-1.005.236 6.583 6.583 0 0 1-.828.06Zm-9.845-2.66c-.641.506-1.335.943-2.07 1.3a9.265 9.265 0 0 1-2.305.77c-.828.16-1.67.238-2.514.236a6.682 6.682 0 0 1-2.809-.532 3.858 3.858 0 0 1-1.744-1.508 4.426 4.426 0 0 1-.591-2.336 4.483 4.483 0 0 1 .768-2.78 4.533 4.533 0 0 1 2.484-1.477 18.03 18.03 0 0 1 4.613-.473h5.177l-.027 5.87c-.3.336-.629.648-.982.93ZM228.719 15.588c-.06-.023-.116-.052-.177-.076a21.98 21.98 0 0 0-3.4-.975 20.394 20.394 0 0 0-4.11-.384 14.528 14.528 0 0 0-7.361 1.952 14.495 14.495 0 0 0-5.469 5.647 18.18 18.18 0 0 0-2.07 9.016 18.221 18.221 0 0 0 1.567 7.865 11.726 11.726 0 0 0 4.495 5.114 13.082 13.082 0 0 0 7.006 1.804c1.508.01 3.01-.19 4.464-.591a16.115 16.115 0 0 0 4.11-1.834c.442-.273.887-.579 1.328-.9l.742 2.734h4.907V.375l-6.031.828-.001 14.385Zm-3.164 24.316a12.38 12.38 0 0 1-4.228.858 9.592 9.592 0 0 1-4.848-1.154 7.402 7.402 0 0 1-3.075-3.548 14.802 14.802 0 0 1-1.064-6.002 14.056 14.056 0 0 1 1.182-6.12 8.355 8.355 0 0 1 3.4-3.726 10.483 10.483 0 0 1 5.294-1.271 18.96 18.96 0 0 1 2.837.207c.932.144 1.851.362 2.749.651.289.092.607.214.917.327V38.35a19.362 19.362 0 0 1-3.166 1.554h.002ZM243.972 44.96h6.031V14.212l-6.031.886V44.96ZM249.146 1.824a3.83 3.83 0 0 0-2.04-.562 3.98 3.98 0 0 0-2.07.562 4.353 4.353 0 0 0-1.508 1.478 3.83 3.83 0 0 0-.561 2.04 3.976 3.976 0 0 0 .561 2.07c.362.618.882 1.129 1.508 1.478a4.148 4.148 0 0 0 2.07.532 3.99 3.99 0 0 0 2.04-.532 3.858 3.858 0 0 0 1.448-1.479 4.142 4.142 0 0 0 .533-2.069 4 4 0 0 0-.533-2.04 4.176 4.176 0 0 0-1.448-1.478ZM285.954 21.396a12.928 12.928 0 0 0-5.232-5.351 16.236 16.236 0 0 0-8.013-1.892 16.148 16.148 0 0 0-8.072 1.952 13.64 13.64 0 0 0-5.381 5.498A17.405 17.405 0 0 0 257.334 30a18.125 18.125 0 0 0 1.804 8.367 12.334 12.334 0 0 0 5.174 5.352 16.08 16.08 0 0 0 7.805 1.832 16.656 16.656 0 0 0 8.16-1.951 13.77 13.77 0 0 0 5.53-5.559 17.426 17.426 0 0 0 1.981-8.514 17.14 17.14 0 0 0-1.834-8.13Zm-5.588 14.458a8.056 8.056 0 0 1-3.222 3.695 9.188 9.188 0 0 1-4.73 1.213 8.412 8.412 0 0 1-4.613-1.242 8.326 8.326 0 0 1-3.074-3.725 14.917 14.917 0 0 1-1.123-6.15c-.07-2.05.313-4.089 1.123-5.973a7.865 7.865 0 0 1 3.163-3.547 9.574 9.574 0 0 1 4.878-1.183 9.309 9.309 0 0 1 3.874.74 7.116 7.116 0 0 1 2.721 2.158 9.586 9.586 0 0 1 1.625 3.4c.37 1.439.549 2.92.532 4.405a14.725 14.725 0 0 1-1.154 6.209Z"/></svg>