<svg xmlns="http://www.w3.org/2000/svg" viewBox="0 0 223 117"><path fill="#fff" d="M0 43V1.004h13.78V43H0ZM32.528 7.688 40.453 43h-15.08L15.908 1.004h8.459a7.965 7.965 0 0 1 5.293 1.922 8.31 8.31 0 0 1 2.867 4.762ZM42.523 43V1.004h13.78V43h-13.78Zm24.189-26.026a8.213 8.213 0 0 1-4.228-1.124 8.336 8.336 0 0 1-3.046-3.046 8.206 8.206 0 0 1-1.125-4.229 8.056 8.056 0 0 1 1.125-4.2 8.437 8.437 0 0 1 3.046-3.016A8.232 8.232 0 0 1 66.712.235a8.083 8.083 0 0 1 4.199 1.124 8.503 8.503 0 0 1 3.016 3.016 8.075 8.075 0 0 1 1.125 4.2 8.226 8.226 0 0 1-1.125 4.23 8.4 8.4 0 0 1-3.016 3.045 8.059 8.059 0 0 1-4.201 1.124h.002ZM77.18 43V1.004h13.781V43H77.181Zm31.227-19.046c.039.04.334.524.887 1.449.553.925 1.272 2.108 2.159 3.549a1143.28 1143.28 0 0 1 5.589 9.168A854.89 854.89 0 0 0 120 43h-15.141c-.947-1.538-1.804-2.928-2.573-4.17a382.214 382.214 0 0 1-2.453-4.022 351.934 351.934 0 0 0-2.574-4.2 213.445 213.445 0 0 1-2.188-3.578 62.753 62.753 0 0 0-1.272-2.07 6.119 6.119 0 0 1-1.005-2.958 5.744 5.744 0 0 1 .946-2.84c.236-.394.67-1.095 1.3-2.1.632-1.006 1.371-2.198 2.219-3.579.847-1.38 1.706-2.79 2.574-4.229.869-1.439 1.686-2.79 2.453-4.052.77-1.26 1.628-2.66 2.573-4.2H120l-11.711 19.106a3.773 3.773 0 0 0-.592 1.894c.039.706.286 1.385.709 1.952h.002Z"/><path fill="#9FDAF5" d="M30.085 92.986 4.816 61H0v42.042h5.589V71.039l25.33 32.003h4.815V61h-5.648l-.001 31.986ZM65.284 73.14l-.047 22.175a28.33 28.33 0 0 1-1.288.71c-.723.37-1.467.697-2.23.976-.722.269-1.469.467-2.23.592-.776.122-1.561.182-2.347.178a7.085 7.085 0 0 1-3.508-.77 4.73 4.73 0 0 1-2.051-2.398 10.515 10.515 0 0 1-.685-4.057V72.249l-6.064.888V91.73a16.576 16.576 0 0 0 1.13 6.574 7.535 7.535 0 0 0 3.42 3.819 12.011 12.011 0 0 0 5.676 1.213c1.64.011 3.27-.259 4.817-.798a17.086 17.086 0 0 0 4.28-2.251c.362-.26.72-.535 1.076-.822l-.006 2.567c0 2.96-.694 5.21-2.08 6.75-1.388 1.539-3.746 2.309-7.076 2.309-.912 0-1.844-.04-2.794-.119a22.603 22.603 0 0 1-2.825-.414 31.411 31.411 0 0 1-2.825-.74 32.874 32.874 0 0 1-2.854-1.036l.655 5.27a29.249 29.249 0 0 0 5.172 1.51 30.964 30.964 0 0 0 5.887.561c2.15.037 4.292-.294 6.331-.976a13.38 13.38 0 0 0 4.667-2.725 11.383 11.383 0 0 0 2.885-4.173 14.257 14.257 0 0 0 .981-5.388l-.06-30.615-6.007.894ZM103.452 73.434a11.606 11.606 0 0 0-5.648-1.242c-1.745 0-3.48.269-5.142.798a19.948 19.948 0 0 0-6.095 3.168V58.336l-6.065.888v43.818h6.065V80.288c.47-.256.951-.501 1.456-.724.841-.37 1.705-.686 2.587-.947a21.19 21.19 0 0 1 2.586-.593c.816-.135 1.64-.204 2.468-.207.95-.02 1.897.13 2.794.444.757.273 1.432.73 1.963 1.333a5.503 5.503 0 0 1 1.128 2.25c.255 1.046.375 2.12.358 3.196v18.001h6.064V83.797a16.34 16.34 0 0 0-1.131-6.573 7.771 7.771 0 0 0-3.388-3.79ZM140.019 76.662a10.798 10.798 0 0 0-4.371-3.346 15.334 15.334 0 0 0-6.034-1.124 14.829 14.829 0 0 0-6.065 1.184 12.96 12.96 0 0 0-4.548 3.315 14.503 14.503 0 0 0-2.855 5.123 21.344 21.344 0 0 0-.98 6.662 17.873 17.873 0 0 0 1.753 8.26 11.6 11.6 0 0 0 5.202 5.152 18.552 18.552 0 0 0 8.444 1.746 29.223 29.223 0 0 0 4.191-.266 20.16 20.16 0 0 0 3.419-.8 22.263 22.263 0 0 0 3.211-1.361l.415-4.56c-.753.276-1.516.553-2.289.83-.773.275-1.575.522-2.408.74-.839.218-1.694.376-2.556.472-.869.1-1.742.149-2.616.149a18.83 18.83 0 0 1-4.638-.503 7.63 7.63 0 0 1-3.299-1.717 7.48 7.48 0 0 1-2.021-3.287 14.943 14.943 0 0 1-.649-3.908h21.487c.293-2.45.182-4.93-.327-7.343a13.818 13.818 0 0 0-2.466-5.418Zm-14.983 1.42a8.448 8.448 0 0 1 4.636-1.212 7.29 7.29 0 0 1 4.578 1.332 6.956 6.956 0 0 1 2.408 3.701 12.14 12.14 0 0 1 .434 3.316h-15.636c.11-1.18.363-2.344.755-3.464a7.158 7.158 0 0 1 2.825-3.672ZM165.912 98.274l-1.011.18a8.968 8.968 0 0 1-.981.118c-.318.02-.616.028-.892.028a6.01 6.01 0 0 1-2.646-.533 3.82 3.82 0 0 1-1.694-1.568 4.974 4.974 0 0 1-.595-2.517V77.58h8.383l.654-4.737h-9.037v-9.357l-6.064 2.133v7.224h-4.579l-.654 4.737h5.233v17.646a9.992 9.992 0 0 0 .535 3.463c.306.882.78 1.697 1.397 2.399a6.208 6.208 0 0 0 2.021 1.48c.787.359 1.615.618 2.467.769.843.155 1.699.235 2.556.237.635 0 1.259-.019 1.874-.058.615-.039 1.18-.099 1.695-.179a25.806 25.806 0 0 0 1.456-.265c.456-.098.842-.188 1.16-.268l.357-4.913a4.44 4.44 0 0 1-.714.207c-.278.058-.585.118-.921.176ZM195.907 76.662a10.791 10.791 0 0 0-4.37-3.346 15.336 15.336 0 0 0-6.035-1.124 14.837 14.837 0 0 0-6.064 1.184 12.97 12.97 0 0 0-4.549 3.315 14.48 14.48 0 0 0-2.853 5.122 21.316 21.316 0 0 0-.981 6.662 17.898 17.898 0 0 0 1.753 8.26 11.6 11.6 0 0 0 5.203 5.151 18.55 18.55 0 0 0 8.444 1.747 29.209 29.209 0 0 0 4.19-.266 20.171 20.171 0 0 0 3.42-.8 22.204 22.204 0 0 0 3.21-1.361l.417-4.56c-.754.276-1.517.553-2.29.83-.773.275-1.576.522-2.407.74-.84.218-1.694.376-2.557.472a23 23 0 0 1-2.616.149 18.834 18.834 0 0 1-4.638-.503 7.634 7.634 0 0 1-3.299-1.718 7.495 7.495 0 0 1-2.022-3.286 14.983 14.983 0 0 1-.648-3.908h21.486c.293-2.45.183-4.93-.326-7.343a13.818 13.818 0 0 0-2.468-5.416Zm-14.983 1.42a8.449 8.449 0 0 1 4.638-1.212 7.292 7.292 0 0 1 4.578 1.332 6.96 6.96 0 0 1 2.407 3.701c.297 1.08.443 2.196.434 3.316h-15.636c.11-1.18.363-2.344.754-3.464a7.17 7.17 0 0 1 2.825-3.672ZM218.558 72.635a11.676 11.676 0 0 0-3.15 1.362 15.499 15.499 0 0 0-2.796 2.22c-.14.14-.276.296-.416.444v-4.412l-6.065.888v29.903h6.065V80.67c.451-.313.918-.603 1.398-.87a15.555 15.555 0 0 1 1.843-.859 19.778 19.778 0 0 1 1.873-.621c.652-.182 1.318-.31 1.991-.385.721-.08 1.447-.1 2.171-.06l.713-5.566a11.357 11.357 0 0 0-3.627.326Z"/></svg>