<svg xmlns="http://www.w3.org/2000/svg" viewBox="0 0 182 104"><path fill="#fff" d="M0 43V1.004h13.78V43H0ZM32.528 7.688 40.453 43h-15.08L15.908 1.004h8.459a7.965 7.965 0 0 1 5.293 1.922 8.31 8.31 0 0 1 2.867 4.762ZM42.523 43V1.004h13.78V43h-13.78Zm24.189-26.026a8.213 8.213 0 0 1-4.228-1.124 8.336 8.336 0 0 1-3.046-3.046 8.206 8.206 0 0 1-1.125-4.229 8.056 8.056 0 0 1 1.125-4.2 8.437 8.437 0 0 1 3.046-3.016A8.232 8.232 0 0 1 66.712.235a8.083 8.083 0 0 1 4.199 1.124 8.503 8.503 0 0 1 3.016 3.016 8.075 8.075 0 0 1 1.125 4.2 8.226 8.226 0 0 1-1.125 4.23 8.4 8.4 0 0 1-3.016 3.045 8.059 8.059 0 0 1-4.201 1.124h.002ZM77.18 43V1.004h13.781V43H77.181Zm31.227-19.046c.039.04.334.524.887 1.449.553.925 1.272 2.108 2.159 3.549a1143.28 1143.28 0 0 1 5.589 9.168A854.89 854.89 0 0 0 120 43h-15.141c-.947-1.538-1.804-2.928-2.573-4.17a382.214 382.214 0 0 1-2.453-4.022 351.934 351.934 0 0 0-2.574-4.2 213.445 213.445 0 0 1-2.188-3.578 62.753 62.753 0 0 0-1.272-2.07 6.119 6.119 0 0 1-1.005-2.958 5.744 5.744 0 0 1 .946-2.84c.236-.394.67-1.095 1.3-2.1.632-1.006 1.371-2.198 2.219-3.579.847-1.38 1.706-2.79 2.574-4.229.869-1.439 1.686-2.79 2.453-4.052.77-1.26 1.628-2.66 2.573-4.2H120l-11.711 19.106a3.773 3.773 0 0 0-.592 1.894c.039.706.286 1.385.709 1.952h.002Z"/><path fill="#9FDAF5" d="M33.413 61.189H0v5.2h13.614v36.755h6.242V66.389h13.556v-5.2ZM45.601 72.8a11.783 11.783 0 0 0-3.151 1.36 15.547 15.547 0 0 0-2.794 2.216c-.141.14-.278.295-.417.442v-4.401l-6.064.886v29.842h6.064V80.82a15.332 15.332 0 0 1 3.24-1.725 20.52 20.52 0 0 1 1.873-.62c.653-.181 1.319-.31 1.992-.385.72-.08 1.446-.1 2.17-.06l.714-5.554a11.408 11.408 0 0 0-3.627.325ZM79.728 99.421a2.723 2.723 0 0 1-2.32-.945 5.06 5.06 0 0 1-.653-3.132l.119-12.173a14.121 14.121 0 0 0-.476-3.782 9.238 9.238 0 0 0-1.427-3.014 8.038 8.038 0 0 0-2.467-2.186 12.64 12.64 0 0 0-3.597-1.36 21.345 21.345 0 0 0-4.697-.471 29.59 29.59 0 0 0-3.744.235 25.858 25.858 0 0 0-3.48.68c-1.058.285-2.1.63-3.12 1.034l-.714 5.023a35.161 35.161 0 0 1 5.41-1.478 21.6 21.6 0 0 1 2.467-.324c.812-.06 1.615-.09 2.41-.09a13.383 13.383 0 0 1 3.596.414 5.2 5.2 0 0 1 2.288 1.241 4.677 4.677 0 0 1 1.19 2.098c.254.974.374 1.979.357 2.985l-.007 1.477-6.95.468a18.575 18.575 0 0 0-6.897 1.537 9.872 9.872 0 0 0-4.072 3.28 7.606 7.606 0 0 0-1.338 4.343 8.605 8.605 0 0 0 1.04 4.166 7.803 7.803 0 0 0 3.151 3.102 10.643 10.643 0 0 0 5.262 1.182 13.783 13.783 0 0 0 5.025-.827 11.599 11.599 0 0 0 3.745-2.364c.41-.392.801-.805 1.169-1.238.116.612.333 1.2.644 1.74a4.78 4.78 0 0 0 2.319 2.009 8.73 8.73 0 0 0 3.388.621c.357 0 .704-.01 1.042-.03.33-.019.658-.068.98-.147.317-.079.603-.148.862-.207.233-.052.461-.121.683-.207l.655-3.96c-.328.112-.667.191-1.011.237-.276.038-.554.06-.832.063Zm-8.911-3.59c-.303.338-.635.65-.991.931-.645.506-1.343.942-2.081 1.3a9.392 9.392 0 0 1-2.318.768 13.18 13.18 0 0 1-2.527.237 6.749 6.749 0 0 1-2.825-.532 3.868 3.868 0 0 1-1.753-1.507 4.388 4.388 0 0 1-.594-2.334 4.458 4.458 0 0 1 .773-2.778 4.547 4.547 0 0 1 2.497-1.477 18.237 18.237 0 0 1 4.637-.473h5.206l-.024 5.865ZM102.111 59.002a19.509 19.509 0 0 0-1.873-.266 21.823 21.823 0 0 0-2.021-.088 12.043 12.043 0 0 0-3.804.59A8.25 8.25 0 0 0 91.29 61.1a8.661 8.661 0 0 0-2.08 3.162 12.268 12.268 0 0 0-.744 4.49v4.255h-4.459v4.61h4.46v25.528h6.063V77.617h8.324v-4.61h-8.324v-4.904a5.514 5.514 0 0 1 .328-1.98 3.74 3.74 0 0 1 .92-1.418 3.627 3.627 0 0 1 1.517-.827 7.412 7.412 0 0 1 2.05-.266c.477 0 .931.02 1.369.059.438.038.861.098 1.278.177.417.079.811.158 1.189.236.336.067.664.166.981.296l-.238-4.905a14.39 14.39 0 0 0-1.814-.473ZM108.739 103.145h6.064V72.417l-6.064.886v29.842ZM113.942 60.036a3.873 3.873 0 0 0-2.052-.561 4.018 4.018 0 0 0-2.081.561c-.62.361-1.14.868-1.516 1.477a3.802 3.802 0 0 0-.564 2.04 3.946 3.946 0 0 0 .564 2.067 4.027 4.027 0 0 0 1.516 1.478 4.19 4.19 0 0 0 2.081.531 4.038 4.038 0 0 0 2.052-.531 3.876 3.876 0 0 0 1.456-1.478 4.12 4.12 0 0 0 .535-2.068 3.967 3.967 0 0 0-.535-2.039 4.188 4.188 0 0 0-1.456-1.477ZM149.94 73.007h-7.431l-10.174 11.11h-2.193V58.529l-6.064.887v43.728h6.064V88.667h.1l12.147 14.477h7.848l-14.422-16.152 14.125-13.985ZM167.028 86.837l14.125-13.985h-7.431l-10.174 11.11h-2.193V58.374l-6.064.886v43.729h6.064V88.512h.099l12.148 14.478h7.848l-14.422-16.153Z"/></svg>