<svg width="290" height="104" viewBox="0 0 290 104" fill="none" xmlns="http://www.w3.org/2000/svg">
<path d="M0 43V1.00381H13.7802V43H0ZM32.5283 7.68773L40.4532 43H25.3721L15.9092 1.00381H24.3676C26.3072 0.978642 28.1892 1.66237 29.6607 2.92636C31.1347 4.13734 32.1473 5.81844 32.5283 7.68773ZM42.5233 43V1.00381H56.3035V43H42.5233ZM66.7116 16.9743C65.2267 16.9888 63.7656 16.6003 62.4839 15.8504C61.2193 15.1194 60.1688 14.0689 59.438 12.8041C58.6872 11.5222 58.2986 10.0607 58.3134 8.57511C58.2964 7.09861 58.6853 5.64583 59.438 4.3755C60.1766 3.12447 61.2259 2.08533 62.4839 1.35882C63.766 0.609758 65.2269 0.221301 66.7116 0.234844C68.1877 0.218947 69.6399 0.607751 70.9108 1.35882C72.1562 2.09169 73.1943 3.12996 73.9271 4.3755C74.6789 5.64618 75.0677 7.09873 75.0517 8.57511C75.0655 10.0605 74.6769 11.5218 73.9271 12.8041C73.202 14.0633 72.1627 15.113 70.9108 15.8504C69.6398 16.6029 68.1866 16.9918 66.7097 16.9743H66.7116ZM77.1807 43V1.00381H90.9621V43H77.1807ZM108.408 23.9538C108.447 23.9946 108.742 24.4776 109.295 25.403C109.848 26.3283 110.567 27.5114 111.454 28.952C112.341 30.392 113.277 31.9199 114.262 33.536C115.247 35.1521 116.174 36.6803 117.043 38.1202C117.908 39.5602 118.894 41.1867 120 43H104.859C103.912 41.4621 103.055 40.0721 102.286 38.83C101.517 37.5878 100.7 36.2471 99.8334 34.8077C98.9653 33.3698 98.1071 31.9699 97.2587 30.6081C96.4103 29.2464 95.6813 28.0536 95.0714 27.0297C94.459 26.0051 94.0348 25.3149 93.7989 24.9594C93.2139 24.0771 92.8677 23.058 92.7944 22.0019C92.853 20.9883 93.1791 20.0084 93.7397 19.1619C93.9762 18.7676 94.41 18.0675 95.0409 17.062C95.6717 16.0564 96.411 14.8637 97.2587 13.4835C98.1064 12.1034 98.9647 10.6936 99.8334 9.25431C100.702 7.81501 101.519 6.46432 102.286 5.20247C103.056 3.94193 103.914 2.54205 104.859 1.00285H120L108.289 20.1082C107.926 20.6755 107.722 21.3292 107.697 22.0019C107.736 22.7081 107.983 23.3871 108.406 23.9538H108.408Z" fill="white"/>
<path d="M28.111 86.6593C28.6002 88.1286 28.8336 89.671 28.801 91.2193C28.8687 93.2979 28.4474 95.3633 27.571 97.2493C26.7754 98.8416 25.5754 100.197 24.091 101.179C22.5004 102.218 20.7302 102.95 18.871 103.339C16.7714 103.791 14.6287 104.013 12.481 103.999C11.521 103.999 10.571 103.959 9.631 103.879C8.691 103.799 7.751 103.689 6.811 103.549C5.83102 103.401 4.85964 103.201 3.901 102.949C2.84485 102.673 1.8035 102.342 0.781 101.959L0 96.0193C0.96 96.3793 1.97033 96.7297 3.031 97.0703C4.09167 97.411 5.18133 97.7006 6.3 97.9393C7.41867 98.1793 8.53867 98.3693 9.66 98.5093C10.7346 98.6469 11.8167 98.7171 12.9 98.7193C14.0146 98.7291 15.1283 98.6488 16.23 98.4793C17.1323 98.3431 18.0109 98.0805 18.84 97.6993C19.5736 97.3588 20.2277 96.8682 20.76 96.2593C21.2902 95.6422 21.6975 94.9294 21.96 94.1593C22.2552 93.2697 22.3975 92.3365 22.381 91.3993C22.4024 90.5184 22.2495 89.6419 21.931 88.8203C21.6566 88.1381 21.2369 87.5238 20.701 87.0203C20.1357 86.5106 19.499 86.0861 18.811 85.7603C18.0098 85.378 17.1766 85.0668 16.321 84.8303C15.4003 84.5716 14.4003 84.3216 13.321 84.0803C11.9997 83.8016 10.7097 83.4617 9.451 83.0603C8.24191 82.6818 7.06759 82.2 5.941 81.6203C4.87822 81.0734 3.90668 80.365 3.061 79.5203C2.20605 78.658 1.54171 77.6257 1.111 76.4903C0.621093 75.1352 0.387125 73.7009 0.421 72.2603C0.37435 70.3992 0.754033 68.5521 1.531 66.8603C2.25874 65.3546 3.35157 64.0548 4.71 63.0793C6.18458 62.0361 7.84404 61.2827 9.6 60.8593C11.6618 60.358 13.7782 60.1161 15.9 60.1393C16.94 60.1393 17.9597 60.1893 18.959 60.2893C19.9465 60.3879 20.9282 60.5381 21.9 60.7393C22.86 60.9393 23.8097 61.1796 24.749 61.4603C25.6721 61.7333 26.5666 62.095 27.42 62.5403L26.58 67.8203C25.8212 67.403 25.028 67.0517 24.209 66.7703C23.3349 66.4668 22.4433 66.2164 21.539 66.0203C20.6083 65.819 19.6672 65.6687 18.72 65.5703C17.7832 65.472 16.8419 65.422 15.9 65.4203C14.8662 65.4143 13.8334 65.4845 12.81 65.6303C11.9493 65.7475 11.1104 65.9901 10.32 66.3503C9.62929 66.6712 8.99188 67.0962 8.43 67.6103C7.88776 68.1142 7.47596 68.7422 7.23 69.4403C6.95782 70.2314 6.82584 71.0639 6.84 71.9003C6.82023 72.7078 6.95253 73.5118 7.23 74.2703C7.47934 74.9156 7.8807 75.4912 8.4 75.9483C8.95188 76.4306 9.56769 76.8344 10.23 77.1483C11.0004 77.5142 11.8041 77.8055 12.63 78.0183C13.53 78.2583 14.4997 78.4983 15.539 78.7383C16.899 79.019 18.219 79.359 19.499 79.7583C20.7483 80.146 21.9629 80.6377 23.13 81.2283C24.243 81.7894 25.2564 82.5292 26.13 83.4183C27.017 84.3421 27.6926 85.4476 28.11 86.6583M62.88 99.4993C63.2275 99.4535 63.5695 99.3731 63.901 99.2593L63.241 103.279C63.0162 103.366 62.7853 103.437 62.55 103.489C62.289 103.549 62 103.618 61.68 103.699C61.3555 103.779 61.0245 103.829 60.691 103.849C60.35 103.868 60 103.879 59.64 103.879C58.4694 103.9 57.3065 103.686 56.22 103.249C55.2371 102.845 54.4148 102.128 53.88 101.209C53.5666 100.661 53.3469 100.063 53.23 99.4423C52.8594 99.8821 52.4655 100.302 52.05 100.699C50.9566 101.735 49.6734 102.55 48.271 103.099C46.6483 103.694 44.9286 103.978 43.201 103.939C41.3568 104.004 39.5273 103.59 37.89 102.739C36.5482 102.018 35.4438 100.924 34.71 99.5893C34.0103 98.2899 33.6496 96.8351 33.661 95.3593C33.653 93.7865 34.1235 92.2485 35.01 90.9493C36.056 89.4899 37.4762 88.3395 39.121 87.6193C41.3189 86.6559 43.6822 86.1262 46.081 86.0593L53.094 85.5843L53.1 84.0793C53.1171 83.0577 52.996 82.0385 52.74 81.0493C52.5317 80.2472 52.1181 79.5131 51.54 78.9193C50.8898 78.3101 50.0952 77.8765 49.231 77.6593C48.0457 77.355 46.8245 77.2137 45.601 77.2393C44.801 77.2393 43.9907 77.2693 43.17 77.3293C42.3344 77.3915 41.503 77.5016 40.68 77.6593C39.84 77.8207 38.9703 78.0206 38.071 78.2593C37.1717 78.498 36.2213 78.798 35.22 79.1593L35.941 74.0593C36.9697 73.6494 38.0211 73.2989 39.09 73.0093C40.2431 72.6988 41.4162 72.4683 42.601 72.3193C43.8542 72.1584 45.1165 72.0783 46.38 72.0793C47.9733 72.062 49.5635 72.223 51.121 72.5593C52.3942 72.8307 53.6182 73.2961 54.75 73.9393C55.7248 74.4988 56.573 75.2544 57.241 76.1583C57.901 77.0837 58.3885 78.1207 58.68 79.2193C59.0121 80.4719 59.1739 81.7635 59.161 83.0593L59.04 95.4193C58.9118 96.5229 59.1436 97.6383 59.701 98.5993C59.9847 98.9359 60.3455 99.199 60.7528 99.3662C61.16 99.5333 61.6016 99.5996 62.04 99.5593C62.321 99.5565 62.6015 99.5365 62.88 99.4993ZM53.047 95.9143L53.074 89.9593H47.821C46.2465 89.9167 44.6731 90.078 43.14 90.4393C42.1588 90.6501 41.2738 91.177 40.621 91.9393C40.0564 92.7673 39.7817 93.7589 39.84 94.7593C39.8162 95.5897 40.0239 96.4103 40.44 97.1293C40.86 97.8076 41.4772 98.3414 42.209 98.6593C43.1092 99.043 44.0818 99.2272 45.06 99.1993C45.9157 99.2015 46.7697 99.1212 47.61 98.9593C48.4207 98.8026 49.2074 98.5403 49.95 98.1793C50.6955 97.8161 51.3995 97.3736 52.05 96.8593C52.4099 96.5737 52.7445 96.2575 53.05 95.9143M55.861 57.7993H49.38L44.28 68.5393H48.96L55.861 57.7993ZM111.061 73.3393C109.425 72.4511 107.581 72.0161 105.72 72.0793C104.106 72.0749 102.502 72.3489 100.981 72.8893C99.4354 73.4426 97.9798 74.2206 96.661 75.1983C95.9132 75.7517 95.2021 76.353 94.532 76.9983C93.9171 75.4962 92.8328 74.2334 91.441 73.3983C89.785 72.5057 87.921 72.0708 86.041 72.1383C84.4368 72.1387 82.8444 72.4123 81.332 72.9473C79.7795 73.4937 78.3143 74.262 76.982 75.2283C76.55 75.5393 76.133 75.8763 75.721 76.2283V72.1393L69.602 73.0393V103.339H75.721V80.5173C76.4421 80.0452 77.1937 79.6216 77.971 79.2493C78.9231 78.7993 79.9186 78.4475 80.942 78.1993C81.8838 77.9665 82.8498 77.8456 83.82 77.8393C84.7111 77.8126 85.5984 77.9657 86.429 78.2893C87.1169 78.5804 87.7244 79.0333 88.2 79.6093C88.7211 80.278 89.0802 81.0585 89.249 81.8893C89.4833 82.9632 89.5944 84.0603 89.58 85.1593V103.339H95.7V83.8993C95.7042 82.7516 95.6267 81.605 95.468 80.4683C96.1619 80.0129 96.8803 79.5959 97.62 79.2193C98.5555 78.7481 99.5419 78.3857 100.56 78.1393C101.522 77.9038 102.509 77.783 103.499 77.7793C104.381 77.758 105.258 77.9109 106.08 78.2293C106.779 78.5145 107.398 78.9679 107.88 79.5493C108.402 80.2177 108.761 80.9982 108.93 81.8293C109.164 82.9032 109.275 84.0003 109.26 85.0993V103.339H115.38V83.8393C115.458 81.5701 115.091 79.3077 114.3 77.1793C113.678 75.5744 112.538 74.2229 111.061 73.3393ZM129.69 59.5693C129.067 59.1886 128.35 58.9911 127.62 58.9993C126.881 58.9936 126.155 59.1907 125.52 59.5693C124.894 59.9352 124.368 60.4506 123.99 61.0693C123.609 61.6921 123.412 62.4095 123.42 63.1393C123.418 63.8719 123.612 64.5917 123.981 65.2244C124.35 65.8572 124.882 66.3801 125.52 66.7393C126.161 67.1 126.885 67.2862 127.62 67.2793C128.346 67.2886 129.061 67.1021 129.69 66.7393C130.308 66.3827 130.816 65.864 131.16 65.2393C131.521 64.5986 131.707 63.8745 131.7 63.1393C131.709 62.4134 131.522 61.6984 131.16 61.0693C130.804 60.4535 130.298 59.9375 129.69 59.5693ZM124.44 103.339H130.56V72.1393L124.44 73.0393V103.339ZM166.62 72.5283C165.498 72.8297 164.426 73.2947 163.439 73.9083C162.416 74.5473 161.47 75.3023 160.62 76.1583C160.478 76.3003 160.34 76.4583 160.199 76.6083V72.1393L154.08 73.0393V103.339H160.2V80.6713C160.655 80.3536 161.125 80.0592 161.61 79.7893C162.21 79.4584 162.831 79.1678 163.47 78.9193C164.089 78.6793 164.719 78.4693 165.36 78.2893C166.019 78.1059 166.691 77.9755 167.371 77.8993C168.098 77.8195 168.83 77.7995 169.56 77.8393L170.28 72.1983C169.051 72.1109 167.815 72.2223 166.621 72.5283M201.9 99.4993C202.247 99.4535 202.588 99.3731 202.919 99.2593L202.259 103.279C202.035 103.367 201.805 103.437 201.57 103.489C201.309 103.549 201.019 103.618 200.7 103.699C200.375 103.779 200.043 103.829 199.709 103.849C199.37 103.868 199.02 103.879 198.66 103.879C197.489 103.9 196.326 103.686 195.24 103.249C194.257 102.845 193.435 102.128 192.9 101.209C192.586 100.661 192.366 100.063 192.25 99.4423C191.879 99.8816 191.485 100.301 191.07 100.699C189.976 101.735 188.693 102.55 187.29 103.099C185.667 103.694 183.947 103.979 182.219 103.939C180.375 104.004 178.547 103.59 176.91 102.739C175.568 102.018 174.464 100.924 173.73 99.5893C173.03 98.2901 172.668 96.8352 172.679 95.3593C172.671 93.7862 173.142 92.2479 174.03 90.9493C175.075 89.4892 176.495 88.3387 178.14 87.6193C180.338 86.6557 182.701 86.126 185.1 86.0593L192.113 85.5843L192.12 84.0793C192.137 83.0577 192.015 82.0384 191.759 81.0493C191.552 80.2468 191.138 79.5125 190.559 78.9193C189.908 78.3101 189.113 77.8765 188.248 77.6593C187.063 77.3548 185.842 77.2135 184.619 77.2393C183.819 77.2393 183.009 77.2693 182.189 77.3293C181.353 77.3914 180.522 77.5016 179.699 77.6593C178.859 77.8207 177.989 78.0206 177.088 78.2593C176.187 78.498 175.238 78.798 174.239 79.1593L174.958 74.0593C175.987 73.6494 177.039 73.2989 178.109 73.0093C179.262 72.6987 180.435 72.4682 181.619 72.3193C182.873 72.1584 184.135 72.0782 185.399 72.0793C186.992 72.062 188.582 72.223 190.139 72.5593C191.412 72.8309 192.637 73.2963 193.769 73.9393C194.743 74.4986 195.591 75.2542 196.258 76.1583C196.919 77.0835 197.408 78.1205 197.7 79.2193C198.031 80.4721 198.192 81.7636 198.179 83.0593L198.06 95.4193C197.932 96.5226 198.163 97.6378 198.719 98.5993C199.003 98.9358 199.364 99.1988 199.772 99.366C200.18 99.5331 200.621 99.5994 201.06 99.5593C201.341 99.5564 201.621 99.5364 201.9 99.4993ZM192.067 95.9143L192.093 89.9593H186.839C185.265 89.9167 183.692 90.0781 182.16 90.4393C181.159 90.5952 180.257 91.1315 179.642 91.9365C179.027 92.7414 178.747 93.7527 178.86 94.7593C178.837 95.5896 179.044 96.4101 179.46 97.1293C179.881 97.8075 180.499 98.3412 181.231 98.6593C182.131 99.0432 183.103 99.2275 184.081 99.1993C184.936 99.2016 185.79 99.1212 186.63 98.9593C187.441 98.8029 188.228 98.5406 188.97 98.1793C189.716 97.8163 190.42 97.3737 191.07 96.8593C191.43 96.5735 191.764 96.2573 192.07 95.9143M229.439 58.9393L235.558 58.0993V103.339H230.58L229.826 100.565C229.377 100.891 228.926 101.201 228.478 101.479C227.182 102.292 225.778 102.918 224.308 103.339C222.833 103.746 221.309 103.948 219.779 103.939C217.284 104.009 214.82 103.375 212.668 102.109C210.669 100.868 209.082 99.0621 208.109 96.9193C206.993 94.4105 206.449 91.6845 206.518 88.9393C206.418 85.7593 207.141 82.6075 208.618 79.7893C209.882 77.4416 211.762 75.483 214.056 74.1245C216.35 72.7659 218.971 72.0588 221.637 72.0793C223.037 72.0678 224.434 72.1984 225.807 72.4693C226.982 72.7057 228.136 73.0368 229.258 73.4593C229.32 73.4833 229.377 73.5123 229.438 73.5363L229.439 58.9393ZM229.439 96.6323V78.1393C229.125 78.0243 228.802 77.9003 228.509 77.8073C227.597 77.5142 226.664 77.2936 225.718 77.1473C224.765 77.0049 223.802 76.9347 222.838 76.9373C220.966 76.8863 219.113 77.3313 217.468 78.2273C215.956 79.1015 214.751 80.4218 214.018 82.0073C213.158 83.9614 212.748 86.0836 212.818 88.2173C212.751 90.3003 213.119 92.3743 213.898 94.3073C214.519 95.8141 215.614 97.0777 217.017 97.9073C218.526 98.7241 220.223 99.1278 221.938 99.0773C223.408 99.0398 224.86 98.7454 226.228 98.2073C227.344 97.7803 228.418 97.2524 229.438 96.6303M250.167 59.5693C249.545 59.1887 248.828 58.9911 248.098 58.9993C247.359 58.9936 246.633 59.1908 245.998 59.5693C245.372 59.9355 244.847 60.4508 244.469 61.0693C244.088 61.6919 243.89 62.4094 243.899 63.1393C243.892 63.8784 244.089 64.6051 244.469 65.2393C244.836 65.8674 245.365 66.3854 246 66.7393C246.641 67.1 247.365 67.2862 248.1 67.2793C248.826 67.2886 249.54 67.1021 250.169 66.7393C250.787 66.3831 251.296 65.8643 251.64 65.2393C252 64.5985 252.186 63.8745 252.18 63.1393C252.188 62.4134 252.002 61.6986 251.64 61.0693C251.284 60.4533 250.778 59.9372 250.169 59.5693M244.919 103.339H251.04V72.1393L244.919 73.0393V103.339ZM289.38 87.6793C289.455 90.6835 288.763 93.6572 287.371 96.3203C286.086 98.7037 284.137 100.663 281.76 101.959C279.214 103.315 276.364 103.997 273.48 103.939C270.725 103.998 268 103.359 265.56 102.079C263.293 100.853 261.459 98.9567 260.31 96.6493C259.031 94.0061 258.403 91.0949 258.48 88.1593C258.405 85.2007 259.075 82.2707 260.43 79.6393C261.677 77.2938 263.572 75.3567 265.89 74.0593C268.414 72.7681 271.207 72.0898 274.043 72.0794C276.878 72.069 279.676 72.7267 282.21 73.9993C284.477 75.2457 286.325 77.135 287.52 79.4293C288.809 81.9844 289.448 84.8182 289.38 87.6793ZM283.02 87.7993C283.036 86.2921 282.855 84.7893 282.48 83.3293C282.165 82.0813 281.604 80.9085 280.831 79.8793C280.105 78.9327 279.157 78.1804 278.07 77.6893C276.828 77.1619 275.489 76.9061 274.14 76.9393C272.413 76.8915 270.704 77.3058 269.19 78.1393C267.774 78.9796 266.653 80.237 265.98 81.7393C265.158 83.6507 264.769 85.72 264.84 87.7993C264.775 89.9365 265.163 92.0633 265.98 94.0393C266.596 95.5854 267.678 96.9013 269.075 97.8045C270.473 98.7076 272.117 99.1532 273.78 99.0793C275.462 99.1097 277.12 98.6847 278.58 97.8493C280.033 96.9691 281.175 95.6584 281.849 94.0993C282.69 92.1086 283.09 89.9592 283.02 87.7993Z" fill="#9FDAF5"/>
</svg>
