<svg xmlns="http://www.w3.org/2000/svg" viewBox="0 0 147 117"><path fill="#fff" d="M0 43V1.004h13.78V43H0ZM32.528 7.688 40.453 43h-15.08L15.908 1.004h8.459a7.965 7.965 0 0 1 5.293 1.922 8.31 8.31 0 0 1 2.867 4.762ZM42.523 43V1.004h13.78V43h-13.78Zm24.189-26.026a8.213 8.213 0 0 1-4.228-1.124 8.336 8.336 0 0 1-3.046-3.046 8.206 8.206 0 0 1-1.125-4.229 8.056 8.056 0 0 1 1.125-4.2 8.437 8.437 0 0 1 3.046-3.016A8.232 8.232 0 0 1 66.712.235a8.083 8.083 0 0 1 4.199 1.124 8.503 8.503 0 0 1 3.016 3.016 8.075 8.075 0 0 1 1.125 4.2 8.226 8.226 0 0 1-1.125 4.23 8.4 8.4 0 0 1-3.016 3.045 8.059 8.059 0 0 1-4.201 1.124h.002ZM77.18 43V1.004h13.781V43H77.181Zm31.227-19.046c.039.04.334.524.887 1.449.553.925 1.272 2.108 2.159 3.549a1143.28 1143.28 0 0 1 5.589 9.168A854.89 854.89 0 0 0 120 43h-15.141c-.947-1.538-1.804-2.928-2.573-4.17a382.214 382.214 0 0 1-2.453-4.022 351.934 351.934 0 0 0-2.574-4.2 213.445 213.445 0 0 1-2.188-3.578 62.753 62.753 0 0 0-1.272-2.07 6.119 6.119 0 0 1-1.005-2.958 5.744 5.744 0 0 1 .946-2.84c.236-.394.67-1.095 1.3-2.1.632-1.006 1.371-2.198 2.219-3.579.847-1.38 1.706-2.79 2.574-4.229.869-1.439 1.686-2.79 2.453-4.052.77-1.26 1.628-2.66 2.573-4.2H120l-11.711 19.106a3.773 3.773 0 0 0-.592 1.894c.039.706.286 1.385.709 1.952h.002Z"/><path fill="#F34531" d="M25.78 83.385a11.21 11.21 0 0 0-2.96-2.161 23.075 23.075 0 0 0-3.58-1.45 40.617 40.617 0 0 0-3.908-1.008 84.774 84.774 0 0 1-2.871-.71 13.227 13.227 0 0 1-2.368-.858 7.824 7.824 0 0 1-1.804-1.184 4.26 4.26 0 0 1-1.156-1.657 6.405 6.405 0 0 1-.383-2.34 7.146 7.146 0 0 1 .383-2.426 4.52 4.52 0 0 1 1.184-1.806 7.317 7.317 0 0 1 1.865-1.242 8.77 8.77 0 0 1 2.457-.71 20.756 20.756 0 0 1 3.048-.208c.93.002 1.858.051 2.783.147a25.84 25.84 0 0 1 2.782.445c.892.194 1.772.441 2.634.74.808.278 1.59.624 2.338 1.035l.83-5.208a14.741 14.741 0 0 0-2.635-1.066 35.344 35.344 0 0 0-2.812-.711 28.082 28.082 0 0 0-2.9-.443 30.32 30.32 0 0 0-3.02-.148 25.194 25.194 0 0 0-6.216.71 14.075 14.075 0 0 0-4.824 2.19 9.888 9.888 0 0 0-3.137 3.73 12.05 12.05 0 0 0-1.096 5.327 11.455 11.455 0 0 0 .681 4.172 8.551 8.551 0 0 0 1.924 2.99 11.436 11.436 0 0 0 2.84 2.073 21.745 21.745 0 0 0 3.465 1.421c1.243.395 2.516.73 3.818 1.007a52.74 52.74 0 0 1 2.96.74c.844.233 1.666.54 2.456.917.68.321 1.308.74 1.865 1.243a4.991 4.991 0 0 1 1.214 1.776c.313.812.464 1.676.444 2.546a8.241 8.241 0 0 1-.415 2.723 6.328 6.328 0 0 1-1.184 2.072 5.707 5.707 0 0 1-1.894 1.42 9.568 9.568 0 0 1-2.576.77 20.518 20.518 0 0 1-3.285.237 25.747 25.747 0 0 1-3.196-.207 38.476 38.476 0 0 1-3.315-.563 33.235 33.235 0 0 1-3.227-.859A61.75 61.75 0 0 1 0 95.816l.77 5.861c1.009.376 2.036.702 3.078.976.946.248 1.904.445 2.871.592.926.137 1.853.245 2.782.325.929.08 1.866.119 2.811.118a29.05 29.05 0 0 0 6.306-.651 15.082 15.082 0 0 0 5.15-2.131 10.02 10.02 0 0 0 3.433-3.877 13.098 13.098 0 0 0 1.214-5.95 13.356 13.356 0 0 0-.681-4.5 8.746 8.746 0 0 0-1.954-3.194ZM58.34 74.061a12.72 12.72 0 0 0-7.075-1.865 18.071 18.071 0 0 0-4.38.562 19.043 19.043 0 0 0-4.44 1.747c-.279.15-.555.319-.83.487v-2.737l-6.037.948v42.266h6.038v-13.254c.04.017.078.036.118.054 1.094.454 2.236.781 3.404.976a24.4 24.4 0 0 0 4.173.326 14.782 14.782 0 0 0 7.606-1.955 14.05 14.05 0 0 0 5.328-5.652 18.9 18.9 0 0 0 1.983-9.028 18.39 18.39 0 0 0-1.51-7.695 11.883 11.883 0 0 0-4.379-5.18Zm-1.57 19.802a8.147 8.147 0 0 1-3.404 3.728 10.937 10.937 0 0 1-5.416 1.244c-.902 0-1.803-.069-2.694-.208a16.872 16.872 0 0 1-2.752-.68 56.157 56.157 0 0 1-.888-.32V78.947c.078-.037.159-.084.237-.12.867-.394 1.676-.73 2.427-1.007a12.143 12.143 0 0 1 4.203-.77c1.824-.06 3.635.337 5.268 1.155a7.103 7.103 0 0 1 3.166 3.521 15.161 15.161 0 0 1 1.036 6.038 14.14 14.14 0 0 1-1.182 6.1ZM93.088 74.09a16.238 16.238 0 0 0-8.021-1.894 16.164 16.164 0 0 0-8.082 1.954 13.646 13.646 0 0 0-5.387 5.505 17.409 17.409 0 0 0-1.924 8.405 18.146 18.146 0 0 0 1.806 8.376 12.36 12.36 0 0 0 5.18 5.359 16.103 16.103 0 0 0 7.814 1.834 16.688 16.688 0 0 0 8.17-1.952 13.79 13.79 0 0 0 5.535-5.566 17.446 17.446 0 0 0 1.983-8.523 17.158 17.158 0 0 0-1.836-8.14 12.937 12.937 0 0 0-5.238-5.358Zm-.356 19.832a8.076 8.076 0 0 1-3.225 3.7 9.201 9.201 0 0 1-4.736 1.213 8.42 8.42 0 0 1-4.618-1.244 8.335 8.335 0 0 1-3.079-3.729 14.928 14.928 0 0 1-1.125-6.156 13.942 13.942 0 0 1 1.125-5.98 7.87 7.87 0 0 1 3.168-3.552 9.571 9.571 0 0 1 4.883-1.184 9.312 9.312 0 0 1 3.877.74 7.12 7.12 0 0 1 2.725 2.162 9.57 9.57 0 0 1 1.626 3.404c.37 1.44.55 2.923.533 4.41a14.738 14.738 0 0 1-1.154 6.216ZM119.873 72.64a11.701 11.701 0 0 0-3.138 1.36 15.563 15.563 0 0 0-2.782 2.22c-.14.14-.275.297-.414.444v-4.409l-6.038.888v29.895h6.038V80.673a15.152 15.152 0 0 1 3.227-1.729 20.638 20.638 0 0 1 1.864-.62 12.712 12.712 0 0 1 4.144-.445l.71-5.565a11.315 11.315 0 0 0-3.611.325ZM145.565 98.095c-.278.06-.583.118-.919.178l-1.005.177a8.588 8.588 0 0 1-.977.119c-.317.02-.613.03-.888.03a5.989 5.989 0 0 1-2.634-.533 3.829 3.829 0 0 1-1.687-1.569 4.994 4.994 0 0 1-.592-2.517V77.583h8.347l.651-4.736h-8.998v-9.352l-6.038 2.131v7.221h-4.559l-.652 4.736h5.211v17.641a10.038 10.038 0 0 0 .532 3.463 7.233 7.233 0 0 0 1.391 2.397 6.177 6.177 0 0 0 2.013 1.48c.783.36 1.608.619 2.456.77.84.155 1.692.234 2.545.237.632 0 1.254-.02 1.866-.06a19.86 19.86 0 0 0 1.687-.177c.512-.08.997-.169 1.451-.267a40.54 40.54 0 0 0 1.153-.265l.356-4.915c-.23.09-.468.159-.71.208Z"/></svg>