<svg xmlns="http://www.w3.org/2000/svg" viewBox="0 0 399 84"><path fill="#FFE100" d="M0 0h399v84H0z"/><path fill="#000" d="M268.159 46.389a19.907 19.907 0 0 1-.621 5.234 9.565 9.565 0 0 1-1.922 3.785 8.037 8.037 0 0 1-3.4 2.277c-1.628.549-3.34.81-5.057.769a15.144 15.144 0 0 1-5.856-1.035 7.41 7.41 0 0 1-3.785-3.49 14.31 14.31 0 0 1-1.302-6.653V21.018h-6.21v27.267a17.389 17.389 0 0 0 1.332 7.158 12.198 12.198 0 0 0 3.667 4.76 15.195 15.195 0 0 0 5.412 2.633c2.122.56 4.31.838 6.505.827a19.459 19.459 0 0 0 9.522-2.07 12.991 12.991 0 0 0 5.53-5.797 19.89 19.89 0 0 0 1.803-8.753V21.02h-5.619l.001 25.369ZM294.951 32.64a11.567 11.567 0 0 0-3.134 1.36 15.372 15.372 0 0 0-2.78 2.217c-.14.14-.276.296-.414.442v-4.405l-6.033.887v29.867h6.033V40.665c.448-.314.912-.604 1.39-.87a15.568 15.568 0 0 1 1.833-.858 20.584 20.584 0 0 1 1.863-.621 12.661 12.661 0 0 1 4.14-.444l.71-5.558a11.225 11.225 0 0 0-3.608.325ZM329.431 31.485l-3.312 3.495a13.643 13.643 0 0 0-1.36-.893 16.176 16.176 0 0 0-8.043-1.891 16.165 16.165 0 0 0-8.073 1.95 13.638 13.638 0 0 0-5.382 5.5 17.368 17.368 0 0 0-1.922 8.4 17.88 17.88 0 0 0 1.833 8.368c.339.643.729 1.26 1.166 1.84l-3.295 3.513 2.72 2.483 3.155-3.409c.454.34.931.65 1.427.926a16.037 16.037 0 0 0 7.836 1.832c2.834.06 5.635-.612 8.133-1.951a14.022 14.022 0 0 0 5.529-5.559 17.232 17.232 0 0 0 2.011-8.517 16.902 16.902 0 0 0-1.863-8.132 13.88 13.88 0 0 0-1.2-1.839l3.418-3.632-2.778-2.484Zm-20.64 10.233a7.858 7.858 0 0 1 3.164-3.549 9.439 9.439 0 0 1 4.82-1.183 9.525 9.525 0 0 1 3.903.74c.665.298 1.279.7 1.819 1.19l-13.76 14.86a15.314 15.314 0 0 1-1.07-6.085c-.07-2.05.313-4.09 1.124-5.973ZM324.404 53.9a8.276 8.276 0 0 1-3.223 3.696 9.027 9.027 0 0 1-4.702 1.214 8.556 8.556 0 0 1-4.643-1.242 7.306 7.306 0 0 1-1.099-.869l13.767-14.863c.205.471.379.955.521 1.449.39 1.435.579 2.918.562 4.405a14.433 14.433 0 0 1-1.183 6.214V53.9ZM351.786 32.64a11.593 11.593 0 0 0-3.134 1.36 15.428 15.428 0 0 0-2.78 2.217c-.14.14-.276.296-.414.442v-4.405l-6.032.887v29.867h6.032V40.665c.448-.314.912-.604 1.39-.87a15.568 15.568 0 0 1 1.833-.858 20.794 20.794 0 0 1 1.863-.621 12.72 12.72 0 0 1 4.14-.444l.71-5.558a11.228 11.228 0 0 0-3.608.325ZM377.455 58.07c-.277.059-.582.119-.917.177l-1.005.177a8.795 8.795 0 0 1-.977.119c-.315.02-.612.03-.887.03a5.958 5.958 0 0 1-2.632-.533 3.81 3.81 0 0 1-1.685-1.567 4.987 4.987 0 0 1-.592-2.513V37.577h8.34l.651-4.732h-8.991V23.5l-6.032 2.129v7.216h-4.554l-.651 4.732h5.205V55.2a10.02 10.02 0 0 0 .532 3.46c.305.88.777 1.694 1.391 2.395a6.162 6.162 0 0 0 2.011 1.479c.782.36 1.606.617 2.453.769.839.154 1.69.233 2.543.236.631 0 1.251-.02 1.864-.058a18.515 18.515 0 0 0 1.686-.178c.513-.08.995-.169 1.448-.265a31.13 31.13 0 0 0 1.153-.268l.356-4.907a4.638 4.638 0 0 1-.71.207ZM182.166 21.017h-12.954s7.361 12.084 7.444 12.236a2.04 2.04 0 0 1 .048 2.47l-7.492 12.281h12.956s6.248-10.216 7.102-11.634a3.098 3.098 0 0 0-.034-3.754c-.922-1.57-.924-1.568-7.07-11.599ZM167.538 21.017H156v41.977h11.538V21.017ZM222.743 27.971c-.436-.742-4.292-6.954-4.292-6.954h-27.729l6.057 10.16h14.606l-6.025 9.877 6.716 11.284-6.482 10.653h11.838c1.903-3.113 4.749-7.93 5.343-8.916a3.111 3.111 0 0 0-.034-3.769c-.593-1.011-3.763-6.04-5.658-9.135 0 0 5.098-8.446 5.692-9.433a3.105 3.105 0 0 0-.032-3.767Z"/><path fill="#000" d="M196.07 42.418c-1.825 2.98-4.877 7.976-5.449 8.95a2.998 2.998 0 0 0-.033 3.63c.572.95 3.648 5.986 5.482 8.988 1.833-3 4.91-8.034 5.482-8.987a3 3 0 0 0-.033-3.631c-.572-.974-3.625-5.97-5.449-8.95ZM20 63V21.004h13.78V63H20Zm32.528-35.312L60.453 63h-15.08l-9.464-41.996h8.459a7.965 7.965 0 0 1 5.293 1.922 8.31 8.31 0 0 1 2.867 4.762ZM62.523 63V21.004h13.78V63h-13.78Zm24.189-26.026a8.213 8.213 0 0 1-4.228-1.124 8.336 8.336 0 0 1-3.046-3.046 8.206 8.206 0 0 1-1.125-4.229 8.056 8.056 0 0 1 1.125-4.2 8.437 8.437 0 0 1 3.046-3.016 8.233 8.233 0 0 1 4.228-1.124 8.083 8.083 0 0 1 4.199 1.124 8.504 8.504 0 0 1 3.016 3.016 8.075 8.075 0 0 1 1.125 4.2 8.226 8.226 0 0 1-1.125 4.23 8.4 8.4 0 0 1-3.016 3.045 8.059 8.059 0 0 1-4.201 1.124h.002ZM97.18 63V21.004h13.781V63H97.181Zm31.227-19.046c.039.04.334.524.887 1.449.553.925 1.272 2.108 2.159 3.549a1143.28 1143.28 0 0 1 5.589 9.168A854.89 854.89 0 0 0 140 63h-15.141c-.947-1.538-1.804-2.928-2.573-4.17a388.795 388.795 0 0 1-2.453-4.022 355.984 355.984 0 0 0-2.574-4.2 210.645 210.645 0 0 1-2.188-3.578 62.13 62.13 0 0 0-1.272-2.07 6.127 6.127 0 0 1-1.005-2.958 5.745 5.745 0 0 1 .946-2.84c.236-.394.67-1.094 1.301-2.1.631-1.006 1.37-2.198 2.218-3.578.847-1.38 1.706-2.79 2.574-4.23.869-1.439 1.686-2.79 2.453-4.052.77-1.26 1.628-2.66 2.573-4.2H140l-11.711 19.106a3.773 3.773 0 0 0-.592 1.894c.039.706.286 1.385.709 1.952h.002Z"/></svg>