<svg width="424" height="68" viewBox="0 0 424 68" fill="none" xmlns="http://www.w3.org/2000/svg">
<path d="M0 55V13.0038H13.7802V55H0ZM32.5283 19.6877L40.4532 55H25.3721L15.9092 13.0038H24.3676C26.3072 12.9786 28.1892 13.6624 29.6607 14.9264C31.1347 16.1373 32.1473 17.8184 32.5283 19.6877ZM42.5233 55V13.0038H56.3035V55H42.5233ZM66.7116 28.9743C65.2267 28.9888 63.7656 28.6003 62.4839 27.8504C61.2193 27.1194 60.1688 26.0689 59.438 24.8041C58.6872 23.5222 58.2986 22.0607 58.3134 20.5751C58.2964 19.0986 58.6853 17.6458 59.438 16.3755C60.1766 15.1245 61.2259 14.0853 62.4839 13.3588C63.766 12.6098 65.2269 12.2213 66.7116 12.2348C68.1877 12.2189 69.6399 12.6078 70.9108 13.3588C72.1562 14.0917 73.1943 15.13 73.9271 16.3755C74.6789 17.6462 75.0677 19.0987 75.0517 20.5751C75.0655 22.0605 74.6769 23.5218 73.9271 24.8041C73.202 26.0633 72.1627 27.113 70.9108 27.8504C69.6398 28.6029 68.1866 28.9918 66.7097 28.9743H66.7116ZM77.1807 55V13.0038H90.9621V55H77.1807ZM108.408 35.9538C108.447 35.9946 108.742 36.4776 109.295 37.403C109.848 38.3283 110.567 39.5114 111.454 40.952C112.341 42.392 113.277 43.9199 114.262 45.536C115.247 47.1521 116.174 48.6803 117.043 50.1202C117.908 51.5602 118.894 53.1867 120 55H104.859C103.912 53.4621 103.055 52.0721 102.286 50.83C101.517 49.5878 100.7 48.2471 99.8334 46.8077C98.9653 45.3698 98.1071 43.9699 97.2587 42.6081C96.4103 41.2464 95.6813 40.0536 95.0714 39.0297C94.459 38.0051 94.0348 37.3149 93.7989 36.9594C93.2139 36.0771 92.8677 35.058 92.7944 34.0019C92.853 32.9883 93.1791 32.0084 93.7397 31.1619C93.9762 30.7676 94.41 30.0675 95.0409 29.062C95.6717 28.0564 96.411 26.8637 97.2587 25.4835C98.1064 24.1034 98.9647 22.6936 99.8334 21.2543C100.702 19.815 101.519 18.4643 102.286 17.2025C103.056 15.9419 103.914 14.5421 104.859 13.0029H120L108.289 32.1082C107.926 32.6755 107.722 33.3292 107.697 34.0019C107.736 34.7081 107.983 35.3871 108.406 35.9538H108.408Z" fill="white"/>
<path d="M162.005 35.5098C161.136 34.624 160.128 33.8873 159.02 33.3293C157.858 32.7414 156.65 32.2515 155.407 31.8646C154.132 31.4664 152.819 31.1279 151.466 30.8491C150.43 30.6108 149.464 30.3722 148.57 30.1332C147.748 29.921 146.948 29.6306 146.181 29.266C145.522 28.9537 144.909 28.5516 144.36 28.0712C143.843 27.6158 143.444 27.0423 143.196 26.3995C142.919 25.6438 142.788 24.843 142.807 24.0388C142.793 23.2063 142.925 22.3777 143.196 21.5904C143.44 20.8947 143.85 20.269 144.39 19.7674C144.949 19.256 145.583 18.833 146.27 18.5129C147.057 18.1547 147.892 17.9132 148.749 17.796C149.768 17.6516 150.795 17.582 151.824 17.5879C152.762 17.5892 153.698 17.6387 154.631 17.7362C155.574 17.8347 156.511 17.9846 157.437 18.1853C158.337 18.3798 159.225 18.6292 160.095 18.932C160.909 19.2124 161.698 19.5619 162.453 19.9765L163.289 14.7204C162.44 14.277 161.55 13.9169 160.632 13.6451C159.696 13.3663 158.751 13.127 157.796 12.9272C156.829 12.7272 155.852 12.578 154.87 12.4802C153.874 12.3806 152.859 12.3305 151.824 12.3298C149.712 12.3067 147.606 12.5475 145.554 13.0467C143.806 13.4683 142.155 14.2187 140.688 15.258C139.335 16.2288 138.247 17.5222 137.522 19.0206C136.749 20.7054 136.372 22.5443 136.418 24.3972C136.384 25.8314 136.617 27.2594 137.104 28.6088C137.533 29.7395 138.195 30.7675 139.045 31.6267C139.887 32.4676 140.854 33.173 141.912 33.7176C143.033 34.2949 144.201 34.7749 145.404 35.1523C146.659 35.5506 147.943 35.8891 149.255 36.1679C150.332 36.4062 151.327 36.6551 152.241 36.9146C153.093 37.1493 153.923 37.4591 154.72 37.8406C155.405 38.1639 156.039 38.5866 156.6 39.0951C157.134 39.5963 157.552 40.2079 157.825 40.8873C158.142 41.7058 158.294 42.5787 158.273 43.4561C158.289 44.3891 158.148 45.3181 157.855 46.2041C157.593 46.9705 157.188 47.6801 156.661 48.295C156.131 48.9004 155.48 49.3881 154.75 49.7268C153.925 50.1066 153.051 50.3683 152.153 50.5044C151.056 50.6726 149.948 50.7525 148.838 50.7433C147.76 50.7406 146.683 50.6708 145.614 50.5343C144.498 50.3949 143.383 50.2057 142.27 49.9667C141.157 49.7278 140.071 49.4387 139.015 49.0995C137.96 48.763 136.955 48.4148 136 48.0551L136.775 53.9693C137.793 54.3497 138.83 54.6783 139.881 54.954C140.835 55.2045 141.802 55.4039 142.778 55.5514C143.712 55.6908 144.647 55.8003 145.584 55.88C146.521 55.9596 147.466 55.9994 148.42 55.9994C150.558 56.0127 152.69 55.7924 154.78 55.3423C156.63 54.9544 158.392 54.2251 159.975 53.1917C161.452 52.2135 162.646 50.8641 163.437 49.2787C164.31 47.4011 164.73 45.3446 164.663 43.2749C164.695 41.7329 164.463 40.1968 163.975 38.7337C163.56 37.5287 162.888 36.4294 162.005 35.5098Z" fill="white"/>
<path d="M197.744 51.5788C197.308 51.619 196.868 51.5531 196.462 51.3867C196.057 51.2203 195.698 50.9582 195.415 50.6229C194.861 49.6661 194.631 48.556 194.758 47.4577L194.878 35.1504C194.891 33.8602 194.73 32.5742 194.4 31.327C194.11 30.2333 193.624 29.2011 192.967 28.2803C192.303 27.3798 191.459 26.6271 190.489 26.07C189.362 25.43 188.143 24.9666 186.876 24.696C185.326 24.361 183.744 24.2007 182.159 24.218C180.901 24.2175 179.644 24.2973 178.397 24.457C177.218 24.6054 176.051 24.8349 174.903 25.144C173.839 25.4327 172.793 25.7818 171.768 26.1894L171.052 31.2673C172.047 30.9089 172.993 30.6102 173.889 30.3712C174.786 30.1322 175.651 29.9331 176.486 29.7738C177.305 29.6172 178.132 29.5075 178.964 29.4452C179.779 29.3855 180.586 29.3556 181.382 29.3556C182.6 29.33 183.815 29.4707 184.995 29.7738C185.856 29.9889 186.647 30.4208 187.294 31.0283C187.87 31.6191 188.282 32.3502 188.488 33.1491C188.743 34.1343 188.864 35.1494 188.847 36.1669L188.84 37.6604L181.86 38.1324C179.473 38.1993 177.121 38.7267 174.933 39.6856C173.296 40.4025 171.883 41.5479 170.843 43.0011C169.96 44.2946 169.492 45.8259 169.499 47.392C169.488 48.8615 169.848 50.31 170.544 51.6036C171.275 52.9325 172.374 54.0216 173.709 54.74C175.338 55.5877 177.159 55.9993 178.994 55.9348C180.713 55.9743 182.425 55.6906 184.04 55.0984C185.436 54.5522 186.714 53.7408 187.802 52.7088C188.215 52.3124 188.607 51.8947 188.976 51.4573C189.093 52.0759 189.311 52.6708 189.623 53.2176C190.155 54.1319 190.974 54.8456 191.952 55.2487C193.033 55.6832 194.19 55.8965 195.355 55.876C195.714 55.876 196.062 55.8651 196.4 55.8451C196.733 55.8261 197.063 55.7761 197.386 55.6958C197.704 55.6161 197.992 55.5465 198.252 55.4867C198.485 55.4345 198.715 55.3646 198.938 55.2776L199.595 51.2751C199.266 51.3885 198.925 51.4689 198.58 51.515C198.303 51.5517 198.024 51.5713 197.744 51.5738M187.802 48.8855C187.154 49.3977 186.454 49.8383 185.712 50.1998C184.973 50.5591 184.19 50.8205 183.384 50.9774C182.547 51.1382 181.697 51.2179 180.845 51.2153C179.872 51.2431 178.904 51.0597 178.009 50.6777C177.28 50.3616 176.665 49.8305 176.247 49.1553C175.833 48.4388 175.627 47.6216 175.65 46.7946C175.592 45.7987 175.865 44.8116 176.426 43.9868C177.076 43.2278 177.957 42.7031 178.934 42.4934C180.46 42.1345 182.026 41.9742 183.593 42.0164H188.821L188.794 47.9446C188.49 48.2863 188.157 48.6011 187.799 48.8855" fill="white"/>
<path d="M191.593 10H185.143L180.068 20.6934H184.725L191.593 10Z" fill="white"/>
<path d="M246.527 25.4725C244.899 24.588 243.064 24.1549 241.213 24.218C239.606 24.2137 238.01 24.4865 236.495 25.0245C234.957 25.5757 233.509 26.3507 232.197 27.3245C231.452 27.8754 230.744 28.474 230.077 29.1166C229.465 27.621 228.386 26.3636 227.001 25.5323C225.353 24.6433 223.498 24.2102 221.626 24.2777C220.03 24.2784 218.445 24.5512 216.94 25.0842C215.395 25.6278 213.936 26.3925 212.61 27.3543C212.181 27.664 211.765 27.9995 211.356 28.35V24.2777L205.265 25.1738V55.3423H211.356V32.6194C212.073 32.1494 212.821 31.7276 213.595 31.3569C214.542 30.9092 215.533 30.559 216.551 30.3114C217.489 30.0795 218.452 29.9592 219.418 29.953C220.305 29.9264 221.188 30.0788 222.015 30.401C222.699 30.6912 223.304 31.142 223.777 31.7153C224.295 32.3814 224.653 33.1583 224.821 33.9854C225.054 35.0546 225.165 36.147 225.151 37.2412V55.3423H231.241V35.9867C231.245 34.844 231.168 33.7024 231.011 32.5706C231.701 32.1166 232.416 31.7014 233.152 31.327C234.083 30.858 235.064 30.4972 236.077 30.2517C237.035 30.0173 238.017 29.897 239.003 29.8933C239.881 29.872 240.753 30.0243 241.572 30.3413C242.268 30.6253 242.883 31.0767 243.363 31.6556C243.882 32.3212 244.24 33.0983 244.408 33.9257C244.641 34.9949 244.751 36.0873 244.737 37.1815V55.3423H250.828V35.927C250.904 33.6677 250.539 31.4151 249.753 29.2959C249.133 27.6978 247.998 26.3522 246.527 25.4725Z" fill="white"/>
<path d="M259.846 55.3433H265.937V24.2788L259.846 25.1748V55.3433Z" fill="white"/>
<path d="M265.068 11.7623C264.449 11.3835 263.735 11.1868 263.009 11.1948C262.274 11.1891 261.551 11.3854 260.919 11.7623C260.297 12.127 259.774 12.64 259.397 13.2558C259.018 13.8757 258.821 14.59 258.829 15.3168C258.828 16.0461 259.021 16.7625 259.389 17.3924C259.756 18.0223 260.284 18.5431 260.919 18.9012C261.557 19.2598 262.278 19.4452 263.009 19.4389C263.731 19.4475 264.442 19.2618 265.068 18.9012C265.683 18.5457 266.189 18.0293 266.532 17.4077C266.891 16.7695 267.076 16.0487 267.07 15.3168C267.078 14.5941 266.892 13.8824 266.532 13.2558C266.177 12.6431 265.674 12.1295 265.068 11.7623Z" fill="white"/>
<path d="M301.821 24.6661C300.704 24.9655 299.638 25.4285 298.656 26.0401C297.638 26.6761 296.696 27.4279 295.85 28.2803C295.708 28.4217 295.572 28.579 295.432 28.7274V24.2778L289.341 25.1739V55.3424H295.432V32.7727C295.894 32.4541 296.361 32.1554 296.835 31.8946C297.433 31.5653 298.051 31.2759 298.687 31.0284C299.303 30.7894 299.93 30.5803 300.567 30.4011C301.223 30.2188 301.891 30.0889 302.568 30.0128C303.291 29.9333 304.02 29.9134 304.747 29.953L305.464 24.3375C304.24 24.2495 303.01 24.3605 301.821 24.6661Z" fill="white"/>
<path d="M336.098 51.5788C335.661 51.619 335.222 51.5531 334.816 51.3867C334.411 51.2203 334.051 50.9582 333.769 50.6229C333.215 49.666 332.985 48.556 333.112 47.4577L333.232 35.1504C333.245 33.8602 333.084 32.5742 332.754 31.327C332.464 30.2333 331.978 29.2011 331.321 28.2803C330.657 27.3798 329.813 26.6271 328.843 26.07C327.716 25.43 326.497 24.9666 325.23 24.696C323.68 24.361 322.098 24.2007 320.513 24.218C319.255 24.2175 317.998 24.2973 316.751 24.457C315.572 24.6054 314.405 24.8349 313.257 25.144C312.193 25.4327 311.147 25.7818 310.122 26.1894L309.406 31.2673C310.401 30.9089 311.347 30.6102 312.243 30.3712C313.14 30.1322 314.005 29.9331 314.84 29.7738C315.659 29.6172 316.486 29.5075 317.318 29.4452C318.133 29.3855 318.939 29.3556 319.736 29.3556C320.954 29.33 322.169 29.4707 323.349 29.7738C324.21 29.9889 325.001 30.4208 325.648 31.0283C326.224 31.6191 326.636 32.3501 326.842 33.1491C327.097 34.1343 327.217 35.1494 327.201 36.1669L327.194 37.6604L320.214 38.1324C317.827 38.1993 315.475 38.7267 313.287 39.6856C311.65 40.4025 310.237 41.5479 309.197 43.0011C308.314 44.2946 307.846 45.8259 307.853 47.392C307.842 48.8615 308.201 50.31 308.898 51.6036C309.629 52.9325 310.728 54.0216 312.063 54.74C313.692 55.5877 315.513 55.9993 317.348 55.9348C319.067 55.9743 320.779 55.6906 322.394 55.0984C323.79 54.5522 325.067 53.7408 326.156 52.7088C326.569 52.3125 326.961 51.8947 327.33 51.4573C327.446 52.0759 327.665 52.6708 327.977 53.2176C328.509 54.1319 329.328 54.8456 330.306 55.2487C331.387 55.6832 332.544 55.8965 333.709 55.876C334.068 55.876 334.416 55.8651 334.754 55.8451C335.087 55.8261 335.417 55.7761 335.74 55.6958C336.058 55.6161 336.346 55.5465 336.605 55.4867C336.839 55.4345 337.069 55.3646 337.292 55.2776L337.949 51.2751C337.619 51.3885 337.279 51.4689 336.934 51.515C336.657 51.5517 336.377 51.5713 336.098 51.5738M326.156 48.8855C325.508 49.3977 324.808 49.8383 324.066 50.1998C323.327 50.5591 322.544 50.8205 321.738 50.9774C320.901 51.1382 320.051 51.2179 319.199 51.2153C318.226 51.2431 317.258 51.0597 316.362 50.6777C315.634 50.3616 315.019 49.8305 314.601 49.1553C314.187 48.4388 313.981 47.6216 314.004 46.7946C313.946 45.7987 314.219 44.8116 314.78 43.9868C315.43 43.2278 316.311 42.7031 317.288 42.4934C318.814 42.1345 320.38 41.9742 321.947 42.0164H327.175L327.148 47.9446C326.844 48.2863 326.511 48.6011 326.153 48.8855" fill="white"/>
<path d="M364.345 25.6687C364.285 25.6448 364.228 25.6159 364.166 25.593C363.05 25.1717 361.902 24.8417 360.733 24.6063C359.366 24.3375 357.976 24.2077 356.583 24.219C353.929 24.1986 351.321 24.9026 349.038 26.2553C346.754 27.608 344.883 29.558 343.626 31.8955C342.156 34.701 341.436 37.8389 341.536 41.0048C341.467 43.7383 342.008 46.4527 343.118 48.9512C344.087 51.0844 345.666 52.8823 347.656 54.1177C349.797 55.3781 352.25 56.0096 354.733 55.9397C356.256 55.9484 357.773 55.7474 359.241 55.3423C360.704 54.9215 362.101 54.2981 363.391 53.4904C363.838 53.2136 364.287 52.9049 364.732 52.5804L365.482 55.3423H370.437V10.2987L364.346 11.135L364.345 25.6687ZM361.151 50.2356C359.789 50.7716 358.344 51.0647 356.881 51.1018C355.175 51.1516 353.486 50.7494 351.985 49.9359C350.588 49.1104 349.498 47.8521 348.88 46.3515C348.105 44.4268 347.739 42.3618 347.805 40.2879C347.735 38.1631 348.143 36.0498 348.999 34.1039C349.728 32.5253 350.927 31.211 352.433 30.3413C354.07 29.4488 355.913 29.0054 357.777 29.0559C358.736 29.0538 359.694 29.1237 360.643 29.265C361.585 29.4108 362.513 29.6309 363.42 29.9231C363.711 30.0157 364.033 30.1392 364.345 30.2527V48.6654C363.33 49.2843 362.261 49.8098 361.151 50.2356Z" fill="white"/>
<path d="M384.973 11.7623C384.353 11.3835 383.639 11.1868 382.913 11.1948C382.178 11.1891 381.455 11.3854 380.823 11.7623C380.201 12.1269 379.678 12.64 379.302 13.2558C378.922 13.8757 378.725 14.59 378.733 15.3168C378.732 16.0461 378.926 16.7625 379.293 17.3924C379.66 18.0223 380.188 18.5431 380.823 18.9012C381.461 19.2598 382.182 19.4452 382.913 19.4389C383.636 19.4475 384.347 19.2618 384.973 18.9012C385.587 18.5457 386.093 18.0293 386.437 17.4077C386.795 16.7695 386.98 16.0487 386.974 15.3168C386.982 14.5941 386.797 13.8824 386.437 13.2558C386.081 12.6431 385.578 12.1295 384.973 11.7623Z" fill="white"/>
<path d="M379.748 55.3433H385.838V24.2788L379.748 25.1748V55.3433Z" fill="white"/>
<path d="M422.144 31.5361C420.954 29.2517 419.115 27.3705 416.859 26.1297C414.337 24.8626 411.553 24.2077 408.731 24.2181C405.909 24.2285 403.13 24.9038 400.618 26.1894C398.311 27.4814 396.424 29.41 395.183 31.7452C393.835 34.3652 393.168 37.2825 393.243 40.2282C393.167 43.1509 393.791 46.0493 395.063 48.6814C396.207 50.9787 398.032 52.8668 400.288 54.0878C402.717 55.3614 405.429 55.9986 408.171 55.9397C411.041 55.9969 413.878 55.3182 416.412 53.9683C418.777 52.6772 420.717 50.7263 421.995 48.3528C423.381 45.7017 424.069 42.7411 423.995 39.7503C424.062 36.9017 423.427 34.0803 422.144 31.5361ZM416.5 46.1424C415.831 47.6953 414.693 49.0005 413.247 49.8762C411.794 50.708 410.144 51.1312 408.47 51.1008C406.829 51.1417 405.211 50.7059 403.812 49.8463C402.429 48.9262 401.348 47.6165 400.708 46.0827C399.896 44.1152 399.51 41.9975 399.577 39.8698C399.506 37.7994 399.894 35.739 400.712 33.8361C401.381 32.3402 402.497 31.0882 403.906 30.2517C405.413 29.4218 407.114 29.0093 408.833 29.0569C410.175 29.0236 411.509 29.2782 412.744 29.8037C413.826 30.2923 414.77 31.0414 415.491 31.9842C416.261 33.0088 416.819 34.1765 417.133 35.4192C417.506 36.8729 417.687 38.3691 417.671 39.8698C417.74 42.0204 417.342 44.1604 416.505 46.1424" fill="white"/>
</svg>
