<svg width="393" height="163" viewBox="0 0 393 163" fill="none" xmlns="http://www.w3.org/2000/svg">
<path d="M0 43V1.00381H13.7802V43H0ZM32.5283 7.68773L40.4532 43H25.3721L15.9092 1.00381H24.3676C26.3072 0.978642 28.1892 1.66237 29.6607 2.92636C31.1347 4.13734 32.1473 5.81844 32.5283 7.68773ZM42.5233 43V1.00381H56.3035V43H42.5233ZM66.7116 16.9743C65.2267 16.9888 63.7656 16.6003 62.4839 15.8504C61.2193 15.1194 60.1688 14.0689 59.438 12.8041C58.6872 11.5222 58.2986 10.0607 58.3134 8.57511C58.2964 7.09861 58.6853 5.64583 59.438 4.3755C60.1766 3.12447 61.2259 2.08533 62.4839 1.35882C63.766 0.609758 65.2269 0.221301 66.7116 0.234844C68.1877 0.218947 69.6399 0.607751 70.9108 1.35882C72.1562 2.09169 73.1943 3.12996 73.9271 4.3755C74.6789 5.64618 75.0677 7.09873 75.0517 8.57511C75.0655 10.0605 74.6769 11.5218 73.9271 12.8041C73.202 14.0633 72.1627 15.113 70.9108 15.8504C69.6398 16.6029 68.1866 16.9918 66.7097 16.9743H66.7116ZM77.1807 43V1.00381H90.9621V43H77.1807ZM108.408 23.9538C108.447 23.9946 108.742 24.4776 109.295 25.403C109.848 26.3283 110.567 27.5114 111.454 28.952C112.341 30.392 113.277 31.9199 114.262 33.536C115.247 35.1521 116.174 36.6803 117.043 38.1202C117.908 39.5602 118.894 41.1867 120 43H104.859C103.912 41.4621 103.055 40.0721 102.286 38.83C101.517 37.5878 100.7 36.2471 99.8334 34.8077C98.9653 33.3698 98.1071 31.9699 97.2587 30.6081C96.4103 29.2464 95.6813 28.0536 95.0714 27.0297C94.459 26.0051 94.0348 25.3149 93.7989 24.9594C93.2139 24.0771 92.8677 23.058 92.7944 22.0019C92.853 20.9883 93.1791 20.0084 93.7397 19.1619C93.9762 18.7676 94.41 18.0675 95.0409 17.062C95.6717 16.0564 96.411 14.8637 97.2587 13.4835C98.1064 12.1034 98.9647 10.6936 99.8334 9.25431C100.702 7.81501 101.519 6.46432 102.286 5.20247C103.056 3.94193 103.914 2.54205 104.859 1.00285H120L108.289 20.1082C107.926 20.6755 107.722 21.3292 107.697 22.0019C107.736 22.7081 107.983 23.3871 108.406 23.9538H108.408Z" fill="white"/>
<path d="M31.8273 61.1853H24.4467L8.40632 79.6661H6.20201V61.1853H0.00231378V103.107H6.20201V84.1535H6.40959L23.8562 103.166L32.2996 103.107L12.2825 82.3231L31.8273 61.1853Z" fill="white"/>
<path d="M49.3625 72.7875C48.2582 73.0835 47.2037 73.5411 46.2332 74.1455C45.226 74.7742 44.2947 75.5171 43.4581 76.3597C43.3184 76.4984 43.1836 76.6549 43.0449 76.8015V72.4037L37.0222 73.2894V103.107H43.0449V80.7998C43.5025 80.4849 43.9639 80.1897 44.4323 79.9319C45.0232 79.6064 45.6351 79.3204 46.2638 79.0757C46.8726 78.8395 47.4921 78.6329 48.1226 78.4557C48.7707 78.2755 49.4321 78.1472 50.1006 78.0719C50.8161 77.9924 51.5369 77.9727 52.2556 78.0129L52.9644 72.4627C51.7542 72.3758 50.5377 72.4855 49.3625 72.7875Z" fill="white"/>
<path d="M58.4537 103.107H64.4763V72.4037L58.4537 73.2894V103.107Z" fill="white"/>
<path d="M59.5173 67.0897C60.1479 67.4442 60.8603 67.6274 61.5837 67.6211C62.2978 67.6298 63.0011 67.4462 63.6198 67.0897C64.2276 66.7384 64.728 66.228 65.0673 65.6136C65.4216 64.9828 65.6048 64.2704 65.5988 63.547C65.6071 62.8327 65.4236 62.1292 65.0673 61.51C64.7166 60.9041 64.2188 60.3964 63.6198 60.0339C63.0073 59.6593 62.3016 59.4649 61.5837 59.473C60.8565 59.4674 60.1419 59.6614 59.5173 60.0339C58.9018 60.3945 58.3849 60.9015 58.0126 61.51C57.6374 62.1226 57.4429 62.8287 57.4516 63.547C57.4453 64.2743 57.6394 64.9893 58.0126 65.6136C58.3735 66.231 58.893 66.7407 59.5173 67.0897Z" fill="white"/>
<path d="M89.0401 77.9538C90.0036 77.9315 90.9633 78.0814 91.8741 78.3966C92.6256 78.6673 93.2961 79.1244 93.8226 79.7252C94.3647 80.3764 94.7488 81.1443 94.9445 81.9688C95.1967 83.0124 95.3156 84.0838 95.2987 85.1572V103.107H101.321V83.9173C101.4 81.6789 101.018 79.4482 100.2 77.3634C99.5329 75.7622 98.3475 74.4314 96.8339 73.5846C95.0797 72.6985 93.1295 72.2719 91.1656 72.3446C89.4518 72.3479 87.7489 72.6168 86.1174 73.1417C84.4361 73.6773 82.8366 74.4423 81.3643 75.4149C80.7945 75.7899 80.2465 76.2022 79.7111 76.6253V72.4037L73.6885 73.2894V103.107H79.7111V80.6817C80.2942 80.3403 80.8954 80.0308 81.5121 79.7546C82.3413 79.3871 83.1885 79.0619 84.0508 78.7804C84.88 78.509 85.7288 78.3017 86.5898 78.1605C87.3997 78.0257 88.2191 77.9566 89.0401 77.9538Z" fill="white"/>
<path d="M132.443 114.473C134.594 113.47 134.025 111.845 135.241 109.808C136.429 107.714 137.031 105.337 136.983 102.93V72.3447L131.208 73.8306C130.541 73.5484 129.857 73.3084 129.16 73.1122C128.258 72.8653 127.341 72.678 126.414 72.5513C125.357 72.4088 124.292 72.3397 123.226 72.3447C121.299 72.3364 119.391 72.718 117.617 73.4665C115.838 74.2196 114.223 75.3127 112.863 76.6844C111.414 78.1637 110.297 79.9351 109.586 81.8803C108.763 84.1602 108.362 86.5714 108.406 88.9951C108.341 91.6615 108.854 94.3103 109.91 96.7595C110.836 98.854 112.369 100.623 114.31 101.837C116.434 103.09 118.871 103.715 121.336 103.638C123.502 103.63 125.646 103.209 127.654 102.398C128.853 101.909 129.984 101.266 131.019 100.486V102.103C131.043 103.433 130.854 104.759 130.458 106.029C130.118 107.095 129.531 108.066 128.746 108.864C127.9 109.676 126.865 110.265 125.734 110.576C124.264 110.98 122.743 111.169 121.218 111.137C120.005 111.135 118.793 111.066 117.587 110.93C116.321 110.787 115.068 110.55 113.838 110.222C112.57 109.884 111.327 109.46 110.117 108.952L113.135 114.148C114.22 114.589 115.335 114.954 116.472 115.24C117.666 115.542 118.879 115.769 120.102 115.919C121.395 116.078 122.696 116.157 123.999 116.156C126.905 116.246 129.794 115.671 132.443 114.473ZM130.251 96.7595C129.52 97.1844 128.761 97.5592 127.979 97.8813C127.289 98.1644 126.578 98.3915 125.852 98.5603C125.145 98.7197 124.423 98.799 123.698 98.7965C121.925 98.8608 120.165 98.4641 118.591 97.6451C117.218 96.8624 116.155 95.6328 115.579 94.1615C114.868 92.2463 114.537 90.2106 114.605 88.1685C114.579 86.5389 114.807 84.9152 115.283 83.3564C115.67 82.0753 116.336 80.8957 117.233 79.9023C118.106 78.9788 119.175 78.2625 120.361 77.8062C121.709 77.295 123.141 77.0446 124.583 77.0682C125.513 77.067 126.442 77.146 127.359 77.3044C128.298 77.47 129.225 77.6968 130.134 77.9834C130.423 78.0739 130.724 78.1939 131.019 78.3042V96.3068C130.76 96.4603 130.497 96.6197 130.251 96.7595Z" fill="white"/>
<path d="M152.156 88.6409H152.255L164.319 103.107H172.112L157.79 86.9679L171.817 72.9941H164.437L154.334 84.0974H152.156V58.5312L146.134 59.4169V103.11H152.156V88.6409Z" fill="white"/>
<path d="M194.028 99.2718C194.143 99.8829 194.359 100.471 194.667 101.011C195.194 101.914 196.003 102.62 196.97 103.018C198.039 103.448 199.184 103.658 200.336 103.638C200.69 103.638 201.034 103.628 201.369 103.609C201.697 103.589 202.023 103.539 202.343 103.461C202.658 103.381 202.943 103.313 203.199 103.254C203.431 103.202 203.658 103.133 203.879 103.048L204.528 99.0917C204.202 99.2032 203.865 99.2823 203.524 99.3279C203.25 99.3645 202.974 99.3842 202.697 99.3869C202.266 99.4264 201.831 99.3612 201.43 99.1967C201.029 99.0323 200.674 98.7734 200.395 98.4422C199.847 97.4961 199.62 96.3986 199.745 95.3128L199.863 83.1497C199.876 81.8746 199.717 80.6036 199.391 79.3709C199.104 78.2901 198.624 77.27 197.975 76.3597C197.318 75.4698 196.483 74.7259 195.524 74.175C194.409 73.5421 193.204 73.0841 191.951 72.817C190.419 72.4859 188.854 72.3275 187.287 72.3446C186.043 72.3441 184.801 72.423 183.567 72.5808C182.401 72.7275 181.247 72.9543 180.113 73.2598C179.061 73.5454 178.026 73.8903 177.013 74.2931L176.305 79.3119C177.289 78.9576 178.224 78.6624 179.11 78.4262C179.997 78.19 180.852 77.9932 181.678 77.8358C182.488 77.681 183.306 77.5726 184.128 77.511C184.935 77.452 185.732 77.4224 186.519 77.4224C187.723 77.3966 188.925 77.5357 190.091 77.8358C190.943 78.0484 191.725 78.4752 192.365 79.0756C192.934 79.6599 193.341 80.3823 193.546 81.1717C193.797 82.1453 193.915 83.1482 193.899 84.1535L193.892 85.6345L186.991 86.1019C184.63 86.1678 182.304 86.689 180.141 87.6371C178.523 88.3452 177.125 89.4774 176.097 90.9141C175.224 92.1924 174.761 93.7059 174.768 95.2538C174.758 96.7061 175.113 98.1378 175.802 99.4164C176.524 100.73 177.611 101.806 178.931 102.516C180.542 103.354 182.342 103.761 184.157 103.697C185.857 103.736 187.549 103.456 189.146 102.871C190.526 102.33 191.789 101.528 192.865 100.509C193.274 100.117 193.662 99.7043 194.028 99.2718ZM188.498 98.7965C187.671 98.9558 186.83 99.0349 185.988 99.0326C185.026 99.06 184.069 98.8788 183.183 98.5013C182.463 98.1885 181.855 97.6632 181.441 96.9956C181.032 96.2879 180.828 95.4805 180.851 94.6634C180.794 93.679 181.064 92.7034 181.618 91.8883C182.261 91.138 183.132 90.6194 184.098 90.4122C185.607 90.0567 187.156 89.8979 188.705 89.9398H193.874L193.848 95.8C193.547 96.1378 193.218 96.4488 192.863 96.7299C192.223 97.2358 191.531 97.6713 190.797 98.0289C190.067 98.3835 189.294 98.6416 188.498 98.7965Z" fill="white"/>
<path d="M229.711 98.8585C230.387 97.6091 230.722 96.2042 230.684 94.7844C230.709 93.7483 230.539 92.7168 230.182 91.7436C229.864 90.9242 229.394 90.1728 228.795 89.5295C228.19 88.8887 227.494 88.3414 226.728 87.9057C225.936 87.4519 225.106 87.0668 224.248 86.7544C223.618 86.5576 222.999 86.3509 222.389 86.1344C221.778 85.9179 221.168 85.7211 220.558 85.5439C219.948 85.3668 219.357 85.1799 218.787 84.9831C218.252 84.8009 217.729 84.5839 217.222 84.3336C216.737 84.0758 216.273 83.7797 215.834 83.4479C215.43 83.1431 215.089 82.762 214.831 82.3261C214.571 81.8781 214.438 81.3678 214.447 80.85C214.431 80.2807 214.574 79.7182 214.861 79.2262C215.169 78.7428 215.596 78.3464 216.1 78.0749C216.718 77.7358 217.386 77.4966 218.078 77.3663C218.944 77.2002 219.824 77.1211 220.706 77.1301C221.139 77.1301 221.611 77.1498 222.124 77.1892C222.636 77.2286 223.197 77.2975 223.806 77.3959C224.415 77.4943 225.025 77.6222 225.636 77.7797C226.247 77.9371 226.867 78.1142 227.497 78.311C228.08 78.4908 228.652 78.7078 229.208 78.9606L229.622 74.1779C228.874 73.863 228.136 73.5875 227.408 73.3514C226.681 73.1159 225.942 72.9188 225.194 72.7609C224.463 72.6061 223.724 72.4977 222.98 72.4362C222.25 72.3771 221.532 72.3476 220.824 72.3476C219.193 72.331 217.566 72.5194 215.982 72.9085C214.628 73.238 213.339 73.7972 212.174 74.5617C211.117 75.2612 210.254 76.2156 209.664 77.3368C209.048 78.5729 208.744 79.9414 208.779 81.3223C208.76 82.3169 208.92 83.3068 209.251 84.245C209.532 85.032 209.952 85.7621 210.491 86.4001C211.016 87.0024 211.622 87.5289 212.292 87.9648C212.989 88.422 213.731 88.8077 214.506 89.1161C214.939 89.2736 215.392 89.4311 215.864 89.5885C216.337 89.746 216.798 89.8936 217.251 90.0314C217.705 90.1691 218.147 90.3069 218.58 90.4447C219.013 90.5824 219.436 90.7202 219.85 90.858C220.263 90.9957 220.666 91.1237 221.06 91.2418C221.588 91.4287 222.101 91.6557 222.595 91.9208C223.029 92.1502 223.435 92.4274 223.806 92.7474C224.133 93.0332 224.394 93.3856 224.573 93.7807C224.753 94.1897 224.844 94.6326 224.839 95.0796C224.86 95.5163 224.783 95.9522 224.615 96.3556C224.446 96.759 224.19 97.1199 223.865 97.4119C223.134 98.0224 222.26 98.4387 221.326 98.6223C220.23 98.8641 219.111 98.9829 217.989 98.9765C217.288 98.9717 216.588 98.9223 215.894 98.8289C215.126 98.7318 214.319 98.5941 213.474 98.4156C212.628 98.2372 211.762 98.0207 210.875 97.7662C209.989 97.5103 209.094 97.2249 208.188 96.91L208.425 101.929C209.448 102.283 210.383 102.568 211.229 102.785C212.075 103.001 212.882 103.188 213.65 103.346C214.39 103.499 215.139 103.597 215.894 103.641C216.622 103.68 217.36 103.699 218.108 103.7C219.755 103.708 221.397 103.54 223.008 103.198C224.426 102.91 225.784 102.381 227.023 101.634C228.14 100.951 229.065 99.9962 229.711 98.8585Z" fill="white"/>
<path d="M253.446 98.3536L252.442 98.5308C252.12 98.5882 251.794 98.6277 251.468 98.6488C251.153 98.6695 250.857 98.6784 250.582 98.6784C249.677 98.7033 248.779 98.5215 247.955 98.147C247.246 97.8116 246.658 97.2651 246.272 96.5823C245.858 95.8123 245.654 94.9468 245.681 94.073V77.7177H254.007L254.656 72.9941H245.681V63.6651L239.659 65.7907V72.9941H235.112L234.463 77.7177H239.659V95.3128C239.633 96.4864 239.812 97.6555 240.19 98.7669C240.494 99.6461 240.965 100.458 241.578 101.158C242.14 101.782 242.823 102.284 243.585 102.634C244.366 102.993 245.189 103.251 246.035 103.402C246.872 103.556 247.722 103.635 248.574 103.638C249.203 103.638 249.824 103.618 250.435 103.579C251.044 103.539 251.606 103.481 252.117 103.402C252.629 103.323 253.111 103.234 253.564 103.136C254.016 103.039 254.399 102.95 254.715 102.871L255.069 97.9698C254.84 98.0587 254.603 98.1278 254.361 98.1765C254.084 98.2356 253.78 98.2946 253.446 98.3536Z" fill="white"/>
<path d="M266.496 60.0339C265.883 59.6593 265.178 59.4649 264.46 59.473C263.733 59.4671 263.018 59.6611 262.393 60.0339C261.777 60.3944 261.26 60.9014 260.888 61.51C260.513 62.1226 260.318 62.8288 260.327 63.547C260.321 64.2743 260.515 64.9892 260.888 65.6136C261.249 66.2312 261.769 66.7409 262.393 67.0897C263.024 67.4444 263.737 67.6277 264.46 67.6211C265.174 67.6298 265.877 67.4462 266.496 67.0897C267.104 66.7386 267.605 66.2282 267.944 65.6136C268.298 64.983 268.481 64.2705 268.475 63.547C268.484 62.8327 268.3 62.129 267.944 61.51C267.593 60.9039 267.095 60.3962 266.496 60.0339Z" fill="white"/>
<path d="M261.327 103.107H267.35V72.4037L261.327 73.2894V103.107Z" fill="white"/>
<path d="M299.706 73.5846C297.953 72.6984 296.003 72.2718 294.039 72.3446C292.325 72.3479 290.622 72.6168 288.99 73.1417C287.309 73.6774 285.71 74.4423 284.238 75.4149C283.667 75.7899 283.119 76.2022 282.584 76.6253V72.4037L276.561 73.2894V103.107H282.584V80.6817C283.167 80.3403 283.768 80.0308 284.384 79.7547C285.214 79.3873 286.061 79.0621 286.923 78.7804C287.752 78.5091 288.601 78.3018 289.462 78.1605C290.272 78.0257 291.092 77.9566 291.914 77.9539C292.877 77.9314 293.836 78.0814 294.747 78.3966C295.498 78.6673 296.169 79.1245 296.695 79.7252C297.237 80.3766 297.621 81.1444 297.818 81.9688C298.069 83.0125 298.188 84.0838 298.171 85.1573V103.107H304.194V83.9173C304.272 81.6789 303.891 79.4482 303.072 77.3634C302.406 75.762 301.22 74.4311 299.706 73.5846Z" fill="white"/>
<path d="M332.035 73.1122C331.133 72.8652 330.216 72.6779 329.289 72.5513C328.233 72.4088 327.167 72.3397 326.101 72.3447C324.175 72.3362 322.267 72.7178 320.492 73.4665C318.713 74.2192 317.098 75.3122 315.739 76.6844C314.289 78.1636 313.172 79.935 312.461 81.8803C311.637 84.1603 311.237 86.5714 311.28 88.9951C311.215 91.6616 311.729 94.3105 312.786 96.7595C313.711 98.8541 315.243 100.623 317.184 101.837C319.309 103.09 321.745 103.715 324.211 103.638C326.376 103.63 328.521 103.21 330.528 102.398C331.728 101.909 332.859 101.266 333.894 100.486V102.103C333.918 103.433 333.729 104.759 333.333 106.029C332.993 107.095 332.406 108.066 331.621 108.864C330.775 109.676 329.74 110.264 328.609 110.576C327.139 110.98 325.617 111.169 324.093 111.137C322.879 111.135 321.667 111.066 320.461 110.93C319.196 110.787 317.943 110.55 316.712 110.222C315.444 109.884 314.201 109.46 312.991 108.952L313.642 114.148C314.727 114.588 315.842 114.953 316.978 115.24C318.173 115.542 319.385 115.769 320.609 115.919C321.902 116.078 323.203 116.157 324.506 116.156C327.412 116.246 330.3 115.671 332.949 114.473C335.1 113.47 336.899 111.845 338.116 109.808C339.304 107.714 339.906 105.337 339.857 102.93V72.3447L334.083 73.8306C333.416 73.5486 332.732 73.3086 332.035 73.1122ZM333.126 96.7595C332.395 97.1846 331.636 97.5594 330.854 97.8813C330.165 98.1644 329.454 98.3915 328.728 98.5603C328.021 98.7197 327.298 98.799 326.573 98.7965C324.8 98.8607 323.04 98.464 321.466 97.6451C320.094 96.8624 319.031 95.6328 318.455 94.1615C317.743 92.2463 317.412 90.2106 317.481 88.1685C317.454 86.539 317.683 84.9153 318.159 83.3564C318.546 82.0754 319.212 80.8959 320.108 79.9023C320.981 78.9785 322.051 78.2623 323.237 77.8062C324.585 77.2949 326.018 77.0444 327.459 77.0682C328.389 77.067 329.318 77.146 330.234 77.3044C331.173 77.47 332.1 77.6968 333.009 77.9834C333.299 78.0739 333.6 78.1939 333.895 78.3042V96.3068C333.633 96.4603 333.367 96.6197 333.123 96.7595H333.126Z" fill="white"/>
<path d="M367.664 89.5265C367.06 88.8857 366.363 88.3385 365.597 87.9028C364.805 87.4488 363.975 87.0636 363.117 86.7515C362.488 86.5546 361.868 86.348 361.258 86.1315C360.647 85.915 360.037 85.7181 359.427 85.541C358.817 85.3639 358.227 85.1769 357.656 84.9801C357.121 84.7979 356.598 84.581 356.091 84.3306C355.606 84.0729 355.142 83.7767 354.704 83.4449C354.299 83.1405 353.958 82.7593 353.701 82.3231C353.44 81.8754 353.307 81.365 353.316 80.847C353.3 80.2778 353.444 79.7154 353.731 79.2233C354.038 78.7396 354.465 78.3431 354.97 78.0719C355.588 77.7327 356.255 77.4935 356.947 77.3634C357.813 77.1974 358.693 77.1182 359.575 77.1272C360.008 77.1272 360.48 77.1469 360.993 77.1862C361.505 77.2256 362.066 77.2945 362.676 77.3929C363.285 77.4913 363.895 77.6193 364.505 77.7767C365.115 77.9342 365.735 78.1113 366.366 78.3081C366.95 78.4879 367.521 78.7048 368.077 78.9576L368.492 74.175C367.742 73.8601 367.004 73.5846 366.277 73.3484C365.55 73.1128 364.811 72.9157 364.063 72.7579C363.333 72.6032 362.593 72.4947 361.849 72.4332C361.12 72.3741 360.401 72.3446 359.693 72.3446C358.062 72.328 356.436 72.5165 354.852 72.9056C353.497 73.2348 352.209 73.794 351.043 74.5588C349.986 75.2579 349.124 76.2124 348.535 77.3339C347.917 78.5698 347.613 79.9384 347.649 81.3194C347.63 82.3141 347.791 83.304 348.122 84.242C348.402 85.0291 348.822 85.7592 349.361 86.3971C349.886 86.9995 350.493 87.5261 351.163 87.9618C351.86 88.4194 352.602 88.8052 353.377 89.1132C353.809 89.2706 354.261 89.4281 354.734 89.5856C355.207 89.743 355.669 89.8906 356.123 90.0284C356.576 90.1661 357.017 90.3039 357.45 90.4417C357.883 90.5795 358.306 90.7172 358.72 90.855C359.133 90.9928 359.536 91.1207 359.931 91.2388C360.459 91.4259 360.972 91.6529 361.465 91.9178C361.899 92.1473 362.305 92.4245 362.677 92.7444C363.003 93.0299 363.265 93.3823 363.443 93.7777C363.624 94.1865 363.715 94.6295 363.71 95.0767C363.731 95.5134 363.654 95.9493 363.485 96.3528C363.317 96.7562 363.06 97.1169 362.735 97.4089C362.004 98.0194 361.13 98.4357 360.196 98.6194C359.101 98.8611 357.982 98.98 356.861 98.9736C356.16 98.9688 355.459 98.9194 354.765 98.826C353.996 98.7289 353.189 98.5911 352.344 98.4127C351.499 98.2342 350.633 98.0178 349.745 97.7632C348.86 97.5074 347.965 97.222 347.059 96.9071L347.296 101.926C348.318 102.28 349.252 102.565 350.099 102.782C350.946 102.998 351.753 103.185 352.52 103.343C353.26 103.496 354.01 103.594 354.765 103.638C355.492 103.677 356.23 103.696 356.979 103.697C358.625 103.705 360.268 103.537 361.878 103.195C363.296 102.907 364.654 102.378 365.894 101.631C367.01 100.949 367.935 99.9935 368.581 98.8555C369.257 97.6063 369.592 96.2013 369.554 94.7814C369.579 93.7454 369.409 92.7139 369.052 91.7407C368.735 90.921 368.263 90.1695 367.664 89.5265Z" fill="white"/>
<path d="M375.812 83.9173L375.399 88.7589H392.107L392.521 83.9173H375.812Z" fill="white"/>
<path d="M23.361 133.278C20.901 131.971 18.1453 131.32 15.3604 131.389C12.55 131.325 9.77164 131.996 7.3009 133.337C5.01968 134.614 3.15437 136.52 1.9279 138.828C0.594426 141.418 -0.066002 144.301 0.0078125 147.213C-0.0671758 150.102 0.550385 152.966 1.80874 155.568C2.93989 157.838 4.74409 159.704 6.97511 160.911C9.3769 162.169 12.0581 162.799 14.7689 162.741C17.607 162.798 20.4124 162.127 22.918 160.793C25.2568 159.517 27.1748 157.588 28.4387 155.243C29.8096 152.623 30.4904 149.697 30.4167 146.74C30.4841 143.925 29.8549 141.136 28.5853 138.622C27.4093 136.364 25.5916 134.505 23.361 133.278ZM23.0066 153.058C22.3428 154.592 21.2182 155.882 19.7887 156.748C18.3522 157.571 16.72 157.989 15.0651 157.959C13.4427 158 11.8433 157.569 10.4607 156.719C9.09167 155.81 8.02302 154.515 7.38955 152.999C6.58673 151.054 6.20458 148.962 6.26853 146.858C6.19894 144.812 6.58181 142.776 7.38955 140.895C8.05177 139.416 9.15513 138.179 10.5484 137.352C12.0384 136.532 13.7202 136.124 15.4204 136.171C16.7472 136.138 18.0656 136.39 19.2868 136.91C20.357 137.392 21.2907 138.132 22.0038 139.065C22.7646 140.077 23.3164 141.232 23.6267 142.46C23.9961 143.896 24.1746 145.375 24.1579 146.858C24.2267 148.984 23.8339 151.099 23.0066 153.058Z" fill="white"/>
<path d="M50.0769 131.832C48.9729 132.128 47.9187 132.585 46.9486 133.19C45.941 133.818 45.0094 134.561 44.1725 135.404C44.0337 135.543 43.898 135.699 43.7593 135.846V131.448L37.7366 132.334V162.151H43.7593V139.844C44.2073 139.532 44.6706 139.242 45.1477 138.976C45.7384 138.651 46.3499 138.365 46.9781 138.12C47.587 137.884 48.2068 137.677 48.8379 137.5C49.4857 137.32 50.1468 137.191 50.815 137.116C51.5308 137.037 52.2519 137.017 52.971 137.057L53.6785 131.507C52.4683 131.42 51.2521 131.53 50.0769 131.832Z" fill="white"/>
<path d="M84.8543 132.038H77.4738L67.3702 143.142H65.1924V117.576L59.17 118.461V162.154H65.1924V147.688H65.2909L77.3546 162.154H85.1484L70.8263 146.015L84.8543 132.038Z" fill="white"/>
<path d="M113.018 135.847C111.885 134.378 110.389 133.228 108.678 132.511C106.778 131.734 104.738 131.352 102.685 131.389C100.617 131.354 98.5648 131.756 96.663 132.57C94.933 133.327 93.3908 134.456 92.146 135.876C90.8643 137.369 89.8996 139.106 89.3108 140.984C88.638 143.133 88.3095 145.374 88.3375 147.626C88.254 150.471 88.8511 153.295 90.0793 155.863C91.201 158.088 93.0137 159.891 95.2457 161C97.864 162.233 100.737 162.83 103.63 162.741C105.022 162.753 106.413 162.665 107.793 162.476C108.945 162.31 110.082 162.043 111.188 161.679C112.285 161.31 113.351 160.856 114.376 160.321L114.789 155.774C114.041 156.05 113.283 156.325 112.515 156.601C111.748 156.876 110.951 157.122 110.125 157.339C109.291 157.557 108.443 157.715 107.586 157.811C106.723 157.909 105.856 157.959 104.988 157.959C103.438 157.984 101.89 157.815 100.382 157.457C99.1648 157.166 98.0394 156.577 97.1057 155.745C96.1623 154.846 95.4703 153.716 95.0982 152.468C94.7128 151.203 94.4964 149.892 94.4546 148.571H115.793C116.083 146.129 115.973 143.656 115.467 141.249C115.052 139.292 114.217 137.449 113.018 135.847ZM98.1391 137.264C99.5245 136.423 101.124 136.002 102.744 136.053C104.366 135.972 105.968 136.44 107.291 137.382C108.467 138.32 109.306 139.615 109.682 141.072C109.977 142.149 110.121 143.262 110.112 144.379H94.5845C94.6937 143.201 94.9454 142.041 95.3344 140.925C95.8382 139.427 96.8247 138.14 98.1391 137.264Z" fill="white"/>
<path d="M141.831 148.571C141.227 147.93 140.53 147.383 139.765 146.947C138.972 146.493 138.142 146.108 137.284 145.796C136.655 145.599 136.036 145.392 135.425 145.176C134.814 144.959 134.204 144.762 133.594 144.585C132.984 144.408 132.393 144.221 131.822 144.024C131.287 143.842 130.765 143.625 130.258 143.375C129.772 143.117 129.308 142.821 128.87 142.489C128.465 142.185 128.125 141.803 127.867 141.367C127.606 140.92 127.473 140.409 127.482 139.891C127.466 139.322 127.609 138.76 127.896 138.268C128.204 137.784 128.631 137.388 129.136 137.116C129.754 136.777 130.421 136.538 131.114 136.408C131.98 136.242 132.86 136.162 133.741 136.171C134.173 136.171 134.647 136.191 135.158 136.231C135.67 136.27 136.23 136.339 136.841 136.437C137.452 136.536 138.061 136.664 138.672 136.821C139.283 136.978 139.902 137.156 140.531 137.352C141.115 137.532 141.687 137.749 142.243 138.002L142.657 133.219C141.909 132.904 141.171 132.629 140.443 132.393C139.716 132.157 138.977 131.96 138.229 131.802C137.498 131.647 136.759 131.539 136.014 131.477C135.286 131.418 134.567 131.389 133.859 131.389C132.228 131.372 130.602 131.561 129.018 131.95C127.663 132.279 126.375 132.839 125.209 133.603C124.153 134.302 123.29 135.257 122.7 136.378C122.083 137.614 121.779 138.983 121.814 140.364C121.796 141.358 121.956 142.348 122.287 143.286C122.567 144.073 122.987 144.804 123.527 145.441C124.052 146.044 124.658 146.57 125.328 147.006C126.025 147.464 126.767 147.849 127.542 148.157C127.973 148.315 128.426 148.472 128.9 148.63C129.373 148.787 129.836 148.935 130.287 149.073C130.739 149.21 131.181 149.348 131.616 149.486C132.05 149.624 132.473 149.762 132.885 149.899C133.299 150.037 133.702 150.165 134.096 150.283C134.624 150.47 135.137 150.697 135.631 150.962C136.064 151.192 136.47 151.469 136.841 151.789C137.168 152.074 137.43 152.427 137.609 152.822C137.789 153.231 137.88 153.674 137.875 154.121C137.895 154.558 137.819 154.993 137.65 155.397C137.482 155.8 137.226 156.161 136.9 156.453C136.169 157.064 135.296 157.48 134.361 157.664C133.266 157.905 132.147 158.024 131.025 158.018C130.324 158.013 129.624 157.964 128.929 157.87C128.162 157.773 127.355 157.635 126.508 157.457C125.662 157.279 124.796 157.062 123.911 156.807C123.025 156.552 122.129 156.266 121.224 155.951L121.46 160.97C122.482 161.324 123.417 161.61 124.265 161.826C125.112 162.043 125.919 162.23 126.686 162.387C127.425 162.54 128.175 162.639 128.929 162.682C129.657 162.721 130.395 162.741 131.143 162.741C132.79 162.75 134.433 162.581 136.044 162.24C137.462 161.951 138.82 161.422 140.059 160.675C141.176 159.993 142.1 159.038 142.746 157.9C143.421 156.65 143.757 155.246 143.719 153.826C143.744 152.79 143.574 151.758 143.218 150.785C142.901 149.966 142.43 149.214 141.831 148.571Z" fill="white"/>
<path d="M166.482 157.398L165.479 157.575C165.157 157.632 164.831 157.672 164.505 157.693C164.189 157.714 163.893 157.723 163.619 157.723C162.714 157.747 161.816 157.566 160.992 157.191C160.283 156.855 159.695 156.309 159.309 155.627C158.895 154.856 158.692 153.991 158.718 153.117V136.762H167.043L167.693 132.038H158.718V122.709L152.696 124.835V132.038H148.148L147.499 136.762H152.696V154.357C152.669 155.531 152.849 156.7 153.227 157.811C153.531 158.69 154.002 159.503 154.615 160.202C155.176 160.826 155.86 161.328 156.622 161.679C157.403 162.037 158.226 162.295 159.072 162.446C159.909 162.601 160.759 162.68 161.61 162.682C162.24 162.682 162.861 162.663 163.471 162.623C164.082 162.584 164.643 162.525 165.154 162.446C165.665 162.366 166.148 162.278 166.6 162.18C167.051 162.083 167.436 161.995 167.751 161.915L168.106 157.014C167.876 157.103 167.639 157.172 167.398 157.221C167.122 157.282 166.816 157.341 166.482 157.398Z" fill="white"/>
<path d="M186.704 131.832C185.6 132.128 184.545 132.585 183.575 133.19C182.567 133.818 181.636 134.561 180.8 135.404C180.661 135.543 180.525 135.699 180.386 135.846V131.448L174.364 132.334V162.151H180.386V139.844C180.844 139.529 181.305 139.234 181.774 138.976C182.365 138.651 182.977 138.365 183.605 138.12C184.214 137.884 184.834 137.677 185.464 137.5C186.112 137.32 186.774 137.191 187.442 137.116C188.158 137.037 188.879 137.017 189.598 137.057L190.306 131.507C189.096 131.42 187.879 131.53 186.704 131.832Z" fill="white"/>
<path d="M218.647 135.847C217.514 134.378 216.018 133.228 214.307 132.511C212.406 131.734 210.368 131.353 208.314 131.389C206.246 131.354 204.194 131.756 202.292 132.57C200.562 133.327 199.02 134.456 197.775 135.876C196.492 137.368 195.528 139.106 194.94 140.984C194.267 143.133 193.939 145.374 193.967 147.626C193.883 150.471 194.48 153.295 195.708 155.863C196.83 158.088 198.643 159.891 200.875 161C203.493 162.233 206.366 162.83 209.259 162.741C210.651 162.753 212.042 162.665 213.422 162.476C214.575 162.31 215.711 162.043 216.817 161.679C217.914 161.31 218.98 160.856 220.005 160.321L220.418 155.774C219.67 156.05 218.912 156.325 218.144 156.601C217.377 156.876 216.58 157.122 215.754 157.339C214.92 157.557 214.072 157.715 213.215 157.811C212.353 157.909 211.485 157.959 210.617 157.959C209.067 157.984 207.519 157.815 206.011 157.457C204.794 157.166 203.668 156.577 202.735 155.745C201.791 154.846 201.099 153.716 200.727 152.468C200.342 151.203 200.125 149.892 200.084 148.571H221.421C221.712 146.129 221.602 143.656 221.096 141.249C220.681 139.292 219.846 137.449 218.647 135.847ZM203.768 137.264C205.153 136.423 206.753 136.002 208.373 136.053C209.995 135.972 211.597 136.44 212.92 137.382C214.096 138.32 214.935 139.615 215.31 141.072C215.606 142.149 215.751 143.262 215.741 144.379H200.213C200.323 143.201 200.574 142.042 200.962 140.925C201.467 139.428 202.454 138.14 203.768 137.264Z" fill="white"/>
<path d="M244.419 157.398L243.415 157.575C243.092 157.632 242.767 157.672 242.441 157.693C242.126 157.714 241.829 157.723 241.555 157.723C240.65 157.747 239.752 157.566 238.928 157.191C238.219 156.856 237.632 156.309 237.246 155.627C236.832 154.857 236.628 153.991 236.655 153.117V136.762H244.98L245.63 132.038H236.655V122.709L230.633 124.835V132.038H226.086L225.437 136.762H230.633V154.357C230.606 155.531 230.786 156.7 231.164 157.811C231.468 158.69 231.939 159.503 232.551 160.202C233.113 160.826 233.796 161.328 234.559 161.679C235.34 162.037 236.163 162.295 237.008 162.446C237.846 162.601 238.695 162.68 239.547 162.682C240.177 162.682 240.797 162.663 241.408 162.623C242.019 162.584 242.58 162.525 243.091 162.446C243.603 162.367 244.085 162.278 244.537 162.18C244.99 162.083 245.374 161.994 245.689 161.915L246.043 157.014C245.813 157.103 245.576 157.172 245.335 157.221C245.058 157.282 244.752 157.341 244.419 157.398Z" fill="white"/>
</svg>
