<svg xmlns="http://www.w3.org/2000/svg" viewBox="0 0 120 104"><path fill="#fff" d="M0 43V1.004h13.78V43H0ZM32.528 7.688 40.453 43h-15.08L15.908 1.004h8.459a7.965 7.965 0 0 1 5.293 1.922 8.31 8.31 0 0 1 2.867 4.762ZM42.523 43V1.004h13.78V43h-13.78Zm24.189-26.026a8.213 8.213 0 0 1-4.228-1.124 8.336 8.336 0 0 1-3.046-3.046 8.206 8.206 0 0 1-1.125-4.229 8.056 8.056 0 0 1 1.125-4.2 8.437 8.437 0 0 1 3.046-3.016A8.232 8.232 0 0 1 66.712.235a8.083 8.083 0 0 1 4.199 1.124 8.503 8.503 0 0 1 3.016 3.016 8.075 8.075 0 0 1 1.125 4.2 8.226 8.226 0 0 1-1.125 4.23 8.4 8.4 0 0 1-3.016 3.045 8.059 8.059 0 0 1-4.201 1.124h.002ZM77.18 43V1.004h13.781V43H77.181Zm31.227-19.046c.039.04.334.524.887 1.449.553.925 1.272 2.108 2.159 3.549a1143.28 1143.28 0 0 1 5.589 9.168A854.89 854.89 0 0 0 120 43h-15.141c-.947-1.538-1.804-2.928-2.573-4.17a382.214 382.214 0 0 1-2.453-4.022 351.934 351.934 0 0 0-2.574-4.2 213.445 213.445 0 0 1-2.188-3.578 62.753 62.753 0 0 0-1.272-2.07 6.119 6.119 0 0 1-1.005-2.958 5.744 5.744 0 0 1 .946-2.84c.236-.394.67-1.095 1.3-2.1.632-1.006 1.371-2.198 2.219-3.579.847-1.38 1.706-2.79 2.574-4.229.869-1.439 1.686-2.79 2.453-4.052.77-1.26 1.628-2.66 2.573-4.2H120l-11.711 19.106a3.773 3.773 0 0 0-.592 1.894c.039.706.286 1.385.709 1.952h.002ZM28.56 66.441a10.542 10.542 0 0 0-2.755-2.87 13.245 13.245 0 0 0-3.999-1.893A18.98 18.98 0 0 0 16.473 61H0v42h6.222V87.915h10.726c2.42.036 4.81-.555 6.932-1.716a12.813 12.813 0 0 0 4.889-4.793 14.104 14.104 0 0 0 1.807-7.276 17.29 17.29 0 0 0-.473-4.081c-.308-1.28-.83-2.5-1.543-3.608ZM23.05 79.19a6.989 6.989 0 0 1-3.347 2.75 13.826 13.826 0 0 1-5.246.888H6.221V66.146h9.067a11.307 11.307 0 0 1 5.037.975 6.488 6.488 0 0 1 2.932 2.84 9.499 9.499 0 0 1 .979 4.465 8.732 8.732 0 0 1-1.187 4.763ZM42.645 97.91a206.07 206.07 0 0 0 2.922-2.543 81.827 81.827 0 0 0 4.296-4.111 70.578 70.578 0 0 0 4.118-4.613 43.345 43.345 0 0 0 3.467-4.88 25.213 25.213 0 0 0 2.37-5.028c.56-1.618.85-3.316.86-5.028a10.903 10.903 0 0 0-.949-4.642 10.039 10.039 0 0 0-2.785-3.55 12.714 12.714 0 0 0-4.592-2.308 22.71 22.71 0 0 0-6.311-.798 23.357 23.357 0 0 0-4.118.355A21.454 21.454 0 0 0 38.13 61.8a25.582 25.582 0 0 0-3.407 1.566l.77 5.147a15.779 15.779 0 0 1 2.993-1.568 20.899 20.899 0 0 1 3.526-1.065 18.167 18.167 0 0 1 3.733-.383 12.57 12.57 0 0 1 3.881.531 7.056 7.056 0 0 1 2.696 1.538 6.194 6.194 0 0 1 1.57 2.337 8.21 8.21 0 0 1 .504 2.928 13.079 13.079 0 0 1-1.007 4.88 25.968 25.968 0 0 1-2.845 5.147 54.942 54.942 0 0 1-4.325 5.383 94.241 94.241 0 0 1-5.422 5.501 452.67 452.67 0 0 1-6.074 5.59l.77 3.668h25.658l.711-5.088-19.217-.001Z"/></svg>