<svg xmlns="http://www.w3.org/2000/svg" viewBox="0 0 218 48"><path fill="#fff" d="M0 45V3.004h13.78V45H0ZM32.528 9.688 40.453 45h-15.08L15.908 3.004h8.459a7.965 7.965 0 0 1 5.293 1.922 8.31 8.31 0 0 1 2.867 4.762ZM42.523 45V3.004h13.78V45h-13.78Zm24.189-26.026a8.213 8.213 0 0 1-4.228-1.124 8.336 8.336 0 0 1-3.046-3.046 8.206 8.206 0 0 1-1.125-4.229 8.056 8.056 0 0 1 1.125-4.2 8.437 8.437 0 0 1 3.046-3.016 8.232 8.232 0 0 1 4.228-1.124 8.083 8.083 0 0 1 4.199 1.124 8.503 8.503 0 0 1 3.016 3.016 8.075 8.075 0 0 1 1.125 4.2 8.226 8.226 0 0 1-1.125 4.23 8.4 8.4 0 0 1-3.016 3.045 8.059 8.059 0 0 1-4.201 1.124h.002ZM77.18 45V3.004h13.781V45H77.181Zm31.227-19.046c.039.04.334.524.887 1.449.553.925 1.272 2.108 2.159 3.549a1143.28 1143.28 0 0 1 5.589 9.168A854.89 854.89 0 0 0 120 45h-15.141c-.947-1.538-1.804-2.928-2.573-4.17a382.214 382.214 0 0 1-2.453-4.022 351.934 351.934 0 0 0-2.574-4.2 213.445 213.445 0 0 1-2.188-3.578 62.753 62.753 0 0 0-1.272-2.07 6.119 6.119 0 0 1-1.005-2.958 5.744 5.744 0 0 1 .946-2.84c.236-.394.67-1.095 1.3-2.1.632-1.006 1.371-2.198 2.219-3.579a636.03 636.03 0 0 0 2.574-4.229c.869-1.439 1.686-2.79 2.453-4.052.77-1.26 1.628-2.66 2.573-4.2H120l-11.711 19.106a3.773 3.773 0 0 0-.592 1.894c.039.706.286 1.385.709 1.952h.002ZM164.507 8.44a10.581 10.581 0 0 0-2.75-2.869 13.196 13.196 0 0 0-3.992-1.892 18.906 18.906 0 0 0-5.323-.68H136v41.992h6.21V29.91h10.705a13.942 13.942 0 0 0 6.92-1.717 12.8 12.8 0 0 0 4.879-4.79 14.126 14.126 0 0 0 1.804-7.274 17.31 17.31 0 0 0-.473-4.08c-.307-1.281-.827-2.501-1.538-3.61Zm-5.5 12.746a7.004 7.004 0 0 1-3.342 2.75 13.78 13.78 0 0 1-5.234.887h-8.221V8.146h9.049a11.25 11.25 0 0 1 5.027.976 6.483 6.483 0 0 1 2.928 2.839 9.51 9.51 0 0 1 .975 4.465 8.746 8.746 0 0 1-1.182 4.76ZM179.144 4.39c-.848.453-1.676.877-2.483 1.27-.808.395-1.626.79-2.456 1.184a28.62 28.62 0 0 1-2.543 1.064c-.868.316-1.794.631-2.778.947l1.3 5.027a56.317 56.317 0 0 0 3.223-1.065 29.668 29.668 0 0 0 2.78-1.183 43.032 43.032 0 0 0 2.661-1.42l.031-.017v34.796h6.15V3h-3.193c-.947.47-1.844.934-2.692 1.388ZM217.261 29.258a9.307 9.307 0 0 0-1.892-3.194 9.206 9.206 0 0 0-3.105-2.187 14.943 14.943 0 0 0-4.229-1.124v-.178a14.641 14.641 0 0 0 4.85-2.632 12.35 12.35 0 0 0 3.105-3.814 9.84 9.84 0 0 0 1.094-4.554 8.207 8.207 0 0 0-.887-3.875 8.248 8.248 0 0 0-2.603-2.897A12.068 12.068 0 0 0 209.425 3a23.95 23.95 0 0 0-5.589-.591 26.932 26.932 0 0 0-3.696.267c-1.268.174-2.522.43-3.756.769a17.417 17.417 0 0 0-3.43 1.33l.828 4.673c.866-.355 1.704-.66 2.513-.918a24.082 24.082 0 0 1 2.336-.62 23.474 23.474 0 0 1 2.189-.355 18.733 18.733 0 0 1 2.07-.118c1.251-.02 2.5.098 3.726.354a6.9 6.9 0 0 1 2.484 1.036 4.062 4.062 0 0 1 1.39 1.714c.312.78.463 1.615.443 2.455a6.863 6.863 0 0 1-.798 3.313 7.672 7.672 0 0 1-2.248 2.543 11.073 11.073 0 0 1-3.46 1.656 15.682 15.682 0 0 1-4.435.591h-1.124l-.71 4.614h1.893a26.465 26.465 0 0 1 5.204.444c1.285.23 2.517.69 3.638 1.36a5.89 5.89 0 0 1 2.158 2.307 7.126 7.126 0 0 1 .71 3.282 7.848 7.848 0 0 1-.651 3.342 5.7 5.7 0 0 1-1.981 2.305 9.401 9.401 0 0 1-3.371 1.36 22.88 22.88 0 0 1-4.82.444c-.592 0-1.174-.019-1.745-.058a31.83 31.83 0 0 1-1.804-.178 27.611 27.611 0 0 1-1.981-.325 63.116 63.116 0 0 1-2.277-.503l-.769 5.027c.867.157 1.705.305 2.514.443.809.138 1.607.257 2.395.355.789.097 1.557.166 2.307.206.749.04 1.478.06 2.188.06a29.037 29.037 0 0 0 5.618-.503 16.733 16.733 0 0 0 4.525-1.537 11.685 11.685 0 0 0 3.312-2.514 10.05 10.05 0 0 0 2.011-3.4c.469-1.38.699-2.83.68-4.288a12.138 12.138 0 0 0-.651-4.083Z"/></svg>