<svg xmlns="http://www.w3.org/2000/svg" viewBox="0 0 465 84"><path fill="#1767CE" d="M0 0h465v84H0z"/><path fill="#fff" d="M20 63V21.004h13.78V63H20Zm32.528-35.312L60.453 63h-15.08l-9.464-41.996h8.459a7.965 7.965 0 0 1 5.293 1.922 8.31 8.31 0 0 1 2.867 4.762ZM62.523 63V21.004h13.78V63h-13.78Zm24.189-26.026a8.213 8.213 0 0 1-4.228-1.124 8.336 8.336 0 0 1-3.046-3.046 8.206 8.206 0 0 1-1.125-4.229 8.056 8.056 0 0 1 1.125-4.2 8.437 8.437 0 0 1 3.046-3.016 8.233 8.233 0 0 1 4.228-1.124 8.083 8.083 0 0 1 4.199 1.124 8.504 8.504 0 0 1 3.016 3.016 8.075 8.075 0 0 1 1.125 4.2 8.226 8.226 0 0 1-1.125 4.23 8.4 8.4 0 0 1-3.016 3.045 8.059 8.059 0 0 1-4.201 1.124h.002ZM97.18 63V21.004h13.781V63H97.181Zm31.227-19.046c.039.04.334.524.887 1.449.553.925 1.272 2.108 2.159 3.549a1143.28 1143.28 0 0 1 5.589 9.168A854.89 854.89 0 0 0 140 63h-15.141c-.947-1.538-1.804-2.928-2.573-4.17a388.795 388.795 0 0 1-2.453-4.022 355.984 355.984 0 0 0-2.574-4.2 210.645 210.645 0 0 1-2.188-3.578 62.13 62.13 0 0 0-1.272-2.07 6.127 6.127 0 0 1-1.005-2.958 5.745 5.745 0 0 1 .946-2.84c.236-.394.67-1.094 1.301-2.1.631-1.006 1.37-2.198 2.218-3.578.847-1.38 1.706-2.79 2.574-4.23.869-1.439 1.686-2.79 2.453-4.052.77-1.26 1.628-2.66 2.573-4.2H140l-11.711 19.106a3.773 3.773 0 0 0-.592 1.894c.039.706.286 1.385.709 1.952h.002Z"/><path fill="#D9E9FF" d="M156 26.156h13.574v36.869h6.223V26.156h13.516V20.94H156v5.216ZM217.883 36.618a10.753 10.753 0 0 0-4.356-3.35 15.225 15.225 0 0 0-6.017-1.125 14.738 14.738 0 0 0-6.046 1.185 12.919 12.919 0 0 0-4.534 3.32 14.512 14.512 0 0 0-2.846 5.127 21.383 21.383 0 0 0-.977 6.668 17.952 17.952 0 0 0 1.747 8.269 11.585 11.585 0 0 0 5.187 5.157 18.43 18.43 0 0 0 8.418 1.748 28.944 28.944 0 0 0 4.177-.266 19.98 19.98 0 0 0 3.409-.8 22.102 22.102 0 0 0 3.202-1.364l.414-4.564c-.751.277-1.512.553-2.283.83-.77.276-1.57.523-2.4.74-.837.22-1.689.379-2.549.475a23.05 23.05 0 0 1-2.607.148 18.699 18.699 0 0 1-4.624-.504 7.582 7.582 0 0 1-3.289-1.719 7.487 7.487 0 0 1-2.016-3.29 15.051 15.051 0 0 1-.646-3.911h21.421a22.682 22.682 0 0 0-.326-7.35 13.858 13.858 0 0 0-2.459-5.424Zm-14.937 1.422a8.4 8.4 0 0 1 4.623-1.215 7.247 7.247 0 0 1 4.564 1.334 6.966 6.966 0 0 1 2.4 3.705c.296 1.081.441 2.198.433 3.32h-15.589c.11-1.183.363-2.347.753-3.468a7.16 7.16 0 0 1 2.816-3.675ZM247.075 32.913a21.419 21.419 0 0 0-2.757-.563 23.285 23.285 0 0 0-3.201-.207 14.347 14.347 0 0 0-5.631 1.126 14.89 14.89 0 0 0-4.772 3.23 14.632 14.632 0 0 0-3.29 5.216 19.978 19.978 0 0 0-1.185 7.143 18.55 18.55 0 0 0 1.51 7.795 11.498 11.498 0 0 0 4.417 5.097 13.08 13.08 0 0 0 7.053 1.808 17.086 17.086 0 0 0 6.342-1.245 15.001 15.001 0 0 0 3.379-1.92v1.624a12.534 12.534 0 0 1-.562 3.942 7.168 7.168 0 0 1-1.719 2.845 7.085 7.085 0 0 1-3.024 1.719 15.863 15.863 0 0 1-4.535.563 32.997 32.997 0 0 1-3.644-.208 25.852 25.852 0 0 1-3.765-.71 28.83 28.83 0 0 1-3.734-1.275l.652 5.216c1.09.442 2.209.809 3.35 1.097 1.199.302 2.417.53 3.644.681 1.298.16 2.605.239 3.912.237a19.12 19.12 0 0 0 8.477-1.69 11.876 11.876 0 0 0 5.186-4.682 13.442 13.442 0 0 0 1.75-6.905V32.143l-5.798 1.492a17.349 17.349 0 0 0-2.055-.722Zm1.095 23.74a18.63 18.63 0 0 1-2.282 1.126c-.691.284-1.405.512-2.134.681-.709.161-1.435.24-2.162.238a10.308 10.308 0 0 1-5.128-1.156 6.936 6.936 0 0 1-3.022-3.498 15.74 15.74 0 0 1-.978-6.016 15.681 15.681 0 0 1 .68-4.83 9.112 9.112 0 0 1 1.957-3.468 8.547 8.547 0 0 1 3.141-2.104 11.444 11.444 0 0 1 4.238-.741c.934-.001 1.866.078 2.787.237.942.166 1.873.394 2.786.681.29.091.593.212.889.322v18.071c-.261.156-.527.316-.772.457ZM287.351 33.388a11.665 11.665 0 0 0-5.691-1.245 16.66 16.66 0 0 0-5.068.8 19.257 19.257 0 0 0-4.771 2.282 23.63 23.63 0 0 0-1.66 1.215v-4.238l-6.046.89v29.933h6.046V40.512a18.69 18.69 0 0 1 1.808-.93 27.1 27.1 0 0 1 2.549-.978c.832-.272 1.684-.48 2.549-.623a15.281 15.281 0 0 1 2.459-.207 8.127 8.127 0 0 1 2.846.444c.754.272 1.427.731 1.956 1.334a5.519 5.519 0 0 1 1.126 2.252c.252 1.048.372 2.124.355 3.201v18.02h6.046V43.76a16.42 16.42 0 0 0-1.126-6.58 7.77 7.77 0 0 0-3.378-3.793ZM319.535 49.392a8.937 8.937 0 0 0-2.074-1.63 16.091 16.091 0 0 0-2.491-1.156 52.076 52.076 0 0 1-1.867-.623 33.13 33.13 0 0 0-1.837-.593 37.097 37.097 0 0 1-1.778-.563c-.538-.182-1.062-.4-1.571-.652a10.298 10.298 0 0 1-1.393-.889 3.893 3.893 0 0 1-1.007-1.126 2.853 2.853 0 0 1-.386-1.482 3.066 3.066 0 0 1 .416-1.63 3.366 3.366 0 0 1 1.245-1.156 6.68 6.68 0 0 1 1.985-.711 13.28 13.28 0 0 1 2.638-.237 19.135 19.135 0 0 1 3.112.267c.613.097 1.224.228 1.836.385.613.157 1.235.336 1.869.533.586.18 1.159.398 1.717.652l.416-4.8a28.098 28.098 0 0 0-2.222-.83 21.78 21.78 0 0 0-2.223-.593 17.825 17.825 0 0 0-2.223-.326 26.835 26.835 0 0 0-2.164-.09 19.533 19.533 0 0 0-4.86.564c-1.36.33-2.653.891-3.823 1.66a7.543 7.543 0 0 0-2.519 2.785 8.459 8.459 0 0 0-.889 4.001 8.326 8.326 0 0 0 .475 2.934c.281.79.702 1.524 1.244 2.164a8.675 8.675 0 0 0 1.808 1.57c.7.46 1.445.847 2.223 1.157a52.792 52.792 0 0 0 2.756.918 93.377 93.377 0 0 1 2.607.83c.415.139.82.267 1.217.385a11.18 11.18 0 0 1 1.54.682c.435.23.843.509 1.216.83a3.032 3.032 0 0 1 1.037 2.341 2.96 2.96 0 0 1-.979 2.342 5.676 5.676 0 0 1-2.549 1.215 15.127 15.127 0 0 1-3.348.355 16.641 16.641 0 0 1-2.104-.148 29.998 29.998 0 0 1-2.43-.415c-.85-.179-1.719-.396-2.609-.652a51.57 51.57 0 0 1-2.696-.86l.237 5.04c1.026.355 1.964.641 2.815.858.851.218 1.661.406 2.431.564.742.154 1.495.253 2.252.296.73.04 1.471.06 2.223.06 1.653.008 3.302-.161 4.919-.505 1.423-.289 2.786-.82 4.03-1.57a7.728 7.728 0 0 0 2.698-2.786 8.123 8.123 0 0 0 .977-4.09 8.293 8.293 0 0 0-.504-3.053 6.91 6.91 0 0 0-1.393-2.222ZM351.395 34.01a12.735 12.735 0 0 0-7.083-1.867 18.04 18.04 0 0 0-4.386.563c-1.55.393-3.043.981-4.446 1.748-.278.151-.554.32-.83.49v-2.742l-6.046.948v42.322h6.046v-13.27c.041.016.079.035.119.052 1.095.455 2.239.783 3.408.978 1.381.228 2.779.337 4.179.326 2.669.046 5.3-.63 7.617-1.956a14.079 14.079 0 0 0 5.334-5.66 18.916 18.916 0 0 0 1.986-9.04 18.463 18.463 0 0 0-1.51-7.706 11.913 11.913 0 0 0-4.388-5.186Zm-1.57 19.827a8.16 8.16 0 0 1-3.409 3.734 10.949 10.949 0 0 1-5.423 1.245 17.53 17.53 0 0 1-2.697-.207 16.862 16.862 0 0 1-2.757-.682 61.755 61.755 0 0 1-.889-.32V38.9c.079-.037.159-.084.238-.12a35.37 35.37 0 0 1 2.43-1.007 12.19 12.19 0 0 1 4.208-.77c1.828-.061 3.641.336 5.276 1.155a7.117 7.117 0 0 1 3.171 3.527 15.178 15.178 0 0 1 1.038 6.046 14.128 14.128 0 0 1-1.186 6.105ZM377.029 32.585a11.639 11.639 0 0 0-3.14 1.364 15.441 15.441 0 0 0-2.787 2.222c-.139.14-.276.297-.414.444V32.2l-6.047.89v29.933h6.047V40.629c.45-.314.914-.605 1.393-.871a15.386 15.386 0 0 1 1.838-.86 20.435 20.435 0 0 1 1.867-.622 12.689 12.689 0 0 1 4.149-.445l.711-5.572a11.292 11.292 0 0 0-3.617.326ZM411.824 59.29a2.702 2.702 0 0 1-2.311-.948 5.093 5.093 0 0 1-.652-3.142l.118-12.21a14.241 14.241 0 0 0-.474-3.794 9.32 9.32 0 0 0-1.422-3.023 8.026 8.026 0 0 0-2.46-2.193 12.593 12.593 0 0 0-3.586-1.363 21.085 21.085 0 0 0-4.683-.474 29.29 29.29 0 0 0-3.734.237 25.642 25.642 0 0 0-3.468.681 28.885 28.885 0 0 0-3.112 1.038l-.711 5.038a34.863 34.863 0 0 1 5.394-1.482 21.762 21.762 0 0 1 2.46-.326c.809-.06 1.609-.089 2.4-.089a13.289 13.289 0 0 1 3.586.415c.855.214 1.64.642 2.282 1.245a4.696 4.696 0 0 1 1.186 2.104c.253.977.372 1.984.356 2.994l-.007 1.487-6.929.469c-2.369.066-4.704.589-6.875 1.54a9.853 9.853 0 0 0-4.061 3.29 7.658 7.658 0 0 0-1.333 4.357 8.667 8.667 0 0 0 1.037 4.179 7.8 7.8 0 0 0 3.142 3.112 10.562 10.562 0 0 0 5.245 1.185c1.707.04 3.406-.242 5.009-.83a11.555 11.555 0 0 0 3.734-2.37c.41-.394.799-.808 1.166-1.242a5.59 5.59 0 0 0 .642 1.745 4.784 4.784 0 0 0 2.312 2.016 8.653 8.653 0 0 0 3.378.622c.356 0 .702-.01 1.038-.03.33-.02.657-.07.978-.148.316-.08.601-.148.859-.207.232-.052.46-.122.682-.208l.652-3.971a5.21 5.21 0 0 1-1.008.237 6.77 6.77 0 0 1-.83.06Zm-9.869-2.667c-.642.508-1.338.945-2.074 1.304a9.39 9.39 0 0 1-2.311.77c-.83.16-1.674.24-2.52.238a6.694 6.694 0 0 1-2.816-.534 3.87 3.87 0 0 1-1.748-1.511 4.427 4.427 0 0 1-.593-2.342 4.491 4.491 0 0 1 .771-2.786 4.527 4.527 0 0 1 2.489-1.481 18.023 18.023 0 0 1 4.623-.475h5.191l-.027 5.883c-.301.34-.63.652-.985.934ZM392.886 27.4c1.12.53 2.348.794 3.586.771a8.11 8.11 0 0 0 3.675-.8 6.187 6.187 0 0 0 2.52-2.252 6.345 6.345 0 0 0 .918-3.468 6.094 6.094 0 0 0-1.956-4.742 7.202 7.202 0 0 0-5.038-1.778 8.577 8.577 0 0 0-3.586.74 5.905 5.905 0 0 0-2.579 2.224 6.571 6.571 0 0 0-.948 3.615 6.313 6.313 0 0 0 .919 3.498 6.098 6.098 0 0 0 2.489 2.193Zm.949-8.535a3.795 3.795 0 0 1 2.756-.948 3.912 3.912 0 0 1 2.104.504c.518.318.93.782 1.186 1.333a4.47 4.47 0 0 1 .385 1.897 4.19 4.19 0 0 1-.415 1.897 3.088 3.088 0 0 1-1.215 1.304 4.087 4.087 0 0 1-2.104.474 4.467 4.467 0 0 1-2.016-.415 2.692 2.692 0 0 1-1.244-1.245 4.45 4.45 0 0 1-.415-2.015 3.706 3.706 0 0 1 .978-2.786ZM437.548 63.025h7.825l-14.378-16.202 14.081-14.028h-7.409l-10.143 11.143h-2.186V18.273l-6.046.889v43.863h6.046V48.502h.099l12.111 14.523Z"/></svg>