<svg width="803" height="84" viewBox="0 0 803 84" fill="none" xmlns="http://www.w3.org/2000/svg">
<rect width="803" height="84" fill="#01405C"/>
<path d="M20 63V21.0038H33.7802V63H20ZM52.5283 27.6877L60.4532 63H45.3721L35.9092 21.0038H44.3676C46.3072 20.9786 48.1892 21.6624 49.6607 22.9264C51.1347 24.1373 52.1473 25.8184 52.5283 27.6877ZM62.5233 63V21.0038H76.3035V63H62.5233ZM86.7116 36.9743C85.2267 36.9888 83.7656 36.6003 82.4839 35.8504C81.2193 35.1194 80.1688 34.0689 79.438 32.8041C78.6872 31.5222 78.2986 30.0607 78.3134 28.5751C78.2964 27.0986 78.6853 25.6458 79.438 24.3755C80.1766 23.1245 81.2259 22.0853 82.4839 21.3588C83.766 20.6098 85.2269 20.2213 86.7116 20.2348C88.1877 20.2189 89.6399 20.6078 90.9108 21.3588C92.1562 22.0917 93.1943 23.13 93.9271 24.3755C94.6789 25.6462 95.0677 27.0987 95.0517 28.5751C95.0655 30.0605 94.6769 31.5218 93.9271 32.8041C93.202 34.0633 92.1627 35.113 90.9108 35.8504C89.6398 36.6029 88.1866 36.9918 86.7097 36.9743H86.7116ZM97.1807 63V21.0038H110.962V63H97.1807ZM128.408 43.9538C128.447 43.9946 128.742 44.4776 129.295 45.403C129.848 46.3283 130.567 47.5114 131.454 48.952C132.341 50.392 133.277 51.9199 134.262 53.536C135.247 55.1521 136.174 56.6803 137.043 58.1202C137.908 59.5602 138.894 61.1867 140 63H124.859C123.912 61.4621 123.055 60.0721 122.286 58.83C121.517 57.5878 120.7 56.2471 119.833 54.8077C118.965 53.3698 118.107 51.9699 117.259 50.6081C116.41 49.2464 115.681 48.0536 115.071 47.0297C114.459 46.0051 114.035 45.3149 113.799 44.9594C113.214 44.0771 112.868 43.058 112.794 42.0019C112.853 40.9883 113.179 40.0084 113.74 39.1619C113.976 38.7676 114.41 38.0675 115.041 37.062C115.672 36.0564 116.411 34.8637 117.259 33.4835C118.106 32.1034 118.965 30.6936 119.833 29.2543C120.702 27.815 121.519 26.4643 122.286 25.2025C123.056 23.9419 123.914 22.5421 124.859 21.0029H140L128.289 40.1082C127.926 40.6755 127.722 41.3292 127.697 42.0019C127.736 42.7081 127.983 43.3871 128.406 43.9538H128.408Z" fill="white"/>
<path d="M188.112 20.7435H180.665L164.48 39.3909H162.256V20.7435H156V63.0429H162.256V43.9188H162.465L180.069 63.1024L188.588 63.0429L168.391 42.0719L188.112 20.7435Z" fill="#85E6D6"/>
<path d="M205.803 32.4503C204.689 32.7489 203.625 33.2107 202.647 33.8205C201.63 34.4555 200.69 35.2051 199.845 36.0546C199.705 36.1956 199.568 36.3526 199.428 36.5006V32.0631L193.352 32.9567V63.0429H199.428V40.5359C199.88 40.2201 200.348 39.9274 200.83 39.659C201.426 39.3309 202.042 39.0423 202.676 38.7952C203.291 38.5569 203.917 38.3483 204.553 38.1696C205.207 37.9877 205.874 37.8582 206.548 37.7824C207.27 37.7031 207.998 37.6833 208.723 37.7228L209.438 32.1226C208.217 32.0354 206.989 32.1461 205.803 32.4503Z" fill="#85E6D6"/>
<path d="M214.979 63.0429H221.056V32.0631L214.979 32.9567V63.0429Z" fill="#85E6D6"/>
<path d="M220.192 19.5817C219.574 19.2038 218.861 19.0077 218.137 19.0158C217.403 19.0101 216.681 19.2058 216.051 19.5817C215.43 19.9457 214.908 20.4573 214.532 21.0711C214.154 21.6896 213.958 22.4019 213.966 23.1266C213.96 23.8604 214.156 24.5817 214.532 25.2118C214.896 25.8352 215.421 26.3495 216.051 26.7012C216.688 27.059 217.407 27.2437 218.137 27.2373C218.857 27.246 219.567 27.0609 220.192 26.7012C220.805 26.3468 221.31 25.8318 221.652 25.2118C222.009 24.5755 222.194 23.8566 222.188 23.1266C222.196 22.4058 222.011 21.6959 221.652 21.0711C221.298 20.4602 220.796 19.948 220.192 19.5817Z" fill="#85E6D6"/>
<path d="M253.704 33.2546C251.934 32.3608 249.966 31.9304 247.985 32.0034C246.255 32.0067 244.536 32.2781 242.89 32.8078C241.193 33.3483 239.58 34.1201 238.095 35.1014C237.519 35.4797 236.967 35.8957 236.426 36.3237V32.0631L230.349 32.9566V63.0429H236.426V40.4167C237.014 40.0719 237.621 39.7593 238.243 39.4803C239.08 39.11 239.935 38.782 240.804 38.4973C241.641 38.2245 242.498 38.0153 243.366 37.8718C244.184 37.7363 245.011 37.6665 245.84 37.6632C246.812 37.6406 247.78 37.792 248.699 38.1101C249.457 38.3833 250.134 38.8445 250.664 39.4505C251.212 40.1076 251.599 40.8825 251.797 41.7145C252.051 42.7676 252.171 43.8485 252.154 44.9316V63.0429H258.231V43.6805C258.31 41.422 257.925 39.1713 257.1 37.0674C256.426 35.4522 255.231 34.1096 253.704 33.2546Z" fill="#85E6D6"/>
<path d="M286.32 32.778C285.41 32.5287 284.484 32.3396 283.55 32.2119C282.483 32.0686 281.408 31.999 280.332 32.0034C278.389 31.9955 276.464 32.3805 274.673 33.1354C272.878 33.8955 271.249 34.9984 269.877 36.3824C268.414 37.8748 267.287 39.6621 266.57 41.625C265.739 43.9255 265.335 46.3585 265.379 48.8041C265.313 51.4946 265.832 54.1674 266.898 56.6384C267.831 58.752 269.378 60.5367 271.336 61.7619C273.48 63.0264 275.939 63.6566 278.426 63.5791C280.611 63.5713 282.775 63.1467 284.801 62.328C286.011 61.8351 287.153 61.1869 288.197 60.3997V62.0301C288.22 63.3723 288.03 64.7098 287.632 65.9919C287.288 67.0675 286.696 68.0471 285.903 68.8516C285.05 69.6717 284.006 70.2656 282.865 70.5793C281.381 70.9869 279.845 71.1776 278.307 71.1453C277.083 71.1435 275.859 71.0738 274.643 70.9367C273.366 70.7928 272.101 70.5539 270.86 70.2218C269.581 69.8815 268.327 69.4535 267.106 68.9409L267.762 74.1837C268.857 74.6282 269.982 74.9964 271.128 75.2858C272.334 75.5902 273.557 75.8191 274.792 75.971C276.096 76.1314 277.41 76.211 278.724 76.2093C281.656 76.3011 284.57 75.7203 287.243 74.5114C289.413 73.5004 291.23 71.8605 292.456 69.8048C293.656 67.6915 294.263 65.2936 294.214 62.8641V32.0034L288.387 33.5038C287.714 33.2189 287.024 32.9765 286.32 32.778ZM287.422 56.6384C286.684 57.0676 285.918 57.4457 285.128 57.7703C284.433 58.056 283.716 58.2852 282.984 58.4555C282.27 58.6168 281.541 58.6968 280.809 58.6938C279.02 58.7586 277.244 58.3583 275.656 57.532C274.271 56.7418 273.199 55.5014 272.617 54.0171C271.899 52.0846 271.565 50.0304 271.634 47.9699C271.608 46.3256 271.839 44.6872 272.319 43.1144C272.71 41.822 273.381 40.632 274.285 39.6293C275.167 38.6979 276.246 37.9753 277.443 37.5143C278.803 36.9989 280.249 36.7462 281.703 36.7696C282.641 36.7689 283.578 36.8486 284.503 37.0079C285.45 37.1754 286.385 37.4042 287.303 37.693C287.595 37.7843 287.899 37.9055 288.197 38.0167V56.1826C287.935 56.3365 287.668 56.4974 287.422 56.6384Z" fill="#85E6D6"/>
<path d="M329.364 32.6589H321.917L311.723 43.8592H309.525V18.0625L303.448 18.9562V63.0429H309.525V48.4467H309.624L321.797 63.0429H329.661L315.21 46.7586L329.364 32.6589Z" fill="#85E6D6"/>
<path d="M360.523 59.2895C360.087 59.3298 359.649 59.2641 359.244 59.0981C358.839 58.9322 358.481 58.6708 358.199 58.3363C357.646 57.3819 357.416 56.2744 357.544 55.1787L357.663 42.9059C357.676 41.6193 357.516 40.3367 357.185 39.0931C356.896 38.0023 356.412 36.9728 355.757 36.0546C355.093 35.1572 354.251 34.4067 353.284 33.8503C352.16 33.2124 350.944 32.7503 349.68 32.48C348.134 32.1466 346.555 31.9868 344.973 32.0034C343.718 32.0029 342.464 32.0825 341.219 32.2417C340.043 32.3896 338.879 32.6186 337.735 32.9269C336.673 33.2149 335.628 33.5629 334.606 33.9694L333.891 39.0334C334.884 38.676 335.828 38.3782 336.722 38.1399C337.616 37.9016 338.48 37.7029 339.312 37.544C340.13 37.3879 340.956 37.2785 341.786 37.2164C342.599 37.1568 343.403 37.1271 344.198 37.1271C345.413 37.1014 346.625 37.2416 347.802 37.544C348.661 37.759 349.451 38.1897 350.097 38.7951C350.671 39.3845 351.082 40.1135 351.288 40.9101C351.542 41.8925 351.662 42.9044 351.645 43.9188L351.639 45.4141L344.675 45.8848C342.294 45.952 339.947 46.478 337.765 47.4338C336.131 48.1487 334.721 49.2909 333.682 50.7403C332.802 52.0304 332.335 53.5575 332.343 55.1192C332.332 56.5847 332.69 58.0294 333.386 59.3193C334.114 60.6448 335.21 61.7311 336.542 62.4471C338.168 63.2924 339.984 63.7028 341.816 63.6386C343.531 63.6781 345.238 63.3952 346.849 62.8046C348.242 62.2594 349.517 61.4502 350.603 60.4215C351.015 60.0262 351.406 59.6096 351.775 59.1734C351.891 59.7902 352.109 60.3832 352.42 60.9279C352.951 61.8402 353.767 62.5522 354.743 62.9535C355.822 63.3868 356.976 63.5995 358.139 63.5791C358.497 63.5791 358.844 63.5691 359.181 63.5493C359.513 63.5303 359.842 63.4804 360.164 63.4003C360.483 63.3209 360.77 63.2514 361.029 63.1918C361.262 63.1396 361.491 63.0698 361.714 62.9832L362.369 58.9917C362.04 59.1046 361.701 59.1844 361.357 59.23C361.08 59.2668 360.802 59.2866 360.523 59.2895ZM350.603 56.6086C349.957 57.119 349.258 57.5584 348.518 57.9193C347.781 58.2777 347 58.5381 346.195 58.6938C345.36 58.855 344.512 58.9348 343.662 58.9321C342.691 58.9598 341.726 58.7769 340.833 58.3958C340.105 58.0802 339.492 57.5503 339.074 56.8767C338.662 56.1623 338.456 55.3478 338.478 54.5235C338.421 53.5302 338.693 52.5456 339.253 51.7233C339.902 50.9667 340.78 50.4436 341.754 50.2339C343.276 49.8756 344.839 49.7155 346.402 49.7573H351.618L351.592 55.6713C351.289 56.0109 350.959 56.3244 350.603 56.6086Z" fill="#85E6D6"/>
<path d="M386.854 49.3403C386.243 48.6942 385.541 48.1422 384.768 47.702C383.969 47.2441 383.131 46.8554 382.265 46.5402C381.631 46.3417 381.006 46.1331 380.39 45.9147C379.773 45.6962 379.157 45.4977 378.542 45.3189C377.926 45.1402 377.33 44.9515 376.754 44.7529C376.214 44.5697 375.687 44.3508 375.177 44.0976C374.686 43.8377 374.218 43.5389 373.775 43.204C373.367 42.8964 373.024 42.5118 372.764 42.072C372.501 41.6204 372.366 41.1052 372.376 40.5826C372.36 40.0082 372.504 39.4408 372.793 38.9442C373.104 38.4564 373.535 38.0564 374.045 37.7824C374.668 37.4404 375.342 37.1991 376.04 37.0675C376.914 36.9 377.802 36.8202 378.692 36.8292C379.128 36.8292 379.604 36.8501 380.122 36.8889C380.639 36.9276 381.203 36.999 381.819 37.0973C382.436 37.1956 383.05 37.3267 383.665 37.4846C384.281 37.6425 384.906 37.8222 385.543 38.0208C386.132 38.2023 386.709 38.4211 387.27 38.6761L387.688 33.8504C386.932 33.534 386.187 33.256 385.453 33.0164C384.72 32.7791 383.974 32.5803 383.219 32.4206C382.482 32.265 381.736 32.1555 380.985 32.0929C380.249 32.0333 379.524 32.0035 378.811 32.0035C377.165 31.9867 375.524 32.1768 373.926 32.5695C372.559 32.9024 371.259 33.4666 370.083 34.2377C369.017 34.943 368.146 35.9061 367.551 37.0377C366.928 38.2848 366.621 39.6657 366.657 41.0592C366.639 42.0628 366.801 43.0616 367.135 44.0082C367.417 44.8027 367.841 45.5396 368.386 46.1828C368.915 46.7909 369.527 47.3222 370.203 47.7615C370.906 48.224 371.655 48.6133 372.437 48.9233C372.873 49.0835 373.329 49.2424 373.807 49.3999C374.284 49.5598 374.75 49.7087 375.207 49.8467C375.665 49.9847 376.11 50.1248 376.547 50.2638C376.984 50.4028 377.412 50.5419 377.828 50.6809C378.244 50.8199 378.653 50.9489 379.05 51.068C379.583 51.2569 380.1 51.486 380.598 51.7532C381.035 51.9847 381.445 52.2645 381.82 52.5872C382.15 52.8752 382.414 53.2309 382.594 53.6299C382.777 54.0424 382.868 54.4894 382.863 54.9405C382.884 55.3812 382.807 55.8211 382.637 56.2281C382.467 56.6352 382.208 56.9992 381.88 57.2938C381.142 57.91 380.261 58.33 379.317 58.5151C378.212 58.7591 377.084 58.8791 375.952 58.8727C375.245 58.8682 374.538 58.8185 373.837 58.7237C373.063 58.6257 372.248 58.4867 371.394 58.3066C370.541 58.1266 369.667 57.9081 368.772 57.6512C367.879 57.3944 366.976 57.1064 366.062 56.7874L366.301 61.8515C367.332 62.209 368.275 62.4969 369.131 62.7153C369.986 62.9338 370.8 63.1224 371.573 63.2813C372.319 63.4365 373.076 63.5361 373.837 63.5792C374.571 63.6189 375.316 63.6387 376.071 63.6387C377.732 63.6471 379.39 63.4774 381.015 63.1323C382.446 62.8419 383.816 62.3079 385.066 61.5536C386.193 60.8656 387.127 59.9019 387.778 58.7534C388.46 57.4929 388.799 56.0754 388.76 54.6427C388.785 53.5973 388.613 52.5564 388.254 51.5744C387.933 50.7474 387.458 49.9892 386.854 49.3403Z" fill="#85E6D6"/>
<path d="M411.723 58.247L410.711 58.4257C410.385 58.4837 410.057 58.5235 409.727 58.5448C409.409 58.5657 409.111 58.5747 408.833 58.5747C407.921 58.5997 407.014 58.4163 406.182 58.0384C405.467 57.7001 404.874 57.1486 404.484 56.4597C404.067 55.6827 403.861 54.8093 403.889 53.9276V37.4249H412.289L412.945 32.6589H403.889V23.2458L397.812 25.3904V32.6589H393.224L392.569 37.4249H397.812V55.1788C397.785 56.3629 397.967 57.5426 398.348 58.664C398.655 59.5512 399.131 60.3706 399.749 61.0769C400.316 61.7063 401.005 62.2131 401.775 62.5663C402.562 62.9282 403.393 63.1885 404.246 63.3408C405.091 63.497 405.948 63.5768 406.808 63.5791C407.443 63.5791 408.068 63.5592 408.686 63.5195C409.303 63.4798 409.866 63.4203 410.383 63.3408C410.899 63.2614 411.385 63.172 411.842 63.0727C412.299 62.9734 412.686 62.885 413.004 62.8046L413.361 57.8598C413.13 57.9492 412.891 58.019 412.647 58.0683C412.371 58.1278 412.063 58.1875 411.723 58.247Z" fill="#85E6D6"/>
<path d="M419.68 63.0429H425.757V32.0631L419.68 32.9567V63.0429Z" fill="#85E6D6"/>
<path d="M424.893 19.5817C424.275 19.2039 423.563 19.0078 422.839 19.0158C422.105 19.0102 421.384 19.2059 420.754 19.5817C420.133 19.9456 419.611 20.4572 419.236 21.0711C418.857 21.6893 418.661 22.4018 418.669 23.1266C418.663 23.8605 418.859 24.5819 419.236 25.2118C419.599 25.8351 420.123 26.3494 420.754 26.7012C421.39 27.0588 422.109 27.2435 422.839 27.2373C423.559 27.2459 424.269 27.0608 424.893 26.7012C425.507 26.3465 426.011 25.8316 426.354 25.2118C426.711 24.5753 426.896 23.8565 426.89 23.1266C426.898 22.4059 426.713 21.6961 426.354 21.0711C425.999 20.4603 425.497 19.9482 424.893 19.5817Z" fill="#85E6D6"/>
<path d="M458.405 33.2546C456.635 32.3608 454.667 31.9304 452.686 32.0034C450.956 32.0067 449.238 32.2781 447.591 32.8078C445.895 33.3485 444.281 34.1202 442.796 35.1014C442.22 35.4797 441.668 35.8957 441.127 36.3237V32.0631L435.05 32.9566V63.0429H441.127V40.4167C441.715 40.0717 442.322 39.7591 442.945 39.4803C443.782 39.1097 444.637 38.7816 445.507 38.4973C446.344 38.2242 447.2 38.0151 448.069 37.8718C448.886 37.7362 449.713 37.6664 450.541 37.6632C451.513 37.6406 452.482 37.792 453.401 38.1101C454.159 38.383 454.835 38.8443 455.366 39.4505C455.914 40.1073 456.301 40.8823 456.499 41.7145C456.752 42.7676 456.872 43.8485 456.855 44.9316V63.0429H462.932V43.6805C463.011 41.422 462.627 39.1712 461.801 37.0674C461.128 35.4522 459.932 34.1096 458.405 33.2546Z" fill="#85E6D6"/>
<path d="M491.022 32.778C490.112 32.5287 489.187 32.3396 488.252 32.2119C487.186 32.0686 486.111 31.999 485.035 32.0034C483.091 31.9955 481.166 32.3805 479.375 33.1354C477.581 33.8955 475.951 34.9984 474.579 36.3824C473.117 37.875 471.99 39.6622 471.273 41.625C470.442 43.9255 470.038 46.3585 470.081 48.8041C470.015 51.4945 470.533 54.1673 471.599 56.6384C472.533 58.7521 474.08 60.5368 476.039 61.7619C478.182 63.0265 480.64 63.6567 483.128 63.5791C485.313 63.5713 487.476 63.1467 489.502 62.328C490.713 61.8351 491.854 61.1869 492.898 60.3997V62.0301C492.922 63.3724 492.732 64.7099 492.333 65.9919C491.989 67.0673 491.397 68.0468 490.605 68.8516C489.752 69.6715 488.707 70.2654 487.566 70.5793C486.082 70.9869 484.547 71.1776 483.008 71.1453C481.784 71.1435 480.562 71.0738 479.345 70.9367C478.068 70.7929 476.803 70.554 475.561 70.2218C474.282 69.8815 473.028 69.4535 471.808 68.9409L472.463 74.1837C473.559 74.6283 474.684 74.9966 475.83 75.2858C477.036 75.5903 478.259 75.8192 479.493 75.971C480.798 76.1314 482.111 76.211 483.426 76.2093C486.358 76.3012 489.272 75.7204 491.945 74.5114C494.115 73.5007 495.931 71.8607 497.158 69.8048C498.358 67.6916 498.965 65.2937 498.916 62.8641V32.0034L493.089 33.5038C492.416 33.2189 491.726 32.9765 491.022 32.778ZM492.125 56.6384C491.387 57.0678 490.621 57.4459 489.831 57.7703C489.136 58.056 488.418 58.2852 487.686 58.4555C486.973 58.6168 486.244 58.6967 485.512 58.6938C483.723 58.7585 481.947 58.3582 480.358 57.532C478.974 56.742 477.902 55.5015 477.321 54.0171C476.602 52.0846 476.268 50.0304 476.337 47.9699C476.31 46.3256 476.541 44.6873 477.022 43.1144C477.412 41.822 478.084 40.6319 478.988 39.6293C479.87 38.6979 480.949 37.9753 482.146 37.5143C483.506 36.9989 484.951 36.7462 486.405 36.7696C487.344 36.7688 488.28 36.8485 489.205 37.0079C490.153 37.1755 491.088 37.4043 492.006 37.693C492.297 37.7843 492.602 37.9055 492.9 38.0167V56.1826C492.638 56.3365 492.37 56.4974 492.125 56.6384Z" fill="#85E6D6"/>
<path d="M526.976 49.3403C526.366 48.694 525.663 48.142 524.891 47.702C524.091 47.2441 523.253 46.8554 522.387 46.5402C521.753 46.3417 521.127 46.1331 520.512 45.9147C519.896 45.6962 519.28 45.4977 518.664 45.3189C518.048 45.1402 517.453 44.9515 516.877 44.7529C516.336 44.5699 515.809 44.351 515.298 44.0976C514.808 43.838 514.34 43.5391 513.898 43.204C513.49 42.8964 513.146 42.5118 512.885 42.072C512.622 41.6204 512.488 41.1052 512.497 40.5826C512.481 40.0082 512.626 39.4408 512.915 38.9442C513.226 38.4569 513.657 38.057 514.166 37.7824C514.79 37.4407 515.463 37.1994 516.162 37.0675C517.035 36.9 517.923 36.8202 518.813 36.8292C519.249 36.8292 519.726 36.8501 520.243 36.8889C520.759 36.9276 521.324 36.999 521.941 37.0973C522.557 37.1956 523.171 37.3267 523.788 37.4846C524.404 37.6425 525.029 37.8222 525.664 38.0208C526.253 38.2022 526.83 38.421 527.391 38.6761L527.809 33.8504C527.054 33.534 526.31 33.256 525.575 33.0164C524.841 32.7791 524.095 32.5802 523.341 32.4206C522.604 32.2648 521.858 32.1553 521.107 32.0929C520.371 32.0333 519.646 32.0035 518.932 32.0035C517.286 31.9867 515.645 32.1768 514.047 32.5695C512.68 32.9023 511.381 33.4666 510.204 34.2377C509.138 34.9433 508.267 35.9063 507.672 37.0377C507.049 38.2848 506.742 39.6657 506.778 41.0592C506.76 42.0628 506.921 43.0616 507.255 44.0082C507.537 44.8028 507.961 45.5396 508.506 46.1828C509.035 46.7909 509.647 47.3223 510.323 47.7615C511.026 48.224 511.775 48.6133 512.557 48.9233C512.993 49.0835 513.45 49.2424 513.928 49.3999C514.406 49.5575 514.872 49.7064 515.328 49.8467C515.783 49.9864 516.23 50.1254 516.668 50.2638C517.104 50.4038 517.532 50.5419 517.949 50.6809C518.366 50.8199 518.773 50.9489 519.17 51.068C519.703 51.2569 520.221 51.486 520.719 51.7532C521.156 51.9849 521.566 52.2646 521.941 52.5872C522.27 52.8752 522.534 53.2309 522.714 53.6299C522.897 54.0424 522.989 54.4894 522.983 54.9405C523.005 55.3812 522.927 55.821 522.757 56.2281C522.587 56.6352 522.329 56.9992 522 57.2938C521.263 57.91 520.382 58.33 519.438 58.5151C518.333 58.759 517.204 58.879 516.072 58.8727C515.365 58.8683 514.658 58.8185 513.957 58.7237C513.183 58.6257 512.369 58.4867 511.515 58.3066C510.661 58.1266 509.787 57.9081 508.893 57.6512C508 57.3944 507.096 57.1064 506.183 56.7874L506.421 61.8515C507.453 62.2089 508.396 62.4969 509.251 62.7153C510.105 62.9338 510.92 63.1224 511.694 63.2813C512.44 63.4365 513.196 63.5361 513.957 63.5792C514.691 63.6189 515.436 63.6387 516.191 63.6387C517.853 63.6471 519.511 63.4773 521.137 63.1323C522.567 62.8417 523.937 62.3077 525.188 61.5536C526.314 60.8654 527.247 59.9017 527.898 58.7534C528.58 57.4929 528.919 56.0754 528.88 54.6427C528.905 53.5974 528.733 52.5566 528.375 51.5744C528.054 50.7477 527.58 49.9895 526.976 49.3403Z" fill="#85E6D6"/>
<path d="M557.748 33.9149C555.266 32.5962 552.486 31.9395 549.676 32.0084C546.84 31.9439 544.036 32.6216 541.542 33.9744C539.241 35.263 537.359 37.1863 536.121 39.515C534.776 42.128 534.111 45.0372 534.185 47.9749C534.109 50.8897 534.732 53.7802 536.002 56.405C537.143 58.6963 538.963 60.5794 541.215 61.7967C543.638 63.0668 546.344 63.7021 549.079 63.6436C551.943 63.7004 554.773 63.0236 557.302 61.6776C559.662 60.3899 561.597 58.4443 562.872 56.0773C564.255 53.4336 564.942 50.4811 564.868 47.4983C564.936 44.6572 564.301 41.8433 563.02 39.3065C561.833 37.0286 559.999 35.1527 557.748 33.9149ZM557.39 53.873C556.721 55.4213 555.587 56.7227 554.144 57.5966C552.694 58.426 551.048 58.848 549.378 58.8179C547.74 58.8588 546.126 58.4242 544.731 57.5668C543.35 56.6492 542.272 55.3431 541.633 53.8134C540.822 51.8512 540.437 49.7395 540.502 47.6174C540.431 45.5529 540.817 43.4983 541.633 41.6003C542.301 40.1086 543.415 38.86 544.82 38.0256C546.323 37.1983 548.02 36.7871 549.735 36.8341C551.074 36.8007 552.405 37.0546 553.638 37.5788C554.717 38.0658 555.659 38.8131 556.379 39.7534C557.147 40.7754 557.703 41.9398 558.016 43.179C558.389 44.6286 558.569 46.1208 558.553 47.6174C558.622 49.7623 558.224 51.8967 557.388 53.873H557.39Z" fill="#85E6D6"/>
<path d="M584.705 32.4503C583.59 32.7489 582.526 33.2107 581.547 33.8205C580.531 34.4555 579.592 35.2052 578.747 36.0546C578.607 36.1956 578.47 36.3526 578.33 36.5006V32.0631L572.253 32.9567V63.0429H578.33V40.5359C578.782 40.2204 579.249 39.9277 579.73 39.659C580.326 39.3309 580.944 39.0423 581.578 38.7952C582.193 38.5569 582.818 38.3483 583.453 38.1696C584.107 37.9879 584.775 37.8584 585.449 37.7824C586.172 37.7031 586.899 37.6833 587.625 37.7228L588.339 32.1226C587.118 32.0355 585.89 32.1461 584.705 32.4503Z" fill="#85E6D6"/>
<path d="M619.795 32.6589H612.348L602.154 43.8592H599.956V18.0625L593.879 18.9562V63.0429H599.956V48.4467H600.056L612.228 63.0429H620.092L605.641 46.7586L619.795 32.6589Z" fill="#85E6D6"/>
<path d="M648.214 36.5016C647.07 35.0193 645.561 33.8594 643.835 33.1355C641.916 32.3524 639.859 31.9673 637.788 32.0035C635.701 31.9682 633.63 32.3742 631.711 33.195C629.965 33.9593 628.409 35.0984 627.153 36.5314C625.859 38.0368 624.886 39.7903 624.292 41.6847C623.614 43.8531 623.282 46.1152 623.31 48.3871C623.226 51.2578 623.828 54.1073 625.068 56.698C626.199 58.944 628.029 60.7625 630.281 61.8812C632.923 63.1263 635.822 63.7286 638.741 63.6387C640.146 63.6508 641.549 63.5612 642.941 63.3706C644.104 63.2031 645.25 62.9341 646.367 62.5664C647.473 62.1948 648.549 61.7366 649.584 61.1961L650.001 56.6087C649.245 56.888 648.481 57.166 647.706 57.4427C646.932 57.7194 646.128 57.9677 645.294 58.1874C644.453 58.4077 643.597 58.5669 642.732 58.664C641.862 58.7636 640.987 58.8134 640.111 58.813C638.547 58.8388 636.985 58.6686 635.463 58.3066C634.235 58.0131 633.099 57.4195 632.158 56.5789C631.205 55.6724 630.507 54.5325 630.132 53.2724C629.743 51.9962 629.524 50.6739 629.483 49.3403H651.013C651.306 46.8764 651.196 44.3811 650.685 41.9528C650.266 39.978 649.423 38.118 648.214 36.5016ZM633.2 37.9314C634.598 37.0826 636.212 36.6583 637.847 36.7101C639.483 36.6283 641.1 37.1006 642.435 38.0505C643.621 38.9974 644.467 40.3042 644.846 41.774C645.144 42.8608 645.291 43.9835 645.281 45.1103H629.614C629.724 43.9224 629.978 42.7521 630.369 41.6251C630.879 40.115 631.874 38.8162 633.2 37.9314Z" fill="#85E6D6"/>
<path d="M677.285 49.3403C676.675 48.6939 675.972 48.1419 675.2 47.702C674.4 47.2441 673.562 46.8554 672.697 46.5402C672.062 46.3417 671.436 46.1331 670.821 45.9147C670.205 45.6962 669.589 45.4977 668.973 45.3189C668.357 45.1402 667.762 44.9515 667.186 44.7529C666.646 44.5697 666.119 44.3508 665.608 44.0976C665.117 43.8378 664.649 43.5389 664.207 43.204C663.799 42.8961 663.455 42.5116 663.195 42.072C662.932 41.6204 662.798 41.1052 662.807 40.5826C662.791 40.0082 662.936 39.4408 663.225 38.9442C663.536 38.4567 663.967 38.0568 664.476 37.7824C665.099 37.4405 665.773 37.1992 666.472 37.0675C667.345 36.9 668.233 36.8202 669.123 36.8292C669.559 36.8292 670.036 36.8501 670.553 36.8889C671.069 36.9276 671.634 36.999 672.251 37.0973C672.867 37.1956 673.481 37.3267 674.096 37.4846C674.712 37.6425 675.338 37.8222 675.974 38.0208C676.563 38.2023 677.14 38.4211 677.701 38.6761L678.119 33.8504C677.364 33.534 676.619 33.256 675.885 33.0164C675.151 32.7791 674.405 32.5802 673.651 32.4206C672.914 32.2649 672.167 32.1554 671.417 32.0929C670.681 32.0333 669.956 32.0035 669.242 32.0035C667.596 31.9867 665.955 32.1768 664.357 32.5695C662.99 32.9023 661.69 33.4666 660.514 34.2377C659.448 34.9433 658.577 35.9063 657.982 37.0377C657.359 38.2848 657.052 39.6657 657.088 41.0592C657.07 42.0628 657.231 43.0616 657.565 44.0082C657.847 44.8028 658.271 45.5396 658.816 46.1828C659.346 46.7909 659.957 47.3222 660.633 47.7615C661.336 48.2239 662.085 48.6132 662.867 48.9233C663.303 49.0835 663.76 49.2424 664.238 49.3999C664.715 49.5575 665.181 49.7064 665.638 49.8467C666.093 49.9864 666.54 50.1254 666.978 50.2638C667.414 50.4038 667.842 50.5419 668.259 50.6809C668.676 50.8199 669.083 50.9489 669.48 51.068C670.013 51.2569 670.531 51.4859 671.029 51.7532C671.466 51.985 671.876 52.2647 672.251 52.5872C672.58 52.8753 672.844 53.2309 673.024 53.6299C673.207 54.0424 673.299 54.4894 673.293 54.9405C673.314 55.3812 673.237 55.821 673.067 56.2281C672.897 56.6352 672.638 56.9992 672.31 57.2938C671.572 57.9098 670.692 58.3298 669.748 58.5151C668.643 58.759 667.514 58.879 666.382 58.8727C665.675 58.8682 664.968 58.8185 664.267 58.7237C663.493 58.6257 662.679 58.4867 661.825 58.3066C660.971 58.1266 660.097 57.9081 659.202 57.6512C658.31 57.3944 657.407 57.1064 656.493 56.7874L656.731 61.8515C657.763 62.2089 658.706 62.4969 659.561 62.7153C660.415 62.9338 661.23 63.1224 662.003 63.2813C662.75 63.4365 663.506 63.5361 664.267 63.5792C665.001 63.6189 665.746 63.6387 666.502 63.6387C668.163 63.6471 669.821 63.4773 671.446 63.1323C672.877 62.8415 674.247 62.3075 675.498 61.5536C676.624 60.8652 677.557 59.9016 678.208 58.7534C678.89 57.4929 679.229 56.0754 679.19 54.6427C679.215 53.5974 679.044 52.5566 678.685 51.5744C678.364 50.7476 677.889 49.9895 677.285 49.3403Z" fill="#85E6D6"/>
<path d="M702.159 58.247L701.147 58.4257C700.822 58.4838 700.493 58.5235 700.163 58.5448C699.845 58.5657 699.547 58.5747 699.27 58.5747C698.357 58.5997 697.45 58.4163 696.619 58.0384C695.903 57.6998 695.31 57.1484 694.92 56.4597C694.503 55.6826 694.298 54.8093 694.325 53.9276V37.4249H702.725L703.38 32.6589H694.325V23.2458L688.247 25.3904V32.6589H683.66L683.004 37.4249H688.247V55.1788C688.22 56.3629 688.402 57.5426 688.783 58.664C689.09 59.551 689.566 60.3704 690.184 61.0769C690.751 61.7063 691.44 62.2132 692.21 62.5663C692.997 62.9282 693.828 63.1885 694.681 63.3408C695.526 63.497 696.384 63.5768 697.243 63.5791C697.879 63.5791 698.504 63.5592 699.121 63.5195C699.737 63.4798 700.303 63.4203 700.819 63.3408C701.334 63.2604 701.821 63.172 702.277 63.0727C702.734 62.9734 703.121 62.885 703.439 62.8046L703.798 57.8598C703.565 57.9491 703.326 58.0188 703.082 58.0683C702.804 58.1278 702.497 58.1875 702.159 58.247Z" fill="#85E6D6"/>
<path d="M722.563 32.4503C721.449 32.7489 720.385 33.2106 719.406 33.8205C718.39 34.4555 717.45 35.2051 716.605 36.0546C716.464 36.1956 716.328 36.3526 716.188 36.5006V32.0631L710.112 32.9567V63.0429H716.188V40.5359C716.64 40.2202 717.107 39.9276 717.588 39.659C718.185 39.3308 718.802 39.0422 719.436 38.7952C720.051 38.5569 720.676 38.3483 721.312 38.1696C721.966 37.9879 722.633 37.8584 723.308 37.7824C724.03 37.7031 724.757 37.6833 725.482 37.7228L726.197 32.1226C724.976 32.0354 723.749 32.146 722.563 32.4503Z" fill="#85E6D6"/>
<path d="M754.794 36.5016C753.651 35.0193 752.142 33.8594 750.415 33.1355C748.497 32.3524 746.44 31.9673 744.368 32.0035C742.281 31.9682 740.21 32.3742 738.291 33.195C736.546 33.9593 734.99 35.0984 733.734 36.5314C732.44 38.0369 731.466 39.7903 730.873 41.6847C730.194 43.8531 729.863 46.1152 729.891 48.3871C729.807 51.2577 730.409 54.107 731.647 56.698C732.78 58.9435 734.608 60.762 736.86 61.8812C739.503 63.1262 742.402 63.7285 745.321 63.6387C746.726 63.6509 748.129 63.5613 749.52 63.3706C750.684 63.2032 751.831 62.9341 752.947 62.5664C754.054 62.1948 755.13 61.7366 756.164 61.1961L756.581 56.6087C755.826 56.888 755.061 57.166 754.287 57.4427C753.512 57.7194 752.708 57.9677 751.875 58.1874C751.033 58.4077 750.177 58.567 749.312 58.664C748.442 58.7637 747.567 58.8134 746.692 58.813C745.127 58.8388 743.566 58.6687 742.044 58.3066C740.816 58.0134 739.68 57.4197 738.738 56.5789C737.786 55.6725 737.087 54.5325 736.713 53.2724C736.323 51.9962 736.105 50.6739 736.063 49.3403H757.593C757.887 46.8764 757.776 44.3811 757.266 41.9528C756.847 39.978 756.003 38.118 754.794 36.5016ZM739.781 37.9314C741.179 37.0826 742.793 36.6583 744.428 36.7101C746.064 36.6284 747.68 37.1006 749.015 38.0505C750.201 38.9977 751.048 40.3044 751.427 41.774C751.724 42.8609 751.871 43.9835 751.862 45.1103H736.194C736.305 43.9223 736.558 42.7521 736.95 41.6251C737.459 40.1148 738.455 38.8158 739.781 37.9314Z" fill="#85E6D6"/>
<path d="M781.723 58.0683C781.443 58.1278 781.135 58.1875 780.798 58.247L779.786 58.4257C779.461 58.4837 779.133 58.5235 778.803 58.5448C778.485 58.5657 778.187 58.5747 777.91 58.5747C776.997 58.5996 776.09 58.4161 775.259 58.0384C774.544 57.6998 773.95 57.1484 773.561 56.4597C773.143 55.6826 772.938 54.8093 772.965 53.9276V37.4249H781.365L782.021 32.6589H772.965V23.2458L766.888 25.3904V32.6589H762.301L761.644 37.4249H766.888V55.1788C766.861 56.363 767.042 57.5427 767.424 58.664C767.731 59.5511 768.206 60.3706 768.824 61.0769C769.391 61.7061 770.08 62.2129 770.85 62.5663C771.638 62.9282 772.468 63.1885 773.321 63.3408C774.166 63.497 775.024 63.5768 775.883 63.5791C776.519 63.5791 777.145 63.5592 777.761 63.5195C778.377 63.4798 778.943 63.4203 779.459 63.3408C779.974 63.2604 780.462 63.172 780.918 63.0727C781.375 62.9734 781.761 62.885 782.079 62.8046L782.438 57.8598C782.206 57.9492 781.966 58.0189 781.723 58.0683Z" fill="#85E6D6"/>
</svg>
