<svg width="464" height="84" viewBox="0 0 464 84" fill="none" xmlns="http://www.w3.org/2000/svg">
<rect width="464" height="84" fill="#114F9D"/>
<path d="M20 63V21.0038H33.7802V63H20ZM52.5283 27.6877L60.4532 63H45.3721L35.9092 21.0038H44.3676C46.3072 20.9786 48.1892 21.6624 49.6607 22.9264C51.1347 24.1373 52.1473 25.8184 52.5283 27.6877ZM62.5233 63V21.0038H76.3035V63H62.5233ZM86.7116 36.9743C85.2267 36.9888 83.7656 36.6003 82.4839 35.8504C81.2193 35.1194 80.1688 34.0689 79.438 32.8041C78.6872 31.5222 78.2986 30.0607 78.3134 28.5751C78.2964 27.0986 78.6853 25.6458 79.438 24.3755C80.1766 23.1245 81.2259 22.0853 82.4839 21.3588C83.766 20.6098 85.2269 20.2213 86.7116 20.2348C88.1877 20.2189 89.6399 20.6078 90.9108 21.3588C92.1562 22.0917 93.1943 23.13 93.9271 24.3755C94.6789 25.6462 95.0677 27.0987 95.0517 28.5751C95.0655 30.0605 94.6769 31.5218 93.9271 32.8041C93.202 34.0633 92.1627 35.113 90.9108 35.8504C89.6398 36.6029 88.1866 36.9918 86.7097 36.9743H86.7116ZM97.1807 63V21.0038H110.962V63H97.1807ZM128.408 43.9538C128.447 43.9946 128.742 44.4776 129.295 45.403C129.848 46.3283 130.567 47.5114 131.454 48.952C132.341 50.392 133.277 51.9199 134.262 53.536C135.247 55.1521 136.174 56.6803 137.043 58.1202C137.908 59.5602 138.894 61.1867 140 63H124.859C123.912 61.4621 123.055 60.0721 122.286 58.83C121.517 57.5878 120.7 56.2471 119.833 54.8077C118.965 53.3698 118.107 51.9699 117.259 50.6081C116.41 49.2464 115.681 48.0536 115.071 47.0297C114.459 46.0051 114.035 45.3149 113.799 44.9594C113.214 44.0771 112.868 43.058 112.794 42.0019C112.853 40.9883 113.179 40.0084 113.74 39.1619C113.976 38.7676 114.41 38.0675 115.041 37.062C115.672 36.0564 116.411 34.8637 117.259 33.4835C118.106 32.1034 118.965 30.6936 119.833 29.2543C120.702 27.815 121.519 26.4643 122.286 25.2025C123.056 23.9419 123.914 22.5421 124.859 21.0029H140L128.289 40.1082C127.926 40.6755 127.722 41.3292 127.697 42.0019C127.736 42.7081 127.983 43.3871 128.406 43.9538H128.408Z" fill="white"/>
<path d="M182.005 43.5098C181.136 42.624 180.128 41.8873 179.02 41.3293C177.858 40.7414 176.65 40.2515 175.407 39.8646C174.132 39.4664 172.819 39.1279 171.466 38.8491C170.43 38.6108 169.464 38.3722 168.57 38.1332C167.748 37.921 166.948 37.6306 166.181 37.266C165.522 36.9537 164.909 36.5516 164.36 36.0712C163.843 35.6158 163.444 35.0423 163.196 34.3995C162.919 33.6438 162.788 32.843 162.807 32.0388C162.793 31.2063 162.925 30.3777 163.196 29.5904C163.44 28.8947 163.85 28.269 164.39 27.7674C164.949 27.256 165.583 26.833 166.27 26.5129C167.057 26.1547 167.892 25.9132 168.749 25.796C169.768 25.6516 170.795 25.582 171.824 25.5879C172.762 25.5892 173.698 25.6387 174.631 25.7362C175.574 25.8347 176.511 25.9846 177.437 26.1853C178.337 26.3798 179.225 26.6292 180.095 26.932C180.909 27.2124 181.698 27.5619 182.453 27.9765L183.289 22.7204C182.44 22.277 181.55 21.9169 180.632 21.6451C179.696 21.3663 178.751 21.127 177.796 20.9272C176.829 20.7272 175.852 20.578 174.87 20.4802C173.874 20.3806 172.859 20.3305 171.824 20.3298C169.712 20.3067 167.606 20.5475 165.554 21.0467C163.806 21.4683 162.155 22.2187 160.688 23.258C159.335 24.2288 158.247 25.5222 157.522 27.0206C156.749 28.7054 156.372 30.5443 156.418 32.3972C156.384 33.8314 156.617 35.2594 157.104 36.6088C157.533 37.7395 158.195 38.7675 159.045 39.6267C159.887 40.4676 160.854 41.173 161.912 41.7176C163.033 42.2949 164.201 42.7749 165.404 43.1523C166.659 43.5506 167.943 43.8891 169.255 44.1679C170.332 44.4062 171.327 44.6551 172.241 44.9146C173.093 45.1493 173.923 45.4591 174.72 45.8406C175.405 46.1639 176.039 46.5866 176.6 47.0951C177.134 47.5963 177.552 48.2079 177.825 48.8873C178.142 49.7058 178.294 50.5787 178.273 51.4561C178.289 52.3891 178.148 53.3181 177.855 54.2041C177.593 54.9705 177.188 55.6801 176.661 56.295C176.131 56.9004 175.48 57.3881 174.75 57.7268C173.925 58.1066 173.051 58.3683 172.153 58.5044C171.056 58.6726 169.948 58.7525 168.838 58.7433C167.76 58.7406 166.683 58.6708 165.614 58.5343C164.498 58.3949 163.383 58.2057 162.27 57.9667C161.157 57.7278 160.071 57.4387 159.015 57.0995C157.96 56.763 156.955 56.4148 156 56.0551L156.775 61.9693C157.793 62.3497 158.83 62.6783 159.881 62.954C160.835 63.2045 161.802 63.4039 162.778 63.5514C163.712 63.6908 164.647 63.8003 165.584 63.88C166.521 63.9596 167.466 63.9994 168.42 63.9994C170.558 64.0127 172.69 63.7924 174.78 63.3423C176.63 62.9544 178.392 62.2251 179.975 61.1917C181.452 60.2135 182.646 58.8641 183.437 57.2787C184.31 55.4011 184.73 53.3446 184.663 51.2749C184.695 49.7329 184.463 48.1968 183.975 46.7337C183.56 45.5287 182.888 44.4294 182.005 43.5098Z" fill="#9FDAF5"/>
<path d="M217.744 59.5788C217.308 59.619 216.868 59.5531 216.462 59.3867C216.057 59.2203 215.698 58.9582 215.415 58.6229C214.861 57.6661 214.631 56.556 214.758 55.4577L214.878 43.1504C214.891 41.8602 214.73 40.5742 214.4 39.327C214.11 38.2333 213.624 37.2011 212.967 36.2803C212.303 35.3798 211.459 34.6271 210.489 34.07C209.362 33.43 208.143 32.9666 206.876 32.696C205.326 32.361 203.744 32.2007 202.159 32.218C200.901 32.2175 199.644 32.2973 198.397 32.457C197.218 32.6054 196.051 32.8349 194.903 33.144C193.839 33.4327 192.793 33.7818 191.768 34.1894L191.052 39.2673C192.047 38.9089 192.993 38.6102 193.889 38.3712C194.786 38.1322 195.651 37.9331 196.486 37.7738C197.305 37.6172 198.132 37.5075 198.964 37.4452C199.779 37.3855 200.586 37.3556 201.382 37.3556C202.6 37.33 203.815 37.4707 204.995 37.7738C205.856 37.9889 206.647 38.4208 207.294 39.0283C207.87 39.6191 208.282 40.3502 208.488 41.1491C208.743 42.1343 208.864 43.1494 208.847 44.1669L208.84 45.6604L201.86 46.1324C199.473 46.1993 197.121 46.7267 194.933 47.6856C193.296 48.4025 191.883 49.5479 190.843 51.0011C189.96 52.2946 189.492 53.8259 189.499 55.392C189.488 56.8615 189.848 58.31 190.544 59.6036C191.275 60.9325 192.374 62.0216 193.709 62.74C195.338 63.5877 197.159 63.9993 198.994 63.9348C200.713 63.9743 202.425 63.6906 204.04 63.0984C205.436 62.5522 206.714 61.7408 207.802 60.7088C208.215 60.3124 208.607 59.8947 208.976 59.4573C209.093 60.0759 209.311 60.6708 209.623 61.2176C210.155 62.1319 210.974 62.8456 211.952 63.2487C213.033 63.6832 214.19 63.8965 215.355 63.876C215.714 63.876 216.062 63.8651 216.4 63.8451C216.733 63.8261 217.063 63.7761 217.386 63.6958C217.704 63.6161 217.992 63.5465 218.252 63.4867C218.485 63.4345 218.715 63.3646 218.938 63.2776L219.595 59.2751C219.266 59.3885 218.925 59.4689 218.58 59.515C218.303 59.5517 218.024 59.5713 217.744 59.5738M207.802 56.8855C207.154 57.3977 206.454 57.8383 205.712 58.1998C204.973 58.5591 204.19 58.8205 203.384 58.9774C202.547 59.1382 201.697 59.2179 200.845 59.2153C199.872 59.2431 198.904 59.0597 198.009 58.6777C197.28 58.3616 196.665 57.8305 196.247 57.1553C195.833 56.4388 195.627 55.6216 195.65 54.7946C195.592 53.7987 195.865 52.8116 196.426 51.9868C197.076 51.2278 197.957 50.7031 198.934 50.4934C200.46 50.1345 202.026 49.9742 203.593 50.0164H208.821L208.794 55.9446C208.49 56.2863 208.157 56.6011 207.799 56.8855" fill="#9FDAF5"/>
<path d="M211.593 18H205.143L200.068 28.6934H204.725L211.593 18Z" fill="#9FDAF5"/>
<path d="M266.527 33.4725C264.899 32.588 263.064 32.1549 261.213 32.218C259.606 32.2137 258.01 32.4865 256.495 33.0245C254.957 33.5757 253.509 34.3507 252.197 35.3245C251.452 35.8754 250.744 36.474 250.077 37.1166C249.465 35.621 248.386 34.3636 247.001 33.5323C245.353 32.6433 243.498 32.2102 241.626 32.2777C240.03 32.2784 238.445 32.5512 236.94 33.0842C235.395 33.6278 233.936 34.3925 232.61 35.3543C232.181 35.664 231.765 35.9995 231.356 36.35V32.2777L225.265 33.1738V63.3423H231.356V40.6194C232.073 40.1494 232.821 39.7276 233.595 39.3569C234.542 38.9092 235.533 38.559 236.551 38.3114C237.489 38.0795 238.452 37.9592 239.418 37.953C240.305 37.9264 241.188 38.0788 242.015 38.401C242.699 38.6912 243.304 39.142 243.777 39.7153C244.295 40.3814 244.653 41.1583 244.821 41.9854C245.054 43.0546 245.165 44.147 245.151 45.2412V63.3423H251.241V43.9867C251.245 42.844 251.168 41.7024 251.011 40.5706C251.701 40.1166 252.416 39.7014 253.152 39.327C254.083 38.858 255.064 38.4972 256.077 38.2517C257.035 38.0173 258.017 37.897 259.003 37.8933C259.881 37.872 260.753 38.0243 261.572 38.3413C262.268 38.6253 262.883 39.0767 263.363 39.6556C263.882 40.3212 264.24 41.0983 264.408 41.9257C264.641 42.9949 264.751 44.0873 264.737 45.1815V63.3423H270.828V43.927C270.904 41.6677 270.539 39.4151 269.753 37.2959C269.133 35.6978 267.998 34.3522 266.527 33.4725Z" fill="#9FDAF5"/>
<path d="M279.846 63.3433H285.937V32.2788L279.846 33.1748V63.3433Z" fill="#9FDAF5"/>
<path d="M285.068 19.7623C284.449 19.3835 283.735 19.1868 283.009 19.1948C282.274 19.1891 281.551 19.3854 280.919 19.7623C280.297 20.127 279.774 20.64 279.397 21.2558C279.018 21.8757 278.821 22.59 278.829 23.3168C278.828 24.0461 279.021 24.7625 279.389 25.3924C279.756 26.0223 280.284 26.5431 280.919 26.9012C281.557 27.2598 282.278 27.4452 283.009 27.4389C283.731 27.4475 284.442 27.2618 285.068 26.9012C285.683 26.5457 286.189 26.0293 286.532 25.4077C286.891 24.7695 287.076 24.0487 287.07 23.3168C287.078 22.5941 286.892 21.8824 286.532 21.2558C286.177 20.6431 285.674 20.1295 285.068 19.7623Z" fill="#9FDAF5"/>
<path d="M321.821 32.6661C320.704 32.9655 319.638 33.4285 318.656 34.0401C317.638 34.6761 316.696 35.4279 315.85 36.2803C315.708 36.4217 315.572 36.579 315.432 36.7274V32.2778L309.341 33.1739V63.3424H315.432V40.7727C315.894 40.4541 316.361 40.1554 316.835 39.8946C317.433 39.5653 318.051 39.2759 318.687 39.0284C319.303 38.7894 319.93 38.5803 320.567 38.4011C321.223 38.2188 321.891 38.0889 322.568 38.0128C323.291 37.9333 324.02 37.9134 324.747 37.953L325.464 32.3375C324.24 32.2495 323.01 32.3605 321.821 32.6661Z" fill="#9FDAF5"/>
<path d="M356.098 59.5788C355.661 59.619 355.222 59.5531 354.816 59.3867C354.411 59.2203 354.051 58.9582 353.769 58.6229C353.215 57.666 352.985 56.556 353.112 55.4577L353.232 43.1504C353.245 41.8602 353.084 40.5742 352.754 39.327C352.464 38.2333 351.978 37.2011 351.321 36.2803C350.657 35.3798 349.813 34.6271 348.843 34.07C347.716 33.43 346.497 32.9666 345.23 32.696C343.68 32.361 342.098 32.2007 340.513 32.218C339.255 32.2175 337.998 32.2973 336.751 32.457C335.572 32.6054 334.405 32.8349 333.257 33.144C332.193 33.4327 331.147 33.7818 330.122 34.1894L329.406 39.2673C330.401 38.9089 331.347 38.6102 332.243 38.3712C333.14 38.1322 334.005 37.9331 334.84 37.7738C335.659 37.6172 336.486 37.5075 337.318 37.4452C338.133 37.3855 338.939 37.3556 339.736 37.3556C340.954 37.33 342.169 37.4707 343.349 37.7738C344.21 37.9889 345.001 38.4208 345.648 39.0283C346.224 39.6191 346.636 40.3501 346.842 41.1491C347.097 42.1343 347.217 43.1494 347.201 44.1669L347.194 45.6604L340.214 46.1324C337.827 46.1993 335.475 46.7267 333.287 47.6856C331.65 48.4025 330.237 49.5479 329.197 51.0011C328.314 52.2946 327.846 53.8259 327.853 55.392C327.842 56.8615 328.201 58.31 328.898 59.6036C329.629 60.9325 330.728 62.0216 332.063 62.74C333.692 63.5877 335.513 63.9993 337.348 63.9348C339.067 63.9743 340.779 63.6906 342.394 63.0984C343.79 62.5522 345.067 61.7408 346.156 60.7088C346.569 60.3125 346.961 59.8947 347.33 59.4573C347.446 60.0759 347.665 60.6708 347.977 61.2176C348.509 62.1319 349.328 62.8456 350.306 63.2487C351.387 63.6832 352.544 63.8965 353.709 63.876C354.068 63.876 354.416 63.8651 354.754 63.8451C355.087 63.8261 355.417 63.7761 355.74 63.6958C356.058 63.6161 356.346 63.5465 356.605 63.4867C356.839 63.4345 357.069 63.3646 357.292 63.2776L357.949 59.2751C357.619 59.3885 357.279 59.4689 356.934 59.515C356.657 59.5517 356.377 59.5713 356.098 59.5738M346.156 56.8855C345.508 57.3977 344.808 57.8383 344.066 58.1998C343.327 58.5591 342.544 58.8205 341.738 58.9774C340.901 59.1382 340.051 59.2179 339.199 59.2153C338.226 59.2431 337.258 59.0597 336.362 58.6777C335.634 58.3616 335.019 57.8305 334.601 57.1553C334.187 56.4388 333.981 55.6216 334.004 54.7946C333.946 53.7987 334.219 52.8116 334.78 51.9868C335.43 51.2278 336.311 50.7031 337.288 50.4934C338.814 50.1345 340.38 49.9742 341.947 50.0164H347.175L347.148 55.9446C346.844 56.2863 346.511 56.6011 346.153 56.8855" fill="#9FDAF5"/>
<path d="M384.345 33.6687C384.285 33.6448 384.228 33.6159 384.166 33.593C383.05 33.1717 381.902 32.8417 380.733 32.6063C379.366 32.3375 377.976 32.2077 376.583 32.219C373.929 32.1986 371.321 32.9026 369.038 34.2553C366.754 35.608 364.883 37.558 363.626 39.8955C362.156 42.701 361.436 45.8389 361.536 49.0048C361.467 51.7383 362.008 54.4527 363.118 56.9512C364.087 59.0844 365.666 60.8823 367.656 62.1177C369.797 63.3781 372.25 64.0096 374.733 63.9397C376.256 63.9484 377.773 63.7474 379.241 63.3423C380.704 62.9215 382.101 62.2981 383.391 61.4904C383.838 61.2136 384.287 60.9049 384.732 60.5804L385.482 63.3423H390.437V18.2987L384.346 19.135L384.345 33.6687ZM381.151 58.2356C379.789 58.7716 378.344 59.0647 376.881 59.1018C375.175 59.1516 373.486 58.7494 371.985 57.9359C370.588 57.1104 369.498 55.8521 368.88 54.3515C368.105 52.4268 367.739 50.3618 367.805 48.2879C367.735 46.1631 368.143 44.0498 368.999 42.1039C369.728 40.5253 370.927 39.211 372.433 38.3413C374.07 37.4488 375.913 37.0054 377.777 37.0559C378.736 37.0538 379.694 37.1237 380.643 37.265C381.585 37.4108 382.513 37.6309 383.42 37.9231C383.711 38.0157 384.033 38.1392 384.345 38.2527V56.6654C383.33 57.2843 382.261 57.8098 381.151 58.2356Z" fill="#9FDAF5"/>
<path d="M404.973 19.7623C404.353 19.3835 403.639 19.1868 402.913 19.1948C402.178 19.1891 401.455 19.3854 400.823 19.7623C400.201 20.1269 399.678 20.64 399.302 21.2558C398.922 21.8757 398.725 22.59 398.733 23.3168C398.732 24.0461 398.926 24.7625 399.293 25.3924C399.66 26.0223 400.188 26.5431 400.823 26.9012C401.461 27.2598 402.182 27.4452 402.913 27.4389C403.636 27.4475 404.347 27.2618 404.973 26.9012C405.587 26.5457 406.093 26.0293 406.437 25.4077C406.795 24.7695 406.98 24.0487 406.974 23.3168C406.982 22.5941 406.797 21.8824 406.437 21.2558C406.081 20.6431 405.578 20.1295 404.973 19.7623Z" fill="#9FDAF5"/>
<path d="M399.748 63.3433H405.838V32.2788L399.748 33.1748V63.3433Z" fill="#9FDAF5"/>
<path d="M442.144 39.5361C440.954 37.2517 439.115 35.3705 436.859 34.1297C434.337 32.8626 431.553 32.2077 428.731 32.2181C425.909 32.2285 423.13 32.9038 420.618 34.1894C418.311 35.4814 416.424 37.41 415.183 39.7452C413.835 42.3652 413.168 45.2825 413.243 48.2282C413.167 51.1509 413.791 54.0493 415.063 56.6814C416.207 58.9787 418.032 60.8668 420.288 62.0878C422.717 63.3614 425.429 63.9986 428.171 63.9397C431.041 63.9969 433.878 63.3182 436.412 61.9683C438.777 60.6772 440.717 58.7263 441.995 56.3528C443.381 53.7017 444.069 50.7411 443.995 47.7503C444.062 44.9017 443.427 42.0803 442.144 39.5361ZM436.5 54.1424C435.831 55.6953 434.693 57.0005 433.247 57.8762C431.794 58.708 430.144 59.1312 428.47 59.1008C426.829 59.1417 425.211 58.7059 423.812 57.8463C422.429 56.9262 421.348 55.6165 420.708 54.0827C419.896 52.1152 419.51 49.9975 419.577 47.8698C419.506 45.7994 419.894 43.739 420.712 41.8361C421.381 40.3402 422.497 39.0882 423.906 38.2517C425.413 37.4218 427.114 37.0093 428.833 37.0569C430.175 37.0236 431.509 37.2782 432.744 37.8037C433.826 38.2923 434.77 39.0414 435.491 39.9842C436.261 41.0088 436.819 42.1765 437.133 43.4192C437.506 44.8729 437.687 46.3691 437.671 47.8698C437.74 50.0204 437.342 52.1604 436.505 54.1424" fill="#9FDAF5"/>
</svg>
