<svg width="763" height="69" viewBox="0 0 763 69" fill="none" xmlns="http://www.w3.org/2000/svg">
<path d="M0 55V13.0038H13.7802V55H0ZM32.5283 19.6877L40.4532 55H25.3721L15.9092 13.0038H24.3676C26.3072 12.9786 28.1892 13.6624 29.6607 14.9264C31.1347 16.1373 32.1473 17.8184 32.5283 19.6877ZM42.5233 55V13.0038H56.3035V55H42.5233ZM66.7116 28.9743C65.2267 28.9888 63.7656 28.6003 62.4839 27.8504C61.2193 27.1194 60.1688 26.0689 59.438 24.8041C58.6872 23.5222 58.2986 22.0607 58.3134 20.5751C58.2964 19.0986 58.6853 17.6458 59.438 16.3755C60.1766 15.1245 61.2259 14.0853 62.4839 13.3588C63.766 12.6098 65.2269 12.2213 66.7116 12.2348C68.1877 12.2189 69.6399 12.6078 70.9108 13.3588C72.1562 14.0917 73.1943 15.13 73.9271 16.3755C74.6789 17.6462 75.0677 19.0987 75.0517 20.5751C75.0655 22.0605 74.6769 23.5218 73.9271 24.8041C73.202 26.0633 72.1627 27.113 70.9108 27.8504C69.6398 28.6029 68.1866 28.9918 66.7097 28.9743H66.7116ZM77.1807 55V13.0038H90.9621V55H77.1807ZM108.408 35.9538C108.447 35.9946 108.742 36.4776 109.295 37.403C109.848 38.3283 110.567 39.5114 111.454 40.952C112.341 42.392 113.277 43.9199 114.262 45.536C115.247 47.1521 116.174 48.6803 117.043 50.1202C117.908 51.5602 118.894 53.1867 120 55H104.859C103.912 53.4621 103.055 52.0721 102.286 50.83C101.517 49.5878 100.7 48.2471 99.8334 46.8077C98.9653 45.3698 98.1071 43.9699 97.2587 42.6081C96.4103 41.2464 95.6813 40.0536 95.0714 39.0297C94.459 38.0051 94.0348 37.3149 93.7989 36.9594C93.2139 36.0771 92.8677 35.058 92.7944 34.0019C92.853 32.9883 93.1791 32.0084 93.7397 31.1619C93.9762 30.7676 94.41 30.0675 95.0409 29.062C95.6717 28.0564 96.411 26.8637 97.2587 25.4835C98.1064 24.1034 98.9647 22.6936 99.8334 21.2543C100.702 19.815 101.519 18.4643 102.286 17.2025C103.056 15.9419 103.914 14.5421 104.859 13.0029H120L108.289 32.1082C107.926 32.6755 107.722 33.3292 107.697 34.0019C107.736 34.7081 107.983 35.3871 108.406 35.9538H108.408Z" fill="white"/>
<path d="M168.112 12.7435H160.665L144.48 31.3909H142.256V12.7435H136V55.0429H142.256V35.9188H142.465L160.069 55.1024L168.588 55.0429L148.391 34.0719L168.112 12.7435Z" fill="white"/>
<path d="M185.803 24.4503C184.689 24.7489 183.625 25.2107 182.647 25.8205C181.63 26.4555 180.69 27.2051 179.845 28.0546C179.705 28.1956 179.568 28.3526 179.428 28.5006V24.0631L173.352 24.9567V55.0429H179.428V32.5359C179.88 32.2201 180.348 31.9274 180.83 31.659C181.426 31.3309 182.042 31.0423 182.676 30.7952C183.291 30.5569 183.917 30.3483 184.553 30.1696C185.207 29.9877 185.874 29.8582 186.548 29.7824C187.27 29.7031 187.998 29.6833 188.723 29.7228L189.438 24.1226C188.217 24.0354 186.989 24.1461 185.803 24.4503Z" fill="white"/>
<path d="M194.979 55.0429H201.056V24.0631L194.979 24.9567V55.0429Z" fill="white"/>
<path d="M200.192 11.5817C199.574 11.2038 198.861 11.0077 198.137 11.0158C197.403 11.0101 196.681 11.2058 196.051 11.5817C195.43 11.9457 194.908 12.4573 194.532 13.0711C194.154 13.6896 193.958 14.4019 193.966 15.1266C193.96 15.8604 194.156 16.5817 194.532 17.2118C194.896 17.8352 195.421 18.3495 196.051 18.7012C196.688 19.059 197.407 19.2437 198.137 19.2373C198.857 19.246 199.567 19.0609 200.192 18.7012C200.805 18.3468 201.31 17.8318 201.652 17.2118C202.009 16.5755 202.194 15.8566 202.188 15.1266C202.196 14.4058 202.011 13.6959 201.652 13.0711C201.298 12.4602 200.796 11.948 200.192 11.5817Z" fill="white"/>
<path d="M233.704 25.2546C231.934 24.3608 229.966 23.9304 227.985 24.0034C226.255 24.0067 224.536 24.2781 222.89 24.8078C221.193 25.3483 219.58 26.1201 218.095 27.1014C217.519 27.4797 216.967 27.8957 216.426 28.3237V24.0631L210.349 24.9566V55.0429H216.426V32.4167C217.014 32.0719 217.62 31.7593 218.243 31.4803C219.08 31.11 219.935 30.782 220.804 30.4973C221.641 30.2245 222.498 30.0153 223.366 29.8718C224.184 29.7363 225.011 29.6665 225.84 29.6632C226.812 29.6406 227.78 29.792 228.699 30.1101C229.457 30.3833 230.134 30.8445 230.664 31.4505C231.212 32.1076 231.599 32.8825 231.797 33.7145C232.051 34.7676 232.171 35.8485 232.154 36.9316V55.0429H238.231V35.6805C238.31 33.422 237.925 31.1713 237.1 29.0674C236.426 27.4522 235.231 26.1096 233.704 25.2546Z" fill="white"/>
<path d="M266.32 24.778C265.41 24.5287 264.484 24.3396 263.55 24.2119C262.483 24.0686 261.408 23.999 260.332 24.0034C258.389 23.9955 256.464 24.3805 254.673 25.1354C252.878 25.8955 251.249 26.9984 249.877 28.3824C248.414 29.8748 247.287 31.6621 246.57 33.625C245.739 35.9255 245.335 38.3585 245.379 40.8041C245.313 43.4946 245.831 46.1674 246.898 48.6384C247.831 50.752 249.377 52.5367 251.336 53.7619C253.48 55.0264 255.939 55.6566 258.426 55.5791C260.611 55.5713 262.775 55.1467 264.801 54.328C266.011 53.8351 267.153 53.1869 268.197 52.3997V54.0301C268.22 55.3723 268.03 56.7098 267.632 57.9919C267.288 59.0675 266.696 60.0471 265.903 60.8516C265.05 61.6717 264.005 62.2656 262.865 62.5793C261.381 62.9869 259.845 63.1776 258.307 63.1453C257.083 63.1435 255.859 63.0738 254.643 62.9367C253.366 62.7928 252.101 62.5539 250.86 62.2218C249.581 61.8815 248.327 61.4535 247.106 60.9409L247.762 66.1837C248.857 66.6282 249.982 66.9964 251.128 67.2858C252.334 67.5902 253.557 67.8191 254.792 67.971C256.096 68.1314 257.41 68.211 258.724 68.2093C261.656 68.3011 264.57 67.7203 267.243 66.5114C269.413 65.5004 271.23 63.8605 272.456 61.8048C273.656 59.6915 274.263 57.2936 274.214 54.8641V24.0034L268.387 25.5038C267.714 25.2189 267.024 24.9765 266.32 24.778ZM267.422 48.6384C266.684 49.0676 265.918 49.4457 265.128 49.7703C264.433 50.056 263.716 50.2852 262.984 50.4555C262.27 50.6168 261.541 50.6968 260.809 50.6938C259.02 50.7586 257.244 50.3583 255.656 49.532C254.271 48.7418 253.199 47.5014 252.617 46.0171C251.899 44.0846 251.565 42.0304 251.634 39.9699C251.608 38.3256 251.839 36.6872 252.319 35.1144C252.71 33.822 253.381 32.632 254.285 31.6293C255.167 30.6979 256.246 29.9753 257.443 29.5143C258.803 28.9989 260.249 28.7462 261.703 28.7696C262.641 28.7689 263.578 28.8486 264.503 29.0079C265.45 29.1754 266.385 29.4042 267.303 29.693C267.595 29.7843 267.899 29.9055 268.197 30.0167V48.1826C267.935 48.3365 267.667 48.4974 267.422 48.6384Z" fill="white"/>
<path d="M309.364 24.6589H301.917L291.723 35.8592H289.525V10.0625L283.448 10.9562V55.0429H289.525V40.4467H289.624L301.797 55.0429H309.661L295.21 38.7586L309.364 24.6589Z" fill="white"/>
<path d="M340.523 51.2895C340.087 51.3298 339.649 51.2641 339.244 51.0981C338.839 50.9322 338.481 50.6708 338.199 50.3363C337.646 49.3819 337.416 48.2744 337.544 47.1787L337.663 34.9059C337.676 33.6193 337.516 32.3367 337.185 31.0931C336.896 30.0023 336.412 28.9728 335.757 28.0546C335.093 27.1572 334.251 26.4067 333.284 25.8503C332.16 25.2124 330.944 24.7503 329.68 24.48C328.134 24.1466 326.555 23.9868 324.973 24.0034C323.718 24.0029 322.464 24.0825 321.219 24.2417C320.043 24.3896 318.879 24.6186 317.735 24.9269C316.673 25.2149 315.628 25.5629 314.606 25.9694L313.891 31.0334C314.884 30.676 315.828 30.3782 316.722 30.1399C317.616 29.9016 318.48 29.7029 319.312 29.544C320.13 29.3879 320.956 29.2785 321.786 29.2164C322.599 29.1568 323.403 29.1271 324.198 29.1271C325.413 29.1014 326.625 29.2416 327.802 29.544C328.661 29.759 329.451 30.1897 330.097 30.7951C330.671 31.3845 331.082 32.1135 331.288 32.9101C331.542 33.8925 331.662 34.9044 331.645 35.9188L331.639 37.4141L324.675 37.8848C322.294 37.952 319.947 38.478 317.765 39.4338C316.131 40.1487 314.721 41.2909 313.682 42.7403C312.802 44.0304 312.335 45.5575 312.343 47.1192C312.331 48.5847 312.69 50.0294 313.386 51.3193C314.114 52.6448 315.21 53.7311 316.542 54.4471C318.168 55.2924 319.984 55.7028 321.816 55.6386C323.531 55.6781 325.238 55.3952 326.849 54.8046C328.242 54.2594 329.517 53.4502 330.603 52.4215C331.015 52.0262 331.406 51.6096 331.775 51.1734C331.89 51.7902 332.109 52.3832 332.42 52.9279C332.951 53.8402 333.767 54.5522 334.743 54.9535C335.822 55.3868 336.976 55.5995 338.139 55.5791C338.497 55.5791 338.844 55.5691 339.181 55.5493C339.513 55.5303 339.842 55.4804 340.164 55.4003C340.483 55.3209 340.77 55.2514 341.029 55.1918C341.262 55.1396 341.491 55.0698 341.714 54.9832L342.369 50.9917C342.04 51.1046 341.701 51.1844 341.357 51.23C341.08 51.2668 340.802 51.2866 340.523 51.2895ZM330.603 48.6086C329.957 49.119 329.258 49.5584 328.518 49.9193C327.781 50.2777 327 50.5381 326.195 50.6938C325.36 50.855 324.512 50.9348 323.662 50.9321C322.691 50.9598 321.726 50.7769 320.833 50.3958C320.105 50.0802 319.492 49.5503 319.074 48.8767C318.662 48.1623 318.456 47.3478 318.478 46.5235C318.42 45.5302 318.693 44.5456 319.253 43.7233C319.901 42.9667 320.78 42.4436 321.754 42.2339C323.276 41.8756 324.839 41.7155 326.402 41.7573H331.618L331.592 47.6713C331.289 48.0109 330.959 48.3244 330.603 48.6086Z" fill="white"/>
<path d="M366.854 41.3403C366.243 40.6942 365.541 40.1422 364.768 39.702C363.969 39.2441 363.131 38.8554 362.265 38.5402C361.631 38.3417 361.006 38.1331 360.39 37.9147C359.773 37.6962 359.157 37.4977 358.542 37.3189C357.926 37.1402 357.33 36.9515 356.754 36.7529C356.214 36.5697 355.687 36.3508 355.177 36.0976C354.686 35.8377 354.218 35.5389 353.775 35.204C353.367 34.8964 353.024 34.5118 352.764 34.072C352.501 33.6204 352.366 33.1052 352.375 32.5826C352.36 32.0082 352.504 31.4408 352.793 30.9442C353.104 30.4564 353.535 30.0564 354.045 29.7824C354.668 29.4404 355.342 29.1991 356.04 29.0675C356.914 28.9 357.802 28.8202 358.692 28.8292C359.128 28.8292 359.604 28.8501 360.121 28.8889C360.639 28.9276 361.203 28.999 361.819 29.0973C362.436 29.1956 363.05 29.3267 363.665 29.4846C364.281 29.6425 364.906 29.8222 365.543 30.0208C366.132 30.2023 366.709 30.4211 367.27 30.6761L367.688 25.8504C366.932 25.534 366.187 25.256 365.453 25.0164C364.72 24.7791 363.974 24.5803 363.219 24.4206C362.482 24.265 361.736 24.1555 360.985 24.0929C360.249 24.0333 359.524 24.0035 358.811 24.0035C357.165 23.9867 355.524 24.1768 353.926 24.5695C352.559 24.9024 351.259 25.4666 350.083 26.2377C349.016 26.943 348.146 27.9061 347.551 29.0377C346.928 30.2848 346.621 31.6657 346.657 33.0592C346.639 34.0628 346.801 35.0616 347.135 36.0082C347.417 36.8027 347.841 37.5396 348.386 38.1828C348.915 38.7909 349.527 39.3222 350.203 39.7615C350.906 40.224 351.655 40.6133 352.437 40.9233C352.873 41.0835 353.329 41.2424 353.807 41.3999C354.284 41.5598 354.75 41.7087 355.207 41.8467C355.665 41.9847 356.11 42.1248 356.547 42.2638C356.984 42.4028 357.412 42.5419 357.828 42.6809C358.244 42.8199 358.653 42.9489 359.05 43.068C359.583 43.2569 360.1 43.486 360.598 43.7532C361.035 43.9847 361.445 44.2645 361.82 44.5872C362.15 44.8752 362.414 45.2309 362.594 45.6299C362.777 46.0424 362.868 46.4894 362.863 46.9405C362.884 47.3812 362.807 47.8211 362.637 48.2281C362.467 48.6352 362.208 48.9992 361.88 49.2938C361.142 49.91 360.261 50.33 359.317 50.5151C358.212 50.7591 357.084 50.8791 355.952 50.8727C355.245 50.8682 354.538 50.8185 353.837 50.7237C353.063 50.6257 352.248 50.4867 351.394 50.3066C350.541 50.1266 349.667 49.9081 348.772 49.6512C347.879 49.3944 346.976 49.1064 346.062 48.7874L346.301 53.8515C347.332 54.209 348.275 54.4969 349.13 54.7153C349.986 54.9338 350.8 55.1224 351.573 55.2813C352.319 55.4365 353.076 55.5361 353.837 55.5792C354.571 55.6189 355.316 55.6387 356.071 55.6387C357.732 55.6471 359.39 55.4774 361.015 55.1323C362.446 54.8419 363.816 54.3079 365.066 53.5536C366.193 52.8656 367.127 51.9019 367.778 50.7534C368.46 49.4929 368.799 48.0754 368.76 46.6427C368.785 45.5973 368.613 44.5564 368.254 43.5744C367.933 42.7474 367.458 41.9892 366.854 41.3403Z" fill="white"/>
<path d="M391.723 50.247L390.711 50.4257C390.385 50.4837 390.057 50.5235 389.727 50.5448C389.409 50.5657 389.11 50.5747 388.833 50.5747C387.92 50.5997 387.014 50.4163 386.182 50.0384C385.467 49.7001 384.874 49.1486 384.484 48.4597C384.067 47.6827 383.861 46.8093 383.889 45.9276V29.4249H392.289L392.945 24.6589H383.889V15.2458L377.812 17.3904V24.6589H373.224L372.569 29.4249H377.812V47.1788C377.785 48.3629 377.967 49.5426 378.348 50.664C378.655 51.5512 379.131 52.3706 379.749 53.0769C380.316 53.7063 381.005 54.2131 381.774 54.5663C382.562 54.9282 383.393 55.1885 384.246 55.3408C385.091 55.497 385.948 55.5768 386.808 55.5791C387.443 55.5791 388.068 55.5592 388.686 55.5195C389.303 55.4798 389.866 55.4203 390.383 55.3408C390.899 55.2614 391.385 55.172 391.842 55.0727C392.299 54.9734 392.686 54.885 393.004 54.8046L393.361 49.8598C393.13 49.9492 392.891 50.019 392.647 50.0683C392.371 50.1278 392.063 50.1875 391.723 50.247Z" fill="white"/>
<path d="M399.68 55.0429H405.757V24.0631L399.68 24.9567V55.0429Z" fill="white"/>
<path d="M404.893 11.5817C404.275 11.2039 403.563 11.0078 402.839 11.0158C402.105 11.0102 401.384 11.2059 400.754 11.5817C400.133 11.9456 399.611 12.4572 399.236 13.0711C398.857 13.6893 398.661 14.4018 398.669 15.1266C398.663 15.8605 398.859 16.5819 399.236 17.2118C399.599 17.8351 400.123 18.3494 400.754 18.7012C401.39 19.0588 402.109 19.2435 402.839 19.2373C403.559 19.2459 404.269 19.0608 404.893 18.7012C405.506 18.3465 406.011 17.8316 406.354 17.2118C406.711 16.5753 406.896 15.8565 406.89 15.1266C406.898 14.4059 406.713 13.6961 406.354 13.0711C405.999 12.4603 405.497 11.9482 404.893 11.5817Z" fill="white"/>
<path d="M438.405 25.2546C436.635 24.3608 434.667 23.9304 432.686 24.0034C430.956 24.0067 429.238 24.2781 427.591 24.8078C425.895 25.3485 424.281 26.1202 422.796 27.1014C422.22 27.4797 421.668 27.8957 421.127 28.3237V24.0631L415.05 24.9566V55.0429H421.127V32.4167C421.715 32.0717 422.322 31.7591 422.945 31.4803C423.782 31.1097 424.637 30.7816 425.507 30.4973C426.344 30.2242 427.2 30.0151 428.069 29.8718C428.886 29.7362 429.713 29.6664 430.541 29.6632C431.513 29.6406 432.482 29.792 433.401 30.1101C434.159 30.383 434.835 30.8443 435.366 31.4505C435.914 32.1073 436.301 32.8823 436.499 33.7145C436.752 34.7676 436.872 35.8485 436.855 36.9316V55.0429H442.932V35.6805C443.011 33.422 442.627 31.1712 441.801 29.0674C441.128 27.4522 439.932 26.1096 438.405 25.2546Z" fill="white"/>
<path d="M471.022 24.778C470.112 24.5287 469.187 24.3396 468.252 24.2119C467.186 24.0686 466.111 23.999 465.035 24.0034C463.091 23.9955 461.166 24.3805 459.375 25.1354C457.581 25.8955 455.951 26.9984 454.579 28.3824C453.117 29.875 451.99 31.6622 451.273 33.625C450.442 35.9255 450.038 38.3585 450.081 40.8041C450.015 43.4945 450.533 46.1673 451.599 48.6384C452.533 50.7521 454.08 52.5368 456.039 53.7619C458.182 55.0265 460.64 55.6567 463.128 55.5791C465.313 55.5713 467.476 55.1467 469.502 54.328C470.713 53.8351 471.854 53.1869 472.898 52.3997V54.0301C472.922 55.3724 472.732 56.7099 472.333 57.9919C471.989 59.0673 471.397 60.0468 470.605 60.8516C469.752 61.6715 468.707 62.2654 467.566 62.5793C466.082 62.9869 464.547 63.1776 463.008 63.1453C461.784 63.1435 460.562 63.0738 459.345 62.9367C458.068 62.7929 456.803 62.554 455.561 62.2218C454.282 61.8815 453.028 61.4535 451.808 60.9409L452.463 66.1837C453.559 66.6283 454.684 66.9966 455.83 67.2858C457.036 67.5903 458.259 67.8192 459.493 67.971C460.798 68.1314 462.111 68.211 463.425 68.2093C466.358 68.3012 469.272 67.7204 471.945 66.5114C474.115 65.5007 475.931 63.8607 477.158 61.8048C478.358 59.6916 478.965 57.2937 478.916 54.8641V24.0034L473.089 25.5038C472.416 25.2189 471.726 24.9765 471.022 24.778ZM472.125 48.6384C471.387 49.0678 470.62 49.4459 469.831 49.7703C469.136 50.056 468.418 50.2852 467.686 50.4555C466.973 50.6168 466.244 50.6967 465.512 50.6938C463.723 50.7585 461.947 50.3582 460.358 49.532C458.974 48.742 457.902 47.5015 457.321 46.0171C456.602 44.0846 456.268 42.0304 456.337 39.9699C456.31 38.3256 456.541 36.6873 457.022 35.1144C457.412 33.822 458.084 32.6319 458.988 31.6293C459.87 30.6979 460.949 29.9753 462.146 29.5143C463.506 28.9989 464.951 28.7462 466.405 28.7696C467.344 28.7688 468.28 28.8485 469.205 29.0079C470.153 29.1755 471.088 29.4043 472.006 29.693C472.297 29.7843 472.602 29.9055 472.9 30.0167V48.1826C472.638 48.3365 472.37 48.4974 472.125 48.6384Z" fill="white"/>
<path d="M506.976 41.3403C506.366 40.694 505.663 40.142 504.891 39.702C504.091 39.2441 503.253 38.8554 502.387 38.5402C501.753 38.3417 501.127 38.1331 500.512 37.9147C499.896 37.6962 499.28 37.4977 498.664 37.3189C498.048 37.1402 497.453 36.9515 496.877 36.7529C496.336 36.5699 495.809 36.351 495.298 36.0976C494.808 35.838 494.34 35.5391 493.898 35.204C493.49 34.8964 493.146 34.5118 492.885 34.072C492.622 33.6204 492.487 33.1052 492.497 32.5826C492.481 32.0082 492.626 31.4408 492.915 30.9442C493.226 30.4569 493.657 30.057 494.166 29.7824C494.79 29.4407 495.463 29.1994 496.162 29.0675C497.035 28.9 497.923 28.8202 498.813 28.8292C499.249 28.8292 499.726 28.8501 500.243 28.8889C500.759 28.9276 501.324 28.999 501.941 29.0973C502.557 29.1956 503.171 29.3267 503.788 29.4846C504.404 29.6425 505.029 29.8222 505.664 30.0208C506.253 30.2022 506.83 30.421 507.391 30.6761L507.809 25.8504C507.054 25.534 506.31 25.256 505.575 25.0164C504.841 24.7791 504.095 24.5802 503.341 24.4206C502.604 24.2648 501.858 24.1553 501.107 24.0929C500.371 24.0333 499.646 24.0035 498.932 24.0035C497.286 23.9867 495.645 24.1768 494.047 24.5695C492.68 24.9023 491.381 25.4666 490.204 26.2377C489.138 26.9433 488.267 27.9063 487.672 29.0377C487.049 30.2848 486.742 31.6657 486.778 33.0592C486.76 34.0628 486.921 35.0616 487.255 36.0082C487.537 36.8028 487.961 37.5396 488.506 38.1828C489.035 38.7909 489.647 39.3223 490.323 39.7615C491.026 40.224 491.775 40.6133 492.557 40.9233C492.993 41.0835 493.45 41.2424 493.928 41.3999C494.406 41.5575 494.872 41.7064 495.328 41.8467C495.783 41.9864 496.23 42.1254 496.668 42.2638C497.104 42.4038 497.532 42.5419 497.949 42.6809C498.366 42.8199 498.773 42.9489 499.17 43.068C499.703 43.2569 500.221 43.486 500.719 43.7532C501.156 43.9849 501.566 44.2646 501.941 44.5872C502.27 44.8752 502.534 45.2309 502.714 45.6299C502.897 46.0424 502.989 46.4894 502.983 46.9405C503.005 47.3812 502.927 47.821 502.757 48.2281C502.587 48.6352 502.329 48.9992 502 49.2938C501.263 49.91 500.381 50.33 499.438 50.5151C498.333 50.759 497.204 50.879 496.072 50.8727C495.365 50.8683 494.658 50.8185 493.957 50.7237C493.183 50.6257 492.369 50.4867 491.515 50.3066C490.661 50.1266 489.787 49.9081 488.893 49.6512C488 49.3944 487.096 49.1064 486.183 48.7874L486.421 53.8515C487.453 54.2089 488.396 54.4969 489.251 54.7153C490.105 54.9338 490.92 55.1224 491.694 55.2813C492.44 55.4365 493.196 55.5361 493.957 55.5792C494.691 55.6189 495.436 55.6387 496.191 55.6387C497.853 55.6471 499.511 55.4773 501.137 55.1323C502.567 54.8417 503.937 54.3077 505.188 53.5536C506.314 52.8654 507.247 51.9017 507.898 50.7534C508.58 49.4929 508.919 48.0754 508.88 46.6427C508.905 45.5974 508.733 44.5566 508.375 43.5744C508.054 42.7477 507.58 41.9895 506.976 41.3403Z" fill="white"/>
<path d="M537.748 25.9149C535.266 24.5962 532.486 23.9395 529.676 24.0084C526.84 23.9439 524.036 24.6216 521.542 25.9744C519.241 27.263 517.359 29.1863 516.121 31.515C514.776 34.128 514.111 37.0372 514.185 39.9749C514.109 42.8897 514.732 45.7802 516.002 48.405C517.143 50.6963 518.963 52.5794 521.215 53.7967C523.638 55.0668 526.344 55.7021 529.079 55.6436C531.943 55.7004 534.773 55.0236 537.301 53.6776C539.662 52.3899 541.597 50.4443 542.872 48.0773C544.255 45.4336 544.942 42.4811 544.868 39.4983C544.936 36.6572 544.301 33.8433 543.02 31.3065C541.833 29.0286 539.999 27.1527 537.748 25.9149ZM537.39 45.873C536.721 47.4213 535.587 48.7227 534.144 49.5966C532.694 50.426 531.048 50.848 529.378 50.8179C527.74 50.8588 526.126 50.4242 524.731 49.5668C523.35 48.6492 522.272 47.3431 521.633 45.8134C520.822 43.8512 520.437 41.7395 520.502 39.6174C520.431 37.5529 520.817 35.4983 521.633 33.6003C522.301 32.1086 523.414 30.86 524.82 30.0256C526.323 29.1983 528.02 28.7871 529.735 28.8341C531.074 28.8007 532.405 29.0546 533.638 29.5788C534.717 30.0658 535.659 30.8131 536.379 31.7534C537.147 32.7754 537.703 33.9398 538.016 35.179C538.389 36.6286 538.569 38.1208 538.553 39.6174C538.622 41.7623 538.224 43.8967 537.388 45.873H537.39Z" fill="white"/>
<path d="M564.705 24.4503C563.59 24.7489 562.526 25.2107 561.547 25.8205C560.531 26.4555 559.592 27.2052 558.747 28.0546C558.607 28.1956 558.47 28.3526 558.33 28.5006V24.0631L552.253 24.9567V55.0429H558.33V32.5359C558.782 32.2204 559.249 31.9277 559.73 31.659C560.326 31.3309 560.944 31.0423 561.578 30.7952C562.193 30.5569 562.818 30.3483 563.453 30.1696C564.107 29.9879 564.775 29.8584 565.449 29.7824C566.172 29.7031 566.899 29.6833 567.625 29.7228L568.339 24.1226C567.118 24.0355 565.89 24.1461 564.705 24.4503Z" fill="white"/>
<path d="M599.795 24.6589H592.348L582.154 35.8592H579.956V10.0625L573.879 10.9562V55.0429H579.956V40.4467H580.056L592.228 55.0429H600.092L585.641 38.7586L599.795 24.6589Z" fill="white"/>
<path d="M628.214 28.5016C627.07 27.0193 625.561 25.8594 623.835 25.1355C621.916 24.3524 619.859 23.9673 617.788 24.0035C615.701 23.9682 613.63 24.3742 611.711 25.195C609.965 25.9593 608.409 27.0984 607.153 28.5314C605.859 30.0368 604.886 31.7903 604.292 33.6847C603.614 35.8531 603.282 38.1152 603.31 40.3871C603.226 43.2578 603.828 46.1073 605.068 48.698C606.199 50.944 608.029 52.7625 610.281 53.8812C612.923 55.1263 615.822 55.7286 618.741 55.6387C620.146 55.6508 621.549 55.5612 622.941 55.3706C624.104 55.2031 625.25 54.9341 626.367 54.5664C627.473 54.1948 628.549 53.7366 629.584 53.1961L630.001 48.6087C629.245 48.888 628.481 49.166 627.706 49.4427C626.932 49.7194 626.128 49.9677 625.294 50.1874C624.453 50.4077 623.597 50.5669 622.732 50.664C621.862 50.7636 620.987 50.8134 620.111 50.813C618.547 50.8388 616.985 50.6686 615.463 50.3066C614.235 50.0131 613.099 49.4195 612.157 48.5789C611.205 47.6724 610.507 46.5325 610.132 45.2724C609.743 43.9962 609.524 42.6739 609.483 41.3403H631.012C631.306 38.8764 631.196 36.3811 630.685 33.9528C630.266 31.978 629.423 30.118 628.214 28.5016ZM613.2 29.9314C614.598 29.0826 616.212 28.6583 617.847 28.7101C619.483 28.6283 621.1 29.1006 622.435 30.0505C623.621 30.9974 624.467 32.3042 624.846 33.774C625.144 34.8608 625.291 35.9835 625.281 37.1103H609.614C609.724 35.9224 609.978 34.7521 610.369 33.6251C610.879 32.115 611.874 30.8162 613.2 29.9314Z" fill="white"/>
<path d="M657.285 41.3403C656.675 40.6939 655.972 40.1419 655.2 39.702C654.4 39.2441 653.562 38.8554 652.697 38.5402C652.062 38.3417 651.436 38.1331 650.821 37.9147C650.205 37.6962 649.589 37.4977 648.973 37.3189C648.357 37.1402 647.762 36.9515 647.186 36.7529C646.646 36.5697 646.119 36.3508 645.608 36.0976C645.117 35.8378 644.649 35.5389 644.207 35.204C643.799 34.8961 643.455 34.5116 643.195 34.072C642.932 33.6204 642.798 33.1052 642.807 32.5826C642.791 32.0082 642.936 31.4408 643.225 30.9442C643.536 30.4567 643.967 30.0568 644.476 29.7824C645.099 29.4405 645.773 29.1992 646.472 29.0675C647.345 28.9 648.233 28.8202 649.123 28.8292C649.559 28.8292 650.036 28.8501 650.553 28.8889C651.069 28.9276 651.634 28.999 652.251 29.0973C652.867 29.1956 653.481 29.3267 654.096 29.4846C654.712 29.6425 655.338 29.8222 655.974 30.0208C656.563 30.2023 657.14 30.4211 657.701 30.6761L658.119 25.8504C657.364 25.534 656.619 25.256 655.885 25.0164C655.151 24.7791 654.405 24.5802 653.651 24.4206C652.913 24.2649 652.167 24.1554 651.417 24.0929C650.681 24.0333 649.956 24.0035 649.242 24.0035C647.596 23.9867 645.955 24.1768 644.357 24.5695C642.99 24.9023 641.69 25.4666 640.514 26.2377C639.448 26.9433 638.577 27.9063 637.982 29.0377C637.359 30.2848 637.052 31.6657 637.088 33.0592C637.07 34.0628 637.231 35.0616 637.565 36.0082C637.847 36.8028 638.271 37.5396 638.816 38.1828C639.346 38.7909 639.957 39.3222 640.633 39.7615C641.336 40.2239 642.085 40.6132 642.867 40.9233C643.303 41.0835 643.76 41.2424 644.238 41.3999C644.715 41.5575 645.181 41.7064 645.638 41.8467C646.093 41.9864 646.54 42.1254 646.978 42.2638C647.414 42.4038 647.842 42.5419 648.259 42.6809C648.676 42.8199 649.083 42.9489 649.48 43.068C650.013 43.2569 650.531 43.4859 651.029 43.7532C651.466 43.985 651.876 44.2647 652.251 44.5872C652.58 44.8753 652.844 45.2309 653.024 45.6299C653.207 46.0424 653.299 46.4894 653.293 46.9405C653.314 47.3812 653.237 47.821 653.067 48.2281C652.897 48.6352 652.638 48.9992 652.31 49.2938C651.572 49.9098 650.692 50.3298 649.748 50.5151C648.643 50.759 647.514 50.879 646.382 50.8727C645.675 50.8682 644.968 50.8185 644.267 50.7237C643.493 50.6257 642.679 50.4867 641.825 50.3066C640.971 50.1266 640.097 49.9081 639.202 49.6512C638.31 49.3944 637.407 49.1064 636.493 48.7874L636.731 53.8515C637.763 54.2089 638.706 54.4969 639.561 54.7153C640.415 54.9338 641.23 55.1224 642.003 55.2813C642.75 55.4365 643.506 55.5361 644.267 55.5792C645.001 55.6189 645.746 55.6387 646.502 55.6387C648.163 55.6471 649.821 55.4773 651.446 55.1323C652.877 54.8415 654.247 54.3075 655.498 53.5536C656.624 52.8652 657.557 51.9016 658.208 50.7534C658.89 49.4929 659.229 48.0754 659.19 46.6427C659.215 45.5974 659.044 44.5566 658.685 43.5744C658.364 42.7476 657.889 41.9895 657.285 41.3403Z" fill="white"/>
<path d="M682.159 50.247L681.147 50.4257C680.822 50.4838 680.493 50.5235 680.163 50.5448C679.845 50.5657 679.547 50.5747 679.27 50.5747C678.357 50.5997 677.45 50.4163 676.619 50.0384C675.903 49.6998 675.31 49.1484 674.92 48.4597C674.503 47.6826 674.298 46.8093 674.325 45.9276V29.4249H682.725L683.38 24.6589H674.325V15.2458L668.247 17.3904V24.6589H663.66L663.004 29.4249H668.247V47.1788C668.22 48.3629 668.402 49.5426 668.783 50.664C669.09 51.551 669.566 52.3704 670.184 53.0769C670.751 53.7063 671.44 54.2132 672.21 54.5663C672.997 54.9282 673.828 55.1885 674.681 55.3408C675.526 55.497 676.384 55.5768 677.243 55.5791C677.879 55.5791 678.504 55.5592 679.121 55.5195C679.737 55.4798 680.303 55.4203 680.819 55.3408C681.334 55.2604 681.821 55.172 682.277 55.0727C682.734 54.9734 683.121 54.885 683.439 54.8046L683.798 49.8598C683.565 49.9491 683.326 50.0188 683.082 50.0683C682.804 50.1278 682.497 50.1875 682.159 50.247Z" fill="white"/>
<path d="M702.563 24.4503C701.449 24.7489 700.385 25.2106 699.406 25.8205C698.39 26.4555 697.45 27.2051 696.605 28.0546C696.464 28.1956 696.328 28.3526 696.188 28.5006V24.0631L690.112 24.9567V55.0429H696.188V32.5359C696.64 32.2202 697.107 31.9276 697.588 31.659C698.185 31.3308 698.802 31.0422 699.436 30.7952C700.051 30.5569 700.676 30.3483 701.312 30.1696C701.966 29.9879 702.633 29.8584 703.308 29.7824C704.03 29.7031 704.757 29.6833 705.482 29.7228L706.197 24.1226C704.976 24.0354 703.749 24.146 702.563 24.4503Z" fill="white"/>
<path d="M734.794 28.5016C733.65 27.0193 732.142 25.8594 730.415 25.1355C728.497 24.3524 726.44 23.9673 724.368 24.0035C722.281 23.9682 720.21 24.3742 718.291 25.195C716.546 25.9593 714.99 27.0984 713.734 28.5314C712.44 30.0369 711.466 31.7903 710.873 33.6847C710.194 35.8531 709.863 38.1152 709.891 40.3871C709.807 43.2577 710.409 46.107 711.647 48.698C712.78 50.9435 714.608 52.762 716.86 53.8812C719.503 55.1262 722.402 55.7285 725.321 55.6387C726.726 55.6509 728.129 55.5613 729.52 55.3706C730.684 55.2032 731.831 54.9341 732.947 54.5664C734.054 54.1948 735.13 53.7366 736.164 53.1961L736.581 48.6087C735.826 48.888 735.061 49.166 734.287 49.4427C733.512 49.7194 732.708 49.9677 731.875 50.1874C731.033 50.4077 730.177 50.567 729.312 50.664C728.442 50.7637 727.567 50.8134 726.692 50.813C725.127 50.8388 723.566 50.6687 722.044 50.3066C720.816 50.0134 719.68 49.4197 718.738 48.5789C717.786 47.6725 717.087 46.5325 716.713 45.2724C716.323 43.9962 716.105 42.6739 716.063 41.3403H737.593C737.887 38.8764 737.776 36.3811 737.265 33.9528C736.847 31.978 736.003 30.118 734.794 28.5016ZM719.781 29.9314C721.179 29.0826 722.793 28.6583 724.428 28.7101C726.064 28.6284 727.68 29.1006 729.015 30.0505C730.201 30.9977 731.048 32.3044 731.427 33.774C731.724 34.8609 731.871 35.9835 731.862 37.1103H716.194C716.305 35.9223 716.558 34.7521 716.95 33.6251C717.459 32.1148 718.455 30.8158 719.781 29.9314Z" fill="white"/>
<path d="M761.723 50.0683C761.443 50.1278 761.135 50.1875 760.798 50.247L759.786 50.4257C759.461 50.4837 759.133 50.5235 758.803 50.5448C758.485 50.5657 758.187 50.5747 757.91 50.5747C756.997 50.5996 756.09 50.4161 755.259 50.0384C754.543 49.6998 753.95 49.1484 753.561 48.4597C753.143 47.6826 752.938 46.8093 752.965 45.9276V29.4249H761.365L762.02 24.6589H752.965V15.2458L746.888 17.3904V24.6589H742.301L741.644 29.4249H746.888V47.1788C746.861 48.363 747.042 49.5427 747.424 50.664C747.731 51.5511 748.206 52.3706 748.824 53.0769C749.391 53.7061 750.08 54.2129 750.85 54.5663C751.637 54.9282 752.468 55.1885 753.321 55.3408C754.166 55.497 755.024 55.5768 755.883 55.5791C756.519 55.5791 757.145 55.5592 757.761 55.5195C758.377 55.4798 758.943 55.4203 759.459 55.3408C759.974 55.2604 760.462 55.172 760.918 55.0727C761.375 54.9734 761.761 54.885 762.079 54.8046L762.438 49.8598C762.206 49.9492 761.966 50.0189 761.723 50.0683Z" fill="white"/>
</svg>
