<svg xmlns="http://www.w3.org/2000/svg" viewBox="0 0 188 62"><path fill="#0A2343" d="M0 52V10.004h13.78V52H0Zm32.528-35.312L40.453 52h-15.08l-9.464-41.996h8.459a7.965 7.965 0 0 1 5.293 1.922 8.31 8.31 0 0 1 2.867 4.762ZM42.523 52V10.004h13.78V52h-13.78Zm24.189-26.026a8.213 8.213 0 0 1-4.228-1.124 8.336 8.336 0 0 1-3.046-3.046 8.206 8.206 0 0 1-1.125-4.229 8.056 8.056 0 0 1 1.125-4.2 8.437 8.437 0 0 1 3.046-3.016 8.232 8.232 0 0 1 4.228-1.124 8.083 8.083 0 0 1 4.199 1.124 8.504 8.504 0 0 1 3.016 3.017 8.075 8.075 0 0 1 1.125 4.2 8.226 8.226 0 0 1-1.125 4.228 8.4 8.4 0 0 1-3.016 3.046 8.059 8.059 0 0 1-4.201 1.124h.002ZM77.18 52V10.004h13.781V52H77.181Zm31.227-19.046c.039.04.334.524.887 1.449.553.925 1.272 2.108 2.159 3.549a1143.28 1143.28 0 0 1 5.589 9.168A854.89 854.89 0 0 0 120 52h-15.141c-.947-1.538-1.804-2.928-2.573-4.17a382.214 382.214 0 0 1-2.453-4.022 351.934 351.934 0 0 0-2.574-4.2 213.445 213.445 0 0 1-2.188-3.578 62.753 62.753 0 0 0-1.272-2.07 6.119 6.119 0 0 1-1.005-2.958 5.744 5.744 0 0 1 .946-2.84c.236-.394.67-1.095 1.3-2.1.632-1.006 1.371-2.198 2.219-3.579a636.03 636.03 0 0 0 2.574-4.229c.869-1.439 1.686-2.79 2.453-4.052.77-1.26 1.628-2.66 2.573-4.2H120l-11.711 19.106a3.773 3.773 0 0 0-.592 1.894c.039.706.286 1.385.709 1.952h.002Z"/><circle cx="157" cy="31" r="30" fill="#fff"/><path fill="#00B8F1" d="M169.716 24.507h-4.379a2.516 2.516 0 0 0-2.482 2.484v6.35a7.655 7.655 0 0 1 2.482-.632h4.828a4.315 4.315 0 0 0 3.161-1.161 4.318 4.318 0 0 0 1.162-3.16 3.396 3.396 0 0 0-1.217-2.781 5.554 5.554 0 0 0-3.555-1.1Z"/><path fill="#00B8F1" d="M157 0a30.998 30.998 0 0 0-31 31 31.002 31.002 0 0 0 31 31 31.001 31.001 0 0 0 0-62Zm-2.335 36.617c-.022 6.622-4.77 8.728-6.581 9.781l-3.12-3.774.073-.036-.073-.086c1.004-.503 4.731-2.415 4.731-5.344v-2.212c-.513 1.042-3.169 2.22-4.975 2.25h-.199a10.289 10.289 0 0 1-6.947-2.685 9.98 9.98 0 0 1-3.033-7.493V20.34h4.844v6.678c0 3.885 2.686 5.3 5.236 5.335 2.233-.03 5.033-.998 5.13-3.99v-8.027h4.909l.005 16.28Zm21.036 4.11a2.23 2.23 0 0 0 2.115.63l-.007 4.016h-2.938c-.034 0-.067.006-.097.006s-.069 0-.103-.006h-.109v-.006a2.49 2.49 0 0 1-1.524-.69l-5.717-7.004h-1.979a2.514 2.514 0 0 0-2.482 2.485v5.215h-4.965V26.99a7.463 7.463 0 0 1 7.447-7.452h4.379a10.46 10.46 0 0 1 6.725 2.238 8.395 8.395 0 0 1 3.014 6.604 9.297 9.297 0 0 1-2.618 6.677 8.812 8.812 0 0 1-3.88 2.243s1.677 2.29 2.739 3.424v.004Z"/></svg>