<svg xmlns="http://www.w3.org/2000/svg" viewBox="0 0 120 104"><path fill="#0A2343" d="M0 43V1.004h13.78V43H0ZM32.528 7.688 40.453 43h-15.08L15.908 1.004h8.459a7.965 7.965 0 0 1 5.293 1.922 8.31 8.31 0 0 1 2.867 4.762ZM42.523 43V1.004h13.78V43h-13.78Zm24.189-26.026a8.213 8.213 0 0 1-4.228-1.124 8.336 8.336 0 0 1-3.046-3.046 8.206 8.206 0 0 1-1.125-4.229 8.056 8.056 0 0 1 1.125-4.2 8.437 8.437 0 0 1 3.046-3.016A8.232 8.232 0 0 1 66.712.235a8.083 8.083 0 0 1 4.199 1.124 8.503 8.503 0 0 1 3.016 3.016 8.075 8.075 0 0 1 1.125 4.2 8.226 8.226 0 0 1-1.125 4.23 8.4 8.4 0 0 1-3.016 3.045 8.059 8.059 0 0 1-4.201 1.124h.002ZM77.18 43V1.004h13.781V43H77.181Zm31.227-19.046c.039.04.334.524.887 1.449.553.925 1.272 2.108 2.159 3.549a1143.28 1143.28 0 0 1 5.589 9.168A854.89 854.89 0 0 0 120 43h-15.141c-.947-1.538-1.804-2.928-2.573-4.17a382.214 382.214 0 0 1-2.453-4.022 351.934 351.934 0 0 0-2.574-4.2 213.445 213.445 0 0 1-2.188-3.578 62.753 62.753 0 0 0-1.272-2.07 6.119 6.119 0 0 1-1.005-2.958 5.744 5.744 0 0 1 .946-2.84c.236-.394.67-1.095 1.3-2.1.632-1.006 1.371-2.198 2.219-3.579.847-1.38 1.706-2.79 2.574-4.229.869-1.439 1.686-2.79 2.453-4.052.77-1.26 1.628-2.66 2.573-4.2H120l-11.711 19.106a3.773 3.773 0 0 0-.592 1.894c.039.706.286 1.385.709 1.952h.002Z"/><path fill="#2B0B4F" d="M11.423 93.44a5.397 5.397 0 0 1-.353 2.01 4.225 4.225 0 0 1-1.001 1.506c-.455.428-.998.75-1.59.946-.684.225-1.4.335-2.12.325-.47 0-.913-.02-1.325-.06a26.428 26.428 0 0 1-2.473-.355 41.59 41.59 0 0 1-1.266-.265A31.124 31.124 0 0 1 0 97.222l.471 5.318c.55.158 1.08.305 1.59.442.51.139 1.02.256 1.53.356.526.099 1.057.168 1.59.206.55.039 1.159.059 1.826.06a14.57 14.57 0 0 0 4.033-.504 8.901 8.901 0 0 0 2.974-1.446 8.367 8.367 0 0 0 2.031-2.216 9.7 9.7 0 0 0 1.178-2.778c.259-1.034.387-2.096.383-3.161V61h-6.183v32.44ZM52.464 99.231a2.676 2.676 0 0 1-2.297-.945 5.101 5.101 0 0 1-.648-3.132l.118-12.172a14.25 14.25 0 0 0-.47-3.782 9.3 9.3 0 0 0-1.414-3.014 7.994 7.994 0 0 0-2.444-2.187 12.479 12.479 0 0 0-3.562-1.358 20.876 20.876 0 0 0-4.651-.472c-1.24-.001-2.48.078-3.71.235a25.509 25.509 0 0 0-3.445.68 28.37 28.37 0 0 0-3.09 1.035l-.708 5.022a35.07 35.07 0 0 1 5.359-1.477 21.495 21.495 0 0 1 2.443-.324c.804-.06 1.599-.089 2.385-.09 1.2-.025 2.4.114 3.562.414.85.213 1.63.64 2.267 1.242a4.684 4.684 0 0 1 1.178 2.097c.251.975.37 1.978.353 2.984l-.007 1.483-6.882.467a18.251 18.251 0 0 0-6.83 1.536 9.804 9.804 0 0 0-4.034 3.28 7.65 7.65 0 0 0-1.324 4.342 8.675 8.675 0 0 0 1.03 4.167 7.765 7.765 0 0 0 3.12 3.101 10.466 10.466 0 0 0 5.212 1.182 13.528 13.528 0 0 0 4.975-.827 11.462 11.462 0 0 0 3.71-2.363c.407-.392.794-.805 1.158-1.238.114.612.33 1.201.638 1.741a4.762 4.762 0 0 0 2.296 2.009 8.574 8.574 0 0 0 3.356.621c.354 0 .697-.011 1.03-.03.329-.02.654-.07.972-.149.315-.078.598-.146.854-.206.23-.052.457-.121.677-.207l.648-3.958c-.325.111-.66.19-1.001.236a6.724 6.724 0 0 1-.824.057Zm-9.804-2.659a11.33 11.33 0 0 1-2.061 1.301c-.73.355-1.5.614-2.296.768-.825.16-1.663.238-2.503.236a6.613 6.613 0 0 1-2.797-.532 3.842 3.842 0 0 1-1.737-1.506 4.427 4.427 0 0 1-.589-2.334 4.49 4.49 0 0 1 .766-2.778 4.502 4.502 0 0 1 2.473-1.477 17.888 17.888 0 0 1 4.593-.472h5.156l-.027 5.864c-.299.338-.626.65-.978.93ZM82.14 77.014l-.707-4.196H58.704l-.707 4.727h17.1l-17.628 21.39.706 4.018H82.2l.648-4.787H64.85l17.29-21.152ZM94.525 98.168l17.292-21.153-.708-4.196H88.381l-.707 4.727h17.098l-17.628 21.39.707 4.018h24.024l.647-4.786H94.525Z"/></svg>