<svg xmlns="http://www.w3.org/2000/svg" viewBox="0 0 290 117"><path fill="#0A2343" d="M0 43V1.004h13.78V43H0ZM32.528 7.688 40.453 43h-15.08L15.908 1.004h8.459a7.965 7.965 0 0 1 5.293 1.922 8.31 8.31 0 0 1 2.867 4.762ZM42.523 43V1.004h13.78V43h-13.78Zm24.189-26.026a8.213 8.213 0 0 1-4.228-1.124 8.336 8.336 0 0 1-3.046-3.046 8.206 8.206 0 0 1-1.125-4.229 8.056 8.056 0 0 1 1.125-4.2 8.437 8.437 0 0 1 3.046-3.016A8.232 8.232 0 0 1 66.712.235a8.083 8.083 0 0 1 4.199 1.124 8.503 8.503 0 0 1 3.016 3.016 8.075 8.075 0 0 1 1.125 4.2 8.226 8.226 0 0 1-1.125 4.23 8.4 8.4 0 0 1-3.016 3.045 8.059 8.059 0 0 1-4.201 1.124h.002ZM77.18 43V1.004h13.781V43H77.181Zm31.227-19.046c.039.04.334.524.887 1.449.553.925 1.272 2.108 2.159 3.549a1143.28 1143.28 0 0 1 5.589 9.168A854.89 854.89 0 0 0 120 43h-15.141c-.947-1.538-1.804-2.928-2.573-4.17a382.214 382.214 0 0 1-2.453-4.022 351.934 351.934 0 0 0-2.574-4.2 213.445 213.445 0 0 1-2.188-3.578 62.753 62.753 0 0 0-1.272-2.07 6.119 6.119 0 0 1-1.005-2.958 5.744 5.744 0 0 1 .946-2.84c.236-.394.67-1.095 1.3-2.1.632-1.006 1.371-2.198 2.219-3.579.847-1.38 1.706-2.79 2.574-4.229.869-1.439 1.686-2.79 2.453-4.052.77-1.26 1.628-2.66 2.573-4.2H120l-11.711 19.106a3.773 3.773 0 0 0-.592 1.894c.039.706.286 1.385.709 1.952h.002Z"/><path fill="#1767CE" d="M0 66.156h13.574v36.869h6.223V66.156h13.516V60.94H0v5.216ZM61.883 76.618a10.755 10.755 0 0 0-4.356-3.35 15.22 15.22 0 0 0-6.017-1.125 14.735 14.735 0 0 0-6.046 1.185 12.92 12.92 0 0 0-4.534 3.32 14.526 14.526 0 0 0-2.846 5.127 21.424 21.424 0 0 0-.977 6.668 17.95 17.95 0 0 0 1.747 8.269 11.588 11.588 0 0 0 5.187 5.157 18.433 18.433 0 0 0 8.418 1.748 29.042 29.042 0 0 0 4.177-.266 20.025 20.025 0 0 0 3.409-.801 22.023 22.023 0 0 0 3.202-1.363l.414-4.564c-.751.276-1.512.553-2.282.83-.771.276-1.571.523-2.401.74-.837.22-1.689.379-2.549.475-.866.098-1.736.148-2.607.148a18.702 18.702 0 0 1-4.625-.504 7.583 7.583 0 0 1-3.288-1.719 7.489 7.489 0 0 1-2.015-3.29 15.005 15.005 0 0 1-.647-3.912h21.421a22.71 22.71 0 0 0-.326-7.35 13.852 13.852 0 0 0-2.459-5.423ZM46.946 78.04a8.396 8.396 0 0 1 4.623-1.215 7.247 7.247 0 0 1 4.564 1.334 6.964 6.964 0 0 1 2.4 3.705c.296 1.081.441 2.198.433 3.32h-15.59c.111-1.183.364-2.347.754-3.468a7.164 7.164 0 0 1 2.816-3.675ZM91.075 72.913a21.422 21.422 0 0 0-2.757-.563 23.29 23.29 0 0 0-3.201-.207 14.348 14.348 0 0 0-5.631 1.126 14.891 14.891 0 0 0-4.772 3.23 14.62 14.62 0 0 0-3.29 5.217 19.972 19.972 0 0 0-1.185 7.142 18.55 18.55 0 0 0 1.51 7.795 11.491 11.491 0 0 0 4.417 5.097 13.079 13.079 0 0 0 7.053 1.808 17.087 17.087 0 0 0 6.342-1.245 15.001 15.001 0 0 0 3.379-1.919v1.623a12.518 12.518 0 0 1-.562 3.942 7.171 7.171 0 0 1-1.72 2.845 7.09 7.09 0 0 1-3.023 1.719 15.887 15.887 0 0 1-4.535.563 32.871 32.871 0 0 1-3.644-.208 25.753 25.753 0 0 1-3.765-.711 28.912 28.912 0 0 1-3.734-1.274l.652 5.216c1.09.442 2.21.809 3.35 1.096 1.2.303 2.416.531 3.644.682a31.58 31.58 0 0 0 3.912.237 19.104 19.104 0 0 0 8.477-1.689 11.878 11.878 0 0 0 5.186-4.683 13.433 13.433 0 0 0 1.75-6.905V72.143l-5.798 1.492a17.265 17.265 0 0 0-2.055-.722Zm1.095 23.74c-.734.426-1.496.803-2.282 1.126-.691.284-1.405.512-2.134.681-.71.161-1.434.24-2.162.238a10.31 10.31 0 0 1-5.128-1.156 6.94 6.94 0 0 1-3.022-3.498 15.754 15.754 0 0 1-.978-6.016 15.67 15.67 0 0 1 .68-4.83 9.098 9.098 0 0 1 1.957-3.468 8.544 8.544 0 0 1 3.14-2.104 11.446 11.446 0 0 1 4.239-.741c.934-.001 1.867.078 2.787.237a22 22 0 0 1 2.786.681c.29.091.593.212.889.322v18.071c-.26.156-.527.316-.772.457ZM131.351 73.388a11.665 11.665 0 0 0-5.691-1.245 16.66 16.66 0 0 0-5.068.8 19.257 19.257 0 0 0-4.771 2.282 23.63 23.63 0 0 0-1.66 1.215v-4.238l-6.046.89v29.933h6.046V80.512a18.69 18.69 0 0 1 1.808-.93 27.1 27.1 0 0 1 2.549-.978c.832-.272 1.684-.48 2.549-.623a15.281 15.281 0 0 1 2.459-.207 8.127 8.127 0 0 1 2.846.444c.754.272 1.427.731 1.956 1.334a5.519 5.519 0 0 1 1.126 2.252c.252 1.048.372 2.124.355 3.201v18.02h6.046V83.76a16.42 16.42 0 0 0-1.126-6.579 7.77 7.77 0 0 0-3.378-3.793ZM163.535 89.391a8.937 8.937 0 0 0-2.074-1.63 16.091 16.091 0 0 0-2.491-1.155 52.076 52.076 0 0 1-1.867-.623 33.13 33.13 0 0 0-1.837-.593 37.097 37.097 0 0 1-1.778-.563c-.538-.183-1.062-.4-1.571-.652a10.298 10.298 0 0 1-1.393-.889 3.893 3.893 0 0 1-1.007-1.126 2.853 2.853 0 0 1-.386-1.482 3.066 3.066 0 0 1 .416-1.63 3.366 3.366 0 0 1 1.245-1.156 6.68 6.68 0 0 1 1.985-.711 13.28 13.28 0 0 1 2.638-.237 19.135 19.135 0 0 1 3.112.267c.613.097 1.224.228 1.836.385.613.157 1.235.336 1.869.533.586.18 1.159.398 1.717.652l.416-4.8a28.098 28.098 0 0 0-2.222-.83 21.78 21.78 0 0 0-2.223-.593 17.825 17.825 0 0 0-2.223-.326 26.835 26.835 0 0 0-2.164-.09 19.533 19.533 0 0 0-4.86.564c-1.36.33-2.653.891-3.823 1.66a7.543 7.543 0 0 0-2.519 2.785 8.459 8.459 0 0 0-.889 4.001 8.326 8.326 0 0 0 .475 2.934c.281.79.702 1.524 1.244 2.164a8.675 8.675 0 0 0 1.808 1.57c.7.46 1.445.847 2.223 1.157a52.792 52.792 0 0 0 2.756.918 93.377 93.377 0 0 1 2.607.83c.415.138.82.267 1.217.385a11.18 11.18 0 0 1 1.54.682c.435.23.843.509 1.216.83a3.032 3.032 0 0 1 1.037 2.341 2.96 2.96 0 0 1-.979 2.342 5.676 5.676 0 0 1-2.549 1.215 15.127 15.127 0 0 1-3.348.355 16.641 16.641 0 0 1-2.104-.148 29.998 29.998 0 0 1-2.43-.415c-.85-.179-1.719-.396-2.609-.652a51.57 51.57 0 0 1-2.696-.86l.237 5.039c1.026.356 1.964.642 2.815.86a52.91 52.91 0 0 0 2.431.563c.742.154 1.495.253 2.252.296.73.04 1.471.059 2.223.059 1.653.009 3.302-.16 4.919-.504a12.701 12.701 0 0 0 4.03-1.57 7.733 7.733 0 0 0 2.698-2.786 8.123 8.123 0 0 0 .977-4.09 8.293 8.293 0 0 0-.504-3.053 6.91 6.91 0 0 0-1.393-2.223ZM195.395 74.01a12.735 12.735 0 0 0-7.083-1.867 18.04 18.04 0 0 0-4.386.563c-1.55.394-3.043.981-4.446 1.748-.278.152-.554.32-.83.49v-2.742l-6.046.948v42.322h6.046v-13.27c.041.016.079.035.119.052 1.095.455 2.239.783 3.408.978 1.381.228 2.779.337 4.179.326 2.669.046 5.3-.63 7.617-1.956a14.082 14.082 0 0 0 5.334-5.66 18.916 18.916 0 0 0 1.986-9.04 18.463 18.463 0 0 0-1.51-7.706 11.913 11.913 0 0 0-4.388-5.186Zm-1.57 19.827a8.16 8.16 0 0 1-3.409 3.734 10.949 10.949 0 0 1-5.423 1.245 17.53 17.53 0 0 1-2.697-.207 16.862 16.862 0 0 1-2.757-.682 61.755 61.755 0 0 1-.889-.32V78.9c.079-.037.159-.084.238-.12a35.37 35.37 0 0 1 2.43-1.007 12.19 12.19 0 0 1 4.208-.77c1.828-.061 3.641.336 5.276 1.155a7.117 7.117 0 0 1 3.171 3.527 15.178 15.178 0 0 1 1.038 6.046 14.128 14.128 0 0 1-1.186 6.105ZM221.029 72.585a11.639 11.639 0 0 0-3.14 1.364 15.441 15.441 0 0 0-2.787 2.222c-.139.14-.276.297-.414.444V72.2l-6.047.89v29.933h6.047V80.629c.45-.314.914-.605 1.393-.872a15.386 15.386 0 0 1 1.838-.859 20.435 20.435 0 0 1 1.867-.622 12.689 12.689 0 0 1 4.149-.445l.711-5.572a11.292 11.292 0 0 0-3.617.326ZM255.824 99.29a2.702 2.702 0 0 1-2.311-.948 5.093 5.093 0 0 1-.652-3.142l.118-12.21a14.241 14.241 0 0 0-.474-3.794 9.32 9.32 0 0 0-1.422-3.023 8.026 8.026 0 0 0-2.46-2.193 12.593 12.593 0 0 0-3.586-1.363 21.085 21.085 0 0 0-4.683-.474 29.29 29.29 0 0 0-3.734.237 25.642 25.642 0 0 0-3.468.681 28.885 28.885 0 0 0-3.112 1.038l-.711 5.038a34.863 34.863 0 0 1 5.394-1.482 21.762 21.762 0 0 1 2.46-.326c.809-.06 1.609-.089 2.4-.089a13.289 13.289 0 0 1 3.586.415c.855.214 1.64.642 2.282 1.245a4.696 4.696 0 0 1 1.186 2.104c.253.977.372 1.984.356 2.993l-.007 1.488-6.929.469c-2.369.066-4.704.589-6.875 1.54a9.853 9.853 0 0 0-4.061 3.29 7.658 7.658 0 0 0-1.333 4.357 8.667 8.667 0 0 0 1.037 4.179 7.804 7.804 0 0 0 3.142 3.112 10.563 10.563 0 0 0 5.245 1.185c1.707.04 3.406-.242 5.009-.83a11.53 11.53 0 0 0 3.734-2.371c.41-.393.799-.807 1.166-1.241.115.613.332 1.203.642 1.745a4.784 4.784 0 0 0 2.312 2.016 8.662 8.662 0 0 0 3.378.622c.356 0 .702-.01 1.038-.03.33-.02.657-.069.978-.148.316-.08.601-.148.859-.207.232-.052.46-.121.682-.208l.652-3.971a5.21 5.21 0 0 1-1.008.237 6.77 6.77 0 0 1-.83.06Zm-9.869-2.667c-.642.508-1.338.945-2.074 1.304a9.39 9.39 0 0 1-2.311.77c-.83.16-1.674.24-2.52.238a6.694 6.694 0 0 1-2.816-.534 3.87 3.87 0 0 1-1.748-1.511 4.427 4.427 0 0 1-.593-2.342 4.491 4.491 0 0 1 .771-2.786 4.527 4.527 0 0 1 2.489-1.481 18.023 18.023 0 0 1 4.623-.475h5.191l-.027 5.883c-.301.34-.63.652-.985.934ZM236.886 67.4c1.12.53 2.348.794 3.586.771a8.11 8.11 0 0 0 3.675-.8 6.187 6.187 0 0 0 2.52-2.252 6.345 6.345 0 0 0 .918-3.468 6.094 6.094 0 0 0-1.956-4.742 7.202 7.202 0 0 0-5.038-1.778 8.577 8.577 0 0 0-3.586.74 5.905 5.905 0 0 0-2.579 2.224 6.571 6.571 0 0 0-.948 3.615 6.313 6.313 0 0 0 .919 3.498 6.098 6.098 0 0 0 2.489 2.193Zm.949-8.535a3.795 3.795 0 0 1 2.756-.948 3.912 3.912 0 0 1 2.104.504c.518.318.93.782 1.186 1.333a4.47 4.47 0 0 1 .385 1.897 4.19 4.19 0 0 1-.415 1.897 3.088 3.088 0 0 1-1.215 1.304 4.087 4.087 0 0 1-2.104.474 4.467 4.467 0 0 1-2.016-.415 2.692 2.692 0 0 1-1.244-1.245 4.45 4.45 0 0 1-.415-2.015 3.706 3.706 0 0 1 .978-2.786ZM281.548 103.025h7.825l-14.378-16.202 14.081-14.028h-7.409l-10.143 11.143h-2.186V58.273l-6.046.889v43.863h6.046V88.502h.099l12.111 14.523Z"/></svg>