<svg xmlns="http://www.w3.org/2000/svg" viewBox="0 0 156 107"><path fill="#00B3C7" d="M77.658 91.663c.243.64.36 1.323.342 2.008a5.14 5.14 0 0 1-.645 2.65 5.238 5.238 0 0 1-1.767 1.798 8.117 8.117 0 0 1-2.641 1.021c-1.076.221-2.171.33-3.269.322-.506 0-1.006-.012-1.5-.037a10.405 10.405 0 0 1-1.501-.19 24.351 24.351 0 0 1-1.597-.38 34.724 34.724 0 0 1-1.86-.57l-.154-3.444c.584.202 1.173.392 1.768.57a20.02 20.02 0 0 0 3.344.699c.473.06.948.092 1.425.095a9.873 9.873 0 0 0 2.07-.208 3.435 3.435 0 0 0 1.559-.72 1.786 1.786 0 0 0 .588-1.419 1.64 1.64 0 0 0-.19-.776 2.135 2.135 0 0 0-.533-.643 4.098 4.098 0 0 0-.798-.512c-.303-.151-.62-.29-.95-.417a29.921 29.921 0 0 1-.78-.245 43.634 43.634 0 0 0-.835-.266c-.292-.089-.582-.17-.874-.246a12.248 12.248 0 0 1-.874-.265 9.976 9.976 0 0 1-.855-.34 8.571 8.571 0 0 1-1.443-.74 5.051 5.051 0 0 1-1.178-1.02 4.398 4.398 0 0 1-.78-1.402 5.637 5.637 0 0 1-.285-1.874 5.514 5.514 0 0 1 .571-2.574 4.896 4.896 0 0 1 1.634-1.818 7.777 7.777 0 0 1 2.546-1.078 13.642 13.642 0 0 1 3.229-.36c.481 0 .969.019 1.463.056.491.038.98.101 1.464.19a11.453 11.453 0 0 1 2.887.928l-.303 3.332a7.937 7.937 0 0 0-1.122-.454 18.3 18.3 0 0 0-1.197-.341c-.405-.101-.804-.184-1.197-.247a13.067 13.067 0 0 0-2.033-.17 8.029 8.029 0 0 0-1.634.15c-.43.085-.847.231-1.235.436a1.957 1.957 0 0 0-.759.7 1.814 1.814 0 0 0-.247.947c-.008.326.078.648.247.928.164.264.376.496.627.682.272.2.565.371.874.51.32.16.65.298.988.417.354.126.727.24 1.12.34.394.102.787.222 1.179.36.392.139.779.272 1.159.398.569.197 1.121.437 1.653.719.51.271.971.623 1.367 1.042.398.424.714.919.932 1.458Zm16.46-11.738 4.332-.642-.038 19.8h-3.381l-.604-2.46c-.095.09-.19.179-.288.264a10.694 10.694 0 0 1-1.957 1.4 9.586 9.586 0 0 1-2.146.873 9.252 9.252 0 0 1-2.413.301 7.519 7.519 0 0 1-3.63-.814 5.156 5.156 0 0 1-2.26-2.46c-.508-1.097-.761-2.505-.76-4.222V79.926l4.331-.643v11.888a6.45 6.45 0 0 0 .418 2.48c.245.632.701 1.16 1.292 1.496.704.356 1.49.526 2.279.492.478 0 .955-.044 1.425-.132.464-.088.921-.208 1.368-.36.456-.157.9-.347 1.33-.568.23-.118.463-.246.703-.383v-14.27Zm23.757.514a8.21 8.21 0 0 0-4.522-1.193c-.962.004-1.92.132-2.85.38a12.42 12.42 0 0 0-2.85 1.155c-.165.092-.329.195-.494.297v-1.793l-4.331.682V107h4.331v-8.508c.691.29 1.411.509 2.147.65.908.172 1.831.254 2.756.246a9.649 9.649 0 0 0 4.902-1.248 8.964 8.964 0 0 0 3.438-3.635c.849-1.59 1.273-3.521 1.273-5.793a11.868 11.868 0 0 0-.969-4.94 7.565 7.565 0 0 0-2.831-3.333Zm-1.369 12.57a4.97 4.97 0 0 1-2.127 2.309 6.988 6.988 0 0 1-3.42.775 11.413 11.413 0 0 1-1.633-.113 9.926 9.926 0 0 1-1.673-.398 24.44 24.44 0 0 1-.493-.166v-11.74l.038-.018c.531-.24 1.032-.442 1.501-.607.439-.155.89-.275 1.349-.36a7.248 7.248 0 0 1 1.253-.113 6.773 6.773 0 0 1 3.287.72 4.536 4.536 0 0 1 1.975 2.196c.483 1.19.71 2.466.667 3.748a8.814 8.814 0 0 1-.724 3.766Zm21.684-2.8a6.244 6.244 0 0 0 2.071-1.06 4.36 4.36 0 0 0 1.235-1.571 4.66 4.66 0 0 0 .418-1.97 5.568 5.568 0 0 0-.514-2.309 5.957 5.957 0 0 0-1.519-2.025 7.283 7.283 0 0 0-2.527-1.401 11.123 11.123 0 0 0-3.534-.511c-2.077 0-3.838.435-5.281 1.306a8.239 8.239 0 0 0-3.268 3.673 12.924 12.924 0 0 0-1.103 5.508c0 2.096.387 3.863 1.16 5.3a7.638 7.638 0 0 0 3.477 3.296c1.545.757 3.445 1.136 5.7 1.136.839.005 1.677-.052 2.508-.172a11.731 11.731 0 0 0 2.166-.53 23.035 23.035 0 0 0 2.09-.85l.266-3.143c-.986.385-1.995.708-3.022.965-1.15.277-2.331.41-3.514.398-.949.014-1.895-.1-2.812-.341a4.332 4.332 0 0 1-3.21-3.18 9.172 9.172 0 0 1-.316-1.66l6.604-.347a12.572 12.572 0 0 0 2.925-.512Zm-9.917-1.953a9.506 9.506 0 0 1 .545-2.704 4.584 4.584 0 0 1 1.71-2.272 4.905 4.905 0 0 1 2.755-.738 4.773 4.773 0 0 1 2.28.475c.534.27.981.683 1.293 1.193.265.434.409.93.418 1.438.009.391-.09.778-.286 1.117a1.97 1.97 0 0 1-.95.758 5.58 5.58 0 0 1-1.768.36l-5.997.373ZM156 79.376l-.531 3.9c-.488-.026-.977-.02-1.464.019-.442.034-.88.103-1.31.208-.407.102-.806.229-1.197.38a7.638 7.638 0 0 0-1.158.567c-.279.167-.559.348-.836.528v14.087h-4.333V79.906l4.332-.643v3.042c.07-.08.138-.162.209-.24a10.284 10.284 0 0 1 1.766-1.572 6.636 6.636 0 0 1 2.071-.966 6.535 6.535 0 0 1 2.451-.151ZM0 99.183V79.616h6.474v19.567H0ZM15.281 82.73l3.724 16.453H11.92L7.474 79.616h3.974a3.76 3.76 0 0 1 2.486.896 3.867 3.867 0 0 1 1.348 2.218Zm4.696 16.453V79.616h6.474v19.567h-6.474Zm11.364-12.126a3.883 3.883 0 0 1-1.987-.524 3.9 3.9 0 0 1-1.43-1.419 3.8 3.8 0 0 1-.529-1.97 3.73 3.73 0 0 1 .529-1.957 3.948 3.948 0 0 1 1.43-1.405 3.892 3.892 0 0 1 1.987-.524 3.822 3.822 0 0 1 1.972.524 3.978 3.978 0 0 1 1.417 1.405c.354.592.536 1.269.529 1.957a3.808 3.808 0 0 1-.529 1.97 3.93 3.93 0 0 1-1.417 1.42c-.597.35-1.28.531-1.973.523Zm4.918 12.126V79.616h6.474v19.567H36.26Zm14.67-8.874c.018.019.157.244.417.675.26.431.598.982 1.014 1.654a541.7 541.7 0 0 1 2.626 4.271c.406.671.87 1.429 1.389 2.274h-7.113l-1.209-1.943a177.16 177.16 0 0 1-1.152-1.874c-.408-.67-.811-1.322-1.21-1.957a99.205 99.205 0 0 1-1.027-1.667 29.246 29.246 0 0 0-.598-.965 2.836 2.836 0 0 1-.472-1.377c.028-.473.18-.93.444-1.324.111-.183.315-.51.611-.978a292.677 292.677 0 0 0 2.252-3.638c.408-.67.792-1.3 1.152-1.887.362-.588.765-1.24 1.21-1.957h7.112l-5.502 8.901a1.75 1.75 0 0 0-.278.883c.019.328.134.645.333.909h.001Z"/><path fill="#00B3C7" fill-rule="evenodd" d="M78.5 0C59.65 0 44.268 15.329 44.268 34.112c0 18.747 15.383 34.113 34.234 34.113 18.814 0 34.235-15.366 34.235-34.113C112.735 15.329 97.315 0 78.501 0ZM50.98 34.112c0 15.145 12.432 27.68 27.52 27.68 15.236 0 27.522-12.535 27.521-27.68 0-15.328-12.285-27.679-27.52-27.679-15.089 0-27.52 12.351-27.52 27.679Zm21.471.11a5.174 5.174 0 0 1-1.532 3.726 5.209 5.209 0 0 1-3.744 1.512 5.266 5.266 0 0 1-3.717-1.534 5.228 5.228 0 0 1 0-7.408 5.266 5.266 0 0 1 3.717-1.534 5.225 5.225 0 0 1 3.745 1.513 5.188 5.188 0 0 1 1.531 3.725Zm23.94-2.425-3.466 2.755c-.258.184-.258.367-.184.662l1.143 4.227c.075.222-.037.257-.184.146l-3.727-2.424a.552.552 0 0 0-.663 0l-3.764 2.463c-.147.11-.258.037-.184-.183l1.143-4.228a.559.559 0 0 0-.148-.662l-3.504-2.83c-.11-.11-.11-.258.074-.258l4.39-.183a.446.446 0 0 0 .445-.331l1.696-4.228c.11-.256.258-.221.332 0l1.476 4.081a.61.61 0 0 0 .664.478l4.353.184c.258 0 .294.183.11.33h-.002Z" clip-rule="evenodd"/></svg>