<svg xmlns="http://www.w3.org/2000/svg" viewBox="0 0 164 48"><path fill="#fff" d="M0 45V3.004h13.78V45H0ZM32.528 9.688 40.453 45h-15.08L15.908 3.004h8.459a7.965 7.965 0 0 1 5.293 1.922 8.31 8.31 0 0 1 2.867 4.762ZM42.523 45V3.004h13.78V45h-13.78Zm24.189-26.026a8.213 8.213 0 0 1-4.228-1.124 8.336 8.336 0 0 1-3.046-3.046 8.206 8.206 0 0 1-1.125-4.229 8.056 8.056 0 0 1 1.125-4.2 8.437 8.437 0 0 1 3.046-3.016 8.232 8.232 0 0 1 4.228-1.124 8.083 8.083 0 0 1 4.199 1.124 8.503 8.503 0 0 1 3.016 3.016 8.075 8.075 0 0 1 1.125 4.2 8.226 8.226 0 0 1-1.125 4.23 8.4 8.4 0 0 1-3.016 3.045 8.059 8.059 0 0 1-4.201 1.124h.002ZM77.18 45V3.004h13.781V45H77.181Zm31.227-19.046c.039.04.334.524.887 1.449.553.925 1.272 2.108 2.159 3.549a1143.28 1143.28 0 0 1 5.589 9.168A854.89 854.89 0 0 0 120 45h-15.141c-.947-1.538-1.804-2.928-2.573-4.17a382.214 382.214 0 0 1-2.453-4.022 351.934 351.934 0 0 0-2.574-4.2 213.445 213.445 0 0 1-2.188-3.578 62.753 62.753 0 0 0-1.272-2.07 6.119 6.119 0 0 1-1.005-2.958 5.744 5.744 0 0 1 .946-2.84c.236-.394.67-1.095 1.3-2.1.632-1.006 1.371-2.198 2.219-3.579a636.03 636.03 0 0 0 2.574-4.229c.869-1.439 1.686-2.79 2.453-4.052.77-1.26 1.628-2.66 2.573-4.2H120l-11.711 19.106a3.773 3.773 0 0 0-.592 1.894c.039.706.286 1.385.709 1.952h.002Z"/><path fill="#FB84C1" d="M143.904 39.92c.937-.804 1.9-1.638 2.917-2.543a82.405 82.405 0 0 0 4.287-4.11 70.042 70.042 0 0 0 4.11-4.613 43.646 43.646 0 0 0 3.46-4.878 25.29 25.29 0 0 0 2.365-5.027c.559-1.617.848-3.315.857-5.026a10.896 10.896 0 0 0-.946-4.643 10.016 10.016 0 0 0-2.778-3.548 12.686 12.686 0 0 0-4.583-2.306 22.636 22.636 0 0 0-6.298-.798 23.268 23.268 0 0 0-4.11.355 21.396 21.396 0 0 0-3.786 1.034c-1.17.439-2.306.963-3.399 1.567l.768 5.145a15.752 15.752 0 0 1 2.987-1.567 20.95 20.95 0 0 1 3.519-1.064 18.088 18.088 0 0 1 3.724-.385 12.52 12.52 0 0 1 3.875.533 7.03 7.03 0 0 1 2.689 1.537 6.182 6.182 0 0 1 1.567 2.336c.345.937.515 1.929.504 2.927a13.121 13.121 0 0 1-1.005 4.879 25.928 25.928 0 0 1-2.839 5.145 55.114 55.114 0 0 1-4.317 5.381 93.722 93.722 0 0 1-5.411 5.5A452.181 452.181 0 0 1 136 41.339l.768 3.666h25.606l.71-5.085h-19.18Z"/></svg>