<svg xmlns="http://www.w3.org/2000/svg" viewBox="0 0 156 107"><path fill="#fff" d="M77.657 91.663c.244.64.36 1.323.343 2.008a5.139 5.139 0 0 1-.645 2.65 5.238 5.238 0 0 1-1.767 1.798 8.115 8.115 0 0 1-2.642 1.021c-1.075.221-2.17.33-3.268.322-.506 0-1.006-.012-1.5-.037a10.403 10.403 0 0 1-1.502-.19 24.354 24.354 0 0 1-1.596-.38 34.751 34.751 0 0 1-1.861-.57l-.153-3.444c.584.202 1.173.392 1.768.57a20.026 20.026 0 0 0 3.344.699c.472.06.948.092 1.425.095a9.873 9.873 0 0 0 2.07-.208 3.436 3.436 0 0 0 1.559-.72 1.787 1.787 0 0 0 .588-1.419 1.64 1.64 0 0 0-.19-.776 2.135 2.135 0 0 0-.533-.643 4.094 4.094 0 0 0-.798-.512c-.304-.151-.62-.29-.95-.417a29.926 29.926 0 0 1-.78-.245 43.634 43.634 0 0 0-.835-.266c-.292-.089-.582-.17-.874-.246a12.248 12.248 0 0 1-.874-.265 9.974 9.974 0 0 1-.855-.34 8.564 8.564 0 0 1-1.443-.74 5.051 5.051 0 0 1-1.178-1.02 4.398 4.398 0 0 1-.78-1.402 5.637 5.637 0 0 1-.285-1.874 5.515 5.515 0 0 1 .571-2.574 4.895 4.895 0 0 1 1.634-1.818 7.777 7.777 0 0 1 2.546-1.078 13.642 13.642 0 0 1 3.229-.36c.48 0 .969.019 1.463.056.491.038.98.101 1.463.19a11.447 11.447 0 0 1 2.887.928l-.303 3.332a7.936 7.936 0 0 0-1.121-.454c-.393-.127-.792-.24-1.197-.341a14.54 14.54 0 0 0-1.197-.247 13.062 13.062 0 0 0-2.033-.17 8.028 8.028 0 0 0-1.634.15c-.431.085-.847.231-1.235.436a1.957 1.957 0 0 0-.759.7 1.813 1.813 0 0 0-.247.947c-.008.326.078.648.247.928.164.264.376.496.626.682.273.2.566.371.874.51.321.16.651.298.989.417.353.126.727.24 1.12.34.394.102.786.222 1.178.36.393.139.78.272 1.16.398.569.197 1.121.437 1.653.719.509.271.97.623 1.367 1.042.398.424.714.919.931 1.458ZM94.12 79.925l4.33-.642-.037 19.8H95.03l-.603-2.46c-.095.09-.19.179-.288.264a10.697 10.697 0 0 1-1.957 1.4 9.586 9.586 0 0 1-2.147.873 9.253 9.253 0 0 1-2.413.301 7.52 7.52 0 0 1-3.629-.814 5.156 5.156 0 0 1-2.26-2.46c-.508-1.097-.762-2.505-.76-4.222V79.926l4.33-.643v11.888a6.45 6.45 0 0 0 .419 2.48c.245.632.7 1.16 1.291 1.496.705.356 1.49.526 2.28.492.478 0 .955-.044 1.425-.132.464-.088.92-.208 1.368-.36.456-.157.9-.347 1.33-.568.23-.118.463-.246.703-.383v-14.27Zm23.756.514a8.21 8.21 0 0 0-4.522-1.193c-.963.004-1.92.132-2.85.38-.995.265-1.952.653-2.85 1.155-.166.092-.33.195-.494.297v-1.793l-4.331.682V107h4.331v-8.508c.691.29 1.411.509 2.147.65.908.172 1.831.254 2.755.246a9.646 9.646 0 0 0 4.902-1.248 8.96 8.96 0 0 0 3.439-3.635c.848-1.59 1.273-3.521 1.273-5.793a11.868 11.868 0 0 0-.969-4.94 7.565 7.565 0 0 0-2.831-3.333Zm-1.369 12.57a4.976 4.976 0 0 1-2.127 2.309 6.988 6.988 0 0 1-3.42.775 11.427 11.427 0 0 1-1.634-.113 9.914 9.914 0 0 1-1.672-.398 22.495 22.495 0 0 1-.493-.166v-11.74l.037-.018a18.45 18.45 0 0 1 1.502-.607c.439-.155.89-.275 1.348-.36a7.268 7.268 0 0 1 1.254-.113 6.773 6.773 0 0 1 3.287.72 4.545 4.545 0 0 1 1.975 2.196c.482 1.19.71 2.466.667 3.748a8.814 8.814 0 0 1-.724 3.766Zm21.684-2.8a6.254 6.254 0 0 0 2.071-1.06 4.36 4.36 0 0 0 1.235-1.571c.281-.619.423-1.29.418-1.97a5.568 5.568 0 0 0-.514-2.309 5.957 5.957 0 0 0-1.519-2.025 7.283 7.283 0 0 0-2.527-1.401 11.129 11.129 0 0 0-3.535-.511c-2.077 0-3.837.435-5.28 1.306a8.247 8.247 0 0 0-3.269 3.673 12.924 12.924 0 0 0-1.102 5.508c0 2.096.386 3.863 1.159 5.3a7.647 7.647 0 0 0 3.477 3.296c1.546.757 3.446 1.136 5.7 1.136.84.005 1.678-.052 2.509-.172a11.701 11.701 0 0 0 2.165-.53 22.918 22.918 0 0 0 2.09-.85l.267-3.143c-.986.385-1.995.708-3.022.965-1.15.277-2.331.41-3.514.398-.949.014-1.895-.1-2.812-.341a4.332 4.332 0 0 1-3.211-3.18 9.17 9.17 0 0 1-.315-1.66l6.604-.347a12.572 12.572 0 0 0 2.925-.512Zm-9.917-1.953a9.506 9.506 0 0 1 .545-2.704 4.584 4.584 0 0 1 1.71-2.272 4.903 4.903 0 0 1 2.755-.738 4.773 4.773 0 0 1 2.28.475c.533.27.981.683 1.293 1.193.265.434.409.93.417 1.438.01.391-.089.778-.285 1.117a1.97 1.97 0 0 1-.95.758 5.58 5.58 0 0 1-1.768.36l-5.997.373ZM156 79.376l-.532 3.9a11.06 11.06 0 0 0-1.463.019c-.442.034-.88.103-1.311.208-.406.102-.806.229-1.197.38a7.731 7.731 0 0 0-1.158.567 28.5 28.5 0 0 0-.836.528v14.087h-4.332V79.906l4.332-.643v3.042c.07-.08.138-.162.208-.24a10.29 10.29 0 0 1 1.767-1.572 6.626 6.626 0 0 1 2.071-.966 6.535 6.535 0 0 1 2.451-.151ZM0 99.183V79.616h6.474v19.567H0ZM15.281 82.73l3.724 16.453H11.92L7.474 79.616h3.974a3.76 3.76 0 0 1 2.486.896 3.867 3.867 0 0 1 1.348 2.218Zm4.696 16.453V79.616h6.474v19.567h-6.474Zm11.364-12.126a3.883 3.883 0 0 1-1.987-.524 3.9 3.9 0 0 1-1.43-1.419 3.8 3.8 0 0 1-.529-1.97 3.73 3.73 0 0 1 .529-1.957 3.948 3.948 0 0 1 1.43-1.405 3.892 3.892 0 0 1 1.987-.524 3.822 3.822 0 0 1 1.972.524 3.978 3.978 0 0 1 1.417 1.405c.354.592.536 1.269.529 1.957a3.808 3.808 0 0 1-.529 1.97 3.93 3.93 0 0 1-1.417 1.42c-.597.35-1.28.531-1.973.523Zm4.918 12.126V79.616h6.474v19.567H36.26Zm14.67-8.874c.018.019.157.244.417.675.26.431.598.982 1.014 1.654a541.7 541.7 0 0 1 2.626 4.271c.406.671.87 1.429 1.389 2.274h-7.113l-1.209-1.943a177.16 177.16 0 0 1-1.152-1.874c-.408-.67-.811-1.322-1.21-1.957a99.205 99.205 0 0 1-1.027-1.667 29.246 29.246 0 0 0-.598-.965 2.836 2.836 0 0 1-.472-1.377c.028-.473.18-.93.444-1.324.111-.183.315-.51.611-.978a292.677 292.677 0 0 0 2.252-3.638c.408-.67.792-1.3 1.152-1.887.362-.588.765-1.24 1.21-1.957h7.112l-5.502 8.901a1.75 1.75 0 0 0-.278.883c.019.328.134.645.333.909h.001Z"/><path fill="#fff" fill-rule="evenodd" d="M78.5 0C59.65 0 44.268 15.329 44.268 34.112c0 18.747 15.383 34.113 34.234 34.113 18.814 0 34.235-15.366 34.235-34.113C112.735 15.329 97.315 0 78.501 0ZM50.98 34.112c0 15.145 12.432 27.68 27.52 27.68 15.236 0 27.522-12.535 27.521-27.68 0-15.328-12.285-27.679-27.52-27.679-15.089 0-27.52 12.351-27.52 27.679Zm21.471.11a5.174 5.174 0 0 1-1.532 3.726 5.209 5.209 0 0 1-3.744 1.512 5.266 5.266 0 0 1-3.717-1.534 5.228 5.228 0 0 1 0-7.408 5.266 5.266 0 0 1 3.717-1.534 5.225 5.225 0 0 1 3.745 1.513 5.188 5.188 0 0 1 1.531 3.725Zm23.94-2.425-3.466 2.755c-.258.184-.258.367-.184.662l1.143 4.227c.075.222-.037.257-.184.146l-3.727-2.424a.552.552 0 0 0-.663 0l-3.764 2.463c-.147.11-.258.037-.184-.183l1.143-4.228a.559.559 0 0 0-.148-.662l-3.504-2.83c-.11-.11-.11-.258.074-.258l4.39-.183a.446.446 0 0 0 .445-.331l1.696-4.228c.11-.256.258-.221.332 0l1.476 4.081a.61.61 0 0 0 .664.478l4.353.184c.258 0 .294.183.11.33h-.002Z" clip-rule="evenodd"/></svg>