<svg xmlns="http://www.w3.org/2000/svg" viewBox="0 0 388 84"><path fill="#6B046A" d="M0 0h388v84H0z"/><path fill="#fff" d="M20 63V21.004h13.78V63H20Zm32.528-35.312L60.453 63h-15.08l-9.464-41.996h8.459a7.965 7.965 0 0 1 5.293 1.922 8.31 8.31 0 0 1 2.867 4.762ZM62.523 63V21.004h13.78V63h-13.78Zm24.189-26.026a8.213 8.213 0 0 1-4.228-1.124 8.336 8.336 0 0 1-3.046-3.046 8.206 8.206 0 0 1-1.125-4.229 8.056 8.056 0 0 1 1.125-4.2 8.437 8.437 0 0 1 3.046-3.016 8.233 8.233 0 0 1 4.228-1.124 8.083 8.083 0 0 1 4.199 1.124 8.504 8.504 0 0 1 3.016 3.016 8.075 8.075 0 0 1 1.125 4.2 8.226 8.226 0 0 1-1.125 4.23 8.4 8.4 0 0 1-3.016 3.045 8.059 8.059 0 0 1-4.201 1.124h.002ZM97.18 63V21.004h13.781V63H97.181Zm31.227-19.046c.039.04.334.524.887 1.449.553.925 1.272 2.108 2.159 3.549a1143.28 1143.28 0 0 1 5.589 9.168A854.89 854.89 0 0 0 140 63h-15.141c-.947-1.538-1.804-2.928-2.573-4.17a388.795 388.795 0 0 1-2.453-4.022 355.984 355.984 0 0 0-2.574-4.2 210.645 210.645 0 0 1-2.188-3.578 62.13 62.13 0 0 0-1.272-2.07 6.127 6.127 0 0 1-1.005-2.958 5.745 5.745 0 0 1 .946-2.84c.236-.394.67-1.094 1.301-2.1.631-1.006 1.37-2.198 2.218-3.578.847-1.38 1.706-2.79 2.574-4.23.869-1.439 1.686-2.79 2.453-4.052.77-1.26 1.628-2.66 2.573-4.2H140l-11.711 19.106a3.773 3.773 0 0 0-.592 1.894c.039.706.286 1.385.709 1.952h.002Z"/><path fill="#EFB4ED" d="M187.848 21.035h-7.386L164.41 39.529h-2.206V21.035H156v41.952h6.204V44.02h.209l17.459 19.026 8.45-.06-20.031-20.799 19.557-21.152ZM202.354 58.643a5.207 5.207 0 0 1-.621.03 3.17 3.17 0 0 1-1.299-.237 2.113 2.113 0 0 1-.886-.739 3.214 3.214 0 0 1-.502-1.27 9.852 9.852 0 0 1-.148-1.83V18.375l-6.027.886v37.993a8.027 8.027 0 0 0 .473 2.925c.283.761.75 1.441 1.359 1.98.607.52 1.324.893 2.098 1.093a10.16 10.16 0 0 0 2.629.325c.474 0 .926-.02 1.359-.06a13.777 13.777 0 0 0 2.305-.413l.59-4.67c-.236.042-.472.081-.709.12-.236.037-.443.067-.621.088ZM235.295 59.264a2.69 2.69 0 0 1-2.304-.946 5.073 5.073 0 0 1-.65-3.13l.118-12.173a14.201 14.201 0 0 0-.473-3.782 9.284 9.284 0 0 0-1.418-3.013 7.99 7.99 0 0 0-2.452-2.186 12.498 12.498 0 0 0-3.575-1.359 21.016 21.016 0 0 0-4.668-.473c-1.244 0-2.487.079-3.721.237a25.645 25.645 0 0 0-3.458.678 28.926 28.926 0 0 0-3.102 1.035l-.709 5.023c.985-.356 1.92-.652 2.807-.887a37.969 37.969 0 0 1 2.57-.59c.81-.156 1.629-.264 2.452-.326a32.77 32.77 0 0 1 2.394-.088 13.2 13.2 0 0 1 3.574.413c.852.213 1.635.64 2.275 1.241.57.584.977 1.307 1.181 2.097.253.974.372 1.978.356 2.985l-.007 1.483-6.907.467c-2.362.066-4.69.587-6.854 1.536a9.815 9.815 0 0 0-4.048 3.28 7.627 7.627 0 0 0-1.329 4.342 8.634 8.634 0 0 0 1.034 4.165 7.772 7.772 0 0 0 3.131 3.103 10.532 10.532 0 0 0 5.23 1.182c1.701.039 3.395-.242 4.993-.829a11.525 11.525 0 0 0 3.722-2.363 16.11 16.11 0 0 0 1.162-1.239c.115.612.331 1.2.64 1.741a4.768 4.768 0 0 0 2.305 2.01c1.07.429 2.215.64 3.367.619.355 0 .7-.01 1.034-.03.329-.019.656-.068.975-.147.316-.08.6-.148.857-.207.231-.052.458-.121.68-.206l.65-3.96a5.18 5.18 0 0 1-1.005.237c-.274.037-.55.057-.827.06Zm-9.838-2.659c-.641.506-1.334.942-2.068 1.3a9.278 9.278 0 0 1-2.305.768 13.07 13.07 0 0 1-2.51.237 6.664 6.664 0 0 1-2.807-.532 3.863 3.863 0 0 1-1.743-1.508 4.41 4.41 0 0 1-.591-2.334 4.474 4.474 0 0 1 .768-2.776 4.513 4.513 0 0 1 2.481-1.477 17.972 17.972 0 0 1 4.609-.473h5.174l-.026 5.865c-.3.338-.628.649-.982.93ZM261.41 49.397a8.864 8.864 0 0 0-2.067-1.626 16.225 16.225 0 0 0-2.482-1.153 51.09 51.09 0 0 1-1.861-.62 33.217 33.217 0 0 0-1.832-.59 36.647 36.647 0 0 1-1.773-.562c-.536-.182-1.058-.4-1.565-.651a10.39 10.39 0 0 1-1.389-.886 3.876 3.876 0 0 1-1.005-1.124 2.856 2.856 0 0 1-.385-1.477 3.063 3.063 0 0 1 .416-1.624c.308-.484.736-.88 1.241-1.152a6.678 6.678 0 0 1 1.979-.71 13.243 13.243 0 0 1 2.63-.236c.432 0 .906.021 1.417.06a20.25 20.25 0 0 1 1.685.206c.611.099 1.219.227 1.831.383.613.157 1.231.336 1.862.532.583.18 1.155.398 1.711.65l.416-4.785a28.353 28.353 0 0 0-2.216-.828 22.117 22.117 0 0 0-2.216-.591 17.722 17.722 0 0 0-2.216-.325c-.73-.06-1.447-.089-2.157-.089a19.488 19.488 0 0 0-4.845.562c-1.356.33-2.644.889-3.811 1.654a7.522 7.522 0 0 0-2.512 2.777 8.468 8.468 0 0 0-.886 3.989 8.343 8.343 0 0 0 .473 2.924 6.97 6.97 0 0 0 1.241 2.157 8.648 8.648 0 0 0 1.802 1.566c.698.458 1.44.844 2.216 1.152.432.158.885.315 1.359.472.473.158.935.306 1.389.443.454.137.894.277 1.329.414.436.137.856.276 1.27.413.414.137.817.267 1.211.385.529.187 1.043.414 1.537.679.434.23.84.508 1.212.828.326.286.588.639.768 1.034.179.41.27.852.265 1.299a2.956 2.956 0 0 1-.975 2.334 5.658 5.658 0 0 1-2.541 1.212c-1.096.242-2.215.36-3.337.354a16.598 16.598 0 0 1-2.099-.147 31.28 31.28 0 0 1-2.422-.414 36.056 36.056 0 0 1-2.6-.65 52.404 52.404 0 0 1-2.688-.857l.235 5.023c1.024.355 1.96.64 2.807.857.848.216 1.656.403 2.424.562.739.154 1.49.252 2.244.296.729.04 1.467.06 2.216.06 1.648.008 3.293-.16 4.905-.504a12.637 12.637 0 0 0 4.018-1.566 7.712 7.712 0 0 0 2.688-2.776 8.108 8.108 0 0 0 .973-4.078 8.277 8.277 0 0 0-.501-3.041 6.909 6.909 0 0 0-1.389-2.215ZM289.122 49.397a8.909 8.909 0 0 0-2.069-1.626 16.08 16.08 0 0 0-2.482-1.153 51.09 51.09 0 0 1-1.861-.62 33.215 33.215 0 0 0-1.832-.59 37.48 37.48 0 0 1-1.773-.562c-.536-.182-1.058-.4-1.565-.651a10.326 10.326 0 0 1-1.389-.886 3.855 3.855 0 0 1-1.003-1.124 2.828 2.828 0 0 1-.386-1.477 3.063 3.063 0 0 1 .415-1.624 3.34 3.34 0 0 1 1.241-1.152 6.68 6.68 0 0 1 1.979-.71 13.248 13.248 0 0 1 2.629-.236 19.164 19.164 0 0 1 3.103.266c.611.099 1.22.227 1.83.383.611.157 1.231.336 1.863.532.584.18 1.156.398 1.712.65l.415-4.785a28.315 28.315 0 0 0-2.216-.828 22.054 22.054 0 0 0-2.216-.591 17.704 17.704 0 0 0-2.216-.325 26.72 26.72 0 0 0-2.156-.089 19.474 19.474 0 0 0-4.845.562c-1.356.329-2.645.889-3.812 1.654a7.529 7.529 0 0 0-2.511 2.777 8.444 8.444 0 0 0-.886 3.989 8.32 8.32 0 0 0 .474 2.924c.28.788.7 1.519 1.24 2.157a8.627 8.627 0 0 0 1.803 1.566c.697.458 1.44.844 2.215 1.152.432.158.885.315 1.359.472.473.158.935.306 1.389.443.454.137.895.277 1.328.414.434.137.857.276 1.271.413.413.137.817.267 1.212.385a11.01 11.01 0 0 1 1.535.679c.434.23.841.507 1.213.828.326.286.588.639.767 1.034.181.409.272.852.267 1.299a2.943 2.943 0 0 1-.976 2.334 5.661 5.661 0 0 1-2.541 1.212c-1.096.242-2.215.36-3.337.354a16.588 16.588 0 0 1-2.098-.147 31.271 31.271 0 0 1-2.423-.414 35.821 35.821 0 0 1-2.6-.65 52.817 52.817 0 0 1-2.688-.856l.237 5.022c1.022.355 1.958.64 2.806.857.848.216 1.656.403 2.423.562.74.154 1.49.252 2.245.296.728.04 1.467.06 2.216.06 1.647.008 3.291-.16 4.903-.504a12.625 12.625 0 0 0 4.018-1.566 7.703 7.703 0 0 0 2.689-2.776 8.099 8.099 0 0 0 .974-4.078 8.256 8.256 0 0 0-.502-3.041 6.9 6.9 0 0 0-1.388-2.215ZM303.332 19.882a3.826 3.826 0 0 0-2.038-.56 3.983 3.983 0 0 0-2.068.56 4.322 4.322 0 0 0-1.505 1.478 3.814 3.814 0 0 0-.563 2.037 3.972 3.972 0 0 0 .563 2.068 4.014 4.014 0 0 0 1.505 1.477 4.158 4.158 0 0 0 2.068.532 3.996 3.996 0 0 0 2.038-.532 3.883 3.883 0 0 0 1.449-1.477 4.158 4.158 0 0 0 .531-2.068 3.989 3.989 0 0 0-.531-2.037 4.184 4.184 0 0 0-1.449-1.478ZM298.162 62.986h6.027V32.26l-6.027.886v29.839ZM332.078 49.397a8.885 8.885 0 0 0-2.068-1.626 16.154 16.154 0 0 0-2.483-1.153 51.688 51.688 0 0 1-1.86-.62 32.707 32.707 0 0 0-1.833-.59 37.806 37.806 0 0 1-1.772-.562c-.536-.182-1.059-.4-1.565-.651a10.36 10.36 0 0 1-1.39-.886 3.855 3.855 0 0 1-1.003-1.124 2.836 2.836 0 0 1-.385-1.477 3.062 3.062 0 0 1 .414-1.624 3.349 3.349 0 0 1 1.241-1.152 6.68 6.68 0 0 1 1.98-.71 13.241 13.241 0 0 1 2.629-.236 19.138 19.138 0 0 1 3.102.266c.612.099 1.22.227 1.831.383.61.157 1.231.336 1.862.532.584.18 1.156.398 1.713.65l.414-4.785a28.315 28.315 0 0 0-2.216-.828 21.938 21.938 0 0 0-2.215-.591 17.704 17.704 0 0 0-2.216-.325c-.73-.06-1.448-.089-2.157-.089a19.474 19.474 0 0 0-4.845.562 12.18 12.18 0 0 0-3.811 1.654 7.512 7.512 0 0 0-2.511 2.777 8.444 8.444 0 0 0-.887 3.989 8.344 8.344 0 0 0 .474 2.924c.28.788.701 1.519 1.241 2.157a8.634 8.634 0 0 0 1.802 1.566c.698.458 1.44.844 2.216 1.152.432.158.885.315 1.359.472.474.157.937.304 1.388.443.452.14.895.277 1.329.414.434.136.857.274 1.27.413.414.139.818.267 1.213.385.528.187 1.042.414 1.536.679.433.23.84.507 1.211.828a3.02 3.02 0 0 1 1.034 2.333 2.956 2.956 0 0 1-.975 2.334 5.669 5.669 0 0 1-2.542 1.212c-1.095.242-2.215.36-3.337.354a16.6 16.6 0 0 1-2.098-.147 31.25 31.25 0 0 1-2.422-.414 35.844 35.844 0 0 1-2.601-.65 53.462 53.462 0 0 1-2.688-.856l.237 5.022a35.02 35.02 0 0 0 2.806.857c.848.216 1.656.403 2.423.562.74.154 1.491.252 2.245.296.728.04 1.467.06 2.216.06 1.648.008 3.292-.16 4.903-.504a12.63 12.63 0 0 0 4.019-1.566 7.709 7.709 0 0 0 2.689-2.776 8.12 8.12 0 0 0 .974-4.078 8.298 8.298 0 0 0-.502-3.041 6.903 6.903 0 0 0-1.389-2.215ZM359.322 62.986h7.8l-14.333-16.15 14.037-13.985h-7.386L349.329 43.96h-2.179V18.375l-6.027.886v43.725h6.027V48.51h.099l12.073 14.476Z"/></svg>