<svg xmlns="http://www.w3.org/2000/svg" viewBox="0 0 198 48"><path fill="#fff" d="M0 45V3.004h13.78V45H0ZM32.528 9.688 40.453 45h-15.08L15.908 3.004h8.459a7.965 7.965 0 0 1 5.293 1.922 8.31 8.31 0 0 1 2.867 4.762ZM42.523 45V3.004h13.78V45h-13.78Zm24.189-26.026a8.213 8.213 0 0 1-4.228-1.124 8.336 8.336 0 0 1-3.046-3.046 8.206 8.206 0 0 1-1.125-4.229 8.056 8.056 0 0 1 1.125-4.2 8.437 8.437 0 0 1 3.046-3.016 8.232 8.232 0 0 1 4.228-1.124 8.083 8.083 0 0 1 4.199 1.124 8.503 8.503 0 0 1 3.016 3.016 8.075 8.075 0 0 1 1.125 4.2 8.226 8.226 0 0 1-1.125 4.23 8.4 8.4 0 0 1-3.016 3.045 8.059 8.059 0 0 1-4.201 1.124h.002ZM77.18 45V3.004h13.781V45H77.181Zm31.227-19.046c.039.04.334.524.887 1.449.553.925 1.272 2.108 2.159 3.549a1143.28 1143.28 0 0 1 5.589 9.168A854.89 854.89 0 0 0 120 45h-15.141c-.947-1.538-1.804-2.928-2.573-4.17a382.214 382.214 0 0 1-2.453-4.022 351.934 351.934 0 0 0-2.574-4.2 213.445 213.445 0 0 1-2.188-3.578 62.753 62.753 0 0 0-1.272-2.07 6.119 6.119 0 0 1-1.005-2.958 5.744 5.744 0 0 1 .946-2.84c.236-.394.67-1.095 1.3-2.1.632-1.006 1.371-2.198 2.219-3.579a636.03 636.03 0 0 0 2.574-4.229c.869-1.439 1.686-2.79 2.453-4.052.77-1.26 1.628-2.66 2.573-4.2H120l-11.711 19.106a3.773 3.773 0 0 0-.592 1.894c.039.706.286 1.385.709 1.952h.002Z"/><path fill="#FB84C1" d="M164.56 8.441a10.525 10.525 0 0 0-2.755-2.87 13.244 13.244 0 0 0-3.999-1.893A18.975 18.975 0 0 0 152.473 3H136v42h6.222V29.914h10.726a14.006 14.006 0 0 0 6.932-1.715 12.813 12.813 0 0 0 4.889-4.793 14.104 14.104 0 0 0 1.807-7.275 17.264 17.264 0 0 0-.473-4.082 11.74 11.74 0 0 0-1.543-3.608Zm-5.51 12.748a6.993 6.993 0 0 1-3.347 2.75 13.83 13.83 0 0 1-5.246.888h-8.236V8.146h9.067a11.307 11.307 0 0 1 5.037.975 6.488 6.488 0 0 1 2.932 2.84 9.504 9.504 0 0 1 .979 4.465 8.74 8.74 0 0 1-1.186 4.763ZM178.646 39.91c.938-.802 1.902-1.638 2.921-2.543a81.904 81.904 0 0 0 4.296-4.111 70.372 70.372 0 0 0 4.118-4.613 43.362 43.362 0 0 0 3.467-4.88 25.207 25.207 0 0 0 2.37-5.028c.559-1.618.849-3.316.859-5.028a10.9 10.9 0 0 0-.948-4.642 10.03 10.03 0 0 0-2.785-3.55 12.713 12.713 0 0 0-4.592-2.308c-2.056-.56-4.18-.83-6.311-.798a23.352 23.352 0 0 0-4.118.355A21.457 21.457 0 0 0 174.13 3.8a25.62 25.62 0 0 0-3.407 1.566l.77 5.147a15.796 15.796 0 0 1 2.993-1.568 20.866 20.866 0 0 1 3.526-1.065 18.158 18.158 0 0 1 3.733-.383 12.57 12.57 0 0 1 3.881.531 7.055 7.055 0 0 1 2.696 1.538 6.194 6.194 0 0 1 1.57 2.337c.345.937.516 1.93.504 2.928a13.09 13.09 0 0 1-1.007 4.88 25.92 25.92 0 0 1-2.845 5.147 54.936 54.936 0 0 1-4.325 5.383 94.337 94.337 0 0 1-5.422 5.501 454.53 454.53 0 0 1-6.074 5.59l.77 3.668h25.658l.711-5.088-19.216-.001Z"/></svg>