<svg xmlns="http://www.w3.org/2000/svg" viewBox="0 0 156 104"><path fill="#fff" fill-rule="evenodd" d="M0 0h104v104H0V0Zm33.587 46.221H24v34.831h9.587v-34.83Zm12.155 0H34.976s6.117 10.027 6.186 10.154c.468.795.497 1.283.04 2.05l-6.226 10.19h10.766s5.19-8.477 5.9-9.653c.705-1.178.673-1.91-.028-3.118-.716-1.22-.762-1.294-4.976-8.161l-.896-1.462Zm30.15 0s3.203 5.155 3.565 5.77c.703 1.213.735 1.947.028 3.128l-4.73 7.828c.777 1.267 1.812 2.924 2.72 4.38v.001c.933 1.494 1.732 2.773 1.982 3.199.703 1.212.735 1.946.028 3.127-.134.222-.405.677-.76 1.273l-.003.006-.002.003-.004.005-.001.003a669.71 669.71 0 0 1-3.67 6.108H65.21l5.386-8.84-5.586-9.363 5.01-8.197H57.882l-5.033-8.43H75.89Zm-18.6 17.886c-1.516 2.474-4.052 6.618-4.527 7.427-.677 1.167-.708 1.874-.027 3.012.475.788 3.031 4.966 4.554 7.454 1.524-2.489 4.08-6.666 4.555-7.454.68-1.138.65-1.845-.027-3.012-.476-.809-3.012-4.953-4.528-7.427ZM24 21.468v19.594h6.43V21.468H24Zm18.878 19.594L39.18 24.587a3.878 3.878 0 0 0-1.338-2.222 3.718 3.718 0 0 0-2.47-.897h-3.948l4.416 19.594h7.038Zm.966-19.594v19.594h6.431V21.468h-6.43Zm9.315 6.927c.598.35 1.28.531 1.973.525a3.76 3.76 0 0 0 1.96-.525 3.92 3.92 0 0 0 1.407-1.421c.35-.598.532-1.28.525-1.973a3.767 3.767 0 0 0-.525-1.96 3.967 3.967 0 0 0-1.407-1.407 3.773 3.773 0 0 0-1.96-.524 3.843 3.843 0 0 0-1.973.524 3.937 3.937 0 0 0-1.421 1.407 3.759 3.759 0 0 0-.525 1.96 3.828 3.828 0 0 0 .525 1.973 3.89 3.89 0 0 0 1.421 1.421Zm6.859-6.927v19.594h6.431V21.468h-6.431Zm14.986 11.384a15.153 15.153 0 0 0-.414-.676 1.676 1.676 0 0 1-.331-.91c.011-.314.107-.62.276-.884L80 21.468h-7.066c-.44.718-.841 1.371-1.2 1.96-.358.588-.74 1.218-1.145 1.89a294.72 294.72 0 0 1-2.237 3.642c-.294.47-.496.796-.607.98a2.68 2.68 0 0 0-.441 1.325c.034.493.196.968.469 1.38.11.166.308.488.594.966.284.478.624 1.034 1.02 1.67.396.635.797 1.288 1.202 1.96.404.67.785 1.296 1.144 1.876.36.58.76 1.228 1.201 1.945H80a412.47 412.47 0 0 1-1.38-2.276 550.863 550.863 0 0 0-2.608-4.278c-.414-.672-.75-1.224-1.008-1.656Z" clip-rule="evenodd"/><path fill="#fff" d="m156 73-14.5-21.908L154.747 31h-6.627l-9.623 15.993L127.939 31h-7.282l13.605 20.384L120 72.999h6.746l10.618-17.261 11.412 17.261L156 73Z"/></svg>