<svg xmlns="http://www.w3.org/2000/svg" viewBox="0 0 393 164"><path fill="#fff" d="M0 43.5V1.504h13.78V43.5H0ZM32.528 8.188 40.453 43.5h-15.08L15.908 1.504h8.459a7.965 7.965 0 0 1 5.293 1.922 8.31 8.31 0 0 1 2.867 4.762ZM42.523 43.5V1.504h13.78V43.5h-13.78Zm24.189-26.026a8.213 8.213 0 0 1-4.228-1.124 8.336 8.336 0 0 1-3.046-3.046 8.206 8.206 0 0 1-1.125-4.229 8.056 8.056 0 0 1 1.125-4.2 8.437 8.437 0 0 1 3.046-3.016A8.232 8.232 0 0 1 66.712.735a8.083 8.083 0 0 1 4.199 1.124 8.503 8.503 0 0 1 3.016 3.016 8.075 8.075 0 0 1 1.125 4.2 8.226 8.226 0 0 1-1.125 4.23 8.4 8.4 0 0 1-3.016 3.045 8.059 8.059 0 0 1-4.201 1.124h.002ZM77.18 43.5V1.504h13.781V43.5H77.181Zm31.227-19.046c.039.04.334.524.887 1.449.553.925 1.272 2.108 2.159 3.549a1143.28 1143.28 0 0 1 5.589 9.168A854.89 854.89 0 0 0 120 43.5h-15.141c-.947-1.538-1.804-2.928-2.573-4.17a382.214 382.214 0 0 1-2.453-4.022 351.934 351.934 0 0 0-2.574-4.2 213.445 213.445 0 0 1-2.188-3.578 62.753 62.753 0 0 0-1.272-2.07 6.119 6.119 0 0 1-1.005-2.958 5.744 5.744 0 0 1 .946-2.84c.236-.394.67-1.095 1.3-2.1.632-1.006 1.371-2.198 2.219-3.579.847-1.38 1.706-2.79 2.574-4.229.869-1.439 1.686-2.79 2.453-4.052.77-1.26 1.628-2.66 2.573-4.2H120l-11.711 19.106a3.773 3.773 0 0 0-.592 1.894c.039.706.286 1.385.709 1.952h.002Z"/><path fill="#85E6D6" d="M31.827 61.685h-7.38L8.407 80.166H6.201v-18.48h-6.2v41.921h6.2V84.653h.207l17.447 19.013 8.443-.059-20.017-20.784 19.545-21.138ZM49.362 73.287a11.6 11.6 0 0 0-3.129 1.358 15.403 15.403 0 0 0-2.775 2.215c-.14.138-.275.295-.413.442v-4.398l-6.023.885v29.818h6.023V81.3a16.5 16.5 0 0 1 1.387-.868c.591-.326 1.203-.612 1.831-.856a20.39 20.39 0 0 1 1.86-.62 12.686 12.686 0 0 1 4.132-.443l.71-5.55a11.238 11.238 0 0 0-3.603.325ZM58.453 103.607h6.023V72.904l-6.023.885v29.818ZM59.517 67.59c.63.354 1.343.537 2.066.531a3.982 3.982 0 0 0 2.037-.531 3.862 3.862 0 0 0 1.447-1.476 4.15 4.15 0 0 0 .532-2.067 3.991 3.991 0 0 0-.532-2.037 4.164 4.164 0 0 0-1.447-1.476 3.82 3.82 0 0 0-2.036-.561 3.975 3.975 0 0 0-2.067.56 4.331 4.331 0 0 0-1.505 1.477 3.81 3.81 0 0 0-.56 2.037 3.962 3.962 0 0 0 .56 2.067 4.01 4.01 0 0 0 1.505 1.476ZM89.04 78.454a8.093 8.093 0 0 1 2.834.443c.751.27 1.422.727 1.948 1.328.543.651.927 1.42 1.122 2.244.252 1.043.371 2.115.354 3.188v17.95h6.023v-19.19a16.347 16.347 0 0 0-1.122-6.554 7.737 7.737 0 0 0-3.365-3.778 11.618 11.618 0 0 0-5.669-1.24 16.587 16.587 0 0 0-5.048.797c-1.681.535-3.28 1.3-4.753 2.273-.57.375-1.118.787-1.653 1.21v-4.221l-6.023.885v29.818h6.023V81.182c.583-.342 1.184-.651 1.8-.927.83-.368 1.677-.693 2.54-.975.829-.271 1.678-.478 2.538-.62a15.24 15.24 0 0 1 2.45-.206ZM132.443 114.973c2.15-1.003 1.582-2.628 2.798-4.665a13.4 13.4 0 0 0 1.742-6.878V72.845l-5.776 1.486a17.256 17.256 0 0 0-2.048-.719 21.335 21.335 0 0 0-2.745-.56 23.054 23.054 0 0 0-3.189-.207 14.277 14.277 0 0 0-5.609 1.121 14.85 14.85 0 0 0-4.753 3.218 14.576 14.576 0 0 0-3.277 5.196 19.893 19.893 0 0 0-1.181 7.115 18.49 18.49 0 0 0 1.505 7.764 11.444 11.444 0 0 0 4.4 5.078 13.03 13.03 0 0 0 7.026 1.801 17.038 17.038 0 0 0 6.318-1.24 14.982 14.982 0 0 0 3.364-1.912v1.617a12.465 12.465 0 0 1-.56 3.926 7.147 7.147 0 0 1-1.712 2.835 7.05 7.05 0 0 1-3.012 1.712c-1.47.404-2.992.593-4.516.561a32.87 32.87 0 0 1-3.631-.207 25.819 25.819 0 0 1-3.75-.708 28.707 28.707 0 0 1-3.72-1.27l3.017 5.196c1.086.441 2.201.806 3.337 1.092 1.195.302 2.408.529 3.631.679 1.292.159 2.594.238 3.896.237 2.907.09 5.795-.485 8.445-1.683Zm-2.192-17.713c-.732.424-1.491.8-2.272 1.121-.69.283-1.401.51-2.127.68-.707.159-1.43.238-2.154.235a10.257 10.257 0 0 1-5.107-1.15 6.91 6.91 0 0 1-3.012-3.484 15.698 15.698 0 0 1-.974-5.994c-.027-1.63.202-3.253.678-4.812a9.077 9.077 0 0 1 1.949-3.454 8.513 8.513 0 0 1 3.129-2.096 11.373 11.373 0 0 1 4.221-.738 16.17 16.17 0 0 1 2.776.236c.939.166 1.866.393 2.776.68.289.09.59.21.885.32v18.003c-.26.153-.522.313-.768.453ZM152.156 89.14h.099l12.063 14.467h7.794l-14.322-16.14 14.027-13.973h-7.381l-10.102 11.103h-2.178V59.031l-6.022.886v43.693h6.022V89.14ZM194.027 99.772c.116.611.332 1.199.64 1.739a4.77 4.77 0 0 0 2.303 2.007c1.069.43 2.213.64 3.365.62.355 0 .699-.01 1.034-.029.328-.02.654-.07.974-.148.315-.08.599-.148.856-.207.232-.052.459-.121.68-.206l.648-3.956a5.25 5.25 0 0 1-1.003.236 6.74 6.74 0 0 1-.827.059 2.692 2.692 0 0 1-2.303-.945 5.082 5.082 0 0 1-.649-3.13l.118-12.162a14.214 14.214 0 0 0-.472-3.78 9.299 9.299 0 0 0-1.416-3.01 8.004 8.004 0 0 0-2.452-2.185 12.513 12.513 0 0 0-3.572-1.358 20.998 20.998 0 0 0-4.664-.472c-1.244 0-2.487.078-3.72.236-1.166.147-2.32.373-3.454.679-1.052.285-2.087.63-3.1 1.033l-.709 5.019a34.698 34.698 0 0 1 5.373-1.476c.81-.155 1.628-.263 2.451-.325a32.786 32.786 0 0 1 2.391-.089 13.198 13.198 0 0 1 3.572.414c.851.212 1.634.64 2.273 1.24.57.584.976 1.306 1.181 2.096.251.973.37 1.976.353 2.981l-.006 1.481-6.902.468c-2.36.066-4.686.587-6.849 1.535a9.802 9.802 0 0 0-4.044 3.277 7.633 7.633 0 0 0-1.329 4.34 8.638 8.638 0 0 0 1.034 4.162 7.77 7.77 0 0 0 3.129 3.1 10.519 10.519 0 0 0 5.225 1.181c1.7.039 3.393-.241 4.99-.826a11.528 11.528 0 0 0 3.719-2.362c.409-.392.797-.805 1.162-1.237Zm-5.529-.476c-.827.16-1.668.239-2.51.237a6.669 6.669 0 0 1-2.805-.532 3.86 3.86 0 0 1-1.742-1.505 4.412 4.412 0 0 1-.59-2.333 4.477 4.477 0 0 1 .767-2.775 4.512 4.512 0 0 1 2.48-1.476 17.97 17.97 0 0 1 4.607-.472h5.169l-.027 5.86c-.3.338-.63.649-.984.93-.64.506-1.333.941-2.066 1.299a9.35 9.35 0 0 1-2.299.767ZM229.711 99.359a8.115 8.115 0 0 0 .973-4.075 8.272 8.272 0 0 0-.502-3.04 6.94 6.94 0 0 0-1.387-2.215 8.882 8.882 0 0 0-2.067-1.623 15.999 15.999 0 0 0-2.48-1.152c-.63-.196-1.25-.403-1.86-.62a32.96 32.96 0 0 0-1.83-.59 37.693 37.693 0 0 1-1.772-.56c-.535-.183-1.057-.4-1.564-.65-.486-.258-.95-.554-1.388-.886a3.901 3.901 0 0 1-1.004-1.122 2.851 2.851 0 0 1-.383-1.476 3.052 3.052 0 0 1 .414-1.624 3.35 3.35 0 0 1 1.239-1.151 6.674 6.674 0 0 1 1.978-.709 13.228 13.228 0 0 1 2.627-.236c.433 0 .906.02 1.419.06.512.039 1.073.108 1.682.206a20.21 20.21 0 0 1 1.829.384 37.9 37.9 0 0 1 1.861.531c.584.18 1.156.397 1.712.65l.414-4.783a28.157 28.157 0 0 0-2.214-.827 21.786 21.786 0 0 0-2.214-.59 17.736 17.736 0 0 0-2.214-.325 26.72 26.72 0 0 0-2.156-.088 19.468 19.468 0 0 0-4.842.56c-1.355.33-2.643.89-3.809 1.654a7.541 7.541 0 0 0-2.509 2.775 8.445 8.445 0 0 0-.886 3.985 8.331 8.331 0 0 0 .473 2.923c.28.787.7 1.517 1.24 2.155a8.638 8.638 0 0 0 1.801 1.565c.697.457 1.439.843 2.214 1.151a55.71 55.71 0 0 0 2.745.915 101.968 101.968 0 0 1 2.598.827c.414.138.817.266 1.211.384a11.03 11.03 0 0 1 1.535.679c.433.23.84.506 1.211.826.326.286.588.639.767 1.034.18.409.271.852.266 1.299a2.937 2.937 0 0 1-.975 2.332 5.663 5.663 0 0 1-2.539 1.21c-1.095.242-2.214.36-3.336.355a16.589 16.589 0 0 1-2.096-.148 30.003 30.003 0 0 1-2.42-.413 37.586 37.586 0 0 1-2.599-.65 52.842 52.842 0 0 1-2.686-.856l.237 5.019c1.023.354 1.958.639 2.804.856.846.216 1.653.403 2.421.561.739.153 1.489.251 2.243.295.729.039 1.467.058 2.214.059a23.06 23.06 0 0 0 4.901-.502 12.654 12.654 0 0 0 4.015-1.564 7.734 7.734 0 0 0 2.688-2.775ZM253.445 98.854l-1.003.177a8.811 8.811 0 0 1-.975.118c-.315.02-.611.03-.885.03a5.956 5.956 0 0 1-2.628-.532 3.797 3.797 0 0 1-1.682-1.565 4.975 4.975 0 0 1-.591-2.509V78.218h8.325l.65-4.724h-8.975v-9.329l-6.022 2.126v7.203h-4.547l-.649 4.724h5.196v17.595a10.012 10.012 0 0 0 .531 3.454c.304.879.775 1.691 1.388 2.391a6.141 6.141 0 0 0 2.007 1.476 10.13 10.13 0 0 0 2.449.768 14.33 14.33 0 0 0 2.539.236c.63 0 1.251-.02 1.861-.059.609-.04 1.171-.098 1.683-.177.512-.079.994-.168 1.447-.266.452-.097.835-.186 1.151-.265l.354-4.901a4.36 4.36 0 0 1-.708.207c-.277.059-.581.118-.916.177ZM266.496 60.534a3.82 3.82 0 0 0-2.036-.561 3.97 3.97 0 0 0-2.067.56 4.333 4.333 0 0 0-1.506 1.477 3.81 3.81 0 0 0-.56 2.037 3.955 3.955 0 0 0 .56 2.067 4.005 4.005 0 0 0 1.506 1.476 4.14 4.14 0 0 0 2.067.531 3.982 3.982 0 0 0 2.036-.531 3.853 3.853 0 0 0 1.447-1.476c.355-.631.538-1.344.532-2.067a3.987 3.987 0 0 0-.532-2.037 4.152 4.152 0 0 0-1.447-1.476ZM261.327 103.607h6.022V72.904l-6.022.885v29.818ZM299.706 74.085a11.613 11.613 0 0 0-5.667-1.24 16.589 16.589 0 0 0-5.049.797 19.196 19.196 0 0 0-4.753 2.273c-.57.375-1.118.787-1.654 1.21v-4.221l-6.022.885v29.818h6.022V81.182a18.59 18.59 0 0 1 1.801-.927 26.862 26.862 0 0 1 2.539-.975 17.032 17.032 0 0 1 2.539-.62c.81-.134 1.63-.203 2.451-.206a8.082 8.082 0 0 1 2.833.443c.752.27 1.422.727 1.949 1.328a5.51 5.51 0 0 1 1.123 2.244c.251 1.044.37 2.115.353 3.188v17.95h6.022v-19.19a16.364 16.364 0 0 0-1.121-6.554 7.737 7.737 0 0 0-3.366-3.778ZM332.035 73.612a21.316 21.316 0 0 0-2.746-.56 23.05 23.05 0 0 0-3.188-.207 14.263 14.263 0 0 0-5.609 1.121 14.828 14.828 0 0 0-4.754 3.218 14.56 14.56 0 0 0-3.277 5.196 19.894 19.894 0 0 0-1.181 7.115 18.458 18.458 0 0 0 1.505 7.764 11.441 11.441 0 0 0 4.399 5.078 13.032 13.032 0 0 0 7.026 1.801 17.018 17.018 0 0 0 6.318-1.24 14.995 14.995 0 0 0 3.366-1.912v1.617a12.466 12.466 0 0 1-.561 3.926 7.147 7.147 0 0 1-1.712 2.835 7.06 7.06 0 0 1-3.012 1.712c-1.47.404-2.992.593-4.517.561a32.884 32.884 0 0 1-3.631-.207 25.806 25.806 0 0 1-3.749-.708 28.721 28.721 0 0 1-3.721-1.27l.651 5.196c1.085.44 2.2.805 3.335 1.092 1.196.302 2.408.529 3.632.679 1.292.159 2.594.238 3.897.237 2.906.09 5.794-.485 8.443-1.683a11.852 11.852 0 0 0 5.166-4.665 13.39 13.39 0 0 0 1.742-6.878V72.845l-5.774 1.486a17.327 17.327 0 0 0-2.048-.719Zm1.091 23.648c-.731.425-1.49.8-2.272 1.121-.689.283-1.4.51-2.126.68-.707.159-1.43.238-2.155.235a10.262 10.262 0 0 1-5.107-1.15 6.903 6.903 0 0 1-3.011-3.484 15.699 15.699 0 0 1-.975-5.994c-.026-1.629.203-3.253.678-4.812a9.082 9.082 0 0 1 1.95-3.454 8.507 8.507 0 0 1 3.129-2.096 11.376 11.376 0 0 1 4.222-.738c.93-.001 1.858.078 2.775.236.939.166 1.866.393 2.775.68.289.09.59.21.886.32v18.003c-.262.153-.528.313-.772.453h.003ZM367.664 90.026a8.881 8.881 0 0 0-2.067-1.623 15.953 15.953 0 0 0-2.48-1.152 52.085 52.085 0 0 1-1.86-.62c-.61-.216-1.22-.413-1.83-.59a37.278 37.278 0 0 1-1.771-.56c-.536-.183-1.058-.4-1.565-.65-.485-.258-.95-.554-1.388-.886a3.857 3.857 0 0 1-1.002-1.122 2.833 2.833 0 0 1-.385-1.476 3.061 3.061 0 0 1 .414-1.624c.308-.483.735-.88 1.24-1.151a6.66 6.66 0 0 1 1.977-.709 13.24 13.24 0 0 1 2.628-.236c.433 0 .905.02 1.418.06.512.039 1.073.108 1.682.206.61.098 1.22.226 1.83.384.61.157 1.23.334 1.861.531.583.18 1.155.397 1.711.65l.414-4.783a28.199 28.199 0 0 0-2.214-.827 21.734 21.734 0 0 0-2.214-.59c-.73-.155-1.47-.263-2.214-.325-.73-.059-1.448-.088-2.156-.088a19.46 19.46 0 0 0-4.841.56c-1.355.33-2.643.889-3.809 1.654a7.527 7.527 0 0 0-2.509 2.775 8.431 8.431 0 0 0-.885 3.985 8.284 8.284 0 0 0 .473 2.923c.28.787.699 1.517 1.239 2.155a8.634 8.634 0 0 0 1.802 1.565c.697.457 1.439.843 2.214 1.151a56.173 56.173 0 0 0 2.745.915 101.76 101.76 0 0 1 2.597.827c.414.138.817.266 1.212.384.528.187 1.041.414 1.534.679.433.23.84.506 1.211.826.327.286.588.638.767 1.034.181.408.272.851.267 1.299a2.953 2.953 0 0 1-.976 2.332 5.664 5.664 0 0 1-2.539 1.21c-1.095.242-2.213.361-3.334.355a16.592 16.592 0 0 1-2.097-.148 29.823 29.823 0 0 1-2.42-.413 37.587 37.587 0 0 1-2.599-.65 53.06 53.06 0 0 1-2.686-.856l.236 5.019c1.023.354 1.957.639 2.804.856.847.216 1.654.403 2.421.561.74.153 1.49.251 2.244.295.728.039 1.466.058 2.214.059 1.647.008 3.29-.16 4.9-.502a12.654 12.654 0 0 0 4.015-1.564 7.71 7.71 0 0 0 2.688-2.775 8.104 8.104 0 0 0 .973-4.075 8.25 8.25 0 0 0-.502-3.04 6.92 6.92 0 0 0-1.388-2.215ZM375.812 84.417l-.414 4.842h16.709l.413-4.842h-16.708ZM23.36 133.778a16.198 16.198 0 0 0-8-1.889 16.125 16.125 0 0 0-8.06 1.948 13.615 13.615 0 0 0-5.372 5.491 17.356 17.356 0 0 0-1.92 8.385 18.109 18.109 0 0 0 1.8 8.355 12.325 12.325 0 0 0 5.167 5.343 16.057 16.057 0 0 0 7.794 1.83 16.63 16.63 0 0 0 8.149-1.948 13.758 13.758 0 0 0 5.52-5.55 17.405 17.405 0 0 0 1.979-8.503 17.1 17.1 0 0 0-1.832-8.118 12.9 12.9 0 0 0-5.224-5.344Zm-.354 19.78a8.054 8.054 0 0 1-3.218 3.69 9.167 9.167 0 0 1-4.723 1.211 8.387 8.387 0 0 1-4.605-1.24 8.313 8.313 0 0 1-3.07-3.72 14.906 14.906 0 0 1-1.122-6.141 13.914 13.914 0 0 1 1.121-5.963 7.851 7.851 0 0 1 3.16-3.543 9.558 9.558 0 0 1 4.871-1.181 9.28 9.28 0 0 1 3.867.739 7.077 7.077 0 0 1 2.717 2.155 9.541 9.541 0 0 1 1.622 3.395c.37 1.436.548 2.915.532 4.398a14.714 14.714 0 0 1-1.152 6.2ZM50.077 132.332a11.574 11.574 0 0 0-3.129 1.358 15.358 15.358 0 0 0-2.776 2.214c-.139.139-.274.295-.413.442v-4.398l-6.023.886v29.817h6.023v-22.307c.448-.312.911-.602 1.388-.868.591-.325 1.203-.611 1.83-.856a20.339 20.339 0 0 1 1.86-.62 12.66 12.66 0 0 1 4.134-.443l.707-5.55a11.234 11.234 0 0 0-3.601.325ZM84.854 132.538h-7.38L67.37 143.642h-2.178v-25.566l-6.022.885v43.693h6.022v-14.466h.099l12.063 14.466h7.794l-14.322-16.139 14.028-13.977ZM113.018 136.347a10.709 10.709 0 0 0-4.34-3.336 15.12 15.12 0 0 0-5.993-1.122 14.674 14.674 0 0 0-6.022 1.181 12.867 12.867 0 0 0-4.517 3.306 14.504 14.504 0 0 0-2.835 5.108 21.336 21.336 0 0 0-.974 6.642 17.874 17.874 0 0 0 1.742 8.237 11.534 11.534 0 0 0 5.167 5.137 18.356 18.356 0 0 0 8.384 1.741 28.82 28.82 0 0 0 4.162-.265 19.992 19.992 0 0 0 3.396-.797 22.203 22.203 0 0 0 3.188-1.358l.413-4.547c-.748.276-1.506.551-2.274.827-.768.275-1.564.521-2.39.738-.834.218-1.683.376-2.539.472-.863.098-1.73.148-2.598.148a18.657 18.657 0 0 1-4.607-.502 7.574 7.574 0 0 1-3.275-1.712 7.48 7.48 0 0 1-2.008-3.277 15.007 15.007 0 0 1-.644-3.897h21.339c.29-2.442.18-4.915-.326-7.322a13.801 13.801 0 0 0-2.449-5.402Zm-14.88 1.417a8.368 8.368 0 0 1 4.606-1.211 7.214 7.214 0 0 1 4.546 1.329 6.938 6.938 0 0 1 2.392 3.69c.294 1.077.439 2.19.43 3.307H94.584c.11-1.178.361-2.338.75-3.454a7.132 7.132 0 0 1 2.805-3.661ZM141.831 149.071a8.88 8.88 0 0 0-2.066-1.624 15.995 15.995 0 0 0-2.481-1.151 53.973 53.973 0 0 1-1.859-.62 32.453 32.453 0 0 0-1.832-.591c-.61-.177-1.2-.364-1.771-.561a12.943 12.943 0 0 1-1.564-.649c-.486-.258-.95-.554-1.388-.886a3.862 3.862 0 0 1-1.004-1.122 2.85 2.85 0 0 1-.385-1.476 3.06 3.06 0 0 1 .415-1.623c.308-.484.735-.88 1.24-1.152a6.657 6.657 0 0 1 1.978-.708 13.23 13.23 0 0 1 2.627-.237c.432 0 .906.02 1.417.06.512.039 1.072.108 1.683.206.611.099 1.219.227 1.83.384.612.157 1.23.335 1.86.531.584.18 1.156.397 1.712.65l.414-4.783a27.777 27.777 0 0 0-2.214-.826 21.772 21.772 0 0 0-2.215-.591c-.73-.155-1.47-.263-2.214-.325a26.7 26.7 0 0 0-2.155-.088 19.446 19.446 0 0 0-4.841.561 12.206 12.206 0 0 0-3.809 1.653 7.53 7.53 0 0 0-2.509 2.775 8.446 8.446 0 0 0-.886 3.986 8.33 8.33 0 0 0 .473 2.922c.28.787.7 1.518 1.239 2.155a8.647 8.647 0 0 0 1.801 1.565c.698.458 1.439.843 2.215 1.151.431.158.884.315 1.357.473.474.157.937.305 1.388.443a107.387 107.387 0 0 1 2.598.826c.413.138.817.266 1.21.384.529.187 1.042.414 1.536.679.433.23.838.507 1.21.827.327.285.589.638.768 1.033.18.409.27.852.265 1.299a2.937 2.937 0 0 1-.974 2.332 5.663 5.663 0 0 1-2.539 1.211c-1.095.241-2.214.36-3.336.354a16.515 16.515 0 0 1-2.096-.148 30.195 30.195 0 0 1-2.421-.413 36.789 36.789 0 0 1-2.598-.65 51.852 51.852 0 0 1-2.686-.856l.236 5.019c1.022.354 1.957.64 2.805.856.847.217 1.654.404 2.42.561.74.153 1.49.252 2.244.295a41.38 41.38 0 0 0 2.214.059 23.06 23.06 0 0 0 4.901-.501 12.68 12.68 0 0 0 4.015-1.565 7.707 7.707 0 0 0 2.686-2.775 8.106 8.106 0 0 0 .974-4.074 8.271 8.271 0 0 0-.501-3.041 6.924 6.924 0 0 0-1.387-2.214ZM166.482 157.898l-1.003.177a8.895 8.895 0 0 1-.974.118c-.316.021-.613.03-.886.03a5.962 5.962 0 0 1-2.628-.532 3.809 3.809 0 0 1-1.682-1.564 4.98 4.98 0 0 1-.591-2.51v-16.355h8.325l.65-4.724h-8.975v-9.329l-6.022 2.126v7.203h-4.548l-.649 4.724h5.197v17.595a10.009 10.009 0 0 0 .531 3.454 7.192 7.192 0 0 0 1.388 2.391 6.159 6.159 0 0 0 2.007 1.477c.781.358 1.604.616 2.449.767.838.155 1.688.234 2.539.236.63 0 1.25-.019 1.861-.059a18.977 18.977 0 0 0 1.683-.177c.511-.08.994-.168 1.446-.266.451-.097.836-.185 1.151-.265l.355-4.901a4.38 4.38 0 0 1-.708.207c-.277.061-.582.12-.916.177ZM186.704 132.332a11.584 11.584 0 0 0-3.13 1.358 15.378 15.378 0 0 0-2.775 2.214c-.138.139-.274.295-.413.442v-4.398l-6.022.886v29.817h6.022v-22.307c.458-.315.919-.61 1.388-.868a15.466 15.466 0 0 1 1.831-.856 20.353 20.353 0 0 1 1.859-.62 12.659 12.659 0 0 1 4.134-.443l.708-5.55a11.234 11.234 0 0 0-3.602.325ZM218.647 136.347a10.709 10.709 0 0 0-4.34-3.336 15.137 15.137 0 0 0-5.993-1.122 14.67 14.67 0 0 0-6.022 1.181 12.86 12.86 0 0 0-4.517 3.306 14.459 14.459 0 0 0-2.835 5.108 21.334 21.334 0 0 0-.974 6.642 17.884 17.884 0 0 0 1.742 8.237 11.537 11.537 0 0 0 5.167 5.137 18.353 18.353 0 0 0 8.384 1.741 28.82 28.82 0 0 0 4.162-.265 19.958 19.958 0 0 0 3.395-.797 22.214 22.214 0 0 0 3.189-1.358l.413-4.547c-.748.276-1.507.551-2.274.827-.768.275-1.564.521-2.39.738-.834.218-1.683.376-2.539.472-.863.098-1.73.148-2.598.148a18.652 18.652 0 0 1-4.607-.502 7.58 7.58 0 0 1-3.276-1.712 7.48 7.48 0 0 1-2.007-3.277 14.987 14.987 0 0 1-.644-3.897h21.338a22.594 22.594 0 0 0-.325-7.322 13.801 13.801 0 0 0-2.449-5.402Zm-14.879 1.417a8.366 8.366 0 0 1 4.605-1.211 7.218 7.218 0 0 1 4.547 1.329 6.935 6.935 0 0 1 2.39 3.69c.295 1.077.44 2.19.431 3.307h-15.528c.11-1.178.361-2.337.749-3.454a7.14 7.14 0 0 1 2.806-3.661ZM244.418 157.898l-1.004.177a8.836 8.836 0 0 1-.974.118c-.315.021-.611.03-.886.03a5.957 5.957 0 0 1-2.626-.532 3.8 3.8 0 0 1-1.683-1.564 4.976 4.976 0 0 1-.59-2.51v-16.355h8.325l.65-4.724h-8.975v-9.329l-6.023 2.126v7.203h-4.546l-.65 4.724h5.196v17.595a10.033 10.033 0 0 0 .532 3.454 7.19 7.19 0 0 0 1.387 2.391 6.173 6.173 0 0 0 2.008 1.477c.78.358 1.603.616 2.449.767.838.155 1.687.234 2.539.236.63 0 1.25-.019 1.861-.059a18.977 18.977 0 0 0 1.683-.177c.511-.079.994-.168 1.446-.266.453-.097.837-.186 1.152-.265l.354-4.901c-.23.089-.467.158-.709.207-.277.061-.582.12-.916.177Z"/></svg>