<svg xmlns="http://www.w3.org/2000/svg" fill="#fff" viewBox="0 0 120 44"><path d="M0 43V1h13.78v42H0ZM32.53 7.69 40.45 43H25.37L15.91 1h8.46a7.96 7.96 0 0 1 5.3 1.93 8.31 8.31 0 0 1 2.86 4.76Zm10 35.31V1H56.3v42H42.52ZM66.7 16.97a8.34 8.34 0 0 1-8.4-8.4 8.06 8.06 0 0 1 1.13-4.2A8.44 8.44 0 0 1 70.9 1.37a8.5 8.5 0 0 1 3.02 3.02 8.08 8.08 0 0 1 1.12 4.2 8.4 8.4 0 0 1-4.14 7.28 8.06 8.06 0 0 1-4.2 1.11ZM77.18 43V1h13.78v42H77.18Zm31.23-19.05c.04.04.33.53.89 1.45.55.93 1.27 2.11 2.15 3.55a1143.28 1143.28 0 0 1 5.6 9.17A854.9 854.9 0 0 0 120 43h-15.14l-2.57-4.17-2.46-4.02c-.86-1.44-1.72-2.84-2.57-4.2-.85-1.36-1.58-2.56-2.19-3.58a62.75 62.75 0 0 0-1.27-2.07 6.12 6.12 0 0 1-1-2.96c.05-1.01.38-2 .94-2.84l1.3-2.1a452.76 452.76 0 0 0 4.8-7.8A1502.49 1502.49 0 0 1 104.85 1H120l-11.71 19.1a3.77 3.77 0 0 0-.6 1.9c.05.7.3 1.39.72 1.95Z"/></svg>