<svg xmlns="http://www.w3.org/2000/svg" viewBox="0 0 162 48"><path fill="#0A2343" d="M0 45V3.004h13.78V45H0ZM32.528 9.688 40.453 45h-15.08L15.908 3.004h8.459a7.965 7.965 0 0 1 5.293 1.922 8.31 8.31 0 0 1 2.867 4.762ZM42.523 45V3.004h13.78V45h-13.78Zm24.189-26.026a8.213 8.213 0 0 1-4.228-1.124 8.336 8.336 0 0 1-3.046-3.046 8.206 8.206 0 0 1-1.125-4.229 8.056 8.056 0 0 1 1.125-4.2 8.437 8.437 0 0 1 3.046-3.016 8.232 8.232 0 0 1 4.228-1.124 8.083 8.083 0 0 1 4.199 1.124 8.503 8.503 0 0 1 3.016 3.016 8.075 8.075 0 0 1 1.125 4.2 8.226 8.226 0 0 1-1.125 4.23 8.4 8.4 0 0 1-3.016 3.045 8.059 8.059 0 0 1-4.201 1.124h.002ZM77.18 45V3.004h13.781V45H77.181Zm31.227-19.046c.039.04.334.524.887 1.449.553.925 1.272 2.108 2.159 3.549a1143.28 1143.28 0 0 1 5.589 9.168A854.89 854.89 0 0 0 120 45h-15.141c-.947-1.538-1.804-2.928-2.573-4.17a382.214 382.214 0 0 1-2.453-4.022 351.934 351.934 0 0 0-2.574-4.2 213.445 213.445 0 0 1-2.188-3.578 62.753 62.753 0 0 0-1.272-2.07 6.119 6.119 0 0 1-1.005-2.958 5.744 5.744 0 0 1 .946-2.84c.236-.394.67-1.095 1.3-2.1.632-1.006 1.371-2.198 2.219-3.579a636.03 636.03 0 0 0 2.574-4.229c.869-1.439 1.686-2.79 2.453-4.052.77-1.26 1.628-2.66 2.573-4.2H120l-11.711 19.106a3.773 3.773 0 0 0-.592 1.894c.039.706.286 1.385.709 1.952h.002Z"/><path fill="#0C551F" d="M160.896 29.264a9.323 9.323 0 0 0-1.892-3.194 9.207 9.207 0 0 0-3.106-2.188 14.996 14.996 0 0 0-4.229-1.124v-.177a14.668 14.668 0 0 0 4.851-2.632 12.336 12.336 0 0 0 3.104-3.814 9.815 9.815 0 0 0 1.095-4.554 8.19 8.19 0 0 0-.887-3.874 8.242 8.242 0 0 0-2.601-2.898 12.08 12.08 0 0 0-4.171-1.804 23.947 23.947 0 0 0-5.588-.591 26.98 26.98 0 0 0-3.697.266 29.597 29.597 0 0 0-3.754.769 17.429 17.429 0 0 0-3.431 1.33l.827 4.673c.868-.355 1.706-.66 2.515-.917a24.454 24.454 0 0 1 2.335-.621 23.76 23.76 0 0 1 2.189-.355 18.743 18.743 0 0 1 2.07-.118 16.83 16.83 0 0 1 3.727.355 6.89 6.89 0 0 1 2.483 1.035 4.046 4.046 0 0 1 1.39 1.715A6.19 6.19 0 0 1 154.57 13a6.859 6.859 0 0 1-.798 3.312 7.675 7.675 0 0 1-2.247 2.543 11.053 11.053 0 0 1-3.46 1.656 15.65 15.65 0 0 1-4.436.591h-1.124l-.709 4.613h1.892a26.552 26.552 0 0 1 5.205.444c1.284.23 2.516.69 3.636 1.36a5.901 5.901 0 0 1 2.16 2.307 7.15 7.15 0 0 1 .708 3.282 7.8 7.8 0 0 1-.65 3.342 5.696 5.696 0 0 1-1.981 2.306 9.417 9.417 0 0 1-3.37 1.36 22.955 22.955 0 0 1-4.821.444c-.591 0-1.173-.02-1.745-.06a32.456 32.456 0 0 1-1.804-.177c-.63-.078-1.29-.187-1.98-.325a64.458 64.458 0 0 1-2.277-.503L136 44.522c.866.158 1.704.306 2.514.444.809.138 1.607.256 2.394.355a33.88 33.88 0 0 0 2.307.207c.75.04 1.479.06 2.188.059a29.118 29.118 0 0 0 5.619-.503 16.753 16.753 0 0 0 4.524-1.538 11.625 11.625 0 0 0 3.311-2.513 10.008 10.008 0 0 0 2.011-3.4c.47-1.38.7-2.83.681-4.288a12.151 12.151 0 0 0-.653-4.081Z"/></svg>