<svg xmlns="http://www.w3.org/2000/svg" viewBox="0 0 238 84"><path fill="#78003D" d="M0 0h238v84H0z"/><path fill="#fff" d="M20 63V21.004h13.78V63H20Zm32.528-35.312L60.453 63h-15.08l-9.464-41.996h8.459a7.965 7.965 0 0 1 5.293 1.922 8.31 8.31 0 0 1 2.867 4.762ZM62.523 63V21.004h13.78V63h-13.78Zm24.189-26.026a8.213 8.213 0 0 1-4.228-1.124 8.336 8.336 0 0 1-3.046-3.046 8.206 8.206 0 0 1-1.125-4.229 8.056 8.056 0 0 1 1.125-4.2 8.437 8.437 0 0 1 3.046-3.016 8.233 8.233 0 0 1 4.228-1.124 8.083 8.083 0 0 1 4.199 1.124 8.504 8.504 0 0 1 3.016 3.016 8.075 8.075 0 0 1 1.125 4.2 8.226 8.226 0 0 1-1.125 4.23 8.4 8.4 0 0 1-3.016 3.045 8.059 8.059 0 0 1-4.201 1.124h.002ZM97.18 63V21.004h13.781V63H97.181Zm31.227-19.046c.039.04.334.524.887 1.449.553.925 1.272 2.108 2.159 3.549a1143.28 1143.28 0 0 1 5.589 9.168A854.89 854.89 0 0 0 140 63h-15.141c-.947-1.538-1.804-2.928-2.573-4.17a388.795 388.795 0 0 1-2.453-4.022 355.984 355.984 0 0 0-2.574-4.2 210.645 210.645 0 0 1-2.188-3.578 62.13 62.13 0 0 0-1.272-2.07 6.127 6.127 0 0 1-1.005-2.958 5.745 5.745 0 0 1 .946-2.84c.236-.394.67-1.094 1.301-2.1.631-1.006 1.37-2.198 2.218-3.578.847-1.38 1.706-2.79 2.574-4.23.869-1.439 1.686-2.79 2.453-4.052.77-1.26 1.628-2.66 2.573-4.2H140l-11.711 19.106a3.773 3.773 0 0 0-.592 1.894c.039.706.286 1.385.709 1.952h.002Z"/><path fill="#FDAFD7" d="M184.56 26.441a10.525 10.525 0 0 0-2.755-2.87 13.245 13.245 0 0 0-3.999-1.893 18.976 18.976 0 0 0-5.333-.679H156v42h6.222V47.914h10.726a14.006 14.006 0 0 0 6.932-1.715 12.813 12.813 0 0 0 4.889-4.792 14.104 14.104 0 0 0 1.807-7.276 17.264 17.264 0 0 0-.473-4.082 11.74 11.74 0 0 0-1.543-3.608Zm-5.51 12.748a6.993 6.993 0 0 1-3.347 2.75 13.83 13.83 0 0 1-5.246.888h-8.236V26.146h9.067a11.307 11.307 0 0 1 5.037.975 6.488 6.488 0 0 1 2.932 2.84 9.504 9.504 0 0 1 .979 4.465 8.74 8.74 0 0 1-1.186 4.763ZM198.646 57.91c.938-.802 1.902-1.638 2.921-2.543a81.904 81.904 0 0 0 4.296-4.111 70.372 70.372 0 0 0 4.118-4.613 43.362 43.362 0 0 0 3.467-4.88 25.207 25.207 0 0 0 2.37-5.028c.559-1.618.849-3.316.859-5.028a10.9 10.9 0 0 0-.948-4.643 10.03 10.03 0 0 0-2.785-3.549 12.714 12.714 0 0 0-4.592-2.308c-2.056-.56-4.18-.83-6.311-.798a23.347 23.347 0 0 0-4.118.355 21.45 21.45 0 0 0-3.793 1.036 25.632 25.632 0 0 0-3.407 1.566l.77 5.147a15.799 15.799 0 0 1 2.993-1.568 20.867 20.867 0 0 1 3.526-1.065 18.158 18.158 0 0 1 3.733-.383 12.57 12.57 0 0 1 3.881.531 7.055 7.055 0 0 1 2.696 1.538 6.194 6.194 0 0 1 1.57 2.337c.345.937.516 1.93.504 2.928a13.09 13.09 0 0 1-1.007 4.88 25.92 25.92 0 0 1-2.845 5.147 54.936 54.936 0 0 1-4.325 5.383 94.337 94.337 0 0 1-5.422 5.501 454.53 454.53 0 0 1-6.074 5.59l.77 3.668h25.658l.711-5.088-19.216-.001Z"/></svg>