<svg xmlns="http://www.w3.org/2000/svg" viewBox="0 0 120 104"><path fill="#0A2343" d="M0 43V1.004h13.78V43H0ZM32.528 7.688 40.453 43h-15.08L15.908 1.004h8.459a7.965 7.965 0 0 1 5.293 1.922 8.31 8.31 0 0 1 2.867 4.762ZM42.523 43V1.004h13.78V43h-13.78Zm24.189-26.026a8.213 8.213 0 0 1-4.228-1.124 8.336 8.336 0 0 1-3.046-3.046 8.206 8.206 0 0 1-1.125-4.229 8.056 8.056 0 0 1 1.125-4.2 8.437 8.437 0 0 1 3.046-3.016A8.232 8.232 0 0 1 66.712.235a8.083 8.083 0 0 1 4.199 1.124 8.503 8.503 0 0 1 3.016 3.016 8.075 8.075 0 0 1 1.125 4.2 8.226 8.226 0 0 1-1.125 4.23 8.4 8.4 0 0 1-3.016 3.045 8.059 8.059 0 0 1-4.201 1.124h.002ZM77.18 43V1.004h13.781V43H77.181Zm31.227-19.046c.039.04.334.524.887 1.449.553.925 1.272 2.108 2.159 3.549a1143.28 1143.28 0 0 1 5.589 9.168A854.89 854.89 0 0 0 120 43h-15.141c-.947-1.538-1.804-2.928-2.573-4.17a382.214 382.214 0 0 1-2.453-4.022 351.934 351.934 0 0 0-2.574-4.2 213.445 213.445 0 0 1-2.188-3.578 62.753 62.753 0 0 0-1.272-2.07 6.119 6.119 0 0 1-1.005-2.958 5.744 5.744 0 0 1 .946-2.84c.236-.394.67-1.095 1.3-2.1.632-1.006 1.371-2.198 2.219-3.579.847-1.38 1.706-2.79 2.574-4.229.869-1.439 1.686-2.79 2.453-4.052.77-1.26 1.628-2.66 2.573-4.2H120l-11.711 19.106a3.773 3.773 0 0 0-.592 1.894c.039.706.286 1.385.709 1.952h.002Z"/><path fill="#015F88" d="M28.472 66.443a10.556 10.556 0 0 0-2.747-2.869 13.17 13.17 0 0 0-3.987-1.892 18.854 18.854 0 0 0-5.316-.68H0v41.996h6.202V87.915h10.692a13.923 13.923 0 0 0 6.911-1.715 12.784 12.784 0 0 0 4.873-4.791 14.143 14.143 0 0 0 1.802-7.275 17.305 17.305 0 0 0-.473-4.082c-.307-1.28-.826-2.5-1.535-3.61ZM22.978 79.19a6.992 6.992 0 0 1-3.337 2.751c-1.67.632-3.445.933-5.229.887h-8.21v-16.68h9.038a11.22 11.22 0 0 1 5.02.976 6.484 6.484 0 0 1 2.925 2.84 9.52 9.52 0 0 1 .974 4.465 8.756 8.756 0 0 1-1.18 4.76ZM43.09 62.392c-.847.454-1.673.877-2.48 1.27-.806.395-1.623.789-2.451 1.184-.827.394-1.674.75-2.54 1.065-.866.314-1.793.632-2.777.946l1.3 5.028a56.021 56.021 0 0 0 3.219-1.065c.945-.346 1.871-.74 2.776-1.183a41.714 41.714 0 0 0 2.658-1.419l.03-.017V103h6.142V61.004h-3.19c-.945.471-1.84.934-2.687 1.388ZM73.009 79.692V67.745h-5.198v11.947H55.82v4.673h11.99v11.89h5.199v-11.89H85v-4.673H73.009Z"/></svg>