<svg xmlns="http://www.w3.org/2000/svg" viewBox="0 0 186 48"><path fill="#fff" d="M0 45V3.004h13.78V45H0ZM32.528 9.688 40.453 45h-15.08L15.908 3.004h8.459a7.965 7.965 0 0 1 5.293 1.922 8.31 8.31 0 0 1 2.867 4.762ZM42.523 45V3.004h13.78V45h-13.78Zm24.189-26.026a8.213 8.213 0 0 1-4.228-1.124 8.336 8.336 0 0 1-3.046-3.046 8.206 8.206 0 0 1-1.125-4.229 8.056 8.056 0 0 1 1.125-4.2 8.437 8.437 0 0 1 3.046-3.016 8.232 8.232 0 0 1 4.228-1.124 8.083 8.083 0 0 1 4.199 1.124 8.503 8.503 0 0 1 3.016 3.016 8.075 8.075 0 0 1 1.125 4.2 8.226 8.226 0 0 1-1.125 4.23 8.4 8.4 0 0 1-3.016 3.045 8.059 8.059 0 0 1-4.201 1.124h.002ZM77.18 45V3.004h13.781V45H77.181Zm31.227-19.046c.039.04.334.524.887 1.449.553.925 1.272 2.108 2.159 3.549a1143.28 1143.28 0 0 1 5.589 9.168A854.89 854.89 0 0 0 120 45h-15.141c-.947-1.538-1.804-2.928-2.573-4.17a382.214 382.214 0 0 1-2.453-4.022 351.934 351.934 0 0 0-2.574-4.2 213.445 213.445 0 0 1-2.188-3.578 62.753 62.753 0 0 0-1.272-2.07 6.119 6.119 0 0 1-1.005-2.958 5.744 5.744 0 0 1 .946-2.84c.236-.394.67-1.095 1.3-2.1.632-1.006 1.371-2.198 2.219-3.579a636.03 636.03 0 0 0 2.574-4.229c.869-1.439 1.686-2.79 2.453-4.052.77-1.26 1.628-2.66 2.573-4.2H120l-11.711 19.106a3.773 3.773 0 0 0-.592 1.894c.039.706.286 1.385.709 1.952h.002Z"/><path fill="#8BB5EB" d="M164.508 8.447a10.564 10.564 0 0 0-2.75-2.87 13.214 13.214 0 0 0-3.992-1.893 18.906 18.906 0 0 0-5.323-.679H136V45h6.21V29.917h10.706c2.416.036 4.8-.555 6.92-1.716a12.815 12.815 0 0 0 4.879-4.791 14.108 14.108 0 0 0 1.804-7.275 17.207 17.207 0 0 0-.473-4.082c-.307-1.28-.827-2.499-1.538-3.606Zm-5.5 12.746a6.989 6.989 0 0 1-3.342 2.75 13.777 13.777 0 0 1-5.234.887h-8.222V8.15h9.05a11.265 11.265 0 0 1 5.027.976 6.483 6.483 0 0 1 2.928 2.839 9.523 9.523 0 0 1 .976 4.465 8.745 8.745 0 0 1-1.183 4.763ZM181.838 3.005c-.947.473-1.844.937-2.692 1.39a75.38 75.38 0 0 1-2.483 1.272c-.81.394-1.628.788-2.455 1.183-.828.394-1.676.749-2.544 1.064-.867.317-1.793.632-2.779.946l1.301 5.027a56.662 56.662 0 0 0 3.223-1.065c.946-.346 1.874-.74 2.78-1.182a42.985 42.985 0 0 0 2.661-1.42l.031-.018V45h6.15V3.006h-3.193Z"/></svg>