<svg width="393" height="164" viewBox="0 0 393 164" fill="none" xmlns="http://www.w3.org/2000/svg">
<path d="M0 43.5V1.50381H13.7802V43.5H0ZM32.5283 8.18773L40.4532 43.5H25.3721L15.9092 1.50381H24.3676C26.3072 1.47864 28.1892 2.16237 29.6607 3.42636C31.1347 4.63734 32.1473 6.31844 32.5283 8.18773ZM42.5233 43.5V1.50381H56.3035V43.5H42.5233ZM66.7116 17.4743C65.2267 17.4888 63.7656 17.1003 62.4839 16.3504C61.2193 15.6194 60.1688 14.5689 59.438 13.3041C58.6872 12.0222 58.2986 10.5607 58.3134 9.07511C58.2964 7.59861 58.6853 6.14583 59.438 4.8755C60.1766 3.62447 61.2259 2.58533 62.4839 1.85882C63.766 1.10976 65.2269 0.721301 66.7116 0.734844C68.1877 0.718947 69.6399 1.10775 70.9108 1.85882C72.1562 2.59169 73.1943 3.62996 73.9271 4.8755C74.6789 6.14618 75.0677 7.59873 75.0517 9.07511C75.0655 10.5605 74.6769 12.0218 73.9271 13.3041C73.202 14.5633 72.1627 15.613 70.9108 16.3504C69.6398 17.1029 68.1866 17.4918 66.7097 17.4743H66.7116ZM77.1807 43.5V1.50381H90.9621V43.5H77.1807ZM108.408 24.4538C108.447 24.4946 108.742 24.9776 109.295 25.903C109.848 26.8283 110.567 28.0114 111.454 29.452C112.341 30.892 113.277 32.4199 114.262 34.036C115.247 35.6521 116.174 37.1803 117.043 38.6202C117.908 40.0602 118.894 41.6867 120 43.5H104.859C103.912 41.9621 103.055 40.5721 102.286 39.33C101.517 38.0878 100.7 36.7471 99.8334 35.3077C98.9653 33.8698 98.1071 32.4699 97.2587 31.1081C96.4103 29.7464 95.6813 28.5536 95.0714 27.5297C94.459 26.5051 94.0348 25.8149 93.7989 25.4594C93.2139 24.5771 92.8677 23.558 92.7944 22.5019C92.853 21.4883 93.1791 20.5084 93.7397 19.6619C93.9762 19.2676 94.41 18.5675 95.0409 17.562C95.6717 16.5564 96.411 15.3637 97.2587 13.9835C98.1064 12.6034 98.9647 11.1936 99.8334 9.75431C100.702 8.31501 101.519 6.96432 102.286 5.70247C103.056 4.44193 103.914 3.04205 104.859 1.50285H120L108.289 20.6082C107.926 21.1755 107.722 21.8292 107.697 22.5019C107.736 23.2081 107.983 23.8871 108.406 24.4538H108.408Z" fill="white"/>
<path d="M31.827 61.6853H24.4465L8.40608 80.1661H6.20177V61.6853H0.00206964V103.607H6.20177V84.6535H6.40934L23.8559 103.666L32.2994 103.607L12.2823 82.8231L31.827 61.6853Z" fill="#85E6D6"/>
<path d="M49.3623 73.2875C48.2579 73.5835 47.2035 74.0411 46.233 74.6455C45.2257 75.2742 44.2945 76.0171 43.4579 76.8597C43.3181 76.9984 43.1834 77.1549 43.0446 77.3015V72.9037L37.022 73.7894V103.607H43.0446V81.2998C43.5022 80.9849 43.9637 80.6897 44.4321 80.4319C45.023 80.1064 45.6349 79.8204 46.2635 79.5757C46.8723 79.3395 47.4919 79.1329 48.1223 78.9557C48.7704 78.7755 49.4319 78.6472 50.1003 78.5719C50.8158 78.4924 51.5366 78.4727 52.2554 78.5129L52.9641 72.9627C51.7539 72.8758 50.5374 72.9855 49.3623 73.2875Z" fill="#85E6D6"/>
<path d="M58.4534 103.607H64.476V72.9037L58.4534 73.7894V103.607Z" fill="#85E6D6"/>
<path d="M59.517 67.5897C60.1477 67.9442 60.86 68.1274 61.5835 68.1211C62.2975 68.1298 63.0009 67.9462 63.6196 67.5897C64.2273 67.2384 64.7277 66.728 65.0671 66.1136C65.4213 65.4828 65.6046 64.7704 65.5985 64.047C65.6069 63.3327 65.4233 62.6292 65.0671 62.01C64.7163 61.4041 64.2185 60.8964 63.6196 60.5339C63.0071 60.1593 62.3014 59.9649 61.5835 59.973C60.8563 59.9674 60.1416 60.1614 59.517 60.5339C58.9016 60.8945 58.3847 61.4015 58.0123 62.01C57.6371 62.6226 57.4426 63.3287 57.4514 64.047C57.4451 64.7743 57.6392 65.4893 58.0123 66.1136C58.3732 66.731 58.8928 67.2407 59.517 67.5897Z" fill="#85E6D6"/>
<path d="M89.0399 78.4538C90.0034 78.4315 90.9631 78.5814 91.8739 78.8966C92.6254 79.1673 93.2958 79.6244 93.8223 80.2252C94.3645 80.8764 94.7486 81.6443 94.9443 82.4688C95.1964 83.5124 95.3153 84.5838 95.2984 85.6572V103.607H101.321V84.4173C101.4 82.1789 101.018 79.9482 100.199 77.8634C99.5326 76.2622 98.3472 74.9314 96.8336 74.0846C95.0795 73.1985 93.1292 72.7719 91.1654 72.8446C89.4515 72.8479 87.7487 73.1168 86.1172 73.6417C84.4359 74.1773 82.8364 74.9423 81.3641 75.9149C80.7943 76.2899 80.2462 76.7022 79.7109 77.1253V72.9037L73.6883 73.7894V103.607H79.7109V81.1817C80.2939 80.8403 80.8952 80.5308 81.5118 80.2546C82.341 79.8871 83.1883 79.5619 84.0506 79.2804C84.8797 79.009 85.7286 78.8017 86.5895 78.6605C87.3994 78.5257 88.2188 78.4566 89.0399 78.4538Z" fill="#85E6D6"/>
<path d="M132.443 114.973C134.593 113.97 134.025 112.345 135.241 110.308C136.429 108.214 137.031 105.837 136.983 103.43V72.8447L131.207 74.3306C130.54 74.0484 129.856 73.8084 129.159 73.6122C128.258 73.3653 127.34 73.178 126.414 73.0513C125.357 72.9088 124.292 72.8397 123.225 72.8447C121.299 72.8364 119.391 73.218 117.616 73.9665C115.838 74.7196 114.223 75.8127 112.863 77.1844C111.414 78.6637 110.297 80.4351 109.586 82.3803C108.762 84.6602 108.362 87.0714 108.405 89.4951C108.341 92.1615 108.854 94.8103 109.91 97.2595C110.836 99.354 112.368 101.123 114.31 102.337C116.434 103.59 118.871 104.215 121.336 104.138C123.502 104.13 125.646 103.709 127.654 102.898C128.853 102.409 129.984 101.766 131.018 100.986V102.603C131.042 103.933 130.853 105.259 130.458 106.529C130.117 107.595 129.531 108.566 128.746 109.364C127.9 110.176 126.865 110.765 125.734 111.076C124.264 111.48 122.742 111.669 121.218 111.637C120.005 111.635 118.792 111.566 117.587 111.43C116.321 111.287 115.068 111.05 113.837 110.722C112.57 110.384 111.326 109.96 110.117 109.452L113.134 114.648C114.22 115.089 115.335 115.454 116.471 115.74C117.666 116.042 118.879 116.269 120.102 116.419C121.394 116.578 122.696 116.657 123.998 116.656C126.905 116.746 129.793 116.171 132.443 114.973ZM130.251 97.2595C129.519 97.6844 128.76 98.0592 127.979 98.3813C127.289 98.6644 126.578 98.8915 125.852 99.0603C125.145 99.2197 124.422 99.299 123.698 99.2965C121.924 99.3608 120.165 98.9641 118.591 98.1451C117.218 97.3624 116.155 96.1328 115.579 94.6615C114.867 92.7463 114.537 90.7106 114.605 88.6685C114.578 87.0389 114.807 85.4152 115.283 83.8564C115.67 82.5753 116.336 81.3957 117.232 80.4023C118.106 79.4788 119.174 78.7625 120.361 78.3062C121.708 77.795 123.141 77.5446 124.582 77.5682C125.513 77.567 126.442 77.646 127.358 77.8044C128.297 77.97 129.224 78.1968 130.134 78.4834C130.423 78.5739 130.724 78.6939 131.019 78.8042V96.8068C130.759 96.9603 130.497 97.1197 130.251 97.2595Z" fill="#85E6D6"/>
<path d="M152.156 89.1409H152.255L164.318 103.607H172.112L157.79 87.4679L171.817 73.4941H164.436L154.334 84.5974H152.156V59.0312L146.134 59.9169V103.61H152.156V89.1409Z" fill="#85E6D6"/>
<path d="M194.027 99.7718C194.143 100.383 194.359 100.971 194.667 101.511C195.194 102.414 196.003 103.12 196.97 103.518C198.039 103.948 199.183 104.158 200.335 104.138C200.69 104.138 201.034 104.128 201.369 104.109C201.697 104.089 202.023 104.039 202.343 103.961C202.658 103.881 202.942 103.813 203.199 103.754C203.431 103.702 203.658 103.633 203.879 103.548L204.527 99.5917C204.201 99.7032 203.865 99.7823 203.524 99.8279C203.25 99.8645 202.974 99.8842 202.697 99.8869C202.266 99.9264 201.831 99.8612 201.43 99.6967C201.029 99.5323 200.674 99.2734 200.394 98.9422C199.847 97.9961 199.619 96.8986 199.745 95.8128L199.863 83.6497C199.876 82.3746 199.717 81.1036 199.391 79.8709C199.104 78.7901 198.624 77.77 197.975 76.8597C197.317 75.9698 196.483 75.2259 195.523 74.675C194.409 74.0421 193.204 73.5841 191.951 73.317C190.419 72.9859 188.854 72.8275 187.287 72.8446C186.043 72.8441 184.8 72.923 183.567 73.0808C182.401 73.2275 181.247 73.4543 180.113 73.7598C179.061 74.0454 178.026 74.3903 177.013 74.7931L176.304 79.8119C177.288 79.4576 178.224 79.1624 179.11 78.9262C179.996 78.69 180.852 78.4932 181.677 78.3358C182.487 78.181 183.305 78.0726 184.128 78.011C184.935 77.952 185.732 77.9224 186.519 77.9224C187.723 77.8966 188.925 78.0357 190.091 78.3358C190.942 78.5484 191.725 78.9752 192.364 79.5756C192.934 80.1599 193.34 80.8823 193.545 81.6717C193.796 82.6453 193.915 83.6482 193.898 84.6535L193.892 86.1345L186.99 86.6019C184.63 86.6678 182.304 87.189 180.141 88.1371C178.522 88.8452 177.125 89.9774 176.097 91.4141C175.224 92.6924 174.761 94.2059 174.768 95.7538C174.757 97.2061 175.113 98.6378 175.802 99.9164C176.524 101.23 177.611 102.306 178.931 103.016C180.542 103.854 182.342 104.261 184.156 104.197C185.856 104.236 187.549 103.956 189.146 103.371C190.526 102.83 191.789 102.028 192.865 101.009C193.274 100.617 193.662 100.204 194.027 99.7718ZM188.498 99.2965C187.671 99.4558 186.83 99.5349 185.988 99.5326C185.025 99.56 184.069 99.3788 183.183 99.0013C182.463 98.6885 181.855 98.1632 181.441 97.4956C181.032 96.7879 180.828 95.9805 180.851 95.1634C180.794 94.179 181.064 93.2034 181.618 92.3883C182.261 91.638 183.132 91.1194 184.098 90.9122C185.607 90.5567 187.155 90.3979 188.705 90.4398H193.874L193.847 96.3C193.547 96.6378 193.217 96.9488 192.863 97.2299C192.223 97.7358 191.53 98.1713 190.797 98.5289C190.067 98.8835 189.294 99.1416 188.498 99.2965Z" fill="#85E6D6"/>
<path d="M229.711 99.3585C230.386 98.1091 230.722 96.7042 230.684 95.2844C230.709 94.2483 230.538 93.2168 230.182 92.2436C229.864 91.4242 229.393 90.6728 228.795 90.0295C228.19 89.3887 227.494 88.8414 226.728 88.4057C225.936 87.9519 225.106 87.5668 224.248 87.2544C223.618 87.0576 222.998 86.8509 222.388 86.6344C221.778 86.4179 221.168 86.2211 220.558 86.0439C219.948 85.8668 219.357 85.6799 218.786 85.4831C218.251 85.3009 217.729 85.0839 217.222 84.8336C216.736 84.5758 216.272 84.2797 215.834 83.9479C215.43 83.6431 215.089 83.262 214.83 82.8261C214.571 82.3781 214.438 81.8678 214.447 81.35C214.431 80.7807 214.574 80.2182 214.861 79.7262C215.169 79.2428 215.595 78.8464 216.1 78.5749C216.718 78.2358 217.385 77.9966 218.078 77.8663C218.944 77.7002 219.824 77.6211 220.705 77.6301C221.138 77.6301 221.611 77.6498 222.124 77.6892C222.636 77.7286 223.197 77.7975 223.806 77.8959C224.415 77.9943 225.025 78.1222 225.635 78.2797C226.246 78.4371 226.867 78.6142 227.496 78.811C228.08 78.9908 228.652 79.2078 229.208 79.4606L229.622 74.6779C228.873 74.363 228.135 74.0875 227.408 73.8514C226.681 73.6159 225.942 73.4188 225.194 73.2609C224.463 73.1061 223.724 72.9977 222.98 72.9362C222.249 72.8771 221.532 72.8476 220.824 72.8476C219.193 72.831 217.566 73.0194 215.982 73.4085C214.627 73.738 213.339 74.2972 212.173 75.0617C211.117 75.7612 210.254 76.7156 209.664 77.8368C209.047 79.0729 208.743 80.4414 208.778 81.8223C208.76 82.8169 208.92 83.8068 209.251 84.745C209.531 85.532 209.951 86.2621 210.491 86.9001C211.016 87.5024 211.622 88.0289 212.292 88.4648C212.989 88.922 213.731 89.3077 214.506 89.6161C214.939 89.7736 215.391 89.9311 215.864 90.0885C216.337 90.246 216.798 90.3936 217.251 90.5314C217.705 90.6691 218.147 90.8069 218.58 90.9447C219.013 91.0824 219.436 91.2202 219.849 91.358C220.263 91.4957 220.666 91.6237 221.06 91.7418C221.588 91.9287 222.101 92.1557 222.595 92.4208C223.028 92.6502 223.435 92.9274 223.806 93.2474C224.132 93.5332 224.394 93.8856 224.573 94.2807C224.753 94.6897 224.844 95.1326 224.839 95.5796C224.86 96.0163 224.783 96.4522 224.614 96.8556C224.446 97.259 224.19 97.6199 223.864 97.9119C223.133 98.5224 222.26 98.9387 221.325 99.1223C220.23 99.3641 219.111 99.4829 217.989 99.4765C217.288 99.4717 216.588 99.4223 215.893 99.3289C215.126 99.2318 214.319 99.0941 213.473 98.9156C212.628 98.7372 211.761 98.5207 210.874 98.2662C209.989 98.0103 209.093 97.7249 208.188 97.41L208.425 102.429C209.448 102.783 210.383 103.068 211.229 103.285C212.075 103.501 212.882 103.688 213.65 103.846C214.389 103.999 215.139 104.097 215.893 104.141C216.622 104.18 217.36 104.199 218.107 104.2C219.754 104.208 221.397 104.04 223.008 103.698C224.426 103.41 225.784 102.881 227.023 102.134C228.14 101.451 229.064 100.496 229.711 99.3585Z" fill="#85E6D6"/>
<path d="M253.445 98.8536L252.442 99.0308C252.119 99.0882 251.794 99.1277 251.467 99.1488C251.152 99.1695 250.856 99.1784 250.582 99.1784C249.677 99.2033 248.778 99.0215 247.954 98.647C247.245 98.3116 246.658 97.7651 246.272 97.0823C245.858 96.3123 245.654 95.4468 245.681 94.573V78.2177H254.006L254.656 73.4941H245.681V64.1651L239.659 66.2907V73.4941H235.112L234.463 78.2177H239.659V95.8128C239.632 96.9864 239.812 98.1555 240.19 99.2669C240.494 100.146 240.965 100.958 241.578 101.658C242.139 102.282 242.822 102.784 243.585 103.134C244.366 103.493 245.189 103.751 246.034 103.902C246.872 104.056 247.722 104.135 248.573 104.138C249.203 104.138 249.824 104.118 250.434 104.079C251.043 104.039 251.605 103.981 252.117 103.902C252.629 103.823 253.111 103.734 253.564 103.636C254.016 103.539 254.399 103.45 254.715 103.371L255.069 98.4698C254.839 98.5587 254.602 98.6278 254.361 98.6765C254.084 98.7356 253.78 98.7946 253.445 98.8536Z" fill="#85E6D6"/>
<path d="M266.496 60.5339C265.883 60.1593 265.178 59.9649 264.46 59.973C263.732 59.9671 263.018 60.1611 262.393 60.5339C261.777 60.8944 261.26 61.4014 260.887 62.01C260.512 62.6226 260.318 63.3288 260.327 64.047C260.32 64.7743 260.514 65.4892 260.887 66.1136C261.248 66.7312 261.768 67.2409 262.393 67.5897C263.024 67.9444 263.736 68.1277 264.46 68.1211C265.174 68.1298 265.877 67.9462 266.496 67.5897C267.104 67.2386 267.604 66.7282 267.943 66.1136C268.298 65.483 268.481 64.7705 268.475 64.047C268.483 63.3327 268.3 62.629 267.943 62.01C267.593 61.4039 267.095 60.8962 266.496 60.5339Z" fill="#85E6D6"/>
<path d="M261.327 103.607H267.349V72.9037L261.327 73.7894V103.607Z" fill="#85E6D6"/>
<path d="M299.706 74.0846C297.952 73.1984 296.002 72.7718 294.039 72.8446C292.325 72.8479 290.621 73.1168 288.99 73.6417C287.309 74.1774 285.709 74.9423 284.237 75.9149C283.667 76.2899 283.119 76.7022 282.583 77.1253V72.9037L276.561 73.7894V103.607H282.583V81.1817C283.166 80.8403 283.767 80.5308 284.384 80.2547C285.213 79.8873 286.061 79.5621 286.923 79.2804C287.752 79.0091 288.601 78.8018 289.462 78.6605C290.272 78.5257 291.092 78.4566 291.913 78.4539C292.876 78.4314 293.836 78.5814 294.746 78.8966C295.498 79.1673 296.168 79.6245 296.695 80.2252C297.237 80.8766 297.621 81.6444 297.818 82.4688C298.069 83.5125 298.188 84.5838 298.171 85.6573V103.607H304.193V84.4173C304.272 82.1789 303.89 79.9482 303.072 77.8634C302.405 76.262 301.22 74.9311 299.706 74.0846Z" fill="#85E6D6"/>
<path d="M332.035 73.6122C331.133 73.3652 330.216 73.1779 329.289 73.0513C328.232 72.9088 327.167 72.8397 326.101 72.8447C324.174 72.8362 322.266 73.2178 320.492 73.9665C318.713 74.7192 317.098 75.8122 315.738 77.1844C314.289 78.6636 313.171 80.435 312.461 82.3803C311.637 84.6603 311.237 87.0714 311.28 89.4951C311.215 92.1616 311.728 94.8105 312.785 97.2595C313.71 99.3541 315.243 101.123 317.184 102.337C319.309 103.59 321.745 104.215 324.21 104.138C326.376 104.13 328.52 103.71 330.528 102.898C331.728 102.409 332.859 101.766 333.894 100.986V102.603C333.918 103.933 333.728 105.259 333.333 106.529C332.992 107.595 332.406 108.566 331.621 109.364C330.775 110.176 329.74 110.764 328.609 111.076C327.139 111.48 325.617 111.669 324.092 111.637C322.879 111.635 321.667 111.566 320.461 111.43C319.196 111.287 317.942 111.05 316.712 110.722C315.444 110.384 314.201 109.96 312.991 109.452L313.642 114.648C314.727 115.088 315.842 115.453 316.977 115.74C318.173 116.042 319.385 116.269 320.609 116.419C321.901 116.578 323.203 116.657 324.506 116.656C327.412 116.746 330.3 116.171 332.949 114.973C335.099 113.97 336.899 112.345 338.115 110.308C339.304 108.214 339.905 105.837 339.857 103.43V72.8447L334.083 74.3306C333.416 74.0486 332.732 73.8086 332.035 73.6122ZM333.126 97.2595C332.395 97.6846 331.636 98.0594 330.854 98.3813C330.165 98.6644 329.454 98.8915 328.728 99.0603C328.021 99.2197 327.298 99.299 326.573 99.2965C324.8 99.3607 323.04 98.964 321.466 98.1451C320.093 97.3624 319.03 96.1328 318.455 94.6615C317.743 92.7463 317.412 90.7106 317.48 88.6685C317.454 87.039 317.683 85.4153 318.158 83.8564C318.546 82.5754 319.211 81.3959 320.108 80.4023C320.981 79.4785 322.051 78.7623 323.237 78.3062C324.585 77.7949 326.018 77.5444 327.459 77.5682C328.389 77.567 329.317 77.646 330.234 77.8044C331.173 77.97 332.1 78.1968 333.009 78.4834C333.298 78.5739 333.599 78.6939 333.895 78.8042V96.8068C333.633 96.9603 333.367 97.1197 333.123 97.2595H333.126Z" fill="#85E6D6"/>
<path d="M367.664 90.0265C367.059 89.3857 366.363 88.8385 365.597 88.4028C364.805 87.9488 363.975 87.5636 363.117 87.2515C362.487 87.0546 361.868 86.848 361.257 86.6315C360.647 86.415 360.037 86.2181 359.427 86.041C358.817 85.8639 358.226 85.6769 357.656 85.4801C357.12 85.2979 356.598 85.081 356.091 84.8306C355.606 84.5729 355.141 84.2767 354.703 83.9449C354.299 83.6405 353.958 83.2593 353.701 82.8231C353.44 82.3754 353.307 81.865 353.316 81.347C353.3 80.7778 353.444 80.2154 353.73 79.7233C354.038 79.2396 354.465 78.8431 354.97 78.5719C355.587 78.2327 356.255 77.9935 356.947 77.8634C357.813 77.6974 358.693 77.6182 359.575 77.6272C360.008 77.6272 360.48 77.6469 360.993 77.6862C361.505 77.7256 362.066 77.7945 362.675 77.8929C363.285 77.9913 363.895 78.1193 364.505 78.2767C365.115 78.4342 365.735 78.6113 366.366 78.8081C366.949 78.9879 367.521 79.2048 368.077 79.4576L368.491 74.675C367.742 74.3601 367.004 74.0846 366.277 73.8484C365.55 73.6128 364.811 73.4157 364.063 73.2579C363.333 73.1032 362.593 72.9947 361.849 72.9332C361.119 72.8741 360.401 72.8446 359.693 72.8446C358.062 72.828 356.436 73.0165 354.852 73.4056C353.497 73.7348 352.209 74.294 351.043 75.0588C349.986 75.7579 349.124 76.7124 348.534 77.8339C347.917 79.0698 347.613 80.4384 347.649 81.8194C347.63 82.8141 347.79 83.804 348.122 84.742C348.402 85.5291 348.821 86.2592 349.361 86.8971C349.886 87.4995 350.493 88.0261 351.163 88.4618C351.86 88.9194 352.602 89.3052 353.377 89.6132C353.809 89.7706 354.261 89.9281 354.734 90.0856C355.207 90.243 355.669 90.3906 356.122 90.5284C356.576 90.6661 357.017 90.8039 357.45 90.9417C357.883 91.0795 358.306 91.2172 358.719 91.355C359.133 91.4928 359.536 91.6207 359.931 91.7388C360.459 91.9259 360.972 92.1529 361.465 92.4178C361.898 92.6473 362.305 92.9245 362.676 93.2444C363.003 93.5299 363.264 93.8823 363.443 94.2777C363.624 94.6865 363.715 95.1295 363.71 95.5767C363.73 96.0134 363.654 96.4493 363.485 96.8528C363.316 97.2562 363.06 97.6169 362.734 97.9089C362.003 98.5194 361.13 98.9357 360.195 99.1194C359.1 99.3611 357.982 99.48 356.861 99.4736C356.159 99.4688 355.459 99.4194 354.764 99.326C353.995 99.2289 353.189 99.0911 352.344 98.9127C351.499 98.7342 350.632 98.5178 349.745 98.2632C348.86 98.0074 347.965 97.722 347.059 97.4071L347.295 102.426C348.318 102.78 349.252 103.065 350.099 103.282C350.946 103.498 351.753 103.685 352.52 103.843C353.26 103.996 354.01 104.094 354.764 104.138C355.492 104.177 356.23 104.196 356.978 104.197C358.625 104.205 360.268 104.037 361.878 103.695C363.296 103.407 364.654 102.878 365.893 102.131C367.01 101.449 367.935 100.494 368.581 99.3555C369.257 98.1063 369.592 96.7013 369.554 95.2814C369.579 94.2454 369.409 93.2139 369.052 92.2407C368.734 91.421 368.263 90.6695 367.664 90.0265Z" fill="#85E6D6"/>
<path d="M375.812 84.4173L375.398 89.2589H392.107L392.52 84.4173H375.812Z" fill="#85E6D6"/>
<path d="M23.3608 133.778C20.9008 132.471 18.1451 131.82 15.3601 131.889C12.5497 131.825 9.77139 132.496 7.30065 133.837C5.01944 135.114 3.15413 137.02 1.92766 139.328C0.594181 141.918 -0.0662462 144.801 0.00756836 147.713C-0.0674199 150.602 0.550141 153.466 1.8085 156.068C2.93964 158.338 4.74385 160.204 6.97487 161.411C9.37665 162.669 12.0578 163.299 14.7686 163.241C17.6068 163.298 20.4122 162.627 22.9177 161.293C25.2566 160.017 27.1746 158.088 28.4385 155.743C29.8094 153.123 30.4901 150.197 30.4165 147.24C30.4839 144.425 29.8547 141.636 28.585 139.122C27.409 136.864 25.5914 135.005 23.3608 133.778ZM23.0064 153.558C22.3426 155.092 21.218 156.382 19.7885 157.248C18.352 158.071 16.7197 158.489 15.0649 158.459C13.4424 158.5 11.843 158.069 10.4604 157.219C9.09142 156.31 8.02277 155.015 7.3893 153.499C6.58649 151.554 6.20434 149.462 6.26829 147.358C6.19869 145.312 6.58157 143.276 7.3893 141.395C8.05153 139.916 9.15488 138.679 10.5481 137.852C12.0381 137.032 13.72 136.624 15.4202 136.671C16.7469 136.638 18.0653 136.89 19.2866 137.41C20.3568 137.892 21.2904 138.632 22.0036 139.565C22.7644 140.577 23.3162 141.732 23.6265 142.96C23.9959 144.396 24.1744 145.875 24.1577 147.358C24.2264 149.484 23.8337 151.599 23.0064 153.558Z" fill="#85E6D6"/>
<path d="M50.0767 132.332C48.9726 132.628 47.9185 133.085 46.9484 133.69C45.9407 134.318 45.0091 135.061 44.1722 135.904C44.0335 136.043 43.8978 136.199 43.759 136.346V131.948L37.7364 132.834V162.651H43.759V140.344C44.207 140.032 44.6703 139.742 45.1474 139.476C45.7381 139.151 46.3497 138.865 46.9779 138.62C47.5867 138.384 48.2066 138.177 48.8377 138C49.4854 137.82 50.1466 137.691 50.8147 137.616C51.5305 137.537 52.2517 137.517 52.9707 137.557L53.6783 132.007C52.4681 131.92 51.2518 132.03 50.0767 132.332Z" fill="#85E6D6"/>
<path d="M84.8541 132.538H77.4735L67.37 143.642H65.1921V118.076L59.1697 118.961V162.654H65.1921V148.188H65.2906L77.3544 162.654H85.1481L70.826 146.515L84.8541 132.538Z" fill="#85E6D6"/>
<path d="M113.018 136.347C111.885 134.878 110.389 133.728 108.678 133.011C106.777 132.234 104.738 131.852 102.685 131.889C100.617 131.854 98.5646 132.256 96.6627 133.07C94.9327 133.827 93.3905 134.956 92.1457 136.376C90.8641 137.869 89.8994 139.606 89.3105 141.484C88.6377 143.633 88.3092 145.874 88.3373 148.126C88.2537 150.971 88.8509 153.795 90.0791 156.363C91.2008 158.588 93.0134 160.391 95.2455 161.5C97.8638 162.733 100.737 163.33 103.63 163.241C105.022 163.253 106.413 163.165 107.792 162.976C108.945 162.81 110.081 162.543 111.188 162.179C112.284 161.81 113.351 161.356 114.376 160.821L114.789 156.274C114.041 156.55 113.283 156.825 112.515 157.101C111.747 157.376 110.951 157.622 110.125 157.839C109.291 158.057 108.442 158.215 107.586 158.311C106.723 158.409 105.856 158.459 104.988 158.459C103.438 158.484 101.89 158.315 100.381 157.957C99.1646 157.666 98.0392 157.077 97.1055 156.245C96.1621 155.346 95.47 154.216 95.0979 152.968C94.7126 151.703 94.4961 150.392 94.4543 149.071H115.793C116.083 146.629 115.973 144.156 115.467 141.749C115.052 139.792 114.216 137.949 113.018 136.347ZM98.1388 137.764C99.5243 136.923 101.124 136.502 102.744 136.553C104.366 136.472 105.968 136.94 107.29 137.882C108.466 138.82 109.306 140.115 109.682 141.572C109.976 142.649 110.121 143.762 110.112 144.879H94.5843C94.6934 143.701 94.9452 142.541 95.3341 141.425C95.838 139.927 96.8245 138.64 98.1388 137.764Z" fill="#85E6D6"/>
<path d="M141.831 149.071C141.227 148.43 140.53 147.883 139.765 147.447C138.972 146.993 138.142 146.608 137.284 146.296C136.655 146.099 136.036 145.892 135.425 145.676C134.814 145.459 134.204 145.262 133.593 145.085C132.983 144.908 132.393 144.721 131.822 144.524C131.287 144.342 130.764 144.125 130.258 143.875C129.772 143.617 129.308 143.321 128.87 142.989C128.465 142.685 128.124 142.303 127.866 141.867C127.606 141.42 127.473 140.909 127.481 140.391C127.466 139.822 127.609 139.26 127.896 138.768C128.204 138.284 128.631 137.888 129.136 137.616C129.753 137.277 130.421 137.038 131.114 136.908C131.979 136.742 132.86 136.662 133.741 136.671C134.173 136.671 134.647 136.691 135.158 136.731C135.67 136.77 136.23 136.839 136.841 136.937C137.452 137.036 138.06 137.164 138.671 137.321C139.283 137.478 139.901 137.656 140.531 137.852C141.115 138.032 141.687 138.249 142.243 138.502L142.657 133.719C141.909 133.404 141.171 133.129 140.443 132.893C139.715 132.657 138.976 132.46 138.228 132.302C137.498 132.147 136.758 132.039 136.014 131.977C135.285 131.918 134.567 131.889 133.859 131.889C132.228 131.872 130.602 132.061 129.018 132.45C127.663 132.779 126.375 133.339 125.209 134.103C124.152 134.802 123.29 135.757 122.7 136.878C122.083 138.114 121.779 139.483 121.814 140.864C121.796 141.858 121.956 142.848 122.287 143.786C122.567 144.573 122.987 145.304 123.526 145.941C124.051 146.544 124.658 147.07 125.327 147.506C126.025 147.964 126.766 148.349 127.542 148.657C127.973 148.815 128.426 148.972 128.899 149.13C129.373 149.287 129.836 149.435 130.287 149.573C130.738 149.71 131.181 149.848 131.615 149.986C132.05 150.124 132.473 150.262 132.885 150.399C133.298 150.537 133.702 150.665 134.095 150.783C134.624 150.97 135.137 151.197 135.631 151.462C136.064 151.692 136.469 151.969 136.841 152.289C137.168 152.574 137.43 152.927 137.609 153.322C137.789 153.731 137.879 154.174 137.874 154.621C137.895 155.058 137.819 155.493 137.65 155.897C137.482 156.3 137.225 156.661 136.9 156.953C136.169 157.564 135.296 157.98 134.361 158.164C133.266 158.405 132.147 158.524 131.025 158.518C130.324 158.513 129.624 158.464 128.929 158.37C128.161 158.273 127.355 158.135 126.508 157.957C125.662 157.779 124.796 157.562 123.91 157.307C123.025 157.052 122.129 156.766 121.224 156.451L121.46 161.47C122.482 161.824 123.417 162.11 124.265 162.326C125.112 162.543 125.919 162.73 126.685 162.887C127.425 163.04 128.175 163.139 128.929 163.182C129.657 163.221 130.395 163.241 131.143 163.241C132.79 163.25 134.433 163.081 136.044 162.74C137.462 162.451 138.82 161.922 140.059 161.175C141.175 160.493 142.1 159.538 142.745 158.4C143.421 157.15 143.757 155.746 143.719 154.326C143.744 153.29 143.574 152.258 143.218 151.285C142.9 150.466 142.43 149.714 141.831 149.071Z" fill="#85E6D6"/>
<path d="M166.482 157.898L165.479 158.075C165.156 158.132 164.831 158.172 164.505 158.193C164.189 158.214 163.892 158.223 163.619 158.223C162.714 158.247 161.815 158.066 160.991 157.691C160.283 157.355 159.695 156.809 159.309 156.127C158.895 155.356 158.691 154.491 158.718 153.617V137.262H167.043L167.693 132.538H158.718V123.209L152.696 125.335V132.538H148.148L147.499 137.262H152.696V154.857C152.669 156.031 152.849 157.2 153.227 158.311C153.531 159.19 154.002 160.003 154.615 160.702C155.176 161.326 155.859 161.828 156.622 162.179C157.403 162.537 158.226 162.795 159.071 162.946C159.909 163.101 160.759 163.18 161.61 163.182C162.24 163.182 162.86 163.163 163.471 163.123C164.082 163.084 164.643 163.025 165.154 162.946C165.665 162.866 166.148 162.778 166.6 162.68C167.051 162.583 167.436 162.495 167.751 162.415L168.106 157.514C167.876 157.603 167.639 157.672 167.398 157.721C167.121 157.782 166.816 157.841 166.482 157.898Z" fill="#85E6D6"/>
<path d="M186.704 132.332C185.599 132.628 184.545 133.085 183.574 133.69C182.567 134.318 181.636 135.061 180.799 135.904C180.661 136.043 180.525 136.199 180.386 136.346V131.948L174.364 132.834V162.651H180.386V140.344C180.844 140.029 181.305 139.734 181.774 139.476C182.365 139.151 182.977 138.865 183.605 138.62C184.214 138.384 184.833 138.177 185.464 138C186.112 137.82 186.773 137.691 187.442 137.616C188.158 137.537 188.879 137.517 189.598 137.557L190.306 132.007C189.095 131.92 187.879 132.03 186.704 132.332Z" fill="#85E6D6"/>
<path d="M218.647 136.347C217.514 134.878 216.018 133.728 214.307 133.011C212.406 132.234 210.367 131.853 208.314 131.889C206.246 131.854 204.193 132.256 202.292 133.07C200.562 133.827 199.019 134.956 197.775 136.376C196.492 137.868 195.528 139.606 194.94 141.484C194.267 143.633 193.938 145.874 193.966 148.126C193.883 150.971 194.48 153.795 195.708 156.363C196.83 158.588 198.643 160.391 200.875 161.5C203.493 162.733 206.366 163.33 209.259 163.241C210.651 163.253 212.042 163.165 213.421 162.976C214.574 162.81 215.71 162.543 216.816 162.179C217.913 161.81 218.979 161.356 220.005 160.821L220.418 156.274C219.67 156.55 218.911 156.825 218.144 157.101C217.376 157.376 216.58 157.622 215.754 157.839C214.92 158.057 214.071 158.215 213.215 158.311C212.352 158.409 211.485 158.459 210.617 158.459C209.066 158.484 207.519 158.315 206.01 157.957C204.794 157.666 203.668 157.077 202.734 156.245C201.791 155.346 201.099 154.216 200.727 152.968C200.341 151.703 200.125 150.392 200.083 149.071H221.421C221.712 146.629 221.602 144.156 221.096 141.749C220.681 139.792 219.845 137.949 218.647 136.347ZM203.768 137.764C205.153 136.923 206.753 136.502 208.373 136.553C209.995 136.472 211.597 136.94 212.92 137.882C214.096 138.82 214.934 140.115 215.31 141.572C215.605 142.649 215.75 143.762 215.741 144.879H200.213C200.323 143.701 200.574 142.542 200.962 141.425C201.467 139.928 202.453 138.64 203.768 137.764Z" fill="#85E6D6"/>
<path d="M244.418 157.898L243.414 158.075C243.092 158.132 242.767 158.172 242.44 158.193C242.125 158.214 241.829 158.223 241.554 158.223C240.65 158.247 239.752 158.066 238.928 157.691C238.219 157.356 237.631 156.809 237.245 156.127C236.831 155.357 236.628 154.491 236.655 153.617V137.262H244.98L245.63 132.538H236.655V123.209L230.632 125.335V132.538H226.086L225.436 137.262H230.632V154.857C230.606 156.031 230.786 157.2 231.164 158.311C231.467 159.19 231.939 160.003 232.551 160.702C233.113 161.326 233.796 161.828 234.559 162.179C235.339 162.537 236.162 162.795 237.008 162.946C237.846 163.101 238.695 163.18 239.547 163.182C240.177 163.182 240.797 163.163 241.408 163.123C242.019 163.084 242.58 163.025 243.091 162.946C243.602 162.867 244.085 162.778 244.537 162.68C244.99 162.583 245.374 162.494 245.689 162.415L246.043 157.514C245.813 157.603 245.576 157.672 245.334 157.721C245.057 157.782 244.752 157.841 244.418 157.898Z" fill="#85E6D6"/>
</svg>
