<svg xmlns="http://www.w3.org/2000/svg" viewBox="0 0 803 84"><path fill="#01405C" d="M0 0h803v84H0z"/><path fill="#fff" d="M20 63V21.004h13.78V63H20Zm32.528-35.312L60.453 63h-15.08l-9.464-41.996h8.459a7.965 7.965 0 0 1 5.293 1.922 8.31 8.31 0 0 1 2.867 4.762ZM62.523 63V21.004h13.78V63h-13.78Zm24.189-26.026a8.213 8.213 0 0 1-4.228-1.124 8.336 8.336 0 0 1-3.046-3.046 8.206 8.206 0 0 1-1.125-4.229 8.056 8.056 0 0 1 1.125-4.2 8.437 8.437 0 0 1 3.046-3.016 8.233 8.233 0 0 1 4.228-1.124 8.083 8.083 0 0 1 4.199 1.124 8.504 8.504 0 0 1 3.016 3.016 8.075 8.075 0 0 1 1.125 4.2 8.226 8.226 0 0 1-1.125 4.23 8.4 8.4 0 0 1-3.016 3.045 8.059 8.059 0 0 1-4.201 1.124h.002ZM97.18 63V21.004h13.781V63H97.181Zm31.227-19.046c.039.04.334.524.887 1.449.553.925 1.272 2.108 2.159 3.549a1143.28 1143.28 0 0 1 5.589 9.168A854.89 854.89 0 0 0 140 63h-15.141c-.947-1.538-1.804-2.928-2.573-4.17a388.795 388.795 0 0 1-2.453-4.022 355.984 355.984 0 0 0-2.574-4.2 210.645 210.645 0 0 1-2.188-3.578 62.13 62.13 0 0 0-1.272-2.07 6.127 6.127 0 0 1-1.005-2.958 5.745 5.745 0 0 1 .946-2.84c.236-.394.67-1.094 1.301-2.1.631-1.006 1.37-2.198 2.218-3.578.847-1.38 1.706-2.79 2.574-4.23.869-1.439 1.686-2.79 2.453-4.052.77-1.26 1.628-2.66 2.573-4.2H140l-11.711 19.106a3.773 3.773 0 0 0-.592 1.894c.039.706.286 1.385.709 1.952h.002Z"/><path fill="#85E6D6" d="M188.112 20.744h-7.447L164.48 39.39h-2.224V20.744H156v42.299h6.256V43.919h.209l17.604 19.183 8.519-.06-20.197-20.97 19.721-21.329ZM205.803 32.45c-1.114.299-2.178.76-3.156 1.37a15.621 15.621 0 0 0-2.802 2.235c-.14.14-.277.298-.417.446v-4.438l-6.076.894v30.086h6.076V40.536c.452-.316.92-.609 1.402-.877a15.492 15.492 0 0 1 1.846-.864 20.664 20.664 0 0 1 1.877-.625 12.77 12.77 0 0 1 4.17-.447l.715-5.6a11.373 11.373 0 0 0-3.635.327ZM214.979 63.043h6.077v-30.98l-6.077.894v30.086ZM220.192 19.582a3.858 3.858 0 0 0-2.055-.566 4.011 4.011 0 0 0-2.086.566 4.377 4.377 0 0 0-1.519 1.49 3.86 3.86 0 0 0-.566 2.055c-.006.733.19 1.455.566 2.085a4.039 4.039 0 0 0 1.519 1.49 4.184 4.184 0 0 0 2.086.535c.72.009 1.43-.176 2.055-.536a3.892 3.892 0 0 0 1.46-1.49 4.192 4.192 0 0 0 .536-2.084 4.036 4.036 0 0 0-.536-2.056 4.211 4.211 0 0 0-1.46-1.49ZM253.704 33.255a11.73 11.73 0 0 0-5.719-1.252c-1.73.004-3.449.275-5.095.805a19.345 19.345 0 0 0-4.795 2.293c-.576.379-1.128.795-1.669 1.223v-4.26l-6.077.893v30.086h6.077V40.417a18.819 18.819 0 0 1 1.817-.937c.837-.37 1.692-.698 2.561-.983a17.461 17.461 0 0 1 2.562-.625 15.514 15.514 0 0 1 2.474-.209 8.16 8.16 0 0 1 2.859.447 4.75 4.75 0 0 1 1.965 1.34 5.534 5.534 0 0 1 1.133 2.264 12.86 12.86 0 0 1 .357 3.218v18.11h6.077V43.682a16.532 16.532 0 0 0-1.131-6.614 7.82 7.82 0 0 0-3.396-3.812ZM286.32 32.778a21.52 21.52 0 0 0-2.77-.566 23.453 23.453 0 0 0-3.218-.209 14.42 14.42 0 0 0-5.659 1.132 14.975 14.975 0 0 0-4.796 3.247 14.686 14.686 0 0 0-3.307 5.243 20.069 20.069 0 0 0-1.191 7.18 18.626 18.626 0 0 0 1.519 7.833 11.545 11.545 0 0 0 4.438 5.124 13.151 13.151 0 0 0 7.09 1.817 17.18 17.18 0 0 0 6.375-1.251 15.109 15.109 0 0 0 3.396-1.928v1.63a12.633 12.633 0 0 1-.565 3.962 7.196 7.196 0 0 1-1.729 2.86 7.098 7.098 0 0 1-3.038 1.727 15.95 15.95 0 0 1-4.558.566 33.15 33.15 0 0 1-3.664-.208 25.821 25.821 0 0 1-3.783-.715 28.881 28.881 0 0 1-3.754-1.281l.656 5.243c1.095.444 2.22.812 3.366 1.102 1.206.304 2.429.533 3.664.685 1.304.16 2.618.24 3.932.238a19.214 19.214 0 0 0 8.519-1.698 11.942 11.942 0 0 0 5.213-4.706 13.504 13.504 0 0 0 1.758-6.94V32.002l-5.827 1.5a17.445 17.445 0 0 0-2.067-.725Zm1.102 23.86c-.738.43-1.504.808-2.294 1.132-.695.286-1.412.515-2.144.685a9.686 9.686 0 0 1-2.175.239 10.353 10.353 0 0 1-5.153-1.162 6.98 6.98 0 0 1-3.039-3.515 15.841 15.841 0 0 1-.983-6.047 15.78 15.78 0 0 1 .685-4.856 9.17 9.17 0 0 1 1.966-3.485 8.612 8.612 0 0 1 3.158-2.115 11.5 11.5 0 0 1 4.26-.744c.938-.001 1.875.079 2.8.238.947.167 1.882.396 2.8.685.292.091.596.213.894.324v18.166c-.262.154-.529.314-.775.455ZM329.364 32.659h-7.447l-10.194 11.2h-2.198V18.062l-6.077.894v44.087h6.077V48.447h.099l12.173 14.596h7.864L315.21 46.759l14.154-14.1ZM360.523 59.29a2.711 2.711 0 0 1-2.324-.954 5.115 5.115 0 0 1-.655-3.157l.119-12.273a14.263 14.263 0 0 0-.478-3.813 9.36 9.36 0 0 0-1.428-3.038 8.105 8.105 0 0 0-2.473-2.205 12.672 12.672 0 0 0-3.604-1.37 21.271 21.271 0 0 0-4.707-.477c-1.255 0-2.509.08-3.754.239-1.176.148-2.34.377-3.484.685a29.014 29.014 0 0 0-3.129 1.042l-.715 5.064a35.041 35.041 0 0 1 5.421-1.489 21.925 21.925 0 0 1 2.474-.328c.813-.06 1.617-.089 2.412-.089a13.346 13.346 0 0 1 3.604.417 5.204 5.204 0 0 1 2.295 1.251 4.73 4.73 0 0 1 1.191 2.115c.254.983.374 1.994.357 3.009l-.006 1.495-6.964.47a18.527 18.527 0 0 0-6.91 1.55 9.911 9.911 0 0 0-4.083 3.306 7.7 7.7 0 0 0-1.339 4.38 8.706 8.706 0 0 0 1.043 4.2 7.83 7.83 0 0 0 3.156 3.127 10.625 10.625 0 0 0 5.274 1.192c1.715.04 3.422-.244 5.033-.834a11.615 11.615 0 0 0 3.754-2.383c.412-.396.803-.812 1.172-1.249.116.617.334 1.21.645 1.755a4.8 4.8 0 0 0 2.323 2.026 8.7 8.7 0 0 0 3.396.625c.358 0 .705-.01 1.042-.03.332-.019.661-.069.983-.149.319-.08.606-.149.865-.208.233-.052.462-.122.685-.209l.655-3.991a5.239 5.239 0 0 1-1.012.238 6.87 6.87 0 0 1-.834.06Zm-9.92-2.681c-.646.51-1.345.95-2.085 1.31a9.389 9.389 0 0 1-2.323.775 13.14 13.14 0 0 1-2.533.238 6.719 6.719 0 0 1-2.829-.536 3.891 3.891 0 0 1-1.759-1.52 4.471 4.471 0 0 1-.596-2.352 4.515 4.515 0 0 1 .775-2.8 4.559 4.559 0 0 1 2.501-1.49 18.169 18.169 0 0 1 4.648-.477h5.216l-.026 5.914c-.303.34-.633.653-.989.938ZM386.854 49.34a9 9 0 0 0-2.086-1.638 16.13 16.13 0 0 0-2.503-1.162 53 53 0 0 1-1.875-.625 33.814 33.814 0 0 0-1.848-.596 37.767 37.767 0 0 1-1.788-.566 12.78 12.78 0 0 1-1.577-.655c-.491-.26-.959-.56-1.402-.894a3.907 3.907 0 0 1-1.011-1.132 2.852 2.852 0 0 1-.388-1.49 3.086 3.086 0 0 1 .417-1.638 3.384 3.384 0 0 1 1.252-1.162 6.744 6.744 0 0 1 1.995-.714 13.368 13.368 0 0 1 2.652-.239 19.288 19.288 0 0 1 3.127.268 20.2 20.2 0 0 1 1.846.388c.616.157 1.241.337 1.878.536.589.181 1.166.4 1.727.655l.418-4.826a29.524 29.524 0 0 0-2.235-.834 22.11 22.11 0 0 0-2.234-.595 18.087 18.087 0 0 0-2.234-.328c-.736-.06-1.461-.09-2.174-.09a19.629 19.629 0 0 0-4.885.566 12.329 12.329 0 0 0-3.843 1.669 7.597 7.597 0 0 0-2.532 2.8 8.507 8.507 0 0 0-.894 4.021 8.41 8.41 0 0 0 .478 2.95 6.971 6.971 0 0 0 1.251 2.174 8.67 8.67 0 0 0 1.817 1.578c.703.463 1.452.852 2.234 1.162.436.16.892.32 1.37.477.477.16.943.309 1.4.447a93.038 93.038 0 0 1 2.621.834c.416.139.825.268 1.222.387.533.189 1.05.418 1.548.685.437.232.847.511 1.222.834a3.047 3.047 0 0 1 1.043 2.353 2.974 2.974 0 0 1-.983 2.354 5.713 5.713 0 0 1-2.563 1.221 15.203 15.203 0 0 1-3.365.358 16.575 16.575 0 0 1-2.115-.15 30.336 30.336 0 0 1-2.443-.416 37.798 37.798 0 0 1-2.622-.656 50.997 50.997 0 0 1-2.71-.864l.239 5.065c1.031.357 1.974.645 2.83.863.855.219 1.669.407 2.442.566a15.39 15.39 0 0 0 2.264.298c.734.04 1.479.06 2.234.06a23.237 23.237 0 0 0 4.944-.507 12.747 12.747 0 0 0 4.051-1.578 7.772 7.772 0 0 0 2.712-2.8 8.171 8.171 0 0 0 .982-4.111 8.355 8.355 0 0 0-.506-3.069 6.992 6.992 0 0 0-1.4-2.234ZM411.723 58.247l-1.012.179a8.878 8.878 0 0 1-.984.119c-.318.02-.616.03-.894.03a6.013 6.013 0 0 1-2.651-.537 3.838 3.838 0 0 1-1.698-1.578 5.019 5.019 0 0 1-.595-2.532V37.425h8.4l.656-4.766h-9.056v-9.413l-6.077 2.144v7.269h-4.588l-.655 4.766h5.243v17.754a10.118 10.118 0 0 0 .536 3.485 7.28 7.28 0 0 0 1.401 2.413 6.213 6.213 0 0 0 2.026 1.49c.787.361 1.618.621 2.471.774.845.156 1.702.236 2.562.238.635 0 1.26-.02 1.878-.06.617-.04 1.18-.099 1.697-.178.516-.08 1.002-.169 1.459-.268.457-.1.844-.188 1.162-.268l.357-4.945c-.231.09-.47.159-.714.208-.276.06-.584.12-.924.179ZM419.68 63.043h6.077v-30.98l-6.077.894v30.086ZM424.893 19.582a3.857 3.857 0 0 0-2.054-.566 4.01 4.01 0 0 0-2.085.566 4.364 4.364 0 0 0-1.518 1.49 3.85 3.85 0 0 0-.567 2.055c-.006.733.19 1.455.567 2.085a4.023 4.023 0 0 0 1.518 1.49 4.182 4.182 0 0 0 2.085.535c.72.009 1.43-.176 2.054-.536a3.898 3.898 0 0 0 1.461-1.49 4.193 4.193 0 0 0 .536-2.084 4.037 4.037 0 0 0-.536-2.056 4.225 4.225 0 0 0-1.461-1.49ZM458.405 33.255a11.73 11.73 0 0 0-5.719-1.252c-1.73.004-3.448.275-5.095.805a19.373 19.373 0 0 0-4.795 2.293c-.576.379-1.128.795-1.669 1.223v-4.26l-6.077.893v30.086h6.077V40.417a18.63 18.63 0 0 1 1.818-.937c.837-.37 1.692-.698 2.562-.983a17.367 17.367 0 0 1 2.562-.625 15.466 15.466 0 0 1 2.472-.209 8.165 8.165 0 0 1 2.86.447 4.752 4.752 0 0 1 1.965 1.34 5.53 5.53 0 0 1 1.133 2.264c.253 1.054.373 2.135.356 3.218v18.11h6.077V43.682a16.514 16.514 0 0 0-1.131-6.614 7.815 7.815 0 0 0-3.396-3.812ZM491.022 32.778c-.91-.25-1.835-.438-2.77-.566a23.428 23.428 0 0 0-3.217-.209 14.42 14.42 0 0 0-5.66 1.132 14.986 14.986 0 0 0-4.796 3.247 14.7 14.7 0 0 0-3.306 5.243 20.092 20.092 0 0 0-1.192 7.18 18.626 18.626 0 0 0 1.518 7.833 11.549 11.549 0 0 0 4.44 5.124 13.142 13.142 0 0 0 7.089 1.817 17.175 17.175 0 0 0 6.374-1.251 15.087 15.087 0 0 0 3.396-1.928v1.63a12.574 12.574 0 0 1-.565 3.962 7.208 7.208 0 0 1-1.728 2.86 7.106 7.106 0 0 1-3.039 1.727 15.945 15.945 0 0 1-4.558.566 33.145 33.145 0 0 1-3.663-.208 25.833 25.833 0 0 1-3.784-.715 28.817 28.817 0 0 1-3.753-1.281l.655 5.243a25.66 25.66 0 0 0 3.367 1.102c1.206.304 2.429.533 3.663.685 1.305.16 2.618.24 3.933.238a19.21 19.21 0 0 0 8.519-1.698 11.944 11.944 0 0 0 5.213-4.706 13.504 13.504 0 0 0 1.758-6.94V32.002l-5.827 1.5a17.445 17.445 0 0 0-2.067-.725Zm1.103 23.86c-.738.43-1.504.808-2.294 1.132a13.97 13.97 0 0 1-2.145.685 9.677 9.677 0 0 1-2.174.239 10.362 10.362 0 0 1-5.154-1.162 6.974 6.974 0 0 1-3.037-3.515 15.823 15.823 0 0 1-.984-6.047 15.72 15.72 0 0 1 .685-4.856 9.155 9.155 0 0 1 1.966-3.485 8.612 8.612 0 0 1 3.158-2.115 11.495 11.495 0 0 1 4.259-.744c.939-.001 1.875.078 2.8.238a22.24 22.24 0 0 1 2.801.685c.291.091.596.213.894.324v18.166c-.262.154-.53.314-.775.455ZM526.976 49.34a8.984 8.984 0 0 0-2.085-1.638c-.8-.458-1.638-.847-2.504-1.162a52.326 52.326 0 0 1-1.875-.625 33.266 33.266 0 0 0-1.848-.596 37.722 37.722 0 0 1-1.787-.566 12.746 12.746 0 0 1-1.579-.655c-.49-.26-.958-.559-1.4-.894a3.928 3.928 0 0 1-1.013-1.132 2.862 2.862 0 0 1-.388-1.49 3.087 3.087 0 0 1 .418-1.638 3.398 3.398 0 0 1 1.251-1.162 6.767 6.767 0 0 1 1.996-.714 13.352 13.352 0 0 1 2.651-.239 19.266 19.266 0 0 1 3.128.268c.616.099 1.23.23 1.847.388.616.157 1.241.337 1.876.536.589.181 1.166.4 1.727.655l.418-4.826a29.187 29.187 0 0 0-2.234-.834 22.225 22.225 0 0 0-2.234-.595 18.011 18.011 0 0 0-2.234-.328c-.736-.06-1.461-.09-2.175-.09a19.629 19.629 0 0 0-4.885.566 12.337 12.337 0 0 0-3.843 1.669 7.6 7.6 0 0 0-2.532 2.8 8.507 8.507 0 0 0-.894 4.021 8.41 8.41 0 0 0 .477 2.95 6.97 6.97 0 0 0 1.251 2.174 8.667 8.667 0 0 0 1.817 1.578c.703.463 1.452.852 2.234 1.162.436.16.893.32 1.371.477.478.157.944.306 1.4.447.455.14.902.278 1.34.417.436.14.864.278 1.281.417.417.139.824.268 1.221.387.533.189 1.051.418 1.549.685.437.232.847.512 1.222.834a3.057 3.057 0 0 1 1.042 2.353 2.96 2.96 0 0 1-.983 2.354 5.705 5.705 0 0 1-2.562 1.221 15.224 15.224 0 0 1-3.366.358 16.557 16.557 0 0 1-2.115-.15 30.315 30.315 0 0 1-2.442-.416 37.516 37.516 0 0 1-2.622-.656 50.707 50.707 0 0 1-2.71-.864l.238 5.065c1.032.357 1.975.645 2.83.863.854.219 1.669.407 2.443.566.746.156 1.502.255 2.263.298.734.04 1.479.06 2.234.06 1.662.008 3.32-.162 4.946-.507 1.43-.29 2.8-.824 4.051-1.578a7.778 7.778 0 0 0 2.71-2.8 8.171 8.171 0 0 0 .982-4.111 8.376 8.376 0 0 0-.505-3.069 6.996 6.996 0 0 0-1.399-2.234ZM557.748 33.915a16.35 16.35 0 0 0-8.072-1.907 16.283 16.283 0 0 0-8.134 1.966 13.746 13.746 0 0 0-5.421 5.541 17.52 17.52 0 0 0-1.936 8.46 18.262 18.262 0 0 0 1.817 8.43 12.423 12.423 0 0 0 5.213 5.392 16.194 16.194 0 0 0 7.864 1.847c2.864.056 5.694-.62 8.223-1.966a13.876 13.876 0 0 0 5.57-5.6 17.568 17.568 0 0 0 1.996-8.58 17.258 17.258 0 0 0-1.848-8.191 13.018 13.018 0 0 0-5.272-5.392Zm-.358 19.958a8.116 8.116 0 0 1-3.246 3.724 9.26 9.26 0 0 1-4.766 1.22 8.47 8.47 0 0 1-4.647-1.25 8.388 8.388 0 0 1-3.098-3.754 15.017 15.017 0 0 1-1.131-6.196 14.014 14.014 0 0 1 1.131-6.017 7.927 7.927 0 0 1 3.187-3.574 9.645 9.645 0 0 1 4.915-1.192 9.378 9.378 0 0 1 3.903.745 7.165 7.165 0 0 1 2.741 2.174 9.624 9.624 0 0 1 1.637 3.426c.373 1.45.553 2.942.537 4.438a14.834 14.834 0 0 1-1.165 6.256h.002ZM584.705 32.45c-1.115.299-2.179.76-3.158 1.37a15.647 15.647 0 0 0-2.8 2.235c-.14.14-.277.298-.417.446v-4.438l-6.077.894v30.086h6.077V40.536c.452-.316.919-.608 1.4-.877a15.52 15.52 0 0 1 1.848-.864c.615-.238 1.24-.447 1.875-.625a12.83 12.83 0 0 1 4.172-.447l.714-5.6a11.367 11.367 0 0 0-3.634.327ZM619.795 32.659h-7.447l-10.194 11.2h-2.198V18.062l-6.077.894v44.087h6.077V48.447h.1l12.172 14.596h7.864l-14.451-16.284 14.154-14.1ZM648.214 36.502a10.816 10.816 0 0 0-4.379-3.367 15.296 15.296 0 0 0-6.047-1.131 14.816 14.816 0 0 0-6.077 1.191 12.985 12.985 0 0 0-4.558 3.336 14.611 14.611 0 0 0-2.861 5.154 21.57 21.57 0 0 0-.982 6.702c-.084 2.87.518 5.72 1.758 8.311a11.629 11.629 0 0 0 5.213 5.183 18.509 18.509 0 0 0 8.46 1.758 29.105 29.105 0 0 0 4.2-.268 20.135 20.135 0 0 0 3.426-.805 22.28 22.28 0 0 0 3.217-1.37l.417-4.587c-.756.279-1.52.557-2.295.834-.774.276-1.578.525-2.412.744-.841.22-1.697.38-2.562.477-.87.1-1.745.15-2.621.149a18.754 18.754 0 0 1-4.648-.506 7.62 7.62 0 0 1-3.305-1.728 7.525 7.525 0 0 1-2.026-3.307 15.077 15.077 0 0 1-.649-3.932h21.53a22.8 22.8 0 0 0-.328-7.387 13.927 13.927 0 0 0-2.471-5.451Zm-15.014 1.43a8.438 8.438 0 0 1 4.647-1.222 7.288 7.288 0 0 1 4.588 1.34 7.001 7.001 0 0 1 2.411 3.724c.298 1.087.445 2.21.435 3.336h-15.667c.11-1.188.364-2.358.755-3.485a7.215 7.215 0 0 1 2.831-3.694ZM677.285 49.34a8.98 8.98 0 0 0-2.085-1.638c-.8-.458-1.638-.847-2.503-1.162a51.722 51.722 0 0 1-1.876-.625 33.266 33.266 0 0 0-1.848-.596 37.722 37.722 0 0 1-1.787-.566 12.858 12.858 0 0 1-1.578-.655c-.491-.26-.959-.56-1.401-.894a3.916 3.916 0 0 1-1.012-1.132 2.862 2.862 0 0 1-.388-1.49 3.087 3.087 0 0 1 .418-1.638 3.395 3.395 0 0 1 1.251-1.162 6.746 6.746 0 0 1 1.996-.714 13.352 13.352 0 0 1 2.651-.239 19.266 19.266 0 0 1 3.128.268c.616.099 1.23.23 1.845.388.616.157 1.242.337 1.878.536.589.181 1.166.4 1.727.655l.418-4.826c-.755-.316-1.5-.594-2.234-.834a22.225 22.225 0 0 0-2.234-.595 18.077 18.077 0 0 0-2.234-.328c-.736-.06-1.461-.09-2.175-.09a19.629 19.629 0 0 0-4.885.566 12.326 12.326 0 0 0-3.843 1.669 7.6 7.6 0 0 0-2.532 2.8 8.507 8.507 0 0 0-.894 4.021 8.41 8.41 0 0 0 .477 2.95 6.97 6.97 0 0 0 1.251 2.174 8.695 8.695 0 0 0 1.817 1.578 12.35 12.35 0 0 0 2.234 1.162c.436.16.893.32 1.371.477.477.157.943.306 1.4.447.455.14.902.278 1.34.417.436.14.864.278 1.281.417.417.139.824.268 1.221.387.533.189 1.051.418 1.549.685.437.232.847.512 1.222.834a3.058 3.058 0 0 1 1.042 2.353 2.974 2.974 0 0 1-.983 2.354 5.714 5.714 0 0 1-2.562 1.221 15.224 15.224 0 0 1-3.366.358 16.575 16.575 0 0 1-2.115-.15 30.315 30.315 0 0 1-2.442-.416 37.68 37.68 0 0 1-2.623-.656 51.261 51.261 0 0 1-2.709-.864l.238 5.065c1.032.357 1.975.645 2.83.863.854.219 1.669.407 2.442.566.747.156 1.503.255 2.264.298.734.04 1.479.06 2.235.06a23.244 23.244 0 0 0 4.944-.507 12.78 12.78 0 0 0 4.052-1.578 7.78 7.78 0 0 0 2.71-2.8 8.171 8.171 0 0 0 .982-4.111 8.356 8.356 0 0 0-.505-3.069 6.998 6.998 0 0 0-1.4-2.234ZM702.159 58.247l-1.012.179a8.826 8.826 0 0 1-.984.119c-.318.02-.616.03-.893.03a6.008 6.008 0 0 1-2.651-.537 3.838 3.838 0 0 1-1.699-1.578 5.03 5.03 0 0 1-.595-2.532V37.425h8.4l.655-4.766h-9.055v-9.413l-6.078 2.144v7.269h-4.587l-.656 4.766h5.243v17.754a10.118 10.118 0 0 0 .536 3.485 7.284 7.284 0 0 0 1.401 2.413 6.212 6.212 0 0 0 2.026 1.49c.787.361 1.618.621 2.471.774a14.31 14.31 0 0 0 2.562.238c.636 0 1.261-.02 1.878-.06.616-.04 1.182-.099 1.698-.178.515-.08 1.002-.169 1.458-.268.457-.1.844-.188 1.162-.268l.359-4.945c-.233.09-.472.159-.716.208-.278.06-.585.12-.923.179ZM722.563 32.45c-1.114.299-2.178.76-3.157 1.37a15.65 15.65 0 0 0-2.801 2.235c-.141.14-.277.298-.417.446v-4.438l-6.076.894v30.086h6.076V40.536c.452-.316.919-.608 1.4-.877a15.562 15.562 0 0 1 1.848-.864c.615-.238 1.24-.447 1.876-.625a12.807 12.807 0 0 1 4.17-.447l.715-5.6a11.364 11.364 0 0 0-3.634.327ZM754.794 36.502a10.803 10.803 0 0 0-4.379-3.367 15.29 15.29 0 0 0-6.047-1.131 14.816 14.816 0 0 0-6.077 1.191 12.99 12.99 0 0 0-4.557 3.336 14.596 14.596 0 0 0-2.861 5.154 21.54 21.54 0 0 0-.982 6.702c-.084 2.87.518 5.72 1.756 8.311a11.644 11.644 0 0 0 5.213 5.183 18.518 18.518 0 0 0 8.461 1.758 29.054 29.054 0 0 0 4.199-.268 20.092 20.092 0 0 0 3.427-.805 22.185 22.185 0 0 0 3.217-1.37l.417-4.587c-.755.279-1.52.557-2.294.834-.775.276-1.579.525-2.412.744-.842.22-1.698.38-2.563.477-.87.1-1.745.15-2.62.149a18.744 18.744 0 0 1-4.648-.506 7.624 7.624 0 0 1-3.306-1.728 7.522 7.522 0 0 1-2.025-3.307 15.078 15.078 0 0 1-.65-3.932h21.53a22.8 22.8 0 0 0-.327-7.387 13.929 13.929 0 0 0-2.472-5.451Zm-15.013 1.43a8.438 8.438 0 0 1 4.647-1.222 7.285 7.285 0 0 1 4.587 1.34 7.005 7.005 0 0 1 2.412 3.724c.297 1.087.444 2.21.435 3.336h-15.668c.111-1.188.364-2.358.756-3.485a7.208 7.208 0 0 1 2.831-3.694ZM781.723 58.068c-.28.06-.588.12-.925.179l-1.012.179a8.832 8.832 0 0 1-.983.119c-.318.02-.616.03-.893.03a6.012 6.012 0 0 1-2.651-.537 3.835 3.835 0 0 1-1.698-1.578 5.02 5.02 0 0 1-.596-2.532V37.425h8.4l.656-4.766h-9.056v-9.413l-6.077 2.144v7.269h-4.587l-.657 4.766h5.244v17.754a10.093 10.093 0 0 0 .536 3.485 7.278 7.278 0 0 0 1.4 2.413 6.219 6.219 0 0 0 2.026 1.49c.788.361 1.618.621 2.471.774a14.31 14.31 0 0 0 2.562.238c.636 0 1.262-.02 1.878-.06.616-.04 1.182-.099 1.698-.178.515-.08 1.003-.169 1.459-.268.457-.1.843-.188 1.161-.268l.359-4.945c-.232.09-.472.159-.715.208Z"/></svg>