<svg width="156" height="107" viewBox="0 0 156 107" fill="none" xmlns="http://www.w3.org/2000/svg">
<path d="M77.6577 91.6628C77.9012 92.3037 78.0174 92.9857 78 93.6708C78.0276 94.5958 77.8047 95.5112 77.3548 96.3207C76.9216 97.0544 76.3151 97.6716 75.5882 98.1187C74.7747 98.6113 73.8804 98.9571 72.9465 99.1403C71.8714 99.3614 70.776 99.4693 69.6783 99.4623C69.172 99.4623 68.6719 99.4498 68.178 99.4247C67.6736 99.398 67.1717 99.3345 66.6765 99.2349C66.1685 99.133 65.6365 99.0064 65.0804 98.8552C64.5243 98.704 63.9039 98.5142 63.2191 98.2857L63.0664 94.8408C63.6498 95.0432 64.2391 95.2331 64.8343 95.4102C65.4295 95.5874 66.0058 95.7325 66.5632 95.8456C67.1201 95.9588 67.658 96.048 68.1784 96.1097C68.6507 96.1705 69.1264 96.2022 69.6027 96.2046C70.2984 96.2086 70.9926 96.139 71.6735 95.9971C72.2459 95.8928 72.7821 95.6451 73.2319 95.2774C73.4298 95.0993 73.5853 94.8795 73.6871 94.634C73.7889 94.3885 73.8344 94.1234 73.8203 93.8581C73.8218 93.5876 73.7563 93.321 73.6297 93.0817C73.4963 92.8346 73.3153 92.6161 73.097 92.4388C72.8517 92.2378 72.5838 92.0659 72.2987 91.9266C71.9956 91.7756 71.679 91.6368 71.349 91.5103C71.095 91.4347 70.8363 91.3521 70.5699 91.2648C70.3035 91.1775 70.0257 91.0886 69.7339 90.9994C69.4421 90.9101 69.1519 90.8295 68.8601 90.7526C68.5683 90.6757 68.2781 90.589 67.9863 90.4884C67.6945 90.3878 67.4103 90.2733 67.1315 90.1474C66.628 89.9473 66.1447 89.7001 65.6881 89.4089C65.2446 89.1313 64.8471 88.7866 64.5098 88.3874C64.1662 87.9716 63.9021 87.4966 63.7306 86.9858C63.5303 86.3818 63.4337 85.7484 63.4449 85.1123C63.4243 84.2208 63.6204 83.3376 64.0164 82.5379C64.3981 81.804 64.9602 81.1785 65.6503 80.7198C66.4273 80.2114 67.2896 79.8462 68.1961 79.6416C69.2541 79.3935 70.3381 79.2727 71.4249 79.2818C71.9061 79.2818 72.3939 79.3007 72.8884 79.3385C73.3792 79.3756 73.8677 79.439 74.3518 79.5283C74.8398 79.6182 75.3219 79.7379 75.7952 79.8867C76.2887 80.0437 76.771 80.234 77.2386 80.4562L76.9357 83.7879C76.5741 83.6082 76.1991 83.4563 75.8142 83.3336C75.4216 83.2071 75.0226 83.0934 74.6172 82.9926C74.2117 82.892 73.8129 82.8088 73.4202 82.7458C73.0274 82.6828 72.6601 82.6389 72.3178 82.6136C71.9755 82.5882 71.6662 82.5759 71.3871 82.5759C70.8388 82.5703 70.2912 82.6208 69.7532 82.7268C69.3223 82.8106 68.9061 82.9573 68.5181 83.1622C68.2067 83.3238 67.9446 83.5658 67.7592 83.8629C67.5916 84.1499 67.5061 84.4772 67.5119 84.8092C67.5042 85.1354 67.59 85.4571 67.7592 85.7365C67.9229 86.0013 68.1355 86.2327 68.3857 86.4186C68.658 86.6192 68.9509 86.7905 69.2595 86.9295C69.5803 87.0881 69.9105 87.2271 70.2482 87.3459C70.6017 87.4724 70.9751 87.5861 71.3684 87.6869C71.7617 87.7877 72.1545 87.9076 72.5467 88.0466C72.9394 88.185 73.3258 88.3176 73.7059 88.4443C74.2748 88.6407 74.8275 88.8809 75.3589 89.1628C75.8683 89.4342 76.3301 89.786 76.7264 90.2046C77.1244 90.6293 77.4401 91.1237 77.6577 91.6628ZM94.1189 79.9253L98.4501 79.2825L98.4123 99.083H95.0308L94.4275 96.6232C94.3322 96.7124 94.237 96.802 94.1395 96.8874C93.5421 97.4261 92.8856 97.8958 92.1823 98.2876C91.5049 98.6639 90.784 98.9567 90.0356 99.1596C89.2482 99.3659 88.4368 99.4674 87.6225 99.4614C86.3634 99.4982 85.1152 99.2182 83.9934 98.6474C82.9867 98.0997 82.1915 97.2339 81.733 96.1863C81.225 95.0895 80.9716 93.6824 80.9729 91.9649V79.926L85.3041 79.2831V91.1708C85.2793 92.0168 85.4212 92.8594 85.7219 93.6509C85.9668 94.2829 86.423 94.8113 87.0136 95.147C87.7183 95.5032 88.5032 95.6726 89.2927 95.639C89.771 95.6392 90.2483 95.5949 90.7183 95.5067C91.1822 95.4195 91.6392 95.2993 92.0858 95.147C92.5422 94.99 92.9866 94.8003 93.4156 94.5794C93.6454 94.4611 93.8791 94.333 94.1189 94.1957V79.9253ZM117.875 80.4388C116.516 79.6115 114.945 79.1971 113.353 79.2461C112.391 79.25 111.433 79.3776 110.503 79.6257C109.509 79.8912 108.551 80.2793 107.653 80.7808C107.488 80.8726 107.324 80.9757 107.159 81.0779V79.285L102.828 79.9671V107H107.159V98.4923C107.85 98.7828 108.57 99.0008 109.306 99.1428C110.214 99.3142 111.137 99.3964 112.062 99.3883C113.778 99.4155 115.471 98.9846 116.964 98.1402C118.433 97.2784 119.625 96.0175 120.402 94.5051C121.251 92.9148 121.675 90.9838 121.675 88.7123C121.709 87.0153 121.379 85.3306 120.706 83.7712C120.112 82.4072 119.127 81.2477 117.875 80.4388ZM116.506 93.0083C116.066 93.9867 115.32 94.7969 114.379 95.3178C113.324 95.8625 112.147 96.1294 110.959 96.093C110.413 96.0944 109.867 96.0565 109.326 95.9797C108.758 95.8958 108.198 95.7627 107.653 95.582C107.495 95.5304 107.329 95.4751 107.16 95.4159V83.6756L107.198 83.6579C107.729 83.4177 108.23 83.2155 108.699 83.0514C109.138 82.8959 109.589 82.7756 110.048 82.6917C110.461 82.6177 110.881 82.5798 111.301 82.5784C112.44 82.5381 113.571 82.7857 114.588 83.2982C115.474 83.7905 116.169 84.5632 116.563 85.4938C117.046 86.6832 117.273 87.9601 117.23 89.2422C117.268 90.5354 117.021 91.8207 116.506 93.0083ZM138.19 90.2087C138.941 89.9881 139.644 89.6286 140.261 89.1492C140.789 88.7277 141.212 88.1898 141.496 87.5778C141.777 86.9593 141.92 86.2875 141.914 85.6087C141.91 84.8111 141.735 84.0235 141.4 83.2991C141.045 82.5237 140.527 81.8333 139.881 81.2743C139.141 80.6433 138.282 80.1667 137.354 79.8728C136.212 79.5134 135.018 79.3408 133.82 79.3619C131.743 79.3619 129.982 79.7972 128.539 80.6679C127.1 81.5324 125.96 82.8137 125.271 84.3406C124.504 86.0744 124.127 87.9547 124.168 89.849C124.168 91.9453 124.555 93.7122 125.328 95.1498C126.102 96.591 127.321 97.7459 128.805 98.4446C130.35 99.202 132.25 99.5807 134.505 99.5807C135.344 99.586 136.182 99.5287 137.013 99.4095C137.75 99.3022 138.475 99.1249 139.179 98.8799C139.863 98.6409 140.56 98.357 141.269 98.0282L141.535 94.8863C140.549 95.2712 139.54 95.5935 138.513 95.8513C137.363 96.1281 136.182 96.2617 134.999 96.2489C134.05 96.2629 133.104 96.1482 132.187 95.9079C131.409 95.724 130.698 95.3297 130.132 94.7683C129.565 94.207 129.166 93.5006 128.977 92.7271C128.821 92.1851 128.715 91.6299 128.661 91.0686L135.265 90.7206C136.257 90.6663 137.239 90.494 138.19 90.2087ZM128.273 88.2561C128.322 87.3331 128.506 86.4223 128.818 85.552C129.132 84.6333 129.731 83.8376 130.528 83.2798C131.353 82.7666 132.312 82.5098 133.283 82.5424C134.071 82.5099 134.854 82.673 135.563 83.0169C136.097 83.2873 136.544 83.7002 136.856 84.2097C137.121 84.6436 137.265 85.14 137.274 85.6479C137.283 86.0394 137.184 86.426 136.988 86.7653C136.759 87.1114 136.427 87.3765 136.038 87.5227C135.472 87.7377 134.875 87.8592 134.27 87.8824L128.273 88.2561ZM156 79.3755L155.469 83.276C154.981 83.25 154.492 83.2564 154.005 83.295C153.563 83.3285 153.125 83.3979 152.695 83.5026C152.288 83.6049 151.889 83.7317 151.498 83.8822C151.096 84.0387 150.709 84.2285 150.34 84.4498C150.061 84.6172 149.781 84.7978 149.504 84.9781V99.0653H145.171V79.906L149.503 79.2632V82.3054C149.573 82.2247 149.641 82.1431 149.712 82.065C150.238 81.4751 150.831 80.9478 151.478 80.4935C152.107 80.0542 152.808 79.7272 153.549 79.5273C154.349 79.3225 155.181 79.2705 156 79.3755Z" fill="#00B3C7"/>
<path d="M0 99.1827V79.6163H6.47381V99.1827H0ZM15.2815 82.7304L19.0046 99.1827H11.9196L7.47401 79.6163H11.4477C12.3589 79.6046 13.2431 79.9231 13.9344 80.512C14.6268 81.0762 15.1025 81.8595 15.2815 82.7304ZM19.9771 99.1827V79.6163H26.4509V99.1827H19.9771ZM31.3406 87.0571C30.643 87.0639 29.9566 86.8828 29.3544 86.5334C28.7603 86.1929 28.2668 85.7034 27.9235 85.1142C27.5708 84.5169 27.3882 83.836 27.3951 83.1438C27.3872 82.4559 27.5699 81.7791 27.9235 81.1872C28.2705 80.6043 28.7634 80.1202 29.3544 79.7817C29.9567 79.4327 30.643 79.2517 31.3406 79.258C32.034 79.2506 32.7163 79.4318 33.3133 79.7817C33.8984 80.1232 34.3861 80.6069 34.7303 81.1872C35.0835 81.7792 35.2662 82.456 35.2586 83.1438C35.2651 83.8359 35.0826 84.5167 34.7303 85.1142C34.3897 85.7008 33.9014 86.1899 33.3133 86.5334C32.7162 86.8841 32.0335 87.0653 31.3397 87.0571H31.3406ZM36.2589 99.1827V79.6163H42.7332V99.1827H36.2589ZM50.9292 90.3089C50.9474 90.3279 51.0863 90.5529 51.3459 90.9841C51.6056 91.4152 51.9436 91.9664 52.3601 92.6376C52.7768 93.3085 53.2166 94.0204 53.6794 94.7733C54.1422 95.5263 54.5776 96.2383 54.9858 96.9092C55.3924 97.5801 55.8554 98.3379 56.375 99.1827H49.2621C48.8172 98.4662 48.4142 97.8186 48.053 97.2399C47.6918 96.6611 47.3078 96.0364 46.9009 95.3659C46.4931 94.6959 46.0899 94.0437 45.6913 93.4092C45.2928 92.7748 44.9503 92.2191 44.6638 91.742C44.376 91.2646 44.1768 90.9431 44.0659 90.7774C43.7911 90.3663 43.6285 89.8916 43.594 89.3995C43.6216 88.9272 43.7748 88.4707 44.0381 88.0763C44.1493 87.8926 44.353 87.5664 44.6494 87.0979C44.9458 86.6294 45.2931 86.0737 45.6913 85.4307C46.0896 84.7877 46.4928 84.1309 46.9009 83.4603C47.309 82.7897 47.693 82.1604 48.053 81.5725C48.4148 80.9852 48.8178 80.333 49.2621 79.6159H56.375L50.8731 88.5172C50.7029 88.7815 50.6069 89.0861 50.5952 89.3995C50.6136 89.7285 50.7294 90.0449 50.9282 90.3089H50.9292Z" fill="#00B3C7"/>
<path fill-rule="evenodd" clip-rule="evenodd" d="M78.5009 0C59.6501 0 44.2666 15.3289 44.2666 34.1117C44.2666 52.8593 59.6495 68.2247 78.5012 68.2247C97.3151 68.2247 112.736 52.8593 112.736 34.1117C112.735 15.3289 97.3148 0 78.5009 0ZM50.9804 34.1117C50.9804 49.2568 63.4123 61.7912 78.5009 61.7912C93.7361 61.7912 106.022 49.2568 106.021 34.1117C106.021 18.7837 93.7361 6.43314 78.5009 6.43314C63.4123 6.43314 50.9804 18.784 50.9804 34.1117ZM72.451 34.2224C72.4576 34.9137 72.3256 35.5994 72.0626 36.2391C71.7995 36.8788 71.4109 37.4597 70.9194 37.9477C70.4279 38.4357 69.8435 38.8208 69.2005 39.0806C68.5575 39.3403 67.8689 39.4694 67.1752 39.4603C65.7809 39.4603 64.4438 38.9084 63.458 37.9261C62.4721 36.9438 61.9183 35.6115 61.9183 34.2223C61.9183 32.8331 62.4721 31.5007 63.458 30.5184C64.4438 29.5361 65.7809 28.9842 67.1752 28.9842C67.869 28.9751 68.5576 29.1041 69.2007 29.3639C69.8437 29.6236 70.4282 30.0088 70.9197 30.4968C71.4112 30.9848 71.7999 31.5658 72.0629 32.2056C72.326 32.8454 72.4577 33.5311 72.451 34.2224ZM96.3914 31.7965L92.9255 34.5518C92.6667 34.7356 92.6667 34.9191 92.741 35.2136L93.884 39.4413C93.9587 39.6628 93.8475 39.6979 93.6996 39.5872L89.9726 37.1628C89.8771 37.091 89.7607 37.0522 89.6411 37.0522C89.5215 37.0522 89.4051 37.091 89.3096 37.1628L85.5465 39.6264C85.3988 39.7359 85.2877 39.6628 85.362 39.4426L86.505 35.2149C86.5564 35.1037 86.5698 34.9787 86.5432 34.8592C86.5165 34.7396 86.4512 34.6321 86.3574 34.553L82.8533 31.7221C82.7422 31.6127 82.7422 31.4655 82.9267 31.4655L87.3172 31.2817C87.418 31.285 87.5169 31.254 87.5977 31.1939C87.6785 31.1337 87.7363 31.048 87.7618 30.9508L89.4576 26.7231C89.5687 26.4665 89.7164 26.5016 89.7897 26.7231L91.2658 30.8043C91.2976 30.9518 91.383 31.0823 91.5057 31.1706C91.6284 31.2589 91.7796 31.2987 91.9301 31.2824L96.2829 31.4662C96.5407 31.4655 96.5769 31.6494 96.393 31.7965H96.3914Z" fill="#00B3C7"/>
</svg>
