<svg xmlns="http://www.w3.org/2000/svg" viewBox="0 0 120 104"><path fill="#fff" d="M0 43V1.004h13.78V43H0ZM32.528 7.688 40.453 43h-15.08L15.908 1.004h8.459a7.965 7.965 0 0 1 5.293 1.922 8.31 8.31 0 0 1 2.867 4.762ZM42.523 43V1.004h13.78V43h-13.78Zm24.189-26.026a8.213 8.213 0 0 1-4.228-1.124 8.336 8.336 0 0 1-3.046-3.046 8.206 8.206 0 0 1-1.125-4.229 8.056 8.056 0 0 1 1.125-4.2 8.437 8.437 0 0 1 3.046-3.016A8.232 8.232 0 0 1 66.712.235a8.083 8.083 0 0 1 4.199 1.124 8.503 8.503 0 0 1 3.016 3.016 8.075 8.075 0 0 1 1.125 4.2 8.226 8.226 0 0 1-1.125 4.23 8.4 8.4 0 0 1-3.016 3.045 8.059 8.059 0 0 1-4.201 1.124h.002ZM77.18 43V1.004h13.781V43H77.181Zm31.227-19.046c.039.04.334.524.887 1.449.553.925 1.272 2.108 2.159 3.549a1143.28 1143.28 0 0 1 5.589 9.168A854.89 854.89 0 0 0 120 43h-15.141c-.947-1.538-1.804-2.928-2.573-4.17a382.214 382.214 0 0 1-2.453-4.022 351.934 351.934 0 0 0-2.574-4.2 213.445 213.445 0 0 1-2.188-3.578 62.753 62.753 0 0 0-1.272-2.07 6.119 6.119 0 0 1-1.005-2.958 5.744 5.744 0 0 1 .946-2.84c.236-.394.67-1.095 1.3-2.1.632-1.006 1.371-2.198 2.219-3.579.847-1.38 1.706-2.79 2.574-4.229.869-1.439 1.686-2.79 2.453-4.052.77-1.26 1.628-2.66 2.573-4.2H120l-11.711 19.106a3.773 3.773 0 0 0-.592 1.894c.039.706.286 1.385.709 1.952h.002ZM28.508 66.447a10.561 10.561 0 0 0-2.75-2.87 13.208 13.208 0 0 0-3.992-1.892 18.904 18.904 0 0 0-5.323-.68H0V103h6.21V87.917h10.706c2.416.036 4.8-.555 6.92-1.716a12.814 12.814 0 0 0 4.88-4.791 14.118 14.118 0 0 0 1.803-7.275 17.263 17.263 0 0 0-.473-4.081 11.76 11.76 0 0 0-1.538-3.607Zm-5.5 12.746a6.989 6.989 0 0 1-3.342 2.75c-1.67.632-3.449.934-5.234.887H6.21V66.151h9.05a11.264 11.264 0 0 1 5.027.975 6.482 6.482 0 0 1 2.928 2.839 9.51 9.51 0 0 1 .976 4.465 8.744 8.744 0 0 1-1.183 4.763ZM45.838 61.005c-.947.473-1.844.937-2.692 1.39a75.27 75.27 0 0 1-2.483 1.272c-.81.394-1.628.788-2.455 1.183-.828.394-1.676.749-2.544 1.064-.867.317-1.794.632-2.779.946l1.3 5.027a56.397 56.397 0 0 0 3.224-1.064c.946-.346 1.874-.741 2.78-1.183a43.2 43.2 0 0 0 2.661-1.42l.031-.017V103h6.15V61.006h-3.193Z"/></svg>