<svg xmlns="http://www.w3.org/2000/svg" viewBox="0 0 188 62"><path fill="#fff" d="M0 52V10.004h13.78V52H0Zm32.528-35.312L40.453 52h-15.08l-9.464-41.996h8.459a7.965 7.965 0 0 1 5.293 1.922 8.31 8.31 0 0 1 2.867 4.762ZM42.523 52V10.004h13.78V52h-13.78Zm24.189-26.026a8.213 8.213 0 0 1-4.228-1.124 8.336 8.336 0 0 1-3.046-3.046 8.206 8.206 0 0 1-1.125-4.229 8.056 8.056 0 0 1 1.125-4.2 8.437 8.437 0 0 1 3.046-3.016 8.232 8.232 0 0 1 4.228-1.124 8.083 8.083 0 0 1 4.199 1.124 8.504 8.504 0 0 1 3.016 3.017 8.075 8.075 0 0 1 1.125 4.2 8.226 8.226 0 0 1-1.125 4.228 8.4 8.4 0 0 1-3.016 3.046 8.059 8.059 0 0 1-4.201 1.124h.002ZM77.18 52V10.004h13.781V52H77.181Zm31.227-19.046c.039.04.334.524.887 1.449.553.925 1.272 2.108 2.159 3.549a1143.28 1143.28 0 0 1 5.589 9.168A854.89 854.89 0 0 0 120 52h-15.141c-.947-1.538-1.804-2.928-2.573-4.17a382.214 382.214 0 0 1-2.453-4.022 351.934 351.934 0 0 0-2.574-4.2 213.445 213.445 0 0 1-2.188-3.578 62.753 62.753 0 0 0-1.272-2.07 6.119 6.119 0 0 1-1.005-2.958 5.744 5.744 0 0 1 .946-2.84c.236-.394.67-1.095 1.3-2.1.632-1.006 1.371-2.198 2.219-3.579a636.03 636.03 0 0 0 2.574-4.229c.869-1.439 1.686-2.79 2.453-4.052.77-1.26 1.628-2.66 2.573-4.2H120l-11.711 19.106a3.773 3.773 0 0 0-.592 1.894c.039.706.286 1.385.709 1.952h.002ZM169.034 2.408a31.211 31.211 0 0 1 9.888 6.67 31.193 31.193 0 0 1 6.669 9.888 30.326 30.326 0 0 1 2.408 12.062 30.179 30.179 0 0 1-2.408 12.006 31.216 31.216 0 0 1-6.669 9.889 31.221 31.221 0 0 1-9.888 6.67 30.362 30.362 0 0 1-12.063 2.406 30.35 30.35 0 0 1-12.063-2.407 30.878 30.878 0 0 1-9.86-6.67 31.439 31.439 0 0 1-6.639-9.888 30.178 30.178 0 0 1-2.408-12.006 30.308 30.308 0 0 1 2.408-12.062 31.415 31.415 0 0 1 6.639-9.889 30.868 30.868 0 0 1 9.86-6.67A30.337 30.337 0 0 1 156.971.002c4.143-.03 8.249.79 12.063 2.407Zm-2.32 51.53a24.99 24.99 0 0 0 7.945-5.308 24.425 24.425 0 0 0 5.336-7.916 24.604 24.604 0 0 0 1.914-9.686 24.6 24.6 0 0 0-1.914-9.685 24.768 24.768 0 0 0-5.336-7.945 25.18 25.18 0 0 0-7.945-5.366 24.44 24.44 0 0 0-9.743-1.942 24.29 24.29 0 0 0-9.685 1.942 25.19 25.19 0 0 0-13.312 13.31 24.287 24.287 0 0 0-1.942 9.686 24.29 24.29 0 0 0 1.942 9.686 24.838 24.838 0 0 0 5.365 7.916 24.993 24.993 0 0 0 7.947 5.308 24.588 24.588 0 0 0 9.685 1.913 24.74 24.74 0 0 0 9.743-1.913Zm-23.286-19.43a4.561 4.561 0 0 1-1.362-3.305 4.701 4.701 0 0 1 1.362-3.422 4.489 4.489 0 0 1 3.335-1.392 4.747 4.747 0 0 1 3.45 1.392 4.596 4.596 0 0 1 1.422 3.422 4.466 4.466 0 0 1-1.422 3.306 4.738 4.738 0 0 1-3.45 1.392 4.49 4.49 0 0 1-3.335-1.392Zm23.575-10.149c.039-.117.117-.117.233 0l1.392 3.77a.456.456 0 0 0 .464.35l4.117.114c.077 0 .116.03.116.088a.316.316 0 0 1-.116.203l-2.958 2.552a.447.447 0 0 0-.272.226.453.453 0 0 0-.018.354l1.045 3.77c0 .193-.059.29-.175.29l-3.422-2.262c-.224-.08-.47-.08-.695 0l-3.248 2.262c-.155 0-.213-.097-.173-.29l1.044-3.77a.63.63 0 0 0-.29-.58l-3.073-2.552a.453.453 0 0 1-.058-.203c0-.058.018-.088.058-.088l4.117-.115a.489.489 0 0 0 .522-.349l1.39-3.77Z"/></svg>