<svg xmlns="http://www.w3.org/2000/svg" viewBox="0 0 166 34">
  <title>
    NRK P3 Radioresepsjonen
  </title>
      <path id="nrk-radio-p3-radioresepsjonen__p3" d="M33 17.0105851c0 2.3922256-.5276813 4.6592802-1.4676072 6.6977795-.0147891-.0008221-.0291673-.0008221-.0441618-.0014387l.0121188.0199369-.1620632.0988625-.0757939-.1257876c-.087091-.002672-.1745929-.0065771-.2614785-.0080159l.1495336.2474645-.1616524.0984515-.2101277-.3463271c-.085037 0-.1702794 0-.2553164.0012333l.2772946.4593714-.1616525.0980404-.3354237-.5528901c-.0833938.0018499-.1667876.0063716-.2503868.0100713l.3984826.6566853-.1624741.0982459-.4520928-.7465043c-.081956.0047273-.1637065.0121266-.2454571.0187037l.5100166.8412561-.1624741.098657-.559108-.9238813c-.0811343.0078103-.1620633.014593-.2427868.0226089l.6145669 1.0147279-.1622686.0982458-.6599611-1.0897482c-.079902.008838-.1602147.0170594-.2395004.0273362l.7119282 1.1762786-.1624741.098657-.7538305-1.2453386c.0217728-.0026719.0429293-.0059605.0647021-.0094546-.1004423.014182-.2002683.0283639-.3000944.0441901l.8018949 1.3240586-.1624741.0984514-.8411269-1.3892133c-.1172853.019937-.2343653.0417237-.3514452.0641271.0404645-.0069882.0805181-.0143875.1207772-.0215812l.884467 1.460534-.1616525.0982458-.922672-1.5228112c-.119134.0238421-.2370355.0507673-.3551425.0770758.0429293-.0090436.0854478-.0187037.1283772-.0275418l.9612878 1.5871438-.1616524.0984514-.9953849-1.6430493c-.0749722.0168539-.1495336.034941-.2243005.0530281l1.0315359 1.7036823-.1616525.0982459-1.0623464-1.7536274.155285-.0398739c-.1263231.0310359-.25203.0624828-.3775314.0966016l1.0970595 1.8107662-.1624741.0980404-1.1235566-1.8551619c-.0727128.0205536-.1448093.0427514-.2175222.0647437l1.1539563 1.9044903-.1624741.0980403-1.17881-1.9445697c-.071275.0224034-.1427554.0443957-.2142358.0682378l1.2055125 1.9901985-.1624741.0980403-1.2283122-2.028017c-.0706588.0248698-.1413176.049534-.2115655.0746093l1.252139 2.0674798-.1620632.0982459-1.2708308-2.0991322c.0560751-.0211702.1121502-.0421348.1688416-.0626883-.1267339.0454233-.2532624.0920798-.3787639.1403806l1.2934252 2.135512-.1624741.0978348-1.3090358-2.1614094c-.0688102.0273362-.1372095.0554945-.2056088.0838584l1.3273167 2.1914176-.1620633.0984514-1.3431328-2.2175206c-.0875018.0380241-.174182.0789256-.2608623.1181828.0197187-.008838.0394375-.017676.0593616-.026514l1.3568948 2.2397184-.1616525.098657-1.369219-2.2600665c-.0665507.0306248-.132896.0624828-.1994467.0939297l1.3805162 2.2791812-.1620632.099068-1.3893486-2.2945963c.0412861-.0207591.0825722-.0411071.1244745-.0614551-.1080422.0515894-.2154682.1044119-.322278.1586733l1.3996188 2.3112447-.1622687.0980403-1.4049592-2.3200827c-.0647021.0343244-.1296096.0678267-.1943116.1029732l1.4119429 2.3309761-.1622687.0982459-1.4168726-2.3394031c-.063675.0355576-.1259123.0741983-.1891765.1107836l1.4187212 2.3426916-.1624741.0980403-1.4199536-2.3449525c-.0630589.0374075-.1269393.0727595-.1895874.1109891l1.4218023 2.3474189-.1620632.0988625-1.4201591-2.3447469c-.0618264.0384351-.1234474.0770757-.1848631.1169496l1.4176943 2.3414584-.1624741.0982458-1.4137916-2.3342646c-.0610048.0402849-.1207772.0820086-.1813712.1231156l1.4078349 2.3248101-.1624741.0982459-1.4024944-2.3157665c-.0601832.0419292-.1191339.0852971-.1789063.128254l1.3940728 2.3011735-.1620633.0980403-1.3856513-2.286786c-.0591561.043368-.1181069.0869415-.1766469.1313371l1.3747649 2.2697266-.1624741.0984514-1.3632623-2.2510229c-.0581291.0450123-.1156421.0910522-.173155.1370921l1.3492949 2.2273863-.1626795.0988625-1.3363545-2.2074494c-.0571022.0470676-.1123557.0972182-.1686362.1453135l1.3176628 2.1753859-.1620633.0978348-1.3010251-2.1480497c-.0562805.0489174-.1135881.095985-.1692524.1457246l1.2825388 2.1163972-.1620633.0982459-1.2624092-2.0843338c-.055459.0503562-.1109179.1000958-.164939.1514796l1.2396095 2.0465152-.1620633.0988625-1.2168097-2.0097244c-.0540211.052206-.1078367.1040009-.1612416.157029l1.1903126 1.9657398-.1620632.0984514-1.1675129-1.9273047c-.0531995.0542613-.1045504.1095503-.1567228.1650449l1.136497 1.876743-.1616525.0982459-1.1099999-1.8325529c-.0517617.0559056-.1041396.1107835-.1554904.1675112l1.077957 1.7782917-.1624741.0984514-1.0461195-1.7271133c-.05094.0577554-.100853.1165385-.1507661.175116l1.0093523 1.6658638-.1620633.0984515-.9777201-1.6138634c-.0497076.0589886-.0979774.1200326-.1472743.1806656l.9374611 1.5466533-.1624741.0988625-.9017208-1.489309c-.0486807.0614551-.0944856.1257876-.1423446.1882704l.8565321 1.4151107-.162474.0978348-.8170947-1.349956c-.0472428.0635104-.0961288.1249654-.1427554.1890925l.7727276 1.2749356-.1624741.0978348-.7289767-1.2034093c-.0460103.0649491-.0922261.1305149-.1376202.1962862l.679269 1.1211952-.1620633.0984514-.6326424-1.044325c-.0445726.0676212-.0895559.1350367-.1333068.2032745l.5782105.954506-.1616525.0988625-.5293245-.8735251c-.0431347.0694709-.0864748.1391474-.1289933.2094405l.4701683.7773346-.1616524.0986569-.4184067-.6903931c-.0423131.0717318-.0831884.1449024-.1244745.2174563l.3549371.5865979-.1618579.0978348-.2988619-.4926682c-.0408753.0737872-.081956.1475744-.1215989.2228003l.2329275.38394-.1624741.0984514-.1708956-.2819945-.1142043.2341048.0973612.1613452-.1620633.0984514-.0318375-.0680322s-.0396428.0828308-.0579238.122088C7.73990153 32.5883127 1 25.5877796 1 17.0105851 1 8.1680444 8.16303252 1 17.0005135 1 25.8369675 1 33 8.1680444 33 17.0105851zm-7.9195221.0355062v-.3494803c0-2.9062369-2.0989605-5.3303533-4.8613305-5.8390851l2.8257795-1.91247403v-2.9476091h-9.6916838V8.5918294h5.9575883l-3.5765073 2.16777548v3.1365904h3.4064449c1.5434511 0 2.8012474 1.2563409 2.8012474 2.8004157v.3494803c0 1.545738-1.2577963 2.8012473-2.8012474 2.8012473h-6.2459459v3.137422h6.2459459c3.2752598 0 5.9397089-2.6619542 5.9397089-5.9386693zm-6.2268191 8.8521828c-.0476091-.0827443-.0488565-.1328482-.0029106-.2118503l.6424116-1.0503118h-.8908523s-.5351352.8746361-.6079002.9943866c-.0727651.120998-.0706861.1989605.0024948.3228691.0738045.1243243.6054054.9929313.6054054.9929313h.8908523s-.6305613-1.0340956-.639501-1.0480249zm-1.8224532 1.0480249h.8106029v-2.310187h-.8106029v2.310187zm-.5066528-1.4370062c.2525988 0 .456341-.2072765.456341-.4613305 0-.2536383-.2037422-.4592516-.456341-.4592516-.2521829 0-.4569646.2056133-.4569646.4592516 0 .254054.2047817.4613305.4569646.4613305zm-1.3168399 1.4370062h.8099792v-2.310187h-.8099792v2.310187zm-.0511434 0v-.0012474l-.4336799-1.9392931c-.0417879-.2110187-.2266112-.3696465-.4490644-.3696465h-.518711l.5214137 2.310187h.8800416zm-2.2617464 0h.8128898v-2.310187h-.8128898v2.310187zm-.8800415-10.249688c0-1.5430353 1.2546777-2.8004157 2.7985446-2.8004157h.0382537v-3.1365904h-.0382537c-3.2740124 0-5.93638244 2.6625779-5.93638244 5.9370061v10.249688h3.13783784V16.696611z"/>
      <path id="nrk-radio-p3-radioresepsjonen__radioresepsjonen" d="M41.3769531 12.5945313h4.11c1.1400057 0 2.009997.2599974 2.61.78.600003.5200025.9 1.2349954.9 2.1449999 0 1.600008-.7299927 2.7899961-2.19 3.5700001l1.47 4.3049999h-2.805l-1.155-3.6899999c-.2600013.0400002-.5399985.06-.84.06h-.72l-.6 3.6299999h-2.58l1.8-10.7999999zm3.6 2.25h-1.395l-.465 2.835h1.32c.600003 0 1.0599984-.1524985 1.38-.4575.3200016-.3050016.48-.7324973.48-1.2825 0-.7300037-.4399956-1.0950001-1.32-1.095zm9.75 8.5499999l.015-.96c-.6700033.7700039-1.5099949 1.1550001-2.52 1.1550001-.8700043 0-1.5249978-.2674974-1.965-.8025001-.4400022-.5350026-.66-1.297495-.66-2.2874999 0-.8400042.1174988-1.5974967.3525-2.2725001.2350012-.6750033.5449981-1.2224978.93-1.6424999.385002-.4200022.8199976-.7424989 1.305-.9675.4850025-.2250012.9974973-.3375 1.5375-.3375.4400022 0 .8499981.092499 1.23.2775.3800019.1850009.6899988.4474983.93.7874999l.315-.8849999h2.04l-1.335 7.9349999h-2.175zm.12-2.5649999l.465-2.835c-.1200006-.1600009-.2874989-.3024994-.5025-.4275001-.215001-.1250006-.4624986-.1875-.7425-.1875-.2600013 0-.4974989.0574995-.7125.1725-.215001.1150006-.3874993.2624991-.5175.4425001-.1300006.1800008-.2374996.3899988-.3225.6299999-.0850004.2400012-.1449998.4799989-.18.72-.0350001.2400012-.0525.4899987-.0525.75 0 .9400047.3649964 1.41 1.095 1.41.2800014 0 .5499987-.0674993.81-.2025.2600013-.1350006.4799991-.2924991.66-.4724999zm8.955 2.5649999l.015-.96c-.6700033.7700039-1.5099949 1.1550001-2.52 1.1550001-.8700043 0-1.5249978-.2674974-1.965-.8025001-.4400022-.5350026-.66-1.297495-.66-2.2874999 0-.8400042.1149989-1.5974967.345-2.2725001.2300012-.6750033.5399981-1.2224978.93-1.6424999.390002-.4200022.8299976-.7424989 1.32-.9675.4900025-.2250012.9999974-.3375001 1.53-.3375001.800004 0 1.4399976.2899972 1.92.87l.585-3.5549999h2.475l-1.8 10.7999999h-2.175zm.12-2.5649999l.465-2.835c-.1200006-.1600009-.2874989-.3024994-.5025-.4275001-.2150011-.1250006-.4624986-.1875-.7425-.1875-.5600028 0-.9974984.2324977-1.3125.6975-.3150016.4650024-.4725 1.1174958-.4725 1.9575001 0 .9800048.3749963 1.4699999 1.125 1.4699999.5100026 0 .9899978-.2249977 1.44-.6749999zm5.1-7.155c0-.4400022.1599984-.7874988.48-1.0425.3200016-.2550013.7149977-.3825 1.185-.3825.3800019 0 .6849989.0899991.915.2699999.2300012.1800009.345.4349984.345.7650001 0 .4400022-.1549984.7849987-.465 1.035-.3100015.2500012-.7099975.375-1.2.375-.3700018 0-.6724988-.0899991-.9075-.27-.2350012-.180001-.3525-.4299985-.3525-.75zm2.325 1.785l-1.335 7.9349999h-2.475l1.335-7.9349999h2.475zm3.12 3.8999999c-.0500002.3000016-.075.5649989-.075.795 0 .4700024.1099989.8174989.33 1.0425001.2200011.2250011.5249981.3375.915.3375.9600048 0 1.544999-.6899932 1.755-2.07.0400002-.2200012.06-.4699986.06-.75 0-.9200046-.394996-1.38-1.185-1.38-.4600023 0-.8474984.1649983-1.1625.495-.3150016.3300016-.5274994.8399965-.6375 1.5299999zm-2.595.1200001c.0800004-.5800029.222499-1.1074977.4275-1.5825.205001-.4750024.4549985-.8724985.75-1.1925.2950015-.3200017.6374981-.589999 1.0275-.8100001.390002-.220001.789998-.3774995 1.2-.4725.4100021-.0950004.8399978-.1424999 1.29-.1424999 1.0600053 0 1.9024969.297497 2.5275.8924999.6250031.595003.9375 1.4224947.9375 2.4825 0 .2800015-.0199998.5499988-.06.8100001-.0800004.600003-.2249989 1.1349976-.435 1.605-.210001.4700023-.4599985.8599984-.75 1.1699999-.2900014.3100016-.6249981.569999-1.005.78-.3800019.2100011-.7749979.3574996-1.185.4425-.410002.0850005-.8499976.1275001-1.32.1275001-1.1200056 0-1.974997-.2874972-2.565-.8625001-.5900029-.5750028-.885-1.3924947-.885-2.4525 0-.2600012.0149999-.5249986.045-.7949999zm11.865-4.02l.09 1.0649999c.2500013-.3600018.5424983-.6574988.8775-.8924999.3350017-.2350012.6674984-.3525.9975-.3525.2800014 0 .5449988.0599994.795.18l-.57 2.2799999c-.2200011-.0800003-.4799985-.1199999-.78-.1199999-.2200011 0-.4599987.0724992-.72.2174999-.2600013.1450008-.4649992.3074992-.615.4875l-.855 5.07h-2.49l1.335-7.9349999h1.935zm8.88 5.535l.375 1.59c-1.1000055.6700033-2.2399941 1.005-3.42 1.005-1.0600053 0-1.8749971-.2874972-2.445-.8625001-.5700028-.5750028-.855-1.3824948-.855-2.4224999 0-1.4800075.4374957-2.6874954 1.3125-3.6225.8750044-.9350047 2.012493-1.4025 3.4125-1.4025.9500048 0 1.6774975.2424975 2.1825.7275.5050025.4850024.7575 1.0924963.7575 1.8225 0 .610003-.1499985 1.0924982-.45 1.4475-.3000015.3550017-.8099964.629999-1.53.8249999-.7200036.195001-1.7349934.3324997-3.045.4125001 0 .3000014.1149989.5524989.345.7574999.2300012.2050011.5549979.3075001.975.3075001.3600018 0 .7174983-.0449996 1.0725-.135.3550018-.0900005.7924974-.239999 1.3125-.45zm-3.675-2.1150001c.8600043-.0700003 1.3849991-.1199998 1.575-.1499999.6200031-.1100006.9699996-.3299984 1.05-.66.0200001-.0600004.03-.1249997.03-.195 0-.2100011-.0799992-.3799994-.24-.5100001-.1600008-.1300006-.3799986-.195-.66-.195-.4600023 0-.8474984.1599984-1.1625.48-.3150015.3200017-.5124996.7299975-.5925 1.23zm4.995 3.33l1.23-1.4099999c.3100016.2400011.6849978.4499991 1.125.63.4400022.1800008.8099985.2699999 1.11.2699999.3000015 0 .5174993-.0524994.6525-.1574999.1350007-.1050006.2025-.2474991.2025-.4275001 0-.1800008-.0799992-.3224994-.24-.4274999-.1600008-.1050006-.4699977-.2174995-.93-.3375001-.3000015-.0800003-.5624989-.1724994-.7875-.2774999-.2250011-.1050006-.4449989-.2374993-.66-.3975-.2150011-.1600008-.3799994-.3649988-.495-.6150001-.1150005-.2500012-.1725-.5399983-.1725-.8699999 0-.3800019.0649994-.7374984.195-1.0725.1300007-.3350017.3049989-.6124989.525-.8325.2200011-.2200012.4849985-.4049993.795-.555.3100016-.1500008.6399983-.2624997.99-.3375.3500018-.0750004.7149981-.1125 1.095-.1125.6400032 0 1.2224974.1074989 1.7474999.3224999.525003.2150011.967498.5074982 1.3275.8775001l-1.23 1.4249999c-.7800038-.4900024-1.4349972-.735-1.9649999-.735-.5500027 0-.825.1599984-.825.48 0 .1700009.0799992.3024996.24.3975.1600008.0950005.5199972.2374991 1.08.4275.2400012.0800005.4374993.1549997.5925.225.1550008.0700004.332499.1649994.5324999.285.200001.1200007.362499.2549993.4875.4050001.125001.1500007.23.3374988.315.5625.085001.2250011.1275.4774986.1275.7574999 0 .4700024-.099999.8899982-.3 1.26-.200001.3700019-.467498.6699989-.8024999.9000001-.3350016.2300011-.7174978.4074993-1.1475.5325-.4300021.1250006-.8899975.1875-1.38.1875-.7200036 0-1.3874969-.1274988-2.0025-.3825001-.615003-.2550012-1.0924983-.5874979-1.4325-.9975zm14.4449999-1.2149999l.375 1.59c-1.100005.6700033-2.239994 1.005-3.42 1.005-1.060005 0-1.874997-.2874972-2.445-.8625001-.570003-.5750028-.855-1.3824948-.855-2.4224999 0-1.4800075.437496-2.6874954 1.3125-3.6225.875004-.9350047 2.012493-1.4025 3.4125-1.4025.950005 0 1.677498.2424975 2.1825.7275.505003.4850024.7575 1.0924963.7575 1.8225 0 .610003-.149998 1.0924982-.45 1.4475-.300001.3550017-.809996.629999-1.53.8249999-.720003.195001-1.734993.3324997-3.045.4125001 0 .3000014.114999.5524989.345.7574999.230001.2050011.554998.3075001.975.3075001.360002 0 .717498-.0449996 1.0725-.135.355002-.0900005.792498-.239999 1.3125-.45zm-3.675-2.1150001c.860004-.0700003 1.384999-.1199998 1.575-.1499999.620003-.1100006.97-.3299984 1.05-.66.02-.0600004.03-.1249997.03-.195 0-.2100011-.079999-.3799994-.24-.5100001-.160001-.1300006-.379998-.195-.66-.195-.460002 0-.847498.1599984-1.1625.48-.315001.3200017-.512499.7299975-.5925 1.23zm8.565-.78l-.465 2.7750001c.130001.1500007.307499.2924993.5325.4274999.225001.1350007.477499.2025.7575.2025.540003 0 .964999-.2274977 1.275-.6824999.310002-.4550023.465-1.1374955.465-2.0475001 0-.9500047-.339996-1.425-1.02-1.425-.260001 0-.537498.0799993-.8325.2400001-.295001.1600007-.532499.3299991-.7125.5099999zm-1.38 8.295h-2.49l1.83-10.9349999h2.025l.12.915c.800004-.7300037 1.679995-1.095 2.64-1.095.760004 0 1.367498.2624973 1.8225.7874999.455002.5250027.6825 1.2974949.6825 2.3175001 0 1.0200051-.152498 1.9149961-.4575 2.685-.305001.7700038-.767497 1.3799977-1.3875 1.8299999-.620003.4500023-1.354996.675-2.205.675-.810004 0-1.469997-.2799972-1.98-.84l-.6 3.66zm6.87-4.185l1.23-1.4099999c.310002.2400011.684998.4499991 1.125.63.440002.1800008.809999.2699999 1.11.2699999.300002 0 .517499-.0524994.6525-.1574999.135001-.1050006.2025-.2474991.2025-.4275001 0-.1800008-.079999-.3224994-.24-.4274999-.160001-.1050006-.469998-.2174995-.93-.3375001-.300001-.0800003-.562499-.1724994-.7875-.2774999-.225001-.1050006-.444999-.2374993-.66-.3975-.215001-.1600008-.379999-.3649988-.495-.6150001-.115-.2500012-.1725-.5399983-.1725-.8699999 0-.3800019.064999-.7374984.195-1.0725.130001-.3350017.304999-.6124989.525-.8325.220001-.2200012.484999-.4049993.795-.555.310002-.1500008.639998-.2624997.99-.3375.350002-.0750004.714998-.1125 1.095-.1125.640003 0 1.222497.1074989 1.7475.3224999.525003.2150011.967498.5074982 1.3275.8775001l-1.23 1.4249999c-.780004-.4900024-1.434997-.735-1.965-.735-.550003 0-.825.1599984-.825.48 0 .1700009.079999.3024996.24.3975.160001.0950005.519997.2374991 1.08.4275.240001.0800005.437499.1549997.5925.225.155001.0700004.332499.1649994.5325.285.200001.1200007.362499.2549993.4875.4050001.125001.1500007.23.3374988.315.5625.085001.2250011.1275.4774986.1275.7574999 0 .4700024-.099999.8899982-.3 1.26-.200001.3700019-.467498.6699989-.8025.9000001-.335002.2300011-.717498.4074993-1.1475.5325-.430002.1250006-.889997.1875-1.38.1875-.720003 0-1.387497-.1274988-2.0025-.3825001-.615003-.2550012-1.092498-.5874979-1.4325-.9975zm9.285-8.5349999c0-.4400022.159999-.7874988.48-1.0425.320002-.2550013.714998-.3825 1.185-.3825.380002 0 .684999.0899991.915.2699999.230001.1800009.345.4349984.345.7650001 0 .4400022-.154998.7849987-.465 1.035-.310001.2500012-.709997.375-1.2.375-.370002 0-.672499-.0899991-.9075-.27-.235001-.180001-.3525-.4299985-.3525-.75zm2.355 1.785l-1.425 8.4749999c-.140001.8300042-.434998 1.4574979-.885 1.8825-.450002.4250022-1.089996.6375-1.92.6375-.580003 0-1.054998-.0649993-1.425-.195l.435-1.755c.200001.0500003.399999.075.6.075.220001 0 .3875-.0549994.5025-.165.115001-.1100005.1975-.3149984.2475-.6149999l1.41-8.34h2.46zm3.12 3.8999999c-.05.3000016-.075.5649989-.075.795 0 .4700024.109999.8174989.33 1.0425001.220001.2250011.524998.3375.915.3375.960005 0 1.544999-.6899932 1.755-2.07.04-.2200012.06-.4699986.06-.75 0-.9200046-.394996-1.38-1.185-1.38-.460002 0-.847498.1649983-1.1625.495-.315001.3300016-.527499.8399965-.6375 1.5299999zm-2.595.1200001c.080001-.5800029.222499-1.1074977.4275-1.5825.205001-.4750024.454999-.8724985.75-1.1925.295002-.3200017.637498-.589999 1.0275-.8100001.390002-.220001.789998-.3774995 1.2-.4725.410002-.0950004.839998-.1424999 1.29-.1424999 1.060005 0 1.902497.297497 2.5275.8924999.625003.595003.9375 1.4224947.9375 2.4825 0 .2800015-.02.5499988-.06.8100001-.08.600003-.224999 1.1349976-.435 1.605-.210001.4700023-.459998.8599984-.75 1.1699999-.290001.3100016-.624998.569999-1.005.78-.380002.2100011-.774998.3574996-1.185.4425-.410002.0850005-.849998.1275001-1.32.1275001-1.120005 0-1.974997-.2874972-2.565-.8625001-.590003-.5750028-.885-1.3924947-.885-2.4525 0-.2600012.015-.5249986.045-.7949999zm9.93-4.02h2.04l.06.945c.340002-.3200016.742498-.587499 1.2075-.8025001.465002-.215001.952498-.3224999 1.4625-.3224999.650003 0 1.157498.1724982 1.5225.5174999.365002.3450018.5475.8474968.5475 1.5075001 0 .2200011-.02.4399988-.06.66l-.915 5.4299999h-2.475l.765-4.605c.04-.2600013.06-.4349995.06-.5249999 0-.5800029-.264997-.8700001-.795-.8700001-.260001 0-.519999.0674994-.78.2025001-.260001.1350006-.454999.2724993-.585.4125l-.9 5.3849999h-2.49l1.335-7.9349999zm13.905 5.535l.375 1.59c-1.100005.6700033-2.239994 1.005-3.42 1.005-1.060005 0-1.874997-.2874972-2.445-.8625001-.570003-.5750028-.855-1.3824948-.855-2.4224999 0-1.4800075.437496-2.6874954 1.3125-3.6225.875004-.9350047 2.012493-1.4025 3.4125-1.4025.950005 0 1.677498.2424975 2.1825.7275.505003.4850024.7575 1.0924963.7575 1.8225 0 .610003-.149998 1.0924982-.45 1.4475-.300001.3550017-.809996.629999-1.53.8249999-.720003.195001-1.734993.3324997-3.045.4125001 0 .3000014.114999.5524989.345.7574999.230001.2050011.554998.3075001.975.3075001.360002 0 .717498-.0449996 1.0725-.135.355002-.0900005.792498-.239999 1.3125-.45zm-3.675-2.1150001c.860004-.0700003 1.384999-.1199998 1.575-.1499999.620003-.1100006.97-.3299984 1.05-.66.02-.0600004.03-.1249997.03-.195 0-.2100011-.079999-.3799994-.24-.5100001-.160001-.1300006-.379998-.195-.66-.195-.460002 0-.847498.1599984-1.1625.48-.315001.3200017-.512499.7299975-.5925 1.23zm6.525-3.4199999h2.04l.06.945c.340002-.3200016.742498-.587499 1.2075-.8025001.465002-.215001.952498-.3224999 1.4625-.3224999.650003 0 1.157498.1724982 1.5225.5174999.365002.3450018.5475.8474968.5475 1.5075001 0 .2200011-.02.4399988-.06.66l-.915 5.4299999h-2.475l.765-4.605c.04-.2600013.06-.4349995.06-.5249999 0-.5800029-.264997-.8700001-.795-.8700001-.260001 0-.519999.0674994-.78.2025001-.260001.1350006-.454999.2724993-.585.4125l-.9 5.3849999h-2.49l1.335-7.9349999z"/>
</svg>
