<svg xmlns="http://www.w3.org/2000/svg" viewBox="0 0 15 15">
    <path d="M5.12425276 9.58l.35-.39c.2333345.2266678.4933319.34.78.34.200001 0 .36583268-.05499945.4975-.165.13166733-.11000055.1975-.2683323.1975-.475 0-.29666815-.1866648-.44666665-.56-.45-.14333405 0-.2449997.0066666-.305.02l.085-.525c.2466679-.0066667.4566658-.0699994.63-.19s.26-.2766657.26-.47c0-.1133339-.03583297-.19833305-.1075-.255-.07166702-.05666695-.16916605-.085-.2925-.085-.23000115 0-.4816653.0766659-.755.23l-.175-.405c.37666855-.2400012.74999815-.36 1.12-.36.25666795 0 .4616659.06416602.615.1925.1533341.12833397.23.3058322.23.5325 0 .23000115-.07083262.43249912-.2125.6075-.14166737.17500088-.33749875.2991663-.5875.3725v.015c.21666775.02333345.3816661.0983327.495.225.1133339.1266673.17.29166565.17.495 0 .37000185-.133332.66666555-.4.89-.266668.22333445-.58499815.335-.955.335-.46333565 0-.82333205-.16166505-1.08-.485zm3.655-1.355c-.0333335.20333435-.05.3983324-.05.585 0 .24333455.03749963.41999945.1125.53.07500038.11000055.1891659.165.3425.165.4066687 0 .6799993-.4233291.82000004-1.27.0333335-.20333435.05-.3949991.05-.575 0-.47000235-.1516652-.705-.45500004-.705-.41000205 0-.68333265.4233291-.82 1.27zm-.64.015c.0866671-.6200031.26499865-1.08166515.535-1.385.27000135-.30333485.6116646-.455 1.025-.455.32666834 0 .57416584.10833225.74250004.325.1683341.21666775.2525.52666465.2525.93 0 .1933343-.0133332.37833245-.04.555-.1833343 1.23667285-.70166244 1.855-1.55500004 1.855-.67000335 0-1.005-.41832915-1.005-1.255 0-.17000085.01499985-.35999895.045-.57z"/>
    <path fill="none" stroke="currentColor" d="M11.84999998 11.9654385c-1.05289257 1.1425514-2.56192245 1.8583087-4.2381264 1.8583087C4.42967866 13.8237472 1.85 11.2440685 1.85 8.06187356 1.85 4.87967864 4.42967866 2.5 7.61187358 2.5" stroke-linecap="round"/>
    <path d="M7.00000003 1.08242138c0-.5541333.35808296-.73496558.79859502-.40480382L9.8345344 2.20354473c.21878466.1639781.22244933.42707286 0 .59377252L7.798595 4.32301475C7.35754317 4.65353135 7 4.47458692 7 3.91812085le-8-2.83569946z"/>
    <path d="M10 1.09022285c0-.55093437.356812-.73073034.7957605-.40248392l2.0287129 1.5170749c.21800814.16302682.2216598.4246027 0 .59034475l-2.0287129 1.51693317C10.3562741 4.64070968 10 4.46280587 10 3.90955223V1.09022285z"/>
</svg>
