<svg xmlns="http://www.w3.org/2000/svg" viewBox="0 0 83 34">
  <title>
    NRK P2
  </title>
      <path id="nrk-radio-p2__nrk" d="M42.2742596 17.74557357c-.3356098-.56857166-.3548444-.91815595-.0311732-1.46706074L46.6898059 9h-6.168986s-3.7062998 6.0560727-4.2130308 6.89754993c-.5018671.84037234-.4802006 1.3636439.0205611 2.22721877C36.8350812 18.9872386 40.5208199 25 40.5208199 25h6.168986s-4.3669072-7.1647101-4.4155463-7.25442643  M29.6477692 25h5.6102996V9h-5.6102996z  M26.1274035 8.69c-1.746365 0-3.1597731 1.42667336-3.1597731 3.1880722 0 1.7602934 1.4134081 3.1913885 3.1597731 3.1913885 1.749239 0 3.1686165-1.4310951 3.1686165-3.1913885 0-1.76139884-1.4193775-3.1880722-3.1686165-3.1880722  M17.004034 25h5.6069833V9H17.004034z  M1 25h5.59659222V9H1z  M13.648378 11.5706157C13.3611862 10.10443885 12.0786614 9 10.54144467 9h-3.6045998l3.62206566 16h6.09293217L13.648378 11.5706157z"/>
      <path id="nrk-radio-p2__p2" d="M66.0021459 1C74.8369099 1 82 8.16284996 82 16.9994635 82 25.8350042 74.8369099 33 66.0021459 33 57.1620172 33 50 25.8350042 50 16.9994635 50 8.16284996 57.1620172 1 66.0021459 1zm8.8572962 16.8545851c1.5364806-1.6276278 2.2145922-2.3947695 2.2145922-4.0738978 0-2.9205029-2.1984978-4.88181052-5.1233905-4.88181052h-4.9635193c1.1190987.70383906 1.998927 1.90658842 2.4560085 3.37542332h2.2178112c.6813305 0 1.5214592.5235876 1.5214592 1.4570327 0 .6598491-.1469957.9087678-.637339 1.4259178-.6598713.6931098-1.3175966 1.4130428-3.2092275 3.4837888s-2.638412 3.164057-2.638412 5.6328583v.8304443h10.0225322v-3.4794971h-5.3991416l3.5386266-3.7702598zM62.3487124 8.82269908h-6.4377682V25.2009053h4.0236052V12.2785918h2.0729613c1.6158799 0 2.3433477.8658508 2.3433477 2.2316848 0 1.3872926-.7972103 2.229539-2.4356223 2.229539h-.7360516v3.2756412h.9645923c4.1641631 0 6.1877683-2.1608717 6.1877683-5.6875775 0-3.4569656-2.2060086-5.50518022-5.9828327-5.50518022z"/>
</svg>
