<svg xmlns="http://www.w3.org/2000/svg" viewBox="0 0 15 15">
    <path fill="none" stroke="currentColor" stroke-linecap="round" d="M3.153 11.965c1.053 1.143 2.562 1.86 4.238 1.86 3.183 0 5.763-2.58 5.763-5.763 0-3.182-2.47-5.562-5.653-5.562"/>
    <path d="M5 1.082c0-.554-.358-.735-.8-.404L2.166 2.204c-.218.164-.222.427 0 .593L4.2 4.323c.442.33.8.152.8-.405V1.082z"/>
    <path d="M8 1.09c0-.55-.357-.73-.796-.402L5.176 2.205c-.218.163-.222.424 0 .59l2.028 1.517c.44.33.796.15.796-.402V1.09z"/>
    <path d="M4.12425276 9.58l.35-.39c.2333345.2266678.4933319.34.78.34.200001 0 .36583268-.05499945.4975-.165.13166733-.11000055.1975-.2683323.1975-.475 0-.29666815-.1866648-.44666665-.56-.45-.14333405 0-.2449997.0066666-.305.02l.085-.525c.2466679-.0066667.4566658-.0699994.63-.19s.26-.2766657.26-.47c0-.1133339-.03583297-.19833305-.1075-.255-.07166702-.05666695-.16916605-.085-.2925-.085-.23000115 0-.4816653.0766659-.755.23l-.175-.405c.37666855-.2400012.74999815-.36 1.12-.36.25666795 0 .4616659.06416602.615.1925.1533341.12833397.23.3058322.23.5325 0 .23000115-.07083262.43249912-.2125.6075-.14166737.17500088-.33749875.2991663-.5875.3725v.015c.21666775.02333345.3816661.0983327.495.225.1133339.1266673.17.29166565.17.495 0 .37000185-.133332.66666555-.4.89-.266668.22333445-.58499815.335-.955.335-.46333565 0-.82333205-.16166505-1.08-.485zm3.655-1.355c-.0333335.20333435-.05.3983324-.05.585 0 .24333455.03749963.41999945.1125.53.07500038.11000055.1891659.165.3425.165.4066687 0 .6799993-.4233291.82-1.27.0333335-.20333435.05-.3949991.05-.575 0-.47000235-.15166515-.705-.455-.705-.41000205 0-.68333265.4233291-.82 1.27zm-.64.015c.0866671-.6200031.26499865-1.08166515.535-1.385.27000135-.30333485.6116646-.455 1.025-.455.3266683 0 .57416583.10833225.7425.325.16833418.21666775.2525.52666465.2525.93 0 .1933343-.0133332.37833245-.04.555-.18333425 1.23667285-.7016624 1.855-1.555 1.855-.67000335 0-1.005-.41832915-1.005-1.255 0-.17000085.01499985-.35999895.045-.57z"/>
</svg>
