<svg xmlns="http://www.w3.org/2000/svg" viewBox="0 0 15 15">
    <path fill="none" stroke="currentColor" d="M11.84999998 11.9654385c-1.05289257 1.1425514-2.56192245 1.8583087-4.2381264 1.8583087C4.42967866 13.8237472 1.85 11.2440685 1.85 8.06187356 1.85 4.87967864 4.42967866 2.5 7.61187358 2.5" stroke-linecap="round"/>
    <path d="M6.38675276 9.5l.375-2.24c-.26333465.133334-.53333195.2166665-.81.25l-.01-.44c.18333425-.0466669.37666565-.12583277.58-.2375.20333435-.11166723.37666595-.23916595.52-.3825h.49l-.51 3.05h.63l-.085.5h-1.985l.085-.5h.72zm1.745-.8l.545-2.25h1.80000004l-.13.56H9.07175276l-.245.945c.18333425-.1466674.40666535-.22.67-.22.25000125 0 .44333265.07499925.58000004.225.1366673.15000075.205.36333195.205.64 0 .4600023-.1391653.81916538-.41750004 1.0775-.27833472.25833463-.617498.3875-1.0175.3875-.1866676 0-.37083242-.0324997-.5525-.0975-.18166757-.06500033-.3358327-.15916605-.4625-.2825l.28-.42c.27666805.17000085.5283322.255.755.255.22333445 0 .4116659-.0699993.565-.21.1533341-.1400007.23-.34499865.23-.615 0-.31000155-.14499855-.465-.435-.465-.19000095 0-.3616659.0699993-.515.21l-.065.26h-.515zM7.00000003 1.08242138c0-.5541333.35808296-.73496558.79859502-.40480382L9.8345344 2.20354473c.21878466.1639781.22244933.42707286 0 .59377252L7.798595 4.32301475C7.35754317 4.65353135 7 4.47458692 7 3.91812085le-8-2.83569946z"/>
    <path d="M10 1.09022285c0-.55093437.356812-.73073034.7957605-.40248392l2.0287129 1.5170749c.21800814.16302682.2216598.4246027 0 .59034475l-2.0287129 1.51693317C10.3562741 4.64070968 10 4.46280587 10 3.90955223V1.09022285z"/>
</svg>
