<svg xmlns="http://www.w3.org/2000/svg" viewBox="0 0 83 34">
  <title>
    NRK P13
  </title>
      <path id="nrk-radio-p13__nrk" d="M42.2742596 17.74557357c-.3356098-.56857166-.3548444-.91815595-.0311732-1.46706074L46.6898059 9h-6.168986s-3.7062998 6.0560727-4.2130308 6.89754993c-.5018671.84037234-.4802006 1.3636439.0205611 2.22721877C36.8350812 18.9872386 40.5208199 25 40.5208199 25h6.168986s-4.3669072-7.1647101-4.4155463-7.25442643  M29.6477692 25h5.6102996V9h-5.6102996z  M26.1274035 8.69c-1.746365 0-3.1597731 1.42667336-3.1597731 3.1880722 0 1.7602934 1.4134081 3.1913885 3.1597731 3.1913885 1.749239 0 3.1686165-1.4310951 3.1686165-3.1913885 0-1.76139884-1.4193775-3.1880722-3.1686165-3.1880722  M17.004034 25h5.6069833V9H17.004034z  M1 25h5.59659222V9H1z  M13.648378 11.5706157C13.3611862 10.10443885 12.0786614 9 10.54144467 9h-3.6045998l3.62206566 16h6.09293217L13.648378 11.5706157z"/>
      <path id="nrk-radio-p13__p13" d="M66.000728 1C74.8367988 1 82 8.16384772 82 17.000546 82 25.8354243 74.8367988 33 66.000728 33 57.1617453 33 50 25.8354243 50 17.000546 50 8.16384772 57.1617453 1 66.000728 1zm9.8264707 13.6288545l2.3229446-3.3555285h-8.1244824v2.4262884h3.4480185l-1.685609 2.4794295-.3880067.5736319h2.4095728c.9794804 0 1.7729651.7927477 1.7729651 1.771853 0 .9787413-.7934847 1.7736729-1.7729651 1.7736729h-3.7839756v2.4306562h4.1177487c2.3298603 0 4.226216-1.8952421 4.226216-4.2258039 0-1.7318152-1.0475454-3.2230399-2.5424269-3.8741995zm-9.9236544 8.1000034h2.7968515v-11.454804h-4.4679011v2.4273804h1.6710496v9.0274236zm-6.8505392-11.4420647h-4.4973838v11.4420647h2.8106829v-9.0256037h1.4471996c1.1305337 0 1.6379271.6034783 1.6379271 1.5596529 0 .9685498-.5590791 1.557105-1.7008963 1.557105h-.5143091v2.2890681h.674098c2.9042268 0 4.3233996-1.5101517 4.3233996-3.974658 0-2.4179169-1.5425634-3.847629-4.180718-3.847629z"/>
</svg>
