<svg xmlns="http://www.w3.org/2000/svg" viewBox="0 0 150 18">
  <title>
NRK Klassisk
  </title>
        <path id="nrk-radio-klassisk__nrk" d="M42.2742596 9.74557357c-.3356098-.56857166-.3548444-.91815595-.0311732-1.46706074L46.6898059 1h-6.168986s-3.7062998 6.0560727-4.2130308 6.89754993c-.5018671.84037234-.4802006 1.3636439.0205611 2.22721877C36.8350812 10.9872386 40.5208199 17 40.5208199 17h6.168986s-4.3669072-7.1647101-4.4155463-7.25442643  M29.6477692 17h5.6102996V1h-5.6102996z  M26.1274035.69c-1.746365 0-3.1597731 1.42667336-3.1597731 3.1880722 0 1.7602934 1.4134081 3.1913885 3.1597731 3.1913885 1.749239 0 3.1686165-1.4310951 3.1686165-3.1913885C29.29602 2.11667336 27.8766425.69 26.1274035.69  M17.004034 17h5.6069833V1H17.004034z  M1 17h5.59659222V1H1z  M13.648378 3.5706157C13.3611862 2.10443885 12.0786614 1 10.54144467 1h-3.6045998l3.62206566 16h6.09293217L13.648378 3.5706157z"/>
        <path id="nrk-radio-klassisk__klassisk" d="M136.858587 1h1.6953372v7.0003428h3.0816285L145.7305798 1h1.8929907l-4.5127485 7.66678094L148.4155429 17h-1.9364609l-4.8435293-7.5323963h-3.0816285V17h-1.6953372V1  M123.9703569 13.703605c1.4297615 1.2762574 2.9274451 2.0240804 4.600368 2.0240804 1.9819687 0 3.4782939-1.0344545 3.4782939-2.9274452 0-1.6729228-.7702373-2.421425-3.6759474-3.3023755-3.457238-1.05686882-4.8217943-2.11305844-4.8217943-4.468599 0-2.7304709 2.1796222-4.24988966 5.0635972-4.24988966 2.0254388 0 3.7425111.74918144 5.0635971 2.26792098l-.9909843 1.03445452c-1.1451676-1.29867173-2.6639072-1.84884124-4.0501985-1.84884124-1.8719348 0-3.3030547.88027122-3.3030547 2.66390718 0 1.82778537 1.3659146 2.28965607 4.0739712 3.2140767 3.2351326 1.10101823 4.4027146 2.17962212 4.4027146 4.53380432 0 2.7963554-2.1144169 4.5358419-5.283665 4.5358419-2.2461859 0-4.2057403-.96857-5.5268263-2.3772756l.9699285-1.0996598  M118.3362136 17h1.6953371V1h-1.6953371z  M105.0581102 13.703605c1.4317991 1.2762574 2.9294828 2.0240804 4.6024056 2.0240804 1.9806103 0 3.4782939-1.0344545 3.4782939-2.9274452 0-1.6729228-.7709165-2.421425-3.6773058-3.3023755-3.4558796-1.05686882-4.821115-2.11305844-4.821115-4.468599 0-2.7304709 2.1796221-4.24988966 5.0635971-4.24988966 2.0254389 0 3.7425111.74918144 5.0635972 2.26792098l-.9909844 1.03445452c-1.1444884-1.29867173-2.6639071-1.84884124-4.0515569-1.84884124-1.8705763 0-3.3016963.88027122-3.3016963 2.66390718 0 1.82778537 1.3652355 2.28965607 4.0726128 3.2140767 3.2371703 1.10101823 4.4027146 2.17962212 4.4027146 4.53380432 0 2.7963554-2.1130585 4.5358419-5.2823066 4.5358419-2.2461859 0-4.205061-.96857-5.5268263-2.3772756l.9685701-1.0996598  M92.3913062 13.703605c1.4304408 1.2762574 2.9274452 2.0240804 4.600368 2.0240804 1.9812895 0 3.4782939-1.0344545 3.4782939-2.9274452 0-1.6729228-.7702373-2.421425-3.6766266-3.3023755-3.4558796-1.05686882-4.8204358-2.11305844-4.8204358-4.468599 0-2.7304709 2.178943-4.24988966 5.0629179-4.24988966 2.0254389 0 3.7418319.74918144 5.0635972 2.26792098l-.9903051 1.03445452C99.9632688 2.7830798 98.4445293 2.2329103 97.058238 2.2329103c-1.8719348 0-3.3023755.88027122-3.3023755 2.66390718 0 1.82778537 1.3645562 2.28965607 4.0726128 3.2140767 3.2358118 1.10101823 4.4027145 2.17962212 4.4027145 4.53380432 0 2.7963554-2.1130585 4.5358419-5.283665 4.5358419-2.2455066 0-4.205061-.96857-5.5254678-2.3772756l.9692492-1.0996598  M86.3319702 10.8669866l-2.7073774-7.9334933-2.7080566 7.9334933h5.415434zM84.5041848 1l5.7903643 16h-1.8046918l-1.6729229-4.5773055H80.431572L78.8027986 17h-1.8277854l5.7455356-16h1.783636z  M68.5119118 1v14.4669181h7.3960442V17h-9.0913813V1h1.6953371  M53.1519942 1h1.69533715v7.0003428h3.0823077L62.02398695 1h1.89366985l-4.51342762 7.66678094L64.7096292 17h-1.93714002l-4.84285013-7.5323963h-3.0823077V17H53.1519942V1"/>
</svg>
