<svg xmlns="http://www.w3.org/2000/svg" style="width:3.2em;height:3.2em" viewBox="0 0 32 32">
  <path fill="currentColor" d="M0 0h32v32H0V0zm7.602 6.975v5.99h2.094v-5.99H7.602zm5.972 0v5.99h2.094v-5.99h-2.094zm4.718 0v5.99h2.094v-5.99h-2.094zM16.978 9.24c.652 0 1.183-.535 1.183-1.197 0-.658-.53-1.192-1.182-1.192-.652 0-1.18.535-1.18 1.193 0 .662.528 1.196 1.18 1.196zm5.374 3.726h2.302s-1.63-2.682-1.65-2.717c-.124-.215-.13-.343-.01-.55l1.66-2.728h-2.302s-1.384 2.27-1.573 2.583c-.19.317-.18.512.006.835.188.326 1.566 2.576 1.566 2.576zm-8.91 0v-.003l-1.118-5.025c-.11-.55-.585-.963-1.16-.963H9.816l1.353 5.994h2.273v-.004zm4.61 1.65H14.76s1.87 3.07 1.892 3.11c.144.243.154.393.013.627l-1.902 3.12h3.293s1.588-2.596 1.803-2.957c.213-.36.203-.585-.01-.956-.234-.396-.238-.396-1.798-2.944zm10.31 1.768c-.112-.19-1.09-1.768-1.09-1.768h-7.046l1.538 2.583h3.71l-1.53 2.508 1.707 2.868-1.645 2.708h3.008c.483-.79 1.205-2.014 1.36-2.267.216-.36.206-.585-.01-.96-.15-.255-.957-1.534-1.44-2.32 0 0 1.295-2.145 1.445-2.398.218-.362.208-.586-.006-.956zm-6.777 3.708c-.464.758-1.24 2.027-1.384 2.273-.207.358-.217.575-.01.92.145.243.928 1.522 1.395 2.283.467-.76 1.247-2.043 1.394-2.282.206-.35.197-.566-.01-.92-.148-.247-.922-1.516-1.385-2.274zm-9.364-5.476c-.3 0-.596.07-.96.294-.244.15-2.216 1.825-2.366 1.953-.15-.128-2.126-1.803-2.366-1.953-.365-.22-.662-.294-.962-.294H3.47v9.398l2.91-2.19v-3.772l2.514 1.89 2.512-1.89v7.232h2.932V14.616H12.22z"/>
</svg>
