<svg xmlns="http://www.w3.org/2000/svg" viewBox="0 0 174 34">
  <title>
NRK P3 National Rap Show  </title>
      <path id="nrk-radio-p3-national-rap-show__p3" d="M33 17.0105851c0 2.3922256-.5276813 4.6592802-1.4676072 6.6977795-.0147891-.0008221-.0291673-.0008221-.0441618-.0014387l.0121188.0199369-.1620632.0988625-.0757939-.1257876c-.087091-.002672-.1745929-.0065771-.2614785-.0080159l.1495336.2474645-.1616524.0984515-.2101277-.3463271c-.085037 0-.1702794 0-.2553164.0012333l.2772946.4593714-.1616525.0980404-.3354237-.5528901c-.0833938.0018499-.1667876.0063716-.2503868.0100713l.3984826.6566853-.1624741.0982459-.4520928-.7465043c-.081956.0047273-.1637065.0121266-.2454571.0187037l.5100166.8412561-.1624741.098657-.559108-.9238813c-.0811343.0078103-.1620633.014593-.2427868.0226089l.6145669 1.0147279-.1622686.0982458-.6599611-1.0897482c-.079902.008838-.1602147.0170594-.2395004.0273362l.7119282 1.1762786-.1624741.098657-.7538305-1.2453386c.0217728-.0026719.0429293-.0059605.0647021-.0094546-.1004423.014182-.2002683.0283639-.3000944.0441901l.8018949 1.3240586-.1624741.0984514-.8411269-1.3892133c-.1172853.019937-.2343653.0417237-.3514452.0641271.0404645-.0069882.0805181-.0143875.1207772-.0215812l.884467 1.460534-.1616525.0982458-.922672-1.5228112c-.119134.0238421-.2370355.0507673-.3551425.0770758.0429293-.0090436.0854478-.0187037.1283772-.0275418l.9612878 1.5871438-.1616524.0984514-.9953849-1.6430493c-.0749722.0168539-.1495336.034941-.2243005.0530281l1.0315359 1.7036823-.1616525.0982459-1.0623464-1.7536274.155285-.0398739c-.1263231.0310359-.25203.0624828-.3775314.0966016l1.0970595 1.8107662-.1624741.0980404-1.1235566-1.8551619c-.0727128.0205536-.1448093.0427514-.2175222.0647437l1.1539563 1.9044903-.1624741.0980403-1.17881-1.9445697c-.071275.0224034-.1427554.0443957-.2142358.0682378l1.2055125 1.9901985-.1624741.0980403-1.2283122-2.028017c-.0706588.0248698-.1413176.049534-.2115655.0746093l1.252139 2.0674798-.1620632.0982459-1.2708308-2.0991322c.0560751-.0211702.1121502-.0421348.1688416-.0626883-.1267339.0454233-.2532624.0920798-.3787639.1403806l1.2934252 2.135512-.1624741.0978348-1.3090358-2.1614094c-.0688102.0273362-.1372095.0554945-.2056088.0838584l1.3273167 2.1914176-.1620633.0984514-1.3431328-2.2175206c-.0875018.0380241-.174182.0789256-.2608623.1181828.0197187-.008838.0394375-.017676.0593616-.026514l1.3568948 2.2397184-.1616525.098657-1.369219-2.2600665c-.0665507.0306248-.132896.0624828-.1994467.0939297l1.3805162 2.2791812-.1620632.099068-1.3893486-2.2945963c.0412861-.0207591.0825722-.0411071.1244745-.0614551-.1080422.0515894-.2154682.1044119-.322278.1586733l1.3996188 2.3112447-.1622687.0980403-1.4049592-2.3200827c-.0647021.0343244-.1296096.0678267-.1943116.1029732l1.4119429 2.3309761-.1622687.0982459-1.4168726-2.3394031c-.063675.0355576-.1259123.0741983-.1891765.1107836l1.4187212 2.3426916-.1624741.0980403-1.4199536-2.3449525c-.0630589.0374075-.1269393.0727595-.1895874.1109891l1.4218023 2.3474189-.1620632.0988625-1.4201591-2.3447469c-.0618264.0384351-.1234474.0770757-.1848631.1169496l1.4176943 2.3414584-.1624741.0982458-1.4137916-2.3342646c-.0610048.0402849-.1207772.0820086-.1813712.1231156l1.4078349 2.3248101-.1624741.0982459-1.4024944-2.3157665c-.0601832.0419292-.1191339.0852971-.1789063.128254l1.3940728 2.3011735-.1620633.0980403-1.3856513-2.286786c-.0591561.043368-.1181069.0869415-.1766469.1313371l1.3747649 2.2697266-.1624741.0984514-1.3632623-2.2510229c-.0581291.0450123-.1156421.0910522-.173155.1370921l1.3492949 2.2273863-.1626795.0988625-1.3363545-2.2074494c-.0571022.0470676-.1123557.0972182-.1686362.1453135l1.3176628 2.1753859-.1620633.0978348-1.3010251-2.1480497c-.0562805.0489174-.1135881.095985-.1692524.1457246l1.2825388 2.1163972-.1620633.0982459-1.2624092-2.0843338c-.055459.0503562-.1109179.1000958-.164939.1514796l1.2396095 2.0465152-.1620633.0988625-1.2168097-2.0097244c-.0540211.052206-.1078367.1040009-.1612416.157029l1.1903126 1.9657398-.1620632.0984514-1.1675129-1.9273047c-.0531995.0542613-.1045504.1095503-.1567228.1650449l1.136497 1.876743-.1616525.0982459-1.1099999-1.8325529c-.0517617.0559056-.1041396.1107835-.1554904.1675112l1.077957 1.7782917-.1624741.0984514-1.0461195-1.7271133c-.05094.0577554-.100853.1165385-.1507661.175116l1.0093523 1.6658638-.1620633.0984515-.9777201-1.6138634c-.0497076.0589886-.0979774.1200326-.1472743.1806656l.9374611 1.5466533-.1624741.0988625-.9017208-1.489309c-.0486807.0614551-.0944856.1257876-.1423446.1882704l.8565321 1.4151107-.162474.0978348-.8170947-1.349956c-.0472428.0635104-.0961288.1249654-.1427554.1890925l.7727276 1.2749356-.1624741.0978348-.7289767-1.2034093c-.0460103.0649491-.0922261.1305149-.1376202.1962862l.679269 1.1211952-.1620633.0984514-.6326424-1.044325c-.0445726.0676212-.0895559.1350367-.1333068.2032745l.5782105.954506-.1616525.0988625-.5293245-.8735251c-.0431347.0694709-.0864748.1391474-.1289933.2094405l.4701683.7773346-.1616524.0986569-.4184067-.6903931c-.0423131.0717318-.0831884.1449024-.1244745.2174563l.3549371.5865979-.1618579.0978348-.2988619-.4926682c-.0408753.0737872-.081956.1475744-.1215989.2228003l.2329275.38394-.1624741.0984514-.1708956-.2819945-.1142043.2341048.0973612.1613452-.1620633.0984514-.0318375-.0680322s-.0396428.0828308-.0579238.122088C7.73990153 32.5883127 1 25.5877796 1 17.0105851 1 8.1680444 8.16303252 1 17.0005135 1 25.8369675 1 33 8.1680444 33 17.0105851zm-7.9195221.0355062v-.3494803c0-2.9062369-2.0989605-5.3303533-4.8613305-5.8390851l2.8257795-1.91247403v-2.9476091h-9.6916838V8.5918294h5.9575883l-3.5765073 2.16777548v3.1365904h3.4064449c1.5434511 0 2.8012474 1.2563409 2.8012474 2.8004157v.3494803c0 1.545738-1.2577963 2.8012473-2.8012474 2.8012473h-6.2459459v3.137422h6.2459459c3.2752598 0 5.9397089-2.6619542 5.9397089-5.9386693zm-6.2268191 8.8521828c-.0476091-.0827443-.0488565-.1328482-.0029106-.2118503l.6424116-1.0503118h-.8908523s-.5351352.8746361-.6079002.9943866c-.0727651.120998-.0706861.1989605.0024948.3228691.0738045.1243243.6054054.9929313.6054054.9929313h.8908523s-.6305613-1.0340956-.639501-1.0480249zm-1.8224532 1.0480249h.8106029v-2.310187h-.8106029v2.310187zm-.5066528-1.4370062c.2525988 0 .456341-.2072765.456341-.4613305 0-.2536383-.2037422-.4592516-.456341-.4592516-.2521829 0-.4569646.2056133-.4569646.4592516 0 .254054.2047817.4613305.4569646.4613305zm-1.3168399 1.4370062h.8099792v-2.310187h-.8099792v2.310187zm-.0511434 0v-.0012474l-.4336799-1.9392931c-.0417879-.2110187-.2266112-.3696465-.4490644-.3696465h-.518711l.5214137 2.310187h.8800416zm-2.2617464 0h.8128898v-2.310187h-.8128898v2.310187zm-.8800415-10.249688c0-1.5430353 1.2546777-2.8004157 2.7985446-2.8004157h.0382537v-3.1365904h-.0382537c-3.2740124 0-5.93638244 2.6625779-5.93638244 5.9370061v10.249688h3.13783784V16.696611z"/>
      <path id="nrk-radio-p3-national-rap-show__national-rap-show" d="M39.5769531 23.3945312l1.8-10.7999999h2.25l3.045 6.42 1.035-6.42h2.55l-1.8 10.7999999h-2.235l-3.075-6.3-1.035 6.3h-2.535zm15.93 0l.015-.96c-.6700033.7700039-1.5099949 1.1550001-2.52 1.1550001-.8700043 0-1.5249978-.2674974-1.965-.8025001-.4400022-.5350026-.66-1.297495-.66-2.2874999 0-.8400042.1174988-1.5974967.3525-2.2725001.2350012-.6750033.5449981-1.2224978.93-1.6424999.3850019-.4200022.8199976-.7424989 1.305-.9675.4850024-.2250012.9974973-.3375 1.5375-.3375.4400022 0 .8499981.092499 1.23.2775.3800019.1850009.6899988.4474983.93.7874999l.315-.8849999h2.04l-1.335 7.9349999h-2.175zm.12-2.5649999l.465-2.835c-.1200006-.1600009-.2874989-.3024994-.5025-.4275001-.215001-.1250006-.4624986-.1875-.7425-.1875-.2600013 0-.4974989.0574995-.7125.1725-.215001.1150006-.3874993.2624992-.5175.4425001-.1300006.1800009-.2374996.3899988-.3225.63-.0850004.2400011-.1449998.4799988-.18.7199999-.0350001.2400013-.0525.4899988-.0525.75 0 .9400047.3649964 1.41 1.095 1.41.2800014 0 .5499987-.0674993.81-.2025.2600013-.1350006.4799991-.2924991.66-.4724999zm8.745-3.525h-1.26l-.645 3.8099999c-.01.0400003-.015.0999997-.015.18 0 .1400008.0349997.2374998.105.2925001.0700004.0550002.1799993.0824999.33.0824999.1800009 0 .3949988-.0349996.645-.1049999l-.075 1.71c-.6400032.210001-1.2699969.315-1.89.315-1.1300056 0-1.695-.4949951-1.695-1.485 0-.1600008.0149999-.3299992.045-.51l.72-4.29h-1.05l.24-1.44 1.155-.39.63-2.37h2.205l-.39 2.355h1.26l-.315 1.845zm1.545-3.63c0-.4400022.1599984-.7874988.48-1.0425.3200016-.2550013.7149977-.3825 1.185-.3825.3800019 0 .6849989.0899991.915.2699999.2300012.1800009.345.4349984.345.7650001 0 .4400022-.1549984.7849987-.465 1.035-.3100015.2500012-.7099975.375-1.2.375-.3700018 0-.6724988-.0899991-.9075-.27-.2350011-.180001-.3525-.4299985-.3525-.75zm2.325 1.785l-1.335 7.9349999h-2.475l1.335-7.9349999h2.475zm3.12 3.8999999c-.0500002.3000016-.075.5649989-.075.795 0 .4700024.1099989.8174989.33 1.0425001.2200011.2250011.5249981.3375.915.3375.9600048 0 1.544999-.6899932 1.755-2.07.0400002-.2200012.06-.4699986.06-.75 0-.9200046-.394996-1.38-1.185-1.38-.4600023 0-.8474984.1649983-1.1625.495-.3150015.3300016-.5274994.8399965-.6375 1.5299999zm-2.595.1200001c.0800004-.5800029.222499-1.1074977.4275-1.5825.205001-.4750024.4549986-.8724985.75-1.1925.2950015-.3200017.6374981-.589999 1.0275-.8100001.390002-.220001.789998-.3774995 1.2-.4725.4100021-.0950004.8399978-.1424999 1.29-.1424999 1.0600053 0 1.9024969.297497 2.5275.8924999.6250031.595003.9375 1.4224947.9375 2.4825 0 .2800015-.0199998.5499988-.06.8100001-.0800004.600003-.2249989 1.1349976-.435 1.605-.210001.4700023-.4599985.8599984-.75 1.1699999-.2900014.3100016-.6249981.569999-1.005.78-.3800019.2100011-.7749979.3574996-1.185.4425-.410002.0850005-.8499976.1275001-1.32.1275001-1.1200056 0-1.974997-.2874972-2.565-.8625001-.5900029-.5750028-.885-1.3924947-.885-2.4525 0-.2600012.0149999-.5249986.045-.7949999zm9.93-4.02h2.04l.06.945c.3400017-.3200016.7424977-.587499 1.2075-.8025001.4650023-.215001.9524975-.3224999 1.4625-.3224999.6500033 0 1.1574982.1724982 1.5225.5174999.3650018.3450018.5475.8474968.5475 1.5075001 0 .2200011-.0199998.4399988-.06.66l-.915 5.4299999h-2.475l.765-4.605c.0400002-.2600013.06-.4349995.06-.5249999 0-.5800029-.2649973-.8700001-.795-.8700001-.2600013 0-.5199987.0674994-.78.2025001-.2600013.1350006-.4549993.2724993-.585.4125l-.9 5.3849999h-2.49l1.335-7.9349999zm12.75 7.9349999l.015-.96c-.6700033.7700039-1.5099949 1.1550001-2.52 1.1550001-.8700043 0-1.5249978-.2674974-1.965-.8025001-.4400022-.5350026-.66-1.297495-.66-2.2874999 0-.8400042.1174988-1.5974967.3525-2.2725001.2350012-.6750033.5449981-1.2224978.93-1.6424999.3850019-.4200022.8199976-.7424989 1.305-.9675.4850024-.2250012.9974973-.3375 1.5375-.3375.4400022 0 .8499981.092499 1.23.2775.3800019.1850009.6899988.4474983.93.7874999l.315-.8849999h2.04l-1.335 7.9349999h-2.175zm.12-2.5649999l.465-2.835c-.1200006-.1600009-.2874989-.3024994-.5025-.4275001-.2150011-.1250006-.4624986-.1875-.7425-.1875-.2600013 0-.4974989.0574995-.7125.1725-.215001.1150006-.3874993.2624992-.5175.4425001-.1300006.1800009-.2374996.3899988-.3225.63-.0850004.2400011-.1449998.4799988-.18.7199999-.0350001.2400013-.0525.4899988-.0525.75 0 .9400047.3649964 1.41 1.095 1.41.2800014 0 .5499987-.0674993.81-.2025.2600013-.1350006.4799991-.2924991.66-.4724999zm6.075 2.5649999h-2.49l1.8-10.7999999h2.49l-1.8 10.7999999zm6.4199999-10.7999999h4.11c1.140006 0 2.009997.2599974 2.61.78.600003.5200025.9 1.2349954.9 2.1449999 0 1.600008-.729993 2.7899961-2.19 3.5700001l1.47 4.3049999h-2.805l-1.155-3.6899999c-.260001.0400002-.539998.06-.84.06h-.72l-.6 3.6299999h-2.58l1.8-10.7999999zm3.6 2.25h-1.395l-.465 2.835h1.32c.600003 0 1.059999-.1524985 1.38-.4575.320002-.3050016.48-.7324973.48-1.2825001 0-.7300036-.439995-1.095-1.32-1.0949999zm9.75 8.5499999l.015-.96c-.670003.7700039-1.509995 1.1550001-2.52 1.1550001-.870004 0-1.524998-.2674974-1.965-.8025001-.440002-.5350026-.66-1.297495-.66-2.2874999 0-.8400042.117499-1.5974967.3525-2.2725001.235001-.6750033.544998-1.2224978.93-1.6424999.385002-.4200022.819998-.7424989 1.305-.9675.485003-.2250012.997497-.3375 1.5375-.3375.440002 0 .849998.092499 1.23.2775.380002.1850009.689999.4474983.93.7874999l.315-.8849999h2.04l-1.335 7.9349999h-2.175zm.12-2.5649999l.465-2.835c-.12-.1600009-.287499-.3024994-.5025-.4275001-.215001-.1250006-.462498-.1875-.7425-.1875-.260001 0-.497499.0574995-.7125.1725-.215001.1150006-.387499.2624992-.5175.4425001-.130001.1800009-.237499.3899988-.3225.63-.085.2400011-.145.4799988-.18.7199999-.035.2400013-.0525.4899988-.0525.75 0 .9400047.364996 1.41 1.095 1.41.280002 0 .549999-.0674993.81-.2025.260001-.1350006.479999-.2924991.66-.4724999zm6.87-2.7300001l-.465 2.7750001c.130001.1500007.307499.2924993.5325.4274999.225001.1350007.477499.2025.7575.2025.540003 0 .964999-.2274977 1.275-.6824999.310002-.4550023.465-1.1374955.465-2.0475001 0-.9500047-.339996-1.425-1.02-1.425-.260001 0-.537498.0799993-.8325.2400001-.295001.1600007-.532499.3299991-.7125.5099999zm-1.38 8.2950001h-2.49l1.83-10.935h2.025l.12.915c.800004-.7300037 1.679995-1.095 2.64-1.095.760004 0 1.367498.2624973 1.8225.7874999.455002.5250027.6825 1.2974949.6825 2.3175001 0 1.0200051-.152498 1.9149961-.4575 2.685-.305001.7700038-.767497 1.3799977-1.3875 1.83-.620003.4500022-1.354996.675-2.205.675-.810004 0-1.469997-.2799972-1.98-.84l-.6 3.66zm9.915-4.6950001l1.515-1.6199999c.440002.4000019.904998.7199988 1.395.9599999.490003.2400012.954998.36 1.395.36.480003 0 .844999-.1024989 1.095-.3075.250001-.205001.375-.4824982.375-.8324999 0-.2900015-.124999-.5299991-.375-.7200001-.250001-.1900009-.719996-.3949989-1.41-.6149999-.560003-.180001-1.027498-.3924988-1.4025-.6375001-.375002-.2450012-.669999-.559998-.885-.945-.215001-.3850019-.3225-.8274974-.3225-1.3274999 0-.4800024.077499-.9149981.2325-1.3050001.155001-.3900019.367499-.7249985.6375-1.0049999.270001-.2800014.584998-.519999.945-.7200001.360002-.200001.749998-.3449995 1.17-.4349999.420002-.0900005.854998-.1350001 1.305-.1350001 1.570008 0 2.809996.4999951 3.72 1.5l-1.455 1.6200001c-.760004-.6600033-1.564996-.99-2.415-.99-.440002 0-.787499.0799991-1.0425.24-.255001.1600008-.3825.4049983-.3825.7349999 0 .3000016.119999.5349992.36.705.240001.1700009.779996.4049985 1.62.7050001.850004.3000015 1.482498.6624978 1.8975 1.0875.415002.4250021.6225.9974963.6225 1.7174999 0 1.180006-.382496 2.1174966-1.1475 2.8125-.765004.6950035-1.822493 1.0425001-3.1725 1.0425001-.880004 0-1.699996-.1649984-2.46-.4950001-.760004-.3300016-1.364998-.7949969-1.815-1.395zm11.01-9.1049999h2.49l-.615 3.69c.340002-.3000015.722498-.5424991 1.1475-.7275.425002-.185001.862498-.2775001 1.3125-.2775001.640003 0 1.137498.1724983 1.4925.5175.355002.3450018.5325.8424968.5325 1.4925 0 .2400012-.02.4749989-.06.7050001l-.9 5.3999999h-2.475l.795-4.74c.03-.1800008.045-.3399993.045-.4799999 0-.2600013-.062499-.4549994-.1875-.585-.125001-.1300007-.337498-.1950001-.6375-.1950001-.240001 0-.484999.0624994-.735.1875-.250001.1250007-.454999.2674992-.615.4275001l-.9 5.3849999h-2.49l1.8-10.7999999zm9.735 6.7649999c-.05.3000016-.075.5649989-.075.795 0 .4700024.109999.8174989.33 1.0425001.220001.2250011.524998.3375.915.3375.960005 0 1.544999-.6899932 1.755-2.07.04-.2200012.06-.4699986.06-.75 0-.9200046-.394996-1.38-1.185-1.38-.460002 0-.847498.1649983-1.1625.495-.315001.3300016-.527499.8399965-.6375 1.5299999zm-2.595.1200001c.080001-.5800029.222499-1.1074977.4275-1.5825.205001-.4750024.454999-.8724985.75-1.1925.295002-.3200017.637498-.589999 1.0275-.8100001.390002-.220001.789998-.3774995 1.2-.4725.410002-.0950004.839998-.1424999 1.29-.1424999 1.060005 0 1.902497.297497 2.5275.8924999.625003.595003.9375 1.4224947.9375 2.4825 0 .2800015-.02.5499988-.06.8100001-.08.600003-.224999 1.1349976-.435 1.605-.210001.4700023-.459998.8599984-.75 1.1699999-.290001.3100016-.624998.569999-1.005.78-.380002.2100011-.774998.3574996-1.185.4425-.410002.0850005-.849998.1275001-1.32.1275001-1.120005 0-1.974997-.2874972-2.565-.8625001-.590003-.5750028-.885-1.3924947-.885-2.4525 0-.2600012.015-.5249986.045-.7949999zm18.285-4.02h2.475l-3.42 7.9349999h-2.715l-.18-4.545-1.68 4.545h-2.715l-.75-7.9349999h2.46l.225 5.145 1.86-5.145h2.34l.3 5.145 1.8-5.145z"/>
</svg>
