<svg xmlns="http://www.w3.org/2000/svg" viewBox="0 0 15 15">
    <path d="M9.432332 4.777177l1.5337565-1.2804183c.1447647-.1198052.5341317-.4605013.911019-.0224635.3768873.438038-.1035816.8760758-.1535005.9197548L9.6332553 6.2697506c.1535005-.4892047.093598-1.038312-.2009233-1.4925735zm.3232245 1.8781967l1.0258323-.864844c.1447646-.1198052.5840505-.4392858.945962-.0187196.3169848.368152.003744.788718-.1073254.911019l-1.864469-.027455zm-6.74778.8398846c-.0124797-.265818.001248-.5353796.043679-.8074373.2283787-1.4576303.77499-4.5663265.779982-4.593782.0199675-.0960936.0574066-.1846996.1135653-.2645697.0324472-.047423.0723823-.091102.1160613-.129789.023712-.0212156.049919-.041183.077375-.0586547.160989-.1035816.35068-.1410207.537876-.1023336.384375.07987.6339698.4592534.554099.8436285l-.333208 1.602395c-.008736.039935.011232.081118.046175.1023336.036191.021216.081118.017472.112317-.009983L8.762172.952146c.1435166-.123549.566579-.431798.9621857.0224634.394359.4555097-.1010856.8873077-.1472606.9272428l-2.5833 2.341194c-.042431.027455-.083614.0561584-.123549.08611.097342-.0811185-1.44515 1.1743405-2.278795 1.856981l-.038687.032447c-.635217.520404-1.160613.954698-1.544988 1.2766744zM7.828689 3.9709878l2.5745645-2.1764617c.1435167-.123549.5116682-.443029.913515.023712.4005987.466741-.0773743.852365-.1260452.893548L9.1964653 4.4864c-.2708096-.2720578-.6227375-.4480217-1.0058646-.5029324-.0973418-.0124798-.173468-.0162237-.2483463-.0162237-.037439 0-.0761262.001248-.1135654.003744z"/>
    <path d="M7.871245 10.9128273c-.0586548 0-.1060777.089854-.1060777.1485086-.001248.058654.046175.184699.1035816.184699l4.437785.088606c.202171.004992.76251.003744.760014.628977-.003744.625233-.7076.641457-.778734.641457l-4.986893.078622c-.058655 0-.106078.1023333-.106078.162236-.001248.0574065.046175.1809556.1048294.1809556l3.2272535.051167c.2034193.003744.7887177.056159.786222.653937-.003744.5990262-.7225754.6726565-.786222.6726565l-5.195304.0648945c-1.3902397-.0062398-2.4372875-.340696-3.022586-1.943091C1.7873842 11.091286 2.2965565 9.401533 3.576975 8.32079c1.220516-1.02708 3.8737023-3.1773344 3.898662-3.1973018.084862-.0648946.17846-.1098215.2807933-.134781.0599027-.0162236.1235493-.0237114.1859478-.0237114.0349438 0 .069887.002496.10483.0062397.204667.0299512.386871.134781.511668.299513.25833.3382002.192188.824909-.1460122 1.081991L7.003905 7.424748c-.0361913.0274553-.049919.0748782-.0361913.1160612.0149757.043679.0549108.0723824.0998377.0723824l5.2452228.078622c.2046673.001248.7687502.049919.7687502.70136 0 .651441-.7113435.652689-.777486.652689l-4.4240577.0923497c-.0386872 0-.1098215.0673905-.1073256.1572444.002496.089854.026208.168476.10483.177212l5.176585.0723822c.204668 0 .733807.001248.730063.667664-.003744.666416-.668912.640209-.737551.640209l-5.175336.059902z"/>
</svg>
