<svg xmlns="http://www.w3.org/2000/svg" viewBox="0 0 15 15"><path d="M7.5 14.75c-.3 0-.55-.25-.55-.56v-.53c0-1.13-1.48-1.54-2.05-.56l-.27.47c-.1.18-.34.28-.53.28-.1 0-.18-.02-.27-.07-.27-.16-.36-.5-.2-.76l.22-.4c.56-.98-.53-2.1-1.5-1.52l-.4.23c-.08.05-.17.07-.26.07-.2 0-.4-.1-.5-.28-.14-.26-.05-.6.2-.76l.4-.22c.97-.57.57-2.08-.56-2.08H.8c-.3 0-.55-.25-.55-.56 0-.3.25-.56.55-.56h.44c1.13 0 1.53-1.5.55-2.08l-.4-.22c-.25-.16-.34-.5-.2-.76.16-.27.5-.36.76-.2l.4.22c.97.57 2.07-.53 1.5-1.52l-.22-.4c-.15-.26-.05-.6.2-.76.27-.15.63-.06.8.2l.26.47c.57.97 2.05.56 2.05-.57V.8c0-.3.24-.55.55-.55.3 0 .55.25.55.56v.53c0 1.13 1.48 1.54 2.05.56l.27-.48c.16-.26.52-.35.78-.2.26.16.36.5.2.76l-.2.4c-.58 1 .52 2.1 1.5 1.52l.4-.23c.25-.15.6-.06.74.2.14.27.05.6-.2.77l-.4.22c-.97.57-.57 2.08.56 2.08h.44c.3 0 .55.25.55.56 0 .3-.25.56-.55.56h-.44c-1.13 0-1.53 1.5-.55 2.08l.4.22c.25.16.34.5.2.76-.1.18-.3.28-.5.28-.08 0-.17-.02-.26-.07l-.38-.23c-.98-.57-2.07.54-1.5 1.53l.2.4c.17.25.07.6-.2.75-.08.05-.17.07-.26.07-.2 0-.42-.1-.53-.28l-.27-.46c-.57-.97-2.05-.56-2.05.57v.52c0 .3-.24.55-.55.55zm0-2.72c2.5 0 4.53-2.03 4.53-4.53C12.03 5 10 2.97 7.5 2.97 5 2.97 2.97 5 2.97 7.5c0 2.5 2.03 4.53 4.53 4.53z"/><path stroke="currentColor" fill="none" stroke-width=".5" d="M5.5 7.5c0-1.1.9-2 2-2s2 .9 2 2-.9 2-2 2-2-.9-2-2z"/></svg>