<svg xmlns="http://www.w3.org/2000/svg" viewBox="0 0 15 15">
<path fill="none" stroke="currentColor" d="M3.53125 8.0159632C2.101358 7.819326 1 6.5926287 1 5.1086956 1 3.48786 2.313947 2.173913 3.9347826 2.173913c.8923155 0 1.6916188.3982326 2.2298776 1.0266653C6.8519452 1.892295 8.2239432 1 9.8043478 1c2.26917 0 4.1086957 1.8395257 4.1086957 4.1086956 0 1.7246374-1.062594 3.2010925-2.5688046 3.810388l-.306682 4.0811315c-.0207428.276024-.27046.499785-.54098.499785H4.5034224c-.2780327 0-.5226074-.224447-.546142-.4997844L3.53125 8.0159636z" stroke-linecap="square"/>
<path fill="none" stroke="currentColor" stroke-width=".5" d="M4 11.25h7"/>
<path fill="none" stroke="currentColor" stroke-width=".5" d="M9.8043478 8.9715417c.4972962 0 .9739573-.088349 1.4151436-.2502075m-7.2847088-.88977c.3958958 0 .7734825-.0783902 1.1180852-.2204954M6.334098 3.3135765c-.2365414.427029-.3992396.9006362-.4708586 1.403586" stroke-linecap="round"/>
</svg>
