<svg xmlns="http://www.w3.org/2000/svg" style="width:6.2em;height:2.6em" viewBox="0 0 62 26">
    <path d="M49.0011006 1C42.37193896 1 37 6.37176964 37 12.9994074c0 6.6266218 5.37193896 11.9990687 12.0011006 11.9990687C55.6268758 24.9984761 61 19.6260292 61 12.9994074 61 6.37176964 55.6268758 1 49.0011006 1m4.2483927 18.1290562h-8.44145146l.0020922-.6281518-.0020922.0020921c0-1.8671955.84053613-3.536688 2.15756784-4.6580513l.00313828-.0062763 2.61314154-2.2333123c.2840144-.2468673.3718862-.4696755.3718862-.70974346 0-.42208033-.2719843-.82062458-.8436744-.82062458h-4.30205946V6.8698978l4.51441646-.0020921c2.2135339 0 3.8757764 1.48381894 3.8757764 3.69568723 0 1.26990217-.4341288 2.21657547-1.5979078 3.20561377l-2.3803857 2.1145858h4.0295521v3.2453637zM31.0878023 13.55918018c-.2517074-.42642875-.2661333-.68861697-.02338-1.10029556L34.399462 7h-4.6267395s-2.7797248 4.54205453-3.1597731 5.17316245c-.3764003.63027925-.3601505 1.02273292.0154208 1.67041405C27.0084185 14.49042897 29.7727225 19 29.7727225 19h4.6267395s-3.2751804-5.37353258-3.3116597-5.44081982M21.5941377 19h4.2077247V7h-4.2077247M18.9405537 6.77010873c-1.3163763 0-2.3817762 1.07539896-2.3817762 2.40310754 0 1.32687533 1.0653999 2.4056073 2.3817762 2.4056073 1.3185428 0 2.3884423-1.07873197 2.3884423-2.4056073 0-1.32770858-1.0698995-2.40310754-2.3884423-2.40310754M12.0635332 19h4.2052375V7h-4.2052375M0 19h4.19744416V7H0M9.50872938 8.92796177C9.29333553 7.82832914 8.33144198 7 7.17852938 7H4.47507953l2.71654925 12h4.56969912L9.50872938 8.92796177z"/>
</svg>
