<svg xmlns="http://www.w3.org/2000/svg" viewBox="0 0 15 15">
<path d="M11.0638626 4.0870757c1.9267755 1.9267755 1.9269149 5.05054508.00033652 6.97712342-.15620972.15620972-.15620972.4094757 0 .56568542s.4094757.15620972.56568538 0c2.2390091-2.23900907 2.2388472-5.86931064-.0003365-8.10849426-.15620968-.15620972-.40947567-.15620972-.5656854 0-.1562097.15620972-.1562097.4094757 0 .56568542zm-6.9767869 6.9767869c-1.92619873-1.92619872-1.92614556-5.0499683.0003365-6.9764504.15620973-.1562097.15620973-.4094757 0-.5656854-.1562097-.15620973-.4094757-.15620973-.5656854 0-2.2388972 2.2388972-2.238959 5.86919876-.00033652 8.10782124.15620972.1562097.4094757.1562097.56568542 0 .15620972-.15620972.15620972-.4094757 0-.56568543z"/>
<path d="M9.54255783 5.4413385c1.13263468 1.13263468 1.1327166 2.96890653.0002019 4.10142123-.1171573.1171573-.1171573.30710678 0 .42426407.1171573.1171573.30710678.1171573.42426407 0 1.36683775-1.36683775 1.36673888-3.5830086-.0002019-4.94994937-.1171573-.1171573-.3071068-.1171573-.42426407 0-.1171573.1171573-.1171573.30710678 0 .42426407zM5.4413385 9.54255783C4.30905104 8.41027037 4.3090823 6.5739985 5.4415404 5.4415404c.1171573-.1171573.1171573-.30710678 0-.42426407-.1171573-.1171573-.30710678-.1171573-.42426407 0-1.36676945 1.36676946-1.36680717 3.5829403-.0002019 4.94954557.1171573.11715728.30710678.11715728.42426407 0 .11715728-.1171573.11715728-.3071068 0-.42426407z"/>
<path d="M7.49988846 8.75C6.80969483 8.75 6.25 8.1903551 6.25 7.5s.55969483-1.25 1.24988846-1.25C8.19030516 6.25 8.75 6.8096449 8.75 7.5s-.55969483 1.25-1.25011154 1.25z"/>
</svg>
