<svg xmlns="http://www.w3.org/2000/svg" style="width:8.0em;height:3.2em" viewBox="0 0 80 32">
  <path fill="currentColor" d="M38.446 11.602h1.104v5.328c0 .816.192 1.432.576 1.848.384.416.92.624 1.608.624.752 0 1.292-.204 1.62-.612.328-.408.492-1.028.492-1.86v-5.328h1.104v5.424c0 1.112-.276 1.95-.828 2.514-.552.564-1.36.846-2.424.846-1.024 0-1.822-.28-2.394-.84-.572-.56-.858-1.4-.858-2.52v-5.424zm8.64 0h2.808c.992 0 1.74.228 2.244.684.504.456.756 1.088.756 1.896 0 1.104-.476 1.888-1.428 2.352l1.92 3.708h-1.224l-1.764-3.432c-.272.048-.568.072-.888.072h-1.308v3.36h-1.116v-8.64zm2.772.972h-1.656v3.372h1.572c1.328 0 1.992-.58 1.992-1.74 0-.544-.154-.952-.462-1.224-.308-.272-.79-.408-1.446-.408zm4.68 3.264c0-.704.098-1.334.294-1.89.196-.556.472-1.016.828-1.38.356-.364.778-.642 1.266-.834.488-.192 1.024-.288 1.608-.288.288 0 .556.024.804.072l.228-.72h.9l-.288.96c.704.296 1.254.792 1.65 1.488.396.696.594 1.56.594 2.592 0 .608-.064 1.162-.192 1.662s-.306.928-.534 1.284c-.228.356-.506.654-.834.894-.328.24-.692.418-1.092.534-.4.116-.828.174-1.284.174-.272 0-.576-.028-.912-.084l-.276.9h-.888l.348-1.152c-.704-.304-1.25-.81-1.638-1.518-.388-.708-.582-1.606-.582-2.694zm6.72 0c0-.736-.124-1.362-.372-1.878-.248-.516-.592-.902-1.032-1.158l-1.992 6.552c.16.04.368.06.624.06.864 0 1.542-.304 2.034-.912.492-.608.738-1.496.738-2.664zm-5.544 0c0 .792.116 1.458.348 1.998.232.54.564.942.996 1.206l1.98-6.528c-.144-.032-.32-.048-.528-.048-.864 0-1.546.298-2.046.894-.5.596-.75 1.422-.75 2.478zm8.604-4.236h2.808c.992 0 1.74.228 2.244.684.504.456.756 1.088.756 1.896 0 1.104-.476 1.888-1.428 2.352l1.92 3.708h-1.224L67.63 16.81c-.272.048-.568.072-.888.072h-1.308v3.36h-1.116v-8.64zm2.772.972h-1.656v3.372h1.572c1.328 0 1.992-.58 1.992-1.74 0-.544-.154-.952-.462-1.224-.308-.272-.79-.408-1.446-.408zm7.092 7.668V12.61h-2.688v-1.008h6.48v1.008h-2.676v7.632h-1.116zM0 32V0h32v32H0zm24.585-9.92c-.15-.257-.957-1.536-1.44-2.323l1.45-2.4c.215-.36.205-.586-.01-.957-.11-.19-1.09-1.77-1.09-1.77H16.44l1.542 2.585h3.714l-1.533 2.512 1.71 2.87-1.65 2.71h3.012c.484-.792 1.208-2.017 1.36-2.268.215-.363.205-.588-.01-.96zm-5.39 1.232c.208-.348.2-.565-.01-.923-.144-.25-.92-1.52-1.384-2.277-.463.758-1.24 2.028-1.385 2.276-.207.357-.217.574-.008.922.145.242.927 1.522 1.394 2.285.467-.763 1.25-2.043 1.395-2.285zm-3.123-4.776c.215-.36.205-.585-.01-.956-.233-.398-.234-.398-1.797-2.95H10.97s1.872 3.074 1.893 3.113c.144.244.153.393.013.628l-1.906 3.125h3.295s1.59-2.6 1.807-2.96zm-8.46 6.77h2.933V14.632H7.61v10.677zM7.6 6.977v5.99h2.094v-5.99H7.602zm5.972 0v5.99h2.094v-5.99h-2.094zm4.718 0v5.99h2.094v-5.99h-2.094zm-1.314 2.263c.652 0 1.183-.535 1.183-1.197 0-.658-.53-1.192-1.182-1.192-.652 0-1.18.535-1.18 1.193 0 .662.528 1.196 1.18 1.196zm5.374 3.726h2.302s-1.63-2.682-1.65-2.717c-.124-.215-.13-.343-.01-.55l1.66-2.728h-2.302s-1.384 2.27-1.573 2.583c-.19.317-.18.512.006.835.188.326 1.566 2.576 1.566 2.576zm-8.91 0v-.003l-1.118-5.025c-.11-.55-.585-.963-1.16-.963H9.816l1.353 5.994h2.273v-.004z"/>
</svg>
