<svg viewBox="0 0 15 15" xmlns="http://www.w3.org/2000/svg">
  <g fill="currentColor" fill-rule="nonzero">
    <path d="M9.39 8.77v-.8c.21 0 .4-.2.4-.47 0-.27-.19-.47-.4-.47v-.8c.67 0 1.2.57 1.2 1.27 0 .7-.53 1.27-1.2 1.27z"/>
    <path d="M9 10.6v-.8a2.3 2.3 0 0 0 2.3-2.3A2.3 2.3 0 0 0 9 5.2v-.8a3.1 3.1 0 0 1 0 6.2z"/>
    <path d="M8.5 12.23v-.8H9a3.92 3.92 0 0 0 3.91-3.93A3.92 3.92 0 0 0 9 3.57h-.5v-.8H9a4.72 4.72 0 0 1 0 9.46h-.5z"/>
    <path d="M3.3 9H4a.5.5 0 0 1 .38.17l2.62 3V2.83l-2.62 3A.5.5 0 0 1 4 6h-.7v3zm-.6 0V6H1.5a.7.7 0 0 0-.28.07c-.15.08-.22.19-.22.43v2c0 .24.07.35.22.43.1.05.23.07.28.07h1.2zM8 6.29A1.4 1.4 0 0 1 8 8.7v4.79a.5.5 0 0 1-.88.33L3.77 10H1.5c-.2 0-.45-.04-.72-.18A1.4 1.4 0 0 1 0 8.5v-2c0-.63.3-1.08.78-1.32.27-.14.52-.18.72-.18h2.27l3.35-3.83A.5.5 0 0 1 8 1.5v4.79z"/>
  </g>
</svg>
