<svg xmlns="http://www.w3.org/2000/svg" style="width:8.2em;height:2.5em" viewBox="0 0 82 25">
    <path fill-rule="evenodd" d="M.00003 25.0000527h25v-25h-25v25zm19.2070383-7.7495843c.1681573.2902772.1758008.4660193.0067615.7488293-.118004.1960268-.6833303 1.1528186-1.061508 1.7715318h-2.3522037l1.2878737-2.1167247-1.3357926-2.2420784 1.1978566-1.9628548h-2.9018314l-1.2036185-2.0187702h5.509799s.7661154 1.2342515.8526636 1.38183c.1681573.2902185.1758008.4659606.0067615.7487707-.118004.196027-1.13077 1.8744253-1.13077 1.8744253.3762962.615009 1.006063 1.6140166 1.1240085 1.815041zm-4.211107.9623186c-.113653.188795-.7248992 1.1892135-1.089142 1.7851137-.364243-.5959002-.975489-1.5963188-1.0891423-1.7851137-.162748-.272403-.1553986-.4416188.0065264-.721195.1136532-.1935574.720078-1.1859798 1.0826158-1.7783523.3625378.5923725.9690214 1.584795 1.0826158 1.7783522.161925.2795762.1692745.448792.0065264.721195zm-2.4400453-3.731682c-.169745.2818105-1.411052 2.3118108-1.411052 2.3118108H8.5704693l1.488663-2.4403395c.1094198-.1836207.1024818-.3005077-.009525-.490949-.016463-.0301624-1.479138-2.431226-1.479138-2.431226h2.574395c1.2211398 1.9930763 1.2215514 1.992841 1.4042902 2.3041086.1676282.289454.175213.464667.0067616.746595zm-6.6101713 5.2897245h2.292408v-8.340487h-2.292408v8.340487zm0-9.6300656H7.582633V5.4548182H5.9457447v4.6859456zm2.7845328-4.6868864c.4483216 0 .8227363.3239087.9066974.7536507l.8761232 3.9301194.0007055.0031162H8.7355104L7.678412 5.4538775h1.0518655zm1.885773 4.6868863h1.6363003V5.4548182h-1.6363004v4.6859456zm2.663001-4.7829007c.510822 0 .9254532.4180415.9254532.9335673 0 .5155257-.4146313.934214-.9254533.934214-.5097638 0-.9225724-.4186883-.9225724-.934214 0-.5155258.4128086-.9335673.9225724-.9335673zm1.0277588 4.7829006h1.636947V5.4548182h-1.636947v4.6859456zm1.9433933-2.6663524c.148049-.2464152 1.2296065-2.0203576 1.2296065-2.0203576h1.8004008l-1.2971046 2.1325997c-.0953676.1605726-.0892528.262643.0081727.4290952.0144637.0264583 1.2889318 2.1248973 1.2889318 2.1248973H17.47981s-1.0757366-1.7607132-1.2235504-2.01389c-.1462852-.252824-.152694-.4059883-.006056-.6523447zM31 11.1599144v-6.916843h.806965l3.5544887 5.2740928V4.2430715h.8838188v6.916843h-.7973582L31.874212 5.8762148v5.2836994H31zm8.8862218-6.916843h.951066l2.5073554 6.916843h-.951066l-.6724707-1.8540982h-2.69949l-.6628642 1.8540982h-.951066l2.4785355-6.916843zm-.6148305 4.246173h2.1999403L40.366558 5.280598l-1.0951667 3.2086465zm5.8408896 2.67067v-6.109878H42.960374v-.806965h5.1876322v.806965h-2.1423v6.109878h-.8934255zm4.207746 0v-6.916843h.8934255v6.916843h-.8934255zm3.3527475-3.5256686c0 .9350594.198537 1.64595.595617 2.1326933.39708.4867433.9382535.7301113 1.6235367.7301113.6916878 0 1.2344624-.243368 1.62834-.7301112.393878-.4867432.5908138-1.1976338.5908138-2.1326932 0-.8518006-.198537-1.514658-.595617-1.9885923-.39708-.4739342-.931849-.7108977-1.6043233-.7108977-.6916878 0-1.2376646.2385646-1.6379468.715701-.4002824.4771365-.6004205 1.138393-.6004205 1.983789zm-.9414592 0c0-.5635974.078454-1.0679455.2353648-1.5130594.1569107-.4451138.3778632-.813368.6628642-1.1047735.285001-.2914056.622834-.5139592 1.0135096-.6676675.3906755-.1537084.8197717-.2305615 1.2873013-.2305615.4611253 0 .882216.076853 1.2632846.2305615.3810687.1537083.7092953.376262.9846895.6676674.2753943.2914054.4883412.6612607.6388474 1.1095768.150506.4483162.225758.951063.225758 1.508256 0 .4867433-.0512353.9302494-.1537076 1.3305316-.1024722.4002823-.2449706.7429188-.4274993 1.0279197-.1825287.285001-.4050823.5235657-.6676675.7157012-.262585.1921355-.5539863.334634-.874212.4274994-.320226.0928654-.6628623.1392975-1.0279198.1392975-.461125 0-.8822158-.0736507-1.2632845-.2209546-.3810687-.147304-.7140985-.3682564-.9990995-.662864-.285001-.294608-.5059535-.677272-.662864-1.148004-.1569108-.470732-.235365-1.007102-.235365-1.6091266zm7.829482 3.5256686v-6.916843h.806965l3.5544886 5.2740928V4.2430715h.8838187v6.916843h-.7973582l-3.5737022-5.2836996v5.2836994h-.874212zm8.8862217-6.916843h.951066l2.5073554 6.916843h-.951066l-.6724707-1.8540982h-2.69949l-.6628642 1.8540982h-.951066l2.4785355-6.916843zm-.6148305 4.246173h2.1999403L68.9273553 5.280598l-1.0951668 3.2086465zm5.2356658-4.246173h.8934256v6.1194847h3.1702195v.7973584h-4.0636452v-6.916843zM31 13.8497978h2.247974c.79416 0 1.3929732.182526 1.7964578.5475834.4034845.3650575.6052237.8710067.6052237 1.517863 0 .883823-.381063 1.5114563-1.1432004 1.8829182l1.5370763 2.9684784h-.979886l-1.412189-2.7475237c-.2177534.038427-.454717.0576403-.7108976.0576403h-1.0471332v2.6898833H31v-6.916843zm2.2191538.7781448h-1.3257283v2.69949h1.2584812c1.0631497 0 1.5947165-.4643203 1.5947165-1.3929752 0-.435507-.123285-.7621325-.369859-.979886-.2465738-.2177536-.63244-.3266288-1.1576104-.3266288zm5.9945972-.7781448h.951066l2.5073554 6.916843h-.951066l-.6724707-1.8540982h-2.69949l-.6628642 1.854098h-.951066l2.4785355-6.9168428zm-.6148305 4.246173h2.1999403l-1.1047735-3.2086465-1.0951668 3.2086465zm7.435606-3.4680282H44.728012v2.7283103h1.229661c1.0695542 0 1.6043233-.4611182 1.6043233-1.3833686 0-.448316-.123285-.7845482-.369859-1.0087062-.2465738-.224158-.63244-.3362355-1.1576104-.3362355zm-2.1999402 6.138698v-6.9168428h2.2575807c.7749464 0 1.360951.182526 1.758031.5475834.39708.3650575.595617.8806134.595617 1.546683 0 .6788788-.2049415 1.2088445-.6148306 1.5899132-.409889.3810688-1.0247134.5716002-1.8444914.5716002h-1.2584812v2.6610632h-.8934255zm7.7718416-.9510658l.489943-.5764036c.6788786.5956202 1.338534.8934257 1.9789855.8934257.422698 0 .7653345-.1040718 1.0279197-.3122186.2625852-.2081467.3938758-.4979467.3938758-.8694086 0-.345844-.107274-.6132285-.3218253-.8021617-.2145513-.1889332-.6324398-.3762625-1.2536778-.5619935-.7621375-.2305626-1.2969066-.4883405-1.6043234-.7733414-.3074168-.285001-.461123-.6836762-.461123-1.1960374 0-.6020246.2081438-1.067946.6244373-1.3977787.4162935-.3298326.957467-.4947464 1.6235367-.4947464.9094413 0 1.6619606.3298276 2.2575806.9894928l-.489943.5475835c-.2433716-.2561807-.5187617-.4515155-.8261785-.5860103-.3074167-.134495-.614829-.2017413-.9222457-.2017413-.39708 0-.720503.091263-.9702792.2737916-.2497762.1825287-.3746623.4403066-.3746623.7733415 0 .0768543.0048033.147303.01441.211348.0096068.0640452.02882.1264883.0576404.1873312.0288202.060843.056039.1152805.081657.1633144.025618.0480338.068848.094466.129691.1392975.0608428.0448317.112078.0832582.1537075.1152808.0416294.0320226.1072747.070449.196938.1152807.089663.0448316.163314.080056.2209546.105674.0576407.025618.1473026.0608424.2689884.105674.1216858.0448316.217752.080056.2882018.105674.0704497.025618.1793248.0608424.3266287.105674.7044967.2305626 1.199238.4915427 1.484239.7829482.285001.2914055.4274994.6932828.4274994 1.205644 0 .6148337-.214548 1.1047718-.6436506 1.4698292s-.999096.5475833-1.7099973.5475833c-.4867432 0-.9430582-.0944652-1.3689585-.2833984-.4259003-.1889333-.7925534-.4499134-1.09997-.7829483zm6.2827988.951066v-6.916843h.8934256v2.9300515h3.4103878v-2.9300515h.8934255v6.916843h-.8934255v-3.160613h-3.4103878v3.160613h-.8934256zm7.656561-3.5256686c0 .9350595.198537 1.64595.595617 2.1326933.39708.4867432.9382534.7301112 1.6235366.7301112.6916878 0 1.2344624-.243368 1.62834-.7301112.393878-.4867432.5908138-1.1976338.5908138-2.1326932 0-.8518006-.198537-1.514658-.595617-1.9885922-.39708-.4739342-.931849-.7108978-1.6043233-.7108978-.691688 0-1.2376647.2385647-1.637947.715701-.4002822.4771366-.6004203 1.138393-.6004203 1.983789zm-.9414593 0c0-.5635973.078454-1.0679454.2353648-1.5130593.1569106-.445114.377863-.813368.662864-1.1047735.285001-.2914055.6228342-.513959 1.0135097-.6676675.3906755-.1537084.8197716-.2305614 1.2873013-.2305614.4611252 0 .8822158.076853 1.2632845.2305614.3810687.1537084.7092953.376262.9846895.6676675.2753942.2914055.488341.6612607.6388473 1.109577.150506.448316.225758.951063.225758 1.508256 0 .486743-.0512353.9302492-.1537076 1.3305315-.1024722.4002822-.2449706.7429187-.4274993 1.0279197-.1825287.285001-.4050823.5235656-.6676675.715701-.262585.1921356-.5539863.334634-.874212.4274994-.320226.0928655-.6628624.1392975-1.0279198.1392975-.461125 0-.8822158-.0736508-1.2632845-.2209547-.3810688-.1473038-.7140986-.3682563-.9990996-.662864-.285001-.2946078-.5059535-.677272-.662864-1.148004-.1569108-.4707318-.235365-1.007102-.235365-1.6091265zm9.0399294 3.5256686l-1.8156714-6.916843h.9030323l1.4890425 5.7832493 1.469829-5.7832493h.8549987l1.479436 5.7832492 1.4602223-5.7832493h.912639l-1.825278 6.916843h-.9894928l-1.4698292-5.5911148-1.4506156 5.5911146h-1.018313z"/>
</svg>
