<svg xmlns="http://www.w3.org/2000/svg" style="width:10.2em;height:3.2em" viewBox="0 0 102 32">
  <path fill="currentColor" d="M38.506 14.326v-8.64h1.008l4.44 6.588V5.686h1.104v8.64h-.996l-4.464-6.6v6.6h-1.092zm11.1-8.64h1.188l3.132 8.64h-1.188l-.84-2.316h-3.372l-.828 2.316H46.51l3.096-8.64zm-.768 5.304h2.748l-1.38-4.008-1.368 4.008zm7.296 3.336V6.694h-2.688V5.686h6.48v1.008H57.25v7.632h-1.116zm5.256 0v-8.64h1.116v8.64H61.39zm4.188-4.404c0 1.168.248 2.056.744 2.664.496.608 1.172.912 2.028.912.864 0 1.542-.304 2.034-.912.492-.608.738-1.496.738-2.664 0-1.064-.248-1.892-.744-2.484-.496-.592-1.164-.888-2.004-.888-.864 0-1.546.298-2.046.894-.5.596-.75 1.422-.75 2.478zm-1.176 0c0-.704.098-1.334.294-1.89.196-.556.472-1.016.828-1.38.356-.364.778-.642 1.266-.834.488-.192 1.024-.288 1.608-.288.576 0 1.102.096 1.578.288.476.192.886.47 1.23.834s.61.826.798 1.386c.188.56.282 1.188.282 1.884 0 .608-.064 1.162-.192 1.662s-.306.928-.534 1.284c-.228.356-.506.654-.834.894-.328.24-.692.418-1.092.534-.4.116-.828.174-1.284.174-.576 0-1.102-.092-1.578-.276-.476-.184-.892-.46-1.248-.828-.356-.368-.632-.846-.828-1.434-.196-.588-.294-1.258-.294-2.01zm9.78 4.404v-8.64h1.008l4.44 6.588V5.686h1.104v8.64h-.996l-4.464-6.6v6.6h-1.092zm11.1-8.64h1.188l3.132 8.64h-1.188l-.84-2.316h-3.372l-.828 2.316h-1.188l3.096-8.64zm-.768 5.304h2.748l-1.38-4.008-1.368 4.008zm6.54-5.304h1.116v7.644h3.96v.996h-5.076v-8.64zm-52.548 12h2.808c.992 0 1.74.228 2.244.684.504.456.756 1.088.756 1.896 0 1.104-.476 1.888-1.428 2.352l1.92 3.708h-1.224l-1.764-3.432c-.272.048-.568.072-.888.072h-1.308v3.36h-1.116v-8.64zm2.772.972h-1.656v3.372h1.572c1.328 0 1.992-.58 1.992-1.74 0-.544-.154-.952-.462-1.224-.308-.272-.79-.408-1.446-.408zm7.488-.972h1.188l3.132 8.64h-1.188l-.84-2.316h-3.372l-.828 2.316H45.67l3.096-8.64zm-.768 5.304h2.748l-1.38-4.008-1.368 4.008zm9.288-4.332h-1.632v3.408h1.536c1.336 0 2.004-.576 2.004-1.728 0-.56-.154-.98-.462-1.26-.308-.28-.79-.42-1.446-.42zm-2.748 7.668v-8.64h2.82c.968 0 1.7.228 2.196.684.496.456.744 1.1.744 1.932 0 .848-.256 1.51-.768 1.986s-1.28.714-2.304.714h-1.572v3.324h-1.116zm9.708-1.188l.612-.72c.848.744 1.672 1.116 2.472 1.116.528 0 .956-.13 1.284-.39.328-.26.492-.622.492-1.086 0-.432-.134-.766-.402-1.002s-.79-.47-1.566-.702c-.952-.288-1.62-.61-2.004-.966-.384-.356-.576-.854-.576-1.494 0-.752.26-1.334.78-1.746.52-.412 1.196-.618 2.028-.618 1.136 0 2.076.412 2.82 1.236l-.612.684c-.304-.32-.648-.564-1.032-.732-.384-.168-.768-.252-1.152-.252-.496 0-.9.114-1.212.342-.312.228-.468.55-.468.966 0 .096.006.184.018.264.012.08.036.158.072.234.036.076.07.144.102.204.032.06.086.118.162.174l.192.144c.052.04.134.088.246.144.112.056.204.1.276.132.072.032.184.076.336.132l.36.132c.088.032.224.076.408.132.88.288 1.498.614 1.854.978.356.364.534.866.534 1.506 0 .768-.268 1.38-.804 1.836-.536.456-1.248.684-2.136.684-.608 0-1.178-.118-1.71-.354s-.99-.562-1.374-.978zm7.848 1.188v-8.64h1.116v3.66h4.26v-3.66h1.116v8.64H77.47v-3.948h-4.26v3.948h-1.116zm9.564-4.404c0 1.168.248 2.056.744 2.664.496.608 1.172.912 2.028.912.864 0 1.542-.304 2.034-.912.492-.608.738-1.496.738-2.664 0-1.064-.248-1.892-.744-2.484-.496-.592-1.164-.888-2.004-.888-.864 0-1.546.298-2.046.894-.5.596-.75 1.422-.75 2.478zm-1.176 0c0-.704.098-1.334.294-1.89.196-.556.472-1.016.828-1.38.356-.364.778-.642 1.266-.834.488-.192 1.024-.288 1.608-.288.576 0 1.102.096 1.578.288.476.192.886.47 1.23.834s.61.826.798 1.386c.188.56.282 1.188.282 1.884 0 .608-.064 1.162-.192 1.662s-.306.928-.534 1.284c-.228.356-.506.654-.834.894-.328.24-.692.418-1.092.534-.4.116-.828.174-1.284.174-.576 0-1.102-.092-1.578-.276-.476-.184-.892-.46-1.248-.828-.356-.368-.632-.846-.828-1.434-.196-.588-.294-1.258-.294-2.01zm11.292 4.404l-2.268-8.64h1.128l1.86 7.224 1.836-7.224h1.068l1.848 7.224 1.824-7.224h1.14l-2.28 8.64h-1.236l-1.836-6.984-1.812 6.984h-1.272zM0 32V0h32v32H0zm24.585-9.92c-.15-.257-.957-1.536-1.44-2.323l1.45-2.4c.215-.36.205-.586-.01-.957-.11-.19-1.09-1.77-1.09-1.77H16.44l1.542 2.585h3.714l-1.533 2.512 1.71 2.87-1.65 2.71h3.012c.484-.792 1.208-2.017 1.36-2.268.215-.363.205-.588-.01-.96zm-5.39 1.232c.208-.348.2-.565-.01-.923-.144-.25-.92-1.52-1.384-2.277-.463.758-1.24 2.028-1.385 2.276-.207.357-.217.574-.008.922.145.242.927 1.522 1.394 2.285.467-.763 1.25-2.043 1.395-2.285zm-3.123-4.776c.215-.36.205-.585-.01-.956-.233-.398-.234-.398-1.797-2.95H10.97s1.872 3.074 1.893 3.113c.144.244.153.393.013.628l-1.906 3.125h3.295s1.59-2.6 1.807-2.96zm-8.46 6.77h2.933V14.632H7.61v10.677zM7.6 6.977v5.99h2.094v-5.99H7.602zm5.972 0v5.99h2.094v-5.99h-2.094zm4.718 0v5.99h2.094v-5.99h-2.094zm-1.314 2.263c.652 0 1.183-.535 1.183-1.197 0-.658-.53-1.192-1.182-1.192-.652 0-1.18.535-1.18 1.193 0 .662.528 1.196 1.18 1.196zm5.374 3.726h2.302s-1.63-2.682-1.65-2.717c-.124-.215-.13-.343-.01-.55l1.66-2.728h-2.302s-1.384 2.27-1.573 2.583c-.19.317-.18.512.006.835.188.326 1.566 2.576 1.566 2.576zm-8.91 0v-.003l-1.118-5.025c-.11-.55-.585-.963-1.16-.963H9.816l1.353 5.994h2.273v-.004z"/>
</svg>
