<svg xmlns="http://www.w3.org/2000/svg" viewBox="0 0 167 40">
  <title>NRK Super</title>
  <path id="nrk-tv-super__nrk" d="M42.2742596 20.74557357c-.3356098-.56857166-.3548444-.91815595-.0311732-1.46706074L46.6898059 12h-6.168986s-3.7062998 6.0560727-4.2130308 6.89754993c-.5018671.84037234-.4802006 1.3636439.0205611 2.22721877C36.8350812 21.9872386 40.5208199 28 40.5208199 28h6.168986s-4.3669072-7.1647101-4.4155463-7.25442643  M29.6477692 28h5.6102996V12h-5.6102996z  M26.1274035 11.69c-1.746365 0-3.1597731 1.42667336-3.1597731 3.1880722 0 1.7602934 1.4134081 3.1913885 3.1597731 3.1913885 1.749239 0 3.1686165-1.4310951 3.1686165-3.1913885 0-1.76139884-1.4193775-3.1880722-3.1686165-3.1880722  M17.004034 28h5.6069833V12H17.004034z  M1 28h5.59659222V12H1z  M13.648378 14.5706157C13.3611862 13.10443885 12.0786614 12 10.54144467 12h-3.6045998l3.62206566 16h6.09293217L13.648378 14.5706157z"/>
  <path id="nrk-tv-super__super" d="M103.73998973 18.05756537c-2.70320353-.72459897-2.69196944-1.39021896-2.69196944-1.6078795 0-1.14306893.71336485-1.71179487 2.11762643-1.71179487.63332197 0 1.75532697.16289435 2.152733 1.24838855.1348091.39740602.4198742.7161734.7962163.8917061.37493785.17834122.80745042.19519236 1.18940955.05195768.4030231-.12638355.7442587-.42268274.9310254-.82008877.1755327-.37493784.1909796-.80323762.0365108-1.17396267-.7484714-2.09234978-2.65826713-3.34635537-5.10589506-3.34635537-3.15116298 0-5.26878944 1.94209376-5.26878944 4.83065982 0 .78076944.24434153 2.26507393 1.88171053 3.38988745.79762058.5588961 1.68370964.80323763 3.14835446 1.2062607l.0407236.0084256c2.59507538.7133649 2.59507538 1.0840899 2.59507538 1.755327 0 1.7777951-1.82554005 1.9687747-2.60771375 1.9687747-1.0925155 0-2.34090404-.4493637-2.54873475-1.7075821-.06319177-.4044273-.29068215-.762514-.6361305-1.0096641-.34544834-.241533-.7821737-.3398313-1.1880053-.2583841-.85659955.1628943-1.4253255.966132-1.26664393 1.7918378.3875762 2.5908626 2.65545864 4.3363597 5.6395145 4.3363597 3.3730363 0 5.73219578-2.1049881 5.73219578-5.1213419 0-1.2287289-.2878737-1.95894496-1.0953241-2.7944806-.78638644-.81728023-2.04600907-1.4477937-3.85188946-1.92805114zm18.60225307-6.29811317c-.8762592 0-1.5910283.71336488-1.5910283 1.58821984v8.86791186c0 2.1386904-2.1667756 2.3746063-3.0978011 2.3746063-.9225998 0-3.0725243-.2359159-3.0725243-2.3746063v-8.86791186c0-.87485496-.7105564-1.58821984-1.5868156-1.58821984-.8790677 0-1.5924326.71336488-1.5924326 1.58821984v8.86791186c0 1.7075821.7021308 3.2059292 1.9772003 4.2127847 1.148686.8776635 2.6245649 1.3410698 4.2745722 1.3410698 1.6668585 0 3.1539715-.4634063 4.3012532-1.3382612 1.2750696-1.0321323 1.9786046-2.5290751 1.9786046-4.2155933v-8.86791186c0-.87485496-.7147691-1.58821984-1.5910284-1.58821984zm14.3670002 10.3100885c0 1.8564338-1.669667 2.5206495-3.0963967 2.5206495-1.4843045 0-3.0725244-.6642157-3.0725244-2.5206495v-4.75061692c0-2.14711595 2.147116-2.38022337 3.0725244-2.38022337.9296211 0 3.0963967.23310745 3.0963967 2.3802234v4.7506169zm-3.0963967-10.3100885c-1.2680483 0-2.4448195.28085232-3.4320153.80183336-.3103418-.37353358-.7540885-.60102395-1.2287289-.60102395-.8790678 0-1.5910284.71898195-1.5910284 1.5938369v18.4491886c0 .8762592.7119606 1.5882198 1.5910284 1.5882198.8748549 0 1.5882198-.7119606 1.5882198-1.5882198v-4.9149155c.9155786.4423424 1.9477108.6810668 3.0725244.6810668 1.6780925 0 3.221376-.515364 4.3349554-1.4590277 1.2540056-1.0419621 1.9406895-2.5487348 1.9406895-4.24087v-4.7506169c0-1.69494372-.7007265-3.18626952-1.9729875-4.21980604-1.1486859-.87766348-2.6372032-1.33966554-4.3026574-1.33966554zm30.5974554 0c-.9745575 0-1.8873275.24995856-2.6666927.7021308-.2850651-.424087-.7681311-.7021308-1.3003462-.7021308-.874855 0-1.5896241.71336488-1.5896241 1.58821984V26.1784101c0 .8776635.7147691 1.5910283 1.5896241 1.5910283.8790677 0 1.5938369-.7133648 1.5938369-1.5910283v-8.25565384c0-.49570434.1151494-2.98405585 2.373202-2.98405585.8931104 0 1.5924327-.6824711 1.5924327-1.55732606 0-.89451462-.7161734-1.62192212-1.5924327-1.62192212zm-11.9404361 6.2461555c-.3243845 0-6.1913893.02668096-6.1913893.02668096.037915 0 .0238724-.57293872.0238724-.57293872 0-1.8564338 1.6500074-2.52064953 3.0669073-2.52064953 1.428134 0 3.1006096.66421576 3.1006096 2.52064956v.54625775zm-3.1006096-6.2461555c-1.6261349 0-3.151163.51676826-4.3068703 1.45762352-1.2554098 1.0447706-1.943498 2.55294754-1.943498 4.24227422v4.75623396c0 1.7075821.7021308 3.2059292 1.9772003 4.2127847 1.1458775.8776635 2.6259692 1.3410698 4.273168 1.3410698 2.7663953 0 4.9584476-1.2652396 5.857175-3.3786533.0056171-.0224682.0772344-.488683.0772344-.488683 0-.8804721-.7147691-1.5966455-1.5938369-1.5966455-.6220878 0-1.1894095.3679166-1.4506022.9324297-.5869813 1.2146863-2.2159247 1.3523039-2.8899703 1.3523039-.9211956 0-3.0669073-.2359159-3.0669073-2.3746063v-1.3115803c.3285972 0 8.0169294-.00561706 8.0169294-.00561706.7821737-.13340485 1.3298357-.789195 1.3298357-1.56294313v-1.87609344c0-1.68932668-.6908967-3.1975036-1.9434981-4.24227422-1.1528987-.94085526-2.6933737-1.45762352-4.3363597-1.45762352z"/>
  <g id="nrk-tv-super__symbol">
    <path id="nrk-tv-super__symbol__circle" d="M71.9039755 35.0505347c-8.3651862 0-15.17023778-6.8064559-15.17023778-15.1688335 0-8.3679948 6.80505158-15.17304638 15.17023778-15.17304638 8.3665905 0 15.1730464 6.80505158 15.1730464 15.17304638 0 8.3623776-6.8064559 15.1688335-15.1730464 15.1688335zm0-34.0505347C61.49699298 1 53.0250829 9.4676973 53.0250829 19.8817012c0 10.4111953 8.47191008 18.8774883 18.8788926 18.8774883 10.4111954 0 18.8817012-8.466293 18.8817012-18.8774883C90.7856767 9.4676973 82.3151709 1 71.9039755 1z"/>
    <path id="nrk-tv-super__symbol__stjerne" d="M79.3886897 18.0814378c-.129192-.0028085-.2710225-.1095324-.3159588-.2246818l-.91277-2.3717978c-.0435322-.1151495-.1207665-.1151495-.1671072 0l-.9085572 2.3717978c-.0463406.1151494-.1881711.2218733-.3145546.2246818l-2.5318836.1376177c-.1291921.0028085-.1530645.0772343-.053362.1586815l1.9687748 1.5938369c.1011068.0828514.155873.2499586.1221707.3763421l-.6543859 2.4434151c-.0337023.1291921.026681.1699157.1334049.0982984l2.1288605-1.3761764c.1067239-.0716173.2822566-.0716173.3889805 0l2.1288605 1.3761764c.1067239.0716173.1671072.0308937.1348091-.0982984l-.6557901-2.4434151c-.0337023-.1263835.0224682-.2934907.123575-.3763421l1.9659662-1.5938369c.1011068-.0814472.0786387-.155873-.0491491-.1586815l-2.5318837-.1376177z"/>
    <path id="nrk-tv-super__symbol__eye" d="M65.6086709 17.0015607c-1.5980497 0-2.8983959 1.2975377-2.8983959 2.8983959 0 1.5966454 1.3003462 2.8913745 2.8983959 2.8913745 1.5994539 0 2.8927788-1.2947291 2.8927788-2.8913745 0-1.6008582-1.2933249-2.8983959-2.8927788-2.8983959z"/>
  </g>
</svg>
