<svg xmlns="http://www.w3.org/2000/svg" viewBox="0 0 78 18">
  <title>NRK TV</title>
  <path id="nrk-tv__nrk" d="M42.2742596 9.74557357c-.3356098-.56857166-.3548444-.91815595-.0311732-1.46706074L46.6898059 1h-6.168986s-3.7062998 6.0560727-4.2130308 6.89754993c-.5018671.84037234-.4802006 1.3636439.0205611 2.22721877C36.8350812 10.9872386 40.5208199 17 40.5208199 17h6.168986s-4.3669072-7.1647101-4.4155463-7.25442643  M29.6477692 17h5.6102996V1h-5.6102996z  M26.1274035.69c-1.746365 0-3.1597731 1.42667336-3.1597731 3.1880722 0 1.7602934 1.4134081 3.1913885 3.1597731 3.1913885 1.749239 0 3.1686165-1.4310951 3.1686165-3.1913885C29.29602 2.11667336 27.8766425.69 26.1274035.69  M17.004034 17h5.6069833V1H17.004034z  M1 17h5.59659222V1H1z  M13.648378 3.5706157C13.3611862 2.10443885 12.0786614 1 10.54144467 1h-3.6045998l3.62206566 16h6.09293217L13.648378 3.5706157z"/>
  <path id="nrk-tv__tv" d="M64.4518166 1.00094727h2.1365612l4.2257701 13.67979743L75.127008 1.00094727h2.0785011L72.0138963 17.0186123h-2.4301926L64.4518166 1.00094727  M56.80169507 2.87124137H51.829473v-1.8702941h12.005099v1.8702941h-4.96865284V17.0186123h-2.0642241V2.87124137"/>
</svg>
