<svg xmlns="http://www.w3.org/2000/svg" viewBox="0 0 15 15">
      <path fill="none" stroke="currentColor" d="M11.85 11.9654385c-1.0528926 1.1425514-2.5619225 1.8583087-4.2381264 1.8583087-3.182195 0-5.7618736-2.5796787-5.7618736-5.7618736C1.85 4.8796786 4.4296787 2.5 7.6118736 2.5" stroke-linecap="round"/>
      <path fill="currentColor" d="M6.1592528 9.5l.375-2.24c-.2633347.133334-.533332.2166665-.81.25l-.01-.44c.1833342-.046667.3766656-.1258328.58-.2375.2033343-.1116672.376666-.239166.52-.3825h.49l-.51 3.05h.63l-.085.5h-1.985l.085-.5h.72zm1.745-.8l.545-2.25h1.8l-.13.56h-1.275l-.245.945c.1833342-.1466674.4066653-.22.67-.22.2500012 0 .4433326.0749992.58.225.1366673.1500007.205.363332.205.64 0 .4600023-.1391653.8191654-.4175 1.0775-.2783348.2583346-.617498.3875-1.0175.3875-.1866676 0-.3708325-.0324997-.5525-.0975-.1816676-.0650003-.3358327-.159166-.4625-.2825l.28-.42c.276668.1700008.5283322.255.755.255.2233344 0 .411666-.0699993.565-.21.153334-.1400007.23-.3449987.23-.615 0-.3100016-.1449986-.465-.435-.465-.190001 0-.361666.0699993-.515.21l-.065.26h-.515zm2.335.925l.355-.405c.2533346.2166677.513332.325.78.325.1266673 0 .223333-.028333.29-.085.066667-.056667.1-.1299996.1-.22 0-.066667-.0208332-.1216665-.0625-.165-.041667-.0433335-.085833-.0741666-.1325-.0925s-.1199995-.0425-.22-.0725c-.0233335-.0066667-.04-.0116667-.05-.015-.2300012-.0700003-.4024995-.1583328-.5175-.265-.1150006-.1066672-.1725-.2566657-.1725-.45 0-.2800014.1033323-.496666.31-.65.2066677-.153334.4733317-.23.8-.23.4133354 0 .7366655.1266654.97.38l-.345.39c-.2266678-.180001-.4483323-.27-.665-.27-.2633347 0-.395.0866658-.395.26 0 .0800004.030833.1416664.0925.185s.1891657.0949997.3825.155c.2366678.076667.4158327.1674995.5375.2725.1216672.1050005.1825.2641656.1825.4775 0 .2900015-.107499.5149992-.3225.675-.215001.1600008-.4874984.24-.8175.24-.2166678 0-.4241657-.0416663-.6225-.125-.1983344-.0833337-.3574994-.1883327-.4775-.315z"/>
      <path fill="currentColor" d="M7 1.0824214c0-.5541333.358083-.7349656.798595-.4048038l2.0359394 1.525927c.2187847.1639782.2224493.427073 0 .5937727L7.798595 4.3230147C7.3575432 4.6535313 7 4.4745867 7 3.9181207V1.0824216z"/>
      <path fill="currentColor" d="M10 1.090223c0-.5509345.356812-.7307305.7957605-.402484l2.028713 1.5170748c.218008.163027.2216597.4246027 0 .5903448l-2.028713 1.516933C10.356274 4.6407096 10 4.462806 10 3.9095523V1.090223z"/>
</svg>
