<svg xmlns="http://www.w3.org/2000/svg" style="width:2.6em;height:2.6em" viewBox="0 0 26 26">
  <path fill="currentColor" fill-rule="evenodd" d="M0 26h26V0H0v26zm19.975-8.06c.175.302.183.485.007.78-.122.203-.71 1.198-1.104 1.842h-2.446l1.34-2.202-1.39-2.331 1.246-2.042H14.61l-1.252-2.1h5.73s.797 1.284.887 1.438c.175.302.183.484.007.778l-1.176 1.95c.392.64 1.047 1.678 1.17 1.887zm-4.38 1.001c-.117.197-.753 1.237-1.132 1.857-.379-.62-1.014-1.66-1.133-1.857-.169-.283-.161-.459.007-.75.118-.201.75-1.233 1.126-1.85.377.617 1.008 1.649 1.126 1.85.168.291.176.467.007.75zm-2.537-3.88c-.176.292-1.467 2.404-1.467 2.404H8.913l1.548-2.538c.114-.191.107-.313-.01-.51-.017-.032-1.538-2.53-1.538-2.53h2.678c1.27 2.073 1.27 2.073 1.46 2.397.174.3.182.483.007.776zm-6.874 5.5h2.384v-8.673H6.184v8.674zm0-10.015h1.702V5.673H6.184v4.873zm2.895-4.874c.467 0 .856.337.943.784l.912 4.087v.003h-1.85L7.987 5.672h1.093zm1.962 4.874h1.701V5.673h-1.701v4.873zm2.77-4.974c.53 0 .962.435.962.971a.968.968 0 0 1-.963.972.966.966 0 0 1-.96-.972c0-.536.43-.97.96-.97zm1.068 4.974h1.703V5.673h-1.703v4.873zM16.9 7.773c.154-.256 1.279-2.1 1.279-2.1h1.872L18.702 7.89c-.099.167-.092.273.009.446.015.028 1.34 2.21 1.34 2.21H18.18s-1.119-1.83-1.272-2.094c-.153-.263-.16-.422-.007-.679z"/>
</svg>
