<svg xmlns="http://www.w3.org/2000/svg" style="width:11em;height:1.6em" viewBox="0 0 110 16">
    <path d="M31.0878023 8.55918018c-.2517074-.42642875-.2661333-.68861697-.02338-1.10029556L34.399462 2h-4.6267395s-2.7797248 4.54205453-3.1597731 5.17316245c-.3764003.63027925-.3601505 1.02273292.0154208 1.67041405C27.0084185 9.49042897 29.7727225 14 29.7727225 14h4.6267395s-3.2751804-5.37353258-3.3116597-5.44081982M21.5941377 14h4.2077247V2h-4.2077247m-2.653584-.22989127c-1.3163763 0-2.3817762 1.07539896-2.3817762 2.40310754 0 1.32687533 1.0653999 2.4056073 2.3817762 2.4056073 1.3185428 0 2.3884423-1.07873197 2.3884423-2.4056073 0-1.32770858-1.0698995-2.40310754-2.3884423-2.40310754M12.0635332 14h4.2052375V2h-4.2052375M0 14h4.19744416V2H0m9.50872938 1.92796177C9.29333553 2.82832914 8.33144198 2 7.17852938 2H4.47507953l2.71654925 12h4.56969912L9.50872938 3.92796177zM101.0052867 2.00677923h1.2707214v5.24703022h2.3098008l3.0693827-5.24703022h1.4188704l-3.3824811 5.7465516 3.9760953 6.24607297h-1.4514529l-3.6304144-5.64582503h-2.3098008v5.64582503h-1.2707214V2.00677923M91.345055 11.5286271c1.0716621.9566047 2.1942345 1.5171273 3.4481555 1.5171273 1.4855629 0 2.607117-.7753641 2.607117-2.19423446 0-1.25392098-.5773229-1.81495262-2.755266-2.47525936-2.5913349-.79216445-3.6141231-1.5838198-3.6141231-3.3493894 0-2.04659455 1.6337119-3.18545822 3.7953638-3.18545822 1.5181455 0 2.8051581.56154074 3.7953637 1.6998953l-.7427814.77536406c-.8583479-.97340516-1.9967025-1.3857787-3.0357819-1.3857787-1.4030882 0-2.4757685.65979765-2.4757685 1.99670244 0 1.3699965 1.0238064 1.7161866 3.0536005 2.40907595 2.4248582.82525618 3.3000064 1.63371193 3.3000064 3.39826333 0 2.09597758-1.584838 3.39979058-3.9603131 3.39979058-1.6836041 0-3.1523665-.725981-4.1425721-1.7818609l.7269992-.8242379m-4.2230103 2.4707767h1.2707214V2.00677923h-1.2707214m-9.9524569 9.52184787c1.0731894.9566047 2.1957618 1.5171273 3.4496828 1.5171273 1.4845447 0 2.607117-.7753641 2.607117-2.19423446 0-1.25392098-.577832-1.81495262-2.7562843-2.47525936-2.5903166-.79216445-3.6136139-1.5838198-3.6136139-3.3493894 0-2.04659455 1.6337119-3.18545822 3.7953638-3.18545822 1.5181455 0 2.8051581.56154074 3.7953637 1.6998953l-.7427814.77536406c-.8578388-.97340516-1.9967025-1.3857787-3.0368001-1.3857787-1.40207 0-2.4747503.65979765-2.4747503 1.99670244 0 1.3699965 1.0232973 1.7161866 3.0525823 2.40907595 2.4263855.82525618 3.3000064 1.63371193 3.3000064 3.39826333 0 2.09597758-1.5838198 3.39979058-3.9592949 3.39979058-1.6836041 0-3.1518574-.725981-4.1425721-1.7818609l.725981-.8242379m-9.494264 0c1.0721712.9566047 2.1942344 1.5171273 3.4481554 1.5171273 1.4850538 0 2.6071171-.7753641 2.6071171-2.19423446 0-1.25392098-.577323-1.81495262-2.7557752-2.47525936-2.5903167-.79216445-3.6131048-1.5838198-3.6131048-3.3493894 0-2.04659455 1.6332028-3.18545822 3.7948546-3.18545822 1.5181455 0 2.8046491.56154074 3.7953638 1.6998953l-.7422724.77536406c-.858857-.97340516-1.9972115-1.3857787-3.036291-1.3857787-1.4030882 0-2.4752593.65979765-2.4752593 1.99670244 0 1.3699965 1.0227881 1.7161866 3.0525823 2.40907595 2.4253672.82525618 3.3000064 1.63371193 3.3000064 3.39826333 0 2.09597758-1.5838198 3.39979058-3.9603132 3.39979058-1.6830949 0-3.1518574-.725981-4.1415539-1.7818609l.7264902-.8242379m-4.5417089-2.1261562l-2.029285-5.94646295-2.0297942 5.94646295h4.0590792zm-1.3699965-7.39569167l4.3401041 11.99262457h-1.352687l-1.253921-3.43086908h-4.7860784l-1.2208293 3.43086908h-1.3699965l4.3065033-11.99262457h1.3369048zm-11.9868329 0V12.8502991h5.5436238v1.1491047h-6.8143452V2.00677923h1.2707214m-11.51285792 0h1.27072138v5.24703022h2.31030995l3.0688736-5.24703022h1.4193795l-3.3829902 5.7465516 3.97660444 6.24607297h-1.4519621l-3.62990522-5.64582503h-2.31030994v5.64582503H38.2639276V2.00677923"/>
</svg>
