<svg xmlns="http://www.w3.org/2000/svg" viewBox="0 0 83 34">
  <title>NRK 3</title>
  <path id="nrk-tv-3__nrk" d="M29.6477692 26h5.6102996V10h-5.6102996z  M42.2742596 18.74557357c-.3356098-.56857166-.3548444-.91815595-.0311732-1.46706074L46.6898059 10h-6.168986s-3.7062998 6.0560727-4.2130308 6.89754993c-.5018671.84037234-.4802006 1.3636439.0205611 2.22721877C36.8350812 19.9872386 40.5208199 26 40.5208199 26h6.168986s-4.3669072-7.1647101-4.4155463-7.25442643  M26.1274035 9.69c-1.746365 0-3.1597731 1.42667336-3.1597731 3.1880722 0 1.7602934 1.4134081 3.1913885 3.1597731 3.1913885 1.749239 0 3.1686165-1.4310951 3.1686165-3.1913885 0-1.76139884-1.4193775-3.1880722-3.1686165-3.1880722  M17.004034 26h5.6069833V10H17.004034z  M1 26h5.59659222V10H1z  M16.6505162 25.9896141L13.648378 12.5706157C13.3611862 11.10443885 12.0786614 10 10.54144467 10h-3.6045998l3.62206566 16h6.09293217l-.0013265-.0103859"/>
  <path id="nrk-tv-3__3" d="M66.0014675 1C57.16258528 1 50 8.1623595 50 16.9992098c0 8.8354958 7.16258528 15.9987583 16.0014675 15.9987583C74.8358344 32.9979681 82 25.8347056 82 16.9992098 82 8.1623595 74.8358344 1 66.0014675 1m.6607385 24.1916011h-7.06422854v-4.2797306H66.662206c.9777914 0 1.7721597-.7942991 1.7721597-1.7706104 0-.9777062-.7943683-1.7720052-1.7721597-1.7720052h-4.4356297l2.9640608-4.2825201h-5.59265964V8.8042147H72.3992328l-3.32463 4.7999651c2.1369134.9330748 3.6356821 3.0649204 3.6356821 5.5412644 0 3.3341034-2.7136849 6.0461569-6.0480789 6.0461569z"/>
</svg>
