<svg xmlns="http://www.w3.org/2000/svg" style="width:4.2em;height:2.6em" viewBox="0 0 42 26">
    <path d="M28.352701 23.1715076h-.6449036l.6495166 2.8678426h1.0917533v-.0019344l-.5386598-2.4067082c-.0517828-.2618898-.2816804-.4592-.5577064-.4592zm6.47731 0h-1.104699s-.6643968 1.0843132-.7544214 1.2346023c-.089876.15133-.0877927.245224.0025296.401614.0921078.154009.7518917 1.231626.7518917 1.231626h1.104699s-.780908-1.284749-.791771-1.300521c-.059223-.102822-.060413-.164723-.00372-.264122l.79549-1.3032zm-3.682826-.059074c-.314268 0-.567676.2551937-.567676.5710984 0 .3142678.253408.571396.567676.571396.313226 0 .5663367-.2571282.5663367-.571396 0-.3159047-.2531106-.5710985-.5663368-.5710985zm.6285355 2.9269166h1.006788v-2.8678426h-1.006788m-2.264752 2.8678426h1.0055975v-2.8678426h-1.0055975m-2.868438 2.8678426h1.006788v-2.8678426h-1.006788M35.733531 6.069505l3.5072407-2.3733766V.0387474H27.209909V3.258207h7.3960075L30.166586 5.947786v3.892933h4.228033c1.9161112 0 3.4758438 1.5597326 3.4758438 3.4768853v.4347967c0 1.9159623-1.5597326 3.4755462-3.4758438 3.4755462h-7.7520884v3.893826h7.7520884c4.0646495 0 7.3711577-3.3047227 7.3711577-7.3693722v-.4347967c0-3.606491-2.6046136-6.616141-6.0322458-7.2480992z"/>
    <path d="M29.0718566 9.840719V5.947786h-.047765c-4.0645008 0-7.3704138 3.3059128-7.3704138 7.3698183v12.721746h3.8950163v-12.721746c0-1.9171527 1.559138-3.4768853 3.475398-3.4768853h.047765zm-14.398436-.7783783h-.325428c-1.513902 0-2.973789.6026442-4.0682208 1.653775-1.094283-1.0511308-2.5537236-1.653775-4.0674767-1.653775h-.325874C2.640475 9.0623407 0 11.7028153 0 14.949952v6.171821h3.6381857v-6.171821c0-1.2398105 1.0084247-2.2479376 2.248235-2.2479376h.3258744c1.239811 0 2.24898 1.008127 2.24898 2.2479375v6.171821h3.6377394v-6.171821c0-1.239811 1.008871-2.247938 2.248979-2.247938h.325428c1.2398103 0 2.248235 1.008127 2.248235 2.247937v6.171821h3.638037v-6.171821c0-3.2471367-2.6404747-5.8876113-5.886272-5.8876113"/>
</svg>
