<svg xmlns="http://www.w3.org/2000/svg" viewBox="0 0 52 34">
  <title>
NRK mp3
  </title>
	<path id="nrk-radio-mp3__nrk" d="M35.1605673 28.91904453h-.7770081l.78256583 3.45530155h1.31539187v-.00233067l-.64900075-2.8997067c-.06239013-.31553624-.3393808-.55326414-.67194886-.55326414z  M42.96471178 28.91904453h-1.3309894s-.80049403 1.30642777-.90895963 1.48750256c-.1082863.18232973-.10577637.2954567.0030478.48388202.11097554.18555685.90591183 1.48391693.90591183 1.48391693h1.3309894s-.94087182-1.5479206-.9539594-1.56692448c-.07135423-.12388386-.0727885-.19846516-.00448205-.31822553l.95844145-1.57015156z  M38.52748283 28.84786958c-.37864353 0-.68396074.3074686-.68396074.68808423 0 .37864358.3053172.6884428.6839607.6884428.37738857 0 .6823472-.30979922.6823472-.6884428 0-.3806156-.30495863-.6880842-.6823472-.6880842z  M39.2847699 32.37434608h1.21302187v-3.45530155H39.2847699z  M36.5560982 32.37434608h1.2115876v-3.45530155h-1.2115876z  M33.10007952 32.37434608h1.21302187v-3.45530155h-1.2130219z"/>
    <path id="nrk-radio-mp3__mp3" d="M44.0533119 8.31380828l4.2256763-2.85954755V1.047689H33.7836817v3.87894487h8.9110314l-5.3486985 3.24052175v4.69037508h5.0941181c2.308614 0 4.1878477 1.8792337 4.1878477 4.1891027v.5238619c0 2.3084348-1.8792337 4.1874892-4.1878477 4.1874892h-9.3400532v4.6914508h9.3400532c4.8972665 0 8.8810913-3.9816735 8.8810913-8.87894v-.5238619c0-4.3452573-3.1381517-7.97141457-7.2679121-8.73282512z  M36.0270371 12.8575307V8.16715562h-.0575495c-4.8970872 0-8.8801949 3.98310768-8.8801949 8.87947778v15.3277127h4.692885V17.0466334c0-2.309869 1.8785166-4.1891027 4.1873099-4.1891027h.0575495z  M18.6791751 11.9197067h-.3920897c-1.8240148 0-3.5829503.726092-4.9015693 1.9925399-1.3184396-1.2664479-3.07683726-1.9925399-4.90067282-1.9925399h-.39262753C4.1813587 11.9197067 1 15.1010654 1 19.0133567v7.4360786h4.38344435v-7.4360786c0-1.4937774 1.21499396-2.7084128 2.7087714-2.7084128h.39262753c1.49377744 0 2.70966782 1.2146354 2.70966782 2.7084128v7.4360786h4.3829065v-7.4360786c0-1.4937774 1.2155318-2.7084128 2.7096678-2.7084128h.3920897c1.4937774 0 2.7087714 1.2146354 2.7087714 2.7084128v7.4360786h4.3832651v-7.4360786c0-3.9122913-3.1813587-7.09365-7.0920365-7.09365"/>
</svg>