<svg xmlns="http://www.w3.org/2000/svg" viewBox="0 0 166 34">
  <title>
    NRK P13 Radioresepsjonen
  </title>
      <path id="nrk-radio-p13-radioresepsjonen__radioresepsjonen" d="M41.3769531 12.5945313h4.11c1.1400057 0 2.009997.2599974 2.61.78.600003.5200025.9 1.2349954.9 2.1449999 0 1.600008-.7299927 2.7899961-2.19 3.5700001l1.47 4.3049999h-2.805l-1.155-3.6899999c-.2600013.0400002-.5399985.06-.84.06h-.72l-.6 3.6299999h-2.58l1.8-10.7999999zm3.6 2.25h-1.395l-.465 2.835h1.32c.600003 0 1.0599984-.1524985 1.38-.4575.3200016-.3050016.48-.7324973.48-1.2825 0-.7300037-.4399956-1.0950001-1.32-1.095zm9.75 8.5499999l.015-.96c-.6700033.7700039-1.5099949 1.1550001-2.52 1.1550001-.8700043 0-1.5249978-.2674974-1.965-.8025001-.4400022-.5350026-.66-1.297495-.66-2.2874999 0-.8400042.1174988-1.5974967.3525-2.2725001.2350012-.6750033.5449981-1.2224978.93-1.6424999.385002-.4200022.8199976-.7424989 1.305-.9675.4850025-.2250012.9974973-.3375 1.5375-.3375.4400022 0 .8499981.092499 1.23.2775.3800019.1850009.6899988.4474983.93.7874999l.315-.8849999h2.04l-1.335 7.9349999h-2.175zm.12-2.5649999l.465-2.835c-.1200006-.1600009-.2874989-.3024994-.5025-.4275001-.215001-.1250006-.4624986-.1875-.7425-.1875-.2600013 0-.4974989.0574995-.7125.1725-.215001.1150006-.3874993.2624991-.5175.4425001-.1300006.1800008-.2374996.3899988-.3225.6299999-.0850004.2400012-.1449998.4799989-.18.72-.0350001.2400012-.0525.4899987-.0525.75 0 .9400047.3649964 1.41 1.095 1.41.2800014 0 .5499987-.0674993.81-.2025.2600013-.1350006.4799991-.2924991.66-.4724999zm8.955 2.5649999l.015-.96c-.6700033.7700039-1.5099949 1.1550001-2.52 1.1550001-.8700043 0-1.5249978-.2674974-1.965-.8025001-.4400022-.5350026-.66-1.297495-.66-2.2874999 0-.8400042.1149989-1.5974967.345-2.2725001.2300012-.6750033.5399981-1.2224978.93-1.6424999.390002-.4200022.8299976-.7424989 1.32-.9675.4900025-.2250012.9999974-.3375001 1.53-.3375001.800004 0 1.4399976.2899972 1.92.87l.585-3.5549999h2.475l-1.8 10.7999999h-2.175zm.12-2.5649999l.465-2.835c-.1200006-.1600009-.2874989-.3024994-.5025-.4275001-.2150011-.1250006-.4624986-.1875-.7425-.1875-.5600028 0-.9974984.2324977-1.3125.6975-.3150016.4650024-.4725 1.1174958-.4725 1.9575001 0 .9800048.3749963 1.4699999 1.125 1.4699999.5100026 0 .9899978-.2249977 1.44-.6749999zm5.1-7.155c0-.4400022.1599984-.7874988.48-1.0425.3200016-.2550013.7149977-.3825 1.185-.3825.3800019 0 .6849989.0899991.915.2699999.2300012.1800009.345.4349984.345.7650001 0 .4400022-.1549984.7849987-.465 1.035-.3100015.2500012-.7099975.375-1.2.375-.3700018 0-.6724988-.0899991-.9075-.27-.2350012-.180001-.3525-.4299985-.3525-.75zm2.325 1.785l-1.335 7.9349999h-2.475l1.335-7.9349999h2.475zm3.12 3.8999999c-.0500002.3000016-.075.5649989-.075.795 0 .4700024.1099989.8174989.33 1.0425001.2200011.2250011.5249981.3375.915.3375.9600048 0 1.544999-.6899932 1.755-2.07.0400002-.2200012.06-.4699986.06-.75 0-.9200046-.394996-1.38-1.185-1.38-.4600023 0-.8474984.1649983-1.1625.495-.3150016.3300016-.5274994.8399965-.6375 1.5299999zm-2.595.1200001c.0800004-.5800029.222499-1.1074977.4275-1.5825.205001-.4750024.4549985-.8724985.75-1.1925.2950015-.3200017.6374981-.589999 1.0275-.8100001.390002-.220001.789998-.3774995 1.2-.4725.4100021-.0950004.8399978-.1424999 1.29-.1424999 1.0600053 0 1.9024969.297497 2.5275.8924999.6250031.595003.9375 1.4224947.9375 2.4825 0 .2800015-.0199998.5499988-.06.8100001-.0800004.600003-.2249989 1.1349976-.435 1.605-.210001.4700023-.4599985.8599984-.75 1.1699999-.2900014.3100016-.6249981.569999-1.005.78-.3800019.2100011-.7749979.3574996-1.185.4425-.410002.0850005-.8499976.1275001-1.32.1275001-1.1200056 0-1.974997-.2874972-2.565-.8625001-.5900029-.5750028-.885-1.3924947-.885-2.4525 0-.2600012.0149999-.5249986.045-.7949999zm11.865-4.02l.09 1.0649999c.2500013-.3600018.5424983-.6574988.8775-.8924999.3350017-.2350012.6674984-.3525.9975-.3525.2800014 0 .5449988.0599994.795.18l-.57 2.2799999c-.2200011-.0800003-.4799985-.1199999-.78-.1199999-.2200011 0-.4599987.0724992-.72.2174999-.2600013.1450008-.4649992.3074992-.615.4875l-.855 5.07h-2.49l1.335-7.9349999h1.935zm8.88 5.535l.375 1.59c-1.1000055.6700033-2.2399941 1.005-3.42 1.005-1.0600053 0-1.8749971-.2874972-2.445-.8625001-.5700028-.5750028-.855-1.3824948-.855-2.4224999 0-1.4800075.4374957-2.6874954 1.3125-3.6225.8750044-.9350047 2.012493-1.4025 3.4125-1.4025.9500048 0 1.6774975.2424975 2.1825.7275.5050025.4850024.7575 1.0924963.7575 1.8225 0 .610003-.1499985 1.0924982-.45 1.4475-.3000015.3550017-.8099964.629999-1.53.8249999-.7200036.195001-1.7349934.3324997-3.045.4125001 0 .3000014.1149989.5524989.345.7574999.2300012.2050011.5549979.3075001.975.3075001.3600018 0 .7174983-.0449996 1.0725-.135.3550018-.0900005.7924974-.239999 1.3125-.45zm-3.675-2.1150001c.8600043-.0700003 1.3849991-.1199998 1.575-.1499999.6200031-.1100006.9699996-.3299984 1.05-.66.0200001-.0600004.03-.1249997.03-.195 0-.2100011-.0799992-.3799994-.24-.5100001-.1600008-.1300006-.3799986-.195-.66-.195-.4600023 0-.8474984.1599984-1.1625.48-.3150015.3200017-.5124996.7299975-.5925 1.23zm4.995 3.33l1.23-1.4099999c.3100016.2400011.6849978.4499991 1.125.63.4400022.1800008.8099985.2699999 1.11.2699999.3000015 0 .5174993-.0524994.6525-.1574999.1350007-.1050006.2025-.2474991.2025-.4275001 0-.1800008-.0799992-.3224994-.24-.4274999-.1600008-.1050006-.4699977-.2174995-.93-.3375001-.3000015-.0800003-.5624989-.1724994-.7875-.2774999-.2250011-.1050006-.4449989-.2374993-.66-.3975-.2150011-.1600008-.3799994-.3649988-.495-.6150001-.1150005-.2500012-.1725-.5399983-.1725-.8699999 0-.3800019.0649994-.7374984.195-1.0725.1300007-.3350017.3049989-.6124989.525-.8325.2200011-.2200012.4849985-.4049993.795-.555.3100016-.1500008.6399983-.2624997.99-.3375.3500018-.0750004.7149981-.1125 1.095-.1125.6400032 0 1.2224974.1074989 1.7474999.3224999.525003.2150011.967498.5074982 1.3275.8775001l-1.23 1.4249999c-.7800038-.4900024-1.4349972-.735-1.9649999-.735-.5500027 0-.825.1599984-.825.48 0 .1700009.0799992.3024996.24.3975.1600008.0950005.5199972.2374991 1.08.4275.2400012.0800005.4374993.1549997.5925.225.1550008.0700004.332499.1649994.5324999.285.200001.1200007.362499.2549993.4875.4050001.125001.1500007.23.3374988.315.5625.085001.2250011.1275.4774986.1275.7574999 0 .4700024-.099999.8899982-.3 1.26-.200001.3700019-.467498.6699989-.8024999.9000001-.3350016.2300011-.7174978.4074993-1.1475.5325-.4300021.1250006-.8899975.1875-1.38.1875-.7200036 0-1.3874969-.1274988-2.0025-.3825001-.615003-.2550012-1.0924983-.5874979-1.4325-.9975zm14.4449999-1.2149999l.375 1.59c-1.100005.6700033-2.239994 1.005-3.42 1.005-1.060005 0-1.874997-.2874972-2.445-.8625001-.570003-.5750028-.855-1.3824948-.855-2.4224999 0-1.4800075.437496-2.6874954 1.3125-3.6225.875004-.9350047 2.012493-1.4025 3.4125-1.4025.950005 0 1.677498.2424975 2.1825.7275.505003.4850024.7575 1.0924963.7575 1.8225 0 .610003-.149998 1.0924982-.45 1.4475-.300001.3550017-.809996.629999-1.53.8249999-.720003.195001-1.734993.3324997-3.045.4125001 0 .3000014.114999.5524989.345.7574999.230001.2050011.554998.3075001.975.3075001.360002 0 .717498-.0449996 1.0725-.135.355002-.0900005.792498-.239999 1.3125-.45zm-3.675-2.1150001c.860004-.0700003 1.384999-.1199998 1.575-.1499999.620003-.1100006.97-.3299984 1.05-.66.02-.0600004.03-.1249997.03-.195 0-.2100011-.079999-.3799994-.24-.5100001-.160001-.1300006-.379998-.195-.66-.195-.460002 0-.847498.1599984-1.1625.48-.315001.3200017-.512499.7299975-.5925 1.23zm8.565-.78l-.465 2.7750001c.130001.1500007.307499.2924993.5325.4274999.225001.1350007.477499.2025.7575.2025.540003 0 .964999-.2274977 1.275-.6824999.310002-.4550023.465-1.1374955.465-2.0475001 0-.9500047-.339996-1.425-1.02-1.425-.260001 0-.537498.0799993-.8325.2400001-.295001.1600007-.532499.3299991-.7125.5099999zm-1.38 8.295h-2.49l1.83-10.9349999h2.025l.12.915c.800004-.7300037 1.679995-1.095 2.64-1.095.760004 0 1.367498.2624973 1.8225.7874999.455002.5250027.6825 1.2974949.6825 2.3175001 0 1.0200051-.152498 1.9149961-.4575 2.685-.305001.7700038-.767497 1.3799977-1.3875 1.8299999-.620003.4500023-1.354996.675-2.205.675-.810004 0-1.469997-.2799972-1.98-.84l-.6 3.66zm6.87-4.185l1.23-1.4099999c.310002.2400011.684998.4499991 1.125.63.440002.1800008.809999.2699999 1.11.2699999.300002 0 .517499-.0524994.6525-.1574999.135001-.1050006.2025-.2474991.2025-.4275001 0-.1800008-.079999-.3224994-.24-.4274999-.160001-.1050006-.469998-.2174995-.93-.3375001-.300001-.0800003-.562499-.1724994-.7875-.2774999-.225001-.1050006-.444999-.2374993-.66-.3975-.215001-.1600008-.379999-.3649988-.495-.6150001-.115-.2500012-.1725-.5399983-.1725-.8699999 0-.3800019.064999-.7374984.195-1.0725.130001-.3350017.304999-.6124989.525-.8325.220001-.2200012.484999-.4049993.795-.555.310002-.1500008.639998-.2624997.99-.3375.350002-.0750004.714998-.1125 1.095-.1125.640003 0 1.222497.1074989 1.7475.3224999.525003.2150011.967498.5074982 1.3275.8775001l-1.23 1.4249999c-.780004-.4900024-1.434997-.735-1.965-.735-.550003 0-.825.1599984-.825.48 0 .1700009.079999.3024996.24.3975.160001.0950005.519997.2374991 1.08.4275.240001.0800005.437499.1549997.5925.225.155001.0700004.332499.1649994.5325.285.200001.1200007.362499.2549993.4875.4050001.125001.1500007.23.3374988.315.5625.085001.2250011.1275.4774986.1275.7574999 0 .4700024-.099999.8899982-.3 1.26-.200001.3700019-.467498.6699989-.8025.9000001-.335002.2300011-.717498.4074993-1.1475.5325-.430002.1250006-.889997.1875-1.38.1875-.720003 0-1.387497-.1274988-2.0025-.3825001-.615003-.2550012-1.092498-.5874979-1.4325-.9975zm9.285-8.5349999c0-.4400022.159999-.7874988.48-1.0425.320002-.2550013.714998-.3825 1.185-.3825.380002 0 .684999.0899991.915.2699999.230001.1800009.345.4349984.345.7650001 0 .4400022-.154998.7849987-.465 1.035-.310001.2500012-.709997.375-1.2.375-.370002 0-.672499-.0899991-.9075-.27-.235001-.180001-.3525-.4299985-.3525-.75zm2.355 1.785l-1.425 8.4749999c-.140001.8300042-.434998 1.4574979-.885 1.8825-.450002.4250022-1.089996.6375-1.92.6375-.580003 0-1.054998-.0649993-1.425-.195l.435-1.755c.200001.0500003.399999.075.6.075.220001 0 .3875-.0549994.5025-.165.115001-.1100005.1975-.3149984.2475-.6149999l1.41-8.34h2.46zm3.12 3.8999999c-.05.3000016-.075.5649989-.075.795 0 .4700024.109999.8174989.33 1.0425001.220001.2250011.524998.3375.915.3375.960005 0 1.544999-.6899932 1.755-2.07.04-.2200012.06-.4699986.06-.75 0-.9200046-.394996-1.38-1.185-1.38-.460002 0-.847498.1649983-1.1625.495-.315001.3300016-.527499.8399965-.6375 1.5299999zm-2.595.1200001c.080001-.5800029.222499-1.1074977.4275-1.5825.205001-.4750024.454999-.8724985.75-1.1925.295002-.3200017.637498-.589999 1.0275-.8100001.390002-.220001.789998-.3774995 1.2-.4725.410002-.0950004.839998-.1424999 1.29-.1424999 1.060005 0 1.902497.297497 2.5275.8924999.625003.595003.9375 1.4224947.9375 2.4825 0 .2800015-.02.5499988-.06.8100001-.08.600003-.224999 1.1349976-.435 1.605-.210001.4700023-.459998.8599984-.75 1.1699999-.290001.3100016-.624998.569999-1.005.78-.380002.2100011-.774998.3574996-1.185.4425-.410002.0850005-.849998.1275001-1.32.1275001-1.120005 0-1.974997-.2874972-2.565-.8625001-.590003-.5750028-.885-1.3924947-.885-2.4525 0-.2600012.015-.5249986.045-.7949999zm9.93-4.02h2.04l.06.945c.340002-.3200016.742498-.587499 1.2075-.8025001.465002-.215001.952498-.3224999 1.4625-.3224999.650003 0 1.157498.1724982 1.5225.5174999.365002.3450018.5475.8474968.5475 1.5075001 0 .2200011-.02.4399988-.06.66l-.915 5.4299999h-2.475l.765-4.605c.04-.2600013.06-.4349995.06-.5249999 0-.5800029-.264997-.8700001-.795-.8700001-.260001 0-.519999.0674994-.78.2025001-.260001.1350006-.454999.2724993-.585.4125l-.9 5.3849999h-2.49l1.335-7.9349999zm13.905 5.535l.375 1.59c-1.100005.6700033-2.239994 1.005-3.42 1.005-1.060005 0-1.874997-.2874972-2.445-.8625001-.570003-.5750028-.855-1.3824948-.855-2.4224999 0-1.4800075.437496-2.6874954 1.3125-3.6225.875004-.9350047 2.012493-1.4025 3.4125-1.4025.950005 0 1.677498.2424975 2.1825.7275.505003.4850024.7575 1.0924963.7575 1.8225 0 .610003-.149998 1.0924982-.45 1.4475-.300001.3550017-.809996.629999-1.53.8249999-.720003.195001-1.734993.3324997-3.045.4125001 0 .3000014.114999.5524989.345.7574999.230001.2050011.554998.3075001.975.3075001.360002 0 .717498-.0449996 1.0725-.135.355002-.0900005.792498-.239999 1.3125-.45zm-3.675-2.1150001c.860004-.0700003 1.384999-.1199998 1.575-.1499999.620003-.1100006.97-.3299984 1.05-.66.02-.0600004.03-.1249997.03-.195 0-.2100011-.079999-.3799994-.24-.5100001-.160001-.1300006-.379998-.195-.66-.195-.460002 0-.847498.1599984-1.1625.48-.315001.3200017-.512499.7299975-.5925 1.23zm6.525-3.4199999h2.04l.06.945c.340002-.3200016.742498-.587499 1.2075-.8025001.465002-.215001.952498-.3224999 1.4625-.3224999.650003 0 1.157498.1724982 1.5225.5174999.365002.3450018.5475.8474968.5475 1.5075001 0 .2200011-.02.4399988-.06.66l-.915 5.4299999h-2.475l.765-4.605c.04-.2600013.06-.4349995.06-.5249999 0-.5800029-.264997-.8700001-.795-.8700001-.260001 0-.519999.0674994-.78.2025001-.260001.1350006-.454999.2724993-.585.4125l-.9 5.3849999h-2.49l1.335-7.9349999z"/>
      <path id="nrk-radio-p13-radioresepsjonen__p13" d="M17.000728 1C25.8367988 1 33 8.16384772 33 17.000546 33 25.8354243 25.8367988 33 17.000728 33 8.1617453 33 1 25.8354243 1 17.000546 1 8.16384772 8.1617453 1 17.000728 1zm9.8264707 13.6288545l2.3229446-3.3555285h-8.1244824v2.4262884h3.4480185l-1.685609 2.4794295-.3880067.5736319h2.4095728c.9794804 0 1.7729651.7927477 1.7729651 1.771853 0 .9787413-.7934847 1.7736729-1.7729651 1.7736729h-3.7839756v2.4306562h4.1177487c2.3298603 0 4.226216-1.8952421 4.226216-4.2258039 0-1.7318152-1.0475454-3.2230399-2.5424269-3.8741995zm-9.9236544 8.1000034h2.7968515v-11.454804h-4.4679011v2.4273804h1.6710496v9.0274236zm-6.8505392-11.4420647H5.55562127v11.4420647H8.3663042v-9.0256037h1.4471996c1.1305337 0 1.6379271.6034783 1.6379271 1.5596529 0 .9685498-.5590791 1.557105-1.7008963 1.557105h-.5143091v2.2890681h.674098c2.9042268 0 4.3233996-1.5101517 4.3233996-3.974658 0-2.4179169-1.5425634-3.847629-4.180718-3.847629z"/>
</svg>
