<svg xmlns="http://www.w3.org/2000/svg" viewBox="0 0 83 34">
  <title>NRK 1</title>
  <path id="nrk-tv-nrk-1__nrk"  d="M42.2742596 17.74557357c-.3356098-.56857166-.3548444-.91815595-.0311732-1.46706074L46.6898059 9h-6.168986s-3.7062998 6.0560727-4.2130308 6.89754993c-.5018671.84037234-.4802006 1.3636439.0205611 2.22721877C36.8350812 18.9872386 40.5208199 25 40.5208199 25h6.168986s-4.3669072-7.1647101-4.4155463-7.25442643  M29.6477692 25h5.6102996V9h-5.6102996z  M26.1274035 8.69c-1.746365 0-3.1597731 1.42667336-3.1597731 3.1880722 0 1.7602934 1.4134081 3.1913885 3.1597731 3.1913885 1.749239 0 3.1686165-1.4310951 3.1686165-3.1913885 0-1.76139884-1.4193775-3.1880722-3.1686165-3.1880722  M17.004034 25h5.6069833V9H17.004034z M1 25h5.59659222V9H1z  M16.6505162 24.9896141L13.648378 11.5706157C13.3611862 10.10443885 12.0786614 9 10.54144467 9h-3.6045998l3.62206566 16h6.09293217l-.0013265-.0103859"/>
  <path id="nrk-tv-nrk-1__1" d="M66.0010461 1C57.16504304 1 50 8.16295086 50 17.0003487 50 25.8370491 57.16504304 33 66.0010461 33 74.8363517 33 82 25.8370491 82 17.0003487 82 8.16295086 74.8363517 1 66.0010461 1zm3.1027133 24.1745233h-5.7360793V13.1200392h-.0083688v-.0027896h-2.3767244V8.82617413h8.1211725V25.1745233z"/>
</svg>
