<svg xmlns="http://www.w3.org/2000/svg" style="width:8.6em;height:3.6em" viewBox="0 0 86 36">
  <g fill="currentColor" fill-rule="evenodd">
    <g transform="translate(0 9)">
      <path d="M41.274 9.746c-.335-.57-.355-.92-.03-1.467L45.69 1h-6.17s-3.705 6.056-4.212 6.898c-.502.84-.48 1.363.02 2.227.507.862 4.193 6.875 4.193 6.875h6.17s-4.367-7.165-4.416-7.254"/>
      <polygon points="28.6477692 17 34.2580688 17 34.2580688 1 28.6477692 1"/>
      <path d="M25.127.69c-1.746 0-3.16 1.427-3.16 3.188 0 1.76 1.414 3.19 3.16 3.19 1.75 0 3.17-1.43 3.17-3.19S26.876.69 25.126.69"/>
      <polygon points="16.004034 17 21.6110173 17 21.6110173 1 16.004034 1"/>
      <polygon points="0 17 5.59659222 17 5.59659222 1 0 1"/>
      <path d="M12.648 3.57C12.36 2.105 11.078 1 9.54 1H5.938L9.56 17h6.092L12.648 3.57z"/>
    </g>
    <path fill-rule="nonzero" d="M51.06 1H85v33.94H51.06V1zm19.15 11.153h-3.492l2.008 3.3c.15.26.16.413.016.666l-2.024 3.314h3.492s1.688-2.76 1.916-3.138c.227-.38.22-.625-.01-1.013-.244-.42-.252-.42-1.906-3.13zm10.943 1.873c-.118-.202-1.156-1.873-1.156-1.873h-7.483l1.636 2.742h3.94l-1.628 2.666 1.814 3.047-1.746 2.877h3.197c.515-.844 1.282-2.143 1.443-2.405.228-.39.22-.625-.01-1.02-.16-.27-1.01-1.63-1.526-2.465 0 0 1.375-2.278 1.536-2.548.228-.388.21-.624-.017-1.02zm-7.197 3.94c-.49.802-1.316 2.152-1.468 2.413-.22.38-.227.607-.008.978.152.253.987 1.61 1.476 2.42.498-.81 1.325-2.167 1.477-2.42.22-.37.21-.6-.01-.98-.15-.26-.97-1.602-1.467-2.412zm-9.938-5.813c-.32 0-.633.076-1.02.313-.254.16-2.355 1.94-2.515 2.075-.16-.134-2.253-1.914-2.514-2.074-.39-.237-.702-.313-1.022-.313H54.72v9.98l3.097-2.328v-4.007l2.666 2.008 2.666-2.008v7.677h3.112V12.153h-2.244z"/>
  </g>
</svg>
