<svg xmlns="http://www.w3.org/2000/svg" viewBox="0 0 164 34">
  <title>NRK Alltid nyheter</title>
  <path id="nrk-radio-alltid-nyheter__alltid-nyheter" d="M9.05202162 16.83421988l-.64591473-2.6048552c-.3013314-1.205612-.5596973-2.2823275-.8180632-3.46617032-.2583659 1.16236007-.53821454 2.34648932-.81806318 3.44468756l-.60294922 2.62633796h2.8849903zm5.89916348 5.08110032v1.5931608H8.85810398v-1.5931608l1.3133122-.5596973-.51644534-2.0669271H5.60733406l-.49524903 2.0669271 1.3133122.5596973v1.5931608H1v-1.5931608l1.2485775-.5596973 3.25105636-11.173895-1.07642905-.53821453V8.00738703h5.360949l3.8966846 13.34823587 1.2703467.5596973z  M19.5370364 21.4418404l1.205612.5596972v1.5069434h-5.5760629v-1.5069434l1.205612-.5596972V10.11727964l-1.205612-.53821453V8.00738708h4.3704509V21.4418404  M25.7804968 21.4418404l1.205612.5596972v1.5069434h-5.5760629v-1.5069434l1.205612-.5596972V10.11727964l-1.205612-.53821453V8.00738708h4.3704509V21.4418404  M31.8091297 12.11947206h2.3464893v2.2605583h-2.3464893v6.15752944c0 .6241455.2798486.8395459.9902116.8395459.4522835 0 .8398324-.0862175 1.2270948-.1721485l.3231005 2.1098926c-.8827978.2583659-1.7438265.4519971-2.6695898.4519971-2.0239617 0-3.0141733-.9472461-3.0141733-2.6910726v-6.69574393h-1.4210124v-1.70086103l1.4639779-.53821453.5811801-3.2080908h2.5192106v3.1866081  M39.5595335 9.1697471c0 1.0767155-.7965804 1.63641277-1.9162614 1.63641277-1.0546599 0-1.915975-.55969728-1.915975-1.63641278 0-1.0764291.8395459-1.6576091 1.915975-1.6576091 1.0981982 0 1.9162614.58118 1.9162614 1.6576091zm-.1721485 12.2503241l1.205612.5382145v1.5501953h-5.5760629v-1.5501953l1.205612-.5382145v-7.19070653l-1.205612-.53821452v-1.5716781h4.3704509v9.30059915z  M44.4899681 17.8032352c0 2.1098926.4734799 3.4446875 1.9374578 3.4446875.8398323 0 1.5072298-.5167317 1.8730094-.9472461v-4.88718268c-.3657796-.45228352-1.076429-1.03346355-1.9159749-1.03346355-1.1841293 0-1.8944923 1.0119808-1.8944923 3.42320483zm6.9323406 3.6386052l1.205612.5596972v1.5069434h-3.9614193l-.2151139-1.3133122c-.4952491.7321322-1.5287126 1.5716781-3.1651254 1.5716781-2.7125554 0-4.1335678-1.9807096-4.1335678-5.9206462 0-4.21978525 1.8730095-5.98509453 4.3274854-5.98509453 1.1411638 0 2.0884099.51673178 2.7987729 1.205612V10.1817279l-1.205612-.6026628V8.00738704h4.3489681V21.4418404z  M67.8064871 15.69334256v5.76998054l1.205612.5382145v1.5069434h-4.370451v-7.21247565c0-1.33479495-.3875488-1.87300948-1.3995296-1.87300948-.8827979 0-1.6361263.64591472-1.9807097 1.03346356v5.98538097l1.205612.5596972v1.5069434h-5.5545801v-1.5069434l1.205612-.5596972v-7.21247573l-1.205612-.53821452v-1.5716781h3.8322364l.2154003 1.27006027h.0429655c.839546-.88251143 1.9807097-1.52842615 3.4017221-1.52842615 2.3897412 0 3.4017221 1.44249514 3.4017221 3.8322364  M79.8849491 13.7126329l-.8827978.53821453-3.2940219 9.47303397c-1.0334635 2.9709213-1.8085612 4.241268-4.1335678 4.241268-.9257633 0-1.6793782-.1506657-2.2390755-.3013314l.3228141-2.3038102c.3228142.0647347.8398324.1506657 1.3777605.1506657.6029492 0 1.0334635-.3228142 1.3347949-1.3777605l.1509521-.5382145-3.1433561-9.34385107-.8827979-.53821453v-1.59316084h5.231766v1.5716781l-.9687288.5382145L74.4163 20.516077h.0432519l1.7438265-6.28671233-.9690153-.53821452v-1.5716781h4.650586v1.59316085  M84.0405725 13.13145287h.0429655c.7965805-.75361492 1.8085613-1.2703467 3.0786215-1.2703467 2.3900277 0 3.3802393 1.44249514 3.3802393 3.8322364v5.76998053l1.205612.5382145v1.5069434h-4.3489681v-7.21247565c0-1.33479495-.3875489-1.87300948-1.3992432-1.87300948-.8827979 0-1.6149301.64591472-1.959227 1.03346356v5.98538097l1.1623601.5596972v1.5069434h-5.5113282v-1.5069434l1.205612-.5596972V10.11727964l-1.205612-.53821453V8.00738708h4.3489681v5.12406584  M95.5805337 16.74828887h3.4446875c-.0214827-1.65789552-.3231006-2.6695899-1.5931608-2.6695899-1.4210124 0-1.8515267 1.33479495-1.8515267 2.6695899zm6.4156083.38754883c0 .4090316 0 1.0979118-.064448 1.5069434h-6.415895c.0647347 1.6578955.7750976 2.7128418 2.411224 2.7128418.9260498 0 1.8515267-.2798486 3.0141732-.8180631l.6673978 1.9807096c-1.2056123.7965804-2.5833728 1.2485775-4.2842338 1.2485775-3.2080909 0-5.1455486-1.8085612-5.1455486-5.8991635 0-3.87520186 1.9592269-6.00657723 5.1885141-6.00657723 3.0789079 0 4.6288163 1.76530928 4.6288163 5.27473153z  M107.228195 12.11947206h2.346776v2.2605583h-2.346776v6.15752944c0 .6241455.279849.8395459.990212.8395459.452283 0 .839832-.0862175 1.227381-.1721485l.322814 2.1098926c-.882798.2583659-1.743827.4519971-2.66959.4519971-2.023962 0-3.014173-.9472461-3.014173-2.6910726v-6.69574393h-1.421013v-1.70086103l1.463978-.53821453.581467-3.2080908h2.518924v3.1866081  M113.406921 16.74828887h3.444974c-.02177-1.65789552-.323101-2.6695899-1.593448-2.6695899-1.420726 0-1.851526 1.33479495-1.851526 2.6695899zm6.415895.38754883c0 .4090316 0 1.0979118-.064735 1.5069434h-6.415609c.064449 1.6578955.775098 2.7128418 2.411224 2.7128418.925764 0 1.851527-.2798486 3.014174-.8180631l.667397 1.9807096c-1.205612.7965804-2.583372 1.2485775-4.284233 1.2485775-3.208091 0-5.145835-1.8085612-5.145835-5.8991635 0-3.87520186 1.959227-6.00657723 5.1888-6.00657723 3.078622 0 4.628817 1.76530928 4.628817 5.27473153z  M128.60697 12.0979893l-.215114 2.90647304c-.323101-.0647347-.68888-.1077002-1.011981-.1077002-.968729 0-1.851527.3442969-2.432707 1.2485775v5.29650076l1.765309.5596972v1.5069434H120.5982v-1.5069434l1.205612-.5814664v-7.19070653l-1.205612-.51673177v-1.59316084h3.659802l.366066 1.67937828h.043252c.624145-1.29182945 1.743826-1.91626142 2.820255-1.91626142.387549 0 .775098.06444826 1.119395.2154004"/>
  <path id="nrk-radio-alltid-nyheter__nrk-nyheter" d="M148.110444 1.27497922c8.631196 0 15.330377 7.0649608 15.330377 15.71907228 0 8.5853668-7.225079 15.227547-15.719072 15.227547-8.585367 0-15.31892-6.8936716-15.31892-15.4790384 0-8.73402732 7.122248-15.46758088 15.707615-15.46758088zm4.035606 10.34609298c-.240034.3886946-.217405.4915254-.034372.8343901l1.303286 2.2064218c.011458.0229149.034373.0343724.091374.0343724h1.920558s.057287-.0114575.011457-.0687448l-1.383203-2.32071c-.125745-.2056616-.137203-.2514915-.057287-.4342381l1.44049-2.3436249c.011458-.0343724 0-.05728734-.034372-.05728734h-1.897643c-.079916 0-.102831.05728733-.102831.05728733l-1.257457 2.0921335zm-6.287572-2.0921335v5.098573c0 .0687448 0 .0687448.045544.0687448h1.680524c.04583 0 .04583 0 .04583-.0687448v-5.098573c0-.05728734 0-.05728734-.04583-.05728734h-1.680524c-.045544 0-.045544 0-.045544.05728733zm-5.224605 0v5.098573c0 .0687448 0 .0687448.057288.0687448h1.783354V9.47165136h-1.783354c-.057288 0-.057288 0-.057288.05728733zm-1.234542 12.2781084V17.428576l.434238-.1257457v-.6061h-1.783355v.6061l.423067.1257457v2.6750322l-1.680524-3.4068779h-1.531863v.6061l.423067.1257457v3.6351679l-.423067.1142883v.6290149h1.771897v-.6290149l-.411609-.1142883v-2.3891683h.011457l1.612066 3.1324715h1.154626zm4.378471-3.1897589v-.640186h-1.48632v.6172711l.331694.1031172-.6061 2.1720494h-.022629l-.56027-2.1720494.354322-.0916597v-.6287286h-1.86327v.6287286l.285577.1031172 1.028881 3.2238448-.068459.1827467c-.10283.2285764-.228576.3087787-.480067.3087787-.240034 0-.502983-.1142882-.628729-.1486606l-.228863.7773891c.228863.1028308.628729.2514914 1.097625.2514914.822933 0 1.211628-.4800679 1.543321-1.497491l1.017423-3.1095566.285864-.0802023zm-.04583-3.9897765c.011458.0687448.057288.0687448.057288.0687448h1.840355c.057288 0 .057288-.0687448.057288-.0687448l-.983337-4.2982689c-.102831-.52589776-.468611-.85759144-.971594-.85759144h-1.097339c-.057287 0-.057287 0-.057287.05728733l1.154626 5.098573zm4.241268 7.1795354v-.6175574l-.434524-.1142883v-1.9434729c0-.83439-.36578-1.2345421-1.074424-1.2345421-.468897 0-.743017.1715756-1.028881.457153h-.034372v-1.6576091h-1.508949v.5946425l.422781.1142883v3.6695403l-.422781.1142883v.6175574h1.989017v-.6175574l-.445696-.1142883v-2.0233887c.114289-.1028308.31995-.2285765.582899-.2285765.274406 0 .400152.1598317.400152.5943561v2.3894548h1.554778zm-.171575-11.4322609c0 .4803543.320236 1.0062521 1.02888 1.0062521.594643 0 .994795-.4688969.994795-.9718797 0-.60581356-.400152-1.06325295-1.005966-1.06325295-.503269 0-1.017709.33169368-1.017709 1.02888055zm2.149421 8.3567903c.400152 0 .525897.2629488.525897.7773891h-1.063253c.011458-.4227805.125746-.7773891.537356-.7773891zm.274406 2.2522516c-.583185 0-.800304-.3202362-.823219-.7773891h2.057761c.022915-.1715756.04583-.4116096.04583-.5602702 0-1.1775412-.51444-1.7489824-1.520692-1.7489824-1.062967 0-1.748983.7201018-1.748983 2.0004738 0 1.3720317.708931 1.9893028 1.829185 1.9893028.605813 0 1.085881-.1830331 1.429032-.3772371l-.217405-.7659317c-.388695.1598316-.754474.2400339-1.051509.2400339zm1.543321-6.3563164v-5.098573c0-.05728734-.04583-.05728734-.04583-.05728734h-1.748982s-.04583 0-.04583.05728733v5.098573c0 .0687448.04583.0687448.04583.0687448h1.748982s.04583 0 .04583-.0687448zm1.691695 7.2594513c.274406 0 .788847-.0799159 1.040338-.2514914l-.205662-.7201019c-.137203.0570009-.297321.1142883-.46861.1142883-.274406 0-.377237-.1257457-.377237-.4688969v-1.7375249h.845847v-.846134h-.845847v-.9145923h-.880507l-.194204.9145923h-.56027v.846134h.514441v1.897643c0 .8003041.320236 1.1660838 1.131711 1.1660838zm2.915352-3.1553865c.400153 0 .525898.2629488.525898.7773891h-1.063253c.011458-.4227805.125746-.7773891.537355-.7773891zm.274407 2.2522516c-.583185 0-.800304-.3202362-.823219-.7773891h2.057761c.022915-.1715756.04583-.4116096.04583-.5602702 0-1.1775412-.514441-1.7489824-1.520406-1.7489824-1.063253 0-1.749269.7201018-1.749269 2.0004738 0 1.3720317.708931 1.9893028 1.829185 1.9893028.605813 0 1.086168-.1830331 1.429032-.3772371l-.217119-.7659317c-.388694.1598316-.75476.2400339-1.051795.2400339zm3.909574-1.9091005c.068745 0 .297321.0114575.400152.022915v-1.1660838s-.160118-.0343724-.342865-.0343724c-.388694 0-.70893.2514914-.846134.7201018h-.034085l-.148661-.640186h-1.234829v.6287286l.400152.1031172v2.3777109l-.400152.1028308v.6175574h2.126506v-.6175574l-.605813-.1257458v-1.6461516c.137203-.2514914.377237-.3428647.685729-.3428647z"/>
</svg>
