<svg xmlns="http://www.w3.org/2000/svg" style="width:7.9em;height:2.0em" viewBox="0 0 79 20">
    <path d="M76.4849327 16.2308433c.7480963 0 1.4438294-.1218829 2.1745903-.3654699l-.2609222-1.8092991c-.2957714.0695197-.5915429.1392181-.9221635.1392181-.5566937 0-.7654315-.1914026-.7654315-.6437274V9.0978368h1.9485172V7.18399004h-1.9485172V5.02673496h-2.0528862l-.46966 2.15725507H73.040223l-.1218829 1.91384678h1.1655719v4.906053c0 1.4266728.730761 2.2269535 2.4010207 2.2269535zm-5.4629254-.2089165v-1.3743096l-1.4788572-.3306207V10.419962c.4176543-.57402896 1.0613816-.8002807 1.7397795-.8002807.2784362 0 .5742076.05218444.8351299.08703364l.1740673-2.5227249c-.261101-.0695197-.5742077-.08703367-.8699791-.08703367-.817616 0-1.6875951.43498955-2.1224059 1.47885724h-.0348492l-.2262518-1.39182357h-2.9923849v1.37448833l.8873143.2782575V14.369181l-.8873143.2784362v1.3743096h4.9757514zm-10.0383578-1.7919639c-1.0090185 0-1.5832261-.7132471-1.5832261-2.6790996 0-1.931182.6088781-2.60975855 1.5832261-2.60975855 1.0090185 0 1.5832262.6612413 1.5832262 2.60975855 0 1.9658525-.5915429 2.6790996-1.5832262 2.6790996zm-.1043689 2.0008804c2.6270938 0 4.4537283-1.4961925 4.4537283-4.67998 0-3.25330718-1.6527459-4.57561107-4.2276552-4.57561107-2.6617643 0-4.4885775 1.4266728-4.4885775 4.73216447 0 2.9575357 1.6702598 4.5234266 4.2625044 4.5234266zm-9.6035469-2.0877354c-.574029 0-1.1829071-.2609222-1.4613433-.4698387V9.6893797c.3131067-.3132854.9916832-.60905685 1.5483769-.60905685.9046496 0 1.4266728.67857654 1.4266728 2.52272495 0 1.8266344-.5915429 2.5400601-1.5137064 2.5400601zm.0348492 5.2540089v-1.3744883l-1.5657122-.3304419v-2.2964732c.3479559.3131067 1.0785382.8351299 2.1745903.8351299 2.2269535 0 3.5839279-1.5483769 3.5839279-4.8191981 0-3.27082114-1.4266728-4.43639297-3.3228269-4.43639297-1.0091972 0-1.9833665.4523248-2.6270938 1.16557183h-.0348493l-.1738885-.95683403H46.300161v1.37448833l.9046495.2782575v8.92497044l-.9221635.2609222v1.3744883h5.0279359zm-9.9861734-3.1662735c2.7836472 0 4.4537283-1.444008 4.4537283-3.8970345 0-3.87969934-5.1496401-3.14911706-5.1496401-5.20200322 0-.6610626.4349896-1.21775628 1.5310417-1.21775628.3479559 0 .6783978.05218445 1.0612029.2087378l.3828051 1.14823658h1.8092992v-2.5573954c-.9916832-.5220232-2.1050706-.8002807-3.3054916-.8002807-2.3488364 0-4.2973536 1.07853818-4.2973536 3.47938024 0 4.01891738 5.1844892 2.95771448 5.1844892 5.34122128 0 .9393201-.5566937 1.4786785-1.530863 1.4786785-.6263921 0-1.0787169-.1043689-1.3918236-.226073l-.4176543-1.4961925h-1.8266344v3.0270554c.8873144.4176544 2.1399199.7134258 3.4968942.7134258zM31.0878023 10.55918018c-.2517074-.42642875-.2661333-.68861697-.02338-1.10029556L34.399462 4h-4.6267395s-2.7797248 4.54205453-3.1597731 5.17316245c-.3764003.63027925-.3601505 1.02273292.0154208 1.67041405C27.0084185 11.49042897 29.7727225 16 29.7727225 16h4.6267395s-3.2751804-5.37353258-3.3116597-5.44081982M21.5941377 16h4.2077247V4h-4.2077247M18.9405537 3.77010873c-1.3163763 0-2.3817762 1.07539896-2.3817762 2.40310754 0 1.32687533 1.0653999 2.4056073 2.3817762 2.4056073 1.3185428 0 2.3884423-1.07873197 2.3884423-2.4056073 0-1.32770858-1.0698995-2.40310754-2.3884423-2.40310754M12.0635332 16h4.2052375V4h-4.2052375M0 16h4.19744416V4H0M9.50872938 5.92796177C9.29333553 4.82832914 8.33144198 4 7.17852938 4H4.47507953l2.71654925 12h4.56969912L9.50872938 5.92796177z"/>
</svg>
