<svg xmlns="http://www.w3.org/2000/svg" viewBox="0 0 15 15">
    <path fill="none" stroke="currentColor" d="M3.1528339 11.9654385c1.05289258 1.1425514 2.56192245 1.8583087 4.2381264 1.8583087 3.1821949 0 5.7618736-2.5796787 5.7618736-5.76187364C13.1528339 4.87967864 10.6821949 2.5 7.5 2.5" stroke-linecap="round"/>
    <path d="M5.38675276 9.5l.375-2.24c-.26333465.133334-.53333195.2166665-.81.25l-.01-.44c.18333425-.0466669.37666565-.12583277.58-.2375.20333435-.11166723.37666595-.23916595.52-.3825h.49l-.51 3.05h.63l-.085.5h-1.985l.085-.5h.72zm1.745-.8l.545-2.25h1.8l-.13.56h-1.275l-.245.945c.18333425-.1466674.40666535-.22.67-.22.25000125 0 .44333265.07499925.58.225.13666735.15000075.205.36333195.205.64 0 .4600023-.13916527.81916538-.4175 1.0775-.27833472.25833463-.617498.3875-1.0175.3875-.1866676 0-.37083242-.0324997-.5525-.0975-.18166757-.06500033-.3358327-.15916605-.4625-.2825l.28-.42c.27666805.17000085.5283322.255.755.255.22333445 0 .4116659-.0699993.565-.21.1533341-.1400007.23-.34499865.23-.615 0-.31000155-.14499855-.465-.435-.465-.19000095 0-.3616659.0699993-.515.21l-.065.26h-.515zm-2.1317528-7.61757862c0-.5541333-.35808295-.73496558-.798595-.40480382L2.1654656 2.20354473c-.21878466.1639781-.22244933.42707286 0 .59377252l2.0359394 1.5256975C4.64245683 4.65353135 5 4.47458692 5 3.91812085l-e-8-2.83569946z"/>
    <path d="M7.99999997 1.09022285c0-.55093437-.35681197-.73073034-.79576047-.40248392l-2.02871294 1.5170749c-.2180081.16302682-.22165976.4246027 0 .59034475l2.02871298 1.51693317C7.6437259 4.64070968 8 4.46280587 8 3.90955223l-e-8-2.81932938z"/>
</svg>
