<svg xmlns="http://www.w3.org/2000/svg" viewBox="0 0 15 15"><path d="M5 9.47l.4-.42c.27.24.56.37.9.37.22 0 .4-.06.56-.18.15-.12.23-.3.23-.52 0-.33-.24-.5-.66-.5-.17 0-.28 0-.35.02l.1-.58c.27 0 .5-.08.7-.2.2-.14.3-.3.3-.52 0-.13-.04-.22-.12-.28-.1-.06-.2-.1-.34-.1-.27 0-.55.1-.87.26l-.2-.44c.42-.26.85-.4 1.27-.4.3 0 .53.08.7.22.18.14.27.33.27.58 0 .25-.1.47-.24.66-.17.2-.4.33-.68.4v.03c.25.02.43.1.56.24.13.16.2.34.2.56 0 .4-.16.73-.47.97-.3.25-.66.37-1.08.37-.54 0-.95-.18-1.24-.54zM9.13 8c-.04.2-.06.43-.06.63 0 .27.04.46.13.58.1.14.22.2.4.2.46 0 .77-.46.93-1.4.04-.2.06-.42.06-.6 0-.53-.2-.78-.54-.78-.47 0-.78.47-.94 1.4zM8.4 8c.1-.67.3-1.18.6-1.5.32-.34.7-.5 1.18-.5.37 0 .66.1.85.34.2.23.3.57.3 1 0 .22-.03.42-.06.62-.2 1.35-.8 2.03-1.77 2.03-.76 0-1.15-.48-1.15-1.4 0-.2.02-.4.06-.6zM7 .5c0-.28.18-.37.4-.2l2.5 1.9c.22.16.22.43 0 .6L7.4 4.7c-.22.16-.4.08-.4-.2v-4zm3 0c0-.28.18-.37.4-.2l2.5 1.9c.22.16.22.43 0 .6l-2.5 1.9c-.22.16-.4.08-.4-.2v-4z"/><path fill="none" stroke="currentColor" stroke-linecap="round" d="M11.85 11.96C10.8 13.1 9.3 13.82 7.6 13.82c-3.16 0-5.74-2.58-5.74-5.76 0-3.18 2.58-5.76 5.76-5.76"/></svg>