<svg xmlns="http://www.w3.org/2000/svg" style="width:2.5em;height:2.5em" viewBox="0 0 25 25">
  <path fill-rule="evenodd" d="M.00003 25.0000527h25v-25h-25v25zm19.2070383-7.7495843c.1681573.2902772.1758008.4660193.0067615.7488293-.118004.1960268-.6833303 1.1528186-1.061508 1.7715318h-2.3522037l1.2878737-2.1167247-1.3357926-2.2420784 1.1978566-1.9628548h-2.9018314l-1.2036185-2.0187702h5.509799s.7661154 1.2342515.8526636 1.38183c.1681573.2902185.1758008.4659606.0067615.7487707-.118004.196027-1.13077 1.8744253-1.13077 1.8744253.3762962.615009 1.006063 1.6140166 1.1240085 1.815041zm-4.211107.9623186c-.113653.188795-.7248992 1.1892135-1.089142 1.7851137-.364243-.5959002-.975489-1.5963188-1.0891423-1.7851137-.162748-.272403-.1553986-.4416188.0065264-.721195.1136532-.1935574.720078-1.1859798 1.0826158-1.7783523.3625378.5923725.9690214 1.584795 1.0826158 1.7783522.161925.2795762.1692745.448792.0065264.721195zm-2.4400453-3.731682c-.169745.2818105-1.411052 2.3118108-1.411052 2.3118108H8.5704693l1.488663-2.4403395c.1094198-.1836207.1024818-.3005077-.009525-.490949-.016463-.0301624-1.479138-2.431226-1.479138-2.431226h2.574395c1.2211398 1.9930763 1.2215514 1.992841 1.4042902 2.3041086.1676282.289454.175213.464667.0067616.746595zm-6.6101713 5.2897245h2.292408v-8.340487h-2.292408v8.340487zm0-9.6300656H7.582633V5.4548182H5.9457447v4.6859456zm2.7845328-4.6868864c.4483216 0 .8227363.3239087.9066974.7536507l.8761232 3.9301194.0007055.0031162H8.7355104L7.678412 5.4538775h1.0518655zm1.885773 4.6868863h1.6363003V5.4548182h-1.6363004v4.6859456zm2.663001-4.7829007c.510822 0 .9254532.4180415.9254532.9335673 0 .5155257-.4146313.934214-.9254533.934214-.5097638 0-.9225724-.4186883-.9225724-.934214 0-.5155258.4128086-.9335673.9225724-.9335673zm1.0277588 4.7829006h1.636947V5.4548182h-1.636947v4.6859456zm1.9433933-2.6663524c.148049-.2464152 1.2296065-2.0203576 1.2296065-2.0203576h1.8004008l-1.2971046 2.1325997c-.0953676.1605726-.0892528.262643.0081727.4290952.0144637.0264583 1.2889318 2.1248973 1.2889318 2.1248973H17.47981s-1.0757366-1.7607132-1.2235504-2.01389c-.1462852-.252824-.152694-.4059883-.006056-.6523447z"/>
</svg>
