<svg xmlns="http://www.w3.org/2000/svg" viewBox="0 0 115 18">
  <title>
	NRK Radio
  </title>
        <path id="nrk-radio__nrk" fill="currentColor" d="M42.2742596 9.74557357c-.3356098-.56857166-.3548444-.91815595-.0311732-1.46706074L46.6898059 1h-6.168986s-3.7062998 6.0560727-4.2130308 6.89754993c-.5018671.84037234-.4802006 1.3636439.0205611 2.22721877C36.8350812 10.9872386 40.5208199 17 40.5208199 17h6.168986s-4.3669072-7.1647101-4.4155463-7.25442643  M29.6477692 17h5.6102996V1h-5.6102996z  M26.1274035.69c-1.746365 0-3.1597731 1.42667336-3.1597731 3.1880722 0 1.7602934 1.4134081 3.1913885 3.1597731 3.1913885 1.749239 0 3.1686165-1.4310951 3.1686165-3.1913885C29.29602 2.11667336 27.8766425.69 26.1274035.69  M17.004034 17h5.6069833V1H17.004034z  M1 17h5.59659222V1H1z  M13.648378 3.5706157C13.3611862 2.10443885 12.0786614 1 10.54144467 1h-3.6045998l3.62206566 16h6.09293217L13.648378 3.5706157z"/>
        <path id="nrk-radio__radio" d="M106.9735945 15.8399306c3.1671891 0 5.2371578-2.2235538 5.2371578-6.97924916 0-4.28675667-2.1163346-6.59478956-5.2371578-6.59478956-3.2546307 0-5.3302007 2.35298215-5.3302007 6.59478956 0 4.71170246 2.118824 6.97924916 5.3302007 6.97924916M107.036764.67067136c4.0173326 0 6.944602 2.80566264 6.944602 8.19001008 0 5.92565126-3.0140886 8.52760766-7.053515 8.52760766-4.0836139 0-7.0756087-2.6494559-7.0756087-8.52760766 0-5.38434744 3.0153333-8.19001008 7.1845217-8.19001008  M95.5133451 17h1.8162618V1h-1.8162618z  M82.1163078 2.55367398V15.446326h2.7930535c4.0897953 0 5.8001742-2.2231433 5.8001742-6.42532614 0-4.154499-1.7103789-6.46732588-5.8001742-6.46732588h-2.7930535zm2.6844776-1.553674c4.9540841 0 7.6613873 2.5307202 7.6613873 8.02099988C92.4621727 14.6909626 89.7372876 17 84.5623502 17h-4.1129293V1h4.3513645z  M74.5725846 10.8662667l-2.660414-7.93558067-2.655793 7.93558067h5.316207zM72.779054 1l5.6800269 16h-1.770734l-1.6401163-4.5785111h-6.2684232L67.1781988 17h-1.7926064l5.6439838-16h1.7494778z  M54.64831514 2.50943396v6.6452988h2.84514944c2.56316474 0 3.91486222-1.19902107 3.91486222-3.42369937 0-2.132786-1.1145255-3.22159945-3.61672056-3.22159945h-3.1432911zM57.83458986 1c3.615806 0 5.24247664 1.77595326 5.24247664 4.59872108 0 1.99794742-.7929105 3.55601168-2.59182044 4.44398832L63.9522861 17h-1.79494696l-3.2731565-6.5568801c-.49233004.1117865-1.00417038.1559959-1.64922944.1559959h-2.58663806V17h-1.6483149V1h4.83458962z"/>
</svg>
