<svg xmlns="http://www.w3.org/2000/svg" style="width:6.2em;height:2.6em" viewBox="0 0 62 26">
    <path d="M31.0878023 13.5591802c-.2517074-.4264288-.2661333-.688617-.02338-1.1002956L34.399462 7h-4.6267395s-2.7797248 4.5420545-3.159773 5.1731624c-.3764004.6302793-.3601506 1.022733.0154207 1.670414C27.0084185 14.490429 29.7727225 19 29.7727225 19h4.6267395s-3.2751804-5.3735326-3.3116597-5.4408198M21.5941377 19h4.2077247V7h-4.2077247M18.9405537 6.7701087c-1.3163763 0-2.3817762 1.075399-2.3817762 2.4031076 0 1.3268753 1.0654 2.4056073 2.3817762 2.4056073 1.3185428 0 2.3884423-1.078732 2.3884423-2.4056073 0-1.3277086-1.0698995-2.4031076-2.3884423-2.4031076M12.0635332 19h4.2052375V7h-4.2052375M0 19h4.1974442V7H0M9.5087294 8.9279618C9.2933354 7.828329 8.331442 7 7.1785294 7h-2.70345L7.191629 19h4.569699L9.5087295 8.9279618zM49.000546 1C55.627599 1 61 6.3728858 61 13.0004095 61 19.6265682 55.627599 25 49.000546 25 42.371309 25 37 19.6265682 37 13.0004095 37 6.3728858 42.371309 1 49.000546 1zm7.369853 10.221641l1.7422085-2.5166465h-6.093362v1.8197163h2.586014l-1.2642067 1.859572-.291005.430224h1.8071796c.7346103 0 1.3297238.5945608 1.3297238 1.3288898 0 .734056-.5951135 1.3302547-1.3297238 1.3302547h-2.8379818v1.822992h3.0883116c1.7473953 0 3.169662-1.4214315 3.169662-3.1693528 0-1.2988614-.785659-2.41728-1.9068202-2.9056496zm-7.4427408 6.0750024h2.0976387v-8.591103h-3.350926v1.8205353h1.2532872v6.7705677zM43.789754 8.715095h-3.373038v8.5815484h2.108012v-6.7692027h1.0853998c.8479003 0 1.2284454.4526087 1.2284454 1.1697396 0 .7264124-.4193094 1.1678287-1.2756722 1.1678287h-.385732v1.716801h.5055736c2.17817 0 3.2425497-1.1326136 3.2425497-2.9809933 0-1.8134377-1.1569225-2.8857218-3.1355384-2.8857218z"/>
</svg>
