<svg xmlns="http://www.w3.org/2000/svg" viewBox="0 0 15 15">
  <path stroke="currentColor" fill="none" stroke-linecap="round" d="M11.85 11.965c-1.053 1.143-2.562 1.86-4.238 1.86-3.182 0-5.762-2.58-5.762-5.763C1.85 4.88 4.43 2.5 7.612 2.5"/>
  <path d="M7 1.082c0-.554.358-.735.8-.404l2.035 1.526c.218.164.222.427 0 .593L7.8 4.323c-.442.33-.8.152-.8-.405V1.082z"/>
  <path d="M10 1.09c0-.55.357-.73.796-.402l2.028 1.517c.218.163.222.424 0 .59l-2.028 1.517c-.44.33-.796.15-.796-.402V1.09z"/>
  <path d="M10 1.09c0-.55.357-.73.796-.402l2.028 1.517c.218.163.222.424 0 .59l-2.028 1.517c-.44.33-.796.15-.796-.402V1.09zM5.124 9.58l.35-.39c.234.227.494.34.78.34.2 0 .366-.055.498-.165.13-.11.197-.268.197-.475 0-.297-.187-.447-.56-.45-.144 0-.246.007-.306.02l.085-.525c.246-.007.456-.07.63-.19s.26-.277.26-.47c0-.113-.037-.198-.108-.255-.072-.057-.17-.085-.293-.085-.23 0-.482.077-.756.23L5.73 6.76c.376-.24.75-.36 1.12-.36.256 0 .46.064.614.193.154.128.23.305.23.532 0 .23-.07.432-.212.608-.142.175-.338.3-.588.372v.015c.217.023.382.098.495.225.113.127.17.292.17.495 0 .37-.134.667-.4.89-.267.223-.586.335-.956.335-.463 0-.823-.162-1.08-.485zM8.78 8.225c-.034.203-.05.398-.05.585 0 .243.037.42.112.53.075.11.19.165.342.165.407 0 .68-.423.82-1.27.034-.203.05-.395.05-.575 0-.47-.15-.705-.455-.705-.41 0-.684.423-.82 1.27zm-.64.015c.086-.62.264-1.082.534-1.385.27-.303.612-.455 1.025-.455.326 0 .573.108.742.325.168.217.252.527.252.93 0 .193-.013.378-.04.555-.183 1.237-.7 1.855-1.555 1.855-.67 0-1.006-.418-1.006-1.255 0-.17.015-.36.045-.57z"/>
</svg>
