<svg xmlns="http://www.w3.org/2000/svg" viewBox="0 0 112 28">
  <title>
NRK Sapmi
  </title>
        <path id="nrk-radio-sapmi__nrk" d="M42.2742596 14.74557357c-.3356098-.56857166-.3548444-.91815595-.0311732-1.46706074L46.6898059 6h-6.168986s-3.7062998 6.0560727-4.2130308 6.89754993c-.5018671.84037234-.4802006 1.3636439.0205611 2.22721877C36.8350812 15.9872386 40.5208199 22 40.5208199 22h6.168986s-4.3669072-7.1647101-4.4155463-7.25442643  M29.6477692 22h5.6102996V6h-5.6102996z  M26.1274035 5.69c-1.746365 0-3.1597731 1.42667336-3.1597731 3.1880722 0 1.7602934 1.4134081 3.1913885 3.1597731 3.1913885 1.749239 0 3.1686165-1.4310951 3.1686165-3.1913885C29.29602 7.11667336 27.8766425 5.69 26.1274035 5.69  M17.004034 22h5.6069833V6H17.004034z  M1 22h5.59659222V6H1z  M13.648378 8.5706157C13.3611862 7.10443885 12.0786614 6 10.54144467 6h-3.6045998l3.62206566 16h6.09293217L13.648378 8.5706157z"/>
        <path id="nrk-radio-sapmi__sapmi" d="M109.8841372 6.0172778c.6385831 0 1.1012417.3975437 1.1012417 1.01442187 0 .57232585-.4626586.96929838-1.1012417.96929838-.6168782 0-1.1023842-.39697253-1.1023842-.96929838 0-.61687817.485506-1.01442188 1.1023842-1.01442188z  M109.0684871 21.7271085h1.6090239V10.15950045h-1.6090239z  M92.8057509 10.15950045v1.76267224c.8362126-1.0795368 1.9603017-2.0271302 3.6133067-2.0271302 1.6958438 0 2.4675127.85963112 2.8199329 2.0054252.9247461-1.0795368 2.0705401-2.00542523 3.7235452-2.00542523 2.4675126 0 3.0626858 1.76267224 3.0626858 3.83435475v7.99771125h-1.6084527v-7.75552945c0-1.58617655-.4186775-2.5560461-1.8951868-2.5560461-1.4096808 0-2.5554749 1.27830864-3.0181335 1.85120567v8.46036987h-1.6524339v-7.71154832c0-1.58617655-.3746963-2.60002724-1.8512057-2.60002724-1.431957 0-2.5554749 1.25660368-3.1060958 1.8951868v8.41638877h-1.6090239V10.15950045h1.5210617  M80.2437124 18.7084037c.5511921.7493928 1.7849484 1.8072246 3.3934011 1.8072246 2.0933875 0 3.3705538-1.5204905 3.3705538-4.5391952 0-2.97415243-1.1235179-4.6048813-3.1729243-4.6048813-1.5639004 0-2.7753806 1.05783183-3.5910306 2.07111134v5.26574056zm-1.6084527 7.4253854V10.15950045h1.5427666v1.7849484c1.0355557-1.29944244 2.3132931-2.04940636 3.9434508-2.04940636 3.0626859 0 4.6054525 2.33614044 4.6054525 6.0379806 0 3.6350118-1.5644716 6.0585433-4.8036532 6.0585433-2.004854 0-3.2386103-1.080108-3.679564-1.67471v5.8169327h-1.6084527z  M72.4419172 5.02627444l.9692983 1.14579408-3.3271438 2.6879895-.7482504-.9036123 3.1060959-2.93017128zm1.5199192 8.46036983c-.5506209-.7265454-1.7626722-2.0933875-3.5030683-2.0933875-1.9385968 0-3.2608866 1.58674774-3.2608866 4.56147133 0 2.269312.8156501 4.5609002 3.4151061 4.5609002 1.653005 0 2.7319706-1.1680703 3.3488488-1.9168918v-5.11209223zm.0885335 6.63201143c-.5723259.7048405-1.8066534 1.8729107-3.8332124 1.8729107-3.2391816 0-4.7156909-2.4235315-4.7156909-6.0151333 0-3.67956404 1.7409673-6.0813906 4.7591008-6.0813906 1.7409673 0 2.9530186.88133612 3.7898025 1.98372025v-1.7192623h1.5204904V21.7271085h-1.4325282l-.0879622-1.6084528z  M53.78535088 18.510203c1.431957 1.2783087 2.93074247 2.0271302 4.60545246 2.0271302 1.9820067 0 3.480221-1.0355556 3.480221-2.9301712 0-1.6741389-.77052653-2.4241028-3.67899285-3.3054389-3.45908724-1.05726063-4.82535814-2.11509245-4.82535814-4.4723667 0-2.73197063 2.18134974-4.25246108 5.0675399-4.25246108 2.0271302 0 3.74582132.74939274 5.06811112 2.269312l-.9921457 1.03612685c-1.14522295-1.30001362-2.66628457-1.8506345-4.05368927-1.8506345-1.87348183 0-3.30486765.88133612-3.30486765 2.66571334 0 1.82892956 1.36569972 2.291017 4.0753942 3.21633425C62.4661975 14.0155602 63.6336966 15.095097 63.6336966 17.4529424c0 2.7982279-2.1150925 4.538624-5.28801676 4.538624-2.24646466 0-4.20790876-.9692984-5.52962735-2.3795504l.96929836-1.101813"/>
</svg>
