<svg xmlns="http://www.w3.org/2000/svg" style="width:6.5em;height:2.5em" viewBox="0 0 65 25">
    <path fill-rule="evenodd" d="M31 8.7694077h.9364784v4.5195263c0 .692183.1628642 1.2147057.4885974 1.5675834.3257333.3528777.7803958.529314 1.3640012.529314.6378943 0 1.0959498-.1730433 1.3741803-.519135.2782305-.3460915.4173436-.872007.4173436-1.5777624V8.7694077h.9364783v4.6009592c0 .943269-.2341172 1.6541034-.7023588 2.132524-.4682415.4784208-1.1536283.7176275-2.0561808.7176275-.868622 0-1.5455263-.2375102-2.030733-.712538C31.2425996 15.032953 31 14.3204223 31 13.370367V8.7694076zm7.3289615 0h2.3819125c.8414775 0 1.4759692.1934012 1.903494.5802095.427525.3868082.6412843.9229028.6412843 1.6082998 0 .936483-.4037675 1.601512-1.2113145 1.9951062l1.628658 3.145346h-1.0382695l-1.4963296-2.9112264c-.2307277.0407167-.48181.0610747-.7532544.0610747H39.275619v2.8501517h-.9466575V8.7694077zm2.351375.8245082H39.275619v2.8603307h1.3334638c1.1264942 0 1.6897328-.4919856 1.6897328-1.4759714 0-.4614555-.1306306-.807542-.3918958-1.0382696-.2612653-.2307277-.6701222-.3460898-1.2265832-.3460898zm3.9698543 2.7687187c0-.5971777.0831286-1.1315758.2493882-1.6032104.1662597-.4716346.400377-.86183.7023588-1.170598.301982-.308768.6599438-.5445817 1.0738965-.7074483.4139527-.1628667.8686152-.2442988 1.364001-.2442988.2443 0 .4716313.020358.6820007.0610747l.1934032-.610747h.7634335l-.2442988.8143292c.5971776.251086 1.0637156.6718185 1.399628 1.26221.3359124.5903915.503866 1.3232803.503866 2.1986885 0 .5157443-.054288.9856753-.1628657 1.409807-.1085778.424132-.2595664.7871834-.4529705 1.0891652-.1934042.3019818-.429218.5547606-.7074484.758344-.2782305.203583-.5869938.3545718-.9262993.4529704-.3393054.0983986-.7023568.147597-1.089165.147597-.2307277 0-.488596-.023751-.7736126-.0712537l-.2341196.7634335h-.7532544l.2951943-.9771948c-.5971776-.2578722-1.0603226-.6870872-1.389449-1.2876578-.3291263-.6005707-.493687-1.3623-.493687-2.285211zm5.7003033 0c0-.624322-.105183-1.1553272-.3155524-1.5930313-.2103694-.437704-.5021677-.765129-.8754037-.9822844l-1.689733 5.5577958c.1357223.0339306.3121585.0508956.529314.0508956.7328998 0 1.308014-.2578683 1.7253597-.7736126.4173457-.5157443.6260154-1.2689912.6260154-2.259763zm-4.70275 0c0 .6718248.098397 1.23676.295194 1.6948223.1967973.4580624.4784166.7990593.8448665 1.023001l1.6795537-5.5374377c-.12215-.0271444-.271442-.0407164-.447881-.0407164-.7328998 0-1.311407.2527786-1.7355388.7583438-.4241318.505565-.6361945 1.2062204-.6361945 2.101987zm7.298424-3.593227h2.3819125c.8414775 0 1.4759692.1934012 1.903494.5802095.427525.3868082.6412843.9229028.6412843 1.6082998 0 .936483-.4037675 1.601512-1.2113145 1.9951062l1.628658 3.145346H57.251933l-1.4963298-2.9112264c-.2307277.0407167-.48181.0610747-.7532543.0610747h-1.1095235v2.8501517h-.9466575V8.7694077zm2.351375.8245082h-1.4047175v2.8603307h1.3334638c1.1264942 0 1.6897328-.4919856 1.6897328-1.4759714 0-.4614555-.1306305-.807542-.3918957-1.0382696-.2612652-.2307277-.6701222-.3460898-1.2265832-.3460898zm6.015856 6.5044532v-6.473916h-2.2801213v-.8550455h5.496721v.8550455h-2.2699422v6.473916h-.9466575zM.00003 25.0000527h25v-25h-25v25zm19.2070383-7.7495843c.1681573.2902772.1758008.4660193.0067615.7488293-.118004.1960268-.6833303 1.1528186-1.061508 1.7715318h-2.3522037l1.2878737-2.1167247-1.3357926-2.2420784 1.1978566-1.9628548h-2.9018314l-1.2036185-2.0187702h5.509799s.7661154 1.2342515.8526636 1.38183c.1681573.2902185.1758008.4659606.0067615.7487707-.118004.196027-1.13077 1.8744253-1.13077 1.8744253.3762962.615009 1.006063 1.6140166 1.1240085 1.815041zm-4.211107.9623186c-.113653.188795-.7248992 1.1892135-1.089142 1.7851137-.364243-.5959002-.975489-1.5963188-1.0891423-1.7851137-.162748-.272403-.1553986-.4416188.0065264-.721195.1136532-.1935574.720078-1.1859798 1.0826158-1.7783523.3625378.5923725.9690214 1.584795 1.0826158 1.7783522.161925.2795762.1692745.448792.0065264.721195zm-2.4400453-3.731682c-.169745.2818105-1.411052 2.3118108-1.411052 2.3118108H8.5704693l1.488663-2.4403395c.1094198-.1836207.1024818-.3005077-.009525-.490949-.016463-.0301624-1.479138-2.431226-1.479138-2.431226h2.574395c1.2211398 1.9930763 1.2215514 1.992841 1.4042902 2.3041086.1676282.289454.175213.464667.0067616.746595zm-6.6101713 5.2897245h2.292408v-8.340487h-2.292408v8.340487zm0-9.6300656H7.582633V5.4548182H5.9457447v4.6859456zm2.7845328-4.6868864c.4483216 0 .8227363.3239087.9066974.7536507l.8761232 3.9301194.0007055.0031162H8.7355104L7.678412 5.4538775h1.0518655zm1.885773 4.6868863h1.6363003V5.4548182h-1.6363004v4.6859456zm2.663001-4.7829007c.510822 0 .9254532.4180415.9254532.9335673 0 .5155257-.4146313.934214-.9254533.934214-.5097638 0-.9225724-.4186883-.9225724-.934214 0-.5155258.4128086-.9335673.9225724-.9335673zm1.0277588 4.7829006h1.636947V5.4548182h-1.636947v4.6859456zm1.9433933-2.6663524c.148049-.2464152 1.2296065-2.0203576 1.2296065-2.0203576h1.8004008l-1.2971046 2.1325997c-.0953676.1605726-.0892528.262643.0081727.4290952.0144637.0264583 1.2889318 2.1248973 1.2889318 2.1248973H17.47981s-1.0757366-1.7607132-1.2235504-2.01389c-.1462852-.252824-.152694-.4059883-.006056-.6523447z"/>
</svg>
