<svg xmlns="http://www.w3.org/2000/svg" viewBox="0 0 108 28">
  <title>
NRK Sport
  </title>
      <path id="nrk-radio-sport__nrk" d="M42.2742596 14.74557357c-.3356098-.56857166-.3548444-.91815595-.0311732-1.46706074L46.6898059 6h-6.168986s-3.7062998 6.0560727-4.2130308 6.89754993c-.5018671.84037234-.4802006 1.3636439.0205611 2.22721877C36.8350812 15.9872386 40.5208199 22 40.5208199 22h6.168986s-4.3669072-7.1647101-4.4155463-7.25442643  M29.6477692 22h5.6102996V6h-5.6102996z  M26.1274035 5.69c-1.746365 0-3.1597731 1.42667336-3.1597731 3.1880722 0 1.7602934 1.4134081 3.1913885 3.1597731 3.1913885 1.749239 0 3.1686165-1.4310951 3.1686165-3.1913885C29.29602 7.11667336 27.8766425 5.69 26.1274035 5.69  M17.004034 22h5.6069833V6H17.004034z  M1 22h5.59659222V6H1z  M13.648378 8.5706157C13.3611862 7.10443885 12.0786614 6 10.54144467 6h-3.6045998l3.62206566 16h6.09293217L13.648378 8.5706157z"/>
      <path id="nrk-radio-sport__sport" d="M102.804099 22.2957018c1.007527 0 1.944532-.1641503 2.928712-.4922103l-.351407-2.4367422c-.398341.0936283-.796683.1874973-1.241959.1874973-.749748 0-1.030873-.2577787-1.030873-.8669642v-5.998227h2.624239v-2.5775456h-2.624239V7.20614487h-2.764803l-.632532 2.90536493h-1.546431l-.1641504 2.5775456h1.569778v6.6074125c0 1.9214256.9841804 2.9992339 3.2336654 2.9992339zm-7.3574014-.2813662v-1.8509035l-1.9917069-.4452759v-5.2484787c.5624917-.7730952 1.4294559-1.0778083 2.3431138-1.0778083.3749945 0 .7733359.0702813 1.1247428.1172158l.2344317-3.3975752c-.3516476-.0936283-.7733358-.1172159-1.1716772-.1172159-1.1011552 0-2.2728325.5858386-2.8584305 1.991707h-.0469344l-.3047132-1.8744911h-4.0301076v1.8511442l1.1950241.3747538v7.4510298l-1.1950241.3749945v1.8509035h6.7012815zm-13.5195383-2.4133952c-1.3589338 0-2.1322697-.9605925-2.1322697-3.6081788 0-2.6008924.8200297-3.5147911 2.1322697-3.5147911 1.3589339 0 2.1322697.8905518 2.1322697 3.5147911 0 2.6475863-.7966827 3.6081788-2.1322697 3.6081788zm-.1405627 2.6947614c3.538138 0 5.998227-2.0150538 5.998227-6.3029402 0-4.3815145-2.225898-6.16237735-5.6937546-6.16237735-3.5848318 0-6.0451615 1.92142555-6.0451615 6.37322155 0 3.9831732 2.2494855 6.092096 5.7406891 6.092096zm-12.9339404-2.8117366c-.7730951 0-1.5931248-.3514069-1.9681193-.6327731v-5.365454c.4216883-.4219289 1.3355869-.8202703 2.0853352-.8202703 1.2183711 0 1.9214256.9138986 1.9214256 3.3975752 0 2.4600891-.7966828 3.4209222-2.0386415 3.4209222zm.0469345 7.0760353v-1.8511441l-2.1086821-.4450352V21.170959c.4686228.4216883 1.4525621 1.1247428 2.9287118 1.1247428 2.9992339 0 4.8267905-2.0853352 4.8267905-6.4904374s-1.9214256-5.97488015-4.4751429-5.97488015c-1.3591745 0-2.6711739.60918555-3.538138 1.56977795h-.0469345l-.234191-1.2886524h-4.1003891v1.8511442l1.218371.3747538v12.0200416l-1.2419586.351407v1.8511441h6.7715629zm-13.4492569-4.2642987c3.7489822 0 5.9982271-1.9447725 5.9982271-5.2484787 0-5.2251319-6.9354726-4.2411926-6.9354726-7.0059947 0-.89031106.5858386-1.64005936 2.0619883-1.64005936.4686228 0 .913658.07028138 1.4292152.28112553l.5155573 1.54643103h2.4367421v-3.444269c-1.3355869-.7030545-2.8350835-1.07780832-4.451796-1.07780832-3.1633842 0-5.7876236 1.4525621-5.7876236 4.68598702 0 5.4126291 6.9824071 3.9834139 6.9824071 7.1934919 0 1.2650649-.7497483 1.9914663-2.0617476 1.9914663-.8436173 0-1.4528028-.1405628-1.8744911-.3044725l-.5624917-2.0150538h-2.4600891v4.0768015c1.1950242.5624917 2.882018.9608331 4.7095746.9608331z"/>
</svg>
