<svg width="203" height="24" viewBox="0 0 203 24" fill="none" xmlns="http://www.w3.org/2000/svg">
<path d="M0 17.9976V5.99865H4V17.9976H0ZM9.24381 7.90834L11.5081 17.9976H7.19917L4.49549 5.99865H6.91217C7.46635 5.99146 8.00406 6.18681 8.4245 6.54795C8.84562 6.89394 9.08495 7.37426 9.24381 7.90834ZM12 17.9976V5.99865H16V17.9976H12ZM19.0105 10.5617C18.5862 10.5658 18.1687 10.4548 17.8025 10.2405C17.4412 10.0317 17.1411 9.73152 16.9323 9.37016C16.7178 9.00389 16.6068 8.58632 16.611 8.16188C16.6061 7.74002 16.7172 7.32494 16.9323 6.96199C17.1433 6.60455 17.4431 6.30765 17.8025 6.10008C18.1689 5.88606 18.5862 5.77507 19.0105 5.77894C19.4322 5.7744 19.8471 5.88549 20.2102 6.10008C20.566 6.30947 20.8626 6.60612 21.072 6.96199C21.2868 7.32504 21.3979 7.74005 21.3933 8.16188C21.3973 8.58629 21.2863 9.00379 21.072 9.37016C20.8649 9.72993 20.5679 10.0298 20.2102 10.2405C19.8471 10.4555 19.4324 10.5666 19.0105 10.5617ZM22 17.9976V5.99865H26V17.9976H22ZM30.9737 12.5558C30.9848 12.5674 31.0693 12.7054 31.2272 12.9698C31.3851 13.2342 31.5906 13.5722 31.8439 13.9838C32.0974 14.3953 32.3649 14.8318 32.6463 15.2936C32.9278 15.7553 33.1926 16.1919 33.4408 16.6033C33.6881 17.0147 33.9697 17.4795 34.2857 17.9976H29.9598C29.6893 17.5582 29.4441 17.161 29.2245 16.8061C29.0048 16.4512 28.7713 16.0681 28.5238 15.6569C28.2758 15.2461 28.0306 14.8461 27.7882 14.457C27.5458 14.0679 27.3375 13.7272 27.1633 13.4346C26.9883 13.1419 26.8671 12.9447 26.7997 12.8431C26.6325 12.591 26.5336 12.2999 26.5127 11.9981C26.5294 11.7085 26.6226 11.4285 26.7828 11.1867C26.8503 11.074 26.9743 10.874 27.1545 10.5867C27.3348 10.2994 27.546 9.95861 27.7882 9.56428C28.0304 9.16995 28.2756 8.76716 28.5238 8.35593C28.772 7.9447 29.0055 7.55879 29.2245 7.19826C29.4445 6.83811 29.6897 6.43814 29.9598 5.99837H34.2857L30.9396 11.4571C30.8361 11.6191 30.7777 11.8059 30.7706 11.9981C30.7818 12.1999 30.8528 12.3939 30.9737 12.5558Z" fill="white"/>
<g clip-path="url(#clip0_5918_1282)">
<path d="M46.1687 6.00309H47.9258L43.7526 17.9989H41.5562L37.3999 6.00309H39.2922L41.7589 13.4033C41.8941 13.7863 42.0265 14.1946 42.156 14.6282C42.2855 15.0619 42.4122 15.4984 42.5361 15.9376C42.6009 16.1714 42.6628 16.3938 42.722 16.6106C42.7783 16.4051 42.8374 16.1911 42.8994 15.9714C43.0177 15.5434 43.1416 15.1154 43.2711 14.6874C43.4006 14.2594 43.5273 13.8539 43.6512 13.4709L46.1687 6.00309ZM55.8244 12.0179C55.9652 12.6261 55.9962 13.3245 55.9174 14.1129H49.8125C49.835 14.5438 49.8941 14.9155 49.9955 15.228C50.125 15.6223 50.3165 15.9348 50.5699 16.1657C50.8234 16.3966 51.1359 16.56 51.5076 16.6557C51.8793 16.7514 52.3186 16.7993 52.8255 16.7993C53.0733 16.7993 53.3211 16.7852 53.5689 16.7571C53.8167 16.7289 54.0589 16.6839 54.2954 16.6219C54.5319 16.56 54.76 16.4896 54.9797 16.4107C55.1993 16.3319 55.4161 16.253 55.6301 16.1742L55.5119 17.4751C55.2077 17.6328 54.9036 17.7624 54.5995 17.8637C54.2954 17.9651 53.9716 18.0411 53.628 18.0918C53.2845 18.1425 52.8874 18.1678 52.4369 18.1678C51.4907 18.1678 50.691 18.0017 50.0377 17.6694C49.3844 17.3372 48.8917 16.8472 48.5594 16.1995C48.2271 15.5519 48.061 14.7662 48.061 13.8426C48.061 13.1443 48.1539 12.5107 48.3397 11.9419C48.5256 11.373 48.7959 10.8859 49.1507 10.4804C49.5055 10.0749 49.9364 9.75953 50.4432 9.53425C50.9501 9.30898 51.5245 9.19634 52.1666 9.19634C52.8086 9.19634 53.3802 9.30335 53.8815 9.51736C54.3827 9.73137 54.7966 10.0496 55.1233 10.472C55.4499 10.8943 55.6836 11.4097 55.8244 12.0179ZM50.0631 11.925C49.9589 12.2009 49.8913 12.536 49.8491 12.9134H54.2926C54.2926 12.5754 54.2532 12.2572 54.1687 11.9672C54.0391 11.5167 53.8111 11.1647 53.4844 10.9112C53.1578 10.6578 52.7241 10.5311 52.1835 10.5311C51.6428 10.5311 51.226 10.6465 50.8656 10.8774C50.5052 11.1083 50.2377 11.4575 50.0631 11.925ZM63.3683 14.1129C63.1993 13.9327 63.0022 13.7778 62.7769 13.6483C62.5517 13.5188 62.3151 13.409 62.0673 13.3188C61.8871 13.2625 61.7097 13.2034 61.5351 13.1414C61.3605 13.0795 61.1859 13.0232 61.0113 12.9725C60.8368 12.9218 60.6678 12.8683 60.5045 12.812C60.3412 12.7557 60.1919 12.6937 60.0568 12.6261C59.9103 12.5473 59.778 12.4628 59.6597 12.3727C59.5414 12.2826 59.4457 12.1756 59.3725 12.0517C59.2993 11.9278 59.2627 11.787 59.2627 11.6293C59.2627 11.4491 59.3021 11.2942 59.3809 11.1647C59.4598 11.0351 59.578 10.9253 59.7357 10.8352C59.8934 10.7451 60.0821 10.6775 60.3017 10.6325C60.5214 10.5874 60.772 10.5649 61.0536 10.5649C61.1775 10.5649 61.3127 10.5705 61.4591 10.5818C61.6055 10.593 61.766 10.6127 61.9406 10.6409C62.1152 10.6691 62.2898 10.7057 62.4644 10.7507C62.639 10.7958 62.8164 10.8465 62.9966 10.9028C63.1768 10.9591 63.3401 11.0211 63.4865 11.0886L63.6048 9.7201C63.3908 9.62999 63.1796 9.55115 62.9712 9.48357C62.7628 9.41598 62.5517 9.35967 62.3376 9.31461C62.1236 9.26956 61.9124 9.23858 61.7041 9.22169C61.4957 9.20479 61.2901 9.19634 61.0874 9.19634C60.5805 9.19634 60.1187 9.24985 59.7019 9.35685C59.2852 9.46385 58.9219 9.62155 58.6122 9.82992C58.3024 10.0383 58.0631 10.303 57.8941 10.624C57.7252 10.945 57.6407 11.3252 57.6407 11.7645C57.6407 12.0798 57.6858 12.3586 57.7759 12.6008C57.866 12.843 57.9842 13.0485 58.1307 13.2175C58.2771 13.3864 58.4489 13.5357 58.646 13.6652C58.8431 13.7947 59.0543 13.9046 59.2796 13.9947C59.4035 14.0397 59.533 14.0848 59.6682 14.1298C59.8033 14.1749 59.9357 14.2171 60.0652 14.2565C60.1947 14.296 60.3214 14.3354 60.4454 14.3748C60.5693 14.4142 60.6903 14.4537 60.8086 14.4931C60.9269 14.5325 61.0423 14.5691 61.155 14.6029C61.3127 14.6592 61.4591 14.724 61.5942 14.7972C61.7294 14.8704 61.8449 14.9493 61.9406 15.0337C62.0363 15.1182 62.1096 15.2168 62.1602 15.3294C62.2109 15.442 62.2363 15.5659 62.2363 15.7011C62.2363 15.9827 62.1433 16.2052 61.9575 16.3685C61.7716 16.5318 61.5295 16.6473 61.231 16.7148C60.9325 16.7824 60.6143 16.8162 60.2764 16.8162C60.0962 16.8162 59.8962 16.8021 59.6766 16.774C59.457 16.7458 59.2261 16.7064 58.9839 16.6557C58.7417 16.605 58.4939 16.5431 58.2405 16.4699C57.9871 16.3966 57.7308 16.315 57.4717 16.2249L57.5393 17.661C57.8322 17.7624 58.0997 17.844 58.3419 17.906C58.584 17.9679 58.8149 18.0214 59.0346 18.0665C59.2542 18.1115 59.4682 18.1397 59.6766 18.151C59.885 18.1622 60.0962 18.1678 60.3102 18.1678C60.8058 18.1678 61.2732 18.12 61.7125 18.0242C62.1518 17.9285 62.5348 17.7793 62.8614 17.5765C63.1881 17.3738 63.4443 17.1091 63.6302 16.7824C63.816 16.4558 63.9089 16.0672 63.9089 15.6166C63.9089 15.2787 63.8611 14.9887 63.7653 14.7465C63.6696 14.5043 63.5372 14.2931 63.3683 14.1129ZM70.3883 16.6388C70.2926 16.6557 70.1969 16.6726 70.1011 16.6895C70.0054 16.7064 69.9125 16.7177 69.8223 16.7233C69.7322 16.7289 69.6478 16.7317 69.5689 16.7317C69.2761 16.7317 69.0254 16.681 68.8171 16.5797C68.6087 16.4783 68.4482 16.3291 68.3355 16.1319C68.2229 15.9348 68.1666 15.6955 68.1666 15.4139V10.7338H70.5489L70.7347 9.38219H68.1666V6.71271L66.4433 7.32094V9.38219H65.1423L64.9564 10.7338H66.4433V15.7687C66.4433 16.1517 66.4939 16.4811 66.5953 16.7571C66.6967 17.033 66.829 17.2611 66.9924 17.4413C67.1557 17.6216 67.3472 17.7624 67.5668 17.8637C67.7864 17.9651 68.0202 18.0383 68.268 18.0834C68.5158 18.1284 68.7579 18.151 68.9945 18.151C69.1747 18.151 69.3521 18.1453 69.5267 18.1341C69.7013 18.1228 69.8618 18.1059 70.0082 18.0834C70.1546 18.0608 70.2926 18.0355 70.4221 18.0073C70.5517 17.9792 70.6615 17.9538 70.7516 17.9313L70.853 16.529C70.7967 16.5515 70.7291 16.5712 70.6502 16.5881C70.5714 16.605 70.4841 16.6219 70.3883 16.6388ZM77.0452 5.37796C76.8706 5.34417 76.6932 5.31883 76.513 5.30193C76.3327 5.28504 76.1413 5.27659 75.9385 5.27659C75.5555 5.27659 75.1951 5.33291 74.8572 5.44554C74.5193 5.55818 74.2236 5.73558 73.9702 5.97775C73.7168 6.21992 73.5196 6.52122 73.3788 6.88166C73.2381 7.2421 73.1677 7.67012 73.1677 8.16572V9.38219H71.9005V10.7H73.1677V17.9989H74.891V10.7H77.2564V9.38219H74.891V7.97987C74.891 7.76586 74.922 7.57719 74.9839 7.41387C75.0459 7.25055 75.1332 7.11538 75.2458 7.00838C75.3584 6.90137 75.502 6.82253 75.6766 6.77184C75.8512 6.72115 76.0455 6.69581 76.2595 6.69581C76.3947 6.69581 76.5242 6.70144 76.6481 6.71271C76.772 6.72397 76.8931 6.74086 77.0114 6.76339C77.1296 6.78592 77.2423 6.80845 77.3493 6.83097C77.4563 6.8535 77.5492 6.88166 77.6281 6.91545L77.5605 5.51313C77.3915 5.45681 77.2198 5.41175 77.0452 5.37796ZM86.1941 11.266C86.5433 11.925 86.7178 12.6993 86.7178 13.5892C86.7178 14.5241 86.5292 15.335 86.1518 16.0221C85.7745 16.7092 85.2479 17.2386 84.5721 17.6103C83.8963 17.982 83.1191 18.1678 82.2405 18.1678C81.362 18.1678 80.6524 17.9933 80.0103 17.6441C79.3683 17.2949 78.8755 16.7852 78.532 16.115C78.1884 15.4449 78.0167 14.648 78.0167 13.7243C78.0167 12.8007 78.1997 12.001 78.5658 11.3252C78.9318 10.6494 79.4443 10.1256 80.1033 9.75389C80.7622 9.38219 81.5309 9.19634 82.4095 9.19634C83.2881 9.19634 84.0512 9.37656 84.6988 9.737C85.3465 10.0974 85.8449 10.6071 86.1941 11.266ZM84.9269 13.623C84.9269 13.1612 84.8762 12.7416 84.7749 12.3642C84.6735 11.9869 84.5186 11.6631 84.3102 11.3928C84.1019 11.1224 83.8428 10.9169 83.533 10.7761C83.2233 10.6353 82.8544 10.5649 82.4264 10.5649C81.8857 10.5649 81.4211 10.6775 81.0325 10.9028C80.6439 11.1281 80.3426 11.466 80.1286 11.9165C79.9146 12.3671 79.8076 12.9359 79.8076 13.623C79.8076 14.31 79.9146 14.907 80.1286 15.3801C80.3426 15.8532 80.6355 16.208 81.0072 16.4445C81.3789 16.681 81.8181 16.7993 82.325 16.7993C82.8319 16.7993 83.2824 16.6839 83.6767 16.453C84.0709 16.2221 84.3778 15.8701 84.5975 15.397C84.8171 14.9239 84.9269 14.3326 84.9269 13.623ZM91.4739 16.7571C91.4232 16.7627 91.3641 16.7655 91.2965 16.7655C91.1501 16.7655 91.0262 16.743 90.9248 16.6979C90.8234 16.6529 90.739 16.5825 90.6714 16.4867C90.6038 16.391 90.5559 16.2699 90.5278 16.1235C90.4996 15.9771 90.4855 15.8025 90.4855 15.5997V5.2428L88.7622 5.49623V16.36C88.7622 16.6867 88.8072 16.9655 88.8974 17.1964C88.9875 17.4273 89.117 17.6159 89.2859 17.7624C89.4549 17.9088 89.6548 18.013 89.8857 18.0749C90.1166 18.1369 90.3673 18.1678 90.6376 18.1678C90.7728 18.1678 90.9023 18.1622 91.0262 18.151C91.1501 18.1397 91.2712 18.1228 91.3894 18.1003C91.5077 18.0777 91.6063 18.0552 91.6851 18.0327L91.8541 16.6979L91.6513 16.7317C91.5837 16.743 91.5246 16.7514 91.4739 16.7571ZM99.4063 5.49623L101.13 5.25969V17.9989H99.7274L99.5162 17.2189C99.3895 17.3118 99.2627 17.3991 99.136 17.4751C98.7531 17.7117 98.3616 17.8863 97.9618 17.9989C97.5619 18.1115 97.1367 18.1678 96.6862 18.1678C95.909 18.1678 95.2416 17.9961 94.6841 17.6525C94.1265 17.309 93.6985 16.8218 93.4 16.1911C93.1015 15.5603 92.9523 14.8113 92.9523 13.944C92.9523 12.9302 93.1494 12.0714 93.5436 11.3674C93.9378 10.6634 94.4588 10.1256 95.1064 9.75389C95.7541 9.38219 96.4553 9.19634 97.2099 9.19634C97.638 9.19634 98.0294 9.23295 98.3842 9.30616C98.739 9.37938 99.0628 9.4723 99.3557 9.58494C99.3726 9.59057 99.3895 9.59902 99.4063 9.60747V5.49623ZM99.4063 16.1094V10.9028C99.3191 10.8718 99.2261 10.8352 99.1445 10.8099C98.8798 10.7254 98.6179 10.6634 98.3588 10.624C98.0998 10.5846 97.8294 10.5649 97.5478 10.5649C96.9621 10.5649 96.4581 10.686 96.0357 10.9281C95.6133 11.1703 95.2895 11.5251 95.0642 11.9925C94.8389 12.46 94.7263 13.0429 94.7263 13.7412C94.7263 14.4396 94.8277 14.9999 95.0304 15.4561C95.2332 15.9123 95.526 16.2502 95.909 16.4699C96.292 16.6895 96.7538 16.7993 97.2944 16.7993C97.6549 16.7993 98.0575 16.7177 98.5024 16.5543C98.7869 16.4501 99.0882 16.2981 99.4063 16.1094ZM115.389 11.266C115.739 11.925 115.913 12.6993 115.913 13.5892C115.913 14.5241 115.725 15.335 115.347 16.0221C114.97 16.7092 114.443 17.2386 113.768 17.6103C113.092 17.982 112.315 18.1678 111.436 18.1678C110.557 18.1678 109.848 17.9933 109.206 17.6441C108.564 17.2949 108.071 16.7852 107.727 16.115C107.384 15.4449 107.212 14.648 107.212 13.7243C107.212 12.8007 107.395 12.001 107.761 11.3252C108.127 10.6494 108.64 10.1256 109.299 9.75389C109.958 9.38219 110.726 9.19634 111.605 9.19634C112.483 9.19634 113.247 9.37656 113.894 9.737C114.542 10.0974 115.04 10.6071 115.389 11.266ZM114.122 13.623C114.122 13.1612 114.072 12.7416 113.97 12.3642C113.869 11.9869 113.714 11.6631 113.506 11.3928C113.297 11.1224 113.038 10.9169 112.728 10.7761C112.419 10.6353 112.05 10.5649 111.622 10.5649C111.081 10.5649 110.617 10.6775 110.228 10.9028C109.839 11.1281 109.538 11.466 109.324 11.9165C109.11 12.3671 109.003 12.9359 109.003 13.623C109.003 14.31 109.11 14.907 109.324 15.3801C109.538 15.8532 109.831 16.208 110.203 16.4445C110.574 16.681 111.014 16.7993 111.52 16.7993C112.027 16.7993 112.478 16.6839 112.872 16.453C113.266 16.2221 113.573 15.8701 113.793 15.397C114.013 14.9239 114.122 14.3326 114.122 13.623ZM124.009 9.62155L125.662 9.19634V17.9482C125.662 18.6916 125.496 19.3477 125.164 19.9165C124.831 20.4853 124.338 20.9303 123.685 21.2513C123.032 21.5723 122.227 21.7328 121.269 21.7328C120.886 21.7328 120.514 21.7103 120.154 21.6652C119.794 21.6202 119.447 21.5554 119.115 21.4709C118.783 21.3864 118.464 21.2822 118.16 21.1583L117.975 19.6715C118.324 19.818 118.678 19.9391 119.039 20.0348C119.399 20.1305 119.757 20.1981 120.112 20.2375C120.467 20.277 120.813 20.2967 121.151 20.2967C121.658 20.2967 122.089 20.2432 122.443 20.1362C122.798 20.0292 123.085 19.8658 123.305 19.6462C123.525 19.4266 123.688 19.1562 123.795 18.8352C123.902 18.5142 123.955 18.1397 123.955 17.7117V17.2499C123.637 17.4836 123.316 17.6694 122.992 17.7961C122.395 18.0327 121.793 18.151 121.185 18.151C120.396 18.151 119.726 17.9792 119.174 17.6356C118.622 17.2921 118.203 16.8078 117.915 16.1826C117.628 15.5575 117.485 14.8169 117.485 13.9609C117.485 13.1949 117.597 12.5163 117.822 11.925C118.048 11.3336 118.36 10.838 118.76 10.4382C119.16 10.0383 119.613 9.73137 120.12 9.51736C120.627 9.30335 121.162 9.19634 121.725 9.19634C122.052 9.19634 122.356 9.21605 122.638 9.25548C122.919 9.2949 123.181 9.3484 123.423 9.41598C123.629 9.4723 123.823 9.5427 124.009 9.62155ZM123.955 16.0531V10.9028C123.871 10.8718 123.784 10.838 123.702 10.8099C123.432 10.7254 123.167 10.6606 122.908 10.6156C122.649 10.5705 122.384 10.548 122.114 10.548C121.663 10.548 121.261 10.6184 120.906 10.7592C120.551 10.9 120.253 11.0999 120.01 11.359C119.768 11.618 119.582 11.9475 119.453 12.3474C119.323 12.7472 119.259 13.2062 119.259 13.7243C119.259 14.4227 119.351 14.9943 119.537 15.4392C119.723 15.8841 120.01 16.2164 120.399 16.4361C120.788 16.6557 121.275 16.7655 121.86 16.7655C122.074 16.7655 122.28 16.743 122.477 16.6979C122.674 16.6529 122.877 16.5881 123.085 16.5036C123.294 16.4192 123.511 16.3122 123.736 16.1826C123.806 16.1432 123.882 16.0982 123.955 16.0531ZM140.192 7.4899V6.00309H130.697V7.4899H134.566V17.9989H136.34V7.4899H140.192ZM147.314 12.0179C147.454 12.6261 147.485 13.3245 147.406 14.1129H141.302C141.324 14.5438 141.383 14.9155 141.485 15.228C141.614 15.6223 141.806 15.9348 142.059 16.1657C142.312 16.3966 142.625 16.56 142.997 16.6557C143.368 16.7514 143.808 16.7993 144.315 16.7993C144.562 16.7993 144.81 16.7852 145.058 16.7571C145.306 16.7289 145.548 16.6839 145.784 16.6219C146.021 16.56 146.249 16.4896 146.469 16.4107C146.688 16.3319 146.905 16.253 147.119 16.1742L147.001 17.4751C146.697 17.6328 146.393 17.7624 146.089 17.8637C145.784 17.9651 145.461 18.0411 145.117 18.0918C144.774 18.1425 144.377 18.1678 143.926 18.1678C142.98 18.1678 142.18 18.0017 141.527 17.6694C140.874 17.3372 140.381 16.8472 140.048 16.1995C139.716 15.5519 139.55 14.7662 139.55 13.8426C139.55 13.1443 139.643 12.5107 139.829 11.9419C140.015 11.373 140.285 10.8859 140.64 10.4804C140.995 10.0749 141.425 9.75953 141.932 9.53425C142.439 9.30898 143.014 9.19634 143.656 9.19634C144.298 9.19634 144.869 9.30335 145.371 9.51736C145.872 9.73137 146.286 10.0496 146.612 10.472C146.939 10.8943 147.173 11.4097 147.314 12.0179ZM141.552 11.925C141.448 12.2009 141.38 12.536 141.338 12.9134H145.782C145.782 12.5754 145.742 12.2572 145.658 11.9672C145.528 11.5167 145.3 11.1647 144.973 10.9112C144.647 10.6578 144.213 10.5311 143.673 10.5311C143.132 10.5311 142.715 10.6465 142.355 10.8774C141.994 11.1083 141.727 11.4575 141.552 11.925ZM152.179 16.7571C152.129 16.7627 152.07 16.7655 152.002 16.7655C151.856 16.7655 151.732 16.743 151.63 16.6979C151.529 16.6529 151.444 16.5825 151.377 16.4867C151.309 16.391 151.261 16.2699 151.233 16.1235C151.205 15.9771 151.191 15.8025 151.191 15.5997V5.2428L149.468 5.49623V16.36C149.468 16.6867 149.513 16.9655 149.603 17.1964C149.693 17.4273 149.822 17.6159 149.991 17.7624C150.16 17.9088 150.36 18.013 150.591 18.0749C150.822 18.1369 151.073 18.1678 151.343 18.1678C151.478 18.1678 151.608 18.1622 151.732 18.151C151.856 18.1397 151.977 18.1228 152.095 18.1003C152.213 18.0777 152.312 18.0552 152.391 18.0327L152.56 16.6979L152.357 16.7317C152.289 16.743 152.23 16.7514 152.179 16.7571ZM161.421 12.0179C161.562 12.6261 161.593 13.3245 161.514 14.1129H155.409C155.432 14.5438 155.491 14.9155 155.592 15.228C155.722 15.6223 155.913 15.9348 156.167 16.1657C156.42 16.3966 156.733 16.56 157.104 16.6557C157.476 16.7514 157.915 16.7993 158.422 16.7993C158.67 16.7993 158.918 16.7852 159.166 16.7571C159.414 16.7289 159.656 16.6839 159.892 16.6219C160.129 16.56 160.357 16.4896 160.576 16.4107C160.796 16.3319 161.013 16.253 161.227 16.1742L161.109 17.4751C160.805 17.6328 160.5 17.7624 160.196 17.8637C159.892 17.9651 159.568 18.0411 159.225 18.0918C158.881 18.1425 158.484 18.1678 158.034 18.1678C157.088 18.1678 156.288 18.0017 155.635 17.6694C154.981 17.3372 154.488 16.8472 154.156 16.1995C153.824 15.5519 153.658 14.7662 153.658 13.8426C153.658 13.1443 153.751 12.5107 153.937 11.9419C154.122 11.373 154.393 10.8859 154.748 10.4804C155.102 10.0749 155.533 9.75953 156.04 9.53425C156.547 9.30898 157.121 9.19634 157.763 9.19634C158.405 9.19634 158.977 9.30335 159.478 9.51736C159.979 9.73137 160.393 10.0496 160.72 10.472C161.047 10.8943 161.28 11.4097 161.421 12.0179ZM155.66 11.925C155.556 12.2009 155.488 12.536 155.446 12.9134H159.889C159.889 12.5754 159.85 12.2572 159.765 11.9672C159.636 11.5167 159.408 11.1647 159.081 10.9112C158.755 10.6578 158.321 10.5311 157.78 10.5311C157.24 10.5311 156.823 10.6465 156.462 10.8774C156.102 11.1083 155.834 11.4575 155.66 11.925ZM175.301 9.55115C174.895 9.31461 174.394 9.19634 173.797 9.19634C173.335 9.19634 172.89 9.27237 172.462 9.42443C172.034 9.57649 171.629 9.79332 171.246 10.0749C171.038 10.227 170.838 10.3987 170.646 10.5818C170.449 10.134 170.162 9.79332 169.776 9.56804C169.371 9.33151 168.864 9.21324 168.255 9.21324C167.805 9.21324 167.363 9.28927 166.929 9.44133C166.496 9.59339 166.087 9.8074 165.704 10.0834C165.583 10.1706 165.465 10.2664 165.349 10.3649V9.21324L163.626 9.46667V17.9989H165.349V11.573C165.555 11.4406 165.766 11.3167 165.983 11.2154C166.259 11.0858 166.538 10.9873 166.819 10.9197C167.101 10.8521 167.371 10.8183 167.63 10.8183C167.923 10.8183 168.168 10.8605 168.365 10.945C168.562 11.0295 168.729 11.1534 168.864 11.3167C168.999 11.48 169.097 11.6941 169.159 11.9588C169.221 12.2235 169.252 12.5304 169.252 12.8796V17.9989H170.976V12.5248C170.976 12.1728 170.953 11.8518 170.911 11.5589C171.111 11.4294 171.311 11.3111 171.516 11.2069C171.787 11.0717 172.063 10.9704 172.344 10.9028C172.626 10.8352 172.902 10.8014 173.172 10.8014C173.442 10.8014 173.696 10.8437 173.899 10.9281C174.101 11.0126 174.27 11.1365 174.405 11.2998C174.541 11.4632 174.639 11.6772 174.701 11.9419C174.763 12.2066 174.794 12.5135 174.794 12.8627V17.9989H176.517V12.5079C176.517 11.7419 176.416 11.1168 176.213 10.6325C176.01 10.1481 175.706 9.78768 175.301 9.55115ZM186.621 16.9176C186.711 16.9063 186.807 16.8838 186.908 16.85L186.722 17.982C186.666 18.0045 186.601 18.0242 186.528 18.0411C186.455 18.058 186.373 18.0777 186.283 18.1003C186.193 18.1228 186.1 18.1369 186.004 18.1425C185.908 18.1481 185.81 18.151 185.709 18.151C185.348 18.151 185.027 18.0918 184.745 17.9735C184.464 17.8553 184.244 17.6638 184.087 17.3991C184.002 17.2583 183.943 17.0922 183.904 16.9007C183.797 17.0246 183.687 17.1457 183.571 17.2555C183.261 17.5483 182.907 17.7736 182.507 17.9313C182.107 18.089 181.631 18.1678 181.079 18.1678C180.482 18.1678 179.984 18.0552 179.584 17.8299C179.184 17.6047 178.886 17.309 178.688 16.9429C178.491 16.5769 178.393 16.1798 178.393 15.7518C178.393 15.3012 178.519 14.8873 178.773 14.51C179.026 14.1326 179.412 13.8201 179.93 13.5723C180.448 13.3245 181.102 13.178 181.89 13.133L183.864 13.0006V12.5783C183.864 12.2516 183.833 11.9672 183.766 11.725C183.698 11.4829 183.585 11.2829 183.428 11.1252C183.27 10.9676 183.053 10.8493 182.777 10.7704C182.501 10.6916 182.16 10.6522 181.755 10.6522C181.53 10.6522 181.302 10.6606 181.071 10.6775C180.84 10.6944 180.606 10.7254 180.37 10.7704C180.133 10.8155 179.888 10.8718 179.635 10.9394C179.381 11.007 179.114 11.0915 178.832 11.1928L179.035 9.75671C179.316 9.64407 179.612 9.54552 179.922 9.46104C180.232 9.37656 180.561 9.3118 180.91 9.26674C181.259 9.22169 181.614 9.19916 181.975 9.19916C182.47 9.19916 182.915 9.24421 183.309 9.33432C183.704 9.42443 184.044 9.55396 184.332 9.72292C184.619 9.89187 184.852 10.1003 185.033 10.3481C185.213 10.5959 185.348 10.8831 185.438 11.2097C185.528 11.5364 185.573 11.8968 185.573 12.291L185.54 15.7715C185.528 16.1883 185.59 16.4867 185.725 16.667C185.861 16.8472 186.08 16.9373 186.384 16.9373C186.452 16.9373 186.531 16.9317 186.621 16.9204V16.9176ZM183.853 15.9067L183.861 14.2312H182.383C181.831 14.2312 181.392 14.2763 181.065 14.3664C180.738 14.4565 180.502 14.5973 180.355 14.7888C180.209 14.9802 180.136 15.2449 180.136 15.5828C180.136 15.8419 180.192 16.0644 180.305 16.2502C180.417 16.4361 180.584 16.5797 180.803 16.681C181.023 16.7824 181.29 16.8331 181.606 16.8331C181.854 16.8331 182.093 16.8106 182.324 16.7655C182.555 16.7205 182.774 16.6473 182.983 16.5459C183.191 16.4445 183.388 16.3206 183.574 16.1742C183.673 16.0953 183.766 16.0052 183.856 15.9095L183.853 15.9067ZM192.044 9.32024C191.729 9.40472 191.43 9.53425 191.149 9.70884C190.867 9.88343 190.603 10.0946 190.355 10.3424C190.315 10.3818 190.276 10.4269 190.237 10.4691V9.21042L188.513 9.46385V17.9961H190.237V11.6124C190.366 11.5223 190.498 11.4378 190.634 11.3646C190.808 11.2689 190.983 11.1872 191.157 11.1196C191.332 11.052 191.509 10.9929 191.69 10.9422C191.87 10.8915 192.058 10.8549 192.256 10.8324C192.453 10.8099 192.658 10.8042 192.872 10.8155L193.075 9.22732C192.703 9.20479 192.36 9.23577 192.044 9.32024ZM199.85 17.9961H202.08L197.983 13.378L201.996 9.37938H199.884L196.992 12.5557H196.37V5.2428L194.646 5.49623V17.9989H196.37V13.8595H196.398L199.85 17.9989V17.9961Z" fill="white"/>
</g>
<defs>
<clipPath id="clip0_5918_1282">
<rect width="166" height="17" fill="white" transform="translate(37 5)"/>
</clipPath>
</defs>
</svg>
