<svg xmlns="http://www.w3.org/2000/svg" viewBox="0 0 78 41"><path fill="#fff" d="M0 17.998v-12h4v12H0Zm9.244-10.09 2.264 10.09H7.2l-2.704-12h2.417a2.276 2.276 0 0 1 1.513.55c.42.346.66.826.819 1.36ZM12 17.998v-12h4v12h-4Zm7.01-7.436a2.381 2.381 0 0 1-2.078-1.192 2.345 2.345 0 0 1-.321-1.208 2.301 2.301 0 0 1 .321-1.2A2.41 2.41 0 0 1 20.21 6.1c.356.21.653.506.862.862.215.363.326.778.321 1.2a2.35 2.35 0 0 1-.321 1.208 2.4 2.4 0 0 1-.862.87 2.301 2.301 0 0 1-1.2.322ZM22 17.998v-12h4v12h-4Zm8.974-5.442c.01.011.095.15.253.414s.364.602.617 1.014a316.22 316.22 0 0 1 1.597 2.62c.247.41.529.876.845 1.394H29.96c-.27-.44-.516-.837-.736-1.192-.22-.355-.453-.738-.7-1.15-.248-.41-.493-.81-.736-1.199-.242-.39-.45-.73-.625-1.022a18.04 18.04 0 0 0-.363-.592 1.747 1.747 0 0 1-.287-.845c.016-.29.11-.57.27-.811.067-.113.191-.313.371-.6a182.106 182.106 0 0 0 1.37-2.23l.7-1.159.736-1.2h4.326l-3.346 5.46a1.079 1.079 0 0 0-.17.54c.012.202.083.396.204.558Z"/><path fill="#9FDAF5" d="M5.643 24.487v10.509H3.87v-10.51H0V23h9.495v1.487H5.643Zm7.316 1.833a3.32 3.32 0 0 0-.896.388 4.402 4.402 0 0 0-.794.634c-.04.04-.079.084-.118.127v-1.26l-1.723.254v8.533h1.723v-6.384a4.224 4.224 0 0 1 .92-.493c.175-.067.353-.127.533-.177a3.593 3.593 0 0 1 1.183-.127l.202-1.588a3.215 3.215 0 0 0-1.03.093Zm10.644.38-.977 1.036c.124.163.242.338.343.527.355.659.533 1.433.533 2.323 0 .935-.192 1.746-.575 2.433a4.006 4.006 0 0 1-1.58 1.588c-.67.372-1.444.558-2.323.558-.878 0-1.602-.175-2.238-.524a3.63 3.63 0 0 1-.409-.265l-.9.974-.778-.71.94-1.002a3.977 3.977 0 0 1-.332-.526c-.349-.67-.523-1.467-.523-2.391 0-.924.183-1.723.549-2.4.366-.675.878-1.199 1.537-1.57.66-.372 1.428-.558 2.306-.558.879 0 1.656.18 2.298.54.138.077.265.164.389.257l.946-1 .794.71Zm-7.012 3.92c0 .69.102 1.267.307 1.737l3.931-4.246a1.966 1.966 0 0 0-.518-.341c-.315-.14-.687-.211-1.115-.211-.53 0-.988.112-1.377.338-.389.225-.69.563-.904 1.013-.214.451-.32 1.02-.32 1.707l-.004.003Zm5.12 0c0-.462-.054-.882-.16-1.259a3.395 3.395 0 0 0-.15-.414l-3.934 4.246c.099.093.2.178.316.248.377.237.819.355 1.326.355.507 0 .954-.115 1.343-.346.389-.231.695-.583.92-1.056.226-.473.339-1.065.339-1.774Zm10.576-4.072c-.428-.237-.968-.355-1.622-.355a4.75 4.75 0 0 0-1.444.228 5.488 5.488 0 0 0-1.36.65 6.331 6.331 0 0 0-.473.347V26.21l-1.724.253v8.533h1.724v-6.418a4.94 4.94 0 0 1 .515-.265c.242-.107.484-.2.726-.278.243-.08.485-.138.727-.178.242-.04.476-.059.701-.059.316 0 .586.042.811.127.225.084.411.211.558.38.146.169.253.383.32.642.068.26.102.563.102.912v5.137h1.723v-5.491c0-.766-.107-1.392-.32-1.876-.215-.484-.536-.845-.964-1.081Zm9.749-4.055 1.723-.237v12.74h-1.402l-.211-.78a5 5 0 0 1-.38.256 4.608 4.608 0 0 1-1.175.524c-.4.112-.825.169-1.275.169-.777 0-1.445-.172-2.002-.516a3.355 3.355 0 0 1-1.284-1.461c-.299-.631-.448-1.38-.448-2.247 0-1.014.197-1.873.591-2.577.395-.704.915-1.242 1.563-1.613a4.154 4.154 0 0 1 2.104-.558 5.821 5.821 0 0 1 2.145.389.402.402 0 0 1 .051.022v-4.111Zm0 10.613V27.9c-.087-.03-.18-.067-.262-.092a5.11 5.11 0 0 0-1.596-.245c-.586 0-1.09.12-1.513.363a2.383 2.383 0 0 0-.971 1.064c-.225.468-.338 1.05-.338 1.749 0 .698.101 1.259.304 1.715.203.456.496.794.879 1.014.383.22.844.329 1.385.329.36 0 .763-.082 1.208-.245.285-.104.586-.256.904-.445Zm11.599-4.091c.14.608.172 1.306.093 2.095h-6.105c.022.43.081.802.183 1.115.13.394.32.706.574.937.254.231.566.395.938.49a5.33 5.33 0 0 0 1.318.144c.248 0 .495-.014.743-.042.248-.028.49-.073.727-.135.236-.062.464-.133.684-.212.22-.078.436-.157.65-.236l-.118 1.3a6.33 6.33 0 0 1-.912.39 5.694 5.694 0 0 1-.972.228c-.343.05-.74.076-1.19.076-.947 0-1.747-.167-2.4-.499a3.303 3.303 0 0 1-1.478-1.47c-.333-.647-.499-1.433-.499-2.357a6.1 6.1 0 0 1 .279-1.9 4.143 4.143 0 0 1 .811-1.462c.355-.405.786-.72 1.293-.946.506-.225 1.08-.338 1.723-.338.642 0 1.214.107 1.715.321.501.214.915.532 1.242.955.326.422.56.937.7 1.546Zm-5.762-.093a4.152 4.152 0 0 0-.214.988h4.444c0-.338-.04-.656-.124-.946-.13-.45-.358-.803-.684-1.056-.327-.254-.76-.38-1.301-.38-.54 0-.958.115-1.318.346-.36.231-.628.58-.803 1.048Zm10.628 4.832c-.051.005-.11.008-.178.008a.913.913 0 0 1-.371-.067.61.61 0 0 1-.254-.212.926.926 0 0 1-.144-.363 2.809 2.809 0 0 1-.042-.524V22.24l-1.723.253v10.864c0 .326.045.605.135.836.09.231.22.42.389.566.169.147.369.25.6.313.23.062.481.093.751.093a3.782 3.782 0 0 0 1.047-.135l.17-1.335-.203.033c-.067.012-.127.02-.177.026Zm9.655.16c.09-.011.186-.034.288-.067l-.186 1.132a1.336 1.336 0 0 1-.194.059 13.44 13.44 0 0 0-.245.059c-.09.023-.184.037-.28.042a5.063 5.063 0 0 1-.295.009c-.36 0-.681-.06-.963-.178a1.364 1.364 0 0 1-.659-.574 1.582 1.582 0 0 1-.183-.499 4.997 4.997 0 0 1-.332.355c-.31.293-.665.518-1.065.676-.4.158-.875.237-1.427.237-.597 0-1.096-.113-1.496-.338-.4-.226-.698-.521-.895-.887a2.473 2.473 0 0 1-.296-1.191c0-.451.127-.865.38-1.242.254-.378.64-.69 1.158-.938.518-.248 1.171-.394 1.96-.44l1.974-.132v-.422a3.2 3.2 0 0 0-.099-.853 1.34 1.34 0 0 0-.338-.6c-.157-.158-.374-.276-.65-.355a3.778 3.778 0 0 0-1.023-.118c-.225 0-.453.008-.684.025-.23.017-.464.048-.7.093a9.978 9.978 0 0 0-1.537.422l.201-1.436c.282-.112.578-.21.887-.295.31-.085.64-.15.989-.195a8.32 8.32 0 0 1 1.064-.067c.496 0 .94.045 1.335.135.394.09.735.22 1.022.389.287.169.521.377.701.625.18.248.316.535.406.861.09.327.135.688.135 1.082l-.034 3.48c-.011.417.05.715.186.896.135.18.355.27.659.27.067 0 .146-.006.236-.017v-.003Zm-2.768-1.01.009-1.676h-1.479c-.551 0-.99.045-1.317.135-.327.09-.564.231-.71.422-.146.192-.22.457-.22.795 0 .259.057.481.17.667.112.186.278.33.498.43.22.102.487.153.802.153.248 0 .487-.023.718-.068.231-.045.45-.118.66-.22a2.77 2.77 0 0 0 .873-.636l-.004-.003Zm12.247-6.711v8.752c0 .743-.166 1.4-.499 1.968-.332.57-.825 1.014-1.478 1.335-.653.321-1.459.482-2.416.482-.383 0-.755-.023-1.115-.068a8.47 8.47 0 0 1-1.04-.194 7.284 7.284 0 0 1-.954-.313l-.186-1.487c.35.147.704.268 1.065.364.36.095.718.163 1.073.202.354.04.7.06 1.039.06.507 0 .937-.054 1.292-.161.355-.107.642-.27.862-.49.22-.22.383-.49.49-.811.107-.321.16-.696.16-1.124v-.461c-.318.233-.639.42-.963.546-.597.236-1.2.355-1.808.355-.788 0-1.458-.172-2.01-.516a3.275 3.275 0 0 1-1.259-1.453c-.287-.625-.43-1.365-.43-2.221 0-.766.112-1.445.337-2.036a4.164 4.164 0 0 1 .938-1.487c.4-.4.853-.707 1.36-.92a4.084 4.084 0 0 1 1.605-.322c.327 0 .63.02.913.06.281.039.543.092.785.16.206.056.4.126.586.205l1.653-.425Zm-1.707 6.857V27.9c-.084-.031-.171-.065-.253-.093a6.244 6.244 0 0 0-.794-.195 4.621 4.621 0 0 0-.794-.067c-.45 0-.853.07-1.208.21-.355.142-.654.342-.896.6a2.592 2.592 0 0 0-.557.99c-.13.399-.195.858-.195 1.376 0 .698.093 1.27.28 1.715.185.445.472.777.86.997.39.22.877.33 1.462.33.214 0 .42-.023.617-.068.197-.045.4-.11.608-.195.209-.084.425-.191.65-.32.071-.04.147-.085.22-.13Z"/></svg>