<svg xmlns="http://www.w3.org/2000/svg" viewBox="0 0 113 24"><path fill="#fff" d="M0 17.998v-12h4v12H0Zm9.244-10.09 2.264 10.09H7.2l-2.704-12h2.417a2.276 2.276 0 0 1 1.513.55c.42.346.66.826.819 1.36ZM12 17.998v-12h4v12h-4Zm7.01-7.436a2.381 2.381 0 0 1-2.078-1.192 2.345 2.345 0 0 1-.321-1.208 2.301 2.301 0 0 1 .321-1.2A2.41 2.41 0 0 1 20.21 6.1c.356.21.653.506.862.862.215.363.326.778.321 1.2a2.35 2.35 0 0 1-.321 1.208 2.4 2.4 0 0 1-.862.87 2.301 2.301 0 0 1-1.2.322ZM22 17.998v-12h4v12h-4Zm8.974-5.442c.01.011.095.15.253.414s.364.602.617 1.014a316.22 316.22 0 0 1 1.597 2.62c.247.41.529.876.845 1.394H29.96c-.27-.44-.516-.837-.736-1.192-.22-.355-.453-.738-.7-1.15-.248-.41-.493-.81-.736-1.199-.242-.39-.45-.73-.625-1.022a18.04 18.04 0 0 0-.363-.592 1.747 1.747 0 0 1-.287-.845c.016-.29.11-.57.27-.811.067-.113.191-.313.371-.6a182.106 182.106 0 0 0 1.37-2.23l.7-1.159.736-1.2h4.326l-3.346 5.46a1.079 1.079 0 0 0-.17.54c.012.202.083.396.204.558ZM44.882 13.049c.231-.037.451-.088.665-.155a3.296 3.296 0 0 0 1.191-.668c.338-.298.603-.67.794-1.115.192-.445.287-.96.287-1.546 0-.653-.126-1.25-.38-1.79-.253-.541-.67-.972-1.25-1.293-.58-.321-1.36-.482-2.34-.482H39v11.996h1.757v-4.595h2.585l2.99 4.595h2.062l-2.805-4.156-.704-.791h-.003Zm.031-5.35c.372.151.648.388.828.709.18.32.27.73.27 1.225 0 .552-.11 1-.329 1.343-.22.344-.535.591-.946.743-.411.152-.898.229-1.461.229h-2.518V7.47h2.72c.586 0 1.065.076 1.436.228ZM56.04 9.733c-.648-.36-1.41-.54-2.29-.54-.878 0-1.647.185-2.306.557a3.896 3.896 0 0 0-1.537 1.571c-.366.676-.55 1.476-.55 2.4 0 .923.173 1.72.516 2.39.344.67.837 1.18 1.479 1.53.642.349 1.385.523 2.23.523s1.656-.186 2.331-.557a3.935 3.935 0 0 0 1.58-1.589c.377-.687.566-1.498.566-2.433 0-.934-.175-1.664-.524-2.323a3.691 3.691 0 0 0-1.495-1.529Zm-.101 5.66c-.22.473-.527.825-.921 1.056a2.623 2.623 0 0 1-1.352.347c-.507 0-.946-.119-1.318-.355-.371-.237-.664-.592-.878-1.065-.214-.473-.321-1.059-.321-1.757s.107-1.256.32-1.706c.215-.45.516-.789.905-1.014.388-.225.853-.338 1.394-.338.428 0 .797.07 1.106.211.31.141.57.347.778.617.208.27.363.594.464.971.102.378.152.797.152 1.26 0 .709-.11 1.3-.33 1.773Zm9.63-5.98a6.042 6.042 0 0 0-.785-.161 6.594 6.594 0 0 0-.913-.06c-.563 0-1.098.108-1.605.322-.507.214-.96.52-1.36.92-.4.4-.712.896-.938 1.487-.225.591-.338 1.27-.338 2.036 0 .856.144 1.597.431 2.222.287.625.707 1.11 1.259 1.453.552.343 1.222.515 2.01.515.609 0 1.211-.118 1.808-.355.324-.13.645-.312.963-.546v.462c0 .428-.053.802-.16 1.123-.107.321-.27.592-.49.811-.22.22-.507.383-.862.49-.355.107-.785.16-1.292.16a9.39 9.39 0 0 1-1.04-.058 7.33 7.33 0 0 1-1.072-.203 8.156 8.156 0 0 1-1.065-.363l.186 1.486c.304.124.623.229.955.313.332.085.678.15 1.039.194.36.046.732.068 1.115.068.957 0 1.763-.16 2.416-.482.653-.32 1.146-.765 1.478-1.334.333-.57.499-1.225.499-1.969V9.194l-1.653.425a4.631 4.631 0 0 0-.586-.206Zm.313 6.766c-.225.13-.442.236-.65.32-.21.085-.412.15-.609.195a2.757 2.757 0 0 1-.617.068c-.585 0-1.072-.11-1.461-.33a1.98 1.98 0 0 1-.862-.997c-.186-.444-.279-1.016-.279-1.714 0-.519.065-.978.195-1.377.13-.4.315-.73.557-.989.242-.259.54-.459.896-.6.355-.14.757-.21 1.208-.21.27 0 .535.022.794.067.259.045.524.11.794.194.082.025.169.06.253.093v5.15a6.37 6.37 0 0 1-.22.13Zm11.86.752c-.304 0-.523-.09-.659-.27-.135-.18-.197-.48-.185-.896l.033-3.48a4.06 4.06 0 0 0-.135-1.082 2.647 2.647 0 0 0-.405-.862 2.285 2.285 0 0 0-.701-.625 3.581 3.581 0 0 0-1.023-.388 6.01 6.01 0 0 0-1.334-.135c-.36 0-.716.022-1.065.067-.349.045-.678.11-.988.194-.31.085-.606.183-.887.296l-.203 1.436a9.938 9.938 0 0 1 1.538-.422c.236-.045.47-.076.7-.093.232-.017.46-.026.685-.026.406 0 .746.04 1.022.119.276.079.493.197.65.355.158.157.271.357.339.6.067.242.1.526.1.853v.425l-1.976.132c-.788.045-1.442.192-1.96.44-.518.247-.904.56-1.157.937a2.18 2.18 0 0 0-.38 1.242c0 .45.098.825.296 1.191.197.366.495.662.895.887.4.225.898.338 1.495.338.552 0 1.028-.079 1.428-.236.4-.158.754-.383 1.064-.676.116-.11.225-.228.332-.355.04.189.1.358.184.498.157.265.377.456.659.575.281.118.602.177.963.177.1 0 .2-.003.295-.008.096-.006.189-.02.279-.043l.245-.059a1.34 1.34 0 0 0 .194-.059l.186-1.132a1.504 1.504 0 0 1-.287.068c-.09.011-.17.017-.237.017Zm-2.813-.76c-.186.146-.383.27-.591.371a2.668 2.668 0 0 1-.659.22c-.23.045-.47.067-.718.067-.315 0-.583-.05-.803-.152a1.104 1.104 0 0 1-.498-.43 1.263 1.263 0 0 1-.169-.668c0-.338.073-.603.22-.794.146-.191.383-.332.71-.422.326-.09.765-.136 1.317-.136h1.479l-.009 1.679c-.087.098-.18.188-.282.264h.003Zm7.78.557.203-.034-.169 1.335a3.75 3.75 0 0 1-1.047.135c-.27 0-.521-.03-.752-.093a1.49 1.49 0 0 1-.6-.313 1.412 1.412 0 0 1-.388-.565 2.304 2.304 0 0 1-.135-.837V5.493l1.723-.253v10.357c0 .203.014.377.042.524a.925.925 0 0 0 .144.363.61.61 0 0 0 .253.211.913.913 0 0 0 .372.068c.067 0 .127 0 .177-.009.05-.005.11-.014.178-.025Zm9.243.203c-.305 0-.524-.09-.66-.27-.135-.18-.197-.48-.185-.896l.034-3.48a4.06 4.06 0 0 0-.136-1.082 2.647 2.647 0 0 0-.405-.862 2.285 2.285 0 0 0-.701-.625 3.581 3.581 0 0 0-1.022-.388 6.01 6.01 0 0 0-1.335-.135c-.36 0-.715.022-1.065.067-.349.045-.678.11-.988.194-.31.085-.606.183-.887.296l-.203 1.436a9.938 9.938 0 0 1 1.538-.422c.236-.045.47-.076.7-.093.232-.017.46-.026.685-.026.406 0 .746.04 1.022.119.276.079.493.197.65.355.158.157.271.357.339.6.067.242.101.526.101.853v.425l-1.977.132c-.788.045-1.442.192-1.96.44-.518.247-.903.56-1.157.937a2.18 2.18 0 0 0-.38 1.242c0 .45.099.825.296 1.191.197.366.495.662.895.887.4.225.898.338 1.495.338.552 0 1.028-.079 1.428-.236.4-.158.755-.383 1.064-.676.116-.11.226-.228.333-.355.04.189.098.358.183.498.157.265.377.456.659.575.281.118.602.177.963.177.101 0 .2-.003.295-.008.096-.006.189-.02.28-.043l.244-.059c.073-.017.138-.036.194-.059l.186-1.132a1.502 1.502 0 0 1-.287.068c-.09.011-.169.017-.236.017Zm-2.814-.76c-.186.146-.383.27-.591.371a2.668 2.668 0 0 1-.659.22c-.23.045-.47.067-.718.067-.315 0-.583-.05-.802-.152a1.104 1.104 0 0 1-.499-.43 1.264 1.264 0 0 1-.169-.668c0-.338.073-.603.22-.794.146-.191.383-.332.71-.422.326-.09.765-.136 1.317-.136h1.479l-.009 1.679c-.087.098-.18.188-.281.264h.002Zm12.528-5.542c.214.484.321 1.11.321 1.875v5.491h-1.723V12.86c0-.35-.034-.653-.101-.912a1.572 1.572 0 0 0-.321-.643 1.35 1.35 0 0 0-.558-.38 2.313 2.313 0 0 0-.81-.126c-.226 0-.46.02-.702.059-.242.04-.484.098-.727.177a7.688 7.688 0 0 0-.726.279c-.18.079-.352.169-.515.265v6.417h-1.724V9.464l1.724-.254v1.208c.152-.12.31-.239.473-.346a5.487 5.487 0 0 1 1.36-.65c.479-.152.96-.228 1.444-.228.654 0 1.194.118 1.622.354.428.237.749.597.963 1.082Zm8.786-5.137v4.112c-.017-.006-.034-.014-.051-.023a5.82 5.82 0 0 0-2.145-.389c-.755 0-1.456.186-2.104.558-.648.372-1.168.91-1.563 1.614-.394.704-.591 1.562-.591 2.576 0 .867.149 1.616.448 2.247.298.631.726 1.118 1.284 1.462.557.343 1.225.515 2.002.515.45 0 .876-.056 1.275-.169.4-.113.792-.287 1.175-.524.126-.079.253-.166.38-.256l.211.78h1.402V5.256l-1.723.237Zm-.904 11.059c-.445.163-.847.245-1.208.245-.541 0-1.002-.11-1.385-.33-.383-.22-.676-.557-.879-1.014-.203-.456-.304-1.027-.304-1.715 0-.687.113-1.28.338-1.748.225-.468.549-.822.971-1.065.423-.242.927-.363 1.513-.363a5.11 5.11 0 0 1 1.596.245c.082.025.175.062.262.093v5.207c-.318.188-.619.34-.904.445Z"/></svg>