<svg xmlns="http://www.w3.org/2000/svg" viewBox="0 0 76 54"><path fill="#0A2343" d="M0 17.998v-12h4v12H0Zm9.244-10.09 2.264 10.09H7.2l-2.704-12h2.417a2.276 2.276 0 0 1 1.513.55c.42.346.66.826.819 1.36ZM12 17.998v-12h4v12h-4Zm7.01-7.436a2.381 2.381 0 0 1-2.078-1.192 2.345 2.345 0 0 1-.321-1.208 2.301 2.301 0 0 1 .321-1.2A2.41 2.41 0 0 1 20.21 6.1c.356.21.653.506.862.862.215.363.326.778.321 1.2a2.35 2.35 0 0 1-.321 1.208 2.4 2.4 0 0 1-.862.87 2.301 2.301 0 0 1-1.2.322ZM22 17.998v-12h4v12h-4Zm8.974-5.442c.01.011.095.15.253.414s.364.602.617 1.014a316.22 316.22 0 0 1 1.597 2.62c.247.41.529.876.845 1.394H29.96c-.27-.44-.516-.837-.736-1.192-.22-.355-.453-.738-.7-1.15-.248-.41-.493-.81-.736-1.199-.242-.39-.45-.73-.625-1.022a18.04 18.04 0 0 0-.363-.592 1.747 1.747 0 0 1-.287-.845c.016-.29.11-.57.27-.811.067-.113.191-.313.371-.6a182.106 182.106 0 0 0 1.37-2.23l.7-1.159.736-1.2h4.326l-3.346 5.46a1.079 1.079 0 0 0-.17.54c.012.202.083.396.204.558Z"/><g clip-path="url(#a)"><path fill="#1767CE" d="M3.861 24.484H0V23h9.476v1.484H5.63V34.97h-1.77V24.484Zm9.071 1.83a3.312 3.312 0 0 0-.894.387 4.401 4.401 0 0 0-.792.632c-.04.04-.079.084-.118.127v-1.257l-1.72.253v8.515h1.72V28.6a4.226 4.226 0 0 1 .919-.492c.174-.068.351-.127.53-.177a3.589 3.589 0 0 1 1.181-.127l.203-1.585a3.21 3.21 0 0 0-1.029.093Zm9.914 1.938c.348.658.523 1.43.523 2.318 0 .933-.189 1.743-.565 2.428a3.927 3.927 0 0 1-1.577 1.585c-.674.371-1.45.556-2.326.556-.877 0-1.585-.174-2.226-.522A3.52 3.52 0 0 1 15.2 33.09c-.343-.669-.514-1.464-.514-2.386 0-.921.182-1.72.547-2.394a3.889 3.889 0 0 1 1.535-1.568c.657-.37 1.424-.556 2.301-.556.877 0 1.639.18 2.285.54.646.359 1.143.867 1.492 1.525Zm-1.265 2.352c0-.46-.05-.88-.151-1.256a2.728 2.728 0 0 0-.464-.97 2.022 2.022 0 0 0-.776-.615c-.309-.14-.677-.21-1.104-.21-.54 0-1.003.112-1.39.337-.389.224-.69.562-.903 1.011-.213.45-.32 1.017-.32 1.703 0 .686.107 1.282.32 1.754.214.472.506.826.877 1.062.37.236.81.354 1.315.354.506 0 .955-.115 1.349-.346.393-.23.7-.581.919-1.054.219-.472.328-1.062.328-1.77Zm14.93-1.677c.062.264.093.57.093.918v5.126h1.72v-5.48c0-.764-.101-1.388-.304-1.871-.202-.484-.506-.843-.91-1.08-.405-.235-.905-.353-1.5-.353-.462 0-.905.075-1.333.227a4.698 4.698 0 0 0-1.214.65 5.925 5.925 0 0 0-.598.505c-.197-.447-.484-.787-.869-1.011-.404-.236-.91-.355-1.517-.355-.45 0-.89.076-1.323.228a4.798 4.798 0 0 0-1.577.922v-1.15l-1.72.253v8.515h1.72v-6.413c.205-.132.416-.255.632-.357.276-.129.554-.227.835-.295a3.47 3.47 0 0 1 .81-.1c.291 0 .536.041.733.126a1.3 1.3 0 0 1 .497.37c.135.164.233.377.295.641.062.264.093.57.093.92v5.108h1.72v-5.463c0-.351-.023-.671-.065-.964.2-.129.399-.247.604-.351a3.86 3.86 0 0 1 .826-.303c.281-.068.557-.102.827-.102.27 0 .522.043.725.127.202.084.37.208.505.37.135.164.233.377.295.642Zm7.554 4.763a4.302 4.302 0 0 1-.953.1c-.18 0-.38-.013-.598-.041a8.901 8.901 0 0 1-.692-.119c-.241-.05-.489-.112-.742-.185a15.105 15.105 0 0 1-.767-.244l.068 1.433c.292.1.559.182.8.244.242.062.473.115.692.16.22.045.433.073.64.085.209.01.42.017.633.017.495 0 .961-.048 1.4-.144.438-.095.82-.244 1.146-.447.326-.202.581-.466.767-.792.185-.326.278-.714.278-1.163 0-.338-.048-.627-.143-.869a1.978 1.978 0 0 0-.396-.632 2.533 2.533 0 0 0-.59-.464 4.503 4.503 0 0 0-.709-.328c-.18-.057-.357-.116-.53-.177a9.408 9.408 0 0 0-.523-.17c-.175-.05-.343-.103-.506-.16a3.694 3.694 0 0 1-.447-.185 3 3 0 0 1-.396-.253 1.109 1.109 0 0 1-.287-.32.812.812 0 0 1-.11-.422c0-.18.04-.334.119-.463a.958.958 0 0 1 .354-.329c.157-.09.345-.157.565-.202.219-.045.469-.068.75-.068a5.273 5.273 0 0 1 .885.076c.174.028.348.065.523.11.174.045.35.095.53.152.18.056.344.118.49.185l.118-1.366a7.94 7.94 0 0 0-.633-.236 6.136 6.136 0 0 0-.632-.168 5.049 5.049 0 0 0-.632-.093 7.64 7.64 0 0 0-.615-.025c-.506 0-.967.053-1.383.16a3.482 3.482 0 0 0-1.087.472c-.31.208-.548.472-.717.792-.169.32-.253.7-.253 1.138 0 .315.045.593.135.835.09.242.208.447.354.615.146.169.318.318.514.447.197.13.408.24.632.329a15.267 15.267 0 0 0 .785.261 31.596 31.596 0 0 1 .741.236c.118.04.233.076.346.11.157.056.303.12.438.194.135.073.25.152.346.236a.861.861 0 0 1 .295.666c0 .28-.093.503-.278.666a1.617 1.617 0 0 1-.725.346ZM60.9 30.57c0 .933-.188 1.743-.565 2.428a3.927 3.927 0 0 1-1.576 1.585c-.675.371-1.45.556-2.327.556s-1.585-.174-2.226-.522a3.52 3.52 0 0 1-1.475-1.526c-.343-.669-.514-1.464-.514-2.386 0-.921.183-1.72.548-2.394a3.889 3.889 0 0 1 1.534-1.568c.658-.37 1.425-.556 2.302-.556.876 0 1.638.18 2.284.54.647.359 1.144.867 1.492 1.525.349.658.523 1.43.523 2.318Zm-1.787.034c0-.46-.05-.88-.152-1.256a2.726 2.726 0 0 0-.464-.97 2.022 2.022 0 0 0-.775-.615c-.31-.14-.677-.21-1.105-.21-.54 0-1.003.112-1.39.337-.388.224-.689.562-.903 1.011-.213.45-.32 1.017-.32 1.703 0 .686.107 1.282.32 1.754.214.472.506.826.877 1.062.371.236.81.354 1.315.354.506 0 .956-.115 1.35-.346.392-.23.699-.581.918-1.054.22-.472.329-1.062.329-1.77Zm9.543 7.613c-.652.32-1.456.48-2.411.48-.382 0-.753-.022-1.113-.067a8.472 8.472 0 0 1-1.037-.194 7.26 7.26 0 0 1-.953-.312l-.185-1.484c.348.146.703.267 1.062.363.36.095.717.163 1.07.202.355.04.7.059 1.038.059.506 0 .936-.053 1.29-.16.354-.107.64-.27.86-.49.219-.218.382-.488.488-.808.107-.32.16-.695.16-1.122v-.46a4.264 4.264 0 0 1-.96.545 4.86 4.86 0 0 1-1.805.354c-.786 0-1.455-.172-2.006-.515a3.268 3.268 0 0 1-1.256-1.45c-.287-.623-.43-1.363-.43-2.217 0-.764.112-1.441.337-2.031.225-.59.537-1.085.936-1.484.399-.4.851-.705 1.357-.919a4.075 4.075 0 0 1 1.602-.32c.326 0 .63.02.91.059.281.039.543.092.784.16.206.056.4.126.585.205l1.65-.424v8.733c0 .742-.166 1.397-.498 1.965-.332.567-.823 1.011-1.475 1.332Zm.27-5.188v-5.142c-.085-.031-.172-.065-.253-.093a6.253 6.253 0 0 0-.793-.194 4.612 4.612 0 0 0-.792-.067c-.45 0-.852.07-1.206.21-.354.14-.652.34-.893.599a2.586 2.586 0 0 0-.557.986c-.129.4-.194.857-.194 1.374 0 .697.093 1.268.279 1.712.185.444.472.775.86.994.387.22.873.33 1.458.33.213 0 .419-.023.615-.068.197-.045.4-.11.607-.194a6.438 6.438 0 0 0 .868-.45v.003ZM.039 51.831h1.77v-4.94h4.52l.185-1.467H1.81v-4.08h6.12v-1.483H.04v11.97Zm11.019-12.3a1.091 1.091 0 0 0-.582-.16c-.214 0-.41.054-.59.16-.18.108-.323.248-.43.422-.107.174-.16.368-.16.582 0 .214.053.41.16.59.107.18.25.32.43.422.18.1.376.151.59.151.213 0 .407-.05.582-.151.174-.102.312-.242.413-.422.1-.18.152-.377.152-.59 0-.214-.051-.408-.152-.582a1.187 1.187 0 0 0-.413-.421Zm-1.476 12.3h1.72v-8.767l-1.72.253v8.514Zm10.96-8.43c-.428-.236-.967-.354-1.619-.354-.483 0-.964.076-1.441.228a5.48 5.48 0 0 0-1.358.649c-.163.107-.32.225-.472.346v-1.206l-1.72.253v8.514h1.72v-6.404c.166-.095.335-.185.514-.264.242-.107.484-.2.725-.278.242-.079.484-.138.725-.177.242-.04.475-.06.7-.06.315 0 .585.043.81.127.224.085.41.211.556.38.146.168.253.382.32.64.068.259.101.562.101.91v5.126h1.72v-5.48c0-.764-.107-1.387-.32-1.87-.214-.484-.534-.844-.961-1.08Zm10.436 0c-.427-.236-.966-.354-1.618-.354-.484 0-.964.076-1.442.228-.478.151-.93.368-1.357.649-.163.107-.32.225-.472.346v-1.206l-1.72.253v8.514h1.72v-6.404c.166-.095.334-.185.514-.264.242-.107.483-.2.725-.278a4.87 4.87 0 0 1 .725-.177 4.36 4.36 0 0 1 .7-.06c.314 0 .584.043.809.127.225.085.41.211.556.38.147.168.253.382.32.64.068.259.102.562.102.91v5.126h1.72v-5.48c0-.764-.107-1.387-.32-1.87-.214-.484-.535-.844-.962-1.08Zm15.478 0c-.404-.236-.905-.354-1.5-.354-.461 0-.905.076-1.332.228a4.7 4.7 0 0 0-1.214.649 5.94 5.94 0 0 0-.599.506c-.197-.447-.483-.787-.868-1.012-.405-.236-.91-.354-1.518-.354-.45 0-.89.076-1.323.228a4.796 4.796 0 0 0-1.577.921v-1.149l-1.72.253v8.514h1.72V45.42c.206-.132.416-.256.633-.357.275-.13.553-.228.834-.295.281-.068.551-.101.81-.101.292 0 .536.042.733.126.197.084.363.208.497.371.135.163.234.377.295.64.062.265.093.571.093.92v5.108h1.72V46.37c0-.352-.023-.672-.065-.964.2-.13.4-.248.604-.352.27-.134.546-.236.827-.303.28-.067.556-.101.826-.101.27 0 .523.042.725.126.202.085.37.208.506.371.134.163.233.377.295.64.062.265.092.571.092.92v5.125h1.72v-5.48c0-.764-.101-1.387-.303-1.87-.203-.484-.506-.844-.91-1.08Zm11.297 7.351c.09-.01.185-.033.286-.067l-.185 1.13c-.056.022-.121.042-.194.059-.073.016-.155.036-.244.059-.09.022-.183.036-.279.042a5.044 5.044 0 0 1-.295.008c-.36 0-.68-.059-.96-.177-.282-.118-.501-.309-.658-.573a1.577 1.577 0 0 1-.183-.497 4.997 4.997 0 0 1-.332.354c-.309.292-.663.517-1.062.674-.399.157-.874.236-1.425.236-.595 0-1.093-.112-1.492-.337a2.221 2.221 0 0 1-.893-.885 2.468 2.468 0 0 1-.295-1.189c0-.45.126-.863.379-1.24.253-.376.638-.688 1.155-.935.517-.247 1.169-.394 1.956-.438l1.97-.133v-.421c0-.326-.031-.61-.099-.851a1.337 1.337 0 0 0-.337-.599c-.157-.157-.374-.275-.649-.354a3.768 3.768 0 0 0-1.02-.118c-.225 0-.453.008-.683.025-.23.017-.464.048-.7.093a9.966 9.966 0 0 0-1.534.422l.202-1.434c.281-.112.576-.21.886-.295.309-.084.637-.149.986-.194a8.303 8.303 0 0 1 1.062-.067 6 6 0 0 1 1.332.135c.394.09.733.219 1.02.388.287.168.52.376.7.623.18.248.315.534.404.86.09.326.135.686.135 1.08l-.033 3.473c-.012.416.05.713.185.893.135.18.354.27.658.27.067 0 .146-.006.236-.017v-.003Zm-2.763-1.006L55 48.071h-1.476c-.55 0-.989.046-1.315.135-.325.09-.562.23-.708.422-.146.191-.219.455-.219.792 0 .259.056.48.169.666.112.186.278.33.497.43.22.101.486.152.801.152.247 0 .486-.023.717-.067.23-.045.45-.118.657-.22a2.737 2.737 0 0 0 .871-.635h-.003Zm8.175-6.57a3.316 3.316 0 0 0-.894.388 4.401 4.401 0 0 0-.792.632c-.04.04-.079.085-.118.127v-1.256l-1.72.253v8.514h1.72v-6.37a4.348 4.348 0 0 1 .919-.492c.174-.067.351-.127.53-.177a3.575 3.575 0 0 1 1.181-.127l.202-1.584a3.208 3.208 0 0 0-1.028.092Zm7.79 8.658h2.225l-4.089-4.608 4.005-3.99h-2.108l-2.886 3.17h-.62v-7.301l-1.72.253v12.476h1.72v-4.13h.027l3.445 4.13Z"/></g><defs><clipPath id="a"><path fill="#fff" d="M0 23h73.18v29H0z"/></clipPath></defs></svg>