<svg width="176" height="24" viewBox="0 0 176 24" fill="none" xmlns="http://www.w3.org/2000/svg">
<path d="M0 17.9975V5.99856H4V17.9975H0ZM9.24381 7.90825L11.5081 17.9975H7.19917L4.49549 5.99856H6.91217C7.46635 5.99136 8.00406 6.18672 8.4245 6.54786C8.84562 6.89385 9.08495 7.37416 9.24381 7.90825ZM12 17.9975V5.99856H16V17.9975H12ZM19.0105 10.5616C18.5862 10.5657 18.1687 10.4547 17.8025 10.2404C17.4412 10.0316 17.1411 9.73142 16.9323 9.37006C16.7178 9.0038 16.6068 8.58623 16.611 8.16178C16.6061 7.73993 16.7172 7.32485 16.9323 6.96189C17.1433 6.60446 17.4431 6.30756 17.8025 6.09999C18.1689 5.88597 18.5862 5.77498 19.0105 5.77885C19.4322 5.77431 19.8471 5.8854 20.2102 6.09999C20.566 6.30938 20.8626 6.60603 21.072 6.96189C21.2868 7.32495 21.3979 7.73996 21.3933 8.16178C21.3973 8.58619 21.2863 9.00369 21.072 9.37006C20.8649 9.72984 20.5679 10.0297 20.2102 10.2404C19.8471 10.4554 19.4324 10.5666 19.0105 10.5616ZM22 17.9975V5.99856H26V17.9975H22ZM30.9737 12.5557C30.9848 12.5673 31.0693 12.7053 31.2272 12.9697C31.3851 13.2341 31.5906 13.5721 31.8439 13.9838C32.0974 14.3952 32.3649 14.8317 32.6463 15.2935C32.9278 15.7552 33.1926 16.1918 33.4408 16.6032C33.6881 17.0147 33.9697 17.4794 34.2857 17.9975H29.9598C29.6893 17.5581 29.4441 17.1609 29.2245 16.806C29.0048 16.4511 28.7713 16.068 28.5238 15.6568C28.2758 15.246 28.0306 14.846 27.7882 14.4569C27.5458 14.0679 27.3375 13.7271 27.1633 13.4345C26.9883 13.1418 26.8671 12.9446 26.7997 12.843C26.6325 12.5909 26.5336 12.2998 26.5127 11.998C26.5294 11.7084 26.6226 11.4284 26.7828 11.1866C26.8503 11.0739 26.9743 10.8739 27.1545 10.5866C27.3348 10.2993 27.546 9.95852 27.7882 9.56419C28.0304 9.16986 28.2756 8.76707 28.5238 8.35584C28.772 7.94461 29.0055 7.5587 29.2245 7.19817C29.4445 6.83802 29.6897 6.43805 29.9598 5.99828H34.2857L30.9396 11.457C30.8361 11.619 30.7777 11.8058 30.7706 11.998C30.7818 12.1998 30.8528 12.3938 30.9737 12.5557Z" fill="#0A2343"/>
<g clip-path="url(#clip0_5918_1769)">
<path d="M51.0533 6.00029L52.0671 17.9961H50.3099L49.7017 10.0214C49.6904 9.79614 49.6735 9.57087 49.651 9.34559C49.6313 9.1513 49.6144 8.96263 49.6003 8.77115C49.5215 8.97389 49.4426 9.17946 49.3638 9.38783C49.285 9.59621 49.2061 9.80177 49.1273 10.0045L46.0185 17.9961H44.4641L41.3384 9.97073C41.2596 9.75672 41.1779 9.54552 41.0935 9.33715C41.0118 9.1344 40.933 8.92884 40.8541 8.72046C40.8372 8.94292 40.8203 9.15974 40.8062 9.37094C40.7893 9.59058 40.7696 9.81304 40.7471 10.0383L40.1051 17.9961H38.5L39.6151 6.00029H41.575L44.8865 14.4987C44.9653 14.6677 45.0386 14.8394 45.1061 15.014C45.1737 15.1886 45.2413 15.366 45.3089 15.5462C45.3286 15.6026 45.3511 15.6561 45.3708 15.7096C45.4018 15.6363 45.43 15.5575 45.4609 15.4871C45.5285 15.3238 45.5933 15.1548 45.6552 14.9802C45.7172 14.8057 45.782 14.6283 45.8495 14.448L49.1273 6.00029H51.0533ZM62.6943 9.7004L61.7172 10.7367C61.8411 10.9 61.9594 11.0746 62.0608 11.2632C62.4156 11.9222 62.593 12.6965 62.593 13.5864C62.593 14.5212 62.4015 15.3322 62.0185 16.0193C61.6356 16.7064 61.109 17.2358 60.4388 17.6075C59.7686 17.9792 58.9942 18.165 58.1157 18.165C57.2371 18.165 56.5134 17.9905 55.877 17.6413C55.7334 17.5624 55.5982 17.4723 55.4687 17.3766L54.5676 18.3509L53.7904 17.6413L54.7309 16.6388C54.6098 16.4755 54.4972 16.3009 54.3987 16.1122C54.0495 15.4421 53.8749 14.6451 53.8749 13.7215C53.8749 12.7979 54.0579 11.9982 54.424 11.3224C54.7901 10.6465 55.3026 10.1228 55.9615 9.75109C56.6204 9.37939 57.3892 9.19353 58.2677 9.19353C59.1463 9.19353 59.9235 9.37375 60.5655 9.73419C60.7035 9.81022 60.8302 9.89751 60.9541 9.99044L61.9003 8.99079L62.6943 9.7004ZM55.6827 13.6202C55.6827 14.3101 55.7841 14.8873 55.9896 15.3576L59.9207 11.1112C59.7686 10.9732 59.5968 10.8577 59.4025 10.7704C59.0872 10.6297 58.7155 10.5593 58.2874 10.5593C57.758 10.5593 57.299 10.6719 56.9104 10.8972C56.5219 11.1224 56.2206 11.4603 56.0065 11.9109C55.7925 12.3614 55.6855 12.9303 55.6855 13.6173L55.6827 13.6202ZM60.802 13.6202C60.802 13.1583 60.7485 12.7388 60.6415 12.3614C60.5993 12.215 60.5486 12.077 60.4923 11.9475L56.5585 16.1939C56.657 16.2868 56.7584 16.3713 56.871 16.4417C57.2484 16.6782 57.6905 16.7965 58.1973 16.7965C58.7042 16.7965 59.1519 16.6811 59.5405 16.4501C59.9291 16.2192 60.236 15.8673 60.4613 15.3942C60.6866 14.9211 60.7992 14.3298 60.7992 13.6202H60.802ZM68.2867 9.32025C67.9714 9.40473 67.6729 9.53426 67.3913 9.70885C67.1097 9.88343 66.845 10.0946 66.5972 10.3424C66.5578 10.3819 66.5184 10.4269 66.4789 10.4691V9.21043L64.7556 9.46386V17.9961H66.4789V11.6124C66.6085 11.5223 66.7408 11.4378 66.876 11.3646C67.0506 11.2689 67.2251 11.1872 67.3997 11.1196C67.5743 11.052 67.7517 10.9929 67.9319 10.9422C68.1122 10.8915 68.3008 10.8549 68.4979 10.8324C68.6951 10.8099 68.9006 10.8042 69.1146 10.8155L69.3174 9.22733C68.9457 9.2048 68.6021 9.23577 68.2867 9.32025ZM77.8242 12.0151C77.965 12.6233 77.996 13.3217 77.9172 14.1101H71.8123C71.8348 14.541 71.8939 14.9127 71.9953 15.2252C72.1248 15.6195 72.3163 15.932 72.5698 16.1629C72.8232 16.3938 73.1357 16.5572 73.5075 16.6529C73.8792 16.7486 74.3184 16.7965 74.8253 16.7965C75.0731 16.7965 75.3209 16.7824 75.5687 16.7543C75.8165 16.7261 76.0587 16.6811 76.2952 16.6191C76.5317 16.5572 76.7598 16.4868 76.9795 16.4079C77.1991 16.3291 77.4159 16.2502 77.63 16.1714L77.5117 17.4723C77.2076 17.63 76.9034 17.7595 76.5993 17.8609C76.2952 17.9623 75.9714 18.0383 75.6278 18.089C75.2843 18.1397 74.8873 18.165 74.4367 18.165C73.4906 18.165 72.6908 17.9989 72.0375 17.6666C71.3843 17.3343 70.8915 16.8444 70.5592 16.1967C70.2269 15.5491 70.0608 14.7634 70.0608 13.8398C70.0608 13.1414 70.1537 12.5079 70.3395 11.9391C70.5254 11.3702 70.7957 10.8831 71.1505 10.4776C71.5053 10.0721 71.9362 9.75672 72.443 9.53144C72.9499 9.30617 73.5243 9.19353 74.1664 9.19353C74.8084 9.19353 75.38 9.30054 75.8813 9.51455C76.3825 9.72856 76.7964 10.0468 77.1231 10.4691C77.4497 10.8915 77.6835 11.4068 77.8242 12.0151ZM72.0629 11.9222C71.9587 12.1981 71.8911 12.5332 71.8489 12.9105H76.2924C76.2924 12.5726 76.253 12.2544 76.1685 11.9644C76.039 11.5138 75.8109 11.1619 75.4842 10.9084C75.1576 10.655 74.7239 10.5283 74.1833 10.5283C73.6426 10.5283 73.2259 10.6437 72.8654 10.8746C72.505 11.1055 72.2375 11.4547 72.0629 11.9222ZM91.6532 11.2632C92.0024 11.9222 92.177 12.6965 92.177 13.5864C92.177 14.5212 91.9883 15.3322 91.611 16.0193C91.2336 16.7064 90.7071 17.2358 90.0312 17.6075C89.3554 17.9792 88.5782 18.165 87.6997 18.165C86.8211 18.165 86.1115 17.9905 85.4695 17.6413C84.8274 17.2921 84.3346 16.7824 83.9911 16.1122C83.6476 15.4421 83.4758 14.6451 83.4758 13.7215C83.4758 12.7979 83.6588 11.9982 84.0249 11.3224C84.391 10.6465 84.9035 10.1228 85.5624 9.75109C86.2213 9.37939 86.9901 9.19353 87.8686 9.19353C88.7472 9.19353 89.5103 9.37375 90.158 9.73419C90.8056 10.0946 91.304 10.6043 91.6532 11.2632ZM90.386 13.6202C90.386 13.1583 90.3354 12.7388 90.234 12.3614C90.1326 11.9841 89.9777 11.6603 89.7694 11.3899C89.561 11.1196 89.3019 10.9141 88.9922 10.7733C88.6824 10.6325 88.3135 10.5621 87.8855 10.5621C87.3449 10.5621 86.8802 10.6747 86.4916 10.9C86.103 11.1253 85.8017 11.4632 85.5877 11.9137C85.3737 12.3643 85.2667 12.9331 85.2667 13.6202C85.2667 14.3072 85.3737 14.9042 85.5877 15.3773C85.8017 15.8504 86.0946 16.2052 86.4663 16.4417C86.838 16.6782 87.2773 16.7965 87.7841 16.7965C88.291 16.7965 88.7416 16.6811 89.1358 16.4501C89.53 16.2192 89.8369 15.8673 90.0566 15.3942C90.2762 14.9211 90.386 14.3298 90.386 13.6202ZM100.273 9.61874L101.926 9.19353V17.9454C101.926 18.6888 101.76 19.3449 101.427 19.9137C101.095 20.4825 100.602 20.9275 99.9489 21.2485C99.2956 21.5695 98.4902 21.73 97.5328 21.73C97.1499 21.73 96.7782 21.7075 96.4177 21.6624C96.0573 21.6174 95.7109 21.5526 95.3787 21.4681C95.0464 21.3836 94.7282 21.2794 94.4241 21.1555L94.2382 19.6687C94.5874 19.8152 94.9422 19.9363 95.3026 20.032C95.6631 20.1277 96.0207 20.1953 96.3755 20.2347C96.7303 20.2742 97.0767 20.2939 97.4146 20.2939C97.9214 20.2939 98.3523 20.2404 98.7071 20.1334C99.0619 20.0264 99.3491 19.863 99.5687 19.6434C99.7884 19.4238 99.9517 19.1534 100.059 18.8324C100.166 18.5114 100.219 18.1369 100.219 17.7089V17.2471C99.901 17.4808 99.58 17.6666 99.2562 17.7933C98.6592 18.0299 98.0566 18.1481 97.4484 18.1481C96.6599 18.1481 95.9897 17.9764 95.4378 17.6328C94.8859 17.2893 94.4663 16.805 94.1791 16.1798C93.8919 15.5547 93.7482 14.8141 93.7482 13.9581C93.7482 13.1921 93.8609 12.5135 94.0862 11.9222C94.3114 11.3308 94.624 10.8352 95.0239 10.4354C95.4237 10.0355 95.8771 9.72856 96.3839 9.51455C96.8908 9.30054 97.4258 9.19353 97.989 9.19353C98.3157 9.19353 98.6198 9.21325 98.9014 9.25267C99.183 9.29209 99.4448 9.34559 99.687 9.41318C99.8926 9.46949 100.087 9.53989 100.273 9.61874ZM100.219 16.0503V10.9C100.135 10.869 100.047 10.8352 99.9658 10.8071C99.6955 10.7226 99.4308 10.6578 99.1717 10.6128C98.9126 10.5677 98.6479 10.5452 98.3776 10.5452C97.9271 10.5452 97.5244 10.6156 97.1696 10.7564C96.8148 10.8972 96.5163 11.0971 96.2741 11.3562C96.032 11.6152 95.8461 11.9447 95.7166 12.3445C95.587 12.7444 95.5223 13.2034 95.5223 13.7215C95.5223 14.4199 95.6152 14.9915 95.8011 15.4364C95.9869 15.8813 96.2741 16.2136 96.6627 16.4333C97.0513 16.6529 97.5385 16.7627 98.1242 16.7627C98.3382 16.7627 98.5437 16.7402 98.7409 16.6951C98.938 16.6501 99.1407 16.5853 99.3491 16.5008C99.5575 16.4164 99.7743 16.3094 99.9996 16.1798C100.07 16.1404 100.146 16.0953 100.219 16.0503ZM115.256 13.8398L118.061 17.9961H116L113.009 13.4005H110.424V17.9961H108.667V6.00029H113.516C114.496 6.00029 115.276 6.16079 115.856 6.48181C116.436 6.80282 116.853 7.23366 117.106 7.77431C117.36 8.31497 117.486 8.91194 117.486 9.56524C117.486 10.1509 117.391 10.6663 117.199 11.1112C117.008 11.5561 116.743 11.9278 116.405 12.2263C116.067 12.5248 115.67 12.7472 115.214 12.8936C115.003 12.9612 114.78 13.0119 114.549 13.0485L115.253 13.8398H115.256ZM113.144 7.4702H110.424V11.9475H112.942C113.505 11.9475 113.992 11.8715 114.403 11.7194C114.814 11.5674 115.129 11.3196 115.349 10.976C115.569 10.6325 115.679 10.1847 115.679 9.63282C115.679 9.13722 115.588 8.72891 115.408 8.40789C115.228 8.08688 114.952 7.85034 114.58 7.69828C114.209 7.54622 113.73 7.4702 113.144 7.4702ZM127.201 11.2632C127.55 11.9222 127.725 12.6965 127.725 13.5864C127.725 14.5212 127.536 15.3322 127.159 16.0193C126.782 16.7064 126.255 17.2358 125.579 17.6075C124.904 17.9792 124.126 18.165 123.248 18.165C122.369 18.165 121.66 17.9905 121.018 17.6413C120.376 17.2921 119.883 16.7824 119.539 16.1122C119.196 15.4421 119.024 14.6451 119.024 13.7215C119.024 12.7979 119.207 11.9982 119.573 11.3224C119.939 10.6465 120.452 10.1228 121.11 9.75109C121.769 9.37939 122.538 9.19353 123.417 9.19353C124.295 9.19353 125.058 9.37375 125.706 9.73419C126.354 10.0946 126.852 10.6043 127.201 11.2632ZM125.934 13.6202C125.934 13.1583 125.883 12.7388 125.782 12.3614C125.681 11.9841 125.526 11.6603 125.317 11.3899C125.109 11.1196 124.85 10.9141 124.54 10.7733C124.231 10.6325 123.862 10.5621 123.434 10.5621C122.893 10.5621 122.428 10.6747 122.04 10.9C121.651 11.1253 121.35 11.4632 121.136 11.9137C120.922 12.3643 120.815 12.9331 120.815 13.6202C120.815 14.3072 120.922 14.9042 121.136 15.3773C121.35 15.8504 121.643 16.2052 122.014 16.4417C122.386 16.6782 122.825 16.7965 123.332 16.7965C123.839 16.7965 124.29 16.6811 124.684 16.4501C125.078 16.2192 125.385 15.8673 125.605 15.3942C125.824 14.9211 125.934 14.3298 125.934 13.6202ZM141.495 9.54834C141.089 9.3118 140.588 9.19353 139.991 9.19353C139.529 9.19353 139.084 9.26956 138.656 9.42162C138.228 9.57368 137.823 9.79051 137.44 10.0721C137.232 10.2242 137.032 10.3959 136.84 10.579C136.643 10.1312 136.356 9.79051 135.97 9.56524C135.565 9.3287 135.058 9.21043 134.449 9.21043C133.999 9.21043 133.557 9.28646 133.123 9.43852C132.69 9.59058 132.281 9.80459 131.898 10.0805C131.777 10.1678 131.659 10.2636 131.543 10.3621V9.21043L129.82 9.46386V17.9961H131.543V11.5702C131.749 11.4378 131.96 11.3139 132.177 11.2125C132.453 11.083 132.732 10.9845 133.013 10.9169C133.295 10.8493 133.565 10.8155 133.824 10.8155C134.117 10.8155 134.362 10.8577 134.559 10.9422C134.756 11.0267 134.923 11.1506 135.058 11.3139C135.193 11.4772 135.291 11.6913 135.353 11.9559C135.415 12.2206 135.446 12.5276 135.446 12.8768V17.9961H137.17V12.5219C137.17 12.17 137.147 11.8489 137.105 11.5561C137.305 11.4266 137.505 11.3083 137.71 11.2041C137.981 11.0689 138.257 10.9676 138.538 10.9C138.82 10.8324 139.096 10.7986 139.366 10.7986C139.636 10.7986 139.89 10.8408 140.093 10.9253C140.295 11.0098 140.464 11.1337 140.599 11.297C140.735 11.4603 140.833 11.6744 140.895 11.9391C140.957 12.2037 140.988 12.5107 140.988 12.8599V17.9961H142.711V12.5051C142.711 11.7391 142.61 11.114 142.407 10.6297C142.205 10.1453 141.9 9.78488 141.495 9.54834ZM150.602 14.1101C150.433 13.9299 150.235 13.775 150.01 13.6455C149.785 13.516 149.548 13.4061 149.301 13.316C149.12 13.2597 148.943 13.2006 148.768 13.1386C148.594 13.0767 148.419 13.0204 148.245 12.9697C148.07 12.919 147.901 12.8655 147.738 12.8092C147.574 12.7529 147.425 12.6909 147.29 12.6233C147.144 12.5445 147.011 12.46 146.893 12.3699C146.775 12.2798 146.679 12.1728 146.606 12.0489C146.533 11.925 146.496 11.7842 146.496 11.6265C146.496 11.4463 146.535 11.2914 146.614 11.1619C146.693 11.0323 146.811 10.9225 146.969 10.8324C147.127 10.7423 147.315 10.6747 147.535 10.6297C147.755 10.5846 148.005 10.5621 148.287 10.5621C148.411 10.5621 148.546 10.5677 148.692 10.579C148.839 10.5902 148.999 10.6099 149.174 10.6381C149.348 10.6663 149.523 10.7029 149.698 10.7479C149.872 10.793 150.05 10.8437 150.23 10.9C150.41 10.9563 150.573 11.0182 150.72 11.0858L150.838 9.7173C150.624 9.62719 150.413 9.54834 150.205 9.48076C149.996 9.41318 149.785 9.35686 149.571 9.3118C149.357 9.26675 149.146 9.23577 148.937 9.21888C148.729 9.20198 148.523 9.19353 148.321 9.19353C147.814 9.19353 147.352 9.24704 146.935 9.35404C146.518 9.46105 146.155 9.61874 145.845 9.82712C145.536 10.0355 145.296 10.3002 145.127 10.6212C144.958 10.9422 144.874 11.3224 144.874 11.7616C144.874 12.077 144.919 12.3558 145.009 12.598C145.099 12.8401 145.218 13.0457 145.364 13.2147C145.51 13.3836 145.682 13.5329 145.879 13.6624C146.076 13.7919 146.288 13.9017 146.513 13.9919C146.637 14.0369 146.766 14.082 146.901 14.127C147.037 14.1721 147.169 14.2143 147.299 14.2537C147.428 14.2932 147.555 14.3326 147.679 14.372C147.803 14.4114 147.924 14.4508 148.042 14.4903C148.16 14.5297 148.276 14.5663 148.388 14.6001C148.546 14.6564 148.692 14.7212 148.828 14.7944C148.963 14.8676 149.078 14.9464 149.174 15.0309C149.27 15.1154 149.343 15.214 149.394 15.3266C149.444 15.4392 149.47 15.5631 149.47 15.6983C149.47 15.9799 149.377 16.2023 149.191 16.3657C149.005 16.529 148.763 16.6444 148.464 16.712C148.166 16.7796 147.848 16.8134 147.51 16.8134C147.329 16.8134 147.13 16.7993 146.91 16.7712C146.69 16.743 146.459 16.7036 146.217 16.6529C145.975 16.6022 145.727 16.5403 145.474 16.467C145.22 16.3938 144.964 16.3122 144.705 16.2221L144.773 17.6582C145.065 17.7595 145.333 17.8412 145.575 17.9032C145.817 17.9651 146.048 18.0186 146.268 18.0637C146.488 18.1087 146.702 18.1369 146.91 18.1481C147.118 18.1594 147.329 18.165 147.543 18.165C148.039 18.165 148.507 18.1172 148.946 18.0214C149.385 17.9257 149.768 17.7764 150.095 17.5737C150.421 17.371 150.678 17.1063 150.863 16.7796C151.049 16.453 151.142 16.0644 151.142 15.6138C151.142 15.2759 151.094 14.9859 150.999 14.7437C150.903 14.5015 150.771 14.2903 150.602 14.1101ZM159.1 5.49342L160.823 5.25689V17.9961H159.421L159.21 17.2161C159.083 17.309 158.956 17.3963 158.83 17.4723C158.447 17.7089 158.055 17.8834 157.655 17.9961C157.256 18.1087 156.83 18.165 156.38 18.165C155.603 18.165 154.935 17.9933 154.378 17.6497C153.82 17.3062 153.392 16.819 153.094 16.1883C152.795 15.5575 152.646 14.8085 152.646 13.9412C152.646 12.9274 152.843 12.0686 153.237 11.3646C153.631 10.6606 154.152 10.1228 154.8 9.75109C155.448 9.37939 156.149 9.19353 156.904 9.19353C157.332 9.19353 157.723 9.23014 158.078 9.30336C158.433 9.37657 158.756 9.46949 159.049 9.58213C159.066 9.58776 159.083 9.59621 159.1 9.60466V5.49342ZM159.1 16.1066V10.9C159.013 10.869 158.92 10.8324 158.838 10.8071C158.573 10.7226 158.312 10.6606 158.052 10.6212C157.793 10.5818 157.523 10.5621 157.241 10.5621C156.656 10.5621 156.152 10.6832 155.729 10.9253C155.307 11.1675 154.983 11.5223 154.758 11.9897C154.533 12.4572 154.42 13.0401 154.42 13.7384C154.42 14.4368 154.521 14.9971 154.724 15.4533C154.927 15.9095 155.22 16.2474 155.603 16.467C155.986 16.6867 156.447 16.7965 156.988 16.7965C157.348 16.7965 157.751 16.7148 158.196 16.5515C158.48 16.4473 158.782 16.2953 159.1 16.1066ZM171.011 16.9148C171.101 16.9035 171.197 16.881 171.299 16.8472L171.113 17.9792C171.056 18.0017 170.992 18.0214 170.918 18.0383C170.845 18.0552 170.764 18.0749 170.673 18.0975C170.583 18.12 170.49 18.1341 170.395 18.1397C170.299 18.1453 170.2 18.1481 170.099 18.1481C169.739 18.1481 169.418 18.089 169.136 17.9707C168.854 17.8525 168.635 17.661 168.477 17.3963C168.393 17.2555 168.333 17.0894 168.294 16.8979C168.187 17.0218 168.077 17.1429 167.962 17.2527C167.652 17.5455 167.297 17.7708 166.897 17.9285C166.497 18.0862 166.022 18.165 165.47 18.165C164.873 18.165 164.374 18.0524 163.974 17.8271C163.574 17.6019 163.276 17.3062 163.079 16.9401C162.882 16.574 162.783 16.177 162.783 15.749C162.783 15.2984 162.91 14.8845 163.163 14.5072C163.417 14.1298 163.803 13.8173 164.321 13.5695C164.839 13.3217 165.492 13.1752 166.281 13.1302L168.255 12.9978V12.5754C168.255 12.2488 168.224 11.9644 168.156 11.7222C168.088 11.4801 167.976 11.2801 167.818 11.1224C167.66 10.9647 167.444 10.8465 167.168 10.7676C166.892 10.6888 166.551 10.6494 166.145 10.6494C165.92 10.6494 165.692 10.6578 165.461 10.6747C165.23 10.6916 164.997 10.7226 164.76 10.7676C164.523 10.8127 164.278 10.869 164.025 10.9366C163.772 11.0042 163.504 11.0886 163.223 11.19L163.425 9.7539C163.707 9.64127 164.003 9.54271 164.312 9.45823C164.622 9.37375 164.951 9.30899 165.301 9.26393C165.65 9.21888 166.005 9.19635 166.365 9.19635C166.861 9.19635 167.306 9.24141 167.7 9.33151C168.094 9.42162 168.435 9.55116 168.722 9.72011C169.009 9.88907 169.243 10.0974 169.423 10.3452C169.603 10.593 169.739 10.8803 169.829 11.2069C169.919 11.5336 169.964 11.894 169.964 12.2882L169.93 15.7687C169.919 16.1855 169.981 16.4839 170.116 16.6642C170.251 16.8444 170.471 16.9345 170.775 16.9345C170.842 16.9345 170.921 16.9289 171.011 16.9176V16.9148ZM168.243 15.9039L168.252 14.2284H166.773C166.221 14.2284 165.782 14.2734 165.456 14.3636C165.129 14.4537 164.892 14.5945 164.746 14.7859C164.599 14.9774 164.526 15.2421 164.526 15.58C164.526 15.8391 164.583 16.0616 164.695 16.2474C164.808 16.4333 164.974 16.5769 165.194 16.6782C165.413 16.7796 165.681 16.8303 165.996 16.8303C166.244 16.8303 166.483 16.8078 166.714 16.7627C166.945 16.7177 167.165 16.6444 167.373 16.5431C167.582 16.4417 167.779 16.3178 167.964 16.1714C168.063 16.0925 168.156 16.0024 168.246 15.9067L168.243 15.9039ZM175.742 16.7261C175.674 16.7374 175.615 16.7458 175.565 16.7515C175.514 16.7571 175.455 16.7599 175.387 16.7599C175.241 16.7599 175.117 16.7374 175.016 16.6923C174.914 16.6473 174.83 16.5769 174.762 16.4811C174.695 16.3854 174.647 16.2643 174.618 16.1179C174.59 15.9714 174.576 15.7969 174.576 15.5941V5.23999L172.853 5.49342V16.3572C172.853 16.6839 172.898 16.9626 172.988 17.1936C173.078 17.4245 173.208 17.6131 173.377 17.7595C173.546 17.906 173.746 18.0102 173.976 18.0721C174.207 18.1341 174.458 18.165 174.728 18.165C174.863 18.165 174.993 18.1594 175.117 18.1481C175.241 18.1369 175.362 18.12 175.48 18.0975C175.598 18.0749 175.697 18.0524 175.776 18.0299L175.945 16.6951L175.742 16.7289V16.7261Z" fill="#1767CE"/>
</g>
<defs>
<clipPath id="clip0_5918_1769">
<rect width="138" height="17" fill="white" transform="translate(38 5)"/>
</clipPath>
</defs>
</svg>
