<svg width="90" height="60" viewBox="0 0 90 60" fill="none" xmlns="http://www.w3.org/2000/svg">
<path d="M0 17.9976V5.99865H4V17.9976H0ZM9.24381 7.90834L11.5081 17.9976H7.19917L4.49549 5.99865H6.91217C7.46635 5.99146 8.00406 6.18681 8.4245 6.54795C8.84562 6.89394 9.08495 7.37426 9.24381 7.90834ZM12 17.9976V5.99865H16V17.9976H12ZM19.0105 10.5617C18.5862 10.5658 18.1687 10.4548 17.8025 10.2405C17.4412 10.0317 17.1411 9.73152 16.9323 9.37016C16.7178 9.00389 16.6068 8.58632 16.611 8.16188C16.6061 7.74002 16.7172 7.32494 16.9323 6.96199C17.1433 6.60455 17.4431 6.30765 17.8025 6.10008C18.1689 5.88606 18.5862 5.77507 19.0105 5.77894C19.4322 5.7744 19.8471 5.88549 20.2102 6.10008C20.566 6.30947 20.8626 6.60612 21.072 6.96199C21.2868 7.32504 21.3979 7.74005 21.3933 8.16188C21.3973 8.58629 21.2863 9.00379 21.072 9.37016C20.8649 9.72993 20.5679 10.0298 20.2102 10.2405C19.8471 10.4555 19.4324 10.5666 19.0105 10.5617ZM22 17.9976V5.99865H26V17.9976H22ZM30.9737 12.5558C30.9848 12.5674 31.0693 12.7054 31.2272 12.9698C31.3851 13.2342 31.5906 13.5722 31.8439 13.9838C32.0974 14.3953 32.3649 14.8318 32.6463 15.2936C32.9278 15.7553 33.1926 16.1919 33.4408 16.6033C33.6881 17.0147 33.9697 17.4795 34.2857 17.9976H29.9598C29.6893 17.5582 29.4441 17.161 29.2245 16.8061C29.0048 16.4512 28.7713 16.0681 28.5238 15.6569C28.2758 15.2461 28.0306 14.8461 27.7882 14.457C27.5458 14.0679 27.3375 13.7272 27.1633 13.4346C26.9883 13.1419 26.8671 12.9447 26.7997 12.8431C26.6325 12.591 26.5336 12.2999 26.5127 11.9981C26.5294 11.7085 26.6226 11.4285 26.7828 11.1867C26.8503 11.074 26.9743 10.874 27.1545 10.5867C27.3348 10.2994 27.546 9.95861 27.7882 9.56428C28.0304 9.16995 28.2756 8.76716 28.5238 8.35593C28.772 7.9447 29.0055 7.55879 29.2245 7.19826C29.4445 6.83811 29.6897 6.43814 29.9598 5.99837H34.2857L30.9396 11.4571C30.8361 11.6191 30.7777 11.8059 30.7706 11.9981C30.7818 12.1999 30.8528 12.3939 30.9737 12.5558Z" fill="white"/>
<g clip-path="url(#clip0_5918_1262)">
<path d="M4.1813 35.0204L0 22.9524H1.90368L4.38527 30.3971C4.52125 30.7824 4.65439 31.1932 4.7847 31.6294C4.91501 32.0657 5.04249 32.5048 5.16714 32.9467C5.23229 33.1818 5.29462 33.4056 5.35411 33.6238C5.41076 33.417 5.47025 33.2017 5.53258 32.9807C5.65156 32.5501 5.7762 32.1195 5.90652 31.6889C6.03683 31.2583 6.16431 30.8504 6.28895 30.4651L8.82153 22.9524H10.5892L6.39093 35.0204H4.1813ZM18.5354 29.0034C18.6771 29.6153 18.7082 30.3178 18.6289 31.111H12.4873C12.5099 31.5444 12.5694 31.9212 12.6714 32.2328C12.8017 32.6294 12.9943 32.9439 13.2493 33.1762C13.5042 33.4085 13.8187 33.5728 14.1926 33.6691C14.5666 33.7654 15.0085 33.8136 15.5184 33.8136C15.7677 33.8136 16.017 33.7994 16.2663 33.7711C16.5156 33.7427 16.7592 33.6974 16.9972 33.6351C17.2351 33.5728 17.4646 33.5019 17.6856 33.4226C17.9065 33.3433 18.1246 33.264 18.3399 33.1847L18.221 34.4934C17.915 34.6521 17.6091 34.7824 17.3031 34.8844C16.9972 34.9864 16.6714 35.0629 16.3258 35.1138C15.9802 35.1648 15.5807 35.1903 15.1275 35.1903C14.1756 35.1903 13.3711 35.0232 12.7139 34.6889C12.0567 34.3546 11.5609 33.8617 11.2266 33.2102C10.8924 32.5586 10.7252 31.7682 10.7252 30.8391C10.7252 30.1365 10.8187 29.4991 11.0057 28.9269C11.1926 28.3546 11.4646 27.8646 11.8215 27.4566C12.1785 27.0487 12.6119 26.7314 13.1218 26.5048C13.6317 26.2782 14.2096 26.1648 14.8555 26.1648C15.5014 26.1648 16.0765 26.2725 16.5807 26.4878C17.085 26.7031 17.5014 27.0232 17.83 27.4481C18.1586 27.8731 18.3938 28.3915 18.5354 29.0034ZM12.7394 28.9099C12.6346 29.1875 12.5666 29.5246 12.5241 29.9042H16.9943C16.9943 29.5643 16.9547 29.2442 16.8697 28.9524C16.7394 28.4991 16.5099 28.145 16.1813 27.89C15.8527 27.6351 15.4164 27.5076 14.8725 27.5076C14.3286 27.5076 13.9093 27.6238 13.5467 27.8561C13.1841 28.0883 12.915 28.4396 12.7394 28.9099ZM25.6147 34.5954C25.9433 34.3915 26.2011 34.1252 26.3881 33.7966C26.5751 33.468 26.6686 33.077 26.6686 32.6238C26.6686 32.2838 26.6204 31.992 26.5241 31.7484C26.4278 31.5048 26.2946 31.2923 26.1246 31.111C25.9547 30.9297 25.7564 30.7739 25.5297 30.6436C25.3031 30.5133 25.0652 30.4028 24.8159 30.3121C24.6346 30.2555 24.4561 30.196 24.2805 30.1337C24.1048 30.0714 23.9292 30.0147 23.7535 29.9637C23.5779 29.9127 23.4079 29.8589 23.2436 29.8022C23.0793 29.7456 22.9292 29.6833 22.7932 29.6153C22.6459 29.5359 22.5127 29.451 22.3938 29.3603C22.2748 29.2697 22.1785 29.162 22.1048 29.0374C22.0312 28.9127 21.9943 28.7711 21.9943 28.6124C21.9943 28.4311 22.034 28.2753 22.1133 28.145C22.1926 28.0147 22.3116 27.9042 22.4703 27.8136C22.6289 27.7229 22.8187 27.6549 23.0397 27.6096C23.2606 27.5643 23.5127 27.5416 23.796 27.5416C23.9207 27.5416 24.0567 27.5473 24.204 27.5586C24.3513 27.5699 24.5127 27.5898 24.6884 27.6181C24.864 27.6464 25.0397 27.6833 25.2153 27.7286C25.3909 27.7739 25.5694 27.8249 25.7507 27.8816C25.932 27.9382 26.0963 28.0005 26.2436 28.0685L26.3626 26.6917C26.1473 26.6011 25.9348 26.5218 25.7252 26.4538C25.5156 26.3858 25.3031 26.3291 25.0878 26.2838C24.8725 26.2385 24.6601 26.2073 24.4504 26.1903C24.2408 26.1733 24.034 26.1648 23.83 26.1648C23.3201 26.1648 22.8555 26.2187 22.4363 26.3263C22.017 26.434 21.6516 26.5926 21.3399 26.8022C21.0283 27.0119 20.7875 27.2782 20.6176 27.6011C20.4476 27.924 20.3626 28.3065 20.3626 28.7484C20.3626 29.0657 20.4079 29.3461 20.4986 29.5898C20.5892 29.8334 20.7082 30.0402 20.8555 30.2102C21.0028 30.3801 21.1756 30.5303 21.3739 30.6606C21.5722 30.7909 21.7847 30.9014 22.0113 30.992C22.136 31.0374 22.2663 31.0827 22.4023 31.128C22.5382 31.1733 22.6714 31.2158 22.8017 31.2555C22.932 31.2951 23.0595 31.3348 23.1841 31.3745C23.3088 31.4141 23.4306 31.4538 23.5496 31.4934C23.6686 31.5331 23.7847 31.5699 23.898 31.6039C24.0567 31.6606 24.204 31.7257 24.3399 31.7994C24.4759 31.8731 24.5921 31.9524 24.6884 32.0374C24.7847 32.1223 24.8584 32.2215 24.9093 32.3348C24.9603 32.4481 24.9858 32.5728 24.9858 32.7087C24.9858 32.992 24.8923 33.2158 24.7054 33.3801C24.5184 33.5444 24.2748 33.6606 23.9745 33.7286C23.6742 33.7966 23.3541 33.8306 23.0142 33.8306C22.8329 33.8306 22.6317 33.8164 22.4108 33.7881C22.1898 33.7597 21.9575 33.7201 21.7139 33.6691C21.4703 33.6181 21.221 33.5558 20.966 33.4821C20.711 33.4085 20.4533 33.3263 20.1926 33.2357L20.2606 34.6804C20.5552 34.7824 20.8244 34.8646 21.068 34.9269C21.3116 34.9892 21.5439 35.043 21.7649 35.0884C21.9858 35.1337 22.2011 35.162 22.4108 35.1733C22.6204 35.1847 22.8329 35.1903 23.0482 35.1903C23.5467 35.1903 24.017 35.1422 24.4589 35.0459C24.9008 34.9495 25.2861 34.7994 25.6147 34.5954ZM33.5524 34.9524L33.6544 33.5416C33.5977 33.5643 33.5297 33.5841 33.4504 33.6011C33.3711 33.6181 33.2833 33.6351 33.187 33.6521C33.0906 33.6691 32.9943 33.6861 32.898 33.7031C32.8017 33.7201 32.7082 33.7314 32.6176 33.7371C32.5269 33.7427 32.4419 33.7456 32.3626 33.7456C32.068 33.7456 31.8159 33.6946 31.6062 33.5926C31.3966 33.4906 31.2351 33.3405 31.1218 33.1422C31.0085 32.9439 30.9518 32.7031 30.9518 32.4198V27.7116H33.3484L33.5354 26.3518H30.9518V23.6663L29.2181 24.2782V26.3518H27.9093L27.7224 27.7116H29.2181V32.7767C29.2181 33.162 29.2691 33.4934 29.3711 33.7711C29.4731 34.0487 29.6062 34.2782 29.7705 34.4595C29.9348 34.6408 30.1275 34.7824 30.3484 34.8844C30.5694 34.9864 30.8045 35.06 31.0538 35.1053C31.3031 35.1507 31.5467 35.1733 31.7847 35.1733C31.966 35.1733 32.1445 35.1677 32.3201 35.1563C32.4957 35.145 32.6572 35.128 32.8045 35.1053C32.9518 35.0827 33.0906 35.0572 33.221 35.0289C33.3513 35.0005 33.4618 34.975 33.5524 34.9524ZM35.983 35.0204H37.7167V27.6776H40.0963V26.3518H37.7167V24.941C37.7167 24.7257 37.7479 24.5359 37.8102 24.3716C37.8725 24.2073 37.9603 24.0714 38.0737 23.9637C38.187 23.8561 38.3314 23.7767 38.5071 23.7257C38.6827 23.6748 38.8782 23.6493 39.0935 23.6493C39.2295 23.6493 39.3598 23.6549 39.4844 23.6663C39.6091 23.6776 39.7309 23.6946 39.8499 23.7172C39.9688 23.7399 40.0821 23.7626 40.1898 23.7852C40.2974 23.8079 40.3909 23.8362 40.4703 23.8702L40.4023 22.4595C40.2323 22.4028 40.0595 22.3575 39.8838 22.3235C39.7082 22.2895 39.5297 22.264 39.3484 22.247C39.1671 22.23 38.9745 22.2215 38.7705 22.2215C38.3853 22.2215 38.0227 22.2782 37.6827 22.3915C37.3428 22.5048 37.0453 22.6833 36.7904 22.9269C36.5354 23.1705 36.3371 23.4736 36.1955 23.8362C36.0538 24.1988 35.983 24.6294 35.983 25.128V26.3518H34.7082V27.6776H35.983V35.0204ZM47.4561 34.6294C46.7762 35.0034 45.9943 35.1903 45.1105 35.1903C44.2266 35.1903 43.5127 35.0147 42.8669 34.6634C42.221 34.3121 41.7252 33.7994 41.3796 33.1252C41.034 32.451 40.8612 31.6493 40.8612 30.7201C40.8612 29.7909 41.0453 28.9864 41.4136 28.3065C41.7819 27.6266 42.2974 27.0997 42.9603 26.7257C43.6232 26.3518 44.3966 26.1648 45.2804 26.1648C46.1643 26.1648 46.932 26.3461 47.5836 26.7087C48.2351 27.0714 48.7365 27.5841 49.0878 28.247C49.4391 28.9099 49.6147 29.6889 49.6147 30.5841C49.6147 31.5246 49.4249 32.3405 49.0453 33.0317C48.6657 33.7229 48.136 34.2555 47.4561 34.6294ZM47.813 30.6181C47.813 30.1535 47.762 29.7314 47.6601 29.3518C47.5581 28.9722 47.4023 28.6464 47.1926 28.3745C46.983 28.1025 46.7224 27.8957 46.4108 27.7541C46.0991 27.6124 45.728 27.5416 45.2974 27.5416C44.7535 27.5416 44.2861 27.6549 43.8952 27.8816C43.5042 28.1082 43.2011 28.4481 42.9858 28.9014C42.7705 29.3546 42.6629 29.9269 42.6629 30.6181C42.6629 31.3093 42.7705 31.9099 42.9858 32.3858C43.2011 32.8617 43.4957 33.2187 43.8697 33.4566C44.2436 33.6946 44.6855 33.8136 45.1955 33.8136C45.7054 33.8136 46.1586 33.6974 46.5552 33.4651C46.9518 33.2328 47.2606 32.8787 47.4816 32.4028C47.7025 31.9269 47.813 31.332 47.813 30.6181ZM52.1983 34.7824C52.3683 34.9297 52.5694 35.0345 52.8017 35.0968C53.034 35.1592 53.2861 35.1903 53.5581 35.1903C53.694 35.1903 53.8244 35.1847 53.949 35.1733C54.0737 35.162 54.1955 35.145 54.3144 35.1223C54.4334 35.0997 54.5326 35.077 54.6119 35.0544L54.7819 33.7116C54.7139 33.7229 54.6459 33.7342 54.5779 33.7456C54.5099 33.7569 54.4504 33.7654 54.3994 33.7711C54.3484 33.7767 54.2889 33.7796 54.221 33.7796C54.0736 33.7796 53.949 33.7569 53.847 33.7116C53.745 33.6663 53.66 33.5954 53.5921 33.4991C53.5241 33.4028 53.4759 33.281 53.4476 33.1337C53.4193 32.9864 53.4051 32.8107 53.4051 32.6068V22.1875L51.6714 22.4425V33.3716C51.6714 33.7002 51.7167 33.9807 51.8074 34.213C51.898 34.4453 52.0283 34.6351 52.1983 34.7824ZM62.3796 22.4425L64.1133 22.2045V35.0204H62.7025L62.4901 34.2357C62.3626 34.3291 62.2351 34.417 62.1076 34.4934C61.7224 34.7314 61.3286 34.907 60.9263 35.0204C60.5241 35.1337 60.0963 35.1903 59.6431 35.1903C58.8612 35.1903 58.1898 35.0175 57.6289 34.6719C57.068 34.3263 56.6374 33.8362 56.3371 33.2017C56.0368 32.5671 55.8867 31.8136 55.8867 30.941C55.8867 29.9212 56.085 29.0572 56.4816 28.349C56.8782 27.6408 57.4023 27.0997 58.0538 26.7257C58.7054 26.3518 59.4108 26.1648 60.17 26.1648C60.6006 26.1648 60.9943 26.2017 61.3513 26.2753C61.7082 26.349 62.034 26.4425 62.3286 26.5558C62.3456 26.5614 62.3626 26.5699 62.3796 26.5784V22.4425ZM62.3796 33.1195V27.8816C62.2918 27.8476 62.1983 27.8136 62.1161 27.7881C61.8499 27.7031 61.5864 27.6408 61.3258 27.6011C61.0652 27.5614 60.7932 27.5416 60.5099 27.5416C59.9207 27.5416 59.4136 27.6634 58.9887 27.907C58.5637 28.1507 58.238 28.5076 58.0113 28.9779C57.7847 29.4481 57.6714 30.0345 57.6714 30.7371C57.6714 31.4396 57.7734 32.0034 57.9773 32.4623C58.1813 32.9212 58.4759 33.2612 58.8612 33.4821C59.2465 33.7031 59.711 33.8136 60.255 33.8136C60.6176 33.8136 61.0227 33.7314 61.4703 33.5671C61.7564 33.4623 62.0595 33.3093 62.3796 33.1195ZM78.4589 28.247C78.8102 28.9099 78.9858 29.6889 78.9858 30.5841C78.9858 31.5246 78.796 32.3405 78.4164 33.0317C78.0368 33.7229 77.5071 34.2555 76.8272 34.6294C76.1473 35.0034 75.3654 35.1903 74.4816 35.1903C73.5977 35.1903 72.8839 35.0147 72.238 34.6634C71.5921 34.3121 71.0963 33.7994 70.7507 33.1252C70.4051 32.451 70.2323 31.6493 70.2323 30.7201C70.2323 29.7909 70.4164 28.9864 70.7847 28.3065C71.153 27.6266 71.6685 27.0997 72.3314 26.7257C72.9943 26.3518 73.7677 26.1648 74.6516 26.1648C75.5354 26.1648 76.3031 26.3461 76.9547 26.7087C77.6062 27.0714 78.1076 27.5841 78.4589 28.247ZM77.1841 30.6181C77.1841 30.1535 77.1331 29.7314 77.0312 29.3518C76.9292 28.9722 76.7734 28.6464 76.5637 28.3745C76.3541 28.1025 76.0935 27.8957 75.7819 27.7541C75.4703 27.6124 75.0991 27.5416 74.6685 27.5416C74.1246 27.5416 73.6572 27.6549 73.2663 27.8816C72.8754 28.1082 72.5722 28.4481 72.3569 28.9014C72.1416 29.3546 72.034 29.9269 72.034 30.6181C72.034 31.3093 72.1416 31.9099 72.3569 32.3858C72.5722 32.8617 72.8669 33.2187 73.2408 33.4566C73.6147 33.6946 74.0566 33.8136 74.5666 33.8136C75.0765 33.8136 75.5297 33.6974 75.9263 33.4651C76.3229 33.2328 76.6317 32.8787 76.8527 32.4028C77.0736 31.9269 77.1841 31.332 77.1841 30.6181ZM88.7932 26.1648V34.9694C88.7932 35.7172 88.6261 36.3773 88.2918 36.9495C87.9575 37.5218 87.4618 37.9694 86.8045 38.2923C86.1473 38.6153 85.3371 38.7767 84.3739 38.7767C83.9887 38.7767 83.6147 38.7541 83.2521 38.7087C82.8895 38.6634 82.5411 38.5983 82.2068 38.5133C81.8725 38.4283 81.5524 38.3235 81.2464 38.1988L81.0595 36.7031C81.4108 36.8504 81.7677 36.9722 82.1303 37.0685C82.4929 37.1648 82.8527 37.2328 83.2096 37.2725C83.5666 37.3121 83.915 37.332 84.255 37.332C84.7649 37.332 85.1983 37.2782 85.5552 37.1705C85.9122 37.0629 86.2011 36.8985 86.4221 36.6776C86.6431 36.4566 86.8074 36.1847 86.915 35.8617C87.0227 35.5388 87.0765 35.162 87.0765 34.7314V34.2668C86.7564 34.5019 86.4334 34.6889 86.1076 34.8164C85.5071 35.0544 84.9008 35.1733 84.2889 35.1733C83.4957 35.1733 82.8215 35.0005 82.2663 34.6549C81.711 34.3093 81.2889 33.8221 81 33.1932C80.711 32.5643 80.5666 31.8192 80.5666 30.958C80.5666 30.1875 80.6799 29.5048 80.9065 28.9099C81.1331 28.315 81.4476 27.8164 81.8498 27.4141C82.2521 27.0119 82.7082 26.7031 83.2181 26.4878C83.728 26.2725 84.2663 26.1648 84.8329 26.1648C85.1615 26.1648 85.4674 26.1847 85.7507 26.2243C86.034 26.264 86.2974 26.3178 86.5411 26.3858C86.7479 26.4425 86.9433 26.5133 87.1303 26.5926L88.7932 26.1648ZM87.0765 33.0629V27.8816C86.9915 27.8504 86.9037 27.8164 86.8215 27.7881C86.5496 27.7031 86.2833 27.6379 86.0227 27.5926C85.762 27.5473 85.4957 27.5246 85.2238 27.5246C84.7705 27.5246 84.3654 27.5954 84.0085 27.7371C83.6516 27.8787 83.3513 28.0799 83.1076 28.3405C82.864 28.6011 82.677 28.9325 82.5467 29.3348C82.4164 29.7371 82.3513 30.1988 82.3513 30.7201C82.3513 31.4226 82.4448 31.9977 82.6317 32.4453C82.8187 32.8929 83.1076 33.2272 83.4986 33.4481C83.8895 33.6691 84.3796 33.7796 84.9688 33.7796C85.1841 33.7796 85.3909 33.7569 85.5892 33.7116C85.7875 33.6663 85.9915 33.6011 86.2011 33.5161C86.4108 33.4311 86.6289 33.3235 86.8555 33.1932C86.9263 33.1535 87.0028 33.1082 87.0765 33.0629ZM9.5864 41.4453V39.9495H0.0339943V41.4453H3.92635V52.0175H5.71105V41.4453H9.5864ZM16.7507 46.0005C16.8923 46.6124 16.9235 47.315 16.8442 48.1082H10.7025C10.7252 48.5416 10.7847 48.9184 10.8867 49.23C11.017 49.6266 11.2096 49.941 11.4646 50.1733C11.7195 50.4056 12.034 50.5699 12.4079 50.6663C12.7819 50.7626 13.2238 50.8107 13.7337 50.8107C13.983 50.8107 14.2323 50.7966 14.4816 50.7682C14.7309 50.7399 14.9745 50.6946 15.2125 50.6323C15.4504 50.5699 15.6799 50.4991 15.9008 50.4198C16.1218 50.3405 16.3399 50.2612 16.5552 50.1818L16.4363 51.4906C16.1303 51.6493 15.8244 51.7796 15.5184 51.8816C15.2125 51.9835 14.8867 52.06 14.5411 52.111C14.1955 52.162 13.796 52.1875 13.3428 52.1875C12.3909 52.1875 11.5864 52.0204 10.9292 51.6861C10.272 51.3518 9.7762 50.8589 9.44193 50.2073C9.10765 49.5558 8.94051 48.7654 8.94051 47.8362C8.94051 47.1337 9.03399 46.4963 9.22096 45.924C9.40793 45.3518 9.67989 44.8617 10.0368 44.4538C10.3938 44.0459 10.8272 43.7286 11.3371 43.5019C11.847 43.2753 12.4249 43.162 13.0708 43.162C13.7167 43.162 14.2918 43.2697 14.796 43.485C15.3003 43.7002 15.7167 44.0204 16.0453 44.4453C16.3739 44.8702 16.6091 45.3886 16.7507 46.0005ZM10.9547 45.907C10.8499 46.1847 10.7819 46.5218 10.7394 46.9014H15.2096C15.2096 46.5614 15.17 46.2413 15.085 45.9495C14.9547 45.4963 14.7252 45.1422 14.3966 44.8872C14.068 44.6323 13.6317 44.5048 13.0878 44.5048C12.5439 44.5048 12.1246 44.6209 11.762 44.8532C11.3994 45.0855 11.1303 45.4368 10.9547 45.907ZM21.6459 50.7682C21.5949 50.7739 21.5354 50.7767 21.4674 50.7767C21.3201 50.7767 21.1955 50.7541 21.0935 50.7087C20.9915 50.6634 20.9065 50.5926 20.8385 50.4963C20.7705 50.4 20.7224 50.2782 20.694 50.1308C20.6657 49.9835 20.6516 49.8079 20.6516 49.6039V39.1847L18.9178 39.4396V50.3688C18.9178 50.6974 18.9632 50.9779 19.0538 51.2102C19.1445 51.4425 19.2748 51.6323 19.4448 51.7796C19.6147 51.9269 19.8159 52.0317 20.0482 52.094C20.2805 52.1563 20.5326 52.1875 20.8045 52.1875C20.9405 52.1875 21.0708 52.1818 21.1955 52.1705C21.3201 52.1592 21.4419 52.1422 21.5609 52.1195C21.6799 52.0968 21.779 52.0742 21.8584 52.0515L22.0283 50.7087C21.9603 50.7201 21.8923 50.7314 21.8244 50.7427C21.7564 50.7541 21.6969 50.7626 21.6459 50.7682ZM30.9433 46.0005C31.085 46.6124 31.1161 47.315 31.0368 48.1082H24.8952C24.9178 48.5416 24.9773 48.9184 25.0793 49.23C25.2096 49.6266 25.4023 49.941 25.6572 50.1733C25.9122 50.4056 26.2266 50.5699 26.6006 50.6663C26.9745 50.7626 27.4164 50.8107 27.9263 50.8107C28.1756 50.8107 28.4249 50.7966 28.6742 50.7682C28.9235 50.7399 29.1671 50.6946 29.4051 50.6323C29.6431 50.5699 29.8725 50.4991 30.0935 50.4198C30.3144 50.3405 30.5326 50.2612 30.7479 50.1818L30.6289 51.4906C30.3229 51.6493 30.017 51.7796 29.711 51.8816C29.4051 51.9835 29.0793 52.06 28.7337 52.111C28.3881 52.162 27.9887 52.1875 27.5354 52.1875C26.5836 52.1875 25.779 52.0204 25.1218 51.6861C24.4646 51.3518 23.9688 50.8589 23.6346 50.2073C23.3003 49.5558 23.1331 48.7654 23.1331 47.8362C23.1331 47.1337 23.2266 46.4963 23.4136 45.924C23.6006 45.3518 23.8725 44.8617 24.2295 44.4538C24.5864 44.0459 25.0198 43.7286 25.5297 43.5019C26.0397 43.2753 26.6176 43.162 27.2635 43.162C27.9093 43.162 28.4844 43.2697 28.9887 43.485C29.4929 43.7002 29.9093 44.0204 30.238 44.4453C30.5666 44.8702 30.8017 45.3886 30.9433 46.0005ZM25.1473 45.907C25.0425 46.1847 24.9745 46.5218 24.932 46.9014H29.4023C29.4023 46.5614 29.3626 46.2413 29.2776 45.9495C29.1473 45.4963 28.9178 45.1422 28.5892 44.8872C28.2606 44.6323 27.8244 44.5048 27.2805 44.5048C26.7365 44.5048 26.3173 44.6209 25.9547 44.8532C25.5921 45.0855 25.3229 45.4368 25.1473 45.907ZM44.9065 43.5189C44.4986 43.281 43.9943 43.162 43.3938 43.162C42.9292 43.162 42.4816 43.2385 42.051 43.3915C41.6204 43.5444 41.2125 43.7626 40.8272 44.0459C40.6176 44.1988 40.4164 44.3716 40.2238 44.5558C40.0255 44.1053 39.7365 43.7626 39.3484 43.5359C38.9405 43.298 38.4306 43.179 37.8187 43.179C37.3654 43.179 36.9207 43.2555 36.4844 43.4085C36.0482 43.5614 35.6374 43.7767 35.2521 44.0544C35.1303 44.1422 35.0113 44.2385 34.8952 44.3376V43.179L33.1615 43.434V52.0175H34.8952V45.5529C35.102 45.4198 35.3144 45.2951 35.5326 45.1932C35.8102 45.0629 36.0906 44.9637 36.3739 44.8957C36.6572 44.8277 36.9292 44.7937 37.1898 44.7937C37.4844 44.7937 37.7309 44.8362 37.9292 44.9212C38.1275 45.0062 38.2946 45.1308 38.4306 45.2951C38.5666 45.4595 38.6657 45.6748 38.728 45.941C38.7904 46.2073 38.8215 46.5161 38.8215 46.8674V52.0175H40.5552V46.5104C40.5552 46.1563 40.5326 45.8334 40.4901 45.5388C40.6912 45.4085 40.8923 45.2895 41.0991 45.1847C41.3711 45.0487 41.6487 44.9467 41.932 44.8787C42.2153 44.8107 42.4929 44.7767 42.7649 44.7767C43.0368 44.7767 43.2918 44.8192 43.4957 44.9042C43.6997 44.9892 43.8697 45.1138 44.0057 45.2782C44.1416 45.4425 44.2408 45.6578 44.3031 45.924C44.3654 46.1903 44.3966 46.4991 44.3966 46.8504V52.0175H46.1303V46.4935C46.1303 45.7229 46.0283 45.094 45.8244 44.6068C45.6204 44.1195 45.3144 43.7569 44.9065 43.5189ZM56.2946 50.9297C56.3853 50.9184 56.4816 50.8957 56.5836 50.8617L56.3966 52.0005C56.3399 52.0232 56.2748 52.043 56.2011 52.06C56.1275 52.077 56.0453 52.0968 55.9547 52.1195C55.864 52.1422 55.7705 52.1563 55.6742 52.162C55.5779 52.1677 55.4787 52.1705 55.3768 52.1705C55.0142 52.1705 54.6912 52.111 54.4079 51.992C54.1246 51.8731 53.9037 51.6804 53.745 51.4141C53.6601 51.2725 53.6006 51.1053 53.5609 50.9127C53.4533 51.0374 53.3428 51.1592 53.2266 51.2697C52.915 51.5643 52.5581 51.7909 52.1558 51.9495C51.7535 52.1082 51.2748 52.1875 50.7195 52.1875C50.119 52.1875 49.6176 52.0742 49.2153 51.8476C48.813 51.6209 48.5127 51.3235 48.3144 50.9552C48.1161 50.5869 48.017 50.1875 48.017 49.7569C48.017 49.3036 48.1445 48.8872 48.3994 48.5076C48.6544 48.128 49.0425 47.8136 49.5637 47.5643C50.085 47.315 50.7422 47.1677 51.5354 47.1223L53.5212 46.9892V46.5643C53.5212 46.2357 53.4901 45.9495 53.4221 45.7059C53.3541 45.4623 53.2408 45.2612 53.0821 45.1025C52.9235 44.9439 52.7054 44.8249 52.4278 44.7456C52.1501 44.6663 51.8074 44.6266 51.3994 44.6266C51.1728 44.6266 50.9433 44.6351 50.711 44.6521C50.4787 44.6691 50.2436 44.7002 50.0057 44.7456C49.7677 44.7909 49.5212 44.8476 49.2663 44.9155C49.0113 44.9835 48.7422 45.0685 48.4589 45.1705L48.6629 43.7257C48.9462 43.6124 49.2436 43.5133 49.5552 43.4283C49.8668 43.3433 50.1983 43.2782 50.5496 43.2328C50.9008 43.1875 51.2578 43.1648 51.6204 43.1648C52.119 43.1648 52.5666 43.2102 52.9632 43.3008C53.3598 43.3915 53.7025 43.5218 53.9915 43.6918C54.2804 43.8617 54.5156 44.0714 54.6969 44.3206C54.8782 44.5699 55.0142 44.8589 55.1048 45.1875C55.1955 45.5161 55.2408 45.8787 55.2408 46.2753L55.2068 49.7767C55.1955 50.196 55.2578 50.4963 55.3938 50.6776C55.5297 50.8589 55.7507 50.9495 56.0567 50.9495C56.1246 50.9495 56.204 50.9439 56.2946 50.9325V50.9297ZM53.5099 49.9127L53.5184 48.2243H52.0312C51.4759 48.2243 51.034 48.2697 50.7054 48.3603C50.3768 48.451 50.1388 48.5926 49.9915 48.7852C49.8442 48.9779 49.7705 49.2442 49.7705 49.5841C49.7705 49.8447 49.8272 50.0685 49.9405 50.2555C50.0538 50.4425 50.221 50.5869 50.4419 50.6889C50.6629 50.7909 50.932 50.8419 51.2493 50.8419C51.4986 50.8419 51.7394 50.8192 51.9717 50.7739C52.204 50.7286 52.4249 50.6549 52.6346 50.5529C52.8442 50.451 53.0425 50.3263 53.2295 50.179C53.3286 50.0997 53.4221 50.009 53.5127 49.9127H53.5099ZM61.7507 43.2895C61.4334 43.3745 61.1331 43.5048 60.8499 43.6804C60.5666 43.8561 60.3003 44.0685 60.051 44.3178C60.0113 44.3575 59.9717 44.4028 59.932 44.4453V43.179L58.1983 43.434V52.0175H59.932V45.5954C60.0623 45.5048 60.1955 45.4198 60.3314 45.3461C60.5071 45.2498 60.6827 45.1677 60.8584 45.0997C61.034 45.0317 61.2125 44.9722 61.3938 44.9212C61.5751 44.8702 61.7649 44.8334 61.9632 44.8107C62.1615 44.7881 62.3683 44.7824 62.5836 44.7937L62.7875 43.196C62.4136 43.1733 62.068 43.2045 61.7507 43.2895ZM71.762 43.349H69.6374L66.728 46.5444H66.102V39.1847L64.3683 39.4396V52.0175H66.102V47.8532H66.1303L69.6034 52.0175H71.847L67.7252 47.3716L71.762 43.349Z" fill="white"/>
</g>
<defs>
<clipPath id="clip0_5918_1262">
<rect width="89" height="31" fill="white" transform="translate(0 22)"/>
</clipPath>
</defs>
</svg>
