<svg width="76" height="54" viewBox="0 0 76 54" fill="none" xmlns="http://www.w3.org/2000/svg">
<path d="M0 17.9976V5.99865H4V17.9976H0ZM9.24381 7.90834L11.5081 17.9976H7.19917L4.49549 5.99865H6.91217C7.46635 5.99146 8.00406 6.18681 8.4245 6.54795C8.84562 6.89394 9.08495 7.37426 9.24381 7.90834ZM12 17.9976V5.99865H16V17.9976H12ZM19.0105 10.5617C18.5862 10.5658 18.1687 10.4548 17.8025 10.2405C17.4412 10.0317 17.1411 9.73152 16.9323 9.37016C16.7178 9.00389 16.6068 8.58632 16.611 8.16188C16.6061 7.74002 16.7172 7.32494 16.9323 6.96199C17.1433 6.60455 17.4431 6.30765 17.8025 6.10008C18.1689 5.88606 18.5862 5.77507 19.0105 5.77894C19.4322 5.7744 19.8471 5.88549 20.2102 6.10008C20.566 6.30947 20.8626 6.60612 21.072 6.96199C21.2868 7.32504 21.3979 7.74005 21.3933 8.16188C21.3973 8.58629 21.2863 9.00379 21.072 9.37016C20.8649 9.72993 20.5679 10.0298 20.2102 10.2405C19.8471 10.4555 19.4324 10.5666 19.0105 10.5617ZM22 17.9976V5.99865H26V17.9976H22ZM30.9737 12.5558C30.9848 12.5674 31.0693 12.7054 31.2272 12.9698C31.3851 13.2342 31.5906 13.5722 31.8439 13.9838C32.0974 14.3953 32.3649 14.8318 32.6463 15.2936C32.9278 15.7553 33.1926 16.1919 33.4408 16.6033C33.6881 17.0147 33.9697 17.4795 34.2857 17.9976H29.9598C29.6893 17.5582 29.4441 17.161 29.2245 16.8061C29.0048 16.4512 28.7713 16.0681 28.5238 15.6569C28.2758 15.2461 28.0306 14.8461 27.7882 14.457C27.5458 14.0679 27.3375 13.7272 27.1633 13.4346C26.9883 13.1419 26.8671 12.9447 26.7997 12.8431C26.6325 12.591 26.5336 12.2999 26.5127 11.9981C26.5294 11.7085 26.6226 11.4285 26.7828 11.1867C26.8503 11.074 26.9743 10.874 27.1545 10.5867C27.3348 10.2994 27.546 9.95861 27.7882 9.56428C28.0304 9.16995 28.2756 8.76716 28.5238 8.35593C28.772 7.9447 29.0055 7.55879 29.2245 7.19826C29.4445 6.83811 29.6897 6.43814 29.9598 5.99837H34.2857L30.9396 11.4571C30.8361 11.6191 30.7777 11.8059 30.7706 11.9981C30.7818 12.1999 30.8528 12.3939 30.9737 12.5558Z" fill="#0A2343"/>
<g clip-path="url(#clip0_5918_1394)">
<path d="M3.86105 24.4837H0V23H9.47558V24.4837H5.6314V34.9709H3.86105V24.4837ZM12.932 26.3131C12.6172 26.3974 12.3194 26.5266 12.0384 26.7009C11.7574 26.8751 11.4932 27.0859 11.2459 27.3331C11.2066 27.3725 11.1672 27.4174 11.1279 27.4596V26.2035L9.40814 26.4564V34.9709H11.1279V28.6005C11.2572 28.5106 11.3892 28.4263 11.5241 28.3532C11.6984 28.2577 11.8726 28.1762 12.0468 28.1087C12.221 28.0413 12.3981 27.9823 12.5779 27.9317C12.7578 27.8811 12.946 27.8446 13.1427 27.8221C13.3394 27.7996 13.5446 27.794 13.7581 27.8052L13.9605 26.2203C13.5895 26.1979 13.2467 26.2288 12.932 26.3131ZM22.8459 28.252C23.1944 28.9096 23.3686 29.6824 23.3686 30.5703C23.3686 31.5033 23.1803 32.3126 22.8038 32.9983C22.4272 33.6839 21.9017 34.2122 21.2273 34.5831C20.5529 34.9541 19.7773 35.1395 18.9006 35.1395C18.0238 35.1395 17.3157 34.9653 16.675 34.6169C16.0343 34.2684 15.5425 33.7598 15.1997 33.091C14.8569 32.4222 14.6855 31.6269 14.6855 30.7052C14.6855 29.7835 14.8681 28.9855 15.2334 28.311C15.5987 27.6366 16.1102 27.114 16.7677 26.743C17.4253 26.3721 18.1924 26.1866 19.0692 26.1866C19.9459 26.1866 20.7075 26.3665 21.3538 26.7262C22.0001 27.0859 22.4975 27.5945 22.8459 28.252ZM21.5814 30.6041C21.5814 30.1432 21.5308 29.7245 21.4297 29.348C21.3285 28.9714 21.1739 28.6483 20.966 28.3785C20.758 28.1087 20.4995 27.9036 20.1904 27.7631C19.8813 27.6226 19.5132 27.5523 19.086 27.5523C18.5465 27.5523 18.0828 27.6647 17.6951 27.8895C17.3073 28.1143 17.0066 28.4516 16.793 28.9012C16.5795 29.3508 16.4727 29.9184 16.4727 30.6041C16.4727 31.2897 16.5795 31.8855 16.793 32.3576C17.0066 32.8297 17.2988 33.1837 17.6698 33.4198C18.0407 33.6558 18.4791 33.7738 18.9849 33.7738C19.4907 33.7738 19.9403 33.6586 20.3337 33.4282C20.7271 33.1978 21.0334 32.8465 21.2526 32.3744C21.4718 31.9023 21.5814 31.3122 21.5814 30.6041ZM36.5113 28.9265C36.5732 29.1906 36.6041 29.4969 36.6041 29.8453V34.9709H38.3238V29.4913C38.3238 28.7269 38.2227 28.1031 38.0203 27.6198C37.818 27.1364 37.5145 26.7767 37.1099 26.5407C36.7052 26.3047 36.205 26.1866 35.6093 26.1866C35.1484 26.1866 34.7045 26.2625 34.2773 26.4142C33.8502 26.566 33.4455 26.7824 33.0634 27.0634C32.8554 27.2151 32.6559 27.3865 32.4648 27.5692C32.2681 27.1224 31.9815 26.7824 31.5965 26.5576C31.1919 26.3215 30.686 26.2035 30.0791 26.2035C29.6295 26.2035 29.1883 26.2794 28.7555 26.4311C28.3228 26.5828 27.9153 26.7964 27.5331 27.0718C27.4123 27.1589 27.2943 27.2545 27.1791 27.3528V26.2035L25.4593 26.4564V34.9709H27.1791V28.5583C27.3842 28.4263 27.595 28.3026 27.8113 28.2015C28.0867 28.0722 28.3649 27.9738 28.6459 27.9064C28.9269 27.839 29.1967 27.8052 29.4552 27.8052C29.7475 27.8052 29.992 27.8474 30.1887 27.9317C30.3854 28.016 30.5512 28.1396 30.686 28.3026C30.8209 28.4656 30.9193 28.6792 30.9811 28.9433C31.0429 29.2075 31.0738 29.5138 31.0738 29.8622V34.9709H32.7936V29.5081C32.7936 29.1569 32.7711 28.8365 32.729 28.5443C32.9285 28.415 33.128 28.297 33.3331 28.193C33.6029 28.0581 33.8783 27.957 34.1593 27.8895C34.4403 27.8221 34.7157 27.7884 34.9855 27.7884C35.2552 27.7884 35.5081 27.8305 35.7105 27.9148C35.9128 27.9991 36.0814 28.1228 36.2163 28.2858C36.3512 28.4487 36.4495 28.6623 36.5113 28.9265ZM44.0648 33.6895C43.767 33.757 43.4494 33.7907 43.1122 33.7907C42.9324 33.7907 42.7328 33.7766 42.5137 33.7485C42.2945 33.7204 42.064 33.6811 41.8224 33.6305C41.5807 33.5799 41.3334 33.5181 41.0805 33.4451C40.8276 33.372 40.5719 33.2905 40.3134 33.2006L40.3808 34.6337C40.6731 34.7349 40.94 34.8164 41.1817 34.8782C41.4234 34.94 41.6538 34.9934 41.873 35.0384C42.0921 35.0833 42.3057 35.1114 42.5137 35.1227C42.7216 35.1339 42.9324 35.1395 43.1459 35.1395C43.6405 35.1395 44.107 35.0918 44.5453 34.9962C44.9837 34.9007 45.3659 34.7517 45.6919 34.5494C46.0178 34.3471 46.2735 34.0829 46.459 33.757C46.6445 33.431 46.7372 33.0432 46.7372 32.5936C46.7372 32.2564 46.6894 31.967 46.5939 31.7253C46.4983 31.4836 46.3663 31.2729 46.1977 31.093C46.0291 30.9132 45.8324 30.7586 45.6076 30.6294C45.3828 30.5001 45.1467 30.3905 44.8994 30.3006C44.7196 30.2444 44.5425 30.1854 44.3683 30.1235C44.1941 30.0617 44.0199 30.0055 43.8456 29.9549C43.6714 29.9044 43.5028 29.851 43.3398 29.7948C43.1768 29.7386 43.0279 29.6767 42.893 29.6093C42.7469 29.5306 42.6148 29.4463 42.4968 29.3564C42.3788 29.2665 42.2832 29.1597 42.2102 29.036C42.1371 28.9124 42.1006 28.7719 42.1006 28.6145C42.1006 28.4347 42.1399 28.2801 42.2186 28.1509C42.2973 28.0216 42.4153 27.912 42.5727 27.8221C42.73 27.7322 42.9183 27.6647 43.1375 27.6198C43.3567 27.5748 43.6068 27.5523 43.8878 27.5523C44.0114 27.5523 44.1463 27.5579 44.2924 27.5692C44.4386 27.5804 44.5987 27.6001 44.773 27.6282C44.9472 27.6563 45.1214 27.6928 45.2956 27.7378C45.4699 27.7828 45.6469 27.8333 45.8267 27.8895C46.0066 27.9457 46.1696 28.0076 46.3157 28.075L46.4337 26.7093C46.2202 26.6194 46.0094 26.5407 45.8015 26.4733C45.5935 26.4058 45.3828 26.3496 45.1692 26.3047C44.9556 26.2597 44.7449 26.2288 44.5369 26.2119C44.329 26.1951 44.1238 26.1866 43.9215 26.1866C43.4157 26.1866 42.9548 26.24 42.539 26.3468C42.1231 26.4536 41.7606 26.6109 41.4515 26.8189C41.1423 27.0268 40.9035 27.291 40.7349 27.6113C40.5663 27.9317 40.482 28.311 40.482 28.7494C40.482 29.0641 40.5269 29.3423 40.6169 29.584C40.7068 29.8257 40.8248 30.0308 40.9709 30.1994C41.1171 30.368 41.2885 30.517 41.4852 30.6462C41.6819 30.7755 41.8926 30.8851 42.1174 30.975C42.2411 31.02 42.3703 31.0649 42.5052 31.1099C42.6401 31.1548 42.7722 31.197 42.9015 31.2363C43.0307 31.2757 43.1572 31.315 43.2808 31.3544C43.4045 31.3937 43.5253 31.433 43.6433 31.4724C43.7613 31.5117 43.8765 31.5483 43.9889 31.582C44.1463 31.6382 44.2924 31.7028 44.4273 31.7759C44.5622 31.8489 44.6774 31.9276 44.773 32.0119C44.8685 32.0962 44.9416 32.1946 44.9921 32.307C45.0427 32.4194 45.068 32.543 45.068 32.6779C45.068 32.9589 44.9753 33.1809 44.7898 33.3439C44.6044 33.5069 44.3627 33.6221 44.0648 33.6895ZM60.9 30.5703C60.9 31.5033 60.7117 32.3126 60.3352 32.9983C59.9586 33.6839 59.4331 34.2122 58.7587 34.5831C58.0843 34.9541 57.3087 35.1395 56.432 35.1395C55.5552 35.1395 54.8471 34.9653 54.2064 34.6169C53.5657 34.2684 53.0739 33.7598 52.7311 33.091C52.3883 32.4222 52.2169 31.6269 52.2169 30.7052C52.2169 29.7835 52.3995 28.9855 52.7648 28.311C53.1301 27.6366 53.6416 27.114 54.2991 26.743C54.9567 26.3721 55.7238 26.1866 56.6006 26.1866C57.4773 26.1866 58.2389 26.3665 58.8852 26.7262C59.5315 27.0859 60.0289 27.5945 60.3773 28.252C60.7258 28.9096 60.9 29.6824 60.9 30.5703ZM59.1128 30.6041C59.1128 30.1432 59.0622 29.7245 58.961 29.348C58.8599 28.9714 58.7053 28.6483 58.4974 28.3785C58.2894 28.1087 58.0309 27.9036 57.7218 27.7631C57.4127 27.6226 57.0446 27.5523 56.6174 27.5523C56.0779 27.5523 55.6142 27.6647 55.2265 27.8895C54.8387 28.1143 54.538 28.4516 54.3244 28.9012C54.1109 29.3508 54.0041 29.9184 54.0041 30.6041C54.0041 31.2897 54.1109 31.8855 54.3244 32.3576C54.538 32.8297 54.8302 33.1837 55.2012 33.4198C55.5721 33.6558 56.0105 33.7738 56.5163 33.7738C57.0221 33.7738 57.4717 33.6586 57.8651 33.4282C58.2585 33.1978 58.5648 32.8465 58.784 32.3744C59.0032 31.9023 59.1128 31.3122 59.1128 30.6041ZM68.6558 38.2166C68.0039 38.5369 67.2002 38.6971 66.2448 38.6971C65.8626 38.6971 65.4917 38.6746 65.132 38.6297C64.7723 38.5847 64.4266 38.5201 64.0951 38.4358C63.7635 38.3515 63.4459 38.2475 63.1424 38.1238L62.957 36.6401C63.3054 36.7862 63.6595 36.9071 64.0192 37.0026C64.3789 37.0982 64.7358 37.1656 65.0898 37.2049C65.4439 37.2443 65.7895 37.264 66.1267 37.264C66.6326 37.264 67.0625 37.2106 67.4166 37.1038C67.7706 36.997 68.0573 36.834 68.2765 36.6148C68.4956 36.3956 68.6586 36.1259 68.7654 35.8055C68.8722 35.4852 68.9256 35.1114 68.9256 34.6843V34.2234C68.608 34.4567 68.2877 34.6422 67.9645 34.7686C67.3688 35.0047 66.7674 35.1227 66.1605 35.1227C65.3736 35.1227 64.7048 34.9513 64.1541 34.6084C63.6033 34.2656 63.1846 33.7823 62.898 33.1584C62.6113 32.5346 62.468 31.7955 62.468 30.9413C62.468 30.1769 62.5804 29.4997 62.8052 28.9096C63.03 28.3195 63.342 27.8249 63.741 27.4259C64.14 27.0268 64.5924 26.7205 65.0983 26.507C65.6041 26.2934 66.138 26.1866 66.7 26.1866C67.026 26.1866 67.3295 26.2063 67.6105 26.2456C67.8915 26.285 68.1528 26.3384 68.3945 26.4058C68.5996 26.462 68.7935 26.5323 68.979 26.6109L70.6285 26.1866V34.9203C70.6285 35.6622 70.4627 36.317 70.1311 36.8846C69.7995 37.4522 69.3077 37.8962 68.6558 38.2166ZM68.9256 33.0292V27.8867C68.8413 27.8558 68.7542 27.8221 68.6727 27.794C68.4029 27.7097 68.1388 27.6451 67.8802 27.6001C67.6217 27.5551 67.3576 27.5327 67.0878 27.5327C66.6382 27.5327 66.2363 27.6029 65.8823 27.7434C65.5282 27.8839 65.2303 28.0834 64.9887 28.342C64.747 28.6005 64.5615 28.9293 64.4323 29.3283C64.303 29.7273 64.2384 30.1854 64.2384 30.7024C64.2384 31.3993 64.3311 31.9698 64.5166 32.4138C64.702 32.8578 64.9887 33.1893 65.3764 33.4085C65.7642 33.6277 66.2504 33.7373 66.8349 33.7373C67.0484 33.7373 67.2536 33.7148 67.4503 33.6699C67.647 33.6249 67.8493 33.5603 68.0573 33.476C68.2652 33.3917 68.4816 33.2849 68.7064 33.1556C68.7766 33.1163 68.8525 33.0713 68.9256 33.0264V33.0292ZM0.0393411 51.8314H1.80969V46.8913H6.32829L6.51376 45.4244H1.80969V41.3442H7.93004V39.8605H0.0393411V51.8314ZM11.0577 39.5317C10.8834 39.4249 10.6895 39.3715 10.476 39.3715C10.2624 39.3715 10.0657 39.4249 9.88585 39.5317C9.70601 39.6385 9.56269 39.779 9.45591 39.9532C9.34913 40.1274 9.29574 40.3213 9.29574 40.5349C9.29574 40.7485 9.34913 40.9452 9.45591 41.125C9.56269 41.3048 9.70601 41.4454 9.88585 41.5465C10.0657 41.6477 10.2624 41.6983 10.476 41.6983C10.6895 41.6983 10.8834 41.6477 11.0577 41.5465C11.2319 41.4454 11.3696 41.3048 11.4707 41.125C11.5719 40.9452 11.6225 40.7485 11.6225 40.5349C11.6225 40.3213 11.5719 40.1274 11.4707 39.9532C11.3696 39.779 11.2319 39.6385 11.0577 39.5317ZM9.58236 51.8314H11.3021V43.064L9.58236 43.3169V51.8314ZM20.5417 43.4012C20.1145 43.1651 19.575 43.0471 18.9231 43.0471C18.4397 43.0471 17.9592 43.123 17.4815 43.2747C17.0038 43.4265 16.5514 43.6428 16.1242 43.9238C15.9612 44.0306 15.8039 44.1486 15.6521 44.2695V43.064L13.9324 43.3169V51.8314H15.6521V45.4272C15.8179 45.3317 15.9865 45.2418 16.1664 45.1631C16.408 45.0563 16.6497 44.9636 16.8914 44.8849C17.133 44.8062 17.3747 44.7472 17.6164 44.7078C17.858 44.6685 18.0913 44.6488 18.3161 44.6488C18.6308 44.6488 18.9006 44.691 19.1254 44.7753C19.3502 44.8596 19.5357 44.986 19.6818 45.1547C19.8279 45.3233 19.9347 45.5368 20.0021 45.7954C20.0696 46.0539 20.1033 46.3574 20.1033 46.7058V51.8314H21.8231V46.3517C21.8231 45.5874 21.7163 44.9636 21.5027 44.4802C21.2891 43.9969 20.9688 43.6372 20.5417 43.4012ZM30.9783 43.4012C30.5512 43.1651 30.0116 43.0471 29.3597 43.0471C28.8764 43.0471 28.3958 43.123 27.9181 43.2747C27.4404 43.4265 26.988 43.6428 26.5609 43.9238C26.3979 44.0306 26.2405 44.1486 26.0888 44.2695V43.064L24.369 43.3169V51.8314H26.0888V45.4272C26.2546 45.3317 26.4232 45.2418 26.603 45.1631C26.8447 45.0563 27.0863 44.9636 27.328 44.8849C27.5697 44.8062 27.8113 44.7472 28.053 44.7078C28.2947 44.6685 28.5279 44.6488 28.7527 44.6488C29.0674 44.6488 29.3372 44.691 29.562 44.7753C29.7868 44.8596 29.9723 44.986 30.1184 45.1547C30.2645 45.3233 30.3713 45.5368 30.4388 45.7954C30.5062 46.0539 30.5399 46.3574 30.5399 46.7058V51.8314H32.2597V46.3517C32.2597 45.5874 32.1529 44.9636 31.9393 44.4802C31.7258 43.9969 31.4054 43.6372 30.9783 43.4012ZM46.4562 43.4012C46.0516 43.1651 45.5514 43.0471 44.9556 43.0471C44.4948 43.0471 44.0508 43.123 43.6236 43.2747C43.1965 43.4265 42.7919 43.6428 42.4097 43.9238C42.2017 44.0756 42.0022 44.247 41.8111 44.4297C41.6144 43.9829 41.3278 43.6428 40.9428 43.418C40.5382 43.182 40.0324 43.064 39.4254 43.064C38.9758 43.064 38.5346 43.1398 38.1018 43.2916C37.6691 43.4433 37.2616 43.6569 36.8795 43.9323C36.7586 44.0194 36.6406 44.1149 36.5254 44.2133V43.064L34.8056 43.3169V51.8314H36.5254V45.4188C36.7305 45.2867 36.9413 45.1631 37.1576 45.0619C37.433 44.9327 37.7112 44.8343 37.9922 44.7669C38.2733 44.6994 38.543 44.6657 38.8015 44.6657C39.0938 44.6657 39.3383 44.7079 39.535 44.7922C39.7317 44.8765 39.8975 45.0001 40.0324 45.1631C40.1672 45.3261 40.2656 45.5396 40.3274 45.8038C40.3892 46.0679 40.4202 46.3742 40.4202 46.7227V51.8314H42.1399V46.3686C42.1399 46.0173 42.1174 45.697 42.0753 45.4048C42.2748 45.2755 42.4743 45.1575 42.6795 45.0535C42.9492 44.9186 43.2246 44.8174 43.5056 44.75C43.7866 44.6826 44.062 44.6488 44.3318 44.6488C44.6015 44.6488 44.8545 44.691 45.0568 44.7753C45.2591 44.8596 45.4277 44.9832 45.5626 45.1462C45.6975 45.3092 45.7958 45.5228 45.8577 45.7869C45.9195 46.0511 45.9504 46.3574 45.9504 46.7058V51.8314H47.6702V46.3517C47.6702 45.5874 47.569 44.9636 47.3667 44.4802C47.1643 43.9969 46.8609 43.6372 46.4562 43.4012ZM57.7527 50.7523C57.8426 50.7411 57.9382 50.7186 58.0393 50.6849L57.8539 51.8145C57.7977 51.837 57.733 51.8567 57.66 51.8735C57.5869 51.8904 57.5054 51.9101 57.4155 51.9326C57.3256 51.955 57.2328 51.9691 57.1373 51.9747C57.0418 51.9803 56.9434 51.9831 56.8422 51.9831C56.4826 51.9831 56.1622 51.9241 55.8812 51.8061C55.6002 51.6881 55.381 51.497 55.2236 51.2329C55.1393 51.0923 55.0803 50.9266 55.041 50.7355C54.9342 50.8591 54.8246 50.9799 54.7094 51.0895C54.4003 51.3818 54.0462 51.6066 53.6472 51.764C53.2482 51.9213 52.7733 52 52.2225 52C51.6267 52 51.1294 51.8876 50.7303 51.6628C50.3313 51.438 50.0334 51.1429 49.8367 50.7776C49.64 50.4123 49.5417 50.0161 49.5417 49.589C49.5417 49.1393 49.6681 48.7263 49.921 48.3497C50.1739 47.9732 50.5589 47.6612 51.076 47.414C51.593 47.1667 52.245 47.0205 53.0318 46.9756L55.0016 46.8435V46.422C55.0016 46.096 54.9707 45.8122 54.9033 45.5705C54.8358 45.3289 54.7234 45.1294 54.5661 44.972C54.4087 44.8146 54.1923 44.6966 53.917 44.6179C53.6416 44.5392 53.3015 44.4999 52.8969 44.4999C52.6721 44.4999 52.4445 44.5083 52.214 44.5252C51.9836 44.5421 51.7504 44.573 51.5143 44.6179C51.2783 44.6629 51.0338 44.7191 50.7809 44.7865C50.528 44.854 50.261 44.9383 49.98 45.0394L50.1824 43.6063C50.4634 43.4939 50.7584 43.3955 51.0675 43.3112C51.3766 43.2269 51.7054 43.1623 52.0539 43.1173C52.4023 43.0724 52.7564 43.0499 53.1161 43.0499C53.6107 43.0499 54.0546 43.0949 54.4481 43.1848C54.8415 43.2747 55.1815 43.404 55.4681 43.5726C55.7547 43.7412 55.988 43.9491 56.1678 44.1964C56.3477 44.4437 56.4826 44.7303 56.5725 45.0563C56.6624 45.3823 56.7074 45.742 56.7074 46.1354L56.6736 49.6086C56.6624 50.0245 56.7242 50.3224 56.8591 50.5022C56.994 50.6821 57.2132 50.772 57.5167 50.772C57.5841 50.772 57.6628 50.7664 57.7527 50.7551V50.7523ZM54.9904 49.7463L54.9988 48.0715H53.5235C52.9728 48.0715 52.5344 48.1165 52.2084 48.2064C51.8825 48.2963 51.6464 48.4368 51.5003 48.6279C51.3542 48.819 51.2811 49.0831 51.2811 49.4203C51.2811 49.6789 51.3373 49.9009 51.4497 50.0863C51.5621 50.2718 51.7279 50.4151 51.9471 50.5163C52.1663 50.6174 52.4332 50.668 52.748 50.668C52.9953 50.668 53.2341 50.6455 53.4645 50.6006C53.695 50.5556 53.9141 50.4826 54.1221 50.3814C54.33 50.2802 54.5267 50.1566 54.7122 50.0105C54.8106 49.9318 54.9033 49.8419 54.9932 49.7463H54.9904ZM63.1649 43.1764C62.8502 43.2607 62.5523 43.3899 62.2713 43.5641C61.9903 43.7384 61.7262 43.9491 61.4789 44.1964C61.4395 44.2358 61.4002 44.2807 61.3609 44.3229V43.0668L59.6411 43.3197V51.8342H61.3609V45.4638C61.4901 45.3738 61.6222 45.2895 61.7571 45.2165C61.9313 45.1209 62.1055 45.0394 62.2797 44.972C62.454 44.9046 62.631 44.8455 62.8109 44.795C62.9907 44.7444 63.179 44.7078 63.3757 44.6854C63.5724 44.6629 63.7775 44.6573 63.9911 44.6685L64.1934 43.0836C63.8225 43.0611 63.4796 43.0921 63.1649 43.1764ZM70.9545 51.8342H73.18L69.0914 47.2257L73.0957 43.2354H70.9882L68.1022 46.4051H67.4812V39.1046L65.7614 39.3575V51.8342H67.4812V47.7034H67.5093L70.9545 51.8342Z" fill="#1767CE"/>
</g>
<defs>
<clipPath id="clip0_5918_1394">
<rect width="73.18" height="29" fill="white" transform="translate(0 23)"/>
</clipPath>
</defs>
</svg>
