<svg width="199" height="24" viewBox="0 0 199 24" fill="none" xmlns="http://www.w3.org/2000/svg">
<rect width="199" height="24" fill="#1767CE"/>
<path d="M6 17.9976V5.99865H10V17.9976H6ZM15.2438 7.90834L17.5081 17.9976H13.1992L10.4955 5.99865H12.9122C13.4663 5.99146 14.0041 6.18681 14.4245 6.54795C14.8456 6.89394 15.0849 7.37426 15.2438 7.90834ZM18 17.9976V5.99865H22V17.9976H18ZM25.0105 10.5617C24.5862 10.5658 24.1687 10.4548 23.8025 10.2405C23.4412 10.0317 23.1411 9.73152 22.9323 9.37016C22.7178 9.00389 22.6068 8.58632 22.611 8.16188C22.6061 7.74002 22.7172 7.32494 22.9323 6.96199C23.1433 6.60455 23.4431 6.30765 23.8025 6.10008C24.1689 5.88606 24.5862 5.77507 25.0105 5.77894C25.4322 5.7744 25.8471 5.88549 26.2102 6.10008C26.566 6.30947 26.8626 6.60612 27.072 6.96199C27.2868 7.32504 27.3979 7.74005 27.3933 8.16188C27.3973 8.58629 27.2863 9.00379 27.072 9.37016C26.8649 9.72993 26.5679 10.0298 26.2102 10.2405C25.8471 10.4555 25.4324 10.5666 25.0105 10.5617ZM28 17.9976V5.99865H32V17.9976H28ZM36.9737 12.5558C36.9848 12.5674 37.0693 12.7054 37.2272 12.9698C37.3851 13.2342 37.5906 13.5722 37.8439 13.9838C38.0974 14.3953 38.3649 14.8318 38.6463 15.2936C38.9278 15.7553 39.1926 16.1919 39.4408 16.6033C39.6881 17.0147 39.9697 17.4795 40.2857 17.9976H35.9598C35.6893 17.5582 35.4441 17.161 35.2245 16.8061C35.0048 16.4512 34.7713 16.0681 34.5238 15.6569C34.2758 15.2461 34.0306 14.8461 33.7882 14.457C33.5458 14.0679 33.3375 13.7272 33.1633 13.4346C32.9883 13.1419 32.8671 12.9447 32.7997 12.8431C32.6325 12.591 32.5336 12.2999 32.5127 11.9981C32.5294 11.7085 32.6226 11.4285 32.7828 11.1867C32.8503 11.074 32.9743 10.874 33.1545 10.5867C33.3348 10.2994 33.546 9.95861 33.7882 9.56428C34.0304 9.16995 34.2756 8.76716 34.5238 8.35593C34.772 7.9447 35.0055 7.55879 35.2245 7.19826C35.4445 6.83811 35.6897 6.43814 35.9598 5.99837H40.2857L36.9396 11.4571C36.8361 11.6191 36.7777 11.8059 36.7706 11.9981C36.7818 12.1999 36.8528 12.3939 36.9737 12.5558Z" fill="white"/>
<g clip-path="url(#clip0_5918_1409)">
<path d="M48.7764 7.4899V17.9989H47.0013V7.4899H43.1299V6.00309H52.6309V7.4899H48.7764ZM56.0966 9.32306C55.781 9.40754 55.4823 9.53707 55.2006 9.71166C54.9188 9.88624 54.654 10.0974 54.406 10.3452C54.3666 10.3847 54.3271 10.4297 54.2877 10.472V9.21324L52.5633 9.46667V17.9989H54.2877V11.6152C54.4173 11.5251 54.5497 11.4406 54.685 11.3674C54.8596 11.2717 55.0343 11.19 55.209 11.1224C55.3837 11.0548 55.5612 10.9957 55.7416 10.945C55.9219 10.8943 56.1107 10.8577 56.3079 10.8352C56.5051 10.8127 56.7108 10.807 56.925 10.8183L57.1278 9.23013C56.7559 9.20761 56.4122 9.23858 56.0966 9.32306ZM66.0372 11.266C66.3865 11.925 66.5612 12.6993 66.5612 13.5892C66.5612 14.5241 66.3725 15.335 65.9949 16.0221C65.6173 16.7092 65.0904 17.2386 64.4142 17.6103C63.738 17.982 62.9603 18.1678 62.0812 18.1678C61.2021 18.1678 60.4921 17.9933 59.8497 17.6441C59.2072 17.2949 58.7142 16.7852 58.3704 16.115C58.0267 15.4449 57.8548 14.648 57.8548 13.7243C57.8548 12.8007 58.0379 12.001 58.4042 11.3252C58.7705 10.6494 59.2833 10.1256 59.9426 9.75389C60.602 9.38219 61.3712 9.19634 62.2503 9.19634C63.1294 9.19634 63.8929 9.37656 64.541 9.737C65.1891 10.0974 65.6878 10.6071 66.0372 11.266ZM64.7692 13.623C64.7692 13.1612 64.7185 12.7416 64.6171 12.3642C64.5156 11.9869 64.3607 11.6631 64.1522 11.3928C63.9437 11.1224 63.6844 10.9169 63.3745 10.7761C63.0646 10.6353 62.6955 10.5649 62.2672 10.5649C61.7262 10.5649 61.2613 10.6775 60.8725 10.9028C60.4836 11.1281 60.1821 11.466 59.968 11.9165C59.7539 12.3671 59.6468 12.9359 59.6468 13.623C59.6468 14.31 59.7539 14.907 59.968 15.3801C60.1821 15.8532 60.4752 16.208 60.8471 16.4445C61.219 16.681 61.6586 16.7993 62.1657 16.7993C62.6729 16.7993 63.1237 16.6839 63.5182 16.453C63.9127 16.2221 64.2198 15.8701 64.4396 15.397C64.6593 14.9239 64.7692 14.3326 64.7692 13.623ZM80.3394 9.55115C79.9337 9.31461 79.4321 9.19634 78.8348 9.19634C78.3727 9.19634 77.9275 9.27237 77.4992 9.42443C77.071 9.57649 76.6652 9.79332 76.282 10.0749C76.0735 10.227 75.8735 10.3987 75.6819 10.5818C75.4846 10.134 75.1973 9.79332 74.8112 9.56804C74.4055 9.33151 73.8983 9.21324 73.2897 9.21324C72.8389 9.21324 72.3965 9.28927 71.9626 9.44133C71.5287 9.59339 71.1202 9.8074 70.737 10.0834C70.6158 10.1706 70.4975 10.2664 70.3819 10.3649V9.21324L68.6575 9.46667V17.9989H70.3819V11.573C70.5876 11.4406 70.7989 11.3167 71.0159 11.2154C71.292 11.0858 71.571 10.9873 71.8527 10.9197C72.1345 10.8521 72.405 10.8183 72.6642 10.8183C72.9572 10.8183 73.2024 10.8605 73.3996 10.945C73.5968 11.0295 73.7631 11.1534 73.8983 11.3167C74.0336 11.48 74.1322 11.6941 74.1942 11.9588C74.2562 12.2235 74.2872 12.5304 74.2872 12.8796V17.9989H76.0115V12.5248C76.0115 12.1728 75.989 11.8518 75.9467 11.5589C76.1468 11.4294 76.3468 11.3111 76.5525 11.2069C76.823 11.0717 77.0991 10.9704 77.3809 10.9028C77.6627 10.8352 77.9388 10.8014 78.2093 10.8014C78.4798 10.8014 78.7334 10.8437 78.9362 10.9281C79.1391 11.0126 79.3082 11.1365 79.4434 11.2998C79.5787 11.4632 79.6773 11.6772 79.7393 11.9419C79.8012 12.2066 79.8322 12.5135 79.8322 12.8627V17.9989H81.5566V12.5079C81.5566 11.7419 81.4552 11.1168 81.2523 10.6325C81.0495 10.1481 80.7451 9.78768 80.3394 9.55115ZM89.4516 14.1129C89.2825 13.9327 89.0853 13.7778 88.8599 13.6483C88.6345 13.5188 88.3978 13.409 88.1499 13.3188C87.9695 13.2625 87.792 13.2034 87.6173 13.1414C87.4426 13.0795 87.2679 13.0232 87.0933 12.9725C86.9186 12.9218 86.7495 12.8683 86.5861 12.812C86.4227 12.7557 86.2733 12.6937 86.1381 12.6261C85.9916 12.5473 85.8591 12.4628 85.7408 12.3727C85.6225 12.2826 85.5267 12.1756 85.4534 12.0517C85.3801 11.9278 85.3435 11.787 85.3435 11.6293C85.3435 11.4491 85.383 11.2942 85.4619 11.1647C85.5407 11.0351 85.6591 10.9253 85.8169 10.8352C85.9747 10.7451 86.1634 10.6775 86.3832 10.6325C86.603 10.5874 86.8538 10.5649 87.1355 10.5649C87.2595 10.5649 87.3947 10.5705 87.5413 10.5818C87.6878 10.593 87.8484 10.6127 88.0231 10.6409C88.1978 10.6691 88.3725 10.7057 88.5471 10.7507C88.7218 10.7958 88.8994 10.8465 89.0797 10.9028C89.26 10.9591 89.4234 11.0211 89.5699 11.0886L89.6883 9.7201C89.4741 9.62999 89.2628 9.55115 89.0543 9.48357C88.8458 9.41598 88.6345 9.35967 88.4204 9.31461C88.2062 9.26956 87.9949 9.23858 87.7864 9.22169C87.5779 9.20479 87.3722 9.19634 87.1693 9.19634C86.6622 9.19634 86.2001 9.24985 85.7831 9.35685C85.3661 9.46385 85.0026 9.62155 84.6926 9.82992C84.3827 10.0383 84.1432 10.303 83.9741 10.624C83.8051 10.945 83.7206 11.3252 83.7206 11.7645C83.7206 12.0798 83.7656 12.3586 83.8558 12.6008C83.946 12.843 84.0643 13.0485 84.2108 13.2175C84.3573 13.3864 84.5292 13.5357 84.7265 13.6652C84.9237 13.7947 85.135 13.9046 85.3604 13.9947C85.4844 14.0397 85.614 14.0848 85.7492 14.1298C85.8845 14.1749 86.0169 14.2171 86.1465 14.2565C86.2761 14.296 86.4029 14.3354 86.5269 14.3748C86.6509 14.4142 86.772 14.4537 86.8904 14.4931C87.0087 14.5325 87.1242 14.5691 87.2369 14.6029C87.3947 14.6592 87.5413 14.724 87.6765 14.7972C87.8117 14.8704 87.9273 14.9493 88.0231 15.0337C88.1189 15.1182 88.1921 15.2168 88.2428 15.3294C88.2936 15.442 88.3189 15.5659 88.3189 15.7011C88.3189 15.9827 88.2259 16.2052 88.04 16.3685C87.854 16.5318 87.6117 16.6473 87.313 16.7148C87.0144 16.7824 86.696 16.8162 86.3579 16.8162C86.1775 16.8162 85.9775 16.8021 85.7577 16.774C85.5379 16.7458 85.3069 16.7064 85.0646 16.6557C84.8223 16.605 84.5743 16.5431 84.3207 16.4699C84.0671 16.3966 83.8107 16.315 83.5515 16.2249L83.6191 17.661C83.9122 17.7624 84.1798 17.844 84.4221 17.906C84.6645 17.9679 84.8955 18.0214 85.1153 18.0665C85.3351 18.1115 85.5492 18.1397 85.7577 18.151C85.9662 18.1622 86.1775 18.1678 86.3917 18.1678C86.8876 18.1678 87.3553 18.12 87.7948 18.0242C88.2344 17.9285 88.6176 17.7793 88.9444 17.5765C89.2713 17.3738 89.5277 17.1091 89.7136 16.7824C89.8996 16.4558 89.9926 16.0672 89.9926 15.6166C89.9926 15.2787 89.9447 14.9887 89.8489 14.7465C89.7531 14.5043 89.6207 14.2931 89.4516 14.1129ZM103.669 11.266C104.019 11.925 104.193 12.6993 104.193 13.5892C104.193 14.5241 104.005 15.335 103.627 16.0221C103.25 16.7092 102.723 17.2386 102.046 17.6103C101.37 17.982 100.592 18.1678 99.7134 18.1678C98.8343 18.1678 98.1242 17.9933 97.4818 17.6441C96.8394 17.2949 96.3463 16.7852 96.0026 16.115C95.6588 15.4449 95.487 14.648 95.487 13.7243C95.487 12.8007 95.6701 12.001 96.0364 11.3252C96.4027 10.6494 96.9155 10.1256 97.5748 9.75389C98.2341 9.38219 99.0033 9.19634 99.8824 9.19634C100.762 9.19634 101.525 9.37656 102.173 9.737C102.821 10.0974 103.32 10.6071 103.669 11.266ZM102.401 13.623C102.401 13.1612 102.351 12.7416 102.249 12.3642C102.148 11.9869 101.993 11.6631 101.784 11.3928C101.576 11.1224 101.317 10.9169 101.007 10.7761C100.697 10.6353 100.328 10.5649 99.8993 10.5649C99.3584 10.5649 98.8935 10.6775 98.5046 10.9028C98.1158 11.1281 97.8143 11.466 97.6002 11.9165C97.386 12.3671 97.279 12.9359 97.279 13.623C97.279 14.31 97.386 14.907 97.6002 15.3801C97.8143 15.8532 98.1073 16.208 98.4793 16.4445C98.8512 16.681 99.2907 16.7993 99.7979 16.7993C100.305 16.7993 100.756 16.6839 101.15 16.453C101.545 16.2221 101.852 15.8701 102.072 15.397C102.292 14.9239 102.401 14.3326 102.401 13.623ZM112.294 9.62155L113.948 9.19634V17.9482C113.948 18.6916 113.782 19.3477 113.449 19.9165C113.117 20.4853 112.624 20.9303 111.97 21.2513C111.316 21.5723 110.511 21.7328 109.553 21.7328C109.169 21.7328 108.797 21.7103 108.437 21.6652C108.076 21.6202 107.73 21.5554 107.397 21.4709C107.065 21.3864 106.746 21.2822 106.442 21.1583L106.256 19.6715C106.605 19.818 106.96 19.9391 107.321 20.0348C107.682 20.1305 108.039 20.1981 108.394 20.2375C108.75 20.277 109.096 20.2967 109.434 20.2967C109.941 20.2967 110.372 20.2432 110.727 20.1362C111.082 20.0292 111.37 19.8658 111.59 19.6462C111.809 19.4266 111.973 19.1562 112.08 18.8352C112.187 18.5142 112.241 18.1397 112.241 17.7117V17.2499C111.922 17.4836 111.601 17.6694 111.277 17.7961C110.68 18.0327 110.077 18.151 109.468 18.151C108.679 18.151 108.008 17.9792 107.456 17.6356C106.904 17.2921 106.484 16.8078 106.197 16.1826C105.909 15.5575 105.766 14.8169 105.766 13.9609C105.766 13.1949 105.878 12.5163 106.104 11.925C106.329 11.3336 106.642 10.838 107.042 10.4382C107.442 10.0383 107.896 9.73137 108.403 9.51736C108.91 9.30335 109.445 9.19634 110.009 9.19634C110.336 9.19634 110.64 9.21605 110.922 9.25548C111.204 9.2949 111.466 9.3484 111.708 9.41598C111.914 9.4723 112.108 9.5427 112.294 9.62155ZM112.241 16.0531V10.9028C112.156 10.8718 112.069 10.838 111.987 10.8099C111.716 10.7254 111.452 10.6606 111.192 10.6156C110.933 10.5705 110.668 10.548 110.398 10.548C109.947 10.548 109.544 10.6184 109.189 10.7592C108.834 10.9 108.535 11.0999 108.293 11.359C108.051 11.618 107.865 11.9475 107.735 12.3474C107.606 12.7472 107.541 13.2062 107.541 13.7243C107.541 14.4227 107.634 14.9943 107.82 15.4392C108.006 15.8841 108.293 16.2164 108.682 16.4361C109.071 16.6557 109.558 16.7655 110.144 16.7655C110.358 16.7655 110.564 16.743 110.761 16.6979C110.959 16.6529 111.161 16.5881 111.37 16.5036C111.578 16.4192 111.795 16.3122 112.021 16.1826C112.091 16.1432 112.167 16.0982 112.241 16.0531ZM120.693 17.9989H122.469V13.0485H126.999L127.185 11.5786H122.469V7.4899H128.605V6.00309H120.693V17.9989ZM131.741 5.67363C131.567 5.56663 131.372 5.51313 131.158 5.51313C130.944 5.51313 130.747 5.56663 130.566 5.67363C130.386 5.78064 130.242 5.92143 130.135 6.09602C130.028 6.27061 129.975 6.4649 129.975 6.67891C129.975 6.89292 130.028 7.09004 130.135 7.27026C130.242 7.45048 130.386 7.59127 130.566 7.69264C130.747 7.79402 130.944 7.8447 131.158 7.8447C131.372 7.8447 131.567 7.79402 131.741 7.69264C131.916 7.59127 132.054 7.45048 132.155 7.27026C132.257 7.09004 132.308 6.89292 132.308 6.67891C132.308 6.4649 132.257 6.27061 132.155 6.09602C132.054 5.92143 131.916 5.78064 131.741 5.67363ZM130.262 17.9989H131.986V9.21324L130.262 9.46667V17.9989ZM141.251 9.55115C140.823 9.31461 140.282 9.19634 139.628 9.19634C139.143 9.19634 138.661 9.27237 138.182 9.42443C137.703 9.57649 137.25 9.79332 136.821 10.0749C136.658 10.1819 136.5 10.3002 136.348 10.4213V9.21324L134.624 9.46667V17.9989H136.348V11.5814C136.512 11.4857 136.683 11.3956 136.864 11.3167C137.106 11.2097 137.348 11.1168 137.591 11.038C137.833 10.9591 138.075 10.9 138.318 10.8605C138.56 10.8211 138.794 10.8014 139.019 10.8014C139.335 10.8014 139.605 10.8437 139.831 10.9281C140.056 11.0126 140.242 11.1393 140.389 11.3083C140.535 11.4772 140.642 11.6912 140.71 11.9503C140.777 12.2094 140.811 12.5135 140.811 12.8627V17.9989H142.536V12.5079C142.536 11.7419 142.429 11.1168 142.214 10.6325C142 10.1481 141.679 9.78768 141.251 9.55115ZM151.715 9.55115C151.287 9.31461 150.746 9.19634 150.092 9.19634C149.608 9.19634 149.126 9.27237 148.647 9.42443C148.168 9.57649 147.714 9.79332 147.286 10.0749C147.123 10.1819 146.965 10.3002 146.813 10.4213V9.21324L145.088 9.46667V17.9989H146.813V11.5814C146.976 11.4857 147.148 11.3956 147.328 11.3167C147.571 11.2097 147.813 11.1168 148.055 11.038C148.298 10.9591 148.54 10.9 148.782 10.8605C149.025 10.8211 149.258 10.8014 149.484 10.8014C149.799 10.8014 150.07 10.8437 150.295 10.9281C150.521 11.0126 150.707 11.1393 150.853 11.3083C151 11.4772 151.107 11.6912 151.174 11.9503C151.242 12.2094 151.276 12.5135 151.276 12.8627V17.9989H153V12.5079C153 11.7419 152.893 11.1168 152.679 10.6325C152.465 10.1481 152.144 9.78768 151.715 9.55115ZM167.235 9.55115C166.829 9.31461 166.328 9.19634 165.73 9.19634C165.268 9.19634 164.823 9.27237 164.395 9.42443C163.966 9.57649 163.561 9.79332 163.178 10.0749C162.969 10.227 162.769 10.3987 162.577 10.5818C162.38 10.134 162.093 9.79332 161.707 9.56804C161.301 9.33151 160.794 9.21324 160.185 9.21324C159.734 9.21324 159.292 9.28927 158.858 9.44133C158.424 9.59339 158.016 9.8074 157.632 10.0834C157.511 10.1706 157.393 10.2664 157.277 10.3649V9.21324L155.553 9.46667V17.9989H157.277V11.573C157.483 11.4406 157.694 11.3167 157.911 11.2154C158.188 11.0858 158.466 10.9873 158.748 10.9197C159.03 10.8521 159.3 10.8183 159.56 10.8183C159.853 10.8183 160.098 10.8605 160.295 10.945C160.492 11.0295 160.659 11.1534 160.794 11.3167C160.929 11.48 161.028 11.6941 161.09 11.9588C161.152 12.2235 161.183 12.5304 161.183 12.8796V17.9989H162.907V12.5248C162.907 12.1728 162.884 11.8518 162.842 11.5589C163.042 11.4294 163.242 11.3111 163.448 11.2069C163.719 11.0717 163.995 10.9704 164.276 10.9028C164.558 10.8352 164.834 10.8014 165.105 10.8014C165.375 10.8014 165.629 10.8437 165.832 10.9281C166.035 11.0126 166.204 11.1365 166.339 11.2998C166.474 11.4632 166.573 11.6772 166.635 11.9419C166.697 12.2066 166.728 12.5135 166.728 12.8627V17.9989H168.452V12.5079C168.452 11.7419 168.351 11.1168 168.148 10.6325C167.945 10.1481 167.641 9.78768 167.235 9.55115ZM178.562 16.9176C178.652 16.9063 178.748 16.8838 178.849 16.85L178.663 17.982C178.607 18.0045 178.542 18.0242 178.469 18.0411C178.396 18.058 178.314 18.0777 178.224 18.1003C178.133 18.1228 178.04 18.1369 177.945 18.1425C177.849 18.1481 177.75 18.151 177.649 18.151C177.288 18.151 176.967 18.0918 176.685 17.9735C176.403 17.8553 176.184 17.6638 176.026 17.3991C175.941 17.2583 175.882 17.0922 175.843 16.9007C175.736 17.0246 175.626 17.1457 175.51 17.2555C175.2 17.5483 174.845 17.7736 174.445 17.9313C174.045 18.089 173.569 18.1678 173.017 18.1678C172.419 18.1678 171.921 18.0552 171.521 17.8299C171.12 17.6047 170.822 17.309 170.625 16.9429C170.427 16.5769 170.329 16.1798 170.329 15.7518C170.329 15.3012 170.455 14.8873 170.709 14.51C170.963 14.1326 171.349 13.8201 171.867 13.5723C172.386 13.3245 173.039 13.178 173.828 13.133L175.803 13.0006V12.5783C175.803 12.2516 175.772 11.9672 175.705 11.725C175.637 11.4829 175.524 11.2829 175.367 11.1252C175.209 10.9676 174.992 10.8493 174.716 10.7704C174.44 10.6916 174.099 10.6522 173.693 10.6522C173.467 10.6522 173.239 10.6606 173.008 10.6775C172.777 10.6944 172.543 10.7254 172.307 10.7704C172.07 10.8155 171.825 10.8718 171.571 10.9394C171.318 11.007 171.05 11.0915 170.768 11.1928L170.971 9.75671C171.253 9.64407 171.549 9.54552 171.859 9.46104C172.169 9.37656 172.498 9.3118 172.848 9.26674C173.197 9.22169 173.552 9.19916 173.913 9.19916C174.409 9.19916 174.854 9.24421 175.248 9.33432C175.643 9.42443 175.984 9.55396 176.271 9.72292C176.558 9.89187 176.792 10.1003 176.973 10.3481C177.153 10.5959 177.288 10.8831 177.378 11.2097C177.469 11.5364 177.514 11.8968 177.514 12.291L177.48 15.7715C177.469 16.1883 177.531 16.4867 177.666 16.667C177.801 16.8472 178.021 16.9373 178.325 16.9373C178.393 16.9373 178.472 16.9317 178.562 16.9204V16.9176ZM175.792 15.9067L175.8 14.2312H174.321C173.769 14.2312 173.329 14.2763 173.003 14.3664C172.676 14.4565 172.439 14.5973 172.293 14.7888C172.146 14.9802 172.073 15.2449 172.073 15.5828C172.073 15.8419 172.129 16.0644 172.242 16.2502C172.355 16.4361 172.521 16.5797 172.741 16.681C172.96 16.7824 173.228 16.8331 173.544 16.8331C173.792 16.8331 174.031 16.8106 174.262 16.7655C174.493 16.7205 174.713 16.6473 174.921 16.5459C175.13 16.4445 175.327 16.3206 175.513 16.1742C175.612 16.0953 175.705 16.0052 175.795 15.9095L175.792 15.9067ZM183.988 9.32024C183.673 9.40472 183.374 9.53425 183.092 9.70884C182.811 9.88343 182.546 10.0946 182.298 10.3424C182.258 10.3818 182.219 10.4269 182.18 10.4691V9.21042L180.455 9.46385V17.9961H182.18V11.6124C182.309 11.5223 182.442 11.4378 182.577 11.3646C182.752 11.2689 182.926 11.1872 183.101 11.1196C183.276 11.052 183.453 10.9929 183.633 10.9422C183.814 10.8915 184.003 10.8549 184.2 10.8324C184.397 10.8099 184.603 10.8042 184.817 10.8155L185.02 9.22732C184.648 9.20479 184.304 9.23577 183.988 9.32024ZM191.799 17.9961H194.031L189.931 13.378L193.946 9.37938H191.833L188.939 12.5557H188.316V5.2428L186.592 5.49623V17.9989H188.316V13.8595H188.345L191.799 17.9989V17.9961Z" fill="#D4EEFC"/>
</g>
<defs>
<clipPath id="clip0_5918_1409">
<rect width="152" height="17" fill="white" transform="translate(43 5)"/>
</clipPath>
</defs>
</svg>
