<svg xmlns="http://www.w3.org/2000/svg" viewBox="0 0 60 54"><path fill="#0A2343" d="M0 17.998v-12h4v12H0Zm9.244-10.09 2.264 10.09H7.2l-2.704-12h2.417a2.276 2.276 0 0 1 1.513.55c.42.346.66.826.819 1.36ZM12 17.998v-12h4v12h-4Zm7.01-7.436a2.381 2.381 0 0 1-2.078-1.192 2.345 2.345 0 0 1-.321-1.208 2.301 2.301 0 0 1 .321-1.2A2.41 2.41 0 0 1 20.21 6.1c.356.21.653.506.862.862.215.363.326.778.321 1.2a2.35 2.35 0 0 1-.321 1.208 2.4 2.4 0 0 1-.862.87 2.301 2.301 0 0 1-1.2.322ZM22 17.998v-12h4v12h-4Zm8.974-5.442c.01.011.095.15.253.414s.364.602.617 1.014a316.22 316.22 0 0 1 1.597 2.62c.247.41.529.876.845 1.394H29.96c-.27-.44-.516-.837-.736-1.192-.22-.355-.453-.738-.7-1.15-.248-.41-.493-.81-.736-1.199-.242-.39-.45-.73-.625-1.022a18.04 18.04 0 0 0-.363-.592 1.747 1.747 0 0 1-.287-.845c.016-.29.11-.57.27-.811.067-.113.191-.313.371-.6a182.106 182.106 0 0 0 1.37-2.23l.7-1.159.736-1.2h4.326l-3.346 5.46a1.079 1.079 0 0 0-.17.54c.012.202.083.396.204.558Z"/><g clip-path="url(#a)"><path fill="#1767CE" d="M11.246 26.405a5.557 5.557 0 0 0-1.13-1.954 4.972 4.972 0 0 0-1.802-1.258c-.708-.295-1.515-.442-2.422-.442-.906 0-1.739.153-2.464.46a5.166 5.166 0 0 0-1.844 1.29A5.661 5.661 0 0 0 .428 26.5c-.267.776-.4 1.635-.4 2.575 0 .94.13 1.788.391 2.541a5.33 5.33 0 0 0 1.14 1.93 4.886 4.886 0 0 0 1.81 1.215c.707.277 1.51.416 2.404.416.896 0 1.72-.147 2.44-.442a5.187 5.187 0 0 0 1.844-1.258 5.56 5.56 0 0 0 1.172-1.954c.272-.76.408-1.62.408-2.584 0-.963-.13-1.773-.39-2.532Zm-1.708 4.47a4.263 4.263 0 0 1-.773 1.488 3.54 3.54 0 0 1-1.258.969c-.498.232-1.07.348-1.717.348-.646 0-1.175-.107-1.657-.323a3.5 3.5 0 0 1-1.24-.926 4.028 4.028 0 0 1-.783-1.453 6.416 6.416 0 0 1-.263-1.904c0-.94.162-1.773.484-2.498.323-.726.785-1.295 1.386-1.709.6-.413 1.325-.62 2.175-.62.85 0 1.53.195 2.108.586.578.391 1.023.94 1.334 1.649.312.708.468 1.533.468 2.473 0 .703-.088 1.343-.264 1.92Zm6.553 4.284c-.216 0-.428-.006-.638-.017a4.392 4.392 0 0 1-.646-.085c-.22-.045-.453-.099-.697-.161a10.264 10.264 0 0 1-.807-.247l-.068-1.445c.26.091.519.173.774.247.255.074.504.136.747.187.244.05.476.09.697.119.221.028.422.042.604.042.34 0 .66-.034.96-.102.3-.068.544-.184.73-.348.188-.164.281-.388.281-.671a.869.869 0 0 0-.297-.671 1.873 1.873 0 0 0-.349-.239 3.15 3.15 0 0 0-.442-.195c-.113-.034-.229-.071-.348-.11a27.907 27.907 0 0 0-.748-.239 15.71 15.71 0 0 1-.79-.263 3.58 3.58 0 0 1-.638-.332 2.49 2.49 0 0 1-.518-.45 2.002 2.002 0 0 1-.357-.62 2.403 2.403 0 0 1-.136-.842c0-.442.085-.824.255-1.147.17-.323.41-.59.722-.799.312-.21.678-.368 1.097-.476a5.6 5.6 0 0 1 1.393-.161c.204 0 .411.008.62.025.21.017.423.048.638.094.216.045.428.102.638.17.21.068.422.147.637.238l-.119 1.376a4.092 4.092 0 0 0-.493-.187c-.181-.056-.36-.107-.535-.153a5.844 5.844 0 0 0-1.42-.187c-.283 0-.535.023-.756.068-.22.046-.41.114-.57.204a.966.966 0 0 0-.356.332.882.882 0 0 0-.12.467c0 .159.038.3.111.425.074.125.17.232.29.323.118.09.251.176.399.255.136.068.286.13.45.187.164.057.334.11.51.162.176.05.351.107.527.17.176.062.354.121.535.178.25.09.488.201.714.331.227.13.425.287.595.468.17.181.303.394.4.637.096.244.144.536.144.876 0 .453-.093.844-.28 1.172a2.223 2.223 0 0 1-.774.8 3.648 3.648 0 0 1-1.156.45 6.615 6.615 0 0 1-1.41.144Zm7.903-.017a4.33 4.33 0 0 1-.39.017c-.273 0-.525-.031-.757-.093a1.5 1.5 0 0 1-.603-.315c-.17-.147-.3-.337-.391-.57a2.316 2.316 0 0 1-.136-.84V22.41l1.733-.255v10.42c0 .203.015.38.043.526.028.148.076.27.144.366a.614.614 0 0 0 .255.212.918.918 0 0 0 .374.068c.068 0 .128 0 .179-.008.05-.006.11-.014.178-.026l.204-.034-.17 1.343a3.76 3.76 0 0 1-.663.119Zm10.675-4.59c0-.894-.176-1.673-.527-2.336a3.713 3.713 0 0 0-1.505-1.539c-.651-.362-1.419-.543-2.303-.543-.884 0-1.657.187-2.32.56a3.92 3.92 0 0 0-1.547 1.581c-.368.68-.552 1.485-.552 2.414s.173 1.73.518 2.405a3.548 3.548 0 0 0 1.488 1.538c.646.351 1.393.527 2.243.527.85 0 1.666-.187 2.346-.56A3.958 3.958 0 0 0 34.1 33c.379-.69.569-1.507.569-2.447Zm-2.134 1.82c-.22.475-.53.83-.926 1.062a2.64 2.64 0 0 1-1.36.348c-.51 0-.952-.119-1.325-.357-.374-.238-.669-.594-.884-1.07-.216-.476-.323-1.066-.323-1.768 0-.703.107-1.264.323-1.717.215-.453.518-.793.909-1.02.39-.226.858-.34 1.402-.34.43 0 .802.071 1.114.213.311.142.572.348.781.62.21.272.366.598.468.978.102.38.153.801.153 1.266 0 .714-.11 1.309-.332 1.784Zm14.431-5.695c-.652-.362-1.42-.543-2.303-.543-.884 0-1.657.187-2.32.56a3.92 3.92 0 0 0-1.547 1.581c-.368.68-.552 1.485-.552 2.414s.172 1.73.518 2.405a3.548 3.548 0 0 0 1.487 1.538c.646.351 1.394.527 2.244.527.85 0 1.666-.187 2.346-.56A3.959 3.959 0 0 0 48.428 33c.38-.69.57-1.507.57-2.447 0-.94-.176-1.674-.528-2.337a3.714 3.714 0 0 0-1.504-1.539Zm-.102 5.694c-.22.476-.53.83-.926 1.063a2.64 2.64 0 0 1-1.36.348c-.51 0-.952-.119-1.326-.357-.374-.238-.668-.594-.884-1.07-.215-.476-.323-1.066-.323-1.768 0-.703.108-1.264.323-1.717.216-.453.519-.793.91-1.02.39-.226.858-.34 1.402-.34.43 0 .802.071 1.113.213.312.142.572.348.782.62.21.272.365.598.467.978.102.38.154.801.154 1.266 0 .714-.111 1.309-.332 1.784Zm10.278-5.81a4.645 4.645 0 0 0-.59-.206 6.065 6.065 0 0 0-.79-.162c-.283-.04-.59-.06-.918-.06-.566 0-1.105.108-1.614.323-.51.216-.966.525-1.369.927-.402.402-.716.9-.943 1.496-.227.595-.34 1.277-.34 2.048 0 .861.144 1.606.433 2.235a3.296 3.296 0 0 0 1.267 1.462c.555.345 1.23.518 2.022.518a4.9 4.9 0 0 0 1.819-.357c.326-.13.649-.314.969-.55v.465c0 .43-.054.807-.162 1.13a2.049 2.049 0 0 1-.493.816c-.22.221-.51.386-.866.493-.357.108-.79.162-1.3.162-.34 0-.69-.02-1.046-.06a7.366 7.366 0 0 1-1.08-.204 8.23 8.23 0 0 1-1.07-.365l.187 1.496c.306.124.626.229.96.314.334.085.683.15 1.045.196.363.045.737.068 1.122.068.963 0 1.774-.162 2.43-.485.658-.323 1.154-.77 1.488-1.343.334-.572.502-1.232.502-1.98v-8.804l-1.663.427Zm-.275 6.6a5.37 5.37 0 0 1-.654.324c-.21.085-.414.15-.612.195a2.772 2.772 0 0 1-.62.068c-.59 0-1.08-.11-1.471-.331a1.992 1.992 0 0 1-.867-1.003c-.187-.448-.28-1.023-.28-1.725 0-.521.065-.983.195-1.385.13-.403.317-.734.561-.995a2.45 2.45 0 0 1 .9-.603 3.275 3.275 0 0 1 1.216-.213c.272 0 .538.023.799.068.26.046.527.11.799.196.082.025.17.06.255.093v5.182c-.074.045-.15.09-.221.13ZM8.822 39.919h1.767L6.391 51.986H4.18L0 39.918h1.904l2.481 7.445c.136.385.27.796.4 1.232.13.437.257.876.382 1.318.065.235.128.459.187.677a88.567 88.567 0 0 1 .553-1.935c.13-.43.257-.839.382-1.224l2.533-7.513Zm5.235.094c.102.175.153.37.153.586 0 .215-.051.414-.153.595-.102.181-.241.323-.417.425a1.146 1.146 0 0 1-.586.153c-.216 0-.414-.051-.595-.153a1.155 1.155 0 0 1-.434-.425 1.144 1.144 0 0 1-.161-.595c0-.215.054-.41.161-.586.108-.176.253-.318.434-.425.181-.108.38-.162.595-.162.215 0 .41.054.586.162.176.107.315.25.417.425Zm-1.904 3.39 1.734-.254v8.838h-1.734v-8.583Zm7.742 3.938 4.122 4.646h-2.244L18.3 47.822h-.028v4.164h-1.734V39.408l1.734-.255v7.36h.626l2.91-3.195h2.124l-4.037 4.022Zm11.635-2.926a3.08 3.08 0 0 0-1.25-.96c-.504-.216-1.079-.323-1.725-.323-.646 0-1.224.113-1.733.34-.51.226-.944.544-1.3.952a4.168 4.168 0 0 0-.817 1.47 6.134 6.134 0 0 0-.28 1.912c0 .93.167 1.72.501 2.371.335.652.83 1.145 1.488 1.479.657.334 1.461.501 2.413.501.453 0 .853-.025 1.198-.076.346-.051.672-.128.978-.23a6.38 6.38 0 0 0 .918-.39l.119-1.31c-.216.08-.434.16-.655.239-.22.079-.45.15-.688.212a5.197 5.197 0 0 1-.731.136c-.25.028-.499.042-.748.042-.51 0-.952-.048-1.326-.144a2.181 2.181 0 0 1-.943-.493c-.255-.232-.448-.547-.578-.943a4.269 4.269 0 0 1-.184-1.122h6.142c.079-.793.048-1.496-.094-2.108-.142-.612-.377-1.13-.705-1.555Zm-4.284.408c.363-.232.805-.349 1.326-.349s.98.128 1.309.383c.329.255.558.609.688 1.062.085.292.122.612.125.952h-4.47c.042-.38.11-.717.215-.994.176-.47.445-.822.808-1.054Zm14.839-.247c.215.488.323 1.117.323 1.887v5.524h-1.734V46.82c0-.351-.034-.657-.102-.918a1.577 1.577 0 0 0-.323-.646 1.358 1.358 0 0 0-.56-.382 2.327 2.327 0 0 0-.816-.127c-.227 0-.462.02-.706.059-.244.04-.487.1-.73.178-.244.08-.488.173-.732.28-.18.08-.35.17-.518.267v6.456h-1.734v-8.583l1.734-.255v1.215c.153-.122.312-.24.476-.348a5.52 5.52 0 0 1 1.368-.655c.482-.153.966-.23 1.453-.23.658 0 1.201.12 1.632.358.43.238.754.6.969 1.087Z"/></g><defs><clipPath id="a"><path fill="#fff" d="M0 22h59v31H0z"/></clipPath></defs></svg>