<svg xmlns="http://www.w3.org/2000/svg" viewBox="0 0 75 41"><path fill="#fff" d="M0 17.997V6h4v11.998H0ZM9.244 7.908l2.264 10.09H7.2l-2.704-12h2.417a2.276 2.276 0 0 1 1.513.55c.42.346.66.826.819 1.36ZM12 17.998v-12h4v12h-4Zm7.01-7.436a2.382 2.382 0 0 1-2.4-2.4 2.301 2.301 0 0 1 .322-1.2A2.41 2.41 0 0 1 20.21 6.1c.356.21.653.506.862.862.215.363.326.778.321 1.2a2.35 2.35 0 0 1-.321 1.208 2.4 2.4 0 0 1-.862.87 2.3 2.3 0 0 1-1.2.322ZM22 17.997V6h4v11.998h-4Zm8.974-5.441c.01.011.095.15.253.414s.364.602.617 1.014a315.936 315.936 0 0 1 1.597 2.62c.247.41.529.876.845 1.393H29.96c-.27-.439-.516-.836-.736-1.19-.22-.356-.453-.739-.7-1.15-.248-.411-.493-.81-.736-1.2-.242-.39-.45-.73-.625-1.022-.175-.293-.296-.49-.363-.592a1.747 1.747 0 0 1-.287-.845c.016-.29.11-.57.27-.811.067-.113.191-.313.371-.6a182.106 182.106 0 0 0 1.37-2.23l.7-1.159.736-1.2h4.326l-3.346 5.459a1.08 1.08 0 0 0-.17.541c.012.202.083.396.204.558Z"/><g clip-path="url(#a)"><path fill="#fff" d="M0 23h1.773v11.991H0V23Zm11.147 3.547c-.428-.237-.969-.355-1.622-.355-.484 0-.965.076-1.444.228a5.484 5.484 0 0 0-1.36.65c-.162.107-.32.225-.472.346V26.21l-1.723.253v8.53H6.25v-6.416c.166-.096.335-.186.515-.265.242-.106.484-.2.726-.278.242-.079.484-.138.726-.178.243-.039.476-.059.701-.059.316 0 .586.043.811.127.225.085.411.211.557.38.147.169.254.383.321.642.068.259.102.563.102.912v5.134h1.722v-5.489c0-.765-.107-1.39-.32-1.874-.215-.485-.535-.845-.963-1.081Zm10.454 0c-.428-.237-.968-.355-1.621-.355-.485 0-.966.076-1.444.228a5.484 5.484 0 0 0-1.36.65c-.163.107-.32.225-.473.346V26.21l-1.723.253v8.53h1.723v-6.416c.166-.096.335-.186.515-.265.242-.106.484-.2.726-.278.242-.079.485-.138.727-.178.242-.039.475-.059.7-.059.316 0 .586.043.811.127.225.085.411.211.558.38.146.169.253.383.32.642.068.259.102.563.102.912v5.134h1.722v-5.489c0-.765-.107-1.39-.32-1.874-.214-.485-.535-.845-.963-1.081Zm6.494 7.203c-.051.005-.11.008-.178.008a.914.914 0 0 1-.371-.067.61.61 0 0 1-.254-.212.926.926 0 0 1-.143-.363 2.807 2.807 0 0 1-.042-.523V22.24l-1.723.253v10.86c0 .326.045.605.135.836.09.23.22.42.389.566.168.146.368.25.6.312.23.062.48.093.75.093a3.742 3.742 0 0 0 1.047-.135l.17-1.334-.203.033c-.068.012-.127.02-.177.026Zm9.652.16c.09-.011.185-.034.287-.067l-.186 1.131a1.335 1.335 0 0 1-.194.06c-.073.016-.155.036-.245.058-.09.023-.183.037-.279.043a5.06 5.06 0 0 1-.295.008c-.36 0-.681-.059-.963-.177a1.364 1.364 0 0 1-.659-.575 1.58 1.58 0 0 1-.183-.498 4.995 4.995 0 0 1-.332.355c-.31.293-.664.518-1.064.675-.4.158-.875.237-1.427.237-.597 0-1.095-.113-1.495-.338-.4-.225-.698-.52-.895-.887a2.472 2.472 0 0 1-.295-1.19c0-.45.126-.864.38-1.241.253-.378.639-.69 1.157-.938.518-.247 1.17-.394 1.959-.439l1.973-.132v-.422c0-.327-.031-.611-.099-.853a1.337 1.337 0 0 0-.337-.6c-.158-.158-.375-.276-.65-.355a3.774 3.774 0 0 0-1.022-.118c-.226 0-.454.009-.684.026-.231.017-.465.047-.701.093a10.372 10.372 0 0 0-1.537.422l.203-1.436c.281-.112.577-.211.886-.295.31-.085.64-.15.988-.195.35-.045.704-.067 1.064-.067.496 0 .94.045 1.334.135.395.09.735.22 1.022.388.287.17.521.378.701.625.18.248.315.535.405.862.09.326.136.686.136 1.08l-.034 3.48c-.011.416.05.715.186.895.135.18.354.27.658.27.068 0 .147-.006.237-.017v-.003ZM34.98 32.9l.008-1.675H33.51c-.551 0-.99.045-1.317.135-.326.09-.563.23-.71.422-.146.192-.219.456-.219.794 0 .259.056.481.169.667.113.186.279.33.498.43.22.102.487.153.802.153.248 0 .487-.023.718-.068.231-.045.45-.118.659-.22a2.746 2.746 0 0 0 .873-.636l-.003-.002Zm11.279-6.356c-.428-.237-.969-.355-1.622-.355-.484 0-.965.076-1.444.228a5.484 5.484 0 0 0-1.36.65c-.163.107-.32.226-.472.347v-1.208l-1.723.253v8.53h1.723v-6.416a5.22 5.22 0 0 1 .515-.264c.242-.107.484-.2.726-.279.242-.079.484-.138.726-.177.242-.04.476-.06.701-.06.316 0 .586.043.811.127.225.085.411.211.557.38.147.17.254.383.321.642.068.259.102.563.102.912v5.134h1.722V29.5c0-.765-.107-1.39-.32-1.874-.215-.484-.535-.845-.963-1.081Zm9.745-4.05 1.722-.237V34.99h-1.402l-.21-.78c-.127.093-.254.18-.38.257a4.607 4.607 0 0 1-1.174.523c-.4.113-.825.169-1.276.169-.776 0-1.444-.172-2-.515A3.353 3.353 0 0 1 50 33.184c-.299-.63-.448-1.38-.448-2.246 0-1.014.197-1.872.591-2.576.394-.703.915-1.241 1.562-1.613a4.153 4.153 0 0 1 2.103-.557 5.818 5.818 0 0 1 2.196.411v-4.11Zm0 10.608v-5.204c-.088-.031-.18-.068-.262-.093a5.104 5.104 0 0 0-1.596-.245c-.586 0-1.09.121-1.512.363a2.382 2.382 0 0 0-.97 1.064c-.226.467-.339 1.05-.339 1.748s.102 1.258.304 1.714c.203.456.496.794.879 1.014.382.22.844.329 1.384.329.36 0 .763-.082 1.208-.245a5.55 5.55 0 0 0 .904-.445Zm11.594-4.09c.14.608.171 1.306.093 2.095h-6.103c.023.43.082.802.183 1.114.13.394.321.707.574.938.254.23.566.394.938.49.371.095.81.143 1.317.143.248 0 .495-.014.743-.042.248-.028.49-.073.726-.135.237-.062.465-.133.684-.212.22-.078.437-.157.65-.236l-.118 1.3a6.32 6.32 0 0 1-.912.389 5.701 5.701 0 0 1-.97.228 8.24 8.24 0 0 1-1.191.076c-.946 0-1.746-.166-2.399-.498a3.303 3.303 0 0 1-1.477-1.47c-.333-.647-.499-1.432-.499-2.356 0-.698.093-1.331.279-1.9a4.14 4.14 0 0 1 .81-1.46c.355-.406.786-.721 1.293-.946.506-.225 1.08-.338 1.722-.338.642 0 1.213.107 1.715.32a3.06 3.06 0 0 1 1.24.955c.327.422.561.937.702 1.545Zm-5.76-.093c-.104.276-.171.611-.213.988h4.442c0-.337-.04-.655-.124-.945-.13-.45-.358-.802-.684-1.056-.327-.253-.76-.38-1.3-.38-.541 0-.958.116-1.318.346-.36.231-.628.58-.802 1.047Zm12.676 4.662a7.155 7.155 0 0 1-.262.05l-.287.051a2.493 2.493 0 0 1-.279.034c-.09.006-.174.008-.253.008-.293 0-.543-.05-.752-.152a1.09 1.09 0 0 1-.481-.447 1.425 1.425 0 0 1-.169-.718V27.73h2.381l.186-1.351h-2.567v-2.669l-1.723.608v2.06h-1.3l-.186 1.352h1.486v5.033c0 .383.051.712.152.988.102.276.234.504.397.684.164.18.355.32.575.422.22.101.453.175.7.22.248.045.49.067.727.067.18 0 .357-.005.532-.017a5.46 5.46 0 0 0 .481-.05 6.81 6.81 0 0 0 .414-.077c.13-.028.239-.053.33-.076l.1-1.401a1.267 1.267 0 0 1-.202.059Z"/></g><defs><clipPath id="a"><path fill="#fff" d="M0 22h75v14H0z"/></clipPath></defs></svg>