<svg width="213" height="24" viewBox="0 0 213 24" fill="none" xmlns="http://www.w3.org/2000/svg">
<rect width="213" height="24" fill="#1767CE"/>
<path d="M6 17.9976V5.99865H10V17.9976H6ZM15.2438 7.90834L17.5081 17.9976H13.1992L10.4955 5.99865H12.9122C13.4663 5.99146 14.0041 6.18681 14.4245 6.54795C14.8456 6.89394 15.0849 7.37426 15.2438 7.90834ZM18 17.9976V5.99865H22V17.9976H18ZM25.0105 10.5617C24.5862 10.5658 24.1687 10.4548 23.8025 10.2405C23.4412 10.0317 23.1411 9.73152 22.9323 9.37016C22.7178 9.00389 22.6068 8.58632 22.611 8.16188C22.6061 7.74002 22.7172 7.32494 22.9323 6.96199C23.1433 6.60455 23.4431 6.30765 23.8025 6.10008C24.1689 5.88606 24.5862 5.77507 25.0105 5.77894C25.4322 5.7744 25.8471 5.88549 26.2102 6.10008C26.566 6.30947 26.8626 6.60612 27.072 6.96199C27.2868 7.32504 27.3979 7.74005 27.3933 8.16188C27.3973 8.58629 27.2863 9.00379 27.072 9.37016C26.8649 9.72993 26.5679 10.0298 26.2102 10.2405C25.8471 10.4555 25.4324 10.5666 25.0105 10.5617ZM28 17.9976V5.99865H32V17.9976H28ZM36.9737 12.5558C36.9848 12.5674 37.0693 12.7054 37.2272 12.9698C37.3851 13.2342 37.5906 13.5722 37.8439 13.9838C38.0974 14.3953 38.3649 14.8318 38.6463 15.2936C38.9278 15.7553 39.1926 16.1919 39.4408 16.6033C39.6881 17.0147 39.9697 17.4795 40.2857 17.9976H35.9598C35.6893 17.5582 35.4441 17.161 35.2245 16.8061C35.0048 16.4512 34.7713 16.0681 34.5238 15.6569C34.2758 15.2461 34.0306 14.8461 33.7882 14.457C33.5458 14.0679 33.3375 13.7272 33.1633 13.4346C32.9883 13.1419 32.8671 12.9447 32.7997 12.8431C32.6325 12.591 32.5336 12.2999 32.5127 11.9981C32.5294 11.7085 32.6226 11.4285 32.7828 11.1867C32.8503 11.074 32.9743 10.874 33.1545 10.5867C33.3348 10.2994 33.546 9.95861 33.7882 9.56428C34.0304 9.16995 34.2756 8.76716 34.5238 8.35593C34.772 7.9447 35.0055 7.55879 35.2245 7.19826C35.4445 6.83811 35.6897 6.43814 35.9598 5.99837H40.2857L36.9396 11.4571C36.8361 11.6191 36.7777 11.8059 36.7706 11.9981C36.7818 12.1999 36.8528 12.3939 36.9737 12.5558Z" fill="white"/>
<g clip-path="url(#clip0_5918_1267)">
<path d="M52.1687 6.00309H53.9258L49.7526 17.9989H47.5562L43.3999 6.00309H45.2922L47.7589 13.4033C47.8941 13.7863 48.0265 14.1946 48.156 14.6282C48.2855 15.0619 48.4122 15.4984 48.5361 15.9376C48.6009 16.1714 48.6628 16.3938 48.722 16.6106C48.7783 16.4051 48.8374 16.1911 48.8994 15.9714C49.0177 15.5434 49.1416 15.1154 49.2711 14.6874C49.4006 14.2594 49.5273 13.8539 49.6512 13.4709L52.1687 6.00309ZM61.8244 12.0179C61.9652 12.6261 61.9962 13.3245 61.9174 14.1129H55.8125C55.835 14.5438 55.8941 14.9155 55.9955 15.228C56.125 15.6223 56.3165 15.9348 56.5699 16.1657C56.8234 16.3966 57.1359 16.56 57.5076 16.6557C57.8793 16.7514 58.3186 16.7993 58.8255 16.7993C59.0733 16.7993 59.3211 16.7852 59.5689 16.7571C59.8167 16.7289 60.0589 16.6839 60.2954 16.6219C60.5319 16.56 60.76 16.4896 60.9797 16.4107C61.1993 16.3319 61.4161 16.253 61.6301 16.1742L61.5119 17.4751C61.2077 17.6328 60.9036 17.7624 60.5995 17.8637C60.2954 17.9651 59.9716 18.0411 59.628 18.0918C59.2845 18.1425 58.8874 18.1678 58.4369 18.1678C57.4907 18.1678 56.691 18.0017 56.0377 17.6694C55.3844 17.3372 54.8917 16.8472 54.5594 16.1995C54.2271 15.5519 54.061 14.7662 54.061 13.8426C54.061 13.1443 54.1539 12.5107 54.3397 11.9419C54.5256 11.373 54.7959 10.8859 55.1507 10.4804C55.5055 10.0749 55.9364 9.75953 56.4432 9.53425C56.9501 9.30898 57.5245 9.19634 58.1666 9.19634C58.8086 9.19634 59.3802 9.30335 59.8815 9.51736C60.3827 9.73137 60.7966 10.0496 61.1233 10.472C61.4499 10.8943 61.6836 11.4097 61.8244 12.0179ZM56.0631 11.925C55.9589 12.2009 55.8913 12.536 55.8491 12.9134H60.2926C60.2926 12.5754 60.2532 12.2572 60.1687 11.9672C60.0391 11.5167 59.8111 11.1647 59.4844 10.9112C59.1578 10.6578 58.7241 10.5311 58.1835 10.5311C57.6428 10.5311 57.226 10.6465 56.8656 10.8774C56.5052 11.1083 56.2377 11.4575 56.0631 11.925ZM69.3683 14.1129C69.1993 13.9327 69.0022 13.7778 68.7769 13.6483C68.5517 13.5188 68.3151 13.409 68.0673 13.3188C67.8871 13.2625 67.7097 13.2034 67.5351 13.1414C67.3605 13.0795 67.1859 13.0232 67.0113 12.9725C66.8368 12.9218 66.6678 12.8683 66.5045 12.812C66.3412 12.7557 66.1919 12.6937 66.0568 12.6261C65.9103 12.5473 65.778 12.4628 65.6597 12.3727C65.5414 12.2826 65.4457 12.1756 65.3725 12.0517C65.2993 11.9278 65.2627 11.787 65.2627 11.6293C65.2627 11.4491 65.3021 11.2942 65.3809 11.1647C65.4598 11.0351 65.578 10.9253 65.7357 10.8352C65.8934 10.7451 66.0821 10.6775 66.3017 10.6325C66.5214 10.5874 66.772 10.5649 67.0536 10.5649C67.1775 10.5649 67.3127 10.5705 67.4591 10.5818C67.6055 10.593 67.766 10.6127 67.9406 10.6409C68.1152 10.6691 68.2898 10.7057 68.4644 10.7507C68.639 10.7958 68.8164 10.8465 68.9966 10.9028C69.1768 10.9591 69.3401 11.0211 69.4865 11.0886L69.6048 9.7201C69.3908 9.62999 69.1796 9.55115 68.9712 9.48357C68.7628 9.41598 68.5517 9.35967 68.3376 9.31461C68.1236 9.26956 67.9124 9.23858 67.7041 9.22169C67.4957 9.20479 67.2901 9.19634 67.0874 9.19634C66.5805 9.19634 66.1187 9.24985 65.7019 9.35685C65.2852 9.46385 64.9219 9.62155 64.6122 9.82992C64.3024 10.0383 64.0631 10.303 63.8941 10.624C63.7252 10.945 63.6407 11.3252 63.6407 11.7645C63.6407 12.0798 63.6858 12.3586 63.7759 12.6008C63.866 12.843 63.9842 13.0485 64.1307 13.2175C64.2771 13.3864 64.4489 13.5357 64.646 13.6652C64.8431 13.7947 65.0543 13.9046 65.2796 13.9947C65.4035 14.0397 65.533 14.0848 65.6682 14.1298C65.8033 14.1749 65.9357 14.2171 66.0652 14.2565C66.1947 14.296 66.3214 14.3354 66.4454 14.3748C66.5693 14.4142 66.6903 14.4537 66.8086 14.4931C66.9269 14.5325 67.0423 14.5691 67.155 14.6029C67.3127 14.6592 67.4591 14.724 67.5942 14.7972C67.7294 14.8704 67.8449 14.9493 67.9406 15.0337C68.0363 15.1182 68.1096 15.2168 68.1602 15.3294C68.2109 15.442 68.2363 15.5659 68.2363 15.7011C68.2363 15.9827 68.1433 16.2052 67.9575 16.3685C67.7716 16.5318 67.5295 16.6473 67.231 16.7148C66.9325 16.7824 66.6143 16.8162 66.2764 16.8162C66.0962 16.8162 65.8962 16.8021 65.6766 16.774C65.457 16.7458 65.2261 16.7064 64.9839 16.6557C64.7417 16.605 64.4939 16.5431 64.2405 16.4699C63.9871 16.3966 63.7308 16.315 63.4717 16.2249L63.5393 17.661C63.8322 17.7624 64.0997 17.844 64.3419 17.906C64.584 17.9679 64.8149 18.0214 65.0346 18.0665C65.2542 18.1115 65.4682 18.1397 65.6766 18.151C65.885 18.1622 66.0962 18.1678 66.3102 18.1678C66.8058 18.1678 67.2732 18.12 67.7125 18.0242C68.1518 17.9285 68.5348 17.7793 68.8614 17.5765C69.1881 17.3738 69.4443 17.1091 69.6302 16.7824C69.816 16.4558 69.9089 16.0672 69.9089 15.6166C69.9089 15.2787 69.8611 14.9887 69.7653 14.7465C69.6696 14.5043 69.5372 14.2931 69.3683 14.1129ZM76.3883 16.6388C76.2926 16.6557 76.1969 16.6726 76.1011 16.6895C76.0054 16.7064 75.9125 16.7177 75.8223 16.7233C75.7322 16.7289 75.6478 16.7317 75.5689 16.7317C75.2761 16.7317 75.0254 16.681 74.8171 16.5797C74.6087 16.4783 74.4482 16.3291 74.3355 16.1319C74.2229 15.9348 74.1666 15.6955 74.1666 15.4139V10.7338H76.5489L76.7347 9.38219H74.1666V6.71271L72.4433 7.32094V9.38219H71.1423L70.9564 10.7338H72.4433V15.7687C72.4433 16.1517 72.4939 16.4811 72.5953 16.7571C72.6967 17.033 72.829 17.2611 72.9924 17.4413C73.1557 17.6216 73.3472 17.7624 73.5668 17.8637C73.7864 17.9651 74.0202 18.0383 74.268 18.0834C74.5158 18.1284 74.7579 18.151 74.9945 18.151C75.1747 18.151 75.3521 18.1453 75.5267 18.1341C75.7013 18.1228 75.8618 18.1059 76.0082 18.0834C76.1546 18.0608 76.2926 18.0355 76.4221 18.0073C76.5517 17.9792 76.6615 17.9538 76.7516 17.9313L76.853 16.529C76.7967 16.5515 76.7291 16.5712 76.6502 16.5881C76.5714 16.605 76.4841 16.6219 76.3883 16.6388ZM83.0452 5.37796C82.8706 5.34417 82.6932 5.31883 82.513 5.30193C82.3327 5.28504 82.1413 5.27659 81.9385 5.27659C81.5555 5.27659 81.1951 5.33291 80.8572 5.44554C80.5193 5.55818 80.2236 5.73558 79.9702 5.97775C79.7168 6.21992 79.5196 6.52122 79.3788 6.88166C79.2381 7.2421 79.1677 7.67012 79.1677 8.16572V9.38219H77.9005V10.7H79.1677V17.9989H80.891V10.7H83.2564V9.38219H80.891V7.97987C80.891 7.76586 80.922 7.57719 80.9839 7.41387C81.0459 7.25055 81.1332 7.11538 81.2458 7.00838C81.3584 6.90137 81.502 6.82253 81.6766 6.77184C81.8512 6.72115 82.0455 6.69581 82.2595 6.69581C82.3947 6.69581 82.5242 6.70144 82.6481 6.71271C82.772 6.72397 82.8931 6.74086 83.0114 6.76339C83.1296 6.78592 83.2423 6.80845 83.3493 6.83097C83.4563 6.8535 83.5492 6.88166 83.6281 6.91545L83.5605 5.51313C83.3915 5.45681 83.2198 5.41175 83.0452 5.37796ZM92.1941 11.266C92.5433 11.925 92.7178 12.6993 92.7178 13.5892C92.7178 14.5241 92.5292 15.335 92.1518 16.0221C91.7745 16.7092 91.2479 17.2386 90.5721 17.6103C89.8963 17.982 89.1191 18.1678 88.2405 18.1678C87.362 18.1678 86.6524 17.9933 86.0103 17.6441C85.3683 17.2949 84.8755 16.7852 84.532 16.115C84.1884 15.4449 84.0167 14.648 84.0167 13.7243C84.0167 12.8007 84.1997 12.001 84.5658 11.3252C84.9318 10.6494 85.4443 10.1256 86.1033 9.75389C86.7622 9.38219 87.5309 9.19634 88.4095 9.19634C89.2881 9.19634 90.0512 9.37656 90.6988 9.737C91.3465 10.0974 91.8449 10.6071 92.1941 11.266ZM90.9269 13.623C90.9269 13.1612 90.8762 12.7416 90.7749 12.3642C90.6735 11.9869 90.5186 11.6631 90.3102 11.3928C90.1019 11.1224 89.8428 10.9169 89.533 10.7761C89.2233 10.6353 88.8544 10.5649 88.4264 10.5649C87.8857 10.5649 87.4211 10.6775 87.0325 10.9028C86.6439 11.1281 86.3426 11.466 86.1286 11.9165C85.9146 12.3671 85.8076 12.9359 85.8076 13.623C85.8076 14.31 85.9146 14.907 86.1286 15.3801C86.3426 15.8532 86.6355 16.208 87.0072 16.4445C87.3789 16.681 87.8181 16.7993 88.325 16.7993C88.8319 16.7993 89.2824 16.6839 89.6767 16.453C90.0709 16.2221 90.3778 15.8701 90.5975 15.397C90.8171 14.9239 90.9269 14.3326 90.9269 13.623ZM97.4739 16.7571C97.4232 16.7627 97.3641 16.7655 97.2965 16.7655C97.1501 16.7655 97.0262 16.743 96.9248 16.6979C96.8234 16.6529 96.739 16.5825 96.6714 16.4867C96.6038 16.391 96.5559 16.2699 96.5278 16.1235C96.4996 15.9771 96.4855 15.8025 96.4855 15.5997V5.2428L94.7622 5.49623V16.36C94.7622 16.6867 94.8072 16.9655 94.8974 17.1964C94.9875 17.4273 95.117 17.6159 95.2859 17.7624C95.4549 17.9088 95.6548 18.013 95.8857 18.0749C96.1166 18.1369 96.3673 18.1678 96.6376 18.1678C96.7728 18.1678 96.9023 18.1622 97.0262 18.151C97.1501 18.1397 97.2712 18.1228 97.3894 18.1003C97.5077 18.0777 97.6063 18.0552 97.6851 18.0327L97.8541 16.6979L97.6513 16.7317C97.5837 16.743 97.5246 16.7514 97.4739 16.7571ZM105.406 5.49623L107.13 5.25969V17.9989H105.727L105.516 17.2189C105.389 17.3118 105.263 17.3991 105.136 17.4751C104.753 17.7117 104.362 17.8863 103.962 17.9989C103.562 18.1115 103.137 18.1678 102.686 18.1678C101.909 18.1678 101.242 17.9961 100.684 17.6525C100.127 17.309 99.6985 16.8218 99.4 16.1911C99.1015 15.5603 98.9523 14.8113 98.9523 13.944C98.9523 12.9302 99.1494 12.0714 99.5436 11.3674C99.9378 10.6634 100.459 10.1256 101.106 9.75389C101.754 9.38219 102.455 9.19634 103.21 9.19634C103.638 9.19634 104.029 9.23295 104.384 9.30616C104.739 9.37938 105.063 9.4723 105.356 9.58494C105.373 9.59057 105.389 9.59902 105.406 9.60747V5.49623ZM105.406 16.1094V10.9028C105.319 10.8718 105.226 10.8352 105.144 10.8099C104.88 10.7254 104.618 10.6634 104.359 10.624C104.1 10.5846 103.829 10.5649 103.548 10.5649C102.962 10.5649 102.458 10.686 102.036 10.9281C101.613 11.1703 101.289 11.5251 101.064 11.9925C100.839 12.46 100.726 13.0429 100.726 13.7412C100.726 14.4396 100.828 14.9999 101.03 15.4561C101.233 15.9123 101.526 16.2502 101.909 16.4699C102.292 16.6895 102.754 16.7993 103.294 16.7993C103.655 16.7993 104.058 16.7177 104.502 16.5543C104.787 16.4501 105.088 16.2981 105.406 16.1094ZM121.389 11.266C121.739 11.925 121.913 12.6993 121.913 13.5892C121.913 14.5241 121.725 15.335 121.347 16.0221C120.97 16.7092 120.443 17.2386 119.768 17.6103C119.092 17.982 118.315 18.1678 117.436 18.1678C116.557 18.1678 115.848 17.9933 115.206 17.6441C114.564 17.2949 114.071 16.7852 113.727 16.115C113.384 15.4449 113.212 14.648 113.212 13.7243C113.212 12.8007 113.395 12.001 113.761 11.3252C114.127 10.6494 114.64 10.1256 115.299 9.75389C115.958 9.38219 116.726 9.19634 117.605 9.19634C118.483 9.19634 119.247 9.37656 119.894 9.737C120.542 10.0974 121.04 10.6071 121.389 11.266ZM120.122 13.623C120.122 13.1612 120.072 12.7416 119.97 12.3642C119.869 11.9869 119.714 11.6631 119.506 11.3928C119.297 11.1224 119.038 10.9169 118.728 10.7761C118.419 10.6353 118.05 10.5649 117.622 10.5649C117.081 10.5649 116.617 10.6775 116.228 10.9028C115.839 11.1281 115.538 11.466 115.324 11.9165C115.11 12.3671 115.003 12.9359 115.003 13.623C115.003 14.31 115.11 14.907 115.324 15.3801C115.538 15.8532 115.831 16.208 116.203 16.4445C116.574 16.681 117.014 16.7993 117.52 16.7993C118.027 16.7993 118.478 16.6839 118.872 16.453C119.266 16.2221 119.573 15.8701 119.793 15.397C120.013 14.9239 120.122 14.3326 120.122 13.623ZM130.009 9.62155L131.662 9.19634V17.9482C131.662 18.6916 131.496 19.3477 131.164 19.9165C130.831 20.4853 130.338 20.9303 129.685 21.2513C129.032 21.5723 128.227 21.7328 127.269 21.7328C126.886 21.7328 126.514 21.7103 126.154 21.6652C125.794 21.6202 125.447 21.5554 125.115 21.4709C124.783 21.3864 124.464 21.2822 124.16 21.1583L123.975 19.6715C124.324 19.818 124.678 19.9391 125.039 20.0348C125.399 20.1305 125.757 20.1981 126.112 20.2375C126.467 20.277 126.813 20.2967 127.151 20.2967C127.658 20.2967 128.089 20.2432 128.443 20.1362C128.798 20.0292 129.085 19.8658 129.305 19.6462C129.525 19.4266 129.688 19.1562 129.795 18.8352C129.902 18.5142 129.955 18.1397 129.955 17.7117V17.2499C129.637 17.4836 129.316 17.6694 128.992 17.7961C128.395 18.0327 127.793 18.151 127.185 18.151C126.396 18.151 125.726 17.9792 125.174 17.6356C124.622 17.2921 124.203 16.8078 123.915 16.1826C123.628 15.5575 123.485 14.8169 123.485 13.9609C123.485 13.1949 123.597 12.5163 123.822 11.925C124.048 11.3336 124.36 10.838 124.76 10.4382C125.16 10.0383 125.613 9.73137 126.12 9.51736C126.627 9.30335 127.162 9.19634 127.725 9.19634C128.052 9.19634 128.356 9.21605 128.638 9.25548C128.919 9.2949 129.181 9.3484 129.423 9.41598C129.629 9.4723 129.823 9.5427 130.009 9.62155ZM129.955 16.0531V10.9028C129.871 10.8718 129.784 10.838 129.702 10.8099C129.432 10.7254 129.167 10.6606 128.908 10.6156C128.649 10.5705 128.384 10.548 128.114 10.548C127.663 10.548 127.261 10.6184 126.906 10.7592C126.551 10.9 126.253 11.0999 126.01 11.359C125.768 11.618 125.582 11.9475 125.453 12.3474C125.323 12.7472 125.259 13.2062 125.259 13.7243C125.259 14.4227 125.351 14.9943 125.537 15.4392C125.723 15.8841 126.01 16.2164 126.399 16.4361C126.788 16.6557 127.275 16.7655 127.86 16.7655C128.074 16.7655 128.28 16.743 128.477 16.6979C128.674 16.6529 128.877 16.5881 129.085 16.5036C129.294 16.4192 129.511 16.3122 129.736 16.1826C129.806 16.1432 129.882 16.0982 129.955 16.0531ZM146.192 7.4899V6.00309H136.697V7.4899H140.566V17.9989H142.34V7.4899H146.192ZM153.314 12.0179C153.454 12.6261 153.485 13.3245 153.406 14.1129H147.302C147.324 14.5438 147.383 14.9155 147.485 15.228C147.614 15.6223 147.806 15.9348 148.059 16.1657C148.312 16.3966 148.625 16.56 148.997 16.6557C149.368 16.7514 149.808 16.7993 150.315 16.7993C150.562 16.7993 150.81 16.7852 151.058 16.7571C151.306 16.7289 151.548 16.6839 151.784 16.6219C152.021 16.56 152.249 16.4896 152.469 16.4107C152.688 16.3319 152.905 16.253 153.119 16.1742L153.001 17.4751C152.697 17.6328 152.393 17.7624 152.089 17.8637C151.784 17.9651 151.461 18.0411 151.117 18.0918C150.774 18.1425 150.377 18.1678 149.926 18.1678C148.98 18.1678 148.18 18.0017 147.527 17.6694C146.874 17.3372 146.381 16.8472 146.048 16.1995C145.716 15.5519 145.55 14.7662 145.55 13.8426C145.55 13.1443 145.643 12.5107 145.829 11.9419C146.015 11.373 146.285 10.8859 146.64 10.4804C146.995 10.0749 147.425 9.75953 147.932 9.53425C148.439 9.30898 149.014 9.19634 149.656 9.19634C150.298 9.19634 150.869 9.30335 151.371 9.51736C151.872 9.73137 152.286 10.0496 152.612 10.472C152.939 10.8943 153.173 11.4097 153.314 12.0179ZM147.552 11.925C147.448 12.2009 147.38 12.536 147.338 12.9134H151.782C151.782 12.5754 151.742 12.2572 151.658 11.9672C151.528 11.5167 151.3 11.1647 150.973 10.9112C150.647 10.6578 150.213 10.5311 149.673 10.5311C149.132 10.5311 148.715 10.6465 148.355 10.8774C147.994 11.1083 147.727 11.4575 147.552 11.925ZM158.179 16.7571C158.129 16.7627 158.07 16.7655 158.002 16.7655C157.856 16.7655 157.732 16.743 157.63 16.6979C157.529 16.6529 157.444 16.5825 157.377 16.4867C157.309 16.391 157.261 16.2699 157.233 16.1235C157.205 15.9771 157.191 15.8025 157.191 15.5997V5.2428L155.468 5.49623V16.36C155.468 16.6867 155.513 16.9655 155.603 17.1964C155.693 17.4273 155.822 17.6159 155.991 17.7624C156.16 17.9088 156.36 18.013 156.591 18.0749C156.822 18.1369 157.073 18.1678 157.343 18.1678C157.478 18.1678 157.608 18.1622 157.732 18.151C157.856 18.1397 157.977 18.1228 158.095 18.1003C158.213 18.0777 158.312 18.0552 158.391 18.0327L158.56 16.6979L158.357 16.7317C158.289 16.743 158.23 16.7514 158.179 16.7571ZM167.421 12.0179C167.562 12.6261 167.593 13.3245 167.514 14.1129H161.409C161.432 14.5438 161.491 14.9155 161.592 15.228C161.722 15.6223 161.913 15.9348 162.167 16.1657C162.42 16.3966 162.733 16.56 163.104 16.6557C163.476 16.7514 163.915 16.7993 164.422 16.7993C164.67 16.7993 164.918 16.7852 165.166 16.7571C165.414 16.7289 165.656 16.6839 165.892 16.6219C166.129 16.56 166.357 16.4896 166.576 16.4107C166.796 16.3319 167.013 16.253 167.227 16.1742L167.109 17.4751C166.805 17.6328 166.5 17.7624 166.196 17.8637C165.892 17.9651 165.568 18.0411 165.225 18.0918C164.881 18.1425 164.484 18.1678 164.034 18.1678C163.088 18.1678 162.288 18.0017 161.635 17.6694C160.981 17.3372 160.488 16.8472 160.156 16.1995C159.824 15.5519 159.658 14.7662 159.658 13.8426C159.658 13.1443 159.751 12.5107 159.937 11.9419C160.122 11.373 160.393 10.8859 160.748 10.4804C161.102 10.0749 161.533 9.75953 162.04 9.53425C162.547 9.30898 163.121 9.19634 163.763 9.19634C164.405 9.19634 164.977 9.30335 165.478 9.51736C165.979 9.73137 166.393 10.0496 166.72 10.472C167.047 10.8943 167.28 11.4097 167.421 12.0179ZM161.66 11.925C161.556 12.2009 161.488 12.536 161.446 12.9134H165.889C165.889 12.5754 165.85 12.2572 165.765 11.9672C165.636 11.5167 165.408 11.1647 165.081 10.9112C164.755 10.6578 164.321 10.5311 163.78 10.5311C163.24 10.5311 162.823 10.6465 162.462 10.8774C162.102 11.1083 161.834 11.4575 161.66 11.925ZM181.301 9.55115C180.895 9.31461 180.394 9.19634 179.797 9.19634C179.335 9.19634 178.89 9.27237 178.462 9.42443C178.034 9.57649 177.629 9.79332 177.246 10.0749C177.038 10.227 176.838 10.3987 176.646 10.5818C176.449 10.134 176.162 9.79332 175.776 9.56804C175.371 9.33151 174.864 9.21324 174.255 9.21324C173.805 9.21324 173.363 9.28927 172.929 9.44133C172.496 9.59339 172.087 9.8074 171.704 10.0834C171.583 10.1706 171.465 10.2664 171.349 10.3649V9.21324L169.626 9.46667V17.9989H171.349V11.573C171.555 11.4406 171.766 11.3167 171.983 11.2154C172.259 11.0858 172.538 10.9873 172.819 10.9197C173.101 10.8521 173.371 10.8183 173.63 10.8183C173.923 10.8183 174.168 10.8605 174.365 10.945C174.562 11.0295 174.729 11.1534 174.864 11.3167C174.999 11.48 175.097 11.6941 175.159 11.9588C175.221 12.2235 175.252 12.5304 175.252 12.8796V17.9989H176.976V12.5248C176.976 12.1728 176.953 11.8518 176.911 11.5589C177.111 11.4294 177.311 11.3111 177.516 11.2069C177.787 11.0717 178.063 10.9704 178.344 10.9028C178.626 10.8352 178.902 10.8014 179.172 10.8014C179.442 10.8014 179.696 10.8437 179.899 10.9281C180.101 11.0126 180.27 11.1365 180.405 11.2998C180.541 11.4632 180.639 11.6772 180.701 11.9419C180.763 12.2066 180.794 12.5135 180.794 12.8627V17.9989H182.517V12.5079C182.517 11.7419 182.416 11.1168 182.213 10.6325C182.01 10.1481 181.706 9.78768 181.301 9.55115ZM192.621 16.9176C192.711 16.9063 192.807 16.8838 192.908 16.85L192.722 17.982C192.666 18.0045 192.601 18.0242 192.528 18.0411C192.455 18.058 192.373 18.0777 192.283 18.1003C192.193 18.1228 192.1 18.1369 192.004 18.1425C191.908 18.1481 191.81 18.151 191.709 18.151C191.348 18.151 191.027 18.0918 190.745 17.9735C190.464 17.8553 190.244 17.6638 190.087 17.3991C190.002 17.2583 189.943 17.0922 189.904 16.9007C189.797 17.0246 189.687 17.1457 189.571 17.2555C189.261 17.5483 188.907 17.7736 188.507 17.9313C188.107 18.089 187.631 18.1678 187.079 18.1678C186.482 18.1678 185.984 18.0552 185.584 17.8299C185.184 17.6047 184.886 17.309 184.688 16.9429C184.491 16.5769 184.393 16.1798 184.393 15.7518C184.393 15.3012 184.519 14.8873 184.773 14.51C185.026 14.1326 185.412 13.8201 185.93 13.5723C186.448 13.3245 187.102 13.178 187.89 13.133L189.864 13.0006V12.5783C189.864 12.2516 189.833 11.9672 189.766 11.725C189.698 11.4829 189.585 11.2829 189.428 11.1252C189.27 10.9676 189.053 10.8493 188.777 10.7704C188.501 10.6916 188.16 10.6522 187.755 10.6522C187.53 10.6522 187.302 10.6606 187.071 10.6775C186.84 10.6944 186.606 10.7254 186.37 10.7704C186.133 10.8155 185.888 10.8718 185.635 10.9394C185.381 11.007 185.114 11.0915 184.832 11.1928L185.035 9.75671C185.316 9.64407 185.612 9.54552 185.922 9.46104C186.232 9.37656 186.561 9.3118 186.91 9.26674C187.259 9.22169 187.614 9.19916 187.975 9.19916C188.47 9.19916 188.915 9.24421 189.309 9.33432C189.704 9.42443 190.044 9.55396 190.332 9.72292C190.619 9.89187 190.852 10.1003 191.033 10.3481C191.213 10.5959 191.348 10.8831 191.438 11.2097C191.528 11.5364 191.573 11.8968 191.573 12.291L191.54 15.7715C191.528 16.1883 191.59 16.4867 191.725 16.667C191.861 16.8472 192.08 16.9373 192.384 16.9373C192.452 16.9373 192.531 16.9317 192.621 16.9204V16.9176ZM189.853 15.9067L189.861 14.2312H188.383C187.831 14.2312 187.392 14.2763 187.065 14.3664C186.738 14.4565 186.502 14.5973 186.355 14.7888C186.209 14.9802 186.136 15.2449 186.136 15.5828C186.136 15.8419 186.192 16.0644 186.305 16.2502C186.417 16.4361 186.584 16.5797 186.803 16.681C187.023 16.7824 187.29 16.8331 187.606 16.8331C187.854 16.8331 188.093 16.8106 188.324 16.7655C188.555 16.7205 188.774 16.6473 188.983 16.5459C189.191 16.4445 189.388 16.3206 189.574 16.1742C189.673 16.0953 189.766 16.0052 189.856 15.9095L189.853 15.9067ZM198.044 9.32024C197.729 9.40472 197.43 9.53425 197.149 9.70884C196.867 9.88343 196.603 10.0946 196.355 10.3424C196.315 10.3818 196.276 10.4269 196.237 10.4691V9.21042L194.513 9.46385V17.9961H196.237V11.6124C196.366 11.5223 196.498 11.4378 196.634 11.3646C196.808 11.2689 196.983 11.1872 197.157 11.1196C197.332 11.052 197.509 10.9929 197.69 10.9422C197.87 10.8915 198.058 10.8549 198.256 10.8324C198.453 10.8099 198.658 10.8042 198.872 10.8155L199.075 9.22732C198.703 9.20479 198.36 9.23577 198.044 9.32024ZM205.85 17.9961H208.08L203.983 13.378L207.996 9.37938H205.884L202.992 12.5557H202.37V5.2428L200.646 5.49623V17.9989H202.37V13.8595H202.398L205.85 17.9989V17.9961Z" fill="#D4EEFC"/>
</g>
<defs>
<clipPath id="clip0_5918_1267">
<rect width="166" height="17" fill="white" transform="translate(43 5)"/>
</clipPath>
</defs>
</svg>
