<svg xmlns="http://www.w3.org/2000/svg" viewBox="0 0 68 60" fill="currentColor"><path d="M0 17.997V6h4v11.998H0ZM9.244 7.908l2.264 10.09H7.2l-2.704-12h2.417a2.276 2.276 0 0 1 1.513.55c.42.346.66.826.819 1.36ZM12 17.998v-12h4v12h-4Zm7.01-7.436a2.382 2.382 0 0 1-2.4-2.4 2.301 2.301 0 0 1 .322-1.2A2.41 2.41 0 0 1 20.21 6.1c.356.21.653.506.862.862.215.363.326.778.321 1.2a2.35 2.35 0 0 1-.321 1.208 2.4 2.4 0 0 1-.862.87 2.3 2.3 0 0 1-1.2.322ZM22 17.997V6h4v11.998h-4Zm8.974-5.441c.01.011.095.15.253.414s.364.602.617 1.014a315.936 315.936 0 0 1 1.597 2.62c.247.41.529.876.845 1.393H29.96c-.27-.439-.516-.836-.736-1.19-.22-.356-.453-.739-.7-1.15-.248-.411-.493-.81-.736-1.2-.242-.39-.45-.73-.625-1.022-.175-.293-.296-.49-.363-.592a1.747 1.747 0 0 1-.287-.845c.016-.29.11-.57.27-.811.067-.113.191-.313.371-.6a182.106 182.106 0 0 0 1.37-2.23l.7-1.159.736-1.2h4.326l-3.346 5.459a1.08 1.08 0 0 0-.17.541c.012.202.083.396.204.558Z"/><g clip-path="url(#a)"><path d="M10.898 26.38c-.08.209-.158.414-.237.616L7.56 34.97H6.008l-3.12-8.009a21.07 21.07 0 0 0-.244-.632c-.081-.202-.16-.407-.239-.615-.016.221-.033.438-.047.649-.017.219-.037.44-.06.666l-.64 7.94H.056L1.17 23h1.956l3.304 8.48c.08.17.152.34.22.515.067.174.135.351.202.531.02.056.042.11.062.163.03-.073.059-.152.09-.222.067-.163.132-.331.194-.506.061-.174.126-.35.194-.53L10.66 23h1.923l1.011 11.97h-1.753l-.607-7.957c-.012-.225-.028-.45-.05-.675-.02-.194-.037-.385-.052-.573-.078.202-.157.408-.235.616Zm11.052 8.203c-.67.371-1.442.556-2.319.556s-1.599-.174-2.234-.522a3.611 3.611 0 0 1-.407-.264l-.9.972-.775-.708.938-1a3.972 3.972 0 0 1-.331-.526c-.349-.669-.523-1.464-.523-2.386 0-.921.183-1.72.548-2.394a3.888 3.888 0 0 1 1.535-1.568c.657-.37 1.424-.556 2.3-.556.878 0 1.653.18 2.294.54.138.075.264.162.388.255l.944-.998.792.708-.975 1.035c.124.163.242.337.343.525.354.658.531 1.43.531 2.318 0 .933-.19 1.743-.573 2.428a3.998 3.998 0 0 1-1.576 1.585Zm-4.747-3.979c0 .689.102 1.265.307 1.734l3.922-4.238a1.934 1.934 0 0 0-.52-.34c-.314-.14-.685-.21-1.112-.21-.529 0-.986.112-1.374.337-.388.224-.689.562-.902 1.011-.214.45-.32 1.018-.32 1.703v.003Zm4.772 1.77c.225-.472.337-1.062.337-1.77 0-.46-.053-.88-.16-1.256a3.38 3.38 0 0 0-.15-.413l-3.925 4.238c.099.092.2.176.312.247.377.236.818.354 1.324.354.505 0 .952-.115 1.34-.346.388-.23.694-.581.919-1.054h.003Zm6.002-3.774a4.228 4.228 0 0 1 .919-.491c.174-.068.351-.127.531-.177a3.59 3.59 0 0 1 1.18-.127l.203-1.585a3.21 3.21 0 0 0-1.029.093 3.314 3.314 0 0 0-.893.388 4.397 4.397 0 0 0-.793.632c-.04.04-.078.084-.118.127v-1.257l-1.72.253v8.515h1.72V28.6Zm9.13 6.464c-.343.05-.739.075-1.189.075-.944 0-1.742-.165-2.394-.497a3.297 3.297 0 0 1-1.475-1.467c-.332-.646-.497-1.43-.497-2.352 0-.697.092-1.329.278-1.896a4.134 4.134 0 0 1 .81-1.459c.353-.405.783-.72 1.289-.944.506-.225 1.079-.337 1.72-.337.64 0 1.21.106 1.711.32.5.213.913.531 1.24.953.325.421.558.935.699 1.542.14.607.171 1.304.093 2.091h-6.093c.023.43.082.804.183 1.113.13.393.32.705.573.936.253.23.565.393.936.488.371.096.81.144 1.315.144.248 0 .495-.014.742-.042.247-.028.489-.073.725-.135.236-.062.464-.132.683-.211.22-.079.435-.157.649-.236l-.118 1.298a6.325 6.325 0 0 1-.91.388 5.685 5.685 0 0 1-.97.228ZM33.55 28.91c-.104.275-.172.61-.214.986h4.434c0-.337-.04-.655-.123-.944-.13-.45-.357-.801-.683-1.054-.326-.253-.759-.38-1.298-.38-.54 0-.956.116-1.316.346-.36.23-.626.58-.8 1.046Zm19.55-.658c.348.658.522 1.43.522 2.318 0 .933-.188 1.743-.565 2.428a3.927 3.927 0 0 1-1.576 1.585c-.675.371-1.45.556-2.327.556s-1.585-.174-2.226-.522a3.52 3.52 0 0 1-1.475-1.526c-.343-.669-.514-1.464-.514-2.386 0-.921.182-1.72.548-2.394a3.889 3.889 0 0 1 1.534-1.568c.658-.37 1.425-.556 2.301-.556.877 0 1.639.18 2.285.54.646.359 1.144.867 1.492 1.525Zm-1.265 2.352c0-.46-.05-.88-.152-1.256a2.726 2.726 0 0 0-.464-.97 2.022 2.022 0 0 0-.775-.615c-.31-.14-.678-.21-1.105-.21-.54 0-1.003.112-1.39.337-.388.224-.69.562-.903 1.011-.213.45-.32 1.017-.32 1.703 0 .686.107 1.282.32 1.754.214.472.506.826.877 1.062.371.236.81.354 1.315.354.506 0 .956-.115 1.349-.346.393-.23.7-.581.919-1.054.22-.472.329-1.062.329-1.77Zm9.866-3.993 1.65-.424v8.733c0 .742-.166 1.397-.498 1.965-.332.567-.823 1.011-1.475 1.332-.652.32-1.456.48-2.411.48-.383 0-.753-.022-1.113-.067a8.476 8.476 0 0 1-1.037-.194 7.26 7.26 0 0 1-.953-.312l-.185-1.484c.348.146.702.267 1.062.363.36.095.717.163 1.07.202.355.04.7.059 1.038.059.506 0 .935-.053 1.29-.16.353-.107.64-.27.86-.49.218-.218.381-.488.488-.808.107-.32.16-.695.16-1.122v-.46a4.264 4.264 0 0 1-.96.545 4.86 4.86 0 0 1-1.805.354c-.786 0-1.455-.172-2.006-.515a3.268 3.268 0 0 1-1.256-1.45c-.287-.623-.43-1.363-.43-2.217 0-.764.112-1.441.337-2.031.225-.59.537-1.085.936-1.484.399-.4.851-.705 1.357-.919a4.075 4.075 0 0 1 1.602-.32c.326 0 .63.02.91.059.281.039.543.092.784.16.206.056.4.126.585.205Zm-.053 6.418v-5.14c-.085-.03-.172-.064-.253-.092a6.253 6.253 0 0 0-.793-.194 4.612 4.612 0 0 0-.792-.068c-.45 0-.852.07-1.206.211-.354.14-.652.34-.893.599a2.586 2.586 0 0 0-.557.986c-.13.4-.194.857-.194 1.374 0 .697.093 1.268.279 1.712.185.444.472.775.86.994.387.22.873.33 1.458.33.213 0 .418-.023.615-.068.197-.045.4-.11.607-.194.208-.084.424-.191.65-.32.07-.04.145-.085.218-.13ZM6.575 47.684l2.798 4.147H7.317l-2.984-4.586h-2.58v4.586H0v-11.97h4.839c.978 0 1.756.16 2.335.48.579.32.995.75 1.248 1.29s.38 1.135.38 1.787c0 .584-.096 1.099-.287 1.543a3.09 3.09 0 0 1-.793 1.113 3.29 3.29 0 0 1-1.189.666c-.21.067-.432.118-.663.154l.703.79h.003Zm-2.108-6.357H1.753v4.468h2.513c.562 0 1.048-.076 1.458-.227a1.84 1.84 0 0 0 .944-.742c.22-.343.33-.79.33-1.34 0-.495-.09-.903-.27-1.223a1.61 1.61 0 0 0-.827-.708c-.37-.152-.848-.228-1.433-.228Zm14.028 3.785c.348.658.523 1.43.523 2.319 0 .933-.189 1.742-.565 2.428a3.927 3.927 0 0 1-1.577 1.585c-.674.37-1.45.556-2.326.556-.877 0-1.585-.174-2.226-.523a3.519 3.519 0 0 1-1.475-1.525c-.343-.67-.514-1.465-.514-2.386 0-.922.182-1.72.547-2.395a3.888 3.888 0 0 1 1.535-1.568c.657-.37 1.424-.556 2.301-.556.877 0 1.639.18 2.285.54.646.36 1.143.868 1.492 1.525Zm-1.265 2.352c0-.46-.05-.879-.151-1.256a2.728 2.728 0 0 0-.464-.969 2.023 2.023 0 0 0-.776-.615c-.309-.141-.677-.211-1.104-.211-.54 0-1.003.112-1.39.337-.389.225-.69.562-.903 1.012-.213.45-.32 1.017-.32 1.703 0 .685.107 1.28.32 1.753.214.472.506.826.877 1.062.37.236.81.354 1.315.354.506 0 .955-.115 1.349-.345.393-.23.7-.582.919-1.054.219-.472.328-1.062.328-1.77Zm15.529-4.063c-.405-.236-.905-.354-1.5-.354-.462 0-.905.076-1.333.228a4.698 4.698 0 0 0-1.214.649 5.94 5.94 0 0 0-.598.506c-.197-.447-.483-.787-.868-1.012-.405-.236-.911-.354-1.518-.354-.45 0-.89.076-1.323.228a4.798 4.798 0 0 0-1.577.921v-1.149l-1.72.253v8.514h1.72V45.42c.205-.132.416-.256.632-.357.276-.13.554-.228.835-.295.28-.068.55-.101.81-.101.291 0 .536.042.733.126a1.3 1.3 0 0 1 .497.371c.135.163.233.377.295.64.062.265.093.571.093.92v5.108h1.72V46.37c0-.352-.023-.672-.065-.964.2-.13.399-.248.604-.352.27-.134.545-.236.826-.303.281-.067.557-.101.826-.101.27 0 .523.042.725.126.203.085.371.208.506.371s.233.377.295.64c.062.265.093.571.093.92v5.125h1.72v-5.48c0-.764-.101-1.387-.304-1.87-.202-.484-.506-.844-.91-1.08Zm9.088 4.552a2.533 2.533 0 0 0-.59-.463 4.521 4.521 0 0 0-.709-.329 14.75 14.75 0 0 1-.53-.177 9.408 9.408 0 0 0-.523-.169 10.76 10.76 0 0 1-.506-.16 3.694 3.694 0 0 1-.447-.185 3 3 0 0 1-.396-.253 1.11 1.11 0 0 1-.287-.32.812.812 0 0 1-.11-.422c0-.18.04-.334.119-.464a.958.958 0 0 1 .354-.328c.157-.09.345-.158.565-.203.219-.045.469-.067.75-.067a5.273 5.273 0 0 1 .885.076c.174.028.348.064.523.11.174.044.35.095.53.151.18.056.344.118.49.185l.118-1.365a7.942 7.942 0 0 0-.633-.236 6.187 6.187 0 0 0-.632-.169 5.048 5.048 0 0 0-.632-.093 7.595 7.595 0 0 0-.615-.025c-.506 0-.967.053-1.383.16a3.482 3.482 0 0 0-1.087.472c-.31.208-.548.472-.717.793-.169.32-.253.7-.253 1.138 0 .315.045.593.135.834.09.242.208.447.354.616.146.168.317.317.514.447.197.129.408.239.632.329a15.814 15.814 0 0 0 .784.26 31.615 31.615 0 0 1 .742.237c.118.04.234.076.346.11.157.056.303.12.438.193.135.073.25.152.346.236a.863.863 0 0 1 .295.666c0 .281-.093.503-.278.666a1.618 1.618 0 0 1-.725.346 4.308 4.308 0 0 1-.953.101c-.18 0-.38-.014-.598-.042a8.91 8.91 0 0 1-.692-.118c-.241-.05-.489-.112-.742-.185a14.907 14.907 0 0 1-.767-.245l.068 1.433c.292.101.559.183.8.245.242.062.473.115.692.16.22.045.433.073.64.084.209.011.42.017.633.017.495 0 .961-.048 1.4-.143a3.62 3.62 0 0 0 1.146-.447c.326-.202.581-.467.767-.793.185-.325.278-.713.278-1.163 0-.337-.048-.627-.143-.868a1.975 1.975 0 0 0-.396-.633Zm8.48-8.598 1.72-.236V51.83h-1.4l-.21-.778a5.01 5.01 0 0 1-.38.256c-.381.236-.772.41-1.171.522a4.675 4.675 0 0 1-1.273.169c-.776 0-1.442-.171-1.998-.514a3.348 3.348 0 0 1-1.281-1.459c-.298-.63-.447-1.377-.447-2.242 0-1.012.197-1.869.59-2.571.393-.703.913-1.24 1.56-1.61a4.146 4.146 0 0 1 2.099-.557 5.805 5.805 0 0 1 2.14.388.386.386 0 0 1 .051.022v-4.102Zm0 10.59V44.75a5.099 5.099 0 0 0-1.855-.337c-.584 0-1.087.12-1.508.362a2.378 2.378 0 0 0-.97 1.063c-.224.466-.337 1.048-.337 1.745 0 .697.101 1.256.304 1.71.202.456.494.793.876 1.013.383.219.843.328 1.383.328.36 0 .762-.081 1.206-.244.283-.104.584-.256.901-.444Zm11.887.807c.09-.01.186-.033.287-.067l-.186 1.13c-.056.022-.12.042-.194.059-.073.016-.154.036-.244.059-.09.022-.183.036-.278.042a5.043 5.043 0 0 1-.295.008c-.36 0-.68-.059-.961-.177-.281-.118-.5-.309-.658-.573a1.577 1.577 0 0 1-.183-.497 4.997 4.997 0 0 1-.331.354c-.31.292-.663.517-1.062.674-.4.157-.874.236-1.425.236-.596 0-1.093-.112-1.492-.337a2.221 2.221 0 0 1-.894-.885 2.468 2.468 0 0 1-.295-1.189c0-.45.127-.863.38-1.24.252-.376.637-.688 1.154-.935.517-.247 1.17-.394 1.956-.438l1.97-.133v-.421c0-.326-.03-.61-.098-.851a1.335 1.335 0 0 0-.337-.599c-.158-.157-.374-.275-.65-.354a3.767 3.767 0 0 0-1.02-.118c-.224 0-.452.008-.683.025-.23.017-.463.048-.7.093a9.978 9.978 0 0 0-1.534.422l.203-1.434c.28-.112.576-.21.885-.295.31-.084.638-.149.986-.194a8.303 8.303 0 0 1 1.063-.067 6 6 0 0 1 1.331.135c.394.09.734.219 1.02.388.287.168.52.376.7.623.18.248.315.534.405.86.09.326.135.686.135 1.08l-.034 3.473c-.011.416.05.713.185.893.135.18.355.27.658.27.068 0 .146-.006.236-.017v-.003Zm-2.762-1.009.008-1.674h-1.475c-.55 0-.99.045-1.315.135-.326.09-.562.23-.708.421-.146.191-.22.455-.22.792 0 .26.057.481.17.666.112.186.277.33.497.43.219.102.486.152.8.152.248 0 .486-.022.717-.067.23-.045.45-.118.657-.22a2.737 2.737 0 0 0 .871-.635h-.002Zm7.483.821c-.067.011-.126.02-.177.025-.05.006-.11.009-.177.009a.91.91 0 0 1-.37-.068.609.609 0 0 1-.254-.21.926.926 0 0 1-.143-.363 2.808 2.808 0 0 1-.042-.523V39.1l-1.72.253v10.841c0 .326.045.604.135.835.09.23.219.418.388.565.168.146.368.25.598.311.23.062.48.093.75.093a4.263 4.263 0 0 0 .75-.067c.119-.023.217-.045.296-.068l.168-1.332-.202.034Z"/></g><g clip-path="url(#b)"><path d="M10.898 26.38c-.08.209-.158.414-.237.616L7.56 34.97H6.008l-3.12-8.009a21.07 21.07 0 0 0-.244-.632c-.081-.202-.16-.407-.239-.615-.016.221-.033.438-.047.649-.017.219-.037.44-.06.666l-.64 7.94H.056L1.17 23h1.956l3.304 8.48c.08.17.152.34.22.515.067.174.135.351.202.531.02.056.042.11.062.163.03-.073.059-.152.09-.222.067-.163.132-.331.194-.506.061-.174.126-.35.194-.53L10.66 23h1.923l1.011 11.97h-1.753l-.607-7.957c-.012-.225-.028-.45-.05-.675-.02-.194-.037-.385-.052-.573-.078.202-.157.408-.235.616Zm11.052 8.203c-.67.371-1.442.556-2.319.556s-1.599-.174-2.234-.522a3.611 3.611 0 0 1-.407-.264l-.9.972-.775-.708.938-1a3.972 3.972 0 0 1-.331-.526c-.349-.669-.523-1.464-.523-2.386 0-.921.183-1.72.548-2.394a3.888 3.888 0 0 1 1.535-1.568c.657-.37 1.424-.556 2.3-.556.878 0 1.653.18 2.294.54.138.075.264.162.388.255l.944-.998.792.708-.975 1.035c.124.163.242.337.343.525.354.658.531 1.43.531 2.318 0 .933-.19 1.743-.573 2.428a3.998 3.998 0 0 1-1.576 1.585Zm-4.747-3.979c0 .689.102 1.265.307 1.734l3.922-4.238a1.934 1.934 0 0 0-.52-.34c-.314-.14-.685-.21-1.112-.21-.529 0-.986.112-1.374.337-.388.224-.689.562-.902 1.011-.214.45-.32 1.018-.32 1.703v.003Zm4.772 1.77c.225-.472.337-1.062.337-1.77 0-.46-.053-.88-.16-1.256a3.38 3.38 0 0 0-.15-.413l-3.925 4.238c.099.092.2.176.312.247.377.236.818.354 1.324.354.505 0 .952-.115 1.34-.346.388-.23.694-.581.919-1.054h.003Zm6.002-3.774a4.228 4.228 0 0 1 .919-.491c.174-.068.351-.127.531-.177a3.59 3.59 0 0 1 1.18-.127l.203-1.585a3.21 3.21 0 0 0-1.029.093 3.314 3.314 0 0 0-.893.388 4.397 4.397 0 0 0-.793.632c-.04.04-.078.084-.118.127v-1.257l-1.72.253v8.515h1.72V28.6Zm9.13 6.464c-.343.05-.739.075-1.189.075-.944 0-1.742-.165-2.394-.497a3.297 3.297 0 0 1-1.475-1.467c-.332-.646-.497-1.43-.497-2.352 0-.697.092-1.329.278-1.896a4.134 4.134 0 0 1 .81-1.459c.353-.405.783-.72 1.289-.944.506-.225 1.079-.337 1.72-.337.64 0 1.21.106 1.711.32.5.213.913.531 1.24.953.325.421.558.935.699 1.542.14.607.171 1.304.093 2.091h-6.093c.023.43.082.804.183 1.113.13.393.32.705.573.936.253.23.565.393.936.488.371.096.81.144 1.315.144.248 0 .495-.014.742-.042.247-.028.489-.073.725-.135.236-.062.464-.132.683-.211.22-.079.435-.157.649-.236l-.118 1.298a6.325 6.325 0 0 1-.91.388 5.685 5.685 0 0 1-.97.228ZM33.55 28.91c-.104.275-.172.61-.214.986h4.434c0-.337-.04-.655-.123-.944-.13-.45-.357-.801-.683-1.054-.326-.253-.759-.38-1.298-.38-.54 0-.956.116-1.316.346-.36.23-.626.58-.8 1.046Zm19.55-.658c.348.658.522 1.43.522 2.318 0 .933-.188 1.743-.565 2.428a3.927 3.927 0 0 1-1.576 1.585c-.675.371-1.45.556-2.327.556s-1.585-.174-2.226-.522a3.52 3.52 0 0 1-1.475-1.526c-.343-.669-.514-1.464-.514-2.386 0-.921.182-1.72.548-2.394a3.889 3.889 0 0 1 1.534-1.568c.658-.37 1.425-.556 2.301-.556.877 0 1.639.18 2.285.54.646.359 1.144.867 1.492 1.525Zm-1.265 2.352c0-.46-.05-.88-.152-1.256a2.726 2.726 0 0 0-.464-.97 2.022 2.022 0 0 0-.775-.615c-.31-.14-.678-.21-1.105-.21-.54 0-1.003.112-1.39.337-.388.224-.69.562-.903 1.011-.213.45-.32 1.017-.32 1.703 0 .686.107 1.282.32 1.754.214.472.506.826.877 1.062.371.236.81.354 1.315.354.506 0 .956-.115 1.349-.346.393-.23.7-.581.919-1.054.22-.472.329-1.062.329-1.77Zm9.866-3.993 1.65-.424v8.733c0 .742-.166 1.397-.498 1.965-.332.567-.823 1.011-1.475 1.332-.652.32-1.456.48-2.411.48-.383 0-.753-.022-1.113-.067a8.476 8.476 0 0 1-1.037-.194 7.26 7.26 0 0 1-.953-.312l-.185-1.484c.348.146.702.267 1.062.363.36.095.717.163 1.07.202.355.04.7.059 1.038.059.506 0 .935-.053 1.29-.16.353-.107.64-.27.86-.49.218-.218.381-.488.488-.808.107-.32.16-.695.16-1.122v-.46a4.264 4.264 0 0 1-.96.545 4.86 4.86 0 0 1-1.805.354c-.786 0-1.455-.172-2.006-.515a3.268 3.268 0 0 1-1.256-1.45c-.287-.623-.43-1.363-.43-2.217 0-.764.112-1.441.337-2.031.225-.59.537-1.085.936-1.484.399-.4.851-.705 1.357-.919a4.075 4.075 0 0 1 1.602-.32c.326 0 .63.02.91.059.281.039.543.092.784.16.206.056.4.126.585.205Zm-.053 6.418v-5.14c-.085-.03-.172-.064-.253-.092a6.253 6.253 0 0 0-.793-.194 4.612 4.612 0 0 0-.792-.068c-.45 0-.852.07-1.206.211-.354.14-.652.34-.893.599a2.586 2.586 0 0 0-.557.986c-.13.4-.194.857-.194 1.374 0 .697.093 1.268.279 1.712.185.444.472.775.86.994.387.22.873.33 1.458.33.213 0 .418-.023.615-.068.197-.045.4-.11.607-.194.208-.084.424-.191.65-.32.07-.04.145-.085.218-.13ZM6.575 47.684l2.798 4.147H7.317l-2.984-4.586h-2.58v4.586H0v-11.97h4.839c.978 0 1.756.16 2.335.48.579.32.995.75 1.248 1.29s.38 1.135.38 1.787c0 .584-.096 1.099-.287 1.543a3.09 3.09 0 0 1-.793 1.113 3.29 3.29 0 0 1-1.189.666c-.21.067-.432.118-.663.154l.703.79h.003Zm-2.108-6.357H1.753v4.468h2.513c.562 0 1.048-.076 1.458-.227a1.84 1.84 0 0 0 .944-.742c.22-.343.33-.79.33-1.34 0-.495-.09-.903-.27-1.223a1.61 1.61 0 0 0-.827-.708c-.37-.152-.848-.228-1.433-.228Zm14.028 3.785c.348.658.523 1.43.523 2.319 0 .933-.189 1.742-.565 2.428a3.927 3.927 0 0 1-1.577 1.585c-.674.37-1.45.556-2.326.556-.877 0-1.585-.174-2.226-.523a3.519 3.519 0 0 1-1.475-1.525c-.343-.67-.514-1.465-.514-2.386 0-.922.182-1.72.547-2.395a3.888 3.888 0 0 1 1.535-1.568c.657-.37 1.424-.556 2.301-.556.877 0 1.639.18 2.285.54.646.36 1.143.868 1.492 1.525Zm-1.265 2.352c0-.46-.05-.879-.151-1.256a2.728 2.728 0 0 0-.464-.969 2.023 2.023 0 0 0-.776-.615c-.309-.141-.677-.211-1.104-.211-.54 0-1.003.112-1.39.337-.389.225-.69.562-.903 1.012-.213.45-.32 1.017-.32 1.703 0 .685.107 1.28.32 1.753.214.472.506.826.877 1.062.37.236.81.354 1.315.354.506 0 .955-.115 1.349-.345.393-.23.7-.582.919-1.054.219-.472.328-1.062.328-1.77Zm15.529-4.063c-.405-.236-.905-.354-1.5-.354-.462 0-.905.076-1.333.228a4.698 4.698 0 0 0-1.214.649 5.94 5.94 0 0 0-.598.506c-.197-.447-.483-.787-.868-1.012-.405-.236-.911-.354-1.518-.354-.45 0-.89.076-1.323.228a4.798 4.798 0 0 0-1.577.921v-1.149l-1.72.253v8.514h1.72V45.42c.205-.132.416-.256.632-.357.276-.13.554-.228.835-.295.28-.068.55-.101.81-.101.291 0 .536.042.733.126a1.3 1.3 0 0 1 .497.371c.135.163.233.377.295.64.062.265.093.571.093.92v5.108h1.72V46.37c0-.352-.023-.672-.065-.964.2-.13.399-.248.604-.352.27-.134.545-.236.826-.303.281-.067.557-.101.826-.101.27 0 .523.042.725.126.203.085.371.208.506.371s.233.377.295.64c.062.265.093.571.093.92v5.125h1.72v-5.48c0-.764-.101-1.387-.304-1.87-.202-.484-.506-.844-.91-1.08Zm9.088 4.552a2.533 2.533 0 0 0-.59-.463 4.521 4.521 0 0 0-.709-.329 14.75 14.75 0 0 1-.53-.177 9.408 9.408 0 0 0-.523-.169 10.76 10.76 0 0 1-.506-.16 3.694 3.694 0 0 1-.447-.185 3 3 0 0 1-.396-.253 1.11 1.11 0 0 1-.287-.32.812.812 0 0 1-.11-.422c0-.18.04-.334.119-.464a.958.958 0 0 1 .354-.328c.157-.09.345-.158.565-.203.219-.045.469-.067.75-.067a5.273 5.273 0 0 1 .885.076c.174.028.348.064.523.11.174.044.35.095.53.151.18.056.344.118.49.185l.118-1.365a7.942 7.942 0 0 0-.633-.236 6.187 6.187 0 0 0-.632-.169 5.048 5.048 0 0 0-.632-.093 7.595 7.595 0 0 0-.615-.025c-.506 0-.967.053-1.383.16a3.482 3.482 0 0 0-1.087.472c-.31.208-.548.472-.717.793-.169.32-.253.7-.253 1.138 0 .315.045.593.135.834.09.242.208.447.354.616.146.168.317.317.514.447.197.129.408.239.632.329a15.814 15.814 0 0 0 .784.26 31.615 31.615 0 0 1 .742.237c.118.04.234.076.346.11.157.056.303.12.438.193.135.073.25.152.346.236a.863.863 0 0 1 .295.666c0 .281-.093.503-.278.666a1.618 1.618 0 0 1-.725.346 4.308 4.308 0 0 1-.953.101c-.18 0-.38-.014-.598-.042a8.91 8.91 0 0 1-.692-.118c-.241-.05-.489-.112-.742-.185a14.907 14.907 0 0 1-.767-.245l.068 1.433c.292.101.559.183.8.245.242.062.473.115.692.16.22.045.433.073.64.084.209.011.42.017.633.017.495 0 .961-.048 1.4-.143a3.62 3.62 0 0 0 1.146-.447c.326-.202.581-.467.767-.793.185-.325.278-.713.278-1.163 0-.337-.048-.627-.143-.868a1.975 1.975 0 0 0-.396-.633Zm8.48-8.598 1.72-.236V51.83h-1.4l-.21-.778a5.01 5.01 0 0 1-.38.256c-.381.236-.772.41-1.171.522a4.675 4.675 0 0 1-1.273.169c-.776 0-1.442-.171-1.998-.514a3.348 3.348 0 0 1-1.281-1.459c-.298-.63-.447-1.377-.447-2.242 0-1.012.197-1.869.59-2.571.393-.703.913-1.24 1.56-1.61a4.146 4.146 0 0 1 2.099-.557 5.805 5.805 0 0 1 2.14.388.386.386 0 0 1 .051.022v-4.102Zm0 10.59V44.75a5.099 5.099 0 0 0-1.855-.337c-.584 0-1.087.12-1.508.362a2.378 2.378 0 0 0-.97 1.063c-.224.466-.337 1.048-.337 1.745 0 .697.101 1.256.304 1.71.202.456.494.793.876 1.013.383.219.843.328 1.383.328.36 0 .762-.081 1.206-.244.283-.104.584-.256.901-.444Zm11.887.807c.09-.01.186-.033.287-.067l-.186 1.13c-.056.022-.12.042-.194.059-.073.016-.154.036-.244.059-.09.022-.183.036-.278.042a5.043 5.043 0 0 1-.295.008c-.36 0-.68-.059-.961-.177-.281-.118-.5-.309-.658-.573a1.577 1.577 0 0 1-.183-.497 4.997 4.997 0 0 1-.331.354c-.31.292-.663.517-1.062.674-.4.157-.874.236-1.425.236-.596 0-1.093-.112-1.492-.337a2.221 2.221 0 0 1-.894-.885 2.468 2.468 0 0 1-.295-1.189c0-.45.127-.863.38-1.24.252-.376.637-.688 1.154-.935.517-.247 1.17-.394 1.956-.438l1.97-.133v-.421c0-.326-.03-.61-.098-.851a1.335 1.335 0 0 0-.337-.599c-.158-.157-.374-.275-.65-.354a3.767 3.767 0 0 0-1.02-.118c-.224 0-.452.008-.683.025-.23.017-.463.048-.7.093a9.978 9.978 0 0 0-1.534.422l.203-1.434c.28-.112.576-.21.885-.295.31-.084.638-.149.986-.194a8.303 8.303 0 0 1 1.063-.067 6 6 0 0 1 1.331.135c.394.09.734.219 1.02.388.287.168.52.376.7.623.18.248.315.534.405.86.09.326.135.686.135 1.08l-.034 3.473c-.011.416.05.713.185.893.135.18.355.27.658.27.068 0 .146-.006.236-.017v-.003Zm-2.762-1.009.008-1.674h-1.475c-.55 0-.99.045-1.315.135-.326.09-.562.23-.708.421-.146.191-.22.455-.22.792 0 .26.057.481.17.666.112.186.277.33.497.43.219.102.486.152.8.152.248 0 .486-.022.717-.067.23-.045.45-.118.657-.22a2.737 2.737 0 0 0 .871-.635h-.002Zm7.483.821c-.067.011-.126.02-.177.025-.05.006-.11.009-.177.009a.91.91 0 0 1-.37-.068.609.609 0 0 1-.254-.21.926.926 0 0 1-.143-.363 2.808 2.808 0 0 1-.042-.523V39.1l-1.72.253v10.841c0 .326.045.604.135.835.09.23.219.418.388.565.168.146.368.25.598.311.23.062.48.093.75.093a4.263 4.263 0 0 0 .75-.067c.119-.023.217-.045.296-.068l.168-1.332-.202.034Z"/></g><g clip-path="url(#c)"><path d="M10.898 26.38c-.08.209-.158.414-.237.616L7.56 34.97H6.008l-3.12-8.009a21.07 21.07 0 0 0-.244-.632c-.081-.202-.16-.407-.239-.615-.016.221-.033.438-.047.649-.017.219-.037.44-.06.666l-.64 7.94H.056L1.17 23h1.956l3.304 8.48c.08.17.152.34.22.515.067.174.135.351.202.531.02.056.042.11.062.163.03-.073.059-.152.09-.222.067-.163.132-.331.194-.506.061-.174.126-.35.194-.53L10.66 23h1.923l1.011 11.97h-1.753l-.607-7.957c-.012-.225-.028-.45-.05-.675-.02-.194-.037-.385-.052-.573-.078.202-.157.408-.235.616Zm11.052 8.203c-.67.371-1.442.556-2.319.556s-1.599-.174-2.234-.522a3.611 3.611 0 0 1-.407-.264l-.9.972-.775-.708.938-1a3.972 3.972 0 0 1-.331-.526c-.349-.669-.523-1.464-.523-2.386 0-.921.183-1.72.548-2.394a3.888 3.888 0 0 1 1.535-1.568c.657-.37 1.424-.556 2.3-.556.878 0 1.653.18 2.294.54.138.075.264.162.388.255l.944-.998.792.708-.975 1.035c.124.163.242.337.343.525.354.658.531 1.43.531 2.318 0 .933-.19 1.743-.573 2.428a3.998 3.998 0 0 1-1.576 1.585Zm-4.747-3.979c0 .689.102 1.265.307 1.734l3.922-4.238a1.934 1.934 0 0 0-.52-.34c-.314-.14-.685-.21-1.112-.21-.529 0-.986.112-1.374.337-.388.224-.689.562-.902 1.011-.214.45-.32 1.018-.32 1.703v.003Zm4.772 1.77c.225-.472.337-1.062.337-1.77 0-.46-.053-.88-.16-1.256a3.38 3.38 0 0 0-.15-.413l-3.925 4.238c.099.092.2.176.312.247.377.236.818.354 1.324.354.505 0 .952-.115 1.34-.346.388-.23.694-.581.919-1.054h.003Zm6.002-3.774a4.228 4.228 0 0 1 .919-.491c.174-.068.351-.127.531-.177a3.59 3.59 0 0 1 1.18-.127l.203-1.585a3.21 3.21 0 0 0-1.029.093 3.314 3.314 0 0 0-.893.388 4.397 4.397 0 0 0-.793.632c-.04.04-.078.084-.118.127v-1.257l-1.72.253v8.515h1.72V28.6Zm9.13 6.464c-.343.05-.739.075-1.189.075-.944 0-1.742-.165-2.394-.497a3.297 3.297 0 0 1-1.475-1.467c-.332-.646-.497-1.43-.497-2.352 0-.697.092-1.329.278-1.896a4.134 4.134 0 0 1 .81-1.459c.353-.405.783-.72 1.289-.944.506-.225 1.079-.337 1.72-.337.64 0 1.21.106 1.711.32.5.213.913.531 1.24.953.325.421.558.935.699 1.542.14.607.171 1.304.093 2.091h-6.093c.023.43.082.804.183 1.113.13.393.32.705.573.936.253.23.565.393.936.488.371.096.81.144 1.315.144.248 0 .495-.014.742-.042.247-.028.489-.073.725-.135.236-.062.464-.132.683-.211.22-.079.435-.157.649-.236l-.118 1.298a6.325 6.325 0 0 1-.91.388 5.685 5.685 0 0 1-.97.228ZM33.55 28.91c-.104.275-.172.61-.214.986h4.434c0-.337-.04-.655-.123-.944-.13-.45-.357-.801-.683-1.054-.326-.253-.759-.38-1.298-.38-.54 0-.956.116-1.316.346-.36.23-.626.58-.8 1.046Zm19.55-.658c.348.658.522 1.43.522 2.318 0 .933-.188 1.743-.565 2.428a3.927 3.927 0 0 1-1.576 1.585c-.675.371-1.45.556-2.327.556s-1.585-.174-2.226-.522a3.52 3.52 0 0 1-1.475-1.526c-.343-.669-.514-1.464-.514-2.386 0-.921.182-1.72.548-2.394a3.889 3.889 0 0 1 1.534-1.568c.658-.37 1.425-.556 2.301-.556.877 0 1.639.18 2.285.54.646.359 1.144.867 1.492 1.525Zm-1.265 2.352c0-.46-.05-.88-.152-1.256a2.726 2.726 0 0 0-.464-.97 2.022 2.022 0 0 0-.775-.615c-.31-.14-.678-.21-1.105-.21-.54 0-1.003.112-1.39.337-.388.224-.69.562-.903 1.011-.213.45-.32 1.017-.32 1.703 0 .686.107 1.282.32 1.754.214.472.506.826.877 1.062.371.236.81.354 1.315.354.506 0 .956-.115 1.349-.346.393-.23.7-.581.919-1.054.22-.472.329-1.062.329-1.77Zm9.866-3.993 1.65-.424v8.733c0 .742-.166 1.397-.498 1.965-.332.567-.823 1.011-1.475 1.332-.652.32-1.456.48-2.411.48-.383 0-.753-.022-1.113-.067a8.476 8.476 0 0 1-1.037-.194 7.26 7.26 0 0 1-.953-.312l-.185-1.484c.348.146.702.267 1.062.363.36.095.717.163 1.07.202.355.04.7.059 1.038.059.506 0 .935-.053 1.29-.16.353-.107.64-.27.86-.49.218-.218.381-.488.488-.808.107-.32.16-.695.16-1.122v-.46a4.264 4.264 0 0 1-.96.545 4.86 4.86 0 0 1-1.805.354c-.786 0-1.455-.172-2.006-.515a3.268 3.268 0 0 1-1.256-1.45c-.287-.623-.43-1.363-.43-2.217 0-.764.112-1.441.337-2.031.225-.59.537-1.085.936-1.484.399-.4.851-.705 1.357-.919a4.075 4.075 0 0 1 1.602-.32c.326 0 .63.02.91.059.281.039.543.092.784.16.206.056.4.126.585.205Zm-.053 6.418v-5.14c-.085-.03-.172-.064-.253-.092a6.253 6.253 0 0 0-.793-.194 4.612 4.612 0 0 0-.792-.068c-.45 0-.852.07-1.206.211-.354.14-.652.34-.893.599a2.586 2.586 0 0 0-.557.986c-.13.4-.194.857-.194 1.374 0 .697.093 1.268.279 1.712.185.444.472.775.86.994.387.22.873.33 1.458.33.213 0 .418-.023.615-.068.197-.045.4-.11.607-.194.208-.084.424-.191.65-.32.07-.04.145-.085.218-.13ZM6.575 47.684l2.798 4.147H7.317l-2.984-4.586h-2.58v4.586H0v-11.97h4.839c.978 0 1.756.16 2.335.48.579.32.995.75 1.248 1.29s.38 1.135.38 1.787c0 .584-.096 1.099-.287 1.543a3.09 3.09 0 0 1-.793 1.113 3.29 3.29 0 0 1-1.189.666c-.21.067-.432.118-.663.154l.703.79h.003Zm-2.108-6.357H1.753v4.468h2.513c.562 0 1.048-.076 1.458-.227a1.84 1.84 0 0 0 .944-.742c.22-.343.33-.79.33-1.34 0-.495-.09-.903-.27-1.223a1.61 1.61 0 0 0-.827-.708c-.37-.152-.848-.228-1.433-.228Zm14.028 3.785c.348.658.523 1.43.523 2.319 0 .933-.189 1.742-.565 2.428a3.927 3.927 0 0 1-1.577 1.585c-.674.37-1.45.556-2.326.556-.877 0-1.585-.174-2.226-.523a3.519 3.519 0 0 1-1.475-1.525c-.343-.67-.514-1.465-.514-2.386 0-.922.182-1.72.547-2.395a3.888 3.888 0 0 1 1.535-1.568c.657-.37 1.424-.556 2.301-.556.877 0 1.639.18 2.285.54.646.36 1.143.868 1.492 1.525Zm-1.265 2.352c0-.46-.05-.879-.151-1.256a2.728 2.728 0 0 0-.464-.969 2.023 2.023 0 0 0-.776-.615c-.309-.141-.677-.211-1.104-.211-.54 0-1.003.112-1.39.337-.389.225-.69.562-.903 1.012-.213.45-.32 1.017-.32 1.703 0 .685.107 1.28.32 1.753.214.472.506.826.877 1.062.37.236.81.354 1.315.354.506 0 .955-.115 1.349-.345.393-.23.7-.582.919-1.054.219-.472.328-1.062.328-1.77Zm15.529-4.063c-.405-.236-.905-.354-1.5-.354-.462 0-.905.076-1.333.228a4.698 4.698 0 0 0-1.214.649 5.94 5.94 0 0 0-.598.506c-.197-.447-.483-.787-.868-1.012-.405-.236-.911-.354-1.518-.354-.45 0-.89.076-1.323.228a4.798 4.798 0 0 0-1.577.921v-1.149l-1.72.253v8.514h1.72V45.42c.205-.132.416-.256.632-.357.276-.13.554-.228.835-.295.28-.068.55-.101.81-.101.291 0 .536.042.733.126a1.3 1.3 0 0 1 .497.371c.135.163.233.377.295.64.062.265.093.571.093.92v5.108h1.72V46.37c0-.352-.023-.672-.065-.964.2-.13.399-.248.604-.352.27-.134.545-.236.826-.303.281-.067.557-.101.826-.101.27 0 .523.042.725.126.203.085.371.208.506.371s.233.377.295.64c.062.265.093.571.093.92v5.125h1.72v-5.48c0-.764-.101-1.387-.304-1.87-.202-.484-.506-.844-.91-1.08Zm9.088 4.552a2.533 2.533 0 0 0-.59-.463 4.521 4.521 0 0 0-.709-.329 14.75 14.75 0 0 1-.53-.177 9.408 9.408 0 0 0-.523-.169 10.76 10.76 0 0 1-.506-.16 3.694 3.694 0 0 1-.447-.185 3 3 0 0 1-.396-.253 1.11 1.11 0 0 1-.287-.32.812.812 0 0 1-.11-.422c0-.18.04-.334.119-.464a.958.958 0 0 1 .354-.328c.157-.09.345-.158.565-.203.219-.045.469-.067.75-.067a5.273 5.273 0 0 1 .885.076c.174.028.348.064.523.11.174.044.35.095.53.151.18.056.344.118.49.185l.118-1.365a7.942 7.942 0 0 0-.633-.236 6.187 6.187 0 0 0-.632-.169 5.048 5.048 0 0 0-.632-.093 7.595 7.595 0 0 0-.615-.025c-.506 0-.967.053-1.383.16a3.482 3.482 0 0 0-1.087.472c-.31.208-.548.472-.717.793-.169.32-.253.7-.253 1.138 0 .315.045.593.135.834.09.242.208.447.354.616.146.168.317.317.514.447.197.129.408.239.632.329a15.814 15.814 0 0 0 .784.26 31.615 31.615 0 0 1 .742.237c.118.04.234.076.346.11.157.056.303.12.438.193.135.073.25.152.346.236a.863.863 0 0 1 .295.666c0 .281-.093.503-.278.666a1.618 1.618 0 0 1-.725.346 4.308 4.308 0 0 1-.953.101c-.18 0-.38-.014-.598-.042a8.91 8.91 0 0 1-.692-.118c-.241-.05-.489-.112-.742-.185a14.907 14.907 0 0 1-.767-.245l.068 1.433c.292.101.559.183.8.245.242.062.473.115.692.16.22.045.433.073.64.084.209.011.42.017.633.017.495 0 .961-.048 1.4-.143a3.62 3.62 0 0 0 1.146-.447c.326-.202.581-.467.767-.793.185-.325.278-.713.278-1.163 0-.337-.048-.627-.143-.868a1.975 1.975 0 0 0-.396-.633Zm8.48-8.598 1.72-.236V51.83h-1.4l-.21-.778a5.01 5.01 0 0 1-.38.256c-.381.236-.772.41-1.171.522a4.675 4.675 0 0 1-1.273.169c-.776 0-1.442-.171-1.998-.514a3.348 3.348 0 0 1-1.281-1.459c-.298-.63-.447-1.377-.447-2.242 0-1.012.197-1.869.59-2.571.393-.703.913-1.24 1.56-1.61a4.146 4.146 0 0 1 2.099-.557 5.805 5.805 0 0 1 2.14.388.386.386 0 0 1 .051.022v-4.102Zm0 10.59V44.75a5.099 5.099 0 0 0-1.855-.337c-.584 0-1.087.12-1.508.362a2.378 2.378 0 0 0-.97 1.063c-.224.466-.337 1.048-.337 1.745 0 .697.101 1.256.304 1.71.202.456.494.793.876 1.013.383.219.843.328 1.383.328.36 0 .762-.081 1.206-.244.283-.104.584-.256.901-.444Zm11.887.807c.09-.01.186-.033.287-.067l-.186 1.13c-.056.022-.12.042-.194.059-.073.016-.154.036-.244.059-.09.022-.183.036-.278.042a5.043 5.043 0 0 1-.295.008c-.36 0-.68-.059-.961-.177-.281-.118-.5-.309-.658-.573a1.577 1.577 0 0 1-.183-.497 4.997 4.997 0 0 1-.331.354c-.31.292-.663.517-1.062.674-.4.157-.874.236-1.425.236-.596 0-1.093-.112-1.492-.337a2.221 2.221 0 0 1-.894-.885 2.468 2.468 0 0 1-.295-1.189c0-.45.127-.863.38-1.24.252-.376.637-.688 1.154-.935.517-.247 1.17-.394 1.956-.438l1.97-.133v-.421c0-.326-.03-.61-.098-.851a1.335 1.335 0 0 0-.337-.599c-.158-.157-.374-.275-.65-.354a3.767 3.767 0 0 0-1.02-.118c-.224 0-.452.008-.683.025-.23.017-.463.048-.7.093a9.978 9.978 0 0 0-1.534.422l.203-1.434c.28-.112.576-.21.885-.295.31-.084.638-.149.986-.194a8.303 8.303 0 0 1 1.063-.067 6 6 0 0 1 1.331.135c.394.09.734.219 1.02.388.287.168.52.376.7.623.18.248.315.534.405.86.09.326.135.686.135 1.08l-.034 3.473c-.011.416.05.713.185.893.135.18.355.27.658.27.068 0 .146-.006.236-.017v-.003Zm-2.762-1.009.008-1.674h-1.475c-.55 0-.99.045-1.315.135-.326.09-.562.23-.708.421-.146.191-.22.455-.22.792 0 .26.057.481.17.666.112.186.277.33.497.43.219.102.486.152.8.152.248 0 .486-.022.717-.067.23-.045.45-.118.657-.22a2.737 2.737 0 0 0 .871-.635h-.002Zm7.483.821c-.067.011-.126.02-.177.025-.05.006-.11.009-.177.009a.91.91 0 0 1-.37-.068.609.609 0 0 1-.254-.21.926.926 0 0 1-.143-.363 2.808 2.808 0 0 1-.042-.523V39.1l-1.72.253v10.841c0 .326.045.604.135.835.09.23.219.418.388.565.168.146.368.25.598.311.23.062.48.093.75.093a4.263 4.263 0 0 0 .75-.067c.119-.023.217-.045.296-.068l.168-1.332-.202.034Z"/></g><defs><clipPath id="a"><path d="M0 23h67.138v29H0z"/></clipPath><clipPath id="b"><path d="M0 23h67.138v29H0z"/></clipPath><clipPath id="c"><path d="M0 23h67.138v29H0z"/></clipPath></defs></svg>