<svg xmlns="http://www.w3.org/2000/svg" viewBox="0 0 189 24"><path fill="#0A2343" d="M0 17.998v-12h4v12H0Zm9.244-10.09 2.264 10.09H7.2l-2.704-12h2.417a2.276 2.276 0 0 1 1.513.55c.42.346.66.826.819 1.36ZM12 17.998v-12h4v12h-4Zm7.01-7.436a2.381 2.381 0 0 1-2.078-1.192 2.345 2.345 0 0 1-.321-1.208 2.301 2.301 0 0 1 .321-1.2A2.41 2.41 0 0 1 20.21 6.1c.356.21.653.506.862.862.215.363.326.778.321 1.2a2.35 2.35 0 0 1-.321 1.208 2.4 2.4 0 0 1-.862.87 2.301 2.301 0 0 1-1.2.322ZM22 17.998v-12h4v12h-4Zm8.974-5.442c.01.011.095.15.253.414s.364.602.617 1.014a316.22 316.22 0 0 1 1.597 2.62c.247.41.529.876.845 1.394H29.96c-.27-.44-.516-.837-.736-1.192-.22-.355-.453-.738-.7-1.15-.248-.41-.493-.81-.736-1.199-.242-.39-.45-.73-.625-1.022a18.04 18.04 0 0 0-.363-.592 1.747 1.747 0 0 1-.287-.845c.016-.29.11-.57.27-.811.067-.113.191-.313.371-.6a182.106 182.106 0 0 0 1.37-2.23l.7-1.159.736-1.2h4.326l-3.346 5.46a1.079 1.079 0 0 0-.17.54c.012.202.083.396.204.558Z"/><path fill="#1767CE" d="M42.776 7.49v10.509h-1.775V7.489H37.13V6.004h9.5V7.49h-3.854Zm7.32 1.833a3.324 3.324 0 0 0-.895.389 4.41 4.41 0 0 0-.795.633c-.04.04-.079.085-.118.127V9.213l-1.725.254v8.532h1.725v-6.384a4.214 4.214 0 0 1 .921-.493c.175-.067.352-.126.533-.177a3.594 3.594 0 0 1 1.183-.127l.203-1.588a3.219 3.219 0 0 0-1.031.093Zm9.941 1.943c.35.659.524 1.433.524 2.323 0 .935-.188 1.746-.566 2.433a3.937 3.937 0 0 1-1.58 1.588c-.677.372-1.455.558-2.334.558s-1.589-.175-2.231-.524a3.528 3.528 0 0 1-1.48-1.529c-.343-.67-.515-1.467-.515-2.39 0-.924.183-1.724.55-2.4.365-.676.878-1.2 1.538-1.571.659-.372 1.428-.558 2.307-.558.88 0 1.643.18 2.291.541.648.36 1.147.87 1.496 1.529Zm-1.268 2.357c0-.462-.05-.881-.152-1.259a2.732 2.732 0 0 0-.465-.971 2.026 2.026 0 0 0-.778-.617c-.31-.14-.678-.211-1.107-.211-.54 0-1.006.113-1.395.338-.388.225-.69.563-.904 1.013-.214.451-.321 1.02-.321 1.707s.107 1.284.321 1.757c.214.473.507.828.88 1.065.371.236.81.354 1.318.354.507 0 .958-.115 1.352-.346.395-.23.702-.583.922-1.056.22-.473.33-1.064.33-1.774Zm15.57-4.072c-.405-.236-.907-.355-1.504-.355-.462 0-.907.076-1.336.228a4.712 4.712 0 0 0-1.217.65 5.953 5.953 0 0 0-.6.508c-.197-.448-.485-.789-.87-1.014-.406-.236-.914-.355-1.522-.355-.451 0-.894.076-1.327.228a4.811 4.811 0 0 0-1.581.924V9.213l-1.725.254v8.532h1.725v-6.426c.206-.132.417-.256.634-.358.276-.13.555-.228.837-.295.282-.068.552-.102.811-.102.293 0 .538.043.736.127.197.085.363.208.498.372.136.163.234.377.296.642.062.264.093.571.093.92V18h1.724v-5.474c0-.352-.022-.673-.064-.966.2-.13.4-.248.605-.352.271-.135.547-.237.829-.304.282-.068.558-.102.828-.102.27 0 .524.043.727.127.203.085.372.208.507.372.136.163.234.377.296.642.062.265.093.572.093.92V18h1.725v-5.491c0-.766-.102-1.391-.305-1.875-.203-.485-.507-.845-.913-1.082Zm9.113 4.562a2.54 2.54 0 0 0-.592-.465 4.535 4.535 0 0 0-.71-.33c-.18-.056-.358-.115-.533-.177a9.507 9.507 0 0 0-.524-.168c-.174-.051-.344-.105-.507-.161a3.691 3.691 0 0 1-.448-.186 3 3 0 0 1-.397-.253 1.114 1.114 0 0 1-.288-.321.814.814 0 0 1-.11-.423c0-.18.04-.335.119-.464a.959.959 0 0 1 .355-.33 1.91 1.91 0 0 1 .566-.203c.22-.045.47-.067.752-.067a5.305 5.305 0 0 1 .888.076c.175.028.35.065.524.11.175.045.352.096.533.152.18.056.343.118.49.186l.118-1.369a7.986 7.986 0 0 0-.634-.236 6.185 6.185 0 0 0-.634-.17 5.067 5.067 0 0 0-.634-.092 7.637 7.637 0 0 0-.617-.026c-.507 0-.969.054-1.386.16-.417.108-.78.266-1.09.474-.31.208-.55.473-.719.794-.169.321-.253.701-.253 1.14 0 .316.045.595.135.837.09.242.208.447.355.616.146.17.318.319.516.448.197.13.408.24.633.33a15.357 15.357 0 0 0 .787.262 33.745 33.745 0 0 1 .743.236c.119.04.234.076.347.11.158.056.304.121.44.194.135.073.25.152.346.237a.864.864 0 0 1 .296.667c0 .282-.093.504-.279.668a1.622 1.622 0 0 1-.727.346 4.318 4.318 0 0 1-.955.101c-.18 0-.38-.014-.6-.042a8.956 8.956 0 0 1-.693-.118c-.243-.051-.49-.113-.744-.186s-.51-.155-.77-.245l.068 1.436c.293.101.56.183.803.245s.474.115.693.16c.22.046.434.074.643.085.208.011.42.017.634.017.496 0 .963-.048 1.403-.144.44-.096.823-.245 1.15-.448.326-.202.583-.467.769-.794.186-.326.279-.715.279-1.165 0-.338-.048-.628-.144-.87a1.98 1.98 0 0 0-.397-.634Zm14.217-2.847c.35.659.524 1.433.524 2.323 0 .935-.188 1.746-.566 2.433a3.937 3.937 0 0 1-1.58 1.588c-.677.372-1.454.558-2.334.558-.879 0-1.589-.175-2.231-.524a3.527 3.527 0 0 1-1.48-1.529c-.343-.67-.515-1.467-.515-2.39 0-.924.183-1.724.55-2.4.366-.676.878-1.2 1.538-1.571.66-.372 1.428-.558 2.307-.558.88 0 1.643.18 2.291.541.648.36 1.147.87 1.496 1.529Zm-1.268 2.357c0-.462-.05-.881-.152-1.259a2.733 2.733 0 0 0-.465-.971 2.026 2.026 0 0 0-.777-.617c-.31-.14-.68-.211-1.108-.211-.54 0-1.005.113-1.394.338-.39.225-.69.563-.905 1.013-.214.451-.321 1.02-.321 1.707s.107 1.284.321 1.757c.214.473.507.828.88 1.065.371.236.81.354 1.318.354.507 0 .958-.115 1.352-.346.395-.23.702-.583.922-1.056.22-.473.33-1.064.33-1.774Zm9.893-4.001 1.654-.426v8.752c0 .744-.166 1.4-.499 1.968-.332.57-.825 1.014-1.479 1.335-.654.321-1.459.482-2.417.482-.384 0-.756-.023-1.116-.068a8.492 8.492 0 0 1-1.04-.194 7.3 7.3 0 0 1-.955-.313l-.186-1.486c.349.146.704.267 1.065.363.361.096.718.163 1.073.203.356.039.702.059 1.04.059.507 0 .938-.054 1.293-.16.355-.108.643-.271.863-.49.219-.22.383-.49.49-.812.107-.32.161-.695.161-1.123v-.462c-.319.234-.64.42-.964.546-.597.237-1.2.355-1.809.355-.789 0-1.46-.172-2.012-.515a3.274 3.274 0 0 1-1.259-1.453c-.288-.626-.431-1.366-.431-2.222 0-.766.112-1.445.338-2.036a4.16 4.16 0 0 1 .938-1.487c.4-.4.854-.707 1.361-.92a4.086 4.086 0 0 1 1.606-.322c.327 0 .631.02.913.06.282.039.544.092.786.16.206.056.4.127.586.206Zm-.053 6.431v-5.15c-.085-.031-.172-.065-.254-.093a6.248 6.248 0 0 0-.795-.194 4.623 4.623 0 0 0-.794-.068c-.451 0-.854.07-1.209.211-.355.141-.654.34-.896.6a2.6 2.6 0 0 0-.558.988c-.129.4-.194.86-.194 1.377 0 .699.093 1.27.279 1.715.186.445.473.777.862.997.389.22.876.33 1.462.33.214 0 .42-.023.617-.068.198-.045.4-.11.609-.194.208-.085.425-.192.651-.321.07-.04.146-.085.22-.13ZM114.693 18h1.776v-4.95h4.53l.186-1.47h-4.716v-4.09h6.136V6.004h-7.912V18Zm11.048-12.325a1.092 1.092 0 0 0-.583-.16c-.214 0-.411.053-.592.16a1.24 1.24 0 0 0-.431.422c-.107.175-.16.369-.16.583a1.15 1.15 0 0 0 .591 1.014c.181.101.378.152.592.152.214 0 .409-.051.583-.152a1.1 1.1 0 0 0 .414-.423 1.18 1.18 0 0 0 .153-.591c0-.214-.051-.408-.153-.583a1.183 1.183 0 0 0-.414-.422Zm-1.479 12.325h1.724V9.213l-1.724.254v8.532Zm10.989-8.448c-.428-.236-.969-.355-1.623-.355-.485 0-.967.076-1.446.228a5.505 5.505 0 0 0-1.361.65 6.413 6.413 0 0 0-.473.347V9.213l-1.724.254v8.532h1.724V11.58a4.94 4.94 0 0 1 .516-.264c.242-.107.484-.2.727-.279.242-.079.484-.138.727-.178.242-.039.476-.059.701-.059.316 0 .586.043.812.127.225.085.411.211.558.38.146.17.253.383.321.642.067.26.101.564.101.913v5.136h1.725v-5.491c0-.766-.107-1.391-.322-1.875-.214-.485-.535-.845-.963-1.082Zm10.464 0c-.428-.236-.969-.355-1.623-.355-.484 0-.966.076-1.445.228a5.488 5.488 0 0 0-1.361.65 6.413 6.413 0 0 0-.473.347V9.213l-1.725.254v8.532h1.725V11.58c.163-.095.335-.185.515-.264.243-.107.485-.2.727-.279.243-.079.485-.138.727-.178.243-.039.476-.059.702-.059.315 0 .586.043.811.127.226.085.412.211.558.38.147.17.254.383.321.642.068.26.102.564.102.913v5.136H147v-5.491c0-.766-.107-1.391-.321-1.875-.214-.485-.535-.845-.964-1.082Zm15.52 0c-.406-.236-.907-.355-1.505-.355-.462 0-.907.076-1.335.228a4.695 4.695 0 0 0-1.217.65 5.952 5.952 0 0 0-.601.508c-.197-.448-.484-.789-.87-1.014-.406-.236-.913-.355-1.522-.355-.451 0-.893.076-1.327.228a4.825 4.825 0 0 0-1.581.924V9.213l-1.724.254v8.532h1.724v-6.426c.206-.132.417-.256.634-.358a4.38 4.38 0 0 1 .837-.295c.282-.068.552-.102.812-.102.293 0 .538.043.735.127.197.085.364.208.499.372.135.163.234.377.296.642.062.264.093.571.093.92V18h1.724v-5.474c0-.352-.023-.673-.065-.966.2-.13.4-.248.606-.352.271-.135.547-.237.828-.304.282-.068.558-.102.829-.102.27 0 .524.043.727.127.203.085.372.208.507.372.135.163.234.377.296.642.062.265.093.572.093.92V18h1.724v-5.491c0-.766-.101-1.391-.304-1.875-.203-.485-.507-.845-.913-1.082Zm11.327 7.367c.09-.012.186-.034.287-.068l-.186 1.132a1.328 1.328 0 0 1-.194.06c-.073.016-.155.036-.245.058a1.537 1.537 0 0 1-.279.042 5.091 5.091 0 0 1-.296.009c-.361 0-.682-.06-.964-.177a1.363 1.363 0 0 1-.659-.575 1.557 1.557 0 0 1-.183-.498 4.871 4.871 0 0 1-.333.355c-.31.292-.665.518-1.065.675-.4.158-.876.237-1.428.237-.598 0-1.096-.113-1.496-.338a2.219 2.219 0 0 1-.896-.887 2.463 2.463 0 0 1-.296-1.191c0-.45.126-.865.38-1.242s.64-.69 1.158-.938c.519-.247 1.172-.394 1.961-.439l1.975-.132v-.423c0-.326-.031-.61-.098-.853a1.349 1.349 0 0 0-.338-.6c-.158-.157-.375-.276-.651-.355a3.782 3.782 0 0 0-1.023-.118 9.38 9.38 0 0 0-.685.026 6.133 6.133 0 0 0-.701.092 10.088 10.088 0 0 0-1.539.422l.203-1.435c.282-.113.578-.211.888-.296.31-.084.639-.15.989-.194a8.311 8.311 0 0 1 1.065-.068c.496 0 .941.045 1.335.135.395.09.736.22 1.023.389a2.3 2.3 0 0 1 .702.625c.18.248.315.535.405.862.091.326.136.687.136 1.081l-.034 3.48c-.011.417.051.716.186.896.135.18.355.27.659.27.068 0 .147-.005.237-.017v-.002Zm-2.77-1.011.008-1.676h-1.479c-.552 0-.992.045-1.318.135-.327.09-.564.231-.71.423-.147.191-.22.456-.22.794 0 .259.056.481.169.667.113.186.279.33.499.431.219.101.487.152.803.152.248 0 .487-.022.718-.067.231-.045.451-.119.659-.22.209-.101.406-.225.592-.372.099-.079.192-.169.282-.264l-.003-.003Zm8.196-6.587a3.337 3.337 0 0 0-.896.389 4.434 4.434 0 0 0-.794.633c-.04.04-.079.085-.118.127V9.21l-1.725.254v8.532h1.725v-6.384a4.385 4.385 0 0 1 .921-.493c.175-.067.352-.126.532-.177a3.623 3.623 0 0 1 1.184-.127l.203-1.588a3.225 3.225 0 0 0-1.032.093Zm7.811 8.676h2.232l-4.1-4.618 4.015-3.999h-2.113l-2.894 3.177h-.623V5.243l-1.724.253V18h1.724v-4.14h.029l3.454 4.14v-.003Z"/></svg>