<svg xmlns="http://www.w3.org/2000/svg" viewBox="0 0 87 24"><path fill="#fff" d="M0 17.998v-12h4v12H0Zm9.244-10.09 2.264 10.09H7.2l-2.704-12h2.417a2.276 2.276 0 0 1 1.513.55c.42.346.66.827.819 1.36ZM12 17.999v-12h4v12h-4Zm7.01-7.436a2.382 2.382 0 0 1-2.4-2.4 2.301 2.301 0 0 1 .322-1.2A2.41 2.41 0 0 1 20.21 6.1c.356.21.653.506.862.862.215.363.326.778.321 1.2a2.35 2.35 0 0 1-.321 1.208 2.4 2.4 0 0 1-.862.87 2.3 2.3 0 0 1-1.2.322ZM22 17.998v-12h4v12h-4Zm8.974-5.442c.01.012.095.15.253.414s.364.602.617 1.014a315.936 315.936 0 0 1 1.597 2.62c.247.411.529.876.845 1.394H29.96c-.27-.44-.516-.837-.736-1.192-.22-.355-.453-.738-.7-1.149-.248-.41-.493-.81-.736-1.2-.242-.389-.45-.73-.625-1.022-.175-.293-.296-.49-.363-.592a1.747 1.747 0 0 1-.287-.845c.016-.29.11-.57.27-.811.067-.113.191-.313.371-.6s.392-.628.634-1.022c.242-.395.488-.798.736-1.209l.7-1.157.736-1.2h4.326l-3.346 5.458a1.08 1.08 0 0 0-.17.541c.012.202.083.396.204.558ZM45.656 12.36a3.183 3.183 0 0 0-.837-.62 6.48 6.48 0 0 0-1.013-.416 11.4 11.4 0 0 0-1.105-.289c-.29-.067-.56-.135-.812-.203a3.69 3.69 0 0 1-.67-.247 2.206 2.206 0 0 1-.51-.34 1.223 1.223 0 0 1-.327-.474 1.855 1.855 0 0 1-.108-.671 2.068 2.068 0 0 1 .108-.696c.07-.198.184-.376.335-.518.157-.146.335-.266.528-.356.22-.102.454-.171.695-.204.285-.041.574-.061.862-.06.263 0 .525.015.787.043.264.028.527.07.787.127.252.056.501.127.745.212.228.08.45.18.661.297l.235-1.494a4.138 4.138 0 0 0-.745-.305 9.914 9.914 0 0 0-.796-.204 7.845 7.845 0 0 0-.82-.127 8.457 8.457 0 0 0-.854-.043 7.033 7.033 0 0 0-1.758.204c-.49.12-.953.333-1.364.628-.38.276-.684.644-.888 1.07a3.499 3.499 0 0 0-.31 1.528c-.009.407.056.813.193 1.196.12.322.306.614.544.858.236.239.507.44.804.594.314.165.642.301.98.408.351.113.711.21 1.08.289.3.067.58.138.837.212.238.067.47.155.694.263.192.092.37.212.528.357.15.142.266.316.343.51.089.232.131.48.126.73.004.264-.036.528-.118.78-.073.218-.187.42-.335.594a1.613 1.613 0 0 1-.535.408 2.675 2.675 0 0 1-.729.22c-.307.048-.618.071-.928.069-.303-.001-.605-.021-.905-.06-.312-.04-.625-.093-.938-.162a9.296 9.296 0 0 1-.912-.246 17.043 17.043 0 0 1-.845-.297l.217 1.681c.286.108.576.202.871.28.267.071.538.128.812.17.262.04.525.07.787.093.263.023.527.035.795.034.6.004 1.197-.058 1.783-.186a4.237 4.237 0 0 0 1.457-.612c.414-.278.749-.661.971-1.112a3.805 3.805 0 0 0 .343-1.706 3.88 3.88 0 0 0-.192-1.29 2.515 2.515 0 0 0-.554-.917ZM55.677 16.927a.754.754 0 0 1-.653-.271 1.477 1.477 0 0 1-.184-.9l.033-3.498a4.13 4.13 0 0 0-.134-1.086 2.677 2.677 0 0 0-.402-.867 2.283 2.283 0 0 0-.694-.628 3.531 3.531 0 0 0-1.013-.39 5.88 5.88 0 0 0-1.323-.136c-.353 0-.705.022-1.055.068-.33.042-.658.107-.98.195a8.028 8.028 0 0 0-.878.297l-.201 1.444a9.997 9.997 0 0 1 1.523-.425 6.07 6.07 0 0 1 .695-.093c.229-.017.455-.026.678-.026.342-.007.682.033 1.013.119.242.061.464.184.645.357.162.168.277.376.335.603.071.28.105.568.1.857l-.002.426-1.956.134a5.142 5.142 0 0 0-1.942.441c-.46.204-.856.53-1.148.943a2.215 2.215 0 0 0-.376 1.248c-.004.417.097.83.293 1.197.205.378.513.687.887.891.457.241.967.358 1.482.34a3.81 3.81 0 0 0 1.414-.238c.392-.155.75-.386 1.055-.679.116-.112.226-.231.33-.356.032.176.094.345.181.5.15.26.379.464.653.578.303.123.628.184.954.178.101 0 .198-.003.293-.008.093-.006.186-.02.277-.043l.242-.06c.066-.014.13-.034.193-.059l.184-1.137a1.465 1.465 0 0 1-.284.068 1.9 1.9 0 0 1-.235.016Zm-2.788-.764c-.181.146-.378.271-.586.374a2.618 2.618 0 0 1-.653.22 3.656 3.656 0 0 1-.712.068 1.86 1.86 0 0 1-.794-.152 1.096 1.096 0 0 1-.495-.433 1.283 1.283 0 0 1-.167-.67c-.016-.284.06-.565.218-.8.182-.215.429-.364.703-.423a5.036 5.036 0 0 1 1.306-.136h1.466l-.007 1.685a2.29 2.29 0 0 1-.279.267ZM53.952 5.11h-1.808l-1.423 3.04h1.306l1.925-3.04ZM64.224 9.686a3.56 3.56 0 0 0-2-.535 5.045 5.045 0 0 0-1.24.161 5.342 5.342 0 0 0-1.49.641v-.785l-1.708.272v12.122h1.708v-3.801l.034.015c.309.13.632.224.962.28.39.066.785.097 1.18.094a4.137 4.137 0 0 0 2.152-.56 4.008 4.008 0 0 0 1.507-1.622 5.489 5.489 0 0 0 .56-2.59 5.344 5.344 0 0 0-.426-2.207 3.4 3.4 0 0 0-1.24-1.485Zm-.444 5.68c-.2.45-.538.825-.962 1.069-.472.25-1 .373-1.532.356a4.696 4.696 0 0 1-1.791-.346v-5.358c.021-.01.044-.024.066-.034.246-.114.475-.21.687-.29a3.389 3.389 0 0 1 1.188-.22 3.062 3.062 0 0 1 1.49.331c.404.223.72.58.896 1.01.213.551.313 1.14.293 1.732a4.1 4.1 0 0 1-.335 1.75ZM79.535 9.508a2.882 2.882 0 0 0-1.49-.357 3.872 3.872 0 0 0-1.323.23 4.647 4.647 0 0 0-1.206.653 6.123 6.123 0 0 0-.594.509 2.12 2.12 0 0 0-.862-1.019 2.921 2.921 0 0 0-1.507-.356c-.448 0-.892.077-1.314.229a4.738 4.738 0 0 0-1.566.928V9.17l-1.708.255v8.574h1.708v-6.46a5.37 5.37 0 0 1 .628-.359 4.28 4.28 0 0 1 .829-.297c.263-.066.533-.1.803-.102.25-.008.497.036.729.127a1.3 1.3 0 0 1 .494.374c.145.19.245.41.293.645.065.304.096.614.092.925v5.145h1.708v-5.501c0-.325-.02-.65-.065-.971.193-.129.394-.247.6-.353.261-.134.537-.236.82-.306a3.45 3.45 0 0 1 .821-.102c.246-.006.49.037.72.127.195.081.368.21.502.374.146.19.246.41.293.645.066.304.097.614.092.925v5.162h1.708v-5.518a4.995 4.995 0 0 0-.301-1.885 2.18 2.18 0 0 0-.904-1.085ZM83.268 17.997h1.708V9.168l-1.708.255v8.574ZM85.144 6.035a1.19 1.19 0 0 0-.41-.424 1.072 1.072 0 0 0-.578-.161 1.114 1.114 0 0 0-.586.16c-.175.104-.322.25-.427.425-.106.176-.162.38-.16.586-.001.21.054.415.16.594a1.16 1.16 0 0 0 1.013.577 1.099 1.099 0 0 0 .988-.577c.1-.18.152-.386.15-.594a1.159 1.159 0 0 0-.15-.586Z"/></svg>