<svg xmlns="http://www.w3.org/2000/svg" viewBox="0 0 111 24"><path fill="#fff" d="M0 17.997V6h4v11.998H0ZM9.244 7.908l2.264 10.09H7.2l-2.704-12h2.417a2.276 2.276 0 0 1 1.513.55c.42.346.66.826.819 1.36ZM12 17.998v-12h4v12h-4Zm7.01-7.436a2.382 2.382 0 0 1-2.4-2.4 2.301 2.301 0 0 1 .322-1.2A2.41 2.41 0 0 1 20.21 6.1c.356.21.653.506.862.862.215.363.326.778.321 1.2a2.35 2.35 0 0 1-.321 1.208 2.4 2.4 0 0 1-.862.87 2.3 2.3 0 0 1-1.2.322ZM22 17.997V6h4v11.998h-4Zm8.974-5.441c.01.011.095.15.253.414s.364.602.617 1.014a315.936 315.936 0 0 1 1.597 2.62c.247.41.529.875.845 1.393H29.96c-.27-.439-.516-.836-.736-1.19-.22-.356-.453-.739-.7-1.15-.248-.411-.493-.811-.736-1.2-.242-.39-.45-.73-.625-1.022-.175-.293-.296-.49-.363-.592a1.747 1.747 0 0 1-.287-.845c.016-.29.11-.57.27-.811.067-.113.191-.313.371-.6a182.106 182.106 0 0 0 1.37-2.23l.7-1.159.736-1.2h4.326l-3.346 5.459a1.08 1.08 0 0 0-.17.541c.012.202.083.396.204.558Z"/><path fill="#9FDAF5" d="m47.546 15.128-7.178-9.123H39v11.991h1.588V8.868l7.194 9.128h1.368V6.005h-1.604v9.123Zm11.923-3.862c.35.659.524 1.433.524 2.322 0 .935-.189 1.745-.566 2.432a3.934 3.934 0 0 1-1.579 1.588c-.676.371-1.452.557-2.33.557-.879 0-1.588-.174-2.23-.524a3.525 3.525 0 0 1-1.478-1.528c-.343-.67-.515-1.466-.515-2.39 0-.923.183-1.722.549-2.398.366-.676.878-1.2 1.537-1.57.659-.372 1.427-.558 2.305-.558.878 0 1.641.18 2.289.54.647.36 1.145.87 1.494 1.529Zm-1.266 2.356c0-.462-.051-.881-.152-1.258a2.732 2.732 0 0 0-.465-.971 2.023 2.023 0 0 0-.777-.617c-.31-.14-.678-.211-1.106-.211-.54 0-1.005.113-1.393.338-.389.225-.69.563-.904 1.013-.214.45-.32 1.02-.32 1.706 0 .687.106 1.283.32 1.756.214.473.507.828.878 1.064.372.237.811.355 1.318.355.506 0 .957-.115 1.35-.346.395-.231.702-.583.921-1.056.22-.473.33-1.064.33-1.773Zm7.414-4.298a3.321 3.321 0 0 0-.895.388 4.404 4.404 0 0 0-.794.633c-.04.04-.079.085-.118.127V9.214l-1.723.253v8.53h1.723v-6.382a4.22 4.22 0 0 1 .92-.493c.175-.067.352-.126.532-.177a3.59 3.59 0 0 1 1.182-.127l.203-1.587a3.214 3.214 0 0 0-1.03.093Zm8.174-3.826 1.723-.236v12.734h-1.402l-.211-.78c-.127.093-.253.18-.38.257-.383.236-.774.41-1.174.523-.4.113-.825.169-1.275.169-.777 0-1.444-.172-2.001-.515a3.353 3.353 0 0 1-1.284-1.461c-.298-.63-.447-1.38-.447-2.246 0-1.014.197-1.872.59-2.576.395-.704.915-1.241 1.563-1.613a4.153 4.153 0 0 1 2.103-.557 5.818 5.818 0 0 1 2.195.411v-4.11Zm0 10.61v-5.205c-.087-.031-.18-.068-.262-.093a5.103 5.103 0 0 0-1.596-.245c-.585 0-1.089.121-1.511.363a2.382 2.382 0 0 0-.971 1.064c-.225.467-.338 1.05-.338 1.748s.101 1.258.304 1.714c.203.456.495.794.878 1.014.383.22.845.329 1.385.329.36 0 .763-.082 1.208-.245.284-.104.585-.256.903-.445Zm7.017.647c-.05.005-.11.008-.177.008a.913.913 0 0 1-.371-.067.61.61 0 0 1-.254-.211.927.927 0 0 1-.143-.364 2.806 2.806 0 0 1-.043-.523V5.245l-1.722.253v10.86c0 .326.045.605.135.836.09.23.22.42.388.566.17.146.37.25.6.312.23.062.481.093.751.093a3.746 3.746 0 0 0 1.047-.135l.17-1.334c-.068.01-.136.022-.203.033-.068.012-.127.02-.178.026Zm9.652.16c.09-.011.186-.034.288-.067l-.186 1.131a1.338 1.338 0 0 1-.194.06 14.04 14.04 0 0 0-.245.058c-.09.023-.183.037-.279.043a5.061 5.061 0 0 1-.296.008c-.36 0-.68-.059-.962-.177a1.364 1.364 0 0 1-.659-.574 1.584 1.584 0 0 1-.183-.499 4.97 4.97 0 0 1-.332.355c-.31.293-.664.518-1.064.676-.4.157-.875.236-1.427.236-.597 0-1.095-.113-1.495-.338-.4-.225-.698-.52-.895-.887a2.472 2.472 0 0 1-.295-1.19c0-.45.126-.864.38-1.241.253-.378.638-.69 1.156-.938.518-.248 1.171-.394 1.96-.439L87.705 13v-.425c0-.327-.031-.611-.099-.853a1.337 1.337 0 0 0-.338-.6c-.157-.157-.374-.275-.65-.354a3.77 3.77 0 0 0-1.022-.119 9.37 9.37 0 0 0-.684.026c-.23.017-.464.048-.7.093a10.372 10.372 0 0 0-1.537.422l.202-1.436c.282-.112.577-.21.887-.295.31-.085.639-.15.988-.194a8.305 8.305 0 0 1 1.064-.068c.495 0 .94.045 1.334.135.394.09.735.22 1.022.389.287.168.52.377.7.624.181.248.316.535.406.862.09.326.135.687.135 1.08l-.033 3.48c-.012.416.05.715.185.895.135.18.355.27.659.27.068 0 .146-.005.236-.017Zm-2.766-1.007.008-1.678h-1.478c-.552 0-.99.045-1.317.135-.327.09-.563.23-.71.422-.146.192-.22.456-.22.794 0 .259.057.481.17.667.112.186.278.33.498.43.22.102.487.153.802.153.248 0 .487-.023.718-.068.23-.045.45-.118.659-.22a2.757 2.757 0 0 0 .873-.636h-.004Zm11.278-6.356c-.427-.237-.968-.355-1.62-.355-.485 0-.966.076-1.445.228a5.485 5.485 0 0 0-1.36.65c-.163.107-.32.225-.472.346V9.214l-1.723.253v8.53h1.723V11.58c.166-.096.335-.186.515-.264.242-.107.484-.2.726-.28.242-.078.484-.137.726-.176.242-.04.476-.06.701-.06.315 0 .586.043.81.127.226.085.412.211.558.38.146.169.253.383.321.642s.101.563.101.912v5.134h1.723v-5.489c0-.765-.107-1.39-.32-1.874-.215-.485-.536-.845-.964-1.081Zm11.468-4.29v12.734h-1.402l-.211-.78c-.127.093-.253.18-.38.257a4.61 4.61 0 0 1-1.174.523 4.675 4.675 0 0 1-1.275.169c-.777 0-1.444-.172-2.001-.515a3.36 3.36 0 0 1-1.284-1.461c-.298-.63-.447-1.38-.447-2.246 0-1.014.197-1.872.591-2.576.394-.704.915-1.241 1.562-1.613a4.154 4.154 0 0 1 2.103-.557 5.823 5.823 0 0 1 2.145.388c.017.006.033.015.05.023v-4.11l1.723-.236Zm-1.723 10.845v-5.204c-.087-.031-.18-.068-.261-.093a5.122 5.122 0 0 0-1.596-.245c-.586 0-1.09.121-1.512.363a2.381 2.381 0 0 0-.971 1.064c-.225.467-.338 1.05-.338 1.748s.101 1.258.304 1.714c.203.456.496.794.878 1.014.383.22.845.329 1.385.329.361 0 .763-.082 1.208-.245.284-.104.585-.256.903-.445Z"/></svg>