<svg width="70" height="56" viewBox="0 0 70 56" fill="none" xmlns="http://www.w3.org/2000/svg">
<path d="M0 17.9975V5.99862H4V17.9975H0ZM9.24381 7.90831L11.5081 17.9975H7.19917L4.49549 5.99862H6.91217C7.46635 5.99143 8.00406 6.18678 8.4245 6.54792C8.84562 6.89391 9.08495 7.37423 9.24381 7.90831ZM12 17.9975V5.99862H16V17.9975H12ZM19.0105 10.5616C18.5862 10.5658 18.1687 10.4548 17.8025 10.2405C17.4412 10.0316 17.1411 9.73149 16.9323 9.37013C16.7178 9.00386 16.6068 8.58629 16.611 8.16185C16.6061 7.73999 16.7172 7.32491 16.9323 6.96195C17.1433 6.60452 17.4431 6.30762 17.8025 6.10005C18.1689 5.88603 18.5862 5.77504 19.0105 5.77891C19.4322 5.77437 19.8471 5.88546 20.2102 6.10005C20.566 6.30944 20.8626 6.60609 21.072 6.96195C21.2868 7.32501 21.3979 7.74002 21.3933 8.16185C21.3973 8.58625 21.2863 9.00375 21.072 9.37013C20.8649 9.7299 20.5679 10.0298 20.2102 10.2405C19.8471 10.4555 19.4324 10.5666 19.0105 10.5616ZM22 17.9975V5.99862H26V17.9975H22ZM30.9737 12.5558C30.9848 12.5674 31.0693 12.7054 31.2272 12.9698C31.3851 13.2342 31.5906 13.5722 31.8439 13.9838C32.0974 14.3952 32.3649 14.8318 32.6463 15.2935C32.9278 15.7553 33.1926 16.1919 33.4408 16.6033C33.6881 17.0147 33.9697 17.4795 34.2857 17.9975H29.9598C29.6893 17.5581 29.4441 17.161 29.2245 16.8061C29.0048 16.4512 28.7713 16.0681 28.5238 15.6569C28.2758 15.246 28.0306 14.8461 27.7882 14.457C27.5458 14.0679 27.3375 13.7271 27.1633 13.4346C26.9883 13.1418 26.8671 12.9446 26.7997 12.8431C26.6325 12.591 26.5336 12.2998 26.5127 11.9981C26.5294 11.7085 26.6226 11.4285 26.7828 11.1866C26.8503 11.074 26.9743 10.874 27.1545 10.5867C27.3348 10.2994 27.546 9.95858 27.7882 9.56425C28.0304 9.16992 28.2756 8.76713 28.5238 8.3559C28.772 7.94467 29.0055 7.55876 29.2245 7.19823C29.4445 6.83808 29.6897 6.43811 29.9598 5.99834H34.2857L30.9396 11.457C30.8361 11.6191 30.7777 11.8059 30.7706 11.9981C30.7818 12.1998 30.8528 12.3938 30.9737 12.5558Z" fill="white"/>
<g clip-path="url(#clip0_5918_1754)">
<path d="M10.8975 26.3805C10.8188 26.5885 10.7401 26.7936 10.6614 26.9959L7.55911 34.9709H6.00795L2.88876 26.9622C2.81008 26.7486 2.72859 26.5379 2.64428 26.3299C2.56279 26.1276 2.48411 25.9225 2.40543 25.7145C2.38857 25.9365 2.37171 26.1529 2.35766 26.3637C2.34079 26.5828 2.32112 26.8048 2.29864 27.0297L1.65795 34.9709H0.0562016L1.16899 23H3.12481L6.42946 31.4808C6.50814 31.6494 6.5812 31.8208 6.64864 31.9951C6.71609 32.1693 6.78353 32.3463 6.85097 32.5262C6.87064 32.5824 6.89312 32.6358 6.91279 32.6891C6.9437 32.6161 6.9718 32.5374 7.00271 32.4672C7.07016 32.3042 7.13479 32.1356 7.19661 31.9613C7.25843 31.7871 7.32306 31.6101 7.3905 31.4302L10.6614 23H12.5835L13.5952 34.9709H11.8417L11.2347 27.0128C11.2234 26.788 11.2066 26.5632 11.1841 26.3384C11.1644 26.1445 11.1476 25.9534 11.1335 25.7651C11.0548 25.9674 10.9762 26.1726 10.8975 26.3805ZM21.9495 34.5831C21.2807 34.9541 20.5079 35.1395 19.6312 35.1395C18.7545 35.1395 18.0323 34.9653 17.3972 34.6169C17.2539 34.5382 17.119 34.4483 16.9897 34.3527L16.0905 35.325L15.3149 34.6169L16.2535 33.6165C16.1327 33.4535 16.0203 33.2793 15.9219 33.091C15.5735 32.4222 15.3992 31.6269 15.3992 30.7052C15.3992 29.7835 15.5819 28.9855 15.9472 28.311C16.3125 27.6366 16.8239 27.114 17.4815 26.743C18.1391 26.3721 18.9062 26.1866 19.7829 26.1866C20.6597 26.1866 21.4353 26.3665 22.076 26.7262C22.2137 26.802 22.3401 26.8891 22.4638 26.9819L23.4079 25.9843L24.2004 26.6924L23.2253 27.7266C23.3489 27.8895 23.467 28.0638 23.5681 28.252C23.9222 28.9096 24.0992 29.6824 24.0992 30.5703C24.0992 31.5033 23.9081 32.3126 23.526 32.9983C23.1438 33.6839 22.6183 34.2122 21.9495 34.5831ZM17.2033 30.6041C17.2033 31.2925 17.3045 31.8686 17.5096 32.3379L21.4325 28.1003C21.2807 27.9626 21.1093 27.8474 20.9126 27.7603C20.5979 27.6198 20.2269 27.5495 19.7998 27.5495C19.2715 27.5495 18.8135 27.6619 18.4257 27.8867C18.0379 28.1115 17.7372 28.4487 17.5236 28.8984C17.3101 29.348 17.2033 29.9156 17.2033 30.6013V30.6041ZM21.9748 32.3744C22.1996 31.9023 22.312 31.3122 22.312 30.6041C22.312 30.1432 22.2586 29.7245 22.1518 29.348C22.1097 29.2018 22.0591 29.0641 22.0029 28.9349L18.0772 33.1725C18.1756 33.2652 18.2767 33.3495 18.3891 33.4198C18.7657 33.6558 19.2069 33.7738 19.7127 33.7738C20.2185 33.7738 20.6653 33.6586 21.0531 33.4282C21.4409 33.1978 21.7472 32.8465 21.972 32.3744H21.9748ZM27.9771 28.6005C28.1064 28.5106 28.2385 28.4263 28.3734 28.3532C28.5476 28.2577 28.7218 28.1762 28.896 28.1087C29.0703 28.0413 29.2473 27.9823 29.4271 27.9317C29.607 27.8811 29.7953 27.8446 29.992 27.8221C30.1887 27.7996 30.3938 27.794 30.6074 27.8052L30.8097 26.2203C30.4388 26.1979 30.0959 26.2288 29.7812 26.3131C29.4665 26.3974 29.1686 26.5266 28.8876 26.7009C28.6066 26.8751 28.3424 27.0859 28.0952 27.3331C28.0558 27.3725 28.0165 27.4174 27.9771 27.4596V26.2035L26.2574 26.4564V34.9709H27.9771V28.6005ZM37.1071 35.0637C36.7642 35.1142 36.368 35.1395 35.9184 35.1395C34.9742 35.1395 34.1762 34.9737 33.5242 34.6422C32.8723 34.3106 32.3805 33.8216 32.0489 33.1753C31.7173 32.529 31.5516 31.745 31.5516 30.8233C31.5516 30.1264 31.6443 29.4941 31.8297 28.9265C32.0152 28.3588 32.285 27.8727 32.6391 27.468C32.9931 27.0634 33.4231 26.7486 33.9289 26.5238C34.4347 26.299 35.0079 26.1866 35.6486 26.1866C36.2893 26.1866 36.8598 26.2934 37.36 26.507C37.8602 26.7205 38.2733 27.0381 38.5992 27.4596C38.9252 27.8811 39.1584 28.3953 39.2989 29.0023C39.4394 29.6093 39.4703 30.3062 39.3917 31.093H33.2994C33.3219 31.523 33.3809 31.8967 33.4821 32.2058C33.6113 32.5992 33.8024 32.9111 34.0553 33.1416C34.3082 33.372 34.6202 33.535 34.9911 33.6305C35.362 33.7261 35.8004 33.7738 36.3062 33.7738C36.5535 33.7738 36.8008 33.7598 37.0481 33.7317C37.2953 33.7036 37.537 33.6586 37.7731 33.5968C38.0091 33.535 38.2367 33.4647 38.4559 33.386C38.6751 33.3074 38.8915 33.2287 39.105 33.15L38.987 34.4483C38.6835 34.6056 38.38 34.7349 38.0766 34.836C37.7731 34.9372 37.4499 35.0131 37.1071 35.0637ZM33.5495 28.9096C33.4455 29.185 33.3781 29.5194 33.3359 29.8959H37.7703C37.7703 29.5587 37.7309 29.2412 37.6466 28.9517C37.5173 28.5021 37.2897 28.1509 36.9638 27.898C36.6378 27.6451 36.205 27.5186 35.6655 27.5186C35.126 27.5186 34.7101 27.6338 34.3504 27.8642C33.9907 28.0947 33.7237 28.4431 33.5495 28.9096ZM53.0992 28.252C53.4477 28.9096 53.6219 29.6824 53.6219 30.5703C53.6219 31.5033 53.4336 32.3126 53.0571 32.9983C52.6805 33.6839 52.155 34.2122 51.4806 34.5831C50.8062 34.9541 50.0306 35.1395 49.1539 35.1395C48.2771 35.1395 47.569 34.9653 46.9283 34.6169C46.2876 34.2684 45.7958 33.7598 45.453 33.091C45.1102 32.4222 44.9388 31.6269 44.9388 30.7052C44.9388 29.7835 45.1214 28.9855 45.4867 28.311C45.852 27.6366 46.3635 27.114 47.021 26.743C47.6786 26.3721 48.4457 26.1866 49.3225 26.1866C50.1992 26.1866 50.9608 26.3665 51.6071 26.7262C52.2534 27.0859 52.7508 27.5945 53.0992 28.252ZM51.8347 30.6041C51.8347 30.1432 51.7841 29.7245 51.6829 29.348C51.5818 28.9714 51.4272 28.6483 51.2193 28.3785C51.0113 28.1087 50.7528 27.9036 50.4437 27.7631C50.1346 27.6226 49.7665 27.5523 49.3393 27.5523C48.7998 27.5523 48.3361 27.6647 47.9484 27.8895C47.5606 28.1143 47.2599 28.4516 47.0463 28.9012C46.8328 29.3508 46.726 29.9184 46.726 30.6041C46.726 31.2897 46.8328 31.8855 47.0463 32.3576C47.2599 32.8297 47.5521 33.1837 47.9231 33.4198C48.294 33.6558 48.7324 33.7738 49.2382 33.7738C49.744 33.7738 50.1936 33.6586 50.587 33.4282C50.9804 33.1978 51.2867 32.8465 51.5059 32.3744C51.7251 31.9023 51.8347 31.3122 51.8347 30.6041ZM61.7009 26.6109L63.3504 26.1866V34.9203C63.3504 35.6622 63.1846 36.317 62.853 36.8846C62.5214 37.4522 62.0297 37.8962 61.3777 38.2166C60.7258 38.5369 59.9221 38.6971 58.9667 38.6971C58.5845 38.6971 58.2136 38.6746 57.8539 38.6297C57.4942 38.5847 57.1486 38.5201 56.817 38.4358C56.4854 38.3515 56.1678 38.2475 55.8643 38.1238L55.6789 36.6401C56.0273 36.7862 56.3814 36.9071 56.7411 37.0026C57.1008 37.0982 57.4577 37.1656 57.8117 37.2049C58.1658 37.2443 58.5114 37.264 58.8486 37.264C59.3545 37.264 59.7844 37.2106 60.1385 37.1038C60.4925 36.997 60.7792 36.834 60.9984 36.6148C61.2175 36.3956 61.3805 36.1259 61.4873 35.8055C61.5941 35.4852 61.6475 35.1114 61.6475 34.6843V34.2234C61.3299 34.4567 61.0096 34.6422 60.6864 34.7686C60.0907 35.0047 59.4893 35.1227 58.8824 35.1227C58.0955 35.1227 57.4267 34.9513 56.876 34.6084C56.3252 34.2656 55.9065 33.7823 55.6199 33.1584C55.3332 32.5346 55.1899 31.7955 55.1899 30.9413C55.1899 30.1769 55.3023 29.4997 55.5271 28.9096C55.7519 28.3195 56.0639 27.8249 56.4629 27.4259C56.8619 27.0268 57.3143 26.7205 57.8202 26.507C58.326 26.2934 58.8599 26.1866 59.4219 26.1866C59.7479 26.1866 60.0514 26.2063 60.3324 26.2456C60.6134 26.285 60.8747 26.3384 61.1164 26.4058C61.3215 26.462 61.5154 26.5323 61.7009 26.6109ZM61.6475 33.0292V27.8895C61.5632 27.8586 61.4761 27.8249 61.3946 27.7968C61.1248 27.7125 60.8607 27.6479 60.6021 27.6029C60.3436 27.5579 60.0795 27.5355 59.8097 27.5355C59.3601 27.5355 58.9582 27.6057 58.6042 27.7462C58.2501 27.8867 57.9522 28.0862 57.7106 28.3448C57.4689 28.6033 57.2834 28.9321 57.1542 29.3311C57.0249 29.7301 56.9603 30.1882 56.9603 30.7052C56.9603 31.4021 57.053 31.9726 57.2385 32.4166C57.4239 32.8606 57.7106 33.1922 58.0984 33.4113C58.4861 33.6305 58.9723 33.7401 59.5568 33.7401C59.7704 33.7401 59.9755 33.7176 60.1722 33.6727C60.3689 33.6277 60.5712 33.5631 60.7792 33.4788C60.9871 33.3945 61.2035 33.2877 61.4283 33.1584C61.4986 33.1191 61.5744 33.0741 61.6475 33.0292ZM6.57558 47.6837L9.37442 51.8314H7.31744L4.33314 47.2453H1.75349V51.8314H0V39.8605H4.83895C5.81686 39.8605 6.59525 40.0206 7.17413 40.341C7.753 40.6613 8.1689 41.0913 8.4218 41.6308C8.67471 42.1704 8.80116 42.7661 8.80116 43.418C8.80116 44.0025 8.70562 44.5168 8.51453 44.9608C8.32345 45.4047 8.0593 45.7757 7.72209 46.0735C7.38488 46.3714 6.98866 46.5934 6.53343 46.7395C6.32267 46.807 6.10068 46.8576 5.87025 46.8941L6.57277 47.6837H6.57558ZM4.46802 41.3273H1.75349V45.7954H4.2657C4.82771 45.7954 5.31386 45.7195 5.72413 45.5677C6.1344 45.416 6.44913 45.1687 6.66831 44.8259C6.8875 44.483 6.99709 44.0362 6.99709 43.4855C6.99709 42.9909 6.90717 42.5834 6.72733 42.2631C6.54748 41.9427 6.27209 41.7067 5.90116 41.5549C5.53023 41.4032 5.05252 41.3273 4.46802 41.3273ZM18.4959 45.1125C18.8444 45.7701 19.0186 46.5428 19.0186 47.4308C19.0186 48.3638 18.8303 49.1731 18.4538 49.8587C18.0772 50.5444 17.5517 51.0727 16.8773 51.4436C16.2029 51.8145 15.4273 52 14.5506 52C13.6738 52 12.9657 51.8258 12.325 51.4773C11.6843 51.1289 11.1925 50.6203 10.8497 49.9515C10.5069 49.2827 10.3355 48.4874 10.3355 47.5657C10.3355 46.644 10.5181 45.8459 10.8834 45.1715C11.2487 44.4971 11.7602 43.9744 12.4177 43.6035C13.0753 43.2326 13.8424 43.0471 14.7192 43.0471C15.5959 43.0471 16.3575 43.2269 17.0038 43.5866C17.6501 43.9463 18.1475 44.4549 18.4959 45.1125ZM17.2314 47.4645C17.2314 47.0037 17.1808 46.585 17.0797 46.2084C16.9785 45.8319 16.8239 45.5087 16.616 45.239C16.408 44.9692 16.1495 44.7641 15.8404 44.6235C15.5313 44.483 15.1632 44.4128 14.736 44.4128C14.1965 44.4128 13.7329 44.5252 13.3451 44.75C12.9573 44.9748 12.6566 45.312 12.443 45.7616C12.2295 46.2112 12.1227 46.7789 12.1227 47.4645C12.1227 48.1502 12.2295 48.7459 12.443 49.218C12.6566 49.6901 12.9488 50.0442 13.3198 50.2802C13.6907 50.5163 14.1291 50.6343 14.6349 50.6343C15.1407 50.6343 15.5903 50.5191 15.9837 50.2887C16.3771 50.0582 16.6834 49.707 16.9026 49.2349C17.1218 48.7628 17.2314 48.1727 17.2314 47.4645ZM32.7599 43.4012C32.3552 43.1651 31.855 43.0471 31.2593 43.0471C30.7985 43.0471 30.3545 43.123 29.9273 43.2747C29.5002 43.4265 29.0955 43.6428 28.7134 43.9238C28.5054 44.0756 28.3059 44.247 28.1148 44.4297C27.9181 43.9829 27.6315 43.6428 27.2465 43.418C26.8419 43.182 26.336 43.064 25.7291 43.064C25.2795 43.064 24.8383 43.1398 24.4055 43.2916C23.9728 43.4433 23.5653 43.6569 23.1831 43.9323C23.0623 44.0194 22.9443 44.1149 22.8291 44.2133V43.064L21.1093 43.3169V51.8314H22.8291V45.4188C23.0342 45.2867 23.245 45.1631 23.4613 45.0619C23.7367 44.9327 24.0149 44.8343 24.2959 44.7669C24.5769 44.6994 24.8467 44.6657 25.1052 44.6657C25.3975 44.6657 25.642 44.7079 25.8387 44.7922C26.0354 44.8765 26.2012 45.0001 26.336 45.1631C26.4709 45.3261 26.5693 45.5396 26.6311 45.8038C26.6929 46.0679 26.7238 46.3742 26.7238 46.7227V51.8314H28.4436V46.3686C28.4436 46.0173 28.4211 45.697 28.379 45.4048C28.5785 45.2755 28.778 45.1575 28.9831 45.0535C29.2529 44.9186 29.5283 44.8174 29.8093 44.75C30.0903 44.6826 30.3657 44.6488 30.6355 44.6488C30.9052 44.6488 31.1581 44.691 31.3605 44.7753C31.5628 44.8596 31.7314 44.9832 31.8663 45.1462C32.0012 45.3092 32.0995 45.5228 32.1613 45.7869C32.2232 46.0511 32.2541 46.3574 32.2541 46.7058V51.8314H33.9738V46.3517C33.9738 45.5874 33.8727 44.9636 33.6703 44.4802C33.468 43.9969 33.1645 43.6372 32.7599 43.4012ZM41.8477 47.9535C41.6791 47.7736 41.4824 47.6191 41.2576 47.4898C41.0328 47.3606 40.7967 47.251 40.5494 47.161C40.3696 47.1048 40.1925 47.0458 40.0183 46.984C39.8441 46.9222 39.6699 46.866 39.4956 46.8154C39.3214 46.7648 39.1528 46.7114 38.9898 46.6552C38.8268 46.599 38.6779 46.5372 38.543 46.4698C38.3969 46.3911 38.2648 46.3068 38.1468 46.2169C38.0288 46.1269 37.9332 46.0202 37.8602 45.8965C37.7871 45.7729 37.7506 45.6324 37.7506 45.475C37.7506 45.2952 37.7899 45.1406 37.8686 45.0113C37.9473 44.8821 38.0653 44.7725 38.2227 44.6826C38.38 44.5926 38.5683 44.5252 38.7875 44.4802C39.0067 44.4353 39.2568 44.4128 39.5378 44.4128C39.6614 44.4128 39.7963 44.4184 39.9424 44.4297C40.0886 44.4409 40.2487 44.4606 40.423 44.4887C40.5972 44.5168 40.7714 44.5533 40.9456 44.5983C41.1199 44.6432 41.2969 44.6938 41.4767 44.75C41.6566 44.8062 41.8196 44.868 41.9657 44.9355L42.0837 43.5698C41.8702 43.4798 41.6594 43.4012 41.4515 43.3337C41.2435 43.2663 41.0328 43.2101 40.8192 43.1651C40.6056 43.1202 40.3949 43.0892 40.1869 43.0724C39.979 43.0555 39.7738 43.0471 39.5715 43.0471C39.0657 43.0471 38.6048 43.1005 38.189 43.2073C37.7731 43.3141 37.4106 43.4714 37.1015 43.6794C36.7923 43.8873 36.5535 44.1515 36.3849 44.4718C36.2163 44.7922 36.132 45.1715 36.132 45.6099C36.132 45.9246 36.1769 46.2028 36.2669 46.4445C36.3568 46.6861 36.4748 46.8913 36.6209 47.0599C36.7671 47.2285 36.9385 47.3774 37.1352 47.5067C37.3319 47.636 37.5426 47.7455 37.7674 47.8355C37.8911 47.8804 38.0204 47.9254 38.1552 47.9704C38.2901 48.0153 38.4222 48.0575 38.5515 48.0968C38.6807 48.1361 38.8072 48.1755 38.9308 48.2148C39.0545 48.2542 39.1753 48.2935 39.2933 48.3329C39.4113 48.3722 39.5266 48.4087 39.639 48.4424C39.7963 48.4986 39.9424 48.5633 40.0773 48.6363C40.2122 48.7094 40.3274 48.7881 40.423 48.8724C40.5185 48.9567 40.5916 49.055 40.6422 49.1674C40.6927 49.2798 40.718 49.4035 40.718 49.5384C40.718 49.8194 40.6253 50.0414 40.4398 50.2044C40.2544 50.3673 40.0127 50.4826 39.7148 50.55C39.417 50.6174 39.0994 50.6512 38.7622 50.6512C38.5824 50.6512 38.3829 50.6371 38.1637 50.609C37.9445 50.5809 37.7141 50.5416 37.4724 50.491C37.2307 50.4404 36.9834 50.3786 36.7305 50.3055C36.4776 50.2325 36.2219 50.151 35.9634 50.061L36.0308 51.4942C36.3231 51.5954 36.59 51.6768 36.8317 51.7387C37.0734 51.8005 37.3038 51.8539 37.523 51.8988C37.7422 51.9438 37.9557 51.9719 38.1637 51.9831C38.3716 51.9944 38.5824 52 38.7959 52C39.2905 52 39.757 51.9522 40.1954 51.8567C40.6337 51.7611 41.0159 51.6122 41.3419 51.4099C41.6678 51.2076 41.9235 50.9434 42.109 50.6174C42.2945 50.2915 42.3872 49.9037 42.3872 49.4541C42.3872 49.1169 42.3394 48.8274 42.2439 48.5858C42.1484 48.3441 42.0163 48.1333 41.8477 47.9535ZM50.3285 39.3547L52.0483 39.1186V51.8314H50.6488L50.4381 51.053C50.3116 51.1457 50.1852 51.2328 50.0587 51.3087C49.6766 51.5448 49.286 51.719 48.8869 51.8314C48.4879 51.9438 48.0636 52 47.614 52C46.8384 52 46.1724 51.8286 45.616 51.4858C45.0596 51.1429 44.6325 50.6568 44.3346 50.0273C44.0367 49.3979 43.8878 48.6504 43.8878 47.7849C43.8878 46.7733 44.0845 45.9162 44.4779 45.2137C44.8713 44.5111 45.3912 43.9744 46.0375 43.6035C46.6838 43.2326 47.3835 43.0471 48.1366 43.0471C48.5638 43.0471 48.9544 43.0836 49.3084 43.1567C49.6625 43.2297 49.9857 43.3225 50.2779 43.4349C50.2948 43.4405 50.3116 43.4489 50.3285 43.4574V39.3547ZM50.3285 49.9458V44.75C50.2414 44.7163 50.1486 44.6826 50.0672 44.6573C49.803 44.573 49.5417 44.5111 49.2831 44.4718C49.0246 44.4325 48.7548 44.4128 48.4738 44.4128C47.8893 44.4128 47.3863 44.5336 46.9648 44.7753C46.5433 45.017 46.2202 45.371 45.9953 45.8375C45.7705 46.304 45.6581 46.8857 45.6581 47.5826C45.6581 48.2795 45.7593 48.8387 45.9616 49.2939C46.164 49.7491 46.4562 50.0863 46.8384 50.3055C47.2205 50.5247 47.6814 50.6343 48.2209 50.6343C48.5806 50.6343 48.9825 50.5528 49.4265 50.3898C49.7103 50.2859 50.011 50.1341 50.3285 49.9458ZM62.2151 50.7523C62.305 50.7411 62.4006 50.7186 62.5017 50.6849L62.3163 51.8145C62.2601 51.837 62.1954 51.8567 62.1224 51.8735C62.0493 51.8904 61.9678 51.9101 61.8779 51.9326C61.788 51.955 61.6953 51.9691 61.5997 51.9747C61.5042 51.9803 61.4058 51.9831 61.3047 51.9831C60.945 51.9831 60.6246 51.9241 60.3436 51.8061C60.0626 51.6881 59.8434 51.497 59.686 51.2329C59.6017 51.0923 59.5427 50.9266 59.5034 50.7355C59.3966 50.8591 59.287 50.9799 59.1718 51.0895C58.8627 51.3818 58.5086 51.6066 58.1096 51.764C57.7106 51.9213 57.2357 52 56.6849 52C56.0891 52 55.5918 51.8876 55.1927 51.6628C54.7937 51.438 54.4958 51.1429 54.2991 50.7776C54.1024 50.4123 54.0041 50.0161 54.0041 49.589C54.0041 49.1393 54.1305 48.7263 54.3834 48.3497C54.6363 47.9732 55.0213 47.6612 55.5384 47.414C56.0554 47.1667 56.7074 47.0205 57.4942 46.9756L59.4641 46.8435V46.422C59.4641 46.096 59.4331 45.8122 59.3657 45.5705C59.2983 45.3289 59.1859 45.1294 59.0285 44.972C58.8711 44.8146 58.6548 44.6966 58.3794 44.6179C58.104 44.5392 57.764 44.4999 57.3593 44.4999C57.1345 44.4999 56.9069 44.5083 56.6765 44.5252C56.446 44.5421 56.2128 44.573 55.9767 44.6179C55.7407 44.6629 55.4962 44.7191 55.2433 44.7865C54.9904 44.854 54.7235 44.9383 54.4424 45.0394L54.6448 43.6063C54.9258 43.4939 55.2208 43.3955 55.5299 43.3112C55.8391 43.2269 56.1678 43.1623 56.5163 43.1173C56.8647 43.0724 57.2188 43.0499 57.5785 43.0499C58.0731 43.0499 58.5171 43.0949 58.9105 43.1848C59.3039 43.2747 59.6439 43.404 59.9305 43.5726C60.2172 43.7412 60.4504 43.9491 60.6302 44.1964C60.8101 44.4437 60.945 44.7303 61.0349 45.0563C61.1248 45.3823 61.1698 45.742 61.1698 46.1354L61.136 49.6086C61.1248 50.0245 61.1866 50.3224 61.3215 50.5022C61.4564 50.6821 61.6756 50.772 61.9791 50.772C62.0465 50.772 62.1252 50.7664 62.2151 50.7551V50.7523ZM59.4528 49.7435L59.4612 48.0687H57.986C57.4352 48.0687 56.9968 48.1137 56.6708 48.2036C56.3449 48.2935 56.1088 48.434 55.9627 48.6251C55.8166 48.8162 55.7435 49.0803 55.7435 49.4175C55.7435 49.6761 55.7997 49.8981 55.9121 50.0835C56.0245 50.269 56.1903 50.4123 56.4095 50.5135C56.6287 50.6146 56.8956 50.6652 57.2104 50.6652C57.4577 50.6652 57.6965 50.6427 57.9269 50.5978C58.1574 50.5528 58.3766 50.4797 58.5845 50.3786C58.7924 50.2774 58.9892 50.1538 59.1746 50.0077C59.273 49.929 59.3657 49.8391 59.4556 49.7435H59.4528ZM66.9361 50.5641C66.8686 50.5753 66.8096 50.5837 66.759 50.5893C66.7084 50.595 66.6494 50.5978 66.582 50.5978C66.4359 50.5978 66.3122 50.5753 66.2111 50.5303C66.1099 50.4854 66.0256 50.4151 65.9581 50.3196C65.8907 50.224 65.8429 50.1032 65.8148 49.9571C65.7867 49.811 65.7727 49.6367 65.7727 49.4344V39.0989L64.0529 39.3518V50.1931C64.0529 50.5191 64.0979 50.7973 64.1878 51.0277C64.2777 51.2581 64.407 51.4464 64.5756 51.5925C64.7442 51.7387 64.9437 51.8426 65.1741 51.9045C65.4046 51.9663 65.6547 51.9972 65.9244 51.9972C66.0593 51.9972 66.1886 51.9916 66.3122 51.9803C66.4359 51.9691 66.5567 51.9522 66.6747 51.9297C66.7927 51.9073 66.8911 51.8848 66.9698 51.8623L67.1384 50.5303C67.0709 50.5416 67.0035 50.5528 66.9361 50.5641Z" fill="#9FDAF5"/>
</g>
<g clip-path="url(#clip1_5918_1754)">
<path d="M10.8975 26.3805C10.8188 26.5885 10.7401 26.7936 10.6614 26.9959L7.55911 34.9709H6.00795L2.88876 26.9622C2.81008 26.7486 2.72859 26.5379 2.64428 26.3299C2.56279 26.1276 2.48411 25.9225 2.40543 25.7145C2.38857 25.9365 2.37171 26.1529 2.35766 26.3637C2.34079 26.5828 2.32112 26.8048 2.29864 27.0297L1.65795 34.9709H0.0562016L1.16899 23H3.12481L6.42946 31.4808C6.50814 31.6494 6.5812 31.8208 6.64864 31.9951C6.71609 32.1693 6.78353 32.3463 6.85097 32.5262C6.87064 32.5824 6.89312 32.6358 6.91279 32.6891C6.9437 32.6161 6.9718 32.5374 7.00271 32.4672C7.07016 32.3042 7.13479 32.1356 7.19661 31.9613C7.25843 31.7871 7.32306 31.6101 7.3905 31.4302L10.6614 23H12.5835L13.5952 34.9709H11.8417L11.2347 27.0128C11.2234 26.788 11.2066 26.5632 11.1841 26.3384C11.1644 26.1445 11.1476 25.9534 11.1335 25.7651C11.0548 25.9674 10.9762 26.1726 10.8975 26.3805ZM21.9495 34.5831C21.2807 34.9541 20.5079 35.1395 19.6312 35.1395C18.7545 35.1395 18.0323 34.9653 17.3972 34.6169C17.2539 34.5382 17.119 34.4483 16.9897 34.3527L16.0905 35.325L15.3149 34.6169L16.2535 33.6165C16.1327 33.4535 16.0203 33.2793 15.9219 33.091C15.5735 32.4222 15.3992 31.6269 15.3992 30.7052C15.3992 29.7835 15.5819 28.9855 15.9472 28.311C16.3125 27.6366 16.8239 27.114 17.4815 26.743C18.1391 26.3721 18.9062 26.1866 19.7829 26.1866C20.6597 26.1866 21.4353 26.3665 22.076 26.7262C22.2137 26.802 22.3401 26.8891 22.4638 26.9819L23.4079 25.9843L24.2004 26.6924L23.2253 27.7266C23.3489 27.8895 23.467 28.0638 23.5681 28.252C23.9222 28.9096 24.0992 29.6824 24.0992 30.5703C24.0992 31.5033 23.9081 32.3126 23.526 32.9983C23.1438 33.6839 22.6183 34.2122 21.9495 34.5831ZM17.2033 30.6041C17.2033 31.2925 17.3045 31.8686 17.5096 32.3379L21.4325 28.1003C21.2807 27.9626 21.1093 27.8474 20.9126 27.7603C20.5979 27.6198 20.2269 27.5495 19.7998 27.5495C19.2715 27.5495 18.8135 27.6619 18.4257 27.8867C18.0379 28.1115 17.7372 28.4487 17.5236 28.8984C17.3101 29.348 17.2033 29.9156 17.2033 30.6013V30.6041ZM21.9748 32.3744C22.1996 31.9023 22.312 31.3122 22.312 30.6041C22.312 30.1432 22.2586 29.7245 22.1518 29.348C22.1097 29.2018 22.0591 29.0641 22.0029 28.9349L18.0772 33.1725C18.1756 33.2652 18.2767 33.3495 18.3891 33.4198C18.7657 33.6558 19.2069 33.7738 19.7127 33.7738C20.2185 33.7738 20.6653 33.6586 21.0531 33.4282C21.4409 33.1978 21.7472 32.8465 21.972 32.3744H21.9748ZM27.9771 28.6005C28.1064 28.5106 28.2385 28.4263 28.3734 28.3532C28.5476 28.2577 28.7218 28.1762 28.896 28.1087C29.0703 28.0413 29.2473 27.9823 29.4271 27.9317C29.607 27.8811 29.7953 27.8446 29.992 27.8221C30.1887 27.7996 30.3938 27.794 30.6074 27.8052L30.8097 26.2203C30.4388 26.1979 30.0959 26.2288 29.7812 26.3131C29.4665 26.3974 29.1686 26.5266 28.8876 26.7009C28.6066 26.8751 28.3424 27.0859 28.0952 27.3331C28.0558 27.3725 28.0165 27.4174 27.9771 27.4596V26.2035L26.2574 26.4564V34.9709H27.9771V28.6005ZM37.1071 35.0637C36.7642 35.1142 36.368 35.1395 35.9184 35.1395C34.9742 35.1395 34.1762 34.9737 33.5242 34.6422C32.8723 34.3106 32.3805 33.8216 32.0489 33.1753C31.7173 32.529 31.5516 31.745 31.5516 30.8233C31.5516 30.1264 31.6443 29.4941 31.8297 28.9265C32.0152 28.3588 32.285 27.8727 32.6391 27.468C32.9931 27.0634 33.4231 26.7486 33.9289 26.5238C34.4347 26.299 35.0079 26.1866 35.6486 26.1866C36.2893 26.1866 36.8598 26.2934 37.36 26.507C37.8602 26.7205 38.2733 27.0381 38.5992 27.4596C38.9252 27.8811 39.1584 28.3953 39.2989 29.0023C39.4394 29.6093 39.4703 30.3062 39.3917 31.093H33.2994C33.3219 31.523 33.3809 31.8967 33.4821 32.2058C33.6113 32.5992 33.8024 32.9111 34.0553 33.1416C34.3082 33.372 34.6202 33.535 34.9911 33.6305C35.362 33.7261 35.8004 33.7738 36.3062 33.7738C36.5535 33.7738 36.8008 33.7598 37.0481 33.7317C37.2953 33.7036 37.537 33.6586 37.7731 33.5968C38.0091 33.535 38.2367 33.4647 38.4559 33.386C38.6751 33.3074 38.8915 33.2287 39.105 33.15L38.987 34.4483C38.6835 34.6056 38.38 34.7349 38.0766 34.836C37.7731 34.9372 37.4499 35.0131 37.1071 35.0637ZM33.5495 28.9096C33.4455 29.185 33.3781 29.5194 33.3359 29.8959H37.7703C37.7703 29.5587 37.7309 29.2412 37.6466 28.9517C37.5173 28.5021 37.2897 28.1509 36.9638 27.898C36.6378 27.6451 36.205 27.5186 35.6655 27.5186C35.126 27.5186 34.7101 27.6338 34.3504 27.8642C33.9907 28.0947 33.7237 28.4431 33.5495 28.9096ZM53.0992 28.252C53.4477 28.9096 53.6219 29.6824 53.6219 30.5703C53.6219 31.5033 53.4336 32.3126 53.0571 32.9983C52.6805 33.6839 52.155 34.2122 51.4806 34.5831C50.8062 34.9541 50.0306 35.1395 49.1539 35.1395C48.2771 35.1395 47.569 34.9653 46.9283 34.6169C46.2876 34.2684 45.7958 33.7598 45.453 33.091C45.1102 32.4222 44.9388 31.6269 44.9388 30.7052C44.9388 29.7835 45.1214 28.9855 45.4867 28.311C45.852 27.6366 46.3635 27.114 47.021 26.743C47.6786 26.3721 48.4457 26.1866 49.3225 26.1866C50.1992 26.1866 50.9608 26.3665 51.6071 26.7262C52.2534 27.0859 52.7508 27.5945 53.0992 28.252ZM51.8347 30.6041C51.8347 30.1432 51.7841 29.7245 51.6829 29.348C51.5818 28.9714 51.4272 28.6483 51.2193 28.3785C51.0113 28.1087 50.7528 27.9036 50.4437 27.7631C50.1346 27.6226 49.7665 27.5523 49.3393 27.5523C48.7998 27.5523 48.3361 27.6647 47.9484 27.8895C47.5606 28.1143 47.2599 28.4516 47.0463 28.9012C46.8328 29.3508 46.726 29.9184 46.726 30.6041C46.726 31.2897 46.8328 31.8855 47.0463 32.3576C47.2599 32.8297 47.5521 33.1837 47.9231 33.4198C48.294 33.6558 48.7324 33.7738 49.2382 33.7738C49.744 33.7738 50.1936 33.6586 50.587 33.4282C50.9804 33.1978 51.2867 32.8465 51.5059 32.3744C51.7251 31.9023 51.8347 31.3122 51.8347 30.6041ZM61.7009 26.6109L63.3504 26.1866V34.9203C63.3504 35.6622 63.1846 36.317 62.853 36.8846C62.5214 37.4522 62.0297 37.8962 61.3777 38.2166C60.7258 38.5369 59.9221 38.6971 58.9667 38.6971C58.5845 38.6971 58.2136 38.6746 57.8539 38.6297C57.4942 38.5847 57.1486 38.5201 56.817 38.4358C56.4854 38.3515 56.1678 38.2475 55.8643 38.1238L55.6789 36.6401C56.0273 36.7862 56.3814 36.9071 56.7411 37.0026C57.1008 37.0982 57.4577 37.1656 57.8117 37.2049C58.1658 37.2443 58.5114 37.264 58.8486 37.264C59.3545 37.264 59.7844 37.2106 60.1385 37.1038C60.4925 36.997 60.7792 36.834 60.9984 36.6148C61.2175 36.3956 61.3805 36.1259 61.4873 35.8055C61.5941 35.4852 61.6475 35.1114 61.6475 34.6843V34.2234C61.3299 34.4567 61.0096 34.6422 60.6864 34.7686C60.0907 35.0047 59.4893 35.1227 58.8824 35.1227C58.0955 35.1227 57.4267 34.9513 56.876 34.6084C56.3252 34.2656 55.9065 33.7823 55.6199 33.1584C55.3332 32.5346 55.1899 31.7955 55.1899 30.9413C55.1899 30.1769 55.3023 29.4997 55.5271 28.9096C55.7519 28.3195 56.0639 27.8249 56.4629 27.4259C56.8619 27.0268 57.3143 26.7205 57.8202 26.507C58.326 26.2934 58.8599 26.1866 59.4219 26.1866C59.7479 26.1866 60.0514 26.2063 60.3324 26.2456C60.6134 26.285 60.8747 26.3384 61.1164 26.4058C61.3215 26.462 61.5154 26.5323 61.7009 26.6109ZM61.6475 33.0292V27.8895C61.5632 27.8586 61.4761 27.8249 61.3946 27.7968C61.1248 27.7125 60.8607 27.6479 60.6021 27.6029C60.3436 27.5579 60.0795 27.5355 59.8097 27.5355C59.3601 27.5355 58.9582 27.6057 58.6042 27.7462C58.2501 27.8867 57.9522 28.0862 57.7106 28.3448C57.4689 28.6033 57.2834 28.9321 57.1542 29.3311C57.0249 29.7301 56.9603 30.1882 56.9603 30.7052C56.9603 31.4021 57.053 31.9726 57.2385 32.4166C57.4239 32.8606 57.7106 33.1922 58.0984 33.4113C58.4861 33.6305 58.9723 33.7401 59.5568 33.7401C59.7704 33.7401 59.9755 33.7176 60.1722 33.6727C60.3689 33.6277 60.5712 33.5631 60.7792 33.4788C60.9871 33.3945 61.2035 33.2877 61.4283 33.1584C61.4986 33.1191 61.5744 33.0741 61.6475 33.0292ZM6.57558 47.6837L9.37442 51.8314H7.31744L4.33314 47.2453H1.75349V51.8314H0V39.8605H4.83895C5.81686 39.8605 6.59525 40.0206 7.17413 40.341C7.753 40.6613 8.1689 41.0913 8.4218 41.6308C8.67471 42.1704 8.80116 42.7661 8.80116 43.418C8.80116 44.0025 8.70562 44.5168 8.51453 44.9608C8.32345 45.4047 8.0593 45.7757 7.72209 46.0735C7.38488 46.3714 6.98866 46.5934 6.53343 46.7395C6.32267 46.807 6.10068 46.8576 5.87025 46.8941L6.57277 47.6837H6.57558ZM4.46802 41.3273H1.75349V45.7954H4.2657C4.82771 45.7954 5.31386 45.7195 5.72413 45.5677C6.1344 45.416 6.44913 45.1687 6.66831 44.8259C6.8875 44.483 6.99709 44.0362 6.99709 43.4855C6.99709 42.9909 6.90717 42.5834 6.72733 42.2631C6.54748 41.9427 6.27209 41.7067 5.90116 41.5549C5.53023 41.4032 5.05252 41.3273 4.46802 41.3273ZM18.4959 45.1125C18.8444 45.7701 19.0186 46.5428 19.0186 47.4308C19.0186 48.3638 18.8303 49.1731 18.4538 49.8587C18.0772 50.5444 17.5517 51.0727 16.8773 51.4436C16.2029 51.8145 15.4273 52 14.5506 52C13.6738 52 12.9657 51.8258 12.325 51.4773C11.6843 51.1289 11.1925 50.6203 10.8497 49.9515C10.5069 49.2827 10.3355 48.4874 10.3355 47.5657C10.3355 46.644 10.5181 45.8459 10.8834 45.1715C11.2487 44.4971 11.7602 43.9744 12.4177 43.6035C13.0753 43.2326 13.8424 43.0471 14.7192 43.0471C15.5959 43.0471 16.3575 43.2269 17.0038 43.5866C17.6501 43.9463 18.1475 44.4549 18.4959 45.1125ZM17.2314 47.4645C17.2314 47.0037 17.1808 46.585 17.0797 46.2084C16.9785 45.8319 16.8239 45.5087 16.616 45.239C16.408 44.9692 16.1495 44.7641 15.8404 44.6235C15.5313 44.483 15.1632 44.4128 14.736 44.4128C14.1965 44.4128 13.7329 44.5252 13.3451 44.75C12.9573 44.9748 12.6566 45.312 12.443 45.7616C12.2295 46.2112 12.1227 46.7789 12.1227 47.4645C12.1227 48.1502 12.2295 48.7459 12.443 49.218C12.6566 49.6901 12.9488 50.0442 13.3198 50.2802C13.6907 50.5163 14.1291 50.6343 14.6349 50.6343C15.1407 50.6343 15.5903 50.5191 15.9837 50.2887C16.3771 50.0582 16.6834 49.707 16.9026 49.2349C17.1218 48.7628 17.2314 48.1727 17.2314 47.4645ZM32.7599 43.4012C32.3552 43.1651 31.855 43.0471 31.2593 43.0471C30.7985 43.0471 30.3545 43.123 29.9273 43.2747C29.5002 43.4265 29.0955 43.6428 28.7134 43.9238C28.5054 44.0756 28.3059 44.247 28.1148 44.4297C27.9181 43.9829 27.6315 43.6428 27.2465 43.418C26.8419 43.182 26.336 43.064 25.7291 43.064C25.2795 43.064 24.8383 43.1398 24.4055 43.2916C23.9728 43.4433 23.5653 43.6569 23.1831 43.9323C23.0623 44.0194 22.9443 44.1149 22.8291 44.2133V43.064L21.1093 43.3169V51.8314H22.8291V45.4188C23.0342 45.2867 23.245 45.1631 23.4613 45.0619C23.7367 44.9327 24.0149 44.8343 24.2959 44.7669C24.5769 44.6994 24.8467 44.6657 25.1052 44.6657C25.3975 44.6657 25.642 44.7079 25.8387 44.7922C26.0354 44.8765 26.2012 45.0001 26.336 45.1631C26.4709 45.3261 26.5693 45.5396 26.6311 45.8038C26.6929 46.0679 26.7238 46.3742 26.7238 46.7227V51.8314H28.4436V46.3686C28.4436 46.0173 28.4211 45.697 28.379 45.4048C28.5785 45.2755 28.778 45.1575 28.9831 45.0535C29.2529 44.9186 29.5283 44.8174 29.8093 44.75C30.0903 44.6826 30.3657 44.6488 30.6355 44.6488C30.9052 44.6488 31.1581 44.691 31.3605 44.7753C31.5628 44.8596 31.7314 44.9832 31.8663 45.1462C32.0012 45.3092 32.0995 45.5228 32.1613 45.7869C32.2232 46.0511 32.2541 46.3574 32.2541 46.7058V51.8314H33.9738V46.3517C33.9738 45.5874 33.8727 44.9636 33.6703 44.4802C33.468 43.9969 33.1645 43.6372 32.7599 43.4012ZM41.8477 47.9535C41.6791 47.7736 41.4824 47.6191 41.2576 47.4898C41.0328 47.3606 40.7967 47.251 40.5494 47.161C40.3696 47.1048 40.1925 47.0458 40.0183 46.984C39.8441 46.9222 39.6699 46.866 39.4956 46.8154C39.3214 46.7648 39.1528 46.7114 38.9898 46.6552C38.8268 46.599 38.6779 46.5372 38.543 46.4698C38.3969 46.3911 38.2648 46.3068 38.1468 46.2169C38.0288 46.1269 37.9332 46.0202 37.8602 45.8965C37.7871 45.7729 37.7506 45.6324 37.7506 45.475C37.7506 45.2952 37.7899 45.1406 37.8686 45.0113C37.9473 44.8821 38.0653 44.7725 38.2227 44.6826C38.38 44.5926 38.5683 44.5252 38.7875 44.4802C39.0067 44.4353 39.2568 44.4128 39.5378 44.4128C39.6614 44.4128 39.7963 44.4184 39.9424 44.4297C40.0886 44.4409 40.2487 44.4606 40.423 44.4887C40.5972 44.5168 40.7714 44.5533 40.9456 44.5983C41.1199 44.6432 41.2969 44.6938 41.4767 44.75C41.6566 44.8062 41.8196 44.868 41.9657 44.9355L42.0837 43.5698C41.8702 43.4798 41.6594 43.4012 41.4515 43.3337C41.2435 43.2663 41.0328 43.2101 40.8192 43.1651C40.6056 43.1202 40.3949 43.0892 40.1869 43.0724C39.979 43.0555 39.7738 43.0471 39.5715 43.0471C39.0657 43.0471 38.6048 43.1005 38.189 43.2073C37.7731 43.3141 37.4106 43.4714 37.1015 43.6794C36.7923 43.8873 36.5535 44.1515 36.3849 44.4718C36.2163 44.7922 36.132 45.1715 36.132 45.6099C36.132 45.9246 36.1769 46.2028 36.2669 46.4445C36.3568 46.6861 36.4748 46.8913 36.6209 47.0599C36.7671 47.2285 36.9385 47.3774 37.1352 47.5067C37.3319 47.636 37.5426 47.7455 37.7674 47.8355C37.8911 47.8804 38.0204 47.9254 38.1552 47.9704C38.2901 48.0153 38.4222 48.0575 38.5515 48.0968C38.6807 48.1361 38.8072 48.1755 38.9308 48.2148C39.0545 48.2542 39.1753 48.2935 39.2933 48.3329C39.4113 48.3722 39.5266 48.4087 39.639 48.4424C39.7963 48.4986 39.9424 48.5633 40.0773 48.6363C40.2122 48.7094 40.3274 48.7881 40.423 48.8724C40.5185 48.9567 40.5916 49.055 40.6422 49.1674C40.6927 49.2798 40.718 49.4035 40.718 49.5384C40.718 49.8194 40.6253 50.0414 40.4398 50.2044C40.2544 50.3673 40.0127 50.4826 39.7148 50.55C39.417 50.6174 39.0994 50.6512 38.7622 50.6512C38.5824 50.6512 38.3829 50.6371 38.1637 50.609C37.9445 50.5809 37.7141 50.5416 37.4724 50.491C37.2307 50.4404 36.9834 50.3786 36.7305 50.3055C36.4776 50.2325 36.2219 50.151 35.9634 50.061L36.0308 51.4942C36.3231 51.5954 36.59 51.6768 36.8317 51.7387C37.0734 51.8005 37.3038 51.8539 37.523 51.8988C37.7422 51.9438 37.9557 51.9719 38.1637 51.9831C38.3716 51.9944 38.5824 52 38.7959 52C39.2905 52 39.757 51.9522 40.1954 51.8567C40.6337 51.7611 41.0159 51.6122 41.3419 51.4099C41.6678 51.2076 41.9235 50.9434 42.109 50.6174C42.2945 50.2915 42.3872 49.9037 42.3872 49.4541C42.3872 49.1169 42.3394 48.8274 42.2439 48.5858C42.1484 48.3441 42.0163 48.1333 41.8477 47.9535ZM50.3285 39.3547L52.0483 39.1186V51.8314H50.6488L50.4381 51.053C50.3116 51.1457 50.1852 51.2328 50.0587 51.3087C49.6766 51.5448 49.286 51.719 48.8869 51.8314C48.4879 51.9438 48.0636 52 47.614 52C46.8384 52 46.1724 51.8286 45.616 51.4858C45.0596 51.1429 44.6325 50.6568 44.3346 50.0273C44.0367 49.3979 43.8878 48.6504 43.8878 47.7849C43.8878 46.7733 44.0845 45.9162 44.4779 45.2137C44.8713 44.5111 45.3912 43.9744 46.0375 43.6035C46.6838 43.2326 47.3835 43.0471 48.1366 43.0471C48.5638 43.0471 48.9544 43.0836 49.3084 43.1567C49.6625 43.2297 49.9857 43.3225 50.2779 43.4349C50.2948 43.4405 50.3116 43.4489 50.3285 43.4574V39.3547ZM50.3285 49.9458V44.75C50.2414 44.7163 50.1486 44.6826 50.0672 44.6573C49.803 44.573 49.5417 44.5111 49.2831 44.4718C49.0246 44.4325 48.7548 44.4128 48.4738 44.4128C47.8893 44.4128 47.3863 44.5336 46.9648 44.7753C46.5433 45.017 46.2202 45.371 45.9953 45.8375C45.7705 46.304 45.6581 46.8857 45.6581 47.5826C45.6581 48.2795 45.7593 48.8387 45.9616 49.2939C46.164 49.7491 46.4562 50.0863 46.8384 50.3055C47.2205 50.5247 47.6814 50.6343 48.2209 50.6343C48.5806 50.6343 48.9825 50.5528 49.4265 50.3898C49.7103 50.2859 50.011 50.1341 50.3285 49.9458ZM62.2151 50.7523C62.305 50.7411 62.4006 50.7186 62.5017 50.6849L62.3163 51.8145C62.2601 51.837 62.1954 51.8567 62.1224 51.8735C62.0493 51.8904 61.9678 51.9101 61.8779 51.9326C61.788 51.955 61.6953 51.9691 61.5997 51.9747C61.5042 51.9803 61.4058 51.9831 61.3047 51.9831C60.945 51.9831 60.6246 51.9241 60.3436 51.8061C60.0626 51.6881 59.8434 51.497 59.686 51.2329C59.6017 51.0923 59.5427 50.9266 59.5034 50.7355C59.3966 50.8591 59.287 50.9799 59.1718 51.0895C58.8627 51.3818 58.5086 51.6066 58.1096 51.764C57.7106 51.9213 57.2357 52 56.6849 52C56.0891 52 55.5918 51.8876 55.1927 51.6628C54.7937 51.438 54.4958 51.1429 54.2991 50.7776C54.1024 50.4123 54.0041 50.0161 54.0041 49.589C54.0041 49.1393 54.1305 48.7263 54.3834 48.3497C54.6363 47.9732 55.0213 47.6612 55.5384 47.414C56.0554 47.1667 56.7074 47.0205 57.4942 46.9756L59.4641 46.8435V46.422C59.4641 46.096 59.4331 45.8122 59.3657 45.5705C59.2983 45.3289 59.1859 45.1294 59.0285 44.972C58.8711 44.8146 58.6548 44.6966 58.3794 44.6179C58.104 44.5392 57.764 44.4999 57.3593 44.4999C57.1345 44.4999 56.9069 44.5083 56.6765 44.5252C56.446 44.5421 56.2128 44.573 55.9767 44.6179C55.7407 44.6629 55.4962 44.7191 55.2433 44.7865C54.9904 44.854 54.7235 44.9383 54.4424 45.0394L54.6448 43.6063C54.9258 43.4939 55.2208 43.3955 55.5299 43.3112C55.8391 43.2269 56.1678 43.1623 56.5163 43.1173C56.8647 43.0724 57.2188 43.0499 57.5785 43.0499C58.0731 43.0499 58.5171 43.0949 58.9105 43.1848C59.3039 43.2747 59.6439 43.404 59.9305 43.5726C60.2172 43.7412 60.4504 43.9491 60.6302 44.1964C60.8101 44.4437 60.945 44.7303 61.0349 45.0563C61.1248 45.3823 61.1698 45.742 61.1698 46.1354L61.136 49.6086C61.1248 50.0245 61.1866 50.3224 61.3215 50.5022C61.4564 50.6821 61.6756 50.772 61.9791 50.772C62.0465 50.772 62.1252 50.7664 62.2151 50.7551V50.7523ZM59.4528 49.7435L59.4612 48.0687H57.986C57.4352 48.0687 56.9968 48.1137 56.6708 48.2036C56.3449 48.2935 56.1088 48.434 55.9627 48.6251C55.8166 48.8162 55.7435 49.0803 55.7435 49.4175C55.7435 49.6761 55.7997 49.8981 55.9121 50.0835C56.0245 50.269 56.1903 50.4123 56.4095 50.5135C56.6287 50.6146 56.8956 50.6652 57.2104 50.6652C57.4577 50.6652 57.6965 50.6427 57.9269 50.5978C58.1574 50.5528 58.3766 50.4797 58.5845 50.3786C58.7924 50.2774 58.9892 50.1538 59.1746 50.0077C59.273 49.929 59.3657 49.8391 59.4556 49.7435H59.4528ZM66.9361 50.5641C66.8686 50.5753 66.8096 50.5837 66.759 50.5893C66.7084 50.595 66.6494 50.5978 66.582 50.5978C66.4359 50.5978 66.3122 50.5753 66.2111 50.5303C66.1099 50.4854 66.0256 50.4151 65.9581 50.3196C65.8907 50.224 65.8429 50.1032 65.8148 49.9571C65.7867 49.811 65.7727 49.6367 65.7727 49.4344V39.0989L64.0529 39.3518V50.1931C64.0529 50.5191 64.0979 50.7973 64.1878 51.0277C64.2777 51.2581 64.407 51.4464 64.5756 51.5925C64.7442 51.7387 64.9437 51.8426 65.1741 51.9045C65.4046 51.9663 65.6547 51.9972 65.9244 51.9972C66.0593 51.9972 66.1886 51.9916 66.3122 51.9803C66.4359 51.9691 66.5567 51.9522 66.6747 51.9297C66.7927 51.9073 66.8911 51.8848 66.9698 51.8623L67.1384 50.5303C67.0709 50.5416 67.0035 50.5528 66.9361 50.5641Z" fill="#9FDAF5"/>
</g>
<defs>
<clipPath id="clip0_5918_1754">
<rect width="67.1384" height="29" fill="white" transform="translate(0 23)"/>
</clipPath>
<clipPath id="clip1_5918_1754">
<rect width="67.1384" height="29" fill="white" transform="translate(0 23)"/>
</clipPath>
</defs>
</svg>
