<svg xmlns="http://www.w3.org/2000/svg" viewBox="0 0 203 24"><path fill="#0A2343" d="M0 17.998v-12h4v12H0Zm9.244-10.09 2.264 10.09H7.2l-2.704-12h2.417a2.276 2.276 0 0 1 1.513.55c.42.346.66.826.819 1.36ZM12 17.998v-12h4v12h-4Zm7.01-7.436a2.381 2.381 0 0 1-2.078-1.192 2.345 2.345 0 0 1-.321-1.208 2.301 2.301 0 0 1 .321-1.2A2.41 2.41 0 0 1 20.21 6.1c.356.21.653.506.862.862.215.363.326.778.321 1.2a2.35 2.35 0 0 1-.321 1.208 2.4 2.4 0 0 1-.862.87 2.301 2.301 0 0 1-1.2.322ZM22 17.998v-12h4v12h-4Zm8.974-5.442c.01.011.095.15.253.414s.364.602.617 1.014a316.22 316.22 0 0 1 1.597 2.62c.247.41.529.876.845 1.394H29.96c-.27-.44-.516-.837-.736-1.192-.22-.355-.453-.738-.7-1.15-.248-.41-.493-.81-.736-1.199-.242-.39-.45-.73-.625-1.022a18.04 18.04 0 0 0-.363-.592 1.747 1.747 0 0 1-.287-.845c.016-.29.11-.57.27-.811.067-.113.191-.313.371-.6a182.106 182.106 0 0 0 1.37-2.23l.7-1.159.736-1.2h4.326l-3.346 5.46a1.079 1.079 0 0 0-.17.54c.012.202.083.396.204.558Z"/><g clip-path="url(#a)"><path fill="#1767CE" d="M46.169 6.003h1.757L43.753 18h-2.197L37.4 6.003h1.892l2.467 7.4c.135.383.267.792.397 1.225.13.434.256.87.38 1.31l.186.673a86.516 86.516 0 0 1 .55-1.924c.129-.428.255-.833.38-1.216l2.517-7.468Zm9.655 6.015c.141.608.172 1.306.093 2.095h-6.105c.023.43.082.803.184 1.115.129.394.32.707.574.938.253.23.566.394.938.49a5.33 5.33 0 0 0 1.317.143c.248 0 .496-.014.744-.042.248-.028.49-.073.726-.135.237-.062.465-.132.685-.211l.65-.237-.118 1.301a6.33 6.33 0 0 1-.913.389 5.694 5.694 0 0 1-.971.228c-.343.05-.74.076-1.191.076-.946 0-1.746-.166-2.4-.499a3.303 3.303 0 0 1-1.478-1.47c-.332-.647-.498-1.433-.498-2.356a6.1 6.1 0 0 1 .279-1.901 4.142 4.142 0 0 1 .81-1.462 3.68 3.68 0 0 1 1.293-.946c.507-.225 1.082-.338 1.724-.338.642 0 1.213.107 1.715.321.5.214.915.533 1.241.955.327.422.56.938.701 1.546Zm-5.76-.093a4.152 4.152 0 0 0-.215.988h4.444c0-.338-.04-.656-.124-.946-.13-.45-.358-.802-.685-1.056-.326-.253-.76-.38-1.3-.38-.541 0-.958.115-1.318.346-.36.231-.628.58-.803 1.048Zm13.304 2.188a2.54 2.54 0 0 0-.591-.465 4.526 4.526 0 0 0-.71-.33c-.18-.056-.357-.115-.532-.177a9.474 9.474 0 0 0-.524-.168c-.174-.051-.343-.105-.507-.161a3.686 3.686 0 0 1-.447-.186 2.997 2.997 0 0 1-.397-.253 1.112 1.112 0 0 1-.287-.321.815.815 0 0 1-.11-.423c0-.18.04-.335.118-.464a.96.96 0 0 1 .355-.33c.157-.09.346-.158.566-.203.22-.045.47-.067.752-.067a5.296 5.296 0 0 1 .887.076c.174.028.349.065.523.11.175.045.352.096.533.152.18.056.343.118.49.186l.118-1.369a7.964 7.964 0 0 0-.634-.236 6.172 6.172 0 0 0-.633-.17 5.06 5.06 0 0 0-.634-.092 7.629 7.629 0 0 0-.617-.026c-.507 0-.968.054-1.385.16a3.49 3.49 0 0 0-1.09.474c-.31.208-.549.473-.718.794-.169.321-.253.701-.253 1.14 0 .316.045.595.135.837.09.242.208.447.355.616.146.17.318.319.515.448.197.13.408.24.634.33a15.2 15.2 0 0 0 .785.262 34.346 34.346 0 0 1 .744.236c.118.04.233.076.346.11.158.056.304.121.44.194.134.073.25.152.346.237a.864.864 0 0 1 .295.667c0 .282-.093.504-.278.668a1.62 1.62 0 0 1-.727.346 4.314 4.314 0 0 1-.955.101c-.18 0-.38-.014-.6-.042a8.955 8.955 0 0 1-.692-.118c-.242-.051-.49-.113-.744-.186-.253-.073-.51-.155-.768-.245l.067 1.436c.293.101.56.183.803.245.242.062.473.115.693.16.22.046.433.074.642.085.208.011.42.017.633.017a6.57 6.57 0 0 0 1.402-.144c.44-.096.823-.245 1.15-.448.326-.202.582-.467.768-.794.186-.326.279-.715.279-1.165 0-.338-.048-.628-.144-.87a1.98 1.98 0 0 0-.397-.634Zm7.02 2.526-.287.05a2.492 2.492 0 0 1-.279.034c-.09.006-.174.009-.253.009-.293 0-.544-.051-.752-.152a1.09 1.09 0 0 1-.481-.448 1.426 1.426 0 0 1-.17-.718v-4.68h2.383l.186-1.352h-2.568v-2.67l-1.724.609v2.061h-1.3l-.187 1.352h1.487v5.035c0 .383.05.712.152.988s.234.504.397.684c.164.18.355.321.575.423.22.101.453.174.701.22.248.044.49.067.727.067.18 0 .357-.006.532-.017a5.538 5.538 0 0 0 .895-.127c.13-.028.24-.053.33-.076l.101-1.402a1.267 1.267 0 0 1-.203.06 7.326 7.326 0 0 1-.262.05Zm6.657-11.261a5.504 5.504 0 0 0-1.106-.101c-.383 0-.744.056-1.082.169-.338.112-.633.29-.887.532-.253.242-.45.543-.591.904-.14.36-.211.788-.211 1.284v1.216H71.9V10.7h1.268v7.299h1.723V10.7h2.365V9.382h-2.365V7.98c0-.214.031-.403.093-.566.062-.163.15-.299.262-.406a1.03 1.03 0 0 1 .43-.236c.175-.05.37-.076.584-.076a3.76 3.76 0 0 1 .752.068c.118.022.23.044.337.067.107.022.2.05.28.084l-.069-1.402a4.08 4.08 0 0 0-.515-.135Zm9.15 5.888c.348.659.523 1.433.523 2.323 0 .935-.189 1.746-.566 2.433a3.935 3.935 0 0 1-1.58 1.588c-.676.372-1.453.558-2.332.558-.878 0-1.588-.175-2.23-.524a3.527 3.527 0 0 1-1.478-1.529c-.344-.67-.515-1.467-.515-2.39 0-.924.183-1.724.549-2.4.366-.676.878-1.2 1.537-1.571.66-.372 1.428-.558 2.306-.558.88 0 1.642.18 2.29.541a3.69 3.69 0 0 1 1.495 1.529Zm-1.268 2.357c0-.462-.05-.881-.152-1.259a2.732 2.732 0 0 0-.465-.971 2.024 2.024 0 0 0-.777-.617c-.31-.14-.679-.211-1.107-.211-.54 0-1.005.113-1.394.338-.388.225-.69.563-.903 1.013-.214.451-.321 1.02-.321 1.707s.107 1.284.32 1.757c.215.473.507.828.88 1.065.37.236.81.354 1.317.354.507 0 .957-.115 1.352-.346.394-.23.7-.583.92-1.056.22-.473.33-1.064.33-1.774Zm6.547 3.134c-.05.006-.11.008-.178.008a.913.913 0 0 1-.371-.067.61.61 0 0 1-.254-.211.925.925 0 0 1-.143-.363 2.809 2.809 0 0 1-.043-.524V5.243l-1.723.253V16.36c0 .327.045.605.135.836.09.231.22.42.389.566.169.147.369.251.6.313.23.062.481.093.752.093a3.775 3.775 0 0 0 1.047-.135l.17-1.335-.204.034c-.067.011-.126.02-.177.025Zm7.932-11.26 1.724-.237v12.739h-1.403l-.21-.78a5 5 0 0 1-.381.256 4.608 4.608 0 0 1-1.174.524c-.4.113-.825.169-1.276.169-.777 0-1.444-.172-2.002-.515A3.355 3.355 0 0 1 93.4 16.19c-.299-.63-.448-1.38-.448-2.247 0-1.014.197-1.873.592-2.577.394-.704.915-1.241 1.562-1.613a4.155 4.155 0 0 1 2.104-.558 5.821 5.821 0 0 1 2.196.411v-4.11Zm0 10.612v-5.206c-.087-.031-.18-.068-.262-.093a5.108 5.108 0 0 0-1.596-.245c-.586 0-1.09.121-1.512.363a2.383 2.383 0 0 0-.972 1.064c-.225.468-.338 1.05-.338 1.75 0 .698.102 1.258.304 1.714.203.456.496.794.879 1.014.383.22.845.33 1.385.33.36 0 .764-.082 1.208-.246.285-.104.586-.256.904-.445Zm15.983-4.843c.35.659.524 1.433.524 2.323 0 .935-.188 1.746-.566 2.433a3.936 3.936 0 0 1-1.579 1.588c-.676.372-1.453.558-2.332.558-.879 0-1.588-.175-2.23-.524a3.53 3.53 0 0 1-1.479-1.529c-.343-.67-.515-1.467-.515-2.39 0-.924.183-1.724.549-2.4.366-.676.879-1.2 1.538-1.571.659-.372 1.427-.558 2.306-.558.878 0 1.642.18 2.289.541.648.36 1.146.87 1.495 1.529Zm-1.267 2.357c0-.462-.05-.881-.152-1.259a2.731 2.731 0 0 0-.464-.971 2.03 2.03 0 0 0-.778-.617c-.309-.14-.678-.211-1.106-.211-.541 0-1.005.113-1.394.338-.389.225-.69.563-.904 1.013-.214.451-.321 1.02-.321 1.707s.107 1.284.321 1.757c.214.473.507.828.879 1.065.371.236.811.354 1.317.354.507 0 .958-.115 1.352-.346.394-.23.701-.583.921-1.056.22-.473.329-1.064.329-1.774Zm9.887-4.001 1.653-.426v8.752c0 .744-.166 1.4-.498 1.968-.333.57-.826 1.014-1.479 1.335-.653.321-1.458.482-2.416.482a8.97 8.97 0 0 1-1.115-.068 8.476 8.476 0 0 1-1.039-.194 7.3 7.3 0 0 1-.955-.313l-.185-1.486a8.12 8.12 0 0 0 1.064.363c.36.096.718.163 1.073.203.355.039.701.059 1.039.059.507 0 .938-.054 1.292-.16.355-.108.642-.271.862-.49.22-.22.383-.49.49-.812.107-.32.16-.695.16-1.123v-.462c-.318.234-.639.42-.963.546a4.868 4.868 0 0 1-1.807.355c-.789 0-1.459-.172-2.011-.515a3.28 3.28 0 0 1-1.259-1.453c-.287-.626-.43-1.366-.43-2.222 0-.766.112-1.445.337-2.036a4.174 4.174 0 0 1 .938-1.487c.4-.4.853-.707 1.36-.92a4.085 4.085 0 0 1 1.605-.322c.327 0 .631.02.913.06.281.039.543.092.785.16.206.056.4.127.586.206Zm-.054 6.431v-5.15c-.084-.031-.171-.065-.253-.093a6.234 6.234 0 0 0-.794-.194 4.623 4.623 0 0 0-.794-.068c-.451 0-.853.07-1.208.211s-.653.34-.896.6a2.586 2.586 0 0 0-.557.988c-.13.4-.194.86-.194 1.377 0 .699.092 1.27.278 1.715.186.445.473.777.862.997.389.22.876.33 1.461.33.214 0 .42-.023.617-.068.197-.045.4-.11.608-.194a6.384 6.384 0 0 0 .87-.45Zm16.237-8.563V6.003h-9.495V7.49h3.869v10.509h1.774V7.489h3.852Zm7.122 4.528c.14.608.171 1.306.092 2.095h-6.104c.022.43.081.803.183 1.115.129.394.321.707.574.938.253.23.566.394.938.49.371.095.811.143 1.318.143.247 0 .495-.014.743-.042.248-.028.49-.073.726-.135.237-.062.465-.132.685-.211l.65-.237-.118 1.301a5.711 5.711 0 0 1-1.884.617c-.343.05-.74.076-1.191.076-.946 0-1.746-.166-2.399-.499a3.31 3.31 0 0 1-1.479-1.47c-.332-.647-.498-1.433-.498-2.356 0-.699.093-1.332.279-1.901a4.14 4.14 0 0 1 .811-1.462c.355-.405.785-.72 1.292-.946.507-.225 1.082-.338 1.724-.338.642 0 1.213.107 1.715.321.501.214.915.533 1.241.955.327.422.561.938.702 1.546Zm-5.762-.093a4.152 4.152 0 0 0-.214.988h4.444c0-.338-.04-.656-.124-.946-.13-.45-.358-.802-.685-1.056-.326-.253-.76-.38-1.3-.38-.541 0-.958.115-1.318.346-.361.231-.628.58-.803 1.048Zm10.627 4.832c-.05.006-.109.008-.177.008a.918.918 0 0 1-.372-.067.607.607 0 0 1-.253-.211.918.918 0 0 1-.144-.363 2.829 2.829 0 0 1-.042-.524V5.243l-1.723.253V16.36c0 .327.045.605.135.836.09.231.219.42.388.566.169.147.369.251.6.313.231.062.482.093.752.093a3.758 3.758 0 0 0 1.048-.135l.169-1.335-.203.034c-.068.011-.127.02-.178.025Zm9.242-4.74c.141.61.172 1.308.093 2.096h-6.105c.023.43.082.803.183 1.115.13.394.321.707.575.938.253.23.566.394.937.49.372.095.811.143 1.318.143.248 0 .496-.014.744-.042.248-.028.49-.073.726-.135.237-.062.465-.132.684-.211.22-.08.437-.158.651-.237l-.118 1.301a6.332 6.332 0 0 1-.913.389 5.7 5.7 0 0 1-.971.228c-.344.05-.741.076-1.191.076-.946 0-1.746-.166-2.399-.499a3.3 3.3 0 0 1-1.479-1.47c-.332-.647-.498-1.433-.498-2.356 0-.699.093-1.332.279-1.901a4.125 4.125 0 0 1 .811-1.462 3.67 3.67 0 0 1 1.292-.946c.507-.225 1.081-.338 1.723-.338.642 0 1.214.107 1.715.321.501.214.915.533 1.242.955.327.422.56.938.701 1.546Zm-5.761-.092a4.152 4.152 0 0 0-.214.988h4.443c0-.338-.039-.656-.124-.946-.129-.45-.357-.802-.684-1.056-.326-.253-.76-.38-1.301-.38-.54 0-.957.115-1.318.346-.36.231-.628.58-.802 1.048Zm19.641-2.374c-.406-.236-.907-.355-1.504-.355-.462 0-.907.076-1.335.228a4.705 4.705 0 0 0-1.216.65 6.053 6.053 0 0 0-.6.508c-.197-.448-.484-.789-.87-1.014-.405-.236-.912-.355-1.521-.355-.45 0-.892.076-1.326.228a4.82 4.82 0 0 0-1.58.924V9.213l-1.723.254v8.532h1.723v-6.426c.206-.132.417-.256.634-.358a4.37 4.37 0 0 1 .836-.295c.282-.068.552-.102.811-.102.293 0 .538.043.735.127.197.085.364.208.499.372.135.163.233.377.295.642.062.264.093.571.093.92V18h1.724v-5.474c0-.352-.023-.673-.065-.966.2-.13.4-.248.605-.352.271-.135.547-.237.828-.304.282-.068.558-.102.828-.102.27 0 .524.043.727.127.202.085.371.208.506.372.136.163.234.377.296.642.062.265.093.572.093.92V18h1.723v-5.491c0-.766-.101-1.391-.304-1.875-.203-.485-.507-.845-.912-1.082Zm11.32 7.367c.09-.012.186-.034.287-.068l-.186 1.132a1.328 1.328 0 0 1-.194.06c-.073.016-.155.036-.245.058a1.51 1.51 0 0 1-.279.042 5.057 5.057 0 0 1-.295.009c-.361 0-.682-.06-.964-.177a1.361 1.361 0 0 1-.658-.575 1.557 1.557 0 0 1-.183-.498 4.871 4.871 0 0 1-.333.355c-.31.292-.664.518-1.064.675-.4.158-.876.237-1.428.237-.597 0-1.095-.113-1.495-.338-.4-.225-.698-.521-.896-.887a2.473 2.473 0 0 1-.295-1.191c0-.45.126-.865.38-1.242.253-.377.639-.69 1.157-.938.518-.247 1.172-.394 1.96-.439l1.974-.132v-.423c0-.326-.031-.61-.098-.853a1.349 1.349 0 0 0-.338-.6c-.158-.157-.375-.276-.651-.355a3.779 3.779 0 0 0-1.022-.118c-.225 0-.453.009-.684.026a6.133 6.133 0 0 0-.701.092 10.336 10.336 0 0 0-1.538.423l.203-1.436c.281-.113.577-.211.887-.296.31-.084.639-.15.988-.194a8.311 8.311 0 0 1 1.065-.068c.495 0 .94.045 1.334.135.395.09.735.22 1.023.389.287.169.52.377.701.625.18.248.315.535.405.862.09.326.135.687.135 1.081l-.033 3.48c-.012.417.05.716.185.896.136.18.355.27.659.27.068 0 .147-.005.237-.017v-.002Zm-2.768-1.011.008-1.676h-1.478c-.552 0-.991.045-1.318.135-.327.09-.563.231-.71.423-.146.191-.219.456-.219.794 0 .259.056.481.169.667.112.186.279.33.498.431.22.101.487.152.803.152.248 0 .487-.022.718-.067.231-.045.45-.119.659-.22.208-.101.405-.225.591-.372.099-.079.192-.169.282-.264l-.003-.003Zm8.191-6.587a3.317 3.317 0 0 0-.895.389 4.4 4.4 0 0 0-.794.633c-.04.04-.079.085-.118.127V9.21l-1.724.254v8.532h1.724v-6.384a4.373 4.373 0 0 1 .92-.493 5.87 5.87 0 0 1 .533-.177 3.566 3.566 0 0 1 1.182-.127l.203-1.588a3.218 3.218 0 0 0-1.031.093Zm7.806 8.676h2.23l-4.097-4.618 4.013-3.999h-2.112l-2.892 3.177h-.622V5.243l-1.724.253V18h1.724v-4.14h.028L199.85 18v-.003Z"/></g><defs><clipPath id="a"><path fill="#fff" d="M37 5h166v17H37z"/></clipPath></defs></svg>