<svg xmlns="http://www.w3.org/2000/svg" viewBox="0 0 125 24"><path fill="#1767CE" d="M0 0h125v24H0z"/><path fill="#fff" d="M6 17.997V6h4v11.998H6Zm9.244-10.089 2.264 10.09H13.2l-2.704-12h2.417a2.276 2.276 0 0 1 1.512.55c.422.346.66.826.82 1.36ZM18 17.998v-12h4v12h-4Zm7.01-7.436a2.381 2.381 0 0 1-2.078-1.192 2.345 2.345 0 0 1-.321-1.208 2.301 2.301 0 0 1 .321-1.2A2.41 2.41 0 0 1 26.21 6.1c.356.21.653.506.862.862.215.363.326.778.321 1.2a2.35 2.35 0 0 1-.321 1.208c-.207.36-.504.66-.862.87a2.3 2.3 0 0 1-1.2.322ZM28 17.997V6h4v11.998h-4Zm8.974-5.441c.01.011.095.15.253.414s.364.602.617 1.014a309.436 309.436 0 0 1 1.597 2.62c.247.41.529.875.845 1.393H35.96c-.27-.439-.516-.836-.736-1.191-.22-.355-.453-.738-.7-1.15-.248-.41-.493-.81-.736-1.2a60.12 60.12 0 0 1-.625-1.021 18.04 18.04 0 0 0-.363-.592 1.747 1.747 0 0 1-.287-.845c.016-.29.11-.57.27-.811.067-.113.191-.313.371-.6a182.106 182.106 0 0 0 1.37-2.23l.7-1.159.736-1.2h4.326l-3.346 5.459a1.079 1.079 0 0 0-.17.541c.012.202.083.396.204.558Z"/><g clip-path="url(#a)"><path fill="#D4EEFC" d="M45 6h1.773v11.991H45V6Zm11.147 3.547c-.428-.237-.969-.355-1.622-.355-.484 0-.965.076-1.444.228a5.485 5.485 0 0 0-1.36.65c-.162.107-.32.225-.472.346V9.21l-1.723.253v8.53h1.723v-6.416c.166-.096.335-.186.515-.264.242-.107.484-.2.726-.28a4.89 4.89 0 0 1 .726-.177c.242-.039.476-.059.701-.059.316 0 .586.043.811.127.225.085.411.211.557.38.147.169.254.383.321.642.068.259.102.563.102.912v5.134h1.722v-5.489c0-.765-.107-1.39-.32-1.875-.215-.484-.535-.844-.963-1.08Zm10.454 0c-.428-.237-.968-.355-1.621-.355-.485 0-.966.076-1.444.228a5.485 5.485 0 0 0-1.36.65c-.163.107-.32.225-.473.346V9.21l-1.723.253v8.53h1.723v-6.416c.166-.096.335-.186.515-.264.242-.107.484-.2.726-.28.242-.078.485-.137.727-.177.242-.039.475-.059.7-.059.316 0 .586.043.811.127.225.085.411.211.558.38.146.169.253.383.32.642.068.259.102.563.102.912v5.134h1.722v-5.489c0-.765-.106-1.39-.32-1.875-.214-.484-.535-.844-.963-1.08Zm6.494 7.203c-.051.005-.11.008-.178.008a.914.914 0 0 1-.371-.067.61.61 0 0 1-.254-.211.926.926 0 0 1-.143-.364 2.807 2.807 0 0 1-.042-.523V5.24l-1.723.253v10.86c0 .326.045.605.135.836.09.23.22.42.389.566.168.146.368.25.6.312.23.062.48.093.75.093a3.742 3.742 0 0 0 1.047-.135l.17-1.334-.203.033c-.068.012-.127.02-.177.026Zm9.652.16c.09-.011.185-.034.287-.067l-.186 1.131a1.335 1.335 0 0 1-.194.06c-.073.016-.155.036-.245.058-.09.023-.183.037-.279.043a5.06 5.06 0 0 1-.295.008c-.36 0-.681-.059-.963-.177a1.364 1.364 0 0 1-.659-.575 1.58 1.58 0 0 1-.183-.498 4.995 4.995 0 0 1-.332.355c-.31.293-.664.518-1.064.675-.4.158-.875.237-1.427.237-.597 0-1.095-.113-1.495-.338-.4-.225-.698-.52-.895-.886a2.472 2.472 0 0 1-.295-1.191c0-.45.126-.864.38-1.241.253-.378.639-.69 1.157-.938s1.17-.394 1.959-.439l1.973-.132v-.422c0-.327-.031-.611-.099-.853a1.337 1.337 0 0 0-.337-.6c-.158-.157-.375-.276-.65-.354a3.774 3.774 0 0 0-1.022-.119c-.225 0-.453.009-.684.026-.231.017-.465.047-.701.092a10.372 10.372 0 0 0-1.537.423l.203-1.436a8.18 8.18 0 0 1 .886-.295c.31-.085.64-.15.988-.195.35-.045.704-.067 1.064-.067.496 0 .94.045 1.334.135.394.09.735.22 1.022.388.287.17.521.377.701.625.18.248.315.535.405.862.09.326.136.686.136 1.08l-.034 3.48c-.011.416.05.715.186.895.135.18.354.27.658.27.068 0 .147-.006.237-.017v-.003ZM79.98 15.9l.008-1.675H78.51c-.551 0-.99.045-1.317.135-.326.09-.563.23-.71.422-.146.192-.219.456-.219.794 0 .259.056.481.169.667.113.186.279.33.498.43.22.102.487.153.803.153.247 0 .486-.023.717-.068.231-.045.45-.118.659-.22a2.746 2.746 0 0 0 .873-.636l-.003-.002Zm11.279-6.356c-.428-.237-.969-.355-1.622-.355-.484 0-.965.076-1.444.228a5.484 5.484 0 0 0-1.36.65c-.162.107-.32.226-.472.347V9.206l-1.723.253v8.53h1.723v-6.416a5.22 5.22 0 0 1 .515-.264c.242-.107.484-.2.726-.279.242-.079.484-.138.726-.177.242-.04.476-.06.701-.06.316 0 .586.043.811.127.225.085.411.211.557.38.147.17.254.383.321.642.068.259.102.563.102.912v5.134h1.722V12.5c0-.765-.107-1.39-.32-1.874-.215-.484-.535-.845-.963-1.081Zm9.745-4.05 1.722-.237V17.99h-1.402l-.211-.78c-.126.093-.253.18-.38.257a4.593 4.593 0 0 1-1.173.523c-.4.113-.825.169-1.276.169-.776 0-1.444-.172-2-.515A3.353 3.353 0 0 1 95 16.184c-.299-.63-.448-1.38-.448-2.246 0-1.014.197-1.872.591-2.576.394-.704.915-1.241 1.562-1.613a4.153 4.153 0 0 1 2.103-.557 5.818 5.818 0 0 1 2.145.388c.017.006.034.015.051.023v-4.11Zm0 10.608v-5.204c-.088-.031-.181-.068-.262-.093a5.128 5.128 0 0 0-1.596-.245c-.586 0-1.09.121-1.512.363a2.382 2.382 0 0 0-.97 1.064c-.226.467-.339 1.05-.339 1.748s.102 1.258.304 1.714c.203.456.496.794.879 1.014.382.22.844.329 1.384.329.36 0 .763-.082 1.208-.245a5.6 5.6 0 0 0 .904-.445Zm11.594-4.09c.141.608.171 1.306.093 2.095h-6.103c.023.43.082.802.183 1.114.13.394.321.707.574.938.254.23.566.394.938.49.371.095.81.143 1.317.143.248 0 .495-.014.743-.042.248-.028.49-.073.726-.135.237-.062.465-.133.684-.211.22-.08.437-.158.651-.237l-.119 1.3a6.32 6.32 0 0 1-.912.389 5.686 5.686 0 0 1-.971.228 8.23 8.23 0 0 1-1.19.076c-.946 0-1.746-.166-2.399-.498a3.3 3.3 0 0 1-1.477-1.47c-.333-.647-.499-1.432-.499-2.356 0-.698.093-1.331.279-1.9a4.14 4.14 0 0 1 .811-1.46 3.67 3.67 0 0 1 1.292-.946c.506-.225 1.081-.338 1.722-.338.642 0 1.214.107 1.715.32.501.215.914.533 1.241.955.326.422.56.937.701 1.545Zm-5.759-.093c-.104.276-.172.611-.214.989h4.442c0-.338-.04-.656-.124-.946-.13-.45-.358-.803-.684-1.056-.327-.253-.76-.38-1.301-.38-.54 0-.957.116-1.317.346-.36.231-.628.58-.802 1.047Zm12.675 4.662a7.13 7.13 0 0 1-.262.05l-.287.051a2.51 2.51 0 0 1-.279.034 4.08 4.08 0 0 1-.253.008c-.293 0-.543-.05-.752-.152a1.093 1.093 0 0 1-.481-.447 1.421 1.421 0 0 1-.169-.718V10.73h2.381l.186-1.351h-2.567V6.709l-1.723.608v2.06h-1.3l-.186 1.352h1.486v5.033c0 .383.051.712.152.988.102.276.234.504.397.684.164.18.355.32.575.422a2.9 2.9 0 0 0 .7.22c.248.045.49.067.727.067.18 0 .357-.006.532-.017.174-.011.335-.028.481-.05.146-.023.284-.048.414-.076.129-.029.239-.054.329-.076l.101-1.402a1.243 1.243 0 0 1-.202.059Z"/></g><defs><clipPath id="a"><path fill="#fff" d="M45 5.24h74.716v12.92H45z"/></clipPath></defs></svg>