<svg width="187" height="24" viewBox="0 0 187 24" fill="none" xmlns="http://www.w3.org/2000/svg">
<rect width="187" height="24" fill="#1767CE"/>
<path d="M6 17.9975V5.99856H10V17.9975H6ZM15.2438 7.90825L17.5081 17.9975H13.1992L10.4955 5.99856H12.9122C13.4663 5.99136 14.0041 6.18672 14.4245 6.54786C14.8456 6.89385 15.0849 7.37416 15.2438 7.90825ZM18 17.9975V5.99856H22V17.9975H18ZM25.0105 10.5616C24.5862 10.5657 24.1687 10.4547 23.8025 10.2404C23.4412 10.0316 23.1411 9.73142 22.9323 9.37006C22.7178 9.0038 22.6068 8.58623 22.611 8.16178C22.6061 7.73993 22.7172 7.32485 22.9323 6.96189C23.1433 6.60446 23.4431 6.30756 23.8025 6.09999C24.1689 5.88597 24.5862 5.77498 25.0105 5.77885C25.4322 5.77431 25.8471 5.8854 26.2102 6.09999C26.566 6.30938 26.8626 6.60603 27.072 6.96189C27.2868 7.32495 27.3979 7.73996 27.3933 8.16178C27.3973 8.58619 27.2863 9.00369 27.072 9.37006C26.8649 9.72984 26.5679 10.0297 26.2102 10.2404C25.8471 10.4554 25.4324 10.5666 25.0105 10.5616ZM28 17.9975V5.99856H32V17.9975H28ZM36.9737 12.5557C36.9848 12.5673 37.0693 12.7053 37.2272 12.9697C37.3851 13.2341 37.5906 13.5721 37.8439 13.9838C38.0974 14.3952 38.3649 14.8317 38.6463 15.2935C38.9278 15.7552 39.1926 16.1918 39.4408 16.6032C39.6881 17.0147 39.9697 17.4794 40.2857 17.9975H35.9598C35.6893 17.5581 35.4441 17.1609 35.2245 16.806C35.0048 16.4511 34.7713 16.068 34.5238 15.6568C34.2758 15.246 34.0306 14.846 33.7882 14.4569C33.5458 14.0679 33.3375 13.7271 33.1633 13.4345C32.9883 13.1418 32.8671 12.9446 32.7997 12.843C32.6325 12.5909 32.5336 12.2998 32.5127 11.998C32.5294 11.7084 32.6226 11.4284 32.7828 11.1866C32.8503 11.0739 32.9743 10.8739 33.1545 10.5866C33.3348 10.2993 33.546 9.95852 33.7882 9.56419C34.0304 9.16986 34.2756 8.76707 34.5238 8.35584C34.772 7.94461 35.0055 7.5587 35.2245 7.19817C35.4445 6.83802 35.6897 6.43805 35.9598 5.99828H40.2857L36.9396 11.457C36.8361 11.619 36.7777 11.8058 36.7706 11.998C36.7818 12.1998 36.8528 12.3938 36.9737 12.5557Z" fill="white"/>
<g clip-path="url(#clip0_5918_1764)">
<path d="M57.0533 6.00029L58.0671 17.9961H56.3099L55.7017 10.0214C55.6904 9.79614 55.6735 9.57087 55.651 9.34559C55.6313 9.1513 55.6144 8.96263 55.6003 8.77115C55.5215 8.97389 55.4426 9.17946 55.3638 9.38783C55.285 9.59621 55.2061 9.80177 55.1273 10.0045L52.0185 17.9961H50.4641L47.3384 9.97073C47.2596 9.75672 47.1779 9.54552 47.0935 9.33715C47.0118 9.1344 46.933 8.92884 46.8541 8.72046C46.8372 8.94292 46.8203 9.15974 46.8062 9.37094C46.7893 9.59058 46.7696 9.81304 46.7471 10.0383L46.1051 17.9961H44.5L45.6151 6.00029H47.575L50.8865 14.4987C50.9653 14.6677 51.0386 14.8394 51.1061 15.014C51.1737 15.1886 51.2413 15.366 51.3089 15.5462C51.3286 15.6026 51.3511 15.6561 51.3708 15.7096C51.4018 15.6363 51.43 15.5575 51.4609 15.4871C51.5285 15.3238 51.5933 15.1548 51.6552 14.9802C51.7172 14.8057 51.782 14.6283 51.8495 14.448L55.1273 6.00029H57.0533ZM68.6943 9.7004L67.7172 10.7367C67.8411 10.9 67.9594 11.0746 68.0608 11.2632C68.4156 11.9222 68.593 12.6965 68.593 13.5864C68.593 14.5212 68.4015 15.3322 68.0185 16.0193C67.6356 16.7064 67.109 17.2358 66.4388 17.6075C65.7686 17.9792 64.9942 18.165 64.1157 18.165C63.2371 18.165 62.5134 17.9905 61.877 17.6413C61.7334 17.5624 61.5982 17.4723 61.4687 17.3766L60.5676 18.3509L59.7904 17.6413L60.7309 16.6388C60.6098 16.4755 60.4972 16.3009 60.3987 16.1122C60.0495 15.4421 59.8749 14.6451 59.8749 13.7215C59.8749 12.7979 60.0579 11.9982 60.424 11.3224C60.7901 10.6465 61.3026 10.1228 61.9615 9.75109C62.6204 9.37939 63.3892 9.19353 64.2677 9.19353C65.1463 9.19353 65.9235 9.37375 66.5655 9.73419C66.7035 9.81022 66.8302 9.89751 66.9541 9.99044L67.9003 8.99079L68.6943 9.7004ZM61.6827 13.6202C61.6827 14.3101 61.7841 14.8873 61.9896 15.3576L65.9207 11.1112C65.7686 10.9732 65.5968 10.8577 65.4025 10.7704C65.0872 10.6297 64.7155 10.5593 64.2874 10.5593C63.758 10.5593 63.299 10.6719 62.9104 10.8972C62.5219 11.1224 62.2206 11.4603 62.0065 11.9109C61.7925 12.3614 61.6855 12.9303 61.6855 13.6173L61.6827 13.6202ZM66.802 13.6202C66.802 13.1583 66.7485 12.7388 66.6415 12.3614C66.5993 12.215 66.5486 12.077 66.4923 11.9475L62.5585 16.1939C62.657 16.2868 62.7584 16.3713 62.871 16.4417C63.2484 16.6782 63.6905 16.7965 64.1973 16.7965C64.7042 16.7965 65.1519 16.6811 65.5405 16.4501C65.9291 16.2192 66.236 15.8673 66.4613 15.3942C66.6866 14.9211 66.7992 14.3298 66.7992 13.6202H66.802ZM74.2867 9.32025C73.9714 9.40473 73.6729 9.53426 73.3913 9.70885C73.1097 9.88343 72.845 10.0946 72.5972 10.3424C72.5578 10.3819 72.5184 10.4269 72.4789 10.4691V9.21043L70.7556 9.46386V17.9961H72.4789V11.6124C72.6085 11.5223 72.7408 11.4378 72.876 11.3646C73.0506 11.2689 73.2251 11.1872 73.3997 11.1196C73.5743 11.052 73.7517 10.9929 73.9319 10.9422C74.1122 10.8915 74.3008 10.8549 74.4979 10.8324C74.6951 10.8099 74.9006 10.8042 75.1146 10.8155L75.3174 9.22733C74.9457 9.2048 74.6021 9.23577 74.2867 9.32025ZM83.8242 12.0151C83.965 12.6233 83.996 13.3217 83.9172 14.1101H77.8123C77.8348 14.541 77.8939 14.9127 77.9953 15.2252C78.1248 15.6195 78.3163 15.932 78.5698 16.1629C78.8232 16.3938 79.1357 16.5572 79.5075 16.6529C79.8792 16.7486 80.3184 16.7965 80.8253 16.7965C81.0731 16.7965 81.3209 16.7824 81.5687 16.7543C81.8165 16.7261 82.0587 16.6811 82.2952 16.6191C82.5317 16.5572 82.7598 16.4868 82.9795 16.4079C83.1991 16.3291 83.4159 16.2502 83.63 16.1714L83.5117 17.4723C83.2076 17.63 82.9034 17.7595 82.5993 17.8609C82.2952 17.9623 81.9714 18.0383 81.6278 18.089C81.2843 18.1397 80.8873 18.165 80.4367 18.165C79.4906 18.165 78.6908 17.9989 78.0375 17.6666C77.3843 17.3343 76.8915 16.8444 76.5592 16.1967C76.2269 15.5491 76.0608 14.7634 76.0608 13.8398C76.0608 13.1414 76.1537 12.5079 76.3395 11.9391C76.5254 11.3702 76.7957 10.8831 77.1505 10.4776C77.5053 10.0721 77.9362 9.75672 78.443 9.53144C78.9499 9.30617 79.5243 9.19353 80.1664 9.19353C80.8084 9.19353 81.38 9.30054 81.8813 9.51455C82.3825 9.72856 82.7964 10.0468 83.1231 10.4691C83.4497 10.8915 83.6835 11.4068 83.8242 12.0151ZM78.0629 11.9222C77.9587 12.1981 77.8911 12.5332 77.8489 12.9105H82.2924C82.2924 12.5726 82.253 12.2544 82.1685 11.9644C82.039 11.5138 81.8109 11.1619 81.4842 10.9084C81.1576 10.655 80.7239 10.5283 80.1833 10.5283C79.6426 10.5283 79.2259 10.6437 78.8654 10.8746C78.505 11.1055 78.2375 11.4547 78.0629 11.9222ZM97.6532 11.2632C98.0024 11.9222 98.177 12.6965 98.177 13.5864C98.177 14.5212 97.9883 15.3322 97.611 16.0193C97.2336 16.7064 96.7071 17.2358 96.0312 17.6075C95.3554 17.9792 94.5782 18.165 93.6997 18.165C92.8211 18.165 92.1115 17.9905 91.4695 17.6413C90.8274 17.2921 90.3346 16.7824 89.9911 16.1122C89.6476 15.4421 89.4758 14.6451 89.4758 13.7215C89.4758 12.7979 89.6588 11.9982 90.0249 11.3224C90.391 10.6465 90.9035 10.1228 91.5624 9.75109C92.2213 9.37939 92.9901 9.19353 93.8686 9.19353C94.7472 9.19353 95.5103 9.37375 96.158 9.73419C96.8056 10.0946 97.304 10.6043 97.6532 11.2632ZM96.386 13.6202C96.386 13.1583 96.3354 12.7388 96.234 12.3614C96.1326 11.9841 95.9777 11.6603 95.7694 11.3899C95.561 11.1196 95.3019 10.9141 94.9922 10.7733C94.6824 10.6325 94.3135 10.5621 93.8855 10.5621C93.3449 10.5621 92.8802 10.6747 92.4916 10.9C92.103 11.1253 91.8017 11.4632 91.5877 11.9137C91.3737 12.3643 91.2667 12.9331 91.2667 13.6202C91.2667 14.3072 91.3737 14.9042 91.5877 15.3773C91.8017 15.8504 92.0946 16.2052 92.4663 16.4417C92.838 16.6782 93.2773 16.7965 93.7841 16.7965C94.291 16.7965 94.7416 16.6811 95.1358 16.4501C95.53 16.2192 95.8369 15.8673 96.0566 15.3942C96.2762 14.9211 96.386 14.3298 96.386 13.6202ZM106.273 9.61874L107.926 9.19353V17.9454C107.926 18.6888 107.76 19.3449 107.427 19.9137C107.095 20.4825 106.602 20.9275 105.949 21.2485C105.296 21.5695 104.49 21.73 103.533 21.73C103.15 21.73 102.778 21.7075 102.418 21.6624C102.057 21.6174 101.711 21.5526 101.379 21.4681C101.046 21.3836 100.728 21.2794 100.424 21.1555L100.238 19.6687C100.587 19.8152 100.942 19.9363 101.303 20.032C101.663 20.1277 102.021 20.1953 102.375 20.2347C102.73 20.2742 103.077 20.2939 103.415 20.2939C103.921 20.2939 104.352 20.2404 104.707 20.1334C105.062 20.0264 105.349 19.863 105.569 19.6434C105.788 19.4238 105.952 19.1534 106.059 18.8324C106.166 18.5114 106.219 18.1369 106.219 17.7089V17.2471C105.901 17.4808 105.58 17.6666 105.256 17.7933C104.659 18.0299 104.057 18.1481 103.448 18.1481C102.66 18.1481 101.99 17.9764 101.438 17.6328C100.886 17.2893 100.466 16.805 100.179 16.1798C99.8919 15.5547 99.7482 14.8141 99.7482 13.9581C99.7482 13.1921 99.8609 12.5135 100.086 11.9222C100.311 11.3308 100.624 10.8352 101.024 10.4354C101.424 10.0355 101.877 9.72856 102.384 9.51455C102.891 9.30054 103.426 9.19353 103.989 9.19353C104.316 9.19353 104.62 9.21325 104.901 9.25267C105.183 9.29209 105.445 9.34559 105.687 9.41318C105.893 9.46949 106.087 9.53989 106.273 9.61874ZM106.219 16.0503V10.9C106.135 10.869 106.047 10.8352 105.966 10.8071C105.695 10.7226 105.431 10.6578 105.172 10.6128C104.913 10.5677 104.648 10.5452 104.378 10.5452C103.927 10.5452 103.524 10.6156 103.17 10.7564C102.815 10.8972 102.516 11.0971 102.274 11.3562C102.032 11.6152 101.846 11.9447 101.717 12.3445C101.587 12.7444 101.522 13.2034 101.522 13.7215C101.522 14.4199 101.615 14.9915 101.801 15.4364C101.987 15.8813 102.274 16.2136 102.663 16.4333C103.051 16.6529 103.538 16.7627 104.124 16.7627C104.338 16.7627 104.544 16.7402 104.741 16.6951C104.938 16.6501 105.141 16.5853 105.349 16.5008C105.557 16.4164 105.774 16.3094 106 16.1798C106.07 16.1404 106.146 16.0953 106.219 16.0503ZM121.256 13.8398L124.061 17.9961H122L119.009 13.4005H116.424V17.9961H114.667V6.00029H119.516C120.496 6.00029 121.276 6.16079 121.856 6.48181C122.436 6.80282 122.853 7.23366 123.106 7.77431C123.36 8.31497 123.486 8.91194 123.486 9.56524C123.486 10.1509 123.391 10.6663 123.199 11.1112C123.008 11.5561 122.743 11.9278 122.405 12.2263C122.067 12.5248 121.67 12.7472 121.214 12.8936C121.003 12.9612 120.78 13.0119 120.549 13.0485L121.253 13.8398H121.256ZM119.144 7.4702H116.424V11.9475H118.942C119.505 11.9475 119.992 11.8715 120.403 11.7194C120.814 11.5674 121.129 11.3196 121.349 10.976C121.569 10.6325 121.679 10.1847 121.679 9.63282C121.679 9.13722 121.588 8.72891 121.408 8.40789C121.228 8.08688 120.952 7.85034 120.58 7.69828C120.209 7.54622 119.73 7.4702 119.144 7.4702ZM133.201 11.2632C133.55 11.9222 133.725 12.6965 133.725 13.5864C133.725 14.5212 133.536 15.3322 133.159 16.0193C132.782 16.7064 132.255 17.2358 131.579 17.6075C130.904 17.9792 130.126 18.165 129.248 18.165C128.369 18.165 127.66 17.9905 127.018 17.6413C126.376 17.2921 125.883 16.7824 125.539 16.1122C125.196 15.4421 125.024 14.6451 125.024 13.7215C125.024 12.7979 125.207 11.9982 125.573 11.3224C125.939 10.6465 126.452 10.1228 127.11 9.75109C127.769 9.37939 128.538 9.19353 129.417 9.19353C130.295 9.19353 131.058 9.37375 131.706 9.73419C132.354 10.0946 132.852 10.6043 133.201 11.2632ZM131.934 13.6202C131.934 13.1583 131.883 12.7388 131.782 12.3614C131.681 11.9841 131.526 11.6603 131.317 11.3899C131.109 11.1196 130.85 10.9141 130.54 10.7733C130.231 10.6325 129.862 10.5621 129.434 10.5621C128.893 10.5621 128.428 10.6747 128.04 10.9C127.651 11.1253 127.35 11.4632 127.136 11.9137C126.922 12.3643 126.815 12.9331 126.815 13.6202C126.815 14.3072 126.922 14.9042 127.136 15.3773C127.35 15.8504 127.643 16.2052 128.014 16.4417C128.386 16.6782 128.825 16.7965 129.332 16.7965C129.839 16.7965 130.29 16.6811 130.684 16.4501C131.078 16.2192 131.385 15.8673 131.605 15.3942C131.824 14.9211 131.934 14.3298 131.934 13.6202ZM147.495 9.54834C147.089 9.3118 146.588 9.19353 145.991 9.19353C145.529 9.19353 145.084 9.26956 144.656 9.42162C144.228 9.57368 143.823 9.79051 143.44 10.0721C143.232 10.2242 143.032 10.3959 142.84 10.579C142.643 10.1312 142.356 9.79051 141.97 9.56524C141.565 9.3287 141.058 9.21043 140.449 9.21043C139.999 9.21043 139.557 9.28646 139.123 9.43852C138.69 9.59058 138.281 9.80459 137.898 10.0805C137.777 10.1678 137.659 10.2636 137.543 10.3621V9.21043L135.82 9.46386V17.9961H137.543V11.5702C137.749 11.4378 137.96 11.3139 138.177 11.2125C138.453 11.083 138.732 10.9845 139.013 10.9169C139.295 10.8493 139.565 10.8155 139.824 10.8155C140.117 10.8155 140.362 10.8577 140.559 10.9422C140.756 11.0267 140.923 11.1506 141.058 11.3139C141.193 11.4772 141.291 11.6913 141.353 11.9559C141.415 12.2206 141.446 12.5276 141.446 12.8768V17.9961H143.17V12.5219C143.17 12.17 143.147 11.8489 143.105 11.5561C143.305 11.4266 143.505 11.3083 143.71 11.2041C143.981 11.0689 144.257 10.9676 144.538 10.9C144.82 10.8324 145.096 10.7986 145.366 10.7986C145.636 10.7986 145.89 10.8408 146.093 10.9253C146.295 11.0098 146.464 11.1337 146.599 11.297C146.735 11.4603 146.833 11.6744 146.895 11.9391C146.957 12.2037 146.988 12.5107 146.988 12.8599V17.9961H148.711V12.5051C148.711 11.7391 148.61 11.114 148.407 10.6297C148.205 10.1453 147.9 9.78488 147.495 9.54834ZM156.602 14.1101C156.433 13.9299 156.235 13.775 156.01 13.6455C155.785 13.516 155.548 13.4061 155.301 13.316C155.12 13.2597 154.943 13.2006 154.768 13.1386C154.594 13.0767 154.419 13.0204 154.245 12.9697C154.07 12.919 153.901 12.8655 153.738 12.8092C153.574 12.7529 153.425 12.6909 153.29 12.6233C153.144 12.5445 153.011 12.46 152.893 12.3699C152.775 12.2798 152.679 12.1728 152.606 12.0489C152.533 11.925 152.496 11.7842 152.496 11.6265C152.496 11.4463 152.535 11.2914 152.614 11.1619C152.693 11.0323 152.811 10.9225 152.969 10.8324C153.127 10.7423 153.315 10.6747 153.535 10.6297C153.755 10.5846 154.005 10.5621 154.287 10.5621C154.411 10.5621 154.546 10.5677 154.692 10.579C154.839 10.5902 154.999 10.6099 155.174 10.6381C155.348 10.6663 155.523 10.7029 155.698 10.7479C155.872 10.793 156.05 10.8437 156.23 10.9C156.41 10.9563 156.573 11.0182 156.72 11.0858L156.838 9.7173C156.624 9.62719 156.413 9.54834 156.205 9.48076C155.996 9.41318 155.785 9.35686 155.571 9.3118C155.357 9.26675 155.146 9.23577 154.937 9.21888C154.729 9.20198 154.523 9.19353 154.321 9.19353C153.814 9.19353 153.352 9.24704 152.935 9.35404C152.518 9.46105 152.155 9.61874 151.845 9.82712C151.536 10.0355 151.296 10.3002 151.127 10.6212C150.958 10.9422 150.874 11.3224 150.874 11.7616C150.874 12.077 150.919 12.3558 151.009 12.598C151.099 12.8401 151.218 13.0457 151.364 13.2147C151.51 13.3836 151.682 13.5329 151.879 13.6624C152.076 13.7919 152.288 13.9017 152.513 13.9919C152.637 14.0369 152.766 14.082 152.901 14.127C153.037 14.1721 153.169 14.2143 153.299 14.2537C153.428 14.2932 153.555 14.3326 153.679 14.372C153.803 14.4114 153.924 14.4508 154.042 14.4903C154.16 14.5297 154.276 14.5663 154.388 14.6001C154.546 14.6564 154.692 14.7212 154.828 14.7944C154.963 14.8676 155.078 14.9464 155.174 15.0309C155.27 15.1154 155.343 15.214 155.394 15.3266C155.444 15.4392 155.47 15.5631 155.47 15.6983C155.47 15.9799 155.377 16.2023 155.191 16.3657C155.005 16.529 154.763 16.6444 154.464 16.712C154.166 16.7796 153.848 16.8134 153.51 16.8134C153.329 16.8134 153.13 16.7993 152.91 16.7712C152.69 16.743 152.459 16.7036 152.217 16.6529C151.975 16.6022 151.727 16.5403 151.474 16.467C151.22 16.3938 150.964 16.3122 150.705 16.2221L150.773 17.6582C151.065 17.7595 151.333 17.8412 151.575 17.9032C151.817 17.9651 152.048 18.0186 152.268 18.0637C152.488 18.1087 152.702 18.1369 152.91 18.1481C153.118 18.1594 153.329 18.165 153.543 18.165C154.039 18.165 154.507 18.1172 154.946 18.0214C155.385 17.9257 155.768 17.7764 156.095 17.5737C156.421 17.371 156.678 17.1063 156.863 16.7796C157.049 16.453 157.142 16.0644 157.142 15.6138C157.142 15.2759 157.094 14.9859 156.999 14.7437C156.903 14.5015 156.771 14.2903 156.602 14.1101ZM165.1 5.49342L166.823 5.25689V17.9961H165.421L165.21 17.2161C165.083 17.309 164.956 17.3963 164.83 17.4723C164.447 17.7089 164.055 17.8834 163.655 17.9961C163.256 18.1087 162.83 18.165 162.38 18.165C161.603 18.165 160.935 17.9933 160.378 17.6497C159.82 17.3062 159.392 16.819 159.094 16.1883C158.795 15.5575 158.646 14.8085 158.646 13.9412C158.646 12.9274 158.843 12.0686 159.237 11.3646C159.631 10.6606 160.152 10.1228 160.8 9.75109C161.448 9.37939 162.149 9.19353 162.904 9.19353C163.332 9.19353 163.723 9.23014 164.078 9.30336C164.433 9.37657 164.756 9.46949 165.049 9.58213C165.066 9.58776 165.083 9.59621 165.1 9.60466V5.49342ZM165.1 16.1066V10.9C165.013 10.869 164.92 10.8324 164.838 10.8071C164.573 10.7226 164.312 10.6606 164.052 10.6212C163.793 10.5818 163.523 10.5621 163.241 10.5621C162.656 10.5621 162.152 10.6832 161.729 10.9253C161.307 11.1675 160.983 11.5223 160.758 11.9897C160.533 12.4572 160.42 13.0401 160.42 13.7384C160.42 14.4368 160.521 14.9971 160.724 15.4533C160.927 15.9095 161.22 16.2474 161.603 16.467C161.986 16.6867 162.447 16.7965 162.988 16.7965C163.348 16.7965 163.751 16.7148 164.196 16.5515C164.48 16.4473 164.782 16.2953 165.1 16.1066ZM177.011 16.9148C177.101 16.9035 177.197 16.881 177.299 16.8472L177.113 17.9792C177.056 18.0017 176.992 18.0214 176.918 18.0383C176.845 18.0552 176.764 18.0749 176.673 18.0975C176.583 18.12 176.49 18.1341 176.395 18.1397C176.299 18.1453 176.2 18.1481 176.099 18.1481C175.739 18.1481 175.418 18.089 175.136 17.9707C174.854 17.8525 174.635 17.661 174.477 17.3963C174.393 17.2555 174.333 17.0894 174.294 16.8979C174.187 17.0218 174.077 17.1429 173.962 17.2527C173.652 17.5455 173.297 17.7708 172.897 17.9285C172.497 18.0862 172.022 18.165 171.47 18.165C170.873 18.165 170.374 18.0524 169.974 17.8271C169.574 17.6019 169.276 17.3062 169.079 16.9401C168.882 16.574 168.783 16.177 168.783 15.749C168.783 15.2984 168.91 14.8845 169.163 14.5072C169.417 14.1298 169.803 13.8173 170.321 13.5695C170.839 13.3217 171.492 13.1752 172.281 13.1302L174.255 12.9978V12.5754C174.255 12.2488 174.224 11.9644 174.156 11.7222C174.088 11.4801 173.976 11.2801 173.818 11.1224C173.66 10.9647 173.444 10.8465 173.168 10.7676C172.892 10.6888 172.551 10.6494 172.145 10.6494C171.92 10.6494 171.692 10.6578 171.461 10.6747C171.23 10.6916 170.997 10.7226 170.76 10.7676C170.523 10.8127 170.278 10.869 170.025 10.9366C169.772 11.0042 169.504 11.0886 169.223 11.19L169.425 9.7539C169.707 9.64127 170.003 9.54271 170.312 9.45823C170.622 9.37375 170.951 9.30899 171.301 9.26393C171.65 9.21888 172.005 9.19635 172.365 9.19635C172.861 9.19635 173.306 9.24141 173.7 9.33151C174.094 9.42162 174.435 9.55116 174.722 9.72011C175.009 9.88907 175.243 10.0974 175.423 10.3452C175.603 10.593 175.739 10.8803 175.829 11.2069C175.919 11.5336 175.964 11.894 175.964 12.2882L175.93 15.7687C175.919 16.1855 175.981 16.4839 176.116 16.6642C176.251 16.8444 176.471 16.9345 176.775 16.9345C176.842 16.9345 176.921 16.9289 177.011 16.9176V16.9148ZM174.243 15.9039L174.252 14.2284H172.773C172.221 14.2284 171.782 14.2734 171.456 14.3636C171.129 14.4537 170.892 14.5945 170.746 14.7859C170.599 14.9774 170.526 15.2421 170.526 15.58C170.526 15.8391 170.583 16.0616 170.695 16.2474C170.808 16.4333 170.974 16.5769 171.194 16.6782C171.413 16.7796 171.681 16.8303 171.996 16.8303C172.244 16.8303 172.483 16.8078 172.714 16.7627C172.945 16.7177 173.165 16.6444 173.373 16.5431C173.582 16.4417 173.779 16.3178 173.964 16.1714C174.063 16.0925 174.156 16.0024 174.246 15.9067L174.243 15.9039ZM181.742 16.7261C181.674 16.7374 181.615 16.7458 181.565 16.7515C181.514 16.7571 181.455 16.7599 181.387 16.7599C181.241 16.7599 181.117 16.7374 181.016 16.6923C180.914 16.6473 180.83 16.5769 180.762 16.4811C180.695 16.3854 180.647 16.2643 180.618 16.1179C180.59 15.9714 180.576 15.7969 180.576 15.5941V5.23999L178.853 5.49342V16.3572C178.853 16.6839 178.898 16.9626 178.988 17.1936C179.078 17.4245 179.208 17.6131 179.377 17.7595C179.546 17.906 179.746 18.0102 179.976 18.0721C180.207 18.1341 180.458 18.165 180.728 18.165C180.863 18.165 180.993 18.1594 181.117 18.1481C181.241 18.1369 181.362 18.12 181.48 18.0975C181.598 18.0749 181.697 18.0524 181.776 18.0299L181.945 16.6951L181.742 16.7289V16.7261Z" fill="#D4EEFC"/>
</g>
<defs>
<clipPath id="clip0_5918_1764">
<rect width="138" height="17" fill="white" transform="translate(44 5)"/>
</clipPath>
</defs>
</svg>
