<svg xmlns="http://www.w3.org/2000/svg" viewBox="0 0 145 24"><path fill="#0A2343" d="M0 17.997V6h4v11.998H0ZM9.244 7.908l2.264 10.09H7.2l-2.704-12h2.417a2.276 2.276 0 0 1 1.513.55c.42.346.66.826.819 1.36ZM12 17.998v-12h4v12h-4Zm7.01-7.436a2.382 2.382 0 0 1-2.4-2.4 2.301 2.301 0 0 1 .322-1.2A2.41 2.41 0 0 1 20.21 6.1c.356.21.653.506.862.862.215.363.326.778.321 1.2a2.35 2.35 0 0 1-.321 1.208 2.4 2.4 0 0 1-.862.87 2.3 2.3 0 0 1-1.2.322ZM22 17.997V6h4v11.998h-4Zm8.974-5.441c.01.011.095.15.253.414s.364.602.617 1.014a315.936 315.936 0 0 1 1.597 2.62c.247.41.529.875.845 1.393H29.96c-.27-.439-.516-.836-.736-1.19-.22-.356-.453-.739-.7-1.15-.248-.411-.493-.811-.736-1.2-.242-.39-.45-.73-.625-1.022-.175-.293-.296-.49-.363-.592a1.747 1.747 0 0 1-.287-.845c.016-.29.11-.57.27-.811.067-.113.191-.313.371-.6a182.106 182.106 0 0 0 1.37-2.23l.7-1.159.736-1.2h4.326l-3.346 5.459a1.08 1.08 0 0 0-.17.541c.012.202.083.396.204.558Z"/><g clip-path="url(#a)"><path fill="#1767CE" d="M48.467 7.526a4.943 4.943 0 0 0-1.79-1.25c-.705-.293-1.507-.44-2.408-.44s-1.73.152-2.45.456a5.137 5.137 0 0 0-1.833 1.284 5.627 5.627 0 0 0-1.149 1.986c-.265.771-.397 1.624-.397 2.56 0 .934.13 1.776.389 2.525.259.75.636 1.388 1.132 1.918.495.53 1.095.932 1.799 1.208.704.276 1.5.414 2.39.414.89 0 1.71-.147 2.425-.44a5.153 5.153 0 0 0 1.833-1.25 5.527 5.527 0 0 0 1.166-1.943c.27-.755.406-1.61.406-2.568 0-.957-.13-1.763-.389-2.517a5.524 5.524 0 0 0-1.124-1.943Zm-.574 6.386a4.24 4.24 0 0 1-.769 1.478 3.518 3.518 0 0 1-1.25.963c-.496.231-1.065.347-1.707.347-.642 0-1.168-.107-1.647-.321a3.481 3.481 0 0 1-1.233-.92 4.006 4.006 0 0 1-.777-1.445 6.38 6.38 0 0 1-.262-1.893c0-.935.16-1.763.481-2.483.321-.721.78-1.287 1.377-1.698.597-.412 1.318-.617 2.163-.617.845 0 1.52.194 2.095.583.574.388 1.017.935 1.326 1.639.31.704.465 1.523.465 2.458 0 .698-.087 1.335-.262 1.91Zm9.968.836c.096.243.144.533.144.87 0 .451-.093.84-.279 1.166a2.21 2.21 0 0 1-.769.794c-.326.203-.71.352-1.148.448-.44.096-.907.144-1.403.144-.214 0-.425-.006-.633-.017a4.366 4.366 0 0 1-.642-.085 14.64 14.64 0 0 1-.693-.16 10.19 10.19 0 0 1-.803-.245l-.067-1.436c.259.09.515.172.769.245.253.073.5.135.743.186.242.05.473.09.693.118.22.028.42.042.6.042.337 0 .656-.034.954-.101a1.62 1.62 0 0 0 .727-.347c.185-.163.278-.385.278-.667a.863.863 0 0 0-.296-.667 1.857 1.857 0 0 0-.346-.237 3.122 3.122 0 0 0-.439-.194 11.77 11.77 0 0 1-.346-.11 28.078 28.078 0 0 0-.744-.236 15.935 15.935 0 0 1-.785-.262c-.226-.09-.437-.2-.634-.33a2.477 2.477 0 0 1-.515-.448 1.988 1.988 0 0 1-.355-.616 2.387 2.387 0 0 1-.135-.837c0-.439.084-.819.253-1.14.17-.321.408-.586.718-.794a3.49 3.49 0 0 1 1.09-.473c.417-.107.878-.16 1.385-.16.203 0 .409.008.617.025.208.017.42.048.634.093.214.045.425.1.633.169.209.067.42.146.634.236l-.118 1.369a4.072 4.072 0 0 0-.49-.186c-.18-.057-.358-.107-.533-.152a5.741 5.741 0 0 0-1.005-.17 5.35 5.35 0 0 0-.405-.016 3.77 3.77 0 0 0-.752.067c-.22.046-.409.113-.566.203a.96.96 0 0 0-.355.33.877.877 0 0 0-.118.464c0 .158.036.299.11.423.073.123.168.23.287.32.118.09.25.175.397.254.135.068.284.13.447.186.164.056.333.11.507.16.175.051.35.107.524.17.175.061.352.12.532.177.248.09.485.2.71.33.225.129.422.284.591.464.17.18.302.391.397.633Zm5.027 1.986.203-.034-.17 1.335a3.775 3.775 0 0 1-1.047.135c-.27 0-.521-.031-.752-.093a1.493 1.493 0 0 1-.6-.313 1.413 1.413 0 0 1-.388-.566c-.09-.23-.135-.51-.135-.836V5.498l1.723-.253v10.357c0 .202.014.377.042.523a.925.925 0 0 0 .144.364.61.61 0 0 0 .253.21.914.914 0 0 0 .372.068c.067 0 .127 0 .177-.008.051-.006.11-.014.178-.025Zm7.966-6.995c-.648-.36-1.41-.54-2.29-.54-.878 0-1.647.185-2.306.557a3.895 3.895 0 0 0-1.537 1.571c-.366.676-.55 1.476-.55 2.4 0 .923.172 1.72.516 2.39.344.67.836 1.18 1.478 1.529.642.35 1.386.524 2.23.524.845 0 1.656-.186 2.332-.558a3.935 3.935 0 0 0 1.58-1.588c.377-.687.566-1.498.566-2.433 0-.935-.175-1.664-.524-2.323a3.691 3.691 0 0 0-1.495-1.529Zm-.101 5.66c-.22.473-.527.825-.921 1.056-.394.23-.845.346-1.352.346-.507 0-.946-.118-1.318-.354-.371-.237-.664-.592-.878-1.065-.214-.473-.321-1.059-.321-1.757s.107-1.256.32-1.707c.215-.45.516-.788.905-1.013.388-.225.853-.338 1.394-.338.428 0 .796.07 1.106.211.31.14.569.346.777.617.209.27.364.594.465.971.101.377.152.797.152 1.259 0 .71-.11 1.3-.33 1.774Zm14.344-5.66c-.648-.36-1.41-.54-2.29-.54-.878 0-1.647.185-2.306.557a3.895 3.895 0 0 0-1.537 1.571c-.366.676-.55 1.476-.55 2.4 0 .923.172 1.72.516 2.39.343.67.836 1.18 1.478 1.529.642.35 1.386.524 2.23.524.845 0 1.656-.186 2.332-.558a3.935 3.935 0 0 0 1.58-1.588c.377-.687.566-1.498.566-2.433 0-.935-.175-1.664-.524-2.323a3.691 3.691 0 0 0-1.495-1.529Zm-.101 5.66c-.22.473-.527.825-.921 1.056-.395.23-.845.346-1.352.346-.507 0-.946-.118-1.318-.354-.371-.237-.664-.592-.878-1.065-.214-.473-.321-1.059-.321-1.757s.107-1.256.32-1.707c.215-.45.516-.788.904-1.013.39-.225.854-.338 1.394-.338.428 0 .797.07 1.107.211.31.14.569.346.777.617.209.27.364.594.465.971.101.377.152.797.152 1.259 0 .71-.11 1.3-.33 1.774Zm9.63-5.981a6.042 6.042 0 0 0-.786-.16 6.595 6.595 0 0 0-.912-.06c-.563 0-1.098.107-1.605.321-.507.214-.96.521-1.36.921-.4.4-.713.896-.938 1.487-.225.591-.338 1.27-.338 2.036 0 .856.144 1.596.431 2.222.287.625.707 1.11 1.259 1.453.552.343 1.222.515 2.01.515.609 0 1.211-.118 1.808-.355.324-.13.645-.313.963-.546v.462c0 .428-.053.802-.16 1.123-.107.321-.27.591-.49.811-.22.22-.507.383-.862.49-.355.107-.786.16-1.293.16-.337 0-.684-.02-1.039-.058a7.333 7.333 0 0 1-1.072-.203 8.196 8.196 0 0 1-1.065-.363l.186 1.486c.304.124.622.228.954.313.333.084.68.15 1.04.194.36.045.732.068 1.115.068.957 0 1.763-.16 2.416-.482.653-.32 1.146-.766 1.478-1.334.332-.57.499-1.225.499-1.969V9.198l-1.653.425a4.622 4.622 0 0 0-.586-.205Zm.313 6.767c-.226.13-.443.236-.651.32a3.99 3.99 0 0 1-.608.195 2.764 2.764 0 0 1-.617.067c-.586 0-1.073-.11-1.461-.329a1.98 1.98 0 0 1-.862-.997c-.186-.445-.279-1.016-.279-1.715 0-.518.065-.977.195-1.377.129-.4.315-.729.557-.988.242-.26.54-.46.896-.6.354-.14.757-.211 1.208-.211.27 0 .535.022.794.067.259.046.523.11.794.195.081.025.169.059.253.093v5.15c-.073.045-.15.09-.22.13Zm15.797-10.18h1.757l-4.173 11.996h-2.197l-4.156-11.996h1.892l2.467 7.4c.135.383.268.792.397 1.225.13.434.256.87.38 1.31l.186.673.177-.64a62.028 62.028 0 0 1 .752-2.5l2.518-7.468Zm5.204.093c.101.175.152.369.152.583 0 .214-.051.411-.152.591a1.114 1.114 0 0 1-.997.575 1.19 1.19 0 0 1-.592-.152 1.148 1.148 0 0 1-.43-.423 1.138 1.138 0 0 1-.161-.591c0-.214.054-.408.161-.583.107-.175.25-.315.43-.422.181-.107.378-.16.592-.16.214 0 .408.053.583.16a1.2 1.2 0 0 1 .414.422Zm-1.893 3.37 1.724-.253v8.786h-1.724V9.469Zm7.696 3.915L125.84 18h-2.23l-3.452-4.14h-.028v4.14h-1.724V5.498l1.724-.253v7.315h.622l2.892-3.176h2.112l-4.013 3.999Zm11.565-2.91a3.06 3.06 0 0 0-1.242-.954c-.501-.214-1.073-.32-1.715-.32-.642 0-1.216.112-1.723.337a3.67 3.67 0 0 0-1.292.946 4.125 4.125 0 0 0-.811 1.462 6.094 6.094 0 0 0-.279 1.9c0 .924.166 1.71.498 2.357a3.306 3.306 0 0 0 1.479 1.47c.653.333 1.453.499 2.399.499.45 0 .847-.026 1.191-.076a5.7 5.7 0 0 0 .971-.228c.304-.102.609-.231.913-.389l.118-1.3-.65.236c-.22.078-.448.149-.685.21a5.138 5.138 0 0 1-.726.136 6.58 6.58 0 0 1-.744.042c-.507 0-.946-.048-1.318-.143a2.168 2.168 0 0 1-.937-.49c-.254-.231-.445-.544-.575-.938a4.295 4.295 0 0 1-.183-1.115h6.105c.079-.789.048-1.487-.093-2.095-.141-.608-.374-1.124-.701-1.546Zm-4.258.406c.361-.23.8-.346 1.318-.346s.975.127 1.301.38c.327.254.555.606.685 1.056.084.29.121.608.123.946h-4.443c.042-.377.11-.712.214-.988.175-.467.442-.817.802-1.048Zm15.071 1.63v5.492h-1.723v-5.136c0-.35-.034-.654-.101-.913a1.578 1.578 0 0 0-.321-.642 1.358 1.358 0 0 0-.558-.38 2.314 2.314 0 0 0-.811-.127c-.225 0-.459.02-.701.06-.242.039-.485.098-.727.177a7.662 7.662 0 0 0-.726.279c-.18.079-.352.169-.516.264v6.418h-1.723V9.469l1.723-.254v1.208c.153-.12.31-.24.474-.346a5.48 5.48 0 0 1 1.36-.65c.478-.153.96-.229 1.444-.229.654 0 1.194.119 1.622.355.428.237.749.597.963 1.081.214.485.321 1.11.321 1.876Z"/></g><defs><clipPath id="a"><path fill="#fff" d="M38 5h107v17H38z"/></clipPath></defs></svg>